g doodad_fashionweek_2025_glasses_lensSkin
v -0.021219786 -0.15483046 -0.08159141
v -0.028683702 -0.14746767 -0.08217936
v -0.048997134 -0.1605696 -0.083882205
v -0.017466323 -0.16307539 -0.081310436
v -0.038069736 -0.14180918 -0.082929626
v -0.020667203 -0.17185633 -0.08158411
v -0.047847535 -0.13828228 -0.08371767
v -0.024084551 -0.17613317 -0.0818445
v -0.057735574 -0.1368532 -0.084522046
v -0.037786126 -0.18433748 -0.08300061
v -0.07081955 -0.13958022 -0.085600965
v -0.047498364 -0.18570659 -0.08383519
v -0.07370121 -0.1424274 -0.085845724
v -0.05736198 -0.18386488 -0.08465461
v -0.07723925 -0.14956902 -0.08615798
v -0.0692835 -0.17595696 -0.085623436
v -0.0777624 -0.15840308 -0.08622879
v -0.0747097 -0.16748339 -0.08600763
v -0.049287234 -0.1605808 -0.080336146
v -0.017756447 -0.16308664 -0.07776439
v -0.020946847 -0.17185304 -0.07806906
v -0.024297003 -0.17608719 -0.07838921
v -0.021509938 -0.15484154 -0.07804538
v -0.03788503 -0.18426964 -0.07951751
v -0.028973848 -0.14747868 -0.07863334
v -0.047646333 -0.18571685 -0.08028517
v -0.038359705 -0.14182036 -0.079383574
v -0.057459753 -0.18396214 -0.081064194
v -0.0481375 -0.1382935 -0.080171615
v -0.06935366 -0.17619184 -0.08199393
v -0.058025666 -0.13686445 -0.08097597
v -0.07499982 -0.16749457 -0.08246157
v -0.07110964 -0.13959144 -0.08205492
v -0.07805253 -0.15841429 -0.08268275
v -0.073991336 -0.14243865 -0.08229969
v -0.07752939 -0.14958027 -0.08261192
v 0.021219786 -0.15483046 -0.08159141
v 0.048997134 -0.1605696 -0.083882205
v 0.028683702 -0.14746767 -0.08217936
v 0.017466323 -0.16307539 -0.081310436
v 0.038069736 -0.14180918 -0.082929626
v 0.020667203 -0.17185633 -0.08158411
v 0.047847535 -0.13828228 -0.08371767
v 0.024084551 -0.17613317 -0.0818445
v 0.057735574 -0.1368532 -0.084522046
v 0.037786126 -0.18433748 -0.08300061
v 0.07081955 -0.13958022 -0.085600965
v 0.047498364 -0.18570659 -0.08383519
v 0.07370121 -0.1424274 -0.085845724
v 0.05736198 -0.18386488 -0.08465461
v 0.07723925 -0.14956902 -0.08615798
v 0.0692835 -0.17595696 -0.085623436
v 0.0777624 -0.15840308 -0.08622879
v 0.0747097 -0.16748339 -0.08600763
v 0.049287234 -0.1605808 -0.080336146
v 0.020946847 -0.17185304 -0.07806906
v 0.017756447 -0.16308664 -0.07776439
v 0.024297003 -0.17608719 -0.07838921
v 0.021509938 -0.15484154 -0.07804538
v 0.03788503 -0.18426964 -0.07951751
v 0.028973848 -0.14747868 -0.07863334
v 0.047646333 -0.18571685 -0.08028517
v 0.038359705 -0.14182036 -0.079383574
v 0.057459753 -0.18396214 -0.081064194
v 0.0481375 -0.1382935 -0.080171615
v 0.06935366 -0.17619184 -0.08199393
v 0.058025666 -0.13686445 -0.08097597
v 0.07499982 -0.16749457 -0.08246157
v 0.07110964 -0.13959144 -0.08205492
v 0.07805253 -0.15841429 -0.08268275
v 0.073991336 -0.14243865 -0.08229969
v 0.07752939 -0.14958027 -0.08261192
vt 0.70175403 0.86626613
vt 0.7362329 0.90027755
vt 0.83006907 0.83975446
vt 0.6844152 0.82817936
vt 0.77959096 0.92641675
vt 0.70006967 0.78814185
vt 0.82475877 0.94270897
vt 0.7277062 0.7585462
vt 0.8704357 0.9493104
vt 0.7797977 0.73495615
vt 0.9181128 0.9418186
vt 0.82284176 0.7271674
vt 0.9441877 0.92356104
vt 0.86711615 0.7345677
vt 0.96053153 0.8905707
vt 0.92100126 0.7704618
vt 0.9629481 0.84976256
vt 0.94884646 0.80781674
vt 0.8314091 0.8397026
vt 0.68575525 0.82812726
vt 0.70140964 0.78809
vt 0.72904617 0.75849456
vt 0.7030942 0.86621475
vt 0.7811378 0.7349043
vt 0.7375732 0.9002269
vt 0.8241817 0.7271154
vt 0.78093016 0.9263649
vt 0.86845607 0.73451596
vt 0.82609797 0.942657
vt 0.9223412 0.7704102
vt 0.87177545 0.9492586
vt 0.9501864 0.80776525
vt 0.91945297 0.94176674
vt 0.9642882 0.8497107
vt 0.9455278 0.9235088
vt 0.9618716 0.89051884
vt 0.70175403 0.86626613
vt 0.83006907 0.83975446
vt 0.7362329 0.90027755
vt 0.6844152 0.82817936
vt 0.77959096 0.92641675
vt 0.70006967 0.78814185
vt 0.82475877 0.94270897
vt 0.7277062 0.7585462
vt 0.8704357 0.9493104
vt 0.7797977 0.73495615
vt 0.9181128 0.9418186
vt 0.82284176 0.7271674
vt 0.9441877 0.92356104
vt 0.86711615 0.7345677
vt 0.96053153 0.8905707
vt 0.92100126 0.7704618
vt 0.9629481 0.84976256
vt 0.94884646 0.80781674
vt 0.8314091 0.8397026
vt 0.70140964 0.78809
vt 0.68575525 0.82812726
vt 0.72904617 0.75849456
vt 0.7030942 0.86621475
vt 0.7811378 0.7349043
vt 0.7375732 0.9002269
vt 0.8241817 0.7271154
vt 0.78093016 0.9263649
vt 0.86845607 0.73451596
vt 0.82609797 0.942657
vt 0.9223412 0.7704102
vt 0.87177545 0.9492586
vt 0.9501864 0.80776525
vt 0.91945297 0.94176674
vt 0.9642882 0.8497107
vt 0.9455278 0.9235088
vt 0.9618716 0.89051884
vn 0.08154749 0.0031327007 -0.99666446
vn 0.08155131 0.003096819 -0.99666435
vn 0.081535324 0.003145575 -0.9966654
vn 0.08154249 0.0031545165 -0.9966648
vn 0.08150745 0.0031310325 -0.9966678
vn 0.08154178 0.0031515358 -0.99666494
vn 0.08150327 0.00315392 -0.99666804
vn 0.08154106 0.0031489136 -0.99666494
vn 0.08153045 0.003151536 -0.9966659
vn 0.08154142 0.0031498673 -0.99666494
vn 0.081531525 0.0031533241 -0.9966658
vn 0.081538916 0.0031493902 -0.9966652
vn 0.0815444 0.0031698945 -0.9966646
vn 0.08153618 0.0031496286 -0.9966654
vn 0.0815463 0.0031687017 -0.99666446
vn 0.08153773 0.0031471255 -0.9966653
vn 0.08154212 0.0031509397 -0.9966648
vn 0.081540704 0.003141046 -0.99666506
vn -0.0815351 -0.0031453967 0.9966654
vn -0.08154219 -0.003153503 0.9966648
vn -0.081541955 -0.0031518338 0.99666494
vn -0.08154124 -0.0031503444 0.99666494
vn -0.081547186 -0.003131389 0.99666446
vn -0.08154065 -0.0031498675 0.99666506
vn -0.08155065 -0.0030959246 0.99666435
vn -0.08153808 -0.0031493302 0.9966652
vn -0.0815066 -0.0031309726 0.9966679
vn -0.081536055 -0.0031492705 0.9966654
vn -0.08150159 -0.0031535623 0.99666816
vn -0.08153785 -0.0031468277 0.9966653
vn -0.08153093 -0.0031524901 0.9966658
vn -0.08154089 -0.0031400325 0.99666506
vn -0.08153325 -0.0031545756 0.99666566
vn -0.08154279 -0.0031514768 0.9966648
vn -0.08154421 -0.0031687617 0.9966647
vn -0.08154607 -0.003168583 0.99666446
vn -0.08154749 0.0031327007 -0.99666446
vn -0.08153527 0.003145575 -0.9966654
vn -0.081551366 0.0030968185 -0.9966642
vn -0.081542484 0.003154516 -0.9966648
vn -0.08150745 0.0031310325 -0.9966678
vn -0.08154172 0.0031515358 -0.99666494
vn -0.08150333 0.00315392 -0.99666804
vn -0.08154106 0.0031489136 -0.99666494
vn -0.08153045 0.003151536 -0.9966659
vn -0.08154142 0.0031498673 -0.99666494
vn -0.081531584 0.0031533241 -0.9966658
vn -0.081538916 0.0031493902 -0.9966652
vn -0.08154445 0.003169894 -0.9966646
vn -0.08153618 0.0031496286 -0.9966654
vn -0.08154624 0.0031685825 -0.99666446
vn -0.08153767 0.003147006 -0.9966653
vn -0.08154219 0.0031509397 -0.9966648
vn -0.081540704 0.003141046 -0.99666506
vn 0.0815351 -0.003145337 0.9966654
vn 0.081541896 -0.0031518338 0.99666494
vn 0.081542246 -0.003153503 0.9966648
vn 0.0815413 -0.0031503444 0.99666494
vn 0.081547245 -0.003131389 0.99666446
vn 0.08154059 -0.0031498675 0.99666506
vn 0.0815507 -0.0030959246 0.99666435
vn 0.08153808 -0.0031493302 0.9966652
vn 0.0815066 -0.0031309726 0.9966679
vn 0.081536055 -0.0031492705 0.9966654
vn 0.081501596 -0.0031535628 0.99666816
vn 0.08153785 -0.0031468277 0.9966653
vn 0.08153093 -0.0031524901 0.9966658
vn 0.08154094 -0.0031400325 0.99666506
vn 0.08153319 -0.0031545756 0.99666566
vn 0.08154285 -0.0031514768 0.9966648
vn 0.08154416 -0.003168702 0.9966647
vn 0.08154607 -0.0031685233 0.99666446
g doodad_fashionweek_2025_glasses_lensSkin_0
f 3/3/3 2/2/2 1/1/1
f 3/3/3 1/1/1 4/4/4
f 3/3/3 5/5/5 2/2/2
f 4/4/4 6/6/6 3/3/3
f 3/3/3 7/7/7 5/5/5
f 6/6/6 8/8/8 3/3/3
f 3/3/3 9/9/9 7/7/7
f 8/8/8 10/10/10 3/3/3
f 3/3/3 11/11/11 9/9/9
f 10/10/10 12/12/12 3/3/3
f 3/3/3 13/13/13 11/11/11
f 12/12/12 14/14/14 3/3/3
f 3/3/3 15/15/15 13/13/13
f 14/14/14 16/16/16 3/3/3
f 3/3/3 17/17/17 15/15/15
f 16/16/16 18/18/18 3/3/3
f 18/18/18 17/17/17 3/3/3
f 21/21/21 20/20/20 19/19/19
f 22/22/22 21/21/21 19/19/19
f 23/23/23 19/19/19 20/20/20
f 24/24/24 22/22/22 19/19/19
f 25/25/25 19/19/19 23/23/23
f 26/26/26 24/24/24 19/19/19
f 27/27/27 19/19/19 25/25/25
f 28/28/28 26/26/26 19/19/19
f 29/29/29 19/19/19 27/27/27
f 30/30/30 28/28/28 19/19/19
f 31/31/31 19/19/19 29/29/29
f 32/32/32 30/30/30 19/19/19
f 33/33/33 19/19/19 31/31/31
f 34/34/34 32/32/32 19/19/19
f 35/35/35 19/19/19 33/33/33
f 34/34/34 19/19/19 36/36/36
f 36/36/36 19/19/19 35/35/35
f 39/39/39 38/38/38 37/37/37
f 37/37/37 38/38/38 40/40/40
f 41/41/41 38/38/38 39/39/39
f 42/42/42 40/40/40 38/38/38
f 43/43/43 38/38/38 41/41/41
f 44/44/44 42/42/42 38/38/38
f 45/45/45 38/38/38 43/43/43
f 46/46/46 44/44/44 38/38/38
f 47/47/47 38/38/38 45/45/45
f 48/48/48 46/46/46 38/38/38
f 49/49/49 38/38/38 47/47/47
f 50/50/50 48/48/48 38/38/38
f 51/51/51 38/38/38 49/49/49
f 52/52/52 50/50/50 38/38/38
f 53/53/53 38/38/38 51/51/51
f 54/54/54 52/52/52 38/38/38
f 53/53/53 54/54/54 38/38/38
f 57/57/57 56/56/56 55/55/55
f 56/56/56 58/58/58 55/55/55
f 55/55/55 59/59/59 57/57/57
f 58/58/58 60/60/60 55/55/55
f 55/55/55 61/61/61 59/59/59
f 60/60/60 62/62/62 55/55/55
f 55/55/55 63/63/63 61/61/61
f 62/62/62 64/64/64 55/55/55
f 55/55/55 65/65/65 63/63/63
f 64/64/64 66/66/66 55/55/55
f 55/55/55 67/67/67 65/65/65
f 66/66/66 68/68/68 55/55/55
f 55/55/55 69/69/69 67/67/67
f 68/68/68 70/70/70 55/55/55
f 55/55/55 71/71/71 69/69/69
f 55/55/55 70/70/70 72/72/72
f 55/55/55 72/72/72 71/71/71
