g mac__pPlane207
v -0.50791055 1.2926971 -8.323499
v -0.45042896 1.3959064 -8.607528
v 0.6624302 1.5336703 -8.301433
v 0.27425796 1.2926971 -7.551834
v -0.45042896 1.3959064 -8.607528
v -0.59059745 1.5876521 -9.79084
v 0.31432694 1.6547723 -9.95595
v 0.6624302 1.5336703 -8.301433
v 0.31432694 1.6547723 -9.95595
v 2.6845496 2.0611587 -11.1138935
v 5.0465426 1.9400567 -10.784097
v 0.6624302 1.5336703 -8.301433
vt 0 0
vt 0 1
vt 1 1
vt 1 0
vt 0 0
vt 0 1
vt 1 1
vt 1 0
vt 0 0
vt 0 1
vt 1 1
vt 1 0
vn -0.20040178 0.95217484 0.23065577
vn -0.20040178 0.95217484 0.23065577
vn -0.20040178 0.95217484 0.23065577
vn -0.2004018 0.95217484 0.23065576
vn -0.109005295 0.9858387 0.1274358
vn -0.109005295 0.9858387 0.1274358
vn -0.1090053 0.9858387 0.1274358
vn -0.10900528 0.9858387 0.1274358
vn -0.030982394 0.98619103 0.1626881
vn -0.03098239 0.9861909 0.1626881
vn -0.030982394 0.98619103 0.1626881
vn -0.030982394 0.9861909 0.16268812
g mac__pPlane207_0
f 3/3/3 2/2/2 1/1/1
f 4/4/4 3/3/3 1/1/1
f 7/7/7 6/6/6 5/5/5
f 8/8/8 7/7/7 5/5/5
f 11/11/11 10/10/10 9/9/9
f 12/12/12 11/11/11 9/9/9
