g mac__pCube111
v 0.2391677 1.4253426 -8.259422
v 0.19420005 1.4636029 -8.310119
v 0.2601063 1.4475306 -8.353003
v 0.2806243 1.3073671 -8.3349695
v 0.30157942 1.3218977 -8.276884
v 0.31548294 1.3400177 -8.373534
v -0.20659596 1.5427649 -8.767219
v -0.26556948 1.5631291 -8.724337
v -0.30546772 1.5436392 -8.761468
v -0.29668695 1.2651306 -8.814224
v -0.24978325 1.2950761 -8.852601
v -0.35215643 1.3054768 -8.840447
v -0.40177 1.5561653 -8.642786
v -0.4547692 1.5280132 -8.600604
v -0.42349774 1.5387324 -8.694985
v -0.5119277 1.2836775 -8.679263
v -0.45082507 1.2633843 -8.721181
v -0.47749764 1.3035873 -8.770596
v -0.09970436 1.406411 -8.097638
v -0.0487479 1.4351565 -8.125748
v 0.0024458312 1.3970629 -8.091598
v 0.021544876 1.2827264 -8.157032
v -0.04324993 1.298748 -8.104283
v 0.056438215 1.2954638 -8.104174
v 0.2391677 1.4253426 -8.259422
v 0.0024458312 1.3970629 -8.091598
v -0.0487479 1.4351565 -8.125748
v 0.19420005 1.4636029 -8.310119
v 0.2601063 1.4475306 -8.353003
v 0.31548294 1.3400177 -8.373534
v 0.30157942 1.3218977 -8.276884
v 0.2391677 1.4253426 -8.259422
v 0.19420005 1.4636029 -8.310119
v 0.06447395 1.5340778 -8.538779
v 0.1185062 1.5173432 -8.592525
v 0.2601063 1.4475306 -8.353003
v 0.2806243 1.3073671 -8.3349695
v 0.021544876 1.2827264 -8.157032
v 0.056438215 1.2954638 -8.104174
v 0.30157942 1.3218977 -8.276884
v 0.31548294 1.3400177 -8.373534
v 0.15264602 1.3320848 -8.638438
v 0.10114681 1.3025129 -8.597994
v 0.2806243 1.3073671 -8.3349695
v -0.20659596 1.5427649 -8.767219
v 0.04634773 1.5323002 -8.658435
v -0.008027916 1.5491493 -8.604831
v -0.26556948 1.5631291 -8.724337
v -0.30546772 1.5436392 -8.761468
v -0.35215643 1.3054768 -8.840447
v -0.24978325 1.2950761 -8.852601
v -0.20659596 1.5427649 -8.767219
v -0.26556948 1.5631291 -8.724337
v -0.40177 1.5561653 -8.642786
v -0.42349774 1.5387324 -8.694985
v -0.30546772 1.5436392 -8.761468
v -0.29668695 1.2651306 -8.814224
v -0.025554847 1.2812839 -8.701834
v 0.0280822 1.3110417 -8.743805
v -0.24978325 1.2950761 -8.852601
v -0.35215643 1.3054768 -8.840447
v -0.47749764 1.3035873 -8.770596
v -0.45082507 1.2633843 -8.721181
v -0.29668695 1.2651306 -8.814224
v -0.40177 1.5561653 -8.642786
v -0.2817846 1.5228666 -8.355848
v -0.334578 1.4933189 -8.312496
v -0.4547692 1.5280132 -8.600604
v -0.4547692 1.5280132 -8.600604
v -0.5119277 1.2836775 -8.679263
v -0.47749764 1.3035873 -8.770596
v -0.42349774 1.5387324 -8.694985
v -0.5119277 1.2836775 -8.679263
v -0.33403403 1.3720193 -8.344778
v -0.32171175 1.2563792 -8.439584
v -0.45082507 1.2633843 -8.721181
v -0.09970436 1.406411 -8.097638
v -0.2763009 1.4719503 -8.234151
v -0.22476798 1.5020525 -8.276193
v -0.0487479 1.4351565 -8.125748
v 0.0024458312 1.3970629 -8.091598
v 0.056438215 1.2954638 -8.104174
v -0.04324993 1.298748 -8.104283
v -0.09970436 1.406411 -8.097638
v 0.021544876 1.2827264 -8.157032
v -0.21531977 1.2748011 -8.318279
v -0.2673805 1.293195 -8.267357
v -0.04324993 1.298748 -8.104283
v 0.06447395 1.5340778 -8.538779
v -0.22476798 1.5020525 -8.276193
v -0.2817846 1.5228666 -8.355848
v -0.008027916 1.5491493 -8.604831
v 0.04634773 1.5323002 -8.658435
v 0.0280822 1.3110417 -8.743805
v 0.15264602 1.3320848 -8.638438
v 0.1185062 1.5173432 -8.592525
v -0.025554847 1.2812839 -8.701834
v -0.32171175 1.2563792 -8.439584
v -0.21531977 1.2748011 -8.318279
v 0.10114681 1.3025129 -8.597994
v -0.2763009 1.4719503 -8.234151
v -0.2673805 1.293195 -8.267357
v -0.33403403 1.3720193 -8.344778
v -0.334578 1.4933189 -8.312496
v 0.2601063 1.4475306 -8.353003
v 0.1185062 1.5173432 -8.592525
v 0.15264602 1.3320848 -8.638438
v 0.31548294 1.3400177 -8.373534
v -0.30546772 1.5436392 -8.761468
v -0.42349774 1.5387324 -8.694985
v -0.47749764 1.3035873 -8.770596
v -0.35215643 1.3054768 -8.840447
v -0.2763009 1.4719503 -8.234151
v -0.09970436 1.406411 -8.097638
v -0.04324993 1.298748 -8.104283
v -0.2673805 1.293195 -8.267357
v 0.0024458312 1.3970629 -8.091598
v 0.2391677 1.4253426 -8.259422
v 0.30157942 1.3218977 -8.276884
v 0.056438215 1.2954638 -8.104174
v 0.2806243 1.3073671 -8.3349695
v 0.10114681 1.3025129 -8.597994
v -0.21531977 1.2748011 -8.318279
v 0.021544876 1.2827264 -8.157032
v -0.0487479 1.4351565 -8.125748
v -0.22476798 1.5020525 -8.276193
v 0.06447395 1.5340778 -8.538779
v 0.19420005 1.4636029 -8.310119
v 0.04634773 1.5323002 -8.658435
v -0.20659596 1.5427649 -8.767219
v -0.24978325 1.2950761 -8.852601
v 0.0280822 1.3110417 -8.743805
v -0.2817846 1.5228666 -8.355848
v -0.40177 1.5561653 -8.642786
v -0.26556948 1.5631291 -8.724337
v -0.008027916 1.5491493 -8.604831
v -0.4547692 1.5280132 -8.600604
v -0.334578 1.4933189 -8.312496
v -0.33403403 1.3720193 -8.344778
v -0.5119277 1.2836775 -8.679263
v -0.025554847 1.2812839 -8.701834
v -0.29668695 1.2651306 -8.814224
v -0.45082507 1.2633843 -8.721181
v -0.32171175 1.2563792 -8.439584
v 0.06447395 1.5340778 -8.538779
v -0.008027916 1.5491493 -8.604831
v 0.04634773 1.5323002 -8.658435
v 0.1185062 1.5173432 -8.592525
v -0.025554847 1.2812839 -8.701834
v 0.10114681 1.3025129 -8.597994
v 0.15264602 1.3320848 -8.638438
v 0.0280822 1.3110417 -8.743805
v -0.2763009 1.4719503 -8.234151
v -0.334578 1.4933189 -8.312496
v -0.2817846 1.5228666 -8.355848
v -0.22476798 1.5020525 -8.276193
v -0.21531977 1.2748011 -8.318279
v -0.32171175 1.2563792 -8.439584
v -0.33403403 1.3720193 -8.344778
v -0.2673805 1.293195 -8.267357
vt 0.408722 -1.6959508E-09
vt 0.34522033 0.020517614
vt 0.41381386 0.019090328
vt 0.6637738 0.016370527
vt 0.57722616 -1.6959508E-09
vt 0.5918891 0.02033964
vt 0.43762416 0.23116535
vt 0.375 0.2942695
vt 0.43810084 0.30344388
vt 0.625 0.276235
vt 0.59507227 0.23160605
vt 0.5704052 0.30239886
vt 0.375 0.43789184
vt 0.4456271 0.5207335
vt 0.44175038 0.43497
vt 0.593814 0.519445
vt 0.625 0.427847
vt 0.56763256 0.4363096
vt 0.4061987 0.730763
vt 0.375 0.73352563
vt 0.41012755 0.7889905
vt 0.625 0.73636305
vt 0.58247507 0.73285866
vt 0.58133894 0.7862615
vt 0.41304445 0.962629
vt 0.41012755 0.7889905
vt 0.375 0.78358305
vt 0.375 0.9608717
vt 0.41381386 0.019090328
vt 0.5918891 0.02033964
vt 0.57722616 -1.6959508E-09
vt 0.408722 -1.6959508E-09
vt 0.34522033 0.020517614
vt 0.34386858 0.09875031
vt 0.4115561 0.10070734
vt 0.41381386 0.019090328
vt 0.625 0.9620441
vt 0.6204178 0.7791362
vt 0.58133894 0.7862615
vt 0.58601964 0.9611497
vt 0.5918891 0.02033964
vt 0.591147 0.10072886
vt 0.66531014 0.099245496
vt 0.6637738 0.016370527
vt 0.43762416 0.23116535
vt 0.42371467 0.13360436
vt 0.34381208 0.13210852
vt 0.34507456 0.23127875
vt 0.43810084 0.30344388
vt 0.5704052 0.30239886
vt 0.59507227 0.23160605
vt 0.43762416 0.23116535
vt 0.375 0.2942695
vt 0.375 0.43789184
vt 0.44175038 0.43497
vt 0.43810084 0.30344388
vt 0.6526312 0.23056816
vt 0.6577552 0.13406661
vt 0.5908452 0.13379379
vt 0.59507227 0.23160605
vt 0.5704052 0.30239886
vt 0.56763256 0.4363096
vt 0.625 0.427847
vt 0.625 0.276235
vt 0.19531146 0.23105699
vt 0.17516121 0.13238743
vt 0.125 0.13663845
vt 0.12902737 0.23293988
vt 0.4456271 0.5207335
vt 0.593814 0.519445
vt 0.56763256 0.4363096
vt 0.44175038 0.43497
vt 0.593814 0.519445
vt 0.5933443 0.61862934
vt 0.62499994 0.6118781
vt 0.625 0.5170896
vt 0.4061987 0.730763
vt 0.4091035 0.6533046
vt 0.37545112 0.6553737
vt 0.375 0.73352563
vt 0.41012755 0.7889905
vt 0.58133894 0.7862615
vt 0.58247507 0.73285866
vt 0.4061987 0.730763
vt 0.625 0.73636305
vt 0.625 0.6570781
vt 0.58553743 0.6533879
vt 0.58247507 0.73285866
vt 0.34386858 0.09875031
vt 0.16556327 0.09886311
vt 0.17516121 0.13238743
vt 0.34381208 0.13210852
vt 0.42371467 0.13360436
vt 0.5908452 0.13379379
vt 0.591147 0.10072886
vt 0.4115561 0.10070734
vt 0.6577552 0.13406661
vt 0.82718015 0.13324946
vt 0.8455622 0.09944815
vt 0.66531014 0.099245496
vt 0.4091035 0.6533046
vt 0.58553743 0.6533879
vt 0.5933443 0.61862934
vt 0.42494065 0.61891913
vt 0.41381386 0.019090328
vt 0.4115561 0.10070734
vt 0.591147 0.10072886
vt 0.5918891 0.02033964
vt 0.43810084 0.30344388
vt 0.44175038 0.43497
vt 0.56763256 0.4363096
vt 0.5704052 0.30239886
vt 0.4091035 0.6533046
vt 0.4061987 0.730763
vt 0.58247507 0.73285866
vt 0.58553743 0.6533879
vt 0.41012755 0.7889905
vt 0.41304445 0.962629
vt 0.58601964 0.9611497
vt 0.58133894 0.7862615
vt 0.6637738 0.016370527
vt 0.66531014 0.099245496
vt 0.8455622 0.09944815
vt 0.84479195 0.017973857
vt 0.16623203 0.019180464
vt 0.16556327 0.09886311
vt 0.34386858 0.09875031
vt 0.34522033 0.020517614
vt 0.42371467 0.13360436
vt 0.43762416 0.23116535
vt 0.59507227 0.23160605
vt 0.5908452 0.13379379
vt 0.17516121 0.13238743
vt 0.19531146 0.23105699
vt 0.34507456 0.23127875
vt 0.34381208 0.13210852
vt 0.4456271 0.5207335
vt 0.42494065 0.61891913
vt 0.5933443 0.61862934
vt 0.593814 0.519445
vt 0.6577552 0.13406661
vt 0.6526312 0.23056816
vt 0.81312245 0.2313832
vt 0.82718015 0.13324946
vt 0.34386858 0.09875031
vt 0.34381208 0.13210852
vt 0.42371467 0.13360436
vt 0.4115561 0.10070734
vt 0.6577552 0.13406661
vt 0.66531014 0.099245496
vt 0.591147 0.10072886
vt 0.5908452 0.13379379
vt 0.4091035 0.6533046
vt 0.42494065 0.61891913
vt 0.38853556 0.63618666
vt 0.37545112 0.6553737
vt 0.625 0.6570781
vt 0.6215287 0.63776696
vt 0.5933443 0.61862934
vt 0.58553743 0.6533879
vn 0.40351164 0.86591107 0.29559508
vn 0.40351167 0.865911 0.29559508
vn 0.40351164 0.865911 0.29559508
vn 0.6544571 -0.7546165 -0.047327578
vn 0.6544571 -0.7546165 -0.047327586
vn 0.6544571 -0.7546164 -0.047327578
vn -0.01823101 0.89321667 -0.4492566
vn -0.01823101 0.89321667 -0.44925654
vn -0.01823101 0.8932168 -0.44925654
vn -0.15419833 -0.6786964 -0.7180488
vn -0.15419833 -0.6786964 -0.7180488
vn -0.15419833 -0.6786964 -0.7180488
vn -0.5122863 0.85574514 -0.07254599
vn -0.51228625 0.85574514 -0.072546
vn -0.51228625 0.85574526 -0.072546005
vn -0.5078798 -0.78173345 -0.36187148
vn -0.50787985 -0.7817334 -0.36187145
vn -0.5078799 -0.7817334 -0.36187154
vn 0.019112587 0.68151313 0.7315563
vn 0.019112585 0.68151313 0.73155624
vn 0.019112589 0.68151313 0.73155624
vn -0.03212174 -0.9666341 0.25413913
vn -0.032121744 -0.9666341 0.25413916
vn -0.03212174 -0.9666341 0.25413913
vn 0.24969603 0.8433093 0.4759006
vn 0.24969606 0.8433093 0.4759006
vn 0.24969603 0.8433093 0.47590053
vn 0.24969606 0.8433093 0.47590053
vn 0.8637357 0.43709528 0.25081527
vn 0.8637357 0.43709528 0.2508153
vn 0.8637357 0.43709528 0.25081527
vn 0.8637357 0.43709528 0.25081527
vn 0.3298657 0.9396893 0.09040301
vn 0.3298657 0.9396893 0.09040301
vn 0.3298657 0.9396893 0.09040303
vn 0.3298657 0.9396893 0.09040301
vn 0.19570594 -0.97061193 0.14004168
vn 0.19570594 -0.97061193 0.14004168
vn 0.19570592 -0.97061193 0.14004166
vn 0.19570594 -0.97061193 0.14004166
vn 0.40969062 -0.8788867 -0.24436
vn 0.40969068 -0.8788867 -0.24436
vn 0.4096906 -0.8788867 -0.24435997
vn 0.40969062 -0.8788867 -0.24435997
vn 0.1398236 0.967862 -0.20902745
vn 0.13982357 0.967862 -0.20902742
vn 0.13982359 0.967862 -0.20902744
vn 0.13982359 0.967862 -0.20902745
vn -0.06524036 0.3305831 -0.94151926
vn -0.06524036 0.33058313 -0.94151926
vn -0.06524036 0.33058313 -0.94151926
vn -0.06524036 0.33058313 -0.94151926
vn -0.19406953 0.9466206 -0.25738388
vn -0.19406952 0.9466206 -0.25738388
vn -0.19406956 0.9466206 -0.25738388
vn -0.19406952 0.9466206 -0.25738388
vn 0.21239042 -0.89266694 -0.39753765
vn 0.21239045 -0.89266694 -0.39753765
vn 0.21239044 -0.8926668 -0.39753768
vn 0.21239042 -0.89266694 -0.3975377
vn -0.29651216 -0.7967852 -0.52651095
vn -0.2965122 -0.7967852 -0.52651095
vn -0.2965122 -0.7967852 -0.5265111
vn -0.29651216 -0.7967852 -0.5265111
vn -0.30955207 0.92058045 0.23813672
vn -0.30955207 0.92058045 0.23813666
vn -0.30955204 0.92058045 0.2381367
vn -0.30955207 0.92058045 0.23813672
vn -0.9138115 0.29995185 -0.27382013
vn -0.91381145 0.29995182 -0.2738202
vn -0.9138115 0.29995182 -0.27382016
vn -0.91381145 0.29995185 -0.27382022
vn -0.5899262 -0.7084014 0.38749787
vn -0.5899262 -0.7084014 0.3874979
vn -0.5899262 -0.7084014 0.3874979
vn -0.5899261 -0.70840144 0.38749787
vn -0.11766692 0.8387331 0.5316779
vn -0.11766692 0.8387331 0.5316779
vn -0.11766692 0.8387331 0.5316779
vn -0.11766693 0.8387331 0.5316779
vn -0.037196927 -0.110858425 0.9931399
vn -0.03719692 -0.11085842 0.9931399
vn -0.037196923 -0.110858425 0.9931399
vn -0.03719692 -0.11085842 0.9931399
vn -0.11097035 -0.97385794 0.19820769
vn -0.11097033 -0.97385794 0.19820768
vn -0.11097035 -0.97385794 0.1982077
vn -0.11097034 -0.97385794 0.19820769
vn 0.06523223 0.9808374 0.18358296
vn 0.06523223 0.9808374 0.18358295
vn 0.06523222 0.9808374 0.18358293
vn 0.06523223 0.9808374 0.18358295
vn 0.6292793 0.26098704 -0.7320473
vn 0.6292793 0.260987 -0.7320473
vn 0.6292793 0.26098704 -0.7320473
vn 0.6292793 0.26098704 -0.7320473
vn 0.12502931 -0.9911272 0.04510706
vn 0.12502931 -0.9911272 0.04510705
vn 0.12502933 -0.9911272 0.04510706
vn 0.12502931 -0.9911272 0.04510706
vn -0.8157506 -0.14777958 0.5592068
vn -0.8157506 -0.14777957 0.5592068
vn -0.8157505 -0.14777955 0.5592067
vn -0.8157505 -0.14777955 0.5592068
vn 0.8195634 0.3530165 -0.4513261
vn 0.8195634 0.3530165 -0.4513261
vn 0.8195634 0.3530165 -0.4513261
vn 0.8195634 0.3530165 -0.4513261
vn -0.463151 0.36265618 -0.8086851
vn -0.463151 0.36265618 -0.8086851
vn -0.46315098 0.36265615 -0.8086852
vn -0.46315095 0.36265612 -0.8086852
vn -0.6038738 -0.24343693 0.75899607
vn -0.6038737 -0.2434369 0.7589961
vn -0.6038737 -0.2434369 0.7589961
vn -0.6038738 -0.24343693 0.75899607
vn 0.55135196 0.19414514 0.8113684
vn 0.55135196 0.19414514 0.8113684
vn 0.55135196 0.19414519 0.8113684
vn 0.55135196 0.19414516 0.8113684
vn 0.064377084 -0.9973755 -0.033132207
vn 0.064377084 -0.9973755 -0.033132207
vn 0.06437708 -0.9973755 -0.0331322
vn 0.064377084 -0.9973755 -0.033132203
vn 0.109085776 0.95950687 0.25970548
vn 0.109085776 0.95950687 0.25970545
vn 0.10908579 0.95950687 0.25970545
vn 0.109085776 0.95950687 0.25970545
vn 0.36201453 0.27668434 -0.8901637
vn 0.36201444 0.27668428 -0.8901637
vn 0.36201444 0.27668428 -0.8901637
vn 0.36201444 0.2766843 -0.8901637
vn 0.0072112414 0.9940235 0.108928435
vn 0.007211241 0.9940235 0.108928435
vn 0.007211241 0.9940235 0.108928435
vn 0.0072112405 0.9940235 0.108928435
vn -0.9022139 0.0088633215 0.43119764
vn -0.9022139 0.0088633215 0.4311976
vn -0.9022139 0.0088633215 0.43119764
vn -0.9022139 0.0088633215 0.43119764
vn 0.04297279 -0.9988667 -0.020462532
vn 0.042972784 -0.9988667 -0.020462532
vn 0.042972792 -0.9988667 -0.020462533
vn 0.042972796 -0.9988667 -0.020462533
vn 0.24820484 0.9673126 -0.051967524
vn 0.24820487 0.9673126 -0.051967528
vn 0.24820481 0.9673126 -0.051967517
vn 0.24820487 0.9673126 -0.051967528
vn 0.34000725 -0.91340476 -0.22380078
vn 0.34000728 -0.91340476 -0.22380075
vn 0.3400073 -0.91340476 -0.22380073
vn 0.34000725 -0.91340476 -0.22380073
vn -0.19920553 0.90079504 0.3858568
vn -0.19920555 0.90079504 0.38585684
vn -0.19920555 0.90079504 0.3858568
vn -0.1992055 0.90079504 0.3858568
vn -0.63922983 -0.68565786 0.3482218
vn -0.63922983 -0.6856579 0.34822178
vn -0.63922983 -0.68565786 0.34822175
vn -0.6392298 -0.685658 0.3482218
g mac__pCube111_0
f 3/3/3 2/2/2 1/1/1
f 6/6/6 5/5/5 4/4/4
f 9/9/9 8/8/8 7/7/7
f 12/12/12 11/11/11 10/10/10
f 15/15/15 14/14/14 13/13/13
f 18/18/18 17/17/17 16/16/16
f 21/21/21 20/20/20 19/19/19
f 24/24/24 23/23/23 22/22/22
f 27/27/27 26/26/26 25/25/25
f 28/28/28 27/27/27 25/25/25
f 31/31/31 30/30/30 29/29/29
f 32/32/32 31/31/31 29/29/29
f 35/35/35 34/34/34 33/33/33
f 36/36/36 35/35/35 33/33/33
f 39/39/39 38/38/38 37/37/37
f 40/40/40 39/39/39 37/37/37
f 43/43/43 42/42/42 41/41/41
f 44/44/44 43/43/43 41/41/41
f 47/47/47 46/46/46 45/45/45
f 48/48/48 47/47/47 45/45/45
f 51/51/51 50/50/50 49/49/49
f 52/52/52 51/51/51 49/49/49
f 55/55/55 54/54/54 53/53/53
f 56/56/56 55/55/55 53/53/53
f 59/59/59 58/58/58 57/57/57
f 60/60/60 59/59/59 57/57/57
f 63/63/63 62/62/62 61/61/61
f 64/64/64 63/63/63 61/61/61
f 67/67/67 66/66/66 65/65/65
f 68/68/68 67/67/67 65/65/65
f 71/71/71 70/70/70 69/69/69
f 72/72/72 71/71/71 69/69/69
f 75/75/75 74/74/74 73/73/73
f 76/76/76 75/75/75 73/73/73
f 79/79/79 78/78/78 77/77/77
f 80/80/80 79/79/79 77/77/77
f 83/83/83 82/82/82 81/81/81
f 84/84/84 83/83/83 81/81/81
f 87/87/87 86/86/86 85/85/85
f 88/88/88 87/87/87 85/85/85
f 91/91/91 90/90/90 89/89/89
f 92/92/92 91/91/91 89/89/89
f 95/95/95 94/94/94 93/93/93
f 96/96/96 95/95/95 93/93/93
f 99/99/99 98/98/98 97/97/97
f 100/100/100 99/99/99 97/97/97
f 103/103/103 102/102/102 101/101/101
f 104/104/104 103/103/103 101/101/101
f 107/107/107 106/106/106 105/105/105
f 108/108/108 107/107/107 105/105/105
f 111/111/111 110/110/110 109/109/109
f 112/112/112 111/111/111 109/109/109
f 115/115/115 114/114/114 113/113/113
f 116/116/116 115/115/115 113/113/113
f 119/119/119 118/118/118 117/117/117
f 120/120/120 119/119/119 117/117/117
f 123/123/123 122/122/122 121/121/121
f 124/124/124 123/123/123 121/121/121
f 127/127/127 126/126/126 125/125/125
f 128/128/128 127/127/127 125/125/125
f 131/131/131 130/130/130 129/129/129
f 132/132/132 131/131/131 129/129/129
f 135/135/135 134/134/134 133/133/133
f 136/136/136 135/135/135 133/133/133
f 139/139/139 138/138/138 137/137/137
f 140/140/140 139/139/139 137/137/137
f 143/143/143 142/142/142 141/141/141
f 144/144/144 143/143/143 141/141/141
f 147/147/147 146/146/146 145/145/145
f 148/148/148 147/147/147 145/145/145
f 151/151/151 150/150/150 149/149/149
f 152/152/152 151/151/151 149/149/149
f 155/155/155 154/154/154 153/153/153
f 156/156/156 155/155/155 153/153/153
f 159/159/159 158/158/158 157/157/157
f 160/160/160 159/159/159 157/157/157
