g mesh_cylinder_hollow
v -1.4005072E-09 0 -0.03203987
v 0.012261126 0 -0.029600978
v 0.012261126 0.015927836 -0.029600978
v -1.4005072E-09 0.015927836 -0.03203987
v -0.012261128 0 -0.029600978
v -1.4005072E-09 0.031855673 -0.032039866
v 0.012261126 0.031855673 -0.029600978
v -0.012261128 0.031855673 -0.029600978
v -0.012261128 0.015927836 -0.029600978
v -0.022655608 0 -0.022655608
v -0.022655608 0.031855673 -0.022655608
v -0.022655608 0.015927836 -0.022655608
v -0.029600978 0 -0.012261128
v -0.029600978 0.031855673 -0.012261128
v -0.029600978 0.015927836 -0.012261128
v -0.03203987 0 -4.8378856E-09
v -0.03203987 0.031855673 -4.7683715E-09
v -0.03203987 0.015927838 -4.7683715E-09
v -0.029600982 0 0.01226112
v -0.029600982 0.031855673 0.01226112
v -0.029600982 0.015927836 0.01226112
v -0.022655616 0 0.0226556
v -0.022655616 0.031855676 0.0226556
v -0.022655616 0.015927836 0.0226556
v -0.012261132 0 0.029600978
v -0.012261132 0.031855673 0.029600978
v -0.012261132 0.015927836 0.029600978
v 3.820716E-10 0 0.03203987
v 3.820716E-10 0.031855673 0.03203987
v 3.820716E-10 0.015927836 0.03203987
v 0.012261133 0 0.029600974
v 0.012261133 0.031855673 0.029600974
v 0.012261133 0.015927838 0.029600974
v 0.022655616 0 0.022655599
v 0.022655616 0.031855676 0.0226556
v 0.022655616 0.015927836 0.0226556
v 0.029600983 0 0.012261112
v 0.029600983 0.031855673 0.012261112
v 0.029600983 0.015927838 0.012261112
v 0.03203987 0 0
v 0.03203987 0.031855673 0
v 0.03203987 0.015927836 0
v 0.029600978 0 -0.012261127
v 0.029600978 0.031855673 -0.012261128
v 0.029600978 0.015927836 -0.012261127
v 0.022655608 0 -0.022655608
v 0.022655608 0.031855673 -0.022655608
v 0.022655608 0.015927836 -0.022655608
v 0.012261126 0 -0.029600978
v 0.012261126 0.031855673 -0.029600978
v 0.012261126 0.015927836 -0.029600978
vt 0.0625 0
vt 0 0
vt 0 0.5
vt 0.0625 0.5
vt 0.125 0
vt 0.0625 1
vt 0 1
vt 0.125 1
vt 0.125 0.5
vt 0.1875 0
vt 0.1875 1
vt 0.1875 0.5
vt 0.25 0
vt 0.25 1
vt 0.25 0.5
vt 0.3125 0
vt 0.3125 1
vt 0.3125 0.5
vt 0.375 0
vt 0.375 1
vt 0.375 0.5
vt 0.4375 0
vt 0.4375 1
vt 0.4375 0.5
vt 0.5 0
vt 0.5 1
vt 0.5 0.5
vt 0.5625 0
vt 0.5625 1
vt 0.5625 0.5
vt 0.625 0
vt 0.625 1
vt 0.625 0.5
vt 0.6875 0
vt 0.6875 1
vt 0.6875 0.5
vt 0.75 0
vt 0.75 1
vt 0.75 0.5
vt 0.8125 0
vt 0.8125 1
vt 0.8125 0.5
vt 0.875 0
vt 0.875 1
vt 0.875 0.5
vt 0.9375 0
vt 0.9375 1
vt 0.9375 0.5
vt 1 0
vt 1 1
vt 1 0.5
vn -0 0 -1
vn 0.38256836 0 -0.9238281
vn 0.38256836 0 -0.9238281
vn -0 0 -1
vn -0.38256836 0 -0.9238281
vn -0 0 -1
vn 0.38256836 0 -0.9238281
vn -0.38256836 0 -0.9238281
vn -0.38256836 0 -0.9238281
vn -0.70703125 0 -0.70703125
vn -0.70703125 0 -0.70703125
vn -0.70703125 0 -0.70703125
vn -0.9238281 0 -0.38256836
vn -0.9238281 0 -0.38256836
vn -0.9238281 0 -0.38256836
vn -1 0 -1.1920929E-07
vn -1 0 -1.1920929E-07
vn -1 0 -1.1920929E-07
vn -0.9238281 0 0.38256836
vn -0.9238281 0 0.38256836
vn -0.9238281 0 0.38256836
vn -0.70703125 0 0.70703125
vn -0.70703125 0 0.70703125
vn -0.70703125 0 0.70703125
vn -0.38256836 0 0.9238281
vn -0.38256836 0 0.9238281
vn -0.38256836 0 0.9238281
vn 1.1920929E-07 0 1
vn 1.1920929E-07 0 1
vn 1.1920929E-07 0 1
vn 0.38256836 0 0.9238281
vn 0.38256836 0 0.9238281
vn 0.38256836 0 0.9238281
vn 0.70703125 0 0.70703125
vn 0.70703125 0 0.70703125
vn 0.70703125 0 0.70703125
vn 0.9238281 0 0.38256836
vn 0.9238281 0 0.38256836
vn 0.9238281 0 0.38256836
vn 1 0 -1.1920929E-07
vn 1 0 -1.1920929E-07
vn 1 0 -1.1920929E-07
vn 0.9238281 0 -0.38256836
vn 0.9238281 0 -0.38256836
vn 0.9238281 0 -0.38256836
vn 0.70703125 0 -0.70703125
vn 0.70703125 0 -0.70703125
vn 0.70703125 0 -0.70703125
vn 0.38256836 0 -0.9238281
vn 0.38256836 0 -0.9238281
vn 0.38256836 0 -0.9238281
g mesh_cylinder_hollow_0
f 3/3/3 2/2/2 1/1/1
f 4/4/4 3/3/3 1/1/1
f 4/4/4 1/1/1 5/5/5
f 3/3/3 4/4/4 6/6/6
f 7/7/7 3/3/3 6/6/6
f 6/6/6 4/4/4 8/8/8
f 9/9/9 4/4/4 5/5/5
f 4/4/4 9/9/9 8/8/8
f 9/9/9 5/5/5 10/10/10
f 8/8/8 9/9/9 11/11/11
f 12/12/12 9/9/9 10/10/10
f 9/9/9 12/12/12 11/11/11
f 12/12/12 10/10/10 13/13/13
f 11/11/11 12/12/12 14/14/14
f 15/15/15 12/12/12 13/13/13
f 12/12/12 15/15/15 14/14/14
f 15/15/15 13/13/13 16/16/16
f 14/14/14 15/15/15 17/17/17
f 18/18/18 15/15/15 16/16/16
f 15/15/15 18/18/18 17/17/17
f 18/18/18 16/16/16 19/19/19
f 17/17/17 18/18/18 20/20/20
f 21/21/21 18/18/18 19/19/19
f 18/18/18 21/21/21 20/20/20
f 21/21/21 19/19/19 22/22/22
f 20/20/20 21/21/21 23/23/23
f 24/24/24 21/21/21 22/22/22
f 21/21/21 24/24/24 23/23/23
f 24/24/24 22/22/22 25/25/25
f 23/23/23 24/24/24 26/26/26
f 27/27/27 24/24/24 25/25/25
f 24/24/24 27/27/27 26/26/26
f 27/27/27 25/25/25 28/28/28
f 26/26/26 27/27/27 29/29/29
f 30/30/30 27/27/27 28/28/28
f 27/27/27 30/30/30 29/29/29
f 30/30/30 28/28/28 31/31/31
f 29/29/29 30/30/30 32/32/32
f 33/33/33 30/30/30 31/31/31
f 30/30/30 33/33/33 32/32/32
f 33/33/33 31/31/31 34/34/34
f 32/32/32 33/33/33 35/35/35
f 36/36/36 33/33/33 34/34/34
f 33/33/33 36/36/36 35/35/35
f 36/36/36 34/34/34 37/37/37
f 35/35/35 36/36/36 38/38/38
f 39/39/39 36/36/36 37/37/37
f 36/36/36 39/39/39 38/38/38
f 39/39/39 37/37/37 40/40/40
f 38/38/38 39/39/39 41/41/41
f 42/42/42 39/39/39 40/40/40
f 39/39/39 42/42/42 41/41/41
f 42/42/42 40/40/40 43/43/43
f 41/41/41 42/42/42 44/44/44
f 45/45/45 42/42/42 43/43/43
f 42/42/42 45/45/45 44/44/44
f 45/45/45 43/43/43 46/46/46
f 44/44/44 45/45/45 47/47/47
f 48/48/48 45/45/45 46/46/46
f 45/45/45 48/48/48 47/47/47
f 48/48/48 46/46/46 49/49/49
f 47/47/47 48/48/48 50/50/50
f 51/51/51 48/48/48 49/49/49
f 48/48/48 51/51/51 50/50/50
