g mesh_ring_panning
v 0.52283704 -0.06900993 0
v 0.50502175 -0.06900993 -0.13532017
v 0.45279014 -0.069009945 -0.26141852
v 0.3697016 -0.06900993 -0.3697016
v 0.2614185 -0.06900993 -0.45279017
v 0.13532019 -0.06900993 -0.50502175
v 3.9473097E-08 -0.06900993 -0.52283704
v -0.13532011 -0.06900993 -0.5050218
v -0.26141843 -0.06900993 -0.45279017
v -0.36970153 -0.06900993 -0.36970168
v -0.45279005 -0.06900993 -0.2614186
v -0.50502175 -0.06900993 -0.13532035
v -0.52283704 -0.06900993 -2.0265578E-07
v -0.5050218 -0.06900993 0.13531995
v -0.4527903 -0.06900993 0.2614183
v -0.36970183 -0.06900993 0.36970142
v -0.26141864 -0.06900993 0.45279002
v -0.13532038 -0.06900993 0.50502175
v -2.4307334E-07 -0.06900993 0.52283704
v 0.1353199 -0.06900993 0.5050218
v 0.26141825 -0.06900993 0.4527903
v 0.3697014 -0.06900993 0.36970183
v 0.45279 -0.06900993 0.26141882
v 0.50502163 -0.06900993 0.13532054
v 0.52283704 0.06900993 0
v 0.50502175 0.06900993 -0.13532019
v 0.45279014 0.06900993 -0.26141852
v 0.3697016 0.06900993 -0.3697016
v 0.2614185 0.06900993 -0.45279017
v 0.13532019 0.06900993 -0.50502175
v 3.9473097E-08 0.06900993 -0.52283704
v -0.13532011 0.06900993 -0.5050218
v -0.26141843 0.06900993 -0.45279017
v -0.36970153 0.06900993 -0.36970168
v -0.45279005 0.06900993 -0.2614186
v -0.50502175 0.06900993 -0.13532035
v -0.52283704 0.06900994 -2.0265578E-07
v -0.5050218 0.06900993 0.13531995
v -0.4527903 0.06900993 0.2614183
v -0.36970183 0.06900993 0.36970142
v -0.26141864 0.06900993 0.45279002
v -0.13532038 0.06900993 0.50502175
v -2.4307334E-07 0.06900993 0.52283704
v 0.1353199 0.06900993 0.5050218
v 0.26141825 0.06900993 0.4527903
v 0.3697014 0.06900993 0.36970183
v 0.45279 0.06900993 0.26141882
v 0.50502163 0.06900994 0.13532056
v 3.9473097E-08 -0.06900993 -0.52283704
v 3.9473097E-08 0.06900993 -0.52283704
vt -1.1920929E-07 0.2504905
vt -1.1920929E-07 0.20882386
vt -1.1920929E-07 0.16715717
vt -1.1920929E-07 0.12549049
vt -5.9604645E-07 0.0838238
vt -5.9604645E-07 0.042157173
vt -5.9604645E-07 0.0004904866
vt 5.9604645E-07 0.95882386
vt 5.9604645E-07 0.9171571
vt 5.9604645E-07 0.8754905
vt 5.9604645E-07 0.83382386
vt 1.1920929E-07 0.79215723
vt 1.1920929E-07 0.7504905
vt 1.1920929E-07 0.70882386
vt 1.1920929E-07 0.66715723
vt 1.1920929E-07 0.6254906
vt 1.1920929E-07 0.58382386
vt 1.1920929E-07 0.54215723
vt 1.1920929E-07 0.50049055
vt 1.1920929E-07 0.45882392
vt -1.1920929E-07 0.41715723
vt -1.1920929E-07 0.3754906
vt -1.1920929E-07 0.33382392
vt -1.1920929E-07 0.29215723
vt 0.99999964 0.25049043
vt 0.99999964 0.2088238
vt 0.99999964 0.16715711
vt 0.99999964 0.12549043
vt 0.99999964 0.08382374
vt 0.99999964 0.042157114
vt 0.99999964 0.0004904866
vt 1.0000004 0.95882374
vt 1.0000004 0.9171571
vt 1.0000004 0.8754905
vt 1.0000004 0.83382386
vt 1.0000004 0.7921571
vt 1.0000004 0.7504905
vt 1.0000004 0.70882386
vt 1.0000004 0.66715723
vt 1.0000004 0.6254906
vt 1.0000004 0.58382386
vt 1.0000004 0.54215723
vt 1.0000004 0.50049055
vt 1.0000004 0.45882386
vt 0.99999964 0.41715717
vt 0.99999964 0.37549055
vt 0.99999964 0.33382386
vt 0.99999964 0.29215717
vt 5.9604645E-07 1.0004904
vt 1.0000004 1.0004904
vn 1 0 1.5787583E-07
vn 0.9659258 0 -0.25881913
vn 0.86602545 0 -0.5
vn 0.7071068 0 -0.70710677
vn 0.4999999 0 -0.86602545
vn 0.25881895 0 -0.9659258
vn 1.8658051E-07 0 -1
vn -0.2588189 0 -0.9659258
vn -0.4999999 0 -0.86602545
vn -0.70710653 0 -0.707107
vn -0.86602527 0 -0.50000024
vn -0.9659257 0 -0.25881934
vn -1 0 -3.6837687E-07
vn -0.96592593 0 0.2588186
vn -0.8660258 0 0.49999943
vn -0.707107 0 0.7071065
vn -0.5000003 0 0.86602527
vn -0.2588195 0 0.9659257
vn -3.6359276E-07 0 1
vn 0.2588186 0 0.96592593
vn 0.49999934 0 0.8660258
vn 0.7071062 0 0.7071073
vn 0.8660251 0 0.5000006
vn 0.9659257 0 0.25881946
vn 1 0 1.5787583E-07
vn 0.9659258 0 -0.25881913
vn 0.86602545 0 -0.5
vn 0.7071068 0 -0.70710677
vn 0.4999999 0 -0.86602545
vn 0.25881895 0 -0.9659258
vn 1.8658051E-07 0 -1
vn -0.2588189 0 -0.9659258
vn -0.4999999 0 -0.86602545
vn -0.70710653 0 -0.707107
vn -0.86602527 0 -0.50000024
vn -0.9659257 0 -0.25881934
vn -1 0 -3.6837687E-07
vn -0.96592593 0 0.2588186
vn -0.8660258 0 0.49999943
vn -0.707107 0 0.7071065
vn -0.5000003 0 0.86602527
vn -0.2588195 0 0.9659257
vn -3.6359276E-07 0 1
vn 0.2588186 0 0.96592593
vn 0.49999934 0 0.8660258
vn 0.7071062 0 0.7071073
vn 0.8660251 0 0.5000006
vn 0.9659257 0 0.25881946
vn 1.8658051E-07 0 -1
vn 1.8658051E-07 0 -1
g mesh_ring_panning_0
f 26/26/26 25/25/25 1/1/1
f 2/2/2 26/26/26 1/1/1
f 27/27/27 26/26/26 2/2/2
f 3/3/3 27/27/27 2/2/2
f 28/28/28 27/27/27 3/3/3
f 4/4/4 28/28/28 3/3/3
f 29/29/29 28/28/28 4/4/4
f 5/5/5 29/29/29 4/4/4
f 30/30/30 29/29/29 5/5/5
f 6/6/6 30/30/30 5/5/5
f 31/31/31 30/30/30 6/6/6
f 7/7/7 31/31/31 6/6/6
f 32/32/32 50/50/50 49/49/49
f 8/8/8 32/32/32 49/49/49
f 33/33/33 32/32/32 8/8/8
f 9/9/9 33/33/33 8/8/8
f 34/34/34 33/33/33 9/9/9
f 10/10/10 34/34/34 9/9/9
f 35/35/35 34/34/34 10/10/10
f 11/11/11 35/35/35 10/10/10
f 36/36/36 35/35/35 11/11/11
f 12/12/12 36/36/36 11/11/11
f 37/37/37 36/36/36 12/12/12
f 13/13/13 37/37/37 12/12/12
f 38/38/38 37/37/37 13/13/13
f 14/14/14 38/38/38 13/13/13
f 39/39/39 38/38/38 14/14/14
f 15/15/15 39/39/39 14/14/14
f 40/40/40 39/39/39 15/15/15
f 16/16/16 40/40/40 15/15/15
f 41/41/41 40/40/40 16/16/16
f 17/17/17 41/41/41 16/16/16
f 42/42/42 41/41/41 17/17/17
f 18/18/18 42/42/42 17/17/17
f 43/43/43 42/42/42 18/18/18
f 19/19/19 43/43/43 18/18/18
f 44/44/44 43/43/43 19/19/19
f 20/20/20 44/44/44 19/19/19
f 45/45/45 44/44/44 20/20/20
f 21/21/21 45/45/45 20/20/20
f 46/46/46 45/45/45 21/21/21
f 22/22/22 46/46/46 21/21/21
f 47/47/47 46/46/46 22/22/22
f 23/23/23 47/47/47 22/22/22
f 48/48/48 47/47/47 23/23/23
f 24/24/24 48/48/48 23/23/23
f 25/25/25 48/48/48 24/24/24
f 1/1/1 25/25/25 24/24/24
