g n_eyelashes_fernA_crease_mesh
v 1.4012376 93.82006 4.339059
v 1.4264469 93.790405 4.32423
v 1.3078151 93.69698 4.297538
v 1.553976 93.95352 4.3642683
v 1.5717709 93.91348 4.3494396
v 1.771962 93.99059 4.3123665
v 1.7600988 94.041016 4.325713
v 1.9884651 94.021736 4.247119
v 1.9825335 94.07215 4.2589827
v 2.1397207 94.021736 4.1878033
v 2.1382377 94.07067 4.198184
v 2.3028393 94.05436 4.118107
v 2.2983906 94.00987 4.107727
v 2.483753 93.9728 3.9979923
v 2.498582 94.01432 4.0098553
v 2.7936785 93.85565 3.7933524
v 2.8114731 93.88383 3.7992842
v 2.974592 93.76223 3.6480286
v 1.2603624 93.950554 4.413204
v 1.2677768 93.965385 4.465105
v 1.2840887 93.95352 4.4102383
v 1.3419217 94.01284 4.4473104
v 1.3300586 94.021736 4.4932804
v 1.439793 94.11071 4.5273867
v 1.4457246 94.09588 4.47252
v 1.6073604 94.118126 4.429516
v 1.6103262 94.14185 4.4917974
v 1.8223805 94.159645 4.411721
v 1.8134831 94.140366 4.367234
v 2.1738272 94.17744 4.2678795
v 2.163447 94.16558 4.2322903
v 2.394779 94.138885 4.118107
v 2.409608 94.15372 4.159628
v 2.525274 94.12702 4.0869665
v 2.5059962 94.11516 4.0543423
v 2.6068335 94.07661 3.9816806
v 2.6335256 94.08698 4.011338
v 2.7358456 94.005424 3.873429
v 2.7625377 94.01284 3.8941896
v 2.8366826 93.95501 3.814113
v 1.2603624 93.950554 4.413204
v 1.2559137 93.9817 4.430999
v 1.2677768 93.965385 4.465105
v 1.3078151 94.04694 4.466588
v 1.3300586 94.021736 4.4932804
v 1.439793 94.11071 4.5273867
v 1.4131008 94.14778 4.4962463
v 1.6103262 94.14185 4.4917974
v 1.5954973 94.17744 4.4532423
v 1.800137 94.193756 4.38058
v 1.8223805 94.159645 4.411721
v 2.163447 94.2071 4.238222
v 2.1738272 94.17744 4.2678795
v 2.409608 94.15372 4.159628
v 2.4081252 94.178925 4.1270046
v 2.522308 94.15223 4.058791
v 2.525274 94.12702 4.0869665
v 2.6335256 94.08698 4.011338
v 2.627594 94.11516 3.9846466
v 2.7551231 94.03657 3.876395
v 2.7625377 94.01284 3.8941896
v 2.8366826 93.95501 3.814113
v -1.401439 93.82006 4.339059
v -1.3080161 93.69698 4.297538
v -1.4266479 93.790405 4.32423
v -1.554177 93.95352 4.3642683
v -1.5719721 93.91348 4.3494396
v -1.7721632 93.99059 4.3123665
v -1.7602999 94.041016 4.325713
v -1.9886663 94.021736 4.247119
v -1.9827344 94.07215 4.2589827
v -2.139922 94.021736 4.1878033
v -2.138439 94.07067 4.198184
v -2.3030407 94.05436 4.118107
v -2.2985919 94.00987 4.107727
v -2.4839542 93.9728 3.9979923
v -2.4987829 94.01432 4.0098553
v -2.7938797 93.85565 3.7933524
v -2.8116744 93.88383 3.7992842
v -2.9747932 93.76223 3.6480286
v -1.2605636 93.950554 4.413204
v -1.2828071 93.95352 4.4102383
v -1.267978 93.965385 4.465105
v -1.3421228 94.01284 4.4473104
v -1.3302596 94.021736 4.4932804
v -1.4385111 94.11071 4.5273867
v -1.4459255 94.09588 4.47252
v -1.6075613 94.118126 4.429516
v -1.6105273 94.14185 4.4917974
v -1.8225815 94.159645 4.411721
v -1.8136842 94.140366 4.367234
v -2.1740286 94.17744 4.2678795
v -2.1636484 94.16558 4.2322903
v -2.3949802 94.138885 4.118107
v -2.4098094 94.15372 4.159628
v -2.5254753 94.12702 4.0869665
v -2.5061977 94.11516 4.0543423
v -2.6070344 94.07661 3.9816806
v -2.6337268 94.08698 4.011338
v -2.7360466 94.005424 3.873429
v -2.762739 94.01284 3.8941896
v -2.8368838 93.95501 3.814113
v -1.2605636 93.950554 4.413204
v -1.267978 93.965385 4.465105
v -1.2561147 93.9817 4.430999
v -1.3065331 94.04694 4.466588
v -1.3302596 94.021736 4.4932804
v -1.4385111 94.11071 4.5273867
v -1.4118192 94.14778 4.4962463
v -1.6105273 94.14185 4.4917974
v -1.5956986 94.17744 4.4532423
v -1.800338 94.193756 4.38058
v -1.8225815 94.159645 4.411721
v -2.1636484 94.2071 4.238222
v -2.1740286 94.17744 4.2678795
v -2.4098094 94.15372 4.159628
v -2.4083264 94.178925 4.1270046
v -2.5225093 94.15223 4.058791
v -2.5254753 94.12702 4.0869665
v -2.6337268 94.08698 4.011338
v -2.627795 94.11516 3.9846466
v -2.7553241 94.03657 3.876395
v -2.762739 94.01284 3.8941896
v -2.8368838 93.95501 3.814113
vt 0.9721558 0.45565385
vt 0.9721558 0.45565385
vt 0.9716413 0.45565385
vt 0.9726702 0.4551394
vt 0.9726702 0.4551394
vt 0.9731847 0.45462495
vt 0.9731847 0.45462495
vt 0.9731847 0.4541105
vt 0.9731847 0.4541105
vt 0.9731847 0.45359606
vt 0.9731847 0.45359606
vt 0.9736991 0.4530816
vt 0.9731847 0.4530816
vt 0.9731847 0.4530816
vt 0.9736991 0.4530816
vt 0.9731847 0.4520527
vt 0.9731847 0.4520527
vt 0.9731847 0.45153826
vt 0.9731847 0.45359606
vt 0.9731847 0.45359606
vt 0.9731847 0.45359606
vt 0.9731847 0.4530816
vt 0.9731847 0.45359606
vt 0.9731847 0.4530816
vt 0.9731847 0.4530816
vt 0.9731847 0.4530816
vt 0.9731847 0.4530816
vt 0.9731847 0.45256716
vt 0.9731847 0.45256716
vt 0.9736991 0.45256716
vt 0.9731847 0.45256716
vt 0.9731847 0.4520527
vt 0.9736991 0.4520527
vt 0.9736991 0.4520527
vt 0.9731847 0.4520527
vt 0.9731847 0.4520527
vt 0.9736991 0.4520527
vt 0.9731847 0.45153826
vt 0.9731847 0.45153826
vt 0.9731847 0.45153826
vt 0.9731847 0.45359606
vt 0.9731847 0.45359606
vt 0.9731847 0.45359606
vt 0.9731847 0.4530816
vt 0.9731847 0.45359606
vt 0.9731847 0.4530816
vt 0.9731847 0.4530816
vt 0.9731847 0.4530816
vt 0.9731847 0.4530816
vt 0.9731847 0.45256716
vt 0.9731847 0.45256716
vt 0.9731847 0.45256716
vt 0.9736991 0.45256716
vt 0.9736991 0.4520527
vt 0.9731847 0.4520527
vt 0.9731847 0.4520527
vt 0.9736991 0.4520527
vt 0.9736991 0.4520527
vt 0.9731847 0.4520527
vt 0.9731847 0.45153826
vt 0.9731847 0.45153826
vt 0.9731847 0.45153826
vt 0.9721558 0.45565385
vt 0.9716413 0.45565385
vt 0.9721558 0.45565385
vt 0.9726702 0.4551394
vt 0.9726702 0.4551394
vt 0.9731847 0.45462495
vt 0.9731847 0.45462495
vt 0.9731847 0.4541105
vt 0.9731847 0.4541105
vt 0.9731847 0.45359606
vt 0.9731847 0.45359606
vt 0.9736991 0.4530816
vt 0.9731847 0.4530816
vt 0.9731847 0.4530816
vt 0.9736991 0.4530816
vt 0.9731847 0.4520527
vt 0.9731847 0.4520527
vt 0.9731847 0.45153826
vt 0.9731847 0.45359606
vt 0.9731847 0.45359606
vt 0.9731847 0.45359606
vt 0.9731847 0.4530816
vt 0.9731847 0.45359606
vt 0.9731847 0.4530816
vt 0.9731847 0.4530816
vt 0.9731847 0.4530816
vt 0.9731847 0.4530816
vt 0.9731847 0.45256716
vt 0.9731847 0.45256716
vt 0.9736991 0.45256716
vt 0.9731847 0.45256716
vt 0.9731847 0.4520527
vt 0.9736991 0.4520527
vt 0.9736991 0.4520527
vt 0.9731847 0.4520527
vt 0.9731847 0.4520527
vt 0.9736991 0.4520527
vt 0.9731847 0.45153826
vt 0.9731847 0.45153826
vt 0.9731847 0.45153826
vt 0.9731847 0.45359606
vt 0.9731847 0.45359606
vt 0.9731847 0.45359606
vt 0.9731847 0.4530816
vt 0.9731847 0.45359606
vt 0.9731847 0.4530816
vt 0.9731847 0.4530816
vt 0.9731847 0.4530816
vt 0.9731847 0.4530816
vt 0.9731847 0.45256716
vt 0.9731847 0.45256716
vt 0.9731847 0.45256716
vt 0.9736991 0.45256716
vt 0.9736991 0.4520527
vt 0.9731847 0.4520527
vt 0.9731847 0.4520527
vt 0.9736991 0.4520527
vt 0.9736991 0.4520527
vt 0.9731847 0.4520527
vt 0.9731847 0.45153826
vt 0.9731847 0.45153826
vt 0.9731847 0.45153826
vn 0.12179202 -0.33908892 0.9328373
vn 0.1150015 -0.34587944 0.9312046
vn 0.10142046 -0.3866226 0.9166444
vn 0.20327836 -0.25760257 0.9446263
vn 0.19648784 -0.2643931 0.94418687
vn 0.2847647 -0.19648784 0.93824387
vn 0.2847647 -0.19648784 0.93824387
vn 0.3322984 -0.1829068 0.92526907
vn 0.32550788 -0.1829068 0.9276798
vn 0.39341313 -0.19648784 0.8981195
vn 0.3866226 -0.19648784 0.90106356
vn 0.4205752 -0.25760257 0.86991805
vn 0.4205752 -0.2643931 0.8678783
vn 0.40699416 -0.35946047 0.8397285
vn 0.40699416 -0.35946047 0.8397285
vn 0.40020365 -0.40020365 0.82442355
vn 0.40020365 -0.40020365 0.82442355
vn 0.4205752 -0.42736578 0.8002968
vn -0.32638276 -0.8891216 0.32083812
vn -0.027599573 -0.5631763 0.82587576
vn 0.52243316 -0.7940542 0.31071132
vn 0.5631763 -0.7736826 0.29025456
vn 0.019934118 -0.42736578 0.903859
vn 0.1150015 -0.1285826 0.98500824
vn 0.35946047 -0.8823311 0.3037763
vn 0.21006888 -0.91628367 0.34102094
vn 0.29834574 -0.18969733 0.9354169
vn 0.37304157 -0.14216363 0.9168585
vn 0.19648784 -0.92307425 0.33064556
vn 0.39341313 -0.1285826 0.9103255
vn 0.1285826 -0.9366553 0.32579657
vn 0.026724696 -0.9434458 0.3304479
vn 0.4205752 -0.17611629 0.88999975
vn 0.47489944 -0.2643931 0.83938473
vn -0.04118061 -0.92986476 0.36558947
vn -0.1022954 -0.9027026 0.41792774
vn 0.50885206 -0.29834574 0.8075019
vn -0.12945747 -0.8891216 0.4389802
vn 0.50885206 -0.366251 0.77905697
vn 0.42736578 -0.50206155 0.7518595
vn -0.32638276 -0.8891216 0.32083812
vn -0.7881385 0.22452486 0.5730849
vn -0.027599573 -0.5631763 0.82587576
vn -0.5844227 0.31959224 0.74586254
vn 0.019934118 -0.42736578 0.903859
vn 0.1150015 -0.1285826 0.98500824
vn -0.23131537 0.55726063 0.7974671
vn 0.29834574 -0.18969733 0.9354169
vn 0.1150015 0.7202333 0.68413347
vn 0.20327836 0.72702384 0.6558309
vn 0.37304157 -0.14216363 0.9168585
vn 0.2711836 0.73381436 0.6228771
vn 0.39341313 -0.1285826 0.9103255
vn 0.4205752 -0.17611629 0.88999975
vn 0.40020365 0.72702384 0.5579188
vn 0.5428047 0.65911853 0.5205053
vn 0.47489944 -0.2643931 0.83938473
vn 0.50885206 -0.29834574 0.8075019
vn 0.65824366 0.5776322 0.48275912
vn 0.72614896 0.5368891 0.42948553
vn 0.50885206 -0.366251 0.77905697
vn 0.42736578 -0.50206155 0.7518595
vn -0.115876436 -0.33908892 0.93359053
vn -0.1022954 -0.3866226 0.91654706
vn -0.115876436 -0.34587944 0.93109614
vn -0.2041533 -0.25760257 0.94443756
vn -0.19736266 -0.2643931 0.94400436
vn -0.28563952 -0.19648784 0.9379779
vn -0.28563952 -0.19648784 0.9379779
vn -0.32638276 -0.1829068 0.9273723
vn -0.32638276 -0.1829068 0.9273723
vn -0.38749743 -0.19648784 0.9006877
vn -0.3807069 -0.19648784 0.9035789
vn -0.42145014 -0.25760257 0.8694945
vn -0.42145014 -0.2643931 0.86745375
vn -0.4078691 -0.35946047 0.83930385
vn -0.4078691 -0.35946047 0.83930385
vn -0.40107858 -0.40020365 0.8239982
vn -0.40107858 -0.40020365 0.8239982
vn -0.42145014 -0.42736578 0.7998364
vn 0.32550788 -0.8891216 0.32172576
vn -0.52330804 -0.7940542 0.3092356
vn 0.033515215 -0.5631763 0.82565683
vn -0.56405115 -0.7736826 0.28855067
vn -0.020808995 -0.42736578 0.9038393
vn -0.115876436 -0.1285826 0.98490566
vn -0.36033535 -0.8823311 0.302738
vn -0.21094382 -0.91628367 0.34048042
vn -0.29922068 -0.18969733 0.9351374
vn -0.3739164 -0.14216363 0.91650206
vn -0.19057214 -0.92307425 0.3340901
vn -0.39428794 -0.1285826 0.909947
vn -0.12945747 -0.9366553 0.32544997
vn -0.027599573 -0.9434458 0.33037594
vn -0.42145014 -0.17611629 0.88958573
vn -0.46898377 -0.2643931 0.84270424
vn 0.040305734 -0.92986476 0.36568704
vn 0.10142046 -0.9027026 0.41814098
vn -0.5029365 -0.29834574 0.8111996
vn 0.1285826 -0.8891216 0.4392372
vn -0.509727 -0.366251 0.77848476
vn -0.42824066 -0.50206155 0.7513615
vn 0.32550788 -0.8891216 0.32172576
vn 0.033515215 -0.5631763 0.82565683
vn 0.7872637 0.22452486 0.57428604
vn 0.5903384 0.31959224 0.7411892
vn -0.020808995 -0.42736578 0.9038393
vn -0.115876436 -0.1285826 0.98490566
vn 0.2304405 0.55726063 0.7977203
vn -0.29922068 -0.18969733 0.9351374
vn -0.115876436 0.7202333 0.68398577
vn -0.2041533 0.72702384 0.6555591
vn -0.3739164 -0.14216363 0.91650206
vn -0.2720585 0.73381436 0.62249553
vn -0.39428794 -0.1285826 0.909947
vn -0.42145014 -0.17611629 0.88958573
vn -0.40107858 0.72702384 0.55729014
vn -0.5436796 0.65911853 0.5195914
vn -0.46898377 -0.2643931 0.84270424
vn -0.5029365 -0.29834574 0.8111996
vn -0.65911853 0.5776322 0.4815639
vn -0.72702384 0.5368891 0.42800286
vn -0.509727 -0.366251 0.77848476
vn -0.42824066 -0.50206155 0.7513615
g n_eyelashes_fernA_crease_mesh_0
f 3/3/3 2/2/2 1/1/1
f 4/4/4 1/1/1 2/2/2
f 5/5/5 4/4/4 2/2/2
f 5/5/5 6/6/6 4/4/4
f 6/6/6 7/7/7 4/4/4
f 6/6/6 8/8/8 7/7/7
f 8/8/8 9/9/9 7/7/7
f 8/8/8 10/10/10 9/9/9
f 10/10/10 11/11/11 9/9/9
f 11/11/11 10/10/10 12/12/12
f 10/10/10 13/13/13 12/12/12
f 13/13/13 14/14/14 12/12/12
f 14/14/14 15/15/15 12/12/12
f 14/14/14 16/16/16 15/15/15
f 16/16/16 17/17/17 15/15/15
f 18/18/18 17/17/17 16/16/16
f 21/21/21 20/20/20 19/19/19
f 21/21/21 22/22/22 20/20/20
f 22/22/22 23/23/23 20/20/20
f 24/24/24 23/23/23 22/22/22
f 25/25/25 24/24/24 22/22/22
f 24/24/24 25/25/25 26/26/26
f 27/27/27 24/24/24 26/26/26
f 27/27/27 26/26/26 28/28/28
f 26/26/26 29/29/29 28/28/28
f 30/30/30 28/28/28 29/29/29
f 31/31/31 30/30/30 29/29/29
f 31/31/31 32/32/32 30/30/30
f 32/32/32 33/33/33 30/30/30
f 34/34/34 33/33/33 32/32/32
f 35/35/35 34/34/34 32/32/32
f 35/35/35 36/36/36 34/34/34
f 36/36/36 37/37/37 34/34/34
f 36/36/36 38/38/38 37/37/37
f 38/38/38 39/39/39 37/37/37
f 38/38/38 40/40/40 39/39/39
f 43/43/43 42/42/42 41/41/41
f 42/42/42 43/43/43 44/44/44
f 43/43/43 45/45/45 44/44/44
f 44/44/44 45/45/45 46/46/46
f 47/47/47 44/44/44 46/46/46
f 47/47/47 46/46/46 48/48/48
f 49/49/49 47/47/47 48/48/48
f 49/49/49 48/48/48 50/50/50
f 48/48/48 51/51/51 50/50/50
f 52/52/52 50/50/50 51/51/51
f 53/53/53 52/52/52 51/51/51
f 52/52/52 53/53/53 54/54/54
f 55/55/55 52/52/52 54/54/54
f 56/56/56 55/55/55 54/54/54
f 57/57/57 56/56/56 54/54/54
f 57/57/57 58/58/58 56/56/56
f 58/58/58 59/59/59 56/56/56
f 59/59/59 58/58/58 60/60/60
f 58/58/58 61/61/61 60/60/60
f 60/60/60 61/61/61 62/62/62
f 65/65/65 64/64/64 63/63/63
f 63/63/63 66/66/66 65/65/65
f 66/66/66 67/67/67 65/65/65
f 68/68/68 67/67/67 66/66/66
f 69/69/69 68/68/68 66/66/66
f 70/70/70 68/68/68 69/69/69
f 71/71/71 70/70/70 69/69/69
f 72/72/72 70/70/70 71/71/71
f 73/73/73 72/72/72 71/71/71
f 72/72/72 73/73/73 74/74/74
f 75/75/75 72/72/72 74/74/74
f 76/76/76 75/75/75 74/74/74
f 77/77/77 76/76/76 74/74/74
f 78/78/78 76/76/76 77/77/77
f 79/79/79 78/78/78 77/77/77
f 79/79/79 80/80/80 78/78/78
f 83/83/83 82/82/82 81/81/81
f 84/84/84 82/82/82 83/83/83
f 85/85/85 84/84/84 83/83/83
f 85/85/85 86/86/86 84/84/84
f 86/86/86 87/87/87 84/84/84
f 87/87/87 86/86/86 88/88/88
f 86/86/86 89/89/89 88/88/88
f 88/88/88 89/89/89 90/90/90
f 91/91/91 88/88/88 90/90/90
f 90/90/90 92/92/92 91/91/91
f 92/92/92 93/93/93 91/91/91
f 94/94/94 93/93/93 92/92/92
f 95/95/95 94/94/94 92/92/92
f 95/95/95 96/96/96 94/94/94
f 96/96/96 97/97/97 94/94/94
f 98/98/98 97/97/97 96/96/96
f 99/99/99 98/98/98 96/96/96
f 100/100/100 98/98/98 99/99/99
f 101/101/101 100/100/100 99/99/99
f 102/102/102 100/100/100 101/101/101
f 105/105/105 104/104/104 103/103/103
f 104/104/104 105/105/105 106/106/106
f 107/107/107 104/104/104 106/106/106
f 107/107/107 106/106/106 108/108/108
f 106/106/106 109/109/109 108/108/108
f 108/108/108 109/109/109 110/110/110
f 109/109/109 111/111/111 110/110/110
f 110/110/110 111/111/111 112/112/112
f 113/113/113 110/110/110 112/112/112
f 112/112/112 114/114/114 113/113/113
f 114/114/114 115/115/115 113/113/113
f 115/115/115 114/114/114 116/116/116
f 114/114/114 117/117/117 116/116/116
f 117/117/117 118/118/118 116/116/116
f 118/118/118 119/119/119 116/116/116
f 120/120/120 119/119/119 118/118/118
f 121/121/121 120/120/120 118/118/118
f 120/120/120 121/121/121 122/122/122
f 123/123/123 120/120/120 122/122/122
f 123/123/123 122/122/122 124/124/124
