g rockCluster03_geo
v 0.6565684 -0.15849411 -0.58744085
v 0.6663501 -0.22078848 -0.5671284
v 0.676834 -0.17927456 -0.5693282
v 0.6014817 0.27461803 -0.47614408
v 0.5945548 -0.13893056 -0.4601375
v 0.78930086 -0.13893056 -0.457891
v 0.9155277 0.52753985 -0.38759327
v 1.0514896 0.24653637 -0.41108823
v 1.071053 -0.13893056 -0.39016747
v 1.2073894 -0.13893056 -0.10654318
v 1.2045343 0.029371858 -0.10284567
v 1.0897274 -0.13893056 0.1655209
v 1.0480729 0.33677208 0.122134805
v 1.0025806 -0.13893056 0.37238896
v 0.7294402 0.60490453 -0.4207765
v 0.6380346 0.75869834 -0.25851154
v 0.5668477 0.4712361 -0.27620292
v 0.531886 0.6676203 -0.07584059
v 0.92661995 0.65503037 -0.1362629
v 1.0593991 0.4670707 -0.32623494
v 1.119915 0.52753985 -0.17075646
v 1.1599782 0.28659952 -0.20024216
v 1.1658285 0.31973588 -0.050005436
v 1.1272163 0.5863708 -0.010410428
v 0.9935478 0.64159787 0.12349212
v 0.68282473 0.76618683 0.05146277
v 0.9725802 0.6727685 0.25032747
v 0.54124653 0.81013453 0.15367985
v 0.38375545 0.51860034 0.14385128
v 0.5455524 0.53165853 0.26712954
v 0.42681396 0.24662995 0.23918831
v 0.39709425 -0.13893056 0.2576754
v 0.64070225 -0.13893056 0.37061036
v 0.83586955 0.33677208 0.37889445
v 0.8560415 -0.13893056 0.42724168
v 1.0207402 0.34388602 0.27195024
v 0.7867267 0.740024 0.2663808
v 0.7660867 0.6105677 0.30550778
v 0.5998435 0.56175244 -0.23328483
v 0.6565684 -0.15849411 -0.58744085
v 0.676834 -0.17927456 -0.5693282
v 0.43355358 1.0921208 -0.59820545
v 0.78054875 -0.17927456 -0.0775255
v 0.33924615 -0.17927456 -0.78031474
v 0.646927 -0.17927456 0.1930877
v 0.3026464 0.6430956 -0.7348225
v 0.10036516 0.8867973 -0.71329325
v -0.1065495 -0.17927456 -0.82365406
v -0.41825545 0.56175244 -0.72892535
v -0.47675884 -0.17927456 -0.79393435
v -0.6771213 -0.17927456 -0.62670827
v 0.58720684 0.5559958 0.124194145
v 0.48307085 1.0184065 -0.26459587
v 0.4313538 1.2765702 -0.21933758
v 0.24493873 1.2655247 0.16514647
v 0.3859552 0.6957487 0.4999262
v 0.44511378 -0.17927456 0.44380987
v 0.1168865 -0.17927456 0.56240785
v -0.12059033 0.879964 0.52150214
v 0.16977358 1.3512672 -0.5370811
v 0.19060075 1.008999 0.47100222
v -0.32165468 0.41123497 0.6335012
v -0.36396444 -0.17927456 0.6113633
v -0.7351564 -0.17927456 0.2401712
v 0.27376914 1.3677887 -0.17599833
v 0.0032963753 1.2779742 -0.29805982
v -0.27887702 1.2343072 -0.5789696
v -0.26792526 1.0184065 -0.651935
v -0.5625013 1.1222149 -0.45110452
v -0.27677095 1.0925418 0.13196337
v -0.52552736 1.0701703 -0.23988402
v -0.6105677 0.56175244 -0.20773053
v -0.6502565 0.57354677 -0.45854616
v -0.70010126 -0.17927456 -0.25294197
v -0.56198657 0.879964 0.2929647
v -0.6620506 0.9780625 0.044629574
v -0.7008501 0.5333432 0.12826598
v -0.6087893 0.47806942 0.36153066
v -0.38090694 0.7790574 0.50432575
v -0.33270013 0.05043316 0.22814298
v -0.41072023 -0.091613054 0.33330858
v -0.32951748 -0.091613054 0.22800255
v -0.16126192 -0.120256305 0.009667993
v -0.15789211 0.044535995 0.0011966228
v 0.056136608 -0.124843 -0.048226953
v 0.0581491 0.05366254 -0.04317224
v 0.27358198 -0.12591946 -0.10616875
v -0.15021646 0.1684227 -0.017898798
v -0.34304345 0.06508231 0.36490047
v -0.2688613 0.039340854 0.6432828
v -0.2806555 -0.091613054 0.64604414
v -0.01631391 0.04711008 0.7534565
v 0.0041856766 -0.091613054 0.76993096
v 0.23618662 0.054832578 0.86362994
v 0.2890737 -0.091613054 0.8938645
v 0.7556497 0.048841834 0.9858786
v 0.7931855 -0.0916599 1.0074078
v 1.0557954 -0.092689514 0.9465176
v 0.014762998 0.28458703 0.73698175
v -0.10243094 0.24382186 0.6844691
v 0.33339584 0.34089053 0.46744502
v -0.21962488 0.20310354 0.6319567
v 0.5409658 0.32858145 0.8612429
v 1.044282 0.053943276 0.9197463
v -0.12737668 0.2527144 0.2526207
v 0.1029861 0.29680252 0.36003292
v 0.062735796 0.19744039 -0.031799197
v 0.27568805 0.22645807 -0.045699596
v 0.27419043 0.067984104 -0.08754122
v 0.5802332 0.07060504 -0.033016086
v 0.5796248 -0.107572794 -0.050099134
v 0.58163726 0.23286998 0.0059705973
v 0.886276 0.0716815 0.021462202
v 0.8857144 -0.10785365 0.0059705973
v 1.0731124 -0.091613054 0.040276885
v 1.1215999 0.07140076 0.07271123
v 1.5262561 -0.09175348 0.21031106
v 0.8875397 0.23923516 0.05768752
v 0.65347946 0.34875357 0.40931618
v 1.5232139 0.06803095 0.21831441
v 1.699426 -0.096808195 0.527259
v 0.7763833 0.33695924 0.7102574
v 1.239496 0.24508548 0.15152693
v 1.6934353 0.04486358 0.5208937
v 1.432838 -0.09423399 0.85913694
v 0.90738404 0.27218425 0.8212267
v 1.5328553 0.17586434 0.7529415
v 1.0118477 0.3453368 0.55927193
v 0.97360986 0.35661638 0.3511871
v 1.1345644 0.36096895 0.3202039
v 1.5134321 0.20310354 0.23296356
v 1.6547295 0.2016058 0.48349845
v 1.4823551 0.061618924 0.8194014
v 1.0387592 -0.08580959 1.2836841
v 0.95390594 -0.08580959 1.1464118
v 1.079852 0.069903016 1.2963208
v 1.1760783 -0.08580959 1.3301123
v 0.99635595 0.13055933 1.0615586
v 1.1309137 0.19575548 1.1731828
v 1.0204126 0.11310196 0.985083
v 0.98025584 -0.08580959 1.037268
v 1.0571527 -0.08580959 0.9116026
v 1.1995733 0.21419573 1.1307329
v 1.3204179 0.14773595 1.0177981
v 1.0650156 0.080714464 0.9242395
v 1.1760783 -0.08580959 0.8778111
v 1.23856 0.19238567 1.2051023
v 1.2184815 0.10041833 0.93626773
v 1.3133507 -0.08580959 0.9242395
v 1.3753173 -0.08580959 1.0141007
v 1.3316972 0.11310196 1.2228874
v 1.3558006 0.13055933 1.1464118
v 1.3663313 -0.08580959 1.1986905
v 1.2949572 -0.08580959 1.2963208
v 1.2871411 0.080714464 1.2836841
vt 0.7303559 0.015965365
vt 0.7437448 0.022659788
vt 0.74470115 0.014052672
vt 0.48361865 0.56395173
vt 0.42049977 0.54865015
vt 0.41954345 0.61368173
vt 0.5132654 0.6203761
vt 0.4931821 0.6624554
vt 0.47405517 0.7007092
vt 0.5782969 0.7351377
vt 0.57925326 0.7293996
vt 0.6701061 0.69784015
vt 0.63185227 0.65767366
vt 0.7169671 0.63950306
vt 0.51135266 0.58499134
vt 0.53813034 0.5677771
vt 0.5237852 0.54769385
vt 0.5629954 0.55056286
vt 0.55917 0.61655074
vt 0.5266542 0.6461975
vt 0.55821365 0.6490665
vt 0.55056286 0.683495
vt 0.5859477 0.6777569
vt 0.5859477 0.6423721
vt 0.6050746 0.6194198
vt 0.5830786 0.57447153
vt 0.6222888 0.60603094
vt 0.5935984 0.54865015
vt 0.5945548 0.5180471
vt 0.63185227 0.52761054
vt 0.6280269 0.49509478
vt 0.65767366 0.4482338
vt 0.7169671 0.5142217
vt 0.67680055 0.5830786
vt 0.72844326 0.5888167
vt 0.6567173 0.6308959
vt 0.61655074 0.5782969
vt 0.633765 0.5706461
vt 0.21297267 0.1182944
vt 0.29808748 0.020747095
vt 0.288524 0.015009018
vt 0.30191287 0.17663151
vt 0.13168325 0.04943748
vt 0.41093633 0.06282633
vt 0.06186998 0.122119784
vt 0.36024997 0.1412467
vt 0.3669444 0.19480209
vt 0.50944 0.17280613
vt 0.4415394 0.28756768
vt 0.52761054 0.29713112
vt 0.50848365 0.3812896
vt 0.1412467 0.16228633
vt 0.24070671 0.17854421
vt 0.24931382 0.21105997
vt 0.21010363 0.26174632
vt 0.1182944 0.25409555
vt 0.015965365 0.22062343
vt 0.01213998 0.338254
vt 0.1680244 0.34877384
vt 0.3028692 0.2301869
vt 0.16611171 0.2904367
vt 0.13550864 0.4185871
vt 0.10299286 0.4826623
vt 0.27896056 0.5448248
vt 0.25409555 0.23879401
vt 0.28469864 0.27226612
vt 0.34112304 0.27896056
vt 0.36981344 0.2655717
vt 0.35068652 0.32582152
vt 0.2445321 0.3420794
vt 0.32295248 0.34686112
vt 0.3669444 0.41093633
vt 0.40902364 0.3669444
vt 0.43006325 0.4788369
vt 0.24357575 0.39754748
vt 0.28948036 0.38511497
vt 0.28948036 0.44536477
vt 0.2301869 0.45492825
vt 0.19097671 0.3918094
vt 0.9675298 0.8728515
vt 0.9780496 0.89962924
vt 0.9770933 0.8699825
vt 0.9665734 0.8097327
vt 0.9550973 0.8145144
vt 0.93310136 0.7695661
vt 0.9216252 0.7810423
vt 0.8910221 0.7408757
vt 0.93597037 0.8202525
vt 0.9589227 0.89962924
vt 0.92927593 0.9531846
vt 0.935014 0.9579663
vt 0.87572056 0.97518057
vt 0.8728515 0.984744
vt 0.8202525 0.98091865
vt 0.80781996 0.9904821
vt 0.71314174 0.9665734
vt 0.7026219 0.9742242
vt 0.65384823 0.94362116
vt 0.8623317 0.935014
vt 0.885284 0.93405765
vt 0.82407784 0.8690261
vt 0.9082363 0.93118864
vt 0.76860976 0.92545056
vt 0.661499 0.935014
vt 0.9158871 0.86328804
vt 0.8699825 0.86520076
vt 0.90441096 0.8001692
vt 0.86806977 0.78391135
vt 0.882415 0.75808996
vt 0.8202525 0.7399194
vt 0.8250342 0.72366154
vt 0.8126017 0.7695661
vt 0.75713366 0.7293996
vt 0.7590463 0.71314174
vt 0.7169671 0.7150544
vt 0.70740366 0.7293996
vt 0.61368173 0.73896307
vt 0.7542646 0.7619154
vt 0.77434784 0.8412921
vt 0.6203761 0.74948287
vt 0.5629954 0.8059073
vt 0.73705035 0.8900657
vt 0.686364 0.76574075
vt 0.5725588 0.8068636
vt 0.59264207 0.89484745
vt 0.7064473 0.90727997
vt 0.6069873 0.85754997
vt 0.70740366 0.85276824
vt 0.72461784 0.81547076
vt 0.69975287 0.80495095
vt 0.63472134 0.7705225
vt 0.6022056 0.8068636
vt 0.5964675 0.8785896
vt 0.84416115 0.5132654
vt 0.83172864 0.5333486
vt 0.85276824 0.5151781
vt 0.86520076 0.5046583
vt 0.8451175 0.54578114
vt 0.8613754 0.5333486
vt 0.8479865 0.5543882
vt 0.832685 0.5515192
vt 0.84703016 0.5706461
vt 0.86806977 0.53813034
vt 0.88145864 0.55056286
vt 0.8518119 0.5629954
vt 0.86520076 0.5754279
vt 0.8728515 0.52952325
vt 0.87093884 0.56108266
vt 0.8871967 0.56873345
vt 0.8986729 0.5553446
vt 0.88432765 0.5266542
vt 0.88624036 0.5362177
vt 0.8977165 0.5256979
vt 0.88432765 0.51039636
vt 0.8795459 0.5180471
vn 0.947477 0.22974879 -0.22249235
vn 0.947477 -0.23022687 -0.2219976
vn 0.947477 0.2531373 -0.19547088
vn 0.20683831 0.066028655 -0.97614455
vn -0.09721333 -0.050914347 -0.99396044
vn 0.16785729 0.034843862 -0.98519534
vn 0.24581927 0.12839812 -0.96077406
vn 0.869515 0.07382482 -0.48835805
vn 0.8851074 0.027047575 -0.4646002
vn 0.9006998 0.15958291 0.40407076
vn 0.9006998 0.14399058 0.4098861
vn 0.9318846 0.12839812 0.33927137
vn 0.9162922 0.09721333 0.38853338
vn 0.4407242 0.1907677 0.8771373
vn 0.4251318 0.7754825 -0.4667868
vn 0.40174323 0.876833 -0.26413298
vn -0.78327876 0.29991454 -0.5445417
vn 0.3783546 0.92361027 -0.061577667
vn 0.4251318 0.86903685 -0.25305715
vn 0.86171883 0.1907677 -0.47015774
vn 0.947477 0.198564 -0.25071836
vn 0.9318846 0.09721333 -0.34948635
vn 0.99074805 0.13571413 -0
vn 0.9708656 0.22974879 -0.068084136
vn 0.393947 0.9158141 -0.078040265
vn 0.3783546 0.92361027 -0.061577667
vn 0.947477 0.22974879 0.22249235
vn 0.2380231 0.9703874 0.04114983
vn -0.6585396 0.21415633 0.721431
vn -0.33109933 0.1907677 0.9241109
vn -0.5649852 0.105009615 0.8183915
vn -0.58057755 0.08941716 0.8092801
vn -0.33109933 0.12060195 0.93585706
vn -0.034843862 0.17517537 0.98392045
vn 0.16006112 0.17517537 0.9714391
vn 0.947477 0.112805784 0.29926947
vn 0.27654633 0.96100056 -0
vn -0.15958291 0.22974879 0.9600775
vn 0.9708656 0.22974879 -0.068084136
vn 0.947477 0.22974879 -0.22249235
vn 0.947477 0.2531373 -0.19547088
vn 0.38615084 0.21415633 -0.89723164
vn 0.9630694 0.2531373 0.09175446
vn 0.27700406 0.08941716 -0.9566992
vn 0.908496 0.15958291 0.3862231
vn 0.2692079 0.105009615 -0.9573401
vn 0.0041371584 0.1907677 -0.9816265
vn 0.0041371584 0.12060195 -0.99269235
vn -0.29211825 0.17517537 -0.94020236
vn -0.47143084 0.17517537 -0.8643301
vn -0.7053167 0.1907677 -0.6827415
vn 0.8539226 0.37787646 0.35780665
vn 0.9786618 0.198564 -0.052853275
vn 0.8227378 0.44024605 0.35956347
vn -0.29991454 0.876833 0.37578604
vn 0.12887633 0.066028655 0.98946
vn 0.41733563 -0.050914347 0.907325
vn 0.16785729 0.034843862 0.98519534
vn 0.08989537 0.12839812 0.98763996
vn -0.24511525 0.969494 -0
vn -0.24534112 0.7754825 0.58175135
vn -0.66633576 0.07382482 0.74198824
vn -0.6819281 0.027047575 0.73091894
vn -0.98597986 0.14399058 -0.084323354
vn -0.3388955 0.92361027 0.17914766
vn -0.33109933 0.92361027 0.1931768
vn -0.2761054 0.9611274 -0
vn -0.1673792 0.22974879 -0.95874906
vn -0.9703874 0.22974879 0.07459083
vn -0.31550688 0.86903685 0.381091
vn -0.33109933 0.9158141 0.22728339
vn -0.993776 0.09721333 -0.054394662
vn -0.993619 0.11278797 -0
vn -0.99175644 0.12813719 -0
vn -0.80666727 0.198564 0.55665094
vn -0.90022165 0.22974879 0.36988714
vn -0.93140644 0.13619441 0.33753982
vn -0.75989014 0.09721333 0.6427414
vn -0.6585396 0.1907677 0.7279652
vn -0.81446344 0.47143084 -0.33823404
vn -0.7365015 0.6507433 -0.18465829
vn -0.83785206 0.058232367 -0.54278255
vn -0.2219525 0.72870535 -0.6478624
vn -0.5104118 -0.019729555 -0.8597037
vn -0.22974879 0.027047575 -0.97287405
vn -0.1907677 0.0504362 -0.98033863
vn -0.15958291 0.6819281 -0.71379787
vn -0.37787646 0.7676863 -0.51755875
vn -0.8456482 0.52600425 0.09054623
vn -0.7209092 0.18297154 0.6684395
vn -0.5727814 0.1907677 0.7972008
vn -0.40906125 0.08941716 0.9081153
vn -0.40126508 0.0504362 0.9145723
vn -0.26872975 0.198564 0.94252676
vn -0.26093346 0.24534112 0.93366027
vn -0.034843862 0.31550688 0.9482834
vn 0.04311818 0.44024605 0.8968412
vn 0.2224307 0.1907677 0.9561026
vn -0.3077107 0.78327876 0.5401745
vn -0.37787646 0.8300559 0.41014215
vn -0.13619441 0.96259123 -0.23424183
vn -0.52600425 0.69752055 0.4866052
vn -0.08941716 0.8300559 0.55046505
vn 0.19124591 0.38567263 0.9025971
vn -0.3077107 0.8612407 -0.40444848
vn -0.1673792 0.97818357 -0.1230493
vn -0.13619441 0.8534445 -0.50307405
vn -0.04264003 0.86903685 -0.49290645
vn 0.019729555 0.14399058 -0.9893823
vn 0.16785729 0.15958291 -0.97280896
vn 0.17565352 0.08941716 -0.9803828
vn 0.027525783 0.8534445 -0.52045625
vn 0.19124591 0.1673792 -0.9671655
vn 0.18344969 0.09721333 -0.9782105
vn 0.2692079 0.00365901 -0.96307516
vn 0.28480023 0.14399058 -0.9477107
vn 0.5420748 0.0504362 -0.83881533
vn 0.04311818 0.79107493 -0.6101977
vn -0.019251406 0.993776 -0.1097205
vn 0.6044443 0.09721333 -0.79069376
vn 0.9786618 0.18297154 0.093501575
vn 0.058710575 0.98597986 0.15619467
vn 0.30039263 0.7676863 -0.5660583
vn 0.9942542 0.066028655 0.08425469
vn 0.33937365 0.35448784 0.8713001
vn 0.19124591 0.7442977 0.63987964
vn 0.34716982 0.7988711 0.49120063
vn 0.06650674 0.98597986 0.15303782
vn -0.00365901 0.97818357 -0.20771016
vn 0.12860654 0.99169576 -0
vn 0.5186862 0.6039662 -0.6051359
vn 0.46411276 0.8846293 0.045059655
vn 0.44852042 0.28432208 0.84734315
vn -0.6897244 0.28432208 0.6659139
vn -0.876833 0.4246537 0.22546194
vn -0.33109933 0.59617 0.73140585
vn -0.00365901 0.55718905 0.8303776
vn -0.7209092 0.6897244 -0.06760337
vn -0.32330304 0.8612407 0.39209646
vn -0.52600425 0.69752055 -0.4866052
vn -0.9158141 0.14399058 -0.37490162
vn -0.6897244 0.12060195 -0.7139576
vn -0.019251406 0.9469989 -0.32065946
vn 0.46411276 0.7442977 -0.48022944
vn -0.37787646 0.63515097 -0.6736413
vn 0.08209914 0.4246537 -0.90162575
vn 0.18344969 0.7754825 0.60413
vn 0.18344969 0.7209092 -0.66830844
vn 0.54987097 0.40906125 -0.7282244
vn 0.81494164 0.35448784 -0.45848495
vn 0.55766714 0.6195585 0.55240804
vn 0.7759607 0.6273548 0.06565794
vn 0.9396808 0.12839812 0.31703928
vn 0.6356291 0.15958291 0.7553204
vn 0.3627622 0.45583838 0.8127822
g rockCluster03_geo_0
f 3/3/3 2/2/2 1/1/1
f 6/6/6 5/5/5 4/4/4
f 6/6/6 4/4/4 7/7/7
f 6/6/6 7/7/7 8/8/8
f 9/9/9 6/6/6 8/8/8
f 10/10/10 9/9/9 8/8/8
f 8/8/8 11/11/11 10/10/10
f 10/10/10 11/11/11 12/12/12
f 11/11/11 13/13/13 12/12/12
f 14/14/14 12/12/12 13/13/13
f 4/4/4 15/15/15 7/7/7
f 16/16/16 15/15/15 4/4/4
f 17/17/17 16/16/16 4/4/4
f 17/17/17 18/18/18 16/16/16
f 15/15/15 16/16/16 19/19/19
f 7/7/7 15/15/15 19/19/19
f 19/19/19 16/16/16 18/18/18
f 7/7/7 20/20/20 8/8/8
f 21/21/21 20/20/20 7/7/7
f 8/8/8 20/20/20 21/21/21
f 19/19/19 21/21/21 7/7/7
f 8/8/8 22/22/22 11/11/11
f 22/22/22 8/8/8 21/21/21
f 23/23/23 11/11/11 22/22/22
f 11/11/11 23/23/23 13/13/13
f 23/23/23 22/22/22 24/24/24
f 22/22/22 21/21/21 24/24/24
f 23/23/23 24/24/24 13/13/13
f 25/25/25 24/24/24 21/21/21
f 19/19/19 25/25/25 21/21/21
f 13/13/13 24/24/24 25/25/25
f 26/26/26 19/19/19 18/18/18
f 19/19/19 26/26/26 25/25/25
f 27/27/27 13/13/13 25/25/25
f 26/26/26 27/27/27 25/25/25
f 28/28/28 26/26/26 18/18/18
f 28/28/28 18/18/18 29/29/29
f 28/28/28 29/29/29 30/30/30
f 29/29/29 31/31/31 30/30/30
f 30/30/30 31/31/31 32/32/32
f 33/33/33 30/30/30 32/32/32
f 33/33/33 34/34/34 30/30/30
f 33/33/33 35/35/35 34/34/34
f 34/34/34 35/35/35 14/14/14
f 36/36/36 14/14/14 13/13/13
f 27/27/27 36/36/36 13/13/13
f 36/36/36 34/34/34 14/14/14
f 36/36/36 27/27/27 34/34/34
f 37/37/37 27/27/27 26/26/26
f 28/28/28 37/37/37 26/26/26
f 28/28/28 30/30/30 37/37/37
f 27/27/27 37/37/37 34/34/34
f 34/34/34 38/38/38 30/30/30
f 37/37/37 38/38/38 34/34/34
f 30/30/30 38/38/38 37/37/37
f 41/41/41 40/40/40 39/39/39
f 40/40/40 42/42/42 39/39/39
f 43/43/43 41/41/41 39/39/39
f 40/40/40 44/44/44 42/42/42
f 45/45/45 43/43/43 39/39/39
f 44/44/44 46/46/46 42/42/42
f 47/47/47 46/46/46 44/44/44
f 42/42/42 46/46/46 47/47/47
f 48/48/48 47/47/47 44/44/44
f 48/48/48 49/49/49 47/47/47
f 48/48/48 50/50/50 49/49/49
f 49/49/49 50/50/50 51/51/51
f 52/52/52 45/45/45 39/39/39
f 42/42/42 53/53/53 39/39/39
f 52/52/52 39/39/39 53/53/53
f 54/54/54 53/53/53 42/42/42
f 52/52/52 53/53/53 54/54/54
f 52/52/52 54/54/54 55/55/55
f 52/52/52 56/56/56 45/45/45
f 52/52/52 55/55/55 56/56/56
f 56/56/56 57/57/57 45/45/45
f 58/58/58 57/57/57 56/56/56
f 58/58/58 56/56/56 59/59/59
f 60/60/60 54/54/54 42/42/42
f 60/60/60 42/42/42 47/47/47
f 55/55/55 61/61/61 56/56/56
f 56/56/56 61/61/61 59/59/59
f 59/59/59 61/61/61 55/55/55
f 58/58/58 59/59/59 62/62/62
f 63/63/63 58/58/58 62/62/62
f 64/64/64 63/63/63 62/62/62
f 54/54/54 65/65/65 55/55/55
f 60/60/60 65/65/65 54/54/54
f 55/55/55 65/65/65 66/66/66
f 60/60/60 66/66/66 65/65/65
f 60/60/60 47/47/47 67/67/67
f 60/60/60 67/67/67 66/66/66
f 47/47/47 68/68/68 67/67/67
f 49/49/49 68/68/68 47/47/47
f 67/67/67 68/68/68 49/49/49
f 69/69/69 67/67/67 49/49/49
f 67/67/67 69/69/69 66/66/66
f 70/70/70 55/55/55 66/66/66
f 70/70/70 59/59/59 55/55/55
f 70/70/70 66/66/66 71/71/71
f 66/66/66 69/69/69 71/71/71
f 69/69/69 72/72/72 71/71/71
f 73/73/73 69/69/69 49/49/49
f 69/69/69 73/73/73 72/72/72
f 73/73/73 49/49/49 51/51/51
f 73/73/73 51/51/51 72/72/72
f 51/51/51 74/74/74 72/72/72
f 64/64/64 72/72/72 74/74/74
f 70/70/70 75/75/75 59/59/59
f 70/70/70 71/71/71 75/75/75
f 72/72/72 76/76/76 71/71/71
f 71/71/71 76/76/76 75/75/75
f 64/64/64 77/77/77 72/72/72
f 77/77/77 76/76/76 72/72/72
f 77/77/77 64/64/64 78/78/78
f 77/77/77 78/78/78 76/76/76
f 78/78/78 75/75/75 76/76/76
f 78/78/78 64/64/64 62/62/62
f 78/78/78 62/62/62 75/75/75
f 59/59/59 79/79/79 62/62/62
f 62/62/62 79/79/79 75/75/75
f 75/75/75 79/79/79 59/59/59
f 82/82/82 81/81/81 80/80/80
f 82/82/82 80/80/80 83/83/83
f 80/80/80 84/84/84 83/83/83
f 85/85/85 83/83/83 84/84/84
f 86/86/86 85/85/85 84/84/84
f 87/87/87 85/85/85 86/86/86
f 80/80/80 88/88/88 84/84/84
f 86/86/86 84/84/84 88/88/88
f 81/81/81 89/89/89 80/80/80
f 80/80/80 89/89/89 88/88/88
f 89/89/89 81/81/81 90/90/90
f 81/81/81 91/91/91 90/90/90
f 92/92/92 90/90/90 91/91/91
f 93/93/93 92/92/92 91/91/91
f 94/94/94 92/92/92 93/93/93
f 95/95/95 94/94/94 93/93/93
f 94/94/94 95/95/95 96/96/96
f 95/95/95 97/97/97 96/96/96
f 96/96/96 97/97/97 98/98/98
f 94/94/94 99/99/99 92/92/92
f 94/94/94 96/96/96 99/99/99
f 92/92/92 100/100/100 90/90/90
f 99/99/99 100/100/100 92/92/92
f 99/99/99 101/101/101 100/100/100
f 89/89/89 90/90/90 102/102/102
f 100/100/100 102/102/102 90/90/90
f 96/96/96 103/103/103 99/99/99
f 101/101/101 99/99/99 103/103/103
f 104/104/104 96/96/96 98/98/98
f 103/103/103 96/96/96 104/104/104
f 89/89/89 102/102/102 105/105/105
f 89/89/89 105/105/105 88/88/88
f 100/100/100 106/106/106 102/102/102
f 106/106/106 105/105/105 102/102/102
f 101/101/101 106/106/106 100/100/100
f 107/107/107 88/88/88 105/105/105
f 106/106/106 107/107/107 105/105/105
f 107/107/107 86/86/86 88/88/88
f 108/108/108 107/107/107 106/106/106
f 101/101/101 108/108/108 106/106/106
f 109/109/109 86/86/86 107/107/107
f 108/108/108 109/109/109 107/107/107
f 109/109/109 87/87/87 86/86/86
f 109/109/109 110/110/110 87/87/87
f 109/109/109 108/108/108 110/110/110
f 110/110/110 111/111/111 87/87/87
f 108/108/108 112/112/112 110/110/110
f 108/108/108 101/101/101 112/112/112
f 110/110/110 113/113/113 111/111/111
f 110/110/110 112/112/112 113/113/113
f 113/113/113 114/114/114 111/111/111
f 114/114/114 113/113/113 115/115/115
f 113/113/113 116/116/116 115/115/115
f 115/115/115 116/116/116 117/117/117
f 112/112/112 118/118/118 113/113/113
f 113/113/113 118/118/118 116/116/116
f 101/101/101 119/119/119 112/112/112
f 112/112/112 119/119/119 118/118/118
f 116/116/116 120/120/120 117/117/117
f 117/117/117 120/120/120 121/121/121
f 119/119/119 101/101/101 122/122/122
f 101/101/101 103/103/103 122/122/122
f 118/118/118 123/123/123 116/116/116
f 116/116/116 123/123/123 120/120/120
f 120/120/120 124/124/124 121/121/121
f 125/125/125 121/121/121 124/124/124
f 126/126/126 122/122/122 103/103/103
f 126/126/126 127/127/127 122/122/122
f 126/126/126 103/103/103 104/104/104
f 126/126/126 104/104/104 127/127/127
f 119/119/119 122/122/122 128/128/128
f 127/127/127 128/128/128 122/122/122
f 119/119/119 129/129/129 118/118/118
f 129/129/129 119/119/119 128/128/128
f 129/129/129 130/130/130 118/118/118
f 129/129/129 128/128/128 130/130/130
f 130/130/130 123/123/123 118/118/118
f 130/130/130 128/128/128 127/127/127
f 123/123/123 131/131/131 120/120/120
f 120/120/120 131/131/131 124/124/124
f 130/130/130 132/132/132 123/123/123
f 132/132/132 131/131/131 123/123/123
f 132/132/132 130/130/130 127/127/127
f 131/131/131 132/132/132 124/124/124
f 124/124/124 132/132/132 127/127/127
f 133/133/133 125/125/125 124/124/124
f 133/133/133 124/124/124 127/127/127
f 104/104/104 133/133/133 127/127/127
f 98/98/98 125/125/125 133/133/133
f 104/104/104 98/98/98 133/133/133
f 136/136/136 135/135/135 134/134/134
f 134/134/134 137/137/137 136/136/136
f 136/136/136 138/138/138 135/135/135
f 139/139/139 136/136/136 137/137/137
f 136/136/136 139/139/139 138/138/138
f 135/135/135 138/138/138 140/140/140
f 141/141/141 135/135/135 140/140/140
f 141/141/141 140/140/140 142/142/142
f 138/138/138 139/139/139 143/143/143
f 140/140/140 138/138/138 143/143/143
f 140/140/140 143/143/143 144/144/144
f 140/140/140 145/145/145 142/142/142
f 140/140/140 144/144/144 145/145/145
f 146/146/146 142/142/142 145/145/145
f 147/147/147 143/143/143 139/139/139
f 147/147/147 139/139/139 137/137/137
f 147/147/147 144/144/144 143/143/143
f 146/146/146 145/145/145 148/148/148
f 144/144/144 148/148/148 145/145/145
f 146/146/146 148/148/148 149/149/149
f 150/150/150 149/149/149 148/148/148
f 144/144/144 150/150/150 148/148/148
f 147/147/147 137/137/137 151/151/151
f 147/147/147 151/151/151 144/144/144
f 144/144/144 152/152/152 150/150/150
f 151/151/151 152/152/152 144/144/144
f 153/153/153 150/150/150 152/152/152
f 153/153/153 152/152/152 151/151/151
f 153/153/153 151/151/151 154/154/154
f 137/137/137 155/155/155 151/151/151
f 151/151/151 155/155/155 154/154/154
f 154/154/154 155/155/155 137/137/137
