g rock_04_geo
v 0.072660476 0.17489862 0.19128671
v 0.09036883 4.2170286E-06 0.18195131
v 0.07830773 4.2170286E-06 0.18688306
v 0.15007807 4.2170286E-06 0.13340029
v 0.062055916 0.17782873 0.1991486
v -0.005327791 4.2170286E-06 0.1946427
v 0.14213955 0.13536787 0.11064944
v 0.067660585 0.18903804 0.19037533
v 0.16371495 0.14524844 0.023317218
v 0.19986416 4.2170286E-06 0.073290706
v 0.203152 4.2170286E-06 -0.05662161
v 0.20038374 0.010745063 -0.056698263
v 0.19789657 4.2170286E-06 -0.06808646
v 0.14489077 0.27446228 -0.08696174
v 0.13082802 4.2170286E-06 -0.12986551
v 0.14567441 0.2811913 -0.07518172
v 0.1362027 0.26332963 0.008453801
v 0.12549591 0.32297927 0.017022625
v 0.13622825 0.15217334 0.1143291
v 0.1189032 0.16628721 -0.120615266
v 0.06673215 0.22929281 -0.12727612
v 0.021264538 4.2170286E-06 -0.16740312
v -0.062805384 0.14524844 -0.16219878
v -0.07364845 4.2170286E-06 -0.18204509
v -0.12974617 4.2170286E-06 -0.15702002
v 0.11994236 0.334163 0.0128830075
v 0.11656935 0.3290183 0.024220109
v 0.05645977 0.32475942 0.10380119
v 0.13843435 0.2927328 -0.076365694
v 0.0730523 0.34500605 -0.0871832
v 0.07774556 0.3512836 -0.07549688
v 0.0818511 0.35369414 0.014526933
v 0.079943135 0.35223764 0.027397215
v 0.06938116 0.355057 0.016554147
v 0.06609331 0.35002303 -0.077038586
v -0.03603418 0.31549215 -0.12150963
v 0.044807523 0.32970822 0.10090515
v -0.029594779 0.26332963 -0.13384329
v 0.017508224 0.33044076 -0.028606817
v -0.03737147 0.3228259 -0.11076877
v -0.1146698 0.28828657 -0.10886932
v -0.10943991 0.29876333 -0.10100746
v -0.13419244 0.14835739 -0.11374998
v -0.119329005 0.28680447 -0.09689341
v -0.14046147 0.1482552 -0.10230216
v -0.14232686 0.14524844 -0.042550325
v -0.13832352 4.2170286E-06 -0.14684986
v -0.16214758 4.2170286E-06 -0.059287652
v -0.12141585 0.27199215 -0.049781874
v -0.116603315 0.2814298 -0.041349337
v -0.19845864 0.011571288 0.05467096
v -0.20109063 4.2170286E-06 0.056476712
v -0.19974482 4.2170286E-06 0.06889555
v -0.17108268 0.25450528 0.007917181
v -0.078639835 0.282503 0.06283945
v -0.18392742 0.1389879 0.029841796
v -0.2002559 0.013785884 0.06728572
v -0.12552992 0.10879257 0.18235162
v -0.13471201 4.2170286E-06 0.17474529
v -0.18630385 0.13681588 0.04329981
v -0.17320359 0.24859396 0.023598313
v -0.17587817 0.12361342 0.10075185
v -0.16390225 0.25987995 0.016315654
v -0.1636382 0.22176313 0.08770269
v -0.15638962 0.2332876 0.08490035
v -0.1142354 0.10387784 0.19029868
v -0.12371564 4.2170286E-06 0.1817128
v -0.13363877 0.19806683 0.14584467
v -0.06357199 0.23287877 0.1665768
v -0.123851895 0.19948077 0.15475422
v -0.061664015 0.22218052 0.17375726
v -0.1269694 0.20873955 0.14583614
v 0.012218714 0.2654335 0.172914
v 0.014331117 0.25464156 0.1804181
v 0.024100944 0.26176238 0.17544377
vt 0.19172566 0.44624513
vt 0.024304094 0.38043782
vt 0.018497566 0.4133415
vt 0.104627736 0.21979055
vt 0.18591914 0.466568
vt 0.043659188 0.61656994
vt 0.25850073 0.28463012
vt 0.20333871 0.4559227
vt 0.39108312 0.21398401
vt 0.23237136 0.08043387
vt 0.525601 0.004949
vt 0.5304398 0.02140083
vt 0.55850464 0.012691038
vt 0.5643112 0.29237214
vt 0.7617332 0.10559549
vt 0.5468916 0.29914644
vt 0.44140637 0.31946927
vt 0.45011616 0.36979252
vt 0.26237175 0.30592072
vt 0.65915114 0.24398442
vt 0.6581834 0.35430846
vt 0.9165739 0.31656602
vt 0.8227017 0.5236655
vt 0.98625225 0.5343108
vt 0.9543163 0.69108707
vt 0.4578582 0.37947008
vt 0.44624513 0.38527662
vt 0.3726958 0.47624555
vt 0.54979485 0.31172726
vt 0.56334347 0.40172842
vt 0.5517304 0.40172842
vt 0.46463248 0.42301902
vt 0.45301944 0.42882556
vt 0.46560025 0.43559983
vt 0.5556014 0.4133415
vt 0.64173156 0.51011693
vt 0.38043782 0.48689085
vt 0.68721604 0.48882636
vt 0.5246332 0.48011658
vt 0.62915075 0.51398796
vt 0.6620544 0.5943116
vt 0.6465703 0.5904406
vt 0.76947516 0.66302216
vt 0.64850587 0.6030214
vt 0.7530234 0.67850626
vt 0.6601189 0.71431315
vt 0.9378645 0.72108746
vt 0.7714107 0.85754085
vt 0.59237605 0.6223765
vt 0.5788275 0.6185055
vt 0.5391496 0.97076815
vt 0.5420528 0.98915553
vt 0.4985039 0.99496204
vt 0.5362463 0.7046356
vt 0.45205167 0.61463445
vt 0.5430206 0.8139919
vt 0.50721365 0.9765747
vt 0.24688768 0.78786254
vt 0.19462892 0.9030253
vt 0.52173 0.82366943
vt 0.5188267 0.71431315
vt 0.4259223 0.8352825
vt 0.5246332 0.6968936
vt 0.44043863 0.73657155
vt 0.44237414 0.72108746
vt 0.22462933 0.7752817
vt 0.16366078 0.8778637
vt 0.35430846 0.730765
vt 0.32237256 0.6388283
vt 0.33979213 0.72108746
vt 0.30979174 0.6426993
vt 0.35624397 0.7162487
vt 0.29237214 0.53721404
vt 0.27882358 0.53527856
vt 0.28172684 0.5236655
vn 0.68940383 0.093060315 0.71837467
vn 0.69707507 0.07771784 0.7127737
vn 0.19844592 -0.045021594 0.9790773
vn 0.7891297 0.16210133 0.59245044
vn -0.10073155 0.062375486 0.9929564
vn -0.062375486 0.031690538 0.99754953
vn 0.8121433 0.17744368 0.555821
vn 0.68940383 0.4075802 0.5988328
vn 0.9578965 0.23114222 0.17031626
vn 0.9272116 0.25415593 0.27510628
vn 0.96556765 0.2464847 0.083212994
vn 0.972937 0.23107053 -0
vn 0.7124175 0.093060315 -0.69555813
vn 0.5820068 0.21579975 -0.78402716
vn 0.4899522 0.093060315 -0.86676794
vn 0.9732389 0.22347099 0.05354248
vn 0.9732389 0.2004574 0.11235173
vn 0.9272116 0.292512 0.23391329
vn 0.75077355 0.37689537 0.54248405
vn 0.48228097 0.10840279 -0.86928356
vn 0.23680204 0.19278616 -0.95223856
vn 0.2291308 0.116074026 -0.96645015
vn -0.07004672 0.16977245 -0.98299074
vn -0.26182705 0.17744368 -0.9486624
vn -0.53031975 0.19278616 -0.82558733
vn 0.6663902 0.73744255 -0.11001184
vn 0.7200887 0.43826514 0.53795534
vn 0.6663902 0.48429245 0.56690824
vn 0.7200887 0.6300456 -0.2907143
vn 0.2598157 0.36922413 -0.89228326
vn 0.52063704 0.8141548 -0.25707787
vn 0.3211854 0.9445655 0.0680881
vn 0.65104777 0.53031975 0.5430449
vn -0.36922413 0.929223 0.014770003
vn -0.23881346 0.96757907 -0.08221234
vn 0.006665528 0.34621054 -0.9381332
vn -0.37689537 0.8831957 0.27913293
vn 0.060364008 0.22347099 -0.9728396
vn -0.36922413 0.92155176 0.120066315
vn -0.27716953 0.9599078 -0.041881327
vn -0.39223784 0.26182705 -0.88181406
vn -0.36922413 0.929223 0.014770003
vn -0.59936064 0.16210133 -0.7838941
vn -0.9599078 0.23114222 -0.15858832
vn -0.9752503 0.116074026 -0.18818517
vn -0.9522367 0.093060315 -0.29083508
vn -0.9599078 0.10840279 -0.2585069
vn -0.96757907 0.12374514 -0.22017692
vn -0.92155176 0.25415593 -0.2935083
vn -0.37689537 0.9138805 0.15090477
vn -0.93689424 0.14675885 -0.31731844
vn -0.93689424 0.16210133 -0.3097617
vn -0.85251087 0.031690538 0.52174795
vn -0.84483963 0.16210133 -0.5098717
vn -0.39990908 0.87552446 0.27116352
vn -0.9062094 0.02401936 -0.42214638
vn -0.8831957 0.039361775 0.46734998
vn -0.8218259 0.07771784 0.564413
vn -0.82949716 0.02401936 0.5579942
vn -0.98292154 0.13908762 0.120498575
vn -0.9599078 0.23114222 0.15858832
vn -0.89086694 0.093060315 0.44463006
vn -0.4075802 0.89086694 0.20058541
vn -0.9138805 0.2004574 0.3530428
vn -0.4305939 0.8141548 0.38953927
vn -0.116074026 0.12374514 0.9855019
vn -0.20812863 -0.060364008 0.976237
vn -0.8141548 0.19278616 0.5477093
vn -0.4075802 0.76045626 0.50555384
vn -0.13141638 0.2004574 0.9708484
vn -0.14675885 0.13141638 0.9804038
vn -0.43826514 0.752785 0.4911602
vn -0.37689537 0.7757986 0.50604975
vn -0.15443009 0.116074026 0.98116165
vn 0.6663902 0.44593638 0.597549
g rock_04_geo_0
f 3/3/3 2/2/2 1/1/1
f 1/1/1 2/2/2 4/4/4
f 5/5/5 3/3/3 1/1/1
f 6/6/6 3/3/3 5/5/5
f 7/7/7 1/1/1 4/4/4
f 8/8/8 5/5/5 1/1/1
f 1/1/1 7/7/7 8/8/8
f 7/7/7 4/4/4 9/9/9
f 4/4/4 10/10/10 9/9/9
f 10/10/10 11/11/11 9/9/9
f 11/11/11 12/12/12 9/9/9
f 12/12/12 11/11/11 13/13/13
f 12/12/12 13/13/13 14/14/14
f 13/13/13 15/15/15 14/14/14
f 12/12/12 16/16/16 9/9/9
f 16/16/16 12/12/12 14/14/14
f 7/7/7 9/9/9 17/17/17
f 16/16/16 17/17/17 9/9/9
f 7/7/7 17/17/17 18/18/18
f 18/18/18 17/17/17 16/16/16
f 7/7/7 19/19/19 8/8/8
f 7/7/7 18/18/18 19/19/19
f 15/15/15 20/20/20 14/14/14
f 21/21/21 20/20/20 15/15/15
f 14/14/14 20/20/20 21/21/21
f 22/22/22 21/21/21 15/15/15
f 22/22/22 23/23/23 21/21/21
f 22/22/22 24/24/24 23/23/23
f 23/23/23 24/24/24 25/25/25
f 18/18/18 16/16/16 26/26/26
f 18/18/18 27/27/27 19/19/19
f 27/27/27 18/18/18 26/26/26
f 19/19/19 28/28/28 8/8/8
f 19/19/19 27/27/27 28/28/28
f 14/14/14 29/29/29 16/16/16
f 16/16/16 29/29/29 26/26/26
f 29/29/29 14/14/14 30/30/30
f 30/30/30 14/14/14 21/21/21
f 31/31/31 26/26/26 29/29/29
f 31/31/31 29/29/29 30/30/30
f 27/27/27 26/26/26 32/32/32
f 31/31/31 32/32/32 26/26/26
f 33/33/33 27/27/27 32/32/32
f 27/27/27 33/33/33 28/28/28
f 34/34/34 32/32/32 31/31/31
f 33/33/33 32/32/32 34/34/34
f 30/30/30 35/35/35 31/31/31
f 35/35/35 34/34/34 31/31/31
f 30/30/30 21/21/21 36/36/36
f 35/35/35 30/30/30 36/36/36
f 33/33/33 34/34/34 37/37/37
f 28/28/28 33/33/33 37/37/37
f 21/21/21 38/38/38 36/36/36
f 23/23/23 38/38/38 21/21/21
f 36/36/36 38/38/38 23/23/23
f 35/35/35 39/39/39 34/34/34
f 37/37/37 34/34/34 39/39/39
f 40/40/40 35/35/35 36/36/36
f 35/35/35 40/40/40 39/39/39
f 41/41/41 36/36/36 23/23/23
f 40/40/40 36/36/36 41/41/41
f 40/40/40 42/42/42 39/39/39
f 42/42/42 40/40/40 41/41/41
f 43/43/43 41/41/41 23/23/23
f 43/43/43 23/23/23 25/25/25
f 41/41/41 43/43/43 44/44/44
f 42/42/42 41/41/41 44/44/44
f 43/43/43 25/25/25 45/45/45
f 43/43/43 45/45/45 44/44/44
f 44/44/44 45/45/45 46/46/46
f 25/25/25 47/47/47 45/45/45
f 45/45/45 47/47/47 46/46/46
f 47/47/47 48/48/48 46/46/46
f 42/42/42 44/44/44 49/49/49
f 44/44/44 46/46/46 49/49/49
f 39/39/39 42/42/42 50/50/50
f 50/50/50 42/42/42 49/49/49
f 51/51/51 46/46/46 48/48/48
f 52/52/52 51/51/51 48/48/48
f 51/51/51 52/52/52 53/53/53
f 46/46/46 54/54/54 49/49/49
f 50/50/50 49/49/49 54/54/54
f 55/55/55 39/39/39 50/50/50
f 55/55/55 37/37/37 39/39/39
f 51/51/51 56/56/56 46/46/46
f 56/56/56 54/54/54 46/46/46
f 57/57/57 51/51/51 53/53/53
f 58/58/58 57/57/57 53/53/53
f 53/53/53 59/59/59 58/58/58
f 56/56/56 51/51/51 60/60/60
f 51/51/51 57/57/57 60/60/60
f 54/54/54 56/56/56 61/61/61
f 56/56/56 60/60/60 61/61/61
f 60/60/60 57/57/57 62/62/62
f 58/58/58 62/62/62 57/57/57
f 60/60/60 62/62/62 61/61/61
f 63/63/63 50/50/50 54/54/54
f 63/63/63 54/54/54 61/61/61
f 62/62/62 64/64/64 61/61/61
f 63/63/63 61/61/61 64/64/64
f 62/62/62 58/58/58 64/64/64
f 50/50/50 63/63/63 65/65/65
f 55/55/55 50/50/50 65/65/65
f 65/65/65 63/63/63 64/64/64
f 66/66/66 58/58/58 59/59/59
f 67/67/67 66/66/66 59/59/59
f 67/67/67 6/6/6 66/66/66
f 58/58/58 68/68/68 64/64/64
f 64/64/64 68/68/68 65/65/65
f 55/55/55 65/65/65 69/69/69
f 55/55/55 69/69/69 37/37/37
f 66/66/66 70/70/70 58/58/58
f 70/70/70 68/68/68 58/58/58
f 6/6/6 71/71/71 66/66/66
f 71/71/71 70/70/70 66/66/66
f 6/6/6 5/5/5 71/71/71
f 68/68/68 72/72/72 65/65/65
f 72/72/72 68/68/68 70/70/70
f 65/65/65 72/72/72 69/69/69
f 70/70/70 71/71/71 72/72/72
f 71/71/71 69/69/69 72/72/72
f 69/69/69 73/73/73 37/37/37
f 28/28/28 37/37/37 73/73/73
f 71/71/71 74/74/74 69/69/69
f 5/5/5 74/74/74 71/71/71
f 74/74/74 73/73/73 69/69/69
f 75/75/75 28/28/28 73/73/73
f 73/73/73 74/74/74 75/75/75
f 74/74/74 5/5/5 75/75/75
f 28/28/28 75/75/75 8/8/8
f 5/5/5 8/8/8 75/75/75
