g textureEditorIsolateSelectSet_BushFlower
v 0.262161 0.30922 -0.154581
v 0.235266 0.416821 -0.050396
v 0.227038 0.387989 -0.133871
v 0.288141 0.333403 -0.061722
v 0.315642 0.201619 -0.067613
v 0.279559 0.345981 0.072166
v 0.278063 0.201619 -0.163958
v 0.221011 0.429875 0.057052
v 0.254479 0.076062 -0.150322
v 0.181476 0.416821 0.157975
v 0.292647 0.074144 -0.041508
v 0.286262 0.072012 0.073624
v 0.22676 -0.005694 -0.031972
v 0.197264 -0.005694 -0.116315
v 0.221734 -0.005694 0.057239
v 0.182951 -0.005694 0.137736
v 0.312557 0.201619 0.080684
v 0.243476 0.201619 0.211946
v 0.222262 0.333403 0.193479
v 0.154581 0.30922 0.262161
v 0.133871 0.387989 0.227038
v 0.163958 0.201619 0.278063
v 0.150357 0.068387 0.254443
v 0.116315 -0.005694 0.197264
v 0.236297 0.06999 0.177548
v -0.262161 0.30922 0.154581
v -0.235266 0.416821 0.050396
v -0.227038 0.387989 0.133871
v -0.288141 0.333403 0.061722
v -0.315642 0.201619 0.067613
v -0.279559 0.345981 -0.072166
v -0.278063 0.201619 0.163958
v -0.221011 0.429875 -0.057052
v -0.254479 0.069411 0.150322
v -0.181476 0.416821 -0.157975
v -0.292647 0.071329 0.041508
v -0.286262 0.073461 -0.073624
v -0.22676 -0.005694 0.031972
v -0.197264 -0.005694 0.116315
v -0.221734 -0.005694 -0.057239
v -0.182951 -0.005694 -0.137736
v -0.312557 0.201619 -0.080684
v -0.243476 0.201619 -0.211946
v -0.222262 0.333403 -0.193479
v -0.154581 0.30922 -0.262161
v -0.133871 0.387989 -0.227038
v -0.163958 0.201619 -0.278063
v -0.150357 0.077086 -0.254442
v -0.116315 -0.005694 -0.197264
v -0.236297 0.075482 -0.177548
v 0.235266 0.416821 -0.050396
v 0.157975 0.416821 -0.181476
v 0.227038 0.387989 -0.133871
v 0.16054 0.447162 -0.094661
v 0.13978 0.469913 0.036083
v 0.036083 0.469913 -0.13978
v 0.221011 0.429875 0.057052
v 0.057052 0.429875 -0.221011
v 0.181476 0.416821 0.157975
v -0.050396 0.416821 -0.235266
v 0.094661 0.447162 0.16054
v -0.036083 0.469913 0.13978
v 0.050396 0.416821 0.235266
v 0.133871 0.387989 0.227038
v -0.057052 0.429875 0.221011
v -0.157975 0.416821 0.181476
v -0 0.485143 0
v -0.13978 0.469913 -0.036083
v -0.094661 0.447162 -0.16054
v -0.181476 0.416821 -0.157975
v -0.133871 0.387989 -0.227038
v -0.221011 0.429875 -0.057052
v -0.235266 0.416821 0.050396
v -0.227038 0.387989 0.133871
v -0.16054 0.447162 0.094661
v 0.031972 -0.005694 0.22676
v 0.150357 0.068387 0.254443
v 0.116315 -0.005694 0.197264
v 0.041527 0.067445 0.2926
v 0.067613 0.201619 0.315642
v 0.163958 0.201619 0.278063
v 0.154581 0.30922 0.262161
v -0.073625 0.067309 0.286212
v -0.057239 -0.005694 0.221734
v -0.137736 -0.005694 0.182951
v -0.177569 0.068 0.23625
v -0.073625 0.067309 0.286212
v -0.211946 0.201619 0.243476
v -0.254479 0.069411 0.150322
v -0.197264 -0.005694 0.116315
v -0.278063 0.201619 0.163958
v -0.262161 0.30922 0.154581
v -0.080684 0.201619 0.312557
v -0.072166 0.345981 0.279559
v -0.193479 0.333403 0.222262
v -0.157975 0.416821 0.181476
v -0.227038 0.387989 0.133871
v -0.057052 0.429875 0.221011
v 0.050396 0.416821 0.235266
v 0.061722 0.333403 0.288141
v 0.133871 0.387989 0.227038
v 0.254479 0.076062 -0.150322
v 0.137736 -0.005694 -0.182951
v 0.197264 -0.005694 -0.116315
v 0.177569 0.077473 -0.23625
v 0.211946 0.201619 -0.243476
v 0.073625 0.078163 -0.286212
v 0.278063 0.201619 -0.163958
v 0.057239 -0.005694 -0.221734
v 0.262161 0.30922 -0.154581
v -0.031972 -0.005694 -0.22676
v 0.193479 0.333403 -0.222262
v 0.072166 0.345981 -0.279559
v 0.157975 0.416821 -0.181476
v 0.227038 0.387989 -0.133871
v 0.057052 0.429875 -0.221011
v -0.050396 0.416821 -0.235266
v 0.080684 0.201619 -0.312557
v -0.067613 0.201619 -0.315642
v -0.041527 0.078028 -0.2926
v -0.150357 0.077086 -0.254442
v -0.116315 -0.005694 -0.197264
v -0.163958 0.201619 -0.278063
v -0.154581 0.30922 -0.262161
v -0.133871 0.387989 -0.227038
v -0.061722 0.333403 -0.288141
vt 0.97995 0.739975
vt 0.739975 0.97995
vt 0.97995 0.97995
vt 0.739975 0.739975
vt 0.739975 0.5
vt 0.5 0.739975
vt 0.97995 0.5
vt 0.5 0.97995
vt 0.97995 0.260025
vt 0.260025 0.97995
vt 0.739975 0.260025
vt 0.5 0.260025
vt 0.739975 0.02005
vt 0.97995 0.02005
vt 0.5 0.02005
vt 0.260025 0.02005
vt 0.5 0.5
vt 0.260025 0.5
vt 0.260025 0.739975
vt 0.02005 0.739975
vt 0.02005 0.97995
vt 0.02005 0.5
vt 0.02005 0.260025
vt 0.02005 0.02005
vt 0.260025 0.260025
vt 0.97995 0.739975
vt 0.739975 0.971059
vt 0.97995 0.971059
vt 0.739975 0.739975
vt 0.739975 0.5
vt 0.5 0.739975
vt 0.97995 0.5
vt 0.5 0.971059
vt 0.97995 0.260025
vt 0.260025 0.971059
vt 0.739975 0.260025
vt 0.5 0.260025
vt 0.739975 0.028941
vt 0.97995 0.028941
vt 0.5 0.028941
vt 0.260025 0.028941
vt 0.5 0.5
vt 0.260025 0.5
vt 0.260025 0.739975
vt 0.02005 0.739975
vt 0.02005 0.971059
vt 0.02005 0.5
vt 0.02005 0.260025
vt 0.02005 0.028941
vt 0.260025 0.260025
vt 0.97995 0.739975
vt 0.739975 0.97995
vt 0.97995 0.97995
vt 0.739975 0.739975
vt 0.739975 0.5
vt 0.5 0.739975
vt 0.97995 0.5
vt 0.5 0.97995
vt 0.97995 0.260025
vt 0.260025 0.97995
vt 0.739975 0.260025
vt 0.5 0.260025
vt 0.739975 0.02005
vt 0.97995 0.02005
vt 0.5 0.02005
vt 0.260025 0.02005
vt 0.5 0.5
vt 0.260025 0.5
vt 0.260025 0.739975
vt 0.02005 0.739975
vt 0.02005 0.97995
vt 0.02005 0.5
vt 0.02005 0.260025
vt 0.02005 0.02005
vt 0.260025 0.260025
vt 0.739975 0.02005
vt 0.97995 0.260025
vt 0.97995 0.02005
vt 0.739975 0.260025
vt 0.739975 0.5
vt 0.97995 0.5
vt 0.97995 0.739975
vt 0.5 0.260025
vt 0.5 0.02005
vt 0.260025 0.02005
vt 0.260025 0.260025
vt 0.5 0.260025
vt 0.260025 0.5
vt 0.02005 0.260025
vt 0.02005 0.02005
vt 0.02005 0.5
vt 0.02005 0.739975
vt 0.5 0.5
vt 0.5 0.739975
vt 0.260025 0.739975
vt 0.260025 0.97995
vt 0.02005 0.97995
vt 0.5 0.97995
vt 0.739975 0.97995
vt 0.739975 0.739975
vt 0.97995 0.97995
vt 0.02005 0.210322
vt 0.260025 0.02005
vt 0.02005 0.02005
vt 0.260025 0.210322
vt 0.260025 0.477351
vt 0.5 0.210322
vt 0.02005 0.477351
vt 0.5 0.02005
vt 0.02005 0.7896
vt 0.739975 0.02005
vt 0.260025 0.7896
vt 0.5 0.7896
vt 0.260025 0.97995
vt 0.02005 0.97995
vt 0.5 0.97995
vt 0.739975 0.97995
vt 0.5 0.477351
vt 0.739975 0.477351
vt 0.739975 0.210322
vt 0.97995 0.210322
vt 0.97995 0.02005
vt 0.97995 0.477351
vt 0.97995 0.7896
vt 0.97995 0.97995
vt 0.739975 0.7896
vn 0.8233988 0.29375595 -0.4855119
vn 0.68111163 0.7232676 -0.11388995
vn 0.6861429 0.60458493 -0.40457994
vn 0.9348775 0.33816722 -0.10792106
vn 0.99065876 0.003715999 -0.13631397
vn 0.90435237 0.35727715 0.23345211
vn 0.8606765 -0.03302798 -0.50807977
vn 0.6335319 0.75623494 0.16354199
vn 0.78749603 -0.40073803 -0.46825102
vn 0.5408808 0.72326773 0.42933887
vn 0.9180799 -0.377916 -0.11961899
vn 0.9032157 -0.3619119 0.23069693
vn 0.759121 -0.640629 -0.11545501
vn 0.664168 -0.631853 -0.399553
vn 0.73751193 -0.65049493 0.18147299
vn 0.60476613 -0.65995914 0.4457711
vn 0.96779275 0.029692993 0.24999094
vn 0.8010505 0.003539002 0.5985864
vn 0.76582825 0.3381671 0.54694617
vn 0.48551175 0.29375684 0.8233986
vn 0.40457994 0.60458493 0.6861429
vn 0.50796413 -0.03220001 0.8607762
vn 0.46798903 -0.39892802 0.78857005
vn 0.38284805 -0.66753906 0.6386071
vn 0.7492351 -0.37716505 0.54442006
vn -0.8233988 0.29375595 0.4855119
vn -0.68111163 0.7232676 0.11388995
vn -0.6861429 0.60458493 0.40457994
vn -0.9348775 0.33816722 0.10792106
vn -0.9906753 0.0036140012 0.13619703
vn -0.90435237 0.35727715 -0.23345211
vn -0.8610451 -0.032264005 0.50750405
vn -0.6335319 0.75623494 -0.16354199
vn -0.79077524 -0.3991571 0.4640561
vn -0.5408808 0.72326773 -0.42933887
vn -0.91879153 -0.3777182 0.11467807
vn -0.90209377 -0.3625639 -0.23403895
vn -0.7504819 -0.6536459 0.09759098
vn -0.6485171 -0.66266006 0.37457606
vn -0.738844 -0.643742 -0.199263
vn -0.61320597 -0.63446295 -0.47056895
vn -0.9678872 0.029878007 -0.24960306
vn -0.80101347 0.0037339975 -0.5986346
vn -0.76582825 0.3381671 -0.54694617
vn -0.48551175 0.29375684 -0.8233986
vn -0.40457994 0.60458493 -0.6861429
vn -0.507481 -0.033203997 -0.86102295
vn -0.4640581 -0.40100005 -0.7898411
vn -0.39136985 -0.62718076 -0.67340475
vn -0.74620014 -0.37839907 -0.5477221
vn 0.68111163 0.7232676 -0.11388995
vn 0.42933887 0.72326773 -0.5408808
vn 0.6861429 0.60458493 -0.40457994
vn 0.31190598 0.93214285 -0.18391398
vn 0.23674306 0.9696483 0.061114017
vn 0.061114017 0.9696483 -0.23674306
vn 0.6335319 0.75623494 0.16354199
vn 0.16354199 0.75623494 -0.6335319
vn 0.5408808 0.72326773 0.42933887
vn -0.11388995 0.7232676 -0.68111163
vn 0.18391398 0.93214285 0.31190598
vn -0.061114017 0.9696483 0.23674306
vn 0.11388995 0.7232676 0.68111163
vn 0.40457994 0.60458493 0.6861429
vn -0.16354199 0.75623494 0.6335319
vn -0.42933887 0.72326773 0.5408808
vn -0 1 0
vn -0.23674306 0.9696483 -0.061114017
vn -0.18391398 0.93214285 -0.31190598
vn -0.5408808 0.72326773 -0.42933887
vn -0.40457994 0.60458493 -0.6861429
vn -0.6335319 0.75623494 -0.16354199
vn -0.68111163 0.7232676 0.11388995
vn -0.6861429 0.60458493 0.40457994
vn -0.31190598 0.93214285 0.18391398
vn 0.10575001 -0.6720161 0.73294705
vn 0.46798903 -0.39892802 0.78857005
vn 0.38284805 -0.66753906 0.6386071
vn 0.117849045 -0.37591118 0.9191314
vn 0.136344 0.0033349998 0.99065596
vn 0.50796413 -0.03220001 0.8607762
vn 0.48551175 0.29375684 0.8233986
vn -0.18571404 -0.6726591 0.7162681
vn -0.185938 -0.672658 0.716211
vn -0.45022207 -0.66935813 0.59098214
vn -0.54746985 -0.3759459 0.74762386
vn -0.24475297 -0.18269397 0.9522179
vn -0.598664 0.0033929998 0.800993
vn -0.79077524 -0.3991571 0.4640561
vn -0.6485171 -0.66266006 0.37457606
vn -0.8610451 -0.032264005 0.50750405
vn -0.8233988 0.29375595 0.4855119
vn -0.24975689 0.028951988 0.9678756
vn -0.23345211 0.35727715 0.90435237
vn -0.54694617 0.3381671 0.76582825
vn -0.42933887 0.72326773 0.5408808
vn -0.6861429 0.60458493 0.40457994
vn -0.16354199 0.75623494 0.6335319
vn 0.11388995 0.7232676 0.68111163
vn 0.10792106 0.33816722 0.9348775
vn 0.40457994 0.60458493 0.6861429
vn 0.78749603 -0.40073803 -0.46825102
vn 0.46581507 -0.62545204 -0.62596005
vn 0.664168 -0.631853 -0.399553
vn 0.544436 -0.37972796 -0.74792796
vn 0.59846 0.0037210002 -0.80114406
vn 0.23184995 -0.36478695 -0.90176284
vn 0.8606765 -0.03302798 -0.50807977
vn 0.19441998 -0.622337 -0.75822
vn 0.8233988 0.29375595 -0.4855119
vn -0.107263006 -0.6229411 -0.77488005
vn 0.54694617 0.3381671 -0.76582825
vn 0.23345211 0.35727715 -0.90435237
vn 0.42933887 0.72326773 -0.5408808
vn 0.6861429 0.60458493 -0.40457994
vn 0.16354199 0.75623494 -0.6335319
vn -0.11388995 0.7232676 -0.68111163
vn 0.24981087 0.030327985 -0.9678196
vn -0.13609205 0.0037000012 -0.9906893
vn -0.116298996 -0.379887 -0.917693
vn -0.4640581 -0.40100005 -0.7898411
vn -0.39136985 -0.62718076 -0.67340475
vn -0.507481 -0.033203997 -0.86102295
vn -0.48551175 0.29375684 -0.8233986
vn -0.40457994 0.60458493 -0.6861429
vn -0.10792106 0.33816722 -0.9348775
g textureEditorIsolateSelectSet_BushFlower_0
f 3/3/3 2/2/2 1/1/1
f 2/2/2 4/4/4 1/1/1
f 1/1/1 4/4/4 5/5/5
f 6/6/6 4/4/4 2/2/2
f 5/5/5 4/4/4 6/6/6
f 7/7/7 1/1/1 5/5/5
f 8/8/8 6/6/6 2/2/2
f 7/7/7 5/5/5 9/9/9
f 8/8/8 10/10/10 6/6/6
f 5/5/5 11/11/11 9/9/9
f 12/12/12 11/11/11 5/5/5
f 9/9/9 11/11/11 13/13/13
f 13/13/13 11/11/11 12/12/12
f 14/14/14 9/9/9 13/13/13
f 15/15/15 13/13/13 12/12/12
f 15/15/15 12/12/12 16/16/16
f 17/17/17 5/5/5 6/6/6
f 17/17/17 12/12/12 5/5/5
f 17/17/17 6/6/6 18/18/18
f 17/17/17 18/18/18 12/12/12
f 10/10/10 19/19/19 6/6/6
f 6/6/6 19/19/19 18/18/18
f 20/20/20 19/19/19 10/10/10
f 18/18/18 19/19/19 20/20/20
f 21/21/21 20/20/20 10/10/10
f 22/22/22 18/18/18 20/20/20
f 22/22/22 23/23/23 18/18/18
f 24/24/24 16/16/16 23/23/23
f 12/12/12 25/25/25 16/16/16
f 18/18/18 25/25/25 12/12/12
f 23/23/23 25/25/25 18/18/18
f 16/16/16 25/25/25 23/23/23
f 28/28/28 27/27/27 26/26/26
f 27/27/27 29/29/29 26/26/26
f 26/26/26 29/29/29 30/30/30
f 31/31/31 29/29/29 27/27/27
f 30/30/30 29/29/29 31/31/31
f 32/32/32 26/26/26 30/30/30
f 33/33/33 31/31/31 27/27/27
f 32/32/32 30/30/30 34/34/34
f 33/33/33 35/35/35 31/31/31
f 30/30/30 36/36/36 34/34/34
f 37/37/37 36/36/36 30/30/30
f 34/34/34 36/36/36 38/38/38
f 38/38/38 36/36/36 37/37/37
f 39/39/39 34/34/34 38/38/38
f 40/40/40 38/38/38 37/37/37
f 40/40/40 37/37/37 41/41/41
f 42/42/42 30/30/30 31/31/31
f 42/42/42 37/37/37 30/30/30
f 42/42/42 31/31/31 43/43/43
f 42/42/42 43/43/43 37/37/37
f 35/35/35 44/44/44 31/31/31
f 31/31/31 44/44/44 43/43/43
f 45/45/45 44/44/44 35/35/35
f 43/43/43 44/44/44 45/45/45
f 46/46/46 45/45/45 35/35/35
f 47/47/47 43/43/43 45/45/45
f 47/47/47 48/48/48 43/43/43
f 49/49/49 41/41/41 48/48/48
f 37/37/37 50/50/50 41/41/41
f 43/43/43 50/50/50 37/37/37
f 48/48/48 50/50/50 43/43/43
f 41/41/41 50/50/50 48/48/48
f 53/53/53 52/52/52 51/51/51
f 52/52/52 54/54/54 51/51/51
f 51/51/51 54/54/54 55/55/55
f 56/56/56 54/54/54 52/52/52
f 55/55/55 54/54/54 56/56/56
f 57/57/57 51/51/51 55/55/55
f 58/58/58 56/56/56 52/52/52
f 57/57/57 55/55/55 59/59/59
f 58/58/58 60/60/60 56/56/56
f 55/55/55 61/61/61 59/59/59
f 62/62/62 61/61/61 55/55/55
f 59/59/59 61/61/61 63/63/63
f 63/63/63 61/61/61 62/62/62
f 64/64/64 59/59/59 63/63/63
f 65/65/65 63/63/63 62/62/62
f 65/65/65 62/62/62 66/66/66
f 67/67/67 55/55/55 56/56/56
f 67/67/67 62/62/62 55/55/55
f 67/67/67 56/56/56 68/68/68
f 67/67/67 68/68/68 62/62/62
f 60/60/60 69/69/69 56/56/56
f 56/56/56 69/69/69 68/68/68
f 70/70/70 69/69/69 60/60/60
f 68/68/68 69/69/69 70/70/70
f 71/71/71 70/70/70 60/60/60
f 72/72/72 68/68/68 70/70/70
f 72/72/72 73/73/73 68/68/68
f 74/74/74 66/66/66 73/73/73
f 62/62/62 75/75/75 66/66/66
f 68/68/68 75/75/75 62/62/62
f 73/73/73 75/75/75 68/68/68
f 66/66/66 75/75/75 73/73/73
f 78/78/78 77/77/77 76/76/76
f 77/77/77 79/79/79 76/76/76
f 80/80/80 79/79/79 77/77/77
f 81/81/81 80/80/80 77/77/77
f 81/81/81 82/82/82 80/80/80
f 76/76/76 79/79/79 83/83/83
f 84/84/84 76/76/76 83/83/83
f 84/84/84 83/83/83 85/85/85
f 83/83/83 86/86/86 85/85/85
f 87/87/87 79/79/79 80/80/80
f 88/88/88 86/86/86 87/87/87
f 85/85/85 86/86/86 89/89/89
f 89/89/89 86/86/86 88/88/88
f 90/90/90 85/85/85 89/89/89
f 91/91/91 89/89/89 88/88/88
f 91/91/91 88/88/88 92/92/92
f 93/93/93 87/87/87 80/80/80
f 93/93/93 88/88/88 87/87/87
f 93/93/93 80/80/80 94/94/94
f 93/93/93 94/94/94 88/88/88
f 88/88/88 95/95/95 92/92/92
f 94/94/94 95/95/95 88/88/88
f 92/92/92 95/95/95 96/96/96
f 96/96/96 95/95/95 94/94/94
f 97/97/97 92/92/92 96/96/96
f 98/98/98 96/96/96 94/94/94
f 98/98/98 94/94/94 99/99/99
f 80/80/80 100/100/100 94/94/94
f 94/94/94 100/100/100 99/99/99
f 82/82/82 100/100/100 80/80/80
f 99/99/99 100/100/100 82/82/82
f 101/101/101 99/99/99 82/82/82
f 104/104/104 103/103/103 102/102/102
f 103/103/103 105/105/105 102/102/102
f 102/102/102 105/105/105 106/106/106
f 107/107/107 105/105/105 103/103/103
f 106/106/106 105/105/105 107/107/107
f 108/108/108 102/102/102 106/106/106
f 109/109/109 107/107/107 103/103/103
f 108/108/108 106/106/106 110/110/110
f 109/109/109 111/111/111 107/107/107
f 106/106/106 112/112/112 110/110/110
f 113/113/113 112/112/112 106/106/106
f 110/110/110 112/112/112 114/114/114
f 114/114/114 112/112/112 113/113/113
f 115/115/115 110/110/110 114/114/114
f 116/116/116 114/114/114 113/113/113
f 116/116/116 113/113/113 117/117/117
f 118/118/118 106/106/106 107/107/107
f 118/118/118 113/113/113 106/106/106
f 118/118/118 107/107/107 119/119/119
f 118/118/118 119/119/119 113/113/113
f 111/111/111 120/120/120 107/107/107
f 107/107/107 120/120/120 119/119/119
f 121/121/121 120/120/120 111/111/111
f 119/119/119 120/120/120 121/121/121
f 122/122/122 121/121/121 111/111/111
f 123/123/123 119/119/119 121/121/121
f 123/123/123 124/124/124 119/119/119
f 125/125/125 117/117/117 124/124/124
f 113/113/113 126/126/126 117/117/117
f 119/119/119 126/126/126 113/113/113
f 124/124/124 126/126/126 119/119/119
f 117/117/117 126/126/126 124/124/124
