g treeTraditionalPineTrunkGeo
v -0.14884216 -0.00111326 -0.15766415
v -0.28616577 -0.37285206 -0.28677762
v 0.052390747 -0.37285206 -0.41744143
v 0.04173645 -0.00111326 -0.23121674
v -0.098053284 0.37518445 -0.10991179
v 0.36811644 -0.37285206 -0.28559664
v 0.03779602 0.37518445 -0.16234194
v 0.0110302735 9.568617 -0.0073497896
v 0.029332275 9.568617 -0.01441331
v 0.21946289 -0.00111326 -0.15699932
v 0.5197949 -0.37285206 -0.012860959
v 0.16448364 0.37518445 -0.109437875
v 0.046400145 9.568617 -0.0072858897
v 0.30484498 -0.00111326 -0.00347236
v 0.32795653 -0.35907885 0.33133563
v 0.22534606 0.37518445 0
v 0.05459961 9.568617 0.0074578896
v 0.19685669 0.0066399 0.19028102
v 0.052390747 -0.37285206 0.4346796
v 0.14836913 0.38071114 0.13811229
v 0.044229124 9.569362 0.026064789
v 0.04173645 -0.00111326 0.24845491
v -0.2684616 -0.36875406 0.31678706
v 0.03779602 0.37518445 0.17958008
v 0.029332275 9.568617 0.03165147
v -0.13887633 0.00119355 0.18209137
v -0.46376523 -0.37285206 -0.012860959
v -0.090949096 0.37682876 0.13227448
v 0.011987304 9.568835 0.02527832
v -0.24881561 -0.00111326 -0.00347236
v -0.28616577 -0.37285206 -0.28677762
v -0.14884216 -0.00111326 -0.15766415
v -0.169317 0.37518445 0
v 0.0014294434 9.568617 0.0074578896
v -0.098053284 0.37518445 -0.10991179
v 0.0110302735 9.568617 -0.0073497896
vt 1.3954996 -0.25741148
vt 1.7732612 -0.5350313
vt 1.457611 -0.7779846
vt 1.1974553 -0.38221836
vt 1.1772856 0.032650113
vt 1.1534513 -0.91797686
vt 1.0129975 0.004594803
vt 0.6568473 10.471788
vt 0.63439286 10.470835
vt 0.9860958 -0.4566188
vt 0.876248 -1.0075378
vt 0.85607934 -0.015408993
vt 0.6132524 10.470178
vt 0.7847573 -0.50044346
vt 0.5147596 -0.9799733
vt 0.7119194 -0.027765274
vt 0.5939888 10.469794
vt 0.52234405 -0.5042772
vt 0.24466345 -0.97806835
vt 0.5290644 -0.024456501
vt 0.5696848 10.470618
vt 0.3269506 -0.4911561
vt -0.06270609 -0.8963542
vt 0.3924979 -0.026078224
vt 0.5515254 10.469962
vt 0.1044639 -0.4522419
vt -0.42879328 -0.7800927
vt 0.23457256 -0.011648655
vt 0.5304317 10.470685
vt -0.13547656 -0.37337875
vt -0.67020947 -0.53518105
vt -0.30715218 -0.2533412
vt 0.0589725 0.008586407
vt 0.50678045 10.471222
vt -0.08901249 0.03592831
vt 0.4866257 10.472288
vn -0.5712968 0.36143246 -0.73687625
vn -0.5605013 0.44879282 -0.6960052
vn 0.006312226 0.44803286 -0.8939948
vn -0.00024619407 0.36292145 -0.9318197
vn -0.61663896 0.029885748 -0.7866786
vn 0.5889347 0.46433446 -0.66147524
vn 0.0018087339 0.029967714 -0.9995492
vn -0.6164908 0.01609688 -0.7871975
vn 0.0016395055 0.016090088 -0.9998692
vn 0.60258836 0.3758218 -0.7040207
vn 0.86559427 0.49968994 0.032506745
vn 0.65415645 0.031248964 -0.7557135
vn 0.65403384 0.016803952 -0.75627863
vn 0.90863657 0.41416028 0.053394683
vn 0.6139011 0.46585387 0.6372642
vn 0.9976421 0.03511825 0.058965474
vn 0.9973242 0.01846557 0.07073394
vn 0.64027315 0.37427926 0.67079455
vn -0.027406028 0.44710085 0.8940636
vn 0.6904723 0.030339913 0.7227223
vn 0.69239384 0.016643237 0.7213277
vn -0.030135358 0.36362487 0.9310579
vn -0.58995956 0.45059678 0.6700077
vn -0.028345214 0.030323295 0.9991381
vn -0.02081651 0.016065955 0.9996543
vn -0.6082021 0.36304587 0.70589507
vn -0.8657611 0.50020766 0.01580975
vn -0.6547226 0.029800022 0.7552816
vn -0.6549379 0.016128542 0.7555105
vn -0.9094014 0.41512305 0.025728188
vn -0.5605013 0.44879282 -0.6960052
vn -0.5712968 0.36143246 -0.73687625
vn -0.9990128 0.035045482 0.02729583
vn -0.99933594 0.01853487 0.031369187
vn -0.61663896 0.029885748 -0.7866786
vn -0.6164908 0.01609688 -0.7871975
g treeTraditionalPineTrunkGeo_0
f 3/3/3 2/2/2 1/1/1
f 4/4/4 3/3/3 1/1/1
f 1/1/1 5/5/5 4/4/4
f 6/6/6 3/3/3 4/4/4
f 5/5/5 7/7/7 4/4/4
f 5/5/5 8/8/8 7/7/7
f 8/8/8 9/9/9 7/7/7
f 10/10/10 6/6/6 4/4/4
f 4/4/4 7/7/7 10/10/10
f 11/11/11 6/6/6 10/10/10
f 7/7/7 9/9/9 12/12/12
f 7/7/7 12/12/12 10/10/10
f 9/9/9 13/13/13 12/12/12
f 14/14/14 11/11/11 10/10/10
f 10/10/10 12/12/12 14/14/14
f 15/15/15 11/11/11 14/14/14
f 12/12/12 13/13/13 16/16/16
f 12/12/12 16/16/16 14/14/14
f 13/13/13 17/17/17 16/16/16
f 18/18/18 15/15/15 14/14/14
f 14/14/14 16/16/16 18/18/18
f 19/19/19 15/15/15 18/18/18
f 16/16/16 17/17/17 20/20/20
f 16/16/16 20/20/20 18/18/18
f 17/17/17 21/21/21 20/20/20
f 22/22/22 19/19/19 18/18/18
f 18/18/18 20/20/20 22/22/22
f 23/23/23 19/19/19 22/22/22
f 20/20/20 21/21/21 24/24/24
f 20/20/20 24/24/24 22/22/22
f 21/21/21 25/25/25 24/24/24
f 26/26/26 23/23/23 22/22/22
f 22/22/22 24/24/24 26/26/26
f 27/27/27 23/23/23 26/26/26
f 24/24/24 25/25/25 28/28/28
f 24/24/24 28/28/28 26/26/26
f 25/25/25 29/29/29 28/28/28
f 30/30/30 27/27/27 26/26/26
f 26/26/26 28/28/28 30/30/30
f 31/31/31 27/27/27 30/30/30
f 32/32/32 31/31/31 30/30/30
f 28/28/28 29/29/29 33/33/33
f 28/28/28 33/33/33 30/30/30
f 30/30/30 33/33/33 32/32/32
f 29/29/29 34/34/34 33/33/33
f 33/33/33 35/35/35 32/32/32
f 33/33/33 34/34/34 35/35/35
f 34/34/34 36/36/36 35/35/35
