g trunk_geo
v 0.096717075 -0.024452776 -0.01746203
v 0.044386372 -0.02457261 0.08644037
v 0.002561763 0.43757534 0.07837106
v 0.044306487 0.436337 0.02508162
v 0.014106467 -0.02429299 -0.09935358
v 0.0043194294 0.4364968 -0.06483929
v -0.08931656 -0.02429299 -0.046064153
v -0.060434803 0.43653673 -0.043827116
v -0.063151225 -0.021336898 0.057358876
v -0.052964702 0.4366166 0.03319089
v -0.041939303 1.0204434 0.04317768
v -0.040301487 1.0224408 -0.019898802
v -0.041180298 1.2967176 0.029915228
v 0.017302245 1.020004 -0.038354367
v -0.040261522 1.2967975 -0.026609913
v -0.036626354 1.4344152 0.032671586
v -0.035427943 1.4370118 -0.023533985
v 0.014186367 1.2970771 -0.0475422
v 0.017262295 1.4350544 -0.040990874
v 0.053973675 1.0200839 0.012018934
v 0.002561763 0.43757534 0.07837106
v 0.048101455 1.2966377 0.0008736849
v 0.050058857 1.4342954 0.0044289827
v 0.017342195 1.0201638 0.062432155
v 0.013986632 1.2965977 0.047811523
v 0.016902775 1.4342155 0.050048575
v -0.041180298 1.2967176 0.029915228
v -0.036626354 1.4344152 0.032671586
v -0.041939303 1.0204434 0.04317768
v -0.052964702 0.4366166 0.03319089
v 0.044386372 -0.02457261 0.08644037
v -0.063151225 -0.021336898 0.057358876
v -0.036626354 1.4344152 0.032671586
v -0.017252013 2.372493 0.031632945
v 0.028008059 2.3703756 0.04589407
v 0.016902775 1.4342155 0.050048575
v 0.056130826 2.3705754 0.00698559
v 0.050058857 1.4342954 0.0044289827
v 0.028607264 2.3733718 -0.030884251
v 0.017262295 1.4350544 -0.040990874
v -0.015813902 2.377686 -0.014386103
v -0.035427943 1.4370118 -0.023533985
v -0.017252013 2.372493 0.031632945
v -0.036626354 1.4344152 0.032671586
v 0.16658455 1.6526062 0.19134144
v 0.16071233 1.9107044 0.19281949
v 0.1416975 1.9228485 0.19505654
v 0.14613163 1.6669873 0.1934187
v 0.1528827 1.5030444 0.16845177
v 0.13211021 1.9147792 0.21530972
v 0.12923402 1.5121124 0.16973008
v 0.13454697 1.6599965 0.21371181
v 0.1452528 1.8978016 0.22529648
v 0.14788932 1.6408219 0.22457744
v 0.16314909 1.8947256 0.21163459
v 0.11697025 1.5056409 0.19249992
v 0.16794275 1.6355889 0.21107532
v 0.16071233 1.9107044 0.19281949
v 0.16658455 1.6526062 0.19134144
v 0.13223004 1.4826314 0.20412453
v 0.1540811 1.4740827 0.18866499
v 0.1528827 1.5030444 0.16845177
v 0.11637104 1.3468912 0.11584143
v 0.12000623 1.321285 0.13984965
v 0.019299597 1.1244258 -0.017222345
v 0.029526055 1.087994 0.014975026
v 0.0942803 1.3259588 0.15794568
v -0.002151996 1.0923482 0.043057814
v 0.07438664 1.3529232 0.14484303
v -0.032192215 1.1322954 0.028157547
v 0.08780886 1.3646276 0.117838785
v 0.1528827 1.5030444 0.16845177
v -0.019968405 1.1492728 -0.012668371
v 0.11637104 1.3468912 0.11584143
v 0.019299597 1.1244258 -0.017222345
v 0.1706192 1.88394 -0.18667793
v 0.20637186 2.2257273 -0.17832899
v 0.21783668 2.2344756 -0.16079222
v 0.1824835 1.8946457 -0.16814248
v 0.23892874 2.2234504 -0.1616311
v 0.12495967 1.6593174 -0.16079222
v 0.20401499 1.8847787 -0.16678429
v 0.240247 2.207991 -0.1796073
v 0.13782263 1.6665878 -0.13862157
v 0.2058126 1.8674817 -0.18476048
v 0.22019355 2.2089496 -0.19027318
v 0.086410716 1.5051216 -0.085172355
v 0.06955305 1.4907407 -0.11141761
v 0.16250995 1.656601 -0.13798243
v 0.18531974 1.8663232 -0.19754355
v 0.20637186 2.2257273 -0.17832899
v 0.1706192 1.88394 -0.18667793
v -0.014295921 1.291884 0.03946258
v -0.037824765 1.2740276 0.0033104569
v 0.025211766 1.2700329 0.031233475
v 0.114853054 1.489023 -0.08593136
v 0.020937428 1.2343602 -0.006516531
v 0.11457342 1.4638962 -0.11249618
v -0.017931089 1.2373163 -0.023613885
v 0.16342872 1.6341907 -0.15907449
v 0.13946047 1.630915 -0.17309593
v 0.12495967 1.6593174 -0.16079222
v 0.08661045 1.4644954 -0.12835518
v -0.037824765 1.2740276 0.0033104569
v 0.06955305 1.4907407 -0.11141761
v 0.12495967 1.6593174 -0.16079222
v -0.007864431 1.4252274 -0.032921553
v 0.012588486 1.4718856 -0.03515859
v -0.042258874 1.610502 -0.072668925
v -0.069982156 1.5830184 -0.086410716
v -0.03327079 1.4183965 0.01333718
v -0.12179355 1.7458827 -0.12499962
v -0.09602769 1.7620213 -0.11185703
v -0.09678666 1.5769066 -0.058208063
v -0.016213372 1.4517922 0.036386654
v -0.19094197 1.8920493 -0.18651815
v -0.1714478 1.9119828 -0.1809655
v -0.21095549 1.8930478 -0.16642475
v -0.14364462 1.7418082 -0.10366787
v -0.20408459 1.9105048 -0.15024617
v -0.13225968 1.7537524 -0.08125755
v -0.17927743 1.9211307 -0.16091207
v -0.08652027 1.5975592 -0.032841668
v 0.010231599 1.4851081 0.0027112514
v -0.10233931 1.7662158 -0.08840808
v -0.1714478 1.9119828 -0.1809655
v -0.09602769 1.7620213 -0.11185703
v -0.053044602 1.6175327 -0.044226587
v 0.012588486 1.4718856 -0.03515859
v -0.042258874 1.610502 -0.072668925
v -0.02612026 0.9782194 -0.018940076
v -0.016173437 1.0007895 -0.018500656
v -0.03954248 1.0678207 -0.040511504
v -0.05176629 1.0545183 -0.04918003
v -0.041699633 0.9749038 0.0012332052
v -0.07541497 1.1379279 -0.06843452
v -0.0676253 1.1432807 -0.06280199
v -0.0901954 1.1594993 -0.06571813
v -0.06670649 1.0515623 -0.03771521
v -0.035308078 0.9910823 0.013536915
v -0.08368401 1.1365696 -0.0625623
v -0.063710466 1.0615491 -0.024812296
v -0.020128176 1.007181 -0.0005644113
v -0.081087455 1.1405244 -0.05461283
v -0.07090096 1.144679 -0.05541177
v -0.0676253 1.1432807 -0.06280199
v -0.046852812 1.0712162 -0.027768388
v -0.016173437 1.0007895 -0.018500656
v -0.03954248 1.0678207 -0.040511504
vt 0.42021415 -0.116214
vt 0.32341105 -0.116214
vt 0.32394588 0.23195621
vt 0.42021415 0.23195621
vt 0.5164824 -0.116214
vt 0.5164824 0.23195621
vt 0.6122159 -0.116214
vt 0.6122159 0.23195621
vt 0.70901895 -0.116214
vt 0.70901895 0.23195621
vt 0.70901895 0.6555366
vt 0.6122159 0.6560714
vt 0.70901895 0.87214017
vt 0.5164824 0.65500176
vt 0.6122159 0.87214017
vt 0.70901895 0.97857004
vt 0.6122159 0.97857004
vt 0.5164824 0.87214017
vt 0.5164824 0.97857004
vt 0.42021415 0.65500176
vt 0.335712 0.23195621
vt 0.42021415 0.87214017
vt 0.42021415 0.97857004
vt 0.32394588 0.65500176
vt 0.32394588 0.87214017
vt 0.32394588 0.97857004
vt 0.25281432 0.87214017
vt 0.25281432 0.97857004
vt 0.25281432 0.6555366
vt 0.2522795 0.23195621
vt 0.32341105 -0.116214
vt 0.2522795 -0.116214
vt 0.25281432 0.18168277
vt 0.25120986 0.56889516
vt 0.32287621 0.56889516
vt 0.33410752 0.18168277
vt 0.42074898 0.56889516
vt 0.43893299 0.18168277
vt 0.5180869 0.56889516
vt 0.52824855 0.18168277
vt 0.61489 0.56889516
vt 0.6132855 0.1800783
vt 0.7122279 0.56889516
vt 0.7100886 0.1822176
vt 0.010004379 0.43037578
vt 0.008934744 0.56889516
vt 0.15119782 0.56889516
vt 0.15280229 0.43037578
vt 0.010004379 0.3998908
vt 0.35015222 0.56889516
vt 0.15333712 0.39828637
vt 0.35015222 0.43037578
vt 0.54054946 0.56889516
vt 0.5362709 0.43037578
vt 0.7309467 0.56889516
vt 0.35015222 0.39828637
vt 0.73255116 0.43037578
vt 0.9282966 0.56889516
vt 0.9293663 0.43037578
vt 0.5362709 0.39828637
vt 0.73255116 0.39775154
vt 0.9293663 0.3998908
vt 0.9293663 0.335712
vt 0.73255116 0.33464235
vt 0.9293663 0.17900866
vt 0.73255116 0.17900866
vt 0.5362709 0.3335727
vt 0.5362709 0.17900866
vt 0.35015222 0.3335727
vt 0.35015222 0.17900866
vt 0.15333712 0.33410752
vt 0.15333712 0.381172
vt 0.15333712 0.17900866
vt 0.010004379 0.335712
vt 0.010004379 0.17900866
vt 0.010004379 0.43037578
vt 0.008934744 0.56889516
vt 0.15119782 0.56889516
vt 0.15280229 0.43037578
vt 0.35015222 0.56889516
vt 0.010004379 0.39561227
vt 0.35015222 0.43037578
vt 0.54054946 0.56889516
vt 0.15333712 0.39507744
vt 0.5362709 0.43037578
vt 0.7309467 0.56889516
vt 0.15333712 0.33036375
vt 0.010004379 0.33036375
vt 0.35015222 0.39507744
vt 0.73255116 0.43037578
vt 0.9282966 0.56889516
vt 0.9293663 0.43037578
vt 0.15333712 0.17900866
vt 0.010004379 0.17900866
vt 0.35015222 0.17900866
vt 0.35015222 0.32929412
vt 0.5362709 0.17900866
vt 0.5362709 0.32929412
vt 0.73255116 0.17900866
vt 0.5362709 0.3945426
vt 0.73255116 0.3945426
vt 0.9293663 0.39561227
vt 0.73255116 0.32982892
vt 0.9293663 0.17900866
vt 0.9293663 0.33036375
vt 0.9293663 0.381172
vt 0.15761572 0.15494159
vt 0.008934744 0.15494159
vt 0.008934744 0.26725456
vt 0.15761572 0.26725456
vt 0.35015222 0.15494159
vt 0.15815052 0.3833113
vt 0.008934744 0.38384613
vt 0.35015222 0.26725456
vt 0.5400147 0.15494159
vt 0.15761572 0.51434314
vt 0.008934744 0.51434314
vt 0.35015222 0.51434314
vt 0.35015222 0.38384613
vt 0.5400147 0.51434314
vt 0.5400147 0.38384613
vt 0.7400387 0.51434314
vt 0.5400147 0.26725456
vt 0.7400387 0.15494159
vt 0.7400387 0.38384613
vt 0.92990106 0.51434314
vt 0.92990106 0.38384613
vt 0.7400387 0.26725456
vt 0.92990106 0.15494159
vt 0.92990106 0.26725456
vt 0.15761572 0.15494159
vt 0.008934744 0.15494159
vt 0.008934744 0.26725456
vt 0.15761572 0.26725456
vt 0.35015222 0.15494159
vt 0.15815052 0.3833113
vt 0.008934744 0.38384613
vt 0.45444283 0.51434314
vt 0.35015222 0.26725456
vt 0.5400147 0.15494159
vt 0.35015222 0.38384613
vt 0.5400147 0.26725456
vt 0.7400387 0.15494159
vt 0.5400147 0.38384613
vt 0.7400387 0.38384613
vt 0.92990106 0.38384613
vt 0.7400387 0.26725456
vt 0.92990106 0.15494159
vt 0.92990106 0.26725456
vn 0.9072415 0.114357114 -0.40476573
vn 0.64995 0.12949193 0.7488637
vn 0.6045456 0.04625058 0.7952267
vn 0.9299437 0.053817987 -0.36374217
vn 0.49860206 0.0916549 -0.8619718
vn 0.54400647 0.061385393 -0.83683264
vn -0.9770404 0.061385393 -0.20401928
vn -0.9619056 0.053817987 -0.26803213
vn -0.49272704 0.061385393 0.86801606
vn -0.53813136 0.03111577 0.8422864
vn -0.5759684 0.015980959 0.81731576
vn -0.6138054 0.015980959 -0.78929555
vn -0.5911032 0.023548365 0.8062521
vn -0.00084614754 0.008413553 -0.99996424
vn -0.6213728 0.015980959 -0.783352
vn -0.5835358 0.015980959 0.8119302
vn -0.606238 0.04625058 -0.79393727
vn -0.008413553 0.008413553 -0.9999292
vn 0.5969782 0.015980959 -0.8020983
vn 0.9526459 0.00084614754 0.30408075
vn 0.6045456 0.04625058 0.7952267
vn 0.9526459 0.008413553 0.3039655
vn 0.9526459 -0.0067211986 -0.30400765
vn -0.00084614754 0.008413553 0.99996424
vn -0.00084614754 0.015980959 0.9998719
vn -0.00084614754 0.00084614754 0.9999993
vn -0.5911032 0.023548365 0.8062521
vn -0.5835358 0.015980959 0.8119302
vn -0.5759684 0.015980959 0.81731576
vn -0.53813136 0.03111577 0.8422864
vn 0.64995 0.12949193 0.7488637
vn -0.49272704 0.061385393 0.86801606
vn -0.5835358 0.015980959 0.8119302
vn -0.5911032 0.023548365 0.8062521
vn -0.00084614754 0.008413553 0.99996424
vn -0.00084614754 0.00084614754 0.9999993
vn 0.9526459 -0.0067211986 -0.30400765
vn 0.9526459 -0.0067211986 -0.30400765
vn 0.5667086 0.008413553 -0.8238753
vn 0.5969782 0.015980959 -0.8020983
vn -0.5986706 0.038683176 -0.8000607
vn -0.606238 0.04625058 -0.79393727
vn -0.5911032 0.023548365 0.8062521
vn -0.5835358 0.015980959 0.8119302
vn 0.3623889 0.13705933 -0.92189425
vn 0.17320395 0.023548365 -0.9846044
vn -0.31110942 0.19003117 -0.93118155
vn -0.24300289 0.31110942 -0.9187821
vn 0.687787 0.0916549 -0.7201031
vn -0.9316361 0.35651386 -0.070370965
vn -0.50786185 0.29597473 -0.80899644
vn -0.9467709 0.31867683 0.045496788
vn 0.2867149 -0.1580692 0.94488555
vn 0.18077135 -0.29428232 0.9384666
vn 0.77859575 -0.30184972 0.5501594
vn -0.9619056 0.14462674 0.23199292
vn 0.69535434 -0.3548215 0.6249672
vn 0.17320395 0.023548365 -0.9846044
vn 0.3623889 0.13705933 -0.92189425
vn -0.061385393 -0.19590616 0.97869945
vn 0.8921067 -0.24887794 0.3771013
vn 0.687787 0.0916549 -0.7201031
vn 0.66508484 0.15219414 -0.7310944
vn 0.8996741 -0.39265847 0.19080313
vn 0.70292175 0.114357114 -0.70201385
vn 0.8769719 -0.43806285 0.19753797
vn -0.12949193 -0.3472541 0.92878765
vn -0.023548365 -0.43806285 0.89863586
vn -0.9013665 0.20516586 0.38137314
vn -0.86352944 0.16732895 0.47572884
vn -0.45489 0.53813136 -0.7095701
vn 0.687787 0.0916549 -0.7201031
vn -0.3943509 0.606238 -0.69062495
vn 0.66508484 0.15219414 -0.7310944
vn 0.70292175 0.114357114 -0.70201385
vn -0.9619056 0.2657051 0.06433042
vn -0.9543382 0.12192452 0.2727141
vn -0.68947935 0.20516586 0.69464034
vn -0.68947935 0.33381164 0.64279705
vn 0.3548215 0.20516586 0.9121451
vn -0.9316361 0.20516586 -0.29993528
vn 0.45319766 0.15976155 0.8769767
vn 0.71805656 -0.18077135 -0.6720986
vn -0.47759223 0.28840733 0.82989573
vn 0.7331914 -0.3321193 -0.59340304
vn 0.13536698 -0.21860832 -0.9663779
vn -0.37164867 0.51542926 0.77214634
vn -0.9165013 0.30354202 -0.26055261
vn 0.6726522 0.015980959 0.7397862
vn 0.22617573 -0.2867149 -0.93093455
vn -0.9543382 0.12192452 0.2727141
vn -0.9619056 0.2657051 0.06433042
vn -0.37164867 0.5911032 0.7158731
vn -0.9013665 0.28083992 -0.32964745
vn 0.80129796 -0.0067211986 0.59822774
vn 0.7483262 0.038683176 0.66220206
vn 0.763461 -0.49860206 -0.4105159
vn 0.84670234 -0.43806285 -0.30198696
vn -0.2581377 -0.30941713 -0.91521907
vn 0.86940455 -0.2791475 -0.40769157
vn -0.061385393 -0.17320395 -0.98297113
vn -0.9316361 0.20516586 -0.29993528
vn -0.23543549 -0.27158016 -0.9331743
vn -0.9013665 0.28083992 -0.32964745
vn -0.9165013 0.30354202 -0.26055261
vn -0.9316361 0.20516586 -0.29993528
vn -0.46245742 -0.44563025 -0.76651603
vn 0.52887166 -0.044558227 -0.8475313
vn 0.64995 0.038683176 -0.75899184
vn -0.36408126 -0.37752372 -0.8514227
vn -0.9240687 -0.24887794 0.29009798
vn 0.29428232 -0.19590616 -0.9354243
vn 0.69535434 0.038683176 -0.71762526
vn -0.9467709 -0.23374313 0.22133465
vn -0.14462674 0.35651386 0.9230282
vn -0.30354202 -0.48346725 -0.82104915
vn 0.9072415 0.37164867 -0.19695204
vn -0.7954229 -0.49860206 -0.34452635
vn -0.8181251 -0.4229281 -0.38961914
vn -0.114357114 0.36408126 0.92431986
vn -0.6516423 0.04625058 0.75711507
vn 0.32455194 0.52299654 0.78812474
vn -0.10678971 0.32624424 0.9392341
vn 0.38509107 0.50786185 0.770572
vn 0.3321193 0.4473226 0.83042115
vn 0.9072415 0.37164867 -0.19695204
vn 0.69535434 0.038683176 -0.71762526
vn 0.39265847 0.4397552 0.8077343
vn 0.52887166 -0.044558227 -0.8475313
vn 0.64995 0.038683176 -0.75899184
vn -0.46245742 -0.44563025 -0.76651603
vn 0.52887166 -0.044558227 -0.8475313
vn 0.64995 0.038683176 -0.75899184
vn -0.36408126 -0.37752372 -0.8514227
vn -0.9240687 -0.24887794 0.29009798
vn 0.29428232 -0.19590616 -0.9354243
vn 0.69535434 0.038683176 -0.71762526
vn -0.114357114 0.36408126 0.92431986
vn -0.9467709 -0.23374313 0.22133465
vn -0.14462674 0.35651386 0.9230282
vn -0.8181251 -0.4229281 -0.38961914
vn -0.10678971 0.32624424 0.9392341
vn 0.38509107 0.50786185 0.770572
vn -0.6516423 0.04625058 0.75711507
vn 0.3321193 0.4473226 0.83042115
vn 0.69535434 0.038683176 -0.71762526
vn 0.39265847 0.4397552 0.8077343
vn 0.52887166 -0.044558227 -0.8475313
vn 0.64995 0.038683176 -0.75899184
g trunk_geo_0
f 3/3/3 2/2/2 1/1/1
f 4/4/4 3/3/3 1/1/1
f 4/4/4 1/1/1 5/5/5
f 6/6/6 4/4/4 5/5/5
f 6/6/6 5/5/5 7/7/7
f 8/8/8 6/6/6 7/7/7
f 8/8/8 7/7/7 9/9/9
f 10/10/10 8/8/8 9/9/9
f 8/8/8 10/10/10 11/11/11
f 12/12/12 8/8/8 11/11/11
f 6/6/6 8/8/8 12/12/12
f 11/11/11 13/13/13 12/12/12
f 4/4/4 6/6/6 14/14/14
f 14/14/14 6/6/6 12/12/12
f 13/13/13 15/15/15 12/12/12
f 12/12/12 15/15/15 14/14/14
f 13/13/13 16/16/16 15/15/15
f 16/16/16 17/17/17 15/15/15
f 15/15/15 17/17/17 18/18/18
f 15/15/15 18/18/18 14/14/14
f 17/17/17 19/19/19 18/18/18
f 20/20/20 4/4/4 14/14/14
f 14/14/14 18/18/18 20/20/20
f 21/21/21 4/4/4 20/20/20
f 18/18/18 19/19/19 22/22/22
f 18/18/18 22/22/22 20/20/20
f 19/19/19 23/23/23 22/22/22
f 24/24/24 21/21/21 20/20/20
f 20/20/20 22/22/22 24/24/24
f 22/22/22 23/23/23 25/25/25
f 22/22/22 25/25/25 24/24/24
f 23/23/23 26/26/26 25/25/25
f 25/25/25 26/26/26 27/27/27
f 26/26/26 28/28/28 27/27/27
f 25/25/25 27/27/27 29/29/29
f 24/24/24 25/25/25 29/29/29
f 29/29/29 30/30/30 24/24/24
f 30/30/30 21/21/21 24/24/24
f 21/21/21 30/30/30 31/31/31
f 30/30/30 32/32/32 31/31/31
f 35/35/35 34/34/34 33/33/33
f 36/36/36 35/35/35 33/33/33
f 37/37/37 35/35/35 36/36/36
f 38/38/38 37/37/37 36/36/36
f 39/39/39 37/37/37 38/38/38
f 40/40/40 39/39/39 38/38/38
f 41/41/41 39/39/39 40/40/40
f 42/42/42 41/41/41 40/40/40
f 43/43/43 41/41/41 42/42/42
f 44/44/44 43/43/43 42/42/42
f 47/47/47 46/46/46 45/45/45
f 48/48/48 47/47/47 45/45/45
f 48/48/48 45/45/45 49/49/49
f 50/50/50 47/47/47 48/48/48
f 51/51/51 48/48/48 49/49/49
f 52/52/52 50/50/50 48/48/48
f 52/52/52 48/48/48 51/51/51
f 53/53/53 50/50/50 52/52/52
f 54/54/54 53/53/53 52/52/52
f 55/55/55 53/53/53 54/54/54
f 56/56/56 52/52/52 51/51/51
f 54/54/54 52/52/52 56/56/56
f 57/57/57 55/55/55 54/54/54
f 58/58/58 55/55/55 57/57/57
f 59/59/59 58/58/58 57/57/57
f 57/57/57 54/54/54 60/60/60
f 60/60/60 54/54/54 56/56/56
f 59/59/59 57/57/57 61/61/61
f 61/61/61 57/57/57 60/60/60
f 62/62/62 59/59/59 61/61/61
f 63/63/63 62/62/62 61/61/61
f 64/64/64 63/63/63 61/61/61
f 61/61/61 60/60/60 64/64/64
f 63/63/63 64/64/64 65/65/65
f 64/64/64 66/66/66 65/65/65
f 60/60/60 67/67/67 64/64/64
f 64/64/64 67/67/67 66/66/66
f 60/60/60 56/56/56 67/67/67
f 67/67/67 68/68/68 66/66/66
f 56/56/56 69/69/69 67/67/67
f 67/67/67 69/69/69 68/68/68
f 56/56/56 51/51/51 69/69/69
f 69/69/69 70/70/70 68/68/68
f 51/51/51 71/71/71 69/69/69
f 69/69/69 71/71/71 70/70/70
f 51/51/51 72/72/72 71/71/71
f 71/71/71 73/73/73 70/70/70
f 72/72/72 74/74/74 71/71/71
f 71/71/71 74/74/74 73/73/73
f 74/74/74 75/75/75 73/73/73
f 78/78/78 77/77/77 76/76/76
f 79/79/79 78/78/78 76/76/76
f 80/80/80 78/78/78 79/79/79
f 79/79/79 76/76/76 81/81/81
f 82/82/82 80/80/80 79/79/79
f 83/83/83 80/80/80 82/82/82
f 84/84/84 79/79/79 81/81/81
f 82/82/82 79/79/79 84/84/84
f 85/85/85 83/83/83 82/82/82
f 86/86/86 83/83/83 85/85/85
f 84/84/84 81/81/81 87/87/87
f 81/81/81 88/88/88 87/87/87
f 89/89/89 82/82/82 84/84/84
f 85/85/85 82/82/82 89/89/89
f 90/90/90 86/86/86 85/85/85
f 91/91/91 86/86/86 90/90/90
f 92/92/92 91/91/91 90/90/90
f 87/87/87 88/88/88 93/93/93
f 88/88/88 94/94/94 93/93/93
f 87/87/87 93/93/93 95/95/95
f 84/84/84 87/87/87 96/96/96
f 96/96/96 87/87/87 95/95/95
f 89/89/89 84/84/84 96/96/96
f 96/96/96 95/95/95 97/97/97
f 98/98/98 96/96/96 97/97/97
f 89/89/89 96/96/96 98/98/98
f 98/98/98 97/97/97 99/99/99
f 100/100/100 85/85/85 89/89/89
f 90/90/90 85/85/85 100/100/100
f 100/100/100 89/89/89 98/98/98
f 92/92/92 90/90/90 101/101/101
f 101/101/101 90/90/90 100/100/100
f 102/102/102 92/92/92 101/101/101
f 103/103/103 98/98/98 99/99/99
f 100/100/100 98/98/98 103/103/103
f 101/101/101 100/100/100 103/103/103
f 103/103/103 99/99/99 104/104/104
f 105/105/105 103/103/103 104/104/104
f 103/103/103 105/105/105 101/101/101
f 105/105/105 106/106/106 101/101/101
f 109/109/109 108/108/108 107/107/107
f 110/110/110 109/109/109 107/107/107
f 110/110/110 107/107/107 111/111/111
f 110/110/110 112/112/112 109/109/109
f 112/112/112 113/113/113 109/109/109
f 114/114/114 110/110/110 111/111/111
f 114/114/114 111/111/111 115/115/115
f 112/112/112 116/116/116 113/113/113
f 116/116/116 117/117/117 113/113/113
f 118/118/118 116/116/116 112/112/112
f 119/119/119 112/112/112 110/110/110
f 119/119/119 118/118/118 112/112/112
f 114/114/114 119/119/119 110/110/110
f 120/120/120 118/118/118 119/119/119
f 121/121/121 120/120/120 119/119/119
f 121/121/121 119/119/119 114/114/114
f 122/122/122 120/120/120 121/121/121
f 123/123/123 114/114/114 115/115/115
f 123/123/123 121/121/121 114/114/114
f 123/123/123 115/115/115 124/124/124
f 125/125/125 122/122/122 121/121/121
f 125/125/125 121/121/121 123/123/123
f 126/126/126 122/122/122 125/125/125
f 127/127/127 126/126/126 125/125/125
f 128/128/128 123/123/123 124/124/124
f 128/128/128 125/125/125 123/123/123
f 127/127/127 125/125/125 128/128/128
f 128/128/128 124/124/124 129/129/129
f 130/130/130 127/127/127 128/128/128
f 130/130/130 128/128/128 129/129/129
f 133/133/133 132/132/132 131/131/131
f 134/134/134 133/133/133 131/131/131
f 134/134/134 131/131/131 135/135/135
f 134/134/134 136/136/136 133/133/133
f 136/136/136 137/137/137 133/133/133
f 136/136/136 138/138/138 137/137/137
f 139/139/139 134/134/134 135/135/135
f 139/139/139 135/135/135 140/140/140
f 141/141/141 136/136/136 134/134/134
f 141/141/141 138/138/138 136/136/136
f 139/139/139 141/141/141 134/134/134
f 142/142/142 139/139/139 140/140/140
f 142/142/142 140/140/140 143/143/143
f 144/144/144 141/141/141 139/139/139
f 144/144/144 138/138/138 141/141/141
f 142/142/142 144/144/144 139/139/139
f 145/145/145 138/138/138 144/144/144
f 145/145/145 144/144/144 142/142/142
f 146/146/146 138/138/138 145/145/145
f 147/147/147 142/142/142 143/143/143
f 147/147/147 145/145/145 142/142/142
f 146/146/146 145/145/145 147/147/147
f 147/147/147 143/143/143 148/148/148
f 149/149/149 146/146/146 147/147/147
f 149/149/149 147/147/147 148/148/148
