g pm0012_81_ScalesFSkin_rz1
v -0.1415193 0.006020353 8.895879E-19
v -0.1400187 -0.004209599 8.895879E-19
v -0.1309218 -2.220446E-18 8.507292E-19
v -0.1296798 0.007245606 8.895879E-19
v -0.1346351 -0.01485182 8.895879E-19
v -0.1206662 0.006106453 8.895879E-19
v -0.1242624 -0.003122997 8.895879E-19
v -0.1415193 0.006020353 3.499999E-05
v -0.1309218 -2.220446E-18 3.499999E-05
v -0.1400187 -0.004209599 3.499999E-05
v -0.1296798 0.007245606 3.499999E-05
v -0.1346351 -0.01485182 3.499999E-05
v -0.1206662 0.006106453 3.499999E-05
v -0.1242624 -0.003122997 3.499999E-05
vt 0.859539 -0.03085232
vt 0.8750668 -0.03467679
vt 0.8779047 -0.02640748
vt 0.8690963 -0.02211022
vt 0.8948512 -0.03602052
vt 0.8792286 -0.01643872
vt 0.8885357 -0.02330089
vt 0.859539 -0.03085232
vt 0.8779047 -0.02640748
vt 0.8750667 -0.03467679
vt 0.8690962 -0.02211022
vt 0.8948513 -0.03602052
vt 0.8792285 -0.01643872
vt 0.8885357 -0.02330089
vn 0 0 -1
vn 0 0 -1
vn 0 0 -1
vn 0 0 -1
vn 0 0 -1
vn 0 0 -1
vn 0 0 -1
vn 0 0 1
vn 0 0 1
vn 0 0 1
vn 0 0 1
vn 0 0 1
vn 0 0 1
vn 0 0 1
g pm0012_81_ScalesFSkin_rz1_0
f 3/3/3 2/2/2 1/1/1
f 3/3/3 1/1/1 4/4/4
f 5/5/5 2/2/2 3/3/3
f 6/6/6 3/3/3 4/4/4
f 3/3/3 7/7/7 5/5/5
f 7/7/7 3/3/3 6/6/6
f 10/10/10 9/9/9 8/8/8
f 8/8/8 9/9/9 11/11/11
f 10/10/10 12/12/12 9/9/9
f 9/9/9 13/13/13 11/11/11
f 14/14/14 9/9/9 12/12/12
f 9/9/9 14/14/14 13/13/13
