g pm0012_81_ScalesXSkin_rz3
v 0.1280488 -0.08272712 4.454988E-19
v 0.1179046 -0.09964009 4.454644E-19
v 0.1309219 -0.09999999 4.066498E-19
v 0.1395039 -0.08284909 4.455376E-19
v 0.1276213 -0.1175271 4.454974E-19
v 0.1443331 -0.1165917 4.45554E-19
v 0.1280488 -0.08272712 3.499999E-05
v 0.1309219 -0.09999999 3.499999E-05
v 0.1179046 -0.09964009 3.499999E-05
v 0.1395039 -0.08284909 3.499999E-05
v 0.1276213 -0.1175271 3.499999E-05
v 0.1443331 -0.1165917 3.499999E-05
vt 0.9486498 -0.01808214
vt 0.9312272 -0.03210521
vt 0.9530076 -0.03257656
vt 0.9678212 -0.01833415
vt 0.9470245 -0.04720283
vt 0.9750228 -0.04663801
vt 0.9486498 -0.01808214
vt 0.9530075 -0.03257656
vt 0.9312272 -0.03210521
vt 0.9678213 -0.01833415
vt 0.9470245 -0.04720283
vt 0.9750228 -0.04663801
vn 0 0 -1
vn 0 0 -1
vn 0 0 -1
vn 0 0 -1
vn 0 0 -1
vn 0 0 -1
vn 0 0 1
vn 0 0 1
vn 0 0 1
vn 0 0 1
vn 0 0 1
vn 0 0 1
g pm0012_81_ScalesXSkin_rz3_0
f 3/3/3 2/2/2 1/1/1
f 3/3/3 1/1/1 4/4/4
f 5/5/5 2/2/2 3/3/3
f 3/3/3 4/4/4 6/6/6
f 6/6/6 5/5/5 3/3/3
f 9/9/9 8/8/8 7/7/7
f 7/7/7 8/8/8 10/10/10
f 9/9/9 11/11/11 8/8/8
f 10/10/10 8/8/8 12/12/12
f 11/11/11 12/12/12 8/8/8
