g pm0012_81_ScalesJSkin_tx2
v 0.23258722 0.0011960887 4.45065E-19
v 0.20598897 0.006549879 4.45065E-19
v 0.21820314 2.220446E-18 4.062063E-19
v 0.23022892 -0.0076975273 4.45065E-19
v 0.20365763 -0.0006978698 4.45065E-19
v 0.23258722 0.0011960887 3.499999E-05
v 0.21820314 2.220446E-18 3.499999E-05
v 0.20598897 0.006549879 3.499999E-05
v 0.23022892 -0.0076975273 3.499999E-05
v 0.20365763 -0.0006978698 3.499999E-05
vt 0.9578012 -0.09129286
vt 0.9615158 -0.06865859
vt 0.95300746 -0.079451084
vt 0.9425541 -0.09019971
vt 0.9490106 -0.06742716
vt 0.9578013 -0.09129286
vt 0.95300746 -0.079451084
vt 0.9615158 -0.06865859
vt 0.9425541 -0.09019971
vt 0.9490106 -0.06742716
vn -0 0 -1
vn -0 0 -1
vn -0 0 -1
vn -0 0 -1
vn -0 0 -1
vn -0 0 1
vn -0 0 1
vn -0 0 1
vn -0 0 1
vn -0 0 1
g pm0012_81_ScalesJSkin_tx2_0
f 3/3/3 2/2/2 1/1/1
f 1/1/1 4/4/4 3/3/3
f 3/3/3 5/5/5 2/2/2
f 3/3/3 4/4/4 5/5/5
f 8/8/8 7/7/7 6/6/6
f 9/9/9 6/6/6 7/7/7
f 10/10/10 7/7/7 8/8/8
f 9/9/9 7/7/7 10/10/10
