g pm0009_51_ClosedSkin
v 9.317362E-23 0.6619963 -0.4614075
v 9.317362E-23 0.6768567 -0.4643503
v -0.05813398 0.7159407 -0.4543438
v -0.06737921 0.8054861 -0.4347572
v -0.06406216 0.7056316 -0.4500006
v 9.317362E-23 0.7748826 -0.4469194
v -0.1321663 0.7562472 -0.4284874
v 9.317362E-23 0.9108121 -0.4067267
v -0.1259594 0.7663735 -0.4332529
v -0.1908038 0.8021286 -0.3994466
v -0.186242 0.8132944 -0.4031499
v -0.2469489 0.8436803 -0.3602677
v -0.0769373 0.9265307 -0.3943884
v 9.317362E-23 1.021055 -0.355916
v -0.1388154 0.8402197 -0.4120772
v -0.1546248 0.9445701 -0.3719614
v -0.08308678 1.029573 -0.3454379
v -0.08749698 1.118635 -0.284912
v 9.317362E-23 1.117415 -0.2929173
v 9.317362E-23 1.201867 -0.2102976
v -0.1654667 1.035719 -0.3232918
v -0.2255147 0.9566307 -0.3417535
v -0.2406836 0.8541468 -0.3665458
v -0.2750462 0.8965333 -0.3327181
v -0.2664419 0.8996068 -0.3386153
v -0.298945 0.9587588 -0.2960036
v -0.203606 0.8752928 -0.3829252
v -0.2929577 0.96332 -0.3033317
v -0.3135466 1.023368 -0.2448866
v -0.2395991 1.035759 -0.2934033
v -0.3069137 1.02921 -0.2540095
v -0.3232975 1.082624 -0.1958805
v -0.1720684 1.11608 -0.2663605
v -0.3170909 1.088614 -0.2048993
v -0.3294769 1.144051 -0.1303405
v -0.2491605 1.106607 -0.2405129
v -0.08859251 1.198795 -0.2067412
v -0.3234603 1.153014 -0.1372705
v -0.3334806 1.197832 -0.06158039
v -0.1752478 1.191372 -0.1932018
v -0.0894179 1.265347 -0.1262265
v 9.317362E-23 1.268227 -0.1284692
v -0.253865 1.176942 -0.1703663
v -0.325013 1.20714 -0.0695933
v -0.3323179 1.243701 0.01855909
v -0.1758382 1.252191 -0.11617
v -0.08787139 1.313468 -0.02957503
v 9.317362E-23 1.317573 -0.03123807
v 9.317362E-23 1.357101 0.07163411
v -0.2568244 1.233794 -0.09723072
v -0.2577908 1.278894 -0.008031413
v -0.3223806 1.254835 0.01083953
v -0.3236564 1.277291 0.1029213
v -0.3137558 1.284688 0.08784667
v -0.2546512 1.305387 0.09344857
v -0.2576153 1.307776 0.08088427
v -0.1713409 1.329147 0.08868395
v -0.1727191 1.33259 0.07637654
v -0.08632321 1.347067 0.08459473
v -0.1737079 1.301538 -0.02168457
v -0.08586013 1.350117 0.07272752
v -4.152575E-21 1.354371 0.08357311
v 9.317362E-23 0.6619963 -0.4614075
v 0.06406216 0.7056316 -0.4500006
v 0.05813398 0.7159407 -0.4543438
v 9.317362E-23 0.6768567 -0.4643503
v 0.06737921 0.8054861 -0.4347572
v 9.317362E-23 0.7748826 -0.4469194
v 0.1321663 0.7562472 -0.4284874
v 9.317362E-23 0.9108121 -0.4067267
v 0.1259594 0.7663735 -0.4332529
v 0.1908038 0.8021286 -0.3994466
v 0.186242 0.8132944 -0.4031499
v 0.2469489 0.8436803 -0.3602677
v 0.0769373 0.9265307 -0.3943884
v 9.317362E-23 1.021055 -0.355916
v 0.1388154 0.8402197 -0.4120772
v 0.1546248 0.9445701 -0.3719614
v 0.08308678 1.029573 -0.3454379
v 0.08749698 1.118635 -0.284912
v 9.317362E-23 1.117415 -0.2929173
v 9.317362E-23 1.201867 -0.2102976
v 0.1654667 1.035719 -0.3232918
v 0.2255147 0.9566307 -0.3417535
v 0.2406836 0.8541468 -0.3665458
v 0.2750462 0.8965333 -0.3327181
v 0.2664419 0.8996068 -0.3386153
v 0.298945 0.9587588 -0.2960036
v 0.203606 0.8752928 -0.3829252
v 0.2929577 0.96332 -0.3033317
v 0.3135466 1.023368 -0.2448866
v 0.2395991 1.035759 -0.2934033
v 0.3069137 1.02921 -0.2540095
v 0.3232975 1.082624 -0.1958805
v 0.1720684 1.11608 -0.2663605
v 0.3170909 1.088614 -0.2048993
v 0.3294769 1.144051 -0.1303405
v 0.2491605 1.106607 -0.2405129
v 0.08859251 1.198795 -0.2067412
v 0.3234603 1.153014 -0.1372705
v 0.3334806 1.197832 -0.06158039
v 0.1752478 1.191372 -0.1932018
v 0.0894179 1.265347 -0.1262265
v 9.317362E-23 1.268227 -0.1284692
v 0.253865 1.176942 -0.1703663
v 0.325013 1.20714 -0.0695933
v 0.3323179 1.243701 0.01855909
v 0.1758382 1.252191 -0.11617
v 0.08787139 1.313468 -0.02957503
v 9.317362E-23 1.317573 -0.03123807
v 9.317362E-23 1.357101 0.07163411
v 0.2568244 1.233794 -0.09723072
v 0.2577908 1.278894 -0.008031413
v 0.3223806 1.254835 0.01083953
v 0.3236564 1.277291 0.1029213
v 0.3137558 1.284688 0.08784667
v 0.2546512 1.305387 0.09344857
v 0.2576153 1.307776 0.08088427
v 0.1713409 1.329147 0.08868395
v 0.1727191 1.33259 0.07637654
v 0.08632321 1.347067 0.08459473
v 0.1737079 1.301538 -0.02168457
v 0.08586013 1.350117 0.07272752
v -4.152575E-21 1.354371 0.08357311
vt 1 0.01169932
vt 1 0.01567686
vt 0.9921917 0.02611768
vt 0.9907972 0.05089688
vt 0.9912306 0.02329087
vt 1 0.0421139
vt 0.9815522 0.03754985
vt 1 0.08063066
vt 0.9826773 0.04032481
vt 0.972675 0.05190337
vt 0.9736798 0.05495703
vt 0.9634911 0.06681776
vt 0.9894751 0.08586717
vt 1 0.1135606
vt 0.9807491 0.06171596
vt 0.9785939 0.09299052
vt 0.9887329 0.1170322
vt 0.9882278 0.1461982
vt 1 0.1445388
vt 1 0.1761638
vt 0.9772449 0.1217996
vt 0.9681065 0.09990644
vt 0.96504 0.06945181
vt 0.9593276 0.0848614
vt 0.9609658 0.08506453
vt 0.9556863 0.1068691
vt 0.9713124 0.07374632
vt 0.9572657 0.1071353
vt 0.9531077 0.1319644
vt 0.9662434 0.1266377
vt 0.9550406 0.1318977
vt 0.9519217 0.1557046
vt 0.9765247 0.1490463
vt 0.9537939 0.1552514
vt 0.9511383 0.1830097
vt 0.9651753 0.1519814
vt 0.9881202 0.1763629
vt 0.9530649 0.1832106
vt 0.9509703 0.2095509
vt 0.9762117 0.1779051
vt 0.988098 0.2043272
vt 1 0.2042192
vt 0.9647003 0.180236
vt 0.9531957 0.2090602
vt 0.9512792 0.2376014
vt 0.9762405 0.2047418
vt 0.9882556 0.2331997
vt 1 0.2331836
vt 1 0.2622546
vt 0.9644563 0.2064716
vt 0.9641645 0.2349571
vt 0.9537884 0.2369241
vt 0.9528011 0.2656251
vt 0.9550104 0.2622548
vt 0.9641691 0.2656251
vt 0.9640292 0.2622546
vt 0.9765078 0.2656251
vt 0.9765302 0.2622551
vt 0.9883878 0.265625
vt 0.9764763 0.2339342
vt 0.9885594 0.2622547
vt 1 0.265625
vt 0.9999999 0.01169932
vt 0.9912306 0.02329087
vt 0.9921917 0.02611768
vt 0.9999999 0.01567686
vt 0.9907972 0.05089688
vt 1 0.0421139
vt 0.9815522 0.03754985
vt 1 0.08063066
vt 0.9826773 0.04032481
vt 0.972675 0.05190337
vt 0.9736798 0.05495703
vt 0.9634911 0.06681776
vt 0.9894751 0.08586717
vt 1 0.1135606
vt 0.9807491 0.06171596
vt 0.9785939 0.09299052
vt 0.9887329 0.1170322
vt 0.9882278 0.1461982
vt 1 0.1445388
vt 1 0.1761638
vt 0.9772449 0.1217996
vt 0.9681065 0.09990644
vt 0.96504 0.06945181
vt 0.9593276 0.0848614
vt 0.9609658 0.08506453
vt 0.9556863 0.1068691
vt 0.9713124 0.07374632
vt 0.9572657 0.1071353
vt 0.9531077 0.1319644
vt 0.9662434 0.1266377
vt 0.9550406 0.1318977
vt 0.9519217 0.1557046
vt 0.9765247 0.1490463
vt 0.9537939 0.1552514
vt 0.9511383 0.1830097
vt 0.9651753 0.1519814
vt 0.9881202 0.1763629
vt 0.9530649 0.1832106
vt 0.9509703 0.2095509
vt 0.9762117 0.1779051
vt 0.988098 0.2043272
vt 1 0.2042192
vt 0.9647003 0.180236
vt 0.9531957 0.2090602
vt 0.9512792 0.2376014
vt 0.9762405 0.2047418
vt 0.9882556 0.2331997
vt 1 0.2331836
vt 0.9999995 0.2622546
vt 0.9644563 0.2064716
vt 0.9641645 0.2349571
vt 0.9537884 0.2369241
vt 0.9528011 0.2656251
vt 0.9550104 0.2622548
vt 0.9641691 0.2656251
vt 0.9640292 0.2622546
vt 0.9765078 0.2656251
vt 0.9765302 0.2622551
vt 0.9883878 0.265625
vt 0.9764763 0.2339342
vt 0.9885594 0.2622547
vt 1 0.265625
vn 3.739085E-07 -0.1010364 -0.9948827
vn 2.477727E-07 0.02883926 -0.999584
vn -0.1994829 0.03976097 -0.9790943
vn -0.1511122 0.2230129 -0.9630318
vn -0.2330033 -0.08564073 -0.9686977
vn 2.440608E-07 0.2165028 -0.9762821
vn -0.3991881 -0.04991159 -0.9155095
vn 0 0.3694769 -0.9292399
vn -0.3528351 0.06259912 -0.9335891
vn -0.5156077 -0.009381263 -0.8567734
vn -0.4742501 0.07801518 -0.8769267
vn -0.6006961 0.03861361 -0.7985443
vn -0.1277145 0.3725177 -0.9191951
vn 1.210367E-07 0.5001421 -0.8659434
vn -0.28837 0.2310022 -0.9292367
vn -0.2612019 0.3729144 -0.8903418
vn -0.1250336 0.49988 -0.8570219
vn -0.1252272 0.6226555 -0.7724108
vn 0 0.6262684 -0.7796075
vn 0 0.7406362 -0.6719062
vn -0.264033 0.4923022 -0.8294125
vn -0.4293981 0.3445438 -0.8348095
vn -0.5631194 0.08217199 -0.8222799
vn -0.6566395 0.1207192 -0.7444807
vn -0.5774592 0.1707056 -0.7983736
vn -0.7145396 0.2067997 -0.6683316
vn -0.4343723 0.217179 -0.874159
vn -0.6111791 0.2724362 -0.7431276
vn -0.7647647 0.2825934 -0.5790301
vn -0.4462857 0.4533379 -0.7715657
vn -0.6510854 0.3622229 -0.666995
vn -0.7906404 0.3561701 -0.4980266
vn -0.267563 0.6067435 -0.7485135
vn -0.6732589 0.4482781 -0.5880214
vn -0.7899351 0.440964 -0.4260908
vn -0.4580203 0.5560319 -0.6935748
vn -0.1230148 0.7355478 -0.6662108
vn -0.6706752 0.5404069 -0.5080897
vn -0.7608745 0.5521272 -0.3409186
vn -0.2649607 0.7149922 -0.6469792
vn -0.1218251 0.837987 -0.5319176
vn 0 0.8435106 -0.5371125
vn -0.4550566 0.6573631 -0.600664
vn -0.6466436 0.6424724 -0.4111948
vn -0.6918966 0.6908813 -0.2096714
vn -0.2589063 0.8164252 -0.5161564
vn -0.1234447 0.9335167 -0.3366126
vn 0 0.9395126 -0.3425143
vn 0 0.9972537 -0.07406143
vn -0.4403252 0.7585029 -0.4804031
vn -0.4156124 0.8576376 -0.3028595
vn -0.5953349 0.7582233 -0.2658453
vn -0.5604385 0.827186 -0.04089287
vn -0.5253212 0.8441976 -0.1066204
vn -0.3850652 0.9202184 0.07016372
vn -0.3847745 0.9201183 -0.07301352
vn -0.2387363 0.9640919 0.1163258
vn -0.2421261 0.9684188 -0.0594987
vn -0.1188978 0.9854367 0.1215639
vn -0.253624 0.9120509 -0.3222392
vn -0.123545 0.9900098 -0.06794878
vn 0 0.9931287 0.1170278
vn 3.739085E-07 -0.1010364 -0.9948827
vn 0.2330039 -0.08564091 -0.9686974
vn 0.1994833 0.03976085 -0.9790942
vn 2.477727E-07 0.02883926 -0.999584
vn 0.1511124 0.2230128 -0.9630318
vn 2.440608E-07 0.2165028 -0.9762821
vn 0.3991885 -0.04991176 -0.9155093
vn 0 0.3694769 -0.9292399
vn 0.3528354 0.062599 -0.9335891
vn 0.515608 -0.009381384 -0.8567732
vn 0.4742503 0.07801518 -0.8769266
vn 0.6006965 0.03861374 -0.7985442
vn 0.1277147 0.3725177 -0.9191951
vn 1.210367E-07 0.5001421 -0.8659434
vn 0.2883702 0.2310022 -0.9292366
vn 0.261202 0.3729144 -0.8903417
vn 0.1250337 0.4998801 -0.8570217
vn 0.1252273 0.6226553 -0.7724108
vn 0 0.6262684 -0.7796075
vn 0 0.7406362 -0.6719062
vn 0.2640332 0.4923021 -0.8294125
vn 0.4293981 0.3445438 -0.8348095
vn 0.5631198 0.08217212 -0.8222796
vn 0.65664 0.1207193 -0.7444802
vn 0.5774597 0.1707058 -0.7983733
vn 0.7145399 0.2067997 -0.6683313
vn 0.4343723 0.217179 -0.874159
vn 0.6111792 0.2724361 -0.7431275
vn 0.7647648 0.282593 -0.5790301
vn 0.4462858 0.4533378 -0.7715657
vn 0.6510856 0.3622226 -0.666995
vn 0.7906406 0.3561699 -0.4980267
vn 0.2675631 0.6067435 -0.7485133
vn 0.6732591 0.4482779 -0.5880213
vn 0.7899351 0.4409641 -0.4260907
vn 0.4580204 0.5560319 -0.6935748
vn 0.1230148 0.7355478 -0.6662108
vn 0.6706753 0.5404069 -0.5080895
vn 0.7608742 0.5521277 -0.3409184
vn 0.2649608 0.7149922 -0.6469791
vn 0.1218251 0.837987 -0.5319176
vn 0 0.8435106 -0.5371125
vn 0.4550567 0.6573631 -0.6006639
vn 0.6466433 0.6424728 -0.4111946
vn 0.6918962 0.6908818 -0.2096708
vn 0.2589064 0.8164251 -0.5161564
vn 0.1234448 0.9335167 -0.3366125
vn 0 0.9395126 -0.3425143
vn 0 0.9972537 -0.07406143
vn 0.4403253 0.758503 -0.4804029
vn 0.4156124 0.8576378 -0.302859
vn 0.5953346 0.7582237 -0.2658449
vn 0.5604381 0.8271862 -0.04089161
vn 0.5253211 0.8441979 -0.1066194
vn 0.385065 0.9202183 0.07016519
vn 0.3847746 0.9201184 -0.07301241
vn 0.2387362 0.9640918 0.1163269
vn 0.2421262 0.9684188 -0.05949783
vn 0.1188977 0.9854367 0.1215644
vn 0.2536241 0.912051 -0.322239
vn 0.123545 0.99001 -0.0679486
vn 0 0.9931287 0.1170278
g pm0009_51_ClosedSkin_0
f 3/3/3 2/2/2 1/1/1
f 3/3/3 4/4/4 2/2/2
f 5/5/5 3/3/3 1/1/1
f 4/4/4 6/6/6 2/2/2
f 3/3/3 5/5/5 7/7/7
f 8/8/8 6/6/6 4/4/4
f 9/9/9 3/3/3 7/7/7
f 3/3/3 9/9/9 4/4/4
f 9/9/9 7/7/7 10/10/10
f 11/11/11 9/9/9 10/10/10
f 11/11/11 10/10/10 12/12/12
f 13/13/13 8/8/8 4/4/4
f 8/8/8 13/13/13 14/14/14
f 9/9/9 15/15/15 4/4/4
f 9/9/9 11/11/11 15/15/15
f 16/16/16 13/13/13 4/4/4
f 15/15/15 16/16/16 4/4/4
f 13/13/13 17/17/17 14/14/14
f 17/17/17 13/13/13 16/16/16
f 14/14/14 17/17/17 18/18/18
f 19/19/19 14/14/14 18/18/18
f 19/19/19 18/18/18 20/20/20
f 21/21/21 17/17/17 16/16/16
f 18/18/18 17/17/17 21/21/21
f 22/22/22 16/16/16 15/15/15
f 21/21/21 16/16/16 22/22/22
f 23/23/23 11/11/11 12/12/12
f 23/23/23 12/12/12 24/24/24
f 25/25/25 23/23/23 24/24/24
f 23/23/23 25/25/25 11/11/11
f 25/25/25 24/24/24 26/26/26
f 11/11/11 27/27/27 15/15/15
f 27/27/27 22/22/22 15/15/15
f 25/25/25 27/27/27 11/11/11
f 22/22/22 27/27/27 25/25/25
f 28/28/28 25/25/25 26/26/26
f 28/28/28 22/22/22 25/25/25
f 28/28/28 26/26/26 29/29/29
f 30/30/30 21/21/21 22/22/22
f 30/30/30 22/22/22 28/28/28
f 31/31/31 28/28/28 29/29/29
f 31/31/31 30/30/30 28/28/28
f 31/31/31 29/29/29 32/32/32
f 21/21/21 30/30/30 33/33/33
f 33/33/33 18/18/18 21/21/21
f 34/34/34 31/31/31 32/32/32
f 34/34/34 32/32/32 35/35/35
f 36/36/36 30/30/30 31/31/31
f 30/30/30 36/36/36 33/33/33
f 34/34/34 36/36/36 31/31/31
f 18/18/18 33/33/33 37/37/37
f 18/18/18 37/37/37 20/20/20
f 38/38/38 34/34/34 35/35/35
f 38/38/38 35/35/35 39/39/39
f 40/40/40 33/33/33 36/36/36
f 33/33/33 40/40/40 37/37/37
f 20/20/20 37/37/37 41/41/41
f 41/41/41 37/37/37 40/40/40
f 42/42/42 20/20/20 41/41/41
f 43/43/43 36/36/36 34/34/34
f 43/43/43 40/40/40 36/36/36
f 38/38/38 43/43/43 34/34/34
f 44/44/44 38/38/38 39/39/39
f 44/44/44 39/39/39 45/45/45
f 46/46/46 41/41/41 40/40/40
f 46/46/46 40/40/40 43/43/43
f 42/42/42 41/41/41 47/47/47
f 41/41/41 46/46/46 47/47/47
f 48/48/48 42/42/42 47/47/47
f 48/48/48 47/47/47 49/49/49
f 50/50/50 43/43/43 38/38/38
f 44/44/44 50/50/50 38/38/38
f 50/50/50 46/46/46 43/43/43
f 51/51/51 50/50/50 44/44/44
f 50/50/50 51/51/51 46/46/46
f 52/52/52 44/44/44 45/45/45
f 52/52/52 51/51/51 44/44/44
f 52/52/52 45/45/45 53/53/53
f 54/54/54 52/52/52 53/53/53
f 52/52/52 54/54/54 51/51/51
f 54/54/54 53/53/53 55/55/55
f 56/56/56 54/54/54 55/55/55
f 54/54/54 56/56/56 51/51/51
f 56/56/56 55/55/55 57/57/57
f 58/58/58 56/56/56 57/57/57
f 51/51/51 56/56/56 58/58/58
f 58/58/58 57/57/57 59/59/59
f 51/51/51 60/60/60 46/46/46
f 60/60/60 51/51/51 58/58/58
f 46/46/46 60/60/60 47/47/47
f 61/61/61 58/58/58 59/59/59
f 60/60/60 58/58/58 61/61/61
f 47/47/47 60/60/60 61/61/61
f 61/61/61 59/59/59 62/62/62
f 47/47/47 61/61/61 49/49/49
f 49/49/49 61/61/61 62/62/62
f 65/65/65 64/64/64 63/63/63
f 66/66/66 65/65/65 63/63/63
f 67/67/67 65/65/65 66/66/66
f 68/68/68 67/67/67 66/66/66
f 64/64/64 65/65/65 69/69/69
f 68/68/68 70/70/70 67/67/67
f 65/65/65 71/71/71 69/69/69
f 71/71/71 65/65/65 67/67/67
f 69/69/69 71/71/71 72/72/72
f 71/71/71 73/73/73 72/72/72
f 72/72/72 73/73/73 74/74/74
f 70/70/70 75/75/75 67/67/67
f 75/75/75 70/70/70 76/76/76
f 77/77/77 71/71/71 67/67/67
f 73/73/73 71/71/71 77/77/77
f 75/75/75 78/78/78 67/67/67
f 78/78/78 77/77/77 67/67/67
f 79/79/79 75/75/75 76/76/76
f 75/75/75 79/79/79 78/78/78
f 79/79/79 76/76/76 80/80/80
f 76/76/76 81/81/81 80/80/80
f 80/80/80 81/81/81 82/82/82
f 79/79/79 83/83/83 78/78/78
f 79/79/79 80/80/80 83/83/83
f 78/78/78 84/84/84 77/77/77
f 78/78/78 83/83/83 84/84/84
f 73/73/73 85/85/85 74/74/74
f 74/74/74 85/85/85 86/86/86
f 85/85/85 87/87/87 86/86/86
f 87/87/87 85/85/85 73/73/73
f 86/86/86 87/87/87 88/88/88
f 89/89/89 73/73/73 77/77/77
f 84/84/84 89/89/89 77/77/77
f 89/89/89 87/87/87 73/73/73
f 89/89/89 84/84/84 87/87/87
f 87/87/87 90/90/90 88/88/88
f 84/84/84 90/90/90 87/87/87
f 88/88/88 90/90/90 91/91/91
f 83/83/83 92/92/92 84/84/84
f 84/84/84 92/92/92 90/90/90
f 90/90/90 93/93/93 91/91/91
f 92/92/92 93/93/93 90/90/90
f 91/91/91 93/93/93 94/94/94
f 92/92/92 83/83/83 95/95/95
f 80/80/80 95/95/95 83/83/83
f 93/93/93 96/96/96 94/94/94
f 94/94/94 96/96/96 97/97/97
f 92/92/92 98/98/98 93/93/93
f 98/98/98 92/92/92 95/95/95
f 98/98/98 96/96/96 93/93/93
f 95/95/95 80/80/80 99/99/99
f 99/99/99 80/80/80 82/82/82
f 96/96/96 100/100/100 97/97/97
f 97/97/97 100/100/100 101/101/101
f 95/95/95 102/102/102 98/98/98
f 102/102/102 95/95/95 99/99/99
f 99/99/99 82/82/82 103/103/103
f 99/99/99 103/103/103 102/102/102
f 82/82/82 104/104/104 103/103/103
f 98/98/98 105/105/105 96/96/96
f 102/102/102 105/105/105 98/98/98
f 105/105/105 100/100/100 96/96/96
f 100/100/100 106/106/106 101/101/101
f 101/101/101 106/106/106 107/107/107
f 103/103/103 108/108/108 102/102/102
f 102/102/102 108/108/108 105/105/105
f 103/103/103 104/104/104 109/109/109
f 108/108/108 103/103/103 109/109/109
f 104/104/104 110/110/110 109/109/109
f 109/109/109 110/110/110 111/111/111
f 105/105/105 112/112/112 100/100/100
f 112/112/112 106/106/106 100/100/100
f 108/108/108 112/112/112 105/105/105
f 112/112/112 113/113/113 106/106/106
f 113/113/113 112/112/112 108/108/108
f 106/106/106 114/114/114 107/107/107
f 113/113/113 114/114/114 106/106/106
f 107/107/107 114/114/114 115/115/115
f 114/114/114 116/116/116 115/115/115
f 116/116/116 114/114/114 113/113/113
f 115/115/115 116/116/116 117/117/117
f 116/116/116 118/118/118 117/117/117
f 118/118/118 116/116/116 113/113/113
f 117/117/117 118/118/118 119/119/119
f 118/118/118 120/120/120 119/119/119
f 118/118/118 113/113/113 120/120/120
f 119/119/119 120/120/120 121/121/121
f 122/122/122 113/113/113 108/108/108
f 113/113/113 122/122/122 120/120/120
f 122/122/122 108/108/108 109/109/109
f 120/120/120 123/123/123 121/121/121
f 120/120/120 122/122/122 123/123/123
f 122/122/122 109/109/109 123/123/123
f 121/121/121 123/123/123 124/124/124
f 123/123/123 109/109/109 111/111/111
f 123/123/123 111/111/111 124/124/124
