g pm0058_41_EarSkin
v 0.1285196 0.6255311 0.07789566
v 0.1080386 0.6030074 0.09683912
v 0.09437492 0.5990936 0.08029929
v 0.1174071 0.6226849 0.0632806
v 0.1375529 0.6373243 0.0463598
v 0.1486976 0.6387838 0.06070405
v 0.1152858 0.6076446 0.04735627
v 0.09128562 0.5898382 0.06812346
v 0.1568818 0.6397858 0.03026504
v 0.1685946 0.6395726 0.04297459
v 0.1407085 0.6201565 0.02726068
v 0.1711359 0.6258931 0.01773487
v 0.1826523 0.6252112 0.02899249
v 0.1931858 0.5992365 0.01862909
v 0.1826564 0.60019 0.007248395
v 0.1969153 0.5709344 0.01480172
v 0.1186661 0.5787327 0.03863921
v 0.09388597 0.5697056 0.0597192
v 0.1477288 0.5898554 0.01432675
v 0.1860129 0.5720802 0.002605744
v 0.1928151 0.5439112 0.01890137
v 0.1268574 0.5491239 0.03575229
v 0.1015712 0.546515 0.05752856
v 0.1556403 0.5562639 0.01213456
v 0.1818387 0.5457879 0.006098691
v 0.1762402 0.5291216 0.03264992
v 0.1642849 0.5309632 0.0203197
v 0.1381463 0.5266737 0.04258909
v 0.1116286 0.5275384 0.06426954
v 0.149546 0.5237221 0.05552108
v 0.1234587 0.5248224 0.07779191
v -0.1287672 0.62496 0.07760555
v -0.09437492 0.5990936 0.08029929
v -0.1080386 0.6030074 0.09683912
v -0.1174071 0.6226849 0.0632806
v -0.1375529 0.6373243 0.0463598
v -0.1486976 0.6387838 0.06070405
v -0.1155242 0.6082501 0.04741721
v -0.09128562 0.5898382 0.06812346
v -0.1568818 0.6397858 0.03026504
v -0.1685946 0.6395726 0.04297459
v -0.1706969 0.6257787 0.01750171
v -0.1827005 0.6249501 0.02942969
v -0.1931509 0.5990508 0.01928874
v -0.1407085 0.6201565 0.02726068
v -0.1820352 0.6001024 0.006975591
v -0.1969153 0.5709344 0.01480172
v -0.1183208 0.5787303 0.03872796
v -0.09388597 0.5697056 0.0597192
v -0.1486282 0.5898692 0.01460949
v -0.1860129 0.5720802 0.002605744
v -0.1928151 0.5439112 0.01890137
v -0.126932 0.5487001 0.03574944
v -0.1015712 0.546515 0.05752856
v -0.1556403 0.5562639 0.01213456
v -0.1818387 0.5457879 0.006098691
v -0.1762402 0.5291216 0.03264992
v -0.1638404 0.5317594 0.02027502
v -0.1381463 0.5266737 0.04258909
v -0.1116286 0.5275384 0.06426954
v -0.149546 0.5237221 0.05552108
v -0.1234587 0.5248224 0.07779191
v -0.1080386 0.6030074 0.09683912
v -0.1204581 0.5948623 0.08842617
v -0.1371773 0.6121786 0.07275731
v -0.1287672 0.62496 0.07760555
v -0.1486976 0.6387838 0.06070405
v -0.1207854 0.5853678 0.08110837
v -0.1543098 0.6239538 0.05849403
v -0.1685946 0.6395726 0.04297459
v -0.1355061 0.5966193 0.06101545
v -0.1374266 0.5788941 0.05376722
v -0.1229442 0.571443 0.07380917
v -0.152637 0.6069397 0.04689525
v -0.1680024 0.6255171 0.04702999
v -0.174554 0.6161798 0.04020303
v -0.1827005 0.6249501 0.02942969
v -0.1931509 0.5990508 0.01928874
v -0.181847 0.5938199 0.03127898
v -0.1969153 0.5709344 0.01480172
v -0.1435091 0.5592142 0.05206524
v -0.1278094 0.5544257 0.07159951
v -0.1325651 0.5411845 0.07413633
v -0.1555244 0.5864313 0.03803052
v -0.184915 0.5687668 0.02858355
v -0.1928151 0.5439112 0.01890137
v -0.1514908 0.5414555 0.05754207
v -0.1234587 0.5248224 0.07779191
v -0.149546 0.5237221 0.05552108
v -0.1616828 0.5639073 0.03633432
v -0.1710165 0.5458548 0.04022923
v -0.1762402 0.5291216 0.03264992
v -0.1841606 0.5546005 0.0295138
v 0.1080386 0.6030074 0.09683912
v 0.1285196 0.6255311 0.07789566
v 0.1371773 0.6121786 0.07275731
v 0.1204581 0.5948623 0.08842617
v 0.1486976 0.6387838 0.06070405
v 0.1207854 0.5853678 0.08110837
v 0.1543098 0.6239538 0.05849403
v 0.1685946 0.6395726 0.04297459
v 0.1347237 0.5968806 0.0609761
v 0.1680024 0.6255171 0.04702999
v 0.1826523 0.6252112 0.02899249
v 0.1366781 0.5787023 0.05362145
v 0.1229442 0.571443 0.07380917
v 0.1523254 0.6072201 0.04649819
v 0.174554 0.6161798 0.04020303
v 0.181847 0.5938199 0.03127898
v 0.1931858 0.5992365 0.01862909
v 0.1969153 0.5709344 0.01480172
v 0.1428934 0.5588443 0.05186967
v 0.1278094 0.5544257 0.07159951
v 0.1325651 0.5411845 0.07413633
v 0.1554562 0.5865443 0.0372568
v 0.184915 0.5687668 0.02858355
v 0.1514908 0.5414555 0.05754207
v 0.1234587 0.5248224 0.07779191
v 0.149546 0.5237221 0.05552108
v 0.1614904 0.5637937 0.03590253
v 0.1841606 0.5546005 0.0295138
v 0.1928151 0.5439112 0.01890137
v 0.1762402 0.5291216 0.03264992
v 0.1710165 0.5458548 0.04022923
vt 0.5927694 0.640976
vt 0.5987318 0.6189138
vt 0.6257856 0.6199055
vt 0.6148407 0.6414853
vt 0.6137359 0.658004
vt 0.5933127 0.6597627
vt 0.6391273 0.6426744
vt 0.6451514 0.6210838
vt 0.6220627 0.6701202
vt 0.6068194 0.6758399
vt 0.6395769 0.6610054
vt 0.6407366 0.6774113
vt 0.6327386 0.6863495
vt 0.6711636 0.6916232
vt 0.6720123 0.6817584
vt 0.7096014 0.689177
vt 0.6740716 0.641221
vt 0.6728194 0.6211109
vt 0.6741359 0.6630177
vt 0.7026749 0.6803567
vt 0.7412865 0.6798154
vt 0.7100744 0.6417649
vt 0.7041256 0.6215584
vt 0.7098234 0.6624413
vt 0.7268052 0.6740319
vt 0.7575564 0.6646405
vt 0.7380905 0.6615686
vt 0.7401481 0.6421607
vt 0.7333846 0.6210948
vt 0.7618339 0.6420616
vt 0.7569857 0.619853
vt 0.5927693 0.6409758
vt 0.6257855 0.6199054
vt 0.5987316 0.6189138
vt 0.6148406 0.6414853
vt 0.6137358 0.658004
vt 0.5933126 0.6597627
vt 0.6391271 0.6426743
vt 0.6451513 0.6210838
vt 0.6220626 0.6701202
vt 0.6068193 0.6758399
vt 0.6407366 0.6774113
vt 0.6327385 0.6863495
vt 0.6711636 0.6916232
vt 0.6395768 0.6610054
vt 0.6720122 0.6817584
vt 0.7096013 0.689177
vt 0.6740714 0.641221
vt 0.6728193 0.6211109
vt 0.6741358 0.6630177
vt 0.7026747 0.6803567
vt 0.7412864 0.6798154
vt 0.7100743 0.6417649
vt 0.7041255 0.6215585
vt 0.7098233 0.6624413
vt 0.7268051 0.6740319
vt 0.7575563 0.6646405
vt 0.7380904 0.6615686
vt 0.7401479 0.6421605
vt 0.7333845 0.6210949
vt 0.7618338 0.6420615
vt 0.7569855 0.6198528
vt 0.6977437 0.1085521
vt 0.6808873 0.1150554
vt 0.6898218 0.1315067
vt 0.7089477 0.1302093
vt 0.7100075 0.1469107
vt 0.6660669 0.1162392
vt 0.6919523 0.1463443
vt 0.6987944 0.1605788
vt 0.6672531 0.1322686
vt 0.6457878 0.13247
vt 0.6466144 0.1174952
vt 0.6692427 0.1457598
vt 0.6856855 0.1559216
vt 0.6724883 0.1590227
vt 0.6764608 0.1674376
vt 0.6456495 0.1704153
vt 0.6454783 0.1611177
vt 0.6148453 0.1694577
vt 0.622819 0.1322958
vt 0.6248971 0.1174563
vt 0.6078048 0.1162088
vt 0.6454151 0.1460117
vt 0.6177991 0.1594368
vt 0.5871535 0.1627783
vt 0.599928 0.1306536
vt 0.5914145 0.1082465
vt 0.5794597 0.1279204
vt 0.6204596 0.1458129
vt 0.5973857 0.1459926
vt 0.5758834 0.148801
vt 0.6027353 0.156641
vt 0.6977437 0.1085521
vt 0.7089477 0.1302093
vt 0.6898217 0.1315067
vt 0.6808872 0.1150554
vt 0.7100074 0.1469108
vt 0.6660669 0.1162392
vt 0.6919522 0.1463444
vt 0.6987944 0.1605788
vt 0.667253 0.1322686
vt 0.6856854 0.1559216
vt 0.6764607 0.1674376
vt 0.6457877 0.13247
vt 0.6466143 0.1174952
vt 0.6692426 0.1457599
vt 0.6724882 0.1590227
vt 0.6454782 0.1611177
vt 0.6456494 0.1704154
vt 0.6148453 0.1694577
vt 0.6228189 0.1322958
vt 0.624897 0.1174563
vt 0.6078048 0.1162088
vt 0.6454151 0.1460118
vt 0.617799 0.1594368
vt 0.5999279 0.1306536
vt 0.5914145 0.1082465
vt 0.5794599 0.1279204
vt 0.6204596 0.145813
vt 0.6027353 0.156641
vt 0.5871534 0.1627783
vt 0.5758836 0.1488011
vt 0.5973856 0.1459928
vn -0.03544097 0.7604591 0.6484179
vn -0.1370674 0.7418363 0.6564232
vn -0.6917944 0.7212335 -0.03525386
vn -0.6405338 0.7618189 -0.09668678
vn -0.4527065 0.8445135 -0.2861008
vn 0.1724084 0.8406445 0.5134121
vn -0.7101748 0.3678812 -0.6002626
vn -0.7596366 0.3650749 -0.5382123
vn -0.09335502 0.8811624 -0.4635059
vn 0.5167269 0.8235206 0.2341095
vn -0.5082474 0.4284612 -0.7470647
vn 0.01664965 0.5974489 -0.8017341
vn 0.8322312 0.5542057 0.01572277
vn 0.9630011 0.2647467 -0.05038006
vn 0.1145864 0.2791442 -0.9533879
vn 0.9939988 -0.05135234 -0.09658819
vn -0.6409653 0.03724002 -0.7666659
vn -0.6865466 0.0253212 -0.7266448
vn -0.443866 0.1131112 -0.8889257
vn 0.1690569 -0.08018421 -0.9823392
vn 0.8703658 -0.4902896 -0.04560185
vn -0.5625415 -0.3074163 -0.7674908
vn -0.6022774 -0.3337604 -0.7251661
vn -0.3764715 -0.2203946 -0.8998307
vn 0.2277663 -0.4922822 -0.8401077
vn 0.5913837 -0.7872772 0.1745281
vn -0.1212624 -0.7121778 -0.6914465
vn -0.3088421 -0.7979842 -0.5175305
vn -0.3669627 -0.8089394 -0.4592988
vn 0.3894091 -0.8676021 0.3092365
vn 0.2798539 -0.9103826 0.3047707
vn 0.03336848 0.7598315 0.6492631
vn 0.6871956 0.7258222 -0.03073194
vn 0.1335905 0.7441051 0.6545695
vn 0.636902 0.7656702 -0.09002743
vn 0.4516964 0.8469465 -0.2804497
vn -0.1700725 0.8408074 0.5139244
vn 0.7090803 0.3686749 -0.6010689
vn 0.7593085 0.3669489 -0.5374004
vn 0.08874469 0.8823273 -0.4621934
vn -0.5163174 0.8255582 0.2277501
vn -0.02026858 0.5960605 -0.8026836
vn -0.8309222 0.5563727 0.004205784
vn -0.9613905 0.2683885 -0.06079487
vn 0.509496 0.4262971 -0.747452
vn -0.1172 0.2800405 -0.9528072
vn -0.993036 -0.05010634 -0.1066253
vn 0.6391656 0.03868286 -0.7680957
vn 0.6870103 0.02629608 -0.7261717
vn 0.4444034 0.1124629 -0.8887394
vn -0.1720572 -0.07783974 -0.9820067
vn -0.8661562 -0.4968996 -0.05351936
vn 0.5613119 -0.3060504 -0.7689358
vn 0.6029444 -0.3341483 -0.7244329
vn 0.3768175 -0.2177369 -0.9003328
vn -0.2273217 -0.4945467 -0.8388971
vn -0.5857441 -0.7937747 0.1637851
vn 0.1220735 -0.7110827 -0.69243
vn 0.3057019 -0.7992833 -0.5173901
vn 0.365596 -0.8109978 -0.4567519
vn -0.387177 -0.8711774 0.3019007
vn -0.2780598 -0.9112976 0.3036766
vn 0.1335905 0.7441051 0.6545695
vn -0.667046 0.03990345 0.7439472
vn -0.6620703 -0.01066912 0.7493657
vn 0.03336848 0.7598315 0.6492631
vn -0.1700725 0.8408074 0.5139244
vn -0.7990865 -0.169166 0.5769261
vn -0.6356859 0.003757346 0.7719387
vn -0.5163174 0.8255582 0.2277501
vn -0.7425423 -0.2133147 0.6349235
vn -0.7140553 -0.02300537 0.6997112
vn -0.785776 0.003432677 0.6185017
vn -0.6232349 -0.2196922 0.7505422
vn -0.6887388 0.09365487 0.718935
vn -0.6967809 -0.04440619 0.7159081
vn -0.8309222 0.5563727 0.004205784
vn -0.9613905 0.2683885 -0.06079487
vn -0.6677054 -0.02315031 0.7440656
vn -0.993036 -0.05010634 -0.1066253
vn -0.6512055 0.1763939 0.7381169
vn -0.7126516 0.1718366 0.680147
vn -0.6726124 -0.09212053 0.7342386
vn -0.5666287 -0.07643379 0.8204206
vn -0.6772687 0.02197429 0.7354076
vn -0.8661562 -0.4968996 -0.05351936
vn -0.6598029 -0.04339485 0.7501847
vn -0.2780598 -0.9112976 0.3036766
vn -0.387177 -0.8711774 0.3019007
vn -0.5521592 0.09988516 0.8277338
vn -0.6499887 -0.06216052 0.7573974
vn -0.5857441 -0.7937747 0.1637851
vn -0.7274929 -0.07898037 0.6815543
vn -0.1370674 0.7418363 0.6564232
vn -0.03544097 0.7604591 0.6484179
vn 0.6669499 -0.01910088 0.7448576
vn 0.6738482 0.03445472 0.7380661
vn 0.1724084 0.8406445 0.5134121
vn 0.8096626 -0.1697802 0.5618017
vn 0.6381162 -0.006513383 0.7699126
vn 0.5167269 0.8235206 0.2341095
vn 0.7481219 -0.2189216 0.626408
vn 0.6894677 0.08649106 0.7191339
vn 0.8322312 0.5542057 0.01572277
vn 0.7196611 -0.0196225 0.6940482
vn 0.7979022 0.0103328 0.6026984
vn 0.6217445 -0.2287683 0.7490653
vn 0.695319 -0.04940051 0.7170014
vn 0.664083 -0.02355062 0.7472879
vn 0.9630011 0.2647467 -0.05038006
vn 0.9939988 -0.05135234 -0.09658819
vn 0.6529942 0.1870653 0.7338973
vn 0.7211497 0.1829579 0.6681837
vn 0.6776141 -0.08341026 0.7306722
vn 0.562425 -0.07710229 0.8232456
vn 0.6718825 0.02604822 0.7401997
vn 0.6599481 -0.0328134 0.7505942
vn 0.2798539 -0.9103826 0.3047707
vn 0.3894091 -0.8676021 0.3092365
vn 0.5462222 0.1076926 0.8306887
vn 0.7242287 -0.07217743 0.6857719
vn 0.8703658 -0.4902896 -0.04560185
vn 0.5913837 -0.7872772 0.1745281
vn 0.6466186 -0.05225664 0.7610215
g pm0058_41_EarSkin_0
f 3/3/3 2/2/2 1/1/1
f 4/4/4 3/3/3 1/1/1
f 4/4/4 1/1/1 5/5/5
f 1/1/1 6/6/6 5/5/5
f 4/4/4 7/7/7 3/3/3
f 7/7/7 8/8/8 3/3/3
f 9/9/9 5/5/5 6/6/6
f 10/10/10 9/9/9 6/6/6
f 5/5/5 11/11/11 4/4/4
f 11/11/11 5/5/5 9/9/9
f 11/11/11 7/7/7 4/4/4
f 12/12/12 9/9/9 10/10/10
f 12/12/12 11/11/11 9/9/9
f 13/13/13 12/12/12 10/10/10
f 13/13/13 14/14/14 12/12/12
f 14/14/14 15/15/15 12/12/12
f 12/12/12 15/15/15 11/11/11
f 14/14/14 16/16/16 15/15/15
f 7/7/7 17/17/17 8/8/8
f 17/17/17 18/18/18 8/8/8
f 11/11/11 19/19/19 7/7/7
f 15/15/15 19/19/19 11/11/11
f 19/19/19 17/17/17 7/7/7
f 16/16/16 20/20/20 15/15/15
f 15/15/15 20/20/20 19/19/19
f 16/16/16 21/21/21 20/20/20
f 17/17/17 22/22/22 18/18/18
f 22/22/22 23/23/23 18/18/18
f 19/19/19 24/24/24 17/17/17
f 20/20/20 24/24/24 19/19/19
f 24/24/24 22/22/22 17/17/17
f 21/21/21 25/25/25 20/20/20
f 24/24/24 20/20/20 25/25/25
f 21/21/21 26/26/26 25/25/25
f 27/27/27 24/24/24 25/25/25
f 24/24/24 27/27/27 22/22/22
f 26/26/26 27/27/27 25/25/25
f 22/22/22 28/28/28 23/23/23
f 27/27/27 28/28/28 22/22/22
f 28/28/28 27/27/27 26/26/26
f 28/28/28 29/29/29 23/23/23
f 30/30/30 28/28/28 26/26/26
f 31/31/31 29/29/29 28/28/28
f 30/30/30 31/31/31 28/28/28
f 34/34/34 33/33/33 32/32/32
f 33/33/33 35/35/35 32/32/32
f 32/32/32 35/35/35 36/36/36
f 37/37/37 32/32/32 36/36/36
f 38/38/38 35/35/35 33/33/33
f 39/39/39 38/38/38 33/33/33
f 36/36/36 40/40/40 37/37/37
f 40/40/40 41/41/41 37/37/37
f 40/40/40 42/42/42 41/41/41
f 42/42/42 40/40/40 36/36/36
f 42/42/42 43/43/43 41/41/41
f 44/44/44 43/43/43 42/42/42
f 45/45/45 36/36/36 35/35/35
f 45/45/45 42/42/42 36/36/36
f 38/38/38 45/45/45 35/35/35
f 46/46/46 44/44/44 42/42/42
f 46/46/46 42/42/42 45/45/45
f 47/47/47 44/44/44 46/46/46
f 48/48/48 38/38/38 39/39/39
f 49/49/49 48/48/48 39/39/39
f 50/50/50 45/45/45 38/38/38
f 50/50/50 46/46/46 45/45/45
f 48/48/48 50/50/50 38/38/38
f 51/51/51 47/47/47 46/46/46
f 51/51/51 46/46/46 50/50/50
f 52/52/52 47/47/47 51/51/51
f 53/53/53 48/48/48 49/49/49
f 54/54/54 53/53/53 49/49/49
f 55/55/55 50/50/50 48/48/48
f 55/55/55 51/51/51 50/50/50
f 53/53/53 55/55/55 48/48/48
f 56/56/56 52/52/52 51/51/51
f 56/56/56 51/51/51 55/55/55
f 57/57/57 52/52/52 56/56/56
f 58/58/58 56/56/56 55/55/55
f 58/58/58 55/55/55 53/53/53
f 58/58/58 57/57/57 56/56/56
f 59/59/59 53/53/53 54/54/54
f 59/59/59 58/58/58 53/53/53
f 58/58/58 59/59/59 57/57/57
f 60/60/60 59/59/59 54/54/54
f 59/59/59 61/61/61 57/57/57
f 60/60/60 62/62/62 59/59/59
f 62/62/62 61/61/61 59/59/59
f 65/65/65 64/64/64 63/63/63
f 66/66/66 65/65/65 63/63/63
f 66/66/66 67/67/67 65/65/65
f 64/64/64 65/65/65 68/68/68
f 67/67/67 69/69/69 65/65/65
f 67/67/67 70/70/70 69/69/69
f 65/65/65 71/71/71 68/68/68
f 65/65/65 69/69/69 71/71/71
f 71/71/71 72/72/72 68/68/68
f 72/72/72 73/73/73 68/68/68
f 69/69/69 74/74/74 71/71/71
f 71/71/71 74/74/74 72/72/72
f 70/70/70 75/75/75 69/69/69
f 69/69/69 75/75/75 74/74/74
f 76/76/76 75/75/75 70/70/70
f 75/75/75 76/76/76 74/74/74
f 77/77/77 76/76/76 70/70/70
f 77/77/77 78/78/78 76/76/76
f 78/78/78 79/79/79 76/76/76
f 76/76/76 79/79/79 74/74/74
f 78/78/78 80/80/80 79/79/79
f 72/72/72 81/81/81 73/73/73
f 81/81/81 82/82/82 73/73/73
f 83/83/83 82/82/82 81/81/81
f 74/74/74 84/84/84 72/72/72
f 79/79/79 84/84/84 74/74/74
f 72/72/72 84/84/84 81/81/81
f 80/80/80 85/85/85 79/79/79
f 79/79/79 85/85/85 84/84/84
f 85/85/85 80/80/80 86/86/86
f 87/87/87 83/83/83 81/81/81
f 83/83/83 87/87/87 88/88/88
f 87/87/87 89/89/89 88/88/88
f 84/84/84 90/90/90 81/81/81
f 85/85/85 90/90/90 84/84/84
f 87/87/87 81/81/81 90/90/90
f 87/87/87 91/91/91 89/89/89
f 91/91/91 87/87/87 90/90/90
f 91/91/91 92/92/92 89/89/89
f 86/86/86 92/92/92 91/91/91
f 85/85/85 93/93/93 90/90/90
f 93/93/93 91/91/91 90/90/90
f 93/93/93 86/86/86 91/91/91
f 93/93/93 85/85/85 86/86/86
f 96/96/96 95/95/95 94/94/94
f 97/97/97 96/96/96 94/94/94
f 98/98/98 95/95/95 96/96/96
f 96/96/96 97/97/97 99/99/99
f 100/100/100 98/98/98 96/96/96
f 101/101/101 98/98/98 100/100/100
f 102/102/102 96/96/96 99/99/99
f 100/100/100 96/96/96 102/102/102
f 103/103/103 101/101/101 100/100/100
f 104/104/104 101/101/101 103/103/103
f 105/105/105 102/102/102 99/99/99
f 106/106/106 105/105/105 99/99/99
f 107/107/107 100/100/100 102/102/102
f 103/103/103 100/100/100 107/107/107
f 107/107/107 102/102/102 105/105/105
f 108/108/108 104/104/104 103/103/103
f 108/108/108 103/103/103 107/107/107
f 104/104/104 108/108/108 109/109/109
f 109/109/109 108/108/108 107/107/107
f 110/110/110 104/104/104 109/109/109
f 110/110/110 109/109/109 111/111/111
f 112/112/112 105/105/105 106/106/106
f 113/113/113 112/112/112 106/106/106
f 113/113/113 114/114/114 112/112/112
f 115/115/115 107/107/107 105/105/105
f 115/115/115 109/109/109 107/107/107
f 115/115/115 105/105/105 112/112/112
f 109/109/109 116/116/116 111/111/111
f 116/116/116 109/109/109 115/115/115
f 114/114/114 117/117/117 112/112/112
f 117/117/117 114/114/114 118/118/118
f 119/119/119 117/117/117 118/118/118
f 120/120/120 115/115/115 112/112/112
f 120/120/120 116/116/116 115/115/115
f 112/112/112 117/117/117 120/120/120
f 111/111/111 116/116/116 121/121/121
f 121/121/121 116/116/116 120/120/120
f 122/122/122 111/111/111 121/121/121
f 122/122/122 121/121/121 123/123/123
f 124/124/124 117/117/117 119/119/119
f 117/117/117 124/124/124 120/120/120
f 123/123/123 124/124/124 119/119/119
f 124/124/124 121/121/121 120/120/120
f 121/121/121 124/124/124 123/123/123
