g pm0012_81_ScalesDSkin_rx1
v -0.3357244 -0.004545826 -8.868773E-19
v -0.3064678 -0.02272079 -8.868773E-19
v -0.3054844 8.437693E-18 -1.643E-17
v -0.335199 0.01545357 -8.868773E-19
v -0.2749688 -0.006241408 -8.868773E-19
v -0.2761464 0.02296605 -8.868773E-19
v -0.3357244 -0.004545826 3.499999E-05
v -0.3054844 8.437693E-18 3.499999E-05
v -0.3064678 -0.02272079 3.499999E-05
v -0.335199 0.01545357 3.499999E-05
v -0.2749688 -0.006241408 3.499999E-05
v -0.2761464 0.02296605 3.499999E-05
vt 0.1798898 -0.01375031
vt 0.1494629 -0.03823924
vt 0.1875001 -0.03906274
vt 0.2133708 -0.01418996
vt 0.1770512 -0.06460547
vt 0.2259475 -0.06362009
vt 0.1798898 -0.01375031
vt 0.1874999 -0.03906274
vt 0.149463 -0.03823924
vt 0.2133709 -0.01418996
vt 0.1770512 -0.06460547
vt 0.2259475 -0.06362009
vn 0 0 -1
vn 0 0 -1
vn 0 0 -1
vn 0 0 -1
vn 0 0 -1
vn 0 0 -1
vn 0 0 1
vn 0 0 1
vn 0 0 1
vn 0 0 1
vn 0 0 1
vn 0 0 1
g pm0012_81_ScalesDSkin_rx1_0
f 3/3/3 2/2/2 1/1/1
f 3/3/3 1/1/1 4/4/4
f 5/5/5 2/2/2 3/3/3
f 3/3/3 4/4/4 6/6/6
f 6/6/6 5/5/5 3/3/3
f 9/9/9 8/8/8 7/7/7
f 7/7/7 8/8/8 10/10/10
f 9/9/9 11/11/11 8/8/8
f 10/10/10 8/8/8 12/12/12
f 11/11/11 12/12/12 8/8/8
