g pm0025_00_Gofest2025glassSkin02
v 0.047431257 0.4368276 0.102236725
v 0.038694654 0.4398457 0.10191234
v 0.038484834 0.44238022 0.098694436
v 0.049371574 0.4386193 0.09909867
v 0.05283078 0.42981684 0.10492691
v 0.056099962 0.42988318 0.10245092
v 0.052830774 0.42149135 0.10895529
v 0.056099948 0.41950867 0.10747075
v 0.047431253 0.41503108 0.11278324
v 0.049371574 0.41145855 0.11224073
v 0.038694654 0.41290373 0.114948526
v 0.038484834 0.4088076 0.11493892
v 0.038694654 0.4398457 0.10191234
v 0.027598083 0.43972927 0.10139263
v 0.038484834 0.44238022 0.098694436
v 0.029958049 0.43771833 0.10407762
v 0.020869706 0.43167913 0.10616264
v 0.024558535 0.43125808 0.10790557
v 0.020869706 0.4213046 0.11118248
v 0.024558535 0.42293262 0.111933954
v 0.02759809 0.4125685 0.11453469
v 0.029958049 0.4159218 0.114624135
v 0.038484834 0.4088076 0.11493892
v 0.038694654 0.41290373 0.114948526
v 0.029030608 0.4244263 0.111749515
v 0.029030608 0.43018654 0.10896234
v 0.038872607 0.42703697 0.10979902
v 0.032766398 0.41957575 0.11361078
v 0.032766394 0.43465617 0.10631393
v 0.03881104 0.4174876 0.1138352
v 0.03881104 0.43612808 0.104815796
v 0.047431257 0.4368276 0.102236725
v 0.044855665 0.41895947 0.11233709
v 0.047431253 0.41503108 0.11278324
v 0.04485567 0.43403992 0.105040245
v 0.05283078 0.42981684 0.10492691
v 0.04859146 0.4234291 0.109688655
v 0.052830774 0.42149135 0.10895529
v 0.048591465 0.42918935 0.10690148
v -0.04751131 0.4368276 0.102236725
v -0.038564872 0.44238022 0.098694436
v -0.03877469 0.4398457 0.10191234
v -0.049451616 0.4386193 0.09909867
v -0.052910823 0.42981684 0.10492691
v -0.056180008 0.42988318 0.10245092
v -0.052910823 0.42149135 0.10895529
v -0.05618 0.41950867 0.10747075
v -0.04751129 0.41503108 0.11278324
v -0.049451616 0.41145855 0.11224073
v -0.03877469 0.41290373 0.114948526
v -0.038564872 0.4088076 0.11493892
v -0.03877469 0.4398457 0.10191234
v -0.038564872 0.44238022 0.098694436
v -0.027678126 0.43972927 0.10139263
v -0.030038098 0.43771833 0.10407762
v -0.02094975 0.43167913 0.10616264
v -0.024638576 0.43125808 0.10790557
v -0.02094975 0.4213046 0.11118248
v -0.024638576 0.42293262 0.111933954
v -0.027678126 0.4125685 0.11453469
v -0.030038098 0.4159218 0.114624135
v -0.038564872 0.4088076 0.11493892
v -0.03877469 0.41290373 0.114948526
v -0.029110655 0.4244263 0.111749515
v -0.029110655 0.43018654 0.10896234
v -0.038952656 0.42703697 0.10979902
v -0.03284644 0.41957575 0.11361078
v -0.03284644 0.43465617 0.10631393
v -0.038891084 0.4174876 0.1138352
v -0.038891084 0.43612808 0.104815796
v -0.04751131 0.4368276 0.102236725
v -0.04493571 0.41895947 0.11233709
v -0.04751129 0.41503108 0.11278324
v -0.04493571 0.43403992 0.105040245
v -0.052910823 0.42981684 0.10492691
v -0.04867151 0.4234291 0.109688655
v -0.052910823 0.42149135 0.10895529
v -0.04867151 0.42918935 0.10690148
v -0.05618 0.41950867 0.10747075
v -0.049451616 0.41145855 0.11224073
v -0.038564872 0.4255939 0.10681667
v -0.056180008 0.42988318 0.10245092
v -0.038564872 0.4088076 0.11493892
v -0.049451616 0.4386193 0.09909867
v -0.027678126 0.4125685 0.11453469
v -0.038564872 0.44238022 0.098694436
v -0.02094975 0.4213046 0.11118248
v -0.027678126 0.43972927 0.10139263
v -0.02094975 0.43167913 0.10616264
v 0.056099948 0.41950867 0.10747075
v 0.038484834 0.4255939 0.10681667
v 0.049371574 0.41145855 0.11224073
v 0.056099962 0.42988318 0.10245092
v 0.038484834 0.4088076 0.11493892
v 0.049371574 0.4386193 0.09909867
v 0.02759809 0.4125685 0.11453469
v 0.038484834 0.44238022 0.098694436
v 0.020869706 0.4213046 0.11118248
v 0.027598083 0.43972927 0.10139263
v 0.020869706 0.43167913 0.10616264
vt 0.910893 0.5418436
vt 0.89986724 0.5454428
vt 0.89972955 0.5454428
vt 0.9107552 0.5418436
vt 0.91770715 0.5324208
vt 0.91756934 0.5324208
vt 0.91770715 0.5207735
vt 0.91756934 0.5207735
vt 0.910893 0.5113505
vt 0.9107552 0.5113505
vt 0.89986724 0.5077513
vt 0.89972955 0.5077513
vt 0.89986724 0.5454428
vt 0.88870376 0.5418436
vt 0.89972955 0.5454428
vt 0.88884157 0.5418436
vt 0.88188964 0.5324208
vt 0.88202745 0.5324208
vt 0.88188964 0.5207735
vt 0.88202745 0.5207735
vt 0.88870376 0.5113505
vt 0.88884157 0.5113505
vt 0.89972955 0.5077513
vt 0.89986724 0.5077513
vt 0.8909474 0.52368534
vt 0.8909474 0.5295089
vt 0.89986724 0.5265971
vt 0.8943543 0.5189738
vt 0.8943543 0.5342203
vt 0.89986724 0.51717424
vt 0.89986724 0.53602
vt 0.910893 0.5418436
vt 0.90537995 0.5189738
vt 0.910893 0.5113505
vt 0.90537995 0.5342203
vt 0.91770715 0.5324208
vt 0.9087872 0.5236854
vt 0.91770715 0.5207735
vt 0.9087872 0.5295089
vt 0.910893 0.5418436
vt 0.89972955 0.5454428
vt 0.89986724 0.5454428
vt 0.9107552 0.5418436
vt 0.91770715 0.5324208
vt 0.91756934 0.5324208
vt 0.91770715 0.5207735
vt 0.91756934 0.5207735
vt 0.910893 0.5113505
vt 0.9107552 0.5113505
vt 0.89986724 0.5077513
vt 0.89972955 0.5077513
vt 0.89986724 0.5454428
vt 0.89972955 0.5454428
vt 0.88870376 0.5418436
vt 0.88884157 0.5418436
vt 0.88188964 0.5324208
vt 0.88202745 0.5324208
vt 0.88188964 0.5207735
vt 0.88202745 0.5207735
vt 0.88870376 0.5113505
vt 0.88884157 0.5113505
vt 0.89972955 0.5077513
vt 0.89986724 0.5077513
vt 0.8909474 0.52368534
vt 0.8909474 0.5295089
vt 0.89986724 0.5265971
vt 0.8943543 0.5189738
vt 0.8943543 0.5342203
vt 0.89986724 0.51717424
vt 0.89986724 0.53602
vt 0.910893 0.5418436
vt 0.90537995 0.5189738
vt 0.910893 0.5113505
vt 0.90537995 0.5342203
vt 0.91770715 0.5324208
vt 0.9087872 0.5236854
vt 0.91770715 0.5207735
vt 0.9087872 0.5295089
vt 0.91756934 0.5207735
vt 0.9107552 0.5113505
vt 0.89972955 0.5265971
vt 0.91756934 0.5324208
vt 0.89972955 0.5077513
vt 0.9107552 0.5418436
vt 0.88870376 0.5113505
vt 0.89972955 0.5454428
vt 0.88188964 0.5207735
vt 0.88870376 0.5418436
vt 0.88188964 0.5324208
vt 0.91756934 0.5207735
vt 0.89972955 0.5265971
vt 0.9107552 0.5113505
vt 0.91756934 0.5324208
vt 0.89972955 0.5077513
vt 0.9107552 0.5418436
vt 0.88870376 0.5113505
vt 0.89972955 0.5454428
vt 0.88188964 0.5207735
vt 0.88870376 0.5418436
vt 0.88188964 0.5324208
vn 0.5102143 0.80793065 0.29483795
vn 0.0782094 0.95716244 0.27878907
vn 0.06300331 0.9914281 0.11445941
vn 0.55393195 0.8220356 0.13197291
vn 0.77644676 0.4610915 0.42956385
vn 0.8594443 0.42641756 0.2819991
vn 0.77506435 0.049377218 0.6299503
vn 0.85918814 -0.043034844 0.5098466
vn 0.50802535 -0.27084935 0.8176496
vn 0.55569535 -0.40549272 0.72579485
vn 0.076706894 -0.38229603 0.9208506
vn 0.06832218 -0.5301683 0.84513533
vn 0.0782094 0.95716244 0.27878907
vn -0.4293013 0.8721507 0.23463489
vn 0.06300331 0.9914281 0.11445941
vn -0.35382697 0.85164136 0.3866696
vn -0.73471004 0.50735676 0.45032227
vn -0.61916316 0.5313983 0.57814604
vn -0.73325896 0.039408088 0.67880654
vn -0.61864024 0.11914466 0.7765879
vn -0.4368199 -0.35460734 0.8267055
vn -0.35649952 -0.23106587 0.90527153
vn 0.06832218 -0.5301683 0.84513533
vn 0.076706894 -0.38229603 0.9208506
vn -0.2830356 0.29179394 0.9136449
vn -0.2859763 0.5240021 0.8022714
vn 0.11572336 0.43134066 0.89473647
vn -0.13757668 0.0994792 0.98548293
vn -0.13543107 0.70257646 0.698602
vn 0.104890116 0.014925482 0.9943718
vn 0.10446703 0.7656511 0.6347165
vn 0.5102143 0.80793065 0.29483795
vn 0.34244528 0.07555748 0.93649465
vn 0.50802535 -0.27084935 0.8176496
vn 0.34692076 0.67908984 0.64690274
vn 0.77644676 0.4610915 0.42956385
vn 0.49457708 0.25389442 0.8312226
vn 0.77506435 0.049377218 0.6299503
vn 0.49520272 0.48516354 0.72068757
vn -0.5102138 0.80792975 0.29484114
vn -0.06300342 0.9914274 0.11446548
vn -0.0782094 0.957161 0.27879405
vn -0.5539313 0.82203543 0.13197635
vn -0.77644604 0.4610916 0.42956495
vn -0.85944337 0.426418 0.28200126
vn -0.7750644 0.049377445 0.62995005
vn -0.85918695 -0.043034315 0.50984883
vn -0.50802636 -0.27085072 0.81764865
vn -0.5556969 -0.40549394 0.7257931
vn -0.076708086 -0.3822969 0.92085016
vn -0.06832433 -0.5301717 0.84513295
vn -0.0782094 0.957161 0.27879405
vn -0.06300342 0.9914274 0.11446548
vn 0.42930022 0.8721495 0.23464133
vn 0.35382643 0.85164106 0.38667098
vn 0.7347088 0.50735617 0.45032513
vn 0.61916286 0.5313979 0.57814664
vn 0.7332598 0.039408453 0.67880565
vn 0.6186403 0.11914504 0.77658784
vn 0.43682152 -0.35460794 0.82670444
vn 0.3564999 -0.23106581 0.90527153
vn -0.06832433 -0.5301717 0.84513295
vn -0.076708086 -0.3822969 0.92085016
vn 0.28303504 0.2917924 0.91364574
vn 0.2859774 0.52400196 0.80227107
vn -0.115723 0.43133935 0.8947371
vn 0.13757682 0.09947861 0.98548293
vn 0.13543153 0.70257854 0.6985998
vn -0.10488986 0.01492512 0.9943718
vn -0.10446687 0.7656496 0.6347184
vn -0.5102138 0.80792975 0.29484114
vn -0.34244516 0.07555711 0.93649477
vn -0.50802636 -0.27085072 0.81764865
vn -0.34691948 0.679088 0.6469053
vn -0.77644604 0.4610916 0.42956495
vn -0.49457774 0.25389457 0.8312223
vn -0.7750644 0.049377445 0.62995005
vn -0.49520224 0.48516196 0.720689
vn 0.11624646 -0.4326012 -0.8940598
vn 0.116247065 -0.43260217 -0.8940593
vn 0.11624743 -0.43260124 -0.89405966
vn 0.116244905 -0.43260065 -0.89406025
vn 0.116247065 -0.43260175 -0.8940594
vn 0.11624672 -0.4326013 -0.8940598
vn 0.11624909 -0.4326022 -0.894059
vn 0.11624752 -0.43260017 -0.89406013
vn 0.11624956 -0.43260023 -0.8940599
vn 0.11624706 -0.43260133 -0.89405966
vn 0.11624837 -0.43260056 -0.8940599
vn -0.11624652 -0.43260196 -0.8940594
vn -0.116247416 -0.43260115 -0.89405966
vn -0.116247185 -0.43260264 -0.894059
vn -0.1162448 -0.43260017 -0.89406055
vn -0.116247065 -0.4326002 -0.89406025
vn -0.11624717 -0.43260178 -0.8940594
vn -0.11624843 -0.43260086 -0.8940598
vn -0.11624795 -0.43260098 -0.8940598
vn -0.11624891 -0.43259972 -0.89406013
vn -0.11624743 -0.4326022 -0.89405924
vn -0.11624885 -0.4326013 -0.8940594
g pm0025_00_Gofest2025glassSkin02_0
f 3/3/3 2/2/2 1/1/1
f 4/4/4 3/3/3 1/1/1
f 4/4/4 1/1/1 5/5/5
f 6/6/6 4/4/4 5/5/5
f 6/6/6 5/5/5 7/7/7
f 8/8/8 6/6/6 7/7/7
f 8/8/8 7/7/7 9/9/9
f 10/10/10 8/8/8 9/9/9
f 10/10/10 9/9/9 11/11/11
f 12/12/12 10/10/10 11/11/11
f 15/15/15 14/14/14 13/13/13
f 14/14/14 16/16/16 13/13/13
f 14/14/14 17/17/17 16/16/16
f 17/17/17 18/18/18 16/16/16
f 17/17/17 19/19/19 18/18/18
f 19/19/19 20/20/20 18/18/18
f 19/19/19 21/21/21 20/20/20
f 21/21/21 22/22/22 20/20/20
f 21/21/21 23/23/23 22/22/22
f 23/23/23 24/24/24 22/22/22
f 18/18/18 20/20/20 25/25/25
f 20/20/20 22/22/22 25/25/25
f 16/16/16 18/18/18 26/26/26
f 26/26/26 18/18/18 25/25/25
f 26/26/26 25/25/25 27/27/27
f 25/25/25 28/28/28 27/27/27
f 22/22/22 28/28/28 25/25/25
f 29/29/29 26/26/26 27/27/27
f 29/29/29 16/16/16 26/26/26
f 13/13/13 16/16/16 29/29/29
f 28/28/28 22/22/22 30/30/30
f 22/22/22 24/24/24 30/30/30
f 28/28/28 30/30/30 27/27/27
f 31/31/31 13/13/13 29/29/29
f 31/31/31 29/29/29 27/27/27
f 32/32/32 13/13/13 31/31/31
f 30/30/30 24/24/24 33/33/33
f 30/30/30 33/33/33 27/27/27
f 24/24/24 34/34/34 33/33/33
f 35/35/35 32/32/32 31/31/31
f 35/35/35 31/31/31 27/27/27
f 36/36/36 32/32/32 35/35/35
f 33/33/33 34/34/34 37/37/37
f 33/33/33 37/37/37 27/27/27
f 34/34/34 38/38/38 37/37/37
f 39/39/39 36/36/36 35/35/35
f 39/39/39 35/35/35 27/27/27
f 37/37/37 39/39/39 27/27/27
f 38/38/38 36/36/36 39/39/39
f 37/37/37 38/38/38 39/39/39
f 42/42/42 41/41/41 40/40/40
f 41/41/41 43/43/43 40/40/40
f 40/40/40 43/43/43 44/44/44
f 43/43/43 45/45/45 44/44/44
f 44/44/44 45/45/45 46/46/46
f 45/45/45 47/47/47 46/46/46
f 46/46/46 47/47/47 48/48/48
f 47/47/47 49/49/49 48/48/48
f 48/48/48 49/49/49 50/50/50
f 49/49/49 51/51/51 50/50/50
f 54/54/54 53/53/53 52/52/52
f 55/55/55 54/54/54 52/52/52
f 56/56/56 54/54/54 55/55/55
f 57/57/57 56/56/56 55/55/55
f 58/58/58 56/56/56 57/57/57
f 59/59/59 58/58/58 57/57/57
f 60/60/60 58/58/58 59/59/59
f 61/61/61 60/60/60 59/59/59
f 62/62/62 60/60/60 61/61/61
f 63/63/63 62/62/62 61/61/61
f 59/59/59 57/57/57 64/64/64
f 61/61/61 59/59/59 64/64/64
f 57/57/57 55/55/55 65/65/65
f 57/57/57 65/65/65 64/64/64
f 64/64/64 65/65/65 66/66/66
f 67/67/67 64/64/64 66/66/66
f 67/67/67 61/61/61 64/64/64
f 65/65/65 68/68/68 66/66/66
f 55/55/55 68/68/68 65/65/65
f 55/55/55 52/52/52 68/68/68
f 61/61/61 67/67/67 69/69/69
f 63/63/63 61/61/61 69/69/69
f 69/69/69 67/67/67 66/66/66
f 52/52/52 70/70/70 68/68/68
f 68/68/68 70/70/70 66/66/66
f 52/52/52 71/71/71 70/70/70
f 63/63/63 69/69/69 72/72/72
f 72/72/72 69/69/69 66/66/66
f 73/73/73 63/63/63 72/72/72
f 71/71/71 74/74/74 70/70/70
f 70/70/70 74/74/74 66/66/66
f 71/71/71 75/75/75 74/74/74
f 73/73/73 72/72/72 76/76/76
f 76/76/76 72/72/72 66/66/66
f 77/77/77 73/73/73 76/76/76
f 75/75/75 78/78/78 74/74/74
f 74/74/74 78/78/78 66/66/66
f 78/78/78 76/76/76 66/66/66
f 77/77/77 76/76/76 78/78/78
f 75/75/75 77/77/77 78/78/78
f 81/81/81 80/80/80 79/79/79
f 81/81/81 79/79/79 82/82/82
f 81/81/81 83/83/83 80/80/80
f 81/81/81 82/82/82 84/84/84
f 81/81/81 85/85/85 83/83/83
f 81/81/81 84/84/84 86/86/86
f 81/81/81 87/87/87 85/85/85
f 81/81/81 86/86/86 88/88/88
f 81/81/81 89/89/89 87/87/87
f 81/81/81 88/88/88 89/89/89
f 92/92/92 91/91/91 90/90/90
f 90/90/90 91/91/91 93/93/93
f 94/94/94 91/91/91 92/92/92
f 93/93/93 91/91/91 95/95/95
f 96/96/96 91/91/91 94/94/94
f 95/95/95 91/91/91 97/97/97
f 98/98/98 91/91/91 96/96/96
f 97/97/97 91/91/91 99/99/99
f 100/100/100 91/91/91 98/98/98
f 99/99/99 91/91/91 100/100/100
