g pm0019_00_MustacheSkin
v -0.2032909 0.1868901 0.09692742
v -0.2006974 0.1874711 0.09626891
v -0.2006085 0.1883522 0.09834458
v -0.2025545 0.1873582 0.09955074
v -0.1967724 0.1881013 0.1007583
v -0.2016864 0.18505 0.09971499
v -0.2017639 0.1842072 0.09762499
v -0.1986617 0.1870318 0.1020807
v -0.185264 0.1873486 0.1079995
v -0.1979235 0.1846309 0.1021968
v -0.1978261 0.1837146 0.1000736
v -0.1869834 0.1860525 0.1096706
v -0.1699194 0.186345 0.1176544
v -0.1866349 0.1833737 0.1096423
v -0.1860124 0.182237 0.1074194
v -0.1714123 0.1847468 0.1197904
v -0.1509866 0.1846247 0.1293892
v -0.1715834 0.1816974 0.1195696
v -0.1702608 0.1802668 0.1172138
v -0.1528834 0.1825911 0.1321027
v -0.1320538 0.1829045 0.1411239
v -0.1531009 0.1787168 0.1318222
v -0.1516119 0.1768959 0.1287769
v -0.1343545 0.1804353 0.1444151
v -0.1150686 0.1804475 0.1515171
v -0.1346184 0.1757362 0.1440747
v -0.132963 0.173525 0.14034
v -0.117592 0.1777343 0.1551301
v -0.0980833 0.1779905 0.1619103
v -0.1172531 0.1727662 0.1549687
v -0.1152658 0.1703992 0.1510347
v -0.1008295 0.1750333 0.1658452
v -0.08299362 0.1751204 0.1711183
v -0.09988792 0.1697962 0.1658626
v -0.09756855 0.1672735 0.1617294
v -0.08117104 0.1708458 0.1784357
v -0.08600528 0.1659223 0.1751297
v -0.09066501 0.1652332 0.165941
v -0.07047932 0.1615897 0.1854938
v -0.06783176 0.1584849 0.1798706
v -0.07030865 0.168532 0.1853926
v -0.06677356 0.1720352 0.1810161
v -0.06418297 0.1613016 0.1752139
v -0.09066501 0.1652332 0.165941
v -0.06783176 0.1584849 0.1798706
v -0.09088116 0.1689279 0.1602615
v -0.08770446 0.1738515 0.1622743
v -0.06379745 0.1683862 0.1757114
v -0.09494942 0.17009 0.157983
v -0.09756855 0.1672735 0.1617294
v -0.08299362 0.1751204 0.1711183
v -0.06677356 0.1720352 0.1810161
v -0.0980833 0.1779905 0.1619103
v -0.09464897 0.175439 0.158371
v -0.1150686 0.1804475 0.1515171
v -0.1125237 0.1780662 0.1478802
v -0.1320538 0.1829045 0.1411239
v -0.1128059 0.1730421 0.1475157
v -0.1152658 0.1703992 0.1510347
v -0.1303984 0.1806934 0.1373893
v -0.1509866 0.1846247 0.1293892
v -0.1306623 0.1759942 0.1370485
v -0.132963 0.173525 0.14034
v -0.1494976 0.1828039 0.1263439
v -0.1699194 0.186345 0.1176544
v -0.1497152 0.1789296 0.126063
v -0.1516119 0.1768959 0.1287769
v -0.1685968 0.1849144 0.1152985
v -0.185264 0.1873486 0.1079995
v -0.1687681 0.1818649 0.1150776
v -0.1702608 0.1802668 0.1172138
v -0.1846471 0.1861927 0.1057837
v -0.1967724 0.1881013 0.1007583
v -0.1843036 0.1835313 0.1057668
v -0.1860124 0.182237 0.1074194
v -0.1966848 0.1871515 0.09864761
v -0.2006085 0.1883522 0.09834458
v -0.2006974 0.1874711 0.09626891
v -0.1959552 0.184781 0.09878372
v -0.1978261 0.1837146 0.1000736
v -0.1998391 0.1851976 0.09645602
v -0.2032909 0.1868901 0.09692742
v -0.2017639 0.1842072 0.09762499
v 0.2032909 0.1868901 0.09692742
v 0.2006085 0.1883522 0.09834458
v 0.2006974 0.1874711 0.09626891
v 0.2025545 0.1873582 0.09955074
v 0.1967724 0.1881013 0.1007583
v 0.2016864 0.18505 0.09971499
v 0.2017639 0.1842072 0.09762499
v 0.1986617 0.1870318 0.1020807
v 0.185264 0.1873486 0.1079995
v 0.1979235 0.1846309 0.1021968
v 0.1978261 0.1837146 0.1000736
v 0.1869834 0.1860525 0.1096706
v 0.1699194 0.186345 0.1176544
v 0.1866349 0.1833737 0.1096423
v 0.1860124 0.182237 0.1074194
v 0.1714123 0.1847468 0.1197904
v 0.1509866 0.1846247 0.1293892
v 0.1715834 0.1816974 0.1195696
v 0.1702608 0.1802668 0.1172138
v 0.1528834 0.1825911 0.1321027
v 0.1320538 0.1829045 0.1411239
v 0.1531009 0.1787168 0.1318222
v 0.1516119 0.1768959 0.1287769
v 0.1343545 0.1804353 0.1444151
v 0.1150686 0.1804475 0.1515171
v 0.1346184 0.1757362 0.1440747
v 0.132963 0.173525 0.14034
v 0.117592 0.1777343 0.1551301
v 0.0980833 0.1779905 0.1619103
v 0.1172531 0.1727662 0.1549687
v 0.1152658 0.1703992 0.1510347
v 0.1008295 0.1750333 0.1658452
v 0.08299362 0.1751204 0.1711183
v 0.09988792 0.1697962 0.1658626
v 0.09756855 0.1672735 0.1617294
v 0.08117104 0.1708458 0.1784357
v 0.08600528 0.1659223 0.1751297
v 0.09066501 0.1652332 0.165941
v 0.07047932 0.1615897 0.1854938
v 0.06783176 0.1584849 0.1798706
v 0.07030865 0.168532 0.1853926
v 0.06677356 0.1720352 0.1810161
v 0.06418297 0.1613016 0.1752139
v 0.06783176 0.1584849 0.1798706
v 0.09066501 0.1652332 0.165941
v 0.09088116 0.1689279 0.1602615
v 0.08770446 0.1738515 0.1622743
v 0.06379745 0.1683862 0.1757114
v 0.09494942 0.17009 0.157983
v 0.09756855 0.1672735 0.1617294
v 0.08299362 0.1751204 0.1711183
v 0.06677356 0.1720352 0.1810161
v 0.0980833 0.1779905 0.1619103
v 0.09464897 0.175439 0.158371
v 0.1150686 0.1804475 0.1515171
v 0.1125237 0.1780662 0.1478802
v 0.1320538 0.1829045 0.1411239
v 0.1128059 0.1730421 0.1475157
v 0.1152658 0.1703992 0.1510347
v 0.1303984 0.1806934 0.1373893
v 0.1509866 0.1846247 0.1293892
v 0.1306623 0.1759942 0.1370485
v 0.132963 0.173525 0.14034
v 0.1494976 0.1828039 0.1263439
v 0.1699194 0.186345 0.1176544
v 0.1497152 0.1789296 0.126063
v 0.1516119 0.1768959 0.1287769
v 0.1685968 0.1849144 0.1152985
v 0.185264 0.1873486 0.1079995
v 0.1687681 0.1818649 0.1150776
v 0.1702608 0.1802668 0.1172138
v 0.1846471 0.1861927 0.1057837
v 0.1967724 0.1881013 0.1007583
v 0.1843036 0.1835313 0.1057668
v 0.1860124 0.182237 0.1074194
v 0.1966848 0.1871515 0.09864761
v 0.2006085 0.1883522 0.09834458
v 0.2006974 0.1874711 0.09626891
v 0.1959552 0.184781 0.09878372
v 0.1978261 0.1837146 0.1000736
v 0.1998391 0.1851976 0.09645602
v 0.2032909 0.1868901 0.09692742
v 0.2017639 0.1842072 0.09762499
vt 0.44526 0.9808776
vt 0.445046 0.9862954
vt 0.4514464 0.9862025
vt 0.4515084 0.9808777
vt 0.4585222 0.9857179
vt 0.4515729 0.9775069
vt 0.4488875 0.9746683
vt 0.4586661 0.9808777
vt 0.4797497 0.9850609
vt 0.4586329 0.9773206
vt 0.4562832 0.97423
vt 0.4794221 0.9808776
vt 0.5080529 0.9856725
vt 0.4798129 0.9767619
vt 0.4784702 0.9729149
vt 0.5080529 0.9808776
vt 0.5432316 0.9870238
vt 0.5080528 0.9760169
vt 0.5080529 0.9711614
vt 0.5432316 0.9808776
vt 0.5784103 0.9883752
vt 0.5432315 0.9747034
vt 0.5432316 0.9685872
vt 0.5784103 0.9808777
vt 0.6106598 0.9891453
vt 0.5784103 0.97339
vt 0.5784103 0.9660128
vt 0.6108779 0.9808776
vt 0.6429094 0.9899153
vt 0.6121299 0.9730894
vt 0.6121239 0.9651141
vt 0.6433456 0.9808776
vt 0.6719302 0.9906604
vt 0.6458495 0.9727888
vt 0.6458375 0.9642153
vt 0.6818495 0.9808776
vt 0.672887 0.9714881
vt 0.6591371 0.9630643
vt 0.703125 0.9700334
vt 0.703125 0.9592572
vt 0.703125 0.9808776
vt 0.703125 0.9914613
vt 0.453125 0.9250982
vt 0.496936 0.9180382
vt 0.453125 0.9147056
vt 0.50259 0.9274244
vt 0.4978103 0.9364389
vt 0.453125 0.9364389
vt 0.5101274 0.9277788
vt 0.510182 0.9190458
vt 0.4843668 0.9464432
vt 0.453125 0.9478169
vt 0.5134314 0.9451652
vt 0.5107905 0.9364389
vt 0.5461319 0.944543
vt 0.5448115 0.9364388
vt 0.5788324 0.9439207
vt 0.54448 0.9282998
vt 0.5445072 0.920114
vt 0.5788325 0.9364388
vt 0.6144006 0.9425784
vt 0.5788325 0.9288209
vt 0.5788324 0.9211822
vt 0.6144007 0.9364388
vt 0.6499689 0.9412361
vt 0.6144007 0.9302104
vt 0.6144006 0.9239751
vt 0.6499689 0.9364389
vt 0.67787 0.9403688
vt 0.6499689 0.9315999
vt 0.6499689 0.9267679
vt 0.6786323 0.9364388
vt 0.6987959 0.9397182
vt 0.6779034 0.9323981
vt 0.6788118 0.9283594
vt 0.7001299 0.9364388
vt 0.7057711 0.9395014
vt 0.7072958 0.9364388
vt 0.6988543 0.9329967
vt 0.700444 0.929553
vt 0.7058378 0.9331963
vt 0.711233 0.9364389
vt 0.7076548 0.9299508
vt 0.44526 0.9808776
vt 0.4514464 0.9862025
vt 0.445046 0.9862954
vt 0.4515084 0.9808777
vt 0.4585222 0.9857179
vt 0.4515729 0.9775069
vt 0.4488875 0.9746683
vt 0.4586661 0.9808777
vt 0.4797497 0.9850609
vt 0.4586329 0.9773206
vt 0.4562832 0.97423
vt 0.4794221 0.9808776
vt 0.5080529 0.9856725
vt 0.4798129 0.9767619
vt 0.4784702 0.9729149
vt 0.5080529 0.9808776
vt 0.5432316 0.9870238
vt 0.5080528 0.9760169
vt 0.5080529 0.9711614
vt 0.5432316 0.9808776
vt 0.5784103 0.9883752
vt 0.5432315 0.9747034
vt 0.5432316 0.9685872
vt 0.5784103 0.9808777
vt 0.6106598 0.9891453
vt 0.5784103 0.97339
vt 0.5784103 0.9660128
vt 0.6108779 0.9808776
vt 0.6429094 0.9899153
vt 0.6121299 0.9730894
vt 0.6121239 0.9651141
vt 0.6433456 0.9808776
vt 0.6719302 0.9906604
vt 0.6458495 0.9727888
vt 0.6458375 0.9642153
vt 0.6818495 0.9808776
vt 0.672887 0.9714881
vt 0.6591371 0.9630643
vt 0.703125 0.9700334
vt 0.703125 0.9592572
vt 0.703125 0.9808776
vt 0.703125 0.9914613
vt 0.453125 0.9250982
vt 0.453125 0.9147056
vt 0.496936 0.9180382
vt 0.50259 0.9274244
vt 0.4978103 0.9364389
vt 0.453125 0.9364389
vt 0.5101274 0.9277788
vt 0.510182 0.9190458
vt 0.4843668 0.9464432
vt 0.453125 0.9478169
vt 0.5134314 0.9451652
vt 0.5107905 0.9364389
vt 0.5461319 0.944543
vt 0.5448115 0.9364388
vt 0.5788324 0.9439207
vt 0.54448 0.9282998
vt 0.5445072 0.920114
vt 0.5788325 0.9364388
vt 0.6144006 0.9425784
vt 0.5788325 0.9288209
vt 0.5788324 0.9211822
vt 0.6144007 0.9364388
vt 0.6499689 0.9412361
vt 0.6144007 0.9302104
vt 0.6144006 0.9239751
vt 0.6499689 0.9364389
vt 0.67787 0.9403688
vt 0.6499689 0.9315999
vt 0.6499689 0.9267679
vt 0.6786323 0.9364388
vt 0.6987959 0.9397182
vt 0.6779034 0.9323981
vt 0.6788118 0.9283594
vt 0.7001299 0.9364388
vt 0.7057711 0.9395014
vt 0.7072958 0.9364388
vt 0.6988543 0.9329967
vt 0.700444 0.929553
vt 0.7058378 0.9331963
vt 0.711233 0.9364389
vt 0.7076548 0.9299508
vn -0.82523 0.3003806 -0.4782959
vn -0.09666824 0.3867393 -0.9171085
vn -0.4988481 0.8248115 -0.2661513
vn -0.8711075 0.3333766 0.3605992
vn -0.1229512 0.9915422 -0.04155589
vn -0.773694 -0.4875203 0.404625
vn -0.5180213 -0.7798887 -0.3513226
vn -0.5845569 0.4464402 0.6774839
vn 0.02100731 0.9987292 0.04581145
vn -0.6103543 -0.520862 0.5968001
vn -0.2179179 -0.9594137 -0.1789887
vn -0.4840812 0.4658981 0.7406783
vn 0.02816904 0.9981995 0.05295474
vn -0.5302522 -0.5250979 0.6656612
vn -0.1124402 -0.9872039 -0.1130737
vn -0.464686 0.4761 0.7465894
vn 0.03620236 0.9975234 0.06030313
vn -0.5333843 -0.5176839 0.6689578
vn -0.1080981 -0.9886293 -0.1045311
vn -0.4598396 0.4754964 0.749967
vn 0.006780404 0.9955792 0.09368095
vn -0.5405485 -0.5137506 0.6662339
vn -0.124509 -0.9861821 -0.1092806
vn -0.4681423 0.4696822 0.7484927
vn -0.1659555 0.9693118 0.181365
vn -0.5647487 -0.4826978 0.6693742
vn -0.1521738 -0.9831204 -0.1015737
vn -0.5596306 0.4497368 0.6960965
vn -0.500374 0.8132414 0.2970932
vn -0.6654246 -0.3478024 0.6604875
vn -0.2996086 -0.9523586 -0.05699
vn -0.6967253 0.4135823 0.5861089
vn -0.7917798 0.4901493 0.36447
vn -0.8061319 -0.06662641 0.5879729
vn -0.5914833 -0.8054386 0.0376325
vn -0.810368 0.3644513 0.4587798
vn -0.8549438 0.2706606 0.4425086
vn -0.8089781 -0.579226 0.1002577
vn -0.8549438 0.2706606 0.4425086
vn -0.7896996 -0.6097285 0.06786545
vn -0.810368 0.3644513 0.4587798
vn -0.7917798 0.4901493 0.36447
vn -0.09287027 -0.4031847 -0.910394
vn -0.8089781 -0.579226 0.1002577
vn -0.7896996 -0.6097285 0.06786545
vn 0.0478188 -0.4206975 -0.9059399
vn -0.2947747 0.8532174 -0.430265
vn -0.2537096 0.8379717 -0.4831508
vn 0.1063889 -0.4313523 -0.8958888
vn -0.5914833 -0.8054386 0.0376325
vn -0.7917798 0.4901493 0.36447
vn -0.7917798 0.4901493 0.36447
vn -0.500374 0.8132414 0.2970932
vn 0.0440511 0.8118553 -0.5821945
vn -0.1659555 0.9693118 0.181365
vn 0.3397853 0.6456175 -0.6839035
vn 0.006780404 0.9955792 0.09368095
vn 0.3188665 -0.4596719 -0.8288702
vn -0.2996086 -0.9523586 -0.05699
vn 0.4470673 0.5464488 -0.708184
vn 0.03620236 0.9975234 0.06030313
vn 0.3663081 -0.4635656 -0.8067995
vn -0.1521738 -0.9831204 -0.1015737
vn 0.4540501 0.5284666 -0.7173295
vn 0.02816904 0.9981995 0.05295474
vn 0.3743403 -0.4632319 -0.8032966
vn -0.124509 -0.9861821 -0.1092806
vn 0.4521826 0.5293967 -0.7178232
vn 0.02100731 0.9987292 0.04581145
vn 0.3853899 -0.462387 -0.7985442
vn -0.1080981 -0.9886293 -0.1045311
vn 0.4364115 0.5214128 -0.7332623
vn -0.1229512 0.9915422 -0.04155589
vn 0.3873475 -0.4613111 -0.7982192
vn -0.1124402 -0.9872039 -0.1130737
vn 0.328783 0.5046622 -0.7982593
vn -0.4988481 0.8248115 -0.2661513
vn -0.09666824 0.3867393 -0.9171085
vn 0.2816075 -0.4534221 -0.8456392
vn -0.2179179 -0.9594137 -0.1789887
vn 0.02310945 -0.4285901 -0.9032035
vn -0.82523 0.3003806 -0.4782959
vn -0.5180213 -0.7798887 -0.3513226
vn 0.8252294 0.3003796 -0.4782975
vn 0.4988481 0.8248112 -0.2661527
vn 0.0966678 0.386739 -0.9171087
vn 0.871108 0.3333761 0.3605985
vn 0.1229517 0.9915422 -0.0415566
vn 0.773694 -0.4875207 0.4046248
vn 0.5180207 -0.7798888 -0.3513232
vn 0.5845577 0.4464402 0.6774832
vn -0.02100675 0.9987292 0.0458107
vn 0.6103545 -0.5208621 0.5967998
vn 0.2179177 -0.9594136 -0.1789896
vn 0.484082 0.4658982 0.7406777
vn -0.02816877 0.9981996 0.05295363
vn 0.5302528 -0.5250984 0.6656603
vn 0.1124405 -0.9872038 -0.1130749
vn 0.4646867 0.4761001 0.7465889
vn -0.03620249 0.9975234 0.06030354
vn 0.533385 -0.5176845 0.6689568
vn 0.1080986 -0.9886291 -0.1045325
vn 0.4598399 0.4754966 0.7499668
vn -0.006783433 0.995575 0.09372559
vn 0.5405487 -0.5137509 0.6662335
vn 0.1245093 -0.986182 -0.1092816
vn 0.4681424 0.4696821 0.7484928
vn 0.1663398 0.9691673 0.1817854
vn 0.5647486 -0.4826978 0.6693742
vn 0.1521736 -0.9831204 -0.1015737
vn 0.5596303 0.4497368 0.6960968
vn 0.5027174 0.8112843 0.2984847
vn 0.6654243 -0.3478024 0.6604878
vn 0.2996086 -0.9523586 -0.05698947
vn 0.6967252 0.4135821 0.5861092
vn 0.7950234 0.4837444 0.3659632
vn 0.8061318 -0.06662638 0.5879731
vn 0.5914835 -0.8054384 0.03763298
vn 0.810368 0.3644512 0.4587798
vn 0.8549438 0.2706606 0.4425086
vn 0.8089782 -0.5792259 0.1002579
vn 0.8549438 0.2706606 0.4425086
vn 0.7896996 -0.6097285 0.06786568
vn 0.810368 0.3644512 0.4587798
vn 0.7950234 0.4837444 0.3659632
vn 0.09287085 -0.4031845 -0.910394
vn 0.7896996 -0.6097285 0.06786568
vn 0.8089782 -0.5792259 0.1002579
vn -0.04781825 -0.4206976 -0.9059399
vn 0.2947752 0.853217 -0.4302654
vn 0.25371 0.8379714 -0.4831513
vn -0.1063887 -0.4313526 -0.8958886
vn 0.5914835 -0.8054384 0.03763298
vn 0.7950234 0.4837444 0.3659632
vn 0.7950234 0.4837444 0.3659632
vn 0.5027174 0.8112843 0.2984847
vn -0.04405084 0.8118553 -0.5821947
vn 0.1663398 0.9691673 0.1817854
vn -0.3397854 0.6456175 -0.6839035
vn -0.006783433 0.995575 0.09372559
vn -0.3188668 -0.459672 -0.82887
vn 0.2996086 -0.9523586 -0.05698947
vn -0.447067 0.546449 -0.708184
vn -0.03620249 0.9975234 0.06030354
vn -0.3663081 -0.4635652 -0.8067997
vn 0.1521736 -0.9831204 -0.1015737
vn -0.4540494 0.5284669 -0.7173297
vn -0.02816877 0.9981996 0.05295363
vn -0.3743399 -0.4632313 -0.8032972
vn 0.1245093 -0.986182 -0.1092816
vn -0.4521816 0.5293972 -0.7178234
vn -0.02100675 0.9987292 0.0458107
vn -0.3853892 -0.462386 -0.7985451
vn 0.1080986 -0.9886291 -0.1045325
vn -0.4364109 0.5214133 -0.7332624
vn 0.1229517 0.9915422 -0.0415566
vn -0.3873471 -0.4613103 -0.7982199
vn 0.1124405 -0.9872038 -0.1130749
vn -0.3287823 0.5046624 -0.7982593
vn 0.4988481 0.8248112 -0.2661527
vn 0.0966678 0.386739 -0.9171087
vn -0.2816077 -0.4534213 -0.8456395
vn 0.2179177 -0.9594136 -0.1789896
vn -0.02310993 -0.4285897 -0.9032036
vn 0.8252294 0.3003796 -0.4782975
vn 0.5180207 -0.7798888 -0.3513232
g pm0019_00_MustacheSkin_0
f 3/3/3 2/2/2 1/1/1
f 4/4/4 3/3/3 1/1/1
f 3/3/3 4/4/4 5/5/5
f 6/6/6 4/4/4 1/1/1
f 7/7/7 6/6/6 1/1/1
f 4/4/4 8/8/8 5/5/5
f 4/4/4 6/6/6 8/8/8
f 5/5/5 8/8/8 9/9/9
f 6/6/6 7/7/7 10/10/10
f 6/6/6 10/10/10 8/8/8
f 7/7/7 11/11/11 10/10/10
f 8/8/8 12/12/12 9/9/9
f 8/8/8 10/10/10 12/12/12
f 9/9/9 12/12/12 13/13/13
f 10/10/10 11/11/11 14/14/14
f 10/10/10 14/14/14 12/12/12
f 11/11/11 15/15/15 14/14/14
f 12/12/12 16/16/16 13/13/13
f 12/12/12 14/14/14 16/16/16
f 13/13/13 16/16/16 17/17/17
f 14/14/14 15/15/15 18/18/18
f 14/14/14 18/18/18 16/16/16
f 15/15/15 19/19/19 18/18/18
f 16/16/16 20/20/20 17/17/17
f 16/16/16 18/18/18 20/20/20
f 17/17/17 20/20/20 21/21/21
f 18/18/18 19/19/19 22/22/22
f 18/18/18 22/22/22 20/20/20
f 19/19/19 23/23/23 22/22/22
f 20/20/20 24/24/24 21/21/21
f 20/20/20 22/22/22 24/24/24
f 21/21/21 24/24/24 25/25/25
f 22/22/22 23/23/23 26/26/26
f 22/22/22 26/26/26 24/24/24
f 23/23/23 27/27/27 26/26/26
f 24/24/24 28/28/28 25/25/25
f 24/24/24 26/26/26 28/28/28
f 25/25/25 28/28/28 29/29/29
f 26/26/26 27/27/27 30/30/30
f 26/26/26 30/30/30 28/28/28
f 27/27/27 31/31/31 30/30/30
f 28/28/28 32/32/32 29/29/29
f 28/28/28 30/30/30 32/32/32
f 33/33/33 29/29/29 32/32/32
f 30/30/30 31/31/31 34/34/34
f 30/30/30 34/34/34 32/32/32
f 31/31/31 35/35/35 34/34/34
f 36/36/36 33/33/33 32/32/32
f 32/32/32 34/34/34 36/36/36
f 34/34/34 35/35/35 37/37/37
f 34/34/34 37/37/37 36/36/36
f 35/35/35 38/38/38 37/37/37
f 39/39/39 37/37/37 38/38/38
f 36/36/36 37/37/37 39/39/39
f 40/40/40 39/39/39 38/38/38
f 41/41/41 36/36/36 39/39/39
f 36/36/36 41/41/41 33/33/33
f 41/41/41 42/42/42 33/33/33
f 45/45/45 44/44/44 43/43/43
f 44/44/44 46/46/46 43/43/43
f 43/43/43 46/46/46 47/47/47
f 48/48/48 43/43/43 47/47/47
f 49/49/49 46/46/46 44/44/44
f 50/50/50 49/49/49 44/44/44
f 48/48/48 47/47/47 51/51/51
f 52/52/52 48/48/48 51/51/51
f 53/53/53 51/51/51 47/47/47
f 54/54/54 47/47/47 46/46/46
f 54/54/54 53/53/53 47/47/47
f 49/49/49 54/54/54 46/46/46
f 55/55/55 53/53/53 54/54/54
f 56/56/56 55/55/55 54/54/54
f 56/56/56 54/54/54 49/49/49
f 57/57/57 55/55/55 56/56/56
f 58/58/58 49/49/49 50/50/50
f 58/58/58 56/56/56 49/49/49
f 59/59/59 58/58/58 50/50/50
f 60/60/60 57/57/57 56/56/56
f 60/60/60 56/56/56 58/58/58
f 61/61/61 57/57/57 60/60/60
f 62/62/62 58/58/58 59/59/59
f 62/62/62 60/60/60 58/58/58
f 63/63/63 62/62/62 59/59/59
f 64/64/64 61/61/61 60/60/60
f 64/64/64 60/60/60 62/62/62
f 65/65/65 61/61/61 64/64/64
f 66/66/66 62/62/62 63/63/63
f 66/66/66 64/64/64 62/62/62
f 67/67/67 66/66/66 63/63/63
f 68/68/68 65/65/65 64/64/64
f 68/68/68 64/64/64 66/66/66
f 69/69/69 65/65/65 68/68/68
f 70/70/70 66/66/66 67/67/67
f 70/70/70 68/68/68 66/66/66
f 71/71/71 70/70/70 67/67/67
f 72/72/72 69/69/69 68/68/68
f 72/72/72 68/68/68 70/70/70
f 73/73/73 69/69/69 72/72/72
f 74/74/74 70/70/70 71/71/71
f 74/74/74 72/72/72 70/70/70
f 75/75/75 74/74/74 71/71/71
f 76/76/76 73/73/73 72/72/72
f 72/72/72 74/74/74 76/76/76
f 77/77/77 73/73/73 76/76/76
f 78/78/78 77/77/77 76/76/76
f 79/79/79 74/74/74 75/75/75
f 74/74/74 79/79/79 76/76/76
f 80/80/80 79/79/79 75/75/75
f 78/78/78 76/76/76 81/81/81
f 76/76/76 79/79/79 81/81/81
f 81/81/81 79/79/79 80/80/80
f 78/78/78 81/81/81 82/82/82
f 83/83/83 81/81/81 80/80/80
f 81/81/81 83/83/83 82/82/82
f 86/86/86 85/85/85 84/84/84
f 85/85/85 87/87/87 84/84/84
f 87/87/87 85/85/85 88/88/88
f 87/87/87 89/89/89 84/84/84
f 89/89/89 90/90/90 84/84/84
f 91/91/91 87/87/87 88/88/88
f 89/89/89 87/87/87 91/91/91
f 91/91/91 88/88/88 92/92/92
f 90/90/90 89/89/89 93/93/93
f 93/93/93 89/89/89 91/91/91
f 94/94/94 90/90/90 93/93/93
f 95/95/95 91/91/91 92/92/92
f 93/93/93 91/91/91 95/95/95
f 95/95/95 92/92/92 96/96/96
f 94/94/94 93/93/93 97/97/97
f 97/97/97 93/93/93 95/95/95
f 98/98/98 94/94/94 97/97/97
f 99/99/99 95/95/95 96/96/96
f 97/97/97 95/95/95 99/99/99
f 99/99/99 96/96/96 100/100/100
f 98/98/98 97/97/97 101/101/101
f 101/101/101 97/97/97 99/99/99
f 102/102/102 98/98/98 101/101/101
f 103/103/103 99/99/99 100/100/100
f 101/101/101 99/99/99 103/103/103
f 103/103/103 100/100/100 104/104/104
f 102/102/102 101/101/101 105/105/105
f 105/105/105 101/101/101 103/103/103
f 106/106/106 102/102/102 105/105/105
f 107/107/107 103/103/103 104/104/104
f 105/105/105 103/103/103 107/107/107
f 107/107/107 104/104/104 108/108/108
f 106/106/106 105/105/105 109/109/109
f 109/109/109 105/105/105 107/107/107
f 110/110/110 106/106/106 109/109/109
f 111/111/111 107/107/107 108/108/108
f 109/109/109 107/107/107 111/111/111
f 111/111/111 108/108/108 112/112/112
f 110/110/110 109/109/109 113/113/113
f 113/113/113 109/109/109 111/111/111
f 114/114/114 110/110/110 113/113/113
f 115/115/115 111/111/111 112/112/112
f 113/113/113 111/111/111 115/115/115
f 112/112/112 116/116/116 115/115/115
f 114/114/114 113/113/113 117/117/117
f 117/117/117 113/113/113 115/115/115
f 118/118/118 114/114/114 117/117/117
f 116/116/116 119/119/119 115/115/115
f 117/117/117 115/115/115 119/119/119
f 118/118/118 117/117/117 120/120/120
f 120/120/120 117/117/117 119/119/119
f 121/121/121 118/118/118 120/120/120
f 120/120/120 122/122/122 121/121/121
f 120/120/120 119/119/119 122/122/122
f 122/122/122 123/123/123 121/121/121
f 119/119/119 124/124/124 122/122/122
f 124/124/124 119/119/119 116/116/116
f 125/125/125 124/124/124 116/116/116
f 128/128/128 127/127/127 126/126/126
f 129/129/129 128/128/128 126/126/126
f 129/129/129 126/126/126 130/130/130
f 126/126/126 131/131/131 130/130/130
f 129/129/129 132/132/132 128/128/128
f 132/132/132 133/133/133 128/128/128
f 130/130/130 131/131/131 134/134/134
f 131/131/131 135/135/135 134/134/134
f 134/134/134 136/136/136 130/130/130
f 130/130/130 137/137/137 129/129/129
f 136/136/136 137/137/137 130/130/130
f 137/137/137 132/132/132 129/129/129
f 136/136/136 138/138/138 137/137/137
f 138/138/138 139/139/139 137/137/137
f 137/137/137 139/139/139 132/132/132
f 138/138/138 140/140/140 139/139/139
f 132/132/132 141/141/141 133/133/133
f 139/139/139 141/141/141 132/132/132
f 141/141/141 142/142/142 133/133/133
f 140/140/140 143/143/143 139/139/139
f 139/139/139 143/143/143 141/141/141
f 140/140/140 144/144/144 143/143/143
f 141/141/141 145/145/145 142/142/142
f 143/143/143 145/145/145 141/141/141
f 145/145/145 146/146/146 142/142/142
f 144/144/144 147/147/147 143/143/143
f 143/143/143 147/147/147 145/145/145
f 144/144/144 148/148/148 147/147/147
f 145/145/145 149/149/149 146/146/146
f 147/147/147 149/149/149 145/145/145
f 149/149/149 150/150/150 146/146/146
f 148/148/148 151/151/151 147/147/147
f 147/147/147 151/151/151 149/149/149
f 148/148/148 152/152/152 151/151/151
f 149/149/149 153/153/153 150/150/150
f 151/151/151 153/153/153 149/149/149
f 153/153/153 154/154/154 150/150/150
f 152/152/152 155/155/155 151/151/151
f 151/151/151 155/155/155 153/153/153
f 152/152/152 156/156/156 155/155/155
f 153/153/153 157/157/157 154/154/154
f 155/155/155 157/157/157 153/153/153
f 157/157/157 158/158/158 154/154/154
f 156/156/156 159/159/159 155/155/155
f 157/157/157 155/155/155 159/159/159
f 156/156/156 160/160/160 159/159/159
f 160/160/160 161/161/161 159/159/159
f 157/157/157 162/162/162 158/158/158
f 162/162/162 157/157/157 159/159/159
f 162/162/162 163/163/163 158/158/158
f 159/159/159 161/161/161 164/164/164
f 162/162/162 159/159/159 164/164/164
f 162/162/162 164/164/164 163/163/163
f 164/164/164 161/161/161 165/165/165
f 164/164/164 166/166/166 163/163/163
f 166/166/166 164/164/164 165/165/165
