g pm0012_81_ScalesVSkin_rx3
v -0.0651585 -0.09116874 -6.646994E-19
v -0.04407767 -0.1197636 -6.646295E-19
v -0.04364062 -0.09999999 -7.036247E-19
v -0.03853757 -0.07918385 -6.64937E-19
v -0.02559589 -0.1098404 -6.648054E-19
v -0.0651585 -0.09116874 3.499999E-05
v -0.04364062 -0.09999999 3.499999E-05
v -0.04407767 -0.1197636 3.499999E-05
v -0.03853757 -0.07918385 3.499999E-05
v -0.02559589 -0.1098404 3.499999E-05
vt 0.8503704 -0.05170298
vt 0.8644688 -0.08059216
vt 0.8779048 -0.06547046
vt 0.8992274 -0.05104136
vt 0.8994229 -0.07889509
vt 0.8503705 -0.05170298
vt 0.8779047 -0.06547046
vt 0.8644689 -0.08059216
vt 0.8992273 -0.05104136
vt 0.8994229 -0.07889509
vn 0 0 -1
vn 0 0 -1
vn 0 0 -1
vn 0 0 -1
vn 0 0 -1
vn 0 0 1
vn 0 0 1
vn 0 0 1
vn 0 0 1
vn 0 0 1
g pm0012_81_ScalesVSkin_rx3_0
f 3/3/3 2/2/2 1/1/1
f 3/3/3 1/1/1 4/4/4
f 5/5/5 2/2/2 3/3/3
f 3/3/3 4/4/4 5/5/5
f 8/8/8 7/7/7 6/6/6
f 6/6/6 7/7/7 9/9/9
f 8/8/8 10/10/10 7/7/7
f 9/9/9 7/7/7 10/10/10
