g pm0012_81_ScalesLSkin_tz2
v 0.3927656 8.437693E-18 4.062063E-19
v 0.4027767 -0.01117391 4.45065E-19
v 0.4260689 0.0004956188 4.45065E-19
v 0.4070813 0.02554048 4.45065E-19
v 0.3886527 -0.03735936 4.45065E-19
v 0.3825659 0.01861852 4.45065E-19
v 0.3647195 -0.000747931 4.45065E-19
v 0.3927656 8.437693E-18 3.499999E-05
v 0.4260689 0.0004956188 3.499999E-05
v 0.4027767 -0.01117391 3.499999E-05
v 0.4070813 0.02554048 3.499999E-05
v 0.3886527 -0.03735936 3.499999E-05
v 0.3825659 0.01861852 3.499999E-05
v 0.3647195 -0.000747931 3.499999E-05
vt 0.9218749 -0.40625
vt 0.8915612 -0.4072526
vt 0.9019926 -0.4286277
vt 0.9537175 -0.4261165
vt 0.8811297 -0.3858771
vt 0.9535761 -0.4059796
vt 0.9534283 -0.3848984
vt 0.921875 -0.40625
vt 0.9019926 -0.4286277
vt 0.8915612 -0.4072526
vt 0.9537175 -0.4261165
vt 0.8811298 -0.3858771
vt 0.9535761 -0.4059796
vt 0.9534283 -0.3848984
vn 0 0 -1
vn 0 0 -1
vn 0 0 -1
vn 0 0 -1
vn 0 0 -1
vn 0 0 -1
vn 0 0 -1
vn 0 0 1
vn 0 0 1
vn 0 0 1
vn 0 0 1
vn 0 0 1
vn 0 0 1
vn 0 0 1
g pm0012_81_ScalesLSkin_tz2_0
f 3/3/3 2/2/2 1/1/1
f 4/4/4 3/3/3 1/1/1
f 1/1/1 2/2/2 5/5/5
f 1/1/1 6/6/6 4/4/4
f 1/1/1 5/5/5 7/7/7
f 7/7/7 6/6/6 1/1/1
f 10/10/10 9/9/9 8/8/8
f 9/9/9 11/11/11 8/8/8
f 10/10/10 8/8/8 12/12/12
f 13/13/13 8/8/8 11/11/11
f 12/12/12 8/8/8 14/14/14
f 13/13/13 14/14/14 8/8/8
