g pm0025_00_Gofest2025glassSkin01
v 0.07699201 0.38299826 0.09280624
v 0.058286827 0.38928336 0.09177655
v 0.05805312 0.38823172 0.089603156
v 0.0767583 0.38194668 0.090632856
v 0.08855245 0.36812094 0.09876169
v 0.08831874 0.3670693 0.09658831
v 0.088552445 0.35033402 0.10736813
v 0.08831873 0.34928238 0.10519475
v 0.076992 0.3364314 0.11533816
v 0.076758295 0.3353798 0.11316478
v 0.058286827 0.3317236 0.11962753
v 0.05805312 0.33067197 0.117454134
v 0.058286827 0.38928336 0.09177655
v 0.039347935 0.38352388 0.093892515
v 0.05805312 0.38823172 0.089603156
v 0.039581645 0.3845755 0.0960659
v 0.027787503 0.36962134 0.101862565
v 0.028021216 0.37067294 0.104035944
v 0.027787501 0.35183436 0.110469
v 0.028021213 0.352886 0.11264238
v 0.039347943 0.33695704 0.116424434
v 0.03958165 0.33800864 0.11859782
v 0.05805312 0.33067197 0.117454134
v 0.058286827 0.3317236 0.11962753
v 0.08831873 0.34928238 0.10519475
v 0.05805312 0.35945186 0.10352865
v 0.076758295 0.3353798 0.11316478
v 0.08831874 0.3670693 0.09658831
v 0.05805312 0.33067197 0.117454134
v 0.0767583 0.38194668 0.090632856
v 0.039347943 0.33695704 0.116424434
v 0.05805312 0.38823172 0.089603156
v 0.027787501 0.35183436 0.110469
v 0.039347935 0.38352388 0.093892515
v 0.027787503 0.36962134 0.101862565
v 0.035587616 0.35479036 0.110907294
v 0.028021213 0.352886 0.11264238
v 0.028021216 0.37067294 0.104035944
v 0.035587616 0.36813056 0.104452476
v 0.039581645 0.3845755 0.0960659
v 0.044257946 0.34363234 0.11537387
v 0.03958165 0.33800864 0.11859782
v 0.04425794 0.3785575 0.09847494
v 0.058286827 0.38928336 0.09177655
v 0.058286827 0.33891857 0.116146155
v 0.058286827 0.3317236 0.11962753
v 0.058286827 0.3820884 0.09525793
v 0.07699201 0.38299826 0.09280624
v 0.0723157 0.34244946 0.112929136
v 0.076992 0.3364314 0.11533816
v 0.072315715 0.37737456 0.0960302
v 0.08855245 0.36812094 0.09876169
v 0.08098604 0.35287634 0.10695161
v 0.088552445 0.35033402 0.10736813
v 0.08098605 0.36621657 0.100496784
v 0.058286827 0.34611353 0.11266478
v 0.06763941 0.34846747 0.1105201
v 0.058286827 0.36050346 0.105702035
v 0.04893424 0.34925604 0.11214993
v 0.07341964 0.35541874 0.10653508
v 0.073419645 0.3643122 0.10223186
v 0.04315402 0.35669476 0.10917221
v 0.06763942 0.37175086 0.09925414
v 0.04315402 0.36558822 0.10486899
v 0.058286827 0.3748934 0.098739296
v 0.04893424 0.37253946 0.100883976
vt 0.85565007 0.55884856
vt 0.8393104 0.56418246
vt 0.83910626 0.56418246
vt 0.8554456 0.55884856
vt 0.86574835 0.54488426
vt 0.8655442 0.54488426
vt 0.86574835 0.5276235
vt 0.8655442 0.5276235
vt 0.85565007 0.513659
vt 0.8554456 0.513659
vt 0.8393104 0.50832516
vt 0.83910626 0.50832516
vt 0.8393104 0.56418246
vt 0.8227666 0.55884856
vt 0.83910626 0.56418246
vt 0.82297045 0.55884856
vt 0.8126683 0.54488426
vt 0.8128722 0.54488426
vt 0.8126683 0.52762336
vt 0.8128722 0.52762336
vt 0.8227666 0.513659
vt 0.82297045 0.513659
vt 0.83910626 0.50832516
vt 0.8393104 0.50832516
vt 0.8655442 0.5276235
vt 0.83910626 0.5362538
vt 0.8554456 0.513659
vt 0.8655442 0.54488426
vt 0.83910626 0.50832516
vt 0.8554456 0.55884856
vt 0.8227666 0.513659
vt 0.83910626 0.56418246
vt 0.8126683 0.52762336
vt 0.8227666 0.55884856
vt 0.8126683 0.54488426
vt 0.81948173 0.529781
vt 0.8128722 0.52762336
vt 0.8128722 0.54488426
vt 0.81948173 0.54272664
vt 0.82297045 0.55884856
vt 0.82705545 0.51930773
vt 0.82297045 0.513659
vt 0.82705545 0.5531999
vt 0.8393104 0.56418246
vt 0.8393104 0.5153073
vt 0.8393104 0.50832516
vt 0.8393104 0.5572003
vt 0.85565007 0.55884856
vt 0.8515651 0.51930773
vt 0.85565007 0.513659
vt 0.8515651 0.5531999
vt 0.86574835 0.54488426
vt 0.85913885 0.5297811
vt 0.86574835 0.5276235
vt 0.85913885 0.54272664
vt 0.8393104 0.5222895
vt 0.84748024 0.5249564
vt 0.8393104 0.5362538
vt 0.8311404 0.5249564
vt 0.8525294 0.5319387
vt 0.8525294 0.54056907
vt 0.8260913 0.53193855
vt 0.84748024 0.54755116
vt 0.8260913 0.54056907
vt 0.8393104 0.5502181
vt 0.8311404 0.54755116
vn 0.9466322 -0.31807515 0.05211103
vn 0.9466304 0.23825659 -0.21708217
vn 0.9466314 0.23825392 -0.21708094
vn 0.94663113 -0.31807816 0.052112576
vn 0.5850496 -0.7529119 0.3013978
vn 0.5850511 -0.75291103 0.30139711
vn -7.748604E-07 -0.9001616 0.43555593
vn -2.9802325E-07 -0.90016174 0.43555588
vn -0.58505034 -0.7035817 0.4033471
vn -0.58505154 -0.70358086 0.40334678
vn -0.94663256 -0.23825349 0.21707654
vn -0.9466318 -0.2382556 0.21707742
vn 0.9466304 0.23825659 -0.21708217
vn 0.5850455 0.70357937 -0.4033582
vn 0.9466314 0.23825392 -0.21708094
vn 0.5850469 0.70357835 -0.4033579
vn 7.152558E-07 0.90016204 -0.43555528
vn 2.3841858E-07 0.90016204 -0.43555525
vn -0.5850502 0.7529176 -0.30138242
vn -0.58505154 0.75291675 -0.30138183
vn -0.94663167 0.31807828 -0.052103467
vn -0.94663256 0.3180759 -0.052102212
vn -0.9466318 -0.2382556 0.21707742
vn -0.94663256 -0.23825349 0.21707654
vn -0.09634554 -0.43352744 -0.8959752
vn -0.09634613 -0.43352798 -0.8959748
vn -0.09634627 -0.43352735 -0.8959752
vn -0.09634564 -0.4335273 -0.8959752
vn -0.0963465 -0.4335284 -0.89597464
vn -0.09634626 -0.43352798 -0.8959748
vn -0.09634643 -0.43352827 -0.89597464
vn -0.096346386 -0.43352842 -0.89597464
vn -0.096346445 -0.43352774 -0.8959749
vn -0.09634592 -0.43352836 -0.8959747
vn -0.09634607 -0.4335285 -0.8959745
vn -0.15877481 0.7139535 0.68195385
vn -0.26710343 0.7962666 0.5427847
vn 0.07786953 0.8799756 0.46859276
vn 0.08709808 0.77615035 0.6245035
vn 0.4224983 0.767287 0.4824581
vn -0.31525055 0.5309544 0.7865777
vn -0.49221596 0.53760755 0.6846178
vn 0.3331634 0.69324523 0.639072
vn 0.6464655 0.48959166 0.58513445
vn -0.31959653 0.2917664 0.90151566
vn -0.49781102 0.20070398 0.84374285
vn 0.48963016 0.49701348 0.7164076
vn 0.651484 0.15201592 0.74327636
vn -0.16508137 0.088276885 0.9823214
vn -0.28530338 -0.0887159 0.95432246
vn 0.49383482 0.25719067 0.8306504
vn 0.43851024 -0.120025754 0.8906754
vn 0.08702506 0.0025346666 0.9962029
vn 0.074631326 -0.21718328 0.9732737
vn 0.33922938 0.06684296 0.9383259
vn -0.15418126 0.3543096 0.9223301
vn -0.060887292 0.2303941 0.9711907
vn 0.09640154 0.4307372 0.8973139
vn -0.15299265 0.5008288 0.85191774
vn 0.09293108 0.17640717 0.97992057
vn 0.24690932 0.21718596 0.94438666
vn -0.057245314 0.6148629 0.7865536
vn 0.34032378 0.3333534 0.87923557
vn 0.09306503 0.6519051 0.75256807
vn 0.339131 0.47995543 0.8090939
vn 0.2434121 0.60217226 0.7603546
g pm0025_00_Gofest2025glassSkin01_0
f 3/3/3 2/2/2 1/1/1
f 4/4/4 3/3/3 1/1/1
f 4/4/4 1/1/1 5/5/5
f 6/6/6 4/4/4 5/5/5
f 6/6/6 5/5/5 7/7/7
f 8/8/8 6/6/6 7/7/7
f 8/8/8 7/7/7 9/9/9
f 10/10/10 8/8/8 9/9/9
f 10/10/10 9/9/9 11/11/11
f 12/12/12 10/10/10 11/11/11
f 15/15/15 14/14/14 13/13/13
f 14/14/14 16/16/16 13/13/13
f 14/14/14 17/17/17 16/16/16
f 17/17/17 18/18/18 16/16/16
f 17/17/17 19/19/19 18/18/18
f 19/19/19 20/20/20 18/18/18
f 19/19/19 21/21/21 20/20/20
f 21/21/21 22/22/22 20/20/20
f 21/21/21 23/23/23 22/22/22
f 23/23/23 24/24/24 22/22/22
f 27/27/27 26/26/26 25/25/25
f 25/25/25 26/26/26 28/28/28
f 29/29/29 26/26/26 27/27/27
f 28/28/28 26/26/26 30/30/30
f 31/31/31 26/26/26 29/29/29
f 30/30/30 26/26/26 32/32/32
f 33/33/33 26/26/26 31/31/31
f 32/32/32 26/26/26 34/34/34
f 35/35/35 26/26/26 33/33/33
f 34/34/34 26/26/26 35/35/35
f 38/38/38 37/37/37 36/36/36
f 39/39/39 38/38/38 36/36/36
f 40/40/40 38/38/38 39/39/39
f 36/36/36 37/37/37 41/41/41
f 37/37/37 42/42/42 41/41/41
f 43/43/43 40/40/40 39/39/39
f 44/44/44 40/40/40 43/43/43
f 41/41/41 42/42/42 45/45/45
f 42/42/42 46/46/46 45/45/45
f 47/47/47 44/44/44 43/43/43
f 48/48/48 44/44/44 47/47/47
f 45/45/45 46/46/46 49/49/49
f 46/46/46 50/50/50 49/49/49
f 51/51/51 48/48/48 47/47/47
f 52/52/52 48/48/48 51/51/51
f 49/49/49 50/50/50 53/53/53
f 50/50/50 54/54/54 53/53/53
f 54/54/54 52/52/52 55/55/55
f 55/55/55 52/52/52 51/51/51
f 53/53/53 54/54/54 55/55/55
f 41/41/41 45/45/45 56/56/56
f 45/45/45 49/49/49 57/57/57
f 56/56/56 45/45/45 57/57/57
f 56/56/56 57/57/57 58/58/58
f 59/59/59 56/56/56 58/58/58
f 59/59/59 41/41/41 56/56/56
f 57/57/57 60/60/60 58/58/58
f 57/57/57 49/49/49 60/60/60
f 49/49/49 53/53/53 60/60/60
f 36/36/36 41/41/41 59/59/59
f 60/60/60 53/53/53 61/61/61
f 53/53/53 55/55/55 61/61/61
f 60/60/60 61/61/61 58/58/58
f 62/62/62 36/36/36 59/59/59
f 62/62/62 59/59/59 58/58/58
f 39/39/39 36/36/36 62/62/62
f 61/61/61 55/55/55 63/63/63
f 61/61/61 63/63/63 58/58/58
f 55/55/55 51/51/51 63/63/63
f 64/64/64 39/39/39 62/62/62
f 64/64/64 62/62/62 58/58/58
f 43/43/43 39/39/39 64/64/64
f 63/63/63 51/51/51 65/65/65
f 63/63/63 65/65/65 58/58/58
f 51/51/51 47/47/47 65/65/65
f 66/66/66 64/64/64 58/58/58
f 66/66/66 43/43/43 64/64/64
f 65/65/65 66/66/66 58/58/58
f 47/47/47 43/43/43 66/66/66
f 65/65/65 47/47/47 66/66/66
