g pm0025_00_Gofest2025glassSkin01
v 0.07699201 0.3829983 0.09280624
v 0.05828683 0.3892834 0.09177655
v 0.05805312 0.3882317 0.08960316
v 0.0767583 0.3819467 0.09063286
v 0.08855245 0.3681209 0.09876169
v 0.08831874 0.3670693 0.09658831
v 0.08855245 0.350334 0.1073681
v 0.08831873 0.3492824 0.1051947
v 0.076992 0.3364314 0.1153382
v 0.0767583 0.3353798 0.1131648
v 0.05828683 0.3317236 0.1196275
v 0.05805312 0.330672 0.1174541
v 0.05828683 0.3892834 0.09177655
v 0.03934794 0.3835239 0.09389251
v 0.05805312 0.3882317 0.08960316
v 0.03958165 0.3845755 0.0960659
v 0.0277875 0.3696213 0.1018626
v 0.02802122 0.3706729 0.1040359
v 0.0277875 0.3518344 0.110469
v 0.02802121 0.352886 0.1126424
v 0.03934794 0.336957 0.1164244
v 0.03958165 0.3380086 0.1185978
v 0.05805312 0.330672 0.1174541
v 0.05828683 0.3317236 0.1196275
v 0.08831873 0.3492824 0.1051947
v 0.05805312 0.3594519 0.1035286
v 0.0767583 0.3353798 0.1131648
v 0.08831874 0.3670693 0.09658831
v 0.05805312 0.330672 0.1174541
v 0.0767583 0.3819467 0.09063286
v 0.03934794 0.336957 0.1164244
v 0.05805312 0.3882317 0.08960316
v 0.0277875 0.3518344 0.110469
v 0.03934794 0.3835239 0.09389251
v 0.0277875 0.3696213 0.1018626
v 0.03558762 0.3547904 0.1109073
v 0.02802121 0.352886 0.1126424
v 0.02802122 0.3706729 0.1040359
v 0.03558762 0.3681306 0.1044525
v 0.03958165 0.3845755 0.0960659
v 0.04425795 0.3436323 0.1153739
v 0.03958165 0.3380086 0.1185978
v 0.04425794 0.3785575 0.09847494
v 0.05828683 0.3892834 0.09177655
v 0.05828683 0.3389186 0.1161462
v 0.05828683 0.3317236 0.1196275
v 0.05828683 0.3820884 0.09525793
v 0.07699201 0.3829983 0.09280624
v 0.0723157 0.3424495 0.1129291
v 0.076992 0.3364314 0.1153382
v 0.07231572 0.3773746 0.0960302
v 0.08855245 0.3681209 0.09876169
v 0.08098604 0.3528763 0.1069516
v 0.08855245 0.350334 0.1073681
v 0.08098605 0.3662166 0.1004968
v 0.05828683 0.3461135 0.1126648
v 0.06763941 0.3484675 0.1105201
v 0.05828683 0.3605035 0.105702
v 0.04893424 0.349256 0.1121499
v 0.07341964 0.3554187 0.1065351
v 0.07341965 0.3643122 0.1022319
v 0.04315402 0.3566948 0.1091722
v 0.06763942 0.3717509 0.09925414
v 0.04315402 0.3655882 0.104869
v 0.05828683 0.3748934 0.0987393
v 0.04893424 0.3725395 0.100884
vt 0.8556501 0.5588486
vt 0.8393104 0.5641825
vt 0.8391063 0.5641825
vt 0.8554456 0.5588486
vt 0.8657483 0.5448843
vt 0.8655442 0.5448843
vt 0.8657483 0.5276235
vt 0.8655442 0.5276235
vt 0.8556501 0.513659
vt 0.8554456 0.513659
vt 0.8393104 0.5083252
vt 0.8391063 0.5083252
vt 0.8393104 0.5641825
vt 0.8227666 0.5588486
vt 0.8391063 0.5641825
vt 0.8229704 0.5588486
vt 0.8126683 0.5448843
vt 0.8128722 0.5448843
vt 0.8126683 0.5276234
vt 0.8128722 0.5276234
vt 0.8227666 0.513659
vt 0.8229704 0.513659
vt 0.8391063 0.5083252
vt 0.8393104 0.5083252
vt 0.8655442 0.5276235
vt 0.8391063 0.5362538
vt 0.8554456 0.513659
vt 0.8655442 0.5448843
vt 0.8391063 0.5083252
vt 0.8554456 0.5588486
vt 0.8227666 0.513659
vt 0.8391063 0.5641825
vt 0.8126683 0.5276234
vt 0.8227666 0.5588486
vt 0.8126683 0.5448843
vt 0.8194817 0.529781
vt 0.8128722 0.5276234
vt 0.8128722 0.5448843
vt 0.8194817 0.5427266
vt 0.8229704 0.5588486
vt 0.8270555 0.5193077
vt 0.8229704 0.513659
vt 0.8270555 0.5531999
vt 0.8393104 0.5641825
vt 0.8393104 0.5153073
vt 0.8393104 0.5083252
vt 0.8393104 0.5572003
vt 0.8556501 0.5588486
vt 0.8515651 0.5193077
vt 0.8556501 0.513659
vt 0.8515651 0.5531999
vt 0.8657483 0.5448843
vt 0.8591388 0.5297811
vt 0.8657483 0.5276235
vt 0.8591388 0.5427266
vt 0.8393104 0.5222895
vt 0.8474802 0.5249564
vt 0.8393104 0.5362538
vt 0.8311404 0.5249564
vt 0.8525294 0.5319387
vt 0.8525294 0.5405691
vt 0.8260913 0.5319386
vt 0.8474802 0.5475512
vt 0.8260913 0.5405691
vt 0.8393104 0.5502181
vt 0.8311404 0.5475512
vn 0.9466322 -0.3180752 0.05211103
vn 0.9466304 0.2382566 -0.2170822
vn 0.9466314 0.2382539 -0.2170809
vn 0.9466311 -0.3180782 0.05211258
vn 0.5850496 -0.7529119 0.3013978
vn 0.5850511 -0.752911 0.3013971
vn -7.748604E-07 -0.9001616 0.4355559
vn -2.980233E-07 -0.9001617 0.4355559
vn -0.5850503 -0.7035817 0.4033471
vn -0.5850515 -0.7035809 0.4033468
vn -0.9466326 -0.2382535 0.2170765
vn -0.9466318 -0.2382556 0.2170774
vn 0.9466304 0.2382566 -0.2170822
vn 0.5850455 0.7035794 -0.4033582
vn 0.9466314 0.2382539 -0.2170809
vn 0.5850469 0.7035784 -0.4033579
vn 7.152558E-07 0.900162 -0.4355553
vn 2.384186E-07 0.900162 -0.4355552
vn -0.5850502 0.7529176 -0.3013824
vn -0.5850515 0.7529168 -0.3013818
vn -0.9466317 0.3180783 -0.05210347
vn -0.9466326 0.3180759 -0.05210221
vn -0.9466318 -0.2382556 0.2170774
vn -0.9466326 -0.2382535 0.2170765
vn -0.09634554 -0.4335274 -0.8959752
vn -0.09634613 -0.433528 -0.8959748
vn -0.09634627 -0.4335274 -0.8959752
vn -0.09634564 -0.4335273 -0.8959752
vn -0.0963465 -0.4335284 -0.8959746
vn -0.09634626 -0.433528 -0.8959748
vn -0.09634643 -0.4335283 -0.8959746
vn -0.09634639 -0.4335284 -0.8959746
vn -0.09634645 -0.4335277 -0.8959749
vn -0.09634592 -0.4335284 -0.8959747
vn -0.09634607 -0.4335285 -0.8959745
vn -0.1587748 0.7139535 0.6819538
vn -0.2671034 0.7962666 0.5427847
vn 0.07786953 0.8799756 0.4685928
vn 0.08709808 0.7761503 0.6245035
vn 0.4224983 0.767287 0.4824581
vn -0.3152505 0.5309544 0.7865777
vn -0.492216 0.5376076 0.6846178
vn 0.3331634 0.6932452 0.639072
vn 0.6464655 0.4895917 0.5851344
vn -0.3195965 0.2917664 0.9015157
vn -0.497811 0.200704 0.8437428
vn 0.4896302 0.4970135 0.7164076
vn 0.651484 0.1520159 0.7432764
vn -0.1650814 0.08827689 0.9823214
vn -0.2853034 -0.0887159 0.9543225
vn 0.4938348 0.2571907 0.8306504
vn 0.4385102 -0.1200258 0.8906754
vn 0.08702506 0.002534667 0.9962029
vn 0.07463133 -0.2171833 0.9732737
vn 0.3392294 0.06684296 0.9383259
vn -0.1541813 0.3543096 0.9223301
vn -0.06088729 0.2303941 0.9711907
vn 0.09640154 0.4307372 0.8973139
vn -0.1529927 0.5008288 0.8519177
vn 0.09293108 0.1764072 0.9799206
vn 0.2469093 0.217186 0.9443867
vn -0.05724531 0.6148629 0.7865536
vn 0.3403238 0.3333534 0.8792356
vn 0.09306503 0.6519051 0.7525681
vn 0.339131 0.4799554 0.8090939
vn 0.2434121 0.6021723 0.7603546
g pm0025_00_Gofest2025glassSkin01_0
f 3/3/3 2/2/2 1/1/1
f 4/4/4 3/3/3 1/1/1
f 4/4/4 1/1/1 5/5/5
f 6/6/6 4/4/4 5/5/5
f 6/6/6 5/5/5 7/7/7
f 8/8/8 6/6/6 7/7/7
f 8/8/8 7/7/7 9/9/9
f 10/10/10 8/8/8 9/9/9
f 10/10/10 9/9/9 11/11/11
f 12/12/12 10/10/10 11/11/11
f 15/15/15 14/14/14 13/13/13
f 14/14/14 16/16/16 13/13/13
f 14/14/14 17/17/17 16/16/16
f 17/17/17 18/18/18 16/16/16
f 17/17/17 19/19/19 18/18/18
f 19/19/19 20/20/20 18/18/18
f 19/19/19 21/21/21 20/20/20
f 21/21/21 22/22/22 20/20/20
f 21/21/21 23/23/23 22/22/22
f 23/23/23 24/24/24 22/22/22
f 27/27/27 26/26/26 25/25/25
f 25/25/25 26/26/26 28/28/28
f 29/29/29 26/26/26 27/27/27
f 28/28/28 26/26/26 30/30/30
f 31/31/31 26/26/26 29/29/29
f 30/30/30 26/26/26 32/32/32
f 33/33/33 26/26/26 31/31/31
f 32/32/32 26/26/26 34/34/34
f 35/35/35 26/26/26 33/33/33
f 34/34/34 26/26/26 35/35/35
f 38/38/38 37/37/37 36/36/36
f 39/39/39 38/38/38 36/36/36
f 40/40/40 38/38/38 39/39/39
f 36/36/36 37/37/37 41/41/41
f 37/37/37 42/42/42 41/41/41
f 43/43/43 40/40/40 39/39/39
f 44/44/44 40/40/40 43/43/43
f 41/41/41 42/42/42 45/45/45
f 42/42/42 46/46/46 45/45/45
f 47/47/47 44/44/44 43/43/43
f 48/48/48 44/44/44 47/47/47
f 45/45/45 46/46/46 49/49/49
f 46/46/46 50/50/50 49/49/49
f 51/51/51 48/48/48 47/47/47
f 52/52/52 48/48/48 51/51/51
f 49/49/49 50/50/50 53/53/53
f 50/50/50 54/54/54 53/53/53
f 54/54/54 52/52/52 55/55/55
f 55/55/55 52/52/52 51/51/51
f 53/53/53 54/54/54 55/55/55
f 41/41/41 45/45/45 56/56/56
f 45/45/45 49/49/49 57/57/57
f 56/56/56 45/45/45 57/57/57
f 56/56/56 57/57/57 58/58/58
f 59/59/59 56/56/56 58/58/58
f 59/59/59 41/41/41 56/56/56
f 57/57/57 60/60/60 58/58/58
f 57/57/57 49/49/49 60/60/60
f 49/49/49 53/53/53 60/60/60
f 36/36/36 41/41/41 59/59/59
f 60/60/60 53/53/53 61/61/61
f 53/53/53 55/55/55 61/61/61
f 60/60/60 61/61/61 58/58/58
f 62/62/62 36/36/36 59/59/59
f 62/62/62 59/59/59 58/58/58
f 39/39/39 36/36/36 62/62/62
f 61/61/61 55/55/55 63/63/63
f 61/61/61 63/63/63 58/58/58
f 55/55/55 51/51/51 63/63/63
f 64/64/64 39/39/39 62/62/62
f 64/64/64 62/62/62 58/58/58
f 43/43/43 39/39/39 64/64/64
f 63/63/63 51/51/51 65/65/65
f 63/63/63 65/65/65 58/58/58
f 51/51/51 47/47/47 65/65/65
f 66/66/66 64/64/64 58/58/58
f 66/66/66 43/43/43 64/64/64
f 65/65/65 66/66/66 58/58/58
f 47/47/47 43/43/43 66/66/66
f 65/65/65 47/47/47 66/66/66
