g pm0025_00_Wcs2024Glass2
v 0.1031045 0.4559534 -0.01304785
v 0.1031045 0.4666894 -0.02215443
v 0.1063276 0.4717228 -0.01622038
v 0.1063276 0.4609869 -0.0071138
v 0.1031043 0.4419294 -0.001152231
v 0.1141089 0.4738077 -0.01376239
v 0.1063274 0.4469628 0.004781842
v 0.1031037 0.4279058 0.010743
v 0.1141089 0.4630717 -0.004655811
v 0.1218902 0.4717228 -0.01622036
v 0.1063268 0.4329391 0.01667716
v 0.1031023 0.4138822 0.02263826
v 0.1141087 0.4490476 0.007239913
v 0.1218902 0.4609868 -0.007113774
v 0.1251133 0.4666893 -0.02215438
v 0.1063254 0.4189154 0.02857255
v 0.1030992 0.3998583 0.0345338
v 0.1141081 0.4350238 0.01913537
v 0.12189 0.4469626 0.004782031
v 0.1251133 0.4559533 -0.01304779
v 0.1218902 0.4616559 -0.02808845
v 0.1063223 0.4048912 0.04046833
v 0.103093 0.3858334 0.04643017
v 0.1141067 0.4209996 0.03103109
v 0.1218894 0.4329385 0.01667767
v 0.1251131 0.4419291 -0.001151988
v 0.1218902 0.45092 -0.01898187
v 0.1141089 0.459571 -0.03054641
v 0.1063161 0.3908657 0.0523652
v 0.1030804 0.3718143 0.05832163
v 0.1141036 0.4069747 0.04292747
v 0.1218879 0.418914 0.02857369
v 0.1251125 0.427905 0.01074373
v 0.12189 0.4368957 -0.007086062
v 0.1141089 0.448835 -0.02143983
v 0.1063276 0.4616559 -0.02808847
v 0.1063036 0.3768453 0.06425772
v 0.103053 0.3578021 0.0702072
v 0.1140974 0.3929478 0.05482552
v 0.1218849 0.4048884 0.04047067
v 0.1251111 0.4138803 0.02263989
v 0.1218894 0.4228716 0.00480958
v 0.1141087 0.4348108 -0.009544104
v 0.1063276 0.45092 -0.01898189
v 0.1031045 0.4666894 -0.02215443
v 0.1031045 0.4559534 -0.01304785
v 0.1063274 0.4368959 -0.007086248
v 0.1031043 0.4419294 -0.001152231
v 0.1141081 0.420787 0.002351347
v 0.1063268 0.4228722 0.004809069
v 0.1031037 0.4279058 0.010743
v 0.1218879 0.4088471 0.0167056
v 0.1141067 0.4067629 0.01424707
v 0.1063254 0.4088485 0.01670446
v 0.1031023 0.4138822 0.02263826
v 0.125108 0.3998544 0.03453711
v 0.1218849 0.3948215 0.02860258
v 0.1141036 0.392738 0.02614344
v 0.1063223 0.3948243 0.02860024
v 0.1030992 0.3998583 0.0345338
v 0.1218787 0.3908601 0.05236989
v 0.1251018 0.3858255 0.04643682
v 0.1218787 0.3807932 0.0405018
v 0.1140974 0.3787111 0.03804151
v 0.1063161 0.3807988 0.04049711
v 0.103093 0.3858334 0.04643017
v 0.1140848 0.3789245 0.06672054
v 0.1218661 0.3768338 0.06426746
v 0.1250892 0.371798 0.05833543
v 0.1218661 0.3667669 0.05239937
v 0.1140848 0.3646878 0.04993652
v 0.1063035 0.3667784 0.05238963
v 0.1030804 0.3718143 0.05832163
v 0.1062761 0.36283 0.07614589
v 0.1029841 0.34381 0.08207569
v 0.1140574 0.3649018 0.07861501
v 0.1062072 0.3488288 0.08802219
v 0.1028142 0.3298768 0.09389432
v 0.1062761 0.3527632 0.0642778
v 0.103053 0.3578021 0.0702072
v 0.1140574 0.3506651 0.061831
v 0.1218387 0.3628037 0.07616823
v 0.106037 0.3348729 0.09986003
v 0.1006498 0.3187843 0.1033033
v 0.1139883 0.3508783 0.09051021
v 0.1062072 0.3387619 0.07615411
v 0.1029841 0.34381 0.08207569
v 0.1250618 0.3577648 0.07023883
v 0.1036834 0.3229874 0.1099416
v 0.09331717 0.3096488 0.1110523
v 0.1138174 0.3368677 0.1023944
v 0.1217695 0.3487579 0.08808231
v 0.1218387 0.3527368 0.06430014
v 0.09571787 0.3130422 0.1183775
v 0.08108538 0.3014646 0.1179944
v 0.1110073 0.3230678 0.1140999
v 0.1215978 0.3346927 0.1000129
v 0.1249926 0.3437098 0.08216071
v 0.1217695 0.338691 0.07621422
v 0.08303718 0.304542 0.1255877
v 0.07376337 0.2974805 0.1213739
v 0.07568434 0.3005407 0.1289817
v 0.1015137 0.3111677 0.124194
v 0.08774927 0.3019046 0.1320512
v 0.08032198 0.2978619 0.1354804
v 0.1183312 0.3189784 0.1133422
v 0.1248205 0.3296219 0.09411053
v 0.1139883 0.3366415 0.07372621
v 0.1073095 0.3051233 0.1250945
v 0.09246133 0.2950974 0.1335988
v 0.0849596 0.2910132 0.1370632
v 0.1213649 0.3131147 0.1081124
v 0.1215978 0.3246258 0.08814482
v 0.1138174 0.3226309 0.0856104
v 0.1097102 0.2984498 0.1205517
v 0.09441315 0.2881079 0.129324
v 0.08688056 0.2840066 0.1328029
v 0.1183312 0.3089115 0.1014741
v 0.106037 0.324806 0.08799193
v 0.1028142 0.3298768 0.09389432
v 0.1073095 0.2950564 0.1132265
v 0.09246133 0.2850305 0.1217308
v 0.0849596 0.2809463 0.1251951
v 0.1110073 0.3088311 0.09731587
v 0.1036834 0.3129205 0.09807356
v 0.1006498 0.3187843 0.1033033
v 0.1015137 0.296931 0.10741
v 0.08774927 0.2876679 0.1152672
v 0.08032198 0.2836251 0.1186964
v 0.09571787 0.3029754 0.1065094
v 0.09331717 0.3096488 0.1110523
v 0.08303718 0.2944751 0.1137196
v 0.07568434 0.2904738 0.1171136
v 0.08108538 0.3014646 0.1179944
v 0.07376337 0.2974805 0.1213739
v 0.1063276 0.4616559 -0.02808847
v 0.1141089 0.459571 -0.03054641
v 0.1141089 0.4666893 -0.0221544
v 0.1031045 0.4666894 -0.02215443
v 0.1218902 0.4616559 -0.02808845
v 0.1063276 0.4717228 -0.01622038
v 0.1251133 0.4666893 -0.02215438
v 0.1141089 0.4738077 -0.01376239
v 0.1218902 0.4717228 -0.01622036
v 0.07568434 0.3005407 0.1289817
v 0.08032198 0.2978619 0.1354804
v 0.08032197 0.2907435 0.1270884
v 0.07376337 0.2974805 0.1213739
v 0.0849596 0.2910132 0.1370632
v 0.07568434 0.2904738 0.1171136
v 0.08688056 0.2840066 0.1328029
v 0.08032198 0.2836251 0.1186964
v 0.0849596 0.2809463 0.1251951
vt 0.8218613 0.5345277
vt 0.8218613 0.5692632
vt 0.8417462 0.5692632
vt 0.8417462 0.5345277
vt 0.8218613 0.4911111
vt 0.8616309 0.5692632
vt 0.8417462 0.4911111
vt 0.8218613 0.4476959
vt 0.8616309 0.5345277
vt 0.8815155 0.5692632
vt 0.8417462 0.4476959
vt 0.8218613 0.4042806
vt 0.8616309 0.4911111
vt 0.8815155 0.5345277
vt 0.9014002 0.5692632
vt 0.8417462 0.4042806
vt 0.8218613 0.3608643
vt 0.8616309 0.4476959
vt 0.8815155 0.4911111
vt 0.9014002 0.5345277
vt 0.9212849 0.5692632
vt 0.8417462 0.3608643
vt 0.8218613 0.317445
vt 0.8616309 0.4042806
vt 0.8815155 0.4476959
vt 0.9014002 0.4911111
vt 0.9212849 0.5345277
vt 0.9411697 0.5692632
vt 0.8417462 0.317445
vt 0.8218613 0.2740436
vt 0.8616309 0.3608643
vt 0.8815155 0.4042806
vt 0.9014002 0.4476959
vt 0.9212849 0.4911111
vt 0.9411697 0.5345277
vt 0.9610544 0.5692632
vt 0.8417462 0.2740436
vt 0.8218613 0.2306636
vt 0.8616309 0.317445
vt 0.8815155 0.3608643
vt 0.9014002 0.4042806
vt 0.9212849 0.4476959
vt 0.9411697 0.4911111
vt 0.9610544 0.5345277
vt 0.9809391 0.5692632
vt 0.9809391 0.5345277
vt 0.9610544 0.4911111
vt 0.9809391 0.4911111
vt 0.9411697 0.4476959
vt 0.9610544 0.4476959
vt 0.9809391 0.4476959
vt 0.9212849 0.4042806
vt 0.9411697 0.4042806
vt 0.9610544 0.4042806
vt 0.9809391 0.4042806
vt 0.9014002 0.3608643
vt 0.9212849 0.3608643
vt 0.9411697 0.3608643
vt 0.9610544 0.3608643
vt 0.9809391 0.3608643
vt 0.8815155 0.317445
vt 0.9014002 0.317445
vt 0.9212849 0.317445
vt 0.9411697 0.317445
vt 0.9610544 0.317445
vt 0.9809391 0.317445
vt 0.8616309 0.2740436
vt 0.8815155 0.2740436
vt 0.9014002 0.2740436
vt 0.9212849 0.2740436
vt 0.9411697 0.2740436
vt 0.9610544 0.2740436
vt 0.9809391 0.2740436
vt 0.8417462 0.2306636
vt 0.8218613 0.1873457
vt 0.8616309 0.2306636
vt 0.8417462 0.1873457
vt 0.8218613 0.1442082
vt 0.9610544 0.2306636
vt 0.9809391 0.2306636
vt 0.9411697 0.2306636
vt 0.8815155 0.2306636
vt 0.8417462 0.1442082
vt 0.8218613 0.1094891
vt 0.8616309 0.1873457
vt 0.9610544 0.1873457
vt 0.9809391 0.1873457
vt 0.9014002 0.2306636
vt 0.8417462 0.1094891
vt 0.8218613 0.0763292
vt 0.8616309 0.1442082
vt 0.8815155 0.1873457
vt 0.9212849 0.2306636
vt 0.8417462 0.0763292
vt 0.8218613 0.03791113
vt 0.8616309 0.1094891
vt 0.8815155 0.1442082
vt 0.9014002 0.1873457
vt 0.9212849 0.1873457
vt 0.8417462 0.03791113
vt 0.8218613 0.01667519
vt 0.8417462 0.01667519
vt 0.8616309 0.0763292
vt 0.8616309 0.03791113
vt 0.8616309 0.01667519
vt 0.8815155 0.1094891
vt 0.9014002 0.1442082
vt 0.9411697 0.1873457
vt 0.8815155 0.0763292
vt 0.8815155 0.03791113
vt 0.8815155 0.01667519
vt 0.9014002 0.1094891
vt 0.9212849 0.1442082
vt 0.9411697 0.1442082
vt 0.9014002 0.0763292
vt 0.9014002 0.03791113
vt 0.9014002 0.01667519
vt 0.9212849 0.1094891
vt 0.9610544 0.1442082
vt 0.9809391 0.1442082
vt 0.9212849 0.0763292
vt 0.9212849 0.03791113
vt 0.9212849 0.01667519
vt 0.9411697 0.1094891
vt 0.9610544 0.1094891
vt 0.9809391 0.1094891
vt 0.9411697 0.0763292
vt 0.9411697 0.03791113
vt 0.9411697 0.01667519
vt 0.9610544 0.0763292
vt 0.9809391 0.0763292
vt 0.9610544 0.03791113
vt 0.9610544 0.01667519
vt 0.9809391 0.03791113
vt 0.9809391 0.01667519
vt 0.7982426 0.1465573
vt 0.7715566 0.1198723
vt 0.7526878 0.1654278
vt 0.7982433 0.1842963
vt 0.7338176 0.119873
vt 0.7715584 0.2109825
vt 0.7071325 0.146559
vt 0.7338192 0.2109829
vt 0.7071332 0.184298
vt 0.7073537 0.08248526
vt 0.7339143 0.1090397
vt 0.7526879 0.06369385
vt 0.7073494 0.04492313
vt 0.7714722 0.1090311
vt 0.7339038 0.01835651
vt 0.7980266 0.08246446
vt 0.7714617 0.01834791
vt 0.7980222 0.04490227
vn -1 1.166377E-05 -9.719807E-06
vn -1 1.430511E-06 -1.728535E-06
vn -0.7071067 0.4574026 0.5392429
vn -0.7071051 0.4574118 0.5392373
vn -1 2.37324E-05 -1.957152E-05
vn 0 0.6468627 0.7626065
vn -0.7071039 0.4574212 0.5392308
vn -1 5.429674E-05 -4.573162E-05
vn 3.23993E-06 0.6468648 0.7626047
vn 0.7071053 0.4574016 0.5392455
vn -0.7071014 0.4574445 0.5392143
vn -1 0.0001163943 -9.849928E-05
vn 5.393711E-06 0.646865 0.7626045
vn 0.7071084 0.4573932 0.5392486
vn 1 -2.026558E-06 8.34465E-07
vn -0.7070964 0.4574915 0.539181
vn -1 0.0002415088 -0.0002048007
vn 1.05534E-05 0.6468651 0.7626045
vn 0.7071095 0.4573841 0.5392548
vn 1 -1.206872E-05 9.395784E-06
vn 0.7071049 -0.4574047 -0.5392435
vn -0.7070858 0.4575871 0.5391137
vn -0.9999998 0.0005174419 -0.0004386708
vn 2.034206E-05 0.6468651 0.7626045
vn 0.7071118 0.4573609 0.5392714
vn 1 -2.380934E-05 1.972554E-05
vn 0.707108 -0.45741 -0.5392351
vn 0 -0.6468639 -0.7626055
vn -0.7070581 0.4577999 0.5389695
vn -0.9999988 0.001190966 -0.001009782
vn 4.19077E-05 0.6468651 0.7626044
vn 0.7071168 0.4573139 0.5393049
vn 1 -5.429624E-05 4.60371E-05
vn 0.7071093 -0.4574176 -0.5392268
vn 3.239928E-06 -0.6468648 -0.7626047
vn -0.7071058 -0.4574014 -0.5392451
vn -0.7069824 0.4583243 0.5386229
vn -0.9999772 0.005146922 -0.004365375
vn 9.696893E-05 0.6468652 0.7626044
vn 0.7071276 0.4572185 0.5393716
vn 1 -0.0001162394 9.895642E-05
vn 0.7071119 -0.4574378 -0.5392063
vn 5.393712E-06 -0.6468651 -0.7626045
vn -0.7071049 -0.4573956 -0.5392512
vn -1 1.430511E-06 -1.728535E-06
vn -1 1.166377E-05 -9.719807E-06
vn -0.707104 -0.4573879 -0.5392589
vn -1 2.37324E-05 -1.957152E-05
vn 1.024751E-05 -0.6468652 -0.7626044
vn -0.7071016 -0.4573678 -0.5392792
vn -1 5.429674E-05 -4.573162E-05
vn 0.7071169 -0.4574784 -0.5391653
vn 2.003617E-05 -0.6468652 -0.7626044
vn -0.7070967 -0.457327 -0.5393202
vn -1 0.0001163943 -9.849928E-05
vn 1 -0.0002412711 0.0002047937
vn 0.7071276 -0.4575599 -0.5390821
vn 4.114299E-05 -0.6468652 -0.7626044
vn -0.7070859 -0.4572455 -0.5394034
vn -1 0.0002415088 -0.0002048007
vn 0.707155 0.4570058 0.5395159
vn 0.9999998 -0.0005169447 0.0004384853
vn 0.7071547 -0.4577372 -0.5388959
vn 9.605128E-05 -0.6468652 -0.7626044
vn -0.7070583 -0.4570683 -0.5395898
vn -0.9999998 0.0005174419 -0.0004386708
vn 0.0002459401 0.6468643 0.7626051
vn 0.7072285 0.4564807 0.5398641
vn 0.9999988 -0.001191429 0.001010585
vn 0.7072282 -0.4581663 -0.5384347
vn 0.0002451754 -0.6468657 -0.7626039
vn -0.7069829 -0.4566405 -0.5400506
vn -0.9999988 0.001190966 -0.001009782
vn -0.7060716 0.4616765 0.5369523
vn -0.9992363 0.02979658 -0.02527376
vn 0.002120063 0.6466574 0.7627776
vn -0.7000006 0.481716 0.5272086
vn -0.9887183 0.1142287 -0.09689145
vn -0.706072 -0.4544452 -0.5430855
vn -0.9999772 0.005146922 -0.004365375
vn 0.002119757 -0.6470695 -0.762428
vn 0.7081806 0.4526001 0.5418795
vn -0.6780804 0.5474047 0.490464
vn -0.9300674 0.2801729 -0.2376506
vn 0.01082477 0.6443793 0.7646294
vn -0.7000012 -0.4415628 -0.561267
vn -0.9992363 0.02979658 -0.02527376
vn 0.9999721 -0.005695376 0.004830822
vn -0.6215807 0.6678678 0.4093775
vn -0.8036881 0.4537887 -0.3849172
vn 0.02920896 0.6379028 0.7695628
vn 0.7109221 0.4303715 0.5562105
vn 0.7081804 -0.4607874 -0.5349351
vn -0.5391895 0.7849389 0.3051977
vn -0.7083537 0.5382906 -0.4565943
vn 0.04421203 0.6303919 0.7750169
vn 0.7075413 0.3621522 0.6068205
vn 0.99907 -0.03288198 0.0278918
vn 0.7109221 -0.4785526 -0.5153416
vn -0.4831455 0.8413262 0.2423649
vn -0.5808392 0.620775 -0.5265589
vn -0.4115357 0.8963106 0.1651232
vn 0.04058064 0.6282923 0.7769183
vn 0.0301388 0.6301621 0.7758785
vn -0.001418352 0.6484075 0.7612922
vn 0.6679121 0.2448981 0.7027934
vn 0.9872611 -0.1213371 0.1029224
vn 0.01082462 -0.6492682 -0.7604825
vn 0.5840675 0.1260151 0.8018636
vn 0.5171466 0.06379648 0.8535159
vn 0.4102267 0.0198971 0.9117665
vn 0.9287157 -0.2827677 0.2398529
vn 0.7075415 -0.5396134 -0.4562921
vn 0.02920868 -0.6551921 -0.7548974
vn 0.8087245 -0.4485544 0.3804782
vn 0.7147278 -0.5333676 0.4524194
vn 0.581056 -0.6206554 0.5264607
vn 0.6679122 -0.6534284 -0.3562647
vn -0.6780812 -0.3945945 -0.6200814
vn -0.9887183 0.1142287 -0.09689145
vn 0.5840675 -0.7705655 -0.2551356
vn 0.5171466 -0.8316755 -0.2021767
vn 0.4102271 -0.8963066 -0.1683688
vn 0.04421175 -0.6617988 -0.7483767
vn -0.6215814 -0.2949431 -0.7257032
vn -0.9300674 0.2801729 -0.2376506
vn 0.04058034 -0.6640172 -0.7466154
vn 0.03013849 -0.662686 -0.7482907
vn -0.001417101 -0.6453172 -0.7639134
vn -0.5391899 -0.173061 -0.8242112
vn -0.8036881 0.4537887 -0.3849172
vn -0.4831455 -0.1018712 -0.8695934
vn -0.4115356 -0.01669365 -0.9112408
vn -0.7083537 0.5382906 -0.4565943
vn -0.5808392 0.620775 -0.5265589
vn 3.695488E-06 0.7626059 -0.6468634
vn 2.980232E-06 0.7626058 -0.6468635
vn 3.576278E-06 0.7626037 -0.6468659
vn 4.172326E-06 0.7626055 -0.6468639
vn 3.457069E-06 0.7626066 -0.6468624
vn 5.126E-06 0.7626031 -0.6468668
vn 4.053116E-06 0.7626024 -0.6468674
vn 2.980233E-06 0.7626012 -0.6468689
vn 1.907349E-06 0.7625993 -0.6468713
vn -0.8029137 -0.4545851 0.3855929
vn -0.8029149 -0.4545833 0.3855928
vn -0.8029141 -0.4545845 0.385593
vn -0.8029135 -0.4545841 0.3855944
vn -0.8029147 -0.4545828 0.3855935
vn -0.8029131 -0.4545847 0.3855946
vn -0.8029137 -0.4545857 0.3855924
vn -0.8029143 -0.454585 0.3855918
vn -0.8029149 -0.4545854 0.3855902
g pm0025_00_Wcs2024Glass2_0
f 3/3/3 2/2/2 1/1/1
f 4/4/4 3/3/3 1/1/1
f 4/4/4 1/1/1 5/5/5
f 6/6/6 3/3/3 4/4/4
f 7/7/7 4/4/4 5/5/5
f 7/7/7 5/5/5 8/8/8
f 9/9/9 6/6/6 4/4/4
f 9/9/9 4/4/4 7/7/7
f 10/10/10 6/6/6 9/9/9
f 11/11/11 7/7/7 8/8/8
f 11/11/11 8/8/8 12/12/12
f 13/13/13 9/9/9 7/7/7
f 13/13/13 7/7/7 11/11/11
f 14/14/14 10/10/10 9/9/9
f 14/14/14 9/9/9 13/13/13
f 15/15/15 10/10/10 14/14/14
f 16/16/16 11/11/11 12/12/12
f 16/16/16 12/12/12 17/17/17
f 18/18/18 13/13/13 11/11/11
f 18/18/18 11/11/11 16/16/16
f 19/19/19 14/14/14 13/13/13
f 19/19/19 13/13/13 18/18/18
f 20/20/20 15/15/15 14/14/14
f 20/20/20 14/14/14 19/19/19
f 21/21/21 15/15/15 20/20/20
f 22/22/22 16/16/16 17/17/17
f 22/22/22 17/17/17 23/23/23
f 24/24/24 18/18/18 16/16/16
f 24/24/24 16/16/16 22/22/22
f 25/25/25 19/19/19 18/18/18
f 25/25/25 18/18/18 24/24/24
f 26/26/26 20/20/20 19/19/19
f 26/26/26 19/19/19 25/25/25
f 27/27/27 21/21/21 20/20/20
f 27/27/27 20/20/20 26/26/26
f 28/28/28 21/21/21 27/27/27
f 29/29/29 22/22/22 23/23/23
f 29/29/29 23/23/23 30/30/30
f 31/31/31 24/24/24 22/22/22
f 31/31/31 22/22/22 29/29/29
f 32/32/32 25/25/25 24/24/24
f 32/32/32 24/24/24 31/31/31
f 33/33/33 26/26/26 25/25/25
f 33/33/33 25/25/25 32/32/32
f 34/34/34 27/27/27 26/26/26
f 34/34/34 26/26/26 33/33/33
f 35/35/35 28/28/28 27/27/27
f 35/35/35 27/27/27 34/34/34
f 36/36/36 28/28/28 35/35/35
f 37/37/37 29/29/29 30/30/30
f 37/37/37 30/30/30 38/38/38
f 39/39/39 31/31/31 29/29/29
f 39/39/39 29/29/29 37/37/37
f 40/40/40 32/32/32 31/31/31
f 40/40/40 31/31/31 39/39/39
f 41/41/41 33/33/33 32/32/32
f 41/41/41 32/32/32 40/40/40
f 42/42/42 34/34/34 33/33/33
f 42/42/42 33/33/33 41/41/41
f 43/43/43 35/35/35 34/34/34
f 43/43/43 34/34/34 42/42/42
f 44/44/44 36/36/36 35/35/35
f 44/44/44 35/35/35 43/43/43
f 45/45/45 36/36/36 44/44/44
f 46/46/46 45/45/45 44/44/44
f 46/46/46 44/44/44 47/47/47
f 47/47/47 44/44/44 43/43/43
f 48/48/48 46/46/46 47/47/47
f 49/49/49 43/43/43 42/42/42
f 47/47/47 43/43/43 49/49/49
f 48/48/48 47/47/47 50/50/50
f 50/50/50 47/47/47 49/49/49
f 51/51/51 48/48/48 50/50/50
f 52/52/52 42/42/42 41/41/41
f 49/49/49 42/42/42 52/52/52
f 50/50/50 49/49/49 53/53/53
f 53/53/53 49/49/49 52/52/52
f 51/51/51 50/50/50 54/54/54
f 54/54/54 50/50/50 53/53/53
f 55/55/55 51/51/51 54/54/54
f 52/52/52 41/41/41 56/56/56
f 56/56/56 41/41/41 40/40/40
f 53/53/53 52/52/52 57/57/57
f 57/57/57 52/52/52 56/56/56
f 54/54/54 53/53/53 58/58/58
f 58/58/58 53/53/53 57/57/57
f 55/55/55 54/54/54 59/59/59
f 59/59/59 54/54/54 58/58/58
f 60/60/60 55/55/55 59/59/59
f 56/56/56 40/40/40 61/61/61
f 61/61/61 40/40/40 39/39/39
f 57/57/57 56/56/56 62/62/62
f 62/62/62 56/56/56 61/61/61
f 58/58/58 57/57/57 63/63/63
f 63/63/63 57/57/57 62/62/62
f 59/59/59 58/58/58 64/64/64
f 64/64/64 58/58/58 63/63/63
f 60/60/60 59/59/59 65/65/65
f 65/65/65 59/59/59 64/64/64
f 66/66/66 60/60/60 65/65/65
f 61/61/61 39/39/39 67/67/67
f 67/67/67 39/39/39 37/37/37
f 62/62/62 61/61/61 68/68/68
f 68/68/68 61/61/61 67/67/67
f 63/63/63 62/62/62 69/69/69
f 69/69/69 62/62/62 68/68/68
f 64/64/64 63/63/63 70/70/70
f 70/70/70 63/63/63 69/69/69
f 65/65/65 64/64/64 71/71/71
f 71/71/71 64/64/64 70/70/70
f 66/66/66 65/65/65 72/72/72
f 72/72/72 65/65/65 71/71/71
f 73/73/73 66/66/66 72/72/72
f 67/67/67 37/37/37 74/74/74
f 74/74/74 37/37/37 38/38/38
f 74/74/74 38/38/38 75/75/75
f 68/68/68 67/67/67 76/76/76
f 76/76/76 67/67/67 74/74/74
f 77/77/77 74/74/74 75/75/75
f 76/76/76 74/74/74 77/77/77
f 77/77/77 75/75/75 78/78/78
f 73/73/73 72/72/72 79/79/79
f 80/80/80 73/73/73 79/79/79
f 72/72/72 71/71/71 81/81/81
f 79/79/79 72/72/72 81/81/81
f 82/82/82 68/68/68 76/76/76
f 69/69/69 68/68/68 82/82/82
f 83/83/83 77/77/77 78/78/78
f 83/83/83 78/78/78 84/84/84
f 85/85/85 76/76/76 77/77/77
f 82/82/82 76/76/76 85/85/85
f 85/85/85 77/77/77 83/83/83
f 80/80/80 79/79/79 86/86/86
f 87/87/87 80/80/80 86/86/86
f 88/88/88 69/69/69 82/82/82
f 70/70/70 69/69/69 88/88/88
f 89/89/89 83/83/83 84/84/84
f 89/89/89 84/84/84 90/90/90
f 91/91/91 85/85/85 83/83/83
f 91/91/91 83/83/83 89/89/89
f 92/92/92 82/82/82 85/85/85
f 88/88/88 82/82/82 92/92/92
f 92/92/92 85/85/85 91/91/91
f 93/93/93 70/70/70 88/88/88
f 71/71/71 70/70/70 93/93/93
f 81/81/81 71/71/71 93/93/93
f 94/94/94 89/89/89 90/90/90
f 94/94/94 90/90/90 95/95/95
f 96/96/96 91/91/91 89/89/89
f 96/96/96 89/89/89 94/94/94
f 97/97/97 92/92/92 91/91/91
f 97/97/97 91/91/91 96/96/96
f 98/98/98 88/88/88 92/92/92
f 93/93/93 88/88/88 98/98/98
f 98/98/98 92/92/92 97/97/97
f 81/81/81 93/93/93 99/99/99
f 99/99/99 93/93/93 98/98/98
f 100/100/100 94/94/94 95/95/95
f 100/100/100 95/95/95 101/101/101
f 102/102/102 100/100/100 101/101/101
f 103/103/103 96/96/96 94/94/94
f 103/103/103 94/94/94 100/100/100
f 104/104/104 100/100/100 102/102/102
f 104/104/104 103/103/103 100/100/100
f 105/105/105 104/104/104 102/102/102
f 106/106/106 97/97/97 96/96/96
f 106/106/106 96/96/96 103/103/103
f 107/107/107 98/98/98 97/97/97
f 99/99/99 98/98/98 107/107/107
f 107/107/107 97/97/97 106/106/106
f 108/108/108 81/81/81 99/99/99
f 79/79/79 81/81/81 108/108/108
f 86/86/86 79/79/79 108/108/108
f 109/109/109 103/103/103 104/104/104
f 109/109/109 106/106/106 103/103/103
f 110/110/110 104/104/104 105/105/105
f 110/110/110 109/109/109 104/104/104
f 111/111/111 110/110/110 105/105/105
f 112/112/112 107/107/107 106/106/106
f 112/112/112 106/106/106 109/109/109
f 113/113/113 99/99/99 107/107/107
f 108/108/108 99/99/99 113/113/113
f 113/113/113 107/107/107 112/112/112
f 86/86/86 108/108/108 114/114/114
f 114/114/114 108/108/108 113/113/113
f 115/115/115 109/109/109 110/110/110
f 115/115/115 112/112/112 109/109/109
f 116/116/116 110/110/110 111/111/111
f 116/116/116 115/115/115 110/110/110
f 117/117/117 116/116/116 111/111/111
f 118/118/118 113/113/113 112/112/112
f 118/118/118 112/112/112 115/115/115
f 114/114/114 113/113/113 118/118/118
f 119/119/119 86/86/86 114/114/114
f 87/87/87 86/86/86 119/119/119
f 120/120/120 87/87/87 119/119/119
f 121/121/121 115/115/115 116/116/116
f 121/121/121 118/118/118 115/115/115
f 122/122/122 116/116/116 117/117/117
f 122/122/122 121/121/121 116/116/116
f 123/123/123 122/122/122 117/117/117
f 124/124/124 114/114/114 118/118/118
f 119/119/119 114/114/114 124/124/124
f 124/124/124 118/118/118 121/121/121
f 120/120/120 119/119/119 125/125/125
f 125/125/125 119/119/119 124/124/124
f 126/126/126 120/120/120 125/125/125
f 127/127/127 124/124/124 121/121/121
f 127/127/127 121/121/121 122/122/122
f 125/125/125 124/124/124 127/127/127
f 128/128/128 122/122/122 123/123/123
f 128/128/128 127/127/127 122/122/122
f 129/129/129 128/128/128 123/123/123
f 126/126/126 125/125/125 130/130/130
f 130/130/130 125/125/125 127/127/127
f 130/130/130 127/127/127 128/128/128
f 131/131/131 126/126/126 130/130/130
f 132/132/132 128/128/128 129/129/129
f 132/132/132 130/130/130 128/128/128
f 131/131/131 130/130/130 132/132/132
f 133/133/133 132/132/132 129/129/129
f 134/134/134 131/131/131 132/132/132
f 134/134/134 132/132/132 133/133/133
f 135/135/135 134/134/134 133/133/133
f 138/138/138 137/137/137 136/136/136
f 138/138/138 136/136/136 139/139/139
f 138/138/138 140/140/140 137/137/137
f 141/141/141 138/138/138 139/139/139
f 138/138/138 142/142/142 140/140/140
f 141/141/141 143/143/143 138/138/138
f 144/144/144 142/142/142 138/138/138
f 143/143/143 144/144/144 138/138/138
f 147/147/147 146/146/146 145/145/145
f 147/147/147 145/145/145 148/148/148
f 147/147/147 149/149/149 146/146/146
f 150/150/150 147/147/147 148/148/148
f 147/147/147 151/151/151 149/149/149
f 150/150/150 152/152/152 147/147/147
f 153/153/153 151/151/151 147/147/147
f 152/152/152 153/153/153 147/147/147
