g pm0006_81_TailFireSparkSkin_tz
v 3.197782E-17 1.876633 -2.183502
v 0.1180754 1.304886 -2.022032
v 0.0013606 1.817965 -2.131625
v 1.053648E-07 1.304886 -2.183502
v 0.2221611 1.012997 -2.050201
v 1.335577E-07 1.012997 -2.183502
v 0.291883 0.7140572 -2.096103
v 4.806018E-08 0.7140572 -2.183502
v 0.2761368 0.4485989 -2.170686
v -4.269272E-09 0.4485989 -2.183502
v 0.114523 0.2629017 -2.298025
v -4.506813E-16 0.2629017 -2.183502
v -2.522393E-16 1.876633 -2.183502
v -0.1614704 1.304886 -2.065427
v -0.05187678 1.817965 -2.182142
v 1.053648E-07 1.304886 -2.183502
v -0.1333006 1.012997 -1.961341
v 1.335577E-07 1.012997 -2.183502
v -0.08739932 0.7140572 -1.891619
v 4.806018E-08 0.7140572 -2.183502
v -0.01281604 0.4485989 -1.907365
v -4.269272E-09 0.4485989 -2.183502
v 0.114523 0.2629017 -2.068979
v 2.932209E-16 0.2629017 -2.183502
v -5.009292E-16 1.876633 -2.183502
v -0.1180752 1.304886 -2.344972
v -0.0013606 1.817965 -2.235379
v 1.053648E-07 1.304886 -2.183502
v -0.2221608 1.012997 -2.316803
v 1.335577E-07 1.012997 -2.183502
v -0.2918829 0.7140572 -2.270901
v 4.806018E-08 0.7140572 -2.183502
v -0.2761368 0.4485989 -2.196318
v -4.269272E-09 0.4485989 -2.183502
v -0.114523 0.2629017 -2.068979
v 3.446686E-16 0.2629017 -2.183502
v -2.877664E-16 1.876633 -2.183502
v 0.1614706 1.304886 -2.301577
v 0.05187678 1.817965 -2.184862
v 1.053648E-07 1.304886 -2.183502
v 0.1333009 1.012997 -2.405663
v 1.335577E-07 1.012997 -2.183502
v 0.08739942 0.7140572 -2.475385
v 4.806018E-08 0.7140572 -2.183502
v 0.01281603 0.4485989 -2.459639
v -4.269272E-09 0.4485989 -2.183502
v -0.114523 0.2629017 -2.298025
v 4.530958E-17 0.2629017 -2.183502
vt 0.875 1
vt 0 0.7353671
vt 0 1
vt 0.875 0.7353671
vt 0 0.5147486
vt 0.875 0.5147486
vt 0 0.2757664
vt 0.875 0.2757664
vt 0 0.1184315
vt 0.875 0.1184315
vt 0 2.980232E-08
vt 0.875 2.980232E-08
vt 0 1.3
vt 0.75 1.112478
vt 0.75 1.3
vt 0 1.112478
vt 0.75 0.9281478
vt 0 0.9281478
vt 0.75 0.7345252
vt 0 0.7345252
vt 0.75 0.5227587
vt 0 0.5227587
vt 0.75 0.3
vt 0 0.3
vt 0.625 1.8
vt 0 1.530831
vt 0 1.8
vt 0.625 1.530831
vt 0 1.17867
vt 0.625 1.17867
vt 0 1.053087
vt 0.625 1.053087
vt 0 0.9275034
vt 0.625 0.9275034
vt 0 0.8
vt 0.625 0.8
vt 0 2.1
vt 0.5 1.889799
vt 0.5 2.1
vt 0 1.889799
vt 0.5 1.655572
vt 0 1.655572
vt 0.5 1.557205
vt 0 1.557205
vt 0.5 1.281935
vt 0 1.281935
vt 0.5 1.1
vt 0 1.1
vn 0.8769906 0.0460347 -0.4782973
vn 0.7564564 0.1089698 -0.6449025
vn 0.8769906 0.0460347 -0.4782973
vn 0.7733478 0.1014208 -0.6258171
vn 0.4952685 0.130906 -0.8588206
vn 0.5104858 0.1330624 -0.8495285
vn 0.2870683 0.1244845 -0.949787
vn 0.2886698 0.124365 -0.9493172
vn 0.08146322 0.1988343 -0.9766415
vn 0.03358161 0.2327719 -0.9719514
vn -0.2304894 0.4038444 -0.885316
vn -0.2304894 0.4038444 -0.885316
vn 0.478297 0.04603468 0.8769907
vn 0.6449026 0.1089698 0.7564563
vn 0.478297 0.04603468 0.8769907
vn 0.6258172 0.1014209 0.7733477
vn 0.8588203 0.130906 0.4952689
vn 0.8495283 0.1330622 0.5104861
vn 0.9497868 0.1244844 0.287069
vn 0.949317 0.1243649 0.2886705
vn 0.9766415 0.1988342 0.08146382
vn 0.9719514 0.2327719 0.03358209
vn 0.885316 0.4038446 -0.230489
vn 0.8853159 0.4038446 -0.230489
vn -0.8769909 0.04603422 0.4782968
vn -0.7564565 0.1089694 0.6449024
vn -0.8769909 0.04603422 0.4782968
vn -0.773348 0.1014204 0.6258169
vn -0.4952689 0.1309061 0.8588203
vn -0.5104861 0.1330625 0.8495283
vn -0.2870689 0.1244848 0.9497869
vn -0.2886705 0.1243652 0.949317
vn -0.08146334 0.1988343 0.9766415
vn -0.03358186 0.2327719 0.9719514
vn 0.2304888 0.4038445 0.8853161
vn 0.2304888 0.4038444 0.8853161
vn -0.4782968 0.04603445 -0.8769909
vn -0.6449028 0.1089698 -0.7564562
vn -0.4782969 0.04603445 -0.8769909
vn -0.6258172 0.1014208 -0.7733477
vn -0.8588205 0.1309062 -0.4952686
vn -0.8495284 0.1330626 -0.5104859
vn -0.9497868 0.1244849 -0.2870691
vn -0.9493169 0.1243653 -0.2886705
vn -0.9766415 0.1988345 -0.08146382
vn -0.9719512 0.2327721 -0.03358215
vn -0.8853161 0.4038443 0.2304889
vn -0.8853161 0.4038444 0.2304889
g pm0006_81_TailFireSparkSkin_tz_0
f 3/3/3 2/2/2 1/1/1
f 2/2/2 4/4/4 1/1/1
f 2/2/2 5/5/5 4/4/4
f 5/5/5 6/6/6 4/4/4
f 5/5/5 7/7/7 6/6/6
f 7/7/7 8/8/8 6/6/6
f 7/7/7 9/9/9 8/8/8
f 9/9/9 10/10/10 8/8/8
f 9/9/9 11/11/11 10/10/10
f 11/11/11 12/12/12 10/10/10
f 15/15/15 14/14/14 13/13/13
f 14/14/14 16/16/16 13/13/13
f 14/14/14 17/17/17 16/16/16
f 17/17/17 18/18/18 16/16/16
f 17/17/17 19/19/19 18/18/18
f 19/19/19 20/20/20 18/18/18
f 19/19/19 21/21/21 20/20/20
f 21/21/21 22/22/22 20/20/20
f 21/21/21 23/23/23 22/22/22
f 23/23/23 24/24/24 22/22/22
f 27/27/27 26/26/26 25/25/25
f 26/26/26 28/28/28 25/25/25
f 26/26/26 29/29/29 28/28/28
f 29/29/29 30/30/30 28/28/28
f 29/29/29 31/31/31 30/30/30
f 31/31/31 32/32/32 30/30/30
f 31/31/31 33/33/33 32/32/32
f 33/33/33 34/34/34 32/32/32
f 33/33/33 35/35/35 34/34/34
f 35/35/35 36/36/36 34/34/34
f 39/39/39 38/38/38 37/37/37
f 38/38/38 40/40/40 37/37/37
f 38/38/38 41/41/41 40/40/40
f 41/41/41 42/42/42 40/40/40
f 41/41/41 43/43/43 42/42/42
f 43/43/43 44/44/44 42/42/42
f 43/43/43 45/45/45 44/44/44
f 45/45/45 46/46/46 44/44/44
f 45/45/45 47/47/47 46/46/46
f 47/47/47 48/48/48 46/46/46
