g pm0088_61_LiquidCSkin
v 0.04211924 0.2266157 0.2777534
v 0.03683035 0.2232824 0.2830423
v 0.04323489 0.2255331 0.2830422
v 0.04549425 0.2318726 0.2830423
v 0.03683035 0.2255273 0.2766595
v 0.03154146 0.2266157 0.2777534
v 0.0304258 0.2255331 0.2830422
v 0.03048167 0.2318727 0.2766936
v 0.02816645 0.2318726 0.2830423
v 0.03683035 0.2318726 0.2744018
v 0.04317904 0.2318727 0.2766936
v 0.03154147 0.2371296 0.2777535
v 0.03042581 0.2382121 0.2830423
v 0.03683035 0.2404628 0.2830423
v 0.03683036 0.2382178 0.2766596
v 0.04211925 0.2371296 0.2777535
v 0.0432349 0.2382122 0.2830423
v 0.04211924 0.2371294 0.2883312
v 0.03683035 0.2404628 0.2830423
v 0.0432349 0.2382122 0.2830423
v 0.04549425 0.2318726 0.2830423
v 0.03683034 0.2382178 0.2894249
v 0.04317902 0.2318726 0.2893909
v 0.03154145 0.2371294 0.2883311
v 0.03042581 0.2382121 0.2830423
v 0.03048167 0.2318726 0.2893909
v 0.02816645 0.2318726 0.2830423
v 0.04211924 0.2266157 0.2883311
v 0.04323489 0.2255331 0.2830422
v 0.03683035 0.2232824 0.2830423
v 0.03683036 0.2318726 0.2916827
v 0.03683035 0.2255274 0.2894249
v 0.03154145 0.2266157 0.2883311
v 0.0304258 0.2255331 0.2830422
vt 0.4915454 0.0934487
vt 0.5 0.08730075
vt 0.4850429 0.09023005
vt 0.4792266 0.0976553
vt 0.5 0.09291679
vt 0.508455 0.0934487
vt 0.5149574 0.09023005
vt 0.5095229 0.0976553
vt 0.5207735 0.0976553
vt 0.5 0.0976553
vt 0.4904776 0.0976553
vt 0.508455 0.1018618
vt 0.5149574 0.1050801
vt 0.5 0.1080096
vt 0.5 0.1023938
vt 0.4915454 0.1018618
vt 0.4850429 0.1050802
vt 0.5084645 0.1292116
vt 0.5000001 0.1353667
vt 0.5149747 0.1324339
vt 0.5207972 0.1250005
vt 0.5000001 0.1297444
vt 0.5095336 0.1250005
vt 0.4915357 0.1292117
vt 0.4850257 0.1324338
vt 0.4904666 0.1250005
vt 0.479203 0.1250005
vt 0.5084645 0.1207891
vt 0.5149747 0.1175667
vt 0.5000001 0.114634
vt 0.5000001 0.1250005
vt 0.5000001 0.1202565
vt 0.4915357 0.1207891
vt 0.4850257 0.1175667
vn 0.5763389 -0.5784394 -0.5772704
vn 1.088287E-06 -1 -8.550828E-07
vn 0.706228 -0.7079846 -8.10104E-07
vn 1 1.714453E-06 1.870312E-06
vn 1.03041E-06 -0.7076804 -0.7065327
vn -0.5763371 -0.5784405 -0.5772713
vn -0.7062271 -0.7079853 -4.418754E-07
vn -0.7064245 5.451143E-06 -0.7077883
vn -1 9.351559E-07 9.351559E-07
vn 0 4.360748E-06 -1
vn 0.7064254 5.009157E-06 -0.7077876
vn -0.576337 0.578445 -0.5772669
vn -0.706227 0.7079855 4.713329E-06
vn -2.876189E-06 1 4.197681E-06
vn -9.568071E-07 0.7076858 -0.7065272
vn 0.5763365 0.5784456 -0.5772668
vn 0.7062263 0.7079862 6.186256E-06
vn 0.5763343 0.5784414 0.5772732
vn -2.876189E-06 1 4.197681E-06
vn 0.7062263 0.7079862 6.186256E-06
vn 1 1.714453E-06 1.870312E-06
vn -3.164819E-06 0.70768 0.7065331
vn 0.7064226 -2.946564E-06 0.7077903
vn -0.5763378 0.5784411 0.57727
vn -0.706227 0.7079855 4.713329E-06
vn -0.7064244 -1.178624E-06 0.7077885
vn -1 9.351559E-07 9.351559E-07
vn 0.5763367 -0.5784444 0.5772678
vn 0.706228 -0.7079846 -8.10104E-07
vn 1.088287E-06 -1 -8.550828E-07
vn -2.569727E-06 -1.713152E-06 1
vn -6.624041E-07 -0.7076833 0.7065299
vn -0.5763368 -0.5784438 0.5772683
vn -0.7062271 -0.7079853 -4.418754E-07
g pm0088_61_LiquidCSkin_0
f 3/3/3 2/2/2 1/1/1
f 4/4/4 3/3/3 1/1/1
f 2/2/2 5/5/5 1/1/1
f 5/5/5 2/2/2 6/6/6
f 2/2/2 7/7/7 6/6/6
f 6/6/6 7/7/7 8/8/8
f 5/5/5 6/6/6 8/8/8
f 7/7/7 9/9/9 8/8/8
f 1/1/1 5/5/5 10/10/10
f 10/10/10 5/5/5 8/8/8
f 11/11/11 4/4/4 1/1/1
f 11/11/11 1/1/1 10/10/10
f 8/8/8 9/9/9 12/12/12
f 9/9/9 13/13/13 12/12/12
f 13/13/13 14/14/14 12/12/12
f 15/15/15 10/10/10 8/8/8
f 12/12/12 15/15/15 8/8/8
f 10/10/10 15/15/15 11/11/11
f 14/14/14 15/15/15 12/12/12
f 4/4/4 11/11/11 16/16/16
f 15/15/15 16/16/16 11/11/11
f 15/15/15 14/14/14 16/16/16
f 17/17/17 4/4/4 16/16/16
f 14/14/14 17/17/17 16/16/16
f 20/20/20 19/19/19 18/18/18
f 21/21/21 20/20/20 18/18/18
f 19/19/19 22/22/22 18/18/18
f 23/23/23 21/21/21 18/18/18
f 18/18/18 22/22/22 23/23/23
f 22/22/22 19/19/19 24/24/24
f 19/19/19 25/25/25 24/24/24
f 24/24/24 25/25/25 26/26/26
f 24/24/24 26/26/26 22/22/22
f 25/25/25 27/27/27 26/26/26
f 21/21/21 23/23/23 28/28/28
f 29/29/29 21/21/21 28/28/28
f 30/30/30 29/29/29 28/28/28
f 22/22/22 31/31/31 23/23/23
f 26/26/26 31/31/31 22/22/22
f 32/32/32 28/28/28 23/23/23
f 31/31/31 32/32/32 23/23/23
f 32/32/32 30/30/30 28/28/28
f 32/32/32 31/31/31 26/26/26
f 26/26/26 27/27/27 33/33/33
f 33/33/33 32/32/32 26/26/26
f 30/30/30 32/32/32 33/33/33
f 27/27/27 34/34/34 33/33/33
f 34/34/34 30/30/30 33/33/33
