g pm0157_41_FlameA02Skin_ty
v -0.08272962 0.95963687 0.6221218
v -0.110654674 0.9517701 0.6501845
v -0.08526813 0.9703414 0.6367483
v -0.11076462 0.9405298 0.6359476
v -0.085541144 0.95177627 0.60724044
v -0.11120842 0.934762 0.61927783
v -0.09417433 0.9482776 0.5933508
v -0.14784573 0.9441145 0.63288265
v -0.1132288 0.9356453 0.6022795
v -0.106781565 0.94918317 0.5822849
v -0.14411348 0.93748254 0.61711335
v -0.116860114 0.9425042 0.5870008
v -0.1214728 0.95395225 0.5750457
v -0.13764772 0.9376663 0.6006751
v -0.12976676 0.9435734 0.58615464
v -0.13790841 0.9517762 0.58026165
v -0.13651404 0.9623037 0.57276577
v -0.15032032 0.97314054 0.5754351
v -0.15302476 0.9531929 0.5895458
v -0.1610969 0.9853145 0.58316845
v -0.1647978 0.9584155 0.6021416
v -0.1664649 0.9969382 0.5955673
v -0.17061448 0.9672221 0.6164112
v -0.16353834 1.0049018 0.6115867
v -0.16744089 0.9778045 0.63034797
v -0.14692132 0.9569479 0.64519405
v -0.11076462 0.9405298 0.6359476
v -0.14784573 0.9441145 0.63288265
v -0.14692132 0.9569479 0.64519405
v -0.110654674 0.9517701 0.6501845
v -0.14061865 0.9712409 0.6543906
v -0.11188265 0.9672843 0.6578236
v -0.08526813 0.9703414 0.6367483
v -0.09143548 0.98078686 0.6491849
v -0.11936782 0.99224293 0.66626686
v -0.10643627 0.99970967 0.66123253
v -0.1589675 0.9882901 0.6422226
v -0.16744089 0.9778045 0.63034797
v -0.13125858 0.9914712 0.66429394
v -0.12822679 1.0102725 0.6717667
v -0.121151626 1.0151908 0.6698878
v -0.1353436 1.0092068 0.67103314
v -0.14116877 1.0112643 0.66885436
v -0.14288402 0.996527 0.6601451
v -0.13450854 1.0219233 0.6794371
v -0.1280401 1.0255466 0.677581
v -0.1557096 1.0088874 0.62813556
v -0.16353834 1.0049018 0.6115867
v -0.14715669 1.0056095 0.65323627
v -0.14395545 1.0142195 0.6480057
v -0.14075042 1.0211816 0.6606118
v -0.14313684 1.0162299 0.66413504
v -0.14187402 1.0265819 0.66495275
v -0.14055537 1.0223241 0.6784397
v -0.13214059 1.0288799 0.68583447
v -0.1279798 1.031034 0.6844
v -0.13635512 1.0291793 0.685531
v -0.12775072 1.0335017 0.6914128
v -0.12581044 1.0346779 0.6904925
v -0.123386145 1.0361686 0.6946535
v -0.13027996 1.0333953 0.6916948
v -0.12902795 1.0367993 0.69069993
v -0.1339566 1.0345639 0.68292874
v -0.1365649 1.0295502 0.6735783
v -0.13668633 1.0246749 0.6657754
v -0.13807806 1.0256922 0.6669242
v -0.14168347 1.0208863 0.6705745
v -0.14217015 1.0298644 0.67010415
v -0.14448556 1.0270746 0.67217106
v -0.14612705 1.0335671 0.6722411
v -0.1429534 1.0237002 0.66764504
v -0.14424829 1.0284752 0.67025733
v -0.14397265 1.0299503 0.6683893
v -0.14668937 1.0336624 0.6708977
v -0.1470514 1.0320868 0.67293113
v -0.14881352 1.0352035 0.6717773
v -0.1664649 0.9969382 0.5955673
v -0.13828325 1.0219715 0.59942925
v -0.16353834 1.0049018 0.6115867
v -0.13846426 1.0156276 0.58205885
v -0.1610969 0.9853145 0.58316845
v -0.10457526 1.0181241 0.6021771
v -0.13563898 1.0022477 0.5709629
v -0.15032032 0.97314054 0.5754351
v -0.1013204 1.0114305 0.58521914
v -0.08491087 0.9983141 0.6163739
v -0.13142501 0.9857407 0.5662988
v -0.13651404 0.9623037 0.57276577
v -0.10176499 0.9985707 0.5740148
v -0.079531714 0.98945296 0.60088795
v -0.08526813 0.9703414 0.6367483
v -0.08272962 0.95963687 0.6221218
v -0.08213415 0.97856116 0.5880658
v -0.085541144 0.95177627 0.60724044
v -0.1264881 0.9689526 0.5679543
v -0.1214728 0.95395225 0.5750457
v -0.10700993 0.9836999 0.5677929
v -0.09163139 0.9681664 0.57913774
v -0.09417433 0.9482776 0.5933508
v -0.11357666 0.96786916 0.56877357
v -0.10541435 0.959686 0.57474804
v -0.106781565 0.94918317 0.5822849
v -0.08491087 0.9983141 0.6163739
v -0.08526813 0.9703414 0.6367483
v -0.09143548 0.98078686 0.6491849
v -0.09113615 1.0023948 0.63387626
v -0.10457526 1.0181241 0.6021771
v -0.10643627 0.99970967 0.66123253
v -0.10727237 1.0178403 0.6217127
v -0.13828325 1.0219715 0.59942925
v -0.10467859 1.0140529 0.6508124
v -0.121151626 1.0151908 0.6698878
v -0.12032394 1.0230316 0.66317976
v -0.1280401 1.0255466 0.677581
v -0.13604079 1.0209492 0.61876297
v -0.16353834 1.0049018 0.6115867
v -0.1557096 1.0088874 0.62813556
v -0.14395545 1.0142195 0.6480057
v -0.115369566 1.0231502 0.6443136
v -0.12874824 1.0314399 0.6732288
v -0.1279798 1.031034 0.6844
v -0.12626392 1.0240521 0.6422503
v -0.12973343 1.0276419 0.65769416
v -0.124856815 1.0257661 0.6593274
v -0.13429941 1.0202138 0.64259887
v -0.13457033 1.0246704 0.65831596
v -0.14075042 1.0211816 0.6606118
v -0.12787636 1.0351692 0.68191594
v -0.12581044 1.0346779 0.6904925
v -0.13204789 1.0340431 0.6708922
v -0.13873908 1.0286819 0.6642031
v -0.14187402 1.0265819 0.66495275
v -0.12528327 1.0369041 0.6894095
v -0.123386145 1.0361686 0.6946535
v -0.13477634 1.0295436 0.6639912
v -0.14228913 1.0315682 0.6680153
v -0.14397265 1.0299503 0.6683893
v -0.14668937 1.0336624 0.6708977
v -0.13078189 1.0376221 0.6810149
v -0.12726592 1.0386063 0.6895578
v -0.12902795 1.0367993 0.69069993
v -0.1339566 1.0345639 0.68292874
v -0.1365649 1.0295502 0.6735783
v -0.13668633 1.0246749 0.6657754
v -0.13807806 1.0256922 0.6669242
v -0.14026147 1.032714 0.66807616
v -0.14217015 1.0298644 0.67010415
v -0.14524452 1.0352334 0.67100227
v -0.14881352 1.0352035 0.6717773
v -0.14612705 1.0335671 0.6722411
vt 0.13521737 1.5413841
vt 0.11567611 1.5560777
vt 0.13547152 1.5554566
vt 0.11544871 1.5459802
vt 0.13051188 1.5292239
vt 0.11389768 1.53611
vt 0.1220063 1.5197008
vt 0.09603751 1.5474732
vt 0.1106593 1.5269372
vt 0.11074942 1.513309
vt 0.09674078 1.5383081
vt 0.10533977 1.5183516
vt 0.09748888 1.5100229
vt 0.097115815 1.5291736
vt 0.09728545 1.5199499
vt 0.08914459 1.5180491
vt 0.08373213 1.5130446
vt 0.071584344 1.519975
vt 0.08334887 1.5271125
vt 0.06217599 1.5302515
vt 0.07972896 1.5369385
vt 0.058301628 1.5433295
vt 0.07745069 1.5467892
vt 0.059116364 1.5572343
vt 0.07812381 1.5568948
vt 0.095816314 1.5570825
vt 0.11544871 1.5459802
vt 0.09603751 1.5474732
vt 0.095816314 1.5570825
vt 0.11567611 1.5560777
vt 0.09741038 1.5666418
vt 0.11523181 1.5656726
vt 0.13547152 1.5554566
vt 0.13036633 1.5679572
vt 0.10867953 1.581042
vt 0.11858624 1.5846419
vt 0.08047825 1.5673268
vt 0.07812381 1.5568948
vt 0.10040766 1.5801148
vt 0.10109663 1.5926719
vt 0.10647589 1.5952501
vt 0.09582782 1.5919044
vt 0.090820074 1.5924604
vt 0.09090769 1.5805812
vt 0.098190844 1.6016872
vt 0.10287422 1.6025755
vt 0.065368 1.5705665
vt 0.059116364 1.5572343
vt 0.08255625 1.5818286
vt 0.07640314 1.5847261
vt 0.08080083 1.592834
vt 0.08524221 1.5920584
vt 0.07988793 1.5962303
vt 0.09447247 1.6018775
vt 0.10004449 1.6076729
vt 0.10305667 1.6078188
vt 0.0974924 1.6076627
vt 0.10244912 1.6123314
vt 0.10393721 1.6123323
vt 0.10449696 1.6154146
vt 0.10092944 1.612191
vt 0.10023391 1.6143422
vt 0.09526521 1.6109393
vt 0.09046763 1.6061211
vt 0.08677751 1.6019514
vt 0.0857535 1.6018484
vt 0.085181236 1.5973966
vt 0.082173765 1.6026838
vt 0.08142048 1.6002526
vt 0.078744054 1.6034625
vt 0.082463145 1.5968187
vt 0.08019084 1.5995703
vt 0.078885674 1.5989406
vt 0.07728517 1.6017189
vt 0.0786922 1.6023555
vt 0.076729834 1.603395
vt 0.13477492 1.4142542
vt 0.11527753 1.4264517
vt 0.13396072 1.428159
vt 0.11529768 1.4161589
vt 0.1309011 1.4011762
vt 0.09639013 1.4265573
vt 0.11328781 1.4066558
vt 0.12149274 1.3908995
vt 0.09613013 1.416857
vt 0.078389645 1.4262574
vt 0.10948741 1.3976216
vt 0.1093449 1.3839693
vt 0.09558034 1.408004
vt 0.07828176 1.4155138
vt 0.057605803 1.4263813
vt 0.05785966 1.4123089
vt 0.07981467 1.4061159
vt 0.06256515 1.4001486
vt 0.10378158 1.3890762
vt 0.09558833 1.3809476
vt 0.09610051 1.3995855
vt 0.082895815 1.3973544
vt 0.07107079 1.3906255
vt 0.09587282 1.3908017
vt 0.08798903 1.3893762
vt 0.082327366 1.3842337
vt 0.078389645 1.4262574
vt 0.057605803 1.4263813
vt 0.06271106 1.4388819
vt 0.078151226 1.4368095
vt 0.09639013 1.4265573
vt 0.074490905 1.4555665
vt 0.094479084 1.436835
vt 0.11527753 1.4264517
vt 0.08517921 1.4509702
vt 0.086601555 1.4661746
vt 0.0932349 1.4634173
vt 0.09020281 1.4735003
vt 0.1131959 1.4377747
vt 0.13396072 1.428159
vt 0.12770903 1.4414911
vt 0.11667407 1.4556508
vt 0.09578568 1.4511216
vt 0.09540284 1.4735352
vt 0.09002048 1.4787437
vt 0.1034826 1.4520357
vt 0.10257667 1.4639213
vt 0.09825629 1.4630837
vt 0.10949981 1.4525154
vt 0.10708714 1.4634204
vt 0.11227596 1.4637587
vt 0.093072414 1.4792738
vt 0.08913982 1.483257
vt 0.09874922 1.4741783
vt 0.11036932 1.4680796
vt 0.11318934 1.467155
vt 0.090531945 1.4835336
vt 0.08858007 1.4863393
vt 0.10753447 1.4687316
vt 0.11291921 1.4706028
vt 0.11419141 1.4698653
vt 0.11579192 1.4726439
vt 0.09542173 1.4799693
vt 0.09189165 1.4840198
vt 0.09284341 1.4852669
vt 0.097812 1.481864
vt 0.10260946 1.477046
vt 0.10629994 1.4728761
vt 0.10732383 1.4727731
vt 0.1115942 1.4712605
vt 0.11090344 1.4736085
vt 0.1146251 1.4731882
vt 0.11634719 1.4743197
vt 0.1143328 1.4743872
vn 0.88486695 -0.4062743 0.22792876
vn 0.24769482 -0.5636365 0.78801084
vn 0.8350761 -0.16308902 0.52540463
vn 0.28216073 -0.8294897 0.48200846
vn 0.7795999 -0.60850424 -0.14814384
vn 0.25398728 -0.9648807 0.06705033
vn 0.55818003 -0.68978643 -0.46111786
vn -0.48172268 -0.7688359 0.4205171
vn 0.18702424 -0.9342304 -0.30370298
vn 0.29907244 -0.67503107 -0.6744543
vn -0.4010772 -0.9160412 0.002358178
vn 0.10344581 -0.8018146 -0.588551
vn 0.0117637925 -0.5822678 -0.8129119
vn -0.27384958 -0.8962733 -0.34885618
vn -0.1411729 -0.7799646 -0.60969275
vn -0.2935703 -0.62606454 -0.7223985
vn -0.26893348 -0.4301162 -0.8617858
vn -0.5116869 -0.23616946 -0.8260754
vn -0.5589773 -0.60749567 -0.56435215
vn -0.738472 0.028848674 -0.67366683
vn -0.8068647 -0.5070123 -0.30316302
vn -0.87308174 0.35432613 -0.3349348
vn -0.95599025 -0.2819744 0.081074275
vn -0.82632315 0.5615634 0.042854525
vn -0.90526056 -0.037457928 0.42320225
vn -0.4683613 -0.49813917 0.7297226
vn 0.28216073 -0.8294897 0.48200846
vn -0.48172268 -0.7688359 0.4205171
vn -0.4683613 -0.49813917 0.7297226
vn 0.24769482 -0.5636365 0.78801084
vn -0.43809336 -0.28945893 0.8510509
vn 0.14775594 -0.33659807 0.9299838
vn 0.8350761 -0.16308902 0.52540463
vn 0.71788925 0.01706174 0.6959481
vn 0.23774539 -0.23873898 0.9415311
vn 0.6567908 0.12185492 0.74416214
vn -0.8135236 0.082644895 0.57562923
vn -0.90526056 -0.037457928 0.42320225
vn -0.19247238 -0.32018843 0.92759573
vn 0.20982315 -0.27153394 0.9392782
vn 0.67220706 0.08160375 0.73585224
vn -0.19514184 -0.33996338 0.91996986
vn -0.73432827 -0.05443234 0.67660844
vn -0.67626774 -0.095087446 0.73049325
vn 0.04160909 -0.4003318 0.9154251
vn 0.7736233 -0.045686092 0.63199663
vn -0.7787074 0.58372927 0.22994569
vn -0.82632315 0.5615634 0.042854525
vn -0.8713522 0.30114797 0.38736948
vn -0.6924013 0.7192643 0.05691358
vn -0.81710696 0.54762185 -0.18012886
vn -0.9559887 0.2025137 0.21230595
vn -0.8197068 0.37942138 -0.42909235
vn -0.80703497 0.010029969 0.5904185
vn 0.16575678 -0.5332304 0.82957214
vn 0.87900037 -0.25380465 0.4036602
vn -0.73506516 0.02049006 0.6776868
vn 0.29833826 -0.36891896 0.8802801
vn 0.8465728 -0.1820844 0.50015974
vn 0.27627352 0.41872016 0.86507016
vn -0.43521607 0.15192696 0.88741493
vn -0.47397956 0.6863522 0.5516013
vn -0.7248729 0.65635777 0.20917392
vn -0.7717066 0.62608606 0.11173718
vn -0.62780416 0.7009785 0.33836505
vn 0.15635526 0.5067323 0.8478063
vn -0.5446244 -0.019822408 0.8384458
vn 0.3494154 0.35289338 0.8679718
vn -0.26652938 -0.054055605 0.9623097
vn 0.1136394 0.43425906 0.8935911
vn -0.9957046 0.067563154 0.0633069
vn -0.99574846 0.027147122 -0.08802281
vn -0.8070768 0.24745846 -0.53608894
vn -0.8727381 0.44861054 -0.19255325
vn -0.40334913 0.2720365 0.8736736
vn -0.37762377 0.59336144 0.71086043
vn -0.87308174 0.35432613 -0.3349348
vn -0.27245864 0.94270355 -0.1925524
vn -0.82632315 0.5615634 0.042854525
vn -0.27085954 0.7719196 -0.5751305
vn -0.738472 0.028848674 -0.67366683
vn 0.44978732 0.8831614 -0.13310687
vn -0.22591953 0.39081606 -0.8923134
vn -0.5116869 -0.23616946 -0.8260754
vn 0.48254225 0.7176168 -0.5021744
vn 0.8894862 0.4324949 0.14752123
vn -0.1549902 0.011651948 -0.9878473
vn -0.26893348 -0.4301162 -0.8617858
vn 0.43588883 0.35834563 -0.82558423
vn 0.9571989 0.23157191 -0.17362233
vn 0.8350761 -0.16308902 0.52540463
vn 0.88486695 -0.4062743 0.22792876
vn 0.85438013 -0.05706284 -0.516506
vn 0.7795999 -0.60850424 -0.14814384
vn -0.080620684 -0.30160078 -0.95001954
vn 0.0117637925 -0.5822678 -0.8129119
vn 0.3104749 -0.012493225 -0.95049953
vn 0.6113914 -0.3057398 -0.72987926
vn 0.55818003 -0.68978643 -0.46111786
vn 0.16668233 -0.31793457 -0.9333459
vn 0.32547432 -0.4731156 -0.8186747
vn 0.29907244 -0.67503107 -0.6744543
vn 0.8894862 0.4324949 0.14752123
vn 0.8350761 -0.16308902 0.52540463
vn 0.71788925 0.01706174 0.6959481
vn 0.78014463 0.53097785 0.33081236
vn 0.44978732 0.8831614 -0.13310687
vn 0.6567908 0.12185492 0.74416214
vn 0.3964604 0.91413987 0.08466031
vn -0.27245864 0.94270355 -0.1925524
vn 0.684378 0.6465112 0.33711997
vn 0.67220706 0.08160375 0.73585224
vn 0.7260538 0.5975894 0.3401953
vn 0.7736233 -0.045686092 0.63199663
vn -0.3173192 0.9482973 -0.006385671
vn -0.82632315 0.5615634 0.042854525
vn -0.7787074 0.58372927 0.22994569
vn -0.6924013 0.7192643 0.05691358
vn 0.43693107 0.89548475 0.08484357
vn 0.71968883 0.68030864 0.13866594
vn 0.87900037 -0.25380465 0.4036602
vn 0.0013906034 0.99880373 -0.048880238
vn -0.06307882 0.9923509 -0.10611667
vn 0.5034605 0.86100674 0.0720748
vn -0.3965002 0.9118054 -0.10676381
vn -0.47500986 0.82951325 -0.2937234
vn -0.81710696 0.54762185 -0.18012886
vn 0.8428754 0.5375259 0.025037833
vn 0.8465728 -0.1820844 0.50015974
vn -0.13947578 0.9784782 -0.15207575
vn -0.45252484 0.7485676 -0.48463163
vn -0.8197068 0.37942138 -0.42909235
vn 0.83595186 0.48470852 0.25737542
vn 0.27627352 0.41872016 0.86507016
vn 0.1402002 0.9891775 0.04326486
vn -0.50525737 0.65529364 -0.56152046
vn -0.8070768 0.24745846 -0.53608894
vn -0.8727381 0.44861054 -0.19255325
vn -0.06907452 0.9951898 -0.06946857
vn 0.06768065 0.948005 0.31097552
vn -0.47397956 0.6863522 0.5516013
vn -0.7248729 0.65635777 0.20917392
vn -0.7717066 0.62608606 0.11173718
vn -0.62780416 0.7009785 0.33836505
vn 0.15635526 0.5067323 0.8478063
vn 0.38116226 0.8752717 0.29768226
vn 0.3494154 0.35289338 0.8679718
vn -0.048044354 0.82725513 0.5597685
vn -0.37762377 0.59336144 0.71086043
vn 0.1136394 0.43425906 0.8935911
g pm0157_41_FlameA02Skin_ty_0
f 3/3/3 2/2/2 1/1/1
f 2/2/2 4/4/4 1/1/1
f 1/1/1 4/4/4 5/5/5
f 4/4/4 6/6/6 5/5/5
f 5/5/5 6/6/6 7/7/7
f 4/4/4 8/8/8 6/6/6
f 6/6/6 9/9/9 7/7/7
f 7/7/7 9/9/9 10/10/10
f 8/8/8 11/11/11 6/6/6
f 6/6/6 11/11/11 9/9/9
f 9/9/9 12/12/12 10/10/10
f 13/13/13 10/10/10 12/12/12
f 9/9/9 14/14/14 12/12/12
f 11/11/11 14/14/14 9/9/9
f 13/13/13 12/12/12 15/15/15
f 14/14/14 15/15/15 12/12/12
f 13/13/13 15/15/15 16/16/16
f 13/13/13 16/16/16 17/17/17
f 18/18/18 17/17/17 16/16/16
f 19/19/19 16/16/16 15/15/15
f 19/19/19 18/18/18 16/16/16
f 14/14/14 19/19/19 15/15/15
f 20/20/20 18/18/18 19/19/19
f 21/21/21 19/19/19 14/14/14
f 21/21/21 20/20/20 19/19/19
f 11/11/11 21/21/21 14/14/14
f 22/22/22 20/20/20 21/21/21
f 23/23/23 21/21/21 11/11/11
f 23/23/23 22/22/22 21/21/21
f 24/24/24 22/22/22 23/23/23
f 8/8/8 23/23/23 11/11/11
f 25/25/25 24/24/24 23/23/23
f 25/25/25 23/23/23 8/8/8
f 26/26/26 25/25/25 8/8/8
f 29/29/29 28/28/28 27/27/27
f 30/30/30 29/29/29 27/27/27
f 31/31/31 29/29/29 30/30/30
f 32/32/32 31/31/31 30/30/30
f 32/32/32 30/30/30 33/33/33
f 34/34/34 32/32/32 33/33/33
f 35/35/35 32/32/32 34/34/34
f 36/36/36 35/35/35 34/34/34
f 31/31/31 37/37/37 29/29/29
f 37/37/37 38/38/38 29/29/29
f 39/39/39 31/31/31 32/32/32
f 35/35/35 39/39/39 32/32/32
f 40/40/40 35/35/35 36/36/36
f 41/41/41 40/40/40 36/36/36
f 40/40/40 42/42/42 35/35/35
f 42/42/42 39/39/39 35/35/35
f 42/42/42 43/43/43 39/39/39
f 43/43/43 44/44/44 39/39/39
f 39/39/39 44/44/44 31/31/31
f 44/44/44 37/37/37 31/31/31
f 45/45/45 40/40/40 41/41/41
f 45/45/45 42/42/42 40/40/40
f 46/46/46 45/45/45 41/41/41
f 37/37/37 47/47/47 38/38/38
f 47/47/47 48/48/48 38/38/38
f 49/49/49 37/37/37 44/44/44
f 49/49/49 47/47/47 37/37/37
f 49/49/49 44/44/44 43/43/43
f 50/50/50 47/47/47 49/49/49
f 51/51/51 50/50/50 49/49/49
f 52/52/52 51/51/51 49/49/49
f 52/52/52 49/49/49 43/43/43
f 53/53/53 51/51/51 52/52/52
f 42/42/42 45/45/45 54/54/54
f 43/43/43 42/42/42 54/54/54
f 55/55/55 45/45/45 46/46/46
f 56/56/56 55/55/55 46/46/46
f 57/57/57 54/54/54 45/45/45
f 55/55/55 57/57/57 45/45/45
f 58/58/58 55/55/55 56/56/56
f 59/59/59 58/58/58 56/56/56
f 60/60/60 58/58/58 59/59/59
f 58/58/58 61/61/61 55/55/55
f 60/60/60 61/61/61 58/58/58
f 61/61/61 57/57/57 55/55/55
f 61/61/61 60/60/60 62/62/62
f 62/62/62 63/63/63 61/61/61
f 63/63/63 57/57/57 61/61/61
f 57/57/57 63/63/63 64/64/64
f 54/54/54 57/57/57 64/64/64
f 64/64/64 65/65/65 54/54/54
f 65/65/65 43/43/43 54/54/54
f 43/43/43 65/65/65 66/66/66
f 67/67/67 43/43/43 66/66/66
f 67/67/67 66/66/66 68/68/68
f 52/52/52 43/43/43 67/67/67
f 69/69/69 67/67/67 68/68/68
f 69/69/69 68/68/68 70/70/70
f 71/71/71 52/52/52 67/67/67
f 71/71/71 53/53/53 52/52/52
f 72/72/72 71/71/71 67/67/67
f 53/53/53 71/71/71 72/72/72
f 69/69/69 72/72/72 67/67/67
f 73/73/73 53/53/53 72/72/72
f 73/73/73 72/72/72 74/74/74
f 74/74/74 72/72/72 69/69/69
f 75/75/75 69/69/69 70/70/70
f 75/75/75 74/74/74 69/69/69
f 75/75/75 70/70/70 76/76/76
f 76/76/76 74/74/74 75/75/75
f 79/79/79 78/78/78 77/77/77
f 78/78/78 80/80/80 77/77/77
f 77/77/77 80/80/80 81/81/81
f 78/78/78 82/82/82 80/80/80
f 80/80/80 83/83/83 81/81/81
f 81/81/81 83/83/83 84/84/84
f 82/82/82 85/85/85 80/80/80
f 80/80/80 85/85/85 83/83/83
f 82/82/82 86/86/86 85/85/85
f 83/83/83 87/87/87 84/84/84
f 84/84/84 87/87/87 88/88/88
f 85/85/85 89/89/89 83/83/83
f 83/83/83 89/89/89 87/87/87
f 86/86/86 90/90/90 85/85/85
f 85/85/85 90/90/90 89/89/89
f 86/86/86 91/91/91 90/90/90
f 91/91/91 92/92/92 90/90/90
f 90/90/90 92/92/92 93/93/93
f 90/90/90 93/93/93 89/89/89
f 92/92/92 94/94/94 93/93/93
f 87/87/87 95/95/95 88/88/88
f 96/96/96 88/88/88 95/95/95
f 89/89/89 97/97/97 87/87/87
f 89/89/89 93/93/93 97/97/97
f 87/87/87 97/97/97 95/95/95
f 93/93/93 94/94/94 98/98/98
f 93/93/93 98/98/98 97/97/97
f 94/94/94 99/99/99 98/98/98
f 97/97/97 100/100/100 95/95/95
f 96/96/96 95/95/95 100/100/100
f 97/97/97 98/98/98 100/100/100
f 98/98/98 99/99/99 101/101/101
f 98/98/98 101/101/101 100/100/100
f 96/96/96 100/100/100 101/101/101
f 99/99/99 102/102/102 101/101/101
f 96/96/96 101/101/101 102/102/102
f 105/105/105 104/104/104 103/103/103
f 106/106/106 105/105/105 103/103/103
f 106/106/106 103/103/103 107/107/107
f 108/108/108 105/105/105 106/106/106
f 109/109/109 106/106/106 107/107/107
f 109/109/109 107/107/107 110/110/110
f 111/111/111 108/108/108 106/106/106
f 111/111/111 106/106/106 109/109/109
f 112/112/112 108/108/108 111/111/111
f 113/113/113 112/112/112 111/111/111
f 114/114/114 112/112/112 113/113/113
f 115/115/115 109/109/109 110/110/110
f 115/115/115 110/110/110 116/116/116
f 117/117/117 115/115/115 116/116/116
f 118/118/118 115/115/115 117/117/117
f 119/119/119 111/111/111 109/109/109
f 113/113/113 111/111/111 119/119/119
f 120/120/120 114/114/114 113/113/113
f 121/121/121 114/114/114 120/120/120
f 122/122/122 109/109/109 115/115/115
f 119/119/119 109/109/109 122/122/122
f 119/119/119 122/122/122 123/123/123
f 124/124/124 119/119/119 123/123/123
f 124/124/124 113/113/113 119/119/119
f 113/113/113 124/124/124 120/120/120
f 125/125/125 122/122/122 115/115/115
f 125/125/125 115/115/115 118/118/118
f 123/123/123 122/122/122 125/125/125
f 126/126/126 125/125/125 118/118/118
f 126/126/126 123/123/123 125/125/125
f 127/127/127 126/126/126 118/118/118
f 128/128/128 121/121/121 120/120/120
f 129/129/129 121/121/121 128/128/128
f 120/120/120 124/124/124 130/130/130
f 124/124/124 123/123/123 130/130/130
f 128/128/128 120/120/120 130/130/130
f 131/131/131 126/126/126 127/127/127
f 132/132/132 131/131/131 127/127/127
f 133/133/133 129/129/129 128/128/128
f 134/134/134 129/129/129 133/133/133
f 126/126/126 131/131/131 135/135/135
f 123/123/123 126/126/126 135/135/135
f 136/136/136 131/131/131 132/132/132
f 135/135/135 131/131/131 136/136/136
f 137/137/137 136/136/136 132/132/132
f 138/138/138 136/136/136 137/137/137
f 133/133/133 128/128/128 139/139/139
f 139/139/139 128/128/128 130/130/130
f 134/134/134 133/133/133 140/140/140
f 140/140/140 133/133/133 139/139/139
f 141/141/141 134/134/134 140/140/140
f 140/140/140 139/139/139 141/141/141
f 139/139/139 142/142/142 141/141/141
f 142/142/142 139/139/139 130/130/130
f 143/143/143 142/142/142 130/130/130
f 130/130/130 123/123/123 143/143/143
f 123/123/123 144/144/144 143/143/143
f 144/144/144 123/123/123 135/135/135
f 145/145/145 144/144/144 135/135/135
f 146/146/146 135/135/135 136/136/136
f 145/145/145 135/135/135 146/146/146
f 146/146/146 136/136/136 138/138/138
f 147/147/147 145/145/145 146/146/146
f 148/148/148 146/146/146 138/138/138
f 147/147/147 146/146/146 148/148/148
f 149/149/149 148/148/148 138/138/138
f 150/150/150 147/147/147 148/148/148
f 150/150/150 148/148/148 149/149/149
