g pm0186_00_TongueASkin
v -0.05843296 0.7511581 -0.08289174
v 1.142308E-30 0.7511605 -0.08928191
v 1.1412E-30 0.7795121 -0.1083728
v -0.06252195 0.7788268 -0.1012379
v -0.1137206 0.7511572 -0.06253801
v 1.073099E-30 0.8285111 -0.1110229
v -0.1231206 0.7790139 -0.07836906
v -0.1540377 0.7511624 -0.02656091
v -0.06603588 0.8251289 -0.1035523
v 9.233711E-31 0.874516 -0.0864155
v -0.1665924 0.7799992 -0.03757602
v -0.1786746 0.7511776 0.01975693
v -0.1263708 0.8214159 -0.0807545
v -0.06432454 0.8689139 -0.08028787
v 6.231195E-31 0.9023879 -0.04262509
v -0.1919276 0.7822996 0.01398895
v -0.1866684 0.751203 0.07238044
v -0.1673051 0.8199303 -0.03989505
v -0.1205845 0.8603546 -0.06256737
v -0.06032811 0.8960937 -0.03916511
v -0.199818 0.7846538 0.0702861
v -0.1788197 0.7512202 0.1282276
v -0.1907241 0.8219579 0.01294307
v -0.1561753 0.8543752 -0.03178769
v -0.1902571 0.7863564 0.1307249
v -0.1550211 0.7512338 0.1789771
v -0.197958 0.8228759 0.06828339
v -0.1640671 0.78781 0.1873341
v -0.1149611 0.7512308 0.2179189
v -0.05804496 0.9083393 0.009786003
v 1.766298E-31 0.914731 0.009048536
v -2.600075E-31 0.9173852 0.06355541
v -0.1108234 0.8852632 -0.02998878
v -0.108046 0.8951994 0.0131002
v -0.0575491 0.9112915 0.06320889
v -5.670615E-31 0.9123386 0.1186668
v -0.05759679 0.906301 0.1175907
v -7.652877E-31 0.8996891 0.1714759
v -0.1080723 0.8980958 0.06351982
v -0.1454864 0.8798997 0.01720934
v -0.1403194 0.8753621 -0.01731235
v -0.1734331 0.8565586 0.01484577
v -0.147524 0.8819786 0.06537152
v -0.1070238 0.8941162 0.1150588
v -0.05871362 0.8936741 0.1689658
v -0.1788128 0.8572055 0.06701484
v -0.1435612 0.8801327 0.1130565
v -0.1895696 0.8232681 0.1275257
v -0.1709092 0.8572797 0.1197349
v -0.1669529 0.8225961 0.1843944
v -0.06234432 0.8712623 0.2148378
v -8.73056E-31 0.8762848 0.2198705
v -9.235799E-31 0.838362 0.255744
v -0.1077656 0.8820558 0.1624289
v -0.153313 0.8549514 0.1680994
v -0.1223864 0.7884929 0.2299003
v -0.06061905 0.7512162 0.2373111
v -0.1178312 0.8617563 0.200602
v -0.1371904 0.8741322 0.1500459
v -0.06533346 0.8340071 0.2491285
v -9.27352E-31 0.790765 0.2613409
v -0.1258726 0.8280513 0.2260193
v -0.0642944 0.7896975 0.2539234
v -9.224508E-31 0.7512022 0.2427571
v 0.05843296 0.7511581 -0.08289174
v 1.1412E-30 0.7795121 -0.1083728
v 1.142308E-30 0.7511605 -0.08928191
v 0.06252195 0.7788268 -0.1012379
v 0.1137206 0.7511572 -0.06253801
v 1.073099E-30 0.8285111 -0.1110229
v 0.1231206 0.7790139 -0.07836906
v 0.1540377 0.7511624 -0.02656091
v 0.06603588 0.8251289 -0.1035523
v 9.233711E-31 0.874516 -0.0864155
v 0.1665924 0.7799992 -0.03757602
v 0.1786746 0.7511776 0.01975693
v 0.1263708 0.8214159 -0.0807545
v 0.06432454 0.8689139 -0.08028787
v 6.231195E-31 0.9023879 -0.04262509
v 0.1919276 0.7822996 0.01398895
v 0.1866684 0.751203 0.07238044
v 0.1673051 0.8199303 -0.03989505
v 0.1205845 0.8603546 -0.06256737
v 0.06032811 0.8960937 -0.03916511
v 0.199818 0.7846538 0.0702861
v 0.1788197 0.7512202 0.1282276
v 0.1907241 0.8219579 0.01294307
v 0.1561753 0.8543752 -0.03178769
v 0.1902571 0.7863564 0.1307249
v 0.1550211 0.7512338 0.1789771
v 0.197958 0.8228759 0.06828339
v 0.1640671 0.78781 0.1873341
v 0.1149611 0.7512308 0.2179189
v 0.05804496 0.9083393 0.009786003
v 1.766298E-31 0.914731 0.009048536
v -2.600075E-31 0.9173852 0.06355541
v 0.1108234 0.8852632 -0.02998878
v 0.108046 0.8951994 0.0131002
v 0.0575491 0.9112915 0.06320889
v -5.670615E-31 0.9123386 0.1186668
v 0.05759679 0.906301 0.1175907
v -7.652877E-31 0.8996891 0.1714759
v 0.1080723 0.8980958 0.06351982
v 0.1454864 0.8798997 0.01720934
v 0.1403194 0.8753621 -0.01731235
v 0.1734331 0.8565586 0.01484577
v 0.147524 0.8819786 0.06537152
v 0.1070238 0.8941162 0.1150588
v 0.05871362 0.8936741 0.1689658
v 0.1788128 0.8572055 0.06701484
v 0.1435612 0.8801327 0.1130565
v 0.1895696 0.8232681 0.1275257
v 0.1709092 0.8572797 0.1197349
v 0.1669529 0.8225961 0.1843944
v 0.06234432 0.8712623 0.2148378
v -8.73056E-31 0.8762848 0.2198705
v -9.235799E-31 0.838362 0.255744
v 0.1077656 0.8820558 0.1624289
v 0.153313 0.8549514 0.1680994
v 0.1223864 0.7884929 0.2299003
v 0.06061905 0.7512162 0.2373111
v 0.1178312 0.8617563 0.200602
v 0.1371904 0.8741322 0.1500459
v 0.06533346 0.8340071 0.2491285
v -9.27352E-31 0.790765 0.2613409
v 0.1258726 0.8280513 0.2260193
v 0.0642944 0.7896975 0.2539234
v -9.224508E-31 0.7512022 0.2427571
vt 0.6743736 0.5660275
vt 0.7112266 0.5749151
vt 0.7112266 0.5514983
vt 0.6803832 0.5408398
vt 0.6491193 0.538496
vt 0.7112266 0.5192206
vt 0.6524483 0.5173384
vt 0.6251844 0.5008626
vt 0.685339 0.511533
vt 0.7112266 0.4876634
vt 0.6324886 0.485852
vt 0.6086212 0.4559045
vt 0.6624296 0.4950902
vt 0.6892624 0.4841396
vt 0.7112266 0.4599881
vt 0.6203744 0.4478876
vt 0.6025579 0.4061555
vt 0.6463749 0.4713388
vt 0.6698743 0.4744725
vt 0.6917346 0.4586393
vt 0.6161468 0.4061554
vt 0.6079966 0.351916
vt 0.6366354 0.4399459
vt 0.6570827 0.459179
vt 0.6204985 0.3612503
vt 0.6237094 0.3033725
vt 0.6328922 0.4061555
vt 0.6343911 0.3202493
vt 0.6421347 0.2825467
vt 0.6927075 0.4332714
vt 0.7112266 0.4337903
vt 0.7112266 0.4061555
vt 0.674958 0.4545003
vt 0.6760831 0.432186
vt 0.6927514 0.4061555
vt 0.7112266 0.3791186
vt 0.6924242 0.3791544
vt 0.7112266 0.3512128
vt 0.6758325 0.4061555
vt 0.6627823 0.4312328
vt 0.6646138 0.4490456
vt 0.6505023 0.4344759
vt 0.6616669 0.4061555
vt 0.6756567 0.3802392
vt 0.6915582 0.352177
vt 0.6477758 0.4061554
vt 0.66251 0.3812386
vt 0.6357974 0.3696359
vt 0.65012 0.3768961
vt 0.6456125 0.3351348
vt 0.6893673 0.3252191
vt 0.7112266 0.3223734
vt 0.7112266 0.2910996
vt 0.674521 0.3551771
vt 0.6562894 0.349971
vt 0.6546333 0.2899531
vt 0.6742697 0.2567281
vt 0.6695809 0.3330835
vt 0.6640127 0.3614765
vt 0.6859477 0.2969281
vt 0.7112266 0.2598948
vt 0.6626348 0.3118141
vt 0.6812127 0.2696401
vt 0.7112266 0.2482976
vt 0.6743736 0.5660275
vt 0.7112266 0.5514983
vt 0.7112266 0.5749151
vt 0.6803832 0.5408398
vt 0.6491193 0.538496
vt 0.7112266 0.5192206
vt 0.6524483 0.5173384
vt 0.6251844 0.5008626
vt 0.685339 0.511533
vt 0.7112266 0.4876634
vt 0.6324886 0.485852
vt 0.6086212 0.4559045
vt 0.6624296 0.4950902
vt 0.6892624 0.4841396
vt 0.7112266 0.4599881
vt 0.6203744 0.4478876
vt 0.6025579 0.4061555
vt 0.6463751 0.4713388
vt 0.6698743 0.4744725
vt 0.6917346 0.4586393
vt 0.6161468 0.4061554
vt 0.6079966 0.351916
vt 0.6366354 0.4399459
vt 0.6570827 0.459179
vt 0.6204985 0.3612503
vt 0.6237094 0.3033725
vt 0.6328922 0.4061555
vt 0.6343911 0.3202493
vt 0.6421347 0.2825467
vt 0.6927075 0.4332714
vt 0.7112266 0.4337903
vt 0.7112266 0.4061555
vt 0.6749581 0.4545003
vt 0.6760831 0.432186
vt 0.6927514 0.4061555
vt 0.7112266 0.3791186
vt 0.6924242 0.3791544
vt 0.7112266 0.3512128
vt 0.6758325 0.4061555
vt 0.6627823 0.4312328
vt 0.6646138 0.4490456
vt 0.6505023 0.4344759
vt 0.6616669 0.4061555
vt 0.6756567 0.3802392
vt 0.6915582 0.352177
vt 0.6477758 0.4061554
vt 0.66251 0.3812386
vt 0.6357974 0.3696359
vt 0.65012 0.3768961
vt 0.6456125 0.3351348
vt 0.6893673 0.3252191
vt 0.7112266 0.3223734
vt 0.7112266 0.2910996
vt 0.674521 0.3551771
vt 0.6562893 0.349971
vt 0.6546333 0.2899531
vt 0.6742697 0.2567281
vt 0.6695809 0.3330835
vt 0.6640127 0.3614765
vt 0.6859477 0.2969281
vt 0.7112266 0.2598948
vt 0.6626348 0.3118141
vt 0.6812127 0.2696401
vt 0.7112266 0.2482976
vn -0.3005276 -0.1711016 -0.9383003
vn 0 -0.1759389 -0.984401
vn 0 -0.02075372 -0.9997846
vn -0.3098103 -0.0170722 -0.9506451
vn -0.5790336 -0.1555436 -0.800329
vn 0 0.3023163 -0.9532077
vn -0.5916977 -0.004848018 -0.8061453
vn -0.8048324 -0.1285963 -0.579403
vn -0.3109551 0.2999309 -0.9018583
vn 0 0.650973 -0.7591009
vn -0.8138593 0.01757372 -0.5807962
vn -0.9491082 -0.0939024 -0.3006262
vn -0.5819667 0.2961723 -0.7573617
vn -0.2812844 0.6368718 -0.7178255
vn 0 0.8721189 -0.4892938
vn -0.9522007 0.04879931 -0.3015501
vn -0.9982556 -0.05893243 0.003584199
vn -0.7830896 0.3005137 -0.5444835
vn -0.5172217 0.6038328 -0.6065208
vn -0.2411042 0.8502377 -0.4679366
vn -0.9966717 0.08151664 0.0006952941
vn -0.9516927 -0.02964794 0.3056174
vn -0.9027527 0.3219468 -0.2852856
vn -0.680255 0.5783278 -0.450322
vn -0.9480497 0.1101428 0.2984465
vn -0.8132253 -0.007765825 0.5818973
vn -0.9374926 0.3479859 -0.003660285
vn -0.8112827 0.1337671 0.5691457
vn -0.5922354 0.007592926 0.8057292
vn -0.2173229 0.9491547 -0.2277634
vn 0 0.9720871 -0.2346204
vn 0 0.999964 -0.00849326
vn -0.444625 0.7940664 -0.4144482
vn -0.4179476 0.8832141 -0.2127269
vn -0.2071021 0.9782853 -0.008177679
vn 0 0.9786896 0.2053452
vn -0.2082933 0.9573946 0.2000238
vn 0 0.9029682 0.4297074
vn -0.4064455 0.9136441 -0.007522195
vn -0.5949907 0.7766883 -0.2067399
vn -0.5771918 0.7334259 -0.3590769
vn -0.7647306 0.5965398 -0.2435722
vn -0.5974476 0.8018772 -0.007021461
vn -0.4029916 0.8956038 0.1883919
vn -0.225017 0.8825586 0.412865
vn -0.7862771 0.6178412 -0.006377687
vn -0.5775915 0.7950541 0.1851403
vn -0.8883246 0.371139 0.2704356
vn -0.7459644 0.6276804 0.2226078
vn -0.762692 0.3942424 0.5127122
vn -0.2629808 0.7215481 0.640476
vn 0 0.7383411 0.6744274
vn 0 0.4615036 0.8871383
vn -0.4194225 0.8290474 0.3698175
vn -0.6517768 0.637253 0.4112124
vn -0.5938213 0.1537339 0.7897735
vn -0.3108307 0.0168921 0.9503152
vn -0.4886754 0.6795971 0.5471235
vn -0.550625 0.7693779 0.323836
vn -0.3008793 0.4512903 0.8401242
vn 0 0.1724642 0.9850157
vn -0.5640112 0.4249038 0.7080594
vn -0.3133177 0.1675446 0.9347517
vn 0 0.0200218 0.9997995
vn 0.3005276 -0.1711016 -0.9383003
vn 0 -0.02075372 -0.9997846
vn 0 -0.1759389 -0.984401
vn 0.3098103 -0.0170722 -0.9506451
vn 0.5790336 -0.1555436 -0.800329
vn 0 0.3023163 -0.9532077
vn 0.5916977 -0.004848018 -0.8061454
vn 0.8048323 -0.1285963 -0.5794031
vn 0.310955 0.2999309 -0.9018584
vn 0 0.650973 -0.7591009
vn 0.8138593 0.01757372 -0.5807962
vn 0.9491081 -0.09390239 -0.3006262
vn 0.5819666 0.2961724 -0.7573617
vn 0.2812843 0.6368718 -0.7178256
vn 0 0.8721189 -0.4892938
vn 0.9522007 0.04879931 -0.3015503
vn 0.9982556 -0.05893243 0.003584199
vn 0.7830895 0.3005137 -0.5444836
vn 0.5172217 0.6038328 -0.6065209
vn 0.2411041 0.8502377 -0.4679367
vn 0.9966717 0.08151664 0.0006951314
vn 0.9516927 -0.02964794 0.3056172
vn 0.9027527 0.3219468 -0.2852856
vn 0.6802549 0.5783279 -0.4503222
vn 0.9480498 0.1101428 0.2984463
vn 0.8132253 -0.007765745 0.5818973
vn 0.9374926 0.3479859 -0.003660367
vn 0.8112826 0.1337672 0.5691457
vn 0.5922354 0.007593089 0.8057292
vn 0.2173229 0.9491547 -0.2277635
vn 0 0.9720871 -0.2346204
vn 0 0.999964 -0.00849326
vn 0.4446249 0.7940663 -0.4144482
vn 0.4179476 0.8832141 -0.212727
vn 0.2071021 0.9782853 -0.008177679
vn 0 0.9786896 0.2053452
vn 0.2082934 0.9573946 0.2000238
vn 0 0.9029682 0.4297074
vn 0.4064455 0.9136441 -0.007522267
vn 0.5949907 0.7766883 -0.20674
vn 0.5771918 0.7334258 -0.3590769
vn 0.7647306 0.5965397 -0.2435722
vn 0.5974476 0.8018772 -0.007021535
vn 0.4029916 0.8956038 0.1883919
vn 0.225017 0.8825586 0.412865
vn 0.7862771 0.6178412 -0.006377687
vn 0.5775915 0.7950541 0.1851402
vn 0.8883246 0.3711389 0.2704355
vn 0.7459645 0.6276805 0.2226077
vn 0.762692 0.3942424 0.5127122
vn 0.2629809 0.7215481 0.6404759
vn 0 0.7383411 0.6744274
vn 0 0.4615036 0.8871383
vn 0.4194225 0.8290474 0.3698175
vn 0.6517769 0.6372529 0.4112124
vn 0.5938213 0.1537339 0.7897735
vn 0.3108307 0.0168921 0.9503152
vn 0.4886754 0.6795971 0.5471235
vn 0.5506251 0.7693778 0.323836
vn 0.3008793 0.4512903 0.8401242
vn 0 0.1724642 0.9850157
vn 0.5640112 0.4249038 0.7080594
vn 0.3133177 0.1675446 0.9347517
vn 0 0.0200218 0.9997995
g pm0186_00_TongueASkin_0
f 3/3/3 2/2/2 1/1/1
f 4/4/4 3/3/3 1/1/1
f 4/4/4 1/1/1 5/5/5
f 6/6/6 3/3/3 4/4/4
f 7/7/7 4/4/4 5/5/5
f 7/7/7 5/5/5 8/8/8
f 9/9/9 6/6/6 4/4/4
f 9/9/9 4/4/4 7/7/7
f 10/10/10 6/6/6 9/9/9
f 11/11/11 7/7/7 8/8/8
f 8/8/8 12/12/12 11/11/11
f 13/13/13 9/9/9 7/7/7
f 13/13/13 7/7/7 11/11/11
f 14/14/14 10/10/10 9/9/9
f 14/14/14 9/9/9 13/13/13
f 15/15/15 10/10/10 14/14/14
f 12/12/12 16/16/16 11/11/11
f 12/12/12 17/17/17 16/16/16
f 18/18/18 13/13/13 11/11/11
f 11/11/11 16/16/16 18/18/18
f 19/19/19 14/14/14 13/13/13
f 19/19/19 13/13/13 18/18/18
f 20/20/20 15/15/15 14/14/14
f 20/20/20 14/14/14 19/19/19
f 17/17/17 21/21/21 16/16/16
f 17/17/17 22/22/22 21/21/21
f 16/16/16 23/23/23 18/18/18
f 16/16/16 21/21/21 23/23/23
f 24/24/24 19/19/19 18/18/18
f 18/18/18 23/23/23 24/24/24
f 22/22/22 25/25/25 21/21/21
f 25/25/25 22/22/22 26/26/26
f 21/21/21 27/27/27 23/23/23
f 21/21/21 25/25/25 27/27/27
f 28/28/28 25/25/25 26/26/26
f 26/26/26 29/29/29 28/28/28
f 20/20/20 30/30/30 15/15/15
f 30/30/30 31/31/31 15/15/15
f 32/32/32 31/31/31 30/30/30
f 33/33/33 20/20/20 19/19/19
f 33/33/33 19/19/19 24/24/24
f 34/34/34 30/30/30 20/20/20
f 33/33/33 34/34/34 20/20/20
f 35/35/35 32/32/32 30/30/30
f 35/35/35 30/30/30 34/34/34
f 36/36/36 32/32/32 35/35/35
f 37/37/37 36/36/36 35/35/35
f 38/38/38 36/36/36 37/37/37
f 39/39/39 35/35/35 34/34/34
f 37/37/37 35/35/35 39/39/39
f 40/40/40 34/34/34 33/33/33
f 39/39/39 34/34/34 40/40/40
f 41/41/41 33/33/33 24/24/24
f 41/41/41 40/40/40 33/33/33
f 41/41/41 24/24/24 40/40/40
f 24/24/24 42/42/42 40/40/40
f 23/23/23 42/42/42 24/24/24
f 23/23/23 27/27/27 42/42/42
f 43/43/43 39/39/39 40/40/40
f 40/40/40 42/42/42 43/43/43
f 44/44/44 37/37/37 39/39/39
f 44/44/44 39/39/39 43/43/43
f 45/45/45 38/38/38 37/37/37
f 45/45/45 37/37/37 44/44/44
f 27/27/27 46/46/46 42/42/42
f 42/42/42 46/46/46 43/43/43
f 47/47/47 44/44/44 43/43/43
f 43/43/43 46/46/46 47/47/47
f 27/27/27 48/48/48 46/46/46
f 25/25/25 48/48/48 27/27/27
f 48/48/48 25/25/25 28/28/28
f 48/48/48 49/49/49 46/46/46
f 46/46/46 49/49/49 47/47/47
f 50/50/50 48/48/48 28/28/28
f 49/49/49 48/48/48 50/50/50
f 45/45/45 51/51/51 38/38/38
f 51/51/51 52/52/52 38/38/38
f 53/53/53 52/52/52 51/51/51
f 54/54/54 45/45/45 44/44/44
f 54/54/54 44/44/44 47/47/47
f 47/47/47 49/49/49 55/55/55
f 55/55/55 49/49/49 50/50/50
f 28/28/28 56/56/56 50/50/50
f 29/29/29 56/56/56 28/28/28
f 29/29/29 57/57/57 56/56/56
f 58/58/58 51/51/51 45/45/45
f 54/54/54 58/58/58 45/45/45
f 55/55/55 58/58/58 54/54/54
f 59/59/59 54/54/54 47/47/47
f 59/59/59 47/47/47 55/55/55
f 59/59/59 55/55/55 54/54/54
f 60/60/60 53/53/53 51/51/51
f 60/60/60 51/51/51 58/58/58
f 61/61/61 53/53/53 60/60/60
f 50/50/50 62/62/62 55/55/55
f 62/62/62 58/58/58 55/55/55
f 56/56/56 62/62/62 50/50/50
f 62/62/62 60/60/60 58/58/58
f 57/57/57 63/63/63 56/56/56
f 56/56/56 63/63/63 62/62/62
f 63/63/63 60/60/60 62/62/62
f 63/63/63 61/61/61 60/60/60
f 57/57/57 64/64/64 63/63/63
f 64/64/64 61/61/61 63/63/63
f 67/67/67 66/66/66 65/65/65
f 66/66/66 68/68/68 65/65/65
f 65/65/65 68/68/68 69/69/69
f 66/66/66 70/70/70 68/68/68
f 68/68/68 71/71/71 69/69/69
f 69/69/69 71/71/71 72/72/72
f 70/70/70 73/73/73 68/68/68
f 68/68/68 73/73/73 71/71/71
f 70/70/70 74/74/74 73/73/73
f 71/71/71 75/75/75 72/72/72
f 76/76/76 72/72/72 75/75/75
f 73/73/73 77/77/77 71/71/71
f 71/71/71 77/77/77 75/75/75
f 74/74/74 78/78/78 73/73/73
f 73/73/73 78/78/78 77/77/77
f 74/74/74 79/79/79 78/78/78
f 80/80/80 76/76/76 75/75/75
f 81/81/81 76/76/76 80/80/80
f 77/77/77 82/82/82 75/75/75
f 80/80/80 75/75/75 82/82/82
f 78/78/78 83/83/83 77/77/77
f 77/77/77 83/83/83 82/82/82
f 79/79/79 84/84/84 78/78/78
f 78/78/78 84/84/84 83/83/83
f 85/85/85 81/81/81 80/80/80
f 86/86/86 81/81/81 85/85/85
f 87/87/87 80/80/80 82/82/82
f 85/85/85 80/80/80 87/87/87
f 83/83/83 88/88/88 82/82/82
f 87/87/87 82/82/82 88/88/88
f 89/89/89 86/86/86 85/85/85
f 86/86/86 89/89/89 90/90/90
f 91/91/91 85/85/85 87/87/87
f 89/89/89 85/85/85 91/91/91
f 89/89/89 92/92/92 90/90/90
f 93/93/93 90/90/90 92/92/92
f 94/94/94 84/84/84 79/79/79
f 95/95/95 94/94/94 79/79/79
f 95/95/95 96/96/96 94/94/94
f 84/84/84 97/97/97 83/83/83
f 83/83/83 97/97/97 88/88/88
f 94/94/94 98/98/98 84/84/84
f 98/98/98 97/97/97 84/84/84
f 96/96/96 99/99/99 94/94/94
f 94/94/94 99/99/99 98/98/98
f 96/96/96 100/100/100 99/99/99
f 100/100/100 101/101/101 99/99/99
f 100/100/100 102/102/102 101/101/101
f 99/99/99 103/103/103 98/98/98
f 99/99/99 101/101/101 103/103/103
f 98/98/98 104/104/104 97/97/97
f 98/98/98 103/103/103 104/104/104
f 97/97/97 105/105/105 88/88/88
f 104/104/104 105/105/105 97/97/97
f 88/88/88 105/105/105 104/104/104
f 106/106/106 88/88/88 104/104/104
f 106/106/106 87/87/87 88/88/88
f 91/91/91 87/87/87 106/106/106
f 103/103/103 107/107/107 104/104/104
f 106/106/106 104/104/104 107/107/107
f 101/101/101 108/108/108 103/103/103
f 103/103/103 108/108/108 107/107/107
f 102/102/102 109/109/109 101/101/101
f 101/101/101 109/109/109 108/108/108
f 110/110/110 91/91/91 106/106/106
f 110/110/110 106/106/106 107/107/107
f 108/108/108 111/111/111 107/107/107
f 110/110/110 107/107/107 111/111/111
f 112/112/112 91/91/91 110/110/110
f 112/112/112 89/89/89 91/91/91
f 89/89/89 112/112/112 92/92/92
f 113/113/113 112/112/112 110/110/110
f 113/113/113 110/110/110 111/111/111
f 112/112/112 114/114/114 92/92/92
f 112/112/112 113/113/113 114/114/114
f 115/115/115 109/109/109 102/102/102
f 116/116/116 115/115/115 102/102/102
f 116/116/116 117/117/117 115/115/115
f 109/109/109 118/118/118 108/108/108
f 108/108/108 118/118/118 111/111/111
f 113/113/113 111/111/111 119/119/119
f 113/113/113 119/119/119 114/114/114
f 120/120/120 92/92/92 114/114/114
f 120/120/120 93/93/93 92/92/92
f 121/121/121 93/93/93 120/120/120
f 115/115/115 122/122/122 109/109/109
f 122/122/122 118/118/118 109/109/109
f 122/122/122 119/119/119 118/118/118
f 118/118/118 123/123/123 111/111/111
f 111/111/111 123/123/123 119/119/119
f 119/119/119 123/123/123 118/118/118
f 117/117/117 124/124/124 115/115/115
f 115/115/115 124/124/124 122/122/122
f 117/117/117 125/125/125 124/124/124
f 126/126/126 114/114/114 119/119/119
f 122/122/122 126/126/126 119/119/119
f 126/126/126 120/120/120 114/114/114
f 124/124/124 126/126/126 122/122/122
f 127/127/127 121/121/121 120/120/120
f 127/127/127 120/120/120 126/126/126
f 124/124/124 127/127/127 126/126/126
f 125/125/125 127/127/127 124/124/124
f 128/128/128 121/121/121 127/127/127
f 125/125/125 128/128/128 127/127/127
