g pm0118_00_HornSkin
v -0.004686582 0.1721984 0.09718798
v 8.457908E-33 0.1717772 0.09802672
v 7.821405E-33 0.153136 0.09064968
v -0.005887356 0.1536059 0.08963058
v -0.003994546 0.1809677 0.1003883
v 8.724705E-33 0.1805818 0.1011189
v -0.008794322 0.1734521 0.09479935
v -0.01087839 0.1550604 0.08672831
v -0.00757269 0.1820912 0.09830762
v -0.003249031 0.1898022 0.1034663
v 8.980086E-33 0.1894571 0.1040787
v -0.01153905 0.1753332 0.09122457
v -0.01421331 0.1572521 0.08238485
v -0.009963554 0.1837725 0.09519373
v -0.006248579 0.1907796 0.1017221
v -0.00252186 0.1987395 0.1063126
v 9.218647E-33 0.198573 0.1068436
v -0.01250287 0.1775483 0.08700776
v -0.01538439 0.1598428 0.07726131
v -0.01421331 0.1624663 0.0721378
v -0.01080311 0.1857478 0.09152056
v -0.00825284 0.1922375 0.09911171
v -0.0048436 0.199597 0.1050195
v -0.001794689 0.2076769 0.1091589
v 9.457206E-33 0.2076889 0.1096085
v -0.008956636 0.1939453 0.09603249
v -0.006394975 0.2006253 0.102942
v -0.003438621 0.2084143 0.1083169
v -0.001067518 0.2166142 0.1120052
v 9.695766E-33 0.2168048 0.1123734
v -0.00693974 0.2020487 0.1006155
v -0.00453711 0.209013 0.1067722
v -0.002033641 0.2172317 0.1116143
v -0.0007039327 0.2210828 0.1134284
v 9.815046E-33 0.2213628 0.1137559
v -0.004922844 0.210152 0.1051985
v -0.006394975 0.2032638 0.09817516
v -0.002679245 0.2174008 0.1106025
v -0.001331152 0.2216404 0.113263
v -0.0003403473 0.2255515 0.1148515
v 9.934325E-33 0.2259208 0.1151383
v 9.891443E-33 0.2268477 0.1146413
v -0.0006286621 0.2260491 0.1149117
v -0.002905949 0.2182554 0.1097815
v -0.001750313 0.2215946 0.1125176
v -0.0008213806 0.2257885 0.1144328
v -0.001897501 0.2223071 0.112073
v -0.0008890533 0.2263588 0.1143645
v -0.00453711 0.2108838 0.103397
v -0.002679245 0.2185038 0.1086188
v -0.001750313 0.2223137 0.1112297
v -0.0008213806 0.2261237 0.1138406
v -0.000628643 0.2266684 0.1138175
v -0.001331137 0.2229689 0.1108832
v -0.0003403473 0.2263608 0.1134219
v 9.800807E-33 0.2267967 0.1135909
v 9.524656E-33 0.2232415 0.1103903
v -0.0007039327 0.2228184 0.110319
v 9.248505E-33 0.2196863 0.1071897
v -0.002033632 0.2192694 0.1079489
v -0.001067518 0.2192761 0.1072161
v 8.696204E-33 0.212576 0.1007886
v -0.003438621 0.2118705 0.1020802
v -0.001794689 0.2121915 0.1010103
v 8.143902E-33 0.2054656 0.0943874
v -0.00484361 0.2044715 0.0962116
v -0.00252186 0.2051068 0.09480451
v -0.00825284 0.1956439 0.09295335
v -0.003249031 0.1980222 0.08859873
v 7.5916E-33 0.1983553 0.08798625
v -0.006248599 0.1970726 0.09034298
v -0.009963554 0.1877239 0.08784746
v -0.003994546 0.1905632 0.08265287
v 7.068389E-33 0.1909546 0.08192226
v -0.00757271 0.1894101 0.08473358
v -0.01153905 0.1797745 0.08279099
v -0.008794342 0.1816947 0.07921623
v -0.01087841 0.16477 0.06779433
v -0.004686582 0.1830357 0.07682758
v 6.55644E-33 0.1834801 0.0759888
v -0.005887356 0.1664323 0.06489207
v 5.511061E-33 0.1669627 0.06387291
v 5.511061E-33 0.1669627 0.06387291
v 0.004686582 0.1830357 0.07682758
v 6.55644E-33 0.1834801 0.0759888
v 0.005887356 0.1664323 0.06489207
v 7.068389E-33 0.1909546 0.08192226
v 0.01087841 0.16477 0.06779433
v 0.003994546 0.1905632 0.08265287
v 7.5916E-33 0.1983553 0.08798625
v 0.008794342 0.1816947 0.07921623
v 0.01421331 0.1624663 0.0721378
v 0.003249031 0.1980222 0.08859873
v 8.143902E-33 0.2054656 0.0943874
v 0.00757271 0.1894101 0.08473358
v 0.01153905 0.1797745 0.08279099
v 0.00252186 0.2051068 0.09480451
v 8.696204E-33 0.212576 0.1007886
v 0.01250287 0.1775483 0.08700776
v 0.01538439 0.1598428 0.07726131
v 0.01421331 0.1572521 0.08238485
v 0.009963554 0.1877239 0.08784746
v 0.006248599 0.1970726 0.09034298
v 0.001794689 0.2121915 0.1010103
v 9.248505E-33 0.2196863 0.1071897
v 0.01153905 0.1753332 0.09122457
v 0.01087839 0.1550604 0.08672831
v 0.00484361 0.2044715 0.0962116
v 0.01080311 0.1857478 0.09152056
v 0.00825284 0.1956439 0.09295335
v 0.001067518 0.2192761 0.1072161
v 9.524656E-33 0.2232415 0.1103903
v 0.008794322 0.1734521 0.09479935
v 0.005887356 0.1536059 0.08963058
v 0.003438621 0.2118705 0.1020802
v 0.009963554 0.1837725 0.09519373
v 0.006394975 0.2032638 0.09817516
v 0.008956636 0.1939453 0.09603249
v 0.0007039327 0.2228184 0.110319
v 9.800807E-33 0.2267967 0.1135909
v 0.004686582 0.1721984 0.09718798
v 7.821405E-33 0.153136 0.09064968
v 8.457908E-33 0.1717772 0.09802672
v 0.002033632 0.2192694 0.1079489
v 0.00757269 0.1820912 0.09830762
v 0.003994546 0.1809677 0.1003883
v 8.724705E-33 0.1805818 0.1011189
v 0.0003403473 0.2263608 0.1134219
v 9.891443E-33 0.2268477 0.1146413
v 0.00825284 0.1922375 0.09911171
v 0.006248579 0.1907796 0.1017221
v 0.003249031 0.1898022 0.1034663
v 8.980086E-33 0.1894571 0.1040787
v 0.001331137 0.2229689 0.1108832
v 0.00693974 0.2020487 0.1006155
v 0.006394975 0.2006253 0.102942
v 0.0048436 0.199597 0.1050195
v 0.00252186 0.1987395 0.1063126
v 9.218647E-33 0.198573 0.1068436
v 0.00453711 0.2108838 0.103397
v 0.004922844 0.210152 0.1051985
v 0.002679245 0.2185038 0.1086188
v 0.00453711 0.209013 0.1067722
v 0.003438621 0.2084143 0.1083169
v 0.001794689 0.2076769 0.1091589
v 9.457206E-33 0.2076889 0.1096085
v 0.002905949 0.2182554 0.1097815
v 0.001750313 0.2223137 0.1112297
v 0.002679245 0.2174008 0.1106025
v 0.002033641 0.2172317 0.1116143
v 0.001067518 0.2166142 0.1120052
v 9.695766E-33 0.2168048 0.1123734
v 0.001897501 0.2223071 0.112073
v 0.000628643 0.2266684 0.1138175
v 0.0008213806 0.2261237 0.1138406
v 0.001750313 0.2215946 0.1125176
v 0.0008890533 0.2263588 0.1143645
v 0.001331152 0.2216404 0.113263
v 0.0007039327 0.2210828 0.1134284
v 9.815046E-33 0.2213628 0.1137559
v 0.0008213806 0.2257885 0.1144328
v 0.0006286621 0.2260491 0.1149117
v 0.0003403473 0.2255515 0.1148515
v 9.934325E-33 0.2259208 0.1151383
vt 0.04438328 0.048102
vt 0.04438328 0.04366525
vt 0.03063705 0.04136958
vt 0.03063705 0.04679883
vt 0.05082069 0.04931704
vt 0.05082075 0.0454798
vt 0.04438328 0.05258656
vt 0.03063714 0.05188682
vt 0.05082075 0.05334581
vt 0.05728744 0.05080307
vt 0.05728744 0.04758772
vt 0.04438328 0.05698616
vt 0.03063705 0.056702
vt 0.05082075 0.05734694
vt 0.05728744 0.05431143
vt 0.06146296 0.05154677
vt 0.06157036 0.04876914
vt 0.04438328 0.0613331
vt 0.03063714 0.0613331
vt 0.03063705 0.06609932
vt 0.05082075 0.0613331
vt 0.05728744 0.05782492
vt 0.0615099 0.05492963
vt 0.06753245 0.05229047
vt 0.0678601 0.04995056
vt 0.05728732 0.0613331
vt 0.06141355 0.05807169
vt 0.06767564 0.05554783
vt 0.07603306 0.05178177
vt 0.07652454 0.04843295
vt 0.0614838 0.06133759
vt 0.06738173 0.05831845
vt 0.07624785 0.05538739
vt 0.08152688 0.05216304
vt 0.08210027 0.0491802
vt 0.0675962 0.06134208
vt 0.06141457 0.06458549
vt 0.07580698 0.05814948
vt 0.08177745 0.0557148
vt 0.08604364 0.05329647
vt 0.08669895 0.05084507
vt 0.09832759 0.0613331
vt 0.08633002 0.05649572
vt 0.07612877 0.06135157
vt 0.08126312 0.05827633
vt 0.08574221 0.05865354
vt 0.08163857 0.06135489
vt 0.08617133 0.06135552
vt 0.06738482 0.06435014
vt 0.07581162 0.06453854
vt 0.08126853 0.06441964
vt 0.0857484 0.06404612
vt 0.08633866 0.06619357
vt 0.08178502 0.06696656
vt 0.08604541 0.06937211
vt 0.08670163 0.071822
vt 0.08210261 0.07346994
vt 0.08152842 0.07049372
vt 0.07652654 0.07420026
vt 0.07625432 0.06728276
vt 0.07603438 0.07086185
vt 0.06786145 0.07265589
vt 0.06767996 0.06709944
vt 0.06753334 0.07033018
vt 0.0615708 0.07381055
vt 0.06151131 0.06770043
vt 0.06146325 0.07105309
vt 0.05728744 0.06482084
vt 0.05728744 0.071776
vt 0.05728744 0.0749652
vt 0.05728744 0.06830142
vt 0.05082075 0.06527726
vt 0.05082075 0.07321388
vt 0.05082069 0.0769849
vt 0.05082075 0.06923579
vt 0.04438328 0.06565481
vt 0.04438328 0.07002329
vt 0.03063714 0.07094768
vt 0.04438328 0.07446475
vt 0.04438328 0.07882544
vt 0.03063714 0.07601116
vt 0.03063714 0.08135296
vt 0.9693629 0.08135295
vt 0.9556167 0.07446474
vt 0.9556167 0.07882544
vt 0.9693629 0.07601115
vt 0.9491793 0.07698491
vt 0.9693629 0.07094768
vt 0.9491793 0.07321388
vt 0.9427126 0.07496521
vt 0.9556167 0.0700233
vt 0.969363 0.06609932
vt 0.9427126 0.071776
vt 0.9384292 0.07381055
vt 0.9491793 0.0692358
vt 0.9556167 0.06565481
vt 0.9385368 0.07105312
vt 0.9321387 0.07265589
vt 0.9556167 0.06133312
vt 0.9693629 0.06133312
vt 0.969363 0.05670196
vt 0.9491793 0.06527728
vt 0.9427126 0.06830144
vt 0.9324667 0.0703302
vt 0.9234736 0.07420027
vt 0.9556167 0.05698615
vt 0.9693629 0.05188683
vt 0.9384887 0.06770045
vt 0.9491793 0.06133312
vt 0.9427126 0.06482083
vt 0.9239656 0.07086191
vt 0.9178976 0.07346997
vt 0.9556167 0.05258656
vt 0.969363 0.04679883
vt 0.9323201 0.06709945
vt 0.9491793 0.05734694
vt 0.9385855 0.06458548
vt 0.9427127 0.06133312
vt 0.9184716 0.07049379
vt 0.9132985 0.07182202
vt 0.9556167 0.04810199
vt 0.969363 0.04136962
vt 0.9556167 0.04366526
vt 0.9237457 0.06728277
vt 0.9491793 0.0533458
vt 0.9491793 0.04931703
vt 0.9491793 0.0454798
vt 0.9139546 0.06937218
vt 0.9016724 0.06133312
vt 0.9427126 0.05782491
vt 0.9427126 0.05431142
vt 0.9427126 0.05080307
vt 0.9427126 0.04758772
vt 0.918215 0.06696653
vt 0.9385162 0.06133762
vt 0.9385865 0.05807167
vt 0.9384902 0.05492964
vt 0.9385371 0.05154678
vt 0.9384297 0.04876915
vt 0.9326153 0.06435013
vt 0.9324038 0.06134215
vt 0.9241884 0.06453854
vt 0.9326184 0.05831844
vt 0.9323243 0.05554786
vt 0.9324676 0.0522905
vt 0.93214 0.04995057
vt 0.9238713 0.06135166
vt 0.9187315 0.06441963
vt 0.9241931 0.05814946
vt 0.9237522 0.05538744
vt 0.923967 0.05178183
vt 0.9234755 0.04843295
vt 0.9183614 0.06135499
vt 0.9136614 0.06619358
vt 0.9142517 0.06404611
vt 0.9187369 0.05827633
vt 0.9138287 0.06135565
vt 0.9182225 0.05571485
vt 0.9184731 0.05216312
vt 0.9178997 0.04918021
vt 0.9142578 0.05865353
vt 0.9136699 0.05649579
vt 0.9139563 0.05329657
vt 0.9133011 0.05084506
vn -0.3749793 -0.2898101 0.8805684
vn 0 -0.3270124 0.9450201
vn 0 -0.3369577 0.9415198
vn -0.3749831 -0.2997624 0.8772286
vn -0.3748199 -0.2702788 0.8868254
vn -1.956569E-07 -0.3072551 0.9516272
vn -0.6938203 -0.184232 0.6961839
vn -0.6946084 -0.1939967 0.6927369
vn -0.6921668 -0.1654684 0.7025136
vn -0.3746037 -0.2520763 0.8922609
vn -3.259938E-07 -0.2886415 0.9574372
vn -0.9084641 -0.0268129 0.4171019
vn -0.9100337 -0.03615202 0.4129546
vn -0.9052181 -0.009119887 0.4248495
vn -0.6904576 -0.1483489 0.7079977
vn -0.3744328 -0.2408088 0.8954391
vn -3.911613E-07 -0.2769577 0.9608822
vn -0.9838812 0.1573979 0.08487412
vn -0.9856908 0.148457 0.07983899
vn -0.9093985 0.3300715 -0.2530757
vn -0.9801117 0.1743788 0.09472682
vn -0.9019403 0.006847383 0.4318064
vn -0.6893218 -0.1380225 0.7111858
vn -0.3741912 -0.234884 0.8971123
vn -3.912482E-07 -0.2699648 0.9628702
vn -0.9762571 0.1899712 0.1040815
vn -0.8998037 0.01635426 0.4359883
vn -0.6884473 -0.1318741 0.7131966
vn -0.3722818 -0.2163448 0.9025526
vn -9.194453E-07 -0.2475221 0.9688821
vn -0.9737054 0.1994819 0.1100215
vn -0.8986042 0.02127522 0.4382441
vn -0.6843441 -0.1104587 0.7207441
vn -0.3626956 -0.1372277 0.9217486
vn -2.401074E-06 -0.1649433 0.986303
vn -0.9721233 0.2050961 0.1136313
vn -0.8984758 0.3823179 -0.2158109
vn -0.8941976 0.03838591 0.4460237
vn -0.6662647 -0.03150807 0.7450494
vn -0.3415509 -0.003398487 0.9398571
vn -4.417734E-06 0.07787565 0.9969631
vn -4.278866E-06 0.8709722 0.4913324
vn -0.5883701 0.1957064 0.7845505
vn -0.9664211 0.2244941 0.1250305
vn -0.8718722 0.1112489 0.4769303
vn -0.8217197 0.2310005 0.5209755
vn -0.9411737 0.2947531 0.1652653
vn -0.8313793 0.4841607 0.2727579
vn -0.8972107 0.3876658 -0.2114902
vn -0.893007 0.4031513 -0.2000185
vn -0.8710372 0.4668755 -0.1527136
vn -0.8211574 0.5661172 -0.07219274
vn -0.5874441 0.7733967 -0.2382581
vn -0.6647754 0.6224327 -0.4130994
vn -0.3406781 0.8032256 -0.488638
vn -1.08335E-06 0.8938633 -0.4483396
vn -2.05682E-07 0.7591174 -0.6509538
vn -0.3614092 0.7185118 -0.5942428
vn -3.280551E-07 0.7012873 -0.7128786
vn -0.6822492 0.5609924 -0.4688535
vn -0.370484 0.6610925 -0.6524556
vn 0 0.6838647 -0.7296089
vn -0.6860206 0.5431415 -0.4841208
vn -0.3721304 0.6462631 -0.6662304
vn 0 0.6762232 -0.7366968
vn -0.6871063 0.5364319 -0.4900264
vn -0.3726129 0.6395347 -0.6724248
vn -0.9008923 0.371944 -0.2237205
vn -0.373613 0.6266831 -0.6838725
vn 0 0.6628427 -0.7487587
vn -0.6890211 0.5247415 -0.4998962
vn -0.9044278 0.3557335 -0.2355079
vn -0.3749753 0.6081872 -0.699644
vn 1.304707E-07 0.6438177 -0.765179
vn -0.6917157 0.5073576 -0.5139238
vn -0.9077809 0.338786 -0.2473014
vn -0.6941496 0.4899982 -0.5273122
vn -0.695247 0.4814023 -0.5337448
vn -0.3761228 0.5903047 -0.7141932
vn 1.309536E-07 0.625632 -0.7801183
vn -0.3765286 0.5816768 -0.7210258
vn 2.65667E-07 0.616924 -0.7870228
vn 2.65667E-07 0.616924 -0.7870228
vn 0.376123 0.5903046 -0.7141932
vn 1.309536E-07 0.625632 -0.7801183
vn 0.3765287 0.5816768 -0.7210258
vn 1.304707E-07 0.6438177 -0.765179
vn 0.695247 0.4814024 -0.5337448
vn 0.3749753 0.6081872 -0.6996441
vn 0 0.6628427 -0.7487587
vn 0.6941497 0.489998 -0.5273122
vn 0.9093985 0.3300714 -0.2530756
vn 0.3736132 0.626683 -0.6838725
vn 0 0.6762232 -0.7366968
vn 0.6917157 0.5073575 -0.5139239
vn 0.9077809 0.3387859 -0.2473014
vn 0.372613 0.6395347 -0.6724247
vn 0 0.6838647 -0.7296089
vn 0.9838812 0.1573979 0.08487412
vn 0.9856908 0.148457 0.079839
vn 0.9100337 -0.03615202 0.4129548
vn 0.9044278 0.3557333 -0.235508
vn 0.6890212 0.5247415 -0.4998963
vn 0.3721303 0.6462632 -0.6662302
vn -3.280551E-07 0.7012873 -0.7128786
vn 0.9084641 -0.0268129 0.417102
vn 0.6946083 -0.1939966 0.692737
vn 0.6871065 0.5364317 -0.4900261
vn 0.9801117 0.1743788 0.09472669
vn 0.9008923 0.3719438 -0.2237206
vn 0.3704842 0.6610928 -0.6524552
vn -2.05682E-07 0.7591174 -0.6509538
vn 0.6938204 -0.184232 0.6961839
vn 0.3749831 -0.2997624 0.8772286
vn 0.6860207 0.5431419 -0.4841204
vn 0.9052181 -0.009119887 0.4248495
vn 0.8984759 0.3823177 -0.2158107
vn 0.9762572 0.1899712 0.1040814
vn 0.3614091 0.7185126 -0.5942417
vn -1.08335E-06 0.8938633 -0.4483396
vn 0.374979 -0.2898101 0.8805684
vn 0 -0.3369577 0.9415198
vn 0 -0.3270124 0.9450201
vn 0.6822495 0.5609928 -0.4688526
vn 0.6921666 -0.1654685 0.7025138
vn 0.3748197 -0.2702788 0.8868256
vn -1.956569E-07 -0.3072551 0.9516272
vn 0.3406776 0.803227 -0.488636
vn -4.278866E-06 0.8709722 0.4913324
vn 0.9019403 0.006847384 0.4318064
vn 0.6904575 -0.1483489 0.7079979
vn 0.3746033 -0.2520762 0.8922611
vn -3.259938E-07 -0.2886415 0.9574372
vn 0.664776 0.6224338 -0.4130969
vn 0.9737055 0.1994819 0.1100214
vn 0.8998038 0.01635427 0.4359882
vn 0.6893217 -0.1380224 0.7111859
vn 0.3744322 -0.2408089 0.8954393
vn -3.911613E-07 -0.2769577 0.9608822
vn 0.8972109 0.3876658 -0.2114896
vn 0.9721233 0.2050961 0.1136316
vn 0.8930072 0.4031518 -0.2000169
vn 0.898604 0.02127496 0.4382443
vn 0.688447 -0.1318743 0.7131969
vn 0.3741905 -0.2348842 0.8971125
vn -3.912482E-07 -0.2699648 0.9628702
vn 0.9664209 0.2244941 0.1250321
vn 0.8710374 0.4668762 -0.15271
vn 0.894197 0.03838565 0.4460249
vn 0.6843432 -0.1104589 0.7207449
vn 0.3722803 -0.2163449 0.9025531
vn -9.194453E-07 -0.2475221 0.9688821
vn 0.941173 0.2947532 0.1652694
vn 0.587443 0.7733986 -0.2382546
vn 0.8211569 0.5661187 -0.07218714
vn 0.8718705 0.1112483 0.4769336
vn 0.831377 0.4841611 0.2727641
vn 0.666262 -0.03150871 0.7450519
vn 0.3626917 -0.1372281 0.92175
vn -2.401074E-06 -0.1649433 0.986303
vn 0.8217164 0.2309996 0.5209811
vn 0.5883646 0.1957059 0.7845548
vn 0.3415439 -0.003399002 0.9398596
vn -4.417734E-06 0.07787565 0.9969631
g pm0118_00_HornSkin_0
f 3/3/3 2/2/2 1/1/1
f 4/4/4 3/3/3 1/1/1
f 1/1/1 2/2/2 5/5/5
f 2/2/2 6/6/6 5/5/5
f 4/4/4 1/1/1 7/7/7
f 8/8/8 4/4/4 7/7/7
f 1/1/1 5/5/5 9/9/9
f 7/7/7 1/1/1 9/9/9
f 5/5/5 6/6/6 10/10/10
f 6/6/6 11/11/11 10/10/10
f 8/8/8 7/7/7 12/12/12
f 13/13/13 8/8/8 12/12/12
f 7/7/7 9/9/9 14/14/14
f 12/12/12 7/7/7 14/14/14
f 9/9/9 5/5/5 15/15/15
f 5/5/5 10/10/10 15/15/15
f 10/10/10 11/11/11 16/16/16
f 11/11/11 17/17/17 16/16/16
f 13/13/13 12/12/12 18/18/18
f 19/19/19 13/13/13 18/18/18
f 19/19/19 18/18/18 20/20/20
f 12/12/12 14/14/14 21/21/21
f 18/18/18 12/12/12 21/21/21
f 14/14/14 9/9/9 22/22/22
f 9/9/9 15/15/15 22/22/22
f 15/15/15 10/10/10 23/23/23
f 10/10/10 16/16/16 23/23/23
f 16/16/16 17/17/17 24/24/24
f 17/17/17 25/25/25 24/24/24
f 21/21/21 14/14/14 26/26/26
f 14/14/14 22/22/22 26/26/26
f 22/22/22 15/15/15 27/27/27
f 15/15/15 23/23/23 27/27/27
f 23/23/23 16/16/16 28/28/28
f 16/16/16 24/24/24 28/28/28
f 24/24/24 25/25/25 29/29/29
f 25/25/25 30/30/30 29/29/29
f 26/26/26 22/22/22 31/31/31
f 22/22/22 27/27/27 31/31/31
f 27/27/27 23/23/23 32/32/32
f 23/23/23 28/28/28 32/32/32
f 28/28/28 24/24/24 33/33/33
f 24/24/24 29/29/29 33/33/33
f 29/29/29 30/30/30 34/34/34
f 30/30/30 35/35/35 34/34/34
f 31/31/31 27/27/27 36/36/36
f 27/27/27 32/32/32 36/36/36
f 31/31/31 37/37/37 26/26/26
f 31/31/31 36/36/36 37/37/37
f 32/32/32 28/28/28 38/38/38
f 28/28/28 33/33/33 38/38/38
f 33/33/33 29/29/29 39/39/39
f 29/29/29 34/34/34 39/39/39
f 34/34/34 35/35/35 40/40/40
f 35/35/35 41/41/41 40/40/40
f 40/40/40 41/41/41 42/42/42
f 34/34/34 40/40/40 43/43/43
f 39/39/39 34/34/34 43/43/43
f 43/43/43 40/40/40 42/42/42
f 36/36/36 32/32/32 44/44/44
f 32/32/32 38/38/38 44/44/44
f 33/33/33 39/39/39 45/45/45
f 38/38/38 33/33/33 45/45/45
f 39/39/39 43/43/43 46/46/46
f 46/46/46 43/43/43 42/42/42
f 45/45/45 39/39/39 46/46/46
f 38/38/38 45/45/45 47/47/47
f 44/44/44 38/38/38 47/47/47
f 45/45/45 46/46/46 48/48/48
f 48/48/48 46/46/46 42/42/42
f 47/47/47 45/45/45 48/48/48
f 36/36/36 44/44/44 49/49/49
f 36/36/36 49/49/49 37/37/37
f 44/44/44 47/47/47 50/50/50
f 44/44/44 50/50/50 49/49/49
f 47/47/47 48/48/48 51/51/51
f 47/47/47 51/51/51 50/50/50
f 52/52/52 48/48/48 42/42/42
f 48/48/48 52/52/52 51/51/51
f 53/53/53 52/52/52 42/42/42
f 51/51/51 52/52/52 53/53/53
f 50/50/50 51/51/51 54/54/54
f 54/54/54 51/51/51 53/53/53
f 55/55/55 53/53/53 42/42/42
f 54/54/54 53/53/53 55/55/55
f 56/56/56 55/55/55 42/42/42
f 55/55/55 56/56/56 57/57/57
f 58/58/58 55/55/55 57/57/57
f 58/58/58 54/54/54 55/55/55
f 58/58/58 57/57/57 59/59/59
f 60/60/60 50/50/50 54/54/54
f 49/49/49 50/50/50 60/60/60
f 60/60/60 54/54/54 58/58/58
f 61/61/61 58/58/58 59/59/59
f 61/61/61 60/60/60 58/58/58
f 61/61/61 59/59/59 62/62/62
f 63/63/63 49/49/49 60/60/60
f 63/63/63 60/60/60 61/61/61
f 37/37/37 49/49/49 63/63/63
f 64/64/64 61/61/61 62/62/62
f 64/64/64 63/63/63 61/61/61
f 64/64/64 62/62/62 65/65/65
f 66/66/66 37/37/37 63/63/63
f 66/66/66 63/63/63 64/64/64
f 67/67/67 64/64/64 65/65/65
f 67/67/67 66/66/66 64/64/64
f 68/68/68 37/37/37 66/66/66
f 37/37/37 68/68/68 26/26/26
f 26/26/26 68/68/68 21/21/21
f 67/67/67 65/65/65 69/69/69
f 65/65/65 70/70/70 69/69/69
f 71/71/71 66/66/66 67/67/67
f 71/71/71 68/68/68 66/66/66
f 69/69/69 71/71/71 67/67/67
f 68/68/68 72/72/72 21/21/21
f 72/72/72 68/68/68 71/71/71
f 21/21/21 72/72/72 18/18/18
f 69/69/69 70/70/70 73/73/73
f 70/70/70 74/74/74 73/73/73
f 75/75/75 71/71/71 69/69/69
f 75/75/75 72/72/72 71/71/71
f 73/73/73 75/75/75 69/69/69
f 72/72/72 76/76/76 18/18/18
f 76/76/76 72/72/72 75/75/75
f 18/18/18 76/76/76 20/20/20
f 77/77/77 76/76/76 75/75/75
f 20/20/20 76/76/76 77/77/77
f 77/77/77 75/75/75 73/73/73
f 78/78/78 20/20/20 77/77/77
f 73/73/73 74/74/74 79/79/79
f 79/79/79 77/77/77 73/73/73
f 78/78/78 77/77/77 79/79/79
f 74/74/74 80/80/80 79/79/79
f 81/81/81 78/78/78 79/79/79
f 79/79/79 80/80/80 82/82/82
f 81/81/81 79/79/79 82/82/82
f 85/85/85 84/84/84 83/83/83
f 84/84/84 86/86/86 83/83/83
f 85/85/85 87/87/87 84/84/84
f 88/88/88 86/86/86 84/84/84
f 87/87/87 89/89/89 84/84/84
f 87/87/87 90/90/90 89/89/89
f 91/91/91 88/88/88 84/84/84
f 91/91/91 84/84/84 89/89/89
f 92/92/92 88/88/88 91/91/91
f 90/90/90 93/93/93 89/89/89
f 90/90/90 94/94/94 93/93/93
f 95/95/95 91/91/91 89/89/89
f 95/95/95 89/89/89 93/93/93
f 96/96/96 92/92/92 91/91/91
f 96/96/96 91/91/91 95/95/95
f 94/94/94 97/97/97 93/93/93
f 94/94/94 98/98/98 97/97/97
f 96/96/96 99/99/99 92/92/92
f 99/99/99 100/100/100 92/92/92
f 101/101/101 100/100/100 99/99/99
f 102/102/102 96/96/96 95/95/95
f 96/96/96 102/102/102 99/99/99
f 103/103/103 95/95/95 93/93/93
f 103/103/103 93/93/93 97/97/97
f 102/102/102 95/95/95 103/103/103
f 98/98/98 104/104/104 97/97/97
f 98/98/98 105/105/105 104/104/104
f 106/106/106 101/101/101 99/99/99
f 107/107/107 101/101/101 106/106/106
f 108/108/108 103/103/103 97/97/97
f 108/108/108 97/97/97 104/104/104
f 102/102/102 109/109/109 99/99/99
f 106/106/106 99/99/99 109/109/109
f 110/110/110 102/102/102 103/103/103
f 110/110/110 103/103/103 108/108/108
f 102/102/102 110/110/110 109/109/109
f 105/105/105 111/111/111 104/104/104
f 105/105/105 112/112/112 111/111/111
f 113/113/113 107/107/107 106/106/106
f 114/114/114 107/107/107 113/113/113
f 115/115/115 108/108/108 104/104/104
f 115/115/115 104/104/104 111/111/111
f 116/116/116 106/106/106 109/109/109
f 113/113/113 106/106/106 116/116/116
f 117/117/117 110/110/110 108/108/108
f 117/117/117 108/108/108 115/115/115
f 110/110/110 118/118/118 109/109/109
f 116/116/116 109/109/109 118/118/118
f 110/110/110 117/117/117 118/118/118
f 112/112/112 119/119/119 111/111/111
f 112/112/112 120/120/120 119/119/119
f 121/121/121 114/114/114 113/113/113
f 122/122/122 114/114/114 121/121/121
f 123/123/123 122/122/122 121/121/121
f 124/124/124 115/115/115 111/111/111
f 124/124/124 111/111/111 119/119/119
f 125/125/125 113/113/113 116/116/116
f 121/121/121 113/113/113 125/125/125
f 123/123/123 121/121/121 126/126/126
f 126/126/126 121/121/121 125/125/125
f 127/127/127 123/123/123 126/126/126
f 120/120/120 128/128/128 119/119/119
f 128/128/128 120/120/120 129/129/129
f 125/125/125 116/116/116 130/130/130
f 130/130/130 116/116/116 118/118/118
f 126/126/126 125/125/125 131/131/131
f 131/131/131 125/125/125 130/130/130
f 127/127/127 126/126/126 132/132/132
f 132/132/132 126/126/126 131/131/131
f 133/133/133 127/127/127 132/132/132
f 134/134/134 119/119/119 128/128/128
f 134/134/134 124/124/124 119/119/119
f 130/130/130 118/118/118 135/135/135
f 117/117/117 135/135/135 118/118/118
f 131/131/131 130/130/130 136/136/136
f 136/136/136 130/130/130 135/135/135
f 132/132/132 131/131/131 137/137/137
f 137/137/137 131/131/131 136/136/136
f 133/133/133 132/132/132 138/138/138
f 138/138/138 132/132/132 137/137/137
f 139/139/139 133/133/133 138/138/138
f 117/117/117 140/140/140 135/135/135
f 140/140/140 117/117/117 115/115/115
f 140/140/140 115/115/115 124/124/124
f 136/136/136 135/135/135 141/141/141
f 140/140/140 141/141/141 135/135/135
f 142/142/142 140/140/140 124/124/124
f 140/140/140 142/142/142 141/141/141
f 142/142/142 124/124/124 134/134/134
f 137/137/137 136/136/136 143/143/143
f 143/143/143 136/136/136 141/141/141
f 138/138/138 137/137/137 144/144/144
f 144/144/144 137/137/137 143/143/143
f 139/139/139 138/138/138 145/145/145
f 145/145/145 138/138/138 144/144/144
f 146/146/146 139/139/139 145/145/145
f 142/142/142 147/147/147 141/141/141
f 143/143/143 141/141/141 147/147/147
f 148/148/148 142/142/142 134/134/134
f 142/142/142 148/148/148 147/147/147
f 144/144/144 143/143/143 149/149/149
f 149/149/149 143/143/143 147/147/147
f 145/145/145 144/144/144 150/150/150
f 150/150/150 144/144/144 149/149/149
f 146/146/146 145/145/145 151/151/151
f 151/151/151 145/145/145 150/150/150
f 152/152/152 146/146/146 151/151/151
f 149/149/149 147/147/147 153/153/153
f 148/148/148 153/153/153 147/147/147
f 148/148/148 134/134/134 154/154/154
f 154/154/154 134/134/134 128/128/128
f 154/154/154 128/128/128 129/129/129
f 155/155/155 148/148/148 154/154/154
f 148/148/148 155/155/155 153/153/153
f 155/155/155 154/154/154 129/129/129
f 150/150/150 149/149/149 156/156/156
f 156/156/156 149/149/149 153/153/153
f 155/155/155 157/157/157 153/153/153
f 157/157/157 155/155/155 129/129/129
f 156/156/156 153/153/153 157/157/157
f 151/151/151 150/150/150 158/158/158
f 158/158/158 150/150/150 156/156/156
f 152/152/152 151/151/151 159/159/159
f 159/159/159 151/151/151 158/158/158
f 160/160/160 152/152/152 159/159/159
f 161/161/161 156/156/156 157/157/157
f 158/158/158 156/156/156 161/161/161
f 161/161/161 157/157/157 129/129/129
f 162/162/162 158/158/158 161/161/161
f 159/159/159 158/158/158 162/162/162
f 162/162/162 161/161/161 129/129/129
f 160/160/160 159/159/159 163/163/163
f 163/163/163 159/159/159 162/162/162
f 163/163/163 162/162/162 129/129/129
f 164/164/164 160/160/160 163/163/163
f 164/164/164 163/163/163 129/129/129
