g pm0251_00_FeelerSkin
v 0.01589617 0.2826791 -0.03964654
v 0.01589617 0.2862945 -0.03758068
v 0.01589617 0.2899447 -0.05051384
v 0.01589617 0.272319 -0.05051384
v 0.01589617 0.2927517 -0.06451607
v 0.01589617 0.2644795 -0.06451607
v 0.01589617 0.295806 -0.08250369
v 0.01589617 0.2563302 -0.08250369
v 0.01589617 0.2981405 -0.1058833
v 0.01589617 0.2487495 -0.1058833
v 0.01589617 0.2997358 -0.1326653
v 0.01589617 0.2435465 -0.1326653
v 0.01589617 0.2997591 -0.1594473
v 0.01589617 0.2410612 -0.1594473
v 0.01589617 0.2984012 -0.1850013
v 0.01589617 0.2433012 -0.1850013
v 0.01589617 0.2958978 -0.204204
v 0.01589617 0.2477721 -0.204204
v 0.01589617 0.2921445 -0.2191335
v 0.01589617 0.2549016 -0.2191335
v 0.01589617 0.288403 -0.2296998
v 0.01589617 0.2622079 -0.2296998
v 0.01589617 0.284868 -0.2384458
v 0.01589617 0.2693576 -0.2384458
v 0.01589617 0.2823561 -0.241506
v 0.01589617 0.2774106 -0.2426767
v 0.01589617 0.2735834 -0.2415984
v 0.01589617 0.2826792 -0.03964654
v 0.01589617 0.2899447 -0.05051384
v 0.01589617 0.2862945 -0.03758068
v 0.01589617 0.272319 -0.05051384
v 0.01589617 0.2927517 -0.06451607
v 0.01589617 0.2644795 -0.06451607
v 0.01589617 0.295806 -0.08250369
v 0.01589617 0.2563302 -0.08250369
v 0.01589617 0.2981405 -0.1058833
v 0.01589617 0.2487495 -0.1058833
v 0.01589617 0.2997358 -0.1326653
v 0.01589617 0.2435465 -0.1326653
v 0.01589617 0.2997591 -0.1594473
v 0.01589617 0.2410612 -0.1594473
v 0.01589617 0.2984012 -0.1850013
v 0.01589617 0.2433012 -0.1850013
v 0.01589617 0.2958978 -0.204204
v 0.01589617 0.2477721 -0.204204
v 0.01589617 0.2921445 -0.2191335
v 0.01589617 0.2549016 -0.2191335
v 0.01589617 0.288403 -0.2296998
v 0.01589617 0.2622079 -0.2296998
v 0.01589617 0.284868 -0.2384458
v 0.01589617 0.2693576 -0.2384458
v 0.01589617 0.2823561 -0.241506
v 0.01589617 0.2774105 -0.2426767
v 0.01589617 0.2735834 -0.2415984
v -0.01589617 0.2826792 -0.03964654
v -0.01589617 0.2899447 -0.05051384
v -0.01589617 0.2862945 -0.03758068
v -0.01589617 0.272319 -0.05051384
v -0.01589617 0.2927517 -0.06451607
v -0.01589617 0.2644795 -0.06451607
v -0.01589617 0.295806 -0.08250369
v -0.01589617 0.2563302 -0.08250369
v -0.01589617 0.2981405 -0.1058833
v -0.01589617 0.2487495 -0.1058833
v -0.01589617 0.2997358 -0.1326653
v -0.01589617 0.2435465 -0.1326653
v -0.01589617 0.2997591 -0.1594473
v -0.01589617 0.2410612 -0.1594473
v -0.01589617 0.2984012 -0.1850013
v -0.01589617 0.2433012 -0.1850013
v -0.01589617 0.2958978 -0.204204
v -0.01589617 0.2477721 -0.204204
v -0.01589617 0.2921445 -0.2191335
v -0.01589617 0.2549016 -0.2191335
v -0.01589617 0.288403 -0.2296998
v -0.01589617 0.2622079 -0.2296998
v -0.01589617 0.284868 -0.2384458
v -0.01589617 0.2693576 -0.2384458
v -0.01589617 0.2823561 -0.241506
v -0.01589617 0.2774105 -0.2426767
v -0.01589617 0.2735834 -0.2415984
v -0.01589616 0.2826791 -0.03964654
v -0.01589616 0.2862945 -0.03758068
v -0.01589616 0.2899447 -0.05051384
v -0.01589616 0.272319 -0.05051384
v -0.01589616 0.2927517 -0.06451607
v -0.01589616 0.2644795 -0.06451607
v -0.01589616 0.295806 -0.08250369
v -0.01589616 0.2563302 -0.08250369
v -0.01589616 0.2981405 -0.1058833
v -0.01589616 0.2487495 -0.1058833
v -0.01589616 0.2997358 -0.1326653
v -0.01589616 0.2435465 -0.1326653
v -0.01589616 0.2997591 -0.1594473
v -0.01589616 0.2410612 -0.1594473
v -0.01589616 0.2984012 -0.1850013
v -0.01589616 0.2433012 -0.1850013
v -0.01589616 0.2958978 -0.204204
v -0.01589616 0.2477721 -0.204204
v -0.01589616 0.2921445 -0.2191335
v -0.01589616 0.2549016 -0.2191335
v -0.01589616 0.288403 -0.2296998
v -0.01589616 0.2622079 -0.2296998
v -0.01589616 0.284868 -0.2384458
v -0.01589616 0.2693576 -0.2384458
v -0.01589616 0.2823561 -0.241506
v -0.01589616 0.2774106 -0.2426767
v -0.01589616 0.2735834 -0.2415984
vt 0.564238 0.4147179
vt 0.5670314 0.4189659
vt 0.5494844 0.4232259
vt 0.5495244 0.4025351
vt 0.5304899 0.4264943
vt 0.5305533 0.3933048
vt 0.5060897 0.4300451
vt 0.5061781 0.3837035
vt 0.4743795 0.4327403
vt 0.4744902 0.374759
vt 0.4380576 0.4345607
vt 0.438183 0.3685994
vt 0.401738 0.434536
vt 0.4018701 0.3656301
vt 0.3670877 0.4328922
vt 0.3672112 0.3682101
vt 0.3410528 0.4299163
vt 0.3411608 0.3734213
vt 0.3208157 0.4254816
vt 0.3208988 0.3817614
vt 0.306495 0.4210686
vt 0.3065537 0.3903181
vt 0.2946425 0.4169019
vt 0.294678 0.3986943
vt 0.2888083 0.4143381
vt 0.2846748 0.4081393
vt 0.2870614 0.3999862
vt 0.623262 0.4147179
vt 0.6380156 0.4232259
vt 0.6204686 0.4189659
vt 0.6379756 0.4025351
vt 0.6570101 0.4264942
vt 0.6569467 0.3933048
vt 0.6814103 0.4300451
vt 0.6813218 0.3837034
vt 0.7131205 0.4327402
vt 0.7130098 0.374759
vt 0.7494423 0.4345607
vt 0.749317 0.3685994
vt 0.785762 0.434536
vt 0.7856299 0.36563
vt 0.8204123 0.4328922
vt 0.8202888 0.3682101
vt 0.8464472 0.4299163
vt 0.8463392 0.3734213
vt 0.8666843 0.4254816
vt 0.8666012 0.3817614
vt 0.8810049 0.4210686
vt 0.8809463 0.3903181
vt 0.8928574 0.4169019
vt 0.892822 0.3986943
vt 0.8986917 0.4143381
vt 0.9028252 0.4081393
vt 0.9004385 0.3999862
vt 0.564238 0.4147179
vt 0.5494844 0.4232259
vt 0.5670314 0.4189659
vt 0.5495244 0.4025351
vt 0.5304899 0.4264942
vt 0.5305533 0.3933048
vt 0.5060897 0.4300451
vt 0.5061781 0.3837034
vt 0.4743795 0.4327402
vt 0.4744902 0.374759
vt 0.4380576 0.4345607
vt 0.438183 0.3685994
vt 0.401738 0.434536
vt 0.4018701 0.36563
vt 0.3670877 0.4328922
vt 0.3672112 0.3682101
vt 0.3410528 0.4299163
vt 0.3411608 0.3734213
vt 0.3208157 0.4254816
vt 0.3208988 0.3817614
vt 0.306495 0.4210686
vt 0.3065537 0.3903181
vt 0.2946425 0.4169019
vt 0.294678 0.3986943
vt 0.2888083 0.4143381
vt 0.2846748 0.4081393
vt 0.2870614 0.3999862
vt 0.623262 0.4147179
vt 0.6204686 0.4189659
vt 0.6380156 0.4232259
vt 0.6379756 0.4025351
vt 0.6570101 0.4264942
vt 0.6569467 0.3933048
vt 0.6814103 0.4300451
vt 0.6813218 0.3837034
vt 0.7131205 0.4327402
vt 0.7130098 0.374759
vt 0.7494423 0.4345607
vt 0.7493169 0.3685994
vt 0.785762 0.434536
vt 0.7856299 0.36563
vt 0.8204123 0.4328922
vt 0.8202888 0.3682101
vt 0.8464472 0.4299163
vt 0.8463392 0.3734213
vt 0.8666843 0.4254816
vt 0.8666012 0.3817614
vt 0.8810049 0.4210686
vt 0.8809463 0.3903181
vt 0.8928574 0.4169019
vt 0.892822 0.3986943
vt 0.8986917 0.4143381
vt 0.9028252 0.4081393
vt 0.9004385 0.3999862
vn 1 0 0
vn 1 0 0
vn 1 0 0
vn 1 0 0
vn 1 0 0
vn 1 0 0
vn 1 0 0
vn 1 0 0
vn 1 0 0
vn 1 0 0
vn 1 0 0
vn 1 0 0
vn 1 0 0
vn 1 0 0
vn 1 0 0
vn 1 0 0
vn 1 0 0
vn 1 0 0
vn 1 0 0
vn 1 0 0
vn 1 0 0
vn 1 0 0
vn 1 0 0
vn 1 0 0
vn 1 0 0
vn 1 0 0
vn 1 0 0
vn -1 0 0
vn -1 0 0
vn -1 0 0
vn -1 0 0
vn -1 0 0
vn -1 0 0
vn -1 0 0
vn -1 0 0
vn -1 0 0
vn -1 0 0
vn -1 0 0
vn -1 0 0
vn -1 0 0
vn -1 0 0
vn -1 0 0
vn -1 0 0
vn -1 0 0
vn -1 0 0
vn -1 0 0
vn -1 0 0
vn -1 -1.192093E-07 0
vn -1 -1.788139E-07 0
vn -1 -2.384186E-07 0
vn -1 -4.768372E-07 0
vn -1 -3.576279E-07 0
vn -1 -5.364418E-07 0
vn -1 -5.960464E-07 0
vn -1 0 0
vn -1 0 0
vn -1 0 0
vn -1 0 0
vn -1 0 0
vn -1 0 0
vn -1 0 0
vn -1 0 0
vn -1 0 0
vn -1 0 0
vn -1 0 0
vn -1 0 0
vn -1 0 0
vn -1 0 0
vn -1 0 0
vn -1 0 0
vn -1 0 0
vn -1 0 0
vn -1 0 0
vn -1 0 0
vn -1 0 0
vn -1 1.192093E-07 0
vn -1 2.384186E-07 0
vn -1 3.576279E-07 0
vn -1 4.768372E-07 0
vn -1 4.768372E-07 0
vn -1 5.960464E-07 0
vn 1 0 0
vn 1 0 0
vn 1 0 0
vn 1 0 0
vn 1 0 0
vn 1 0 0
vn 1 0 0
vn 1 0 0
vn 1 0 0
vn 1 0 0
vn 1 0 0
vn 1 0 0
vn 1 0 0
vn 1 0 0
vn 1 0 0
vn 1 0 0
vn 1 0 0
vn 1 0 0
vn 1 0 0
vn 1 0 0
vn 1 -1.192093E-07 0
vn 1 -1.788139E-07 0
vn 1 -2.384186E-07 0
vn 1 -2.980232E-07 0
vn 1 -2.980232E-07 0
vn 1 -4.768372E-07 0
vn 1 -5.364418E-07 0
g pm0251_00_FeelerSkin_0
f 3/3/3 2/2/2 1/1/1
f 4/4/4 3/3/3 1/1/1
f 5/5/5 3/3/3 4/4/4
f 6/6/6 5/5/5 4/4/4
f 7/7/7 5/5/5 6/6/6
f 8/8/8 7/7/7 6/6/6
f 9/9/9 7/7/7 8/8/8
f 10/10/10 9/9/9 8/8/8
f 11/11/11 9/9/9 10/10/10
f 12/12/12 11/11/11 10/10/10
f 13/13/13 11/11/11 12/12/12
f 14/14/14 13/13/13 12/12/12
f 15/15/15 13/13/13 14/14/14
f 16/16/16 15/15/15 14/14/14
f 17/17/17 15/15/15 16/16/16
f 18/18/18 17/17/17 16/16/16
f 19/19/19 17/17/17 18/18/18
f 20/20/20 19/19/19 18/18/18
f 21/21/21 19/19/19 20/20/20
f 22/22/22 21/21/21 20/20/20
f 23/23/23 21/21/21 22/22/22
f 24/24/24 23/23/23 22/22/22
f 25/25/25 23/23/23 24/24/24
f 26/26/26 25/25/25 24/24/24
f 27/27/27 26/26/26 24/24/24
f 30/30/30 29/29/29 28/28/28
f 29/29/29 31/31/31 28/28/28
f 29/29/29 32/32/32 31/31/31
f 32/32/32 33/33/33 31/31/31
f 32/32/32 34/34/34 33/33/33
f 34/34/34 35/35/35 33/33/33
f 34/34/34 36/36/36 35/35/35
f 36/36/36 37/37/37 35/35/35
f 36/36/36 38/38/38 37/37/37
f 38/38/38 39/39/39 37/37/37
f 38/38/38 40/40/40 39/39/39
f 40/40/40 41/41/41 39/39/39
f 40/40/40 42/42/42 41/41/41
f 42/42/42 43/43/43 41/41/41
f 42/42/42 44/44/44 43/43/43
f 44/44/44 45/45/45 43/43/43
f 44/44/44 46/46/46 45/45/45
f 46/46/46 47/47/47 45/45/45
f 46/46/46 48/48/48 47/47/47
f 48/48/48 49/49/49 47/47/47
f 48/48/48 50/50/50 49/49/49
f 50/50/50 51/51/51 49/49/49
f 50/50/50 52/52/52 51/51/51
f 52/52/52 53/53/53 51/51/51
f 53/53/53 54/54/54 51/51/51
f 57/57/57 56/56/56 55/55/55
f 56/56/56 58/58/58 55/55/55
f 56/56/56 59/59/59 58/58/58
f 59/59/59 60/60/60 58/58/58
f 59/59/59 61/61/61 60/60/60
f 61/61/61 62/62/62 60/60/60
f 61/61/61 63/63/63 62/62/62
f 63/63/63 64/64/64 62/62/62
f 63/63/63 65/65/65 64/64/64
f 65/65/65 66/66/66 64/64/64
f 65/65/65 67/67/67 66/66/66
f 67/67/67 68/68/68 66/66/66
f 67/67/67 69/69/69 68/68/68
f 69/69/69 70/70/70 68/68/68
f 69/69/69 71/71/71 70/70/70
f 71/71/71 72/72/72 70/70/70
f 71/71/71 73/73/73 72/72/72
f 73/73/73 74/74/74 72/72/72
f 73/73/73 75/75/75 74/74/74
f 75/75/75 76/76/76 74/74/74
f 75/75/75 77/77/77 76/76/76
f 77/77/77 78/78/78 76/76/76
f 77/77/77 79/79/79 78/78/78
f 79/79/79 80/80/80 78/78/78
f 80/80/80 81/81/81 78/78/78
f 84/84/84 83/83/83 82/82/82
f 85/85/85 84/84/84 82/82/82
f 86/86/86 84/84/84 85/85/85
f 87/87/87 86/86/86 85/85/85
f 88/88/88 86/86/86 87/87/87
f 89/89/89 88/88/88 87/87/87
f 90/90/90 88/88/88 89/89/89
f 91/91/91 90/90/90 89/89/89
f 92/92/92 90/90/90 91/91/91
f 93/93/93 92/92/92 91/91/91
f 94/94/94 92/92/92 93/93/93
f 95/95/95 94/94/94 93/93/93
f 96/96/96 94/94/94 95/95/95
f 97/97/97 96/96/96 95/95/95
f 98/98/98 96/96/96 97/97/97
f 99/99/99 98/98/98 97/97/97
f 100/100/100 98/98/98 99/99/99
f 101/101/101 100/100/100 99/99/99
f 102/102/102 100/100/100 101/101/101
f 103/103/103 102/102/102 101/101/101
f 104/104/104 102/102/102 103/103/103
f 105/105/105 104/104/104 103/103/103
f 106/106/106 104/104/104 105/105/105
f 107/107/107 106/106/106 105/105/105
f 108/108/108 107/107/107 105/105/105
