g pm0302_51_ItemOffsetSkin
v 0.14675078 0.13998793 -1.8882446E-11
v 0.14352916 0.15071183 -1.1758821E-11
v 0.14241439 0.14953935 0.006084083
v 0.14560519 0.13888805 0.00609251
v 0.14675078 -0.13998798 -1.6472695E-11
v 0.004885498 0.28727415 0.0060857036
v 0.004907991 0.28952602 -1.8856024E-11
v 0.14560519 -0.13888808 0.0060925097
v 0.14352916 -0.15071188 -1.8881991E-11
v -0.0048855445 0.28727415 0.0060857036
v -0.004908037 0.28952602 -1.8857428E-11
v 0.14241439 -0.14953938 0.006084083
v 0.0049080383 -0.28952596 -1.8856024E-11
v 0.0048855315 -0.28727427 0.0060857926
v -0.004907991 -0.28952596 -1.8857428E-11
v 0.07831554 -0.088328935 0.07540303
v 0.082367666 -0.07861473 0.07487919
v 0.082367666 0.07861473 0.07487919
v 0.078315504 0.08832896 0.07540286
v 0.07415879 -0.07819899 0.07868492
v -0.14241436 0.14953935 0.006084083
v -0.14352916 0.15071183 -9.400623E-12
v 0.00481257 0.16492066 0.07497179
v 0.07415878 0.07819903 0.078684784
v -0.00481257 0.16492066 0.07497179
v 4.112377E-12 0.15636034 0.078352846
v -0.14560522 0.13888805 0.006092509
v -0.14675076 0.13998798 -1.8882446E-11
v 4.7188177E-11 -1.8528074E-09 0.078716785
v -0.078315526 0.088328935 0.07540286
v -0.0741588 0.07819903 0.078684784
v -0.14560518 -0.13888808 0.0060925097
v -0.14675075 -0.139988 -1.1785109E-11
v -0.08236769 0.07861473 0.07487919
v -0.07415881 -0.078199014 0.07868492
v 4.1538375E-08 -0.15636025 0.07869018
v -0.14241436 -0.1495394 0.006084083
v -0.14352916 -0.15071186 -9.42659E-12
v -0.08236764 -0.07861473 0.07487919
v 0.004812484 -0.16492048 0.07530941
v -0.0048124376 -0.16492052 0.07530941
v -0.07831552 -0.08832891 0.07540303
v -0.0048854393 -0.28727427 0.0060857926
v 0.14241439 0.14953935 -0.006084083
v 0.004907991 0.28952602 -1.8856024E-11
v 0.14352916 0.15071183 -1.1758821E-11
v 0.0048854393 0.28727433 -0.0060857926
v -0.004908037 0.28952602 -1.8857428E-11
v 0.14560519 0.13888805 -0.00609251
v 0.14675078 0.13998793 -1.8882446E-11
v -0.004885486 0.28727433 -0.0060857926
v -0.14352916 0.15071183 -9.400623E-12
v 0.14560519 -0.13888808 -0.0060925097
v 0.14675078 -0.13998798 -1.6472695E-11
v -0.14241436 0.14953935 -0.006084083
v -0.14675076 0.13998798 -1.8882446E-11
v 0.14241439 -0.14953938 -0.006084083
v 0.14352916 -0.15071188 -1.8881991E-11
v 0.0048855315 -0.28727427 -0.0060857926
v 0.0049080383 -0.28952596 -1.8856024E-11
v 0.07831554 -0.088328935 -0.07540303
v 0.082367666 -0.07861473 -0.07487919
v 0.082367666 0.07861473 -0.07487919
v -0.14560522 0.13888805 -0.006092509
v -0.14675075 -0.139988 -1.1785109E-11
v -0.0048854393 -0.28727427 -0.0060857926
v -0.004907991 -0.28952596 -1.8857428E-11
v 0.07415879 -0.07819899 -0.07868492
v 0.07831554 0.08832896 -0.07540303
v -0.14560518 -0.13888808 -0.0060925097
v -0.14352916 -0.15071186 -9.42659E-12
v -0.14241436 -0.1495394 -0.006084083
v 0.07415879 0.07819899 -0.07868492
v 0.0048124376 0.16492055 -0.07530941
v -1.5798029E-12 0.15636031 -0.07869018
v -0.0048124376 0.16492055 -0.07530941
v 4.7188163E-11 -1.2250507E-09 -0.078716904
v -0.07831556 0.088328935 -0.07540303
v -0.07415881 0.07819899 -0.07868492
v -0.08236769 0.07861473 -0.07487919
v 4.1538375E-08 -0.15636025 -0.07869018
v -0.07415881 -0.078199014 -0.07868492
v -0.08236764 -0.07861473 -0.07487919
v -0.07831552 -0.08832891 -0.07540303
v -0.0048124376 -0.16492052 -0.07530941
v 0.004812484 -0.16492048 -0.07530941
vt 0.1989806 0.67471546
vt 0.21005121 0.7033565
vt 0.23096928 0.6906723
vt 0.22065353 0.65967137
vt 0.19275936 0.27815774
vt 0.469253 0.8562582
vt 0.46836078 0.90957457
vt 0.22050723 0.2958772
vt 0.21161482 0.24147302
vt 0.5162639 0.8575841
vt 0.51626396 0.9089311
vt 0.2378242 0.26122501
vt 0.4661774 0.06252095
vt 0.46542573 0.10501187
vt 0.5271592 0.06252095
vt 0.34288856 0.32960027
vt 0.32811844 0.3666874
vt 0.31607684 0.57995677
vt 0.33970726 0.62121254
vt 0.37648538 0.38290814
vt 0.74714506 0.6901899
vt 0.7762935 0.71352005
vt 0.4718334 0.724495
vt 0.3710479 0.5670183
vt 0.5162639 0.7266539
vt 0.4987837 0.66981584
vt 0.7656903 0.6551128
vt 0.79197586 0.6723091
vt 0.4916904 0.47813952
vt 0.64272153 0.6137509
vt 0.6111269 0.57779413
vt 0.7709171 0.28955022
vt 0.79124254 0.2771851
vt 0.6655102 0.5755743
vt 0.6205131 0.37823072
vt 0.4904613 0.2862492
vt 0.758312 0.25771764
vt 0.77677524 0.2447801
vt 0.663753 0.36997312
vt 0.46949843 0.23185623
vt 0.5178625 0.23430824
vt 0.6456559 0.3388407
vt 0.5290576 0.10319179
vt 0.23096928 0.6906723
vt 0.46836078 0.90957457
vt 0.21005121 0.7033565
vt 0.469253 0.8562582
vt 0.51626396 0.9089311
vt 0.22065353 0.65967137
vt 0.1989806 0.67471546
vt 0.5162639 0.8575841
vt 0.7762935 0.71352005
vt 0.22050723 0.2958772
vt 0.19275936 0.27815774
vt 0.74714506 0.6901899
vt 0.79197586 0.6723091
vt 0.2378242 0.26122501
vt 0.21161482 0.24147302
vt 0.46542573 0.10501187
vt 0.4661774 0.06252095
vt 0.34288856 0.32960027
vt 0.32811844 0.3666874
vt 0.31607684 0.57995677
vt 0.7656903 0.6551128
vt 0.79124254 0.2771851
vt 0.5290576 0.10319178
vt 0.5271592 0.06252095
vt 0.37648538 0.38290814
vt 0.33970726 0.62121254
vt 0.7709171 0.28955022
vt 0.77677524 0.2447801
vt 0.758312 0.25771764
vt 0.3710479 0.5670183
vt 0.4718334 0.724495
vt 0.4987837 0.66981584
vt 0.5162639 0.7266539
vt 0.4916904 0.47813952
vt 0.64272153 0.6137509
vt 0.6111269 0.57779413
vt 0.6655102 0.5755743
vt 0.4904613 0.2862492
vt 0.6205131 0.37823072
vt 0.663753 0.36997312
vt 0.6456559 0.3388407
vt 0.5178625 0.23430824
vt 0.46949843 0.23185623
vn -0.98321265 -0.18246348 -5.8732192E-05
vn -0.81947094 -0.5731207 -0.00014695074
vn -0.67471504 -0.46213114 -0.57549495
vn -0.836315 -0.1543406 -0.52607626
vn -0.983216 0.18244544 -1.1234371E-05
vn -0.27201492 -0.7176049 -0.64113265
vn -0.3520574 -0.9359784 -0.00024157926
vn -0.83639777 0.15424392 -0.52597296
vn -0.81950116 0.5730775 0
vn 0.27201495 -0.717605 -0.64113253
vn 0.35205713 -0.9359785 -0.00024187074
vn -0.6749739 0.46206725 -0.57524264
vn -0.3520974 0.93596345 0
vn -0.27221882 0.7177485 -0.64088535
vn 0.35209695 0.93596345 0
vn -0.42695886 0.26985222 -0.8630678
vn -0.54126 0.104146935 -0.8343807
vn -0.54108864 -0.104483955 -0.83444965
vn -0.42661792 -0.2701257 -0.8631507
vn -0.25309956 0.09536108 -0.96272886
vn 0.6747149 -0.46213147 -0.5754949
vn 0.81947064 -0.57312113 -0.00014712097
vn -0.14503539 -0.4070233 -0.9018297
vn -0.25297016 -0.09593191 -0.9627062
vn 0.14503539 -0.40702337 -0.9018297
vn -0 -0.20143266 -0.9795024
vn 0.83631504 -0.15434079 -0.52607614
vn 0.98321253 -0.18246402 -5.8732167E-05
vn -0 -0.00034466558 -1
vn 0.42661813 -0.2701258 -0.86315066
vn 0.25297055 -0.095932156 -0.96270597
vn 0.8363979 0.1542439 -0.52597296
vn 0.983216 0.1824454 -1.1234371E-05
vn 0.5410888 -0.10448403 -0.83444947
vn 0.25309968 0.09536108 -0.96272886
vn -0 0.2009361 -0.97960436
vn 0.6749738 0.46206743 -0.5752427
vn 0.8195009 0.57307786 0
vn 0.5412603 0.10414706 -0.83438045
vn -0.14520831 0.40689075 -0.9018616
vn 0.14520814 0.4068909 -0.9018616
vn 0.42695886 0.2698525 -0.8630677
vn 0.2722185 0.71774864 -0.64088535
vn -0.6749794 -0.46208718 0.57522017
vn -0.3520574 -0.9359784 -0.00024157926
vn -0.81947094 -0.5731207 -0.00014695074
vn -0.27221447 -0.71776956 0.6408636
vn 0.35205713 -0.9359785 -0.00024187074
vn -0.83643246 -0.15427317 0.5259092
vn -0.98321265 -0.18246348 -5.8732192E-05
vn 0.2722144 -0.7177697 0.6408635
vn 0.81947064 -0.57312113 -0.00014712097
vn -0.83643013 0.1542709 0.5259136
vn -0.983216 0.18244544 -1.1234371E-05
vn 0.67497945 -0.46208766 0.57521987
vn 0.98321253 -0.18246402 -5.8732167E-05
vn -0.6749784 0.46207535 0.575231
vn -0.81950116 0.5730775 0
vn -0.27221763 0.71775174 0.64088213
vn -0.3520974 0.93596345 0
vn -0.4269976 0.26993576 0.8630224
vn -0.54135895 0.10427203 0.8343008
vn -0.54135895 -0.10427176 0.8343008
vn 0.8364326 -0.15427361 0.5259089
vn 0.983216 0.1824454 -1.1234371E-05
vn 0.2722173 0.71775186 0.6408822
vn 0.35209695 0.93596345 0
vn -0.25319067 0.09560564 0.9626807
vn -0.42699692 -0.26993692 0.8630224
vn 0.8364304 0.1542709 0.5259131
vn 0.8195009 0.57307786 0
vn 0.6749783 0.4620755 0.57523084
vn -0.25319076 -0.09560554 0.9626807
vn -0.14521067 -0.4069473 0.90183574
vn -0 -0.20113541 0.9795634
vn 0.14521067 -0.4069475 0.90183574
vn 1.3019414E-07 1.3019414E-07 1
vn 0.4269971 -0.2699372 0.8630222
vn 0.25319093 -0.09560565 0.9626806
vn 0.54135925 -0.104271986 0.8343006
vn -0 0.20113567 0.9795634
vn 0.25319082 0.095605925 0.9626806
vn 0.54135907 0.10427216 0.8343007
vn 0.42699775 0.26993605 0.8630223
vn 0.1452127 0.40694845 0.90183496
vn -0.14521296 0.4069484 0.90183485
g pm0302_51_ItemOffsetSkin_0
f 3/3/3 2/2/2 1/1/1
f 4/4/4 3/3/3 1/1/1
f 4/4/4 1/1/1 5/5/5
f 3/3/3 6/6/6 2/2/2
f 6/6/6 7/7/7 2/2/2
f 8/8/8 4/4/4 5/5/5
f 8/8/8 5/5/5 9/9/9
f 6/6/6 10/10/10 7/7/7
f 10/10/10 11/11/11 7/7/7
f 12/12/12 8/8/8 9/9/9
f 12/12/12 9/9/9 13/13/13
f 14/14/14 12/12/12 13/13/13
f 14/14/14 13/13/13 15/15/15
f 12/12/12 16/16/16 8/8/8
f 12/12/12 14/14/14 16/16/16
f 8/8/8 17/17/17 4/4/4
f 16/16/16 17/17/17 8/8/8
f 4/4/4 18/18/18 3/3/3
f 17/17/17 18/18/18 4/4/4
f 3/3/3 19/19/19 6/6/6
f 18/18/18 19/19/19 3/3/3
f 20/20/20 17/17/17 16/16/16
f 18/18/18 17/17/17 20/20/20
f 10/10/10 21/21/21 11/11/11
f 21/21/21 22/22/22 11/11/11
f 6/6/6 23/23/23 10/10/10
f 19/19/19 23/23/23 6/6/6
f 19/19/19 18/18/18 24/24/24
f 24/24/24 18/18/18 20/20/20
f 23/23/23 25/25/25 10/10/10
f 10/10/10 25/25/25 21/21/21
f 26/26/26 23/23/23 19/19/19
f 24/24/24 26/26/26 19/19/19
f 25/25/25 23/23/23 26/26/26
f 21/21/21 27/27/27 22/22/22
f 27/27/27 28/28/28 22/22/22
f 26/26/26 24/24/24 29/29/29
f 20/20/20 29/29/29 24/24/24
f 25/25/25 30/30/30 21/21/21
f 21/21/21 30/30/30 27/27/27
f 26/26/26 31/31/31 25/25/25
f 31/31/31 30/30/30 25/25/25
f 26/26/26 29/29/29 31/31/31
f 27/27/27 32/32/32 28/28/28
f 32/32/32 33/33/33 28/28/28
f 30/30/30 34/34/34 27/27/27
f 34/34/34 30/30/30 31/31/31
f 27/27/27 34/34/34 32/32/32
f 35/35/35 31/31/31 29/29/29
f 31/31/31 35/35/35 34/34/34
f 20/20/20 36/36/36 29/29/29
f 29/29/29 36/36/36 35/35/35
f 32/32/32 37/37/37 33/33/33
f 37/37/37 38/38/38 33/33/33
f 34/34/34 39/39/39 32/32/32
f 35/35/35 39/39/39 34/34/34
f 32/32/32 39/39/39 37/37/37
f 40/40/40 36/36/36 20/20/20
f 16/16/16 40/40/40 20/20/20
f 14/14/14 40/40/40 16/16/16
f 40/40/40 41/41/41 36/36/36
f 35/35/35 36/36/36 41/41/41
f 41/41/41 40/40/40 14/14/14
f 42/42/42 39/39/39 35/35/35
f 39/39/39 42/42/42 37/37/37
f 42/42/42 35/35/35 41/41/41
f 37/37/37 43/43/43 38/38/38
f 37/37/37 42/42/42 43/43/43
f 42/42/42 41/41/41 43/43/43
f 43/43/43 41/41/41 14/14/14
f 43/43/43 15/15/15 38/38/38
f 43/43/43 14/14/14 15/15/15
f 46/46/46 45/45/45 44/44/44
f 45/45/45 47/47/47 44/44/44
f 45/45/45 48/48/48 47/47/47
f 46/46/46 44/44/44 49/49/49
f 50/50/50 46/46/46 49/49/49
f 48/48/48 51/51/51 47/47/47
f 48/48/48 52/52/52 51/51/51
f 50/50/50 49/49/49 53/53/53
f 54/54/54 50/50/50 53/53/53
f 52/52/52 55/55/55 51/51/51
f 52/52/52 56/56/56 55/55/55
f 54/54/54 53/53/53 57/57/57
f 58/58/58 54/54/54 57/57/57
f 58/58/58 57/57/57 59/59/59
f 60/60/60 58/58/58 59/59/59
f 61/61/61 57/57/57 53/53/53
f 59/59/59 57/57/57 61/61/61
f 62/62/62 53/53/53 49/49/49
f 62/62/62 61/61/61 53/53/53
f 63/63/63 62/62/62 49/49/49
f 63/63/63 49/49/49 44/44/44
f 56/56/56 64/64/64 55/55/55
f 56/56/56 65/65/65 64/64/64
f 60/60/60 59/59/59 66/66/66
f 67/67/67 60/60/60 66/66/66
f 61/61/61 62/62/62 68/68/68
f 62/62/62 63/63/63 68/68/68
f 69/69/69 63/63/63 44/44/44
f 69/69/69 44/44/44 47/47/47
f 65/65/65 70/70/70 64/64/64
f 65/65/65 71/71/71 70/70/70
f 71/71/71 67/67/67 72/72/72
f 67/67/67 66/66/66 72/72/72
f 71/71/71 72/72/72 70/70/70
f 63/63/63 73/73/73 68/68/68
f 63/63/63 69/69/69 73/73/73
f 74/74/74 69/69/69 47/47/47
f 74/74/74 47/47/47 51/51/51
f 75/75/75 73/73/73 69/69/69
f 74/74/74 75/75/75 69/69/69
f 76/76/76 74/74/74 51/51/51
f 74/74/74 76/76/76 75/75/75
f 76/76/76 51/51/51 55/55/55
f 68/68/68 73/73/73 77/77/77
f 75/75/75 77/77/77 73/73/73
f 78/78/78 76/76/76 55/55/55
f 78/78/78 55/55/55 64/64/64
f 79/79/79 75/75/75 76/76/76
f 78/78/78 79/79/79 76/76/76
f 75/75/75 79/79/79 77/77/77
f 80/80/80 78/78/78 64/64/64
f 78/78/78 80/80/80 79/79/79
f 80/80/80 64/64/64 70/70/70
f 77/77/77 81/81/81 68/68/68
f 61/61/61 68/68/68 81/81/81
f 79/79/79 82/82/82 77/77/77
f 82/82/82 79/79/79 80/80/80
f 82/82/82 81/81/81 77/77/77
f 83/83/83 80/80/80 70/70/70
f 83/83/83 82/82/82 80/80/80
f 83/83/83 70/70/70 72/72/72
f 83/83/83 84/84/84 82/82/82
f 84/84/84 83/83/83 72/72/72
f 81/81/81 82/82/82 84/84/84
f 84/84/84 72/72/72 66/66/66
f 85/85/85 84/84/84 66/66/66
f 85/85/85 81/81/81 84/84/84
f 85/85/85 66/66/66 59/59/59
f 86/86/86 61/61/61 81/81/81
f 86/86/86 59/59/59 61/61/61
f 86/86/86 81/81/81 85/85/85
f 86/86/86 85/85/85 59/59/59
