g pm0347_00_Eyeblock
v 0.1675002 -0.003999244 0.2070881
v 0.1649953 0.01089557 0.2102555
v 0.1689217 0.01080724 0.2010331
v 0.1642721 0.003205517 0.2127187
v 0.1635448 0.0109839 0.219478
v 0.1639388 0.0002527535 0.2195222
v 0.1668087 -0.01047839 0.2195664
v 0.1675002 -0.004198315 0.2350945
v 0.1642721 0.003205513 0.2268191
v 0.1649953 0.01089556 0.2297558
v 0.1689217 0.01080723 0.2400337
v 0.1649953 0.01089557 0.2102555
v 0.1691491 0.02565031 0.2062519
v 0.1689217 0.01080724 0.2010331
v 0.1655362 0.01856039 0.2126867
v 0.1635448 0.0109839 0.219478
v 0.1656871 0.02148792 0.219478
v 0.1703053 0.03199195 0.219478
v 0.1655362 0.01856039 0.2267871
v 0.1649953 0.01089556 0.2297558
v 0.1691492 0.02565031 0.2339377
v 0.1689217 0.01080723 0.2400337
v -0.1675002 -0.003999244 0.2070881
v -0.1689217 0.01080724 0.2010331
v -0.1649953 0.01089557 0.2102555
v -0.1642721 0.003205517 0.2127187
v -0.1635448 0.0109839 0.219478
v -0.1639388 0.0002527535 0.2195222
v -0.1668087 -0.01047839 0.2195664
v -0.1642721 0.003205513 0.2268191
v -0.1649953 0.01089556 0.2297558
v -0.1675002 -0.004198315 0.2350945
v -0.1689217 0.01080723 0.2400337
v -0.1649953 0.01089557 0.2102555
v -0.1689217 0.01080724 0.2010331
v -0.1691491 0.02565031 0.2062519
v -0.1655362 0.01856039 0.2126867
v -0.1635448 0.0109839 0.219478
v -0.1703053 0.03199195 0.219478
v -0.1656871 0.02148792 0.219478
v -0.1655362 0.01856039 0.2267871
v -0.1649953 0.01089556 0.2297558
v -0.1691492 0.02565031 0.2339377
v -0.1689217 0.01080723 0.2400337
vt 0.4015995 0.9202537
vt 0.3914163 0.9156746
vt 0.3903387 0.9246177
vt 0.3959047 0.911203
vt 0.3924939 0.9067315
vt 0.4003932 0.9067315
vt 0.4082926 0.9067315
vt 0.4010533 0.8906257
vt 0.3957902 0.9021295
vt 0.3911872 0.8975276
vt 0.3898805 0.8883236
vt 0.3914163 0.9156746
vt 0.3800103 0.9170002
vt 0.3903387 0.9246177
vt 0.3879847 0.911203
vt 0.3924939 0.9067315
vt 0.3845532 0.9067315
vt 0.3766125 0.9067315
vt 0.3878702 0.9021295
vt 0.3911872 0.8975276
vt 0.3799746 0.8966389
vt 0.3898805 0.8883236
vt 0.4015995 0.9202537
vt 0.3903386 0.9246177
vt 0.3914163 0.9156746
vt 0.3959047 0.911203
vt 0.3924939 0.9067315
vt 0.4003932 0.9067315
vt 0.4082926 0.9067315
vt 0.3957902 0.9021295
vt 0.3911872 0.8975276
vt 0.4010532 0.8906257
vt 0.3898805 0.8883236
vt 0.3914163 0.9156746
vt 0.3903386 0.9246177
vt 0.3800103 0.9170002
vt 0.3879847 0.911203
vt 0.3924939 0.9067315
vt 0.3766125 0.9067315
vt 0.3845532 0.9067315
vt 0.3878702 0.9021295
vt 0.3911872 0.8975276
vt 0.3799746 0.8966389
vt 0.3898805 0.8883236
vn 0.9400351 0.1682908 0.2966684
vn 0.9593378 -0.06364949 0.2749903
vn 0.9193332 -0.04543523 0.3908481
vn 0.9752828 0.08289833 0.2048201
vn 0.9966092 -0.08212296 0.005107165
vn 0.9885533 0.1505472 0.009902124
vn 0.9644451 0.2637056 0.0174685
vn 0.9573415 0.1450767 -0.2499001
vn 0.9818215 0.07177477 -0.1757125
vn 0.9672232 -0.07490488 -0.2426286
vn 0.9369024 -0.06736097 -0.34304
vn 0.9593378 -0.06364949 0.2749903
vn 0.9288745 -0.2750342 0.2480895
vn 0.9193332 -0.04543523 0.3908481
vn 0.9593783 -0.217735 0.1794014
vn 0.9966092 -0.08212296 0.005107165
vn 0.9555636 -0.294763 0.003595114
vn 0.9219513 -0.387275 0.004889973
vn 0.9616795 -0.2208893 -0.1624208
vn 0.9672232 -0.07490488 -0.2426286
vn 0.9337201 -0.2789638 -0.224379
vn 0.9369024 -0.06736097 -0.34304
vn -0.940035 0.1682913 0.2966686
vn -0.919333 -0.04543519 0.3908482
vn -0.9593378 -0.06364929 0.2749905
vn -0.9752828 0.08289891 0.2048202
vn -0.9966092 -0.08212253 0.005107197
vn -0.9885532 0.1505472 0.009902116
vn -0.9644449 0.263706 0.01746848
vn -0.9818215 0.07177542 -0.1757126
vn -0.9672232 -0.07490422 -0.2426286
vn -0.9573414 0.1450771 -0.2499003
vn -0.9369024 -0.06736083 -0.34304
vn -0.9593378 -0.06364929 0.2749905
vn -0.919333 -0.04543519 0.3908482
vn -0.9288744 -0.2750344 0.2480895
vn -0.9593783 -0.2177349 0.1794015
vn -0.9966092 -0.08212253 0.005107197
vn -0.9219512 -0.3872753 0.004890033
vn -0.9555636 -0.2947629 0.003595048
vn -0.9616794 -0.2208896 -0.1624207
vn -0.9672232 -0.07490422 -0.2426286
vn -0.9337201 -0.2789643 -0.2243788
vn -0.9369024 -0.06736083 -0.34304
g pm0347_00_Eyeblock_0
f 3/3/3 2/2/2 1/1/1
f 2/2/2 4/4/4 1/1/1
f 5/5/5 4/4/4 2/2/2
f 4/4/4 6/6/6 1/1/1
f 6/6/6 4/4/4 5/5/5
f 6/6/6 7/7/7 1/1/1
f 8/8/8 7/7/7 6/6/6
f 9/9/9 6/6/6 5/5/5
f 9/9/9 8/8/8 6/6/6
f 10/10/10 9/9/9 5/5/5
f 11/11/11 8/8/8 9/9/9
f 10/10/10 11/11/11 9/9/9
f 14/14/14 13/13/13 12/12/12
f 13/13/13 15/15/15 12/12/12
f 12/12/12 15/15/15 16/16/16
f 17/17/17 15/15/15 13/13/13
f 15/15/15 17/17/17 16/16/16
f 18/18/18 17/17/17 13/13/13
f 19/19/19 16/16/16 17/17/17
f 19/19/19 17/17/17 18/18/18
f 20/20/20 16/16/16 19/19/19
f 21/21/21 19/19/19 18/18/18
f 20/20/20 19/19/19 21/21/21
f 22/22/22 20/20/20 21/21/21
f 25/25/25 24/24/24 23/23/23
f 26/26/26 25/25/25 23/23/23
f 25/25/25 26/26/26 27/27/27
f 28/28/28 26/26/26 23/23/23
f 27/27/27 26/26/26 28/28/28
f 29/29/29 28/28/28 23/23/23
f 28/28/28 30/30/30 27/27/27
f 28/28/28 29/29/29 30/30/30
f 30/30/30 31/31/31 27/27/27
f 29/29/29 32/32/32 30/30/30
f 30/30/30 32/32/32 31/31/31
f 32/32/32 33/33/33 31/31/31
f 36/36/36 35/35/35 34/34/34
f 37/37/37 36/36/36 34/34/34
f 37/37/37 34/34/34 38/38/38
f 39/39/39 36/36/36 37/37/37
f 40/40/40 37/37/37 38/38/38
f 40/40/40 39/39/39 37/37/37
f 38/38/38 41/41/41 40/40/40
f 40/40/40 41/41/41 39/39/39
f 42/42/42 41/41/41 38/38/38
f 41/41/41 43/43/43 39/39/39
f 42/42/42 44/44/44 41/41/41
f 44/44/44 43/43/43 41/41/41
