g pm0479_13_AuraCSkin_tz1
v 2.495877E-32 0.173112 0.1164629
v 2.777076E-32 0.201629 0.1113925
v -0.02314694 0.2016052 0.1108759
v -0.021083 0.1733232 0.1162494
v -0.0463678 0.2016696 0.1095953
v -0.01860189 0.1435684 0.1174093
v 2.203477E-32 0.1434591 0.1174928
v -0.01773643 0.1140503 0.1147254
v 1.912744E-32 0.1139753 0.1147471
v 1.694952E-32 0.09188855 0.111933
v -0.04118646 0.1436527 0.1172495
v -0.04295273 0.1725885 0.1156585
v -0.01770247 0.09213548 0.1119162
v 1.510025E-32 0.07313474 0.1070108
v -0.06221871 0.1721431 0.1147827
v -0.06376905 0.2018473 0.1080534
v -0.08349486 0.2019238 0.106075
v -0.08282975 0.1721418 0.11136
v -0.06215004 0.1436792 0.1161706
v -0.08163031 0.1436582 0.1120949
v -0.04116027 0.1140766 0.1147597
v -0.06235414 0.1141311 0.1143531
v -0.07885656 0.1135919 0.110665
v -0.04113049 0.09230325 0.1117555
v -0.06158751 0.0926273 0.1112062
v -0.0762357 0.09294058 0.1076752
v -0.01769495 0.07327905 0.1069612
v -0.06118064 0.07356851 0.1062226
v -0.07361951 0.07305422 0.1014369
v -0.06988697 0.05393625 0.09206393
v -0.06150176 0.0527389 0.09452868
v -0.04138789 0.05040457 0.09530348
v -0.04112612 0.07350397 0.1067244
v -0.01944675 0.04891336 0.09584086
v 1.260325E-32 0.04781215 0.09557945
v 2.495877E-32 0.173112 0.1164629
v 0.02314694 0.2016052 0.1108759
v 2.777076E-32 0.201629 0.1113925
v 0.021083 0.1733232 0.1162494
v 0.0463678 0.2016696 0.1095953
v 0.01860189 0.1435684 0.1174093
v 2.203477E-32 0.1434591 0.1174928
v 0.01773643 0.1140503 0.1147254
v 1.912744E-32 0.1139753 0.1147471
v 1.694952E-32 0.09188855 0.111933
v 0.04118646 0.1436527 0.1172495
v 0.04295273 0.1725885 0.1156585
v 0.01770247 0.09213548 0.1119162
v 1.510025E-32 0.07313474 0.1070108
v 0.06221871 0.1721431 0.1147827
v 0.06376905 0.2018473 0.1080534
v 0.08349486 0.2019238 0.106075
v 0.08282975 0.1721418 0.11136
v 0.06215004 0.1436792 0.1161706
v 0.08163031 0.1436582 0.1120949
v 0.04116027 0.1140766 0.1147597
v 0.06235414 0.1141311 0.1143531
v 0.07885656 0.1135919 0.110665
v 0.04113049 0.09230325 0.1117555
v 0.06158751 0.0926273 0.1112062
v 0.0762357 0.09294058 0.1076752
v 0.01769495 0.07327905 0.1069612
v 0.04112612 0.07350397 0.1067244
v 0.06118064 0.07356851 0.1062226
v 0.07361951 0.07305422 0.1014369
v 0.06988697 0.05393625 0.09206393
v 0.06150176 0.0527389 0.09452868
v 0.04138789 0.05040457 0.09530348
v 0.01944675 0.04891336 0.09584086
v 1.260325E-32 0.04781215 0.09557945
vt 0 0.2804061
vt 0 0.3007813
vt 0.01626122 0.3007813
vt 0.014727 0.2805362
vt 0.03261781 0.3007813
vt 0.01296985 0.2597268
vt 0 0.2596596
vt 0.01237333 0.2390441
vt 0 0.2389921
vt 0 0.2234462
vt 0.0287075 0.2597553
vt 0.03000712 0.2799631
vt 0.01236081 0.2236217
vt 0 0.2098873
vt 0.04346895 0.2795671
vt 0.04491627 0.3007813
vt 0.05887067 0.3007814
vt 0.0581156 0.2796815
vt 0.04333222 0.2597228
vt 0.05728221 0.2596607
vt 0.02870905 0.2390712
vt 0.04349244 0.2390827
vt 0.05535722 0.2384577
vt 0.0287075 0.223752
vt 0.04296613 0.2239426
vt 0.05355632 0.2236599
vt 0.01238668 0.2099911
vt 0.04272342 0.2102743
vt 0.05194676 0.2088222
vt 0.04966652 0.1936665
vt 0.04341221 0.1935765
vt 0.02919173 0.1920992
vt 0.02877033 0.2101776
vt 0.0137105 0.191184
vt 0 0.1903687
vt 0 0.2804061
vt 0.01626122 0.3007813
vt 0 0.3007813
vt 0.014727 0.2805362
vt 0.03261781 0.3007813
vt 0.01296985 0.2597268
vt 0 0.2596596
vt 0.01237333 0.2390441
vt 0 0.2389921
vt 0 0.2234462
vt 0.0287075 0.2597553
vt 0.03000712 0.2799631
vt 0.01236081 0.2236217
vt 0 0.2098873
vt 0.04346895 0.2795671
vt 0.04491627 0.3007813
vt 0.05887067 0.3007814
vt 0.0581156 0.2796815
vt 0.04333222 0.2597228
vt 0.05728221 0.2596607
vt 0.02870905 0.2390712
vt 0.04349244 0.2390827
vt 0.05535722 0.2384577
vt 0.0287075 0.223752
vt 0.04296613 0.2239426
vt 0.05355632 0.2236599
vt 0.01238668 0.2099911
vt 0.02877033 0.2101776
vt 0.04272342 0.2102743
vt 0.05194676 0.2088222
vt 0.04966652 0.1936665
vt 0.04341221 0.1935765
vt 0.02919173 0.1920992
vt 0.0137105 0.191184
vt 0 0.1903687
vn 0 -0.1086991 -0.9940748
vn 0 -0.180299 -0.9836119
vn 0.02951107 -0.1858291 -0.9821389
vn 0.02099143 -0.1137394 -0.9932888
vn 0.0547127 -0.1991177 -0.978447
vn 0.007765199 0.0242686 -0.9996753
vn 0 0.02763314 -0.9996182
vn 0.002931473 0.1094281 -0.9939904
vn 0 0.1092452 -0.9940149
vn 0 0.1907882 -0.9816312
vn 0.02623661 0.01603983 -0.9995271
vn 0.04412106 -0.1238689 -0.9913173
vn 0.005114592 0.1926484 -0.9812545
vn 0 0.334713 -0.9423201
vn 0.1076333 -0.1208691 -0.986816
vn 0.09794193 -0.1993586 -0.9750198
vn 0.1299062 -0.1916411 -0.9728299
vn 0.1573944 -0.1124837 -0.9811088
vn 0.1199512 0.01305093 -0.992694
vn 0.1969111 0.01484782 -0.9803089
vn 0.01635956 0.108253 -0.9939888
vn 0.1233266 0.1090062 -0.986361
vn 0.2159686 0.1101749 -0.9701644
vn 0.01630297 0.1966926 -0.9803298
vn 0.1394047 0.2120593 -0.9672627
vn 0.2512701 0.2224642 -0.9420047
vn 0.01385868 0.3390909 -0.9406515
vn 0.1692162 0.3728582 -0.9123281
vn 0.2934976 0.3770493 -0.8784605
vn 0.3047376 0.4645166 -0.8314801
vn 0.1817557 0.4682359 -0.8647081
vn 0.0437185 0.4461415 -0.893894
vn 0.03149164 0.3529819 -0.9351
vn 0.02012604 0.4203887 -0.9071208
vn 0 0.4130342 -0.9107155
vn 0 -0.1086991 -0.9940748
vn -0.02951087 -0.1858291 -0.9821389
vn 0 -0.180299 -0.9836119
vn -0.02099129 -0.1137394 -0.9932888
vn -0.05471262 -0.1991177 -0.978447
vn -0.007765196 0.02426859 -0.9996753
vn 0 0.02763314 -0.9996182
vn -0.002931455 0.1094281 -0.9939904
vn 0 0.1092452 -0.9940149
vn 0 0.1907882 -0.9816312
vn -0.02623642 0.01603984 -0.9995271
vn -0.0441209 -0.1238689 -0.9913173
vn -0.00511457 0.1926484 -0.9812546
vn 0 0.334713 -0.9423201
vn -0.1076333 -0.1208691 -0.986816
vn -0.0979421 -0.1993587 -0.9750198
vn -0.1299063 -0.1916412 -0.9728299
vn -0.1573944 -0.1124837 -0.9811088
vn -0.119951 0.01305092 -0.992694
vn -0.196911 0.01484781 -0.9803089
vn -0.01635945 0.108253 -0.9939888
vn -0.1233265 0.1090062 -0.986361
vn -0.2159686 0.1101749 -0.9701644
vn -0.01630297 0.1966925 -0.9803298
vn -0.1394048 0.2120593 -0.9672627
vn -0.2512704 0.2224642 -0.9420047
vn -0.01385873 0.3390909 -0.9406515
vn -0.03149162 0.3529819 -0.9351
vn -0.1692164 0.3728582 -0.9123281
vn -0.2934979 0.3770493 -0.8784605
vn -0.3047379 0.4645165 -0.8314801
vn -0.1817558 0.4682359 -0.8647081
vn -0.04371839 0.4461415 -0.8938939
vn -0.02012609 0.4203887 -0.9071208
vn 0 0.4130342 -0.9107155
g pm0479_13_AuraCSkin_tz1_0
f 3/3/3 2/2/2 1/1/1
f 4/4/4 3/3/3 1/1/1
f 3/3/3 4/4/4 5/5/5
f 6/6/6 4/4/4 1/1/1
f 7/7/7 6/6/6 1/1/1
f 6/6/6 7/7/7 8/8/8
f 7/7/7 9/9/9 8/8/8
f 8/8/8 9/9/9 10/10/10
f 6/6/6 11/11/11 4/4/4
f 6/6/6 8/8/8 11/11/11
f 4/4/4 12/12/12 5/5/5
f 11/11/11 12/12/12 4/4/4
f 13/13/13 8/8/8 10/10/10
f 13/13/13 10/10/10 14/14/14
f 5/5/5 12/12/12 15/15/15
f 16/16/16 5/5/5 15/15/15
f 16/16/16 15/15/15 17/17/17
f 15/15/15 18/18/18 17/17/17
f 19/19/19 15/15/15 12/12/12
f 18/18/18 15/15/15 19/19/19
f 11/11/11 19/19/19 12/12/12
f 20/20/20 18/18/18 19/19/19
f 8/8/8 21/21/21 11/11/11
f 11/11/11 21/21/21 19/19/19
f 8/8/8 13/13/13 21/21/21
f 19/19/19 22/22/22 20/20/20
f 21/21/21 22/22/22 19/19/19
f 22/22/22 23/23/23 20/20/20
f 13/13/13 24/24/24 21/21/21
f 21/21/21 24/24/24 22/22/22
f 22/22/22 25/25/25 23/23/23
f 24/24/24 25/25/25 22/22/22
f 25/25/25 26/26/26 23/23/23
f 13/13/13 27/27/27 24/24/24
f 27/27/27 13/13/13 14/14/14
f 26/26/26 25/25/25 28/28/28
f 29/29/29 26/26/26 28/28/28
f 30/30/30 29/29/29 28/28/28
f 31/31/31 30/30/30 28/28/28
f 31/31/31 28/28/28 32/32/32
f 24/24/24 33/33/33 25/25/25
f 33/33/33 28/28/28 25/25/25
f 28/28/28 33/33/33 32/32/32
f 27/27/27 33/33/33 24/24/24
f 32/32/32 33/33/33 34/34/34
f 33/33/33 27/27/27 34/34/34
f 34/34/34 27/27/27 14/14/14
f 35/35/35 34/34/34 14/14/14
f 38/38/38 37/37/37 36/36/36
f 37/37/37 39/39/39 36/36/36
f 39/39/39 37/37/37 40/40/40
f 39/39/39 41/41/41 36/36/36
f 41/41/41 42/42/42 36/36/36
f 42/42/42 41/41/41 43/43/43
f 44/44/44 42/42/42 43/43/43
f 44/44/44 43/43/43 45/45/45
f 46/46/46 41/41/41 39/39/39
f 43/43/43 41/41/41 46/46/46
f 47/47/47 39/39/39 40/40/40
f 47/47/47 46/46/46 39/39/39
f 43/43/43 48/48/48 45/45/45
f 45/45/45 48/48/48 49/49/49
f 47/47/47 40/40/40 50/50/50
f 40/40/40 51/51/51 50/50/50
f 50/50/50 51/51/51 52/52/52
f 53/53/53 50/50/50 52/52/52
f 50/50/50 54/54/54 47/47/47
f 50/50/50 53/53/53 54/54/54
f 54/54/54 46/46/46 47/47/47
f 53/53/53 55/55/55 54/54/54
f 56/56/56 43/43/43 46/46/46
f 56/56/56 46/46/46 54/54/54
f 48/48/48 43/43/43 56/56/56
f 57/57/57 54/54/54 55/55/55
f 57/57/57 56/56/56 54/54/54
f 58/58/58 57/57/57 55/55/55
f 59/59/59 48/48/48 56/56/56
f 59/59/59 56/56/56 57/57/57
f 60/60/60 57/57/57 58/58/58
f 60/60/60 59/59/59 57/57/57
f 61/61/61 60/60/60 58/58/58
f 62/62/62 48/48/48 59/59/59
f 48/48/48 62/62/62 49/49/49
f 63/63/63 59/59/59 60/60/60
f 63/63/63 62/62/62 59/59/59
f 60/60/60 61/61/61 64/64/64
f 64/64/64 63/63/63 60/60/60
f 61/61/61 65/65/65 64/64/64
f 65/65/65 66/66/66 64/64/64
f 66/66/66 67/67/67 64/64/64
f 64/64/64 67/67/67 68/68/68
f 63/63/63 64/64/64 68/68/68
f 63/63/63 68/68/68 69/69/69
f 62/62/62 63/63/63 69/69/69
f 62/62/62 69/69/69 49/49/49
f 69/69/69 70/70/70 49/49/49
