g pm0479_14_ArmSkin_tx0
v -0.3107419 0.3063276 0.002699261
v -0.2748089 0.2038361 0.00269926
v -0.2790529 0.205677 0.00269926
v -0.3078699 0.3086475 0.002699263
v -0.2512991 0.2792304 0.002699258
v -0.2441647 0.2012106 0.002699263
v -0.1947283 0.2498134 0.002699252
v -0.2135206 0.1985851 0.002699266
v -0.1381575 0.2203963 0.002699246
v -0.1828764 0.1959597 0.002699269
v -0.1379283 0.2169053 0.002699255
v -0.1855944 0.1644497 0.00269926
v -0.2190342 0.1463385 0.002699244
v -0.2177192 0.1433727 0.002699259
v -0.1583267 0.1584049 0.002699211
v -0.1802295 0.1376526 0.002699223
v -0.131059 0.1523601 0.00269916
v -0.1427398 0.1319325 0.002699187
v -0.09501305 0.1463153 0.002699111
v -0.09647196 0.1262124 0.002699151
v -0.3107419 0.3063276 -0.002699262
v -0.3078699 0.3086475 -0.00269926
v -0.3078699 0.3086475 0.002699263
v -0.3107419 0.3063276 0.002699261
v -0.2790529 0.205677 -0.002699265
v -0.2790529 0.205677 0.00269926
v -0.1855944 0.1644497 0.00269926
v -0.1855944 0.1644497 -0.002699265
v -0.1583267 0.1584049 -0.002699214
v -0.1583267 0.1584049 0.002699211
v -0.1310589 0.1523601 -0.002699162
v -0.131059 0.1523601 0.00269916
v -0.09501304 0.1463153 -0.00269911
v -0.09501305 0.1463153 0.002699111
v -0.09647196 0.1262124 0.002699151
v -0.09647193 0.1262124 -0.002699151
v -0.1427398 0.1319325 -0.002699189
v -0.1427398 0.1319325 0.002699187
v -0.1802295 0.1376526 -0.002699228
v -0.1802295 0.1376526 0.002699223
v -0.2177192 0.1433727 -0.002699267
v -0.2177192 0.1433727 0.002699259
v -0.2790529 0.205677 -0.002699265
v -0.3078699 0.3086475 -0.00269926
v -0.3107419 0.3063276 -0.002699262
v -0.2748089 0.2038361 -0.002699265
v -0.2441647 0.2012106 -0.002699262
v -0.2512991 0.2792304 -0.002699264
v -0.2135206 0.1985851 -0.002699259
v -0.1947283 0.2498133 -0.002699269
v -0.1828764 0.1959597 -0.002699255
v -0.1381575 0.2203962 -0.002699272
v -0.1379283 0.2169053 -0.002699267
v -0.1855944 0.1644497 -0.002699265
v -0.2177192 0.1433727 -0.002699267
v -0.2190343 0.1463385 -0.002699281
v -0.1802295 0.1376526 -0.002699228
v -0.1583267 0.1584049 -0.002699214
v -0.1427398 0.1319325 -0.002699189
v -0.1310589 0.1523601 -0.002699162
v -0.09647193 0.1262124 -0.002699151
v -0.09501304 0.1463153 -0.00269911
v -0.2748089 0.2038361 0.00269926
v -0.2790529 0.205677 -0.002699265
v -0.2790529 0.205677 0.00269926
v -0.2748089 0.2038361 -0.002699265
v -0.2441647 0.2012106 0.002699263
v -0.2441647 0.2012106 -0.002699262
v -0.2135206 0.1985851 0.002699266
v -0.2135206 0.1985851 -0.002699259
v -0.1828764 0.1959597 0.002699269
v -0.1828764 0.1959597 -0.002699255
v -0.2190342 0.1463385 0.002699244
v -0.2190343 0.1463385 -0.002699281
v -0.2177192 0.1433727 0.002699259
v -0.2177192 0.1433727 -0.002699267
v -0.1379283 0.2169053 0.002699255
v -0.1855944 0.1644497 -0.002699265
v -0.1855944 0.1644497 0.00269926
v -0.1379283 0.2169053 -0.002699267
v -0.1381575 0.2203963 0.002699246
v -0.1381575 0.2203962 -0.002699272
v -0.1947283 0.2498133 -0.002699269
v -0.1947283 0.2498134 0.002699252
v -0.2512991 0.2792304 0.002699258
v -0.2512991 0.2792304 -0.002699264
v -0.3078699 0.3086475 0.002699263
v -0.3078699 0.3086475 -0.00269926
v 0.3107419 0.3063276 0.002699261
v 0.2790529 0.205677 0.00269926
v 0.2748089 0.2038361 0.00269926
v 0.3078699 0.3086475 0.002699263
v 0.2512991 0.2792304 0.002699258
v 0.2441647 0.2012106 0.002699263
v 0.1947283 0.2498134 0.002699252
v 0.2135206 0.1985851 0.002699266
v 0.1381575 0.2203963 0.002699246
v 0.1828764 0.1959597 0.002699269
v 0.1379283 0.2169053 0.002699255
v 0.1855944 0.1644497 0.00269926
v 0.2190342 0.1463385 0.002699244
v 0.2177192 0.1433727 0.002699259
v 0.1583267 0.1584049 0.002699211
v 0.1802295 0.1376526 0.002699223
v 0.131059 0.1523601 0.00269916
v 0.1427398 0.1319325 0.002699187
v 0.09501305 0.1463153 0.002699111
v 0.09647196 0.1262124 0.002699151
v 0.3107419 0.3063276 -0.002699262
v 0.3078699 0.3086475 0.002699263
v 0.3078699 0.3086475 -0.00269926
v 0.3107419 0.3063276 0.002699261
v 0.2790529 0.205677 -0.002699265
v 0.2790529 0.205677 0.00269926
v 0.1855944 0.1644497 0.00269926
v 0.1583267 0.1584049 -0.002699214
v 0.1855944 0.1644497 -0.002699265
v 0.1583267 0.1584049 0.002699211
v 0.1310589 0.1523601 -0.002699162
v 0.131059 0.1523601 0.00269916
v 0.09501304 0.1463153 -0.00269911
v 0.09501305 0.1463153 0.002699111
v 0.09647196 0.1262124 0.002699151
v 0.09647193 0.1262124 -0.002699151
v 0.1427398 0.1319325 -0.002699189
v 0.1427398 0.1319325 0.002699187
v 0.1802295 0.1376526 -0.002699228
v 0.1802295 0.1376526 0.002699223
v 0.2177192 0.1433727 -0.002699267
v 0.2177192 0.1433727 0.002699259
v 0.2790529 0.205677 -0.002699265
v 0.3107419 0.3063276 -0.002699262
v 0.3078699 0.3086475 -0.00269926
v 0.2748089 0.2038361 -0.002699265
v 0.2441647 0.2012106 -0.002699262
v 0.2512991 0.2792304 -0.002699264
v 0.2135206 0.1985851 -0.002699259
v 0.1947283 0.2498133 -0.002699269
v 0.1828764 0.1959597 -0.002699255
v 0.1381575 0.2203962 -0.002699272
v 0.1379283 0.2169053 -0.002699267
v 0.1855944 0.1644497 -0.002699265
v 0.2177192 0.1433727 -0.002699267
v 0.2190343 0.1463385 -0.002699281
v 0.1802295 0.1376526 -0.002699228
v 0.1583267 0.1584049 -0.002699214
v 0.1427398 0.1319325 -0.002699189
v 0.1310589 0.1523601 -0.002699162
v 0.09647193 0.1262124 -0.002699151
v 0.09501304 0.1463153 -0.00269911
v 0.2748089 0.2038361 0.00269926
v 0.2790529 0.205677 0.00269926
v 0.2790529 0.205677 -0.002699265
v 0.2748089 0.2038361 -0.002699265
v 0.2441647 0.2012106 0.002699263
v 0.2441647 0.2012106 -0.002699262
v 0.2135206 0.1985851 0.002699266
v 0.2135206 0.1985851 -0.002699259
v 0.1828764 0.1959597 0.002699269
v 0.1828764 0.1959597 -0.002699255
v 0.2190342 0.1463385 0.002699244
v 0.2190343 0.1463385 -0.002699281
v 0.2177192 0.1433727 0.002699259
v 0.2177192 0.1433727 -0.002699267
v 0.1379283 0.2169053 0.002699255
v 0.1855944 0.1644497 0.00269926
v 0.1855944 0.1644497 -0.002699265
v 0.1379283 0.2169053 -0.002699267
v 0.1381575 0.2203963 0.002699246
v 0.1381575 0.2203962 -0.002699272
v 0.1947283 0.2498133 -0.002699269
v 0.1947283 0.2498134 0.002699252
v 0.2512991 0.2792304 0.002699258
v 0.2512991 0.2792304 -0.002699264
v 0.3078699 0.3086475 0.002699263
v 0.3078699 0.3086475 -0.00269926
vt 0.3523717 0.5916975
vt 0.3090008 0.6324326
vt 0.3115287 0.6326102
vt 0.3515625 0.5898436
vt 0.3166302 0.5898436
vt 0.2934422 0.6259629
vt 0.2816978 0.5898435
vt 0.2778837 0.619494
vt 0.2467655 0.5898438
vt 0.2623241 0.6130246
vt 0.2457711 0.5914824
vt 0.2556798 0.6290272
vt 0.2673535 0.6462866
vt 0.2659644 0.6473957
vt 0.2408957 0.6250679
vt 0.2462929 0.6406964
vt 0.2261108 0.621107
vt 0.2266206 0.6339936
vt 0.207057 0.614925
vt 0.2026797 0.6250675
vt 0.2467727 0.5703232
vt 0.2495299 0.5703232
vt 0.2495299 0.5664063
vt 0.2467727 0.5664063
vt 0.167966 0.5703232
vt 0.1679688 0.5664063
vt 0.15625 0.5507813
vt 0.15625 0.5546874
vt 0.1768313 0.5546874
vt 0.1768313 0.5507813
vt 0.1974135 0.5546875
vt 0.1974134 0.5507813
vt 0.2243485 0.5546874
vt 0.2243485 0.5507813
vt 0.2392022 0.5507813
vt 0.2392022 0.5546874
vt 0.2735587 0.5546874
vt 0.2735587 0.5507813
vt 0.3009973 0.5546874
vt 0.3009973 0.5507813
vt 0.3284357 0.5546875
vt 0.3284355 0.5507813
vt 0.06414264 0.6326103
vt 0.0241093 0.5898438
vt 0.02329986 0.5916973
vt 0.06667081 0.632432
vt 0.08222933 0.6259633
vt 0.05904153 0.5898438
vt 0.0977871 0.6194937
vt 0.09397393 0.5898438
vt 0.1133467 0.6130251
vt 0.1289063 0.5898438
vt 0.1299003 0.591483
vt 0.1199882 0.6290288
vt 0.1096985 0.6473936
vt 0.1083102 0.6462846
vt 0.1293683 0.6406997
vt 0.1347715 0.625078
vt 0.1490366 0.6340076
vt 0.1495541 0.6211272
vt 0.1729715 0.6250988
vt 0.1686017 0.6149588
vt 0.4419651 0.5507813
vt 0.4453136 0.5546875
vt 0.4453125 0.5507813
vt 0.4419663 0.5546875
vt 0.4197109 0.5507813
vt 0.4197121 0.5546875
vt 0.3974575 0.5507813
vt 0.3974587 0.5546688
vt 0.3752046 0.5507813
vt 0.3752056 0.5546757
vt 0.3356143 0.5507813
vt 0.3356152 0.5546868
vt 0.3284355 0.5507813
vt 0.3284357 0.5546875
vt 0.3933032 0.5664063
vt 0.4453125 0.5703232
vt 0.4453125 0.5664063
vt 0.3933032 0.5703232
vt 0.3907359 0.5664063
vt 0.390736 0.5703232
vt 0.3439443 0.5703232
vt 0.3439443 0.5664063
vt 0.2971512 0.5664063
vt 0.2971512 0.5703232
vt 0.2495299 0.5664063
vt 0.2495299 0.5703232
vt 0.3523716 0.5916977
vt 0.3115287 0.6326104
vt 0.3090008 0.6324328
vt 0.3515625 0.5898439
vt 0.3166301 0.5898439
vt 0.2934421 0.6259631
vt 0.2816979 0.5898438
vt 0.2778836 0.6194942
vt 0.2467655 0.589844
vt 0.2623242 0.6130248
vt 0.2457711 0.5914826
vt 0.2556798 0.6290275
vt 0.2673535 0.6462868
vt 0.2659644 0.647396
vt 0.2408956 0.6250682
vt 0.2462928 0.6406966
vt 0.2261108 0.6211072
vt 0.2266206 0.6339939
vt 0.207057 0.6149253
vt 0.2026798 0.6250677
vt 0.2467726 0.5703232
vt 0.24953 0.5664063
vt 0.24953 0.5703232
vt 0.2467726 0.5664063
vt 0.167966 0.5703232
vt 0.1679688 0.5664063
vt 0.15625 0.5507813
vt 0.1768312 0.5546874
vt 0.15625 0.5546874
vt 0.1768312 0.5507813
vt 0.1974134 0.5546875
vt 0.1974134 0.5507813
vt 0.2243485 0.5546874
vt 0.2243485 0.5507813
vt 0.2392021 0.5507813
vt 0.2392021 0.5546874
vt 0.2735586 0.5546874
vt 0.2735586 0.5507813
vt 0.3009973 0.5546874
vt 0.3009973 0.5507813
vt 0.3284357 0.5546875
vt 0.3284355 0.5507813
vt 0.0641427 0.6326106
vt 0.02329981 0.5916976
vt 0.02410936 0.589844
vt 0.06667078 0.6324322
vt 0.0822295 0.6259636
vt 0.05904138 0.589844
vt 0.09778714 0.619494
vt 0.09397388 0.589844
vt 0.1133467 0.6130253
vt 0.1289063 0.589844
vt 0.1299002 0.5914832
vt 0.1199882 0.629029
vt 0.1096985 0.6473938
vt 0.1083102 0.6462848
vt 0.1293683 0.6407
vt 0.1347715 0.6250782
vt 0.1490365 0.6340078
vt 0.1495541 0.6211275
vt 0.1729715 0.6250991
vt 0.1686018 0.614959
vt 0.4419651 0.5507813
vt 0.4453125 0.5507813
vt 0.4453136 0.5546875
vt 0.4419663 0.5546875
vt 0.4197109 0.5507813
vt 0.4197121 0.5546875
vt 0.3974575 0.5507813
vt 0.3974587 0.5546688
vt 0.3752046 0.5507813
vt 0.3752056 0.5546757
vt 0.3356143 0.5507813
vt 0.3356152 0.5546868
vt 0.3284355 0.5507813
vt 0.3284357 0.5546875
vt 0.3933032 0.5664063
vt 0.4453125 0.5664063
vt 0.4453125 0.5703232
vt 0.3933032 0.5703232
vt 0.3907359 0.5664063
vt 0.390736 0.5703232
vt 0.3439443 0.5703232
vt 0.3439443 0.5664063
vt 0.2971512 0.5664063
vt 0.2971512 0.5703232
vt 0.24953 0.5664063
vt 0.24953 0.5703232
vn -0.8190747 0.2472443 0.5176744
vn -0.1719956 -0.6810554 0.7117451
vn -0.6511198 -0.5865449 0.4816722
vn -0.06404484 0.6385224 0.7669339
vn 0.326229 0.6273576 0.7071046
vn -0.06036152 -0.7045257 0.7071066
vn 0.3262299 0.6273595 0.7071027
vn -0.06036109 -0.7045256 0.7071068
vn 0.5500787 0.3591526 0.7539383
vn -0.2830714 -0.1290716 0.9503742
vn 0.8295778 -0.2897392 0.4773382
vn 0.3023678 0.09603066 0.9483416
vn -0.861155 0.09178426 0.4999878
vn -0.40033 -0.5239642 0.7517962
vn 0.1530394 0.6903468 0.7071069
vn -0.1066535 -0.6990176 0.7071064
vn 0.1350162 0.6939756 0.7072259
vn -0.09671092 -0.7004262 0.7071422
vn 0.651315 0.5118856 0.5601445
vn 0.5137261 -0.6254025 0.5873306
vn -0.8190728 0.2472439 -0.5176777
vn -0.06404448 0.6385215 -0.7669345
vn -0.06404484 0.6385224 0.7669339
vn -0.8190747 0.2472443 0.5176744
vn -0.6511182 -0.5865436 -0.4816759
vn -0.6511198 -0.5865449 0.4816722
vn 0.3023678 0.09603066 0.9483416
vn 0.3023685 0.09603076 -0.9483414
vn 0.1530395 0.6903468 -0.7071069
vn 0.1530394 0.6903468 0.7071069
vn 0.1350162 0.6939753 -0.7072262
vn 0.1350162 0.6939756 0.7072259
vn 0.6513162 0.5118865 -0.5601425
vn 0.651315 0.5118856 0.5601445
vn 0.5137261 -0.6254025 0.5873306
vn 0.513727 -0.6254036 -0.5873286
vn -0.09671074 -0.7004252 -0.7071432
vn -0.09671092 -0.7004262 0.7071422
vn -0.1066534 -0.699017 -0.7071069
vn -0.1066535 -0.6990176 0.7071064
vn -0.4003301 -0.523965 -0.7517955
vn -0.40033 -0.5239642 0.7517962
vn -0.6511182 -0.5865436 -0.4816759
vn -0.06404448 0.6385215 -0.7669345
vn -0.8190728 0.2472439 -0.5176777
vn -0.1719952 -0.6810549 -0.7117457
vn -0.06036156 -0.7045256 -0.7071068
vn 0.3262271 0.627354 -0.7071087
vn -0.06036121 -0.7045258 -0.7071067
vn 0.3262261 0.6273522 -0.7071108
vn -0.2830719 -0.1290722 -0.9503739
vn 0.5500759 0.3591508 -0.7539412
vn 0.8295807 -0.2897403 -0.4773326
vn 0.3023685 0.09603076 -0.9483414
vn -0.4003301 -0.523965 -0.7517955
vn -0.8611572 0.09178437 -0.4999839
vn -0.1066534 -0.699017 -0.7071069
vn 0.1530395 0.6903468 -0.7071069
vn -0.09671074 -0.7004252 -0.7071432
vn 0.1350162 0.6939753 -0.7072262
vn 0.513727 -0.6254036 -0.5873286
vn 0.6513162 0.5118865 -0.5601425
vn -0.1719956 -0.6810554 0.7117451
vn -0.6511182 -0.5865436 -0.4816759
vn -0.6511198 -0.5865449 0.4816722
vn -0.1719952 -0.6810549 -0.7117457
vn -0.06036152 -0.7045257 0.7071066
vn -0.06036156 -0.7045256 -0.7071068
vn -0.06036109 -0.7045256 0.7071068
vn -0.06036121 -0.7045258 -0.7071067
vn -0.2830714 -0.1290716 0.9503742
vn -0.2830719 -0.1290722 -0.9503739
vn -0.861155 0.09178426 0.4999878
vn -0.8611572 0.09178437 -0.4999839
vn -0.40033 -0.5239642 0.7517962
vn -0.4003301 -0.523965 -0.7517955
vn 0.8295778 -0.2897392 0.4773382
vn 0.3023685 0.09603076 -0.9483414
vn 0.3023678 0.09603066 0.9483416
vn 0.8295807 -0.2897403 -0.4773326
vn 0.5500787 0.3591526 0.7539383
vn 0.5500759 0.3591508 -0.7539412
vn 0.3262261 0.6273522 -0.7071108
vn 0.3262299 0.6273595 0.7071027
vn 0.326229 0.6273576 0.7071046
vn 0.3262271 0.627354 -0.7071087
vn -0.06404484 0.6385224 0.7669339
vn -0.06404448 0.6385215 -0.7669345
vn 0.8190748 0.247244 0.5176744
vn 0.6511196 -0.5865447 0.4816726
vn 0.1719955 -0.6810551 0.7117454
vn 0.06404503 0.6385218 0.7669343
vn -0.3262288 0.6273571 0.7071052
vn 0.06036151 -0.7045256 0.7071068
vn -0.3262296 0.6273591 0.7071031
vn 0.06036109 -0.7045256 0.7071068
vn -0.5500783 0.3591522 0.7539387
vn 0.2830714 -0.1290717 0.9503742
vn -0.8295779 -0.2897394 0.477338
vn -0.3023679 0.09603069 0.9483416
vn 0.8611549 0.09178377 0.499988
vn 0.4003297 -0.5239646 0.7517961
vn -0.1530394 0.6903468 0.7071069
vn 0.1066535 -0.6990176 0.7071064
vn -0.1350162 0.6939755 0.707226
vn 0.09671095 -0.7004263 0.7071421
vn -0.6513149 0.5118855 0.5601447
vn -0.5137262 -0.6254026 0.5873304
vn 0.8190731 0.2472437 -0.5176774
vn 0.06404503 0.6385218 0.7669343
vn 0.06404478 0.6385218 -0.7669343
vn 0.8190748 0.247244 0.5176744
vn 0.6511183 -0.5865438 -0.4816755
vn 0.6511196 -0.5865447 0.4816726
vn -0.3023679 0.09603069 0.9483416
vn -0.1530395 0.6903468 -0.7071069
vn -0.3023684 0.09603073 -0.9483414
vn -0.1530394 0.6903468 0.7071069
vn -0.1350163 0.6939755 -0.707226
vn -0.1350162 0.6939755 0.707226
vn -0.6513163 0.5118866 -0.560142
vn -0.6513149 0.5118855 0.5601447
vn -0.5137262 -0.6254026 0.5873304
vn -0.5137269 -0.6254035 -0.5873289
vn 0.09671073 -0.7004251 -0.7071433
vn 0.09671095 -0.7004263 0.7071421
vn 0.1066534 -0.699017 -0.7071069
vn 0.1066535 -0.6990176 0.7071064
vn 0.4003298 -0.5239654 -0.7517955
vn 0.4003297 -0.5239646 0.7517961
vn 0.6511183 -0.5865438 -0.4816755
vn 0.8190731 0.2472437 -0.5176774
vn 0.06404478 0.6385218 -0.7669343
vn 0.1719953 -0.6810551 -0.7117455
vn 0.06036157 -0.7045256 -0.7071068
vn -0.3262273 0.6273543 -0.7071083
vn 0.0603612 -0.7045258 -0.7071066
vn -0.3262263 0.6273527 -0.7071103
vn 0.2830719 -0.1290722 -0.9503739
vn -0.5500763 0.3591509 -0.7539408
vn -0.8295804 -0.2897404 -0.4773329
vn -0.3023684 0.09603073 -0.9483414
vn 0.4003298 -0.5239654 -0.7517955
vn 0.8611572 0.09178389 -0.4999841
vn 0.1066534 -0.699017 -0.7071069
vn -0.1530395 0.6903468 -0.7071069
vn 0.09671073 -0.7004251 -0.7071433
vn -0.1350163 0.6939755 -0.707226
vn -0.5137269 -0.6254035 -0.5873289
vn -0.6513163 0.5118866 -0.560142
vn 0.1719955 -0.6810551 0.7117454
vn 0.6511196 -0.5865447 0.4816726
vn 0.6511183 -0.5865438 -0.4816755
vn 0.1719953 -0.6810551 -0.7117455
vn 0.06036151 -0.7045256 0.7071068
vn 0.06036157 -0.7045256 -0.7071068
vn 0.06036109 -0.7045256 0.7071068
vn 0.0603612 -0.7045258 -0.7071066
vn 0.2830714 -0.1290717 0.9503742
vn 0.2830719 -0.1290722 -0.9503739
vn 0.8611549 0.09178377 0.499988
vn 0.8611572 0.09178389 -0.4999841
vn 0.4003297 -0.5239646 0.7517961
vn 0.4003298 -0.5239654 -0.7517955
vn -0.8295779 -0.2897394 0.477338
vn -0.3023679 0.09603069 0.9483416
vn -0.3023684 0.09603073 -0.9483414
vn -0.8295804 -0.2897404 -0.4773329
vn -0.5500783 0.3591522 0.7539387
vn -0.5500763 0.3591509 -0.7539408
vn -0.3262263 0.6273527 -0.7071103
vn -0.3262296 0.6273591 0.7071031
vn -0.3262288 0.6273571 0.7071052
vn -0.3262273 0.6273543 -0.7071083
vn 0.06404503 0.6385218 0.7669343
vn 0.06404478 0.6385218 -0.7669343
g pm0479_14_ArmSkin_tx0_0
f 3/3/3 2/2/2 1/1/1
f 2/2/2 4/4/4 1/1/1
f 5/5/5 4/4/4 2/2/2
f 6/6/6 5/5/5 2/2/2
f 7/7/7 5/5/5 6/6/6
f 8/8/8 7/7/7 6/6/6
f 9/9/9 7/7/7 8/8/8
f 10/10/10 9/9/9 8/8/8
f 11/11/11 9/9/9 10/10/10
f 12/12/12 11/11/11 10/10/10
f 12/12/12 10/10/10 13/13/13
f 14/14/14 12/12/12 13/13/13
f 15/15/15 12/12/12 14/14/14
f 16/16/16 15/15/15 14/14/14
f 17/17/17 15/15/15 16/16/16
f 18/18/18 17/17/17 16/16/16
f 19/19/19 17/17/17 18/18/18
f 20/20/20 19/19/19 18/18/18
f 23/23/23 22/22/22 21/21/21
f 24/24/24 23/23/23 21/21/21
f 24/24/24 21/21/21 25/25/25
f 26/26/26 24/24/24 25/25/25
f 29/29/29 28/28/28 27/27/27
f 30/30/30 29/29/29 27/27/27
f 31/31/31 29/29/29 30/30/30
f 32/32/32 31/31/31 30/30/30
f 33/33/33 31/31/31 32/32/32
f 34/34/34 33/33/33 32/32/32
f 33/33/33 34/34/34 35/35/35
f 36/36/36 33/33/33 35/35/35
f 36/36/36 35/35/35 37/37/37
f 35/35/35 38/38/38 37/37/37
f 37/37/37 38/38/38 39/39/39
f 38/38/38 40/40/40 39/39/39
f 39/39/39 40/40/40 41/41/41
f 40/40/40 42/42/42 41/41/41
f 45/45/45 44/44/44 43/43/43
f 44/44/44 46/46/46 43/43/43
f 47/47/47 46/46/46 44/44/44
f 48/48/48 47/47/47 44/44/44
f 49/49/49 47/47/47 48/48/48
f 50/50/50 49/49/49 48/48/48
f 51/51/51 49/49/49 50/50/50
f 52/52/52 51/51/51 50/50/50
f 51/51/51 52/52/52 53/53/53
f 54/54/54 51/51/51 53/53/53
f 54/54/54 55/55/55 51/51/51
f 55/55/55 56/56/56 51/51/51
f 57/57/57 55/55/55 54/54/54
f 58/58/58 57/57/57 54/54/54
f 59/59/59 57/57/57 58/58/58
f 60/60/60 59/59/59 58/58/58
f 61/61/61 59/59/59 60/60/60
f 62/62/62 61/61/61 60/60/60
f 65/65/65 64/64/64 63/63/63
f 64/64/64 66/66/66 63/63/63
f 67/67/67 63/63/63 66/66/66
f 68/68/68 67/67/67 66/66/66
f 69/69/69 67/67/67 68/68/68
f 70/70/70 69/69/69 68/68/68
f 71/71/71 69/69/69 70/70/70
f 72/72/72 71/71/71 70/70/70
f 73/73/73 71/71/71 72/72/72
f 74/74/74 73/73/73 72/72/72
f 75/75/75 73/73/73 74/74/74
f 76/76/76 75/75/75 74/74/74
f 79/79/79 78/78/78 77/77/77
f 78/78/78 80/80/80 77/77/77
f 77/77/77 80/80/80 81/81/81
f 80/80/80 82/82/82 81/81/81
f 82/82/82 83/83/83 81/81/81
f 83/83/83 84/84/84 81/81/81
f 85/85/85 84/84/84 83/83/83
f 86/86/86 85/85/85 83/83/83
f 87/87/87 85/85/85 86/86/86
f 88/88/88 87/87/87 86/86/86
f 91/91/91 90/90/90 89/89/89
f 92/92/92 91/91/91 89/89/89
f 92/92/92 93/93/93 91/91/91
f 93/93/93 94/94/94 91/91/91
f 93/93/93 95/95/95 94/94/94
f 95/95/95 96/96/96 94/94/94
f 95/95/95 97/97/97 96/96/96
f 97/97/97 98/98/98 96/96/96
f 97/97/97 99/99/99 98/98/98
f 99/99/99 100/100/100 98/98/98
f 98/98/98 100/100/100 101/101/101
f 100/100/100 102/102/102 101/101/101
f 100/100/100 103/103/103 102/102/102
f 103/103/103 104/104/104 102/102/102
f 103/103/103 105/105/105 104/104/104
f 105/105/105 106/106/106 104/104/104
f 105/105/105 107/107/107 106/106/106
f 107/107/107 108/108/108 106/106/106
f 111/111/111 110/110/110 109/109/109
f 110/110/110 112/112/112 109/109/109
f 109/109/109 112/112/112 113/113/113
f 112/112/112 114/114/114 113/113/113
f 117/117/117 116/116/116 115/115/115
f 116/116/116 118/118/118 115/115/115
f 116/116/116 119/119/119 118/118/118
f 119/119/119 120/120/120 118/118/118
f 119/119/119 121/121/121 120/120/120
f 121/121/121 122/122/122 120/120/120
f 122/122/122 121/121/121 123/123/123
f 121/121/121 124/124/124 123/123/123
f 123/123/123 124/124/124 125/125/125
f 126/126/126 123/123/123 125/125/125
f 126/126/126 125/125/125 127/127/127
f 128/128/128 126/126/126 127/127/127
f 128/128/128 127/127/127 129/129/129
f 130/130/130 128/128/128 129/129/129
f 133/133/133 132/132/132 131/131/131
f 134/134/134 133/133/133 131/131/131
f 134/134/134 135/135/135 133/133/133
f 135/135/135 136/136/136 133/133/133
f 135/135/135 137/137/137 136/136/136
f 137/137/137 138/138/138 136/136/136
f 137/137/137 139/139/139 138/138/138
f 139/139/139 140/140/140 138/138/138
f 140/140/140 139/139/139 141/141/141
f 139/139/139 142/142/142 141/141/141
f 143/143/143 142/142/142 139/139/139
f 144/144/144 143/143/143 139/139/139
f 143/143/143 145/145/145 142/142/142
f 145/145/145 146/146/146 142/142/142
f 145/145/145 147/147/147 146/146/146
f 147/147/147 148/148/148 146/146/146
f 147/147/147 149/149/149 148/148/148
f 149/149/149 150/150/150 148/148/148
f 153/153/153 152/152/152 151/151/151
f 154/154/154 153/153/153 151/151/151
f 151/151/151 155/155/155 154/154/154
f 155/155/155 156/156/156 154/154/154
f 155/155/155 157/157/157 156/156/156
f 157/157/157 158/158/158 156/156/156
f 157/157/157 159/159/159 158/158/158
f 159/159/159 160/160/160 158/158/158
f 159/159/159 161/161/161 160/160/160
f 161/161/161 162/162/162 160/160/160
f 161/161/161 163/163/163 162/162/162
f 163/163/163 164/164/164 162/162/162
f 167/167/167 166/166/166 165/165/165
f 168/168/168 167/167/167 165/165/165
f 168/168/168 165/165/165 169/169/169
f 170/170/170 168/168/168 169/169/169
f 171/171/171 170/170/170 169/169/169
f 172/172/172 171/171/171 169/169/169
f 172/172/172 173/173/173 171/171/171
f 173/173/173 174/174/174 171/171/171
f 173/173/173 175/175/175 174/174/174
f 175/175/175 176/176/176 174/174/174
