g pm0479_13_AuraBSkin_ty1
v 1.459008E-32 0.06796095 0.1074202
v -0.01944675 0.04891336 0.09584088
v 1.260325E-32 0.04781215 0.09557947
v -0.01346026 0.06970052 0.1077814
v -0.01298922 0.08150589 0.1143539
v 1.57929E-32 0.08015899 0.1146859
v 1.740125E-32 0.09646965 0.1218684
v -0.03273074 0.07892023 0.1110363
v -0.02852244 0.08649497 0.1149919
v -0.01402527 0.09728304 0.1210887
v -0.04118956 0.0731985 0.1073989
v -0.04138789 0.05040457 0.09530351
v -0.01508196 0.1203212 0.1265902
v -0.03327155 0.1206658 0.1226613
v 1.97406E-32 0.1201934 0.1277196
v 2.214784E-32 0.1446057 0.1274832
v -0.03145574 0.09974869 0.1195851
v -0.04288779 0.09860901 0.1163195
v -0.01402527 0.1439876 0.1265366
v -0.05054808 0.09755738 0.1142842
v -0.06121607 0.07352532 0.1045777
v -0.06150176 0.0527389 0.09452868
v -0.06988697 0.05393625 0.09206393
v -0.07361951 0.07305422 0.1014369
v -0.0762357 0.09294058 0.1076753
v -0.06151318 0.09485678 0.1108818
v -0.07885656 0.1135919 0.110665
v -0.06259867 0.1172245 0.1153708
v -0.08163031 0.1436582 0.1120949
v -0.04493797 0.1210841 0.1199466
v -0.06215004 0.1436792 0.1161706
v -0.08282975 0.1721418 0.11136
v -0.05300942 0.1198451 0.1181159
v -0.06221871 0.1721431 0.1147827
v -0.08349486 0.2019238 0.106075
v -0.06376905 0.2018473 0.1080534
v -0.0463678 0.2016696 0.1095953
v -0.05137562 0.1441456 0.1181834
v -0.04389559 0.1439536 0.1197329
v -0.04755278 0.1725885 0.1153626
v -0.01921025 0.1805109 0.1156689
v -0.02314694 0.2016052 0.1108759
v 2.777076E-32 0.201629 0.1113925
v 2.599814E-32 0.1836524 0.1169139
v 2.519727E-32 0.1755307 0.1196642
v -0.03434396 0.1631092 0.1187715
v -0.03136116 0.143518 0.1224151
v -0.01660297 0.1735957 0.1189741
v 2.387241E-32 0.162095 0.1242433
v -0.02714695 0.1553484 0.1215961
v -0.0138431 0.1608573 0.1235239
v 1.459008E-32 0.06796095 0.1074202
v 1.260325E-32 0.04781215 0.09557947
v 0.01944675 0.04891336 0.09584088
v 0.01346026 0.06970052 0.1077814
v 0.01298922 0.08150589 0.1143539
v 1.57929E-32 0.08015899 0.1146859
v 1.740125E-32 0.09646965 0.1218684
v 0.03273074 0.07892023 0.1110363
v 0.02852244 0.08649497 0.1149919
v 0.01402527 0.09728304 0.1210887
v 0.04118956 0.0731985 0.1073989
v 0.04138789 0.05040457 0.09530351
v 0.01508196 0.1203212 0.1265902
v 0.03327155 0.1206658 0.1226613
v 1.97406E-32 0.1201934 0.1277196
v 2.214784E-32 0.1446057 0.1274832
v 0.03145574 0.09974869 0.1195851
v 0.04288779 0.09860901 0.1163195
v 0.01402527 0.1439876 0.1265366
v 0.05054808 0.09755738 0.1142842
v 0.06121607 0.07352532 0.1045777
v 0.06150176 0.0527389 0.09452868
v 0.06988697 0.05393625 0.09206393
v 0.07361951 0.07305422 0.1014369
v 0.0762357 0.09294058 0.1076753
v 0.06151318 0.09485678 0.1108818
v 0.07885656 0.1135919 0.110665
v 0.06259867 0.1172245 0.1153708
v 0.08163031 0.1436582 0.1120949
v 0.04493797 0.1210841 0.1199466
v 0.06215004 0.1436792 0.1161706
v 0.08282975 0.1721418 0.11136
v 0.05300942 0.1198451 0.1181159
v 0.06221871 0.1721431 0.1147827
v 0.08349486 0.2019238 0.106075
v 0.06376905 0.2018473 0.1080534
v 0.0463678 0.2016696 0.1095953
v 0.05137562 0.1441456 0.1181834
v 0.04389559 0.1439536 0.1197329
v 0.04755278 0.1725885 0.1153626
v 0.01921025 0.1805109 0.1156689
v 0.02314694 0.2016052 0.1108759
v 2.777076E-32 0.201629 0.1113925
v 2.599814E-32 0.1836524 0.1169139
v 2.519727E-32 0.1755307 0.1196642
v 0.03434396 0.1631092 0.1187715
v 0.03136116 0.143518 0.1224151
v 0.01660297 0.1735957 0.1189741
v 2.387241E-32 0.162095 0.1242433
v 0.02714695 0.1553484 0.1215961
v 0.0138431 0.1608573 0.1235239
vt 0 0.3351687
vt 0.01401591 0.3191668
vt 0 0.3183655
vt 0.009607553 0.3364203
vt 0.009174943 0.3460341
vt 0 0.3452356
vt 0 0.3576845
vt 0.02336872 0.3435721
vt 0.02020347 0.3496106
vt 0.009785175 0.3580946
vt 0.02959406 0.3388408
vt 0.03003263 0.3200763
vt 0.01039147 0.3745577
vt 0.02338886 0.3745379
vt 0 0.3745527
vt 0 0.3913657
vt 0.02210534 0.3595943
vt 0.03052843 0.3583134
vt 0.009708047 0.3909684
vt 0.03620601 0.3572602
vt 0.0443306 0.3385086
vt 0.04484236 0.3215856
vt 0.05135024 0.3216875
vt 0.05370295 0.3374615
vt 0.0555284 0.3529524
vt 0.04445469 0.3548106
vt 0.05746865 0.3685059
vt 0.04506505 0.3715218
vt 0.0594871 0.3907716
vt 0.03192449 0.3746427
vt 0.04485977 0.3908318
vt 0.06028783 0.4116926
vt 0.0378654 0.3736212
vt 0.04498518 0.4115473
vt 0.0609684 0.4335938
vt 0.04641151 0.4335937
vt 0.03360391 0.4335938
vt 0.03688657 0.3912085
vt 0.03136635 0.3910654
vt 0.0343076 0.4119824
vt 0.01382363 0.4179004
vt 0.0166434 0.4335938
vt 0 0.4335938
vt 0 0.4199129
vt 0 0.4137486
vt 0.0245806 0.4049689
vt 0.0222019 0.3907354
vt 0.01180649 0.4124597
vt 0 0.4037094
vt 0.01927292 0.3992203
vt 0.009683728 0.4029144
vt 0 0.3351687
vt 0 0.3183655
vt 0.01401591 0.3191668
vt 0.009607553 0.3364203
vt 0.009174943 0.3460341
vt 0 0.3452356
vt 0 0.3576845
vt 0.02336872 0.3435721
vt 0.02020347 0.3496106
vt 0.009785175 0.3580946
vt 0.02959406 0.3388408
vt 0.03003263 0.3200763
vt 0.01039147 0.3745577
vt 0.02338886 0.3745379
vt 0 0.3745527
vt 0 0.3913657
vt 0.02210534 0.3595943
vt 0.03052843 0.3583134
vt 0.009708047 0.3909684
vt 0.03620601 0.3572602
vt 0.0443306 0.3385086
vt 0.04484236 0.3215856
vt 0.05135024 0.3216875
vt 0.05370295 0.3374615
vt 0.0555284 0.3529524
vt 0.04445469 0.3548106
vt 0.05746865 0.3685059
vt 0.04506505 0.3715218
vt 0.0594871 0.3907716
vt 0.03192449 0.3746427
vt 0.04485977 0.3908318
vt 0.06028783 0.4116926
vt 0.0378654 0.3736212
vt 0.04498518 0.4115473
vt 0.0609684 0.4335938
vt 0.04641151 0.4335937
vt 0.03360391 0.4335938
vt 0.03688657 0.3912085
vt 0.03136635 0.3910654
vt 0.0343076 0.4119824
vt 0.01382363 0.4179004
vt 0.0166434 0.4335938
vt 0 0.4335938
vt 0 0.4199129
vt 0 0.4137486
vt 0.0245806 0.4049689
vt 0.0222019 0.3907354
vt 0.01180649 0.4124597
vt 0 0.4037094
vt 0.01927292 0.3992203
vt 0.009683728 0.4029144
vn 0 0.4990058 -0.8665986
vn 0.05075514 0.4810534 -0.8752209
vn 0 0.4993995 -0.8663718
vn 0.06113226 0.4831442 -0.873404
vn 0.0811154 0.4331501 -0.8976644
vn 0 0.4499155 -0.8930712
vn 0 0.3198058 -0.9474831
vn 0.1413324 0.4091742 -0.9014442
vn 0.1391001 0.398465 -0.9065742
vn 0.1036468 0.303718 -0.9471075
vn 0.1171427 0.4086785 -0.9051296
vn 0.08134474 0.4587142 -0.8848527
vn 0.1328406 0.1029508 -0.9857761
vn 0.2119868 0.08152296 -0.9738663
vn 0 0.1158079 -0.9932716
vn 0 -0.0938531 -0.995586
vn 0.1842969 0.2770301 -0.9430212
vn 0.2144898 0.2625898 -0.940766
vn 0.1469834 -0.09286538 -0.9847699
vn 0.1986236 0.2555281 -0.9461787
vn 0.1794406 0.3751789 -0.9094184
vn 0.1790427 0.4463722 -0.8767529
vn 0.2479707 0.4411948 -0.8624718
vn 0.2210463 0.3709855 -0.901947
vn 0.2025777 0.2420084 -0.9488911
vn 0.2012474 0.2466704 -0.9479732
vn 0.2233688 0.1167872 -0.9677124
vn 0.2273403 0.1094805 -0.9676416
vn 0.2089814 0.007706135 -0.9778893
vn 0.2215697 0.07824353 -0.9720004
vn 0.1874297 -0.01439244 -0.9821725
vn 0.1573938 -0.1124839 -0.9811088
vn 0.2219599 0.09281478 -0.9706283
vn 0.121416 -0.1283252 -0.9842717
vn 0.1299056 -0.1916414 -0.97283
vn 0.09816117 -0.199469 -0.9749751
vn 0.06361643 -0.2047289 -0.9767493
vn 0.1800854 -0.05380162 -0.9821785
vn 0.2036997 -0.07858729 -0.9758742
vn 0.105577 -0.178777 -0.9782087
vn 0.08536289 -0.271285 -0.9587061
vn 0.05989272 -0.2258809 -0.972312
vn 0 -0.2496908 -0.9683257
vn 0 -0.3044529 -0.9525274
vn -1.010091E-07 -0.3402653 -0.9403295
vn 0.174507 -0.1998529 -0.9641608
vn 0.2174022 -0.08885141 -0.9720296
vn 0.1229815 -0.3006077 -0.9457856
vn 0 -0.2513845 -0.9678873
vn 0.2077813 -0.1862874 -0.9602728
vn 0.1411447 -0.2285471 -0.9632468
vn 0 0.4990058 -0.8665986
vn 0 0.4993995 -0.8663718
vn -0.05075509 0.4810534 -0.8752209
vn -0.0611322 0.483144 -0.873404
vn -0.08111523 0.43315 -0.8976645
vn 0 0.4499155 -0.8930712
vn 0 0.3198058 -0.9474831
vn -0.1413324 0.4091742 -0.9014442
vn -0.1390998 0.3984649 -0.9065743
vn -0.1036468 0.303718 -0.9471075
vn -0.1171427 0.4086785 -0.9051296
vn -0.08134453 0.4587141 -0.8848528
vn -0.1328406 0.1029508 -0.985776
vn -0.2119869 0.08152299 -0.9738663
vn 0 0.1158079 -0.9932716
vn 0 -0.0938531 -0.995586
vn -0.1842969 0.2770301 -0.9430212
vn -0.21449 0.2625899 -0.940766
vn -0.1469834 -0.09286535 -0.9847699
vn -0.1986239 0.2555281 -0.9461786
vn -0.1794407 0.3751788 -0.9094184
vn -0.1790428 0.4463722 -0.8767529
vn -0.247971 0.4411948 -0.8624718
vn -0.2210465 0.3709855 -0.901947
vn -0.2025779 0.2420084 -0.948891
vn -0.2012476 0.2466704 -0.9479732
vn -0.2233691 0.1167872 -0.9677123
vn -0.2273405 0.1094805 -0.9676416
vn -0.2089816 0.007706159 -0.9778892
vn -0.2215699 0.0782436 -0.9720004
vn -0.1874297 -0.01439243 -0.9821725
vn -0.1573938 -0.1124839 -0.9811088
vn -0.2219601 0.09281482 -0.9706283
vn -0.1214159 -0.1283252 -0.9842717
vn -0.1299057 -0.1916415 -0.9728299
vn -0.09816124 -0.199469 -0.9749751
vn -0.06361641 -0.2047289 -0.9767493
vn -0.1800854 -0.05380161 -0.9821785
vn -0.2036998 -0.07858727 -0.9758742
vn -0.1055769 -0.178777 -0.9782087
vn -0.08536268 -0.2712849 -0.9587063
vn -0.05989259 -0.2258809 -0.9723121
vn 0 -0.2496908 -0.9683257
vn 0 -0.3044529 -0.9525274
vn -1.010091E-07 -0.3402653 -0.9403295
vn -0.1745069 -0.1998528 -0.9641608
vn -0.2174023 -0.08885136 -0.9720296
vn -0.1229814 -0.3006077 -0.9457856
vn 0 -0.2513845 -0.9678873
vn -0.2077815 -0.1862873 -0.9602728
vn -0.1411448 -0.2285471 -0.9632468
g pm0479_13_AuraBSkin_ty1_0
f 3/3/3 2/2/2 1/1/1
f 2/2/2 4/4/4 1/1/1
f 4/4/4 5/5/5 1/1/1
f 5/5/5 6/6/6 1/1/1
f 6/6/6 5/5/5 7/7/7
f 8/8/8 4/4/4 2/2/2
f 9/9/9 5/5/5 4/4/4
f 8/8/8 9/9/9 4/4/4
f 5/5/5 10/10/10 7/7/7
f 10/10/10 5/5/5 9/9/9
f 11/11/11 8/8/8 2/2/2
f 12/12/12 11/11/11 2/2/2
f 7/7/7 10/10/10 13/13/13
f 13/13/13 10/10/10 14/14/14
f 15/15/15 7/7/7 13/13/13
f 16/16/16 15/15/15 13/13/13
f 17/17/17 10/10/10 9/9/9
f 10/10/10 17/17/17 14/14/14
f 18/18/18 17/17/17 9/9/9
f 8/8/8 18/18/18 9/9/9
f 17/17/17 18/18/18 14/14/14
f 19/19/19 16/16/16 13/13/13
f 19/19/19 13/13/13 14/14/14
f 18/18/18 8/8/8 20/20/20
f 8/8/8 11/11/11 20/20/20
f 21/21/21 11/11/11 12/12/12
f 22/22/22 21/21/21 12/12/12
f 22/22/22 23/23/23 21/21/21
f 23/23/23 24/24/24 21/21/21
f 24/24/24 25/25/25 21/21/21
f 21/21/21 26/26/26 11/11/11
f 25/25/25 26/26/26 21/21/21
f 26/26/26 20/20/20 11/11/11
f 26/26/26 25/25/25 27/27/27
f 28/28/28 26/26/26 27/27/27
f 26/26/26 28/28/28 20/20/20
f 28/28/28 27/27/27 29/29/29
f 18/18/18 20/20/20 30/30/30
f 18/18/18 30/30/30 14/14/14
f 31/31/31 28/28/28 29/29/29
f 29/29/29 32/32/32 31/31/31
f 28/28/28 33/33/33 20/20/20
f 20/20/20 33/33/33 30/30/30
f 28/28/28 31/31/31 33/33/33
f 32/32/32 34/34/34 31/31/31
f 34/34/34 32/32/32 35/35/35
f 36/36/36 34/34/34 35/35/35
f 36/36/36 37/37/37 34/34/34
f 31/31/31 38/38/38 33/33/33
f 33/33/33 38/38/38 30/30/30
f 31/31/31 34/34/34 38/38/38
f 30/30/30 39/39/39 14/14/14
f 38/38/38 39/39/39 30/30/30
f 37/37/37 40/40/40 34/34/34
f 34/34/34 40/40/40 38/38/38
f 41/41/41 40/40/40 37/37/37
f 42/42/42 41/41/41 37/37/37
f 42/42/42 43/43/43 41/41/41
f 43/43/43 44/44/44 41/41/41
f 41/41/41 44/44/44 45/45/45
f 40/40/40 46/46/46 38/38/38
f 46/46/46 39/39/39 38/38/38
f 46/46/46 40/40/40 41/41/41
f 39/39/39 47/47/47 14/14/14
f 47/47/47 39/39/39 46/46/46
f 47/47/47 19/19/19 14/14/14
f 48/48/48 41/41/41 45/45/45
f 48/48/48 46/46/46 41/41/41
f 48/48/48 45/45/45 49/49/49
f 50/50/50 47/47/47 46/46/46
f 19/19/19 47/47/47 50/50/50
f 50/50/50 46/46/46 48/48/48
f 51/51/51 48/48/48 49/49/49
f 51/51/51 50/50/50 48/48/48
f 51/51/51 19/19/19 50/50/50
f 51/51/51 49/49/49 16/16/16
f 19/19/19 51/51/51 16/16/16
f 54/54/54 53/53/53 52/52/52
f 55/55/55 54/54/54 52/52/52
f 56/56/56 55/55/55 52/52/52
f 57/57/57 56/56/56 52/52/52
f 56/56/56 57/57/57 58/58/58
f 55/55/55 59/59/59 54/54/54
f 56/56/56 60/60/60 55/55/55
f 60/60/60 59/59/59 55/55/55
f 61/61/61 56/56/56 58/58/58
f 56/56/56 61/61/61 60/60/60
f 59/59/59 62/62/62 54/54/54
f 62/62/62 63/63/63 54/54/54
f 61/61/61 58/58/58 64/64/64
f 61/61/61 64/64/64 65/65/65
f 58/58/58 66/66/66 64/64/64
f 66/66/66 67/67/67 64/64/64
f 61/61/61 68/68/68 60/60/60
f 68/68/68 61/61/61 65/65/65
f 68/68/68 69/69/69 60/60/60
f 69/69/69 59/59/59 60/60/60
f 69/69/69 68/68/68 65/65/65
f 67/67/67 70/70/70 64/64/64
f 64/64/64 70/70/70 65/65/65
f 59/59/59 69/69/69 71/71/71
f 62/62/62 59/59/59 71/71/71
f 62/62/62 72/72/72 63/63/63
f 72/72/72 73/73/73 63/63/63
f 74/74/74 73/73/73 72/72/72
f 75/75/75 74/74/74 72/72/72
f 76/76/76 75/75/75 72/72/72
f 77/77/77 72/72/72 62/62/62
f 77/77/77 76/76/76 72/72/72
f 71/71/71 77/77/77 62/62/62
f 76/76/76 77/77/77 78/78/78
f 77/77/77 79/79/79 78/78/78
f 79/79/79 77/77/77 71/71/71
f 78/78/78 79/79/79 80/80/80
f 71/71/71 69/69/69 81/81/81
f 81/81/81 69/69/69 65/65/65
f 79/79/79 82/82/82 80/80/80
f 83/83/83 80/80/80 82/82/82
f 84/84/84 79/79/79 71/71/71
f 84/84/84 71/71/71 81/81/81
f 82/82/82 79/79/79 84/84/84
f 85/85/85 83/83/83 82/82/82
f 83/83/83 85/85/85 86/86/86
f 85/85/85 87/87/87 86/86/86
f 88/88/88 87/87/87 85/85/85
f 89/89/89 82/82/82 84/84/84
f 89/89/89 84/84/84 81/81/81
f 85/85/85 82/82/82 89/89/89
f 90/90/90 81/81/81 65/65/65
f 90/90/90 89/89/89 81/81/81
f 91/91/91 88/88/88 85/85/85
f 91/91/91 85/85/85 89/89/89
f 91/91/91 92/92/92 88/88/88
f 92/92/92 93/93/93 88/88/88
f 94/94/94 93/93/93 92/92/92
f 95/95/95 94/94/94 92/92/92
f 95/95/95 92/92/92 96/96/96
f 97/97/97 91/91/91 89/89/89
f 90/90/90 97/97/97 89/89/89
f 91/91/91 97/97/97 92/92/92
f 98/98/98 90/90/90 65/65/65
f 90/90/90 98/98/98 97/97/97
f 70/70/70 98/98/98 65/65/65
f 92/92/92 99/99/99 96/96/96
f 97/97/97 99/99/99 92/92/92
f 96/96/96 99/99/99 100/100/100
f 98/98/98 101/101/101 97/97/97
f 98/98/98 70/70/70 101/101/101
f 97/97/97 101/101/101 99/99/99
f 99/99/99 102/102/102 100/100/100
f 101/101/101 102/102/102 99/99/99
f 70/70/70 102/102/102 101/101/101
f 100/100/100 102/102/102 67/67/67
f 102/102/102 70/70/70 67/67/67
