g pm0536_00_TongueBSkin
v 0.05420568 0.4116221 0.1056315
v 0.05034446 0.4094428 0.08115979
v 0.05423884 0.400227 0.1019015
v 0.05061419 0.395381 0.1241207
v 0.0503847 0.4197728 0.08443332
v 0.0393506 0.4267436 0.06682635
v 0.04881246 0.4300392 0.0885007
v 0.03922415 0.4174986 0.06394844
v 0.02117104 0.4188644 0.05232021
v 0.05065566 0.4056475 0.1275882
v 0.03984791 0.4008178 0.1460332
v 0.0490755 0.416326 0.1303963
v 0.03971979 0.39166 0.1428891
v 0.02180492 0.385819 0.1532784
v 0.05247353 0.4231219 0.1094064
v 0.0473434 0.4348311 0.1132713
v 0.02126126 0.4291782 0.05564315
v -0.0003332398 0.4292353 0.05171669
v 0.02063505 0.439139 0.06064573
v -0.0003262658 0.4178487 0.0479608
v -0.02177911 0.4187603 0.05255584
v 0.03817279 0.4358031 0.0711051
v 0.03438648 0.4444917 0.07818552
v 0.04401524 0.4401782 0.09415574
v 0.03448795 0.4488903 0.09862257
v -0.02188283 0.4290737 0.05587984
v -0.03983637 0.4265518 0.06726076
v -0.02125002 0.4390376 0.06087551
v -0.03969674 0.4173074 0.06438139
v -0.05058839 0.4091984 0.08171351
v -0.0003296125 0.4401746 0.05720755
v -0.000304782 0.4502191 0.06616838
v 0.01857596 0.4483938 0.06900756
v 0.01722558 0.4544652 0.08155774
v 0.02923149 0.4497712 0.08568607
v -0.05064275 0.4195281 0.08498755
v -0.0541914 0.4113595 0.1062262
v -0.04907572 0.4298021 0.0890377
v -0.05421028 0.3999643 0.1024964
v -0.05031865 0.3951365 0.1246744
v -0.03865559 0.4356171 0.07152657
v -0.03483397 0.4443241 0.07856525
v -0.01914417 0.4483024 0.06921449
v -0.01768561 0.4543806 0.08174925
v -0.0002470152 0.4567539 0.07958354
v -0.0001445785 0.4571641 0.09843739
v 0.01872548 0.4548758 0.0991253
v 0.02024722 0.4505786 0.1185958
v 0.03715478 0.444675 0.1165573
v 0.0347072 0.4374604 0.1335425
v 0.04425213 0.4278287 0.1318853
v 0.0348212 0.4218291 0.1474233
v 0.03865529 0.4106496 0.1479528
v 0.0212498 0.4070905 0.1585585
v 0.02189573 0.3961019 0.1566959
v 0.0003475193 0.3937463 0.160141
v 0.0003548201 0.3823426 0.1564371
v -0.02114523 0.385715 0.153514
v 0.02960111 0.4305025 0.1445549
v 0.0176603 0.4318025 0.1507955
v 0.01913039 0.4194906 0.1573109
v 0.0002899663 0.4192139 0.1608937
v 0.0003294807 0.405815 0.1621811
v -0.02063526 0.4069891 0.1587882
v -0.02124835 0.3959974 0.1569326
v -0.03933906 0.4006261 0.1464676
v -0.0392011 0.3914689 0.1433221
v 0.01896237 0.4425263 0.1368549
v 0.0001099536 0.443895 0.1389766
v 0.000219837 0.4324161 0.1539389
v -0.01725089 0.4317179 0.1509871
v -0.01858975 0.4193993 0.1575178
v -0.03439924 0.4216614 0.1478031
v -0.0503718 0.4054028 0.1281425
v -0.04881268 0.4160889 0.1309333
v -0.03817309 0.4104635 0.1483742
v -1.855971E-05 0.4525208 0.1193588
v -0.02028185 0.4504805 0.1188182
v -0.01875776 0.4424349 0.1370618
v -0.03451325 0.4372928 0.1339222
v -0.02925301 0.4303599 0.1448778
v -0.05247367 0.4228677 0.1099822
v -0.04735821 0.4346018 0.1137908
v -0.04402903 0.4276148 0.1323696
v -0.01899465 0.4547845 0.09933224
v -0.0347325 0.4487227 0.0990023
v -0.03718196 0.444495 0.1169651
v -0.04426592 0.4399644 0.09464005
v -0.02962262 0.4496287 0.08600894
vt 0.1059072 0.06272393
vt 0.1086104 0.08350343
vt 0.1123828 0.06281108
vt 0.1088717 0.04194769
vt 0.1027536 0.08028734
vt 0.09389603 0.09213901
vt 0.09540844 0.0772348
vt 0.1004816 0.09555458
vt 0.08299398 0.1061698
vt 0.1029751 0.04506117
vt 0.09429675 0.03072575
vt 0.09559208 0.04802898
vt 0.1009617 0.02442114
vt 0.08360803 0.01373902
vt 0.09770125 0.06266001
vt 0.08978432 0.06260601
vt 0.07963371 0.1006983
vt 0.06222603 0.1036104
vt 0.07656735 0.09581077
vt 0.06217012 0.1097534
vt 0.04138935 0.1059349
vt 0.08840519 0.0890891
vt 0.08301616 0.08365977
vt 0.08828431 0.07405311
vt 0.08093226 0.07221782
vt 0.04485452 0.1005019
vt 0.03069915 0.09178215
vt 0.04801124 0.09564948
vt 0.02403301 0.09512298
vt 0.01348256 0.08295149
vt 0.06227618 0.09787893
vt 0.0623247 0.09012395
vt 0.0734728 0.08877844
vt 0.07176298 0.08141541
vt 0.07875884 0.07929713
vt 0.0220221 0.0798316
vt 0.0190914 0.06223381
vt 0.02940513 0.07686216
vt 0.009974122 0.06221798
vt 0.01374385 0.04139572
vt 0.03625786 0.08879465
vt 0.04171529 0.08342665
vt 0.05119398 0.08865267
vt 0.05299631 0.08130944
vt 0.06237343 0.08235592
vt 0.06243223 0.07300037
vt 0.07216316 0.07249486
vt 0.0727784 0.06250411
vt 0.08197498 0.06255752
vt 0.08105385 0.05288124
vt 0.08842844 0.05112988
vt 0.08328158 0.04144868
vt 0.08873862 0.03606144
vt 0.07698596 0.02924079
vt 0.08014268 0.02207257
vt 0.06277245 0.0190271
vt 0.06282988 0.01005038
vt 0.04200336 0.01350414
vt 0.0789696 0.04577187
vt 0.07200086 0.04358011
vt 0.07380319 0.0362373
vt 0.0626727 0.03477795
vt 0.06272161 0.02704081
vt 0.04842979 0.02907959
vt 0.04536349 0.02187623
vt 0.03109983 0.03036898
vt 0.02451313 0.02398953
vt 0.07228881 0.0525054
vt 0.06256497 0.0518913
vt 0.0626238 0.04253778
vt 0.05323419 0.04347417
vt 0.05152434 0.0361115
vt 0.04198068 0.04121551
vt 0.02224359 0.0446054
vt 0.02958876 0.04765636
vt 0.03659129 0.03576702
vt 0.0624986 0.06244609
vt 0.05221882 0.06238803
vt 0.05283406 0.05239555
vt 0.04406494 0.05267242
vt 0.04623824 0.04558706
vt 0.0272966 0.06226254
vt 0.03521313 0.06229791
vt 0.03671286 0.0508379
vt 0.05270836 0.07238507
vt 0.04394335 0.07200897
vt 0.04302225 0.06233761
vt 0.03656873 0.07376111
vt 0.04602742 0.07911235
vn 0.9914405 0.1257942 0.03494966
vn 0.929832 0.149652 -0.3361796
vn 0.9992958 0.03706218 0.005856597
vn 0.9341345 -0.07462984 0.3490317
vn 0.9228444 0.2389691 -0.3020797
vn 0.7087692 0.345596 -0.6149874
vn 0.8739343 0.4323591 -0.222046
vn 0.71446 0.2540929 -0.6519077
vn 0.3772395 0.3247774 -0.8673003
vn 0.9270918 0.01753769 0.3744237
vn 0.7169769 -0.08227684 0.6922244
vn 0.8779954 0.2206405 0.4247844
vn 0.722747 -0.1778802 0.667829
vn 0.3882557 -0.2494813 0.8871396
vn 0.9411203 0.323001 0.09981501
vn 0.7953661 0.5775147 0.1840366
vn 0.3733199 0.415795 -0.829305
vn -0.005992453 0.4373323 -0.89928
vn 0.356724 0.6025602 -0.7139112
vn -0.005985403 0.3474964 -0.9376622
vn -0.3883008 0.322923 -0.863101
vn 0.6716949 0.5330998 -0.5144225
vn 0.5785958 0.7364331 -0.3505612
vn 0.7382689 0.6661903 -0.1055916
vn 0.5254884 0.8507999 0.00117395
vn -0.3844055 0.4139597 -0.8251483
vn -0.7171393 0.3421425 -0.6071653
vn -0.3674495 0.6008061 -0.7099386
vn -0.7227918 0.2506117 -0.6440232
vn -0.9341784 0.1451371 -0.3259539
vn -0.005797776 0.6241257 -0.7813025
vn -0.005046866 0.8339762 -0.5517774
vn 0.3170318 0.8061302 -0.499645
vn 0.2714102 0.933971 -0.2324535
vn 0.4703914 0.8599805 -0.197903
vn -0.9272497 0.234488 -0.2919306
vn -0.9915951 0.1209913 0.0458284
vn -0.8784017 0.4281152 -0.212433
vn -0.9993392 0.03222129 0.01682127
vn -0.9298761 -0.07914436 0.3592582
vn -0.6798727 0.5298262 -0.5070082
vn -0.5859677 0.7336122 -0.344173
vn -0.3263955 0.8045716 -0.4961155
vn -0.2784649 0.9326392 -0.2294372
vn -0.003708647 0.9686518 -0.2483948
vn -0.00214289 0.9987319 0.05029985
vn 0.2692262 0.9622432 0.04006601
vn 0.2728338 0.9148334 0.2977274
vn 0.5524597 0.7932026 0.2561599
vn 0.5285963 0.6887887 0.4961412
vn 0.741887 0.4775698 0.4706706
vn 0.5852647 0.3887837 0.7115564
vn 0.6794607 0.1282619 0.7224141
vn 0.3670326 0.06516001 0.927923
vn 0.3842432 -0.1536271 0.9103603
vn 0.005830933 -0.1790396 0.9838246
vn 0.005939844 -0.2741839 0.961659
vn -0.3772856 -0.2513352 0.8913396
vn 0.4757952 0.5782807 0.6627294
vn 0.2774948 0.6167845 0.7365958
vn 0.3256688 0.3558733 0.8759532
vn 0.004307857 0.3463106 0.9381101
vn 0.005381068 0.0413603 0.9991298
vn -0.3571413 0.06340594 0.9318958
vn -0.3734833 -0.1554622 0.9145173
vn -0.708932 -0.08573026 0.7000469
vn -0.7145057 -0.1813609 0.6757143
vn 0.2723247 0.8007084 0.5335779
vn 0.000994393 0.8351789 0.5499775
vn 0.002705074 0.6343067 0.7730768
vn -0.2723805 0.6154522 0.7396132
vn -0.3177583 0.3543144 0.8794833
vn -0.5792987 0.3859624 0.7179456
vn -0.9230021 0.01305673 0.3845732
vn -0.8743406 0.2163962 0.4343976
vn -0.6721072 0.1249882 0.7298287
vn -0.0005952048 0.9503834 0.3110802
vn -0.2739791 0.913509 0.3007272
vn -0.2703295 0.799394 0.5365551
vn -0.5264512 0.686233 0.5019297
vn -0.4712906 0.5759861 0.667926
vn -0.9415219 0.3184414 0.1101429
vn -0.7960871 0.5736603 0.1927674
vn -0.7389829 0.4739829 0.4787948
vn -0.2734281 0.960929 0.04304301
vn -0.5295591 0.8482446 0.006961798
vn -0.5534518 0.7905239 0.262227
vn -0.7426012 0.6626037 -0.09746777
vn -0.4766945 0.8576865 -0.1927076
g pm0536_00_TongueBSkin_0
f 3/3/3 2/2/2 1/1/1
f 3/3/3 1/1/1 4/4/4
f 2/2/2 5/5/5 1/1/1
f 6/6/6 5/5/5 2/2/2
f 1/1/1 5/5/5 7/7/7
f 7/7/7 5/5/5 6/6/6
f 8/8/8 6/6/6 2/2/2
f 8/8/8 9/9/9 6/6/6
f 1/1/1 10/10/10 4/4/4
f 4/4/4 10/10/10 11/11/11
f 12/12/12 10/10/10 1/1/1
f 11/11/11 10/10/10 12/12/12
f 13/13/13 4/4/4 11/11/11
f 13/13/13 11/11/11 14/14/14
f 15/15/15 1/1/1 7/7/7
f 15/15/15 12/12/12 1/1/1
f 15/15/15 7/7/7 16/16/16
f 15/15/15 16/16/16 12/12/12
f 9/9/9 17/17/17 6/6/6
f 18/18/18 17/17/17 9/9/9
f 6/6/6 17/17/17 19/19/19
f 19/19/19 17/17/17 18/18/18
f 20/20/20 18/18/18 9/9/9
f 20/20/20 21/21/21 18/18/18
f 22/22/22 7/7/7 6/6/6
f 22/22/22 6/6/6 19/19/19
f 22/22/22 23/23/23 7/7/7
f 22/22/22 19/19/19 23/23/23
f 7/7/7 24/24/24 16/16/16
f 23/23/23 24/24/24 7/7/7
f 16/16/16 24/24/24 25/25/25
f 25/25/25 24/24/24 23/23/23
f 21/21/21 26/26/26 18/18/18
f 27/27/27 26/26/26 21/21/21
f 18/18/18 26/26/26 28/28/28
f 28/28/28 26/26/26 27/27/27
f 29/29/29 27/27/27 21/21/21
f 29/29/29 30/30/30 27/27/27
f 31/31/31 19/19/19 18/18/18
f 31/31/31 18/18/18 28/28/28
f 31/31/31 32/32/32 19/19/19
f 31/31/31 28/28/28 32/32/32
f 19/19/19 33/33/33 23/23/23
f 32/32/32 33/33/33 19/19/19
f 23/23/23 33/33/33 34/34/34
f 34/34/34 33/33/33 32/32/32
f 35/35/35 25/25/25 23/23/23
f 35/35/35 23/23/23 34/34/34
f 35/35/35 34/34/34 25/25/25
f 30/30/30 36/36/36 27/27/27
f 37/37/37 36/36/36 30/30/30
f 27/27/27 36/36/36 38/38/38
f 38/38/38 36/36/36 37/37/37
f 39/39/39 37/37/37 30/30/30
f 39/39/39 40/40/40 37/37/37
f 41/41/41 28/28/28 27/27/27
f 41/41/41 27/27/27 38/38/38
f 41/41/41 42/42/42 28/28/28
f 41/41/41 38/38/38 42/42/42
f 28/28/28 43/43/43 32/32/32
f 42/42/42 43/43/43 28/28/28
f 32/32/32 43/43/43 44/44/44
f 44/44/44 43/43/43 42/42/42
f 45/45/45 34/34/34 32/32/32
f 45/45/45 32/32/32 44/44/44
f 45/45/45 46/46/46 34/34/34
f 45/45/45 44/44/44 46/46/46
f 46/46/46 47/47/47 34/34/34
f 48/48/48 47/47/47 46/46/46
f 34/34/34 47/47/47 25/25/25
f 25/25/25 47/47/47 48/48/48
f 49/49/49 25/25/25 48/48/48
f 49/49/49 48/48/48 50/50/50
f 49/49/49 16/16/16 25/25/25
f 49/49/49 50/50/50 16/16/16
f 50/50/50 51/51/51 16/16/16
f 52/52/52 51/51/51 50/50/50
f 16/16/16 51/51/51 12/12/12
f 12/12/12 51/51/51 52/52/52
f 53/53/53 12/12/12 52/52/52
f 53/53/53 52/52/52 54/54/54
f 53/53/53 11/11/11 12/12/12
f 53/53/53 54/54/54 11/11/11
f 54/54/54 55/55/55 11/11/11
f 56/56/56 55/55/55 54/54/54
f 11/11/11 55/55/55 14/14/14
f 14/14/14 55/55/55 56/56/56
f 57/57/57 14/14/14 56/56/56
f 57/57/57 56/56/56 58/58/58
f 59/59/59 52/52/52 50/50/50
f 59/59/59 50/50/50 60/60/60
f 59/59/59 60/60/60 52/52/52
f 52/52/52 61/61/61 54/54/54
f 60/60/60 61/61/61 52/52/52
f 54/54/54 61/61/61 62/62/62
f 62/62/62 61/61/61 60/60/60
f 63/63/63 56/56/56 54/54/54
f 63/63/63 54/54/54 62/62/62
f 63/63/63 64/64/64 56/56/56
f 63/63/63 62/62/62 64/64/64
f 56/56/56 65/65/65 58/58/58
f 64/64/64 65/65/65 56/56/56
f 58/58/58 65/65/65 66/66/66
f 66/66/66 65/65/65 64/64/64
f 67/67/67 58/58/58 66/66/66
f 67/67/67 66/66/66 40/40/40
f 50/50/50 68/68/68 60/60/60
f 60/60/60 68/68/68 69/69/69
f 48/48/48 68/68/68 50/50/50
f 69/69/69 68/68/68 48/48/48
f 70/70/70 62/62/62 60/60/60
f 70/70/70 60/60/60 69/69/69
f 70/70/70 71/71/71 62/62/62
f 70/70/70 69/69/69 71/71/71
f 62/62/62 72/72/72 64/64/64
f 71/71/71 72/72/72 62/62/62
f 64/64/64 72/72/72 73/73/73
f 73/73/73 72/72/72 71/71/71
f 66/66/66 74/74/74 40/40/40
f 75/75/75 74/74/74 66/66/66
f 40/40/40 74/74/74 37/37/37
f 37/37/37 74/74/74 75/75/75
f 76/76/76 66/66/66 64/64/64
f 76/76/76 64/64/64 73/73/73
f 76/76/76 75/75/75 66/66/66
f 76/76/76 73/73/73 75/75/75
f 77/77/77 69/69/69 48/48/48
f 77/77/77 78/78/78 69/69/69
f 77/77/77 48/48/48 46/46/46
f 77/77/77 46/46/46 78/78/78
f 69/69/69 79/79/79 71/71/71
f 78/78/78 79/79/79 69/69/69
f 71/71/71 79/79/79 80/80/80
f 80/80/80 79/79/79 78/78/78
f 81/81/81 73/73/73 71/71/71
f 81/81/81 71/71/71 80/80/80
f 81/81/81 80/80/80 73/73/73
f 82/82/82 37/37/37 75/75/75
f 82/82/82 75/75/75 83/83/83
f 82/82/82 38/38/38 37/37/37
f 82/82/82 83/83/83 38/38/38
f 73/73/73 84/84/84 75/75/75
f 80/80/80 84/84/84 73/73/73
f 75/75/75 84/84/84 83/83/83
f 83/83/83 84/84/84 80/80/80
f 46/46/46 85/85/85 78/78/78
f 78/78/78 85/85/85 86/86/86
f 44/44/44 85/85/85 46/46/46
f 86/86/86 85/85/85 44/44/44
f 87/87/87 80/80/80 78/78/78
f 87/87/87 83/83/83 80/80/80
f 87/87/87 78/78/78 86/86/86
f 87/87/87 86/86/86 83/83/83
f 83/83/83 88/88/88 38/38/38
f 86/86/86 88/88/88 83/83/83
f 38/38/38 88/88/88 42/42/42
f 42/42/42 88/88/88 86/86/86
f 89/89/89 86/86/86 44/44/44
f 89/89/89 44/44/44 42/42/42
f 89/89/89 42/42/42 86/86/86
