g pm0662_00_CloseBeakSkin
v 1.158382E-31 0.3503257 0.2684249
v 1.158534E-31 0.3513189 0.2693714
v 0.002450698 0.3518543 0.2680286
v 0.002169284 0.3509268 0.2679352
v 0.007274129 0.3536538 0.2507046
v 1.158532E-31 0.3513046 0.2508578
v 1.158481E-31 0.3509718 0.2355812
v 0.009123748 0.3560638 0.2506234
v 0.009768505 0.3571839 0.2505846
v 0.01532929 0.3606071 0.2355502
v 0.01148077 0.3547061 0.2355446
v 1.158312E-31 0.3498775 0.2185269
v 0.01470162 0.3584641 0.2356343
v 0.01522462 0.3546923 0.2185089
v 1.158132E-31 0.3487084 0.2006332
v 0.02094823 0.360022 0.2184991
v 0.02174937 0.362996 0.2184893
v 0.01873072 0.353834 0.2007412
v 1.157857E-31 0.3469215 0.1823465
v 0.02751769 0.3607793 0.2008232
v 0.0284718 0.3647405 0.2008511
v 0.03507872 0.3656469 0.1828711
v 0.03405126 0.3610089 0.1828122
v 0.04146064 0.3660384 0.1623368
v 0.04168117 0.3593923 0.1613693
v 0.03552486 0.3558489 0.1638414
v 0.02134863 0.3522139 0.1825883
v 1.157713E-31 0.3459846 0.1759858
v 0.0228771 0.3504753 0.1712592
v 0.04073764 0.3737315 0.1634774
v 0.04146064 0.3660384 0.1623368
v 0.03507872 0.3656469 0.1828711
v 0.0339761 0.3694196 0.1828776
v 0.03572271 0.3750097 0.1665284
v 0.0284718 0.3647405 0.2008511
v 0.02222547 0.3779707 0.1833308
v 0.02328944 0.3797278 0.1739855
v 0.02741801 0.3677465 0.2007844
v 1.163615E-31 0.3842914 0.1835919
v 1.163813E-31 0.3855797 0.1779546
v 1.163066E-31 0.380732 0.2007673
v 0.01895842 0.3749079 0.2007338
v 1.162363E-31 0.3761676 0.218348
v 0.01509022 0.3709584 0.2183644
v 1.161466E-31 0.3703428 0.2353339
v 0.02094587 0.365319 0.2183731
v 0.02174937 0.362996 0.2184893
v 0.01113149 0.366305 0.2354085
v 1.160475E-31 0.3639148 0.2503354
v 0.01471305 0.3617849 0.2355876
v 0.01532929 0.3606071 0.2355502
v 0.009768505 0.3571839 0.2505846
v 0.00728559 0.3605478 0.250456
v 1.158787E-31 0.3529571 0.2687213
v 0.009461985 0.3579925 0.2506338
v 0.002173954 0.3527542 0.2681192
v 1.158534E-31 0.3513189 0.2693714
v 0.002450698 0.3518543 0.2680286
v 1.158382E-31 0.3503257 0.2684249
v -0.002450698 0.3518543 0.2680286
v 1.158534E-31 0.3513189 0.2693714
v -0.002169284 0.3509268 0.2679352
v -0.007274129 0.3536538 0.2507046
v 1.158532E-31 0.3513046 0.2508578
v 1.158481E-31 0.3509718 0.2355812
v -0.009123748 0.3560638 0.2506234
v -0.009768505 0.3571839 0.2505846
v -0.01532929 0.3606071 0.2355502
v -0.01148077 0.3547061 0.2355446
v 1.158312E-31 0.3498775 0.2185269
v -0.01470162 0.3584641 0.2356343
v -0.01522462 0.3546923 0.2185089
v 1.158132E-31 0.3487084 0.2006332
v -0.02094823 0.360022 0.2184991
v -0.02174937 0.362996 0.2184893
v -0.01873072 0.353834 0.2007412
v 1.157857E-31 0.3469215 0.1823465
v -0.02751769 0.3607793 0.2008232
v -0.0284718 0.3647405 0.2008511
v -0.03507872 0.3656469 0.1828711
v -0.03405126 0.3610089 0.1828122
v -0.04146064 0.3660384 0.1623368
v -0.04168117 0.3593923 0.1613693
v -0.03552486 0.3558489 0.1638414
v -0.02134863 0.3522139 0.1825883
v 1.157713E-31 0.3459846 0.1759858
v -0.0228771 0.3504753 0.1712592
v -0.04073764 0.3737315 0.1634774
v -0.03507872 0.3656469 0.1828711
v -0.04146064 0.3660384 0.1623368
v -0.0339761 0.3694196 0.1828776
v -0.03572271 0.3750097 0.1665284
v -0.0284718 0.3647405 0.2008511
v -0.02222547 0.3779707 0.1833308
v -0.02328944 0.3797278 0.1739855
v -0.02741801 0.3677465 0.2007844
v 1.163615E-31 0.3842914 0.1835919
v 1.163813E-31 0.3855797 0.1779546
v 1.163066E-31 0.380732 0.2007673
v -0.01895842 0.3749079 0.2007338
v 1.162363E-31 0.3761676 0.218348
v -0.01509022 0.3709584 0.2183644
v 1.161466E-31 0.3703428 0.2353339
v -0.02094587 0.365319 0.2183731
v -0.02174937 0.362996 0.2184893
v -0.01113149 0.366305 0.2354085
v 1.160475E-31 0.3639148 0.2503354
v -0.01471305 0.3617849 0.2355876
v -0.01532929 0.3606071 0.2355502
v -0.009768505 0.3571839 0.2505846
v -0.00728559 0.3605478 0.250456
v 1.158787E-31 0.3529571 0.2687213
v -0.009461985 0.3579925 0.2506338
v -0.002173954 0.3527542 0.2681192
v 1.158534E-31 0.3513189 0.2693714
v -0.002450698 0.3518543 0.2680286
vt 0.8429893 0.5
vt 0.8527393 0.500541
vt 0.8484955 0.509737
vt 0.8428787 0.5032172
vt 0.8252603 0.5119743
vt 0.8251515 0.5
vt 0.8091971 0.5
vt 0.8254849 0.5166982
vt 0.8255779 0.5186976
vt 0.8107069 0.530011
vt 0.8095474 0.5189587
vt 0.7914063 0.5
vt 0.8102366 0.5266094
vt 0.7919449 0.5252972
vt 0.772653 0.5
vt 0.7928336 0.53762
vt 0.7936944 0.5423302
vt 0.773436 0.5309736
vt 0.7532205 0.5
vt 0.77444 0.5489132
vt 0.7755195 0.5552822
vt 0.7559206 0.5663581
vt 0.755291 0.5590898
vt 0.735257 0.5772059
vt 0.7321335 0.5680261
vt 0.7346134 0.5570983
vt 0.7544247 0.5346944
vt 0.7463676 0.5
vt 0.7423772 0.5363182
vt 0.6736072 0.3339195
vt 0.67556 0.3221402
vt 0.6962237 0.3360399
vt 0.6949394 0.342028
vt 0.676729 0.3419859
vt 0.7158227 0.3489689
vt 0.6930516 0.3652518
vt 0.6835108 0.3631359
vt 0.714157 0.3537591
vt 0.6910572 0.4023435
vt 0.6846918 0.4023435
vt 0.7099311 0.4023438
vt 0.7115211 0.3711913
vt 0.7287499 0.4023438
vt 0.7301743 0.3779956
vt 0.7467002 0.4023438
vt 0.7325474 0.3657565
vt 0.7339975 0.3623313
vt 0.7479557 0.384832
vt 0.7625113 0.4023437
vt 0.750344 0.3767262
vt 0.7510102 0.3748616
vt 0.765881 0.3849944
vt 0.7641439 0.3907285
vt 0.7836508 0.4023438
vt 0.7655147 0.3861538
vt 0.7831337 0.3991289
vt 0.7926694 0.4022396
vt 0.7919421 0.3978884
vt 0.8429893 0.5
vt 0.8484955 0.509737
vt 0.8527392 0.500541
vt 0.8428787 0.5032172
vt 0.8252603 0.5119743
vt 0.8251515 0.5
vt 0.8091971 0.5
vt 0.8254849 0.5166982
vt 0.8255779 0.5186976
vt 0.8107069 0.530011
vt 0.8095474 0.5189587
vt 0.7914063 0.5
vt 0.8102366 0.5266094
vt 0.7919449 0.5252972
vt 0.772653 0.5
vt 0.7928336 0.53762
vt 0.7936944 0.5423302
vt 0.773436 0.5309736
vt 0.7532205 0.5
vt 0.77444 0.5489132
vt 0.7755195 0.5552822
vt 0.7559206 0.5663581
vt 0.755291 0.5590898
vt 0.735257 0.5772059
vt 0.7321335 0.5680261
vt 0.7346134 0.5570983
vt 0.7544247 0.5346944
vt 0.7463676 0.5
vt 0.7423772 0.5363182
vt 0.6736072 0.3339195
vt 0.6962237 0.3360399
vt 0.67556 0.3221402
vt 0.6949394 0.342028
vt 0.676729 0.3419859
vt 0.7158227 0.3489689
vt 0.6930516 0.3652518
vt 0.6835108 0.3631359
vt 0.714157 0.3537591
vt 0.6910572 0.4023435
vt 0.6846918 0.4023435
vt 0.7099311 0.4023438
vt 0.7115211 0.3711913
vt 0.7287499 0.4023438
vt 0.7301743 0.3779956
vt 0.7467002 0.4023438
vt 0.7325474 0.3657565
vt 0.7339975 0.3623313
vt 0.7479557 0.384832
vt 0.7625113 0.4023437
vt 0.750344 0.3767262
vt 0.7510102 0.3748616
vt 0.765881 0.3849944
vt 0.7641439 0.3907285
vt 0.7836508 0.4023438
vt 0.7655147 0.3861538
vt 0.7831337 0.3991289
vt 0.7926694 0.4022396
vt 0.7919421 0.3978884
vn -0.006916116 -0.4023765 0.9154481
vn -0.006018498 -0.1082504 0.9941053
vn 0.2792607 -0.1030635 0.9546683
vn 0.2695546 -0.3864805 0.8820279
vn 0.2840407 -0.5583768 0.7794461
vn -0.007473557 -0.6213386 0.7835066
vn -0.006748764 -0.7904111 0.6125395
vn 0.4447283 -0.3868429 0.8078176
vn 0.5016788 -0.08415156 0.8609512
vn 0.6846457 -0.05611092 0.7267131
vn 0.3484064 -0.6970211 0.6267174
vn -0.004577211 -0.901399 0.4329653
vn 0.5968547 -0.4331116 0.6754101
vn 0.4013288 -0.7932388 0.4579381
vn -0.002024836 -0.9568093 0.290709
vn 0.7056449 -0.4773907 0.5236061
vn 0.8147774 -0.02634623 0.5791749
vn 0.4210056 -0.8482087 0.3213973
vn -0.0005747689 -0.9727963 0.2316616
vn 0.7596375 -0.5147846 0.3974265
vn 0.8892199 -0.001616168 0.4574771
vn 0.9161164 0.01178861 0.4007388
vn 0.7619362 -0.5546153 0.3344474
vn 0.9227542 0.01679689 0.3850229
vn 0.8253114 -0.4519215 0.3385677
vn 0.6670668 -0.6831656 0.2971643
vn 0.4057352 -0.875815 0.2613942
vn -0.000140651 -0.9745987 0.2239584
vn 0.3672585 -0.8969504 0.2461729
vn 0.7972254 0.4731988 0.3748526
vn 0.9227542 0.01679689 0.3850229
vn 0.9161164 0.01178861 0.4007388
vn 0.7355119 0.5591995 0.3825155
vn 0.6367719 0.6878574 0.3483874
vn 0.8892199 -0.001616168 0.4574771
vn 0.3947206 0.8530111 0.3414204
vn 0.3537915 0.8816258 0.3123579
vn 0.7397563 0.4928154 0.4581415
vn -0.0001268292 0.9467178 0.3220642
vn -2.814567E-05 0.9552014 0.2959563
vn -0.0005002214 0.9110538 0.4122871
vn 0.4124447 0.8042714 0.4278279
vn -0.001294481 0.8176268 0.5757471
vn 0.3938533 0.7104347 0.5832341
vn -0.002278093 0.6580455 0.7529746
vn 0.6911436 0.4110568 0.5944348
vn 0.8147774 -0.02634623 0.5791749
vn 0.3417581 0.5655038 0.7506045
vn -0.003256448 0.4440253 0.8960083
vn 0.5862728 0.3129492 0.7472261
vn 0.6846457 -0.05611092 0.7267131
vn 0.5016788 -0.08415156 0.8609512
vn 0.2782864 0.3830203 0.8808247
vn -0.004553163 0.1958086 0.9806316
vn 0.4368701 0.2171478 0.8729212
vn 0.2645577 0.1880706 0.9458534
vn -0.006018498 -0.1082504 0.9941053
vn 0.2792607 -0.1030635 0.9546683
vn -0.006916116 -0.4023765 0.9154481
vn -0.2877228 -0.09708881 0.9527798
vn -0.006018498 -0.1082504 0.9941053
vn -0.2798436 -0.3760424 0.8833344
vn -0.2952442 -0.5470484 0.7833064
vn -0.007473557 -0.6213386 0.7835066
vn -0.006748764 -0.7904111 0.6125395
vn -0.451248 -0.3739268 0.8102802
vn -0.5052484 -0.07659598 0.8595681
vn -0.6851155 -0.04995282 0.7267197
vn -0.358041 -0.6871647 0.6321481
vn -0.004577211 -0.901399 0.4329653
vn -0.6004654 -0.4219465 0.6792662
vn -0.4076519 -0.7866392 0.4637011
vn -0.002024836 -0.9568093 0.290709
vn -0.7072526 -0.4699235 0.528172
vn -0.8140947 -0.02248837 0.5802966
vn -0.4238312 -0.8454601 0.3249069
vn -0.0005747689 -0.9727963 0.2316616
vn -0.7603129 -0.5115733 0.4002714
vn -0.8887706 3.930984E-06 0.4583523
vn -0.915995 0.01219941 0.401004
vn -0.7621105 -0.5539013 0.3352323
vn -0.9227284 0.01688523 0.3850807
vn -0.8253287 -0.4517538 0.3387491
vn -0.6671302 -0.6830028 0.2973961
vn -0.4065229 -0.8750921 0.2625886
vn -0.000140651 -0.9745987 0.2239584
vn -0.3674443 -0.8967831 0.2465048
vn -0.7972181 0.4732108 0.374853
vn -0.915995 0.01219941 0.401004
vn -0.9227284 0.01688523 0.3850807
vn -0.7354926 0.559225 0.3825153
vn -0.6367747 0.6878569 0.3483831
vn -0.8887706 3.930984E-06 0.4583523
vn -0.3948844 0.8529465 0.3413925
vn -0.3538292 0.881613 0.3123514
vn -0.7396703 0.4929743 0.4581094
vn -0.0001268292 0.9467178 0.3220642
vn -2.814567E-05 0.9552014 0.2959563
vn -0.0005002214 0.9110538 0.4122871
vn -0.4130839 0.8040085 0.4277057
vn -0.001294481 0.8176268 0.5757471
vn -0.3955668 0.7098172 0.5828264
vn -0.002278093 0.6580455 0.7529746
vn -0.6911981 0.4115605 0.594023
vn -0.8140947 -0.02248837 0.5802966
vn -0.3450307 0.5646939 0.7497163
vn -0.003256448 0.4440253 0.8960083
vn -0.5874125 0.3140197 0.7458808
vn -0.6851155 -0.04995282 0.7267197
vn -0.5052484 -0.07659598 0.8595681
vn -0.2832996 0.3826595 0.8793822
vn -0.004553163 0.1958086 0.9806316
vn -0.4403639 0.2188207 0.8707451
vn -0.2711958 0.1893792 0.9437099
vn -0.006018498 -0.1082504 0.9941053
vn -0.2877228 -0.09708881 0.9527798
g pm0662_00_CloseBeakSkin_0
f 3/3/3 2/2/2 1/1/1
f 4/4/4 3/3/3 1/1/1
f 5/5/5 4/4/4 1/1/1
f 6/6/6 5/5/5 1/1/1
f 6/6/6 7/7/7 5/5/5
f 3/3/3 4/4/4 8/8/8
f 8/8/8 4/4/4 5/5/5
f 9/9/9 3/3/3 8/8/8
f 10/10/10 9/9/9 8/8/8
f 7/7/7 11/11/11 5/5/5
f 7/7/7 12/12/12 11/11/11
f 13/13/13 8/8/8 5/5/5
f 13/13/13 10/10/10 8/8/8
f 11/11/11 13/13/13 5/5/5
f 12/12/12 14/14/14 11/11/11
f 13/13/13 11/11/11 14/14/14
f 12/12/12 15/15/15 14/14/14
f 10/10/10 13/13/13 16/16/16
f 16/16/16 13/13/13 14/14/14
f 17/17/17 10/10/10 16/16/16
f 15/15/15 18/18/18 14/14/14
f 16/16/16 14/14/14 18/18/18
f 15/15/15 19/19/19 18/18/18
f 17/17/17 16/16/16 20/20/20
f 20/20/20 16/16/16 18/18/18
f 21/21/21 17/17/17 20/20/20
f 22/22/22 21/21/21 20/20/20
f 23/23/23 22/22/22 20/20/20
f 23/23/23 20/20/20 18/18/18
f 22/22/22 23/23/23 24/24/24
f 23/23/23 25/25/25 24/24/24
f 23/23/23 26/26/26 25/25/25
f 19/19/19 27/27/27 18/18/18
f 27/27/27 23/23/23 18/18/18
f 23/23/23 27/27/27 26/26/26
f 19/19/19 28/28/28 27/27/27
f 27/27/27 29/29/29 26/26/26
f 28/28/28 29/29/29 27/27/27
f 32/32/32 31/31/31 30/30/30
f 33/33/33 32/32/32 30/30/30
f 33/33/33 30/30/30 34/34/34
f 32/32/32 33/33/33 35/35/35
f 33/33/33 34/34/34 36/36/36
f 34/34/34 37/37/37 36/36/36
f 33/33/33 38/38/38 35/35/35
f 33/33/33 36/36/36 38/38/38
f 36/36/36 37/37/37 39/39/39
f 37/37/37 40/40/40 39/39/39
f 36/36/36 39/39/39 41/41/41
f 42/42/42 36/36/36 41/41/41
f 36/36/36 42/42/42 38/38/38
f 42/42/42 41/41/41 43/43/43
f 44/44/44 42/42/42 43/43/43
f 42/42/42 44/44/44 38/38/38
f 44/44/44 43/43/43 45/45/45
f 38/38/38 46/46/46 35/35/35
f 44/44/44 46/46/46 38/38/38
f 46/46/46 47/47/47 35/35/35
f 48/48/48 44/44/44 45/45/45
f 44/44/44 48/48/48 46/46/46
f 48/48/48 45/45/45 49/49/49
f 46/46/46 50/50/50 47/47/47
f 48/48/48 50/50/50 46/46/46
f 50/50/50 51/51/51 47/47/47
f 51/51/51 50/50/50 52/52/52
f 53/53/53 48/48/48 49/49/49
f 53/53/53 49/49/49 54/54/54
f 50/50/50 48/48/48 55/55/55
f 50/50/50 55/55/55 52/52/52
f 48/48/48 53/53/53 55/55/55
f 56/56/56 53/53/53 54/54/54
f 53/53/53 56/56/56 55/55/55
f 55/55/55 56/56/56 52/52/52
f 56/56/56 54/54/54 57/57/57
f 56/56/56 58/58/58 52/52/52
f 58/58/58 56/56/56 57/57/57
f 61/61/61 60/60/60 59/59/59
f 60/60/60 62/62/62 59/59/59
f 62/62/62 63/63/63 59/59/59
f 63/63/63 64/64/64 59/59/59
f 65/65/65 64/64/64 63/63/63
f 62/62/62 60/60/60 66/66/66
f 62/62/62 66/66/66 63/63/63
f 60/60/60 67/67/67 66/66/66
f 67/67/67 68/68/68 66/66/66
f 69/69/69 65/65/65 63/63/63
f 70/70/70 65/65/65 69/69/69
f 66/66/66 71/71/71 63/63/63
f 68/68/68 71/71/71 66/66/66
f 71/71/71 69/69/69 63/63/63
f 72/72/72 70/70/70 69/69/69
f 69/69/69 71/71/71 72/72/72
f 73/73/73 70/70/70 72/72/72
f 71/71/71 68/68/68 74/74/74
f 71/71/71 74/74/74 72/72/72
f 68/68/68 75/75/75 74/74/74
f 76/76/76 73/73/73 72/72/72
f 72/72/72 74/74/74 76/76/76
f 77/77/77 73/73/73 76/76/76
f 74/74/74 75/75/75 78/78/78
f 74/74/74 78/78/78 76/76/76
f 75/75/75 79/79/79 78/78/78
f 79/79/79 80/80/80 78/78/78
f 80/80/80 81/81/81 78/78/78
f 78/78/78 81/81/81 76/76/76
f 81/81/81 80/80/80 82/82/82
f 83/83/83 81/81/81 82/82/82
f 84/84/84 81/81/81 83/83/83
f 85/85/85 77/77/77 76/76/76
f 81/81/81 85/85/85 76/76/76
f 85/85/85 81/81/81 84/84/84
f 86/86/86 77/77/77 85/85/85
f 87/87/87 85/85/85 84/84/84
f 87/87/87 86/86/86 85/85/85
f 90/90/90 89/89/89 88/88/88
f 89/89/89 91/91/91 88/88/88
f 88/88/88 91/91/91 92/92/92
f 91/91/91 89/89/89 93/93/93
f 92/92/92 91/91/91 94/94/94
f 95/95/95 92/92/92 94/94/94
f 96/96/96 91/91/91 93/93/93
f 94/94/94 91/91/91 96/96/96
f 95/95/95 94/94/94 97/97/97
f 98/98/98 95/95/95 97/97/97
f 97/97/97 94/94/94 99/99/99
f 94/94/94 100/100/100 99/99/99
f 100/100/100 94/94/94 96/96/96
f 99/99/99 100/100/100 101/101/101
f 100/100/100 102/102/102 101/101/101
f 102/102/102 100/100/100 96/96/96
f 101/101/101 102/102/102 103/103/103
f 104/104/104 96/96/96 93/93/93
f 104/104/104 102/102/102 96/96/96
f 105/105/105 104/104/104 93/93/93
f 102/102/102 106/106/106 103/103/103
f 106/106/106 102/102/102 104/104/104
f 103/103/103 106/106/106 107/107/107
f 108/108/108 104/104/104 105/105/105
f 108/108/108 106/106/106 104/104/104
f 109/109/109 108/108/108 105/105/105
f 108/108/108 109/109/109 110/110/110
f 106/106/106 111/111/111 107/107/107
f 107/107/107 111/111/111 112/112/112
f 106/106/106 108/108/108 113/113/113
f 113/113/113 108/108/108 110/110/110
f 111/111/111 106/106/106 113/113/113
f 111/111/111 114/114/114 112/112/112
f 114/114/114 111/111/111 113/113/113
f 114/114/114 113/113/113 110/110/110
f 112/112/112 114/114/114 115/115/115
f 116/116/116 114/114/114 110/110/110
f 114/114/114 116/116/116 115/115/115
