g pm0676_15_Eye5Skin
v 0.08771662 0.9767525 0.4838375
v 0.0926016 0.984766 0.4989708
v 0.08503707 0.9860325 0.4932043
v 0.0772412 0.9931043 0.50644
v 0.08518342 0.9921694 0.511712
v 0.06602649 0.9944669 0.524222
v 0.096898 0.9769173 0.4900031
v 0.1016888 0.9704651 0.5054292
v 0.09783388 0.9793388 0.5127824
v 0.1008015 0.9781815 0.472077
v 0.09362517 0.9781737 0.4686041
v 0.1040217 0.9780424 0.4591183
v 0.09957368 0.9786626 0.4556106
v 0.1045718 0.9763742 0.4559868
v 0.1008032 0.9771312 0.4530982
v 0.1046948 0.972537 0.4692127
v 0.1044682 0.9731789 0.456349
v 0.1002437 0.9733199 0.4527129
v 0.1024638 0.9681687 0.4638591
v 0.09641988 0.9672483 0.4607403
v 0.09817064 0.9607846 0.4784383
v 0.09132208 0.9595408 0.473749
v 0.1037137 0.9671075 0.4850453
v 0.09443063 0.9545711 0.4896763
v 0.08692156 0.9526536 0.4852019
v 0.1025897 0.9605929 0.4981303
v 0.08895903 0.946745 0.5037687
v 0.08174052 0.9444437 0.4978381
v 0.09890864 0.9511001 0.5149228
v 0.08110456 0.9353169 0.5214386
v 0.07303123 0.9321922 0.5150846
v 0.07256327 0.922166 0.5391914
v 0.06336531 0.9190274 0.5326941
v 0.09121043 0.9402096 0.5315077
v 0.09294009 0.9508855 0.5412157
v 0.1000703 0.960418 0.5240955
v 0.09563245 0.9729192 0.5318652
v 0.06527711 0.9105313 0.5536746
v 0.05601657 0.9079136 0.5470588
v 0.08012732 0.9265189 0.5480214
v 0.05944459 0.8999901 0.5671114
v 0.05143647 0.8971152 0.5617293
v 0.09270525 0.9840201 0.518906
v 0.08597703 0.9847271 0.5348763
v 0.08702162 0.965255 0.5498919
v 0.07002489 0.9138412 0.5609179
v 0.06618596 0.9238637 0.566906
v 0.08035439 0.9380863 0.5559045
v 0.07572044 0.9532878 0.5627199
v 0.05543916 0.8928708 0.5774786
v 0.04659769 0.8895546 0.5779722
v 0.0539915 0.8939678 0.579596
v 0.04589803 0.8898637 0.5799466
v 0.04548092 0.893562 0.5798064
v 0.06214166 0.9031563 0.5713998
v 0.05444869 0.8967719 0.5802788
v 0.05574755 0.91348 0.5733175
v 0.04260326 0.9139318 0.5702057
v 0.05286725 0.9282675 0.5764266
v 0.03966855 0.9258146 0.5727823
v 0.06237207 0.9396121 0.5718249
v 0.05078977 0.9495058 0.5754092
v 0.03886559 0.9470966 0.5726873
v 0.04342866 0.9718462 0.5633273
v 0.05849988 0.9517945 0.5724201
v 0.06595567 0.9664775 0.5662088
v 0.05609329 0.9716992 0.5666208
v 0.06490492 0.9883993 0.5503139
v 0.05400143 0.9898559 0.546152
v 0.07659296 0.9791438 0.5525669
v 0.07548808 0.993587 0.5299997
v -0.08771864 0.9767558 0.483837
v -0.08505467 0.9860383 0.4931603
v -0.09260184 0.9847737 0.4989674
v -0.07724479 0.9930446 0.5064057
v -0.08519813 0.9919799 0.5116438
v -0.06599205 0.9944465 0.5242634
v -0.09688205 0.9768766 0.4900315
v -0.1016921 0.9704705 0.5054249
v -0.09783117 0.9791616 0.5127648
v -0.1008027 0.9781777 0.4720753
v -0.09362575 0.9781731 0.4686036
v -0.1040247 0.9780341 0.4591148
v -0.09957453 0.9786378 0.4556028
v -0.1045729 0.9763708 0.4559854
v -0.1008031 0.9771309 0.4530981
v -0.1046971 0.9725299 0.4692098
v -0.1044702 0.9731729 0.4563468
v -0.1002474 0.9733114 0.4527096
v -0.1024675 0.9681575 0.4638551
v -0.09642858 0.9672228 0.4607311
v -0.0981758 0.96077 0.4784321
v -0.09133826 0.9594965 0.4737309
v -0.1037171 0.9671023 0.4850413
v -0.09443569 0.9545577 0.4896703
v -0.0869416 0.9525987 0.4851785
v -0.1025936 0.9605929 0.4981258
v -0.08896229 0.9467382 0.5037648
v -0.08176065 0.9443923 0.497815
v -0.0989114 0.9511017 0.5149195
v -0.08110338 0.9353139 0.5214365
v -0.0730473 0.9321662 0.5150667
v -0.07256042 0.9221653 0.5391909
v -0.06337765 0.9190106 0.5326821
v -0.09119883 0.9402088 0.5315062
v -0.09291684 0.9508839 0.5412136
v -0.1000723 0.9604225 0.5240927
v -0.09563314 0.9729164 0.5318629
v -0.06527524 0.910531 0.5536743
v -0.05599087 0.9079242 0.5470561
v -0.08011855 0.9265197 0.5480213
v -0.05944457 0.8999907 0.5671116
v -0.05143582 0.8971172 0.5617303
v -0.09270582 0.9838434 0.5188735
v -0.08597849 0.9846753 0.5348654
v -0.08697318 0.9652639 0.5498905
v -0.07002234 0.9138412 0.5609179
v -0.06618412 0.9238612 0.5669054
v -0.08033252 0.9380794 0.5559063
v -0.07570796 0.9532833 0.5627185
v -0.05543903 0.8928711 0.5774788
v -0.04659737 0.8895556 0.5779728
v -0.05399149 0.8939679 0.579596
v -0.04589775 0.8898646 0.5799471
v -0.04549908 0.8935055 0.5797753
v -0.06214168 0.9031563 0.5713998
v -0.05444948 0.8967695 0.5802774
v -0.05574758 0.9134808 0.5733178
v -0.04260328 0.9139316 0.5702057
v -0.05286602 0.9282688 0.576427
v -0.03966478 0.9258269 0.5727889
v -0.0623694 0.9396111 0.5718246
v -0.05078983 0.9495047 0.5754088
v -0.03886554 0.9470964 0.5726872
v -0.04342854 0.9718454 0.5633268
v -0.05849941 0.9517978 0.5724209
v -0.06595178 0.9664721 0.566215
v -0.05609329 0.9716991 0.5666205
v -0.06483053 0.9883729 0.5504195
v -0.05400325 0.9898419 0.5461468
v -0.07659196 0.979144 0.5525694
v -0.07547278 0.9935137 0.5300012
vt 0.1011883 0.1951133
vt 0.1050748 0.200148
vt 0.1030883 0.2033412
vt 0.1057969 0.214908
vt 0.107452 0.2105828
vt 0.1104734 0.2236478
vt 0.1035457 0.1909917
vt 0.1080106 0.1911276
vt 0.1086854 0.1987393
vt 0.09972209 0.18448
vt 0.09828317 0.1878356
vt 0.09751487 0.1829114
vt 0.09458798 0.182508
vt 0.09688544 0.1784247
vt 0.09463149 0.1773875
vt 0.1000754 0.1795138
vt 0.09777611 0.1747368
vt 0.09569263 0.171053
vt 0.0996865 0.174925
vt 0.09932673 0.1707506
vt 0.1038565 0.1744389
vt 0.1033945 0.1693807
vt 0.1040175 0.1816741
vt 0.1073273 0.1737498
vt 0.1070727 0.1682414
vt 0.107731 0.1826704
vt 0.1117343 0.1731347
vt 0.1113528 0.1671197
vt 0.1125127 0.1829129
vt 0.1172469 0.1733052
vt 0.1172717 0.1667442
vt 0.1226157 0.1754319
vt 0.1230639 0.1683038
vt 0.1172102 0.183
vt 0.1171784 0.1914063
vt 0.1128328 0.1912742
vt 0.1129426 0.1999958
vt 0.1271434 0.1780832
vt 0.1276832 0.1707841
vt 0.1224074 0.1835619
vt 0.1312708 0.1808738
vt 0.1321418 0.1739253
vt 0.1095799 0.2040912
vt 0.1127605 0.2089002
vt 0.1171414 0.2011864
vt 0.1270788 0.1841439
vt 0.1267642 0.1916977
vt 0.1219167 0.1915503
vt 0.1214922 0.2010201
vt 0.1346208 0.1813909
vt 0.1386534 0.1790141
vt 0.1352953 0.1843558
vt 0.1392228 0.1818349
vt 0.1388853 0.1872573
vt 0.1311534 0.1841456
vt 0.1350421 0.1872546
vt 0.1308826 0.1918229
vt 0.1334199 0.1976317
vt 0.1291901 0.2003898
vt 0.1319657 0.2043413
vt 0.1256804 0.2010406
vt 0.1264164 0.2103114
vt 0.128855 0.2150207
vt 0.1237915 0.2244661
vt 0.1248021 0.2078395
vt 0.1215708 0.2106479
vt 0.1225026 0.2181379
vt 0.1170653 0.2213271
vt 0.1170413 0.2276533
vt 0.1171032 0.2113119
vt 0.111554 0.2173913
vt 0.1011881 0.1951132
vt 0.1030881 0.2033409
vt 0.1050747 0.200148
vt 0.1057969 0.2149081
vt 0.107452 0.2105827
vt 0.1104732 0.2236476
vt 0.1035456 0.1909917
vt 0.1080106 0.1911275
vt 0.1086853 0.1987393
vt 0.09972199 0.1844799
vt 0.0982831 0.1878355
vt 0.0975151 0.1829113
vt 0.09458794 0.1825078
vt 0.09688517 0.1784243
vt 0.09463131 0.1773873
vt 0.1000754 0.1795137
vt 0.09777611 0.1747367
vt 0.09569238 0.1710528
vt 0.09968656 0.1749249
vt 0.09932671 0.1707506
vt 0.1038564 0.1744388
vt 0.1033946 0.1693806
vt 0.1040174 0.181674
vt 0.1073273 0.1737498
vt 0.1070727 0.1682412
vt 0.1077309 0.1826703
vt 0.1117343 0.1731347
vt 0.1113529 0.1671197
vt 0.1125126 0.182913
vt 0.1172469 0.1733052
vt 0.1172717 0.1667442
vt 0.1226157 0.1754318
vt 0.1230639 0.1683037
vt 0.1172102 0.183
vt 0.1171785 0.1914063
vt 0.1128327 0.1912741
vt 0.1129424 0.1999956
vt 0.1271434 0.1780831
vt 0.1276832 0.170784
vt 0.1224075 0.1835619
vt 0.1312706 0.1808736
vt 0.1321419 0.1739252
vt 0.10958 0.2040912
vt 0.1127604 0.2089
vt 0.1171415 0.2011862
vt 0.1270788 0.1841439
vt 0.1267641 0.1916978
vt 0.1219168 0.1915503
vt 0.121492 0.20102
vt 0.1346206 0.1813907
vt 0.1386533 0.1790139
vt 0.1352953 0.1843556
vt 0.1392228 0.1818347
vt 0.138885 0.187257
vt 0.1311533 0.1841455
vt 0.135042 0.1872545
vt 0.1308825 0.1918229
vt 0.13342 0.1976317
vt 0.12919 0.2003897
vt 0.1319655 0.2043414
vt 0.1256804 0.2010404
vt 0.1264164 0.2103113
vt 0.128855 0.2150206
vt 0.1237913 0.2244661
vt 0.1248022 0.2078395
vt 0.1215708 0.2106479
vt 0.1225026 0.218138
vt 0.1170653 0.221327
vt 0.1170414 0.2276532
vt 0.1171032 0.2113119
vt 0.111554 0.2173913
vn 0.4920601 0.8588961 -0.1420364
vn 0.6466154 0.7612901 -0.04822665
vn 0.4519422 0.8812488 -0.1383792
vn 0.362212 0.9320413 -0.01007034
vn 0.5158513 0.8538258 0.06984921
vn 0.2377634 0.9397826 0.2455145
vn 0.8020232 0.5924222 -0.07612234
vn 0.9708273 0.2330736 0.05631117
vn 0.8274308 0.5468305 0.127807
vn 0.7185232 0.6881993 -0.100529
vn 0.4726866 0.8711747 -0.1327483
vn 0.6931246 0.6928518 -0.1988338
vn 0.570447 0.7797159 -0.2581341
vn 0.8975115 0.2570545 -0.3583238
vn 0.8037743 0.332336 -0.4934569
vn 0.9729367 0.1030775 -0.2068069
vn 0.8509246 -0.2558471 -0.4587697
vn 0.7770687 -0.2971139 -0.5548761
vn 0.8195726 -0.4588149 -0.3432047
vn 0.6609474 -0.6165788 -0.4277607
vn 0.7652215 -0.5868474 -0.2646624
vn 0.5893945 -0.7356024 -0.3339209
vn 0.9863433 -0.08259634 -0.1424945
vn 0.7201265 -0.6558833 -0.2263517
vn 0.5660415 -0.7706144 -0.2928317
vn 0.9536902 -0.2895724 -0.08138166
vn 0.6901184 -0.6965973 -0.1961858
vn 0.5657629 -0.7776244 -0.2742493
vn 0.9010207 -0.433738 -0.005745448
vn 0.6794246 -0.7147993 -0.1656622
vn 0.5740426 -0.7744707 -0.2658386
vn 0.6873317 -0.7148783 -0.1285465
vn 0.5850039 -0.7693806 -0.2565616
vn 0.856473 -0.509066 0.08547437
vn 0.9103398 -0.14912 0.3860632
vn 0.9761229 -0.009580893 0.2170074
vn 0.8614216 0.3678335 0.3502162
vn 0.7021545 -0.709626 -0.05839565
vn 0.5964174 -0.774355 -0.2113306
vn 0.8299065 -0.5233434 0.1933049
vn 0.6920848 -0.7160209 0.09128351
vn 0.6001276 -0.7976583 -0.0599008
vn 0.6819633 0.7082166 0.1826346
vn 0.6520759 0.6531027 0.3850375
vn 0.788394 0.2143487 0.576619
vn 0.8000848 -0.4968549 0.3361539
vn 0.6678457 -0.1836957 0.7212753
vn 0.8110846 -0.2021108 0.5489017
vn 0.6519526 0.09451886 0.7523456
vn 0.6374961 -0.7104456 0.2981037
vn 0.5702078 -0.7747542 0.2731648
vn 0.5688865 -0.4600933 0.6816762
vn 0.4394778 -0.4996189 0.7464852
vn 0.2060914 -0.1484977 0.9671994
vn 0.7070701 -0.4639259 0.5336896
vn 0.3523453 -0.1581345 0.9224133
vn 0.4002473 -0.1124971 0.909476
vn 0.1036377 -0.01770393 0.9944575
vn 0.2138446 0.05566236 0.9752805
vn 0.0007020052 0.08578555 0.9963134
vn 0.4764383 0.03638029 0.878455
vn 0.128102 0.2480267 0.9602461
vn -0.04484762 0.2811721 0.9586089
vn -0.007760231 0.5654436 0.8247505
vn 0.3403062 0.1984835 0.9191279
vn 0.4336235 0.3389848 0.8349011
vn 0.1678314 0.4994608 0.8499243
vn 0.2788157 0.739458 0.6127509
vn 0.1006525 0.8213353 0.5614958
vn 0.5586908 0.52289 0.6437785
vn 0.4050698 0.8590991 0.3128373
vn -0.4936691 0.8582507 -0.1403444
vn -0.4544334 0.8803696 -0.1357927
vn -0.6476624 0.7605259 -0.04619153
vn -0.3652161 0.9308898 -0.007835936
vn -0.5174987 0.8527117 0.0712596
vn -0.2404532 0.9388887 0.2463135
vn -0.8023744 0.5921271 -0.07470489
vn -0.9706407 0.2336531 0.057122
vn -0.8272258 0.5469772 0.1285052
vn -0.7185535 0.6882746 -0.09979545
vn -0.4732131 0.8710117 -0.1319395
vn -0.6926719 0.6934437 -0.1983471
vn -0.5700501 0.7801911 -0.2575749
vn -0.8973712 0.2582349 -0.3578264
vn -0.8035708 0.3336687 -0.4928886
vn -0.9729915 0.1039939 -0.2060895
vn -0.851597 -0.2544549 -0.458296
vn -0.7780101 -0.295605 -0.5543627
vn -0.8206674 -0.4574112 -0.3424619
vn -0.6627542 -0.6151722 -0.4269895
vn -0.7667288 -0.5854012 -0.2635002
vn -0.5917891 -0.7342414 -0.3326787
vn -0.9865747 -0.08166897 -0.1414234
vn -0.7217607 -0.6545831 -0.2249052
vn -0.5685942 -0.7693739 -0.2911434
vn -0.9540769 -0.2885721 -0.08039565
vn -0.6915446 -0.6956075 -0.1946699
vn -0.5679889 -0.7766504 -0.272402
vn -0.9014062 -0.4329468 -0.004868872
vn -0.6804143 -0.7141515 -0.1643897
vn -0.5755959 -0.7738575 -0.2642612
vn -0.6878217 -0.7145458 -0.1277719
vn -0.585779 -0.7691203 -0.2555716
vn -0.8567321 -0.5085129 0.08616745
vn -0.9103258 -0.1486968 0.3862595
vn -0.9760484 -0.008895215 0.2173718
vn -0.8612802 0.3683669 0.3500033
vn -0.7022583 -0.7095454 -0.05812521
vn -0.5965858 -0.7743272 -0.2109571
vn -0.8300474 -0.5229828 0.1936755
vn -0.6920219 -0.716071 0.09136681
vn -0.6000198 -0.7977444 -0.05983253
vn -0.6822516 0.7078763 0.1828762
vn -0.6525252 0.6530523 0.3843612
vn -0.7884958 0.2146515 0.5763671
vn -0.8001201 -0.4966945 0.3363071
vn -0.6678377 -0.1835769 0.7213131
vn -0.8111271 -0.2018666 0.5489287
vn -0.6521193 0.09458608 0.7521927
vn -0.6373167 -0.7104686 0.2984321
vn -0.569911 -0.7748409 0.2735382
vn -0.5682972 -0.4597433 0.6824034
vn -0.4384894 -0.4991512 0.7473787
vn -0.2046811 -0.1478819 0.9675932
vn -0.7069035 -0.4638233 0.5339994
vn -0.351243 -0.1575951 0.9229259
vn -0.399744 -0.1123388 0.9097168
vn -0.1027481 -0.01752207 0.9945531
vn -0.2136894 0.0556507 0.9753153
vn -0.0003206289 0.08576927 0.9963149
vn -0.4765412 0.03637781 0.8783992
vn -0.128037 0.247973 0.9602686
vn 0.04506559 0.2811321 0.9586104
vn 0.007676347 0.5654082 0.8247755
vn -0.3404324 0.1984088 0.9190972
vn -0.4338818 0.3389507 0.8347808
vn -0.1679624 0.4994302 0.8499166
vn -0.2797533 0.7393299 0.612478
vn -0.1019345 0.8211191 0.5615805
vn -0.5591808 0.5229934 0.6432686
vn -0.4067857 0.858294 0.3128206
g pm0676_15_Eye5Skin_0
f 3/3/3 2/2/2 1/1/1
f 3/3/3 4/4/4 2/2/2
f 4/4/4 5/5/5 2/2/2
f 4/4/4 6/6/6 5/5/5
f 2/2/2 7/7/7 1/1/1
f 8/8/8 7/7/7 2/2/2
f 9/9/9 2/2/2 5/5/5
f 9/9/9 8/8/8 2/2/2
f 7/7/7 10/10/10 1/1/1
f 10/10/10 11/11/11 1/1/1
f 10/10/10 12/12/12 11/11/11
f 12/12/12 13/13/13 11/11/11
f 13/13/13 12/12/12 14/14/14
f 14/14/14 12/12/12 10/10/10
f 15/15/15 13/13/13 14/14/14
f 16/16/16 10/10/10 7/7/7
f 16/16/16 14/14/14 10/10/10
f 15/15/15 14/14/14 17/17/17
f 18/18/18 15/15/15 17/17/17
f 19/19/19 17/17/17 14/14/14
f 18/18/18 17/17/17 19/19/19
f 16/16/16 19/19/19 14/14/14
f 20/20/20 18/18/18 19/19/19
f 20/20/20 19/19/19 21/21/21
f 21/21/21 19/19/19 16/16/16
f 22/22/22 20/20/20 21/21/21
f 23/23/23 16/16/16 7/7/7
f 23/23/23 21/21/21 16/16/16
f 23/23/23 7/7/7 8/8/8
f 21/21/21 24/24/24 22/22/22
f 24/24/24 21/21/21 23/23/23
f 24/24/24 25/25/25 22/22/22
f 26/26/26 24/24/24 23/23/23
f 26/26/26 23/23/23 8/8/8
f 24/24/24 27/27/27 25/25/25
f 24/24/24 26/26/26 27/27/27
f 27/27/27 28/28/28 25/25/25
f 26/26/26 29/29/29 27/27/27
f 26/26/26 8/8/8 29/29/29
f 27/27/27 30/30/30 28/28/28
f 30/30/30 27/27/27 29/29/29
f 30/30/30 31/31/31 28/28/28
f 30/30/30 32/32/32 31/31/31
f 32/32/32 33/33/33 31/31/31
f 34/34/34 30/30/30 29/29/29
f 30/30/30 34/34/34 32/32/32
f 34/34/34 29/29/29 35/35/35
f 8/8/8 36/36/36 29/29/29
f 29/29/29 36/36/36 35/35/35
f 37/37/37 36/36/36 8/8/8
f 35/35/35 36/36/36 37/37/37
f 9/9/9 37/37/37 8/8/8
f 32/32/32 38/38/38 33/33/33
f 38/38/38 39/39/39 33/33/33
f 34/34/34 40/40/40 32/32/32
f 34/34/34 35/35/35 40/40/40
f 38/38/38 32/32/32 40/40/40
f 38/38/38 41/41/41 39/39/39
f 41/41/41 42/42/42 39/39/39
f 9/9/9 43/43/43 37/37/37
f 43/43/43 9/9/9 5/5/5
f 43/43/43 44/44/44 37/37/37
f 43/43/43 5/5/5 44/44/44
f 45/45/45 35/35/35 37/37/37
f 45/45/45 37/37/37 44/44/44
f 46/46/46 38/38/38 40/40/40
f 38/38/38 46/46/46 41/41/41
f 46/46/46 40/40/40 47/47/47
f 35/35/35 48/48/48 40/40/40
f 40/40/40 48/48/48 47/47/47
f 49/49/49 48/48/48 35/35/35
f 45/45/45 49/49/49 35/35/35
f 47/47/47 48/48/48 49/49/49
f 41/41/41 50/50/50 42/42/42
f 50/50/50 51/51/51 42/42/42
f 51/51/51 50/50/50 52/52/52
f 52/52/52 50/50/50 41/41/41
f 53/53/53 51/51/51 52/52/52
f 53/53/53 52/52/52 54/54/54
f 46/46/46 55/55/55 41/41/41
f 55/55/55 52/52/52 41/41/41
f 46/46/46 47/47/47 55/55/55
f 52/52/52 56/56/56 54/54/54
f 56/56/56 52/52/52 55/55/55
f 54/54/54 56/56/56 57/57/57
f 57/57/57 56/56/56 55/55/55
f 47/47/47 57/57/57 55/55/55
f 58/58/58 54/54/54 57/57/57
f 58/58/58 57/57/57 59/59/59
f 59/59/59 57/57/57 47/47/47
f 60/60/60 58/58/58 59/59/59
f 61/61/61 59/59/59 47/47/47
f 61/61/61 47/47/47 49/49/49
f 60/60/60 59/59/59 62/62/62
f 63/63/63 60/60/60 62/62/62
f 63/63/63 62/62/62 64/64/64
f 61/61/61 65/65/65 59/59/59
f 65/65/65 62/62/62 59/59/59
f 65/65/65 61/61/61 66/66/66
f 61/61/61 49/49/49 66/66/66
f 65/65/65 66/66/66 62/62/62
f 62/62/62 67/67/67 64/64/64
f 66/66/66 67/67/67 62/62/62
f 64/64/64 67/67/67 68/68/68
f 68/68/68 67/67/67 66/66/66
f 69/69/69 64/64/64 68/68/68
f 69/69/69 68/68/68 6/6/6
f 70/70/70 66/66/66 49/49/49
f 70/70/70 68/68/68 66/66/66
f 45/45/45 70/70/70 49/49/49
f 70/70/70 45/45/45 44/44/44
f 70/70/70 44/44/44 68/68/68
f 68/68/68 71/71/71 6/6/6
f 44/44/44 71/71/71 68/68/68
f 6/6/6 71/71/71 5/5/5
f 5/5/5 71/71/71 44/44/44
f 74/74/74 73/73/73 72/72/72
f 75/75/75 73/73/73 74/74/74
f 76/76/76 75/75/75 74/74/74
f 77/77/77 75/75/75 76/76/76
f 78/78/78 74/74/74 72/72/72
f 78/78/78 79/79/79 74/74/74
f 74/74/74 80/80/80 76/76/76
f 79/79/79 80/80/80 74/74/74
f 81/81/81 78/78/78 72/72/72
f 82/82/82 81/81/81 72/72/72
f 83/83/83 81/81/81 82/82/82
f 84/84/84 83/83/83 82/82/82
f 83/83/83 84/84/84 85/85/85
f 83/83/83 85/85/85 81/81/81
f 84/84/84 86/86/86 85/85/85
f 81/81/81 87/87/87 78/78/78
f 85/85/85 87/87/87 81/81/81
f 85/85/85 86/86/86 88/88/88
f 86/86/86 89/89/89 88/88/88
f 88/88/88 90/90/90 85/85/85
f 88/88/88 89/89/89 90/90/90
f 90/90/90 87/87/87 85/85/85
f 89/89/89 91/91/91 90/90/90
f 90/90/90 91/91/91 92/92/92
f 90/90/90 92/92/92 87/87/87
f 91/91/91 93/93/93 92/92/92
f 87/87/87 94/94/94 78/78/78
f 92/92/92 94/94/94 87/87/87
f 78/78/78 94/94/94 79/79/79
f 95/95/95 92/92/92 93/93/93
f 92/92/92 95/95/95 94/94/94
f 96/96/96 95/95/95 93/93/93
f 95/95/95 97/97/97 94/94/94
f 94/94/94 97/97/97 79/79/79
f 98/98/98 95/95/95 96/96/96
f 97/97/97 95/95/95 98/98/98
f 99/99/99 98/98/98 96/96/96
f 100/100/100 97/97/97 98/98/98
f 79/79/79 97/97/97 100/100/100
f 101/101/101 98/98/98 99/99/99
f 98/98/98 101/101/101 100/100/100
f 102/102/102 101/101/101 99/99/99
f 103/103/103 101/101/101 102/102/102
f 104/104/104 103/103/103 102/102/102
f 101/101/101 105/105/105 100/100/100
f 105/105/105 101/101/101 103/103/103
f 100/100/100 105/105/105 106/106/106
f 107/107/107 79/79/79 100/100/100
f 107/107/107 100/100/100 106/106/106
f 107/107/107 108/108/108 79/79/79
f 107/107/107 106/106/106 108/108/108
f 108/108/108 80/80/80 79/79/79
f 109/109/109 103/103/103 104/104/104
f 110/110/110 109/109/109 104/104/104
f 111/111/111 105/105/105 103/103/103
f 106/106/106 105/105/105 111/111/111
f 103/103/103 109/109/109 111/111/111
f 112/112/112 109/109/109 110/110/110
f 113/113/113 112/112/112 110/110/110
f 114/114/114 80/80/80 108/108/108
f 80/80/80 114/114/114 76/76/76
f 115/115/115 114/114/114 108/108/108
f 76/76/76 114/114/114 115/115/115
f 106/106/106 116/116/116 108/108/108
f 108/108/108 116/116/116 115/115/115
f 109/109/109 117/117/117 111/111/111
f 117/117/117 109/109/109 112/112/112
f 111/111/111 117/117/117 118/118/118
f 119/119/119 106/106/106 111/111/111
f 119/119/119 111/111/111 118/118/118
f 119/119/119 120/120/120 106/106/106
f 120/120/120 116/116/116 106/106/106
f 119/119/119 118/118/118 120/120/120
f 121/121/121 112/112/112 113/113/113
f 122/122/122 121/121/121 113/113/113
f 121/121/121 122/122/122 123/123/123
f 121/121/121 123/123/123 112/112/112
f 122/122/122 124/124/124 123/123/123
f 123/123/123 124/124/124 125/125/125
f 126/126/126 117/117/117 112/112/112
f 123/123/123 126/126/126 112/112/112
f 118/118/118 117/117/117 126/126/126
f 127/127/127 123/123/123 125/125/125
f 123/123/123 127/127/127 126/126/126
f 127/127/127 125/125/125 128/128/128
f 127/127/127 128/128/128 126/126/126
f 128/128/128 118/118/118 126/126/126
f 125/125/125 129/129/129 128/128/128
f 128/128/128 129/129/129 130/130/130
f 128/128/128 130/130/130 118/118/118
f 129/129/129 131/131/131 130/130/130
f 130/130/130 132/132/132 118/118/118
f 118/118/118 132/132/132 120/120/120
f 130/130/130 131/131/131 133/133/133
f 131/131/131 134/134/134 133/133/133
f 133/133/133 134/134/134 135/135/135
f 136/136/136 132/132/132 130/130/130
f 133/133/133 136/136/136 130/130/130
f 132/132/132 136/136/136 137/137/137
f 120/120/120 132/132/132 137/137/137
f 137/137/137 136/136/136 133/133/133
f 138/138/138 133/133/133 135/135/135
f 138/138/138 137/137/137 133/133/133
f 138/138/138 135/135/135 139/139/139
f 138/138/138 139/139/139 137/137/137
f 135/135/135 140/140/140 139/139/139
f 139/139/139 140/140/140 77/77/77
f 137/137/137 141/141/141 120/120/120
f 139/139/139 141/141/141 137/137/137
f 141/141/141 116/116/116 120/120/120
f 116/116/116 141/141/141 115/115/115
f 115/115/115 141/141/141 139/139/139
f 142/142/142 139/139/139 77/77/77
f 142/142/142 115/115/115 139/139/139
f 142/142/142 77/77/77 76/76/76
f 142/142/142 76/76/76 115/115/115
