g pm0680_00_EyeB1Skin_tz1
v -0.2278799 0.5023735 0.04589225
v -0.2238603 0.4921548 0.04211522
v -0.2323955 0.4978579 0.04211522
v -0.2380985 0.5063931 0.04211522
v -0.220891 0.497346 0.04561704
v -0.2203998 0.5098536 0.04889962
v -0.2329075 0.5093625 0.04561704
v -0.2138007 0.4952751 0.04512678
v -0.2137924 0.4901522 0.04211522
v -0.2037244 0.4921548 0.04211522
v -0.2067188 0.4973664 0.04560754
v -0.2349783 0.5164527 0.04512678
v -0.2401012 0.516461 0.04211522
v -0.2380986 0.526529 0.04211522
v -0.232887 0.5235346 0.04560754
v -0.2261938 0.5164428 0.04835357
v -0.2203724 0.5230411 0.04889117
v -0.2278457 0.5305144 0.04587695
v -0.2323955 0.5350642 0.04211522
v -0.2238604 0.5407671 0.04211522
v -0.2208659 0.5355557 0.04560755
v -0.199739 0.5024077 0.04587695
v -0.2072123 0.509881 0.04889117
v -0.1951892 0.4978579 0.04211522
v -0.1894863 0.506393 0.04211522
v -0.1946977 0.5093876 0.04560755
v -0.213784 0.5376471 0.0451268
v -0.2137924 0.5427698 0.04211522
v -0.2037244 0.5407671 0.04211522
v -0.2066938 0.5355762 0.04561704
v -0.2137741 0.5288625 0.04835357
v -0.2071849 0.5230685 0.04889962
v -0.1997048 0.5305486 0.04589225
v -0.1951893 0.5350642 0.04211522
v -0.1894862 0.5265289 0.04211522
v -0.1946772 0.5235597 0.04561704
v -0.2137924 0.5164611 0.0495263
v -0.1926063 0.5164694 0.0451268
v -0.1874836 0.516461 0.04211522
v -0.2013909 0.5164793 0.04835357
v -0.2138106 0.5040596 0.04835357
vt 0.3457482 2.953127
vt 0.3302047 2.937388
vt 0.3239393 2.953127
vt 0.3302047 2.968864
vt 0.3498695 2.940195
vt 0.3783958 2.953127
vt 0.3498693 2.966057
vt 0.3604782 2.930261
vt 0.3480134 2.924006
vt 0.3747878 2.915115
vt 0.3803735 2.924985
vt 0.3604782 2.975992
vt 0.3480134 2.982244
vt 0.3747878 2.991136
vt 0.3803735 2.981268
vt 0.3800638 2.96618
vt 0.40625 2.966999
vt 0.40625 2.983305
vt 0.40625 2.994261
vt 0.4377117 2.991136
vt 0.4321263 2.981268
vt 0.40625 2.922945
vt 0.40625 2.939254
vt 0.40625 2.911991
vt 0.4377122 2.915115
vt 0.4321263 2.924985
vt 0.4520218 2.975992
vt 0.4644861 2.982246
vt 0.4822953 2.968864
vt 0.4626307 2.966057
vt 0.4324365 2.96618
vt 0.4341049 2.953127
vt 0.4667521 2.953127
vt 0.4885607 2.953126
vt 0.4822953 2.937388
vt 0.4626305 2.940195
vt 0.40625 2.953127
vt 0.4520223 2.930262
vt 0.4644866 2.924006
vt 0.4324365 2.940071
vt 0.3800638 2.940071
vn -0.2433089 -0.2433083 0.9389366
vn -0.155877 -0.4078058 0.8996648
vn -0.3009802 -0.3009794 0.9048879
vn -0.4078077 -0.1558767 0.899664
vn -0.1103916 -0.3545033 0.9285156
vn -0.1293662 -0.1293659 0.9831219
vn -0.354505 -0.1103914 0.9285148
vn 0.0002515479 -0.4171431 0.9088407
vn 3.527157E-05 -0.451577 0.8922322
vn 0.1554974 -0.4066153 0.9002692
vn 0.1105975 -0.3537317 0.9287852
vn -0.4171454 0.0002516689 0.9088398
vn -0.4515795 3.539278E-05 0.8922309
vn -0.406617 0.1554972 0.9002685
vn -0.3537333 0.1105973 0.9287847
vn -0.2529704 0.0002537148 0.967474
vn -0.1294544 0.1294544 0.9830987
vn -0.2426744 0.2426746 0.9392646
vn -0.2997525 0.2997533 0.9057022
vn -0.1554978 0.4066207 0.9002667
vn -0.1105981 0.3537355 0.9287838
vn 0.2426747 -0.2426739 0.9392647
vn 0.1294545 -0.1294543 0.9830988
vn 0.2997533 -0.2997518 0.9057024
vn 0.4066196 -0.1554977 0.9002672
vn 0.353735 -0.1105981 0.928784
vn -0.0002516691 0.4171501 0.9088376
vn -3.490797E-05 0.4515855 0.8922279
vn 0.1558796 0.4078142 0.8996606
vn 0.1103932 0.3545092 0.9285131
vn -0.0002536538 0.2529718 0.9674736
vn 0.1293671 0.129367 0.9831217
vn 0.2433117 0.243312 0.9389348
vn 0.3009846 0.3009851 0.9048846
vn 0.4078121 0.1558795 0.8996615
vn 0.354508 0.1103929 0.9285136
vn 0 0 1
vn 0.4171484 -0.0002518504 0.9088383
vn 0.4515834 -3.521099E-05 0.892229
vn 0.2529714 -0.0002535315 0.9674737
vn 0.0002535925 -0.2529694 0.9674742
g pm0680_00_EyeB1Skin_tz1_0
f 3/3/3 2/2/2 1/1/1
f 3/3/3 1/1/1 4/4/4
f 2/2/2 5/5/5 1/1/1
f 1/1/1 5/5/5 6/6/6
f 1/1/1 7/7/7 4/4/4
f 1/1/1 6/6/6 7/7/7
f 8/8/8 5/5/5 2/2/2
f 9/9/9 8/8/8 2/2/2
f 9/9/9 10/10/10 8/8/8
f 8/8/8 11/11/11 5/5/5
f 10/10/10 11/11/11 8/8/8
f 4/4/4 7/7/7 12/12/12
f 13/13/13 4/4/4 12/12/12
f 13/13/13 12/12/12 14/14/14
f 12/12/12 7/7/7 15/15/15
f 12/12/12 15/15/15 14/14/14
f 6/6/6 16/16/16 7/7/7
f 7/7/7 16/16/16 15/15/15
f 15/15/15 16/16/16 17/17/17
f 17/17/17 16/16/16 6/6/6
f 14/14/14 15/15/15 18/18/18
f 18/18/18 15/15/15 17/17/17
f 19/19/19 14/14/14 18/18/18
f 19/19/19 18/18/18 20/20/20
f 18/18/18 21/21/21 20/20/20
f 18/18/18 17/17/17 21/21/21
f 22/22/22 11/11/11 10/10/10
f 22/22/22 23/23/23 11/11/11
f 24/24/24 22/22/22 10/10/10
f 24/24/24 25/25/25 22/22/22
f 25/25/25 26/26/26 22/22/22
f 22/22/22 26/26/26 23/23/23
f 20/20/20 21/21/21 27/27/27
f 28/28/28 20/20/20 27/27/27
f 28/28/28 27/27/27 29/29/29
f 27/27/27 21/21/21 30/30/30
f 27/27/27 30/30/30 29/29/29
f 17/17/17 31/31/31 21/21/21
f 21/21/21 31/31/31 30/30/30
f 32/32/32 31/31/31 17/17/17
f 30/30/30 31/31/31 32/32/32
f 29/29/29 30/30/30 33/33/33
f 33/33/33 30/30/30 32/32/32
f 34/34/34 29/29/29 33/33/33
f 34/34/34 33/33/33 35/35/35
f 33/33/33 36/36/36 35/35/35
f 33/33/33 32/32/32 36/36/36
f 37/37/37 32/32/32 17/17/17
f 37/37/37 17/17/17 6/6/6
f 37/37/37 23/23/23 32/32/32
f 37/37/37 6/6/6 23/23/23
f 35/35/35 36/36/36 38/38/38
f 39/39/39 35/35/35 38/38/38
f 39/39/39 38/38/38 25/25/25
f 38/38/38 26/26/26 25/25/25
f 38/38/38 36/36/36 26/26/26
f 32/32/32 40/40/40 36/36/36
f 36/36/36 40/40/40 26/26/26
f 23/23/23 40/40/40 32/32/32
f 26/26/26 40/40/40 23/23/23
f 6/6/6 41/41/41 23/23/23
f 23/23/23 41/41/41 11/11/11
f 5/5/5 41/41/41 6/6/6
f 11/11/11 41/41/41 5/5/5
