g pm0607_00_HeadASkin
v -0.07344631 0.2354196 -0.0001045489
v -0.07765747 0.2290536 0.03260227
v -0.08336475 0.2309333 -0.0003373146
v -0.07755886 0.2319763 -0.03346958
v -0.06866539 0.2336853 0.02956074
v -0.05451534 0.2319842 0.05376787
v -0.0491608 0.2399381 0.0254204
v -0.06085754 0.2274787 0.0597364
v -0.03334061 0.2277018 0.07630448
v -0.0686214 0.236173 -0.02998707
v -0.05435112 0.2366275 -0.05454123
v -0.04911175 0.2421455 -0.02527367
v -0.0606572 0.2326867 -0.0609782
v -0.03312317 0.2341937 -0.07775744
v -0.05207184 0.2418201 0.0001432443
v -0.02754974 0.2459777 -9.518623E-05
v -0.0300135 0.2322586 0.06785775
v -2.689361E-05 0.2326691 0.07255462
v -0.02533378 0.2391447 0.04875373
v -7.480621E-05 0.2280143 0.08195487
v 0.03323254 0.2277665 0.07630448
v -0.04274379 0.2379378 0.0424731
v -0.02669361 0.2437264 0.02688463
v -0.04256012 0.2416042 -0.04242142
v -0.02538082 0.2431861 -0.04893313
v -0.02664039 0.2459974 -0.02634235
v -0.02987202 0.2381031 -0.06871034
v 7.74765E-05 0.2388955 -0.07349073
v 6.179809E-05 0.2341386 -0.08387826
v 0.03324665 0.2342441 -0.07775741
v 6.198883E-05 0.2450897 0.02848757
v 2.861023E-05 0.2398482 0.05194747
v 0.02540279 0.2391674 0.04875709
v 0.02999306 0.2323013 0.06786374
v 0.05458008 0.2320718 0.05377578
v 0.06085411 0.2276149 0.0597364
v 0.0777763 0.2292345 0.03260227
v 0.03002571 0.2381382 -0.06871065
v 0.05451305 0.2367036 -0.05454174
v 0.02555653 0.2432077 -0.04893375
v 0.06077911 0.2327982 -0.0609782
v 0.07771942 0.2321376 -0.03346959
v 8.640289E-05 0.2441533 -0.05179531
v 8.808136E-05 0.2474571 -0.02784752
v 0.06884021 0.233791 0.02957039
v 0.07365204 0.2355381 -0.0001049662
v 0.04932026 0.2399899 0.02542473
v 0.08354488 0.2311201 -0.0003373122
v 0.04284908 0.2379898 0.04247266
v 0.06881477 0.2362781 -0.02998819
v 0.04930599 0.2421935 -0.02527469
v 0.04274273 0.2416465 -0.04242224
v 0.02683071 0.2437468 0.02688788
v 0.05226879 0.2418709 0.000143106
v 0.02772041 0.2459991 -9.517908E-05
v 0.02682259 0.2460161 -0.02634335
v 0.009141464 0.2472169 0.008971946
v 0.01220058 0.2474162 -6.470919E-05
v 0.009164237 0.2477585 -0.009102103
v 8.720397E-05 0.248005 -0.01212475
v 7.709503E-05 0.2470062 0.01200092
v -0.008990517 0.2477533 -0.009102108
v -0.008981476 0.2472115 0.008971974
v -0.01203075 0.247409 -6.495714E-05
v 0.003368568 0.2480773 -0.003328369
v 0.004461784 0.2479334 -5.624771E-05
v 0.0002399921 0.2480574 0.0004655242
v 8.712769E-05 0.2481805 -0.004453988
v 0.003366509 0.2478665 0.003213582
v -0.003194618 0.2480756 -0.003328369
v 8.361816E-05 0.2477816 0.004302589
v -0.004289627 0.2479298 -5.625248E-05
v -0.003197288 0.2478647 0.003213582
vt 0.3278706 0.6688554
vt 0.3338881 0.6206972
vt 0.3176459 0.6692681
vt 0.3341687 0.7181231
vt 0.3426472 0.6227146
vt 0.3863807 0.5850633
vt 0.4029297 0.6291543
vt 0.3816991 0.5806867
vt 0.46001 0.5562566
vt 0.3427827 0.7153344
vt 0.3868883 0.7535262
vt 0.4030814 0.7080035
vt 0.3822692 0.7586862
vt 0.460629 0.783428
vt 0.3939327 0.6684704
vt 0.4697236 0.6688412
vt 0.4621092 0.563148
vt 0.5547888 0.5558424
vt 0.4765725 0.592862
vt 0.5546813 0.5479245
vt 0.6494705 0.5562564
vt 0.4227628 0.6026312
vt 0.4723696 0.6268772
vt 0.423331 0.7346749
vt 0.476427 0.7448031
vt 0.4725343 0.7096656
vt 0.4625465 0.7755647
vt 0.5551113 0.7829998
vt 0.5550696 0.7924532
vt 0.6495106 0.7834276
vt 0.5550638 0.6243838
vt 0.5549608 0.5878946
vt 0.6333848 0.5928567
vt 0.647572 0.5631386
vt 0.7235636 0.5850507
vt 0.7280791 0.5806867
vt 0.7762383 0.6206974
vt 0.6476731 0.7755651
vt 0.7233561 0.7535267
vt 0.6338602 0.7448041
vt 0.7278657 0.7586862
vt 0.7760766 0.7181231
vt 0.5551392 0.7492548
vt 0.5551441 0.7120068
vt 0.7676377 0.6226995
vt 0.7825104 0.6688563
vt 0.7073072 0.6291475
vt 0.7926551 0.6692681
vt 0.6873064 0.6026316
vt 0.7675592 0.7153364
vt 0.7072628 0.7080053
vt 0.6869779 0.7346762
vt 0.6377981 0.6268718
vt 0.7164196 0.6684705
vt 0.6405482 0.6688411
vt 0.6377736 0.7096671
vt 0.5831256 0.6547383
vt 0.5925809 0.6687937
vt 0.5831962 0.6828505
vt 0.5551413 0.6875519
vt 0.5551103 0.6500272
vt 0.5270851 0.6828505
vt 0.5271128 0.6547383
vt 0.5176882 0.668794
vt 0.5652839 0.67387
vt 0.568662 0.6687807
vt 0.5556136 0.6679688
vt 0.5551416 0.6756207
vt 0.5652777 0.6636946
vt 0.5449988 0.6738702
vt 0.5551304 0.6620011
vt 0.5416141 0.6687807
vt 0.5449899 0.6636946
vn -0.3019426 0.952438 0.04114024
vn -0.3178988 0.932119 0.1734785
vn -0.3414051 0.9390305 0.04079638
vn -0.3163851 0.9440901 -0.09270591
vn -0.2825958 0.9451512 0.1637952
vn -0.2263069 0.9380415 0.2624182
vn -0.209222 0.9666392 0.1477662
vn -0.2477098 0.9265513 0.2830947
vn -0.1361704 0.9258035 0.3526268
vn -0.2812451 0.9561402 -0.08183544
vn -0.2244602 0.9572948 -0.1822204
vn -0.2083918 0.975893 -0.06485231
vn -0.2456503 0.9473848 -0.2052266
vn -0.1346785 0.9508852 -0.2787093
vn -0.2221681 0.9741353 0.04125203
vn -0.1289665 0.9908193 0.04055589
vn -0.1260822 0.9395162 0.3184533
vn -0.0008975731 0.9409887 0.3384369
vn -0.1097774 0.9629629 0.2462751
vn -0.001017255 0.9263293 0.3767135
vn 0.1339013 0.9260649 0.3528091
vn -0.1908596 0.9548089 0.2278434
vn -0.1034276 0.9846345 0.1407043
vn -0.1894873 0.9710541 -0.1454252
vn -0.1089948 0.9803143 -0.1646332
vn -0.1033629 0.9929196 -0.05853726
vn -0.1248139 0.9624597 -0.2410246
vn -0.0007361661 0.9649725 -0.2623498
vn -0.000829285 0.9524745 -0.3046172
vn 0.1327833 0.9511882 -0.278585
vn -0.0005613432 0.9862304 0.1653761
vn -0.0007348201 0.9656971 0.2596702
vn 0.108107 0.9631204 0.246398
vn 0.1240612 0.93973 0.3186164
vn 0.2238066 0.9385668 0.2626842
vn 0.2449315 0.9271972 0.2833971
vn 0.3147092 0.9331456 0.1737739
vn 0.1231196 0.9627069 -0.2409087
vn 0.2222586 0.9578366 -0.1820723
vn 0.1075604 0.9804872 -0.1645468
vn 0.2431982 0.9480515 -0.2050683
vn 0.3133859 0.9451048 -0.09255411
vn -0.0006199157 0.9839725 -0.1783191
vn -0.0004969522 0.9965705 -0.0827476
vn 0.2797641 0.9459501 0.1640436
vn 0.2990423 0.9533452 0.04131208
vn 0.2070776 0.9670747 0.1479367
vn 0.3381222 0.9402086 0.04100199
vn 0.1887518 0.9551789 0.2280482
vn 0.2785913 0.9569283 -0.08170097
vn 0.2063933 0.9763244 -0.06474874
vn 0.1876264 0.9714343 -0.1452991
vn 0.1020908 0.9847617 0.14079
vn 0.2200299 0.9746153 0.04137557
vn 0.1276708 0.9909844 0.04062182
vn 0.1021421 0.9930489 -0.05848736
vn 0.05069878 0.9949223 0.08694305
vn 0.06906597 0.9968476 0.03904735
vn 0.05133635 0.9986519 -0.007684583
vn -0.0002705375 0.9997184 -0.02373036
vn -0.0003110105 0.9945793 0.1039804
vn -0.0519258 0.9986213 -0.007678761
vn -0.05134919 0.9948925 0.08690345
vn -0.06968866 0.9968052 0.03902383
vn 0.02307898 0.9995595 0.0186582
vn 0.03161841 0.9987686 0.03822929
vn -5.247917E-05 0.9992606 0.03844616
vn -8.377984E-05 0.9999348 0.01142117
vn 0.02248589 0.9980281 0.0586026
vn -0.02325084 0.9995552 0.01867558
vn -0.0001085084 0.9977797 0.0666017
vn -0.03180176 0.9987626 0.03823322
vn -0.02269483 0.9980245 0.05858511
g pm0607_00_HeadASkin_0
f 3/3/3 2/2/2 1/1/1
f 3/3/3 1/1/1 4/4/4
f 2/2/2 5/5/5 1/1/1
f 6/6/6 5/5/5 2/2/2
f 1/1/1 5/5/5 7/7/7
f 7/7/7 5/5/5 6/6/6
f 8/8/8 6/6/6 2/2/2
f 8/8/8 9/9/9 6/6/6
f 1/1/1 10/10/10 4/4/4
f 4/4/4 10/10/10 11/11/11
f 12/12/12 10/10/10 1/1/1
f 11/11/11 10/10/10 12/12/12
f 13/13/13 4/4/4 11/11/11
f 13/13/13 11/11/11 14/14/14
f 15/15/15 1/1/1 7/7/7
f 15/15/15 12/12/12 1/1/1
f 15/15/15 7/7/7 16/16/16
f 15/15/15 16/16/16 12/12/12
f 9/9/9 17/17/17 6/6/6
f 18/18/18 17/17/17 9/9/9
f 6/6/6 17/17/17 19/19/19
f 19/19/19 17/17/17 18/18/18
f 20/20/20 18/18/18 9/9/9
f 20/20/20 21/21/21 18/18/18
f 22/22/22 7/7/7 6/6/6
f 22/22/22 6/6/6 19/19/19
f 22/22/22 19/19/19 7/7/7
f 7/7/7 23/23/23 16/16/16
f 19/19/19 23/23/23 7/7/7
f 24/24/24 11/11/11 12/12/12
f 24/24/24 12/12/12 25/25/25
f 24/24/24 25/25/25 11/11/11
f 16/16/16 26/26/26 12/12/12
f 12/12/12 26/26/26 25/25/25
f 25/25/25 27/27/27 11/11/11
f 28/28/28 27/27/27 25/25/25
f 11/11/11 27/27/27 14/14/14
f 14/14/14 27/27/27 28/28/28
f 29/29/29 14/14/14 28/28/28
f 29/29/29 28/28/28 30/30/30
f 31/31/31 23/23/23 19/19/19
f 32/32/32 31/31/31 19/19/19
f 32/32/32 33/33/33 31/31/31
f 32/32/32 19/19/19 18/18/18
f 32/32/32 18/18/18 33/33/33
f 18/18/18 34/34/34 33/33/33
f 33/33/33 34/34/34 35/35/35
f 21/21/21 34/34/34 18/18/18
f 35/35/35 34/34/34 21/21/21
f 36/36/36 35/35/35 21/21/21
f 36/36/36 37/37/37 35/35/35
f 28/28/28 38/38/38 30/30/30
f 30/30/30 38/38/38 39/39/39
f 40/40/40 38/38/38 28/28/28
f 39/39/39 38/38/38 40/40/40
f 41/41/41 30/30/30 39/39/39
f 41/41/41 39/39/39 42/42/42
f 43/43/43 40/40/40 28/28/28
f 43/43/43 28/28/28 25/25/25
f 43/43/43 25/25/25 44/44/44
f 43/43/43 44/44/44 40/40/40
f 25/25/25 26/26/26 44/44/44
f 37/37/37 45/45/45 35/35/35
f 46/46/46 45/45/45 37/37/37
f 35/35/35 45/45/45 47/47/47
f 47/47/47 45/45/45 46/46/46
f 48/48/48 46/46/46 37/37/37
f 48/48/48 42/42/42 46/46/46
f 49/49/49 35/35/35 47/47/47
f 49/49/49 33/33/33 35/35/35
f 49/49/49 47/47/47 33/33/33
f 42/42/42 50/50/50 46/46/46
f 46/46/46 50/50/50 51/51/51
f 39/39/39 50/50/50 42/42/42
f 51/51/51 50/50/50 39/39/39
f 52/52/52 51/51/51 39/39/39
f 52/52/52 39/39/39 40/40/40
f 52/52/52 40/40/40 51/51/51
f 47/47/47 53/53/53 33/33/33
f 33/33/33 53/53/53 31/31/31
f 54/54/54 47/47/47 46/46/46
f 54/54/54 46/46/46 51/51/51
f 54/54/54 55/55/55 47/47/47
f 54/54/54 51/51/51 55/55/55
f 55/55/55 53/53/53 47/47/47
f 40/40/40 56/56/56 51/51/51
f 51/51/51 56/56/56 55/55/55
f 44/44/44 56/56/56 40/40/40
f 31/31/31 53/53/53 57/57/57
f 53/53/53 55/55/55 58/58/58
f 57/57/57 53/53/53 58/58/58
f 55/55/55 56/56/56 59/59/59
f 58/58/58 55/55/55 59/59/59
f 56/56/56 44/44/44 60/60/60
f 59/59/59 56/56/56 60/60/60
f 61/61/61 31/31/31 57/57/57
f 23/23/23 31/31/31 61/61/61
f 60/60/60 44/44/44 62/62/62
f 44/44/44 26/26/26 62/62/62
f 63/63/63 23/23/23 61/61/61
f 16/16/16 23/23/23 63/63/63
f 26/26/26 16/16/16 64/64/64
f 62/62/62 26/26/26 64/64/64
f 64/64/64 16/16/16 63/63/63
f 58/58/58 59/59/59 65/65/65
f 57/57/57 58/58/58 66/66/66
f 66/66/66 58/58/58 65/65/65
f 65/65/65 67/67/67 66/66/66
f 65/65/65 59/59/59 68/68/68
f 59/59/59 60/60/60 68/68/68
f 65/65/65 68/68/68 67/67/67
f 69/69/69 57/57/57 66/66/66
f 61/61/61 57/57/57 69/69/69
f 69/69/69 66/66/66 67/67/67
f 68/68/68 60/60/60 70/70/70
f 60/60/60 62/62/62 70/70/70
f 70/70/70 67/67/67 68/68/68
f 71/71/71 61/61/61 69/69/69
f 63/63/63 61/61/61 71/71/71
f 69/69/69 67/67/67 71/71/71
f 70/70/70 62/62/62 72/72/72
f 62/62/62 64/64/64 72/72/72
f 70/70/70 72/72/72 67/67/67
f 73/73/73 63/63/63 71/71/71
f 64/64/64 63/63/63 73/73/73
f 73/73/73 71/71/71 67/67/67
f 73/73/73 67/67/67 72/72/72
f 72/72/72 64/64/64 73/73/73
