g pm0676_17_Eye7Skin
v 0.08994325 0.9648984 0.4751304
v 0.09791204 0.9750628 0.4882056
v 0.09028538 0.9771722 0.4827065
v 0.082988 0.9885061 0.4950173
v 0.09125714 0.9866523 0.5000903
v 0.07393788 0.9931464 0.5121816
v 0.09930588 0.9636408 0.4805778
v 0.1052669 0.9585838 0.497919
v 0.1035492 0.9705721 0.5033379
v 0.1021307 0.9614543 0.4627503
v 0.09509084 0.9624787 0.4596272
v 0.1054703 0.9590012 0.450299
v 0.1012598 0.9598066 0.4466973
v 0.1057948 0.9567299 0.4476328
v 0.1022418 0.9576523 0.4445996
v 0.1059119 0.9544854 0.4611344
v 0.1051932 0.9535655 0.4486285
v 0.1010955 0.9537408 0.4449669
v 0.1022989 0.9496219 0.4567996
v 0.09623218 0.9490839 0.4537973
v 0.0976697 0.9435783 0.4728489
v 0.09067824 0.9427568 0.4683328
v 0.105292 0.9504119 0.4779953
v 0.09401854 0.9384767 0.4862399
v 0.08623751 0.9370293 0.4821145
v 0.1044297 0.9455705 0.4933095
v 0.08775471 0.9329574 0.503778
v 0.07994632 0.9307089 0.4981695
v 0.09950365 0.9389458 0.5140151
v 0.07899918 0.9272797 0.5257642
v 0.07042433 0.9239369 0.5201479
v 0.07030369 0.9229768 0.5471343
v 0.06044127 0.9195198 0.5412899
v 0.09122021 0.9329461 0.5345389
v 0.0958434 0.9452989 0.5402334
v 0.1035318 0.9512005 0.520232
v 0.1020759 0.9669989 0.5242553
v 0.06123817 0.9203732 0.5640458
v 0.05097272 0.9176723 0.5578578
v 0.07970142 0.9280574 0.5545967
v 0.05294018 0.9180397 0.5796583
v 0.04275987 0.9156955 0.5744178
v 0.09971627 0.9775887 0.5086706
v 0.09424514 0.9815013 0.5240397
v 0.0934529 0.9629506 0.5435925
v 0.0669783 0.9248222 0.5698297
v 0.06584752 0.9365852 0.5711537
v 0.08239708 0.9406527 0.5581222
v 0.08049206 0.9568894 0.5594505
v 0.04490536 0.9172432 0.590377
v 0.0352985 0.916863 0.5911537
v 0.04358266 0.9194867 0.5916701
v 0.03474931 0.9181378 0.5927431
v 0.03541812 0.9213565 0.5910833
v 0.05510057 0.922042 0.5819801
v 0.04373444 0.9217378 0.5911725
v 0.05170942 0.9329913 0.5788975
v 0.03906737 0.935218 0.5743489
v 0.05231936 0.9467276 0.5759096
v 0.03976978 0.9464815 0.5723422
v 0.0651863 0.9518918 0.5701475
v 0.05557173 0.9638409 0.5694928
v 0.0432647 0.9634811 0.5663859
v 0.05046298 0.9802656 0.5533068
v 0.06350445 0.9629115 0.5671851
v 0.07267302 0.9718056 0.5586452
v 0.06133988 0.9790079 0.557161
v 0.07155063 0.9899341 0.5383135
v 0.06230511 0.9917413 0.5339889
v 0.08478842 0.9793547 0.5423259
v 0.08348858 0.9915584 0.5176374
v -0.08996328 0.9649097 0.4751407
v -0.09029229 0.9771761 0.4827101
v -0.09791785 0.9750661 0.4882085
v -0.08299752 0.9885097 0.4950206
v -0.09126409 0.9866552 0.5000929
v -0.07394163 0.9931484 0.5121835
v -0.09931127 0.9636437 0.4805804
v -0.1052634 0.9585838 0.497919
v -0.1035462 0.970573 0.5033387
v -0.1021687 0.9614812 0.4627701
v -0.09513598 0.9625046 0.4596509
v -0.1054704 0.9590013 0.4502991
v -0.1012607 0.9598071 0.4466977
v -0.1057951 0.95673 0.4476329
v -0.1022419 0.9576523 0.4445996
v -0.1059123 0.9544871 0.4611343
v -0.1051933 0.9535656 0.4486286
v -0.1010958 0.9537408 0.4449669
v -0.1022987 0.9496257 0.4567994
v -0.09623215 0.9490854 0.4537972
v -0.09766879 0.9435888 0.472848
v -0.09067745 0.9427668 0.4683319
v -0.1052915 0.9504178 0.4779948
v -0.09401714 0.9384921 0.4862385
v -0.08623618 0.9370447 0.4821132
v -0.1044292 0.9455757 0.4933091
v -0.08775445 0.9329745 0.5037765
v -0.07994474 0.9307263 0.4981679
v -0.0995037 0.9389458 0.5140151
v -0.07900663 0.9272797 0.5257641
v -0.07042935 0.9239369 0.5201479
v -0.07031121 0.9229768 0.5471343
v -0.06044582 0.9195198 0.5412899
v -0.09122897 0.9329461 0.5345389
v -0.09584335 0.9452989 0.5402334
v -0.1035163 0.9511988 0.5202304
v -0.1020575 0.9669983 0.5242547
v -0.06123816 0.9203732 0.5640458
v -0.05097272 0.9176723 0.5578578
v -0.07971242 0.9280574 0.5545967
v -0.05294018 0.9180397 0.5796583
v -0.04275987 0.9156955 0.5744178
v -0.09971562 0.97759 0.5086718
v -0.09424538 0.9815018 0.5240401
v -0.0934233 0.9629515 0.5435933
v -0.06697829 0.9248222 0.5698297
v -0.06584868 0.9365852 0.5711537
v -0.08241282 0.9406527 0.5581222
v -0.08049217 0.9568895 0.5594506
v -0.04490536 0.9172432 0.590377
v -0.0352985 0.916863 0.5911537
v -0.0435831 0.9194867 0.5916701
v -0.03474931 0.9181378 0.5927431
v -0.03542153 0.9213565 0.5910833
v -0.05510056 0.922042 0.5819801
v -0.04373653 0.9217378 0.5911726
v -0.05170906 0.9329913 0.5788975
v -0.03906721 0.935218 0.5743489
v -0.05231901 0.9467276 0.5759096
v -0.03976927 0.9464815 0.5723422
v -0.06518664 0.9518918 0.5701475
v -0.05556744 0.9638409 0.5694928
v -0.04325714 0.9634811 0.5663859
v -0.05046129 0.9802656 0.5533068
v -0.06350459 0.9629115 0.5671851
v -0.07267297 0.9718056 0.5586452
v -0.06133986 0.9790079 0.557161
v -0.07155306 0.9899355 0.5383148
v -0.06230511 0.9917413 0.5339889
v -0.08479269 0.9793572 0.5423282
v -0.08349127 0.9915599 0.5176389
vt 0.1558849 0.1951132
vt 0.1597713 0.2001479
vt 0.1577848 0.203341
vt 0.1604936 0.2149079
vt 0.1621487 0.2105826
vt 0.16517 0.2236476
vt 0.1582423 0.1909917
vt 0.1627073 0.1911275
vt 0.1633819 0.1987391
vt 0.1544187 0.1844799
vt 0.1529798 0.1878355
vt 0.1500468 0.1830359
vt 0.147127 0.1826333
vt 0.1494185 0.1785602
vt 0.1471702 0.1775254
vt 0.154772 0.1795137
vt 0.1503073 0.1748812
vt 0.1482289 0.1712061
vt 0.1543832 0.1749249
vt 0.1540233 0.1707506
vt 0.1585531 0.1744388
vt 0.1580911 0.1693805
vt 0.1587141 0.1816739
vt 0.162024 0.1737497
vt 0.1617693 0.1682412
vt 0.1624277 0.1826702
vt 0.166431 0.1731347
vt 0.1660494 0.1671197
vt 0.1672093 0.1829129
vt 0.1719434 0.1733053
vt 0.1719682 0.1667441
vt 0.1773124 0.1754318
vt 0.1777605 0.1683036
vt 0.1719068 0.1829999
vt 0.171875 0.1914063
vt 0.1675294 0.1912741
vt 0.1676392 0.1999956
vt 0.1818401 0.1780831
vt 0.1823798 0.1707841
vt 0.1771041 0.1835618
vt 0.1858376 0.1789275
vt 0.1868384 0.1739252
vt 0.1642765 0.2040912
vt 0.1674572 0.2089
vt 0.171838 0.2011863
vt 0.1817755 0.1841439
vt 0.1814608 0.1916976
vt 0.1766132 0.1915503
vt 0.1761888 0.2010201
vt 0.1897548 0.1799667
vt 0.1922984 0.1777796
vt 0.1903756 0.1826951
vt 0.1933562 0.1822449
vt 0.1925113 0.1897266
vt 0.18585 0.1841457
vt 0.1901426 0.1897241
vt 0.1855792 0.1918228
vt 0.1881166 0.1976317
vt 0.1838867 0.2003897
vt 0.1866623 0.2043413
vt 0.1803771 0.2010405
vt 0.181113 0.2103112
vt 0.1835517 0.2150206
vt 0.178488 0.224466
vt 0.1794989 0.2078394
vt 0.1762674 0.2106479
vt 0.1771992 0.2181379
vt 0.1717619 0.221327
vt 0.1717379 0.2276531
vt 0.1717997 0.2113118
vt 0.1662506 0.2173912
vt 0.1558849 0.1951131
vt 0.1577849 0.203341
vt 0.1597712 0.2001478
vt 0.1604936 0.2149079
vt 0.1621487 0.2105826
vt 0.1651699 0.2236476
vt 0.1582423 0.1909917
vt 0.1627073 0.1911275
vt 0.1633819 0.1987391
vt 0.1544188 0.1844798
vt 0.1529799 0.1878355
vt 0.1500469 0.1830359
vt 0.1471268 0.1826333
vt 0.1494189 0.1785599
vt 0.1471705 0.1775252
vt 0.1547719 0.1795137
vt 0.1503074 0.1748814
vt 0.1482291 0.171206
vt 0.1543833 0.1749249
vt 0.1540234 0.1707505
vt 0.1585531 0.1744389
vt 0.1580912 0.1693806
vt 0.1587142 0.1816739
vt 0.1620239 0.1737497
vt 0.1617693 0.1682412
vt 0.1624276 0.1826702
vt 0.1664309 0.1731347
vt 0.1660494 0.1671196
vt 0.1672094 0.1829129
vt 0.1719435 0.1733053
vt 0.1719683 0.166744
vt 0.1773123 0.1754318
vt 0.1777605 0.1683036
vt 0.1719068 0.1829999
vt 0.171875 0.1914063
vt 0.1675294 0.191274
vt 0.1676391 0.1999956
vt 0.1818402 0.1780831
vt 0.1823798 0.170784
vt 0.1771039 0.1835618
vt 0.1858376 0.1789273
vt 0.1868384 0.1739252
vt 0.1642766 0.204091
vt 0.1674571 0.2089
vt 0.171838 0.2011862
vt 0.1817754 0.1841438
vt 0.1814609 0.1916976
vt 0.1766133 0.1915503
vt 0.1761888 0.20102
vt 0.1897549 0.1799666
vt 0.1922982 0.1777792
vt 0.1903758 0.182695
vt 0.1933562 0.1822447
vt 0.1925112 0.1897265
vt 0.1858501 0.1841456
vt 0.1901426 0.189724
vt 0.1855792 0.1918228
vt 0.1881165 0.1976316
vt 0.1838867 0.2003896
vt 0.1866623 0.2043413
vt 0.1803772 0.2010405
vt 0.1811131 0.2103112
vt 0.1835517 0.2150205
vt 0.178488 0.2244659
vt 0.1794989 0.2078394
vt 0.1762674 0.2106479
vt 0.1771992 0.2181378
vt 0.1717619 0.2213269
vt 0.1717379 0.227653
vt 0.1717998 0.2113118
vt 0.1662506 0.2173912
vn 0.6877613 0.6684811 -0.2830502
vn 0.7734249 0.6106121 -0.1701958
vn 0.6292648 0.7348936 -0.2528974
vn 0.5344155 0.8362087 -0.1231061
vn 0.6542246 0.7542903 -0.05510222
vn 0.403517 0.9070305 0.1202897
vn 0.8960333 0.3917167 -0.2090033
vn 0.9963122 0.08186026 -0.02570566
vn 0.9044002 0.4265605 0.0103159
vn 0.8460998 0.4638388 -0.2626189
vn 0.6908081 0.6598312 -0.295647
vn 0.8259663 0.455685 -0.3318598
vn 0.7544196 0.5359503 -0.3789568
vn 0.9131581 0.04214725 -0.4054206
vn 0.861735 0.09092181 -0.4991452
vn 0.9534695 -0.07435722 -0.2921765
vn 0.8162766 -0.3898636 -0.4262614
vn 0.7608046 -0.4319414 -0.4843583
vn 0.7686913 -0.5502723 -0.3260584
vn 0.6274583 -0.6892198 -0.362315
vn 0.7072023 -0.6680592 -0.2314343
vn 0.5426863 -0.7989253 -0.2592486
vn 0.950804 -0.234286 -0.2026863
vn 0.6518742 -0.7445853 -0.14371
vn 0.4986536 -0.8480331 -0.1794003
vn 0.9054133 -0.4173939 -0.07751872
vn 0.6037825 -0.7957911 -0.04651072
vn 0.4711254 -0.8763276 -0.1004533
vn 0.8395745 -0.5385107 0.0715617
vn 0.5618327 -0.8248391 0.06312451
vn 0.4458251 -0.8949879 -0.01538284
vn 0.5274292 -0.8290363 0.1857879
vn 0.4202164 -0.9039377 0.07946571
vn 0.7690725 -0.5927988 0.2389919
vn 0.8858012 -0.1801713 0.4276616
vn 0.9753679 -0.1029533 0.1950847
vn 0.9144449 0.3111831 0.258758
vn 0.4972096 -0.8007764 0.3339755
vn 0.3972017 -0.8945891 0.2047955
vn 0.6992999 -0.5792429 0.4188763
vn 0.4528615 -0.7224418 0.5224887
vn 0.3738043 -0.8360884 0.4015303
vn 0.7832422 0.6196142 0.0510879
vn 0.7416512 0.6194779 0.2572948
vn 0.8156903 0.2431718 0.5248969
vn 0.6186246 -0.4954506 0.6097805
vn 0.570304 -0.05366126 0.8196791
vn 0.7495055 -0.1625526 0.6417307
vn 0.6425981 0.2154039 0.7353019
vn 0.3968406 -0.6006527 0.6940705
vn 0.3420082 -0.6499016 0.6787182
vn 0.376895 -0.2487529 0.8922287
vn 0.2837525 -0.2269061 0.9316642
vn 0.1735031 0.1614365 0.9715117
vn 0.4954746 -0.3512591 0.7944319
vn 0.2719526 0.1046831 0.9565998
vn 0.3235625 0.1326549 0.9368618
vn 0.1161444 0.3073203 0.9444917
vn 0.2069299 0.3487229 0.9140965
vn 0.04643178 0.4263635 0.9033594
vn 0.4402311 0.2452239 0.8637488
vn 0.1674529 0.5100258 0.843702
vn 0.03522067 0.5689362 0.8216272
vn 0.1098018 0.7414006 0.6620187
vn 0.3434989 0.4198355 0.8400874
vn 0.464556 0.4920351 0.7362671
vn 0.2475834 0.6675171 0.7022274
vn 0.3909986 0.7940536 0.465402
vn 0.2475006 0.8770794 0.4116737
vn 0.6233286 0.5781908 0.526457
vn 0.5387221 0.8230894 0.1797285
vn -0.6881641 0.6681269 -0.2829075
vn -0.6295385 0.7347415 -0.2526583
vn -0.7736736 0.6103759 -0.1699129
vn -0.534587 0.8361286 -0.1229055
vn -0.6544204 0.7541373 -0.05487134
vn -0.4036065 0.9069736 0.1204191
vn -0.8963001 0.3912209 -0.2087875
vn -0.9963371 0.08163334 -0.02546439
vn -0.9045144 0.4263115 0.01059544
vn -0.8465399 0.4629666 -0.26274
vn -0.6913494 0.6591933 -0.2958043
vn -0.826391 0.4546648 -0.3322015
vn -0.7548684 0.5350763 -0.3792979
vn -0.9131543 0.04122953 -0.4055235
vn -0.8617591 0.09012163 -0.4992488
vn -0.953421 -0.07520225 -0.2921181
vn -0.8161038 -0.3903514 -0.426146
vn -0.7606784 -0.4323091 -0.4842285
vn -0.7684976 -0.5506568 -0.3258658
vn -0.6273308 -0.6894401 -0.3621163
vn -0.7070305 -0.6683075 -0.2312428
vn -0.5425581 -0.7990668 -0.2590809
vn -0.9507218 -0.2348029 -0.2024739
vn -0.6517609 -0.7446951 -0.1436556
vn -0.4985546 -0.8480982 -0.1793676
vn -0.90534 -0.4175779 -0.0773828
vn -0.6037542 -0.7958066 -0.04661145
vn -0.4710843 -0.876337 -0.1005632
vn -0.8395881 -0.5384919 0.07154099
vn -0.561856 -0.8248338 0.06298384
vn -0.4458217 -0.894987 -0.01553076
vn -0.5274338 -0.8290488 0.185719
vn -0.4202048 -0.9039506 0.07938036
vn -0.769156 -0.592723 0.2389111
vn -0.885852 -0.1800237 0.4276188
vn -0.9753556 -0.1029289 0.1951594
vn -0.9144605 0.311035 0.2588806
vn -0.4971818 -0.8007956 0.3339712
vn -0.3971748 -0.8946059 0.2047739
vn -0.6993524 -0.579196 0.4188533
vn -0.4528343 -0.7224559 0.5224926
vn -0.3737813 -0.8360998 0.4015277
vn -0.7834142 0.6193758 0.05133856
vn -0.7417749 0.6192659 0.2574487
vn -0.8157166 0.2431629 0.5248601
vn -0.6186105 -0.4954381 0.609805
vn -0.5702925 -0.05359529 0.8196914
vn -0.7495527 -0.1624198 0.6417091
vn -0.6426322 0.2154619 0.7352551
vn -0.396827 -0.6006671 0.6940656
vn -0.3419966 -0.6499139 0.6787121
vn -0.3768855 -0.2487726 0.8922274
vn -0.2837487 -0.2269265 0.9316603
vn -0.1735008 0.1614187 0.9715151
vn -0.4954478 -0.3512683 0.7944446
vn -0.2719463 0.1046681 0.9566033
vn -0.3235427 0.1326599 0.9368678
vn -0.1161362 0.3073096 0.9444963
vn -0.2069163 0.3487296 0.914097
vn -0.04642338 0.4263552 0.9033638
vn -0.440228 0.245267 0.863738
vn -0.1674501 0.5100172 0.8437079
vn -0.0352142 0.5689232 0.8216364
vn -0.1098044 0.7413783 0.6620432
vn -0.3435081 0.4198388 0.8400819
vn -0.4646042 0.4920069 0.7362555
vn -0.2476078 0.6674863 0.702248
vn -0.3910694 0.7939798 0.4654686
vn -0.2475321 0.8770405 0.4117375
vn -0.6234158 0.578071 0.5264854
vn -0.5388527 0.822971 0.1798788
g pm0676_17_Eye7Skin_0
f 3/3/3 2/2/2 1/1/1
f 3/3/3 4/4/4 2/2/2
f 4/4/4 5/5/5 2/2/2
f 4/4/4 6/6/6 5/5/5
f 2/2/2 7/7/7 1/1/1
f 8/8/8 7/7/7 2/2/2
f 9/9/9 2/2/2 5/5/5
f 9/9/9 8/8/8 2/2/2
f 7/7/7 10/10/10 1/1/1
f 10/10/10 11/11/11 1/1/1
f 10/10/10 12/12/12 11/11/11
f 12/12/12 13/13/13 11/11/11
f 13/13/13 12/12/12 14/14/14
f 14/14/14 12/12/12 10/10/10
f 15/15/15 13/13/13 14/14/14
f 16/16/16 10/10/10 7/7/7
f 16/16/16 14/14/14 10/10/10
f 15/15/15 14/14/14 17/17/17
f 18/18/18 15/15/15 17/17/17
f 19/19/19 17/17/17 14/14/14
f 18/18/18 17/17/17 19/19/19
f 16/16/16 19/19/19 14/14/14
f 20/20/20 18/18/18 19/19/19
f 20/20/20 19/19/19 21/21/21
f 21/21/21 19/19/19 16/16/16
f 22/22/22 20/20/20 21/21/21
f 23/23/23 16/16/16 7/7/7
f 23/23/23 21/21/21 16/16/16
f 23/23/23 7/7/7 8/8/8
f 21/21/21 24/24/24 22/22/22
f 24/24/24 21/21/21 23/23/23
f 24/24/24 25/25/25 22/22/22
f 26/26/26 24/24/24 23/23/23
f 26/26/26 23/23/23 8/8/8
f 24/24/24 27/27/27 25/25/25
f 24/24/24 26/26/26 27/27/27
f 27/27/27 28/28/28 25/25/25
f 26/26/26 29/29/29 27/27/27
f 26/26/26 8/8/8 29/29/29
f 27/27/27 30/30/30 28/28/28
f 30/30/30 27/27/27 29/29/29
f 30/30/30 31/31/31 28/28/28
f 30/30/30 32/32/32 31/31/31
f 32/32/32 33/33/33 31/31/31
f 34/34/34 30/30/30 29/29/29
f 30/30/30 34/34/34 32/32/32
f 34/34/34 29/29/29 35/35/35
f 8/8/8 36/36/36 29/29/29
f 29/29/29 36/36/36 35/35/35
f 37/37/37 36/36/36 8/8/8
f 35/35/35 36/36/36 37/37/37
f 9/9/9 37/37/37 8/8/8
f 32/32/32 38/38/38 33/33/33
f 38/38/38 39/39/39 33/33/33
f 34/34/34 40/40/40 32/32/32
f 34/34/34 35/35/35 40/40/40
f 38/38/38 32/32/32 40/40/40
f 38/38/38 41/41/41 39/39/39
f 41/41/41 42/42/42 39/39/39
f 9/9/9 43/43/43 37/37/37
f 43/43/43 9/9/9 5/5/5
f 43/43/43 44/44/44 37/37/37
f 43/43/43 5/5/5 44/44/44
f 45/45/45 35/35/35 37/37/37
f 45/45/45 37/37/37 44/44/44
f 46/46/46 38/38/38 40/40/40
f 38/38/38 46/46/46 41/41/41
f 46/46/46 40/40/40 47/47/47
f 35/35/35 48/48/48 40/40/40
f 40/40/40 48/48/48 47/47/47
f 49/49/49 48/48/48 35/35/35
f 45/45/45 49/49/49 35/35/35
f 47/47/47 48/48/48 49/49/49
f 41/41/41 50/50/50 42/42/42
f 50/50/50 51/51/51 42/42/42
f 51/51/51 50/50/50 52/52/52
f 52/52/52 50/50/50 41/41/41
f 53/53/53 51/51/51 52/52/52
f 53/53/53 52/52/52 54/54/54
f 46/46/46 55/55/55 41/41/41
f 55/55/55 52/52/52 41/41/41
f 46/46/46 47/47/47 55/55/55
f 52/52/52 56/56/56 54/54/54
f 56/56/56 52/52/52 55/55/55
f 54/54/54 56/56/56 57/57/57
f 57/57/57 56/56/56 55/55/55
f 47/47/47 57/57/57 55/55/55
f 58/58/58 54/54/54 57/57/57
f 58/58/58 57/57/57 59/59/59
f 59/59/59 57/57/57 47/47/47
f 60/60/60 58/58/58 59/59/59
f 61/61/61 59/59/59 47/47/47
f 61/61/61 47/47/47 49/49/49
f 60/60/60 59/59/59 62/62/62
f 63/63/63 60/60/60 62/62/62
f 63/63/63 62/62/62 64/64/64
f 61/61/61 65/65/65 59/59/59
f 65/65/65 62/62/62 59/59/59
f 65/65/65 61/61/61 66/66/66
f 61/61/61 49/49/49 66/66/66
f 65/65/65 66/66/66 62/62/62
f 62/62/62 67/67/67 64/64/64
f 66/66/66 67/67/67 62/62/62
f 64/64/64 67/67/67 68/68/68
f 68/68/68 67/67/67 66/66/66
f 69/69/69 64/64/64 68/68/68
f 69/69/69 68/68/68 6/6/6
f 70/70/70 66/66/66 49/49/49
f 70/70/70 68/68/68 66/66/66
f 45/45/45 70/70/70 49/49/49
f 70/70/70 45/45/45 44/44/44
f 70/70/70 44/44/44 68/68/68
f 68/68/68 71/71/71 6/6/6
f 44/44/44 71/71/71 68/68/68
f 6/6/6 71/71/71 5/5/5
f 5/5/5 71/71/71 44/44/44
f 74/74/74 73/73/73 72/72/72
f 75/75/75 73/73/73 74/74/74
f 76/76/76 75/75/75 74/74/74
f 77/77/77 75/75/75 76/76/76
f 78/78/78 74/74/74 72/72/72
f 78/78/78 79/79/79 74/74/74
f 74/74/74 80/80/80 76/76/76
f 79/79/79 80/80/80 74/74/74
f 81/81/81 78/78/78 72/72/72
f 82/82/82 81/81/81 72/72/72
f 83/83/83 81/81/81 82/82/82
f 84/84/84 83/83/83 82/82/82
f 83/83/83 84/84/84 85/85/85
f 83/83/83 85/85/85 81/81/81
f 84/84/84 86/86/86 85/85/85
f 81/81/81 87/87/87 78/78/78
f 85/85/85 87/87/87 81/81/81
f 85/85/85 86/86/86 88/88/88
f 86/86/86 89/89/89 88/88/88
f 88/88/88 90/90/90 85/85/85
f 88/88/88 89/89/89 90/90/90
f 90/90/90 87/87/87 85/85/85
f 89/89/89 91/91/91 90/90/90
f 90/90/90 91/91/91 92/92/92
f 90/90/90 92/92/92 87/87/87
f 91/91/91 93/93/93 92/92/92
f 87/87/87 94/94/94 78/78/78
f 92/92/92 94/94/94 87/87/87
f 78/78/78 94/94/94 79/79/79
f 95/95/95 92/92/92 93/93/93
f 92/92/92 95/95/95 94/94/94
f 96/96/96 95/95/95 93/93/93
f 95/95/95 97/97/97 94/94/94
f 94/94/94 97/97/97 79/79/79
f 98/98/98 95/95/95 96/96/96
f 97/97/97 95/95/95 98/98/98
f 99/99/99 98/98/98 96/96/96
f 100/100/100 97/97/97 98/98/98
f 79/79/79 97/97/97 100/100/100
f 101/101/101 98/98/98 99/99/99
f 98/98/98 101/101/101 100/100/100
f 102/102/102 101/101/101 99/99/99
f 103/103/103 101/101/101 102/102/102
f 104/104/104 103/103/103 102/102/102
f 101/101/101 105/105/105 100/100/100
f 105/105/105 101/101/101 103/103/103
f 100/100/100 105/105/105 106/106/106
f 107/107/107 79/79/79 100/100/100
f 107/107/107 100/100/100 106/106/106
f 107/107/107 108/108/108 79/79/79
f 107/107/107 106/106/106 108/108/108
f 108/108/108 80/80/80 79/79/79
f 109/109/109 103/103/103 104/104/104
f 110/110/110 109/109/109 104/104/104
f 111/111/111 105/105/105 103/103/103
f 106/106/106 105/105/105 111/111/111
f 103/103/103 109/109/109 111/111/111
f 112/112/112 109/109/109 110/110/110
f 113/113/113 112/112/112 110/110/110
f 114/114/114 80/80/80 108/108/108
f 80/80/80 114/114/114 76/76/76
f 115/115/115 114/114/114 108/108/108
f 76/76/76 114/114/114 115/115/115
f 106/106/106 116/116/116 108/108/108
f 108/108/108 116/116/116 115/115/115
f 109/109/109 117/117/117 111/111/111
f 117/117/117 109/109/109 112/112/112
f 111/111/111 117/117/117 118/118/118
f 119/119/119 106/106/106 111/111/111
f 119/119/119 111/111/111 118/118/118
f 119/119/119 120/120/120 106/106/106
f 120/120/120 116/116/116 106/106/106
f 119/119/119 118/118/118 120/120/120
f 121/121/121 112/112/112 113/113/113
f 122/122/122 121/121/121 113/113/113
f 121/121/121 122/122/122 123/123/123
f 121/121/121 123/123/123 112/112/112
f 122/122/122 124/124/124 123/123/123
f 123/123/123 124/124/124 125/125/125
f 126/126/126 117/117/117 112/112/112
f 123/123/123 126/126/126 112/112/112
f 118/118/118 117/117/117 126/126/126
f 127/127/127 123/123/123 125/125/125
f 123/123/123 127/127/127 126/126/126
f 127/127/127 125/125/125 128/128/128
f 127/127/127 128/128/128 126/126/126
f 128/128/128 118/118/118 126/126/126
f 125/125/125 129/129/129 128/128/128
f 128/128/128 129/129/129 130/130/130
f 128/128/128 130/130/130 118/118/118
f 129/129/129 131/131/131 130/130/130
f 130/130/130 132/132/132 118/118/118
f 118/118/118 132/132/132 120/120/120
f 130/130/130 131/131/131 133/133/133
f 131/131/131 134/134/134 133/133/133
f 133/133/133 134/134/134 135/135/135
f 136/136/136 132/132/132 130/130/130
f 133/133/133 136/136/136 130/130/130
f 132/132/132 136/136/136 137/137/137
f 120/120/120 132/132/132 137/137/137
f 137/137/137 136/136/136 133/133/133
f 138/138/138 133/133/133 135/135/135
f 138/138/138 137/137/137 133/133/133
f 138/138/138 135/135/135 139/139/139
f 138/138/138 139/139/139 137/137/137
f 135/135/135 140/140/140 139/139/139
f 139/139/139 140/140/140 77/77/77
f 137/137/137 141/141/141 120/120/120
f 139/139/139 141/141/141 137/137/137
f 141/141/141 116/116/116 120/120/120
f 116/116/116 141/141/141 115/115/115
f 115/115/115 141/141/141 139/139/139
f 142/142/142 139/139/139 77/77/77
f 142/142/142 115/115/115 139/139/139
f 142/142/142 77/77/77 76/76/76
f 142/142/142 76/76/76 115/115/115
