g pm0631_00_TongueBSkin
v -0.02411499 1.336898 0.5651367
v -0.03410375 1.361052 0.5651367
v -0.03700315 1.361052 0.596268
v -0.02435257 1.361056 0.5333604
v -0.02616517 1.334848 0.596268
v -2.153192E-31 1.326909 0.5651367
v -0.0371737 1.361052 0.6271268
v -0.01721987 1.343793 0.5333604
v -0.02628578 1.334727 0.6271268
v -0.03349239 1.361052 0.6536728
v -0.00179951 1.359214 0.503287
v -0.002544894 1.361052 0.503287
v -1.578983E-31 1.361052 0.5016246
v -1.588472E-31 1.358468 0.503287
v -2.611247E-31 1.32401 0.596268
v -0.02368269 1.337364 0.6536728
v -0.02769768 1.361052 0.6784729
v -1.91841E-31 1.336661 0.5333604
v 0.00179951 1.359214 0.503287
v 0.002544894 1.361052 0.503287
v 0.02435257 1.361056 0.5333604
v 0.01721987 1.343793 0.5333604
v 0.02411499 1.336898 0.5651367
v 0.03410375 1.361052 0.5651367
v 0.03700315 1.361052 0.596268
v 0.02616517 1.334848 0.596268
v 0.0371737 1.361052 0.6271268
v 0.02628578 1.334727 0.6271268
v 0.03349239 1.361052 0.6536728
v -2.863342E-31 1.32384 0.6271268
v 0.02368269 1.337364 0.6536728
v 0.02769768 1.361052 0.6784729
v -3.144059E-31 1.327554 0.6536728
v 0.01958521 1.34144 0.6784729
v 0.02191056 1.361053 0.6999857
v -0.01958521 1.34144 0.6784729
v -0.02191056 1.361053 0.6999857
v -3.441793E-31 1.333327 0.6784729
v 0.0154931 1.345522 0.6999857
v 0.0168438 1.361053 0.7181767
v -0.0154931 1.345522 0.6999857
v -0.0168438 1.361053 0.7181767
v 0.01191037 1.349103 0.7181767
v 0.01197448 1.361052 0.7352708
v -3.659374E-31 1.339104 0.6999857
v -0.01191037 1.349103 0.7181767
v -0.01197448 1.361052 0.7352708
v 0.008467236 1.352546 0.7352708
v 0.007974258 1.361052 0.7507636
v -3.80052E-31 1.344169 0.7181767
v -0.008467236 1.352546 0.7352708
v -0.007974258 1.361052 0.7507636
v -4.13805E-31 1.349039 0.7352708
v 0.005638653 1.355374 0.7507636
v -0.005638653 1.355374 0.7507636
v 0.003122082 1.357891 0.7662422
v -4.477785E-31 1.356598 0.7662422
v 0.004415289 1.361052 0.7662422
v 0.001059804 1.361052 0.7817801
v -4.324056E-31 1.353039 0.7507636
v -0.003122082 1.357891 0.7662422
v -0.004415289 1.361052 0.7662422
v -0.001059804 1.361052 0.7817801
v 0.0007493967 1.360264 0.7817801
v -4.653185E-31 1.361052 0.7829365
v -0.0007493967 1.360264 0.7817801
v -4.654069E-31 1.359953 0.7817801
v -0.002544894 1.361052 0.503287
v -0.01721987 1.378233 0.5333604
v -0.02435257 1.361056 0.5333604
v -0.03410375 1.361052 0.5651367
v -0.00179951 1.362813 0.503287
v -1.783935E-31 1.385366 0.5333604
v -1.578983E-31 1.361052 0.5016246
v -0.02411499 1.385128 0.5651367
v -1.573415E-31 1.363558 0.503287
v 0.00179951 1.362813 0.503287
v 0.002544894 1.361052 0.503287
v 0.01721987 1.378233 0.5333604
v 0.02435257 1.361056 0.5333604
v 0.03410375 1.361052 0.5651367
v 0.02411499 1.385128 0.5651367
v -0.02616517 1.387178 0.596268
v -0.03700315 1.361052 0.596268
v -1.974959E-31 1.395117 0.5651367
v -2.443403E-31 1.398016 0.596268
v 0.02616517 1.387178 0.596268
v 0.03700315 1.361052 0.596268
v -0.02628578 1.387299 0.6271268
v -0.0371737 1.361052 0.6271268
v -2.704988E-31 1.398187 0.6271268
v 0.02628578 1.387299 0.6271268
v 0.0371737 1.361052 0.6271268
v -0.02368269 1.384729 0.6536728
v -0.03349239 1.361052 0.6536728
v -3.008652E-31 1.394539 0.6536728
v 0.02368269 1.384729 0.6536728
v 0.03349239 1.361052 0.6536728
v -0.01958521 1.38061 0.6784729
v -0.02769768 1.361052 0.6784729
v -3.332545E-31 1.388723 0.6784729
v 0.01958521 1.38061 0.6784729
v 0.02769768 1.361052 0.6784729
v -0.0154931 1.376508 0.6999857
v -0.02191056 1.361053 0.6999857
v -3.572952E-31 1.382925 0.6999857
v 0.0154931 1.376508 0.6999857
v 0.02191056 1.361053 0.6999857
v -0.01191037 1.372924 0.7181767
v -0.0168438 1.361053 0.7181767
v -3.734083E-31 1.377857 0.7181767
v 0.01191037 1.372924 0.7181767
v 0.0168438 1.361053 0.7181767
v -0.008467236 1.36948 0.7352708
v -0.01197448 1.361052 0.7352708
v -4.090819E-31 1.372988 0.7352708
v -4.292604E-31 1.368987 0.7507636
v 0.008467236 1.36948 0.7352708
v 0.01197448 1.361052 0.7352708
v -0.005638653 1.366652 0.7507636
v -0.007974258 1.361052 0.7507636
v -0.004415289 1.361052 0.7662422
v 0.005638653 1.366652 0.7507636
v 0.007974258 1.361052 0.7507636
v 0.004415289 1.361052 0.7662422
v -0.003122082 1.364135 0.7662422
v 0.003122082 1.364135 0.7662422
v -0.0007493965 1.361763 0.7817801
v -0.001059804 1.361052 0.7817801
v -4.653185E-31 1.361052 0.7829365
v -4.46037E-31 1.365428 0.7662422
v -4.649889E-31 1.362073 0.7817801
v 0.0007493965 1.361763 0.7817801
v 0.001059804 1.361052 0.7817801
vt 0.4366119 0.6690027
vt 0.3689568 0.6690026
vt 0.3535829 0.712316
vt 0.4054381 0.6255165
vt 0.4294088 0.7123159
vt 0.5 0.6690027
vt 0.3513037 0.7564766
vt 0.4529895 0.6255164
vt 0.4285305 0.7564765
vt 0.3626997 0.7952519
vt 0.472347 0.5963963
vt 0.4476106 0.5963963
vt 0.5 0.5783016
vt 0.5000001 0.5963963
vt 0.5 0.712316
vt 0.4330674 0.795252
vt 0.3827845 0.830735
vt 0.5 0.6255164
vt 0.5276529 0.5963963
vt 0.5523893 0.5963963
vt 0.5945619 0.6255164
vt 0.5470105 0.6255165
vt 0.5633881 0.6690027
vt 0.6310431 0.6690027
vt 0.646417 0.712316
vt 0.5705911 0.7123159
vt 0.6486963 0.7564766
vt 0.5714695 0.7564765
vt 0.6373003 0.7952518
vt 0.5 0.7564765
vt 0.5669326 0.7952519
vt 0.6172155 0.830735
vt 0.5 0.795252
vt 0.5582548 0.830735
vt 0.5961229 0.8612954
vt 0.4417451 0.8307351
vt 0.4038771 0.8612954
vt 0.5 0.8307351
vt 0.5482662 0.8612954
vt 0.5763882 0.8882838
vt 0.4517338 0.8612954
vt 0.4236117 0.8882838
vt 0.5384968 0.8882838
vt 0.5555372 0.9139751
vt 0.5 0.8612954
vt 0.4615032 0.8882838
vt 0.4444627 0.913975
vt 0.5281508 0.913975
vt 0.5368663 0.9369427
vt 0.5 0.8882839
vt 0.4718492 0.913975
vt 0.4631337 0.9369428
vt 0.5 0.913975
vt 0.51868 0.9369429
vt 0.48132 0.9369429
vt 0.5136611 0.9519922
vt 0.5 0.9519922
vt 0.5272258 0.9519922
vt 0.516548 0.9685256
vt 0.5 0.9369428
vt 0.4863388 0.9519922
vt 0.4727742 0.9519922
vt 0.4834518 0.9685256
vt 0.5078746 0.9685256
vt 0.5 0.9835352
vt 0.4921251 0.9685256
vt 0.4999998 0.9685256
vt 0.5523893 0.5963963
vt 0.5471901 0.6255162
vt 0.5945606 0.6255162
vt 0.6310345 0.6690027
vt 0.5276529 0.5963963
vt 0.5 0.6255162
vt 0.5 0.5783016
vt 0.5635617 0.6690027
vt 0.5 0.5963963
vt 0.472347 0.5963963
vt 0.4476106 0.5963963
vt 0.4528099 0.6255162
vt 0.4054394 0.6255162
vt 0.3689655 0.6690027
vt 0.4364383 0.6690027
vt 0.5707466 0.712316
vt 0.6464081 0.712316
vt 0.5 0.6690027
vt 0.5 0.7123159
vt 0.4292534 0.712316
vt 0.3535919 0.712316
vt 0.5716512 0.7564766
vt 0.6487259 0.7564765
vt 0.5 0.7564765
vt 0.4283488 0.7564766
vt 0.3512742 0.7564765
vt 0.5670221 0.795252
vt 0.6373788 0.7952518
vt 0.5 0.795252
vt 0.4329779 0.795252
vt 0.3626212 0.7952518
vt 0.5584128 0.8307351
vt 0.6172636 0.830735
vt 0.5 0.830735
vt 0.4415872 0.8307351
vt 0.3827364 0.830735
vt 0.5484382 0.8612953
vt 0.5960957 0.8612953
vt 0.5 0.8612953
vt 0.4515618 0.8612953
vt 0.4039043 0.8612953
vt 0.5386651 0.8882838
vt 0.5763454 0.8882838
vt 0.5 0.8882838
vt 0.461335 0.8882838
vt 0.4236546 0.8882838
vt 0.5283174 0.913975
vt 0.555505 0.913975
vt 0.5 0.913975
vt 0.5 0.9369427
vt 0.4716826 0.913975
vt 0.444495 0.913975
vt 0.5188258 0.9369428
vt 0.5367985 0.9369427
vt 0.5272258 0.9519922
vt 0.4811742 0.9369428
vt 0.4632016 0.9369427
vt 0.4727742 0.9519922
vt 0.5136611 0.9519923
vt 0.4863388 0.9519923
vt 0.5078746 0.9685256
vt 0.516548 0.9685256
vt 0.5 0.9835352
vt 0.5 0.9519923
vt 0.5 0.9685256
vt 0.4921251 0.9685256
vt 0.4834518 0.9685256
vn -0.6752167 -0.6746255 -0.2982663
vn -0.954533 0.0006528897 -0.2981043
vn -0.9966679 0.0004323414 -0.08156555
vn -0.8130836 0.00161274 -0.5821447
vn -0.7049497 -0.7045619 -0.08147722
vn 0 -0.9544674 -0.2983153
vn -0.9966856 0.0003514002 0.08134938
vn -0.5753235 -0.5737708 -0.5829151
vn -0.7049107 -0.7045943 0.08153372
vn -0.978036 0.0003071357 0.2084359
vn -0.3598729 -0.3565618 -0.8621805
vn -0.5085613 0.00337057 -0.8610192
vn 0 0.004099042 -0.9999917
vn -3.794335E-07 -0.5058061 -0.8626472
vn 0 -0.9966787 -0.08143546
vn -0.691701 -0.6914303 0.2085036
vn -0.9576697 0.0003714204 0.2878693
vn 0 -0.8123331 -0.5831938
vn 0.3598729 -0.3565627 -0.8621802
vn 0.5085613 0.00336966 -0.8610193
vn 0.8130836 0.001612288 -0.5821446
vn 0.5753235 -0.5737712 -0.5829147
vn 0.6752169 -0.6746255 -0.2982659
vn 0.9545331 0.0006528898 -0.2981042
vn 0.9966679 0.0004323414 -0.0815657
vn 0.7049497 -0.7045619 -0.08147714
vn 0.9966856 0.0003514001 0.08134936
vn 0.7049108 -0.7045943 0.08153389
vn 0.9780359 0.0003074399 0.208436
vn 0 -0.9966641 0.08161221
vn 0.6917012 -0.69143 0.208504
vn 0.9576697 0.0003720226 0.2878693
vn 0 -0.9780171 0.2085249
vn 0.6773568 -0.6770331 0.287774
vn 0.9462159 0.0005917179 0.3235355
vn -0.6773567 -0.6770332 0.2877737
vn -0.9462158 0.0005914185 0.3235359
vn 0 -0.9577163 0.2877142
vn 0.6693536 -0.6688324 0.323464
vn 0.9432003 0.0009186714 0.3322233
vn -0.6693534 -0.6688328 0.3234639
vn -0.9432002 0.0009186717 0.3322236
vn 0.6673366 -0.6665196 0.332285
vn 0.9466272 0.00144026 0.3223273
vn 1.498016E-07 -0.9462585 0.3234113
vn -0.6673367 -0.6665196 0.3322849
vn -0.9466273 0.001440559 0.322327
vn 0.6699606 -0.66869 0.3225004
vn 0.9495245 0.0025897 0.3136823
vn 0 -0.9431836 0.3322719
vn -0.669961 -0.6686899 0.3224996
vn -0.9495245 0.002589701 0.3136826
vn -4.496016E-07 -0.9465643 0.3225151
vn 0.6724295 -0.6701187 0.3142921
vn -0.6724302 -0.6701185 0.3142911
vn 0.6475202 -0.6420467 0.4104797
vn -1.319326E-06 -0.9114869 0.4113292
vn 0.9129437 0.005779676 0.4080446
vn 0.7055787 0.0121009 0.7085282
vn -9.779047E-07 -0.949266 0.3144746
vn -0.6475206 -0.6420455 0.410481
vn -0.9129425 0.005779368 0.4080472
vn -0.705575 0.01210085 0.7085319
vn 0.5012258 -0.4894935 0.7135607
vn -8.000954E-07 0.01656815 0.9998628
vn -0.5012257 -0.4894913 0.7135623
vn -1.980638E-06 -0.6985561 0.7155553
vn -0.5085613 0.00337057 -0.8610192
vn -0.5745465 0.5761111 -0.5813709
vn -0.8130836 0.00161274 -0.5821447
vn -0.954533 0.0006528897 -0.2981043
vn -0.3593411 0.3626661 -0.8598531
vn 0 0.8138431 -0.5810847
vn 0 0.004099042 -0.9999917
vn -0.674695 0.6752918 -0.2979391
vn 1.51512E-07 0.5113317 -0.8593835
vn 0.3593412 0.3626653 -0.8598533
vn 0.5085613 0.00336966 -0.8610193
vn 0.5745467 0.5761109 -0.5813712
vn 0.8130836 0.001612288 -0.5821446
vn 0.9545331 0.0006528898 -0.2981042
vn 0.6746949 0.6752918 -0.2979392
vn -0.7045506 0.7049405 -0.081654
vn -0.9966679 0.0004323414 -0.08156555
vn 1.536816E-07 0.9546004 -0.2978893
vn 0 0.9966574 -0.08169565
vn 0.7045507 0.7049404 -0.08165406
vn 0.9966679 0.0004323414 -0.0815657
vn -0.7046147 0.704933 0.08116484
vn -0.9966856 0.0003514002 0.08134938
vn 0 0.9967071 0.08108614
vn 0.7046147 0.7049329 0.08116468
vn 0.9966856 0.0003514001 0.08134936
vn -0.6914499 0.6917224 0.208368
vn -0.978036 0.0003071357 0.2084359
vn 1.521101E-07 0.9780552 0.2083463
vn 0.6914499 0.6917225 0.2083676
vn 0.9780359 0.0003074399 0.208436
vn -0.6769917 0.6773174 0.2879641
vn -0.9576697 0.0003714204 0.2878693
vn 0 0.9576234 0.288023
vn 0.676992 0.6773174 0.2879637
vn 0.9576697 0.0003720226 0.2878693
vn -0.6687968 0.6693203 0.3236066
vn -0.9462158 0.0005914185 0.3235359
vn 0 0.9461741 0.3236579
vn 0.668797 0.6693204 0.323606
vn 0.9462159 0.0005917179 0.3235355
vn -0.6665486 0.6673693 0.3321613
vn -0.9432002 0.0009186717 0.3322236
vn 0 0.9432183 0.3321735
vn 0.6665488 0.6673695 0.3321607
vn 0.9432003 0.0009186714 0.3322233
vn -0.6687683 0.6700498 0.3221521
vn -0.9466273 0.001440559 0.322327
vn 0 0.9466937 0.3221352
vn -2.252549E-07 0.9497935 0.3128777
vn 0.6687686 0.6700498 0.3221519
vn 0.9466272 0.00144026 0.3223273
vn -0.6703812 0.6727409 0.3130635
vn -0.9495245 0.002589701 0.3136826
vn -0.9129425 0.005779368 0.4080472
vn 0.6703812 0.672741 0.3130632
vn 0.9495245 0.0025897 0.3136823
vn 0.9129437 0.005779676 0.4080446
vn -0.6435481 0.6491023 0.4056006
vn 0.6435484 0.6491036 0.4055982
vn -0.4965975 0.5084068 0.7035008
vn -0.705575 0.01210085 0.7085319
vn -8.000954E-07 0.01656815 0.9998628
vn -6.947091E-07 0.9144397 0.404722
vn -1.515513E-06 0.7126563 0.7015133
vn 0.4965984 0.5084093 0.7034985
vn 0.7055787 0.0121009 0.7085282
g pm0631_00_TongueBSkin_0
f 3/3/3 2/2/2 1/1/1
f 2/2/2 4/4/4 1/1/1
f 5/5/5 3/3/3 1/1/1
f 5/5/5 1/1/1 6/6/6
f 3/3/3 5/5/5 7/7/7
f 4/4/4 8/8/8 1/1/1
f 1/1/1 8/8/8 6/6/6
f 5/5/5 9/9/9 7/7/7
f 10/10/10 7/7/7 9/9/9
f 8/8/8 4/4/4 11/11/11
f 4/4/4 12/12/12 11/11/11
f 13/13/13 11/11/11 12/12/12
f 8/8/8 11/11/11 14/14/14
f 13/13/13 14/14/14 11/11/11
f 15/15/15 5/5/5 6/6/6
f 5/5/5 15/15/15 9/9/9
f 16/16/16 10/10/10 9/9/9
f 17/17/17 10/10/10 16/16/16
f 18/18/18 8/8/8 14/14/14
f 8/8/8 18/18/18 6/6/6
f 14/14/14 13/13/13 19/19/19
f 19/19/19 13/13/13 20/20/20
f 20/20/20 21/21/21 19/19/19
f 22/22/22 18/18/18 14/14/14
f 19/19/19 22/22/22 14/14/14
f 21/21/21 22/22/22 19/19/19
f 18/18/18 22/22/22 6/6/6
f 22/22/22 21/21/21 23/23/23
f 22/22/22 23/23/23 6/6/6
f 21/21/21 24/24/24 23/23/23
f 24/24/24 25/25/25 23/23/23
f 23/23/23 26/26/26 6/6/6
f 25/25/25 26/26/26 23/23/23
f 26/26/26 25/25/25 27/27/27
f 26/26/26 15/15/15 6/6/6
f 28/28/28 26/26/26 27/27/27
f 15/15/15 26/26/26 28/28/28
f 27/27/27 29/29/29 28/28/28
f 30/30/30 15/15/15 28/28/28
f 15/15/15 30/30/30 9/9/9
f 16/16/16 9/9/9 30/30/30
f 29/29/29 31/31/31 28/28/28
f 28/28/28 31/31/31 30/30/30
f 29/29/29 32/32/32 31/31/31
f 33/33/33 16/16/16 30/30/30
f 31/31/31 33/33/33 30/30/30
f 32/32/32 34/34/34 31/31/31
f 31/31/31 34/34/34 33/33/33
f 32/32/32 35/35/35 34/34/34
f 36/36/36 16/16/16 33/33/33
f 36/36/36 17/17/17 16/16/16
f 37/37/37 17/17/17 36/36/36
f 34/34/34 38/38/38 33/33/33
f 38/38/38 36/36/36 33/33/33
f 35/35/35 39/39/39 34/34/34
f 34/34/34 39/39/39 38/38/38
f 35/35/35 40/40/40 39/39/39
f 41/41/41 37/37/37 36/36/36
f 41/41/41 36/36/36 38/38/38
f 42/42/42 37/37/37 41/41/41
f 40/40/40 43/43/43 39/39/39
f 40/40/40 44/44/44 43/43/43
f 39/39/39 45/45/45 38/38/38
f 45/45/45 41/41/41 38/38/38
f 39/39/39 43/43/43 45/45/45
f 46/46/46 42/42/42 41/41/41
f 46/46/46 41/41/41 45/45/45
f 47/47/47 42/42/42 46/46/46
f 44/44/44 48/48/48 43/43/43
f 44/44/44 49/49/49 48/48/48
f 43/43/43 50/50/50 45/45/45
f 50/50/50 46/46/46 45/45/45
f 43/43/43 48/48/48 50/50/50
f 51/51/51 47/47/47 46/46/46
f 51/51/51 46/46/46 50/50/50
f 52/52/52 47/47/47 51/51/51
f 48/48/48 53/53/53 50/50/50
f 53/53/53 51/51/51 50/50/50
f 49/49/49 54/54/54 48/48/48
f 48/48/48 54/54/54 53/53/53
f 55/55/55 52/52/52 51/51/51
f 55/55/55 51/51/51 53/53/53
f 54/54/54 49/49/49 56/56/56
f 54/54/54 56/56/56 57/57/57
f 49/49/49 58/58/58 56/56/56
f 58/58/58 59/59/59 56/56/56
f 54/54/54 60/60/60 53/53/53
f 60/60/60 55/55/55 53/53/53
f 60/60/60 54/54/54 57/57/57
f 55/55/55 60/60/60 57/57/57
f 52/52/52 55/55/55 61/61/61
f 61/61/61 55/55/55 57/57/57
f 62/62/62 52/52/52 61/61/61
f 63/63/63 62/62/62 61/61/61
f 59/59/59 64/64/64 56/56/56
f 56/56/56 64/64/64 57/57/57
f 59/59/59 65/65/65 64/64/64
f 66/66/66 63/63/63 61/61/61
f 66/66/66 61/61/61 57/57/57
f 65/65/65 63/63/63 66/66/66
f 64/64/64 67/67/67 57/57/57
f 67/67/67 66/66/66 57/57/57
f 65/65/65 67/67/67 64/64/64
f 67/67/67 65/65/65 66/66/66
f 70/70/70 69/69/69 68/68/68
f 69/69/69 70/70/70 71/71/71
f 69/69/69 72/72/72 68/68/68
f 69/69/69 73/73/73 72/72/72
f 74/74/74 68/68/68 72/72/72
f 75/75/75 69/69/69 71/71/71
f 73/73/73 69/69/69 75/75/75
f 74/74/74 72/72/72 76/76/76
f 73/73/73 76/76/76 72/72/72
f 77/77/77 74/74/74 76/76/76
f 76/76/76 73/73/73 77/77/77
f 78/78/78 74/74/74 77/77/77
f 77/77/77 79/79/79 78/78/78
f 73/73/73 79/79/79 77/77/77
f 79/79/79 80/80/80 78/78/78
f 80/80/80 79/79/79 81/81/81
f 79/79/79 73/73/73 82/82/82
f 79/79/79 82/82/82 81/81/81
f 83/83/83 75/75/75 71/71/71
f 84/84/84 83/83/83 71/71/71
f 85/85/85 73/73/73 75/75/75
f 73/73/73 85/85/85 82/82/82
f 86/86/86 85/85/85 75/75/75
f 85/85/85 86/86/86 82/82/82
f 83/83/83 86/86/86 75/75/75
f 82/82/82 87/87/87 81/81/81
f 86/86/86 87/87/87 82/82/82
f 87/87/87 88/88/88 81/81/81
f 83/83/83 84/84/84 89/89/89
f 84/84/84 90/90/90 89/89/89
f 86/86/86 83/83/83 91/91/91
f 87/87/87 86/86/86 91/91/91
f 83/83/83 89/89/89 91/91/91
f 88/88/88 87/87/87 92/92/92
f 92/92/92 87/87/87 91/91/91
f 93/93/93 88/88/88 92/92/92
f 94/94/94 89/89/89 90/90/90
f 95/95/95 94/94/94 90/90/90
f 96/96/96 91/91/91 89/89/89
f 91/91/91 96/96/96 92/92/92
f 94/94/94 96/96/96 89/89/89
f 92/92/92 97/97/97 93/93/93
f 96/96/96 97/97/97 92/92/92
f 97/97/97 98/98/98 93/93/93
f 99/99/99 94/94/94 95/95/95
f 100/100/100 99/99/99 95/95/95
f 101/101/101 96/96/96 94/94/94
f 96/96/96 101/101/101 97/97/97
f 99/99/99 101/101/101 94/94/94
f 97/97/97 102/102/102 98/98/98
f 101/101/101 102/102/102 97/97/97
f 102/102/102 103/103/103 98/98/98
f 104/104/104 99/99/99 100/100/100
f 105/105/105 104/104/104 100/100/100
f 106/106/106 101/101/101 99/99/99
f 101/101/101 106/106/106 102/102/102
f 104/104/104 106/106/106 99/99/99
f 102/102/102 107/107/107 103/103/103
f 106/106/106 107/107/107 102/102/102
f 107/107/107 108/108/108 103/103/103
f 109/109/109 104/104/104 105/105/105
f 110/110/110 109/109/109 105/105/105
f 111/111/111 106/106/106 104/104/104
f 106/106/106 111/111/111 107/107/107
f 109/109/109 111/111/111 104/104/104
f 107/107/107 112/112/112 108/108/108
f 111/111/111 112/112/112 107/107/107
f 112/112/112 113/113/113 108/108/108
f 114/114/114 109/109/109 110/110/110
f 115/115/115 114/114/114 110/110/110
f 116/116/116 111/111/111 109/109/109
f 111/111/111 116/116/116 112/112/112
f 114/114/114 116/116/116 109/109/109
f 117/117/117 116/116/116 114/114/114
f 112/112/112 118/118/118 113/113/113
f 116/116/116 118/118/118 112/112/112
f 116/116/116 117/117/117 118/118/118
f 118/118/118 119/119/119 113/113/113
f 120/120/120 114/114/114 115/115/115
f 120/120/120 117/117/117 114/114/114
f 121/121/121 120/120/120 115/115/115
f 120/120/120 121/121/121 122/122/122
f 118/118/118 123/123/123 119/119/119
f 117/117/117 123/123/123 118/118/118
f 123/123/123 124/124/124 119/119/119
f 124/124/124 123/123/123 125/125/125
f 126/126/126 120/120/120 122/122/122
f 117/117/117 120/120/120 126/126/126
f 123/123/123 127/127/127 125/125/125
f 123/123/123 117/117/117 127/127/127
f 128/128/128 126/126/126 122/122/122
f 129/129/129 128/128/128 122/122/122
f 130/130/130 128/128/128 129/129/129
f 131/131/131 117/117/117 126/126/126
f 117/117/117 131/131/131 127/127/127
f 128/128/128 132/132/132 126/126/126
f 132/132/132 131/131/131 126/126/126
f 128/128/128 130/130/130 132/132/132
f 131/131/131 132/132/132 127/127/127
f 127/127/127 133/133/133 125/125/125
f 132/132/132 133/133/133 127/127/127
f 130/130/130 133/133/133 132/132/132
f 133/133/133 134/134/134 125/125/125
f 133/133/133 130/130/130 134/134/134
