g pm0689_00_EyeSkin
v 0.6427244 0.3636328 0.2713467
v 0.6497981 0.3577161 0.2710692
v 0.6441475 0.3665622 0.2549274
v 0.6347741 0.3719277 0.2688785
v 0.6360273 0.3790803 0.2367599
v 0.6434558 0.3714799 0.2371311
v 0.6238722 0.3866932 0.2605641
v 0.64686 0.3734041 0.2154923
v 0.6283257 0.3889583 0.233706
v 0.613228 0.4050077 0.2440201
v 0.6189229 0.4035652 0.2277313
v 0.60601 0.4193488 0.2340196
v 0.6122858 0.4157107 0.2208829
v 0.619192 0.4133026 0.2019052
v 0.6001582 0.4326436 0.2262266
v 0.6069463 0.4262219 0.2136702
v 0.6132131 0.4232497 0.1988632
v 0.6183435 0.4237994 0.1833477
v 0.626811 0.4015143 0.2057108
v 0.6345971 0.3897521 0.209577
v 0.6420009 0.3793798 0.2131885
v 0.652922 0.3754892 0.1918114
v 0.658367 0.3683104 0.1974598
v 0.6702878 0.3610058 0.1853806
v 0.6265428 0.4126803 0.182952
v 0.6217873 0.4280462 0.168682
v 0.6306073 0.4141206 0.1685783
v 0.6353961 0.4000637 0.1839041
v 0.6418482 0.3989243 0.1678757
v 0.6456331 0.3852795 0.1876596
v 0.6597499 0.3790672 0.1651108
v 0.6726412 0.3638788 0.1681326
v 0.6798167 0.3557486 0.172662
v 0.6846575 0.3503065 0.1783253
v -0.6427244 0.3636328 0.2713467
v -0.6441475 0.3665622 0.2549274
v -0.6497981 0.3577161 0.2710692
v -0.6347741 0.3719277 0.2688785
v -0.6360273 0.3790803 0.2367599
v -0.6434558 0.3714799 0.2371311
v -0.6238722 0.3866932 0.2605641
v -0.64686 0.3734041 0.2154923
v -0.6283257 0.3889583 0.233706
v -0.613228 0.4050077 0.2440201
v -0.6189229 0.4035652 0.2277313
v -0.60601 0.4193488 0.2340196
v -0.6122858 0.4157107 0.2208829
v -0.619192 0.4133026 0.2019052
v -0.6001582 0.4326436 0.2262266
v -0.6069463 0.4262219 0.2136702
v -0.6132131 0.4232497 0.1988632
v -0.6183435 0.4237994 0.1833477
v -0.626811 0.4015143 0.2057108
v -0.6345971 0.3897521 0.209577
v -0.6420009 0.3793798 0.2131885
v -0.652922 0.3754892 0.1918114
v -0.658367 0.3683104 0.1974598
v -0.6702878 0.3610058 0.1853806
v -0.6265428 0.4126803 0.182952
v -0.6217873 0.4280462 0.168682
v -0.6306073 0.4141206 0.1685783
v -0.6353961 0.4000637 0.1839041
v -0.6418482 0.3989243 0.1678757
v -0.6456331 0.3852795 0.1876596
v -0.6597499 0.3790672 0.1651108
v -0.6726412 0.3638788 0.1681326
v -0.6798167 0.3557486 0.172662
v -0.6846575 0.3503065 0.1783253
v 0.4881055 1.310762 0.07136761
v 0.473579 1.306725 0.07863967
v 0.4866418 1.319716 0.07304213
v 0.4869643 1.299146 0.06999779
v 0.4587633 1.289215 0.08379652
v 0.458278 1.299577 0.08613423
v 0.4802736 1.280185 0.06869338
v 0.43912 1.296594 0.09650724
v 0.4564279 1.276732 0.08156937
v 0.46572 1.257612 0.06973862
v 0.4508509 1.259517 0.07840569
v 0.4560418 1.241419 0.06836046
v 0.4441688 1.245732 0.07646114
v 0.4269924 1.248595 0.08696951
v 0.4477881 1.227368 0.06587823
v 0.4371904 1.23385 0.07539906
v 0.4237734 1.237415 0.08403803
v 0.4090082 1.237861 0.09104845
v 0.4306937 1.2623 0.09012226
v 0.4343478 1.276134 0.09315719
v 0.4374557 1.288793 0.0955096
v 0.4169876 1.29516 0.1069943
v 0.421407 1.304825 0.1066085
v 0.4089414 1.315924 0.1145326
v 0.4089153 1.250749 0.09603719
v 0.3943056 1.234979 0.09557684
v 0.39522 1.250075 0.1021345
v 0.4101174 1.265315 0.1010248
v 0.3949504 1.267684 0.1090366
v 0.4136319 1.282823 0.1053338
v 0.3915582 1.29281 0.1179565
v 0.3933299 1.312472 0.1219925
v 0.3963868 1.323815 0.1222985
v 0.4004445 1.331983 0.120907
v -0.4881055 1.310762 0.07136761
v -0.4866418 1.319716 0.07304213
v -0.473579 1.306725 0.07863967
v -0.4869643 1.299146 0.06999779
v -0.4587633 1.289215 0.08379652
v -0.458278 1.299577 0.08613423
v -0.4802736 1.280185 0.06869338
v -0.43912 1.296594 0.09650724
v -0.4564279 1.276732 0.08156937
v -0.46572 1.257612 0.06973862
v -0.4508509 1.259517 0.07840569
v -0.4560418 1.241419 0.06836046
v -0.4441688 1.245732 0.07646114
v -0.4269924 1.248595 0.08696951
v -0.4477881 1.227368 0.06587823
v -0.4371904 1.23385 0.07539906
v -0.4237734 1.237415 0.08403803
v -0.4090082 1.237861 0.09104845
v -0.4306937 1.2623 0.09012226
v -0.4343478 1.276134 0.09315719
v -0.4374557 1.288793 0.0955096
v -0.4169876 1.29516 0.1069943
v -0.421407 1.304825 0.1066085
v -0.4089414 1.315924 0.1145326
v -0.4089153 1.250749 0.09603719
v -0.3943056 1.234979 0.09557684
v -0.39522 1.250075 0.1021345
v -0.4101174 1.265315 0.1010248
v -0.3949504 1.267684 0.1090366
v -0.4136319 1.282823 0.1053338
v -0.3915582 1.29281 0.1179565
v -0.3933299 1.312472 0.1219925
v -0.3963868 1.323815 0.1222985
v -0.4004445 1.331983 0.120907
vt 0.1315336 1.986359
vt 0.1348619 1.995536
vt 0.1480767 1.980029
vt 0.1304166 1.973974
vt 0.1621008 1.959487
vt 0.1650612 1.970341
vt 0.1334524 1.952869
vt 0.1875712 1.964456
vt 0.1614904 1.945868
vt 0.1444073 1.926617
vt 0.1627322 1.926481
vt 0.1504548 1.907973
vt 0.1660624 1.910936
vt 0.1875619 1.911585
vt 0.1548772 1.891085
vt 0.1703751 1.896958
vt 0.1875672 1.898901
vt 0.2047503 1.896982
vt 0.1875602 1.926506
vt 0.1875622 1.941961
vt 0.187567 1.955957
vt 0.2130258 1.959464
vt 0.2100766 1.970311
vt 0.2270534 1.979979
vt 0.2090516 1.910947
vt 0.2202306 1.891123
vt 0.2246429 1.907989
vt 0.2123785 1.926479
vt 0.2306874 1.92661
vt 0.2136269 1.945853
vt 0.2416471 1.952832
vt 0.2446945 1.973917
vt 0.2435868 1.986292
vt 0.2402675 1.995464
vt 0.1315336 1.986359
vt 0.1480767 1.980029
vt 0.1348619 1.995536
vt 0.1304166 1.973974
vt 0.1621008 1.959487
vt 0.1650612 1.970341
vt 0.1334524 1.952869
vt 0.1875712 1.964456
vt 0.1614904 1.945868
vt 0.1444073 1.926617
vt 0.1627322 1.926481
vt 0.1504548 1.907973
vt 0.1660624 1.910936
vt 0.1875619 1.911585
vt 0.1548772 1.891085
vt 0.1703751 1.896958
vt 0.1875672 1.898901
vt 0.2047503 1.896982
vt 0.1875602 1.926506
vt 0.1875622 1.941961
vt 0.187567 1.955957
vt 0.2130258 1.959464
vt 0.2100766 1.970311
vt 0.2270534 1.979979
vt 0.2090516 1.910947
vt 0.2202306 1.891123
vt 0.2246429 1.907989
vt 0.2123785 1.926479
vt 0.2306874 1.92661
vt 0.2136269 1.945853
vt 0.2416471 1.952832
vt 0.2446945 1.973917
vt 0.2435868 1.986292
vt 0.2402675 1.995464
vt 0.1185368 1.986359
vt 0.1019939 1.980029
vt 0.1152085 1.995536
vt 0.1196539 1.973974
vt 0.08796966 1.959487
vt 0.08500922 1.970341
vt 0.116618 1.952869
vt 0.06249928 1.964456
vt 0.08858001 1.945868
vt 0.1056632 1.926617
vt 0.08733809 1.926481
vt 0.09961557 1.907973
vt 0.0840081 1.910936
vt 0.06250858 1.911585
vt 0.09519315 1.891086
vt 0.07969534 1.896958
vt 0.06250322 1.898901
vt 0.04532027 1.896982
vt 0.06251025 1.926506
vt 0.06250823 1.941961
vt 0.06250358 1.955956
vt 0.03704464 1.959464
vt 0.03999388 1.970311
vt 0.02301705 1.979979
vt 0.04101884 1.910947
vt 0.02983999 1.891123
vt 0.0254277 1.907989
vt 0.03769195 1.926479
vt 0.01938307 1.92661
vt 0.03644359 1.945853
vt 0.008423455 1.952832
vt 0.005375981 1.973917
vt 0.006483674 1.986292
vt 0.009802945 1.995464
vt 0.1185369 1.986359
vt 0.1152085 1.995536
vt 0.1019939 1.980029
vt 0.1196539 1.973974
vt 0.08796966 1.959487
vt 0.08500925 1.970341
vt 0.1166181 1.952869
vt 0.06249928 1.964456
vt 0.08858001 1.945868
vt 0.1056632 1.926617
vt 0.08733812 1.926481
vt 0.09961557 1.907973
vt 0.08400807 1.910936
vt 0.06250858 1.911585
vt 0.09519315 1.891086
vt 0.07969531 1.896958
vt 0.06250319 1.898901
vt 0.04532027 1.896982
vt 0.06251025 1.926506
vt 0.06250823 1.941961
vt 0.06250358 1.955956
vt 0.03704467 1.959464
vt 0.03999391 1.970311
vt 0.02301708 1.979979
vt 0.04101887 1.910947
vt 0.02983999 1.891123
vt 0.02542767 1.907989
vt 0.03769198 1.926479
vt 0.0193831 1.92661
vt 0.03644362 1.945853
vt 0.008423485 1.952832
vt 0.005376011 1.973917
vt 0.006483704 1.986292
vt 0.009802975 1.995464
vn -0.6762739 -0.7129904 -0.1851978
vn -0.6696588 -0.7192203 -0.1851462
vn -0.6850895 -0.7048122 -0.184098
vn -0.705545 -0.6838973 -0.1857167
vn -0.7219636 -0.6639634 -0.1947337
vn -0.7009574 -0.6873376 -0.1903302
vn -0.7524847 -0.6291143 -0.1948899
vn -0.702062 -0.6805996 -0.2095073
vn -0.7560765 -0.6211686 -0.2061498
vn -0.7835476 -0.5849969 -0.2093605
vn -0.7812437 -0.5843753 -0.2194626
vn -0.8044248 -0.5526301 -0.2179469
vn -0.7985808 -0.5575792 -0.2266587
vn -0.7869417 -0.5637824 -0.2507434
vn -0.8140066 -0.5378506 -0.2193401
vn -0.8067873 -0.5448654 -0.2285081
vn -0.7935468 -0.5529194 -0.2540935
vn -0.7863464 -0.5492114 -0.2828885
vn -0.7728105 -0.5859993 -0.2436571
vn -0.750432 -0.6186535 -0.2326369
vn -0.721174 -0.657378 -0.218546
vn -0.7065164 -0.6672469 -0.2358307
vn -0.6890209 -0.6898751 -0.2220871
vn -0.6738928 -0.7071922 -0.2138873
vn -0.7796146 -0.5616113 -0.2771172
vn -0.7854159 -0.5439297 -0.2954018
vn -0.7780544 -0.5582363 -0.2881034
vn -0.763235 -0.588203 -0.2673756
vn -0.7583873 -0.5903448 -0.2763004
vn -0.7374691 -0.6251237 -0.2556555
vn -0.7278023 -0.6343604 -0.2605585
vn -0.6892778 -0.6873549 -0.2289965
vn -0.6683959 -0.7146652 -0.2061567
vn -0.6637018 -0.7204868 -0.2009943
vn 0.6762729 -0.7129914 -0.1851975
vn 0.6850892 -0.7048126 -0.184098
vn 0.6696579 -0.7192213 -0.1851459
vn 0.7055446 -0.6838976 -0.1857167
vn 0.7219638 -0.6639633 -0.1947335
vn 0.7009578 -0.6873373 -0.1903302
vn 0.7524846 -0.6291143 -0.1948901
vn 0.7020622 -0.6805994 -0.2095069
vn 0.7560767 -0.6211685 -0.2061498
vn 0.7835478 -0.5849965 -0.209361
vn 0.7812437 -0.5843751 -0.2194629
vn 0.8044246 -0.5526299 -0.2179476
vn 0.7985805 -0.5575793 -0.2266593
vn 0.7869413 -0.5637829 -0.2507437
vn 0.8140063 -0.5378506 -0.219341
vn 0.8067868 -0.5448658 -0.2285089
vn 0.7935461 -0.5529201 -0.254094
vn 0.7863461 -0.5492119 -0.2828888
vn 0.7728105 -0.5859994 -0.2436572
vn 0.750432 -0.6186534 -0.2326367
vn 0.7211741 -0.6573778 -0.2185456
vn 0.7065166 -0.6672468 -0.2358305
vn 0.6890213 -0.6898746 -0.2220869
vn 0.6738936 -0.7071911 -0.2138882
vn 0.7796143 -0.5616115 -0.2771173
vn 0.7854158 -0.5439299 -0.2954021
vn 0.7780542 -0.5582365 -0.2881034
vn 0.7632348 -0.5882032 -0.2673756
vn 0.758387 -0.590345 -0.2763004
vn 0.7374693 -0.6251236 -0.2556552
vn 0.7278023 -0.6343604 -0.2605587
vn 0.6892783 -0.6873541 -0.2289972
vn 0.668397 -0.7146636 -0.2061585
vn 0.663703 -0.7204852 -0.2009962
vn 0.4749517 -0.142152 0.8684548
vn 0.4770458 -0.1536329 0.8653464
vn 0.4740943 -0.1333009 0.870325
vn 0.4779278 -0.1822838 0.8592774
vn 0.4714558 -0.2087483 0.8568276
vn 0.4734043 -0.1776334 0.8627484
vn 0.4730935 -0.2531871 0.8438476
vn 0.4565358 -0.1864676 0.8699454
vn 0.4631148 -0.2630296 0.8463688
vn 0.4603469 -0.3065128 0.833145
vn 0.451152 -0.3071854 0.8379135
vn 0.4516004 -0.3437257 0.8233527
vn 0.4438699 -0.3380526 0.8298795
vn 0.4218536 -0.330318 0.8443515
vn 0.4495817 -0.3602318 0.8173795
vn 0.4416128 -0.3523584 0.8251192
vn 0.4183546 -0.3425915 0.8411959
vn 0.391071 -0.3451648 0.8531851
vn 0.4288774 -0.3046828 0.8504308
vn 0.4388595 -0.2656257 0.8583969
vn 0.4501182 -0.21698 0.8662062
vn 0.433259 -0.2033113 0.8780382
vn 0.4438879 -0.1734319 0.8791387
vn 0.4493611 -0.1496926 0.8807195
vn 0.3969735 -0.3313787 0.8559206
vn 0.3788882 -0.3501702 0.8566356
vn 0.3863961 -0.3344465 0.8595601
vn 0.4066215 -0.3008488 0.8626407
vn 0.3981328 -0.2976599 0.8676917
vn 0.4171039 -0.2564811 0.8719184
vn 0.4120616 -0.2445015 0.8777382
vn 0.437705 -0.1765591 0.8816128
vn 0.4554776 -0.1393812 0.8792685
vn 0.4593701 -0.1312061 0.8785011
vn -0.4749531 -0.1421517 0.868454
vn -0.4740959 -0.1333004 0.8703241
vn -0.4770469 -0.1536324 0.8653457
vn -0.4779286 -0.1822835 0.8592771
vn -0.4714562 -0.2087481 0.8568276
vn -0.4734051 -0.1776331 0.862748
vn -0.4730939 -0.2531872 0.8438475
vn -0.4565373 -0.1864677 0.8699445
vn -0.4631147 -0.2630295 0.846369
vn -0.4603468 -0.3065127 0.8331452
vn -0.4511515 -0.3071852 0.8379138
vn -0.4515997 -0.3437253 0.8233533
vn -0.4438692 -0.3380522 0.82988
vn -0.421853 -0.3303177 0.8443519
vn -0.4495807 -0.360231 0.8173804
vn -0.441612 -0.3523577 0.8251199
vn -0.4183541 -0.3425913 0.8411962
vn -0.3910705 -0.3451646 0.8531854
vn -0.428877 -0.3046824 0.8504311
vn -0.4388596 -0.2656255 0.8583969
vn -0.4501191 -0.21698 0.8662058
vn -0.4332603 -0.2033115 0.8780376
vn -0.4438902 -0.1734324 0.8791375
vn -0.4493626 -0.149693 0.8807186
vn -0.3969731 -0.3313785 0.8559209
vn -0.3788875 -0.3501697 0.8566361
vn -0.3863955 -0.3344461 0.8595605
vn -0.4066212 -0.3008483 0.862641
vn -0.3981325 -0.2976595 0.8676919
vn -0.4171039 -0.2564809 0.8719184
vn -0.4120615 -0.2445012 0.8777383
vn -0.4377058 -0.1765592 0.8816124
vn -0.4554781 -0.1393812 0.8792683
vn -0.4593709 -0.1312062 0.8785006
g pm0689_00_EyeSkin_0
f 3/3/3 2/2/2 1/1/1
f 4/4/4 3/3/3 1/1/1
f 3/3/3 4/4/4 5/5/5
f 6/6/6 3/3/3 5/5/5
f 4/4/4 7/7/7 5/5/5
f 6/6/6 5/5/5 8/8/8
f 7/7/7 9/9/9 5/5/5
f 7/7/7 10/10/10 9/9/9
f 10/10/10 11/11/11 9/9/9
f 11/11/11 10/10/10 12/12/12
f 13/13/13 11/11/11 12/12/12
f 13/13/13 14/14/14 11/11/11
f 12/12/12 15/15/15 13/13/13
f 15/15/15 16/16/16 13/13/13
f 13/13/13 16/16/16 14/14/14
f 16/16/16 17/17/17 14/14/14
f 17/17/17 18/18/18 14/14/14
f 11/11/11 19/19/19 9/9/9
f 14/14/14 19/19/19 11/11/11
f 9/9/9 20/20/20 5/5/5
f 19/19/19 20/20/20 9/9/9
f 5/5/5 21/21/21 8/8/8
f 20/20/20 21/21/21 5/5/5
f 21/21/21 22/22/22 8/8/8
f 21/21/21 20/20/20 22/22/22
f 22/22/22 23/23/23 8/8/8
f 24/24/24 23/23/23 22/22/22
f 18/18/18 25/25/25 14/14/14
f 25/25/25 18/18/18 26/26/26
f 27/27/27 25/25/25 26/26/26
f 14/14/14 25/25/25 28/28/28
f 28/28/28 25/25/25 27/27/27
f 19/19/19 14/14/14 28/28/28
f 29/29/29 28/28/28 27/27/27
f 20/20/20 19/19/19 30/30/30
f 19/19/19 28/28/28 30/30/30
f 28/28/28 29/29/29 30/30/30
f 20/20/20 30/30/30 22/22/22
f 29/29/29 31/31/31 30/30/30
f 30/30/30 31/31/31 22/22/22
f 31/31/31 32/32/32 22/22/22
f 32/32/32 24/24/24 22/22/22
f 24/24/24 32/32/32 33/33/33
f 34/34/34 24/24/24 33/33/33
f 37/37/37 36/36/36 35/35/35
f 36/36/36 38/38/38 35/35/35
f 38/38/38 36/36/36 39/39/39
f 36/36/36 40/40/40 39/39/39
f 41/41/41 38/38/38 39/39/39
f 39/39/39 40/40/40 42/42/42
f 43/43/43 41/41/41 39/39/39
f 44/44/44 41/41/41 43/43/43
f 45/45/45 44/44/44 43/43/43
f 44/44/44 45/45/45 46/46/46
f 45/45/45 47/47/47 46/46/46
f 48/48/48 47/47/47 45/45/45
f 49/49/49 46/46/46 47/47/47
f 50/50/50 49/49/49 47/47/47
f 50/50/50 47/47/47 48/48/48
f 51/51/51 50/50/50 48/48/48
f 52/52/52 51/51/51 48/48/48
f 53/53/53 45/45/45 43/43/43
f 53/53/53 48/48/48 45/45/45
f 54/54/54 43/43/43 39/39/39
f 54/54/54 53/53/53 43/43/43
f 55/55/55 39/39/39 42/42/42
f 55/55/55 54/54/54 39/39/39
f 56/56/56 55/55/55 42/42/42
f 54/54/54 55/55/55 56/56/56
f 57/57/57 56/56/56 42/42/42
f 57/57/57 58/58/58 56/56/56
f 59/59/59 52/52/52 48/48/48
f 52/52/52 59/59/59 60/60/60
f 59/59/59 61/61/61 60/60/60
f 59/59/59 48/48/48 62/62/62
f 59/59/59 62/62/62 61/61/61
f 48/48/48 53/53/53 62/62/62
f 62/62/62 63/63/63 61/61/61
f 53/53/53 54/54/54 64/64/64
f 62/62/62 53/53/53 64/64/64
f 63/63/63 62/62/62 64/64/64
f 64/64/64 54/54/54 56/56/56
f 65/65/65 63/63/63 64/64/64
f 65/65/65 64/64/64 56/56/56
f 66/66/66 65/65/65 56/56/56
f 58/58/58 66/66/66 56/56/56
f 66/66/66 58/58/58 67/67/67
f 58/58/58 68/68/68 67/67/67
g pm0689_00_EyeSkin_1
f 71/71/71 70/70/70 69/69/69
f 70/70/70 72/72/72 69/69/69
f 72/72/72 70/70/70 73/73/73
f 70/70/70 74/74/74 73/73/73
f 75/75/75 72/72/72 73/73/73
f 73/73/73 74/74/74 76/76/76
f 77/77/77 75/75/75 73/73/73
f 78/78/78 75/75/75 77/77/77
f 79/79/79 78/78/78 77/77/77
f 78/78/78 79/79/79 80/80/80
f 79/79/79 81/81/81 80/80/80
f 82/82/82 81/81/81 79/79/79
f 83/83/83 80/80/80 81/81/81
f 84/84/84 83/83/83 81/81/81
f 84/84/84 81/81/81 82/82/82
f 85/85/85 84/84/84 82/82/82
f 86/86/86 85/85/85 82/82/82
f 87/87/87 79/79/79 77/77/77
f 87/87/87 82/82/82 79/79/79
f 88/88/88 77/77/77 73/73/73
f 88/88/88 87/87/87 77/77/77
f 89/89/89 73/73/73 76/76/76
f 89/89/89 88/88/88 73/73/73
f 90/90/90 89/89/89 76/76/76
f 88/88/88 89/89/89 90/90/90
f 91/91/91 90/90/90 76/76/76
f 91/91/91 92/92/92 90/90/90
f 93/93/93 86/86/86 82/82/82
f 86/86/86 93/93/93 94/94/94
f 93/93/93 95/95/95 94/94/94
f 93/93/93 82/82/82 96/96/96
f 93/93/93 96/96/96 95/95/95
f 82/82/82 87/87/87 96/96/96
f 96/96/96 97/97/97 95/95/95
f 87/87/87 88/88/88 98/98/98
f 96/96/96 87/87/87 98/98/98
f 97/97/97 96/96/96 98/98/98
f 98/98/98 88/88/88 90/90/90
f 99/99/99 97/97/97 98/98/98
f 99/99/99 98/98/98 90/90/90
f 100/100/100 99/99/99 90/90/90
f 92/92/92 100/100/100 90/90/90
f 100/100/100 92/92/92 101/101/101
f 92/92/92 102/102/102 101/101/101
f 105/105/105 104/104/104 103/103/103
f 106/106/106 105/105/105 103/103/103
f 105/105/105 106/106/106 107/107/107
f 108/108/108 105/105/105 107/107/107
f 106/106/106 109/109/109 107/107/107
f 108/108/108 107/107/107 110/110/110
f 109/109/109 111/111/111 107/107/107
f 109/109/109 112/112/112 111/111/111
f 112/112/112 113/113/113 111/111/111
f 113/113/113 112/112/112 114/114/114
f 115/115/115 113/113/113 114/114/114
f 115/115/115 116/116/116 113/113/113
f 114/114/114 117/117/117 115/115/115
f 117/117/117 118/118/118 115/115/115
f 115/115/115 118/118/118 116/116/116
f 118/118/118 119/119/119 116/116/116
f 119/119/119 120/120/120 116/116/116
f 113/113/113 121/121/121 111/111/111
f 116/116/116 121/121/121 113/113/113
f 111/111/111 122/122/122 107/107/107
f 121/121/121 122/122/122 111/111/111
f 107/107/107 123/123/123 110/110/110
f 122/122/122 123/123/123 107/107/107
f 123/123/123 124/124/124 110/110/110
f 123/123/123 122/122/122 124/124/124
f 124/124/124 125/125/125 110/110/110
f 126/126/126 125/125/125 124/124/124
f 120/120/120 127/127/127 116/116/116
f 127/127/127 120/120/120 128/128/128
f 129/129/129 127/127/127 128/128/128
f 116/116/116 127/127/127 130/130/130
f 130/130/130 127/127/127 129/129/129
f 121/121/121 116/116/116 130/130/130
f 131/131/131 130/130/130 129/129/129
f 122/122/122 121/121/121 132/132/132
f 121/121/121 130/130/130 132/132/132
f 130/130/130 131/131/131 132/132/132
f 122/122/122 132/132/132 124/124/124
f 131/131/131 133/133/133 132/132/132
f 132/132/132 133/133/133 124/124/124
f 133/133/133 134/134/134 124/124/124
f 134/134/134 126/126/126 124/124/124
f 126/126/126 134/134/134 135/135/135
f 136/136/136 126/126/126 135/135/135
