g pm0676_18_Eye123Skin
v 0.08953425 0.9783004 0.4784288
v 0.09513287 0.9874279 0.4928671
v 0.08725327 0.9892707 0.4877745
v 0.07841413 0.9981573 0.5015931
v 0.08691881 0.9967366 0.5063027
v 0.06865162 1.000039 0.5192198
v 0.09898714 0.9775209 0.4836452
v 0.1041708 0.9711484 0.4999376
v 0.1010556 0.9819776 0.5070595
v 0.1029712 0.978323 0.46566
v 0.09568338 0.9789829 0.4627126
v 0.1061844 0.9781601 0.4528958
v 0.1017336 0.9790022 0.4494362
v 0.106665 0.9763723 0.449893
v 0.1029041 0.977334 0.4470324
v 0.1074725 0.9721937 0.4629825
v 0.1064537 0.9730699 0.4504077
v 0.1022301 0.9733496 0.4468254
v 0.104283 0.9677051 0.4579663
v 0.09821051 0.9669817 0.4549516
v 0.09942286 0.9591244 0.4730099
v 0.09254245 0.9582306 0.4684609
v 0.1064582 0.9658043 0.4790747
v 0.09505437 0.9521756 0.4854764
v 0.08735135 0.9505515 0.4812308
v 0.1047604 0.9590931 0.4934373
v 0.08902929 0.9443794 0.5018812
v 0.08140899 0.9421515 0.496056
v 0.1001343 0.9499474 0.5127537
v 0.08014434 0.9353443 0.52226
v 0.07202068 0.9320666 0.5163509
v 0.07112962 0.9268552 0.5419632
v 0.06188564 0.9234263 0.5359092
v 0.09190086 0.9408231 0.5317741
v 0.09541518 0.9526009 0.5394043
v 0.1028341 0.9614384 0.5206957
v 0.09966465 0.9761537 0.5270529
v 0.06278349 0.9202355 0.5582253
v 0.05308961 0.9175754 0.5519629
v 0.08028631 0.9317629 0.5502634
v 0.05594683 0.9139326 0.5736665
v 0.04623737 0.911413 0.5683195
v 0.09636397 0.9878954 0.5133643
v 0.09023706 0.9895604 0.5290743
v 0.09116076 0.9691356 0.5454441
v 0.06824286 0.924334 0.5647102
v 0.06621998 0.9356369 0.5681689
v 0.08208156 0.9440107 0.5560263
v 0.0788321 0.95966 0.5601742
v 0.04912297 0.9099814 0.584525
v 0.03987217 0.908146 0.5853487
v 0.04766699 0.9117291 0.5861865
v 0.03925081 0.9089633 0.5871148
v 0.03952465 0.9123542 0.5859715
v 0.05773517 0.9177511 0.5766155
v 0.04753869 0.9140661 0.5860499
v 0.05331144 0.9287125 0.5755411
v 0.04088923 0.929623 0.5716574
v 0.05250114 0.9430501 0.5749527
v 0.04019907 0.9415084 0.5714815
v 0.06438483 0.9510351 0.5700024
v 0.05367838 0.9618204 0.571359
v 0.04150077 0.9605585 0.5683321
v 0.04657422 0.9803901 0.558044
v 0.06153844 0.9622979 0.5688798
v 0.06954072 0.9735991 0.5617908
v 0.05755325 0.9797043 0.5615587
v 0.06648277 0.9939207 0.544548
v 0.05705043 0.9953238 0.5406306
v 0.08079094 0.9844455 0.5467795
v 0.07839812 0.998944 0.524336
v -0.08953425 0.9783004 0.4784288
v -0.08725327 0.9892707 0.4877745
v -0.09513287 0.9874279 0.4928671
v -0.07841413 0.9981573 0.5015931
v -0.08691881 0.9967366 0.5063027
v -0.06865162 1.000039 0.5192198
v -0.09898714 0.9775209 0.4836452
v -0.1041708 0.9711484 0.4999376
v -0.1010556 0.9819776 0.5070595
v -0.1029712 0.978323 0.46566
v -0.09568338 0.9789829 0.4627126
v -0.1061844 0.9781601 0.4528958
v -0.1017336 0.9790022 0.4494362
v -0.106665 0.9763723 0.449893
v -0.1029041 0.977334 0.4470324
v -0.1074725 0.9721937 0.4629825
v -0.1064537 0.9730699 0.4504077
v -0.1022301 0.9733496 0.4468254
v -0.104283 0.9677051 0.4579663
v -0.09821051 0.9669817 0.4549516
v -0.09942286 0.9591244 0.4730099
v -0.09254245 0.9582306 0.4684609
v -0.1064582 0.9658043 0.4790747
v -0.09505437 0.9521756 0.4854764
v -0.08735135 0.9505515 0.4812308
v -0.1047604 0.9590931 0.4934373
v -0.08902929 0.9443794 0.5018812
v -0.08140899 0.9421515 0.496056
v -0.1001343 0.9499474 0.5127537
v -0.08014434 0.9353443 0.52226
v -0.07202068 0.9320666 0.5163509
v -0.07112962 0.9268552 0.5419632
v -0.06188564 0.9234263 0.5359092
v -0.09190086 0.9408231 0.5317741
v -0.09541518 0.9526009 0.5394043
v -0.1028341 0.9614384 0.5206957
v -0.09966465 0.9761537 0.5270529
v -0.06278349 0.9202355 0.5582253
v -0.05308961 0.9175754 0.5519629
v -0.08028631 0.9317629 0.5502634
v -0.05594683 0.9139326 0.5736665
v -0.04623737 0.911413 0.5683195
v -0.09636397 0.9878954 0.5133643
v -0.09023706 0.9895604 0.5290743
v -0.09116076 0.9691356 0.5454441
v -0.06824286 0.924334 0.5647102
v -0.06621998 0.9356369 0.5681689
v -0.08208156 0.9440107 0.5560263
v -0.0788321 0.95966 0.5601742
v -0.04912297 0.9099814 0.584525
v -0.03987217 0.908146 0.5853487
v -0.04766699 0.9117291 0.5861865
v -0.03925081 0.9089633 0.5871148
v -0.03952465 0.9123542 0.5859715
v -0.05773517 0.9177511 0.5766155
v -0.04753869 0.9140661 0.5860499
v -0.05331144 0.9287125 0.5755411
v -0.04088923 0.929623 0.5716574
v -0.05250114 0.9430501 0.5749527
v -0.04019907 0.9415084 0.5714815
v -0.06438483 0.9510351 0.5700024
v -0.05367838 0.9618204 0.571359
v -0.04150077 0.9605585 0.5683321
v -0.04657422 0.9803901 0.558044
v -0.06153844 0.9622979 0.5688798
v -0.06954072 0.9735991 0.5617908
v -0.05755325 0.9797043 0.5615587
v -0.06648277 0.9939207 0.544548
v -0.05705043 0.9953238 0.5406306
v -0.08079094 0.9844455 0.5467795
v -0.07839812 0.998944 0.524336
vt 0.4136506 0.9479845
vt 0.4200332 0.952526
vt 0.4173396 0.9589374
vt 0.4225832 0.9743055
vt 0.4246626 0.9664425
vt 0.4305276 0.9838316
vt 0.416814 0.939873
vt 0.4235891 0.9365372
vt 0.4253618 0.9475288
vt 0.4103811 0.9330446
vt 0.4085332 0.9392675
vt 0.4057004 0.9298187
vt 0.401202 0.9311793
vt 0.4042964 0.9248136
vt 0.4007606 0.9249859
vt 0.4104261 0.9252438
vt 0.4052867 0.9198124
vt 0.401748 0.9166896
vt 0.4093848 0.9186028
vt 0.4084278 0.911213
vt 0.4156516 0.9145592
vt 0.4144527 0.9072652
vt 0.4166093 0.9253882
vt 0.4208397 0.9107621
vt 0.4199103 0.9026227
vt 0.4223312 0.923951
vt 0.4274526 0.9063354
vt 0.4262816 0.8975289
vt 0.4295962 0.920526
vt 0.4358176 0.9022218
vt 0.4352077 0.8922655
vt 0.444158 0.9011831
vt 0.4441329 0.8900334
vt 0.4367188 0.9169316
vt 0.4375 0.9296875
vt 0.4309059 0.932934
vt 0.4319329 0.946055
vt 0.4512764 0.901607
vt 0.4513735 0.8901259
vt 0.4446446 0.9136607
vt 0.4578018 0.9025595
vt 0.4584353 0.8913457
vt 0.4272444 0.9549245
vt 0.4325356 0.9596837
vt 0.438409 0.944527
vt 0.4517763 0.9108363
vt 0.4520451 0.9225255
vt 0.4446897 0.9261471
vt 0.4449812 0.9408244
vt 0.462521 0.9025173
vt 0.4669105 0.8922976
vt 0.46256 0.9087967
vt 0.4668579 0.9065679
vt 0.4674261 0.9146598
vt 0.4579468 0.9076069
vt 0.4626897 0.91597
vt 0.4582945 0.9194483
vt 0.46271 0.9262324
vt 0.4565765 0.933764
vt 0.4611697 0.937547
vt 0.4513259 0.9375339
vt 0.4533551 0.9509892
vt 0.4575128 0.9561868
vt 0.4507766 0.974507
vt 0.4506668 0.9485263
vt 0.4460503 0.9553425
vt 0.4482003 0.9659458
vt 0.440281 0.9750885
vt 0.440869 0.9846876
vt 0.4393502 0.9598919
vt 0.4315465 0.9734993
vt 0.4136507 0.9479845
vt 0.4173396 0.9589374
vt 0.4200332 0.952526
vt 0.4225832 0.9743055
vt 0.4246626 0.9664425
vt 0.4305276 0.9838316
vt 0.416814 0.939873
vt 0.4235891 0.9365372
vt 0.4253618 0.9475288
vt 0.4103811 0.9330446
vt 0.4085331 0.9392675
vt 0.4057005 0.9298187
vt 0.401202 0.9311793
vt 0.4042964 0.9248136
vt 0.4007606 0.9249859
vt 0.4104261 0.9252438
vt 0.4052867 0.9198124
vt 0.401748 0.9166896
vt 0.4093848 0.9186028
vt 0.4084278 0.911213
vt 0.4156516 0.9145592
vt 0.4144527 0.9072652
vt 0.4166093 0.9253882
vt 0.4208397 0.9107621
vt 0.4199103 0.9026227
vt 0.4223313 0.923951
vt 0.4274526 0.9063354
vt 0.4262816 0.8975289
vt 0.4295962 0.920526
vt 0.4358176 0.9022218
vt 0.4352078 0.8922655
vt 0.444158 0.9011831
vt 0.444133 0.8900334
vt 0.4367188 0.9169316
vt 0.4375 0.9296875
vt 0.4309059 0.932934
vt 0.4319329 0.946055
vt 0.4512764 0.901607
vt 0.4513735 0.8901259
vt 0.4446446 0.9136607
vt 0.4578018 0.9025595
vt 0.4584353 0.8913457
vt 0.4272444 0.9549245
vt 0.4325358 0.9596837
vt 0.4384089 0.944527
vt 0.4517763 0.9108363
vt 0.4520451 0.9225255
vt 0.4446897 0.9261471
vt 0.4449813 0.9408244
vt 0.462521 0.9025173
vt 0.4669103 0.8922975
vt 0.4625601 0.9087967
vt 0.4668579 0.9065679
vt 0.4674262 0.9146598
vt 0.4579468 0.9076069
vt 0.4626898 0.91597
vt 0.4582945 0.9194483
vt 0.46271 0.9262324
vt 0.4565766 0.933764
vt 0.4611697 0.937547
vt 0.4513259 0.9375339
vt 0.4533551 0.9509892
vt 0.4575129 0.9561868
vt 0.4507766 0.974507
vt 0.4506668 0.9485263
vt 0.4460503 0.9553425
vt 0.4482003 0.9659458
vt 0.440281 0.9750885
vt 0.4408691 0.9846876
vt 0.4393502 0.9598919
vt 0.4315464 0.9734993
vn 0.5714034 0.8024819 -0.1718164
vn 0.6872304 0.7217121 -0.08274094
vn 0.5133201 0.8432394 -0.1595302
vn 0.4139697 0.9097717 -0.03073487
vn 0.5535806 0.8320179 0.03598256
vn 0.2834575 0.9332457 0.2206906
vn 0.8388931 0.5311982 -0.1186879
vn 0.9827428 0.1834494 0.02372389
vn 0.8520542 0.516591 0.08448435
vn 0.7692541 0.620365 -0.1529559
vn 0.5658468 0.8066533 -0.1706691
vn 0.7438621 0.6241577 -0.2389484
vn 0.6470745 0.7072387 -0.2847948
vn 0.8972551 0.2078544 -0.3895253
vn 0.8233645 0.2736067 -0.4972023
vn 0.9629546 0.06296986 -0.2622081
vn 0.8354973 -0.2638081 -0.4820263
vn 0.7723258 -0.3017584 -0.5589765
vn 0.8029719 -0.4581225 -0.381261
vn 0.6569343 -0.6055335 -0.4491842
vn 0.7475504 -0.5984246 -0.2881952
vn 0.5799516 -0.73768 -0.345665
vn 0.9748712 -0.1250913 -0.184332
vn 0.6957493 -0.6859403 -0.213117
vn 0.5430835 -0.7946437 -0.2712959
vn 0.9374735 -0.3361594 -0.09022247
vn 0.6526061 -0.7451776 -0.1371696
vn 0.5245916 -0.8258963 -0.2066374
vn 0.8751977 -0.4831358 0.02467537
vn 0.6201118 -0.7825893 -0.05491204
vn 0.5107891 -0.8473755 -0.1450835
vn 0.6017209 -0.7978977 0.03593324
vn 0.4991982 -0.8625991 -0.08199915
vn 0.8111356 -0.5625104 0.1601282
vn 0.8954185 -0.1693401 0.4117641
vn 0.9768812 -0.04597135 0.2087815
vn 0.8783104 0.3572096 0.3177612
vn 0.5934422 -0.7897059 0.1555339
vn 0.4923616 -0.870321 0.01102241
vn 0.756017 -0.5746337 0.3134235
vn 0.5675506 -0.7504741 0.3386371
vn 0.4832018 -0.8533142 0.1958848
vn 0.7084796 0.6922754 0.1371547
vn 0.6723559 0.655272 0.3443198
vn 0.7907224 0.2330047 0.566098
vn 0.696577 -0.5212538 0.4930265
vn 0.5990623 -0.1289924 0.7902439
vn 0.7698741 -0.1966378 0.607147
vn 0.6299853 0.1503771 0.7619089
vn 0.5099446 -0.6705033 0.538871
vn 0.4483305 -0.7296799 0.5163012
vn 0.4534538 -0.3384105 0.824535
vn 0.3416261 -0.3388514 0.876625
vn 0.1638703 0.04679401 0.9853715
vn 0.5839483 -0.4152689 0.6975358
vn 0.2857251 0.006026571 0.9582927
vn 0.3336395 0.02479499 0.9423745
vn 0.08145071 0.1744837 0.9812856
vn 0.1792345 0.2092877 0.9612875
vn -0.006407154 0.2713489 0.9624598
vn 0.4325437 0.136737 0.891184
vn 0.1170669 0.3774546 0.9185985
vn -0.03434987 0.4254944 0.9043089
vn 0.02012937 0.6452029 0.763746
vn 0.3135962 0.3056948 0.8990039
vn 0.423014 0.4139212 0.8060573
vn 0.1765937 0.5783352 0.7964566
vn 0.3004574 0.7664904 0.5676423
vn 0.1387866 0.8439283 0.5181924
vn 0.5654451 0.5568265 0.6084538
vn 0.4369472 0.8552521 0.2786054
vn -0.5714034 0.8024818 -0.171817
vn -0.51332 0.8432395 -0.1595293
vn -0.6872302 0.7217123 -0.08274004
vn -0.4139694 0.9097719 -0.03073289
vn -0.5535802 0.832018 0.03598442
vn -0.283457 0.9332453 0.2206927
vn -0.8388931 0.5311981 -0.1186885
vn -0.9827428 0.1834493 0.02372375
vn -0.8520539 0.5165912 0.08448508
vn -0.7692541 0.6203643 -0.1529581
vn -0.5658468 0.8066528 -0.1706713
vn -0.7438618 0.6241568 -0.2389519
vn -0.647074 0.7072375 -0.2847987
vn -0.8972537 0.207853 -0.389529
vn -0.8233626 0.2736051 -0.4972065
vn -0.9629541 0.06296919 -0.2622104
vn -0.8354956 -0.2638088 -0.4820291
vn -0.7723235 -0.301759 -0.5589793
vn -0.8029709 -0.4581228 -0.3812627
vn -0.6569332 -0.6055335 -0.4491858
vn -0.7475498 -0.5984247 -0.2881964
vn -0.5799512 -0.73768 -0.345666
vn -0.9748709 -0.1250917 -0.1843331
vn -0.6957487 -0.6859406 -0.2131177
vn -0.5430831 -0.7946438 -0.2712967
vn -0.9374734 -0.3361597 -0.09022325
vn -0.6526059 -0.7451777 -0.1371703
vn -0.5245911 -0.8258964 -0.206638
vn -0.8751975 -0.4831361 0.02467494
vn -0.6201113 -0.7825896 -0.05491263
vn -0.5107887 -0.8473756 -0.145084
vn -0.6017209 -0.7978977 0.03593285
vn -0.499198 -0.8625993 -0.08199938
vn -0.8111355 -0.5625106 0.1601278
vn -0.8954185 -0.1693401 0.4117642
vn -0.9768812 -0.0459713 0.2087817
vn -0.8783101 0.3572096 0.3177618
vn -0.5934422 -0.7897061 0.1555337
vn -0.4923614 -0.8703211 0.0110224
vn -0.7560171 -0.5746338 0.3134232
vn -0.5675502 -0.7504745 0.3386368
vn -0.4832014 -0.8533144 0.1958847
vn -0.7084792 0.6922756 0.1371559
vn -0.6723552 0.6552719 0.344321
vn -0.790722 0.2330047 0.5660985
vn -0.696577 -0.5212541 0.4930262
vn -0.5990621 -0.1289925 0.790244
vn -0.7698741 -0.1966378 0.607147
vn -0.629985 0.1503771 0.7619092
vn -0.5099445 -0.6705041 0.53887
vn -0.4483304 -0.7296809 0.5163
vn -0.4534538 -0.338412 0.8245344
vn -0.3416264 -0.3388534 0.8766241
vn -0.1638703 0.04679288 0.9853715
vn -0.5839482 -0.4152694 0.6975356
vn -0.2857248 0.006025415 0.9582927
vn -0.3336392 0.02479485 0.9423747
vn -0.08145044 0.1744832 0.9812856
vn -0.179234 0.2092877 0.9612876
vn 0.006407478 0.2713489 0.9624598
vn -0.4325431 0.1367372 0.8911843
vn -0.1170664 0.3774545 0.9185988
vn 0.03435032 0.4254944 0.9043089
vn -0.02012902 0.6452026 0.7637463
vn -0.3135955 0.3056948 0.8990042
vn -0.4230133 0.4139211 0.8060578
vn -0.1765931 0.5783349 0.7964569
vn -0.3004567 0.7664897 0.5676436
vn -0.1387863 0.8439276 0.5181937
vn -0.5654444 0.5568262 0.6084547
vn -0.4369465 0.8552518 0.2786073
g pm0676_18_Eye123Skin_0
f 3/3/3 2/2/2 1/1/1
f 3/3/3 4/4/4 2/2/2
f 4/4/4 5/5/5 2/2/2
f 4/4/4 6/6/6 5/5/5
f 2/2/2 7/7/7 1/1/1
f 8/8/8 7/7/7 2/2/2
f 9/9/9 2/2/2 5/5/5
f 9/9/9 8/8/8 2/2/2
f 7/7/7 10/10/10 1/1/1
f 10/10/10 11/11/11 1/1/1
f 10/10/10 12/12/12 11/11/11
f 12/12/12 13/13/13 11/11/11
f 13/13/13 12/12/12 14/14/14
f 14/14/14 12/12/12 10/10/10
f 15/15/15 13/13/13 14/14/14
f 16/16/16 10/10/10 7/7/7
f 16/16/16 14/14/14 10/10/10
f 15/15/15 14/14/14 17/17/17
f 18/18/18 15/15/15 17/17/17
f 19/19/19 17/17/17 14/14/14
f 18/18/18 17/17/17 19/19/19
f 16/16/16 19/19/19 14/14/14
f 20/20/20 18/18/18 19/19/19
f 20/20/20 19/19/19 21/21/21
f 21/21/21 19/19/19 16/16/16
f 22/22/22 20/20/20 21/21/21
f 23/23/23 16/16/16 7/7/7
f 23/23/23 21/21/21 16/16/16
f 23/23/23 7/7/7 8/8/8
f 21/21/21 24/24/24 22/22/22
f 24/24/24 21/21/21 23/23/23
f 24/24/24 25/25/25 22/22/22
f 26/26/26 24/24/24 23/23/23
f 26/26/26 23/23/23 8/8/8
f 24/24/24 27/27/27 25/25/25
f 24/24/24 26/26/26 27/27/27
f 27/27/27 28/28/28 25/25/25
f 26/26/26 29/29/29 27/27/27
f 26/26/26 8/8/8 29/29/29
f 27/27/27 30/30/30 28/28/28
f 30/30/30 27/27/27 29/29/29
f 30/30/30 31/31/31 28/28/28
f 30/30/30 32/32/32 31/31/31
f 32/32/32 33/33/33 31/31/31
f 34/34/34 30/30/30 29/29/29
f 30/30/30 34/34/34 32/32/32
f 34/34/34 29/29/29 35/35/35
f 8/8/8 36/36/36 29/29/29
f 29/29/29 36/36/36 35/35/35
f 37/37/37 36/36/36 8/8/8
f 35/35/35 36/36/36 37/37/37
f 9/9/9 37/37/37 8/8/8
f 32/32/32 38/38/38 33/33/33
f 38/38/38 39/39/39 33/33/33
f 34/34/34 40/40/40 32/32/32
f 34/34/34 35/35/35 40/40/40
f 38/38/38 32/32/32 40/40/40
f 38/38/38 41/41/41 39/39/39
f 41/41/41 42/42/42 39/39/39
f 9/9/9 43/43/43 37/37/37
f 43/43/43 9/9/9 5/5/5
f 43/43/43 44/44/44 37/37/37
f 43/43/43 5/5/5 44/44/44
f 45/45/45 35/35/35 37/37/37
f 45/45/45 37/37/37 44/44/44
f 46/46/46 38/38/38 40/40/40
f 38/38/38 46/46/46 41/41/41
f 46/46/46 40/40/40 47/47/47
f 35/35/35 48/48/48 40/40/40
f 40/40/40 48/48/48 47/47/47
f 49/49/49 48/48/48 35/35/35
f 45/45/45 49/49/49 35/35/35
f 47/47/47 48/48/48 49/49/49
f 41/41/41 50/50/50 42/42/42
f 50/50/50 51/51/51 42/42/42
f 51/51/51 50/50/50 52/52/52
f 52/52/52 50/50/50 41/41/41
f 53/53/53 51/51/51 52/52/52
f 53/53/53 52/52/52 54/54/54
f 46/46/46 55/55/55 41/41/41
f 55/55/55 52/52/52 41/41/41
f 46/46/46 47/47/47 55/55/55
f 52/52/52 56/56/56 54/54/54
f 56/56/56 52/52/52 55/55/55
f 54/54/54 56/56/56 57/57/57
f 57/57/57 56/56/56 55/55/55
f 47/47/47 57/57/57 55/55/55
f 58/58/58 54/54/54 57/57/57
f 58/58/58 57/57/57 59/59/59
f 59/59/59 57/57/57 47/47/47
f 60/60/60 58/58/58 59/59/59
f 61/61/61 59/59/59 47/47/47
f 61/61/61 47/47/47 49/49/49
f 60/60/60 59/59/59 62/62/62
f 63/63/63 60/60/60 62/62/62
f 63/63/63 62/62/62 64/64/64
f 61/61/61 65/65/65 59/59/59
f 65/65/65 62/62/62 59/59/59
f 65/65/65 61/61/61 66/66/66
f 61/61/61 49/49/49 66/66/66
f 65/65/65 66/66/66 62/62/62
f 62/62/62 67/67/67 64/64/64
f 66/66/66 67/67/67 62/62/62
f 64/64/64 67/67/67 68/68/68
f 68/68/68 67/67/67 66/66/66
f 69/69/69 64/64/64 68/68/68
f 69/69/69 68/68/68 6/6/6
f 70/70/70 66/66/66 49/49/49
f 70/70/70 68/68/68 66/66/66
f 45/45/45 70/70/70 49/49/49
f 70/70/70 45/45/45 44/44/44
f 70/70/70 44/44/44 68/68/68
f 68/68/68 71/71/71 6/6/6
f 44/44/44 71/71/71 68/68/68
f 6/6/6 71/71/71 5/5/5
f 5/5/5 71/71/71 44/44/44
f 74/74/74 73/73/73 72/72/72
f 75/75/75 73/73/73 74/74/74
f 76/76/76 75/75/75 74/74/74
f 77/77/77 75/75/75 76/76/76
f 78/78/78 74/74/74 72/72/72
f 78/78/78 79/79/79 74/74/74
f 74/74/74 80/80/80 76/76/76
f 79/79/79 80/80/80 74/74/74
f 81/81/81 78/78/78 72/72/72
f 82/82/82 81/81/81 72/72/72
f 83/83/83 81/81/81 82/82/82
f 84/84/84 83/83/83 82/82/82
f 83/83/83 84/84/84 85/85/85
f 83/83/83 85/85/85 81/81/81
f 84/84/84 86/86/86 85/85/85
f 81/81/81 87/87/87 78/78/78
f 85/85/85 87/87/87 81/81/81
f 85/85/85 86/86/86 88/88/88
f 86/86/86 89/89/89 88/88/88
f 88/88/88 90/90/90 85/85/85
f 88/88/88 89/89/89 90/90/90
f 90/90/90 87/87/87 85/85/85
f 89/89/89 91/91/91 90/90/90
f 90/90/90 91/91/91 92/92/92
f 90/90/90 92/92/92 87/87/87
f 91/91/91 93/93/93 92/92/92
f 87/87/87 94/94/94 78/78/78
f 92/92/92 94/94/94 87/87/87
f 78/78/78 94/94/94 79/79/79
f 95/95/95 92/92/92 93/93/93
f 92/92/92 95/95/95 94/94/94
f 96/96/96 95/95/95 93/93/93
f 95/95/95 97/97/97 94/94/94
f 94/94/94 97/97/97 79/79/79
f 98/98/98 95/95/95 96/96/96
f 97/97/97 95/95/95 98/98/98
f 99/99/99 98/98/98 96/96/96
f 100/100/100 97/97/97 98/98/98
f 79/79/79 97/97/97 100/100/100
f 101/101/101 98/98/98 99/99/99
f 98/98/98 101/101/101 100/100/100
f 102/102/102 101/101/101 99/99/99
f 103/103/103 101/101/101 102/102/102
f 104/104/104 103/103/103 102/102/102
f 101/101/101 105/105/105 100/100/100
f 105/105/105 101/101/101 103/103/103
f 100/100/100 105/105/105 106/106/106
f 107/107/107 79/79/79 100/100/100
f 107/107/107 100/100/100 106/106/106
f 107/107/107 108/108/108 79/79/79
f 107/107/107 106/106/106 108/108/108
f 108/108/108 80/80/80 79/79/79
f 109/109/109 103/103/103 104/104/104
f 110/110/110 109/109/109 104/104/104
f 111/111/111 105/105/105 103/103/103
f 106/106/106 105/105/105 111/111/111
f 103/103/103 109/109/109 111/111/111
f 112/112/112 109/109/109 110/110/110
f 113/113/113 112/112/112 110/110/110
f 114/114/114 80/80/80 108/108/108
f 80/80/80 114/114/114 76/76/76
f 115/115/115 114/114/114 108/108/108
f 76/76/76 114/114/114 115/115/115
f 106/106/106 116/116/116 108/108/108
f 108/108/108 116/116/116 115/115/115
f 109/109/109 117/117/117 111/111/111
f 117/117/117 109/109/109 112/112/112
f 111/111/111 117/117/117 118/118/118
f 119/119/119 106/106/106 111/111/111
f 119/119/119 111/111/111 118/118/118
f 119/119/119 120/120/120 106/106/106
f 120/120/120 116/116/116 106/106/106
f 119/119/119 118/118/118 120/120/120
f 121/121/121 112/112/112 113/113/113
f 122/122/122 121/121/121 113/113/113
f 121/121/121 122/122/122 123/123/123
f 121/121/121 123/123/123 112/112/112
f 122/122/122 124/124/124 123/123/123
f 123/123/123 124/124/124 125/125/125
f 126/126/126 117/117/117 112/112/112
f 123/123/123 126/126/126 112/112/112
f 118/118/118 117/117/117 126/126/126
f 127/127/127 123/123/123 125/125/125
f 123/123/123 127/127/127 126/126/126
f 127/127/127 125/125/125 128/128/128
f 127/127/127 128/128/128 126/126/126
f 128/128/128 118/118/118 126/126/126
f 125/125/125 129/129/129 128/128/128
f 128/128/128 129/129/129 130/130/130
f 128/128/128 130/130/130 118/118/118
f 129/129/129 131/131/131 130/130/130
f 130/130/130 132/132/132 118/118/118
f 118/118/118 132/132/132 120/120/120
f 130/130/130 131/131/131 133/133/133
f 131/131/131 134/134/134 133/133/133
f 133/133/133 134/134/134 135/135/135
f 136/136/136 132/132/132 130/130/130
f 133/133/133 136/136/136 130/130/130
f 132/132/132 136/136/136 137/137/137
f 120/120/120 132/132/132 137/137/137
f 137/137/137 136/136/136 133/133/133
f 138/138/138 133/133/133 135/135/135
f 138/138/138 137/137/137 133/133/133
f 138/138/138 135/135/135 139/139/139
f 138/138/138 139/139/139 137/137/137
f 135/135/135 140/140/140 139/139/139
f 139/139/139 140/140/140 77/77/77
f 137/137/137 141/141/141 120/120/120
f 139/139/139 141/141/141 137/137/137
f 141/141/141 116/116/116 120/120/120
f 116/116/116 141/141/141 115/115/115
f 115/115/115 141/141/141 139/139/139
f 142/142/142 139/139/139 77/77/77
f 142/142/142 115/115/115 139/139/139
f 142/142/142 77/77/77 76/76/76
f 142/142/142 76/76/76 115/115/115
