g pm0720_12_RArmC2Skin
v -2.634895 -0.1348951 1.478488
v -2.5 -0.1975002 1.478488
v -2.5 -0.1114348 1.25841
v -2.576111 -0.07611135 1.25841
v -2.6975 1.455543E-08 1.478488
v -2.5 -0.03179697 1.123861
v -2.611435 1.698018E-08 1.25841
v -2.634895 0.1348952 1.478488
v -2.531797 1.847677E-08 1.123861
v -2.5 1.90627E-08 1.098488
v -2.576111 0.07611137 1.25841
v -2.5 0.03179701 1.123861
v -2.5 0.1114348 1.25841
v -2.5 0.1975002 1.478489
v -2.365105 0.1348952 1.478488
v -2.423888 0.07611138 1.25841
v -2.3025 1.455543E-08 1.478488
v -2.468203 1.828947E-08 1.123861
v -2.5 -0.03179697 1.123861
v -2.388565 1.632674E-08 1.25841
v -2.365105 -0.1348951 1.478488
v -2.423888 -0.07611135 1.25841
v -2.5 -0.1114348 1.25841
v -2.5 -0.1975002 1.478488
v -2.628663 -0.2228515 1.557278
v -2.5 -0.2573268 1.557278
v -2.5 -0.2972707 1.512494
v -2.648635 -0.2574439 1.512494
v -2.722852 -0.1286634 1.557278
v -2.5 -0.2824264 1.457313
v -2.757444 -0.1486353 1.512494
v -2.757327 1.649911E-08 1.557278
v -2.641213 -0.2445884 1.457313
v -2.5 -0.24 1.439253
v -2.797271 -2.842377E-16 1.512494
v -2.722852 0.1286634 1.557278
v -2.744588 -0.1412132 1.457313
v -2.663923 -0.163923 1.439253
v -2.5 -0.1975002 1.478488
v -2.634895 -0.1348951 1.478488
v -2.757444 0.1486353 1.512494
v -2.628663 0.2228515 1.557278
v -2.782426 -1.78814E-09 1.457313
v -2.74 -2.682209E-09 1.439253
v -2.6975 1.455543E-08 1.478488
v -2.648635 0.2574439 1.512494
v -2.5 0.2573268 1.557278
v -2.744588 0.1412132 1.457313
v -2.663923 0.163923 1.439253
v -2.634895 0.1348952 1.478488
v -2.5 0.2972707 1.512494
v -2.371336 0.2228515 1.557278
v -2.641213 0.2445884 1.457314
v -2.5 0.24 1.439253
v -2.5 0.1975002 1.478489
v -2.5 0.2824264 1.457313
v -2.351364 0.2574439 1.512494
v -2.277148 0.1286634 1.557278
v -2.336077 0.163923 1.439253
v -2.365105 0.1348952 1.478488
v -2.358787 0.2445884 1.457313
v -2.242556 0.1486353 1.512494
v -2.242673 1.649911E-08 1.557278
v -2.255411 0.1412132 1.457313
v -2.202729 -2.842377E-16 1.512494
v -2.277148 -0.1286634 1.557278
v -2.26 -2.682209E-09 1.439253
v -2.3025 1.455543E-08 1.478488
v -2.217574 -1.78814E-09 1.457313
v -2.242556 -0.1486353 1.512494
v -2.371336 -0.2228515 1.557278
v -2.336077 -0.163923 1.439253
v -2.365105 -0.1348951 1.478488
v -2.255411 -0.1412132 1.457313
v -2.351365 -0.2574439 1.512494
v -2.5 -0.2573268 1.557278
v -2.5 -0.2972707 1.512494
v -2.358787 -0.2445884 1.457313
v -2.5 -0.2824264 1.457313
v -2.5 -0.24 1.439253
v -2.5 -0.1975002 1.478488
vt 0.3280401 0.7222009
vt 0.3072829 0.7734375
vt 0.4513421 0.7734375
vt 0.46312 0.7499378
vt 0.3834004 0.6771476
vt 0.5472631 0.7734373
vt 0.4897137 0.7295747
vt 0.4724712 0.6472647
vt 0.5551887 0.7614267
vt 0.5781245 0.7734375
vt 0.5305839 0.7163396
vt 0.578125 0.7564328
vt 0.578125 0.7110753
vt 0.578125 0.6343393
vt 0.6837792 0.6472647
vt 0.6256661 0.7163396
vt 0.7728496 0.6771476
vt 0.6010609 0.7614267
vt 0.6089864 0.7734373
vt 0.6665363 0.7295749
vt 0.8282099 0.7222011
vt 0.6931286 0.7499378
vt 0.7049079 0.7734375
vt 0.8489671 0.7734375
vt 0.8993149 0.9873161
vt 0.9798417 0.9873161
vt 0.9798417 0.9702184
vt 0.8990073 0.9702184
vt 0.8204579 0.9873161
vt 0.9798417 0.9530723
vt 0.8207645 0.9702184
vt 0.739934 0.9873161
vt 0.8986053 0.9530723
vt 0.9798417 0.9362226
vt 0.7399311 0.9702184
vt 0.6593928 0.9873161
vt 0.8211632 0.9530723
vt 0.8598781 0.9362223
vt 0.9798417 0.9186172
vt 0.8598776 0.9186175
vt 0.6590958 0.9702184
vt 0.5805235 0.9873161
vt 0.7399316 0.9530723
vt 0.739933 0.9362226
vt 0.7399359 0.9186172
vt 0.580843 0.9702184
vt 0.5000257 0.9873161
vt 0.6587 0.9530723
vt 0.6199861 0.9362223
vt 0.6199894 0.9186172
vt 0.5000257 0.9702184
vt 0.4195232 0.9873161
vt 0.5812511 0.9530723
vt 0.5000248 0.9362226
vt 0.5000248 0.9186172
vt 0.5000248 0.9530723
vt 0.4192038 0.9702182
vt 0.3406458 0.9873161
vt 0.3800554 0.9362223
vt 0.3800516 0.9186172
vt 0.4187951 0.9530723
vt 0.3409433 0.9702184
vt 0.2600923 0.9873161
vt 0.3413377 0.9530723
vt 0.2600951 0.9702184
vt 0.1795588 0.9873161
vt 0.2600937 0.9362226
vt 0.2600908 0.9186172
vt 0.2600956 0.9530721
vt 0.1792517 0.9702184
vt 0.1006918 0.9873161
vt 0.1401324 0.9362226
vt 0.1401348 0.9186172
vt 0.1788526 0.9530723
vt 0.1009998 0.9702184
vt 0.02015829 0.9873161
vt 0.02015829 0.9702184
vt 0.1014023 0.9530723
vt 0.02015829 0.9530723
vt 0.02015829 0.9362226
vt 0.02015829 0.9186172
vn -0.6614863 -0.6614872 -0.3533704
vn -1.788139E-07 -0.9313179 -0.3642074
vn -6.556511E-07 -0.8986652 -0.4386351
vn -0.6315915 -0.6315925 -0.4496478
vn -0.9313179 0 -0.3642075
vn -1.192093E-07 -0.7553167 -0.6553599
vn -0.8986652 0 -0.4386352
vn -0.6614863 0.6614871 -0.3533704
vn -0.7553174 1.192093E-07 -0.6553591
vn -5.364418E-07 2.384186E-07 -1
vn -0.6315914 0.6315925 -0.4496478
vn 0 0.7553167 -0.6553599
vn -7.152559E-07 0.8986652 -0.4386351
vn -4.172325E-07 0.9313179 -0.3642073
vn 0.6614863 0.6614872 -0.3533704
vn 0.6315918 0.6315918 -0.4496484
vn 0.9313179 1.192093E-07 -0.364207
vn 0.755317 0 -0.6553596
vn -1.192093E-07 -0.7553167 -0.6553599
vn 0.8986654 0 -0.438635
vn 0.6614864 -0.661487 -0.3533705
vn 0.6315917 -0.6315919 -0.4496484
vn -6.556511E-07 -0.8986652 -0.4386351
vn -1.788139E-07 -0.9313179 -0.3642074
vn -0.3731443 -0.6463046 0.6656227
vn -4.768372E-07 -0.7462881 0.665623
vn -3.576279E-07 -0.9722276 0.2340374
vn -0.486114 -0.8419737 0.234037
vn -0.6463041 -0.373145 0.6656228
vn 1.192093E-07 -0.7169976 -0.6970757
vn -0.8419736 -0.4861146 0.2340366
vn -0.7462879 0 0.6656233
vn -0.3808467 -0.6301267 -0.6766802
vn 5.960464E-07 0.2067122 -0.9784017
vn -0.9722277 -1.788139E-07 0.2340369
vn -0.6463031 0.3731449 0.6656238
vn -0.630129 -0.3808445 -0.6766792
vn 0.05959344 0.05959558 -0.9964421
vn 7.152557E-07 0.678325 -0.7347621
vn 0.488564 0.4885638 -0.7229182
vn -0.8419733 0.4861145 0.2340375
vn -0.3731431 0.646303 0.665625
vn -0.7169983 -4.768371E-07 -0.6970749
vn 0.2067107 -7.152557E-07 -0.9784021
vn 0.6783255 -7.152558E-07 -0.7347615
vn -0.4861138 0.8419737 0.2340381
vn -1.192093E-07 0.7462859 0.6656256
vn -0.6301277 0.3808469 -0.6766791
vn 0.05959451 -0.05959296 -0.9964423
vn 0.4885649 -0.4885657 -0.7229163
vn 0 0.9722273 0.2340384
vn 0.3731433 0.646303 0.6656249
vn -0.3808452 0.63013 -0.676678
vn 2.384186E-07 -0.20671 -0.9784023
vn 1.192093E-07 -0.6783273 -0.7347599
vn 2.384186E-07 0.7169997 -0.6970734
vn 0.486114 0.8419735 0.2340382
vn 0.6463034 0.3731441 0.665624
vn -0.05959505 -0.05959285 -0.9964423
vn -0.4885661 -0.488565 -0.722916
vn 0.3808455 0.6301297 -0.676678
vn 0.8419737 0.4861135 0.2340379
vn 0.746288 0 0.6656231
vn 0.6301281 0.3808464 -0.676679
vn 0.9722276 -1.788139E-07 0.2340374
vn 0.6463045 -0.3731442 0.6656229
vn -0.2067118 -5.960464E-07 -0.9784018
vn -0.678327 -4.172325E-07 -0.7347602
vn 0.7169988 -5.364418E-07 -0.6970744
vn 0.8419739 -0.4861136 0.2340371
vn 0.373144 -0.6463045 0.6656229
vn -0.05959332 0.05959594 -0.9964421
vn -0.4885639 0.488564 -0.722918
vn 0.6301294 -0.3808441 -0.6766792
vn 0.4861138 -0.8419738 0.2340373
vn -4.768372E-07 -0.7462881 0.665623
vn -3.576279E-07 -0.9722276 0.2340374
vn 0.3808467 -0.6301265 -0.6766803
vn 1.192093E-07 -0.7169976 -0.6970757
vn 5.960464E-07 0.2067122 -0.9784017
vn 7.152557E-07 0.678325 -0.7347621
g pm0720_12_RArmC2Skin_0
f 3/3/3 2/2/2 1/1/1
f 4/4/4 3/3/3 1/1/1
f 4/4/4 1/1/1 5/5/5
f 3/3/3 4/4/4 6/6/6
f 7/7/7 4/4/4 5/5/5
f 7/7/7 5/5/5 8/8/8
f 4/4/4 9/9/9 6/6/6
f 4/4/4 7/7/7 9/9/9
f 6/6/6 9/9/9 10/10/10
f 11/11/11 7/7/7 8/8/8
f 9/9/9 7/7/7 11/11/11
f 9/9/9 12/12/12 10/10/10
f 9/9/9 11/11/11 12/12/12
f 11/11/11 8/8/8 13/13/13
f 11/11/11 13/13/13 12/12/12
f 8/8/8 14/14/14 13/13/13
f 13/13/13 14/14/14 15/15/15
f 16/16/16 13/13/13 15/15/15
f 13/13/13 16/16/16 12/12/12
f 16/16/16 15/15/15 17/17/17
f 12/12/12 18/18/18 10/10/10
f 16/16/16 18/18/18 12/12/12
f 18/18/18 19/19/19 10/10/10
f 20/20/20 16/16/16 17/17/17
f 16/16/16 20/20/20 18/18/18
f 20/20/20 17/17/17 21/21/21
f 22/22/22 19/19/19 18/18/18
f 20/20/20 22/22/22 18/18/18
f 22/22/22 20/20/20 21/21/21
f 22/22/22 23/23/23 19/19/19
f 22/22/22 21/21/21 24/24/24
f 23/23/23 22/22/22 24/24/24
g pm0720_12_RArmC2Skin_1
f 27/27/27 26/26/26 25/25/25
f 28/28/28 27/27/27 25/25/25
f 28/28/28 25/25/25 29/29/29
f 30/30/30 27/27/27 28/28/28
f 31/31/31 28/28/28 29/29/29
f 31/31/31 29/29/29 32/32/32
f 33/33/33 30/30/30 28/28/28
f 33/33/33 28/28/28 31/31/31
f 34/34/34 30/30/30 33/33/33
f 35/35/35 31/31/31 32/32/32
f 35/35/35 32/32/32 36/36/36
f 37/37/37 33/33/33 31/31/31
f 37/37/37 31/31/31 35/35/35
f 38/38/38 34/34/34 33/33/33
f 38/38/38 33/33/33 37/37/37
f 39/39/39 34/34/34 38/38/38
f 40/40/40 39/39/39 38/38/38
f 41/41/41 35/35/35 36/36/36
f 41/41/41 36/36/36 42/42/42
f 43/43/43 37/37/37 35/35/35
f 38/38/38 37/37/37 43/43/43
f 43/43/43 35/35/35 41/41/41
f 40/40/40 38/38/38 44/44/44
f 44/44/44 38/38/38 43/43/43
f 45/45/45 40/40/40 44/44/44
f 46/46/46 41/41/41 42/42/42
f 46/46/46 42/42/42 47/47/47
f 48/48/48 43/43/43 41/41/41
f 44/44/44 43/43/43 48/48/48
f 48/48/48 41/41/41 46/46/46
f 45/45/45 44/44/44 49/49/49
f 49/49/49 44/44/44 48/48/48
f 50/50/50 45/45/45 49/49/49
f 51/51/51 46/46/46 47/47/47
f 51/51/51 47/47/47 52/52/52
f 53/53/53 48/48/48 46/46/46
f 49/49/49 48/48/48 53/53/53
f 53/53/53 46/46/46 51/51/51
f 50/50/50 49/49/49 54/54/54
f 55/55/55 50/50/50 54/54/54
f 49/49/49 53/53/53 56/56/56
f 56/56/56 53/53/53 51/51/51
f 54/54/54 49/49/49 56/56/56
f 57/57/57 51/51/51 52/52/52
f 56/56/56 51/51/51 57/57/57
f 57/57/57 52/52/52 58/58/58
f 55/55/55 54/54/54 59/59/59
f 60/60/60 55/55/55 59/59/59
f 54/54/54 56/56/56 61/61/61
f 61/61/61 56/56/56 57/57/57
f 59/59/59 54/54/54 61/61/61
f 62/62/62 57/57/57 58/58/58
f 61/61/61 57/57/57 62/62/62
f 62/62/62 58/58/58 63/63/63
f 64/64/64 61/61/61 62/62/62
f 59/59/59 61/61/61 64/64/64
f 65/65/65 62/62/62 63/63/63
f 64/64/64 62/62/62 65/65/65
f 65/65/65 63/63/63 66/66/66
f 60/60/60 59/59/59 67/67/67
f 68/68/68 60/60/60 67/67/67
f 59/59/59 64/64/64 69/69/69
f 69/69/69 64/64/64 65/65/65
f 67/67/67 59/59/59 69/69/69
f 70/70/70 65/65/65 66/66/66
f 69/69/69 65/65/65 70/70/70
f 70/70/70 66/66/66 71/71/71
f 68/68/68 67/67/67 72/72/72
f 73/73/73 68/68/68 72/72/72
f 67/67/67 69/69/69 74/74/74
f 74/74/74 69/69/69 70/70/70
f 72/72/72 67/67/67 74/74/74
f 75/75/75 70/70/70 71/71/71
f 74/74/74 70/70/70 75/75/75
f 75/75/75 71/71/71 76/76/76
f 77/77/77 75/75/75 76/76/76
f 78/78/78 74/74/74 75/75/75
f 78/78/78 75/75/75 77/77/77
f 72/72/72 74/74/74 78/78/78
f 79/79/79 78/78/78 77/77/77
f 72/72/72 78/78/78 79/79/79
f 80/80/80 72/72/72 79/79/79
f 73/73/73 72/72/72 80/80/80
f 81/81/81 73/73/73 80/80/80
