g pm0730_00_EyelashDSkin
v 0.04080599 1.69308 0.1168227
v 0.04118412 1.69322 0.1160057
v 0.04095092 1.694115 0.1168209
v 0.04353111 1.694525 0.1129313
v 0.04206561 1.696536 0.1146593
v 0.04500001 1.701879 0.1099268
v 0.04691463 1.697217 0.1076596
v 0.04877612 1.708243 0.1031817
v 0.05142028 1.701203 0.1001733
v 0.05795224 1.707347 0.08812244
v 0.05518464 1.717973 0.09237766
v 0.06179323 1.72794 0.08036479
v 0.06435523 1.714023 0.07563528
v 0.06850016 1.717306 0.06722106
v 0.0689308 1.73045 0.06704576
v 0.07095474 1.743546 0.06707399
v 0.07217716 1.718303 0.06003201
v 0.07598128 1.728048 0.05204505
v 0.07948007 1.739228 0.0515566
v 0.07531197 1.718071 0.05393155
v 0.07872237 1.723731 0.04649883
v 0.08421718 1.715735 0.03764737
v 0.0854859 1.735278 0.04372246
v 0.06179323 1.72794 0.08036479
v 0.07095474 1.743546 0.06707399
v 0.07329411 1.74107 0.06858631
v 0.06536963 1.726391 0.07987592
v 0.07075351 1.727362 0.06923975
v 0.0689308 1.73045 0.06704576
v 0.07095474 1.743546 0.06707399
v 0.05518464 1.717973 0.09237766
v 0.05848468 1.716573 0.09196467
v 0.06671137 1.715839 0.07650218
v 0.05190201 1.707024 0.1028626
v 0.04877612 1.708243 0.1031817
v 0.04500001 1.701879 0.1099268
v 0.04761163 1.700911 0.1096541
v 0.04206561 1.696536 0.1146593
v 0.05304213 1.702621 0.1011585
v 0.04833012 1.698319 0.1088082
v 0.04451674 1.695695 0.114397
v 0.06031035 1.709325 0.08927793
v 0.05795224 1.707347 0.08812244
v 0.05142028 1.701203 0.1001733
v 0.04691463 1.697217 0.1076596
v 0.06435523 1.714023 0.07563528
v 0.04353111 1.694525 0.1129313
v 0.04307238 1.693855 0.1165948
v 0.04095092 1.694115 0.1168209
v 0.04080599 1.69308 0.1168227
v 0.04118412 1.69322 0.1160057
v 0.04080599 1.69308 0.1168227
v 0.0709236 1.719161 0.06754719
v 0.06850016 1.717306 0.06722106
v 0.07217716 1.718303 0.06003201
v 0.07457847 1.720292 0.05991704
v 0.07531197 1.718071 0.05393155
v 0.07762025 1.72002 0.05401872
v 0.08084441 1.723529 0.04844201
v 0.08516145 1.7168 0.04024079
v 0.08421718 1.715735 0.03764737
v 0.08421718 1.715735 0.03764737
v 0.07872237 1.723731 0.04649883
v 0.0854859 1.735278 0.04372246
v 0.08663552 1.732941 0.04582176
v 0.07804294 1.726735 0.05382048
v 0.0854859 1.735278 0.04372246
v 0.07598128 1.728048 0.05204505
v 0.08148074 1.737361 0.05316702
v 0.07598128 1.728048 0.05204505
v 0.07948007 1.739228 0.0515566
v 0.07948007 1.739228 0.0515566
v 0.0689308 1.73045 0.06704576
v -0.04080599 1.69308 0.1168227
v -0.04095092 1.694115 0.1168209
v -0.04118412 1.69322 0.1160057
v -0.04353111 1.694525 0.1129313
v -0.04206561 1.696536 0.1146593
v -0.04500001 1.701879 0.1099268
v -0.04691463 1.697217 0.1076596
v -0.04877612 1.708243 0.1031817
v -0.05142028 1.701203 0.1001733
v -0.05795224 1.707347 0.08812244
v -0.05518464 1.717973 0.09237766
v -0.06179323 1.72794 0.08036479
v -0.06435523 1.714023 0.07563528
v -0.06850016 1.717306 0.06722106
v -0.0689308 1.73045 0.06704576
v -0.07095474 1.743546 0.06707399
v -0.07217716 1.718303 0.06003201
v -0.07598128 1.728048 0.05204505
v -0.07948007 1.739228 0.0515566
v -0.07531197 1.718071 0.05393155
v -0.07872237 1.723731 0.04649883
v -0.08421718 1.715735 0.03764737
v -0.0854859 1.735278 0.04372246
v -0.06179323 1.72794 0.08036479
v -0.07329411 1.74107 0.06858631
v -0.07095474 1.743546 0.06707399
v -0.06536963 1.726391 0.07987592
v -0.07075351 1.727362 0.06923975
v -0.0689308 1.73045 0.06704576
v -0.07095474 1.743546 0.06707399
v -0.05518464 1.717973 0.09237766
v -0.05848468 1.716573 0.09196467
v -0.06671137 1.715839 0.07650218
v -0.05190201 1.707024 0.1028626
v -0.04877612 1.708243 0.1031817
v -0.04500001 1.701879 0.1099268
v -0.04761163 1.700911 0.1096541
v -0.04206561 1.696536 0.1146593
v -0.05304213 1.702621 0.1011585
v -0.04833012 1.698319 0.1088082
v -0.04451674 1.695695 0.114397
v -0.06031035 1.709325 0.08927793
v -0.05795224 1.707347 0.08812244
v -0.05142028 1.701203 0.1001733
v -0.04691463 1.697217 0.1076596
v -0.06435523 1.714023 0.07563528
v -0.04353111 1.694525 0.1129313
v -0.04307238 1.693855 0.1165948
v -0.04095092 1.694115 0.1168209
v -0.04080599 1.69308 0.1168227
v -0.04118412 1.69322 0.1160057
v -0.04080599 1.69308 0.1168227
v -0.0709236 1.719161 0.06754719
v -0.06850016 1.717306 0.06722106
v -0.07217716 1.718303 0.06003201
v -0.07457847 1.720292 0.05991704
v -0.07804294 1.726735 0.05382048
v -0.07531197 1.718071 0.05393155
v -0.07762025 1.72002 0.05401872
v -0.08516145 1.7168 0.04024079
v -0.08421718 1.715735 0.03764737
v -0.08084441 1.723529 0.04844201
v -0.08421718 1.715735 0.03764737
v -0.07872237 1.723731 0.04649883
v -0.0854859 1.735278 0.04372246
v -0.08663552 1.732941 0.04582176
v -0.0854859 1.735278 0.04372246
v -0.07598128 1.728048 0.05204505
v -0.08148074 1.737361 0.05316702
v -0.07598128 1.728048 0.05204505
v -0.07948007 1.739228 0.0515566
v -0.07948007 1.739228 0.0515566
v -0.0689308 1.73045 0.06704576
vt 0.1466582 0.7026921
vt 0.1512482 0.7033592
vt 0.1478676 0.7087035
vt 0.1576912 0.7075394
vt 0.1532424 0.7141991
vt 0.1603668 0.7139347
vt 0.1630043 0.7110929
vt 0.1699766 0.7169642
vt 0.1733853 0.7127025
vt 0.1896591 0.7151479
vt 0.1855686 0.7214974
vt 0.2025136 0.726046
vt 0.2064154 0.7178233
vt 0.2174513 0.718945
vt 0.2198657 0.7262982
vt 0.2229118 0.7336497
vt 0.2266695 0.7188833
vt 0.2381036 0.7236704
vt 0.2421149 0.7300034
vt 0.2343326 0.7182217
vt 0.2443838 0.7207702
vt 0.2547936 0.7154527
vt 0.2530104 0.7272008
vt 0.07563317 0.7401573
vt 0.0581224 0.7491341
vt 0.05671358 0.7471513
vt 0.07218623 0.7387682
vt 0.05902338 0.7393818
vt 0.05431545 0.743126
vt 0.05292773 0.7480565
vt 0.09040678 0.7343614
vt 0.08730471 0.7330218
vt 0.0674156 0.732411
vt 0.1017778 0.7278221
vt 0.1046593 0.7290776
vt 0.1135197 0.7282054
vt 0.1110661 0.7258318
vt 0.1209447 0.7270896
vt 0.09921801 0.7251445
vt 0.109737 0.7220854
vt 0.1177167 0.7217569
vt 0.08335197 0.7286389
vt 0.08266354 0.7266836
vt 0.09867811 0.7237417
vt 0.1090019 0.7191533
vt 0.06685603 0.7305602
vt 0.1153646 0.7169454
vt 0.1208305 0.7208292
vt 0.1238185 0.7240697
vt 0.1334043 0.7183478
vt 0.1197461 0.7151439
vt 0.1315325 0.7169201
vt 0.05625761 0.7345544
vt 0.05637181 0.7327141
vt 0.04734445 0.7338963
vt 0.04667735 0.7357286
vt 0.03947544 0.7345431
vt 0.03899813 0.7363243
vt 0.03314209 0.7392811
vt 0.02006674 0.7360815
vt 0.01772249 0.7347612
vt 0.01677442 0.7367456
vt 0.02957726 0.7401491
vt 0.02627778 0.7461058
vt 0.02985215 0.7455165
vt 0.04047441 0.7403181
vt 0.03084671 0.7473385
vt 0.03745091 0.743657
vt 0.03954697 0.7466392
vt 0.03745091 0.743657
vt 0.03615785 0.7472045
vt 0.04057693 0.7483569
vt 0.05431545 0.743126
vt 0.1466581 0.7026921
vt 0.1478676 0.7087035
vt 0.1512481 0.7033592
vt 0.1576913 0.7075394
vt 0.1532424 0.7141991
vt 0.1603667 0.7139347
vt 0.1630043 0.7110929
vt 0.1699766 0.7169642
vt 0.1733852 0.7127025
vt 0.1896591 0.7151479
vt 0.1855686 0.7214974
vt 0.2025134 0.726046
vt 0.2064154 0.7178233
vt 0.2174513 0.718945
vt 0.2198657 0.7262982
vt 0.2229118 0.7336497
vt 0.2266696 0.7188833
vt 0.2381035 0.7236704
vt 0.2421149 0.7300034
vt 0.2343326 0.7182217
vt 0.2443837 0.7207702
vt 0.2547936 0.7154527
vt 0.2530104 0.7272008
vt 0.07563306 0.7401573
vt 0.05671354 0.7471513
vt 0.05812232 0.7491341
vt 0.07218605 0.7387682
vt 0.05902324 0.7393818
vt 0.05431544 0.743126
vt 0.05292773 0.7480565
vt 0.0904067 0.7343614
vt 0.08730455 0.7330218
vt 0.06741558 0.732411
vt 0.1017779 0.7278221
vt 0.1046593 0.7290776
vt 0.1135196 0.7282054
vt 0.1110661 0.7258318
vt 0.1209446 0.7270896
vt 0.09921788 0.7251445
vt 0.109737 0.7220854
vt 0.1177167 0.7217569
vt 0.08335198 0.7286389
vt 0.08266352 0.7266836
vt 0.09867816 0.7237417
vt 0.1090019 0.7191533
vt 0.06685618 0.7305602
vt 0.1153644 0.7169454
vt 0.1208306 0.7208292
vt 0.1238185 0.7240697
vt 0.1334043 0.7183478
vt 0.1197462 0.7151439
vt 0.1315325 0.7169201
vt 0.05625754 0.7345544
vt 0.0563718 0.7327141
vt 0.04734432 0.7338963
vt 0.04667732 0.7357286
vt 0.04047441 0.7403181
vt 0.03947556 0.7345431
vt 0.03899803 0.7363243
vt 0.02006662 0.7360815
vt 0.01772249 0.7347612
vt 0.03314203 0.7392811
vt 0.01677435 0.7367456
vt 0.02957713 0.7401491
vt 0.02627778 0.7461058
vt 0.02985218 0.7455165
vt 0.03084674 0.7473385
vt 0.03745111 0.743657
vt 0.03954702 0.7466392
vt 0.03745111 0.743657
vt 0.03615787 0.7472045
vt 0.04057696 0.7483569
vt 0.05431544 0.743126
vn -0.8504813 0.004791506 -0.5259835
vn -0.847931 -0.004432164 -0.5300879
vn -0.8479381 -0.004425279 -0.5300767
vn -0.8421681 -0.0290916 -0.5384299
vn -0.8422092 -0.02889449 -0.5383762
vn -0.8426407 -0.0456004 -0.5365419
vn -0.842558 -0.04623894 -0.5366171
vn -0.8528163 -0.0405079 -0.5206377
vn -0.8526446 -0.04260086 -0.5207518
vn -0.867192 -0.01927715 -0.4976007
vn -0.8675696 -0.01288842 -0.4971488
vn -0.8795626 0.03303025 -0.4746354
vn -0.8788639 0.01527212 -0.4768281
vn -0.8824694 0.0426943 -0.468428
vn -0.8806061 0.06652572 -0.4691559
vn -0.8823196 0.05671624 -0.4672209
vn -0.8798068 0.04996572 -0.4726982
vn -0.8752922 0.07656602 -0.4774947
vn -0.8774441 0.0878465 -0.4715663
vn -0.8767677 0.03903569 -0.4793273
vn -0.873063 0.05776932 -0.484173
vn -0.8750399 0.03677128 -0.4826521
vn -0.8701134 0.07886924 -0.4865001
vn 0.7406954 0.3403826 0.5792322
vn 0.8049163 0.3382247 0.4875588
vn 0.8428519 0.2583321 0.472086
vn 0.8396565 0.164409 0.5176356
vn 0.895914 0.180036 0.4061098
vn 0.8593422 0.2922675 0.4196555
vn 0.8049163 0.3382247 0.4875588
vn 0.6643115 0.3417861 0.664735
vn 0.7855505 0.1417657 0.6023395
vn 0.888674 -0.2324324 0.395264
vn 0.7483411 0.1256629 0.6513021
vn 0.6166591 0.3294736 0.7149676
vn 0.604089 0.2631884 0.7522023
vn 0.7291897 0.06232599 0.6814673
vn 0.6218444 0.09935154 0.7768132
vn 0.8521059 -0.2253173 0.4723851
vn 0.8144854 -0.2117942 0.5401451
vn 0.736217 -0.1292348 0.6642913
vn 0.8725792 -0.2293806 0.4312657
vn 0.8447637 -0.4555977 0.2807223
vn 0.8354981 -0.4561223 0.3064235
vn 0.8130737 -0.4395795 0.3816818
vn 0.8444858 -0.4567324 0.2797126
vn 0.7639768 -0.3957424 0.5096346
vn 0.6651228 -0.2259817 0.711719
vn 0.6194715 -0.09166715 0.7796487
vn 0.6446433 -0.2514721 0.7219396
vn 0.6901698 -0.3581381 0.6288108
vn 0.6446433 -0.2514721 0.7219396
vn 0.9007901 -0.2467306 0.3573532
vn 0.8405065 -0.4597432 0.2866794
vn 0.848479 -0.447449 0.2826178
vn 0.9113492 -0.2672873 0.3130496
vn 0.8889964 -0.3913494 0.2377627
vn 0.9265276 -0.2777654 0.253758
vn 0.9711046 -0.05572078 0.2320585
vn 0.9514831 -0.2254966 0.2093587
vn 0.9491189 -0.2494595 0.1922061
vn 0.9491189 -0.2494595 0.1922061
vn 0.9832588 -0.01255381 0.1817814
vn 0.9552798 0.1977717 0.2198338
vn 0.9614189 0.1347625 0.2398179
vn 0.9441901 0.1230447 0.3055569
vn 0.9552798 0.1977717 0.2198338
vn 0.9319788 0.2495272 0.2629671
vn 0.9100152 0.2388508 0.338855
vn 0.9205883 0.2620943 0.2895231
vn 0.8939074 0.3121704 0.3216818
vn 0.8939074 0.3121704 0.3216818
vn 0.8834628 0.301068 0.3589587
vn 0.8504867 0.004791983 -0.5259747
vn 0.8479431 -0.004424859 -0.5300688
vn 0.8479361 -0.004431803 -0.5300799
vn 0.8421718 -0.02909141 -0.538424
vn 0.8422129 -0.02889437 -0.5383704
vn 0.8426426 -0.04560039 -0.536539
vn 0.84256 -0.04623894 -0.5366141
vn 0.8528165 -0.04050801 -0.5206373
vn 0.8526447 -0.04260086 -0.5207515
vn 0.8671913 -0.01927721 -0.497602
vn 0.8675689 -0.01288841 -0.4971501
vn 0.8795617 0.03303037 -0.4746369
vn 0.8788629 0.01527224 -0.4768299
vn 0.8824689 0.0426943 -0.468429
vn 0.8806058 0.06652583 -0.4691566
vn 0.8823189 0.05671623 -0.4672223
vn 0.8798071 0.04996584 -0.4726976
vn 0.8752927 0.07656612 -0.4774938
vn 0.8774441 0.08784662 -0.4715664
vn 0.8767688 0.03903581 -0.4793252
vn 0.8730643 0.05776957 -0.4841709
vn 0.8750414 0.03677128 -0.4826495
vn 0.8701143 0.07886946 -0.4864983
vn -0.7406968 0.3403835 0.5792299
vn -0.8428527 0.2583318 0.4720849
vn -0.8049173 0.3382244 0.4875575
vn -0.8396575 0.1644094 0.5176339
vn -0.895914 0.1800362 0.4061095
vn -0.8593426 0.2922669 0.419655
vn -0.8049173 0.3382244 0.4875575
vn -0.6643131 0.3417882 0.6647323
vn -0.7855518 0.1417673 0.6023375
vn -0.8886745 -0.2324322 0.395263
vn -0.7483416 0.1256644 0.6513014
vn -0.6166602 0.3294757 0.7149657
vn -0.6040879 0.2631894 0.7522028
vn -0.7291878 0.06232695 0.6814694
vn -0.6218384 0.09935236 0.776818
vn -0.8521054 -0.2253165 0.4723864
vn -0.8144827 -0.2117936 0.5401493
vn -0.7362111 -0.1292335 0.6642981
vn -0.8725798 -0.2293801 0.431265
vn -0.8447638 -0.4555976 0.2807224
vn -0.8354973 -0.4561221 0.3064261
vn -0.813071 -0.439579 0.3816882
vn -0.8444861 -0.4567324 0.279712
vn -0.7639706 -0.3957405 0.5096453
vn -0.6651111 -0.2259777 0.7117311
vn -0.6194597 -0.09166423 0.7796584
vn -0.6446303 -0.2514675 0.7219529
vn -0.6901588 -0.3581339 0.628825
vn -0.6446303 -0.2514675 0.7219529
vn -0.9007902 -0.2467303 0.3573529
vn -0.8405065 -0.459743 0.2866796
vn -0.8484791 -0.4474487 0.2826179
vn -0.9113497 -0.2672864 0.3130493
vn -0.9441904 0.1230477 0.3055547
vn -0.8889968 -0.3913487 0.2377622
vn -0.9265282 -0.2777642 0.2537568
vn -0.9514838 -0.225495 0.2093572
vn -0.9491199 -0.2494576 0.1922043
vn -0.9711053 -0.05571742 0.2320557
vn -0.9491199 -0.2494576 0.1922043
vn -0.9832597 -0.01254918 0.1817773
vn -0.9552797 0.1977787 0.2198279
vn -0.9614193 0.1347679 0.2398134
vn -0.9552797 0.1977787 0.2198279
vn -0.9319786 0.2495337 0.2629617
vn -0.910015 0.238852 0.3388547
vn -0.9205879 0.2620963 0.2895228
vn -0.8939069 0.3121711 0.3216828
vn -0.8939069 0.3121711 0.3216828
vn -0.8834624 0.3010679 0.3589599
g pm0730_00_EyelashDSkin_0
f 3/3/3 2/2/2 1/1/1
f 2/2/2 3/3/3 4/4/4
f 3/3/3 5/5/5 4/4/4
f 5/5/5 6/6/6 4/4/4
f 6/6/6 7/7/7 4/4/4
f 6/6/6 8/8/8 7/7/7
f 8/8/8 9/9/9 7/7/7
f 9/9/9 8/8/8 10/10/10
f 8/8/8 11/11/11 10/10/10
f 10/10/10 11/11/11 12/12/12
f 13/13/13 10/10/10 12/12/12
f 13/13/13 12/12/12 14/14/14
f 12/12/12 15/15/15 14/14/14
f 15/15/15 12/12/12 16/16/16
f 17/17/17 14/14/14 15/15/15
f 18/18/18 17/17/17 15/15/15
f 18/18/18 15/15/15 19/19/19
f 17/17/17 18/18/18 20/20/20
f 18/18/18 21/21/21 20/20/20
f 20/20/20 21/21/21 22/22/22
f 21/21/21 18/18/18 23/23/23
f 26/26/26 25/25/25 24/24/24
f 27/27/27 26/26/26 24/24/24
f 26/26/26 27/27/27 28/28/28
f 26/26/26 28/28/28 29/29/29
f 30/30/30 26/26/26 29/29/29
f 27/27/27 24/24/24 31/31/31
f 32/32/32 27/27/27 31/31/31
f 28/28/28 27/27/27 33/33/33
f 33/33/33 27/27/27 32/32/32
f 34/34/34 32/32/32 31/31/31
f 35/35/35 34/34/34 31/31/31
f 35/35/35 36/36/36 34/34/34
f 36/36/36 37/37/37 34/34/34
f 36/36/36 38/38/38 37/37/37
f 34/34/34 39/39/39 32/32/32
f 37/37/37 40/40/40 34/34/34
f 40/40/40 39/39/39 34/34/34
f 38/38/38 41/41/41 37/37/37
f 37/37/37 41/41/41 40/40/40
f 42/42/42 33/33/33 32/32/32
f 39/39/39 42/42/42 32/32/32
f 42/42/42 39/39/39 43/43/43
f 42/42/42 43/43/43 33/33/33
f 39/39/39 44/44/44 43/43/43
f 39/39/39 40/40/40 44/44/44
f 40/40/40 45/45/45 44/44/44
f 40/40/40 41/41/41 45/45/45
f 43/43/43 46/46/46 33/33/33
f 41/41/41 47/47/47 45/45/45
f 48/48/48 41/41/41 38/38/38
f 47/47/47 41/41/41 48/48/48
f 49/49/49 48/48/48 38/38/38
f 49/49/49 50/50/50 48/48/48
f 51/51/51 47/47/47 48/48/48
f 51/51/51 48/48/48 52/52/52
f 53/53/53 33/33/33 46/46/46
f 54/54/54 53/53/53 46/46/46
f 54/54/54 55/55/55 53/53/53
f 53/53/53 28/28/28 33/33/33
f 55/55/55 56/56/56 53/53/53
f 28/28/28 53/53/53 56/56/56
f 55/55/55 57/57/57 56/56/56
f 57/57/57 58/58/58 56/56/56
f 58/58/58 59/59/59 56/56/56
f 58/58/58 57/57/57 60/60/60
f 58/58/58 60/60/60 59/59/59
f 57/57/57 61/61/61 60/60/60
f 59/59/59 60/60/60 62/62/62
f 63/63/63 59/59/59 62/62/62
f 63/63/63 64/64/64 59/59/59
f 64/64/64 65/65/65 59/59/59
f 59/59/59 66/66/66 56/56/56
f 66/66/66 59/59/59 65/65/65
f 66/66/66 28/28/28 56/56/56
f 66/66/66 65/65/65 67/67/67
f 68/68/68 66/66/66 67/67/67
f 28/28/28 66/66/66 69/69/69
f 69/69/69 66/66/66 70/70/70
f 71/71/71 69/69/69 70/70/70
f 69/69/69 72/72/72 28/28/28
f 72/72/72 73/73/73 28/28/28
f 76/76/76 75/75/75 74/74/74
f 75/75/75 76/76/76 77/77/77
f 78/78/78 75/75/75 77/77/77
f 79/79/79 78/78/78 77/77/77
f 80/80/80 79/79/79 77/77/77
f 81/81/81 79/79/79 80/80/80
f 82/82/82 81/81/81 80/80/80
f 81/81/81 82/82/82 83/83/83
f 84/84/84 81/81/81 83/83/83
f 84/84/84 83/83/83 85/85/85
f 83/83/83 86/86/86 85/85/85
f 85/85/85 86/86/86 87/87/87
f 88/88/88 85/85/85 87/87/87
f 85/85/85 88/88/88 89/89/89
f 87/87/87 90/90/90 88/88/88
f 90/90/90 91/91/91 88/88/88
f 88/88/88 91/91/91 92/92/92
f 91/91/91 90/90/90 93/93/93
f 94/94/94 91/91/91 93/93/93
f 94/94/94 93/93/93 95/95/95
f 91/91/91 94/94/94 96/96/96
f 99/99/99 98/98/98 97/97/97
f 98/98/98 100/100/100 97/97/97
f 100/100/100 98/98/98 101/101/101
f 101/101/101 98/98/98 102/102/102
f 98/98/98 103/103/103 102/102/102
f 97/97/97 100/100/100 104/104/104
f 100/100/100 105/105/105 104/104/104
f 100/100/100 101/101/101 106/106/106
f 100/100/100 106/106/106 105/105/105
f 105/105/105 107/107/107 104/104/104
f 107/107/107 108/108/108 104/104/104
f 109/109/109 108/108/108 107/107/107
f 110/110/110 109/109/109 107/107/107
f 111/111/111 109/109/109 110/110/110
f 112/112/112 107/107/107 105/105/105
f 113/113/113 110/110/110 107/107/107
f 112/112/112 113/113/113 107/107/107
f 114/114/114 111/111/111 110/110/110
f 114/114/114 110/110/110 113/113/113
f 106/106/106 115/115/115 105/105/105
f 115/115/115 112/112/112 105/105/105
f 112/112/112 115/115/115 116/116/116
f 116/116/116 115/115/115 106/106/106
f 117/117/117 112/112/112 116/116/116
f 113/113/113 112/112/112 117/117/117
f 118/118/118 113/113/113 117/117/117
f 114/114/114 113/113/113 118/118/118
f 119/119/119 116/116/116 106/106/106
f 120/120/120 114/114/114 118/118/118
f 114/114/114 121/121/121 111/111/111
f 114/114/114 120/120/120 121/121/121
f 121/121/121 122/122/122 111/111/111
f 123/123/123 122/122/122 121/121/121
f 120/120/120 124/124/124 121/121/121
f 121/121/121 124/124/124 125/125/125
f 106/106/106 126/126/126 119/119/119
f 126/126/126 127/127/127 119/119/119
f 128/128/128 127/127/127 126/126/126
f 101/101/101 126/126/126 106/106/106
f 129/129/129 128/128/128 126/126/126
f 126/126/126 101/101/101 129/129/129
f 101/101/101 130/130/130 129/129/129
f 131/131/131 128/128/128 129/129/129
f 132/132/132 131/131/131 129/129/129
f 129/129/129 130/130/130 132/132/132
f 131/131/131 132/132/132 133/133/133
f 134/134/134 131/131/131 133/133/133
f 133/133/133 132/132/132 135/135/135
f 130/130/130 135/135/135 132/132/132
f 133/133/133 135/135/135 136/136/136
f 135/135/135 137/137/137 136/136/136
f 138/138/138 137/137/137 135/135/135
f 139/139/139 138/138/138 135/135/135
f 135/135/135 130/130/130 139/139/139
f 139/139/139 130/130/130 140/140/140
f 130/130/130 141/141/141 140/140/140
f 130/130/130 101/101/101 142/142/142
f 130/130/130 142/142/142 143/143/143
f 142/142/142 144/144/144 143/143/143
f 145/145/145 142/142/142 101/101/101
f 146/146/146 145/145/145 101/101/101
