g pm0730_00_EyelashCSkin
v 0.08738038 1.701706 0.04626174
v 0.08745317 1.707011 0.03530081
v 0.08512049 1.700311 0.04242974
v 0.08995894 1.708279 0.03789093
v 0.09035206 1.716993 0.03072934
v 0.08793862 1.717644 0.02709942
v 0.08754977 1.711716 0.0398054
v 0.08365345 1.712303 0.03897542
v 0.08793862 1.717644 0.02709942
v 0.08444326 1.708128 0.04789817
v 0.08067919 1.709215 0.04620932
v 0.07664808 1.705187 0.05554099
v 0.08078738 1.704493 0.05620759
v 0.07175019 1.701953 0.06611817
v 0.0858262 1.693564 0.05366828
v 0.08168806 1.692803 0.06217963
v 0.07595935 1.701233 0.06680968
v 0.06797021 1.700162 0.07395664
v 0.07220941 1.699244 0.07501601
v 0.06483701 1.698743 0.08026461
v 0.07145251 1.690647 0.08046632
v 0.06880743 1.697712 0.08161359
v 0.06368351 1.696249 0.09107726
v 0.05999728 1.696986 0.08954641
v 0.05541686 1.695627 0.0970773
v 0.09211709 1.69373 0.03930417
v 0.08512049 1.700311 0.04242974
v 0.09062819 1.691821 0.034657
v 0.09062819 1.691821 0.034657
v 0.0825633 1.69115 0.05163395
v 0.07917831 1.690683 0.0582675
v 0.08331159 1.683723 0.06059203
v 0.07917831 1.690683 0.0582675
v 0.08104794 1.683419 0.05747442
v 0.0846859 1.677831 0.05967415
v 0.08301797 1.674591 0.05618696
v 0.08191423 1.680835 0.06561494
v 0.08301797 1.674591 0.05618696
v 0.07872362 1.678921 0.06485903
v 0.06952535 1.687145 0.07753134
v 0.06952535 1.687145 0.07753134
v 0.07318737 1.680157 0.08137667
v 0.07173769 1.676584 0.07840478
v 0.06170388 1.687509 0.09811901
v 0.05875668 1.68448 0.09513566
v 0.07173769 1.676584 0.07840478
v 0.05932792 1.694896 0.0981455
v 0.05325519 1.694011 0.1067778
v 0.04963379 1.694967 0.1055052
v 0.04727586 1.693521 0.1146757
v 0.045018 1.694642 0.1121174
v 0.04066005 1.694896 0.1182787
v 0.05393796 1.69072 0.1075019
v 0.0515749 1.688637 0.1059547
v 0.04439819 1.691413 0.1138297
v 0.04016504 1.693577 0.1187312
v 0.04128264 1.694168 0.1192446
v 0.04002521 1.694728 0.1191156
v 0.08793862 1.717644 0.02709942
v 0.08365345 1.712303 0.03897542
v 0.08745317 1.707011 0.03530081
v 0.08067919 1.709215 0.04620932
v 0.08512049 1.700311 0.04242974
v 0.07664808 1.705187 0.05554099
v 0.0825633 1.69115 0.05163395
v 0.09062819 1.691821 0.034657
v 0.07917831 1.690683 0.0582675
v 0.07175019 1.701953 0.06611817
v 0.06797021 1.700162 0.07395664
v 0.06952535 1.687145 0.07753134
v 0.06483701 1.698743 0.08026461
v 0.08104794 1.683419 0.05747442
v 0.05999728 1.696986 0.08954641
v 0.07872362 1.678921 0.06485903
v 0.08301797 1.674591 0.05618696
v 0.05875668 1.68448 0.09513566
v 0.07173769 1.676584 0.07840478
v 0.05541686 1.695627 0.0970773
v 0.0515749 1.688637 0.1059547
v 0.04963379 1.694967 0.1055052
v 0.04439819 1.691413 0.1138297
v 0.045018 1.694642 0.1121174
v 0.04066005 1.694896 0.1182787
v 0.04016504 1.693577 0.1187312
v 0.04002521 1.694728 0.1191156
v -0.08738038 1.701706 0.04626174
v -0.08512049 1.700311 0.04242974
v -0.08745317 1.707011 0.03530081
v -0.08995894 1.708279 0.03789093
v -0.09035206 1.716993 0.03072934
v -0.08793862 1.717644 0.02709942
v -0.08754977 1.711716 0.0398054
v -0.08365345 1.712303 0.03897542
v -0.08793862 1.717644 0.02709942
v -0.08444326 1.708128 0.04789817
v -0.08067919 1.709215 0.04620932
v -0.07664808 1.705187 0.05554099
v -0.08078738 1.704493 0.05620759
v -0.07175019 1.701953 0.06611817
v -0.0858262 1.693564 0.05366828
v -0.08168806 1.692803 0.06217963
v -0.07595935 1.701233 0.06680968
v -0.06797021 1.700162 0.07395664
v -0.07220941 1.699244 0.07501601
v -0.06483701 1.698743 0.08026461
v -0.07145251 1.690647 0.08046632
v -0.06880743 1.697712 0.08161359
v -0.06368351 1.696249 0.09107726
v -0.05999728 1.696986 0.08954641
v -0.05541686 1.695627 0.0970773
v -0.09211709 1.69373 0.03930417
v -0.08512049 1.700311 0.04242974
v -0.09062819 1.691821 0.034657
v -0.09062819 1.691821 0.034657
v -0.0825633 1.69115 0.05163395
v -0.07917831 1.690683 0.0582675
v -0.08331159 1.683723 0.06059203
v -0.07917831 1.690683 0.0582675
v -0.08104794 1.683419 0.05747442
v -0.0846859 1.677831 0.05967415
v -0.08301797 1.674591 0.05618696
v -0.08191423 1.680835 0.06561494
v -0.08301797 1.674591 0.05618696
v -0.07872362 1.678921 0.06485903
v -0.06952535 1.687145 0.07753134
v -0.06952535 1.687145 0.07753134
v -0.07318737 1.680157 0.08137667
v -0.07173769 1.676584 0.07840478
v -0.06170388 1.687509 0.09811901
v -0.05875668 1.68448 0.09513566
v -0.07173769 1.676584 0.07840478
v -0.05932792 1.694896 0.0981455
v -0.05325519 1.694011 0.1067778
v -0.04963379 1.694967 0.1055052
v -0.04727586 1.693521 0.1146757
v -0.045018 1.694642 0.1121174
v -0.04066005 1.694896 0.1182787
v -0.05393796 1.69072 0.1075019
v -0.0515749 1.688637 0.1059547
v -0.04439819 1.691413 0.1138297
v -0.04016504 1.693577 0.1187312
v -0.04128264 1.694168 0.1192446
v -0.04002521 1.694728 0.1191156
v -0.08793862 1.717644 0.02709942
v -0.08745317 1.707011 0.03530081
v -0.08365345 1.712303 0.03897542
v -0.08067919 1.709215 0.04620932
v -0.08512049 1.700311 0.04242974
v -0.07664808 1.705187 0.05554099
v -0.0825633 1.69115 0.05163395
v -0.09062819 1.691821 0.034657
v -0.07917831 1.690683 0.0582675
v -0.07175019 1.701953 0.06611817
v -0.06797021 1.700162 0.07395664
v -0.06952535 1.687145 0.07753134
v -0.06483701 1.698743 0.08026461
v -0.08104794 1.683419 0.05747442
v -0.05999728 1.696986 0.08954641
v -0.07872362 1.678921 0.06485903
v -0.08301797 1.674591 0.05618696
v -0.05875668 1.68448 0.09513566
v -0.07173769 1.676584 0.07840478
v -0.05541686 1.695627 0.0970773
v -0.0515749 1.688637 0.1059547
v -0.04963379 1.694967 0.1055052
v -0.04439819 1.691413 0.1138297
v -0.045018 1.694642 0.1121174
v -0.04066005 1.694896 0.1182787
v -0.04016504 1.693577 0.1187312
v -0.04002521 1.694728 0.1191156
vt 0.02536917 0.7756337
vt 0.01188922 0.7795888
vt 0.01965308 0.7751974
vt 0.01596862 0.780701
vt 0.008670866 0.7862861
vt 0.003382921 0.7865492
vt 0.01972759 0.7826779
vt 0.02242345 0.7846809
vt 0.008150041 0.7889143
vt 0.02927721 0.7796249
vt 0.03097856 0.7820638
vt 0.04295021 0.7797523
vt 0.04031897 0.7775378
vt 0.05705929 0.7780592
vt 0.03514618 0.7707729
vt 0.04668039 0.7704075
vt 0.05474615 0.7757222
vt 0.06758505 0.7769167
vt 0.06565177 0.7744143
vt 0.07607538 0.77603
vt 0.07191575 0.7690943
vt 0.07464433 0.7735189
vt 0.08763343 0.7726557
vt 0.08882076 0.7750255
vt 0.0995667 0.77425
vt 0.01680595 0.7695209
vt 0.01965308 0.7751974
vt 0.01046437 0.7693515
vt 0.01293385 0.7669736
vt 0.03354359 0.768155
vt 0.04050761 0.7682644
vt 0.04395527 0.7649199
vt 0.04050761 0.7682644
vt 0.03904003 0.7651464
vt 0.04247791 0.7612833
vt 0.03713787 0.7598335
vt 0.05019635 0.763185
vt 0.04052627 0.7584158
vt 0.0522083 0.7611379
vt 0.06681556 0.7649415
vt 0.06681556 0.7649415
vt 0.07197005 0.7626379
vt 0.06735784 0.760819
vt 0.09621245 0.7673225
vt 0.09641308 0.7642082
vt 0.07062173 0.7597792
vt 0.09767699 0.771956
vt 0.1104286 0.7715123
vt 0.1119855 0.7737729
vt 0.1222822 0.7712125
vt 0.1217871 0.7733501
vt 0.1303214 0.7735083
vt 0.1106934 0.7694356
vt 0.1117329 0.7673708
vt 0.1246242 0.7693439
vt 0.1326528 0.770382
vt 0.130872 0.7718266
vt 0.1421798 0.77402
vt 0.2377228 0.7691867
vt 0.2256306 0.7664992
vt 0.2304631 0.7638182
vt 0.2181032 0.7649811
vt 0.2232939 0.760551
vt 0.2083007 0.7630212
vt 0.2142649 0.7560406
vt 0.2323912 0.7563993
vt 0.2070814 0.7558259
vt 0.1970487 0.7614453
vt 0.1886439 0.7605781
vt 0.1863238 0.7541281
vt 0.1818438 0.7598832
vt 0.2086183 0.7522694
vt 0.1717274 0.7590373
vt 0.2012607 0.7500053
vt 0.2106545 0.7479801
vt 0.1664276 0.7529571
vt 0.1866598 0.748905
vt 0.1631968 0.758416
vt 0.1539571 0.7549753
vt 0.1533103 0.7581592
vt 0.1430298 0.7557904
vt 0.1462747 0.7587274
vt 0.1322691 0.7603388
vt 0.1298749 0.7580323
vt 0.1180635 0.7623157
vt 0.02536901 0.7756337
vt 0.01965291 0.7751974
vt 0.01188932 0.7795888
vt 0.01596869 0.780701
vt 0.008670799 0.7862861
vt 0.003382914 0.7865492
vt 0.01972735 0.7826779
vt 0.02242348 0.7846809
vt 0.00815003 0.7889143
vt 0.02927718 0.7796249
vt 0.03097876 0.7820638
vt 0.04295033 0.7797523
vt 0.04031914 0.7775378
vt 0.05705924 0.7780592
vt 0.03514593 0.7707729
vt 0.04668064 0.7704075
vt 0.05474623 0.7757222
vt 0.06758527 0.7769167
vt 0.06565154 0.7744143
vt 0.0760753 0.77603
vt 0.0719157 0.7690943
vt 0.07464425 0.7735189
vt 0.08763339 0.7726557
vt 0.08882077 0.7750255
vt 0.09956659 0.77425
vt 0.01680576 0.7695209
vt 0.01965291 0.7751974
vt 0.01046425 0.7693515
vt 0.01293397 0.7669736
vt 0.03354342 0.768155
vt 0.04050779 0.7682644
vt 0.04395524 0.7649199
vt 0.04050779 0.7682644
vt 0.03903998 0.7651464
vt 0.04247787 0.7612833
vt 0.03713791 0.7598335
vt 0.05019637 0.763185
vt 0.04052615 0.7584158
vt 0.0522084 0.7611379
vt 0.06681561 0.7649415
vt 0.06681561 0.7649415
vt 0.07196984 0.7626379
vt 0.06735788 0.760819
vt 0.09621254 0.7673225
vt 0.09641323 0.7642082
vt 0.07062168 0.7597792
vt 0.0976769 0.771956
vt 0.1104286 0.7715123
vt 0.1119854 0.7737729
vt 0.122282 0.7712125
vt 0.1217872 0.7733501
vt 0.1303215 0.7735083
vt 0.1106935 0.7694356
vt 0.1117329 0.7673708
vt 0.1246242 0.7693439
vt 0.1326527 0.770382
vt 0.1308719 0.7718266
vt 0.1421798 0.77402
vt 0.2377227 0.7691867
vt 0.2304632 0.7638182
vt 0.2256306 0.7664992
vt 0.2181032 0.7649811
vt 0.2232939 0.760551
vt 0.2083007 0.7630212
vt 0.2142649 0.7560406
vt 0.2323912 0.7563993
vt 0.2070814 0.7558259
vt 0.1970487 0.7614453
vt 0.1886438 0.7605781
vt 0.1863237 0.7541281
vt 0.1818438 0.7598832
vt 0.2086183 0.7522694
vt 0.1717274 0.7590373
vt 0.2012607 0.7500053
vt 0.2106545 0.7479801
vt 0.1664275 0.7529571
vt 0.1866598 0.748905
vt 0.1631968 0.758416
vt 0.1539571 0.7549753
vt 0.1533103 0.7581592
vt 0.14303 0.7557904
vt 0.1462745 0.7587274
vt 0.1322689 0.7603388
vt 0.129875 0.7580323
vt 0.1180635 0.7623157
vn 0.9783534 0.1323033 0.1591235
vn 0.9737385 0.2241376 0.03994545
vn 0.9972383 0.06922496 0.02690119
vn 0.9380365 0.3226568 0.1264125
vn 0.8762471 0.4565313 0.1541762
vn 0.872685 0.4696719 0.1335256
vn 0.8080958 0.5369073 0.2423051
vn 0.7018178 0.6558278 0.2781036
vn 0.872685 0.4696719 0.1335256
vn 0.7628506 0.5468247 0.3450243
vn 0.5701891 0.7224864 0.3910213
vn 0.514303 0.736543 0.4393141
vn 0.7248932 0.543991 0.4226152
vn 0.5050747 0.7442127 0.4370892
vn 0.9589869 0.0891972 0.2690504
vn 0.9298626 0.1577 0.3323945
vn 0.7143463 0.545715 0.438069
vn 0.5157935 0.7404451 0.4309271
vn 0.7480626 0.4781995 0.4601388
vn 0.5036587 0.7480986 0.4320606
vn 0.8576653 0.09910175 0.5045682
vn 0.6973246 0.5146442 0.4988784
vn 0.71159 0.4393627 0.5482701
vn 0.5075679 0.7334018 0.452213
vn 0.4985737 0.7229558 0.478288
vn 0.9866667 -0.02998971 0.159967
vn 0.9955359 -0.04678501 0.0819733
vn 0.9825069 -0.1442066 0.1178333
vn 0.9825069 -0.1442066 0.1178333
vn 0.9637983 -0.1646752 0.2097021
vn 0.9541145 -0.1251331 0.2720428
vn 0.9695845 -0.07106223 0.2342138
vn 0.9897412 0.06696124 0.1262086
vn 0.9911289 -0.06603543 0.1153379
vn 0.9530215 -0.1712177 0.2498688
vn 0.9531801 -0.2087328 0.2188111
vn 0.9271575 -0.1418072 0.3467992
vn 0.9531801 -0.2087328 0.2188111
vn 0.8893741 -0.2593352 0.3765089
vn 0.8519135 -0.1795675 0.4919338
vn 0.8681875 -0.1833616 0.461117
vn 0.8400626 -0.1197085 0.5291169
vn 0.8152979 -0.3071726 0.4908507
vn 0.786145 0.06401277 0.614718
vn 0.740668 -0.3119722 0.5950497
vn 0.8152979 -0.3071726 0.4908507
vn 0.6590908 0.4727176 0.5849251
vn 0.6265814 0.3910903 0.6741247
vn 0.507507 0.6564711 0.5581061
vn 0.5996434 0.1795377 0.7798679
vn 0.5183271 0.5076601 0.6881993
vn 0.4931304 0.3462693 0.7980726
vn 0.6853964 0.02542355 0.7277262
vn 0.6388535 -0.2994094 0.7086749
vn 0.5699407 -0.1670781 0.80452
vn 0.5088735 -0.01194617 0.8607584
vn 0.5124298 0.1708541 0.8415608
vn 0.4898744 0.1696941 0.8551182
vn -0.8508689 -0.2554827 -0.4590758
vn -0.851936 -0.2513866 -0.4593579
vn -0.8527623 -0.2497662 -0.4587084
vn -0.8551922 -0.2390268 -0.4599048
vn -0.8574915 -0.2340518 -0.458179
vn -0.8565693 -0.2293874 -0.462245
vn -0.8587737 -0.2252694 -0.4601754
vn -0.8599948 -0.2263041 -0.4573789
vn -0.8567854 -0.2163345 -0.4681005
vn -0.8547764 -0.2226833 -0.4687957
vn -0.8506951 -0.2160562 -0.4792051
vn -0.8465111 -0.2085121 -0.4898385
vn -0.8444127 -0.2104631 -0.4926179
vn -0.8679503 -0.2063022 -0.451776
vn -0.8366619 -0.2047761 -0.5079996
vn -0.8653742 -0.2040783 -0.4576894
vn -0.8714017 -0.2025457 -0.4468046
vn -0.8315906 -0.2007219 -0.5178491
vn -0.8379762 -0.204803 -0.5058177
vn -0.826126 -0.1979687 -0.5275644
vn -0.8150447 -0.1814406 -0.5502558
vn -0.8135613 -0.1806151 -0.5527173
vn -0.8054621 -0.145422 -0.5745285
vn -0.805131 -0.1457773 -0.5749025
vn -0.801089 -0.1041521 -0.5894141
vn -0.8011929 -0.1042379 -0.5892574
vn -0.8000411 -0.08906224 -0.5932976
vn -0.9783538 0.1323026 0.1591225
vn -0.9972384 0.06922446 0.02689944
vn -0.9737389 0.2241365 0.03994249
vn -0.9380371 0.3226559 0.1264101
vn -0.8762483 0.45653 0.154173
vn -0.8726862 0.4696706 0.1335225
vn -0.8080969 0.5369064 0.2423033
vn -0.7018191 0.6558269 0.2781025
vn -0.8726862 0.4696706 0.1335225
vn -0.762851 0.5468238 0.3450247
vn -0.5701896 0.7224855 0.3910224
vn -0.5143027 0.7365417 0.4393165
vn -0.7248931 0.5439902 0.4226165
vn -0.5050744 0.7442116 0.4370914
vn -0.9589869 0.08919676 0.2690503
vn -0.929863 0.1576993 0.332394
vn -0.7143459 0.5457143 0.4380704
vn -0.5157932 0.7404443 0.4309289
vn -0.7480624 0.478199 0.4601395
vn -0.5036587 0.748098 0.4320617
vn -0.8576657 0.09910131 0.5045677
vn -0.6973246 0.5146438 0.4988789
vn -0.7115907 0.4393618 0.5482698
vn -0.5075685 0.7334008 0.452214
vn -0.4985752 0.7229538 0.4782892
vn -0.9866669 -0.02998996 0.1599662
vn -0.9955359 -0.04678526 0.08197192
vn -0.9825071 -0.1442067 0.117832
vn -0.9825071 -0.1442067 0.117832
vn -0.9637985 -0.1646754 0.2097014
vn -0.9541146 -0.1251334 0.2720422
vn -0.9695852 -0.07106372 0.2342104
vn -0.9897416 0.06696022 0.1262059
vn -0.9911292 -0.0660372 0.1153339
vn -0.9530223 -0.1712198 0.2498648
vn -0.9531807 -0.2087349 0.2188067
vn -0.9271585 -0.1418088 0.346796
vn -0.9531807 -0.2087349 0.2188067
vn -0.8893749 -0.259337 0.376506
vn -0.8519142 -0.1795684 0.4919324
vn -0.8681881 -0.1833618 0.461116
vn -0.8400635 -0.1197089 0.5291153
vn -0.8152989 -0.307173 0.4908487
vn -0.7861468 0.06401142 0.6147159
vn -0.7406704 -0.3119738 0.595046
vn -0.8152989 -0.307173 0.4908487
vn -0.6590926 0.4727158 0.5849246
vn -0.6265853 0.3910877 0.6741225
vn -0.5075099 0.656469 0.5581058
vn -0.5996503 0.1795373 0.7798627
vn -0.5183324 0.5076607 0.6881948
vn -0.4931393 0.3462754 0.7980645
vn -0.6854009 0.02542074 0.727722
vn -0.6388584 -0.2994123 0.7086694
vn -0.5699496 -0.167079 0.8045135
vn -0.5088853 -0.01194198 0.8607515
vn -0.5124404 0.1708597 0.8415533
vn -0.4898857 0.1697015 0.8551101
vn 0.8508685 -0.2554824 -0.4590768
vn 0.8527619 -0.249766 -0.4587091
vn 0.8519358 -0.2513865 -0.4593586
vn 0.8551923 -0.2390268 -0.4599047
vn 0.8574917 -0.2340519 -0.4581787
vn 0.8565694 -0.2293874 -0.4622447
vn 0.8587739 -0.2252696 -0.460175
vn 0.8599951 -0.2263042 -0.4573783
vn 0.8567856 -0.2163346 -0.4681001
vn 0.8547765 -0.2226833 -0.4687955
vn 0.8506953 -0.2160562 -0.4792047
vn 0.8465115 -0.2085122 -0.4898378
vn 0.8444132 -0.2104631 -0.4926172
vn 0.8679509 -0.2063021 -0.4517751
vn 0.8366625 -0.2047761 -0.5079987
vn 0.8653749 -0.2040783 -0.4576882
vn 0.8714024 -0.2025457 -0.4468033
vn 0.8315911 -0.200722 -0.5178483
vn 0.8379768 -0.2048032 -0.5058166
vn 0.8261266 -0.1979688 -0.5275636
vn 0.8150449 -0.1814404 -0.5502556
vn 0.8135614 -0.180615 -0.552717
vn 0.8054618 -0.1454214 -0.5745294
vn 0.8051307 -0.1457767 -0.5749032
vn 0.8010879 -0.104151 -0.5894156
vn 0.801192 -0.1042368 -0.5892589
vn 0.80004 -0.08906092 -0.5932994
g pm0730_00_EyelashCSkin_0
f 3/3/3 2/2/2 1/1/1
f 2/2/2 4/4/4 1/1/1
f 4/4/4 2/2/2 5/5/5
f 2/2/2 6/6/6 5/5/5
f 7/7/7 4/4/4 5/5/5
f 1/1/1 4/4/4 7/7/7
f 8/8/8 7/7/7 5/5/5
f 9/9/9 8/8/8 5/5/5
f 7/7/7 8/8/8 10/10/10
f 10/10/10 1/1/1 7/7/7
f 8/8/8 11/11/11 10/10/10
f 10/10/10 11/11/11 12/12/12
f 13/13/13 10/10/10 12/12/12
f 13/13/13 12/12/12 14/14/14
f 15/15/15 1/1/1 10/10/10
f 13/13/13 15/15/15 10/10/10
f 16/16/16 15/15/15 13/13/13
f 17/17/17 13/13/13 14/14/14
f 17/17/17 16/16/16 13/13/13
f 17/17/17 14/14/14 18/18/18
f 19/19/19 17/17/17 18/18/18
f 16/16/16 17/17/17 19/19/19
f 19/19/19 18/18/18 20/20/20
f 16/16/16 19/19/19 21/21/21
f 19/19/19 22/22/22 21/21/21
f 22/22/22 19/19/19 20/20/20
f 21/21/21 22/22/22 23/23/23
f 22/22/22 20/20/20 24/24/24
f 23/23/23 22/22/22 24/24/24
f 23/23/23 24/24/24 25/25/25
f 1/1/1 15/15/15 26/26/26
f 1/1/1 26/26/26 27/27/27
f 26/26/26 28/28/28 27/27/27
f 26/26/26 15/15/15 29/29/29
f 15/15/15 30/30/30 29/29/29
f 15/15/15 16/16/16 30/30/30
f 16/16/16 31/31/31 30/30/30
f 32/32/32 16/16/16 21/21/21
f 16/16/16 32/32/32 33/33/33
f 32/32/32 34/34/34 33/33/33
f 32/32/32 35/35/35 34/34/34
f 35/35/35 36/36/36 34/34/34
f 35/35/35 32/32/32 37/37/37
f 37/37/37 32/32/32 21/21/21
f 35/35/35 37/37/37 38/38/38
f 37/37/37 39/39/39 38/38/38
f 37/37/37 21/21/21 39/39/39
f 21/21/21 40/40/40 39/39/39
f 21/21/21 42/42/42 41/41/41
f 42/42/42 43/43/43 41/41/41
f 42/42/42 21/21/21 44/44/44
f 44/44/44 21/21/21 23/23/23
f 42/42/42 44/44/44 45/45/45
f 46/46/46 42/42/42 45/45/45
f 47/47/47 44/44/44 23/23/23
f 47/47/47 23/23/23 25/25/25
f 47/47/47 25/25/25 48/48/48
f 47/47/47 48/48/48 44/44/44
f 25/25/25 49/49/49 48/48/48
f 48/48/48 49/49/49 50/50/50
f 49/49/49 51/51/51 50/50/50
f 50/50/50 51/51/51 52/52/52
f 44/44/44 53/53/53 45/45/45
f 48/48/48 53/53/53 44/44/44
f 53/53/53 48/48/48 50/50/50
f 53/53/53 54/54/54 45/45/45
f 55/55/55 54/54/54 53/53/53
f 50/50/50 55/55/55 53/53/53
f 56/56/56 55/55/55 50/50/50
f 57/57/57 50/50/50 52/52/52
f 57/57/57 56/56/56 50/50/50
f 52/52/52 58/58/58 57/57/57
f 58/58/58 56/56/56 57/57/57
f 61/61/61 60/60/60 59/59/59
f 62/62/62 60/60/60 61/61/61
f 63/63/63 62/62/62 61/61/61
f 62/62/62 63/63/63 64/64/64
f 63/63/63 65/65/65 64/64/64
f 66/66/66 65/65/65 63/63/63
f 64/64/64 65/65/65 67/67/67
f 68/68/68 64/64/64 67/67/67
f 69/69/69 68/68/68 67/67/67
f 69/69/69 67/67/67 70/70/70
f 71/71/71 69/69/69 70/70/70
f 70/70/70 67/67/67 72/72/72
f 73/73/73 71/71/71 70/70/70
f 74/74/74 70/70/70 72/72/72
f 74/74/74 72/72/72 75/75/75
f 73/73/73 70/70/70 76/76/76
f 76/76/76 70/70/70 77/77/77
f 73/73/73 76/76/76 78/78/78
f 78/78/78 76/76/76 79/79/79
f 80/80/80 78/78/78 79/79/79
f 80/80/80 79/79/79 81/81/81
f 82/82/82 80/80/80 81/81/81
f 83/83/83 82/82/82 81/81/81
f 84/84/84 83/83/83 81/81/81
f 84/84/84 85/85/85 83/83/83
f 88/88/88 87/87/87 86/86/86
f 89/89/89 88/88/88 86/86/86
f 88/88/88 89/89/89 90/90/90
f 91/91/91 88/88/88 90/90/90
f 89/89/89 92/92/92 90/90/90
f 89/89/89 86/86/86 92/92/92
f 92/92/92 93/93/93 90/90/90
f 93/93/93 94/94/94 90/90/90
f 93/93/93 92/92/92 95/95/95
f 86/86/86 95/95/95 92/92/92
f 96/96/96 93/93/93 95/95/95
f 96/96/96 95/95/95 97/97/97
f 95/95/95 98/98/98 97/97/97
f 97/97/97 98/98/98 99/99/99
f 86/86/86 100/100/100 95/95/95
f 100/100/100 98/98/98 95/95/95
f 100/100/100 101/101/101 98/98/98
f 98/98/98 102/102/102 99/99/99
f 101/101/101 102/102/102 98/98/98
f 99/99/99 102/102/102 103/103/103
f 102/102/102 104/104/104 103/103/103
f 102/102/102 101/101/101 104/104/104
f 103/103/103 104/104/104 105/105/105
f 104/104/104 101/101/101 106/106/106
f 107/107/107 104/104/104 106/106/106
f 104/104/104 107/107/107 105/105/105
f 107/107/107 106/106/106 108/108/108
f 105/105/105 107/107/107 109/109/109
f 107/107/107 108/108/108 109/109/109
f 109/109/109 108/108/108 110/110/110
f 100/100/100 86/86/86 111/111/111
f 111/111/111 86/86/86 112/112/112
f 113/113/113 111/111/111 112/112/112
f 100/100/100 111/111/111 114/114/114
f 115/115/115 100/100/100 114/114/114
f 101/101/101 100/100/100 115/115/115
f 116/116/116 101/101/101 115/115/115
f 101/101/101 117/117/117 106/106/106
f 117/117/117 101/101/101 118/118/118
f 119/119/119 117/117/117 118/118/118
f 120/120/120 117/117/117 119/119/119
f 121/121/121 120/120/120 119/119/119
f 117/117/117 120/120/120 122/122/122
f 117/117/117 122/122/122 106/106/106
f 122/122/122 120/120/120 123/123/123
f 124/124/124 122/122/122 123/123/123
f 106/106/106 122/122/122 124/124/124
f 125/125/125 106/106/106 124/124/124
f 127/127/127 106/106/106 126/126/126
f 128/128/128 127/127/127 126/126/126
f 106/106/106 127/127/127 129/129/129
f 106/106/106 129/129/129 108/108/108
f 129/129/129 127/127/127 130/130/130
f 127/127/127 131/131/131 130/130/130
f 129/129/129 132/132/132 108/108/108
f 108/108/108 132/132/132 110/110/110
f 110/110/110 132/132/132 133/133/133
f 133/133/133 132/132/132 129/129/129
f 134/134/134 110/110/110 133/133/133
f 134/134/134 133/133/133 135/135/135
f 136/136/136 134/134/134 135/135/135
f 136/136/136 135/135/135 137/137/137
f 138/138/138 129/129/129 130/130/130
f 138/138/138 133/133/133 129/129/129
f 133/133/133 138/138/138 135/135/135
f 139/139/139 138/138/138 130/130/130
f 139/139/139 140/140/140 138/138/138
f 140/140/140 135/135/135 138/138/138
f 140/140/140 141/141/141 135/135/135
f 135/135/135 142/142/142 137/137/137
f 141/141/141 142/142/142 135/135/135
f 143/143/143 137/137/137 142/142/142
f 141/141/141 143/143/143 142/142/142
f 146/146/146 145/145/145 144/144/144
f 146/146/146 147/147/147 145/145/145
f 147/147/147 148/148/148 145/145/145
f 148/148/148 147/147/147 149/149/149
f 150/150/150 148/148/148 149/149/149
f 150/150/150 151/151/151 148/148/148
f 150/150/150 149/149/149 152/152/152
f 149/149/149 153/153/153 152/152/152
f 153/153/153 154/154/154 152/152/152
f 152/152/152 154/154/154 155/155/155
f 154/154/154 156/156/156 155/155/155
f 152/152/152 155/155/155 157/157/157
f 156/156/156 158/158/158 155/155/155
f 155/155/155 159/159/159 157/157/157
f 157/157/157 159/159/159 160/160/160
f 155/155/155 158/158/158 161/161/161
f 155/155/155 161/161/161 162/162/162
f 161/161/161 158/158/158 163/163/163
f 161/161/161 163/163/163 164/164/164
f 163/163/163 165/165/165 164/164/164
f 164/164/164 165/165/165 166/166/166
f 165/165/165 167/167/167 166/166/166
f 167/167/167 168/168/168 166/166/166
f 168/168/168 169/169/169 166/166/166
f 170/170/170 169/169/169 168/168/168
