g pm0722_00_OffsetASkin
v 0.01941447 0.186848 0.1087707
v 0.03818022 0.1734433 0.1066066
v 0.0197743 0.1734354 0.1095058
v 0.03794261 0.1868577 0.1059125
v 0.01908356 0.1984789 0.1079569
v 0.05849001 0.1733857 0.1020648
v 0.03757223 0.1984921 0.1050952
v 0.03709744 0.2113893 0.1038946
v 0.01869452 0.2113758 0.1067813
v 0.01828978 0.2237224 0.10528
v 0.05831349 0.1868213 0.1009836
v 0.08070767 0.1869001 0.09046835
v 0.08056993 0.1734565 0.09196272
v 0.08042262 0.1985465 0.08885994
v 0.05788151 0.1984623 0.09980362
v 0.07943034 0.2114783 0.08711881
v 0.05726201 0.2113882 0.09813415
v 0.07801368 0.2239118 0.08481116
v 0.05623584 0.2238003 0.09616695
v 0.07518582 0.2361855 0.08203876
v 0.05488613 0.2360762 0.09331063
v 0.03662267 0.2237338 0.1024049
v 0.03560321 0.2359614 0.1001198
v 0.01772906 0.2359508 0.1029579
v -0.01941447 0.186848 0.1087707
v -0.0197743 0.1734354 0.1095058
v -0.03818022 0.1734433 0.1066066
v -0.03794261 0.1868577 0.1059125
v -0.01908356 0.1984789 0.1079569
v -0.05849001 0.1733857 0.1020648
v -0.03757223 0.1984921 0.1050952
v -0.03709744 0.2113893 0.1038946
v -0.01869452 0.2113758 0.1067813
v -0.01828978 0.2237224 0.10528
v -0.05831349 0.1868213 0.1009836
v -0.08070767 0.1869001 0.09046835
v -0.08056993 0.1734565 0.09196272
v -0.08042262 0.1985465 0.08885994
v -0.05788151 0.1984623 0.09980362
v -0.07943034 0.2114783 0.08711881
v -0.05726201 0.2113882 0.09813415
v -0.07801368 0.2239118 0.08481116
v -0.05623584 0.2238003 0.09616695
v -0.07518582 0.2361855 0.08203876
v -0.05488613 0.2360762 0.09331063
v -0.03662267 0.2237338 0.1024049
v -0.03560321 0.2359614 0.1001198
v -0.01772906 0.2359508 0.1029579
vt 0.0460515 1.830801
vt 0.1488478 1.799062
vt 0.04656529 1.799062
vt 0.150394 1.830801
vt 0.04581428 1.858486
vt 0.261878 1.799062
vt 0.1514947 1.858486
vt 0.1532066 1.890201
vt 0.04578781 1.890201
vt 0.04600167 1.921983
vt 0.2657564 1.830801
vt 0.3999982 1.830801
vt 0.3918579 1.799062
vt 0.4068656 1.858486
vt 0.2688904 1.858486
vt 0.4125321 1.890201
vt 0.2730844 1.890201
vt 0.4187045 1.921983
vt 0.2764721 1.921983
vt 0.4209435 1.954215
vt 0.2808092 1.954215
vt 0.1555316 1.921983
vt 0.1561141 1.954215
vt 0.04593301 1.954215
vt 0.0460515 1.830801
vt 0.04656529 1.799062
vt 0.1488478 1.799062
vt 0.150394 1.830801
vt 0.04581428 1.858486
vt 0.261878 1.799062
vt 0.1514947 1.858486
vt 0.1532066 1.890201
vt 0.04578781 1.890201
vt 0.04600167 1.921983
vt 0.2657564 1.830801
vt 0.3999982 1.830801
vt 0.3918579 1.799062
vt 0.4068656 1.858486
vt 0.2688904 1.858486
vt 0.4125321 1.890201
vt 0.2730844 1.890201
vt 0.4187045 1.921983
vt 0.2764721 1.921983
vt 0.4209435 1.954215
vt 0.2808092 1.954215
vt 0.1555316 1.921983
vt 0.1561141 1.954215
vt 0.04593301 1.954215
vn 0.1786771 0.07419436 0.9811063
vn 0.2314861 0.0716422 0.9701966
vn 0.1831581 0.06591053 0.9808715
vn 0.2313934 0.08162582 0.9694299
vn 0.1813396 0.09427682 0.9788911
vn 0.3159791 0.08298759 0.9451298
vn 0.237436 0.1035366 0.9658698
vn 0.2460105 0.1366652 0.9595839
vn 0.1861285 0.1246218 0.97459
vn 0.1919357 0.1603183 0.9682245
vn 0.3230878 0.0952161 0.9415669
vn 0.3843899 0.104884 0.9171934
vn 0.3724757 0.09150825 0.9235194
vn 0.3949554 0.1318774 0.9091856
vn 0.332687 0.1203223 0.9353299
vn 0.4053571 0.1703832 0.8981398
vn 0.3440599 0.1571338 0.925706
vn 0.4131747 0.2126185 0.8854829
vn 0.3531252 0.1995576 0.9140455
vn 0.4103974 0.2367724 0.880632
vn 0.3550954 0.225898 0.9071259
vn 0.2548095 0.1761528 0.9508114
vn 0.2619148 0.2024353 0.943621
vn 0.2023227 0.1846041 0.9617624
vn -0.1786771 0.07419435 0.9811063
vn -0.183158 0.06591041 0.9808716
vn -0.2314861 0.07164218 0.9701966
vn -0.2313933 0.08162571 0.9694299
vn -0.1813395 0.09427682 0.9788911
vn -0.3159793 0.08298749 0.9451297
vn -0.2374359 0.1035366 0.9658698
vn -0.2460103 0.1366652 0.9595841
vn -0.1861286 0.1246217 0.97459
vn -0.1919357 0.1603183 0.9682245
vn -0.3230877 0.09521611 0.9415669
vn -0.3843898 0.1048838 0.9171934
vn -0.3724756 0.09150837 0.9235194
vn -0.3949554 0.1318775 0.9091856
vn -0.3326869 0.1203223 0.9353299
vn -0.4053572 0.1703832 0.8981398
vn -0.3440599 0.1571338 0.9257061
vn -0.4131747 0.2126185 0.8854829
vn -0.3531252 0.1995576 0.9140456
vn -0.4103972 0.2367724 0.8806322
vn -0.3550954 0.225898 0.9071259
vn -0.2548094 0.1761528 0.9508114
vn -0.2619146 0.2024354 0.943621
vn -0.2023226 0.1846042 0.9617624
g pm0722_00_OffsetASkin_0
f 3/3/3 2/2/2 1/1/1
f 2/2/2 4/4/4 1/1/1
f 1/1/1 4/4/4 5/5/5
f 2/2/2 6/6/6 4/4/4
f 4/4/4 7/7/7 5/5/5
f 5/5/5 7/7/7 8/8/8
f 9/9/9 5/5/5 8/8/8
f 9/9/9 8/8/8 10/10/10
f 6/6/6 11/11/11 4/4/4
f 4/4/4 11/11/11 7/7/7
f 11/11/11 6/6/6 12/12/12
f 6/6/6 13/13/13 12/12/12
f 12/12/12 14/14/14 11/11/11
f 11/11/11 15/15/15 7/7/7
f 14/14/14 15/15/15 11/11/11
f 8/8/8 7/7/7 15/15/15
f 15/15/15 14/14/14 16/16/16
f 17/17/17 15/15/15 16/16/16
f 17/17/17 8/8/8 15/15/15
f 17/17/17 16/16/16 18/18/18
f 19/19/19 17/17/17 18/18/18
f 8/8/8 17/17/17 19/19/19
f 19/19/19 18/18/18 20/20/20
f 21/21/21 19/19/19 20/20/20
f 22/22/22 8/8/8 19/19/19
f 22/22/22 19/19/19 21/21/21
f 8/8/8 22/22/22 10/10/10
f 23/23/23 22/22/22 21/21/21
f 10/10/10 22/22/22 24/24/24
f 22/22/22 23/23/23 24/24/24
f 27/27/27 26/26/26 25/25/25
f 28/28/28 27/27/27 25/25/25
f 28/28/28 25/25/25 29/29/29
f 30/30/30 27/27/27 28/28/28
f 31/31/31 28/28/28 29/29/29
f 31/31/31 29/29/29 32/32/32
f 29/29/29 33/33/33 32/32/32
f 32/32/32 33/33/33 34/34/34
f 35/35/35 30/30/30 28/28/28
f 35/35/35 28/28/28 31/31/31
f 30/30/30 35/35/35 36/36/36
f 37/37/37 30/30/30 36/36/36
f 38/38/38 36/36/36 35/35/35
f 39/39/39 35/35/35 31/31/31
f 39/39/39 38/38/38 35/35/35
f 31/31/31 32/32/32 39/39/39
f 38/38/38 39/39/39 40/40/40
f 39/39/39 41/41/41 40/40/40
f 32/32/32 41/41/41 39/39/39
f 40/40/40 41/41/41 42/42/42
f 41/41/41 43/43/43 42/42/42
f 41/41/41 32/32/32 43/43/43
f 42/42/42 43/43/43 44/44/44
f 43/43/43 45/45/45 44/44/44
f 32/32/32 46/46/46 43/43/43
f 43/43/43 46/46/46 45/45/45
f 46/46/46 32/32/32 34/34/34
f 46/46/46 47/47/47 45/45/45
f 46/46/46 34/34/34 48/48/48
f 47/47/47 46/46/46 48/48/48
