g pm0720_12_LArmARingSkin
v 0.5 -0.1332432 2.331115
v 0.5 -0.1054856 2.283038
v 0.5663815 -0.0887768 2.283038
v 0.5778998 -0.1140316 2.331115
v 0.5 -0.1887577 2.331115
v 0.6096481 -0.04815588 2.283038
v 0.6009359 -0.1645411 2.331115
v 0.5 -0.2165153 2.283038
v 0.6322226 -0.064307 2.331115
v 0.6234173 -2.842491E-16 2.283038
v 0.6511731 -2.813061E-16 2.331115
v 0.6096481 0.04815588 2.283038
v 0.6773712 -0.09660959 2.331115
v 0.6124542 -0.1897959 2.283038
v 0.6322226 0.064307 2.331115
v 0.5663815 0.0887768 2.283038
v 0.7066852 -2.81307E-16 2.331115
v 0.5778998 0.1140316 2.331115
v 0.5 0.1054856 2.283038
v 0.6009359 -0.1645411 2.234961
v 0.5 -0.1887577 2.234961
v 0.5 -0.1332432 2.234961
v 0.6999463 -0.1127607 2.283038
v 0.5778998 -0.1140316 2.234961
v 0.5 -0.1054856 2.283038
v 0.5663815 -0.0887768 2.283038
v 0.6773712 -0.09660959 2.234961
v 0.6322226 -0.064307 2.234961
v 0.6096481 -0.04815588 2.283038
v 0.7066852 -2.871948E-16 2.234961
v 0.6511731 -2.871938E-16 2.234961
v 0.6234173 -2.842491E-16 2.283038
v 0.6322226 0.064307 2.234961
v 0.6096481 0.04815588 2.283038
v 0.7344412 -2.842512E-16 2.283038
v 0.6773712 0.09660959 2.234961
v 0.6999463 0.1127607 2.283038
v 0.5778998 0.1140316 2.234961
v 0.5663815 0.0887768 2.283038
v 0.6773712 0.09660959 2.331115
v 0.6009359 0.1645411 2.234961
v 0.6124542 0.1897959 2.283038
v 0.5 0.2165153 2.283038
v 0.6009359 0.1645411 2.331115
v 0.5 0.1332432 2.234961
v 0.5 0.1054856 2.283038
v 0.4336185 0.0887768 2.283038
v 0.5 0.1887577 2.234961
v 0.4221001 0.1140316 2.234961
v 0.3903519 0.04815588 2.283038
v 0.5 0.1332432 2.331115
v 0.399064 0.1645411 2.234961
v 0.3677774 0.064307 2.234961
v 0.3765825 -2.842491E-16 2.283038
v 0.3488269 -2.871938E-16 2.234961
v 0.3903519 -0.04815588 2.283038
v 0.3226286 0.09660959 2.234961
v 0.3677774 -0.064307 2.234961
v 0.4336185 -0.0887768 2.283038
v 0.5 0.1887577 2.331115
v 0.3875456 0.1897959 2.283038
v 0.399064 0.1645411 2.331115
v 0.293315 -2.871948E-16 2.234961
v 0.4221001 -0.1140316 2.234961
v 0.5 -0.1054856 2.283038
v 0.5 -0.1332432 2.234961
v 0.4221001 0.1140316 2.331115
v 0.4336185 0.0887768 2.283038
v 0.3000537 0.1127607 2.283038
v 0.3226286 0.09660959 2.331115
v 0.3677774 0.064307 2.331115
v 0.3903519 0.04815588 2.283038
v 0.399064 -0.1645411 2.234961
v 0.5 -0.1887577 2.234961
v 0.5 -0.2165153 2.283038
v 0.293315 -2.81307E-16 2.331115
v 0.3488269 -2.813061E-16 2.331115
v 0.3765825 -2.842491E-16 2.283038
v 0.3226286 -0.09660959 2.234961
v 0.3875456 -0.1897959 2.283038
v 0.2655588 -2.842512E-16 2.283038
v 0.3000537 -0.1127607 2.283038
v 0.3226286 -0.09660959 2.331115
v 0.3677774 -0.064307 2.331115
v 0.3903519 -0.04815588 2.283038
v 0.399064 -0.1645411 2.331115
v 0.5 -0.1887577 2.331115
v 0.4221001 -0.1140316 2.331115
v 0.4336185 -0.0887768 2.283038
v 0.5 -0.1332432 2.331115
v 0.5 -0.1054856 2.283038
vt 0.2075739 0.8180115
vt 0.2075739 0.7950881
vt 0.2788429 0.7950881
vt 0.2788429 0.8180115
vt 0.2075739 0.8342621
vt 0.3429661 0.7950881
vt 0.2788429 0.8342621
vt 0.2075739 0.8479002
vt 0.3429661 0.8180115
vt 0.4047222 0.7950881
vt 0.4046153 0.8180113
vt 0.4595604 0.7950881
vt 0.3429661 0.8342621
vt 0.2788429 0.8479216
vt 0.4595604 0.8180115
vt 0.5284567 0.7950881
vt 0.404529 0.8342621
vt 0.5284567 0.8180115
vt 0.5926666 0.7950881
vt 0.2788429 0.8615434
vt 0.2075739 0.8615434
vt 0.2075739 0.8779309
vt 0.3429661 0.8479366
vt 0.2788429 0.8779309
vt 0.2075739 0.9008601
vt 0.2788429 0.9008601
vt 0.3429661 0.8615434
vt 0.3429661 0.8779309
vt 0.3429661 0.9008601
vt 0.4045196 0.8615434
vt 0.4045953 0.8779306
vt 0.4046955 0.9008601
vt 0.4595604 0.8779309
vt 0.4595604 0.9008601
vt 0.4045037 0.8479483
vt 0.4595604 0.8615434
vt 0.4595604 0.8479569
vt 0.5284567 0.8779309
vt 0.5284567 0.9008601
vt 0.4595604 0.8342621
vt 0.5284567 0.8615434
vt 0.5284567 0.84796
vt 0.5926666 0.8479838
vt 0.5284567 0.8342621
vt 0.5926666 0.8779309
vt 0.5926666 0.9008601
vt 0.656877 0.9008601
vt 0.5926666 0.8615434
vt 0.656877 0.8779309
vt 0.7195477 0.9008601
vt 0.5926666 0.8180115
vt 0.656877 0.8615434
vt 0.7195477 0.8779309
vt 0.7808304 0.9008601
vt 0.7808303 0.8779306
vt 0.8423681 0.9008601
vt 0.7195477 0.8615434
vt 0.8423681 0.8779309
vt 0.9064903 0.9008601
vt 0.5926666 0.8342621
vt 0.656877 0.84796
vt 0.656877 0.8342621
vt 0.7808303 0.8615434
vt 0.9064903 0.8779309
vt 0.9777603 0.9008601
vt 0.9777603 0.8779309
vt 0.656877 0.8180115
vt 0.656877 0.7950881
vt 0.7195477 0.8479569
vt 0.7195477 0.8342621
vt 0.7195477 0.8180115
vt 0.7195477 0.7950881
vt 0.9064903 0.8615434
vt 0.9777603 0.8615434
vt 0.9777603 0.8479004
vt 0.7808303 0.8342621
vt 0.7808303 0.8180113
vt 0.7808304 0.7950881
vt 0.8423681 0.8615434
vt 0.9064903 0.8479221
vt 0.7808303 0.8479483
vt 0.8423681 0.8479371
vt 0.8423681 0.8342621
vt 0.8423681 0.8180115
vt 0.8423681 0.7950881
vt 0.9064903 0.8342621
vt 0.9777603 0.8342621
vt 0.9064903 0.8180115
vt 0.9064903 0.7950881
vt 0.9777603 0.8180115
vt 0.9777603 0.7950881
vn -1.66893E-06 0.4931099 0.869967
vn -7.748604E-07 1 -1.192093E-07
vn -0.475756 0.8795773 2.384186E-07
vn -0.2348143 0.434123 0.8697123
vn -1.013279E-06 -0.493947 0.8694921
vn -0.850904 0.5253212 0
vn 0.2279506 -0.4383288 0.8694288
vn -1.788139E-07 -1 1.192093E-07
vn -0.4203636 0.2595191 0.8694506
vn -1 0 -6.556511E-07
vn -0.4938723 0 0.8695345
vn -0.8509042 -0.5253209 -2.384186E-07
vn 0.4151564 -0.2665694 0.8698195
vn 0.4613855 -0.8871998 0
vn -0.4203639 -0.259519 0.8694504
vn -0.4757559 -0.8795773 1.192093E-07
vn 0.4924081 0 0.8703644
vn -0.2348135 -0.4341231 0.8697125
vn -3.576279E-07 -1 0
vn 0.2279522 -0.4383285 -0.8694285
vn -2.384186E-07 -0.4939469 -0.8694921
vn -1.788139E-07 0.4931101 -0.8699669
vn 0.8414711 -0.5403022 5.960464E-07
vn -0.2348128 0.4341232 -0.8697127
vn -7.748604E-07 1 -1.192093E-07
vn -0.475756 0.8795773 2.384186E-07
vn 0.4151577 -0.266569 -0.869819
vn -0.4203633 0.259519 -0.8694507
vn -0.850904 0.5253212 0
vn 0.4924089 1.192093E-07 -0.870364
vn -0.4938717 0 -0.8695348
vn -1 0 -6.556511E-07
vn -0.4203633 -0.259519 -0.8694507
vn -0.8509042 -0.5253209 -2.384186E-07
vn 1 0 9.536743E-07
vn 0.4151574 0.2665691 -0.869819
vn 0.841471 0.5403022 3.576278E-07
vn -0.2348128 -0.4341232 -0.8697127
vn -0.4757559 -0.8795773 1.192093E-07
vn 0.4151565 0.2665692 0.8698194
vn 0.2279522 0.4383285 -0.8694285
vn 0.4613855 0.8871998 0
vn -1.788139E-07 1 1.192093E-07
vn 0.2279513 0.4383287 0.8694286
vn 2.384186E-07 -0.4931101 -0.8699669
vn -3.576279E-07 -1 0
vn 0.4757566 -0.879577 1.192093E-07
vn 1.192093E-07 0.4939468 -0.8694921
vn 0.2348139 -0.4341226 -0.8697127
vn 0.8509051 -0.5253194 -2.980232E-07
vn -1.788139E-07 -0.4931099 0.869967
vn -0.2279515 0.4383285 -0.8694287
vn 0.4203641 -0.2595183 -0.8694505
vn 1 2.384186E-07 -4.768372E-07
vn 0.4938722 0 -0.8695345
vn 0.8509051 0.5253194 0
vn -0.4151574 0.2665689 -0.8698192
vn 0.4203647 0.2595182 -0.8694502
vn 0.4757569 0.8795767 0
vn 1.192093E-07 0.493947 0.8694921
vn -0.4613857 0.8871997 1.192093E-07
vn -0.2279511 0.4383287 0.8694287
vn -0.4924091 0 -0.8703639
vn 0.2348137 0.4341226 -0.8697127
vn -7.748604E-07 1 -1.192093E-07
vn -1.788139E-07 0.4931101 -0.8699669
vn 0.2348137 -0.4341226 0.8697127
vn 0.4757566 -0.879577 1.192093E-07
vn -0.8414713 0.5403018 5.960464E-07
vn -0.4151567 0.2665691 0.8698194
vn 0.4203642 -0.2595182 0.8694505
vn 0.8509051 -0.5253194 -2.980232E-07
vn -0.2279517 -0.4383285 -0.8694286
vn -2.384186E-07 -0.4939469 -0.8694921
vn -1.788139E-07 -1 1.192093E-07
vn -0.4924087 0 0.8703641
vn 0.4938721 2.384186E-07 0.8695345
vn 1 2.384186E-07 -4.768372E-07
vn -0.4151567 -0.266569 -0.8698194
vn -0.4613853 -0.8871999 2.384186E-07
vn -1 0 9.536743E-07
vn -0.841471 -0.5403022 5.960464E-07
vn -0.4151559 -0.2665693 0.8698197
vn 0.4203647 0.2595182 0.8694502
vn 0.8509051 0.5253194 0
vn -0.2279505 -0.4383287 0.8694288
vn -1.013279E-06 -0.493947 0.8694921
vn 0.2348144 0.4341225 0.8697125
vn 0.4757569 0.8795767 0
vn -1.66893E-06 0.4931099 0.869967
vn -7.748604E-07 1 -1.192093E-07
g pm0720_12_LArmARingSkin_0
f 3/3/3 2/2/2 1/1/1
f 4/4/4 3/3/3 1/1/1
f 4/4/4 1/1/1 5/5/5
f 6/6/6 3/3/3 4/4/4
f 7/7/7 4/4/4 5/5/5
f 7/7/7 5/5/5 8/8/8
f 9/9/9 6/6/6 4/4/4
f 9/9/9 4/4/4 7/7/7
f 10/10/10 6/6/6 9/9/9
f 11/11/11 10/10/10 9/9/9
f 10/10/10 11/11/11 12/12/12
f 13/13/13 9/9/9 7/7/7
f 11/11/11 9/9/9 13/13/13
f 14/14/14 7/7/7 8/8/8
f 13/13/13 7/7/7 14/14/14
f 11/11/11 15/15/15 12/12/12
f 12/12/12 15/15/15 16/16/16
f 17/17/17 11/11/11 13/13/13
f 11/11/11 17/17/17 15/15/15
f 15/15/15 18/18/18 16/16/16
f 16/16/16 18/18/18 19/19/19
f 14/14/14 8/8/8 20/20/20
f 8/8/8 21/21/21 20/20/20
f 20/20/20 21/21/21 22/22/22
f 23/23/23 13/13/13 14/14/14
f 17/17/17 13/13/13 23/23/23
f 24/24/24 20/20/20 22/22/22
f 24/24/24 22/22/22 25/25/25
f 26/26/26 24/24/24 25/25/25
f 14/14/14 20/20/20 27/27/27
f 27/27/27 20/20/20 24/24/24
f 23/23/23 14/14/14 27/27/27
f 28/28/28 24/24/24 26/26/26
f 28/28/28 27/27/27 24/24/24
f 29/29/29 28/28/28 26/26/26
f 23/23/23 27/27/27 30/30/30
f 30/30/30 27/27/27 28/28/28
f 31/31/31 28/28/28 29/29/29
f 31/31/31 30/30/30 28/28/28
f 32/32/32 31/31/31 29/29/29
f 31/31/31 32/32/32 33/33/33
f 32/32/32 34/34/34 33/33/33
f 35/35/35 17/17/17 23/23/23
f 35/35/35 23/23/23 30/30/30
f 30/30/30 31/31/31 36/36/36
f 31/31/31 33/33/33 36/36/36
f 35/35/35 30/30/30 37/37/37
f 35/35/35 37/37/37 17/17/17
f 30/30/30 36/36/36 37/37/37
f 33/33/33 34/34/34 38/38/38
f 34/34/34 39/39/39 38/38/38
f 37/37/37 40/40/40 17/17/17
f 17/17/17 40/40/40 15/15/15
f 15/15/15 40/40/40 18/18/18
f 36/36/36 33/33/33 41/41/41
f 33/33/33 38/38/38 41/41/41
f 37/37/37 36/36/36 42/42/42
f 37/37/37 42/42/42 40/40/40
f 36/36/36 41/41/41 42/42/42
f 42/42/42 41/41/41 43/43/43
f 42/42/42 44/44/44 40/40/40
f 40/40/40 44/44/44 18/18/18
f 42/42/42 43/43/43 44/44/44
f 38/38/38 39/39/39 45/45/45
f 39/39/39 46/46/46 45/45/45
f 46/46/46 47/47/47 45/45/45
f 41/41/41 38/38/38 48/48/48
f 38/38/38 45/45/45 48/48/48
f 41/41/41 48/48/48 43/43/43
f 47/47/47 49/49/49 45/45/45
f 45/45/45 49/49/49 48/48/48
f 47/47/47 50/50/50 49/49/49
f 18/18/18 44/44/44 51/51/51
f 18/18/18 51/51/51 19/19/19
f 49/49/49 52/52/52 48/48/48
f 48/48/48 52/52/52 43/43/43
f 50/50/50 53/53/53 49/49/49
f 49/49/49 53/53/53 52/52/52
f 50/50/50 54/54/54 53/53/53
f 54/54/54 55/55/55 53/53/53
f 55/55/55 54/54/54 56/56/56
f 53/53/53 57/57/57 52/52/52
f 53/53/53 55/55/55 57/57/57
f 58/58/58 55/55/55 56/56/56
f 58/58/58 56/56/56 59/59/59
f 44/44/44 60/60/60 51/51/51
f 43/43/43 60/60/60 44/44/44
f 52/52/52 61/61/61 43/43/43
f 52/52/52 57/57/57 61/61/61
f 60/60/60 43/43/43 62/62/62
f 60/60/60 62/62/62 51/51/51
f 43/43/43 61/61/61 62/62/62
f 55/55/55 63/63/63 57/57/57
f 63/63/63 55/55/55 58/58/58
f 64/64/64 58/58/58 59/59/59
f 64/64/64 59/59/59 65/65/65
f 66/66/66 64/64/64 65/65/65
f 62/62/62 67/67/67 51/51/51
f 51/51/51 67/67/67 19/19/19
f 67/67/67 68/68/68 19/19/19
f 57/57/57 69/69/69 61/61/61
f 57/57/57 63/63/63 69/69/69
f 62/62/62 61/61/61 70/70/70
f 62/62/62 70/70/70 67/67/67
f 61/61/61 69/69/69 70/70/70
f 67/67/67 71/71/71 68/68/68
f 70/70/70 71/71/71 67/67/67
f 71/71/71 72/72/72 68/68/68
f 73/73/73 64/64/64 66/66/66
f 74/74/74 73/73/73 66/66/66
f 74/74/74 75/75/75 73/73/73
f 70/70/70 69/69/69 76/76/76
f 70/70/70 76/76/76 71/71/71
f 71/71/71 77/77/77 72/72/72
f 76/76/76 77/77/77 71/71/71
f 77/77/77 78/78/78 72/72/72
f 73/73/73 79/79/79 64/64/64
f 79/79/79 58/58/58 64/64/64
f 79/79/79 63/63/63 58/58/58
f 75/75/75 80/80/80 73/73/73
f 73/73/73 80/80/80 79/79/79
f 63/63/63 81/81/81 69/69/69
f 69/69/69 81/81/81 76/76/76
f 79/79/79 82/82/82 63/63/63
f 82/82/82 81/81/81 63/63/63
f 76/76/76 81/81/81 82/82/82
f 80/80/80 82/82/82 79/79/79
f 83/83/83 76/76/76 82/82/82
f 77/77/77 76/76/76 83/83/83
f 83/83/83 82/82/82 80/80/80
f 78/78/78 77/77/77 84/84/84
f 84/84/84 77/77/77 83/83/83
f 85/85/85 78/78/78 84/84/84
f 86/86/86 80/80/80 75/75/75
f 86/86/86 83/83/83 80/80/80
f 84/84/84 83/83/83 86/86/86
f 87/87/87 86/86/86 75/75/75
f 85/85/85 84/84/84 88/88/88
f 88/88/88 84/84/84 86/86/86
f 88/88/88 86/86/86 87/87/87
f 89/89/89 85/85/85 88/88/88
f 90/90/90 88/88/88 87/87/87
f 89/89/89 88/88/88 90/90/90
f 91/91/91 89/89/89 90/90/90
