g pm0799_00_BodyASkin
v 3.600266E-31 2.751648 -1.307304
v 3.576871E-31 3.028463 -1.198528
v 0.3359036 2.968629 -1.198528
v 0.2617513 2.709112 -1.300612
v 0.6299279 2.799359 -1.198528
v 3.5202E-31 2.224814 -1.367591
v 0.437038 2.621014 -1.29302
v 0.8310032 2.533391 -1.198528
v 0.5260628 2.464117 -1.300612
v 0.9090625 2.225201 -1.198528
v 0.5594007 2.225 -1.307305
v 0.852524 1.916396 -1.198528
v 0.538784 1.985954 -1.300612
v 0.6562487 1.657357 -1.198528
v 0.4517316 1.831301 -1.29302
v -1.85813E-31 1.701432 -1.307305
v 0.3583412 1.48615 -1.198528
v 0.2731989 1.74368 -1.300612
v -3.212282E-31 1.426644 -1.198528
v 3.600266E-31 2.751648 -1.307304
v -0.3359036 2.968629 -1.198528
v 3.576871E-31 3.028463 -1.198528
v -0.2617512 2.709112 -1.300612
v -0.6299279 2.799359 -1.198528
v 3.5202E-31 2.224814 -1.367591
v -0.437038 2.621014 -1.29302
v -0.8310032 2.533391 -1.198528
v -0.5260628 2.464117 -1.300612
v -0.9090625 2.225201 -1.198528
v -0.5594007 2.225 -1.307305
v -0.852524 1.916396 -1.198528
v -0.538784 1.985954 -1.300612
v -0.6562487 1.657357 -1.198528
v -0.4517316 1.831301 -1.29302
v -1.85813E-31 1.701432 -1.307305
v -0.3583412 1.48615 -1.198528
v -0.2731989 1.74368 -1.300612
v -3.212282E-31 1.426644 -1.198528
vt 0 0.1805283
vt 0 0.1713995
vt 0.01919174 0.1732304
vt 0.01263905 0.1822016
vt 0.03598797 0.1784141
vt 0 0.1960391
vt 0.02243161 0.185151
vt 0.04747772 0.1865546
vt 0.02789474 0.1898908
vt 0.0519371 0.1959893
vt 0.03131092 0.196057
vt 0.04870737 0.205442
vt 0.02879095 0.2022296
vt 0.03749323 0.2133714
vt 0.0232687 0.2068299
vt 0 0.2113373
vt 0.02047312 0.218612
vt 0.01326418 0.2097295
vt 0 0.2204341
vt 0 0.1805283
vt 0.01919174 0.1732304
vt 0 0.1713995
vt 0.01263905 0.1822016
vt 0.03598797 0.1784141
vt 0 0.1960391
vt 0.02243161 0.185151
vt 0.04747772 0.1865546
vt 0.02789474 0.1898908
vt 0.0519371 0.1959893
vt 0.03131092 0.196057
vt 0.04870737 0.205442
vt 0.02879095 0.2022296
vt 0.03749323 0.2133714
vt 0.0232687 0.2068299
vt 0 0.2113373
vt 0.02047312 0.218612
vt 0.01326418 0.2097295
vt 0 0.2204341
vn 0 -0.1836371 0.9829941
vn 0 -0.251698 0.9678058
vn -0.08996307 -0.2384979 0.9669671
vn -0.07803326 -0.2061663 0.9754006
vn -0.1590844 -0.1784721 0.9709994
vn 0 -0.001835943 0.9999983
vn -0.1165083 -0.130363 0.984597
vn -0.2097235 -0.1009356 0.972537
vn -0.1813625 -0.0872304 0.97954
vn -0.2189817 -0.004544674 0.9757184
vn -0.159862 -0.003565847 0.9871329
vn -0.208377 0.09323762 0.9735942
vn -0.1801159 0.0803498 0.9803581
vn -0.1570709 0.1740419 0.9721308
vn -0.1149617 0.126734 0.9852524
vn 0 0.183012 0.9831107
vn -0.08836003 0.2371106 0.967456
vn -0.07656937 0.2049666 0.9757693
vn 0 0.2511744 0.9679418
vn 0 -0.1836371 0.9829941
vn 0.08996307 -0.238498 0.9669671
vn 0 -0.251698 0.9678058
vn 0.07803333 -0.2061663 0.9754006
vn 0.1590844 -0.1784721 0.9709994
vn 0 -0.001835943 0.9999983
vn 0.1165082 -0.130363 0.984597
vn 0.2097235 -0.1009355 0.972537
vn 0.1813623 -0.08723038 0.97954
vn 0.2189817 -0.004544615 0.9757184
vn 0.1598619 -0.003565848 0.987133
vn 0.208377 0.09323762 0.9735942
vn 0.1801157 0.0803498 0.9803582
vn 0.1570708 0.174042 0.9721308
vn 0.1149616 0.126734 0.9852524
vn 0 0.183012 0.9831107
vn 0.08835983 0.2371106 0.967456
vn 0.07656943 0.2049668 0.9757693
vn 0 0.2511744 0.9679418
g pm0799_00_BodyASkin_0
f 3/3/3 2/2/2 1/1/1
f 4/4/4 3/3/3 1/1/1
f 3/3/3 4/4/4 5/5/5
f 4/4/4 1/1/1 6/6/6
f 4/4/4 7/7/7 5/5/5
f 7/7/7 4/4/4 6/6/6
f 5/5/5 7/7/7 8/8/8
f 7/7/7 9/9/9 8/8/8
f 7/7/7 6/6/6 9/9/9
f 8/8/8 9/9/9 10/10/10
f 9/9/9 11/11/11 10/10/10
f 6/6/6 11/11/11 9/9/9
f 12/12/12 10/10/10 11/11/11
f 13/13/13 12/12/12 11/11/11
f 11/11/11 6/6/6 13/13/13
f 12/12/12 13/13/13 14/14/14
f 6/6/6 15/15/15 13/13/13
f 13/13/13 15/15/15 14/14/14
f 6/6/6 16/16/16 15/15/15
f 17/17/17 14/14/14 15/15/15
f 16/16/16 18/18/18 15/15/15
f 18/18/18 17/17/17 15/15/15
f 18/18/18 16/16/16 19/19/19
f 17/17/17 18/18/18 19/19/19
f 22/22/22 21/21/21 20/20/20
f 21/21/21 23/23/23 20/20/20
f 23/23/23 21/21/21 24/24/24
f 20/20/20 23/23/23 25/25/25
f 26/26/26 23/23/23 24/24/24
f 23/23/23 26/26/26 25/25/25
f 26/26/26 24/24/24 27/27/27
f 28/28/28 26/26/26 27/27/27
f 25/25/25 26/26/26 28/28/28
f 28/28/28 27/27/27 29/29/29
f 30/30/30 28/28/28 29/29/29
f 30/30/30 25/25/25 28/28/28
f 29/29/29 31/31/31 30/30/30
f 31/31/31 32/32/32 30/30/30
f 25/25/25 30/30/30 32/32/32
f 32/32/32 31/31/31 33/33/33
f 34/34/34 25/25/25 32/32/32
f 34/34/34 32/32/32 33/33/33
f 35/35/35 25/25/25 34/34/34
f 33/33/33 36/36/36 34/34/34
f 37/37/37 35/35/35 34/34/34
f 36/36/36 37/37/37 34/34/34
f 35/35/35 37/37/37 38/38/38
f 37/37/37 36/36/36 38/38/38
