g pm0726_00_RTeethSkin_ty1
v -0.03205269 0.285897 0.525274
v -0.02772557 0.2958319 0.5323291
v -0.03150281 0.2971147 0.5260776
v -0.02959916 0.2845311 0.5300792
v -0.03110183 0.276224 0.5281351
v -0.03263005 0.2770678 0.5250623
v -0.02856245 0.2833129 0.5344394
v -0.02581688 0.2947929 0.5391119
v -0.03539096 0.2964444 0.5369329
v -0.03212991 0.272716 0.5272238
v -0.03319699 0.2720107 0.5258654
v -0.03196106 0.2712345 0.5283444
v -0.03366848 0.2696711 0.5265848
v -0.03048654 0.2753598 0.53092
v -0.0340685 0.2718263 0.528299
v -0.03442245 0.2754901 0.5299367
v -0.0357901 0.271479 0.5269918
v -0.03319699 0.2720107 0.5258654
v -0.03483178 0.2845606 0.5331209
v -0.04104528 0.2859497 0.5309086
v -0.04332822 0.2972925 0.5340443
v -0.03844028 0.2973851 0.5292101
v -0.03813073 0.2758479 0.5282193
v -0.03487685 0.2729713 0.5262823
v -0.03581513 0.2765249 0.5264699
v -0.03263005 0.2770678 0.5250623
v -0.03717826 0.2858039 0.5276428
v -0.03205269 0.285897 0.525274
v -0.03150281 0.2971147 0.5260776
vt 0.0392487 0.8843257
vt 0.07501507 0.8836946
vt 0.0643785 0.8657817
vt 0.04663658 0.8975561
vt 0.02715015 0.9087011
vt 0.02141237 0.9012265
vt 0.05173695 0.9082785
vt 0.0839448 0.9006355
vt 0.08555508 0.9260552
vt 0.01951349 0.9149098
vt 0.01414204 0.9149573
vt 0.02054977 0.9190736
vt 0.01413584 0.923547
vt 0.03090334 0.9146605
vt 0.02169943 0.9236317
vt 0.03076005 0.9238222
vt 0.02010119 0.9281566
vt 0.01352549 0.9321742
vt 0.05378675 0.9242492
vt 0.05523396 0.9406815
vt 0.08498502 0.947295
vt 0.0761385 0.9628365
vt 0.03022969 0.932883
vt 0.01929629 0.9325142
vt 0.02635002 0.9387188
vt 0.02067733 0.9462903
vt 0.04764628 0.9507262
vt 0.03882289 0.9631054
vt 0.06478 0.9800022
vn 0.2955132 0.005982861 -0.9553199
vn 0.9220659 -0.1935524 -0.3351595
vn 0.2873858 0.01849587 -0.9576364
vn 0.9238196 -0.1689502 -0.3435306
vn 0.9069979 -0.2226568 -0.3574619
vn 0.3110923 -0.07239462 -0.9476184
vn 0.4777465 -0.4434738 0.7583464
vn 0.4991502 -0.4314066 0.7514902
vn -0.3222774 -0.3823687 0.8659858
vn 0.8427359 -0.3905612 -0.3704835
vn 0.2707969 -0.3960502 -0.87739
vn 0.3981311 -0.7964646 0.4551216
vn -0.02149476 -0.9920484 -0.1240073
vn 0.4895104 -0.5266405 0.6950033
vn -0.2922646 -0.6192873 0.7287419
vn -0.323459 -0.449728 0.8325377
vn -0.6926774 -0.7180506 0.06783379
vn 0.2707969 -0.3960502 -0.87739
vn -0.3234028 -0.3888503 0.8626738
vn -0.9074486 -0.3136534 0.2795687
vn -0.9168166 -0.2881804 0.2764043
vn -0.6042357 -0.04742091 -0.7953933
vn -0.8834509 -0.4158441 0.2158433
vn -0.471917 -0.3060272 -0.8268263
vn -0.5345303 -0.1096002 -0.8380126
vn 0.3110923 -0.07239462 -0.9476184
vn -0.5710036 -0.03628778 -0.8201452
vn 0.2955132 0.005982861 -0.9553199
vn 0.2873858 0.01849587 -0.9576364
g pm0726_00_RTeethSkin_ty1_0
f 3/3/3 2/2/2 1/1/1
f 2/2/2 4/4/4 1/1/1
f 4/4/4 5/5/5 1/1/1
f 5/5/5 6/6/6 1/1/1
f 7/7/7 4/4/4 2/2/2
f 8/8/8 7/7/7 2/2/2
f 8/8/8 9/9/9 7/7/7
f 5/5/5 10/10/10 6/6/6
f 10/10/10 11/11/11 6/6/6
f 10/10/10 12/12/12 11/11/11
f 10/10/10 5/5/5 12/12/12
f 12/12/12 13/13/13 11/11/11
f 5/5/5 4/4/4 14/14/14
f 5/5/5 14/14/14 12/12/12
f 4/4/4 7/7/7 14/14/14
f 13/13/13 12/12/12 15/15/15
f 12/12/12 14/14/14 15/15/15
f 14/14/14 7/7/7 16/16/16
f 14/14/14 16/16/16 15/15/15
f 17/17/17 13/13/13 15/15/15
f 15/15/15 16/16/16 17/17/17
f 18/18/18 13/13/13 17/17/17
f 9/9/9 19/19/19 7/7/7
f 7/7/7 19/19/19 16/16/16
f 20/20/20 19/19/19 9/9/9
f 19/19/19 20/20/20 16/16/16
f 21/21/21 20/20/20 9/9/9
f 21/21/21 22/22/22 20/20/20
f 16/16/16 23/23/23 17/17/17
f 20/20/20 23/23/23 16/16/16
f 24/24/24 18/18/18 17/17/17
f 24/24/24 17/17/17 23/23/23
f 24/24/24 25/25/25 18/18/18
f 25/25/25 24/24/24 23/23/23
f 25/25/25 23/23/23 20/20/20
f 25/25/25 26/26/26 18/18/18
f 27/27/27 25/25/25 20/20/20
f 25/25/25 27/27/27 26/26/26
f 22/22/22 27/27/27 20/20/20
f 27/27/27 28/28/28 26/26/26
f 28/28/28 27/27/27 22/22/22
f 29/29/29 28/28/28 22/22/22
