g pm0718_15_OffsetAHeadCSkin
v -0.1421999 -0.9548343 -0.8126668
v -0.27572 -0.8297671 -0.7863603
v -0.277252 -0.9516763 -0.7768967
v -0.2723025 -1.074309 -0.7625989
v -0.1468323 -0.8342822 -0.8248779
v -7.720171E-11 -0.8342228 -0.8319899
v -0.1475386 -0.7189931 -0.8339522
v -1.475798E-10 -0.7295838 -0.8378297
v 0.1475386 -0.7189931 -0.8339522
v -0.1403031 -1.076089 -0.7965176
v -0.263811 -1.194093 -0.7413962
v 0.1468323 -0.8342822 -0.8248779
v 0.27572 -0.8297671 -0.7863603
v 0.1421999 -0.9548343 -0.8126668
v 0.277252 -0.9516763 -0.7768967
v 0.2723025 -1.074309 -0.7625989
v 6.548123E-11 -0.955748 -0.8231065
v 0.1403031 -1.076089 -0.7965176
v 0.263811 -1.194093 -0.7413962
v -0.1394704 -1.196819 -0.7657855
v -0.1462302 -1.314586 -0.7166024
v 2.805355E-10 -1.077561 -0.8060638
v 0.1394703 -1.196819 -0.7657855
v 0.1462302 -1.314586 -0.7166024
v 2.447488E-10 -1.20001 -0.7734151
v 6.18163E-11 -1.326139 -0.7207032
vt 0.1031416 2.13833
vt 0.04100063 2.090128
vt 0.04090023 2.139776
vt 0.04278257 2.190655
vt 0.1009006 2.087319
vt 0.1710679 2.085145
vt 0.1005457 2.037515
vt 0.1710679 2.037827
vt 0.2415904 2.037515
vt 0.1040261 2.189462
vt 0.04660491 2.242015
vt 0.2412353 2.087319
vt 0.3011352 2.090128
vt 0.2389943 2.13833
vt 0.3012361 2.139776
vt 0.2993532 2.190655
vt 0.1710679 2.137568
vt 0.2381095 2.189462
vt 0.295531 2.242015
vt 0.1043675 2.241977
vt 0.1010812 2.297267
vt 0.1710679 2.1894
vt 0.2377688 2.241977
vt 0.2410545 2.297267
vt 0.1710679 2.242925
vt 0.1710679 2.302185
vn -0.1451068 -0.1193977 -0.9821854
vn -0.1955635 -0.08697804 -0.9768264
vn -0.2346033 -0.1187086 -0.9648157
vn -0.2163772 -0.1768494 -0.9601591
vn -0.1364609 -0.08584588 -0.9869189
vn 0 -0.08461855 -0.9964134
vn -0.1299878 -0.07703777 -0.9885182
vn 0 -0.07172684 -0.9974244
vn 0.1299879 -0.0770377 -0.9885182
vn -0.1344315 -0.1922516 -0.9720943
vn -0.1638407 -0.2755583 -0.9472191
vn 0.1364609 -0.08584576 -0.9869189
vn 0.1955636 -0.08697798 -0.9768264
vn 0.1451067 -0.1193977 -0.9821854
vn 0.2346033 -0.1187086 -0.9648157
vn 0.2163773 -0.1768493 -0.9601589
vn 0 -0.1218402 -0.9925497
vn 0.1344316 -0.1922516 -0.9720943
vn 0.1638408 -0.2755584 -0.947219
vn -0.1134648 -0.2878281 -0.9509368
vn -0.1041325 -0.3295243 -0.938387
vn 0 -0.2000807 -0.9797794
vn 0.1134648 -0.2878282 -0.9509367
vn 0.1041324 -0.3295244 -0.938387
vn 0 -0.3015371 -0.9534545
vn -1.79184E-07 -0.3678911 -0.9298688
g pm0718_15_OffsetAHeadCSkin_0
f 3/3/3 2/2/2 1/1/1
f 4/4/4 3/3/3 1/1/1
f 2/2/2 5/5/5 1/1/1
f 1/1/1 5/5/5 6/6/6
f 2/2/2 7/7/7 5/5/5
f 6/6/6 5/5/5 7/7/7
f 8/8/8 6/6/6 7/7/7
f 6/6/6 8/8/8 9/9/9
f 10/10/10 4/4/4 1/1/1
f 11/11/11 4/4/4 10/10/10
f 12/12/12 6/6/6 9/9/9
f 9/9/9 13/13/13 12/12/12
f 12/12/12 13/13/13 14/14/14
f 12/12/12 14/14/14 6/6/6
f 13/13/13 15/15/15 14/14/14
f 15/15/15 16/16/16 14/14/14
f 17/17/17 1/1/1 6/6/6
f 14/14/14 17/17/17 6/6/6
f 1/1/1 17/17/17 10/10/10
f 16/16/16 18/18/18 14/14/14
f 17/17/17 14/14/14 18/18/18
f 16/16/16 19/19/19 18/18/18
f 20/20/20 11/11/11 10/10/10
f 21/21/21 11/11/11 20/20/20
f 17/17/17 22/22/22 10/10/10
f 22/22/22 17/17/17 18/18/18
f 10/10/10 22/22/22 20/20/20
f 19/19/19 23/23/23 18/18/18
f 22/22/22 18/18/18 23/23/23
f 19/19/19 24/24/24 23/23/23
f 20/20/20 25/25/25 21/21/21
f 22/22/22 25/25/25 20/20/20
f 25/25/25 22/22/22 23/23/23
f 25/25/25 23/23/23 24/24/24
f 25/25/25 26/26/26 21/21/21
f 26/26/26 25/25/25 24/24/24
