g pm0802_00_EyeOffsetSkin
v -0.03250835 0.4114918 0.1375113
v 9.187529E-11 0.4129637 0.1393151
v 7.453511E-11 0.3782291 0.1502612
v -0.03288629 0.378069 0.1479906
v -0.06455235 0.3780634 0.1407983
v -0.06335551 0.4089249 0.1313264
v -0.09074143 0.4067206 0.1199795
v -0.03307114 0.3487289 0.150283
v 3.351216E-11 0.3487311 0.1525702
v 7.124815E-12 0.3247554 0.1505984
v -0.031845 0.324828 0.1482697
v -0.06491508 0.3487145 0.1429949
v -0.06245577 0.3247797 0.1410206
v -0.02996286 0.3027939 0.1428722
v -0.09425417 0.3486929 0.1301263
v -0.09373026 0.3780552 0.1280555
v -0.1192716 0.3780494 0.1110182
v -0.1142375 0.4045906 0.1052585
v -0.1199337 0.3486838 0.1128379
v -0.09067716 0.324743 0.1281403
v -0.1153757 0.3247266 0.1110342
v -0.08516323 0.302698 0.1231734
v -0.1083567 0.3026854 0.1065605
v -0.05866 0.3027308 0.135805
v -0.05325614 0.2837877 0.1257583
v -0.07728414 0.2837697 0.113991
v -0.09832843 0.2837594 0.09821341
v 0.03250835 0.4114918 0.1375113
v 7.453511E-11 0.3782291 0.1502612
v 9.187529E-11 0.4129637 0.1393151
v 0.03288629 0.378069 0.1479906
v 0.06455235 0.3780634 0.1407983
v 0.06335551 0.4089249 0.1313264
v 0.09074143 0.4067206 0.1199795
v 0.03307114 0.3487289 0.150283
v 3.351216E-11 0.3487311 0.1525702
v 7.124815E-12 0.3247554 0.1505984
v 0.031845 0.324828 0.1482697
v 0.06491508 0.3487145 0.1429949
v 0.06245578 0.3247797 0.1410206
v 0.02996286 0.3027939 0.1428722
v 0.09425417 0.3486929 0.1301263
v 0.09373026 0.3780552 0.1280555
v 0.1192716 0.3780494 0.1110182
v 0.1142375 0.4045906 0.1052585
v 0.1199337 0.3486838 0.1128379
v 0.09067716 0.324743 0.1281403
v 0.1153757 0.3247266 0.1110342
v 0.08516323 0.302698 0.1231734
v 0.1083567 0.3026854 0.1065605
v 0.05866 0.3027308 0.135805
v 0.05325614 0.2837877 0.1257583
v 0.07728414 0.2837697 0.113991
v 0.09832843 0.2837594 0.09821341
vt 0.1130054 1.985245
vt 0 1.987305
vt 0 1.925384
vt 0.1145573 1.925384
vt 0.2247462 1.925384
vt 0.2201123 1.98064
vt 0.3156161 1.975578
vt 0.1158881 1.873013
vt 0 1.873013
vt 0 1.830317
vt 0.112896 1.830318
vt 0.2273562 1.873013
vt 0.2214737 1.83032
vt 0.1078558 1.791081
vt 0.3300042 1.873013
vt 0.3262153 1.925384
vt 0.4152699 1.925384
vt 0.3968637 1.972871
vt 0.4200921 1.873013
vt 0.3214605 1.830322
vt 0.4092119 1.830325
vt 0.307132 1.791081
vt 0.390976 1.791082
vt 0.2115993 1.791082
vt 0.1957245 1.757302
vt 0.28407 1.757309
vt 0.3616104 1.75732
vt 0.1130054 1.985245
vt 0 1.925384
vt 0 1.987305
vt 0.1145573 1.925384
vt 0.2247462 1.925384
vt 0.2201123 1.98064
vt 0.3156161 1.975578
vt 0.1158881 1.873013
vt 0 1.873013
vt 0 1.830317
vt 0.112896 1.830318
vt 0.2273562 1.873013
vt 0.2214737 1.83032
vt 0.1078558 1.791081
vt 0.3300042 1.873013
vt 0.3262153 1.925384
vt 0.4152699 1.925384
vt 0.3968637 1.972871
vt 0.4200921 1.873013
vt 0.3214605 1.830322
vt 0.4092119 1.830325
vt 0.307132 1.791081
vt 0.390976 1.791082
vt 0.2115993 1.791082
vt 0.1957245 1.757302
vt 0.28407 1.757309
vt 0.3616104 1.75732
vn -0.1590012 0.2683661 0.9501044
vn 0 0.2704723 0.9627278
vn 1.219378E-07 0.1637844 0.9864962
vn -0.1653581 0.1612805 0.972957
vn -0.3225748 0.1565561 0.9335072
vn -0.3119714 0.2623696 0.9131463
vn -0.442945 0.2492031 0.8612186
vn -0.1720234 -0.02743452 0.9847108
vn 0 -0.01769779 0.9998434
vn 0 -0.1785831 0.9839249
vn -0.1837258 -0.2287373 0.9559938
vn -0.3323377 -0.02896004 0.9427158
vn -0.3272394 -0.2371069 0.9147101
vn -0.2462288 -0.4076124 0.8793314
vn -0.4753466 -0.0398459 0.8788958
vn -0.4612691 0.1452709 0.8752869
vn -0.5418715 0.1286143 0.8305622
vn -0.5173663 0.2289766 0.8245616
vn -0.5604486 -0.05265584 0.8265136
vn -0.4695883 -0.2470811 0.8476071
vn -0.5563939 -0.2610423 0.7888491
vn -0.4400308 -0.4368857 0.7845405
vn -0.524149 -0.4445941 0.7263634
vn -0.3169918 -0.4126057 0.8539746
vn -0.3032167 -0.4911143 0.8166189
vn -0.4094374 -0.5359074 0.7383524
vn -0.4862469 -0.5462314 0.6820521
vn 0.1590013 0.2683662 0.9501044
vn 1.219378E-07 0.1637844 0.9864962
vn 0 0.2704723 0.9627278
vn 0.1653582 0.1612807 0.972957
vn 0.3225753 0.1565562 0.933507
vn 0.3119716 0.2623697 0.9131461
vn 0.4429452 0.2492031 0.8612186
vn 0.1720236 -0.02743452 0.9847108
vn 0 -0.01769779 0.9998434
vn 0 -0.1785831 0.9839249
vn 0.1837259 -0.2287373 0.9559938
vn 0.3323381 -0.02896004 0.9427156
vn 0.3272398 -0.237107 0.91471
vn 0.2462291 -0.4076123 0.8793312
vn 0.4753468 -0.03984603 0.8788958
vn 0.4612693 0.1452711 0.8752868
vn 0.5418716 0.1286144 0.8305622
vn 0.5173665 0.2289765 0.8245615
vn 0.5604488 -0.05265591 0.8265134
vn 0.4695886 -0.2470811 0.8476069
vn 0.5563942 -0.2610423 0.7888488
vn 0.4400311 -0.4368857 0.7845404
vn 0.5241492 -0.4445942 0.7263633
vn 0.3169921 -0.4126057 0.8539746
vn 0.303217 -0.4911143 0.8166187
vn 0.4094375 -0.5359074 0.7383523
vn 0.4862472 -0.5462314 0.682052
g pm0802_00_EyeOffsetSkin_0
f 3/3/3 2/2/2 1/1/1
f 4/4/4 3/3/3 1/1/1
f 4/4/4 1/1/1 5/5/5
f 1/1/1 6/6/6 5/5/5
f 5/5/5 6/6/6 7/7/7
f 4/4/4 8/8/8 3/3/3
f 4/4/4 5/5/5 8/8/8
f 8/8/8 9/9/9 3/3/3
f 10/10/10 9/9/9 8/8/8
f 11/11/11 10/10/10 8/8/8
f 8/8/8 12/12/12 11/11/11
f 5/5/5 12/12/12 8/8/8
f 12/12/12 13/13/13 11/11/11
f 11/11/11 13/13/13 14/14/14
f 15/15/15 12/12/12 5/5/5
f 13/13/13 12/12/12 15/15/15
f 16/16/16 5/5/5 7/7/7
f 16/16/16 15/15/15 5/5/5
f 16/16/16 7/7/7 17/17/17
f 16/16/16 17/17/17 15/15/15
f 7/7/7 18/18/18 17/17/17
f 17/17/17 19/19/19 15/15/15
f 15/15/15 19/19/19 20/20/20
f 20/20/20 13/13/13 15/15/15
f 19/19/19 21/21/21 20/20/20
f 20/20/20 21/21/21 22/22/22
f 20/20/20 22/22/22 13/13/13
f 21/21/21 23/23/23 22/22/22
f 13/13/13 24/24/24 14/14/14
f 22/22/22 24/24/24 13/13/13
f 25/25/25 14/14/14 24/24/24
f 25/25/25 24/24/24 22/22/22
f 26/26/26 25/25/25 22/22/22
f 26/26/26 22/22/22 23/23/23
f 27/27/27 26/26/26 23/23/23
f 30/30/30 29/29/29 28/28/28
f 29/29/29 31/31/31 28/28/28
f 28/28/28 31/31/31 32/32/32
f 33/33/33 28/28/28 32/32/32
f 33/33/33 32/32/32 34/34/34
f 35/35/35 31/31/31 29/29/29
f 32/32/32 31/31/31 35/35/35
f 36/36/36 35/35/35 29/29/29
f 36/36/36 37/37/37 35/35/35
f 37/37/37 38/38/38 35/35/35
f 39/39/39 35/35/35 38/38/38
f 39/39/39 32/32/32 35/35/35
f 40/40/40 39/39/39 38/38/38
f 40/40/40 38/38/38 41/41/41
f 39/39/39 42/42/42 32/32/32
f 39/39/39 40/40/40 42/42/42
f 32/32/32 43/43/43 34/34/34
f 42/42/42 43/43/43 32/32/32
f 34/34/34 43/43/43 44/44/44
f 44/44/44 43/43/43 42/42/42
f 45/45/45 34/34/34 44/44/44
f 46/46/46 44/44/44 42/42/42
f 46/46/46 42/42/42 47/47/47
f 40/40/40 47/47/47 42/42/42
f 48/48/48 46/46/46 47/47/47
f 48/48/48 47/47/47 49/49/49
f 49/49/49 47/47/47 40/40/40
f 50/50/50 48/48/48 49/49/49
f 51/51/51 40/40/40 41/41/41
f 51/51/51 49/49/49 40/40/40
f 41/41/41 52/52/52 51/51/51
f 51/51/51 52/52/52 49/49/49
f 52/52/52 53/53/53 49/49/49
f 49/49/49 53/53/53 50/50/50
f 53/53/53 54/54/54 50/50/50
