g pm0890_00_BodyB01Skin
v 0.7932593 2.450179 -2.237694
v 0.397773 2.791165 -2.597195
v 0.3977728 2.791165 -2.228937
v 0.7897637 2.450768 -2.588438
v 1.15482 2.10741 -2.565098
v 1.162443 2.094221 -2.261035
v 1.154252 2.082954 -2.562614
v 1.161743 2.069109 -2.263519
v 0.6876833 1.680327 -2.510177
v 0.6887873 1.671459 -2.317028
v 0.3121746 1.424815 -2.466245
v 0.3121746 1.419967 -2.361523
v 0.1608082 1.350737 -2.438257
v 0.1608082 1.348405 -2.387875
v 0.1213368 1.334805 -2.413066
v 0.868071 2.404916 -1.418711
v 0.4195592 2.776624 -1.785721
v 0.4196723 2.776624 -1.409772
v 0.8609655 2.40732 -1.776782
v 1.292218 2.032003 -1.752953
v 1.305861 2.016902 -1.442539
v 1.294629 2.004894 -1.750418
v 1.307901 1.9901 -1.445076
v 0.7501243 1.5697 -1.696872
v 0.7517069 1.557711 -1.499689
v 0.3282508 1.290636 -1.652036
v 0.3282508 1.282153 -1.545127
v 0.1660628 1.206493 -1.623464
v 0.1660628 1.202411 -1.572029
v 0.1240048 1.188154 -1.597746
v 0.9681376 2.360406 -0.5413989
v 0.4574817 2.760818 -0.9339048
v 0.4578093 2.760818 -0.5318381
v 0.9591545 2.359412 -0.9243441
v 1.415408 1.941713 -0.8988608
v 1.422403 1.935833 -0.5668823
v 1.418751 1.912136 -0.8961494
v 1.42574 1.904256 -0.5695944
v 0.8189948 1.437106 -0.8388504
v 0.8212191 1.418524 -0.627973
v 0.3644865 1.138073 -0.7909325
v 0.3646577 1.126733 -0.6765961
v 0.190013 1.04423 -0.7603754
v 0.190013 1.038773 -0.7053675
v 0.1428688 1.023701 -0.7328715
v 1.033788 2.327166 0.4017139
v 0.4904526 2.749646 -0.007422711
v 0.4904508 2.749646 0.4116798
v 1.024437 2.331482 0.002543123
v 1.544533 1.878143 0.02910622
v 1.563509 1.862987 0.3751507
v 1.548797 1.845372 0.03193238
v 1.567173 1.829687 0.3723236
v 0.8936619 1.32104 0.09169164
v 0.8964853 1.3005 0.3115036
v 0.3854175 0.9904543 0.1416074
v 0.3854117 0.9758756 0.2607883
v 0.2086914 0.8855502 0.1734592
v 0.2086913 0.8780335 0.2307978
v 0.1634284 0.8620513 0.2021285
v 1.099259 2.306537 1.388842
v 0.5108907 2.746761 0.9686805
v 0.5108904 2.746761 1.399077
v 1.091237 2.306537 0.9789148
v 1.646766 1.809321 1.006194
v 1.660834 1.809321 1.361563
v 1.650838 1.773107 1.009096
v 1.664726 1.773107 1.35866
v 0.9280708 1.193828 1.070487
v 0.9311478 1.193953 1.296234
v 0.398892 0.8342297 1.121727
v 0.398892 0.8342297 1.244119
v 0.2240374 0.7221482 1.154437
v 0.2240374 0.7221478 1.21332
v 0.1787494 0.7004057 1.183879
v -0.7932508 2.450179 -2.237694
v -0.3977642 2.791165 -2.228937
v -0.3977645 2.791165 -2.597195
v -0.7897552 2.450768 -2.588438
v -1.154811 2.10741 -2.565098
v -1.162435 2.094221 -2.261035
v -1.154243 2.082954 -2.562614
v -1.161734 2.069109 -2.263519
v -0.6876748 1.680327 -2.510177
v -0.6887788 1.671459 -2.317028
v -0.3121661 1.424815 -2.466245
v -0.3121661 1.419967 -2.361523
v -0.1607997 1.350737 -2.438257
v -0.1607997 1.348405 -2.387875
v -0.1213282 1.334805 -2.413066
v -0.8680625 2.404916 -1.418711
v -0.4196638 2.776624 -1.409772
v -0.4195507 2.776624 -1.785721
v -0.860957 2.40732 -1.776782
v -1.292209 2.032003 -1.752953
v -1.305853 2.016902 -1.442539
v -1.29462 2.004894 -1.750418
v -1.307892 1.9901 -1.445076
v -0.7501158 1.5697 -1.696872
v -0.7516984 1.557711 -1.499689
v -0.3282422 1.290636 -1.652036
v -0.3282422 1.282153 -1.545127
v -0.1660543 1.206493 -1.623464
v -0.1660542 1.202411 -1.572029
v -0.1239962 1.188154 -1.597746
v -0.968129 2.360406 -0.5413989
v -0.4578007 2.760818 -0.5318381
v -0.4574731 2.760818 -0.9339048
v -0.959146 2.359412 -0.9243441
v -1.415399 1.941713 -0.8988608
v -1.422395 1.935833 -0.5668823
v -1.418743 1.912136 -0.8961494
v -1.425732 1.904256 -0.5695944
v -0.8189862 1.437106 -0.8388504
v -0.8212106 1.418524 -0.627973
v -0.364478 1.138073 -0.7909325
v -0.3646492 1.126733 -0.6765961
v -0.1900045 1.04423 -0.7603754
v -0.1900045 1.038773 -0.7053675
v -0.1428602 1.023701 -0.7328715
v -1.03378 2.327166 0.4017139
v -0.4904422 2.749646 0.4116798
v -0.4904441 2.749646 -0.007422711
v -1.024428 2.331482 0.002543123
v -1.544524 1.878143 0.02910622
v -1.563501 1.862987 0.3751507
v -1.548789 1.845372 0.03193238
v -1.567165 1.829687 0.3723236
v -0.8936533 1.32104 0.09169164
v -0.8964768 1.3005 0.3115036
v -0.385409 0.9904543 0.1416074
v -0.3854032 0.9758756 0.2607883
v -0.2086828 0.8855502 0.1734592
v -0.2086828 0.8780335 0.2307978
v -0.1634198 0.8620513 0.2021285
v -1.09925 2.306537 1.388842
v -0.5108819 2.746761 1.399077
v -0.5108821 2.746761 0.9686805
v -1.091229 2.306537 0.9789148
v -1.646757 1.809321 1.006194
v -1.660826 1.809321 1.361563
v -1.65083 1.773107 1.009096
v -1.664718 1.773107 1.35866
v -0.9280623 1.193828 1.070487
v -0.9311392 1.193953 1.296234
v -0.3988835 0.8342297 1.121727
v -0.3988835 0.8342297 1.244119
v -0.2240289 0.7221482 1.154437
v -0.2240289 0.7221478 1.21332
v -0.1787408 0.7004057 1.183879
vt 0.283156 0.8399038
vt 0.2248757 0.8601215
vt 0.2248757 0.8401072
vt 0.283156 0.8603458
vt 0.3458682 0.8602302
vt 0.3458682 0.8392915
vt 0.362906 0.8599253
vt 0.362906 0.8395197
vt 0.4358159 0.8553679
vt 0.4358159 0.8444269
vt 0.4851878 0.8529598
vt 0.4851879 0.846992
vt 0.5033522 0.85131
vt 0.5033522 0.8487091
vt 0.506649 0.8500316
vt 0.2957364 0.7832782
vt 0.2254678 0.8052236
vt 0.2254678 0.7832493
vt 0.2957364 0.805757
vt 0.3672453 0.8050139
vt 0.3672453 0.7829058
vt 0.3849846 0.8047116
vt 0.3849845 0.7831041
vt 0.4685007 0.8003187
vt 0.4685007 0.7885144
vt 0.5301471 0.7982634
vt 0.5301472 0.7917466
vt 0.5521603 0.7967016
vt 0.5521604 0.7938256
vt 0.5564998 0.7953346
vt 0.3046049 0.7239871
vt 0.2259114 0.7477328
vt 0.2259114 0.7241547
vt 0.3046049 0.7482752
vt 0.381976 0.747472
vt 0.3813097 0.7239878
vt 0.3998697 0.7471273
vt 0.3998697 0.7241707
vt 0.4925369 0.7409892
vt 0.4925369 0.728386
vt 0.5590279 0.7379973
vt 0.5590279 0.7309957
vt 0.5829933 0.7360271
vt 0.5829934 0.732904
vt 0.5879242 0.7344922
vt 0.3094232 0.6639519
vt 0.226029 0.6887183
vt 0.226029 0.6643839
vt 0.3094232 0.6884115
vt 0.3956484 0.6865418
vt 0.3956484 0.6639764
vt 0.411239 0.6861026
vt 0.4112389 0.6643131
vt 0.4994903 0.6811817
vt 0.4994903 0.6697218
vt 0.5613301 0.6781675
vt 0.5613301 0.6720214
vt 0.5822673 0.6758792
vt 0.5822673 0.6731088
vt 0.5861239 0.6743118
vt 0.3240159 0.5971017
vt 0.2319235 0.6240978
vt 0.2315967 0.5962547
vt 0.3237532 0.623307
vt 0.4169738 0.6220315
vt 0.4174503 0.5980248
vt 0.4354229 0.6216929
vt 0.4354227 0.5983105
vt 0.5380824 0.6163061
vt 0.5380824 0.6038392
vt 0.6085117 0.6140801
vt 0.6081334 0.6073639
vt 0.6315203 0.6123701
vt 0.631495 0.6091669
vt 0.6357365 0.6108172
vt 0.2831559 0.8399038
vt 0.2248757 0.8401072
vt 0.2248757 0.8601215
vt 0.2831559 0.8603458
vt 0.3458681 0.8602302
vt 0.3458681 0.8392915
vt 0.3629057 0.8599253
vt 0.3629058 0.8395197
vt 0.4358158 0.8553679
vt 0.4358158 0.8444269
vt 0.4851878 0.8529598
vt 0.4851878 0.846992
vt 0.5033522 0.85131
vt 0.5033522 0.8487091
vt 0.506649 0.8500316
vt 0.2957363 0.7832782
vt 0.2254677 0.7832493
vt 0.2254677 0.8052236
vt 0.2957362 0.805757
vt 0.3672452 0.8050139
vt 0.3672452 0.7829058
vt 0.3849845 0.8047116
vt 0.3849844 0.7831041
vt 0.4685006 0.8003187
vt 0.4685006 0.7885144
vt 0.5301471 0.7982634
vt 0.5301471 0.7917466
vt 0.5521603 0.7967016
vt 0.5521603 0.7938256
vt 0.5564997 0.7953346
vt 0.3046047 0.7239871
vt 0.2259114 0.7241547
vt 0.2259114 0.7477328
vt 0.3046047 0.7482752
vt 0.3819759 0.747472
vt 0.3813097 0.7239878
vt 0.3998697 0.7471273
vt 0.3998697 0.7241707
vt 0.4925367 0.7409892
vt 0.4925367 0.728386
vt 0.5590279 0.7379973
vt 0.5590279 0.7309957
vt 0.5829933 0.7360271
vt 0.5829933 0.732904
vt 0.5879242 0.7344922
vt 0.3094232 0.6639519
vt 0.2260289 0.6643839
vt 0.2260289 0.6887183
vt 0.3094232 0.6884115
vt 0.3956482 0.6865418
vt 0.3956482 0.6639764
vt 0.4112388 0.6861026
vt 0.4112389 0.6643131
vt 0.4994902 0.6811817
vt 0.4994902 0.6697218
vt 0.5613301 0.6781675
vt 0.56133 0.6720214
vt 0.5822673 0.6758792
vt 0.5822672 0.6731088
vt 0.5861239 0.6743118
vt 0.3240156 0.5971017
vt 0.2315967 0.5962547
vt 0.2319233 0.6240978
vt 0.3237531 0.623307
vt 0.4169738 0.6220315
vt 0.4174501 0.5980248
vt 0.4354226 0.6216929
vt 0.4354226 0.5983105
vt 0.5380824 0.6163061
vt 0.5380824 0.6038392
vt 0.6085117 0.6140801
vt 0.6081333 0.6073639
vt 0.6315203 0.6123701
vt 0.631495 0.6091669
vt 0.6357364 0.6108172
vn -0.6345354 -0.7067636 0.3128098
vn -0.7470587 -0.6069556 -0.2711236
vn -0.7457644 -0.6056177 0.2776017
vn -0.636666 -0.7094423 -0.302238
vn -0.7212158 -0.5752406 -0.3859353
vn -0.7073671 -0.5679287 0.4208191
vn -0.6567514 0.6023263 -0.4537407
vn -0.6286278 0.5753945 0.5232096
vn -0.6240905 0.7219481 -0.2988342
vn -0.6059858 0.7004674 0.3769967
vn -0.5613058 0.763561 -0.3192341
vn -0.5455112 0.7409515 0.3916739
vn -0.5951604 0.7418553 -0.3089252
vn -0.5836301 0.7221102 0.3713928
vn -0.9496593 0.3132841 -0.0002361147
vn -0.6103175 -0.7196133 0.3311633
vn -0.7335374 -0.6186309 -0.2814581
vn -0.7312007 -0.6161639 0.2927243
vn -0.6142788 -0.7245841 -0.3124731
vn -0.6917974 -0.597793 -0.4050428
vn -0.6688513 -0.5841752 0.4597579
vn -0.6190774 0.6196004 -0.4825335
vn -0.5780513 0.578014 0.575983
vn -0.6009272 0.7382773 -0.3063219
vn -0.5754378 0.7054788 0.4137281
vn -0.5543526 0.7681745 -0.3203142
vn -0.529644 0.7307021 0.4307571
vn -0.6067124 0.7339854 -0.3052303
vn -0.587795 0.6992127 0.4069383
vn -0.9575312 0.2883165 -0.002770395
vn -0.6045926 -0.7148158 0.3514343
vn -0.7198859 -0.6310323 -0.2890716
vn -0.7165946 -0.6271967 0.30515
vn -0.6099561 -0.7214369 -0.3278449
vn -0.6938861 -0.5769487 -0.4308738
vn -0.6758797 -0.5671762 0.4706356
vn -0.6163828 0.6066535 -0.5020396
vn -0.5794236 0.5693878 0.5831517
vn -0.6021117 0.7342452 -0.3136009
vn -0.5744011 0.6986203 0.4266065
vn -0.5560045 0.7706652 -0.3113425
vn -0.524524 0.7225792 0.4502822
vn -0.6133956 0.7330958 -0.2937967
vn -0.5896224 0.6892881 0.4209838
vn -0.9571761 0.2894745 -0.004304998
vn -0.5945116 -0.7255069 0.3466925
vn -0.7142951 -0.6383093 -0.286956
vn -0.7122331 -0.6358596 0.2973324
vn -0.599012 -0.7316411 -0.3254012
vn -0.6821826 -0.5948703 -0.4251543
vn -0.652971 -0.5779244 0.4895223
vn -0.6141336 0.6089717 -0.5019894
vn -0.5583128 0.5533157 0.6181653
vn -0.6002895 0.7362341 -0.3124289
vn -0.5629877 0.6880761 0.4578167
vn -0.5600968 0.7662625 -0.3148542
vn -0.5209025 0.7056296 0.4803616
vn -0.6423874 0.7061394 -0.2978347
vn -0.6107037 0.6494995 0.4529805
vn -0.9682887 0.2497826 -0.005068481
vn -0.5886512 -0.7246811 0.3582277
vn -0.7034934 -0.6493563 -0.2888485
vn -0.7010353 -0.6462179 0.3015825
vn -0.5945811 -0.7322454 -0.3320993
vn -0.6780123 -0.584534 -0.4456671
vn -0.6573328 -0.5688485 0.4942924
vn -0.5930594 0.5887721 -0.5492067
vn -0.5708767 0.5680351 0.5928203
vn -0.589223 0.7098187 -0.3859711
vn -0.5830999 0.7009695 0.4106534
vn -0.5603163 0.7184585 -0.4121446
vn -0.5576705 0.715503 0.4207839
vn -0.6587313 0.6398636 -0.3957871
vn -0.6561822 0.6405758 0.3988578
vn -0.9777209 0.2099086 0.0003010693
vn 0.6345356 -0.7067635 0.3128098
vn 0.7457644 -0.6056176 0.2776017
vn 0.7470588 -0.6069556 -0.2711237
vn 0.6366662 -0.7094422 -0.3022381
vn 0.721216 -0.5752403 -0.3859352
vn 0.7073674 -0.5679284 0.4208191
vn 0.6567514 0.6023263 -0.4537407
vn 0.6286282 0.5753941 0.5232096
vn 0.6240905 0.7219481 -0.2988341
vn 0.6059859 0.7004673 0.3769968
vn 0.5613056 0.7635611 -0.319234
vn 0.5455112 0.7409515 0.3916739
vn 0.5951602 0.7418555 -0.3089254
vn 0.58363 0.7221103 0.3713928
vn 0.9496592 0.3132852 -0.0002376927
vn 0.6103175 -0.7196133 0.3311633
vn 0.7312009 -0.6161639 0.292724
vn 0.7335374 -0.6186309 -0.2814582
vn 0.6142787 -0.7245841 -0.3124733
vn 0.6917977 -0.597793 -0.4050427
vn 0.6688513 -0.5841751 0.4597582
vn 0.6190775 0.6196003 -0.4825334
vn 0.5780511 0.578014 0.5759833
vn 0.6009273 0.7382773 -0.3063219
vn 0.5754378 0.7054787 0.4137284
vn 0.5543526 0.7681744 -0.3203144
vn 0.5296441 0.730702 0.430757
vn 0.6067123 0.7339855 -0.3052302
vn 0.587795 0.699213 0.4069379
vn 0.957531 0.2883171 -0.002769393
vn 0.6045925 -0.7148158 0.3514345
vn 0.7165946 -0.6271966 0.3051501
vn 0.7198859 -0.6310324 -0.2890716
vn 0.609956 -0.721437 -0.3278448
vn 0.6938861 -0.5769486 -0.4308738
vn 0.6758796 -0.567176 0.4706359
vn 0.6163828 0.6066533 -0.5020398
vn 0.5794238 0.5693876 0.5831517
vn 0.6021117 0.7342451 -0.313601
vn 0.5744011 0.6986203 0.4266065
vn 0.5560044 0.7706652 -0.3113426
vn 0.5245237 0.7225793 0.4502823
vn 0.6133959 0.7330954 -0.2937968
vn 0.5896222 0.6892882 0.4209839
vn 0.9571764 0.2894733 -0.00430471
vn 0.5945116 -0.725507 0.3466925
vn 0.7122332 -0.6358597 0.2973321
vn 0.7142951 -0.6383093 -0.286956
vn 0.5990119 -0.7316411 -0.3254014
vn 0.6821825 -0.5948705 -0.4251543
vn 0.652971 -0.5779245 0.4895223
vn 0.6141336 0.6089717 -0.5019895
vn 0.5583127 0.5533158 0.6181656
vn 0.6002895 0.7362341 -0.312429
vn 0.5629878 0.688076 0.4578168
vn 0.560097 0.7662625 -0.3148542
vn 0.5209027 0.7056296 0.4803616
vn 0.6423874 0.7061394 -0.2978348
vn 0.610704 0.6494995 0.4529803
vn 0.9682887 0.2497826 -0.005068837
vn 0.5886512 -0.7246812 0.3582276
vn 0.7010355 -0.6462178 0.3015823
vn 0.7034935 -0.6493562 -0.2888486
vn 0.5945812 -0.7322454 -0.3320993
vn 0.6780123 -0.5845342 -0.445667
vn 0.6573328 -0.5688484 0.4942925
vn 0.5930595 0.5887718 -0.549207
vn 0.5708767 0.5680351 0.5928203
vn 0.589223 0.7098187 -0.385971
vn 0.5830999 0.7009695 0.4106534
vn 0.5603165 0.7184583 -0.4121445
vn 0.5576704 0.715503 0.4207839
vn 0.6587315 0.6398637 -0.3957869
vn 0.6561821 0.6405759 0.3988578
vn 0.9777209 0.2099086 0.0003012104
g pm0890_00_BodyB01Skin_0
f 3/3/3 2/2/2 1/1/1
f 2/2/2 4/4/4 1/1/1
f 1/1/1 4/4/4 5/5/5
f 6/6/6 1/1/1 5/5/5
f 6/6/6 5/5/5 7/7/7
f 8/8/8 6/6/6 7/7/7
f 8/8/8 7/7/7 9/9/9
f 10/10/10 8/8/8 9/9/9
f 10/10/10 9/9/9 11/11/11
f 12/12/12 10/10/10 11/11/11
f 12/12/12 11/11/11 13/13/13
f 14/14/14 12/12/12 13/13/13
f 14/14/14 13/13/13 15/15/15
f 18/18/18 17/17/17 16/16/16
f 17/17/17 19/19/19 16/16/16
f 16/16/16 19/19/19 20/20/20
f 21/21/21 16/16/16 20/20/20
f 21/21/21 20/20/20 22/22/22
f 23/23/23 21/21/21 22/22/22
f 23/23/23 22/22/22 24/24/24
f 25/25/25 23/23/23 24/24/24
f 25/25/25 24/24/24 26/26/26
f 27/27/27 25/25/25 26/26/26
f 27/27/27 26/26/26 28/28/28
f 29/29/29 27/27/27 28/28/28
f 29/29/29 28/28/28 30/30/30
f 33/33/33 32/32/32 31/31/31
f 32/32/32 34/34/34 31/31/31
f 31/31/31 34/34/34 35/35/35
f 36/36/36 31/31/31 35/35/35
f 36/36/36 35/35/35 37/37/37
f 38/38/38 36/36/36 37/37/37
f 38/38/38 37/37/37 39/39/39
f 40/40/40 38/38/38 39/39/39
f 40/40/40 39/39/39 41/41/41
f 42/42/42 40/40/40 41/41/41
f 42/42/42 41/41/41 43/43/43
f 44/44/44 42/42/42 43/43/43
f 44/44/44 43/43/43 45/45/45
f 48/48/48 47/47/47 46/46/46
f 47/47/47 49/49/49 46/46/46
f 46/46/46 49/49/49 50/50/50
f 51/51/51 46/46/46 50/50/50
f 51/51/51 50/50/50 52/52/52
f 53/53/53 51/51/51 52/52/52
f 53/53/53 52/52/52 54/54/54
f 55/55/55 53/53/53 54/54/54
f 55/55/55 54/54/54 56/56/56
f 57/57/57 55/55/55 56/56/56
f 57/57/57 56/56/56 58/58/58
f 59/59/59 57/57/57 58/58/58
f 59/59/59 58/58/58 60/60/60
f 63/63/63 62/62/62 61/61/61
f 62/62/62 64/64/64 61/61/61
f 61/61/61 64/64/64 65/65/65
f 66/66/66 61/61/61 65/65/65
f 66/66/66 65/65/65 67/67/67
f 68/68/68 66/66/66 67/67/67
f 68/68/68 67/67/67 69/69/69
f 70/70/70 68/68/68 69/69/69
f 70/70/70 69/69/69 71/71/71
f 72/72/72 70/70/70 71/71/71
f 72/72/72 71/71/71 73/73/73
f 74/74/74 72/72/72 73/73/73
f 74/74/74 73/73/73 75/75/75
f 78/78/78 77/77/77 76/76/76
f 79/79/79 78/78/78 76/76/76
f 79/79/79 76/76/76 80/80/80
f 76/76/76 81/81/81 80/80/80
f 80/80/80 81/81/81 82/82/82
f 81/81/81 83/83/83 82/82/82
f 82/82/82 83/83/83 84/84/84
f 83/83/83 85/85/85 84/84/84
f 84/84/84 85/85/85 86/86/86
f 85/85/85 87/87/87 86/86/86
f 86/86/86 87/87/87 88/88/88
f 87/87/87 89/89/89 88/88/88
f 88/88/88 89/89/89 90/90/90
f 93/93/93 92/92/92 91/91/91
f 94/94/94 93/93/93 91/91/91
f 94/94/94 91/91/91 95/95/95
f 91/91/91 96/96/96 95/95/95
f 95/95/95 96/96/96 97/97/97
f 96/96/96 98/98/98 97/97/97
f 97/97/97 98/98/98 99/99/99
f 98/98/98 100/100/100 99/99/99
f 99/99/99 100/100/100 101/101/101
f 100/100/100 102/102/102 101/101/101
f 101/101/101 102/102/102 103/103/103
f 102/102/102 104/104/104 103/103/103
f 103/103/103 104/104/104 105/105/105
f 108/108/108 107/107/107 106/106/106
f 109/109/109 108/108/108 106/106/106
f 109/109/109 106/106/106 110/110/110
f 106/106/106 111/111/111 110/110/110
f 110/110/110 111/111/111 112/112/112
f 111/111/111 113/113/113 112/112/112
f 112/112/112 113/113/113 114/114/114
f 113/113/113 115/115/115 114/114/114
f 114/114/114 115/115/115 116/116/116
f 115/115/115 117/117/117 116/116/116
f 116/116/116 117/117/117 118/118/118
f 117/117/117 119/119/119 118/118/118
f 118/118/118 119/119/119 120/120/120
f 123/123/123 122/122/122 121/121/121
f 124/124/124 123/123/123 121/121/121
f 124/124/124 121/121/121 125/125/125
f 121/121/121 126/126/126 125/125/125
f 125/125/125 126/126/126 127/127/127
f 126/126/126 128/128/128 127/127/127
f 127/127/127 128/128/128 129/129/129
f 128/128/128 130/130/130 129/129/129
f 129/129/129 130/130/130 131/131/131
f 130/130/130 132/132/132 131/131/131
f 131/131/131 132/132/132 133/133/133
f 132/132/132 134/134/134 133/133/133
f 133/133/133 134/134/134 135/135/135
f 138/138/138 137/137/137 136/136/136
f 139/139/139 138/138/138 136/136/136
f 139/139/139 136/136/136 140/140/140
f 136/136/136 141/141/141 140/140/140
f 140/140/140 141/141/141 142/142/142
f 141/141/141 143/143/143 142/142/142
f 142/142/142 143/143/143 144/144/144
f 143/143/143 145/145/145 144/144/144
f 144/144/144 145/145/145 146/146/146
f 145/145/145 147/147/147 146/146/146
f 146/146/146 147/147/147 148/148/148
f 147/147/147 149/149/149 148/148/148
f 148/148/148 149/149/149 150/150/150
