g pm0838_00_FeelerKSkin_tz5
v -0.03323438 -0.5727478 -0.007001853
v -0.02851653 -0.5577951 -0.01298932
v -0.01500032 -0.5379556 0.003032556
v -0.01895602 -0.553285 0.01795536
v -0.01795032 -0.5541754 0.01867207
v -0.01736585 -0.5527334 0.01876612
v 0.003843185 -0.576211 0.01347238
v 0.002002311 -0.5821079 -0.008938222
v 0.03410432 -0.5620626 0.007567202
v 0.02419198 -0.556291 0.01896439
v 0.02460419 -0.5550699 0.01872466
v 0.02058502 -0.5397164 -0.006809755
v -0.02851653 -0.5577951 -0.01298932
v 0.0009904844 -0.5515031 -0.02066783
v -0.03323438 -0.5727478 -0.007001853
v 0.002002311 -0.5821079 -0.008938222
v 0.02752289 -0.5579081 -0.01298047
v 0.03410432 -0.5620626 0.007567202
vt 0.9626293 -1.984371
vt 0.9601758 -1.979578
vt 0.9664614 -1.972231
vt 0.9679401 -1.977639
vt 0.9681643 -1.97778
vt 0.9682146 -1.977504
vt 0.9732502 -1.982476
vt 0.9726563 -1.988281
vt 0.9823739 -1.979543
vt 0.9781751 -1.978067
vt 0.9782549 -1.977846
vt 0.9789036 -1.969441
vt 0.9630637 -1.96159
vt 0.9726473 -1.964204
vt 0.9618742 -1.955616
vt 0.9746624 -1.954257
vt 0.9797583 -1.963528
vt 0.9857624 -1.961683
vn -0.7726966 -0.4587803 -0.4387031
vn -0.6273663 0.2449472 -0.7391971
vn -0.263315 0.9574884 0.1178186
vn -0.8871688 0.3861729 0.2525907
vn -0.3116488 -0.4684813 0.8266803
vn 0.09934473 0.772777 0.6268544
vn -0.006000996 -0.7442093 0.6679195
vn 0.02994216 -0.810248 -0.5853219
vn 0.9034207 -0.4107049 0.1230955
vn 0.1975862 -0.3910784 0.8988979
vn 0.2362742 0.7796897 0.5798778
vn 0.1753662 0.9830352 0.05374563
vn -0.6273663 0.2449472 -0.7391971
vn -0.1335755 0.3326125 -0.9335558
vn -0.7726966 -0.4587803 -0.4387031
vn 0.02994216 -0.810248 -0.5853219
vn 0.6550886 -0.2441747 -0.7150088
vn 0.9034207 -0.4107049 0.1230955
g pm0838_00_FeelerKSkin_tz5_0
f 3/3/3 2/2/2 1/1/1
f 4/4/4 3/3/3 1/1/1
f 4/4/4 1/1/1 5/5/5
f 6/6/6 3/3/3 4/4/4
f 4/4/4 5/5/5 6/6/6
f 5/5/5 1/1/1 7/7/7
f 1/1/1 8/8/8 7/7/7
f 7/7/7 8/8/8 9/9/9
f 5/5/5 7/7/7 10/10/10
f 5/5/5 10/10/10 6/6/6
f 10/10/10 7/7/7 9/9/9
f 10/10/10 11/11/11 6/6/6
f 9/9/9 11/11/11 10/10/10
f 6/6/6 11/11/11 3/3/3
f 11/11/11 9/9/9 12/12/12
f 11/11/11 12/12/12 3/3/3
f 13/13/13 3/3/3 12/12/12
f 14/14/14 13/13/13 12/12/12
f 13/13/13 14/14/14 15/15/15
f 14/14/14 16/16/16 15/15/15
f 14/14/14 12/12/12 17/17/17
f 14/14/14 17/17/17 16/16/16
f 12/12/12 18/18/18 17/17/17
f 17/17/17 18/18/18 16/16/16
