g pm0863_31_RClawBSkin
v -0.4745737 0.381179 -0.05639001
v -0.4453838 0.3813834 -0.05450998
v -0.4453838 0.3880474 -0.04870278
v -0.4745737 0.3877196 -0.05042975
v -0.4453838 0.4007472 -0.0259588
v -0.5071107 0.3803072 -0.05642051
v -0.4745737 0.4001944 -0.02694764
v -0.4453838 0.4028567 -0.002263973
v -0.5071107 0.3863219 -0.05069522
v -0.5071107 0.3978377 -0.02754208
v -0.4745737 0.4022547 -0.002263973
v -0.5458995 0.3844203 -0.0488244
v -0.5458995 0.3790206 -0.05399895
v -0.5458995 0.3948227 -0.02703852
v -0.5883304 0.38145 -0.04486939
v -0.5883304 0.3768463 -0.04919156
v -0.4745737 0.4001944 0.02241969
v -0.4453838 0.4007472 0.02143086
v -0.5071107 0.3996885 -0.002263973
v -0.5071107 0.3978377 0.02301414
v -0.4745737 0.3877196 0.04590181
v -0.4453838 0.3880474 0.04417484
v -0.4745737 0.381179 0.05186206
v -0.4453838 0.3813834 0.04998204
v -0.5071107 0.3803072 0.05189256
v -0.5071107 0.3863219 0.04616728
v -0.5458995 0.3948227 0.02251057
v -0.5458995 0.3844203 0.04429645
v -0.5458995 0.3790206 0.04947101
v -0.5883304 0.38145 0.04034145
v -0.5883304 0.3768463 0.04466362
v -0.5458995 0.3965611 -0.002263973
v -0.5883316 0.3903686 0.02089997
v -0.5883304 0.3921593 -0.002263973
v -0.6246499 0.3779229 0.03361818
v -0.6246455 0.373857 0.03710848
v -0.5883316 0.3903686 -0.02542792
v -0.6246595 0.3871804 -0.002263973
v -0.6246688 0.3852241 0.01756056
v -0.6579901 0.3813449 -0.002263973
v -0.6246688 0.3852241 -0.02208851
v -0.6578271 0.373882 0.02439488
v -0.6577578 0.3697647 0.02743396
v -0.6873761 0.3653716 0.01630084
v -0.6579648 0.3793106 0.01272998
v -0.6246499 0.3779229 -0.03814482
v -0.6246455 0.373857 -0.04163644
v -0.6882001 0.3690544 0.01356952
v -0.6982793 0.3633337 0.01130535
v -0.6892954 0.3721492 0.006772712
v -0.6993948 0.3662874 0.008203104
v -0.7081873 0.3608152 0.005710702
v -0.6579648 0.3793106 -0.01725792
v -0.6578271 0.373882 -0.02892283
v -0.6577578 0.3697647 -0.03195651
v -0.6873761 0.3653716 -0.02082879
v -0.6892954 0.3721492 -0.01130063
v -0.6882001 0.3690544 -0.01809747
v -0.6982793 0.3633337 -0.0158333
v -0.6993948 0.3662874 -0.01273105
v -0.7081873 0.3608152 -0.01023865
v -0.6901408 0.3736871 -0.002263973
v -0.7004629 0.3684381 -0.008250205
v -0.7004629 0.3684381 0.003722258
v -0.7014206 0.3695744 -0.002263973
v -0.7112034 0.364957 -0.002263973
v -0.7091829 0.3647195 -0.006068622
v -0.7045289 0.3651884 -0.009736119
v -0.7135563 0.3596135 -0.005697293
v -0.7152492 0.3589312 -0.002263973
v -0.7135563 0.3596135 0.001169347
v -0.7091829 0.3647195 0.001540676
v -0.7045289 0.3651884 0.005208173
v -0.6982793 0.3633337 0.01130535
v -0.7040624 0.3595674 0.005093526
v -0.7081873 0.3608152 0.005710702
v -0.7135563 0.3596135 0.001169347
v -0.6960829 0.3610844 0.00977662
v -0.6868469 0.3626657 0.01404983
v -0.6873761 0.3653716 0.01630084
v -0.6577135 0.3664081 0.02360012
v -0.6577578 0.3697647 0.02743396
v -0.6246427 0.3693575 0.03130056
v -0.6246455 0.373857 0.03710848
v -0.5883304 0.3712796 0.03704104
v -0.5883304 0.3768463 0.04466362
v -0.5458995 0.3724508 0.04029391
v -0.5458995 0.3790206 0.04947101
v -0.5883304 0.3712443 0.01838752
v -0.6246457 0.3693599 0.01538722
v -0.5883304 0.3712195 -0.002263973
v -0.6577594 0.3664903 0.01143272
v -0.6873931 0.363016 0.006198914
v -0.6878933 0.3629236 -0.002263973
v -0.6970456 0.3610134 0.00417416
v -0.6578012 0.3665465 -0.002263973
v -0.7086418 0.3586598 0.001291828
v -0.6975136 0.3608395 -0.002263973
v -0.7100702 0.3583535 -0.002263973
v -0.7152492 0.3589312 -0.002263973
v -0.7135563 0.3596135 -0.005697293
v -0.7086418 0.3586598 -0.005819775
v -0.6970456 0.3610134 -0.008702107
v -0.7040624 0.3595674 -0.009621472
v -0.7081873 0.3608152 -0.01023865
v -0.6982793 0.3633337 -0.0158333
v -0.6960829 0.3610844 -0.0143046
v -0.6873931 0.363016 -0.01072686
v -0.6868469 0.3626657 -0.01857807
v -0.6873761 0.3653716 -0.02082879
v -0.6577594 0.3664903 -0.01596066
v -0.6577135 0.3664081 -0.02812834
v -0.6577578 0.3697647 -0.03195651
v -0.6246457 0.3693599 -0.01991517
v -0.6246427 0.3693575 -0.03582851
v -0.6246455 0.373857 -0.04163644
v -0.5883304 0.3712796 -0.04156898
v -0.5883304 0.3768463 -0.04919156
v -0.5883304 0.3712443 -0.02291547
v -0.5458995 0.3724508 -0.04482186
v -0.5458995 0.3790206 -0.05399895
v -0.6246483 0.3693614 -0.002263973
v -0.5458995 0.3724061 -0.0245569
v -0.5071107 0.3729893 -0.04626669
v -0.5071107 0.3803072 -0.05642051
v -0.4745737 0.381179 -0.05639001
v -0.5071107 0.3729394 -0.02524395
v -0.5071107 0.3729042 -0.002263973
v -0.4745737 0.3732211 -0.04581948
v -0.4453838 0.3813834 -0.05450998
v -0.4453838 0.3732755 -0.0442109
v -0.4745737 0.3731669 -0.02494504
v -0.4453838 0.3732202 -0.02409244
v -0.4745737 0.3731287 -0.002263973
v -0.4453838 0.3731813 -0.002263973
v -0.4453838 0.3732202 0.01956449
v -0.4745737 0.3731669 0.0204171
v -0.4453838 0.3732755 0.03968296
v -0.4745737 0.3732211 0.04129153
v -0.4453838 0.3813834 0.04998204
v -0.4745737 0.381179 0.05186206
v -0.5071107 0.3729394 0.020716
v -0.5071107 0.3729893 0.04173874
v -0.5071107 0.3803072 0.05189256
v -0.5458995 0.3724061 0.02002895
v -0.5458995 0.3723746 -0.002263973
vt 0.2871584 0.4941078
vt 0.2578125 0.4941078
vt 0.2578125 0.4987014
vt 0.2871584 0.4983906
vt 0.2578125 0.5117385
vt 0.3200123 0.4941078
vt 0.2871583 0.511362
vt 0.2578125 0.5234375
vt 0.3200123 0.498214
vt 0.3200123 0.5109651
vt 0.2871583 0.5234375
vt 0.3592294 0.4990297
vt 0.3592294 0.4952559
vt 0.3592293 0.511095
vt 0.4021504 0.5011753
vt 0.4021504 0.4980079
vt 0.2871583 0.5355129
vt 0.2578125 0.5351365
vt 0.3200123 0.5234374
vt 0.3200123 0.53591
vt 0.2871584 0.5484842
vt 0.2578125 0.5481735
vt 0.2871584 0.5527669
vt 0.2578125 0.5527669
vt 0.3200123 0.5527669
vt 0.3200123 0.5486609
vt 0.3592293 0.53578
vt 0.3592294 0.5478452
vt 0.3592294 0.5516192
vt 0.4021504 0.5456998
vt 0.4021504 0.5488672
vt 0.3592293 0.5234375
vt 0.4021504 0.5350087
vt 0.4021504 0.5234375
vt 0.4389707 0.5422189
vt 0.4389707 0.5448869
vt 0.4021504 0.5118663
vt 0.4389707 0.5234374
vt 0.4389707 0.533394
vt 0.4727724 0.5234375
vt 0.4389707 0.5134808
vt 0.4727724 0.5376074
vt 0.4727724 0.5401783
vt 0.5047029 0.5342536
vt 0.4727724 0.5310702
vt 0.4389707 0.504656
vt 0.4389707 0.5019876
vt 0.5047029 0.5318509
vt 0.5159954 0.5311042
vt 0.5047029 0.5280167
vt 0.5159953 0.528886
vt 0.5258865 0.5276899
vt 0.4727724 0.5158048
vt 0.4727724 0.5092675
vt 0.4727724 0.5066985
vt 0.5047029 0.5126212
vt 0.5047029 0.5188581
vt 0.5047029 0.5150239
vt 0.5159954 0.5157707
vt 0.5159953 0.5179889
vt 0.5258865 0.5191848
vt 0.5047029 0.5234375
vt 0.5159954 0.5204915
vt 0.5159954 0.5263834
vt 0.5159954 0.5234375
vt 0.52609 0.5234375
vt 0.5245777 0.521665
vt 0.5206711 0.5196961
vt 0.5310718 0.5217177
vt 0.5334282 0.5234374
vt 0.5310718 0.5251573
vt 0.5245777 0.5252101
vt 0.5206711 0.5271788
vt 0.2870929 0.6081687
vt 0.2805523 0.6033732
vt 0.2742034 0.6041788
vt 0.2651908 0.6002942
vt 0.2870928 0.6051976
vt 0.3026164 0.6096505
vt 0.3026164 0.6123047
vt 0.3241023 0.6129453
vt 0.3241023 0.6159957
vt 0.3579044 0.6152929
vt 0.3579044 0.6191056
vt 0.3947245 0.6181712
vt 0.3947242 0.623086
vt 0.4376452 0.6199123
vt 0.4376452 0.6258379
vt 0.3947242 0.6084584
vt 0.3579044 0.6069438
vt 0.3947245 0.5976563
vt 0.3241023 0.6057202
vt 0.3026164 0.6038144
vt 0.3026166 0.5976561
vt 0.2870929 0.6015977
vt 0.3241023 0.5976561
vt 0.2732245 0.6003564
vt 0.2870929 0.5976563
vt 0.2706839 0.5976561
vt 0.2610936 0.5976561
vt 0.2651908 0.5950187
vt 0.2732245 0.5949562
vt 0.2870929 0.5937147
vt 0.2805523 0.5919392
vt 0.2742034 0.5911334
vt 0.2870929 0.5871437
vt 0.2870928 0.5901148
vt 0.3026166 0.5914981
vt 0.3026166 0.5856615
vt 0.3026166 0.5830077
vt 0.3241023 0.5895917
vt 0.3241023 0.5823664
vt 0.3241023 0.5793183
vt 0.3579044 0.5883683
vt 0.3579044 0.580019
vt 0.3579044 0.5762063
vt 0.3947242 0.5771412
vt 0.3947242 0.5722265
vt 0.3947242 0.586854
vt 0.4376452 0.5754004
vt 0.4376452 0.5694745
vt 0.3579044 0.5976561
vt 0.4376452 0.5859978
vt 0.4768627 0.5748017
vt 0.4768627 0.5683266
vt 0.5097166 0.5683266
vt 0.4768627 0.5857091
vt 0.4768627 0.5976563
vt 0.5097166 0.5750773
vt 0.5390625 0.5683266
vt 0.5390625 0.5755352
vt 0.5097166 0.5858812
vt 0.5390625 0.5862553
vt 0.5097166 0.5976562
vt 0.5390625 0.5976563
vt 0.5390625 0.6090571
vt 0.5097166 0.6094311
vt 0.5390625 0.6197772
vt 0.5097166 0.6202352
vt 0.5390625 0.6269857
vt 0.5097166 0.6269857
vt 0.4768625 0.6096033
vt 0.4768625 0.6205107
vt 0.4768627 0.6269857
vt 0.4376452 0.6093147
vt 0.4376452 0.5976562
vn 0.02928972 -0.2974218 -0.9542968
vn 0.05736435 -0.2960697 -0.9534423
vn 0.01660907 0.8361361 -0.5482706
vn -0.01296973 0.8406929 -0.5413568
vn -0.004493296 0.9565526 -0.2915255
vn -0.02364665 -0.3092428 -0.9506891
vn -0.03411574 0.9576223 -0.2859992
vn -0.01831764 0.9998322 0
vn -0.05587358 0.8511937 -0.5218692
vn -0.06879163 0.9607573 -0.2687253
vn -0.04848599 0.9988238 0
vn -0.08986259 0.8581284 -0.5055099
vn -0.06873638 -0.3098502 -0.9482974
vn -0.09177846 0.9629208 -0.2536932
vn -0.136779 0.8571835 -0.4965159
vn -0.1207065 -0.2990741 -0.9465646
vn -0.03411579 0.9576223 0.2859993
vn -0.004493296 0.9565524 0.2915256
vn -0.07725691 0.9970112 0
vn -0.06879163 0.9607573 0.2687253
vn -0.01296973 0.8406929 0.5413568
vn 0.01660907 0.8361362 0.5482705
vn 0.02928984 -0.2974223 0.9542966
vn 0.05736435 -0.2960706 0.9534419
vn -0.02364659 -0.3092431 0.950689
vn -0.05587358 0.8511937 0.5218692
vn -0.09177846 0.9629208 0.2536931
vn -0.08986259 0.8581285 0.5055097
vn -0.06873632 -0.3098503 0.9482974
vn -0.1367757 0.8571845 0.496515
vn -0.1207 -0.2990988 0.9465576
vn -0.09254951 0.995708 0
vn -0.1274393 0.9605458 0.2472061
vn -0.1210633 0.9926448 2.384186E-07
vn -0.2020787 0.8427287 0.4989714
vn -0.2001593 -0.2450832 0.948615
vn -0.127441 0.9605452 -0.2472081
vn -0.1586963 0.9873274 0
vn -0.1739109 0.9529353 0.248333
vn -0.2048931 0.9787844 -4.768372E-07
vn -0.1739122 0.9529337 -0.248338
vn -0.2691737 0.8095959 0.521632
vn -0.282158 -0.1403012 0.9490534
vn -0.358889 -0.02147931 0.9331331
vn -0.2236285 0.939369 0.2599542
vn -0.2020893 0.8427125 -0.4989946
vn -0.2001927 -0.2450259 -0.9486228
vn -0.3323694 0.7771233 0.5344248
vn -0.4551356 -0.01104373 0.8903537
vn -0.2792802 0.9214002 0.2702302
vn -0.4502819 0.6841286 0.573772
vn -0.56575 -0.1003863 0.8184434
vn -0.2236272 0.9393683 -0.2599579
vn -0.2691787 0.8095509 -0.5216992
vn -0.2821751 -0.140238 -0.9490577
vn -0.3588309 -0.02145493 -0.933156
vn -0.2792798 0.9214003 -0.2702299
vn -0.3323699 0.7770894 -0.534474
vn -0.4551395 -0.01103705 -0.8903517
vn -0.4502822 0.6841288 -0.5737716
vn -0.5657524 -0.1003881 -0.8184415
vn -0.2630387 0.9647852 1.192093E-07
vn -0.3884941 0.8679616 -0.3093784
vn -0.3884946 0.8679612 0.3093791
vn -0.3853149 0.9227852 0
vn -0.6163865 0.7874438 -2.980233E-07
vn -0.5445176 0.7319152 -0.4096348
vn -0.5057116 0.6256888 -0.5939439
vn -0.7871628 -0.06310105 -0.6135087
vn -0.995165 -0.09821785 -4.172325E-07
vn -0.7871625 -0.06310081 0.6135092
vn -0.5445164 0.7319166 0.4096338
vn -0.5057099 0.6256888 0.5939453
vn -0.4551356 -0.01104373 0.8903537
vn 0.008381484 -0.9523492 0.3048944
vn -0.56575 -0.1003863 0.8184434
vn -0.7871625 -0.06310081 0.6135092
vn 0.03586829 -0.9564371 0.2897269
vn 0.05465842 -0.979481 0.1939831
vn -0.358889 -0.02147931 0.9331331
vn 0.03839242 -0.9780636 0.2047377
vn -0.282158 -0.1403012 0.9490534
vn 0.02378786 -0.9783155 0.2057498
vn -0.2001593 -0.2450832 0.948615
vn 0.01183426 -0.9766014 0.2147312
vn -0.1207 -0.2990988 0.9465576
vn 0.007215501 -0.9747841 0.2230333
vn -0.06873632 -0.3098503 0.9482974
vn 0.03789843 -0.9992808 0.001276255
vn 0.06672765 -0.997771 -0.0006570221
vn 0.03773689 -0.9992878 0
vn 0.1008567 -0.9948773 -0.006868362
vn 0.1362958 -0.9905878 -0.01262122
vn 0.135206 -0.9908175 -3.576279E-07
vn 0.2016626 -0.9794182 -0.008502902
vn 0.09828973 -0.9951578 0
vn 0.07126056 -0.9878502 0.1381081
vn 0.2014512 -0.9794986 2.384186E-07
vn 0.08289326 -0.9965585 7.152557E-07
vn -0.995165 -0.09821785 -4.172325E-07
vn -0.7871628 -0.06310105 -0.6135087
vn 0.0712608 -0.9878505 -0.1381056
vn 0.2016634 -0.979418 0.008502007
vn 0.00838089 -0.9523497 -0.3048934
vn -0.5657524 -0.1003881 -0.8184415
vn -0.4551395 -0.01103705 -0.8903517
vn 0.03586721 -0.9564369 -0.2897272
vn 0.1362957 -0.9905878 0.01262057
vn 0.05465937 -0.9794756 -0.1940102
vn -0.3588309 -0.02145493 -0.933156
vn 0.1008567 -0.9948773 0.006868244
vn 0.03837895 -0.978057 -0.2047722
vn -0.2821751 -0.140238 -0.9490577
vn 0.06672776 -0.997771 0.0006569624
vn 0.02377475 -0.9783131 -0.205763
vn -0.2001927 -0.2450259 -0.9486228
vn 0.01183426 -0.9766015 -0.214731
vn -0.1207065 -0.2990741 -0.9465646
vn 0.03789854 -0.9992808 -0.001276195
vn 0.0072155 -0.9747841 -0.2230333
vn -0.06873638 -0.3098502 -0.9482974
vn 0.06606282 -0.9978155 0
vn 0.02062607 -0.9997857 -0.001765371
vn 0.008201359 -0.9717671 -0.2357995
vn -0.02364665 -0.3092428 -0.9506891
vn 0.02928972 -0.2974218 -0.9542968
vn 0.01064205 -0.9999415 -0.001942098
vn 0.01060092 -0.9999439 0
vn 0.01482642 -0.9684429 -0.2487943
vn 0.05736435 -0.2960697 -0.9534423
vn 0.01711798 -0.9697688 -0.2434243
vn 0.004627586 -0.9999871 -0.002102733
vn 0.001896381 -0.9999958 -0.002174556
vn 0.004567385 -0.9999896 0
vn 0.001841188 -0.9999983 0
vn 0.001896381 -0.9999958 0.002174497
vn 0.004627586 -0.9999871 0.002102733
vn 0.01711798 -0.9697688 0.2434245
vn 0.01482642 -0.9684429 0.2487943
vn 0.05736435 -0.2960706 0.9534419
vn 0.02928984 -0.2974223 0.9542966
vn 0.01064193 -0.9999415 0.001942158
vn 0.008201361 -0.9717672 0.2357994
vn -0.02364659 -0.3092431 0.950689
vn 0.02062607 -0.9997857 0.001765371
vn 0.02060354 -0.9997877 0
g pm0863_31_RClawBSkin_0
f 3/3/3 2/2/2 1/1/1
f 4/4/4 3/3/3 1/1/1
f 5/5/5 3/3/3 4/4/4
f 1/1/1 6/6/6 4/4/4
f 7/7/7 5/5/5 4/4/4
f 8/8/8 5/5/5 7/7/7
f 6/6/6 9/9/9 4/4/4
f 7/7/7 4/4/4 10/10/10
f 4/4/4 9/9/9 10/10/10
f 11/11/11 8/8/8 7/7/7
f 7/7/7 10/10/10 11/11/11
f 12/12/12 9/9/9 6/6/6
f 13/13/13 12/12/12 6/6/6
f 10/10/10 9/9/9 14/14/14
f 9/9/9 12/12/12 14/14/14
f 12/12/12 13/13/13 15/15/15
f 13/13/13 16/16/16 15/15/15
f 8/8/8 11/11/11 17/17/17
f 18/18/18 8/8/8 17/17/17
f 10/10/10 19/19/19 11/11/11
f 10/10/10 14/14/14 19/19/19
f 20/20/20 17/17/17 11/11/11
f 19/19/19 20/20/20 11/11/11
f 18/18/18 17/17/17 21/21/21
f 21/21/21 17/17/17 20/20/20
f 22/22/22 18/18/18 21/21/21
f 22/22/22 21/21/21 23/23/23
f 24/24/24 22/22/22 23/23/23
f 25/25/25 23/23/23 21/21/21
f 26/26/26 21/21/21 20/20/20
f 26/26/26 25/25/25 21/21/21
f 27/27/27 20/20/20 19/19/19
f 26/26/26 20/20/20 27/27/27
f 26/26/26 28/28/28 25/25/25
f 28/28/28 26/26/26 27/27/27
f 28/28/28 29/29/29 25/25/25
f 29/29/29 28/28/28 30/30/30
f 31/31/31 29/29/29 30/30/30
f 32/32/32 27/27/27 19/19/19
f 14/14/14 32/32/32 19/19/19
f 28/28/28 27/27/27 33/33/33
f 30/30/30 28/28/28 33/33/33
f 27/27/27 32/32/32 34/34/34
f 32/32/32 14/14/14 34/34/34
f 33/33/33 27/27/27 34/34/34
f 31/31/31 30/30/30 35/35/35
f 36/36/36 31/31/31 35/35/35
f 14/14/14 37/37/37 34/34/34
f 14/14/14 12/12/12 37/37/37
f 12/12/12 15/15/15 37/37/37
f 33/33/33 34/34/34 38/38/38
f 34/34/34 37/37/37 38/38/38
f 30/30/30 33/33/33 39/39/39
f 35/35/35 30/30/30 39/39/39
f 39/39/39 33/33/33 38/38/38
f 38/38/38 40/40/40 39/39/39
f 37/37/37 41/41/41 38/38/38
f 37/37/37 15/15/15 41/41/41
f 40/40/40 38/38/38 41/41/41
f 35/35/35 42/42/42 36/36/36
f 42/42/42 43/43/43 36/36/36
f 43/43/43 42/42/42 44/44/44
f 35/35/35 39/39/39 45/45/45
f 40/40/40 45/45/45 39/39/39
f 42/42/42 35/35/35 45/45/45
f 15/15/15 46/46/46 41/41/41
f 15/15/15 16/16/16 46/46/46
f 16/16/16 47/47/47 46/46/46
f 42/42/42 48/48/48 44/44/44
f 44/44/44 48/48/48 49/49/49
f 42/42/42 45/45/45 50/50/50
f 48/48/48 42/42/42 50/50/50
f 50/50/50 45/45/45 40/40/40
f 48/48/48 51/51/51 49/49/49
f 51/51/51 48/48/48 50/50/50
f 49/49/49 51/51/51 52/52/52
f 41/41/41 46/46/46 53/53/53
f 53/53/53 40/40/40 41/41/41
f 54/54/54 46/46/46 47/47/47
f 46/46/46 54/54/54 53/53/53
f 55/55/55 54/54/54 47/47/47
f 54/54/54 55/55/55 56/56/56
f 53/53/53 57/57/57 40/40/40
f 53/53/53 54/54/54 57/57/57
f 58/58/58 54/54/54 56/56/56
f 54/54/54 58/58/58 57/57/57
f 58/58/58 56/56/56 59/59/59
f 60/60/60 58/58/58 59/59/59
f 58/58/58 60/60/60 57/57/57
f 60/60/60 59/59/59 61/61/61
f 57/57/57 62/62/62 40/40/40
f 62/62/62 50/50/50 40/40/40
f 60/60/60 63/63/63 57/57/57
f 57/57/57 63/63/63 62/62/62
f 64/64/64 50/50/50 62/62/62
f 64/64/64 51/51/51 50/50/50
f 63/63/63 65/65/65 62/62/62
f 65/65/65 64/64/64 62/62/62
f 66/66/66 65/65/65 63/63/63
f 65/65/65 66/66/66 64/64/64
f 67/67/67 63/63/63 60/60/60
f 67/67/67 66/66/66 63/63/63
f 68/68/68 60/60/60 61/61/61
f 68/68/68 67/67/67 60/60/60
f 68/68/68 61/61/61 67/67/67
f 61/61/61 69/69/69 67/67/67
f 67/67/67 69/69/69 66/66/66
f 69/69/69 70/70/70 66/66/66
f 70/70/70 71/71/71 66/66/66
f 66/66/66 72/72/72 64/64/64
f 71/71/71 72/72/72 66/66/66
f 64/64/64 72/72/72 51/51/51
f 71/71/71 52/52/52 72/72/72
f 51/51/51 73/73/73 52/52/52
f 52/52/52 73/73/73 72/72/72
f 72/72/72 73/73/73 51/51/51
f 76/76/76 75/75/75 74/74/74
f 75/75/75 76/76/76 77/77/77
f 75/75/75 78/78/78 74/74/74
f 78/78/78 79/79/79 74/74/74
f 79/79/79 80/80/80 74/74/74
f 79/79/79 81/81/81 80/80/80
f 81/81/81 82/82/82 80/80/80
f 82/82/82 81/81/81 83/83/83
f 84/84/84 82/82/82 83/83/83
f 83/83/83 85/85/85 84/84/84
f 85/85/85 86/86/86 84/84/84
f 85/85/85 87/87/87 86/86/86
f 87/87/87 88/88/88 86/86/86
f 85/85/85 83/83/83 89/89/89
f 85/85/85 89/89/89 87/87/87
f 90/90/90 83/83/83 81/81/81
f 83/83/83 90/90/90 89/89/89
f 89/89/89 90/90/90 91/91/91
f 92/92/92 81/81/81 79/79/79
f 92/92/92 90/90/90 81/81/81
f 93/93/93 79/79/79 78/78/78
f 93/93/93 92/92/92 79/79/79
f 93/93/93 94/94/94 92/92/92
f 95/95/95 93/93/93 78/78/78
f 93/93/93 95/95/95 94/94/94
f 95/95/95 78/78/78 75/75/75
f 92/92/92 96/96/96 90/90/90
f 94/94/94 96/96/96 92/92/92
f 97/97/97 95/95/95 75/75/75
f 97/97/97 75/75/75 77/77/77
f 95/95/95 97/97/97 98/98/98
f 95/95/95 98/98/98 94/94/94
f 97/97/97 77/77/77 99/99/99
f 97/97/97 99/99/99 98/98/98
f 77/77/77 100/100/100 99/99/99
f 100/100/100 101/101/101 99/99/99
f 99/99/99 102/102/102 98/98/98
f 101/101/101 102/102/102 99/99/99
f 102/102/102 103/103/103 98/98/98
f 98/98/98 103/103/103 94/94/94
f 104/104/104 102/102/102 101/101/101
f 103/103/103 102/102/102 104/104/104
f 105/105/105 104/104/104 101/101/101
f 104/104/104 105/105/105 106/106/106
f 107/107/107 103/103/103 104/104/104
f 107/107/107 104/104/104 106/106/106
f 103/103/103 108/108/108 94/94/94
f 108/108/108 103/103/103 107/107/107
f 109/109/109 107/107/107 106/106/106
f 109/109/109 108/108/108 107/107/107
f 110/110/110 109/109/109 106/106/106
f 94/94/94 108/108/108 111/111/111
f 111/111/111 108/108/108 109/109/109
f 96/96/96 94/94/94 111/111/111
f 112/112/112 109/109/109 110/110/110
f 112/112/112 111/111/111 109/109/109
f 113/113/113 112/112/112 110/110/110
f 96/96/96 111/111/111 114/114/114
f 114/114/114 111/111/111 112/112/112
f 112/112/112 113/113/113 115/115/115
f 115/115/115 114/114/114 112/112/112
f 113/113/113 116/116/116 115/115/115
f 117/117/117 115/115/115 116/116/116
f 118/118/118 117/117/117 116/116/116
f 115/115/115 117/117/117 119/119/119
f 114/114/114 115/115/115 119/119/119
f 120/120/120 117/117/117 118/118/118
f 119/119/119 117/117/117 120/120/120
f 121/121/121 120/120/120 118/118/118
f 122/122/122 96/96/96 114/114/114
f 96/96/96 122/122/122 90/90/90
f 90/90/90 122/122/122 91/91/91
f 122/122/122 114/114/114 91/91/91
f 114/114/114 119/119/119 91/91/91
f 123/123/123 119/119/119 120/120/120
f 91/91/91 119/119/119 123/123/123
f 120/120/120 121/121/121 124/124/124
f 121/121/121 125/125/125 124/124/124
f 124/124/124 125/125/125 126/126/126
f 120/120/120 124/124/124 127/127/127
f 123/123/123 120/120/120 127/127/127
f 123/123/123 127/127/127 128/128/128
f 129/129/129 124/124/124 126/126/126
f 127/127/127 124/124/124 129/129/129
f 126/126/126 130/130/130 129/129/129
f 130/130/130 131/131/131 129/129/129
f 132/132/132 127/127/127 129/129/129
f 129/129/129 131/131/131 132/132/132
f 128/128/128 127/127/127 132/132/132
f 131/131/131 133/133/133 132/132/132
f 132/132/132 133/133/133 134/134/134
f 134/134/134 128/128/128 132/132/132
f 133/133/133 135/135/135 134/134/134
f 135/135/135 136/136/136 134/134/134
f 136/136/136 137/137/137 134/134/134
f 128/128/128 134/134/134 137/137/137
f 136/136/136 138/138/138 137/137/137
f 138/138/138 139/139/139 137/137/137
f 138/138/138 140/140/140 139/139/139
f 140/140/140 141/141/141 139/139/139
f 142/142/142 137/137/137 139/139/139
f 142/142/142 128/128/128 137/137/137
f 143/143/143 139/139/139 141/141/141
f 143/143/143 142/142/142 139/139/139
f 144/144/144 143/143/143 141/141/141
f 144/144/144 88/88/88 143/143/143
f 88/88/88 87/87/87 143/143/143
f 143/143/143 87/87/87 142/142/142
f 87/87/87 145/145/145 142/142/142
f 142/142/142 145/145/145 128/128/128
f 89/89/89 145/145/145 87/87/87
f 89/89/89 91/91/91 145/145/145
f 145/145/145 146/146/146 128/128/128
f 91/91/91 146/146/146 145/145/145
f 146/146/146 123/123/123 128/128/128
f 146/146/146 91/91/91 123/123/123
