g pm0811_00_LStickASkin_rx
v -0.04451485 0.7098046 0.17994821
v -0.002185572 0.72625756 0.18042633
v -0.043087356 0.7073322 0.17911796
v -0.007479098 0.73549336 0.1840934
v -0.052715626 0.7240087 0.16756843
v 0.03853359 0.7465563 0.18368205
v -0.014294379 0.7473028 0.17629306
v -0.053756714 0.72581196 0.16454643
v 0.03184809 0.7582553 0.1883127
v 0.07911805 0.76816046 0.18713732
v 0.024063753 0.7717428 0.17951584
v 0.07173754 0.78100556 0.19160776
v 0.114506684 0.7895056 0.19270696
v -0.016337719 0.75078833 0.16569664
v -0.056147285 0.72995263 0.15349567
v 0.021465233 0.7761599 0.16641736
v -0.01472895 0.7479174 0.15350509
v 0.109365106 0.7984243 0.19546822
v 0.15398929 0.8110597 0.19378425
v 0.06306886 0.7960217 0.18075962
v 0.15133429 0.81563765 0.19532238
v 0.19581206 0.8282621 0.19748893
v 0.09683668 0.82012886 0.1800254
v 0.19103603 0.8364669 0.20024718
v 0.2331116 0.8532786 0.19898786
v 0.13685346 0.84072864 0.17427072
v 0.094283596 0.82453215 0.1674377
v 0.060286064 0.8007893 0.16639997
v 0.23028344 0.8581582 0.20062733
v 0.24946094 0.8603129 0.19567792
v 0.17329955 0.8672216 0.17209683
v 0.24819735 0.8673279 0.19796953
v 0.25960395 0.8659122 0.19219483
v 0.2584227 0.87251294 0.19435129
v 0.21254171 0.8888968 0.17601448
v 0.24977517 0.91244346 0.17316778
v 0.2596896 0.9155146 0.17188019
v 0.13362333 0.84632635 0.16822618
v 0.1722202 0.86909276 0.17012277
v 0.24951479 0.91731083 0.16925152
v 0.25945532 0.91938984 0.16884956
v 0.20928124 0.89454657 0.1702356
v 0.1318846 0.84934896 0.15154079
v 0.2508471 0.92360526 0.14788637
v 0.2606233 0.92444134 0.15006551
v 0.26147413 0.9207292 0.14801426
v 0.16774157 0.8768749 0.14954849
v 0.20725572 0.89806616 0.14916246
v 0.2086593 0.8956351 0.14783177
v 0.25178158 0.91900915 0.1457269
v 0.25644997 0.8508051 0.1432949
v 0.26552352 0.85765034 0.14768232
v 0.09664285 0.8204204 0.15388976
v 0.17165118 0.87010306 0.14617947
v 0.23954843 0.8421337 0.13973846
v 0.2563607 0.8481071 0.14719427
v 0.26549837 0.85585856 0.15028736
v 0.25960395 0.8659122 0.19219483
v 0.24946094 0.8603129 0.19567792
v 0.2331116 0.8532786 0.19898786
v 0.24187034 0.8381121 0.14708069
v 0.19581206 0.8282621 0.19748893
v 0.20168252 0.8180875 0.14433974
v 0.20257749 0.8165372 0.1471697
v 0.16136599 0.7982857 0.14914925
v 0.15398929 0.8110597 0.19378425
v 0.114506684 0.7895056 0.19270696
v 0.1593572 0.8017652 0.14279716
v 0.121247135 0.77779174 0.16084148
v 0.1333463 0.8468173 0.15012316
v 0.08345197 0.7605763 0.16618347
v 0.07911805 0.76816046 0.18713732
v 0.03853359 0.7465563 0.18368205
v 0.119629495 0.78057784 0.15091221
v 0.099686794 0.815133 0.14920476
v 0.04219052 0.7400921 0.16591878
v -0.002185572 0.72625756 0.18042633
v 0.08124428 0.76434785 0.15263954
v 0.062931806 0.79612714 0.15129632
v 0.0011669097 0.72036827 0.16515514
v -0.043087356 0.7073322 0.17911796
v -0.0386077 0.6995731 0.15725075
v 0.06986237 0.7840658 0.14690311
v 0.023771603 0.7720265 0.15227847
v 0.039812688 0.74412805 0.1530561
v -0.00082522776 0.7237653 0.15456077
v -0.03963955 0.7013604 0.15398784
v 0.030234696 0.76073074 0.14757848
v -0.009539836 0.7388663 0.1495192
v -0.054980736 0.72793204 0.1512205
v 0.2606233 0.92444134 0.15006551
v 0.26204506 0.9115502 0.1695861
v 0.25945532 0.91938984 0.16884956
v 0.2596896 0.9155146 0.17188019
v 0.26316205 0.91699725 0.15144466
v 0.26147413 0.9207292 0.14801426
v 0.26622745 0.86057854 0.15151446
v 0.26552352 0.85765034 0.14768232
v 0.26549837 0.85585856 0.15028736
v 0.25960395 0.8659122 0.19219483
v 0.26066458 0.87126213 0.1894384
v 0.2584227 0.87251294 0.19435129
v -0.057345223 0.7269729 0.15274449
v -0.03963955 0.7013604 0.15398784
v -0.054980736 0.72793204 0.1512205
v -0.056147285 0.72995263 0.15349567
v -0.053756714 0.72581196 0.16454643
v -0.04242956 0.7011382 0.156473
v -0.0386077 0.6995731 0.15725075
v -0.046555407 0.7082842 0.17756662
v -0.043087356 0.7073322 0.17911796
v -0.04451485 0.7098046 0.17994821
v -0.052715626 0.7240087 0.16756843
v -0.054819778 0.7225985 0.16578013
vt 0.21926498 0.62890625
vt 0.20618367 0.6521163
vt 0.21617055 0.62890637
vt 0.2178942 0.6521163
vt 0.24069248 0.62890637
vt 0.19579363 0.6757854
vt 0.23447561 0.6521163
vt 0.24448681 0.62890625
vt 0.21054637 0.6757854
vt 0.1874212 0.69987047
vt 0.22921324 0.6757854
vt 0.20355392 0.69987047
vt 0.18184662 0.7215488
vt 0.24648452 0.6521163
vt 0.2567644 0.62890637
vt 0.24388705 0.6757854
vt 0.25998354 0.6521163
vt 0.19291413 0.72154874
vt 0.1759057 0.74532735
vt 0.2251786 0.69987047
vt 0.18168187 0.74532735
vt 0.1611731 0.76912475
vt 0.22367334 0.7215488
vt 0.17146122 0.76912475
vt 0.16141033 0.7930776
vt 0.21954799 0.74532735
vt 0.23784982 0.72154856
vt 0.24156034 0.69987047
vt 0.1675894 0.79307747
vt 0.15997267 0.80317557
vt 0.21843016 0.76912475
vt 0.16782415 0.8039472
vt 0.16120768 0.8098767
vt 0.16890955 0.81034136
vt 0.21271467 0.7930776
vt 0.21658647 0.81670105
vt 0.21601081 0.82239425
vt 0.22894287 0.74532735
vt 0.22140598 0.76912475
vt 0.22268713 0.81780154
vt 0.2220571 0.8233241
vt 0.2218138 0.7930776
vt 0.24695405 0.74532723
vt 0.245466 0.8198721
vt 0.2458352 0.8246638
vt 0.25250745 0.824387
vt 0.24396166 0.76912475
vt 0.24437796 0.79307747
vt 0.24766111 0.7930776
vt 0.25033712 0.81915194
vt 0.31467748 0.8030614
vt 0.31535172 0.8092793
vt 0.25313672 0.72154874
vt 0.2524606 0.76912475
vt 0.31216145 0.7930776
vt 0.3191843 0.8023796
vt 0.32025325 0.8088633
vt 0.3684616 0.80909467
vt 0.37261248 0.80290306
vt 0.37695193 0.7930776
vt 0.32067978 0.79307747
vt 0.37193525 0.76912475
vt 0.3139937 0.76912475
vt 0.3174356 0.76912475
vt 0.3134911 0.74532735
vt 0.3620832 0.74532735
vt 0.351552 0.7215488
vt 0.30566633 0.74532735
vt 0.31552064 0.72154874
vt 0.25042355 0.74532735
vt 0.31415248 0.69987047
vt 0.33796883 0.69987047
vt 0.32897174 0.6757854
vt 0.30444583 0.72154874
vt 0.26141238 0.7215488
vt 0.3088832 0.6757854
vt 0.32108283 0.6521163
vt 0.29905248 0.69987047
vt 0.2585852 0.69987047
vt 0.30344653 0.6521163
vt 0.3203125 0.62890625
vt 0.29568172 0.62890625
vt 0.2740724 0.69987047
vt 0.25942275 0.6757854
vt 0.2946142 0.6757854
vt 0.29144645 0.6521163
vt 0.2916963 0.62890625
vt 0.27382815 0.6757854
vt 0.27201736 0.6521163
vt 0.26009226 0.62890637
vt 0.28982353 0.6048335
vt 0.30414012 0.5945145
vt 0.3072908 0.5997386
vt 0.3108058 0.5946564
vt 0.28966993 0.59910214
vt 0.28503162 0.60076797
vt 0.2746714 0.5742065
vt 0.26724076 0.57169986
vt 0.27148402 0.5703125
vt 0.3203125 0.5703125
vt 0.3144856 0.5749053
vt 0.32282853 0.57353795
vt 0.34476268 0.8445573
vt 0.35909605 0.82957387
vt 0.3494574 0.847379
vt 0.34394985 0.84927016
vt 0.3334641 0.844676
vt 0.35258344 0.83102596
vt 0.3561719 0.82660896
vt 0.33058316 0.830924
vt 0.32769585 0.82660896
vt 0.3244182 0.82955945
vt 0.32994187 0.8411471
vt 0.33532846 0.8401058
vn -0.5081006 -0.23288329 0.82921594
vn 0.09437089 -0.6907642 0.7168954
vn -0.25120082 -0.73498 0.6298433
vn -0.26610592 -0.043371823 0.9629676
vn -0.7494763 0.31643838 0.5815084
vn 0.22351779 -0.6442627 0.73141325
vn -0.5426956 0.51468647 0.6637615
vn -0.84296316 0.5156762 0.15326835
vn -0.1593082 0.02964803 0.9867836
vn 0.25966963 -0.62926924 0.73252434
vn -0.45539904 0.58648086 0.6698148
vn -0.124344386 0.06483668 0.99011856
vn 0.2791231 -0.6259355 0.72821355
vn -0.6495816 0.75389224 0.09843891
vn -0.76493615 0.35958925 -0.5343859
vn -0.57089067 0.8190823 0.056462232
vn -0.53429127 0.5851002 -0.6100742
vn -0.10977868 0.095391184 0.989368
vn 0.29231325 -0.6330655 0.7167852
vn -0.4244679 0.60846895 0.67051655
vn -0.10482912 0.11260583 0.9880945
vn 0.32288486 -0.6310633 0.70533997
vn -0.39956695 0.61149454 0.6829501
vn -0.08475701 0.12255959 0.9888354
vn 0.414373 -0.5921246 0.6911465
vn -0.36933824 0.5882135 0.71944016
vn -0.54821587 0.83193964 0.08564881
vn -0.555538 0.829447 0.058267657
vn 0.0062050405 0.13852142 0.99034005
vn 0.6134362 -0.47752073 0.629023
vn -0.34258994 0.5770598 0.7413731
vn 0.2729729 0.15060668 0.9501598
vn 0.8301461 -0.25952363 0.49346223
vn 0.65894425 0.119552135 0.7426303
vn -0.2557704 0.59347147 0.7631338
vn -0.0037214458 0.61956114 0.7849396
vn 0.46250743 0.5588748 0.688292
vn -0.5160128 0.805296 0.29194027
vn -0.47915554 0.7945953 0.37286493
vn -0.109885864 0.8863357 0.44981578
vn 0.4289868 0.7849393 0.44703525
vn -0.38950032 0.82527924 0.40890542
vn -0.5400788 0.79973274 -0.26218778
vn -0.06921252 0.97443175 -0.21375799
vn 0.57119375 0.80744636 -0.14754017
vn 0.7094726 0.41862255 -0.56692487
vn -0.5159962 0.82357365 -0.23552985
vn -0.41204533 0.88365567 -0.22219616
vn -0.1444873 0.40647528 -0.9021648
vn 0.1919385 0.4556992 -0.86919385
vn 0.5268482 -0.24141003 -0.8149554
vn 0.8586936 -0.1469327 -0.49097455
vn -0.49190912 0.7033805 -0.51310945
vn -0.2523175 0.34745604 -0.9031114
vn 0.24795187 -0.3065063 -0.91900694
vn 0.7294496 -0.67575216 -0.10612401
vn 0.917551 -0.39271718 -0.062237207
vn 0.8301461 -0.25952363 0.49346223
vn 0.6134362 -0.47752073 0.629023
vn 0.414373 -0.5921246 0.6911465
vn 0.54318094 -0.8290339 -0.13287988
vn 0.32288486 -0.6310633 0.70533997
vn 0.14514752 -0.3515239 -0.9248585
vn 0.4495031 -0.8846463 -0.12388727
vn 0.42102718 -0.90218866 -0.09376407
vn 0.29231325 -0.6330655 0.7167852
vn 0.2791231 -0.6259355 0.72821355
vn 0.13464572 -0.4106008 -0.90181893
vn 0.41849628 -0.9065777 -0.05456956
vn -0.25636995 0.28590012 -0.9233286
vn 0.41867197 -0.90796876 -0.017508449
vn 0.25966963 -0.62926924 0.73252434
vn 0.22351779 -0.6442627 0.73141325
vn 0.17619462 -0.47964704 -0.8595895
vn -0.1874822 0.16822578 -0.9677554
vn 0.39469454 -0.9187816 -0.0075320154
vn 0.09437089 -0.6907642 0.7168954
vn 0.22298837 -0.5452808 -0.80805016
vn -0.44722664 0.63878894 -0.62604874
vn 0.27396327 -0.9613009 -0.029061554
vn -0.25120082 -0.73498 0.6298433
vn -0.089861125 -0.99213576 -0.08712961
vn -0.124909095 0.08499868 -0.9885206
vn -0.44281137 0.6217303 -0.6460414
vn 0.23275582 -0.58465976 -0.7771729
vn 0.12954864 -0.63527274 -0.76134473
vn -0.19335613 -0.7349643 -0.6499545
vn -0.10712974 0.045224354 -0.993216
vn -0.20725307 0.015009565 -0.9781723
vn -0.516788 -0.09174628 -0.8511831
vn 0.57119375 0.80744636 -0.14754017
vn 0.76700646 0.48076263 0.42493337
vn 0.4289868 0.7849393 0.44703525
vn 0.46250743 0.5588748 0.688292
vn 0.8991454 0.41957667 -0.124470696
vn 0.7094726 0.41862255 -0.56692487
vn 0.99256027 -0.08608532 -0.08610147
vn 0.8586936 -0.1469327 -0.49097455
vn 0.917551 -0.39271718 -0.062237207
vn 0.8301461 -0.25952363 0.49346223
vn 0.8999167 0.026258081 0.43527052
vn 0.65894425 0.119552135 0.7426303
vn -0.87415737 -0.10362352 -0.4744588
vn -0.19335613 -0.7349643 -0.6499545
vn -0.516788 -0.09174628 -0.8511831
vn -0.76493615 0.35958925 -0.5343859
vn -0.84296316 0.5156762 0.15326835
vn -0.53288734 -0.8066552 -0.25561365
vn -0.089861125 -0.99213576 -0.08712961
vn -0.6724881 -0.5328182 0.5136775
vn -0.25120082 -0.73498 0.6298433
vn -0.5081006 -0.23288329 0.82921594
vn -0.7494763 0.31643838 0.5815084
vn -0.9528313 0.110852726 0.28253168
g pm0811_00_LStickASkin_rx_0
f 3/3/3 2/2/2 1/1/1
f 2/2/2 4/4/4 1/1/1
f 5/5/5 1/1/1 4/4/4
f 2/2/2 6/6/6 4/4/4
f 7/7/7 5/5/5 4/4/4
f 8/8/8 5/5/5 7/7/7
f 6/6/6 9/9/9 4/4/4
f 6/6/6 10/10/10 9/9/9
f 4/4/4 9/9/9 11/11/11
f 7/7/7 4/4/4 11/11/11
f 10/10/10 12/12/12 9/9/9
f 11/11/11 9/9/9 12/12/12
f 10/10/10 13/13/13 12/12/12
f 14/14/14 8/8/8 7/7/7
f 8/8/8 14/14/14 15/15/15
f 7/7/7 11/11/11 16/16/16
f 14/14/14 7/7/7 16/16/16
f 14/14/14 17/17/17 15/15/15
f 14/14/14 16/16/16 17/17/17
f 13/13/13 18/18/18 12/12/12
f 18/18/18 13/13/13 19/19/19
f 20/20/20 11/11/11 12/12/12
f 16/16/16 11/11/11 20/20/20
f 21/21/21 18/18/18 19/19/19
f 21/21/21 19/19/19 22/22/22
f 12/12/12 18/18/18 23/23/23
f 20/20/20 12/12/12 23/23/23
f 23/23/23 18/18/18 21/21/21
f 24/24/24 21/21/21 22/22/22
f 24/24/24 22/22/22 25/25/25
f 26/26/26 23/23/23 21/21/21
f 26/26/26 21/21/21 24/24/24
f 20/20/20 23/23/23 27/27/27
f 27/27/27 23/23/23 26/26/26
f 28/28/28 16/16/16 20/20/20
f 28/28/28 20/20/20 27/27/27
f 29/29/29 24/24/24 25/25/25
f 29/29/29 25/25/25 30/30/30
f 31/31/31 26/26/26 24/24/24
f 31/31/31 24/24/24 29/29/29
f 32/32/32 29/29/29 30/30/30
f 32/32/32 30/30/30 33/33/33
f 34/34/34 32/32/32 33/33/33
f 35/35/35 29/29/29 32/32/32
f 35/35/35 31/31/31 29/29/29
f 36/36/36 32/32/32 34/34/34
f 36/36/36 35/35/35 32/32/32
f 37/37/37 36/36/36 34/34/34
f 38/38/38 26/26/26 31/31/31
f 38/38/38 27/27/27 26/26/26
f 39/39/39 31/31/31 35/35/35
f 39/39/39 38/38/38 31/31/31
f 40/40/40 36/36/36 37/37/37
f 41/41/41 40/40/40 37/37/37
f 42/42/42 35/35/35 36/36/36
f 42/42/42 39/39/39 35/35/35
f 40/40/40 42/42/42 36/36/36
f 43/43/43 27/27/27 38/38/38
f 43/43/43 38/38/38 39/39/39
f 44/44/44 40/40/40 41/41/41
f 45/45/45 44/44/44 41/41/41
f 44/44/44 45/45/45 46/46/46
f 47/47/47 39/39/39 42/42/42
f 47/47/47 43/43/43 39/39/39
f 48/48/48 42/42/42 40/40/40
f 44/44/44 48/48/48 40/40/40
f 48/48/48 47/47/47 42/42/42
f 49/49/49 48/48/48 44/44/44
f 47/47/47 48/48/48 49/49/49
f 50/50/50 44/44/44 46/46/46
f 50/50/50 49/49/49 44/44/44
f 50/50/50 46/46/46 51/51/51
f 46/46/46 52/52/52 51/51/51
f 43/43/43 53/53/53 27/27/27
f 28/28/28 27/27/27 53/53/53
f 43/43/43 47/47/47 54/54/54
f 54/54/54 47/47/47 49/49/49
f 49/49/49 50/50/50 55/55/55
f 50/50/50 51/51/51 55/55/55
f 56/56/56 51/51/51 52/52/52
f 57/57/57 56/56/56 52/52/52
f 56/56/56 57/57/57 58/58/58
f 59/59/59 56/56/56 58/58/58
f 59/59/59 60/60/60 56/56/56
f 56/56/56 61/61/61 51/51/51
f 60/60/60 61/61/61 56/56/56
f 61/61/61 55/55/55 51/51/51
f 60/60/60 62/62/62 61/61/61
f 49/49/49 55/55/55 63/63/63
f 54/54/54 49/49/49 63/63/63
f 61/61/61 64/64/64 55/55/55
f 62/62/62 64/64/64 61/61/61
f 64/64/64 63/63/63 55/55/55
f 65/65/65 64/64/64 62/62/62
f 64/64/64 65/65/65 63/63/63
f 66/66/66 65/65/65 62/62/62
f 66/66/66 67/67/67 65/65/65
f 54/54/54 63/63/63 68/68/68
f 65/65/65 68/68/68 63/63/63
f 67/67/67 69/69/69 65/65/65
f 65/65/65 69/69/69 68/68/68
f 70/70/70 54/54/54 68/68/68
f 70/70/70 43/43/43 54/54/54
f 53/53/53 43/43/43 70/70/70
f 71/71/71 69/69/69 67/67/67
f 72/72/72 71/71/71 67/67/67
f 72/72/72 73/73/73 71/71/71
f 69/69/69 74/74/74 68/68/68
f 70/70/70 68/68/68 74/74/74
f 74/74/74 69/69/69 71/71/71
f 75/75/75 53/53/53 70/70/70
f 75/75/75 70/70/70 74/74/74
f 73/73/73 76/76/76 71/71/71
f 73/73/73 77/77/77 76/76/76
f 78/78/78 74/74/74 71/71/71
f 75/75/75 74/74/74 78/78/78
f 78/78/78 71/71/71 76/76/76
f 79/79/79 53/53/53 75/75/75
f 79/79/79 28/28/28 53/53/53
f 77/77/77 80/80/80 76/76/76
f 77/77/77 81/81/81 80/80/80
f 81/81/81 82/82/82 80/80/80
f 83/83/83 75/75/75 78/78/78
f 83/83/83 79/79/79 75/75/75
f 28/28/28 79/79/79 84/84/84
f 84/84/84 79/79/79 83/83/83
f 16/16/16 28/28/28 84/84/84
f 16/16/16 84/84/84 17/17/17
f 85/85/85 78/78/78 76/76/76
f 85/85/85 76/76/76 80/80/80
f 83/83/83 78/78/78 85/85/85
f 86/86/86 80/80/80 82/82/82
f 86/86/86 85/85/85 80/80/80
f 87/87/87 86/86/86 82/82/82
f 88/88/88 84/84/84 83/83/83
f 88/88/88 83/83/83 85/85/85
f 17/17/17 84/84/84 88/88/88
f 88/88/88 85/85/85 86/86/86
f 89/89/89 86/86/86 87/87/87
f 89/89/89 88/88/88 86/86/86
f 89/89/89 17/17/17 88/88/88
f 90/90/90 89/89/89 87/87/87
f 15/15/15 17/17/17 89/89/89
f 90/90/90 15/15/15 89/89/89
f 93/93/93 92/92/92 91/91/91
f 93/93/93 94/94/94 92/92/92
f 92/92/92 95/95/95 91/91/91
f 96/96/96 91/91/91 95/95/95
f 96/96/96 95/95/95 97/97/97
f 97/97/97 95/95/95 92/92/92
f 98/98/98 96/96/96 97/97/97
f 98/98/98 97/97/97 99/99/99
f 99/99/99 97/97/97 100/100/100
f 92/92/92 94/94/94 101/101/101
f 101/101/101 97/97/97 92/92/92
f 97/97/97 101/101/101 100/100/100
f 94/94/94 102/102/102 101/101/101
f 100/100/100 101/101/101 102/102/102
f 105/105/105 104/104/104 103/103/103
f 106/106/106 105/105/105 103/103/103
f 106/106/106 103/103/103 107/107/107
f 104/104/104 108/108/108 103/103/103
f 109/109/109 108/108/108 104/104/104
f 110/110/110 108/108/108 109/109/109
f 108/108/108 110/110/110 103/103/103
f 111/111/111 110/110/110 109/109/109
f 112/112/112 110/110/110 111/111/111
f 112/112/112 113/113/113 110/110/110
f 113/113/113 107/107/107 114/114/114
f 103/103/103 114/114/114 107/107/107
f 110/110/110 114/114/114 103/103/103
f 113/113/113 114/114/114 110/110/110
