g pm0818_81_REyeSkin_sz
v -0.023942044 3.291854 -0.29245436
v -0.028976858 3.2861626 -0.2870892
v -0.025279589 3.2856014 -0.29520452
v -0.026633674 3.2784986 -0.297618
v -0.02765022 3.2917407 -0.2854187
v -0.023107745 3.2974083 -0.28801215
v -0.026287742 3.2974255 -0.28225714
v -0.02194878 3.3037922 -0.28239012
v -0.02481633 3.302605 -0.27785173
v -0.021148836 3.3084643 -0.27650976
v -0.023872832 3.3058417 -0.27465954
v -0.020907236 3.3112786 -0.27183977
v -0.023408735 3.3079312 -0.27161446
v -0.020779189 3.3135843 -0.26595634
v -0.030468246 3.2780962 -0.2883249
v -0.031056987 3.286716 -0.28047127
v -0.029719299 3.2918205 -0.27867705
v -0.028001375 3.2974472 -0.2766831
v -0.025821041 3.3030868 -0.27410078
v -0.023104927 3.3103986 -0.26711437
v -0.03167059 3.2705204 -0.28893414
v -0.028576996 3.2693172 -0.29684132
v -0.03252791 3.2636993 -0.2872627
v -0.030283408 3.261746 -0.29358038
v -0.033385683 3.2712004 -0.28235188
v -0.0244456 3.3080182 -0.2635698
v -0.02314715 3.3099637 -0.26223105
v -0.026618356 3.302741 -0.26110816
v -0.025522565 3.304141 -0.259431
v -0.027353691 3.301866 -0.2656037
v -0.026593158 3.3035648 -0.2691656
v -0.028157374 3.298005 -0.26014763
v -0.027412305 3.2985852 -0.2584682
v -0.029070318 3.297349 -0.27120182
v -0.02928263 3.2970877 -0.26706
v -0.03080353 3.2918298 -0.2726174
v -0.028247528 3.299417 -0.26379332
v -0.028850159 3.2975607 -0.2627991
v -0.030129105 3.2912092 -0.25959048
v -0.029507264 3.2915747 -0.25794676
v -0.030677011 3.2913134 -0.26298484
v -0.031425435 3.285624 -0.26031607
v -0.030977396 3.285381 -0.25879878
v -0.030864906 3.2917407 -0.2685456
v -0.032060143 3.2869153 -0.27380168
v -0.031860717 3.2860827 -0.2638537
v -0.033268306 3.2778466 -0.265983
v -0.032943107 3.2775166 -0.263187
v -0.03259065 3.2772703 -0.26142853
v -0.032112543 3.286674 -0.26986453
v -0.0337413 3.2708597 -0.2663311
v -0.033348944 3.2705464 -0.26451108
v -0.03244463 3.278541 -0.28189996
v -0.033509042 3.2784567 -0.2749722
v -0.034189533 3.2659488 -0.2697415
v -0.03385977 3.2641604 -0.26870987
v -0.03402567 3.2711897 -0.26862547
v -0.0335911 3.2784102 -0.27156582
v -0.034315977 3.2716482 -0.27276346
v -0.034337286 3.2714956 -0.2760197
v -0.03394803 3.2639046 -0.28202155
v -0.03446703 3.2648435 -0.27661636
v -0.034475587 3.2660503 -0.27347156
v -0.034348927 3.2676852 -0.27099875
v -0.034409676 3.2622519 -0.27361012
v -0.034140058 3.259694 -0.27304295
v -0.034412187 3.2599459 -0.27680722
v -0.03400435 3.2547913 -0.27699414
v -0.03375078 3.2513945 -0.2796657
v -0.03383825 3.2580142 -0.28132933
v -0.031876806 3.2559106 -0.2882588
v -0.03347286 3.2600403 -0.28420597
vt 0.1960926 2.925373
vt 0.2421875 2.9025574
vt 0.2421875 2.9335938
vt 0.29371387 2.940628
vt 0.20168573 2.897808
vt 0.15477037 2.9108124
vt 0.16014278 2.887988
vt 0.10720468 2.891961
vt 0.12090588 2.8739924
vt 0.072137594 2.871892
vt 0.09618664 2.8635693
vt 0.05171466 2.855626
vt 0.08037257 2.853383
vt 0.034505665 2.835246
vt 0.2989456 2.905755
vt 0.2421875 2.878737
vt 0.20279258 2.8735747
vt 0.16167498 2.8679252
vt 0.11897004 2.8604746
vt 0.0623374 2.8380685
vt 0.35213035 2.9069
vt 0.3590815 2.93649
vt 0.39941674 2.9006677
vt 0.4125719 2.9240546
vt 0.34777206 2.8834882
vt 0.079402566 2.8251586
vt 0.062577724 2.8210273
vt 0.11779922 2.8152285
vt 0.10505795 2.809578
vt 0.12719327 2.830562
vt 0.11594003 2.8432407
vt 0.15201879 2.8106842
vt 0.14579833 2.8047032
vt 0.16263056 2.8487492
vt 0.16318727 2.8344822
vt 0.2027697 2.8524942
vt 0.1444282 2.82375
vt 0.15752125 2.8199167
vt 0.2012235 2.8073912
vt 0.1970346 2.8014545
vt 0.20271182 2.8193126
vt 0.2421875 2.8089519
vt 0.2421875 2.803358
vt 0.20209157 2.8385386
vt 0.2421875 2.8556957
vt 0.2421875 2.8213902
vt 0.2988165 2.8275108
vt 0.29999584 2.8176837
vt 0.3008607 2.8113441
vt 0.2421875 2.8421946
vt 0.34757888 2.8278284
vt 0.34920806 2.8212566
vt 0.29685265 2.8826256
vt 0.2970755 2.8585882
vt 0.3826847 2.8393455
vt 0.3949899 2.8354683
vt 0.34597367 2.8359094
vt 0.2967059 2.8469033
vt 0.3438164 2.8503084
vt 0.34541708 2.8614864
vt 0.39804822 2.8819323
vt 0.3912803 2.8632064
vt 0.38258094 2.8523808
vt 0.37086415 2.8438978
vt 0.40888506 2.8526845
vt 0.42674005 2.8505888
vt 0.42507118 2.8637557
vt 0.46092606 2.8644705
vt 0.484375 2.8738117
vt 0.43866253 2.879541
vt 0.45346808 2.904582
vt 0.42465067 2.8895698
vn -0.8348604 0.3761768 -0.40186957
vn -0.89703584 0.2784639 -0.34319764
vn -0.8746454 0.28893974 -0.38924184
vn -0.904328 0.2067295 -0.37343517
vn -0.86304086 0.36529943 -0.34887934
vn -0.79934555 0.4552511 -0.39216465
vn -0.8321553 0.4399276 -0.33761108
vn -0.7777169 0.51537013 -0.35993075
vn -0.80635136 0.5001297 -0.3157019
vn -0.7711061 0.5547788 -0.3124355
vn -0.78783584 0.5402284 -0.2957498
vn -0.7844656 0.57286566 -0.23756798
vn -0.81343335 0.5359588 -0.22599617
vn -0.81720024 0.5668144 -0.104427464
vn -0.92249805 0.19794938 -0.3313809
vn -0.9405819 0.2505704 -0.22917253
vn -0.9151902 0.33072084 -0.23032717
vn -0.8883812 0.4000547 -0.22524422
vn -0.8554769 0.469281 -0.21893995
vn -0.8465688 0.5219111 -0.10454694
vn -0.94155717 0.113278374 -0.31723505
vn -0.9258982 0.11767611 -0.3589775
vn -0.9557143 0.027029451 -0.2930525
vn -0.94280016 0.02532771 -0.33239472
vn -0.97192514 0.10453509 -0.21079396
vn -0.8839095 0.46552366 0.04462741
vn -0.85818636 0.50900203 0.066581264
vn -0.9074228 0.3936794 0.1469709
vn -0.88756925 0.41945514 0.19046845
vn -0.91532445 0.40244663 0.0147589035
vn -0.88973457 0.4442674 -0.10487606
vn -0.92760205 0.31398883 0.20239903
vn -0.9090842 0.32704753 0.258081
vn -0.9244232 0.3660166 -0.10711536
vn -0.94471234 0.3276342 0.013205543
vn -0.9490144 0.29723006 -0.105004504
vn -0.92562264 0.36740887 0.09073841
vn -0.94527674 0.30726328 0.10973205
vn -0.94836295 0.23967771 0.20775516
vn -0.9310891 0.24311566 0.2719703
vn -0.9636376 0.24398473 0.108967766
vn -0.96907365 0.15809117 0.18948169
vn -0.9557918 0.1492272 0.253364
vn -0.96497947 0.2617562 0.017273918
vn -0.9692453 0.22388938 -0.10216187
vn -0.9791668 0.17649594 0.10040739
vn -0.98850876 0.11825985 0.094153896
vn -0.98153114 0.08995836 0.16883154
vn -0.97245747 0.07227095 0.2215926
vn -0.9805079 0.19544032 0.020184431
vn -0.9875777 0.0208995 0.15573542
vn -0.9811056 -0.00019506516 0.19347276
vn -0.95817274 0.17852582 -0.22368169
vn -0.9821062 0.1590149 -0.10090436
vn -0.99131715 -0.030138139 0.12799208
vn -0.98700315 -0.05390286 0.15139064
vn -0.9942036 0.05802245 0.090513475
vn -0.9902982 0.13747573 0.020244952
vn -0.99700767 0.074929506 0.019010779
vn -0.9912425 0.091134414 -0.09556477
vn -0.98155725 0.026430162 -0.18933262
vn -0.9966114 0.021382414 -0.07942545
vn -0.9996356 0.011601367 0.024376497
vn -0.99647397 0.010993858 0.08317903
vn -0.99744713 -0.043021828 0.05699503
vn -0.9952029 -0.06855736 0.06979303
vn -0.99775404 -0.03845419 -0.05484621
vn -0.9967705 -0.061652966 -0.051454205
vn -0.98255426 -0.0657484 -0.1739663
vn -0.98415 -0.043922253 -0.17181256
vn -0.9604895 -0.044270065 -0.2747728
vn -0.96492463 -0.036485348 -0.2599796
g pm0818_81_REyeSkin_sz_0
f 3/3/3 2/2/2 1/1/1
f 3/3/3 4/4/4 2/2/2
f 2/2/2 5/5/5 1/1/1
f 1/1/1 5/5/5 6/6/6
f 5/5/5 7/7/7 6/6/6
f 6/6/6 7/7/7 8/8/8
f 7/7/7 9/9/9 8/8/8
f 8/8/8 9/9/9 10/10/10
f 9/9/9 11/11/11 10/10/10
f 10/10/10 11/11/11 12/12/12
f 11/11/11 13/13/13 12/12/12
f 13/13/13 11/11/11 9/9/9
f 12/12/12 13/13/13 14/14/14
f 4/4/4 15/15/15 2/2/2
f 5/5/5 2/2/2 16/16/16
f 2/2/2 15/15/15 16/16/16
f 5/5/5 17/17/17 7/7/7
f 17/17/17 5/5/5 16/16/16
f 7/7/7 18/18/18 9/9/9
f 17/17/17 18/18/18 7/7/7
f 19/19/19 13/13/13 9/9/9
f 18/18/18 19/19/19 9/9/9
f 13/13/13 20/20/20 14/14/14
f 13/13/13 19/19/19 20/20/20
f 21/21/21 15/15/15 4/4/4
f 22/22/22 21/21/21 4/4/4
f 23/23/23 21/21/21 22/22/22
f 24/24/24 23/23/23 22/22/22
f 21/21/21 25/25/25 15/15/15
f 21/21/21 23/23/23 25/25/25
f 14/14/14 20/20/20 26/26/26
f 27/27/27 14/14/14 26/26/26
f 27/27/27 26/26/26 28/28/28
f 29/29/29 27/27/27 28/28/28
f 26/26/26 20/20/20 30/30/30
f 26/26/26 30/30/30 28/28/28
f 19/19/19 31/31/31 20/20/20
f 20/20/20 31/31/31 30/30/30
f 29/29/29 28/28/28 32/32/32
f 33/33/33 29/29/29 32/32/32
f 34/34/34 31/31/31 19/19/19
f 18/18/18 34/34/34 19/19/19
f 31/31/31 34/34/34 35/35/35
f 30/30/30 31/31/31 35/35/35
f 36/36/36 34/34/34 18/18/18
f 35/35/35 34/34/34 36/36/36
f 17/17/17 36/36/36 18/18/18
f 30/30/30 37/37/37 28/28/28
f 28/28/28 37/37/37 32/32/32
f 38/38/38 37/37/37 30/30/30
f 35/35/35 38/38/38 30/30/30
f 37/37/37 38/38/38 32/32/32
f 33/33/33 32/32/32 39/39/39
f 40/40/40 33/33/33 39/39/39
f 32/32/32 38/38/38 41/41/41
f 41/41/41 38/38/38 35/35/35
f 39/39/39 32/32/32 41/41/41
f 40/40/40 39/39/39 42/42/42
f 39/39/39 41/41/41 42/42/42
f 43/43/43 40/40/40 42/42/42
f 44/44/44 41/41/41 35/35/35
f 44/44/44 35/35/35 36/36/36
f 45/45/45 36/36/36 17/17/17
f 16/16/16 45/45/45 17/17/17
f 41/41/41 44/44/44 46/46/46
f 41/41/41 46/46/46 42/42/42
f 42/42/42 46/46/46 47/47/47
f 43/43/43 42/42/42 48/48/48
f 48/48/48 42/42/42 47/47/47
f 49/49/49 43/43/43 48/48/48
f 44/44/44 36/36/36 50/50/50
f 44/44/44 50/50/50 46/46/46
f 36/36/36 45/45/45 50/50/50
f 47/47/47 46/46/46 50/50/50
f 49/49/49 48/48/48 51/51/51
f 48/48/48 47/47/47 51/51/51
f 52/52/52 49/49/49 51/51/51
f 16/16/16 53/53/53 45/45/45
f 15/15/15 53/53/53 16/16/16
f 25/25/25 53/53/53 15/15/15
f 53/53/53 54/54/54 45/45/45
f 50/50/50 45/45/45 54/54/54
f 53/53/53 25/25/25 54/54/54
f 52/52/52 51/51/51 55/55/55
f 56/56/56 52/52/52 55/55/55
f 47/47/47 57/57/57 51/51/51
f 51/51/51 57/57/57 55/55/55
f 58/58/58 47/47/47 50/50/50
f 58/58/58 50/50/50 54/54/54
f 58/58/58 59/59/59 47/47/47
f 58/58/58 54/54/54 59/59/59
f 59/59/59 57/57/57 47/47/47
f 25/25/25 60/60/60 54/54/54
f 54/54/54 60/60/60 59/59/59
f 25/25/25 61/61/61 60/60/60
f 23/23/23 61/61/61 25/25/25
f 59/59/59 60/60/60 62/62/62
f 61/61/61 62/62/62 60/60/60
f 57/57/57 59/59/59 63/63/63
f 63/63/63 59/59/59 62/62/62
f 57/57/57 64/64/64 55/55/55
f 64/64/64 57/57/57 63/63/63
f 64/64/64 63/63/63 55/55/55
f 56/56/56 55/55/55 65/65/65
f 63/63/63 65/65/65 55/55/55
f 66/66/66 56/56/56 65/65/65
f 65/65/65 63/63/63 67/67/67
f 66/66/66 65/65/65 67/67/67
f 63/63/63 62/62/62 67/67/67
f 68/68/68 66/66/66 67/67/67
f 68/68/68 67/67/67 69/69/69
f 61/61/61 70/70/70 62/62/62
f 70/70/70 67/67/67 62/62/62
f 67/67/67 70/70/70 69/69/69
f 70/70/70 61/61/61 23/23/23
f 69/69/69 70/70/70 71/71/71
f 72/72/72 70/70/70 23/23/23
f 70/70/70 72/72/72 71/71/71
f 72/72/72 23/23/23 24/24/24
f 71/71/71 72/72/72 24/24/24
