g pm0800_12_EyeSkin
v -0.25273588 2.4110339 2.417734
v -0.30084828 2.430852 2.3410175
v -0.277411 2.491364 2.35149
v -0.23298888 2.4624853 2.4243238
v -0.19063033 2.4347718 2.4852762
v -0.20182154 2.3925052 2.4875662
v -0.15333623 2.3662064 2.5479991
v -0.1415863 2.403317 2.5507843
v -0.122187205 2.4359586 2.5510876
v -0.20554669 2.518512 2.433314
v -0.24382803 2.556611 2.362674
v -0.17071792 2.4840693 2.4843209
v -0.09736909 2.4648929 2.546889
v -0.13331668 2.5198598 2.490404
v -0.161566 2.5636075 2.4413593
v -0.19321416 2.6123345 2.3741221
v 7.38001E-10 2.3560727 2.667341
v 1.1518035E-08 2.3213894 2.6596477
v -0.028125355 2.3400033 2.6495662
v -0.026641807 2.3675144 2.6583602
v -5.236413E-06 2.3994746 2.6388555
v -0.027353674 2.4104393 2.6287673
v -0.06035455 2.3738353 2.6273897
v -0.05470498 2.391213 2.6367636
v -0.052760713 2.4258816 2.6095498
v -0.074578986 2.4123447 2.615334
v -0.079401426 2.40321 2.6084216
v -0.07557587 2.4390428 2.5927322
v -0.08862139 2.4230886 2.5982714
v -0.08586844 2.4256253 2.6020164
v -0.08896553 2.4515243 2.57057
v 1.1518035E-08 2.3213894 2.6596477
v -0.034228094 2.3266158 2.648381
v -0.028125355 2.3400033 2.6495662
v -0.06035455 2.3738353 2.6273897
v -0.083751895 2.33441 2.6177356
v -0.079401426 2.40321 2.6084216
v -0.12178078 2.3515954 2.5790014
v -0.11370146 2.392507 2.5807853
v -0.08862139 2.4230886 2.5982714
v -0.1415863 2.403317 2.5507843
v -0.15333623 2.3662064 2.5479991
v -0.122187205 2.4359586 2.5510876
v -0.10330892 2.4234133 2.5784357
v -0.08896553 2.4515243 2.57057
v -0.09736909 2.4648929 2.546889
v 0.25273588 2.4110339 2.417734
v 0.277411 2.491364 2.35149
v 0.30084828 2.430852 2.3410175
v 0.23298888 2.4624853 2.4243238
v 0.19063033 2.4347718 2.4852762
v 0.20182154 2.3925052 2.4875662
v 0.15333621 2.3662064 2.5479991
v 0.1415863 2.403317 2.5507843
v 0.12218719 2.4359586 2.5510876
v 0.20554668 2.518512 2.433314
v 0.24382803 2.556611 2.362674
v 0.17071792 2.4840693 2.4843209
v 0.09736909 2.4648929 2.546889
v 0.13331668 2.5198598 2.490404
v 0.161566 2.5636075 2.4413593
v 0.19321416 2.6123345 2.3741221
v 7.38001E-10 2.3560727 2.667341
v 0.028125368 2.3400033 2.6495662
v 1.1518035E-08 2.3213894 2.6596477
v 0.026641807 2.3675144 2.6583602
v -5.236413E-06 2.3994746 2.6388555
v 0.027353674 2.4104393 2.6287673
v 0.06035456 2.3738353 2.6273897
v 0.054704975 2.391213 2.6367636
v 0.052760713 2.4258816 2.6095498
v 0.07457898 2.4123447 2.615334
v 0.079401426 2.40321 2.6084216
v 0.07557587 2.4390428 2.5927322
v 0.08862141 2.4230886 2.5982714
v 0.08586843 2.4256253 2.6020164
v 0.08896553 2.4515243 2.57057
v 1.1518035E-08 2.3213894 2.6596477
v 0.028125368 2.3400033 2.6495662
v 0.034228113 2.3266158 2.648381
v 0.06035456 2.3738353 2.6273897
v 0.0837519 2.33441 2.6177356
v 0.079401426 2.40321 2.6084216
v 0.12178078 2.3515954 2.5790014
v 0.11370146 2.392507 2.5807853
v 0.08862141 2.4230886 2.5982714
v 0.1415863 2.403317 2.5507843
v 0.15333621 2.3662064 2.5479991
v 0.12218719 2.4359586 2.5510876
v 0.10330892 2.4234133 2.5784357
v 0.08896553 2.4515243 2.57057
v 0.09736909 2.4648929 2.546889
vt 0.43945217 4.460702
vt 0.20316502 4.4128437
vt 0.1895926 4.5832376
vt 0.42241108 4.6041183
vt 0.62817216 4.6211205
vt 0.6652155 4.512708
vt 0.87796617 4.541428
vt 0.8565259 4.641542
vt 0.84561944 4.7402763
vt 0.41469193 4.7669563
vt 0.18484747 4.775995
vt 0.59716725 4.756111
vt 0.8388636 4.840118
vt 0.61876345 4.8897185
vt 0.43777144 4.929441
vt 0.21127498 4.971637
vt 1.0002646 4.102941
vt 1.0004396 4.026479
vt 0.92867637 4.0693655
vt 0.9453647 4.131094
vt 0.9999999 4.21875
vt 0.9318788 4.2463655
vt 0.84700775 4.155302
vt 0.8756943 4.191783
vt 0.86127186 4.291834
vt 0.81796026 4.2486963
vt 0.7958822 4.230835
vt 0.7948489 4.3259687
vt 0.7723186 4.280442
vt 0.7837622 4.2833176
vt 0.7410023 4.3662205
vt 1.0004396 4.026479
vt 0.91294765 4.03864
vt 0.92867637 4.0693655
vt 0.84700775 4.155302
vt 0.77930236 4.070828
vt 0.7958822 4.230835
vt 0.6607162 4.1298695
vt 0.6917279 4.2219224
vt 0.7723186 4.280442
vt 0.6015339 4.26248
vt 0.5639167 4.179473
vt 0.6473863 4.3387403
vt 0.7172704 4.2938614
vt 0.7410023 4.3662205
vt 0.69530106 4.4150095
vt 0.43945217 4.460702
vt 0.1895926 4.5832376
vt 0.20316505 4.4128437
vt 0.42241108 4.6041183
vt 0.62817216 4.6211205
vt 0.6652155 4.512708
vt 0.87796617 4.541428
vt 0.8565259 4.641542
vt 0.84561944 4.7402763
vt 0.41469193 4.7669563
vt 0.18484747 4.775995
vt 0.59716725 4.756111
vt 0.8388636 4.840118
vt 0.61876345 4.8897185
vt 0.43777144 4.929441
vt 0.21127498 4.971637
vt 0.99973536 4.102941
vt 0.92799354 4.0694475
vt 0.99956036 4.026479
vt 0.9449642 4.131157
vt 1.0000001 4.21875
vt 0.9320055 4.2464433
vt 0.8467182 4.155477
vt 0.8755715 4.1919255
vt 0.8616067 4.291992
vt 0.81809795 4.248904
vt 0.79593813 4.231068
vt 0.79533994 4.326203
vt 0.7726016 4.2807026
vt 0.78405845 4.2835646
vt 0.74167764 4.366516
vt 0.99956036 4.026479
vt 0.92799354 4.0694475
vt 0.9121244 4.0387397
vt 0.8467182 4.155477
vt 0.77862656 4.0710807
vt 0.79593813 4.231068
vt 0.66031075 4.1302576
vt 0.6917434 4.222275
vt 0.7726016 4.2807026
vt 0.6017351 4.262935
vt 0.56373835 4.1799717
vt 0.6479362 4.3391433
vt 0.7176149 4.2941847
vt 0.74167764 4.366516
vt 0.69619966 4.4153576
vn -0.7799808 0.22106361 0.5854578
vn -0.79556346 0.22087207 0.5641759
vn -0.7802971 0.2561221 0.57055926
vn -0.7621048 0.25335696 0.5958243
vn -0.71488833 0.25919193 0.649426
vn -0.74080896 0.21341969 0.63690984
vn -0.711087 0.17920744 0.6798823
vn -0.6884867 0.25222135 0.6799783
vn -0.60262334 0.39641216 0.6926055
vn -0.68047535 0.37481305 0.6296573
vn -0.7024711 0.3825486 0.6001592
vn -0.61909556 0.37333897 0.69089705
vn -0.5191855 0.47489625 0.7105773
vn -0.53343344 0.4520149 0.7149344
vn -0.6047643 0.46137995 0.6491446
vn -0.6300457 0.47190386 0.61672455
vn 3.933907E-06 0.14713776 0.989116
vn -2.384186E-07 -0.24570015 0.9693459
vn -0.5318183 -0.20750192 0.8210433
vn -0.3733689 0.20524645 0.9046931
vn -3.1590462E-06 0.557852 0.82994044
vn -0.13247651 0.58109 0.8029847
vn -0.7099952 -0.15131404 0.6877579
vn -0.5010661 0.25663242 0.82648206
vn -0.18863238 0.61804503 0.76317644
vn -0.4307326 0.42357516 0.7969025
vn -0.7726553 -0.07846414 0.6299581
vn -0.24844469 0.66323054 0.7059748
vn -0.83394974 0.108272195 0.54111457
vn -0.404481 0.52136374 0.75138205
vn -0.4223859 0.67881626 0.6006651
vn -0.30466336 0.054688092 0.9508888
vn -0.48319224 0.09935343 0.86985874
vn -0.4814225 0.098906144 0.8708903
vn -0.60195357 0.13104689 0.78770465
vn -0.6071445 0.13245966 0.7834731
vn -0.65570444 0.14667676 0.7406332
vn -0.6599162 0.13366926 0.7393531
vn -0.673889 0.18329069 0.7157361
vn -0.7080863 0.23830152 0.66470003
vn -0.6884867 0.25222135 0.6799783
vn -0.711087 0.17920744 0.6798823
vn -0.60262334 0.39641216 0.6926055
vn -0.66773456 0.36388656 0.6493975
vn -0.6099796 0.5334159 0.58599687
vn -0.5191855 0.47489625 0.7105773
vn 0.77998155 0.22106422 0.5854566
vn 0.78029716 0.25612256 0.57055897
vn 0.7955631 0.22087228 0.5641763
vn 0.7621052 0.2533574 0.59582347
vn 0.7148891 0.25919247 0.6494251
vn 0.7408103 0.21342029 0.63690805
vn 0.7110875 0.17920719 0.6798818
vn 0.6884871 0.25222158 0.6799779
vn 0.6026232 0.3964126 0.6926054
vn 0.68047476 0.37481293 0.62965816
vn 0.7024706 0.38254905 0.6001594
vn 0.619095 0.37333858 0.69089764
vn 0.5191853 0.47489643 0.71057725
vn 0.5334325 0.4520142 0.71493566
vn 0.60476273 0.46137935 0.6491464
vn 0.63004416 0.47190398 0.616726
vn 3.933907E-06 0.14713776 0.989116
vn 0.53181785 -0.20750141 0.8210437
vn -2.384186E-07 -0.24570015 0.9693459
vn 0.37333277 0.20529497 0.90469694
vn -3.1590462E-06 0.557852 0.82994044
vn 0.13245952 0.58109057 0.80298704
vn 0.7099955 -0.15131372 0.6877577
vn 0.5010652 0.25663307 0.8264824
vn 0.18863438 0.61804676 0.7631745
vn 0.43073332 0.42357466 0.7969023
vn 0.77265054 -0.078463376 0.62996405
vn 0.24844746 0.6632294 0.705975
vn 0.8339451 0.108271606 0.54112184
vn 0.40448278 0.5213619 0.75138247
vn 0.4223853 0.6788141 0.6006679
vn 0.30465654 0.05468691 0.9508911
vn 0.4814161 0.098905675 0.87089396
vn 0.48318577 0.099352956 0.8698623
vn 0.60195255 0.13104665 0.7877055
vn 0.6071436 0.1324594 0.78347373
vn 0.65570474 0.14667654 0.740633
vn 0.6599171 0.13366902 0.73935246
vn 0.6738882 0.1832907 0.7157368
vn 0.708085 0.23830138 0.66470146
vn 0.6884871 0.25222158 0.6799779
vn 0.7110875 0.17920719 0.6798818
vn 0.6026232 0.3964126 0.6926054
vn 0.6677334 0.36388776 0.649398
vn 0.60997874 0.53341705 0.5859968
vn 0.5191853 0.47489643 0.71057725
g pm0800_12_EyeSkin_0
f 3/3/3 2/2/2 1/1/1
f 4/4/4 3/3/3 1/1/1
f 5/5/5 4/4/4 1/1/1
f 6/6/6 5/5/5 1/1/1
f 5/5/5 6/6/6 7/7/7
f 8/8/8 5/5/5 7/7/7
f 8/8/8 9/9/9 5/5/5
f 4/4/4 10/10/10 3/3/3
f 10/10/10 4/4/4 5/5/5
f 10/10/10 11/11/11 3/3/3
f 9/9/9 12/12/12 5/5/5
f 12/12/12 10/10/10 5/5/5
f 9/9/9 13/13/13 12/12/12
f 13/13/13 14/14/14 12/12/12
f 12/12/12 14/14/14 10/10/10
f 14/14/14 15/15/15 10/10/10
f 11/11/11 10/10/10 15/15/15
f 16/16/16 11/11/11 15/15/15
f 19/19/19 18/18/18 17/17/17
f 20/20/20 19/19/19 17/17/17
f 20/20/20 17/17/17 21/21/21
f 22/22/22 20/20/20 21/21/21
f 23/23/23 19/19/19 20/20/20
f 22/22/22 24/24/24 20/20/20
f 24/24/24 23/23/23 20/20/20
f 22/22/22 25/25/25 24/24/24
f 24/24/24 26/26/26 23/23/23
f 25/25/25 26/26/26 24/24/24
f 26/26/26 27/27/27 23/23/23
f 25/25/25 28/28/28 26/26/26
f 29/29/29 27/27/27 26/26/26
f 28/28/28 30/30/30 26/26/26
f 30/30/30 29/29/29 26/26/26
f 28/28/28 31/31/31 30/30/30
f 31/31/31 29/29/29 30/30/30
f 34/34/34 33/33/33 32/32/32
f 33/33/33 34/34/34 35/35/35
f 36/36/36 33/33/33 35/35/35
f 36/36/36 35/35/35 37/37/37
f 38/38/38 36/36/36 37/37/37
f 39/39/39 38/38/38 37/37/37
f 39/39/39 37/37/37 40/40/40
f 38/38/38 39/39/39 41/41/41
f 42/42/42 38/38/38 41/41/41
f 41/41/41 39/39/39 43/43/43
f 44/44/44 39/39/39 40/40/40
f 39/39/39 44/44/44 43/43/43
f 44/44/44 40/40/40 45/45/45
f 43/43/43 44/44/44 46/46/46
f 44/44/44 45/45/45 46/46/46
f 49/49/49 48/48/48 47/47/47
f 48/48/48 50/50/50 47/47/47
f 50/50/50 51/51/51 47/47/47
f 51/51/51 52/52/52 47/47/47
f 52/52/52 51/51/51 53/53/53
f 51/51/51 54/54/54 53/53/53
f 55/55/55 54/54/54 51/51/51
f 56/56/56 50/50/50 48/48/48
f 50/50/50 56/56/56 51/51/51
f 57/57/57 56/56/56 48/48/48
f 58/58/58 55/55/55 51/51/51
f 56/56/56 58/58/58 51/51/51
f 59/59/59 55/55/55 58/58/58
f 60/60/60 59/59/59 58/58/58
f 60/60/60 58/58/58 56/56/56
f 61/61/61 60/60/60 56/56/56
f 56/56/56 57/57/57 61/61/61
f 57/57/57 62/62/62 61/61/61
f 65/65/65 64/64/64 63/63/63
f 64/64/64 66/66/66 63/63/63
f 63/63/63 66/66/66 67/67/67
f 66/66/66 68/68/68 67/67/67
f 64/64/64 69/69/69 66/66/66
f 70/70/70 68/68/68 66/66/66
f 69/69/69 70/70/70 66/66/66
f 71/71/71 68/68/68 70/70/70
f 72/72/72 70/70/70 69/69/69
f 72/72/72 71/71/71 70/70/70
f 73/73/73 72/72/72 69/69/69
f 74/74/74 71/71/71 72/72/72
f 73/73/73 75/75/75 72/72/72
f 76/76/76 74/74/74 72/72/72
f 75/75/75 76/76/76 72/72/72
f 77/77/77 74/74/74 76/76/76
f 75/75/75 77/77/77 76/76/76
f 80/80/80 79/79/79 78/78/78
f 79/79/79 80/80/80 81/81/81
f 80/80/80 82/82/82 81/81/81
f 81/81/81 82/82/82 83/83/83
f 82/82/82 84/84/84 83/83/83
f 84/84/84 85/85/85 83/83/83
f 83/83/83 85/85/85 86/86/86
f 85/85/85 84/84/84 87/87/87
f 84/84/84 88/88/88 87/87/87
f 85/85/85 87/87/87 89/89/89
f 85/85/85 90/90/90 86/86/86
f 90/90/90 85/85/85 89/89/89
f 86/86/86 90/90/90 91/91/91
f 90/90/90 89/89/89 92/92/92
f 91/91/91 90/90/90 92/92/92
