g pm0802_00_EyeOffsetSkin
v -0.032508355 0.41149184 0.13751131
v 9.1875285E-11 0.41296366 0.13931513
v 7.4535114E-11 0.37822905 0.15026116
v -0.032886293 0.37806895 0.1479906
v -0.06455235 0.3780634 0.14079829
v -0.06335551 0.40892494 0.13132644
v -0.09074143 0.4067206 0.119979486
v -0.033071138 0.3487289 0.15028296
v 3.351216E-11 0.34873107 0.15257023
v 7.124815E-12 0.32475537 0.15059836
v -0.031845 0.32482803 0.14826974
v -0.064915076 0.3487145 0.14299485
v -0.062455773 0.32477966 0.14102058
v -0.029962858 0.30279386 0.1428722
v -0.094254166 0.3486929 0.13012628
v -0.093730256 0.3780552 0.1280555
v -0.11927157 0.37804943 0.111018166
v -0.11423749 0.40459064 0.10525852
v -0.11993372 0.34868377 0.112837866
v -0.090677164 0.32474303 0.1281403
v -0.11537565 0.32472664 0.11103424
v -0.08516323 0.30269796 0.12317342
v -0.10835669 0.3026854 0.106560506
v -0.05866 0.30273083 0.13580503
v -0.053256135 0.28378767 0.12575835
v -0.07728414 0.2837697 0.113990985
v -0.09832843 0.28375936 0.09821341
v 0.032508355 0.41149184 0.13751131
v 7.4535114E-11 0.37822905 0.15026116
v 9.1875285E-11 0.41296366 0.13931513
v 0.032886293 0.37806895 0.1479906
v 0.06455235 0.3780634 0.14079829
v 0.06335551 0.40892494 0.13132644
v 0.09074143 0.4067206 0.119979486
v 0.033071138 0.3487289 0.15028296
v 3.351216E-11 0.34873107 0.15257023
v 7.124815E-12 0.32475537 0.15059836
v 0.031845 0.32482803 0.14826974
v 0.064915076 0.3487145 0.14299485
v 0.062455777 0.32477966 0.14102058
v 0.029962858 0.30279386 0.1428722
v 0.094254166 0.3486929 0.13012628
v 0.093730256 0.3780552 0.1280555
v 0.11927157 0.37804943 0.111018166
v 0.11423749 0.40459064 0.10525852
v 0.11993372 0.34868377 0.112837866
v 0.090677164 0.32474303 0.1281403
v 0.11537565 0.32472664 0.11103424
v 0.08516323 0.30269796 0.12317342
v 0.10835669 0.3026854 0.106560506
v 0.05866 0.30273083 0.13580503
v 0.053256135 0.28378767 0.12575835
v 0.07728414 0.2837697 0.113990985
v 0.09832843 0.28375936 0.09821341
vt 0.1130054 1.9852445
vt 0 1.9873052
vt 0 1.9253843
vt 0.11455727 1.9253843
vt 0.22474623 1.9253843
vt 0.22011232 1.9806397
vt 0.31561613 1.9755781
vt 0.11588812 1.8730125
vt 0 1.8730125
vt 0 1.8303175
vt 0.11289597 1.830318
vt 0.2273562 1.8730125
vt 0.2214737 1.8303196
vt 0.1078558 1.7910814
vt 0.33000422 1.8730125
vt 0.32621527 1.9253843
vt 0.41526985 1.9253843
vt 0.3968637 1.9728708
vt 0.4200921 1.8730125
vt 0.3214605 1.8303223
vt 0.40921187 1.8303246
vt 0.307132 1.7910814
vt 0.39097595 1.7910821
vt 0.21159934 1.7910821
vt 0.19572449 1.7573016
vt 0.28407001 1.7573092
vt 0.3616104 1.7573199
vt 0.1130054 1.9852445
vt 0 1.9253843
vt 0 1.9873052
vt 0.11455727 1.9253843
vt 0.22474623 1.9253843
vt 0.22011232 1.9806397
vt 0.31561613 1.9755781
vt 0.11588812 1.8730125
vt 0 1.8730125
vt 0 1.8303175
vt 0.11289597 1.830318
vt 0.2273562 1.8730125
vt 0.2214737 1.8303196
vt 0.1078558 1.7910814
vt 0.33000422 1.8730125
vt 0.32621527 1.9253843
vt 0.41526985 1.9253843
vt 0.3968637 1.9728708
vt 0.4200921 1.8730125
vt 0.3214605 1.8303223
vt 0.40921187 1.8303246
vt 0.307132 1.7910814
vt 0.39097595 1.7910821
vt 0.21159934 1.7910821
vt 0.19572449 1.7573016
vt 0.28407001 1.7573092
vt 0.3616104 1.7573199
vn -0.15900125 0.26836613 0.95010436
vn -0 0.27047235 0.9627278
vn 1.2193779E-07 0.16378438 0.98649615
vn -0.16535807 0.16128053 0.97295696
vn -0.32257476 0.15655611 0.9335072
vn -0.31197143 0.26236957 0.91314626
vn -0.442945 0.24920312 0.86121863
vn -0.17202339 -0.027434522 0.98471075
vn -0 -0.017697794 0.99984336
vn -0 -0.17858312 0.98392487
vn -0.18372576 -0.22873728 0.9559938
vn -0.3323377 -0.02896004 0.94271576
vn -0.3272394 -0.23710693 0.9147101
vn -0.24622877 -0.40761238 0.87933135
vn -0.4753466 -0.0398459 0.8788958
vn -0.46126908 0.14527094 0.87528694
vn -0.5418715 0.1286143 0.83056223
vn -0.5173663 0.22897658 0.8245616
vn -0.5604486 -0.052655842 0.8265136
vn -0.46958834 -0.24708115 0.8476071
vn -0.5563939 -0.2610423 0.78884906
vn -0.4400308 -0.43688574 0.7845405
vn -0.524149 -0.44459414 0.72636336
vn -0.31699184 -0.4126057 0.85397464
vn -0.30321673 -0.49111432 0.81661886
vn -0.40943736 -0.5359074 0.7383524
vn -0.4862469 -0.54623145 0.68205214
vn 0.15900134 0.26836616 0.95010436
vn 1.2193779E-07 0.16378438 0.98649615
vn -0 0.27047235 0.9627278
vn 0.16535825 0.16128066 0.97295696
vn 0.3225753 0.15655616 0.933507
vn 0.31197163 0.26236972 0.91314614
vn 0.44294524 0.24920315 0.8612186
vn 0.17202358 -0.027434522 0.98471075
vn -0 -0.017697794 0.99984336
vn -0 -0.17858312 0.98392487
vn 0.18372592 -0.22873726 0.9559938
vn 0.33233806 -0.028960044 0.94271564
vn 0.32723975 -0.237107 0.91471004
vn 0.24622907 -0.4076123 0.87933123
vn 0.47534683 -0.039846025 0.87889576
vn 0.4612693 0.14527108 0.87528676
vn 0.5418716 0.1286144 0.8305622
vn 0.51736647 0.22897646 0.8245615
vn 0.5604488 -0.05265591 0.8265134
vn 0.46958864 -0.24708113 0.8476069
vn 0.55639416 -0.2610423 0.7888488
vn 0.44003108 -0.4368857 0.78454036
vn 0.52414924 -0.44459417 0.7263633
vn 0.31699213 -0.4126057 0.85397464
vn 0.303217 -0.49111432 0.81661874
vn 0.40943754 -0.5359074 0.7383523
vn 0.48624715 -0.54623145 0.682052
g pm0802_00_EyeOffsetSkin_0
f 3/3/3 2/2/2 1/1/1
f 4/4/4 3/3/3 1/1/1
f 4/4/4 1/1/1 5/5/5
f 1/1/1 6/6/6 5/5/5
f 5/5/5 6/6/6 7/7/7
f 4/4/4 8/8/8 3/3/3
f 4/4/4 5/5/5 8/8/8
f 8/8/8 9/9/9 3/3/3
f 10/10/10 9/9/9 8/8/8
f 11/11/11 10/10/10 8/8/8
f 8/8/8 12/12/12 11/11/11
f 5/5/5 12/12/12 8/8/8
f 12/12/12 13/13/13 11/11/11
f 11/11/11 13/13/13 14/14/14
f 15/15/15 12/12/12 5/5/5
f 13/13/13 12/12/12 15/15/15
f 16/16/16 5/5/5 7/7/7
f 16/16/16 15/15/15 5/5/5
f 16/16/16 7/7/7 17/17/17
f 16/16/16 17/17/17 15/15/15
f 7/7/7 18/18/18 17/17/17
f 17/17/17 19/19/19 15/15/15
f 15/15/15 19/19/19 20/20/20
f 20/20/20 13/13/13 15/15/15
f 19/19/19 21/21/21 20/20/20
f 20/20/20 21/21/21 22/22/22
f 20/20/20 22/22/22 13/13/13
f 21/21/21 23/23/23 22/22/22
f 13/13/13 24/24/24 14/14/14
f 22/22/22 24/24/24 13/13/13
f 25/25/25 14/14/14 24/24/24
f 25/25/25 24/24/24 22/22/22
f 26/26/26 25/25/25 22/22/22
f 26/26/26 22/22/22 23/23/23
f 27/27/27 26/26/26 23/23/23
f 30/30/30 29/29/29 28/28/28
f 29/29/29 31/31/31 28/28/28
f 28/28/28 31/31/31 32/32/32
f 33/33/33 28/28/28 32/32/32
f 33/33/33 32/32/32 34/34/34
f 35/35/35 31/31/31 29/29/29
f 32/32/32 31/31/31 35/35/35
f 36/36/36 35/35/35 29/29/29
f 36/36/36 37/37/37 35/35/35
f 37/37/37 38/38/38 35/35/35
f 39/39/39 35/35/35 38/38/38
f 39/39/39 32/32/32 35/35/35
f 40/40/40 39/39/39 38/38/38
f 40/40/40 38/38/38 41/41/41
f 39/39/39 42/42/42 32/32/32
f 39/39/39 40/40/40 42/42/42
f 32/32/32 43/43/43 34/34/34
f 42/42/42 43/43/43 32/32/32
f 34/34/34 43/43/43 44/44/44
f 44/44/44 43/43/43 42/42/42
f 45/45/45 34/34/34 44/44/44
f 46/46/46 44/44/44 42/42/42
f 46/46/46 42/42/42 47/47/47
f 40/40/40 47/47/47 42/42/42
f 48/48/48 46/46/46 47/47/47
f 48/48/48 47/47/47 49/49/49
f 49/49/49 47/47/47 40/40/40
f 50/50/50 48/48/48 49/49/49
f 51/51/51 40/40/40 41/41/41
f 51/51/51 49/49/49 40/40/40
f 41/41/41 52/52/52 51/51/51
f 51/51/51 52/52/52 49/49/49
f 52/52/52 53/53/53 49/49/49
f 49/49/49 53/53/53 50/50/50
f 53/53/53 54/54/54 50/50/50
