g pm0837_00_FeelerDSkin_rx
v -0.0219625 -0.643396 0.0199911
v -0.02201671 -0.6424915 0.01894199
v -0.0216091 -0.642603 0.0195733
v -0.02224987 -0.6433075 0.01955196
v -0.01978096 -0.6412137 -0.0223146
v -0.02386273 -0.647901 0.0199437
v -0.03495171 -0.6960354 0.004172587
v -0.02509398 -0.7566387 0.0236422
v -0.02408606 -0.7569567 0.02485402
v -0.0229876 -0.7582047 0.02435126
v -0.0247372 -0.7580183 0.02259452
v -0.03465696 -0.6973004 0.005749419
v -0.03515936 -0.6984694 0.004367463
v -0.02919959 -0.7543409 -0.01608492
v -0.02664348 -0.6925792 -0.02189184
v -0.02523753 -0.6918362 -0.02331484
v -0.02681973 -0.694763 -0.02175717
v -0.02805967 -0.7543738 -0.01714402
v -0.02554283 -0.6953589 -0.0232249
v 0.001643539 -0.7510628 -0.03261986
v -0.02575588 -0.6936737 -0.02289223
v 0.0008677305 -0.7137504 -0.03564411
v 0.003167474 -0.7513626 -0.03237886
v -0.02429454 -0.6937194 -0.02380932
v 0.0008125555 -0.7111822 -0.035617
v 0.002500651 -0.7136078 -0.03551314
v 0.0254363 -0.7554898 -0.01933668
v 0.004695369 -0.6808976 -0.03452115
v 0.001484821 -0.712671 -0.03583613
v 0.006678935 -0.6798676 -0.03431746
v 0.006021335 -0.6790529 -0.03464989
v 0.00457391 -0.6786955 -0.03433406
v -0.01965286 -0.6433287 -0.02360265
v 0.006061216 -0.6774864 -0.03445363
v 0.02022765 -0.6405272 -0.02310362
v 0.007036585 -0.6785039 -0.03414138
v 0.01962752 -0.6439852 -0.02360193
v 0.03265087 -0.6953717 -0.008826209
v 0.03281665 -0.6959529 -0.007881124
v 0.0325526 -0.6408612 -0.008102226
v 0.03137635 -0.6971437 -0.008693267
v 0.03268451 -0.6972433 -0.007571469
v 0.03307249 -0.6959683 -0.006865668
v 0.03505512 -0.6414014 0.009548257
v 0.03515936 -0.6418384 0.01098342
v 0.03219635 -0.6990532 -0.008289371
v 0.0263887 -0.755749 -0.01773052
v 0.03297453 -0.6968275 -0.006362699
v 0.03281446 -0.6989102 -0.006914909
v 0.03124597 -0.7005299 0.02070587
v 0.03103235 -0.7028976 0.01984224
v 0.02696912 -0.7575903 0.003217267
v 0.02630862 -0.7577555 0.00513609
v 0.01827191 -0.6423332 0.0286848
v 0.03484405 -0.6413329 0.01129809
v 0.03007143 -0.7028245 0.02099737
v 0.008524952 -0.7591478 0.02623815
v 0.02987362 -0.7006961 0.02148501
v -0.006195239 -0.7004017 0.03483433
v -0.0229876 -0.7582047 0.02435126
v -0.02408606 -0.7569567 0.02485402
v -0.004990703 -0.698145 0.03453186
v 0.01822078 -0.6450115 0.02980787
v -0.007356338 -0.700303 0.0357492
v -0.0219625 -0.643396 0.0199911
v -0.006169857 -0.6992587 0.03520058
v -0.006412775 -0.697726 0.03583612
v -0.02105355 -0.6424771 0.02014248
v -0.0216091 -0.642603 0.0195733
v -0.0216091 -0.642603 0.0195733
v -0.02201671 -0.6424915 0.01894199
v -0.02144793 -0.6419694 0.01908534
v -0.02105355 -0.6424771 0.02014248
v -0.01909784 -0.6405457 -0.02146536
v -0.01978096 -0.6412137 -0.0223146
v 0.01980696 -0.6398994 -0.02218408
v 0.02022765 -0.6405272 -0.02310362
v 0.03189817 -0.6401973 -0.007817168
v 0.0325526 -0.6408612 -0.008102226
v -0.02099205 -0.6419824 0.01967952
v 0.01827191 -0.6423332 0.0286848
v 0.03488469 -0.6407724 0.01040037
v 0.03505512 -0.6414014 0.009548257
v 0.03515936 -0.6418384 0.01098342
v 0.03484405 -0.6413329 0.01129809
v -0.02013114 -0.6419525 0.0192075
v 0.0180093 -0.6416354 0.02776044
v -0.02919959 -0.7543409 -0.01608492
v -0.0247372 -0.7580183 0.02259452
v -0.02344646 -0.759158 0.02307903
v -0.0229876 -0.7582047 0.02435126
v -0.02792042 -0.7555556 -0.01591978
v -0.02805967 -0.7543738 -0.01714402
v 0.001643539 -0.7510628 -0.03261986
v 0.008050755 -0.7601005 0.024965
v 0.008524952 -0.7591478 0.02623815
v 0.002204885 -0.7525973 -0.03163211
v 0.003167474 -0.7513626 -0.03237886
v 0.0254363 -0.7554898 -0.01933668
v 0.0258382 -0.7586759 0.003626712
v 0.02630862 -0.7577555 0.00513609
v 0.02696912 -0.7575903 0.003217267
v 0.02518921 -0.7566199 -0.01836951
v 0.0263887 -0.755749 -0.01773052
vt 0.8802999 0.9954123
vt 0.8787688 0.9961538
vt 0.8802999 0.9961538
vt 0.8793427 0.9952615
vt 0.846064 0.9961538
vt 0.8792125 0.9912393
vt 0.8604106 0.9527058
vt 0.8792061 0.9029559
vt 0.8802999 0.90292
vt 0.8802999 0.9009429
vt 0.8784692 0.9009429
vt 0.8615869 0.9517266
vt 0.8604543 0.9509342
vt 0.8489823 0.9009428
vt 0.84633 0.9541557
vt 0.8448524 0.9546433
vt 0.8465675 0.9525526
vt 0.8479511 0.9009428
vt 0.8450537 0.9521562
vt 0.8177862 0.9009429
vt 0.8452457 0.9535511
vt 0.8199203 0.9352366
vt 0.8166558 0.9009429
vt 0.8438491 0.9535493
vt 0.8205992 0.9377016
vt 0.81875 0.9351822
vt 0.7881216 0.9009428
vt 0.8210317 0.9631234
vt 0.819805 0.9362271
vt 0.8199105 0.9632367
vt 0.8204055 0.9642018
vt 0.8215333 0.9646999
vt 0.8453116 0.9944736
vt 0.8203601 0.9653791
vt 0.811147 0.9961538
vt 0.8196212 0.9644036
vt 0.8103733 0.9931187
vt 0.7892588 0.9522995
vt 0.7884833 0.9518748
vt 0.7963196 0.9961538
vt 0.7893202 0.9509479
vt 0.7881529 0.950775
vt 0.7877464 0.9515844
vt 0.7815229 0.9961538
vt 0.7807086 0.9961538
vt 0.7883313 0.9493642
vt 0.7867486 0.9009428
vt 0.7873787 0.9507762
vt 0.7873893 0.9490088
vt 0.7659272 0.9487962
vt 0.7662333 0.9467064
vt 0.7695283 0.9009428
vt 0.7684371 0.9009428
vt 0.7549798 0.9961538
vt 0.7804064 0.9961538
vt 0.7649798 0.9467176
vt 0.7452095 0.9009429
vt 0.7646663 0.9485808
vt 0.737042 0.9456797
vt 0.7204829 0.9009428
vt 0.719017 0.9009428
vt 0.7380775 0.9476777
vt 0.754792 0.9937267
vt 0.7359762 0.9458284
vt 0.7190557 0.9951752
vt 0.7369933 0.9466818
vt 0.7365748 0.9479889
vt 0.7204543 0.9961538
vt 0.7190557 0.9961538
vt 0.6743746 0.9542235
vt 0.6741247 0.9545143
vt 0.6746119 0.9551744
vt 0.6748714 0.9538778
vt 0.6684605 0.9864362
vt 0.6678581 0.9871241
vt 0.6952749 0.9936399
vt 0.6952564 0.9946142
vt 0.7063243 0.9847052
vt 0.7071091 0.984911
vt 0.6748843 0.9545913
vt 0.7040508 0.9538778
vt 0.7127376 0.9702583
vt 0.7126952 0.9709374
vt 0.7130013 0.9699329
vt 0.7128396 0.9696355
vt 0.6754766 0.9553652
vt 0.7031656 0.9547472
vt 0.7116491 0.9320154
vt 0.7068623 0.9047937
vt 0.7058511 0.9046706
vt 0.7054969 0.9035409
vt 0.7106968 0.9319496
vt 0.710781 0.9328735
vt 0.6893837 0.9449604
vt 0.6824077 0.9045227
vt 0.6820077 0.9036408
vt 0.6889658 0.9442045
vt 0.6882436 0.9448505
vt 0.6713829 0.9364836
vt 0.6700332 0.9203283
vt 0.6696268 0.9192794
vt 0.6692104 0.9206631
vt 0.6702164 0.934633
vt 0.6693974 0.9353901
vn -0.5652156 0.07514131 0.8215139
vn -0.965018 0.2584585 -0.04403913
vn -0.6463984 0.5623386 0.515698
vn -0.9682501 0.2461914 -0.04337699
vn -0.8112713 0.3313458 -0.4817143
vn -0.7745849 0.08744442 0.6263958
vn -0.971133 0.1887078 -0.1459115
vn -0.7821166 -0.005212605 0.6231104
vn -0.3994584 -0.03369362 0.916132
vn -0.0386808 -0.2151349 0.975818
vn -0.9757217 -0.1949263 0.09985482
vn -0.8606344 0.03051889 0.5083079
vn -0.991206 -0.05387247 -0.1208653
vn -0.9898115 -0.1380472 -0.03487331
vn -0.9448969 0.1189528 -0.3049918
vn -0.4480684 0.04939746 -0.8926336
vn -0.9370506 0.008459569 -0.3490913
vn -0.4814658 -0.1104574 -0.8694767
vn -0.5055786 -0.06206954 -0.860545
vn -0.4196723 -0.1080818 -0.9012178
vn -0.6747092 0.03836203 -0.7370861
vn -0.4298161 -0.07757442 -0.8995779
vn 0.4590557 -0.1089759 -0.8816984
vn -0.3860189 0.06266714 -0.9203598
vn -0.3664211 0.06230736 -0.9283605
vn 0.5035548 -0.04194319 -0.8629445
vn 0.6533892 -0.03985494 -0.7559724
vn -0.3525905 0.07469953 -0.9327915
vn 0.2421466 -0.001358628 -0.9702387
vn 0.6717492 0.001857162 -0.7407764
vn 0.1581442 0.02006518 -0.9872121
vn -0.3289683 0.06405937 -0.9421657
vn -0.4186021 0.1115352 -0.9012948
vn 0.007173418 0.2958731 -0.9552003
vn 0.3494097 0.2293635 -0.9084632
vn 0.6794224 -0.04764301 -0.732199
vn 0.7229521 -0.01221859 -0.6907901
vn 0.7139376 -0.04995287 -0.6984252
vn 0.9670021 0.007188797 -0.2546671
vn 0.9104421 0.02403283 -0.4129378
vn 0.727419 0.03715837 -0.6851867
vn 0.8692293 -0.1157099 -0.4806783
vn 0.9915345 0.0009077788 -0.1298404
vn 0.9910951 0.02818787 -0.1301388
vn 0.8198935 0.04174078 0.5709924
vn 0.7418404 0.04605865 -0.6689929
vn 0.9934335 -0.1118279 -0.02417564
vn 0.9969006 -0.0597893 0.05113399
vn 0.995593 -0.09324276 -0.01002103
vn 0.968789 -0.02688187 0.2464249
vn 0.9930614 -0.1058762 0.05117858
vn 0.9923055 -0.1190364 0.03406024
vn 0.5642905 -0.1546884 0.8109548
vn 0.2153074 0.1935179 0.9571799
vn 0.7192334 0.08809376 0.6891609
vn 0.5467386 -0.1310871 0.8269783
vn 0.3876564 -0.1601191 0.9077909
vn 0.3886076 -0.06096125 0.9193844
vn 0.4373836 -0.1432586 0.8877909
vn -0.0386808 -0.2151349 0.975818
vn -0.3994584 -0.03369362 0.916132
vn 0.3658527 -0.08146502 0.9271005
vn 0.3671434 0.004281997 0.9301546
vn -0.6113423 0.03271509 0.7906898
vn -0.5652156 0.07514131 0.8215139
vn 0.60619 -0.2361066 0.7594652
vn -0.1863913 0.1779861 0.966219
vn -0.2189117 0.232918 0.9475372
vn -0.6463984 0.5623386 0.515698
vn -0.6463984 0.5623386 0.515698
vn -0.965018 0.2584585 -0.04403913
vn -0.06134779 0.9976013 0.03206432
vn -0.2189117 0.232918 0.9475372
vn -0.05495716 0.998459 -0.007695497
vn -0.8112713 0.3313458 -0.4817143
vn -0.003959537 0.9999367 -0.01053542
vn 0.3494097 0.2293635 -0.9084632
vn 0.01124525 0.9997051 0.02151775
vn 0.9104421 0.02403283 -0.4129378
vn -0.1386411 0.8014221 0.5818085
vn 0.2153074 0.1935179 0.9571799
vn 0.001400947 0.999163 0.04088139
vn 0.9910951 0.02818787 -0.1301388
vn 0.8198935 0.04174078 0.5709924
vn 0.7192334 0.08809376 0.6891609
vn -0.01596695 0.9992888 0.03416013
vn -0.00359869 0.9948177 0.1016114
vn -0.9898115 -0.1380472 -0.03487331
vn -0.9757217 -0.1949263 0.09985482
vn -0.07034606 -0.9964281 -0.04671621
vn -0.0386808 -0.2151349 0.975818
vn -0.04581636 -0.9886263 -0.1432438
vn -0.4814658 -0.1104574 -0.8694767
vn -0.4196723 -0.1080818 -0.9012178
vn 0.00538385 -0.9985992 -0.05263735
vn 0.3876564 -0.1601191 0.9077909
vn -0.009649574 -0.9819755 -0.1887621
vn 0.4590557 -0.1089759 -0.8816984
vn 0.6533892 -0.03985494 -0.7559724
vn -0.03028095 -0.9942953 -0.1022737
vn 0.5642905 -0.1546884 0.8109548
vn 0.9923055 -0.1190364 0.03406024
vn -0.03883892 -0.9882367 -0.1479179
vn 0.9934335 -0.1118279 -0.02417564
g pm0837_00_FeelerDSkin_rx_0
f 3/3/3 2/2/2 1/1/1
f 2/2/2 4/4/4 1/1/1
f 4/4/4 2/2/2 5/5/5
f 4/4/4 6/6/6 1/1/1
f 7/7/7 4/4/4 5/5/5
f 4/4/4 7/7/7 6/6/6
f 1/1/1 6/6/6 8/8/8
f 9/9/9 1/1/1 8/8/8
f 8/8/8 10/10/10 9/9/9
f 11/11/11 10/10/10 8/8/8
f 12/12/12 8/8/8 6/6/6
f 8/8/8 12/12/12 11/11/11
f 7/7/7 12/12/12 6/6/6
f 12/12/12 13/13/13 11/11/11
f 12/12/12 7/7/7 13/13/13
f 11/11/11 13/13/13 14/14/14
f 13/13/13 7/7/7 15/15/15
f 15/15/15 7/7/7 5/5/5
f 15/15/15 5/5/5 16/16/16
f 17/17/17 14/14/14 13/13/13
f 17/17/17 13/13/13 15/15/15
f 17/17/17 15/15/15 16/16/16
f 14/14/14 17/17/17 18/18/18
f 17/17/17 19/19/19 18/18/18
f 18/18/18 19/19/19 20/20/20
f 21/21/21 17/17/17 16/16/16
f 17/17/17 21/21/21 19/19/19
f 22/22/22 20/20/20 19/19/19
f 20/20/20 22/22/22 23/23/23
f 21/21/21 24/24/24 19/19/19
f 21/21/21 16/16/16 24/24/24
f 19/19/19 24/24/24 25/25/25
f 22/22/22 19/19/19 25/25/25
f 22/22/22 26/26/26 23/23/23
f 27/27/27 23/23/23 26/26/26
f 25/25/25 24/24/24 28/28/28
f 28/28/28 24/24/24 16/16/16
f 22/22/22 25/25/25 29/29/29
f 26/26/26 22/22/22 29/29/29
f 29/29/29 25/25/25 28/28/28
f 26/26/26 29/29/29 30/30/30
f 30/30/30 27/27/27 26/26/26
f 31/31/31 29/29/29 28/28/28
f 29/29/29 31/31/31 30/30/30
f 32/32/32 28/28/28 16/16/16
f 28/28/28 32/32/32 31/31/31
f 32/32/32 16/16/16 33/33/33
f 5/5/5 33/33/33 16/16/16
f 34/34/34 32/32/32 33/33/33
f 5/5/5 34/34/34 33/33/33
f 32/32/32 34/34/34 31/31/31
f 34/34/34 5/5/5 35/35/35
f 34/34/34 36/36/36 31/31/31
f 36/36/36 30/30/30 31/31/31
f 37/37/37 34/34/34 35/35/35
f 37/37/37 36/36/36 34/34/34
f 30/30/30 36/36/36 38/38/38
f 38/38/38 36/36/36 37/37/37
f 35/35/35 39/39/39 37/37/37
f 39/39/39 38/38/38 37/37/37
f 40/40/40 39/39/39 35/35/35
f 30/30/30 41/41/41 27/27/27
f 41/41/41 30/30/30 38/38/38
f 39/39/39 42/42/42 38/38/38
f 41/41/41 38/38/38 42/42/42
f 43/43/43 39/39/39 40/40/40
f 39/39/39 43/43/43 42/42/42
f 44/44/44 43/43/43 40/40/40
f 43/43/43 44/44/44 45/45/45
f 41/41/41 46/46/46 27/27/27
f 46/46/46 41/41/41 42/42/42
f 27/27/27 46/46/46 47/47/47
f 42/42/42 43/43/43 48/48/48
f 48/48/48 43/43/43 45/45/45
f 49/49/49 46/46/46 42/42/42
f 46/46/46 49/49/49 47/47/47
f 48/48/48 49/49/49 42/42/42
f 48/48/48 45/45/45 50/50/50
f 48/48/48 50/50/50 49/49/49
f 49/49/49 51/51/51 47/47/47
f 50/50/50 51/51/51 49/49/49
f 51/51/51 52/52/52 47/47/47
f 52/52/52 51/51/51 53/53/53
f 54/54/54 50/50/50 45/45/45
f 55/55/55 54/54/54 45/45/45
f 51/51/51 56/56/56 53/53/53
f 53/53/53 56/56/56 57/57/57
f 51/51/51 50/50/50 58/58/58
f 58/58/58 50/50/50 54/54/54
f 56/56/56 51/51/51 58/58/58
f 56/56/56 59/59/59 57/57/57
f 60/60/60 57/57/57 59/59/59
f 60/60/60 59/59/59 61/61/61
f 56/56/56 58/58/58 62/62/62
f 59/59/59 56/56/56 62/62/62
f 63/63/63 58/58/58 54/54/54
f 62/62/62 58/58/58 63/63/63
f 54/54/54 62/62/62 63/63/63
f 59/59/59 64/64/64 61/61/61
f 65/65/65 61/61/61 64/64/64
f 59/59/59 62/62/62 66/66/66
f 64/64/64 59/59/59 66/66/66
f 62/62/62 54/54/54 67/67/67
f 62/62/62 67/67/67 66/66/66
f 66/66/66 67/67/67 64/64/64
f 68/68/68 67/67/67 54/54/54
f 67/67/67 68/68/68 64/64/64
f 68/68/68 65/65/65 64/64/64
f 69/69/69 65/65/65 68/68/68
f 72/72/72 71/71/71 70/70/70
f 72/72/72 70/70/70 73/73/73
f 71/71/71 72/72/72 74/74/74
f 75/75/75 71/71/71 74/74/74
f 74/74/74 76/76/76 75/75/75
f 72/72/72 76/76/76 74/74/74
f 76/76/76 77/77/77 75/75/75
f 77/77/77 76/76/76 78/78/78
f 72/72/72 78/78/78 76/76/76
f 79/79/79 77/77/77 78/78/78
f 80/80/80 72/72/72 73/73/73
f 80/80/80 73/73/73 81/81/81
f 78/78/78 82/82/82 79/79/79
f 82/82/82 83/83/83 79/79/79
f 84/84/84 83/83/83 82/82/82
f 85/85/85 84/84/84 82/82/82
f 86/86/86 78/78/78 72/72/72
f 80/80/80 86/86/86 72/72/72
f 86/86/86 82/82/82 78/78/78
f 87/87/87 80/80/80 81/81/81
f 81/81/81 85/85/85 87/87/87
f 85/85/85 82/82/82 87/87/87
f 87/87/87 86/86/86 80/80/80
f 82/82/82 86/86/86 87/87/87
f 90/90/90 89/89/89 88/88/88
f 90/90/90 91/91/91 89/89/89
f 92/92/92 90/90/90 88/88/88
f 93/93/93 92/92/92 88/88/88
f 92/92/92 93/93/93 94/94/94
f 91/91/91 90/90/90 95/95/95
f 92/92/92 95/95/95 90/90/90
f 96/96/96 91/91/91 95/95/95
f 97/97/97 92/92/92 94/94/94
f 97/97/97 95/95/95 92/92/92
f 94/94/94 98/98/98 97/97/97
f 98/98/98 99/99/99 97/97/97
f 96/96/96 95/95/95 100/100/100
f 97/97/97 100/100/100 95/95/95
f 101/101/101 96/96/96 100/100/100
f 101/101/101 100/100/100 102/102/102
f 99/99/99 103/103/103 97/97/97
f 103/103/103 100/100/100 97/97/97
f 100/100/100 103/103/103 102/102/102
f 104/104/104 103/103/103 99/99/99
f 103/103/103 104/104/104 102/102/102
