g pm0877_11_CheekSkin
v 0.04169129 0.2228536 0.08958594
v 0.02123737 0.2243444 0.09553752
v 0.02036244 0.2443438 0.0826424
v 0.03907725 0.2428664 0.07766092
v 0.01933704 0.2610185 0.06867864
v 0.03645049 0.2592226 0.06452584
v 0.05098853 0.2561476 0.05792947
v 0.05534192 0.2400727 0.06897131
v 0.0641076 0.2526765 0.04888109
v 0.06849591 0.2367263 0.05718798
v 0.07398648 0.249679 0.03672555
v 0.07917625 0.2331384 0.04302606
v 0.05893981 0.2202809 0.07866035
v 0.07270274 0.2170025 0.06445292
v 0.08300295 0.2132213 0.04858667
v 0.05981425 0.2022142 0.0836074
v 0.04233135 0.2045332 0.09485621
v 0.04225913 0.1913025 0.09661199
v 0.07432173 0.1994419 0.06840821
v 0.08455295 0.1958689 0.05173871
v 0.0600451 0.1893253 0.08523958
v 0.04147649 0.1777167 0.09527662
v 0.05954178 0.1760508 0.08443352
v 0.07461517 0.1868055 0.06980884
v 0.08475225 0.183789 0.05323051
v 0.07424322 0.1737909 0.06969396
v 0.08455803 0.1714107 0.05404721
v -0.04169129 0.2228537 0.08958592
v -0.02036241 0.2443439 0.08264232
v -0.02123737 0.2243444 0.09553752
v -0.0390773 0.2428665 0.07766084
v -0.01933704 0.2610185 0.06867864
v -0.03645034 0.2592226 0.06452589
v -0.05098858 0.2561476 0.05792945
v -0.05534194 0.2400729 0.06897116
v -0.06410762 0.2526765 0.04888107
v -0.06846344 0.2367818 0.05718835
v -0.07398648 0.249679 0.03672555
v -0.07917628 0.2331384 0.04302606
v -0.05891984 0.2203069 0.07866595
v -0.07268416 0.2170335 0.06446339
v -0.08300295 0.2132213 0.04858667
v -0.05981494 0.2022127 0.08360713
v -0.04233134 0.2045332 0.09485622
v -0.07432035 0.1994458 0.06840915
v -0.08455295 0.1958689 0.05173871
v -0.08475225 0.183789 0.05323051
v -0.07460063 0.1868493 0.06982667
v -0.08455803 0.1714107 0.05404721
v -0.07424324 0.1737909 0.06969392
v -0.06002668 0.1893599 0.08525455
v -0.04225915 0.1913025 0.09661199
v -0.05954179 0.1760508 0.0844335
v -0.04147649 0.1777167 0.09527662
vt 0.1390771 -0.1309001
vt 0.0390625 -0.1327399
vt 0.0390625 -0.07564318
vt 0.1351803 -0.07474875
vt 0.0390625 -0.01953125
vt 0.1346011 -0.02020121
vt 0.2219269 -0.02183855
vt 0.2277272 -0.07367837
vt 0.3091219 -0.02235329
vt 0.3186692 -0.0705893
vt 0.3935265 -0.01745152
vt 0.4129648 -0.0656544
vt 0.2351789 -0.1279685
vt 0.3328484 -0.1244903
vt 0.4325438 -0.1205688
vt 0.2400236 -0.17234
vt 0.1433619 -0.1743071
vt 0.1473511 -0.2039932
vt 0.3427555 -0.1695056
vt 0.446044 -0.1673683
vt 0.2451813 -0.2026944
vt 0.1537304 -0.234375
vt 0.2530777 -0.234375
vt 0.3496588 -0.2012542
vt 0.45302 -0.2003455
vt 0.3584298 -0.234375
vt 0.4591156 -0.234375
vt 0.1390772 -0.1309001
vt 0.0390625 -0.07564318
vt 0.0390625 -0.1327399
vt 0.1351804 -0.07474875
vt 0.0390625 -0.01953125
vt 0.1346011 -0.02020121
vt 0.2219269 -0.02183855
vt 0.2277273 -0.07367837
vt 0.3091219 -0.02235329
vt 0.3186693 -0.0705893
vt 0.3935265 -0.01745152
vt 0.4129648 -0.0656544
vt 0.235179 -0.1279685
vt 0.3328484 -0.1244903
vt 0.4325438 -0.1205688
vt 0.2400237 -0.17234
vt 0.1433619 -0.1743071
vt 0.3427556 -0.1695056
vt 0.446044 -0.1673683
vt 0.45302 -0.2003455
vt 0.3496588 -0.2012542
vt 0.4591156 -0.234375
vt 0.3584298 -0.234375
vt 0.2451813 -0.2026944
vt 0.1473511 -0.2039932
vt 0.2530777 -0.234375
vt 0.1537304 -0.234375
vn 0.4029781 0.3921416 0.8269423
vn 0.1900805 0.4185689 0.8880706
vn 0.1760612 0.5758182 0.7983959
vn 0.3674343 0.5475804 0.751763
vn 0.1616654 0.673279 0.7214983
vn 0.3288388 0.6443506 0.6904181
vn 0.5053346 0.5890599 0.6305913
vn 0.5633578 0.4900235 0.6652104
vn 0.6694692 0.5204632 0.5300275
vn 0.7231718 0.4174031 0.55027
vn 0.8071268 0.4607836 0.3690862
vn 0.8482826 0.3490581 0.3982148
vn 0.6131689 0.343654 0.7112846
vn 0.7685127 0.2873718 0.5716693
vn 0.8778948 0.2351767 0.4171241
vn 0.6343974 0.1806482 0.7516024
vn 0.4175018 0.2014823 0.8860571
vn 0.4054179 0.009298839 0.9140842
vn 0.7886719 0.1547786 0.5950128
vn 0.8907831 0.130432 0.4353077
vn 0.6259227 0.02141476 0.779591
vn 0.3749748 -0.1226449 0.9188864
vn 0.6002807 -0.08711531 0.7950308
vn 0.7837763 0.03513186 0.6200486
vn 0.886952 0.04740816 0.4594223
vn 0.7652969 -0.03705784 0.6426099
vn 0.87616 0.004669535 0.4819977
vn -0.4029784 0.3921415 0.8269423
vn -0.1760611 0.5758182 0.7983958
vn -0.1900803 0.4185689 0.8880706
vn -0.3674344 0.5475804 0.751763
vn -0.1616653 0.673279 0.7214981
vn -0.3288387 0.6443507 0.6904181
vn -0.5053346 0.5890599 0.6305912
vn -0.5633575 0.4900234 0.6652109
vn -0.6694692 0.5204631 0.5300276
vn -0.723165 0.4174181 0.5502676
vn -0.8071268 0.4607836 0.3690863
vn -0.8482826 0.3490581 0.3982149
vn -0.6131691 0.343654 0.7112845
vn -0.7685126 0.2873718 0.5716693
vn -0.8778949 0.2351767 0.417124
vn -0.6343976 0.1806482 0.7516022
vn -0.4175019 0.2014824 0.886057
vn -0.7886717 0.1547786 0.5950131
vn -0.8907832 0.1304319 0.4353076
vn -0.8869519 0.04740804 0.4594224
vn -0.7837763 0.03513186 0.6200486
vn -0.8761601 0.004669535 0.4819976
vn -0.7652968 -0.03705771 0.64261
vn -0.625923 0.02141476 0.7795908
vn -0.4054179 0.009298839 0.9140842
vn -0.6002808 -0.0871153 0.7950307
vn -0.3749748 -0.1226449 0.9188864
g pm0877_11_CheekSkin_0
f 3/3/3 2/2/2 1/1/1
f 4/4/4 3/3/3 1/1/1
f 5/5/5 3/3/3 4/4/4
f 6/6/6 5/5/5 4/4/4
f 6/6/6 4/4/4 7/7/7
f 4/4/4 8/8/8 7/7/7
f 8/8/8 4/4/4 1/1/1
f 9/9/9 7/7/7 8/8/8
f 10/10/10 9/9/9 8/8/8
f 9/9/9 10/10/10 11/11/11
f 10/10/10 12/12/12 11/11/11
f 13/13/13 8/8/8 1/1/1
f 8/8/8 13/13/13 10/10/10
f 10/10/10 14/14/14 12/12/12
f 13/13/13 14/14/14 10/10/10
f 14/14/14 15/15/15 12/12/12
f 13/13/13 1/1/1 16/16/16
f 13/13/13 16/16/16 14/14/14
f 1/1/1 17/17/17 16/16/16
f 16/16/16 17/17/17 18/18/18
f 14/14/14 19/19/19 15/15/15
f 16/16/16 19/19/19 14/14/14
f 19/19/19 20/20/20 15/15/15
f 21/21/21 16/16/16 18/18/18
f 19/19/19 16/16/16 21/21/21
f 21/21/21 18/18/18 22/22/22
f 23/23/23 21/21/21 22/22/22
f 20/20/20 19/19/19 24/24/24
f 24/24/24 19/19/19 21/21/21
f 24/24/24 21/21/21 23/23/23
f 25/25/25 20/20/20 24/24/24
f 26/26/26 24/24/24 23/23/23
f 25/25/25 24/24/24 26/26/26
f 27/27/27 25/25/25 26/26/26
f 30/30/30 29/29/29 28/28/28
f 29/29/29 31/31/31 28/28/28
f 29/29/29 32/32/32 31/31/31
f 32/32/32 33/33/33 31/31/31
f 31/31/31 33/33/33 34/34/34
f 35/35/35 31/31/31 34/34/34
f 31/31/31 35/35/35 28/28/28
f 34/34/34 36/36/36 35/35/35
f 36/36/36 37/37/37 35/35/35
f 37/37/37 36/36/36 38/38/38
f 39/39/39 37/37/37 38/38/38
f 35/35/35 40/40/40 28/28/28
f 40/40/40 35/35/35 37/37/37
f 41/41/41 37/37/37 39/39/39
f 41/41/41 40/40/40 37/37/37
f 42/42/42 41/41/41 39/39/39
f 28/28/28 40/40/40 43/43/43
f 43/43/43 40/40/40 41/41/41
f 44/44/44 28/28/28 43/43/43
f 45/45/45 41/41/41 42/42/42
f 45/45/45 43/43/43 41/41/41
f 46/46/46 45/45/45 42/42/42
f 45/45/45 46/46/46 47/47/47
f 48/48/48 45/45/45 47/47/47
f 43/43/43 45/45/45 48/48/48
f 48/48/48 47/47/47 49/49/49
f 50/50/50 48/48/48 49/49/49
f 44/44/44 43/43/43 51/51/51
f 51/51/51 43/43/43 48/48/48
f 51/51/51 48/48/48 50/50/50
f 52/52/52 44/44/44 51/51/51
f 53/53/53 51/51/51 50/50/50
f 52/52/52 51/51/51 53/53/53
f 54/54/54 52/52/52 53/53/53
