g pm0818_81_ROpenEyelidSkin_rx
v -0.020738874 3.313554 -0.26595086
v -0.019872047 3.310282 -0.26794213
v -0.023112664 3.3105595 -0.27069113
v -0.026612183 3.3038127 -0.27940565
v -0.017339343 3.3032634 -0.2776
v -0.016459383 3.297996 -0.28262877
v -0.028642787 3.2989366 -0.28385255
v -0.016175749 3.293109 -0.28607127
v -0.030342218 3.2936945 -0.2875737
v -0.016493473 3.2859874 -0.28866938
v -0.032133583 3.2875824 -0.29112324
v -0.03385658 3.2803533 -0.29150647
v -0.018298795 3.279317 -0.2884058
v -0.020847961 3.2729852 -0.28697464
v -0.03547833 3.2723467 -0.28944498
v -0.036367457 3.2648077 -0.28637695
v -0.02445297 3.2656653 -0.28425756
v -0.03633384 3.2584581 -0.2826516
v -0.027590133 3.260691 -0.28116566
v -0.030579783 3.2562573 -0.27900556
v -0.035525303 3.2546008 -0.27971762
v -0.0339647 3.2516894 -0.27714202
v -0.023112664 3.3105595 -0.27069113
v -0.026612183 3.3038127 -0.27940565
v -0.026513867 3.3037932 -0.28103125
v -0.028642787 3.2989366 -0.28385255
v -0.022969702 3.3107262 -0.2722971
v -0.020738874 3.313554 -0.26595086
v -0.028545529 3.2990904 -0.285395
v -0.030342218 3.2936945 -0.2875737
v -0.021842899 3.3124034 -0.26913047
v -0.019761952 3.3124504 -0.27160785
v -0.0212983 3.311052 -0.27417505
v -0.018686261 3.310548 -0.27767754
v -0.025437426 3.3039703 -0.2828292
v -0.030229792 3.2939763 -0.28918353
v -0.032133583 3.2875824 -0.29112324
v -0.02294785 3.3093944 -0.2760814
v -0.021098282 3.308886 -0.27927157
v -0.027008059 3.2995129 -0.28748912
v -0.023207318 3.3047588 -0.2842228
v -0.022727083 3.3078125 -0.27966535
v -0.020787725 3.305578 -0.28481454
v -0.017948132 3.3063672 -0.28460184
v -0.023928864 3.3001482 -0.289718
v -0.020523293 3.3006315 -0.29103023
v -0.017209595 3.3008037 -0.29155982
v -0.02867308 3.2941272 -0.2917553
v -0.025298277 3.2944689 -0.29490682
v -0.020526625 3.2946863 -0.2971754
v -0.016915536 3.2948194 -0.29771164
v -0.03205226 3.2877324 -0.29275832
v -0.030427746 3.2879229 -0.29549435
v -0.020938603 3.288156 -0.30225122
v -0.017053945 3.2881365 -0.30298892
v -0.017882606 3.279986 -0.30738705
v -0.026923848 3.2882318 -0.29908985
v -0.021962892 3.2804472 -0.30601835
v -0.019666698 3.271928 -0.3085838
v -0.03385959 3.2804773 -0.29336125
v -0.03385658 3.2803533 -0.29150647
v -0.03547833 3.2723467 -0.28944498
v -0.032111414 3.2807798 -0.2971954
v -0.028497063 3.2809136 -0.3019375
v -0.023616156 3.273034 -0.30717155
v -0.035463482 3.272567 -0.2913689
v -0.033817258 3.2733586 -0.29712838
v -0.036387246 3.2651434 -0.28830615
v -0.036367457 3.2648077 -0.28637695
v -0.03633384 3.2584581 -0.2826516
v -0.034554966 3.2662327 -0.29530588
v -0.029936872 3.2738073 -0.3029089
v -0.030880036 3.2668993 -0.3021382
v -0.025533464 3.2662628 -0.30613768
v -0.02193474 3.2654223 -0.30750567
v -0.036252983 3.2584326 -0.28471765
v -0.03473875 3.2599347 -0.29219046
v -0.027760735 3.261407 -0.3035778
v -0.02454071 3.2598174 -0.30440325
v -0.031393744 3.2611444 -0.29926604
v -0.029920658 3.258147 -0.29996723
v -0.02687017 3.2562132 -0.3004052
v -0.029508416 3.2533507 -0.2941516
v -0.031578563 3.2564397 -0.295893
v -0.033830043 3.254588 -0.28855076
v -0.032304335 3.251767 -0.28627938
v -0.03523387 3.2542796 -0.28194863
v -0.03370158 3.2513988 -0.27965763
v -0.035525303 3.2546008 -0.27971762
v -0.0339647 3.2516894 -0.27714202
vt 0.375 0.1875
vt 0.3718562 0.18476069
vt 0.3701318 0.19116044
vt 0.36072862 0.19780493
vt 0.36152464 0.181157
vt 0.3551665 0.17911357
vt 0.35483313 0.20115662
vt 0.3498487 0.17788172
vt 0.34903795 0.20391643
vt 0.34283113 0.17716104
vt 0.34253204 0.20666742
vt 0.3362201 0.20671284
vt 0.33622003 0.17870772
vt 0.33105165 0.18062341
vt 0.32807028 0.20450449
vt 0.32107186 0.2010464
vt 0.32422513 0.18209493
vt 0.31522077 0.19662166
vt 0.31868458 0.18308187
vt 0.31375957 0.1848135
vt 0.31159198 0.19274879
vt 0.30860078 0.18835938
vt 0.3109888 0.56069803
vt 0.30213487 0.5688987
vt 0.30151078 0.5714957
vt 0.29623938 0.57225037
vt 0.31100732 0.5647967
vt 0.31640625 0.55859375
vt 0.2958696 0.5749204
vt 0.2904442 0.5750102
vt 0.31384784 0.56190443
vt 0.31395423 0.56749475
vt 0.31118673 0.5691345
vt 0.31067866 0.576681
vt 0.30138165 0.5751878
vt 0.29026422 0.5779942
vt 0.2839383 0.5777612
vt 0.3086028 0.5696794
vt 0.30781466 0.57584363
vt 0.29605108 0.57956886
vt 0.302319 0.5796407
vt 0.30624795 0.5744559
vt 0.30370075 0.58324623
vt 0.30566376 0.58652914
vt 0.29698437 0.58611166
vt 0.2983526 0.5919864
vt 0.2998749 0.5970622
vt 0.29019234 0.58350426
vt 0.29076505 0.59175944
vt 0.2921613 0.60085905
vt 0.29376215 0.6067496
vt 0.2838319 0.5809823
vt 0.28392214 0.5870026
vt 0.28541684 0.6079278
vt 0.28667295 0.6150092
vt 0.27762634 0.61955684
vt 0.28437924 0.5959868
vt 0.27762628 0.6119168
vt 0.2709692 0.6188818
vt 0.27762628 0.5811893
vt 0.27762634 0.5778066
vt 0.26947653 0.57559824
vt 0.27762628 0.5886438
vt 0.27762628 0.59878916
vt 0.271456 0.611902
vt 0.26985615 0.57874
vt 0.27095324 0.5883893
vt 0.26302493 0.5752024
vt 0.2624781 0.57214016
vt 0.25662702 0.5677154
vt 0.26478237 0.5866246
vt 0.2716061 0.59953237
vt 0.26593173 0.59885126
vt 0.26581615 0.60969806
vt 0.26536864 0.6162187
vt 0.25691187 0.57104903
vt 0.25913107 0.58315825
vt 0.26148653 0.6049731
vt 0.25995374 0.610631
vt 0.26088047 0.5957083
vt 0.25837627 0.59860146
vt 0.2560925 0.60317135
vt 0.25274593 0.5915401
vt 0.2564122 0.5916642
vt 0.25391376 0.5790612
vt 0.2505721 0.57678115
vt 0.25293392 0.56761074
vt 0.2497288 0.5643518
vt 0.25299823 0.56384254
vt 0.25000703 0.5594531
vn -0.88809174 0.23980923 0.39215398
vn -0.47884783 -0.59273666 0.6475863
vn -0.6623766 -0.43838647 0.6075151
vn -0.50036645 -0.5413938 0.67566717
vn -0.2640513 -0.6743123 0.68962294
vn -0.18671802 -0.58990496 0.785588
vn -0.4262429 -0.4754379 0.76959455
vn -0.17907241 -0.4306035 0.8845981
vn -0.41887143 -0.32125077 0.8493201
vn -0.20225511 -0.1668947 0.9650073
vn -0.44674832 -0.06100867 0.8925772
vn -0.45694798 0.1942025 0.8680345
vn -0.21369615 0.12436076 0.96895224
vn -0.21879224 0.31780642 0.92256653
vn -0.46370146 0.33928847 0.81845236
vn -0.50229704 0.40841615 0.762164
vn -0.24305259 0.43925372 0.86485934
vn -0.5858761 0.40360567 0.70274585
vn -0.30400667 0.5066997 0.8067437
vn -0.46951783 0.43763244 0.7668317
vn -0.71044844 0.26722273 0.6510415
vn -0.7960814 0.12101793 0.59296614
vn -0.6623766 -0.43838647 0.6075151
vn -0.50036645 -0.5413938 0.67566717
vn -0.8495045 0.5136192 -0.120571524
vn -0.4262429 -0.4754379 0.76959455
vn -0.7946516 0.6005137 -0.08895026
vn -0.88809174 0.23980923 0.39215398
vn -0.87342995 0.46088472 -0.15717955
vn -0.41887143 -0.32125077 0.8493201
vn -0.6507999 0.7523335 -0.10224392
vn -0.4718399 0.85328865 -0.22195864
vn -0.4336144 0.8452768 -0.31222686
vn -0.2857353 0.85604775 -0.43074068
vn -0.6188592 0.6824554 -0.38893187
vn -0.8977215 0.4063061 -0.17032729
vn -0.44674832 -0.06100867 0.8925772
vn -0.57825446 0.74824977 -0.32518318
vn -0.33368257 0.82830226 -0.4500792
vn -0.63300997 0.62342024 -0.4589614
vn -0.45617536 0.73350054 -0.503866
vn -0.46935517 0.7709414 -0.43052885
vn -0.28875974 0.7776294 -0.5584894
vn -0.21204284 0.79842484 -0.5635207
vn -0.45018628 0.67963237 -0.5791649
vn -0.2742654 0.7163428 -0.64158505
vn -0.17889616 0.73092496 -0.65859306
vn -0.67269003 0.5435773 -0.5020078
vn -0.4779978 0.6004452 -0.6410801
vn -0.29147756 0.63413143 -0.71618307
vn -0.18115865 0.647064 -0.740601
vn -0.9274699 0.3373361 -0.16125767
vn -0.74396694 0.41723192 -0.52194905
vn -0.34108344 0.50657856 -0.79185873
vn -0.21940666 0.5188889 -0.82620513
vn -0.28432032 0.33275732 -0.8991298
vn -0.5413812 0.47346655 -0.69479185
vn -0.41068995 0.33114415 -0.8495159
vn -0.3537996 0.104979396 -0.9294112
vn -0.9593966 0.25439447 -0.1218259
vn -0.45694798 0.1942025 0.8680345
vn -0.46370146 0.33928847 0.81845236
vn -0.8254768 0.26416388 -0.49880403
vn -0.6227898 0.30932707 -0.7186443
vn -0.48391113 0.11980694 -0.8668773
vn -0.9841868 0.15692654 -0.08216013
vn -0.88711476 0.104546905 -0.44955227
vn -0.9972029 0.033625122 -0.06675209
vn -0.50229704 0.40841615 0.762164
vn -0.5858761 0.40360567 0.70274585
vn -0.9151006 -0.061653003 -0.39848426
vn -0.7019885 0.12162967 -0.7017252
vn -0.7624972 -0.071070574 -0.64307624
vn -0.546678 -0.09899473 -0.83147055
vn -0.41146567 -0.13179249 -0.9018463
vn -0.9889243 -0.13440841 -0.06295343
vn -0.90558153 -0.24274468 -0.34784633
vn -0.60151136 -0.3067066 -0.73764163
vn -0.46823487 -0.36660534 -0.80396307
vn -0.7933133 -0.2609598 -0.55004907
vn -0.62795377 -0.4719171 -0.61884433
vn -0.54341966 -0.5486058 -0.635395
vn -0.66065633 -0.6062789 -0.44267255
vn -0.74406105 -0.47740975 -0.4673897
vn -0.8339928 -0.45912632 -0.30603752
vn -0.76951474 -0.577312 -0.27305284
vn -0.938678 -0.34123755 -0.049400494
vn -0.89678675 -0.44210273 -0.01785185
vn -0.71044844 0.26722273 0.6510415
vn -0.7960814 0.12101793 0.59296614
g pm0818_81_ROpenEyelidSkin_rx_0
f 3/3/3 2/2/2 1/1/1
f 3/3/3 4/4/4 2/2/2
f 4/4/4 5/5/5 2/2/2
f 6/6/6 5/5/5 4/4/4
f 7/7/7 6/6/6 4/4/4
f 8/8/8 6/6/6 7/7/7
f 9/9/9 8/8/8 7/7/7
f 8/8/8 9/9/9 10/10/10
f 9/9/9 11/11/11 10/10/10
f 11/11/11 12/12/12 10/10/10
f 12/12/12 13/13/13 10/10/10
f 14/14/14 13/13/13 12/12/12
f 15/15/15 14/14/14 12/12/12
f 15/15/15 16/16/16 14/14/14
f 16/16/16 17/17/17 14/14/14
f 17/17/17 16/16/16 18/18/18
f 19/19/19 17/17/17 18/18/18
f 19/19/19 18/18/18 20/20/20
f 18/18/18 21/21/21 20/20/20
f 21/21/21 22/22/22 20/20/20
f 25/25/25 24/24/24 23/23/23
f 26/26/26 24/24/24 25/25/25
f 27/27/27 25/25/25 23/23/23
f 27/27/27 23/23/23 28/28/28
f 29/29/29 26/26/26 25/25/25
f 30/30/30 26/26/26 29/29/29
f 31/31/31 27/27/27 28/28/28
f 31/31/31 28/28/28 32/32/32
f 33/33/33 31/31/31 32/32/32
f 27/27/27 31/31/31 33/33/33
f 33/33/33 32/32/32 34/34/34
f 35/35/35 25/25/25 27/27/27
f 29/29/29 25/25/25 35/35/35
f 36/36/36 30/30/30 29/29/29
f 30/30/30 36/36/36 37/37/37
f 38/38/38 27/27/27 33/33/33
f 38/38/38 35/35/35 27/27/27
f 39/39/39 33/33/33 34/34/34
f 38/38/38 33/33/33 39/39/39
f 40/40/40 29/29/29 35/35/35
f 36/36/36 29/29/29 40/40/40
f 41/41/41 35/35/35 38/38/38
f 40/40/40 35/35/35 41/41/41
f 42/42/42 38/38/38 39/39/39
f 42/42/42 41/41/41 38/38/38
f 42/42/42 39/39/39 41/41/41
f 39/39/39 34/34/34 43/43/43
f 39/39/39 43/43/43 41/41/41
f 34/34/34 44/44/44 43/43/43
f 45/45/45 40/40/40 41/41/41
f 41/41/41 43/43/43 45/45/45
f 43/43/43 44/44/44 46/46/46
f 43/43/43 46/46/46 45/45/45
f 44/44/44 47/47/47 46/46/46
f 48/48/48 36/36/36 40/40/40
f 48/48/48 40/40/40 45/45/45
f 45/45/45 46/46/46 49/49/49
f 49/49/49 48/48/48 45/45/45
f 46/46/46 47/47/47 50/50/50
f 46/46/46 50/50/50 49/49/49
f 47/47/47 51/51/51 50/50/50
f 36/36/36 48/48/48 52/52/52
f 36/36/36 52/52/52 37/37/37
f 48/48/48 49/49/49 53/53/53
f 48/48/48 53/53/53 52/52/52
f 50/50/50 51/51/51 54/54/54
f 51/51/51 55/55/55 54/54/54
f 54/54/54 55/55/55 56/56/56
f 49/49/49 50/50/50 57/57/57
f 50/50/50 54/54/54 57/57/57
f 49/49/49 57/57/57 53/53/53
f 58/58/58 54/54/54 56/56/56
f 57/57/57 54/54/54 58/58/58
f 58/58/58 56/56/56 59/59/59
f 52/52/52 60/60/60 37/37/37
f 60/60/60 61/61/61 37/37/37
f 62/62/62 61/61/61 60/60/60
f 53/53/53 63/63/63 52/52/52
f 63/63/63 60/60/60 52/52/52
f 57/57/57 64/64/64 53/53/53
f 64/64/64 57/57/57 58/58/58
f 64/64/64 63/63/63 53/53/53
f 65/65/65 58/58/58 59/59/59
f 64/64/64 58/58/58 65/65/65
f 66/66/66 62/62/62 60/60/60
f 66/66/66 60/60/60 63/63/63
f 67/67/67 63/63/63 64/64/64
f 67/67/67 66/66/66 63/63/63
f 66/66/66 68/68/68 62/62/62
f 68/68/68 69/69/69 62/62/62
f 70/70/70 69/69/69 68/68/68
f 71/71/71 68/68/68 66/66/66
f 67/67/67 71/71/71 66/66/66
f 72/72/72 67/67/67 64/64/64
f 72/72/72 64/64/64 65/65/65
f 72/72/72 73/73/73 67/67/67
f 72/72/72 65/65/65 73/73/73
f 73/73/73 71/71/71 67/67/67
f 65/65/65 59/59/59 74/74/74
f 65/65/65 74/74/74 73/73/73
f 59/59/59 75/75/75 74/74/74
f 76/76/76 70/70/70 68/68/68
f 76/76/76 68/68/68 71/71/71
f 77/77/77 71/71/71 73/73/73
f 77/77/77 76/76/76 71/71/71
f 74/74/74 75/75/75 78/78/78
f 75/75/75 79/79/79 78/78/78
f 73/73/73 74/74/74 80/80/80
f 74/74/74 78/78/78 80/80/80
f 80/80/80 77/77/77 73/73/73
f 78/78/78 79/79/79 81/81/81
f 78/78/78 81/81/81 80/80/80
f 79/79/79 82/82/82 81/81/81
f 81/81/81 82/82/82 83/83/83
f 81/81/81 84/84/84 80/80/80
f 80/80/80 84/84/84 77/77/77
f 84/84/84 81/81/81 83/83/83
f 84/84/84 85/85/85 77/77/77
f 84/84/84 83/83/83 85/85/85
f 77/77/77 85/85/85 76/76/76
f 83/83/83 86/86/86 85/85/85
f 85/85/85 87/87/87 76/76/76
f 85/85/85 86/86/86 87/87/87
f 76/76/76 87/87/87 70/70/70
f 86/86/86 88/88/88 87/87/87
f 87/87/87 89/89/89 70/70/70
f 87/87/87 88/88/88 90/90/90
f 89/89/89 87/87/87 90/90/90
