g pm0812_81_CymbalASkin_tx
v 0.8621644 1.259041 0.4381543
v 0.9181742 1.259472 0.4065754
v 0.9124574 1.247196 0.4033777
v 0.9250609 1.255917 0.3789454
v 0.8609154 1.246815 0.4325463
v 0.8825074 1.232038 0.3846341
v 0.7742297 1.251418 0.4420268
v 0.9180328 1.24418 0.3801032
v 0.9107981 1.249857 0.3478254
v 0.7765435 1.239318 0.4350586
v 0.6737171 1.236228 0.4038297
v 0.9061275 1.238898 0.3526552
v 0.8667894 1.24165 0.3194711
v 0.8605312 1.228329 0.3232879
v 0.8531579 1.235118 0.2848568
v 0.6395872 1.215759 0.3641738
v 0.5914259 1.217903 0.3337966
v 0.5448452 1.199717 0.2427371
v 0.7816293 1.226217 0.4083205
v 0.8523995 1.220612 0.3279419
v 0.8443807 1.220508 0.2817381
v 0.8691764 1.232303 0.2564857
v 0.5550294 1.18932 0.2421385
v 0.540997 1.184073 0.1421468
v 0.6600114 1.205244 0.3450325
v 0.8370125 1.211969 0.2805122
v 0.8616063 1.216685 0.2459947
v 0.8567159 1.207437 0.2385804
v 0.5857865 1.181774 0.2361811
v 0.5728248 1.168658 0.09522132
v 0.5853595 1.172587 0.03929142
v 0.6610489 1.167843 -0.03844595
v 0.9011381 1.219755 0.2419036
v 0.9013477 1.234479 0.2510354
v 0.601831 1.163476 0.1059015
v 0.6672133 1.158523 -0.02948651
v 0.9029215 1.211095 0.2342548
v 0.934856 1.227343 0.2711238
v 0.9293773 1.24082 0.2755445
v 0.8167334 1.165423 -0.07596312
v 0.7599515 1.170271 -0.08324394
v 0.8719481 1.179683 -0.0901273
v 0.6848608 1.15449 -0.004265707
v 0.8168278 1.160625 -0.04499143
v 0.9451104 1.177008 -0.01600619
v 0.9612978 1.183931 -0.04299635
v 0.9655062 1.194137 -0.05249894
v 1.022661 1.200434 0.09051085
v 1.047788 1.210345 0.07768305
v 1.035627 1.212011 0.02203941
v 1.073843 1.230921 0.1230057
v 1.041219 1.222774 0.2261304
v 1.068323 1.235448 0.2302767
v 0.9847471 1.230682 0.3128783
v 1.075876 1.247417 0.2303196
v 0.942443 1.219418 0.264746
v 1.037423 1.244474 0.3086663
v 1.04249 1.256649 0.3115952
v 0.9924567 1.246135 0.3472312
v 0.9937391 1.25847 0.3535412
v 0.9653545 1.255383 0.3506658
v 0.9686228 1.243509 0.3445973
v 0.9408303 1.249459 0.3267475
v 0.9467643 1.238359 0.3241347
v 0.8621644 1.259041 0.4381543
v 0.91042 1.269015 0.4000624
v 0.9181742 1.259472 0.4065754
v 0.9250609 1.255917 0.3789454
v 0.858878 1.268635 0.429231
v 0.878748 1.272298 0.3785168
v 0.7742297 1.251418 0.4420268
v 0.9159955 1.266 0.3767878
v 0.9107981 1.249857 0.3478254
v 0.774506 1.261138 0.4317432
v 0.6737171 1.236228 0.4038297
v 0.90409 1.260717 0.3493398
v 0.8667894 1.24165 0.3194711
v 0.8581209 1.254142 0.3193657
v 0.8531579 1.235118 0.2848568
v 0.6772661 1.246443 0.3947898
v 0.5914259 1.217903 0.3337966
v 0.7778699 1.266477 0.4022032
v 0.8486403 1.260872 0.3218246
v 0.8419703 1.24632 0.2778159
v 0.8691764 1.232303 0.2564857
v 0.5978333 1.228714 0.326927
v 0.5448452 1.199717 0.2427371
v 0.656252 1.245504 0.3389152
v 0.8332531 1.252228 0.2743949
v 0.5529919 1.211139 0.2388231
v 0.540997 1.184073 0.1421468
v 0.8591958 1.242498 0.2420726
v 0.8529565 1.247697 0.2324632
v 0.5820273 1.222033 0.2300637
v 0.5493676 1.196031 0.1416163
v 0.5853595 1.172587 0.03929142
v 0.8987277 1.245568 0.2379815
v 0.9013477 1.234479 0.2510354
v 0.5980717 1.203736 0.09978423
v 0.5922071 1.184924 0.04219558
v 0.6610489 1.167843 -0.03844595
v 0.6651759 1.180342 -0.03280184
v 0.8991621 1.251354 0.2281375
v 0.9324456 1.253156 0.2672016
v 0.9293773 1.24082 0.2755445
v 0.6811014 1.194749 -0.01038302
v 0.7605747 1.182691 -0.07597124
v 0.7599515 1.170271 -0.08324394
v 0.8130684 1.200884 -0.05110874
v 0.8688173 1.191794 -0.08258577
v 0.8719481 1.179683 -0.0901273
v 0.941351 1.217267 -0.0221235
v 0.9592604 1.205751 -0.04631175
v 0.9655062 1.194137 -0.05249894
v 1.018902 1.240694 0.08439353
v 1.027182 1.223019 0.02559363
v 1.035627 1.212011 0.02203941
v 1.064319 1.241309 0.1231417
v 1.073843 1.230921 0.1230057
v 1.03746 1.263034 0.2200131
v 1.066285 1.257268 0.2269614
v 0.9809877 1.270941 0.306761
v 1.075876 1.247417 0.2303196
v 0.9386837 1.259677 0.2586287
v 1.035386 1.266293 0.3053509
v 1.04249 1.256649 0.3115952
v 0.9904191 1.267954 0.3439158
v 0.9937391 1.25847 0.3535412
v 0.9653545 1.255383 0.3506658
v 0.9665853 1.265329 0.3412819
v 0.9408303 1.249459 0.3267475
v 0.9447269 1.260178 0.3208193
vt 0.387969 -0.4352582
vt 0.3769554 -0.4418011
vt 0.3771057 -0.4369442
vt 0.3720206 -0.4370587
vt 0.3867761 -0.4310687
vt 0.3779637 -0.423519
vt 0.3992395 -0.414124
vt 0.3734746 -0.4331582
vt 0.3688893 -0.4254391
vt 0.3972747 -0.4110553
vt 0.4079139 -0.3804049
vt 0.3710464 -0.423779
vt 0.369082 -0.4057403
vt 0.3716284 -0.4033113
vt 0.3664094 -0.3933015
vt 0.4070628 -0.3608568
vt 0.4109471 -0.3423299
vt 0.4072487 -0.3065083
vt 0.3930681 -0.404353
vt 0.37362 -0.4012692
vt 0.3679919 -0.387666
vt 0.3612506 -0.3886757
vt 0.404961 -0.3085845
vt 0.3969932 -0.2770199
vt 0.4017208 -0.3597198
vt 0.3691503 -0.384086
vt 0.3612461 -0.381386
vt 0.3611808 -0.3767147
vt 0.3998092 -0.3133733
vt 0.3871489 -0.2709373
vt 0.3799429 -0.2568098
vt 0.3612506 -0.25
vt 0.3544927 -0.3877065
vt 0.3560846 -0.3933287
vt 0.3839859 -0.2802231
vt 0.3612254 -0.254949
vt 0.3532203 -0.384136
vt 0.3508949 -0.4034071
vt 0.3534551 -0.4057837
vt 0.3352166 -0.2711406
vt 0.3423932 -0.2569618
vt 0.3253816 -0.2773101
vt 0.3612111 -0.2659311
vt 0.338413 -0.2803953
vt 0.3226418 -0.3136835
vt 0.3174766 -0.3089403
vt 0.3151827 -0.3068848
vt 0.3208182 -0.3600618
vt 0.3154769 -0.3612443
vt 0.3115543 -0.3427446
vt 0.3146647 -0.3808089
vt 0.3295659 -0.4046564
vt 0.3253711 -0.4113946
vt 0.344717 -0.423707
vt 0.3234112 -0.4144793
vt 0.3487998 -0.4013369
vt 0.3359175 -0.4313346
vt 0.3347332 -0.4355354
vt 0.3456142 -0.4371244
vt 0.345778 -0.4419796
vt 0.3507026 -0.4371789
vt 0.3492365 -0.4332983
vt 0.3537998 -0.4255152
vt 0.3516351 -0.4238979
vt 0.387969 -0.04521048
vt 0.3771152 -0.04357505
vt 0.3769554 -0.03866768
vt 0.3720206 -0.04340994
vt 0.386785 -0.04943812
vt 0.3779653 -0.05708873
vt 0.3992395 -0.06634474
vt 0.373481 -0.04736948
vt 0.3688893 -0.05502963
vt 0.3972348 -0.06943429
vt 0.4079139 -0.1000638
vt 0.3710403 -0.05678046
vt 0.369082 -0.07472837
vt 0.3716121 -0.07720697
vt 0.3664094 -0.08716738
vt 0.4055011 -0.1015565
vt 0.4109471 -0.1381389
vt 0.3929749 -0.07614088
vt 0.3735565 -0.0792402
vt 0.367972 -0.09276342
vt 0.3612506 -0.09179306
vt 0.4083933 -0.1377871
vt 0.4072487 -0.1739604
vt 0.4015248 -0.120684
vt 0.3690964 -0.09625053
vt 0.404894 -0.171793
vt 0.3969932 -0.2034489
vt 0.3612506 -0.09897518
vt 0.3612506 -0.1035018
vt 0.3996909 -0.1669065
vt 0.3951688 -0.1997149
vt 0.3799429 -0.2236589
vt 0.3545095 -0.09272146
vt 0.3560846 -0.08714008
vt 0.3838954 -0.1999644
vt 0.378967 -0.2188964
vt 0.3612506 -0.2304688
vt 0.3612506 -0.2253319
vt 0.3532691 -0.09620106
vt 0.3509102 -0.07711041
vt 0.3534551 -0.07468522
vt 0.3612506 -0.2142596
vt 0.3433781 -0.2187519
vt 0.3423932 -0.2235069
vt 0.3384857 -0.1997783
vt 0.3272132 -0.1994386
vt 0.3253816 -0.2031586
vt 0.3227538 -0.1665878
vt 0.3175414 -0.1714343
vt 0.3151827 -0.173584
vt 0.3210111 -0.1203371
vt 0.3141086 -0.1373916
vt 0.3115543 -0.1377242
vt 0.3170748 -0.101171
vt 0.3146647 -0.0996598
vt 0.3296559 -0.07583725
vt 0.3254097 -0.06909549
vt 0.3447124 -0.05690002
vt 0.3234112 -0.06598949
vt 0.3488595 -0.07917309
vt 0.3359071 -0.04917276
vt 0.3347332 -0.04493332
vt 0.3456037 -0.04339492
vt 0.345778 -0.0384891
vt 0.3507026 -0.0432899
vt 0.3492291 -0.04722917
vt 0.3537998 -0.05495346
vt 0.3516397 -0.0566622
vn 0.3378412 0.09943186 0.9359362
vn 0.7913799 0.1454467 0.5937703
vn 0.5689858 -0.6893222 0.4484305
vn 0.9956097 0.0919501 0.01751005
vn 0.3265311 -0.7025034 0.6323501
vn 0.4342848 -0.8619127 0.2617312
vn -0.1474952 0.0001676613 0.9890627
vn 0.6994003 -0.6969227 0.1585501
vn 0.9396055 0.03717893 -0.3402343
vn -0.01346295 -0.7549773 0.6556126
vn -0.5260282 -0.09915265 0.8446676
vn 0.7093087 -0.7021751 -0.06189691
vn 0.9427689 0.04009265 -0.3310278
vn 0.6860623 -0.7237493 -0.07419899
vn 0.9880215 0.1125771 0.1055462
vn -0.3299855 -0.7504966 0.5725945
vn -0.7307816 -0.1944759 0.6543221
vn -0.9019764 -0.3270254 0.281945
vn 0.1595764 -0.933127 0.3221949
vn 0.3384619 -0.9283747 0.1535056
vn 0.6318439 -0.7518186 0.1885262
vn 0.5710702 0.1803708 0.8008403
vn -0.4048209 -0.8772075 0.2581221
vn -0.9154868 -0.3712104 -0.1551992
vn 0.009518011 -0.9533365 0.3017597
vn 0.2526874 -0.9477109 0.1949182
vn 0.3570346 -0.7774372 0.5178009
vn 0.1030936 -0.9810018 0.1643392
vn -0.070594 -0.9764984 0.2036354
vn -0.459803 -0.8845378 -0.07857515
vn -0.8048462 -0.3987513 -0.439568
vn -0.5203211 -0.4379943 -0.7330941
vn -0.04726936 -0.7464502 0.6637603
vn -0.2313184 0.1291945 0.9642617
vn -0.07358988 -0.9928013 0.09450023
vn -0.2043973 -0.9399036 -0.2735016
vn 0.08207504 -0.9460987 0.3133066
vn -0.3142894 -0.7147396 0.6247956
vn -0.6333095 0.0604248 0.7715361
vn 0.06666855 -0.8915043 -0.4480796
vn -0.1469301 -0.4074725 -0.90132
vn 0.1585554 -0.3854485 -0.9090048
vn -0.003910995 -0.9999079 0.01299983
vn 0.09653529 -0.9950178 -0.02491006
vn 0.1984577 -0.9799989 0.01472319
vn 0.3647447 -0.8873792 -0.281992
vn 0.5658131 -0.3464795 -0.7482029
vn 0.2639199 -0.9566995 0.1227699
vn 0.6372146 -0.7633154 -0.1063347
vn 0.8601505 -0.2155616 -0.4622492
vn 0.9712524 -0.1189981 -0.2061756
vn 0.2324295 -0.9343331 0.2701818
vn 0.6076617 -0.7632615 0.2194973
vn 0.08349945 -0.8581631 0.5065413
vn 0.9801607 -0.01479022 0.197652
vn 0.0139124 -0.9250407 0.3796134
vn 0.471155 -0.7047329 0.5304382
vn 0.7670778 0.0937206 0.6346716
vn 0.216072 -0.6853247 0.6954444
vn 0.2919587 0.1520489 0.9442676
vn -0.3213423 0.1092234 0.9406431
vn -0.1010244 -0.6878981 0.718742
vn -0.6411535 0.05752794 0.7652534
vn -0.3114183 -0.6914082 0.6518997
vn 0.3378412 0.09943186 0.9359362
vn 0.4316774 0.8757328 0.2162096
vn 0.7913799 0.1454467 0.5937703
vn 0.9956097 0.0919501 0.01751005
vn 0.200908 0.8867197 0.4163703
vn 0.2688861 0.9630946 -0.01220797
vn -0.1474952 0.0001676613 0.9890627
vn 0.5571064 0.8272566 -0.07265764
vn 0.9396055 0.03717893 -0.3402343
vn -0.1392865 0.8672316 0.4780258
vn -0.5260282 -0.09915265 0.8446676
vn 0.57099 0.7699382 -0.2848959
vn 0.9427689 0.04009265 -0.3310278
vn 0.5431446 0.7829854 -0.3031956
vn 0.9880215 0.1125771 0.1055462
vn -0.4049676 0.808755 0.4265169
vn -0.7307816 -0.1944759 0.6543221
vn -0.01655297 0.998857 0.04483862
vn 0.1608727 0.9779941 -0.1328442
vn 0.4755607 0.8777928 -0.05763571
vn 0.5710702 0.1803708 0.8008403
vn -0.5639061 0.7714813 0.2946635
vn -0.9019764 -0.3270254 0.281945
vn -0.2249424 0.9721265 0.06611387
vn 0.06530467 0.9935088 -0.09314249
vn -0.6732964 0.7381246 0.04294322
vn -0.9154868 -0.3712104 -0.1551992
vn 0.1929254 0.9484688 0.2513694
vn -0.08697259 0.9857983 -0.1436571
vn -0.2817954 0.9559256 -0.08244629
vn -0.6915618 0.6831946 -0.2344943
vn -0.8048462 -0.3987513 -0.439568
vn -0.1973056 0.8896675 0.4117794
vn -0.2313184 0.1291945 0.9642617
vn -0.3248124 0.9180892 -0.2271764
vn -0.6142578 0.6577229 -0.4359909
vn -0.5203211 -0.4379943 -0.7330941
vn -0.4268851 0.6576478 -0.6207
vn -0.09071856 0.9957665 0.01480633
vn -0.4549786 0.799259 0.392657
vn -0.6333095 0.0604248 0.7715361
vn -0.2036139 0.9293393 -0.3080094
vn -0.1895296 0.6520758 -0.7340815
vn -0.1469301 -0.4074725 -0.90132
vn -0.08664933 0.9148818 -0.3943137
vn 0.02666745 0.6736463 -0.7385726
vn 0.1585554 -0.3854485 -0.9090048
vn 0.03556489 0.9516184 -0.3052172
vn 0.2823406 0.7254103 -0.6277449
vn 0.5658131 -0.3464795 -0.7482029
vn 0.1561449 0.9669176 -0.2017149
vn 0.482414 0.7575514 -0.4397641
vn 0.8601505 -0.2155616 -0.4622492
vn 0.5530388 0.796017 -0.2459778
vn 0.9712524 -0.1189981 -0.2061756
vn 0.06576544 0.9977385 -0.0138883
vn 0.5122434 0.8585945 0.0205426
vn -0.08558758 0.9682451 0.2348956
vn 0.9801607 -0.01479022 0.197652
vn -0.1612705 0.9826812 0.091266
vn 0.3389489 0.8850825 0.3189713
vn 0.7670778 0.0937206 0.6346716
vn 0.07207462 0.8809535 0.4676818
vn 0.2919587 0.1520489 0.9442676
vn -0.3213423 0.1092234 0.9406431
vn -0.2432389 0.8388901 0.4869272
vn -0.6411535 0.05752794 0.7652534
vn -0.4483816 0.7852709 0.4269702
g pm0812_81_CymbalASkin_tx_0
f 3/3/3 2/2/2 1/1/1
f 4/4/4 2/2/2 3/3/3
f 5/5/5 3/3/3 1/1/1
f 6/6/6 3/3/3 5/5/5
f 5/5/5 1/1/1 7/7/7
f 8/8/8 4/4/4 3/3/3
f 8/8/8 3/3/3 6/6/6
f 9/9/9 4/4/4 8/8/8
f 10/10/10 5/5/5 7/7/7
f 6/6/6 5/5/5 10/10/10
f 10/10/10 7/7/7 11/11/11
f 12/12/12 9/9/9 8/8/8
f 12/12/12 8/8/8 6/6/6
f 13/13/13 9/9/9 12/12/12
f 14/14/14 13/13/13 12/12/12
f 14/14/14 12/12/12 6/6/6
f 15/15/15 13/13/13 14/14/14
f 16/16/16 10/10/10 11/11/11
f 16/16/16 11/11/11 17/17/17
f 16/16/16 17/17/17 18/18/18
f 19/19/19 6/6/6 10/10/10
f 19/19/19 10/10/10 16/16/16
f 20/20/20 14/14/14 6/6/6
f 6/6/6 19/19/19 20/20/20
f 21/21/21 15/15/15 14/14/14
f 21/21/21 14/14/14 20/20/20
f 22/22/22 15/15/15 21/21/21
f 23/23/23 16/16/16 18/18/18
f 23/23/23 18/18/18 24/24/24
f 25/25/25 19/19/19 16/16/16
f 25/25/25 16/16/16 23/23/23
f 26/26/26 20/20/20 19/19/19
f 26/26/26 21/21/21 20/20/20
f 25/25/25 26/26/26 19/19/19
f 27/27/27 22/22/22 21/21/21
f 27/27/27 21/21/21 26/26/26
f 28/28/28 27/27/27 26/26/26
f 26/26/26 25/25/25 29/29/29
f 29/29/29 25/25/25 23/23/23
f 28/28/28 26/26/26 29/29/29
f 30/30/30 23/23/23 24/24/24
f 29/29/29 23/23/23 30/30/30
f 30/30/30 24/24/24 31/31/31
f 30/30/30 31/31/31 32/32/32
f 22/22/22 27/27/27 33/33/33
f 34/34/34 22/22/22 33/33/33
f 35/35/35 29/29/29 30/30/30
f 28/28/28 29/29/29 35/35/35
f 36/36/36 30/30/30 32/32/32
f 35/35/35 30/30/30 36/36/36
f 27/27/27 28/28/28 37/37/37
f 33/33/33 27/27/27 37/37/37
f 34/34/34 33/33/33 38/38/38
f 39/39/39 34/34/34 38/38/38
f 40/40/40 36/36/36 32/32/32
f 41/41/41 40/40/40 32/32/32
f 42/42/42 40/40/40 41/41/41
f 43/43/43 35/35/35 36/36/36
f 28/28/28 35/35/35 43/43/43
f 44/44/44 43/43/43 36/36/36
f 44/44/44 28/28/28 43/43/43
f 40/40/40 44/44/44 36/36/36
f 45/45/45 28/28/28 44/44/44
f 45/45/45 44/44/44 40/40/40
f 28/28/28 45/45/45 37/37/37
f 46/46/46 40/40/40 42/42/42
f 46/46/46 45/45/45 40/40/40
f 47/47/47 46/46/46 42/42/42
f 48/48/48 45/45/45 46/46/46
f 45/45/45 48/48/48 37/37/37
f 49/49/49 46/46/46 47/47/47
f 49/49/49 48/48/48 46/46/46
f 50/50/50 49/49/49 47/47/47
f 51/51/51 49/49/49 50/50/50
f 37/37/37 48/48/48 52/52/52
f 52/52/52 48/48/48 49/49/49
f 53/53/53 49/49/49 51/51/51
f 53/53/53 52/52/52 49/49/49
f 54/54/54 52/52/52 53/53/53
f 55/55/55 53/53/53 51/51/51
f 56/56/56 37/37/37 52/52/52
f 52/52/52 54/54/54 56/56/56
f 33/33/33 37/37/37 56/56/56
f 38/38/38 33/33/33 56/56/56
f 38/38/38 56/56/56 54/54/54
f 57/57/57 53/53/53 55/55/55
f 57/57/57 54/54/54 53/53/53
f 58/58/58 57/57/57 55/55/55
f 59/59/59 57/57/57 58/58/58
f 59/59/59 54/54/54 57/57/57
f 60/60/60 59/59/59 58/58/58
f 60/60/60 61/61/61 59/59/59
f 61/61/61 62/62/62 59/59/59
f 59/59/59 62/62/62 54/54/54
f 61/61/61 63/63/63 62/62/62
f 64/64/64 38/38/38 54/54/54
f 62/62/62 64/64/64 54/54/54
f 63/63/63 64/64/64 62/62/62
f 39/39/39 38/38/38 64/64/64
f 63/63/63 39/39/39 64/64/64
f 67/67/67 66/66/66 65/65/65
f 67/67/67 68/68/68 66/66/66
f 66/66/66 69/69/69 65/65/65
f 66/66/66 70/70/70 69/69/69
f 65/65/65 69/69/69 71/71/71
f 68/68/68 72/72/72 66/66/66
f 66/66/66 72/72/72 70/70/70
f 68/68/68 73/73/73 72/72/72
f 69/69/69 74/74/74 71/71/71
f 69/69/69 70/70/70 74/74/74
f 71/71/71 74/74/74 75/75/75
f 73/73/73 76/76/76 72/72/72
f 72/72/72 76/76/76 70/70/70
f 73/73/73 77/77/77 76/76/76
f 77/77/77 78/78/78 76/76/76
f 76/76/76 78/78/78 70/70/70
f 77/77/77 79/79/79 78/78/78
f 74/74/74 80/80/80 75/75/75
f 75/75/75 80/80/80 81/81/81
f 70/70/70 82/82/82 74/74/74
f 74/74/74 82/82/82 80/80/80
f 78/78/78 83/83/83 70/70/70
f 82/82/82 70/70/70 83/83/83
f 79/79/79 84/84/84 78/78/78
f 78/78/78 84/84/84 83/83/83
f 79/79/79 85/85/85 84/84/84
f 80/80/80 86/86/86 81/81/81
f 81/81/81 86/86/86 87/87/87
f 82/82/82 88/88/88 80/80/80
f 80/80/80 88/88/88 86/86/86
f 83/83/83 89/89/89 82/82/82
f 84/84/84 89/89/89 83/83/83
f 89/89/89 88/88/88 82/82/82
f 86/86/86 90/90/90 87/87/87
f 86/86/86 88/88/88 90/90/90
f 87/87/87 90/90/90 91/91/91
f 85/85/85 92/92/92 84/84/84
f 84/84/84 92/92/92 89/89/89
f 92/92/92 93/93/93 89/89/89
f 94/94/94 88/88/88 89/89/89
f 88/88/88 94/94/94 90/90/90
f 93/93/93 94/94/94 89/89/89
f 90/90/90 95/95/95 91/91/91
f 90/90/90 94/94/94 95/95/95
f 91/91/91 95/95/95 96/96/96
f 92/92/92 85/85/85 97/97/97
f 85/85/85 98/98/98 97/97/97
f 94/94/94 99/99/99 95/95/95
f 94/94/94 93/93/93 99/99/99
f 95/95/95 100/100/100 96/96/96
f 95/95/95 99/99/99 100/100/100
f 96/96/96 100/100/100 101/101/101
f 100/100/100 99/99/99 102/102/102
f 100/100/100 102/102/102 101/101/101
f 92/92/92 97/97/97 103/103/103
f 93/93/93 92/92/92 103/103/103
f 97/97/97 98/98/98 104/104/104
f 98/98/98 105/105/105 104/104/104
f 99/99/99 106/106/106 102/102/102
f 99/99/99 93/93/93 106/106/106
f 102/102/102 107/107/107 101/101/101
f 107/107/107 108/108/108 101/101/101
f 106/106/106 109/109/109 102/102/102
f 93/93/93 109/109/109 106/106/106
f 109/109/109 107/107/107 102/102/102
f 107/107/107 110/110/110 108/108/108
f 109/109/109 110/110/110 107/107/107
f 110/110/110 111/111/111 108/108/108
f 93/93/93 112/112/112 109/109/109
f 109/109/109 112/112/112 110/110/110
f 93/93/93 103/103/103 112/112/112
f 110/110/110 113/113/113 111/111/111
f 112/112/112 113/113/113 110/110/110
f 113/113/113 114/114/114 111/111/111
f 112/112/112 115/115/115 113/113/113
f 103/103/103 115/115/115 112/112/112
f 113/113/113 116/116/116 114/114/114
f 115/115/115 116/116/116 113/113/113
f 116/116/116 117/117/117 114/114/114
f 116/116/116 118/118/118 117/117/117
f 115/115/115 118/118/118 116/116/116
f 118/118/118 119/119/119 117/117/117
f 115/115/115 103/103/103 120/120/120
f 115/115/115 120/120/120 118/118/118
f 118/118/118 121/121/121 119/119/119
f 120/120/120 121/121/121 118/118/118
f 120/120/120 122/122/122 121/121/121
f 121/121/121 123/123/123 119/119/119
f 103/103/103 124/124/124 120/120/120
f 122/122/122 120/120/120 124/124/124
f 103/103/103 97/97/97 124/124/124
f 97/97/97 104/104/104 124/124/124
f 124/124/124 104/104/104 122/122/122
f 121/121/121 125/125/125 123/123/123
f 122/122/122 125/125/125 121/121/121
f 125/125/125 126/126/126 123/123/123
f 125/125/125 127/127/127 126/126/126
f 122/122/122 127/127/127 125/125/125
f 127/127/127 128/128/128 126/126/126
f 129/129/129 128/128/128 127/127/127
f 130/130/130 129/129/129 127/127/127
f 130/130/130 127/127/127 122/122/122
f 131/131/131 129/129/129 130/130/130
f 104/104/104 132/132/132 122/122/122
f 132/132/132 130/130/130 122/122/122
f 132/132/132 131/131/131 130/130/130
f 104/104/104 105/105/105 132/132/132
f 105/105/105 131/131/131 132/132/132
