g pm0936_00_EyeSkin
v 0.04289375 1.255794 0.1558566
v 0.04695317 1.267736 0.1587496
v 0.05486577 1.269238 0.1551264
v 0.05013596 1.276722 0.1602215
v 0.05704673 1.279306 0.1573117
v 0.06341944 1.282503 0.1533607
v 0.06190229 1.271362 0.1507963
v 0.06921173 1.285948 0.1488129
v 0.05129917 1.257442 0.1519666
v 0.04776847 1.246049 0.1476352
v 0.0380717 1.243432 0.1513977
v 0.04142678 1.24147 0.1487484
v 0.04588423 1.239566 0.1438641
v 0.05236044 1.238505 0.1376336
v 0.05582981 1.248369 0.1428481
v 0.0593311 1.259713 0.1472007
v 0.06322575 1.250558 0.1373188
v 0.05893143 1.23883 0.1315083
v 0.06623329 1.241723 0.1253808
v 0.06649181 1.262445 0.1420349
v 0.06840333 1.274282 0.1460087
v 0.07456215 1.277761 0.140706
v 0.07459113 1.289237 0.1440175
v 0.0791937 1.292489 0.1393684
v 0.07326475 1.265949 0.1364084
v 0.07021267 1.253746 0.1316708
v 0.07658667 1.257659 0.126381
v 0.07282933 1.246775 0.1217949
v 0.07833247 1.253594 0.1205994
v 0.08249383 1.263611 0.1217967
v 0.07987817 1.270202 0.1302397
v 0.0847118 1.27381 0.124732
v 0.08017658 1.282227 0.1354133
v 0.08390615 1.296255 0.1340772
v 0.08519618 1.287522 0.1299296
v -0.04289353 1.255794 0.1558566
v -0.05486554 1.269238 0.1551264
v -0.04695295 1.267736 0.1587496
v -0.05013572 1.276722 0.1602215
v -0.0570465 1.279306 0.1573117
v -0.0634192 1.282503 0.1533607
v -0.06190206 1.271362 0.1507963
v -0.06921149 1.285948 0.1488129
v -0.05129895 1.257442 0.1519666
v -0.04776826 1.246049 0.1476352
v -0.03807149 1.243432 0.1513977
v -0.04142658 1.24147 0.1487484
v -0.04588403 1.239566 0.1438641
v -0.05236024 1.238505 0.1376336
v -0.0558296 1.248369 0.1428481
v -0.05933088 1.259713 0.1472007
v -0.06322554 1.250558 0.1373188
v -0.05893123 1.23883 0.1315083
v -0.06623309 1.241723 0.1253808
v -0.06649158 1.262445 0.1420349
v -0.0684031 1.274282 0.1460087
v -0.07456193 1.277761 0.140706
v -0.07459089 1.289237 0.1440175
v -0.07919345 1.292489 0.1393684
v -0.07326453 1.265949 0.1364084
v -0.07021246 1.253746 0.1316708
v -0.07658645 1.257659 0.126381
v -0.07282912 1.246775 0.1217949
v -0.07833226 1.253594 0.1205994
v -0.0824936 1.263611 0.1217967
v -0.07987794 1.270202 0.1302397
v -0.08471158 1.27381 0.124732
v -0.08017635 1.282227 0.1354133
v -0.08390591 1.296255 0.1340772
v -0.08519593 1.287522 0.1299296
vt 0.02863777 1.856893
vt 0.04770958 1.900911
vt 0.08014214 1.898919
vt 0.06393492 1.932736
vt 0.09316492 1.935463
vt 0.1232321 1.938688
vt 0.1114568 1.897956
vt 0.1532247 1.941761
vt 0.06316125 1.855306
vt 0.04903996 1.810852
vt 0.009694576 1.808774
vt 0.02313519 1.797807
vt 0.04375088 1.78288
vt 0.07392871 1.768373
vt 0.08449197 1.809926
vt 0.09837675 1.854164
vt 0.1192415 1.807143
vt 0.1056734 1.758403
vt 0.1425083 1.756555
vt 0.1322237 1.853753
vt 0.1429529 1.8988
vt 0.1753424 1.900561
vt 0.1824831 1.943845
vt 0.2094771 1.945859
vt 0.1669143 1.854947
vt 0.1542666 1.807231
vt 0.1878185 1.810276
vt 0.1744808 1.766549
vt 0.200326 1.786629
vt 0.2213272 1.821136
vt 0.2034744 1.857594
vt 0.2334391 1.859434
vt 0.2076632 1.905597
vt 0.2383015 1.948372
vt 0.2403054 1.913238
vt -0.02863777 1.856893
vt -0.08014214 1.898919
vt -0.04770958 1.900911
vt -0.06393492 1.932736
vt -0.09316492 1.935463
vt -0.1232321 1.938688
vt -0.1114568 1.897956
vt -0.1532247 1.941761
vt -0.06316125 1.855306
vt -0.04904053 1.810843
vt -0.009694546 1.808774
vt -0.02313289 1.797805
vt -0.04374561 1.782872
vt -0.07392871 1.768373
vt -0.08449197 1.809926
vt -0.09837675 1.854164
vt -0.1192415 1.807143
vt -0.1056734 1.758403
vt -0.1425083 1.756555
vt -0.1322237 1.853753
vt -0.1429529 1.8988
vt -0.1753424 1.900561
vt -0.1824831 1.943845
vt -0.2094771 1.945859
vt -0.1669143 1.854947
vt -0.1542666 1.807231
vt -0.1878185 1.810276
vt -0.1744808 1.766549
vt -0.200326 1.786629
vt -0.2213272 1.821136
vt -0.2034744 1.857594
vt -0.2334391 1.859434
vt -0.2076632 1.905597
vt -0.2383015 1.948372
vt -0.2403054 1.913238
vn 0.4400805 -0.411308 0.7982197
vn 0.4483703 -0.3342234 0.8290107
vn 0.5125238 -0.3272963 0.7938492
vn 0.4516679 -0.2891482 0.8440316
vn 0.5394267 -0.2791503 0.7944142
vn 0.6339458 -0.2489906 0.7321997
vn 0.6124656 -0.3100722 0.727146
vn 0.6916592 -0.2160607 0.6891482
vn 0.496662 -0.4027114 0.768863
vn 0.4972551 -0.4717013 0.7281725
vn 0.4346543 -0.4385762 0.7865918
vn 0.4625246 -0.4556531 0.7605598
vn 0.5348328 -0.5350442 0.6539738
vn 0.5762089 -0.5286381 0.6233177
vn 0.5800398 -0.4809971 0.6574159
vn 0.5937477 -0.3986265 0.6989711
vn 0.6469442 -0.474173 0.5971793
vn 0.6331773 -0.5175048 0.5755652
vn 0.6761433 -0.5019271 0.539351
vn 0.6673534 -0.3809448 0.6399379
vn 0.6826817 -0.280087 0.6749052
vn 0.7335223 -0.2533945 0.6306634
vn 0.7339327 -0.1900061 0.6521046
vn 0.7753427 -0.1663909 0.6092272
vn 0.7231104 -0.3517907 0.5944364
vn 0.6958491 -0.4508332 0.5590558
vn 0.7367232 -0.4098907 0.5377998
vn 0.7034471 -0.476989 0.5269191
vn 0.7397169 -0.4246876 0.5219764
vn 0.7788016 -0.3590614 0.5143374
vn 0.7745775 -0.3104155 0.5510643
vn 0.8037958 -0.2770589 0.5264511
vn 0.7821185 -0.2213072 0.5825064
vn 0.7945414 -0.1553199 0.587009
vn 0.8035733 -0.1957349 0.5621013
vn -0.4400815 -0.4113086 0.798219
vn -0.5125252 -0.327297 0.7938479
vn -0.448374 -0.3342261 0.8290077
vn -0.4516685 -0.2891488 0.8440312
vn -0.5394269 -0.2791504 0.794414
vn -0.6339476 -0.2489903 0.7321982
vn -0.6124667 -0.3100717 0.7271451
vn -0.6916611 -0.2160605 0.6891463
vn -0.4966634 -0.4027117 0.768862
vn -0.4972551 -0.4717002 0.7281733
vn -0.4346551 -0.4385765 0.7865911
vn -0.4625356 -0.4556628 0.7605472
vn -0.534833 -0.5350423 0.6539751
vn -0.5762085 -0.5286359 0.6233201
vn -0.5800408 -0.4809963 0.6574156
vn -0.5937499 -0.3986267 0.6989691
vn -0.6469448 -0.4741725 0.5971791
vn -0.6331769 -0.517503 0.5755674
vn -0.6761431 -0.5019256 0.5393527
vn -0.667354 -0.3809446 0.6399374
vn -0.6826827 -0.2800865 0.6749043
vn -0.7335228 -0.253394 0.6306629
vn -0.7339328 -0.1900057 0.6521047
vn -0.775342 -0.16639 0.6092284
vn -0.7231098 -0.3517896 0.5944378
vn -0.6958481 -0.4508316 0.5590584
vn -0.7367225 -0.4098893 0.5378017
vn -0.703445 -0.4769864 0.5269241
vn -0.739715 -0.4246855 0.5219808
vn -0.778805 -0.3590629 0.514331
vn -0.774579 -0.3104153 0.5510623
vn -0.8037975 -0.2770585 0.5264488
vn -0.7821185 -0.2213061 0.5825069
vn -0.7945409 -0.1553186 0.5870101
vn -0.8035727 -0.1957334 0.5621025
g pm0936_00_EyeSkin_0
f 3/3/3 2/2/2 1/1/1
f 4/4/4 2/2/2 3/3/3
f 5/5/5 4/4/4 3/3/3
f 5/5/5 3/3/3 6/6/6
f 3/3/3 7/7/7 6/6/6
f 6/6/6 7/7/7 8/8/8
f 9/9/9 3/3/3 1/1/1
f 3/3/3 9/9/9 7/7/7
f 10/10/10 9/9/9 1/1/1
f 11/11/11 10/10/10 1/1/1
f 12/12/12 10/10/10 11/11/11
f 10/10/10 12/12/12 13/13/13
f 10/10/10 13/13/13 14/14/14
f 10/10/10 15/15/15 9/9/9
f 15/15/15 10/10/10 14/14/14
f 9/9/9 16/16/16 7/7/7
f 15/15/15 16/16/16 9/9/9
f 15/15/15 14/14/14 17/17/17
f 14/14/14 18/18/18 17/17/17
f 17/17/17 18/18/18 19/19/19
f 20/20/20 16/16/16 15/15/15
f 7/7/7 16/16/16 20/20/20
f 17/17/17 20/20/20 15/15/15
f 21/21/21 7/7/7 20/20/20
f 21/21/21 20/20/20 22/22/22
f 7/7/7 21/21/21 8/8/8
f 21/21/21 22/22/22 8/8/8
f 22/22/22 23/23/23 8/8/8
f 24/24/24 23/23/23 22/22/22
f 20/20/20 17/17/17 25/25/25
f 20/20/20 25/25/25 22/22/22
f 26/26/26 17/17/17 19/19/19
f 17/17/17 26/26/26 25/25/25
f 26/26/26 19/19/19 27/27/27
f 25/25/25 26/26/26 27/27/27
f 19/19/19 28/28/28 27/27/27
f 28/28/28 29/29/29 27/27/27
f 29/29/29 30/30/30 27/27/27
f 31/31/31 25/25/25 27/27/27
f 27/27/27 30/30/30 31/31/31
f 22/22/22 25/25/25 31/31/31
f 30/30/30 32/32/32 31/31/31
f 33/33/33 24/24/24 22/22/22
f 33/33/33 22/22/22 31/31/31
f 33/33/33 31/31/31 32/32/32
f 34/34/34 24/24/24 33/33/33
f 35/35/35 33/33/33 32/32/32
f 35/35/35 34/34/34 33/33/33
g pm0936_00_EyeSkin_1
f 38/38/38 37/37/37 36/36/36
f 38/38/38 39/39/39 37/37/37
f 39/39/39 40/40/40 37/37/37
f 37/37/37 40/40/40 41/41/41
f 42/42/42 37/37/37 41/41/41
f 42/42/42 41/41/41 43/43/43
f 37/37/37 44/44/44 36/36/36
f 44/44/44 37/37/37 42/42/42
f 44/44/44 45/45/45 36/36/36
f 45/45/45 46/46/46 36/36/36
f 45/45/45 47/47/47 46/46/46
f 47/47/47 45/45/45 48/48/48
f 48/48/48 45/45/45 49/49/49
f 50/50/50 45/45/45 44/44/44
f 45/45/45 50/50/50 49/49/49
f 51/51/51 44/44/44 42/42/42
f 51/51/51 50/50/50 44/44/44
f 49/49/49 50/50/50 52/52/52
f 53/53/53 49/49/49 52/52/52
f 53/53/53 52/52/52 54/54/54
f 51/51/51 55/55/55 50/50/50
f 51/51/51 42/42/42 55/55/55
f 55/55/55 52/52/52 50/50/50
f 42/42/42 56/56/56 55/55/55
f 55/55/55 56/56/56 57/57/57
f 56/56/56 42/42/42 43/43/43
f 57/57/57 56/56/56 43/43/43
f 58/58/58 57/57/57 43/43/43
f 58/58/58 59/59/59 57/57/57
f 52/52/52 55/55/55 60/60/60
f 60/60/60 55/55/55 57/57/57
f 52/52/52 61/61/61 54/54/54
f 61/61/61 52/52/52 60/60/60
f 54/54/54 61/61/61 62/62/62
f 61/61/61 60/60/60 62/62/62
f 63/63/63 54/54/54 62/62/62
f 64/64/64 63/63/63 62/62/62
f 65/65/65 64/64/64 62/62/62
f 60/60/60 66/66/66 62/62/62
f 65/65/65 62/62/62 66/66/66
f 60/60/60 57/57/57 66/66/66
f 67/67/67 65/65/65 66/66/66
f 59/59/59 68/68/68 57/57/57
f 57/57/57 68/68/68 66/66/66
f 66/66/66 68/68/68 67/67/67
f 59/59/59 69/69/69 68/68/68
f 68/68/68 70/70/70 67/67/67
f 69/69/69 70/70/70 68/68/68
