g pm0978_12_RiceASkin_rx
v 1.2500891E-17 0.014992934 0.0042525656
v -0.009681616 0.015223486 1.4901161E-10
v 1.2498174E-17 0.015962644 1.4901161E-10
v -0.009681616 0.014319098 0.003941904
v 1.3085458E-17 0.012710683 0.007647539
v -0.018963413 0.012903726 5.9604643E-10
v -0.009681616 0.012190665 0.0071080485
v 1.4037722E-17 0.0091112945 0.010040804
v -0.017539099 0.012309743 0.0036664172
v -0.009681616 0.008833886 0.009340011
v 1.4928668E-17 0.004995384 0.010853682
v -0.022240417 0.009007204 0.0040425793
v -0.024158226 0.009307381 1.4901161E-10
v -0.015175369 0.011228362 0.0060790563
v -0.017556243 0.008737568 0.007233834
v -0.009715987 0.004995367 0.01013618
v 1.565354E-17 0.0008794463 0.010040804
v -0.023859726 0.004995375 0.004369842
v -0.025899824 0.004995375 -1.104136E-25
v -0.01883528 0.004995375 0.007797055
v -0.009681616 0.0011568454 0.009339957
v 1.6323043E-17 -0.0027199476 0.007647539
v -0.022240417 0.0009835609 0.0040425793
v -0.024158226 0.00068336516 1.4901161E-10
v -0.017556243 0.0012531658 0.0072338292
v -0.009681616 -0.0021999395 0.0071080485
v 1.6976499E-17 -0.0050021945 0.0042525656
v -0.017539099 -0.0023190067 0.0036664172
v -0.018963413 -0.002912971 5.9604643E-10
v -0.009681616 -0.0052327076 1.4901161E-10
v -0.015175369 -0.0012376071 0.0060790563
v -0.009681616 -0.004328364 0.003941877
v 1.7313243E-17 -0.005971911 1.4901161E-10
v 1.6820365E-17 -0.0050021945 -0.004252565
v -0.009681616 -0.0052327076 1.4901161E-10
v 1.7313243E-17 -0.005971911 1.4901161E-10
v -0.009681616 -0.004328364 -0.003941876
v 1.642585E-17 -0.0027199476 -0.007647539
v -0.018963413 -0.002912971 5.9604643E-10
v -0.009681616 -0.0021999395 -0.007108048
v 1.5965549E-17 0.0008794459 -0.010040803
v -0.017539099 -0.0023190067 -0.0036664165
v -0.009681616 0.0011568454 -0.009339957
v 1.5110262E-17 0.004995384 -0.010853682
v -0.022240417 0.0009835609 -0.004042579
v -0.024158226 0.00068336516 1.4901161E-10
v -0.015175369 -0.0012376071 -0.0060790563
v -0.017556243 0.0012531658 -0.0072338292
v -0.009715987 0.004995367 -0.01013618
v 1.4086343E-17 0.0091112945 -0.010040803
v -0.023859726 0.004995375 -0.004369841
v -0.025899824 0.004995375 -1.104136E-25
v -0.01883528 0.004995375 -0.007797055
v -0.009681616 0.008833886 -0.00934001
v 1.3312435E-17 0.012710683 -0.007647539
v -0.022240417 0.009007204 -0.004042579
v -0.024158226 0.009307381 1.4901161E-10
v -0.017556243 0.008737568 -0.007233834
v -0.009681616 0.012190665 -0.007108048
v 1.2980308E-17 0.014992934 -0.004252565
v -0.017539099 0.012309743 -0.0036664165
v -0.018963413 0.012903726 5.9604643E-10
v -0.009681616 0.015223486 1.4901161E-10
v -0.015175369 0.011228362 -0.0060790563
v -0.009681616 0.014319098 -0.0039419034
v 1.2498174E-17 0.015962644 1.4901161E-10
v 1.2500891E-17 0.014992934 0.0042525656
v 1.2498174E-17 0.015962644 1.4901161E-10
v 0.009681616 0.015223486 1.4901161E-10
v 0.009681616 0.014319098 0.003941904
v 1.3085458E-17 0.012710683 0.007647539
v 0.018963413 0.012903726 5.9604643E-10
v 0.009681616 0.012190665 0.0071080485
v 1.4037722E-17 0.0091112945 0.010040804
v 0.017539099 0.012309743 0.0036664172
v 0.009681616 0.008833886 0.009340011
v 1.4928668E-17 0.004995384 0.010853682
v 0.022240417 0.009007204 0.0040425793
v 0.024158226 0.009307381 1.4901161E-10
v 0.015175369 0.011228362 0.0060790563
v 0.017556243 0.008737568 0.007233834
v 0.009715987 0.004995367 0.01013618
v 1.565354E-17 0.0008794463 0.010040804
v 0.023859726 0.004995375 0.004369842
v 0.025899824 0.004995375 2.6786843E-19
v 0.01883528 0.004995375 0.007797055
v 0.009681616 0.0011568454 0.009339957
v 1.6323043E-17 -0.0027199476 0.007647539
v 0.022240417 0.0009835609 0.0040425793
v 0.024158226 0.00068336516 1.4901161E-10
v 0.017556243 0.0012531658 0.0072338292
v 0.009681616 -0.0021999395 0.0071080485
v 1.6976499E-17 -0.0050021945 0.0042525656
v 0.017539099 -0.0023190067 0.0036664172
v 0.018963413 -0.002912971 5.9604643E-10
v 0.009681616 -0.0052327076 1.4901161E-10
v 0.015175369 -0.0012376071 0.0060790563
v 0.009681616 -0.004328364 0.003941877
v 1.7313243E-17 -0.005971911 1.4901161E-10
v 1.6820365E-17 -0.0050021945 -0.004252565
v 1.7313243E-17 -0.005971911 1.4901161E-10
v 0.009681616 -0.0052327076 1.4901161E-10
v 0.009681616 -0.004328364 -0.003941876
v 1.642585E-17 -0.0027199476 -0.007647539
v 0.018963413 -0.002912971 5.9604643E-10
v 0.009681616 -0.0021999395 -0.007108048
v 1.5965549E-17 0.0008794459 -0.010040803
v 0.017539099 -0.0023190067 -0.0036664165
v 0.009681616 0.0011568454 -0.009339957
v 1.5110262E-17 0.004995384 -0.010853682
v 0.022240417 0.0009835609 -0.004042579
v 0.024158226 0.00068336516 1.4901161E-10
v 0.015175369 -0.0012376071 -0.0060790563
v 0.017556243 0.0012531658 -0.0072338292
v 0.009715987 0.004995367 -0.01013618
v 1.4086343E-17 0.0091112945 -0.010040803
v 0.023859726 0.004995375 -0.004369841
v 0.025899824 0.004995375 2.6786843E-19
v 0.01883528 0.004995375 -0.007797055
v 0.009681616 0.008833886 -0.00934001
v 1.3312435E-17 0.012710683 -0.007647539
v 0.022240417 0.009007204 -0.004042579
v 0.024158226 0.009307381 1.4901161E-10
v 0.017556243 0.008737568 -0.007233834
v 0.009681616 0.012190665 -0.007108048
v 1.2980308E-17 0.014992934 -0.004252565
v 0.017539099 0.012309743 -0.0036664165
v 0.018963413 0.012903726 5.9604643E-10
v 0.009681616 0.015223486 1.4901161E-10
v 0.015175369 0.011228362 -0.0060790563
v 0.009681616 0.014319098 -0.0039419034
v 1.2498174E-17 0.015962644 1.4901161E-10
vt 1 0.6497652
vt 0.95619667 0.65578544
vt 1 0.6590416
vt 0.96020293 0.6482465
vt 1 0.6416246
vt 0.9169338 0.6461492
vt 0.9629333 0.64092237
vt 1 0.6332888
vt 0.92955387 0.6416148
vt 0.9647404 0.63308764
vt 1 0.6253113
vt 0.91472626 0.6332174
vt 0.89822304 0.63529706
vt 0.94188476 0.6385464
vt 0.93542814 0.63257915
vt 0.96520114 0.6252838
vt 1 0.61727303
vt 0.91038275 0.6252838
vt 0.8933263 0.6252838
vt 0.93183637 0.6252838
vt 0.96475184 0.6174855
vt 1 0.6089254
vt 0.9147042 0.61732507
vt 0.8981786 0.61524194
vt 0.935421 0.6179748
vt 0.96296513 0.6096593
vt 1 0.6007597
vt 0.92952967 0.60890585
vt 0.91690147 0.6043502
vt 0.95604527 0.59460473
vt 0.94188213 0.61200446
vt 0.9602721 0.6023489
vt 1 0.5914331
vt 1 0.7356535
vt 0.95604527 0.7417581
vt 1 0.74497056
vt 0.9603995 0.7341281
vt 1 0.7274784
vt 0.91690147 0.7320127
vt 0.9632987 0.726756
vt 1 0.7191223
vt 0.93013823 0.7275187
vt 0.96500456 0.7188848
vt 1 0.71109354
vt 0.9165977 0.7191112
vt 0.89817894 0.72112095
vt 0.9427403 0.7244636
vt 0.9372088 0.7184935
vt 0.9654726 0.7110752
vt 1 0.7031257
vt 0.9126226 0.7111009
vt 0.89332664 0.7110791
vt 0.9337555 0.7110879
vt 0.96506417 0.70333326
vt 1.0000001 0.6948098
vt 0.9166249 0.70309854
vt 0.8982228 0.70106596
vt 0.93723524 0.7037225
vt 0.96342933 0.6955434
vt 1 0.68668115
vt 0.9301876 0.69472456
vt 0.9169339 0.69021356
vt 0.9561969 0.6805773
vt 0.9428071 0.6977937
vt 0.9606333 0.68827814
vt 1.0000001 0.67739177
vt 1 0.6497652
vt 1 0.6590416
vt 0.95619655 0.6557855
vt 0.9602028 0.64824677
vt 1 0.6416246
vt 0.9169338 0.6461491
vt 0.9629333 0.64092225
vt 1 0.6332888
vt 0.92955387 0.6416147
vt 0.9647404 0.63308775
vt 1 0.6253113
vt 0.91472626 0.6332173
vt 0.89822304 0.63529706
vt 0.94188476 0.6385463
vt 0.93542814 0.632579
vt 0.96520114 0.6252838
vt 1 0.61727303
vt 0.91038275 0.6252838
vt 0.8933263 0.6252838
vt 0.93183637 0.6252838
vt 0.96475184 0.6174855
vt 1 0.6089254
vt 0.9147042 0.6173248
vt 0.8981786 0.6152418
vt 0.935421 0.6179748
vt 0.96296513 0.6096592
vt 1 0.6007597
vt 0.92952967 0.60890573
vt 0.91690147 0.6043502
vt 0.9560454 0.5946047
vt 0.94188213 0.61200434
vt 0.9602721 0.6023491
vt 1 0.5914331
vt 1 0.7356535
vt 1 0.74497056
vt 0.95604527 0.74175835
vt 0.9603995 0.7341281
vt 1 0.7274784
vt 0.91690123 0.7320129
vt 0.96329844 0.7267562
vt 1 0.7191223
vt 0.930138 0.7275187
vt 0.96500444 0.7188848
vt 1 0.71109354
vt 0.9165975 0.7191113
vt 0.8981787 0.72112095
vt 0.9427401 0.72446346
vt 0.93720853 0.7184934
vt 0.96547246 0.7110752
vt 1 0.7031257
vt 0.91262233 0.7111009
vt 0.8933264 0.71107924
vt 0.9337553 0.7110879
vt 0.96506405 0.70333326
vt 0.9999999 0.6948098
vt 0.91662467 0.70309865
vt 0.89822257 0.70106596
vt 0.937235 0.7037225
vt 0.9634291 0.6955434
vt 1 0.68668115
vt 0.9301871 0.6947248
vt 0.9169334 0.6902137
vt 0.95619667 0.6805773
vt 0.9428066 0.69779384
vt 0.96063316 0.688278
vt 0.9999999 0.67739177
vn 1.2829328E-07 0.920817 0.38999477
vn -0.19486879 0.98082924 1.2999311E-07
vn -0 1 1.2861652E-07
vn -0.17892405 0.90030617 0.39678085
vn 1.2785497E-07 0.7036097 0.71058667
vn -0.4566 0.8896721 4.1093773E-07
vn -0.15643011 0.6950416 0.7017456
vn 2.5614756E-07 0.38352615 0.92353004
vn -0.3963643 0.8103003 0.431635
vn -0.17898564 0.3901127 0.9032033
vn 1.2830876E-07 -1.2830876E-06 1
vn -0.6497632 0.53297913 0.5419789
vn -0.79534155 0.60616153 1.5492402E-07
vn -0.3039632 0.6700195 0.67725927
vn -0.3948851 0.42362803 0.8152332
vn -0.19436735 -1.2309126E-06 0.98092884
vn 2.5614736E-07 -0.38352743 0.9235295
vn -0.7896144 -3.0841161E-07 0.61360335
vn -1 0 1.6762182E-07
vn -0.45221367 -8.8522654E-07 0.8919096
vn -0.17898563 -0.39011353 0.903203
vn 1.2785496E-07 -0.7036101 0.7105862
vn -0.64976346 -0.5329793 0.5419783
vn -0.79534155 -0.6061616 -4.6477209E-07
vn -0.3948849 -0.4236291 0.8152327
vn -0.15642993 -0.695042 0.7017453
vn 1.2829332E-07 -0.9208175 0.38999373
vn -0.39636457 -0.81030077 0.4316339
vn -0.45660025 -0.8896719 -2.739583E-07
vn -0.19486894 -0.98082924 -3.249825E-07
vn -0.30396324 -0.67001975 0.67725915
vn -0.1789245 -0.90030646 0.39678007
vn -0 -1 -1.9292463E-07
vn -1.9243998E-07 -0.9208175 -0.38999373
vn -0.19486894 -0.98082924 -3.249825E-07
vn -0 -1 -1.9292463E-07
vn -0.17892459 -0.9003062 -0.39678025
vn -1.9178243E-07 -0.70361 -0.71058637
vn -0.45660025 -0.8896719 -2.739583E-07
vn -0.15643021 -0.69504166 -0.70174545
vn -2.561474E-07 -0.38352722 -0.9235295
vn -0.39636457 -0.81030047 -0.43163437
vn -0.17898583 -0.39011344 -0.903203
vn -2.566175E-07 -1.1547788E-06 -1
vn -0.6497636 -0.53297925 -0.54197824
vn -0.79534155 -0.6061616 -4.6477209E-07
vn -0.30396342 -0.67001945 -0.67725927
vn -0.394885 -0.42362872 -0.8152328
vn -0.19436762 -9.71773E-07 -0.9809287
vn -1.9211065E-07 0.38352624 -0.9235299
vn -0.7896142 -3.0841147E-07 -0.6136036
vn -1 0 1.6762182E-07
vn -0.45221394 -5.447546E-07 -0.89190954
vn -0.17898592 0.39011252 -0.90320337
vn -1.9178239E-07 0.7036098 -0.7105865
vn -0.64976346 0.5329793 -0.54197836
vn -0.79534155 0.60616153 1.5492402E-07
vn -0.39488536 0.4236282 -0.81523293
vn -0.15643016 0.69504154 -0.7017457
vn -1.9243997E-07 0.9208172 -0.38999453
vn -0.39636433 0.8103005 -0.43163443
vn -0.4566 0.8896721 4.1093773E-07
vn -0.19486879 0.98082924 1.2999311E-07
vn -0.30396336 0.6700195 -0.6772593
vn -0.17892423 0.90030605 -0.39678112
vn -0 1 1.2861652E-07
vn 1.2829328E-07 0.920817 0.38999477
vn -0 1 1.2861652E-07
vn 0.19486888 0.98082924 3.8997928E-07
vn 0.17892419 0.900306 0.39678115
vn 1.2785497E-07 0.7036097 0.71058667
vn 0.4565998 0.8896722 1.3697925E-07
vn 0.15643002 0.6950415 0.7017458
vn 2.5614756E-07 0.38352615 0.92353004
vn 0.39636442 0.8103004 0.43163487
vn 0.17898586 0.3901124 0.90320337
vn 1.2830876E-07 -1.2830876E-06 1
vn 0.6497635 0.53297883 0.5419788
vn 0.7953416 0.6061615 6.1969627E-07
vn 0.30396342 0.6700193 0.67725945
vn 0.39488542 0.42362773 0.8152332
vn 0.19436772 -1.2956974E-06 0.9809287
vn 2.5614736E-07 -0.38352743 0.9235295
vn 0.78961444 -6.16823E-07 0.61360335
vn 1 -2.514328E-07 1.6762186E-07
vn 0.45221394 -8.8522637E-07 0.89190954
vn 0.17898588 -0.3901134 0.903203
vn 1.2785496E-07 -0.7036101 0.7105862
vn 0.6497637 -0.53297937 0.541978
vn 0.7953414 -0.6061618 -2.3238606E-07
vn 0.39488506 -0.4236289 0.8152327
vn 0.15643027 -0.69504184 0.70174533
vn 1.2829332E-07 -0.9208175 0.38999373
vn 0.39636466 -0.81030077 0.4316339
vn 0.4566001 -0.88967204 -3.4244795E-07
vn 0.19486889 -0.98082924 1.2999301E-07
vn 0.3039635 -0.6700197 0.6772591
vn 0.17892474 -0.9003062 0.3967803
vn -0 -1 -1.9292463E-07
vn -1.9243998E-07 -0.9208175 -0.38999373
vn -0 -1 -1.9292463E-07
vn 0.19486889 -0.98082924 1.2999301E-07
vn 0.17892452 -0.90030646 -0.39678004
vn -1.9178243E-07 -0.70361 -0.71058637
vn 0.4566001 -0.88967204 -3.4244795E-07
vn 0.15642993 -0.695042 -0.7017453
vn -2.561474E-07 -0.38352722 -0.9235295
vn 0.39636427 -0.81030065 -0.43163446
vn 0.17898563 -0.39011353 -0.903203
vn -2.566175E-07 -1.1547788E-06 -1
vn 0.6497636 -0.5329793 -0.5419782
vn 0.7953414 -0.6061618 -2.3238606E-07
vn 0.30396327 -0.67001957 -0.67725915
vn 0.3948849 -0.4236288 -0.8152328
vn 0.19436745 -1.2956976E-06 -0.98092884
vn -1.9211065E-07 0.38352624 -0.9235299
vn 0.78961414 -4.626173E-07 -0.6136038
vn 1 -2.514328E-07 1.6762186E-07
vn 0.45221367 -6.1284913E-07 -0.8919097
vn 0.17898573 0.39011252 -0.90320337
vn -1.9178239E-07 0.7036098 -0.7105865
vn 0.6497633 0.53297925 -0.54197854
vn 0.7953416 0.6061615 6.1969627E-07
vn 0.3948851 0.42362797 -0.8152332
vn 0.15642989 0.6950416 -0.7017456
vn -1.9243997E-07 0.9208172 -0.38999453
vn 0.3963643 0.8103005 -0.43163455
vn 0.4565998 0.8896722 1.3697925E-07
vn 0.19486888 0.98082924 3.8997928E-07
vn 0.30396327 0.6700193 -0.6772594
vn 0.17892411 0.90030617 -0.39678097
vn -0 1 1.2861652E-07
g pm0978_12_RiceASkin_rx_0
f 3/3/3 2/2/2 1/1/1
f 2/2/2 4/4/4 1/1/1
f 1/1/1 4/4/4 5/5/5
f 2/2/2 6/6/6 4/4/4
f 4/4/4 7/7/7 5/5/5
f 5/5/5 7/7/7 8/8/8
f 6/6/6 9/9/9 4/4/4
f 4/4/4 9/9/9 7/7/7
f 7/7/7 10/10/10 8/8/8
f 8/8/8 10/10/10 11/11/11
f 9/9/9 6/6/6 12/12/12
f 6/6/6 13/13/13 12/12/12
f 9/9/9 14/14/14 7/7/7
f 7/7/7 14/14/14 10/10/10
f 14/14/14 9/9/9 15/15/15
f 14/14/14 15/15/15 10/10/10
f 9/9/9 12/12/12 15/15/15
f 10/10/10 16/16/16 11/11/11
f 10/10/10 15/15/15 16/16/16
f 11/11/11 16/16/16 17/17/17
f 12/12/12 13/13/13 18/18/18
f 13/13/13 19/19/19 18/18/18
f 15/15/15 12/12/12 20/20/20
f 15/15/15 20/20/20 16/16/16
f 12/12/12 18/18/18 20/20/20
f 16/16/16 21/21/21 17/17/17
f 16/16/16 20/20/20 21/21/21
f 17/17/17 21/21/21 22/22/22
f 18/18/18 19/19/19 23/23/23
f 19/19/19 24/24/24 23/23/23
f 20/20/20 18/18/18 25/25/25
f 20/20/20 25/25/25 21/21/21
f 18/18/18 23/23/23 25/25/25
f 21/21/21 26/26/26 22/22/22
f 21/21/21 25/25/25 26/26/26
f 22/22/22 26/26/26 27/27/27
f 23/23/23 24/24/24 28/28/28
f 24/24/24 29/29/29 28/28/28
f 28/28/28 29/29/29 30/30/30
f 25/25/25 23/23/23 31/31/31
f 25/25/25 31/31/31 26/26/26
f 23/23/23 28/28/28 31/31/31
f 26/26/26 32/32/32 27/27/27
f 26/26/26 31/31/31 32/32/32
f 31/31/31 28/28/28 32/32/32
f 32/32/32 28/28/28 30/30/30
f 27/27/27 32/32/32 33/33/33
f 32/32/32 30/30/30 33/33/33
f 36/36/36 35/35/35 34/34/34
f 35/35/35 37/37/37 34/34/34
f 34/34/34 37/37/37 38/38/38
f 35/35/35 39/39/39 37/37/37
f 37/37/37 40/40/40 38/38/38
f 38/38/38 40/40/40 41/41/41
f 39/39/39 42/42/42 37/37/37
f 37/37/37 42/42/42 40/40/40
f 40/40/40 43/43/43 41/41/41
f 41/41/41 43/43/43 44/44/44
f 45/45/45 42/42/42 39/39/39
f 46/46/46 45/45/45 39/39/39
f 42/42/42 47/47/47 40/40/40
f 40/40/40 47/47/47 43/43/43
f 48/48/48 47/47/47 42/42/42
f 47/47/47 48/48/48 43/43/43
f 45/45/45 48/48/48 42/42/42
f 43/43/43 49/49/49 44/44/44
f 43/43/43 48/48/48 49/49/49
f 44/44/44 49/49/49 50/50/50
f 51/51/51 45/45/45 46/46/46
f 52/52/52 51/51/51 46/46/46
f 53/53/53 48/48/48 45/45/45
f 48/48/48 53/53/53 49/49/49
f 51/51/51 53/53/53 45/45/45
f 49/49/49 54/54/54 50/50/50
f 49/49/49 53/53/53 54/54/54
f 50/50/50 54/54/54 55/55/55
f 56/56/56 51/51/51 52/52/52
f 57/57/57 56/56/56 52/52/52
f 58/58/58 53/53/53 51/51/51
f 53/53/53 58/58/58 54/54/54
f 56/56/56 58/58/58 51/51/51
f 54/54/54 59/59/59 55/55/55
f 54/54/54 58/58/58 59/59/59
f 55/55/55 59/59/59 60/60/60
f 61/61/61 56/56/56 57/57/57
f 62/62/62 61/61/61 57/57/57
f 61/61/61 62/62/62 63/63/63
f 64/64/64 58/58/58 56/56/56
f 58/58/58 64/64/64 59/59/59
f 61/61/61 64/64/64 56/56/56
f 59/59/59 65/65/65 60/60/60
f 59/59/59 64/64/64 65/65/65
f 64/64/64 61/61/61 65/65/65
f 65/65/65 61/61/61 63/63/63
f 60/60/60 65/65/65 66/66/66
f 65/65/65 63/63/63 66/66/66
f 69/69/69 68/68/68 67/67/67
f 70/70/70 69/69/69 67/67/67
f 70/70/70 67/67/67 71/71/71
f 72/72/72 69/69/69 70/70/70
f 73/73/73 70/70/70 71/71/71
f 73/73/73 71/71/71 74/74/74
f 75/75/75 72/72/72 70/70/70
f 75/75/75 70/70/70 73/73/73
f 76/76/76 73/73/73 74/74/74
f 76/76/76 74/74/74 77/77/77
f 72/72/72 75/75/75 78/78/78
f 79/79/79 72/72/72 78/78/78
f 80/80/80 75/75/75 73/73/73
f 80/80/80 73/73/73 76/76/76
f 75/75/75 80/80/80 81/81/81
f 81/81/81 80/80/80 76/76/76
f 78/78/78 75/75/75 81/81/81
f 82/82/82 76/76/76 77/77/77
f 81/81/81 76/76/76 82/82/82
f 82/82/82 77/77/77 83/83/83
f 79/79/79 78/78/78 84/84/84
f 85/85/85 79/79/79 84/84/84
f 78/78/78 81/81/81 86/86/86
f 86/86/86 81/81/81 82/82/82
f 84/84/84 78/78/78 86/86/86
f 87/87/87 82/82/82 83/83/83
f 86/86/86 82/82/82 87/87/87
f 87/87/87 83/83/83 88/88/88
f 85/85/85 84/84/84 89/89/89
f 90/90/90 85/85/85 89/89/89
f 84/84/84 86/86/86 91/91/91
f 91/91/91 86/86/86 87/87/87
f 89/89/89 84/84/84 91/91/91
f 92/92/92 87/87/87 88/88/88
f 91/91/91 87/87/87 92/92/92
f 92/92/92 88/88/88 93/93/93
f 90/90/90 89/89/89 94/94/94
f 95/95/95 90/90/90 94/94/94
f 95/95/95 94/94/94 96/96/96
f 89/89/89 91/91/91 97/97/97
f 97/97/97 91/91/91 92/92/92
f 94/94/94 89/89/89 97/97/97
f 98/98/98 92/92/92 93/93/93
f 97/97/97 92/92/92 98/98/98
f 94/94/94 97/97/97 98/98/98
f 94/94/94 98/98/98 96/96/96
f 98/98/98 93/93/93 99/99/99
f 96/96/96 98/98/98 99/99/99
f 102/102/102 101/101/101 100/100/100
f 103/103/103 102/102/102 100/100/100
f 103/103/103 100/100/100 104/104/104
f 105/105/105 102/102/102 103/103/103
f 106/106/106 103/103/103 104/104/104
f 106/106/106 104/104/104 107/107/107
f 108/108/108 105/105/105 103/103/103
f 108/108/108 103/103/103 106/106/106
f 109/109/109 106/106/106 107/107/107
f 109/109/109 107/107/107 110/110/110
f 108/108/108 111/111/111 105/105/105
f 111/111/111 112/112/112 105/105/105
f 113/113/113 108/108/108 106/106/106
f 113/113/113 106/106/106 109/109/109
f 113/113/113 114/114/114 108/108/108
f 114/114/114 113/113/113 109/109/109
f 114/114/114 111/111/111 108/108/108
f 115/115/115 109/109/109 110/110/110
f 114/114/114 109/109/109 115/115/115
f 115/115/115 110/110/110 116/116/116
f 111/111/111 117/117/117 112/112/112
f 117/117/117 118/118/118 112/112/112
f 114/114/114 119/119/119 111/111/111
f 119/119/119 114/114/114 115/115/115
f 119/119/119 117/117/117 111/111/111
f 120/120/120 115/115/115 116/116/116
f 119/119/119 115/115/115 120/120/120
f 120/120/120 116/116/116 121/121/121
f 117/117/117 122/122/122 118/118/118
f 122/122/122 123/123/123 118/118/118
f 119/119/119 124/124/124 117/117/117
f 124/124/124 119/119/119 120/120/120
f 124/124/124 122/122/122 117/117/117
f 125/125/125 120/120/120 121/121/121
f 124/124/124 120/120/120 125/125/125
f 125/125/125 121/121/121 126/126/126
f 122/122/122 127/127/127 123/123/123
f 127/127/127 128/128/128 123/123/123
f 128/128/128 127/127/127 129/129/129
f 124/124/124 130/130/130 122/122/122
f 130/130/130 124/124/124 125/125/125
f 130/130/130 127/127/127 122/122/122
f 131/131/131 125/125/125 126/126/126
f 130/130/130 125/125/125 131/131/131
f 127/127/127 130/130/130 131/131/131
f 127/127/127 131/131/131 129/129/129
f 131/131/131 126/126/126 132/132/132
f 129/129/129 131/131/131 132/132/132
