g pm1013_11_DropASkin_tz2
v -0.00227811 0.2645001 -3.638599E-19
v -1.262177E-31 0.2645619 0.002274041
v 2.700217E-09 0.264047 -3.638599E-19
v -1.262177E-31 0.2645619 -0.002274041
v -0.002147638 0.2649453 0.002147638
v -0.002002052 0.266052 0.003948306
v -0.003948306 0.266052 0.002002052
v -1.262177E-31 0.2657923 0.004207652
v -1.262177E-31 0.2677259 0.005438078
v -0.002147638 0.2649453 -0.002147638
v -0.002002052 0.266052 -0.003948306
v -0.003948306 0.266052 -0.002002052
v -1.262177E-31 0.2657923 -0.004207652
v -1.262177E-31 0.2677259 -0.005438078
v -0.004209377 0.2657906 -3.638599E-19
v -0.005499824 0.2677219 -3.638599E-19
v -0.002149647 0.2678522 0.005056475
v -0.002280015 0.27 0.005504459
v -0.003950881 0.2679982 0.003950881
v -1.262177E-31 0.27 0.005957955
v -1.262177E-31 0.272274 0.005438078
v -0.003367919 0.2666332 0.003367919
v -0.005056475 0.2678522 0.002149647
v -0.005504459 0.27 0.002280015
v -0.004212931 0.27 0.004212931
v -0.003950881 0.2720017 0.003950881
v -0.002149647 0.2721478 0.005056475
v -0.002002052 0.273948 0.003948306
v -1.262177E-31 0.2742077 0.004207652
v -1.262177E-31 0.275438 0.002274041
v -0.003367919 0.2733668 0.003367919
v -0.003948306 0.273948 0.002002052
v -0.002147638 0.2750547 0.002147638
v -0.00227811 0.2754998 -3.638599E-19
v -1.262177E-31 0.275953 -3.638599E-19
v -1.262177E-31 0.275438 -0.002274041
v -0.005056475 0.2721478 0.002149647
v -0.005499876 0.2722781 -3.638599E-19
v -0.004209377 0.2742094 -3.638599E-19
v -0.003948306 0.273948 -0.002002052
v -0.002147638 0.2750547 -0.002147638
v -0.002002052 0.273948 -0.003948306
v -1.262177E-31 0.2742077 -0.004207652
v -1.262177E-31 0.272274 -0.005438078
v -0.005957955 0.27 0
v -0.005504459 0.27 -0.002280015
v -0.005056475 0.2721478 -0.002149647
v -0.003950881 0.2720017 -0.003950881
v -0.003367919 0.2733668 -0.003367919
v -0.002149647 0.2721478 -0.005056475
v -0.002280015 0.27 -0.005504459
v -1.262177E-31 0.27 -0.005957955
v -0.005056475 0.2678522 -0.002149647
v -0.003950881 0.2679982 -0.003950881
v -0.004212931 0.27 -0.004212931
v -0.002149647 0.2678522 -0.005056475
v -0.003367919 0.2666332 -0.003367919
v 0.00227811 0.2645002 -3.638599E-19
v -1.262177E-31 0.2645619 -0.002274041
v 2.700217E-09 0.264047 -3.638599E-19
v -1.262177E-31 0.2645619 0.002274041
v 0.002147638 0.2649453 -0.002147638
v 0.002002052 0.266052 -0.003948306
v 0.003948306 0.266052 -0.002002052
v -1.262177E-31 0.2657923 -0.004207652
v -1.262177E-31 0.2677259 -0.005438078
v 0.002147638 0.2649453 0.002147638
v 0.002002052 0.266052 0.003948306
v 0.003948306 0.266052 0.002002052
v -1.262177E-31 0.2657923 0.004207652
v -1.262177E-31 0.2677259 0.005438078
v 0.004209377 0.2657906 -3.638599E-19
v 0.005499876 0.2677219 -3.638599E-19
v 0.002149647 0.2678522 -0.005056475
v 0.002280015 0.27 -0.005504459
v 0.003950881 0.2679982 -0.003950881
v -1.262177E-31 0.27 -0.005957955
v -1.262177E-31 0.272274 -0.005438078
v 0.003367919 0.2666332 -0.003367919
v 0.005056475 0.2678522 -0.002149647
v 0.005504459 0.27 -0.002280015
v 0.004212931 0.27 -0.004212931
v 0.003950881 0.2720017 -0.003950881
v 0.002149647 0.2721478 -0.005056475
v 0.002002052 0.273948 -0.003948306
v -1.262177E-31 0.2742077 -0.004207652
v -1.262177E-31 0.275438 -0.002274041
v 0.003367919 0.2733668 -0.003367919
v 0.003948306 0.273948 -0.002002052
v 0.002147638 0.2750547 -0.002147638
v 0.00227811 0.2754999 -3.638599E-19
v -1.262177E-31 0.275953 -3.638599E-19
v -1.262177E-31 0.275438 0.002274041
v 0.005056475 0.2721478 -0.002149647
v 0.005499824 0.2722781 -3.638599E-19
v 0.004209377 0.2742094 -3.638599E-19
v 0.003948306 0.273948 0.002002052
v 0.002147638 0.2750547 0.002147638
v 0.002002052 0.273948 0.003948306
v -1.262177E-31 0.2742077 0.004207652
v -1.262177E-31 0.272274 0.005438078
v 0.005957955 0.27 2.702427E-09
v 0.005504459 0.27 0.002280015
v 0.005056475 0.2721478 0.002149647
v 0.003950881 0.2720017 0.003950881
v 0.003367919 0.2733668 0.003367919
v 0.002149647 0.2721478 0.005056475
v 0.002280015 0.27 0.005504459
v -1.262177E-31 0.27 0.005957955
v 0.005056475 0.2678522 0.002149647
v 0.003950881 0.2679982 0.003950881
v 0.004212931 0.27 0.004212931
v 0.002149647 0.2678522 0.005056475
v 0.003367919 0.2666332 0.003367919
vt 0.07030849 0.9156151
vt 0.07563774 0.9130176
vt 0.07030697 0.9117351
vt 0.06497717 0.9130217
vt 0.07433259 0.9162377
vt 0.07783014 0.9182569
vt 0.07358788 0.9193379
vt 0.08001199 0.9160724
vt 0.08307205 0.9204439
vt 0.06628488 0.9162411
vt 0.06278892 0.9182628
vt 0.06703201 0.9193406
vt 0.06060538 0.9160802
vt 0.05754873 0.920454
vt 0.07030988 0.9191474
vt 0.07031114 0.9224358
vt 0.07985133 0.9217533
vt 0.08047965 0.925777
vt 0.07675298 0.9225017
vt 0.08436237 0.9257756
vt 0.08307631 0.9311085
vt 0.07613666 0.9199525
vt 0.07358159 0.9225105
vt 0.0736569 0.9257798
vt 0.07694602 0.9257786
vt 0.0767556 0.9290558
vt 0.07985453 0.9298015
vt 0.07783617 0.9332995
vt 0.0800198 0.9354821
vt 0.07564799 0.9385406
vt 0.0761413 0.9316051
vt 0.07359302 0.9322218
vt 0.07434019 0.9353213
vt 0.07031664 0.9359474
vt 0.07031824 0.9398274
vt 0.06498739 0.9385449
vt 0.07358424 0.9290493
vt 0.07031386 0.9291267
vt 0.0703152 0.932415
vt 0.06703717 0.9322246
vt 0.06629248 0.9353245
vt 0.06279491 0.9333057
vt 0.06061305 0.9354901
vt 0.05755299 0.9311186
vt 0.0703125 0.9257813
vt 0.06696814 0.9257827
vt 0.06704336 0.9290518
vt 0.06387202 0.9290608
vt 0.06448838 0.93161
vt 0.06077367 0.929809
vt 0.06014535 0.9257854
vt 0.05626263 0.9257869
vt 0.06704076 0.9225132
vt 0.0638694 0.9225067
vt 0.06367898 0.9257839
vt 0.06077051 0.921761
vt 0.06448373 0.9199572
vt 0.9296916 0.9156152
vt 0.9350228 0.9130217
vt 0.929693 0.9117351
vt 0.9243622 0.9130176
vt 0.9337151 0.916241
vt 0.9372111 0.9182628
vt 0.932968 0.9193406
vt 0.9393946 0.9160802
vt 0.9424512 0.920454
vt 0.9256674 0.9162377
vt 0.9221699 0.9182569
vt 0.9264121 0.9193379
vt 0.919988 0.9160724
vt 0.9169279 0.9204439
vt 0.9296901 0.9191474
vt 0.9296889 0.9224358
vt 0.9392295 0.921761
vt 0.9398546 0.9257854
vt 0.9361306 0.9225067
vt 0.9437374 0.9257869
vt 0.942447 0.9311186
vt 0.9355163 0.9199572
vt 0.9329593 0.9225132
vt 0.9330319 0.9257827
vt 0.936321 0.9257839
vt 0.936128 0.9290608
vt 0.9392263 0.9298089
vt 0.9372051 0.9333057
vt 0.939387 0.9354901
vt 0.9350126 0.9385449
vt 0.9355116 0.93161
vt 0.9329628 0.9322246
vt 0.9337075 0.9353245
vt 0.9296833 0.9359474
vt 0.9296818 0.9398274
vt 0.924352 0.9385406
vt 0.9329566 0.9290517
vt 0.9296862 0.9291267
vt 0.9296848 0.932415
vt 0.926407 0.9322218
vt 0.9256598 0.9353212
vt 0.9221638 0.9332995
vt 0.9199802 0.9354821
vt 0.9169237 0.9311085
vt 0.9296875 0.9257813
vt 0.9263431 0.9257798
vt 0.9264157 0.9290493
vt 0.9232444 0.9290558
vt 0.9238587 0.931605
vt 0.9201455 0.9298014
vt 0.9195204 0.925777
vt 0.9156376 0.9257756
vt 0.9264184 0.9225105
vt 0.923247 0.9225017
vt 0.923054 0.9257786
vt 0.9201487 0.9217533
vt 0.9238634 0.9199525
vn -0.3797005 -0.9251095 4.012431E-07
vn 2.003603E-06 -0.9238363 0.3827878
vn 2.544339E-06 -1 -2.008689E-07
vn 2.003603E-06 -0.9238363 -0.3827879
vn -0.3637551 -0.856023 0.3672967
vn -0.3391719 -0.6655107 0.6648743
vn -0.6627511 -0.665777 0.3427857
vn 9.292904E-07 -0.7073877 0.7068257
vn 2.671636E-07 -0.3833769 0.923592
vn -0.363755 -0.8560232 -0.3672962
vn -0.3391719 -0.6655109 -0.6648741
vn -0.6627511 -0.6657771 -0.3427852
vn 9.292906E-07 -0.7073876 -0.7068258
vn 2.671637E-07 -0.383377 -0.923592
vn -0.7056018 -0.7086086 3.991017E-07
vn -0.9235743 -0.3834197 0
vn -0.3637102 -0.3679887 0.8557448
vn -0.3796922 8.027204E-07 0.9251128
vn -0.66286 -0.3436004 0.6652483
vn 0 8.035976E-07 1
vn 0 0.3833791 0.923591
vn -0.5751786 -0.5788384 0.5780274
vn -0.854418 -0.3677725 0.3670332
vn -0.9238229 -2.007082E-07 0.3828199
vn -0.7058831 0 0.7083284
vn -0.6628591 0.3436018 0.6652486
vn -0.3637098 0.36799 0.8557444
vn -0.3391711 0.6655126 0.6648729
vn -5.974009E-07 0.7073885 0.7068249
vn -1.268947E-06 0.9238369 0.3827863
vn -0.5751771 0.57884 0.5780273
vn -0.6627485 0.6657799 0.3427851
vn -0.363754 0.8560243 0.3672948
vn -0.3796989 0.9251101 1.069978E-06
vn -1.807817E-06 1 5.356495E-07
vn -1.469307E-06 0.9238371 -0.3827857
vn -0.8544171 0.3677737 0.3670337
vn -0.9235736 0.3834213 0
vn -0.7055985 0.7086118 9.312371E-07
vn -0.6627485 0.6657803 -0.3427841
vn -0.3637542 0.8560249 -0.3672933
vn -0.3391712 0.665513 -0.6648724
vn -5.97401E-07 0.7073886 -0.7068248
vn -2.003727E-07 0.3833791 -0.9235911
vn -1 -9.386767E-07 -2.01145E-07
vn -0.9238228 -3.345137E-07 -0.3828203
vn -0.8544171 0.3677737 -0.367034
vn -0.6628587 0.3436017 -0.665249
vn -0.5751769 0.5788403 -0.5780272
vn -0.3637097 0.36799 -0.8557445
vn -0.3796919 8.027202E-07 -0.925113
vn 1.33933E-07 8.035978E-07 -1
vn -0.8544179 -0.3677726 -0.3670333
vn -0.6628598 -0.3436003 -0.6652486
vn -0.7058827 0 -0.7083287
vn -0.3637101 -0.3679886 -0.8557449
vn -0.5751786 -0.5788385 -0.5780274
vn 0.3797018 -0.9251089 -8.693576E-07
vn 2.003603E-06 -0.9238363 -0.3827879
vn 2.544339E-06 -1 -2.008689E-07
vn 2.003603E-06 -0.9238363 0.3827878
vn 0.3637561 -0.8560233 -0.3672952
vn 0.3391724 -0.6655115 -0.6648734
vn 0.6627496 -0.6657786 -0.3427851
vn 9.292906E-07 -0.7073876 -0.7068258
vn 2.671637E-07 -0.383377 -0.923592
vn 0.3637561 -0.8560237 0.3672942
vn 0.3391725 -0.6655117 0.6648732
vn 0.6627499 -0.665779 0.3427842
vn 9.292904E-07 -0.7073877 0.7068257
vn 2.671636E-07 -0.3833769 0.923592
vn 0.7055997 -0.7086107 -8.647199E-07
vn 0.9235743 -0.3834196 -2.006621E-07
vn 0.3637104 -0.3679888 -0.8557447
vn 0.3796921 1.070294E-06 -0.9251128
vn 0.6628596 -0.3436003 -0.6652489
vn 1.33933E-07 8.035978E-07 -1
vn -2.003727E-07 0.3833791 -0.9235911
vn 0.5751776 -0.5788398 -0.5780271
vn 0.8544176 -0.3677726 -0.367034
vn 0.9238229 2.140888E-06 -0.3828199
vn 0.7058831 1.06476E-06 -0.7083284
vn 0.6628595 0.3436021 -0.6652482
vn 0.3637099 0.3679899 -0.8557445
vn 0.3391708 0.6655122 -0.6648734
vn -5.97401E-07 0.7073886 -0.7068248
vn -1.469307E-06 0.9238371 -0.3827857
vn 0.575178 0.578839 -0.5780274
vn 0.6627498 0.6657787 -0.3427848
vn 0.3637538 0.8560241 -0.3672955
vn 0.3796984 0.9251103 1.337475E-07
vn -1.807817E-06 1 5.356495E-07
vn -1.268947E-06 0.9238369 0.3827863
vn 0.8544175 0.3677738 -0.3670328
vn 0.9235733 0.383422 6.688726E-07
vn 0.7056004 0.7086099 3.991018E-07
vn 0.6627495 0.6657786 0.3427856
vn 0.3637535 0.856024 0.3672959
vn 0.3391708 0.665512 0.6648737
vn -5.974009E-07 0.7073885 0.7068249
vn 0 0.3833791 0.923591
vn 1 2.145547E-06 4.022901E-07
vn 0.9238228 2.007082E-06 0.3828205
vn 0.8544171 0.3677736 0.367034
vn 0.6628589 0.3436017 0.6652488
vn 0.5751776 0.5788388 0.578028
vn 0.3637098 0.3679898 0.8557445
vn 0.3796919 1.070294E-06 0.925113
vn 0 8.035976E-07 1
vn 0.8544176 -0.3677726 0.3670339
vn 0.6628594 -0.3436003 0.665249
vn 0.7058827 9.316652E-07 0.7083287
vn 0.36371 -0.3679888 0.8557448
vn 0.5751777 -0.57884 0.5780267
g pm1013_11_DropASkin_tz2_0
f 3/3/3 2/2/2 1/1/1
f 3/3/3 1/1/1 4/4/4
f 2/2/2 5/5/5 1/1/1
f 6/6/6 5/5/5 2/2/2
f 1/1/1 5/5/5 7/7/7
f 7/7/7 5/5/5 6/6/6
f 8/8/8 6/6/6 2/2/2
f 8/8/8 9/9/9 6/6/6
f 1/1/1 10/10/10 4/4/4
f 4/4/4 10/10/10 11/11/11
f 12/12/12 10/10/10 1/1/1
f 11/11/11 10/10/10 12/12/12
f 13/13/13 4/4/4 11/11/11
f 13/13/13 11/11/11 14/14/14
f 15/15/15 1/1/1 7/7/7
f 15/15/15 12/12/12 1/1/1
f 15/15/15 7/7/7 16/16/16
f 15/15/15 16/16/16 12/12/12
f 9/9/9 17/17/17 6/6/6
f 18/18/18 17/17/17 9/9/9
f 6/6/6 17/17/17 19/19/19
f 19/19/19 17/17/17 18/18/18
f 20/20/20 18/18/18 9/9/9
f 20/20/20 21/21/21 18/18/18
f 22/22/22 7/7/7 6/6/6
f 22/22/22 6/6/6 19/19/19
f 22/22/22 19/19/19 7/7/7
f 7/7/7 23/23/23 16/16/16
f 19/19/19 23/23/23 7/7/7
f 24/24/24 23/23/23 19/19/19
f 16/16/16 23/23/23 24/24/24
f 25/25/25 19/19/19 18/18/18
f 25/25/25 24/24/24 19/19/19
f 25/25/25 18/18/18 26/26/26
f 25/25/25 26/26/26 24/24/24
f 21/21/21 27/27/27 18/18/18
f 18/18/18 27/27/27 26/26/26
f 28/28/28 27/27/27 21/21/21
f 26/26/26 27/27/27 28/28/28
f 29/29/29 28/28/28 21/21/21
f 29/29/29 30/30/30 28/28/28
f 31/31/31 26/26/26 28/28/28
f 31/31/31 28/28/28 32/32/32
f 31/31/31 32/32/32 26/26/26
f 30/30/30 33/33/33 28/28/28
f 28/28/28 33/33/33 32/32/32
f 34/34/34 33/33/33 30/30/30
f 32/32/32 33/33/33 34/34/34
f 35/35/35 34/34/34 30/30/30
f 35/35/35 36/36/36 34/34/34
f 26/26/26 37/37/37 24/24/24
f 32/32/32 37/37/37 26/26/26
f 24/24/24 37/37/37 38/38/38
f 38/38/38 37/37/37 32/32/32
f 39/39/39 32/32/32 34/34/34
f 39/39/39 38/38/38 32/32/32
f 39/39/39 34/34/34 40/40/40
f 39/39/39 40/40/40 38/38/38
f 36/36/36 41/41/41 34/34/34
f 34/34/34 41/41/41 40/40/40
f 42/42/42 41/41/41 36/36/36
f 40/40/40 41/41/41 42/42/42
f 43/43/43 42/42/42 36/36/36
f 43/43/43 44/44/44 42/42/42
f 45/45/45 24/24/24 38/38/38
f 45/45/45 38/38/38 46/46/46
f 45/45/45 16/16/16 24/24/24
f 45/45/45 46/46/46 16/16/16
f 40/40/40 47/47/47 38/38/38
f 38/38/38 47/47/47 46/46/46
f 48/48/48 47/47/47 40/40/40
f 46/46/46 47/47/47 48/48/48
f 49/49/49 40/40/40 42/42/42
f 49/49/49 48/48/48 40/40/40
f 49/49/49 42/42/42 48/48/48
f 44/44/44 50/50/50 42/42/42
f 42/42/42 50/50/50 48/48/48
f 51/51/51 50/50/50 44/44/44
f 48/48/48 50/50/50 51/51/51
f 52/52/52 51/51/51 44/44/44
f 52/52/52 14/14/14 51/51/51
f 46/46/46 53/53/53 16/16/16
f 54/54/54 53/53/53 46/46/46
f 16/16/16 53/53/53 12/12/12
f 12/12/12 53/53/53 54/54/54
f 55/55/55 46/46/46 48/48/48
f 55/55/55 48/48/48 51/51/51
f 55/55/55 54/54/54 46/46/46
f 55/55/55 51/51/51 54/54/54
f 14/14/14 56/56/56 51/51/51
f 51/51/51 56/56/56 54/54/54
f 11/11/11 56/56/56 14/14/14
f 54/54/54 56/56/56 11/11/11
f 57/57/57 11/11/11 12/12/12
f 57/57/57 54/54/54 11/11/11
f 57/57/57 12/12/12 54/54/54
f 60/60/60 59/59/59 58/58/58
f 60/60/60 58/58/58 61/61/61
f 59/59/59 62/62/62 58/58/58
f 63/63/63 62/62/62 59/59/59
f 58/58/58 62/62/62 64/64/64
f 64/64/64 62/62/62 63/63/63
f 65/65/65 63/63/63 59/59/59
f 65/65/65 66/66/66 63/63/63
f 58/58/58 67/67/67 61/61/61
f 61/61/61 67/67/67 68/68/68
f 69/69/69 67/67/67 58/58/58
f 68/68/68 67/67/67 69/69/69
f 70/70/70 61/61/61 68/68/68
f 70/70/70 68/68/68 71/71/71
f 72/72/72 58/58/58 64/64/64
f 72/72/72 69/69/69 58/58/58
f 72/72/72 64/64/64 73/73/73
f 72/72/72 73/73/73 69/69/69
f 66/66/66 74/74/74 63/63/63
f 75/75/75 74/74/74 66/66/66
f 63/63/63 74/74/74 76/76/76
f 76/76/76 74/74/74 75/75/75
f 77/77/77 75/75/75 66/66/66
f 77/77/77 78/78/78 75/75/75
f 79/79/79 64/64/64 63/63/63
f 79/79/79 63/63/63 76/76/76
f 79/79/79 76/76/76 64/64/64
f 64/64/64 80/80/80 73/73/73
f 76/76/76 80/80/80 64/64/64
f 81/81/81 80/80/80 76/76/76
f 73/73/73 80/80/80 81/81/81
f 82/82/82 76/76/76 75/75/75
f 82/82/82 81/81/81 76/76/76
f 82/82/82 75/75/75 83/83/83
f 82/82/82 83/83/83 81/81/81
f 78/78/78 84/84/84 75/75/75
f 75/75/75 84/84/84 83/83/83
f 85/85/85 84/84/84 78/78/78
f 83/83/83 84/84/84 85/85/85
f 86/86/86 85/85/85 78/78/78
f 86/86/86 87/87/87 85/85/85
f 88/88/88 83/83/83 85/85/85
f 88/88/88 85/85/85 89/89/89
f 88/88/88 89/89/89 83/83/83
f 87/87/87 90/90/90 85/85/85
f 85/85/85 90/90/90 89/89/89
f 91/91/91 90/90/90 87/87/87
f 89/89/89 90/90/90 91/91/91
f 92/92/92 91/91/91 87/87/87
f 92/92/92 93/93/93 91/91/91
f 83/83/83 94/94/94 81/81/81
f 89/89/89 94/94/94 83/83/83
f 81/81/81 94/94/94 95/95/95
f 95/95/95 94/94/94 89/89/89
f 96/96/96 89/89/89 91/91/91
f 96/96/96 95/95/95 89/89/89
f 96/96/96 91/91/91 97/97/97
f 96/96/96 97/97/97 95/95/95
f 93/93/93 98/98/98 91/91/91
f 91/91/91 98/98/98 97/97/97
f 99/99/99 98/98/98 93/93/93
f 97/97/97 98/98/98 99/99/99
f 100/100/100 99/99/99 93/93/93
f 100/100/100 101/101/101 99/99/99
f 102/102/102 81/81/81 95/95/95
f 102/102/102 95/95/95 103/103/103
f 102/102/102 73/73/73 81/81/81
f 102/102/102 103/103/103 73/73/73
f 97/97/97 104/104/104 95/95/95
f 95/95/95 104/104/104 103/103/103
f 105/105/105 104/104/104 97/97/97
f 103/103/103 104/104/104 105/105/105
f 106/106/106 97/97/97 99/99/99
f 106/106/106 105/105/105 97/97/97
f 106/106/106 99/99/99 105/105/105
f 101/101/101 107/107/107 99/99/99
f 99/99/99 107/107/107 105/105/105
f 108/108/108 107/107/107 101/101/101
f 105/105/105 107/107/107 108/108/108
f 109/109/109 108/108/108 101/101/101
f 109/109/109 71/71/71 108/108/108
f 103/103/103 110/110/110 73/73/73
f 111/111/111 110/110/110 103/103/103
f 73/73/73 110/110/110 69/69/69
f 69/69/69 110/110/110 111/111/111
f 112/112/112 103/103/103 105/105/105
f 112/112/112 105/105/105 108/108/108
f 112/112/112 111/111/111 103/103/103
f 112/112/112 108/108/108 111/111/111
f 71/71/71 113/113/113 108/108/108
f 108/108/108 113/113/113 111/111/111
f 68/68/68 113/113/113 71/71/71
f 111/111/111 113/113/113 68/68/68
f 114/114/114 68/68/68 69/69/69
f 114/114/114 111/111/111 68/68/68
f 114/114/114 69/69/69 111/111/111
