g pm1013_11_DropCSkin_ty3
v -0.00227811 0.3185001 -3.638599E-19
v -6.310887E-32 0.3185619 0.002274041
v 2.700217E-09 0.318047 -3.638599E-19
v -6.310887E-32 0.3185619 -0.002274041
v -0.002147638 0.3189453 0.002147638
v -0.002002052 0.320052 0.003948306
v -0.003948306 0.320052 0.002002052
v -6.310887E-32 0.3197923 0.004207652
v -6.310887E-32 0.321726 0.005438078
v -0.002147638 0.3189453 -0.002147638
v -0.002002052 0.320052 -0.003948306
v -0.003948306 0.320052 -0.002002052
v -6.310887E-32 0.3197923 -0.004207652
v -6.310887E-32 0.321726 -0.005438078
v -0.004209377 0.3197906 -3.638599E-19
v -0.005499824 0.3217219 -3.638599E-19
v -0.002149647 0.3218522 0.005056475
v -0.002280015 0.324 0.005504459
v -0.003950881 0.3219983 0.003950881
v -6.310887E-32 0.324 0.005957955
v -6.310887E-32 0.3262741 0.005438078
v -0.003367919 0.3206331 0.003367919
v -0.005056475 0.3218522 0.002149647
v -0.005504459 0.324 0.002280015
v -0.004212931 0.324 0.004212931
v -0.003950881 0.3260017 0.003950881
v -0.002149647 0.3261478 0.005056475
v -0.002002052 0.327948 0.003948306
v -6.310887E-32 0.3282077 0.004207652
v -6.310887E-32 0.3294381 0.002274041
v -0.003367919 0.3273669 0.003367919
v -0.003948306 0.327948 0.002002052
v -0.002147638 0.3290547 0.002147638
v -0.00227811 0.3294998 -3.638599E-19
v -6.310887E-32 0.329953 -3.638599E-19
v -6.310887E-32 0.3294381 -0.002274041
v -0.005056475 0.3261478 0.002149647
v -0.005499876 0.3262782 -3.638599E-19
v -0.004209377 0.3282094 -3.638599E-19
v -0.003948306 0.327948 -0.002002052
v -0.002147638 0.3290547 -0.002147638
v -0.002002052 0.327948 -0.003948306
v -6.310887E-32 0.3282077 -0.004207652
v -6.310887E-32 0.3262741 -0.005438078
v -0.005957955 0.324 0
v -0.005504459 0.324 -0.002280015
v -0.005056475 0.3261478 -0.002149647
v -0.003950881 0.3260017 -0.003950881
v -0.003367919 0.3273669 -0.003367919
v -0.002149647 0.3261478 -0.005056475
v -0.002280015 0.324 -0.005504459
v -6.310887E-32 0.324 -0.005957955
v -0.005056475 0.3218522 -0.002149647
v -0.003950881 0.3219983 -0.003950881
v -0.004212931 0.324 -0.004212931
v -0.002149647 0.3218522 -0.005056475
v -0.003367919 0.3206331 -0.003367919
v 0.00227811 0.3185002 -3.638599E-19
v -6.310887E-32 0.3185619 -0.002274041
v 2.700217E-09 0.318047 -3.638599E-19
v -6.310887E-32 0.3185619 0.002274041
v 0.002147638 0.3189453 -0.002147638
v 0.002002052 0.320052 -0.003948306
v 0.003948306 0.320052 -0.002002052
v -6.310887E-32 0.3197923 -0.004207652
v -6.310887E-32 0.321726 -0.005438078
v 0.002147638 0.3189453 0.002147638
v 0.002002052 0.320052 0.003948306
v 0.003948306 0.320052 0.002002052
v -6.310887E-32 0.3197923 0.004207652
v -6.310887E-32 0.321726 0.005438078
v 0.004209377 0.3197906 -3.638599E-19
v 0.005499876 0.3217219 -3.638599E-19
v 0.002149647 0.3218522 -0.005056475
v 0.002280015 0.324 -0.005504459
v 0.003950881 0.3219983 -0.003950881
v -6.310887E-32 0.324 -0.005957955
v -6.310887E-32 0.3262741 -0.005438078
v 0.003367919 0.3206331 -0.003367919
v 0.005056475 0.3218522 -0.002149647
v 0.005504459 0.324 -0.002280015
v 0.004212931 0.324 -0.004212931
v 0.003950881 0.3260017 -0.003950881
v 0.002149647 0.3261478 -0.005056475
v 0.002002052 0.327948 -0.003948306
v -6.310887E-32 0.3282077 -0.004207652
v -6.310887E-32 0.3294381 -0.002274041
v 0.003367919 0.3273669 -0.003367919
v 0.003948306 0.327948 -0.002002052
v 0.002147638 0.3290547 -0.002147638
v 0.00227811 0.3294999 -3.638599E-19
v -6.310887E-32 0.329953 -3.638599E-19
v -6.310887E-32 0.3294381 0.002274041
v 0.005056475 0.3261478 -0.002149647
v 0.005499824 0.3262782 -3.638599E-19
v 0.004209377 0.3282094 -3.638599E-19
v 0.003948306 0.327948 0.002002052
v 0.002147638 0.3290547 0.002147638
v 0.002002052 0.327948 0.003948306
v -6.310887E-32 0.3282077 0.004207652
v -6.310887E-32 0.3262741 0.005438078
v 0.005957955 0.324 2.702427E-09
v 0.005504459 0.324 0.002280015
v 0.005056475 0.3261478 0.002149647
v 0.003950881 0.3260017 0.003950881
v 0.003367919 0.3273669 0.003367919
v 0.002149647 0.3261478 0.005056475
v 0.002280015 0.324 0.005504459
v -6.310887E-32 0.324 0.005957955
v 0.005056475 0.3218522 0.002149647
v 0.003950881 0.3219983 0.003950881
v 0.004212931 0.324 0.004212931
v 0.002149647 0.3218522 0.005056475
v 0.003367919 0.3206331 0.003367919
vt 0.02343345 0.9156151
vt 0.02876277 0.9130176
vt 0.02343193 0.9117351
vt 0.01810218 0.9130218
vt 0.02745757 0.916238
vt 0.03095511 0.918257
vt 0.02671288 0.919338
vt 0.03313698 0.9160726
vt 0.03619704 0.920444
vt 0.01940984 0.9162411
vt 0.01591389 0.918263
vt 0.02015696 0.9193406
vt 0.01373033 0.9160802
vt 0.01067373 0.9204541
vt 0.02343488 0.9191473
vt 0.02343614 0.9224358
vt 0.03297637 0.9217535
vt 0.03360471 0.9257772
vt 0.02987798 0.9225016
vt 0.03748739 0.9257756
vt 0.03620134 0.9311084
vt 0.02926165 0.9199526
vt 0.02670664 0.9225106
vt 0.02678187 0.9257799
vt 0.03007101 0.9257787
vt 0.0298806 0.9290557
vt 0.03297958 0.9298015
vt 0.03096119 0.9332997
vt 0.03314483 0.9354823
vt 0.02877298 0.9385407
vt 0.0292663 0.9316053
vt 0.02671804 0.932222
vt 0.02746525 0.9353214
vt 0.02344164 0.9359475
vt 0.02344324 0.9398274
vt 0.01811239 0.9385449
vt 0.02670924 0.9290493
vt 0.02343886 0.9291269
vt 0.0234402 0.9324153
vt 0.02016212 0.9322246
vt 0.01941751 0.9353247
vt 0.01591989 0.9333057
vt 0.01373811 0.93549
vt 0.01067796 0.9311187
vt 0.0234375 0.9257814
vt 0.02009313 0.9257827
vt 0.02016836 0.929052
vt 0.01699702 0.929061
vt 0.01761343 0.93161
vt 0.01389872 0.9298092
vt 0.01327029 0.9257854
vt 0.009387612 0.925787
vt 0.02016576 0.9225133
vt 0.0169944 0.9225068
vt 0.01680399 0.9257839
vt 0.0138955 0.9217611
vt 0.0176087 0.9199573
vt 0.9765666 0.9156152
vt 0.9818978 0.9130218
vt 0.9765681 0.9117351
vt 0.9712372 0.9130176
vt 0.9805902 0.916241
vt 0.9840861 0.918263
vt 0.979843 0.9193406
vt 0.9862697 0.9160802
vt 0.9893262 0.9204541
vt 0.9725425 0.9162379
vt 0.9690449 0.918257
vt 0.9732871 0.919338
vt 0.966863 0.9160726
vt 0.9638029 0.920444
vt 0.9765651 0.9191473
vt 0.9765639 0.9224358
vt 0.9861045 0.9217611
vt 0.9867297 0.9257854
vt 0.9830056 0.9225068
vt 0.9906124 0.925787
vt 0.9893221 0.9311187
vt 0.9823913 0.9199573
vt 0.9798343 0.9225132
vt 0.9799069 0.9257827
vt 0.983196 0.9257839
vt 0.983003 0.929061
vt 0.9861013 0.9298091
vt 0.9840801 0.9333057
vt 0.9862619 0.93549
vt 0.9818876 0.9385449
vt 0.9823866 0.9316099
vt 0.9798379 0.9322246
vt 0.9805825 0.9353247
vt 0.9765583 0.9359475
vt 0.9765568 0.9398274
vt 0.971227 0.9385407
vt 0.9798316 0.9290519
vt 0.9765612 0.9291269
vt 0.9765598 0.9324153
vt 0.973282 0.932222
vt 0.9725348 0.9353214
vt 0.9690388 0.9332997
vt 0.9668552 0.9354823
vt 0.9637986 0.9311084
vt 0.9765625 0.9257813
vt 0.9732181 0.9257799
vt 0.9732907 0.9290493
vt 0.9701194 0.9290557
vt 0.9707337 0.9316053
vt 0.9670204 0.9298014
vt 0.9663953 0.9257772
vt 0.9625126 0.9257756
vt 0.9732934 0.9225106
vt 0.970122 0.9225016
vt 0.969929 0.9257787
vt 0.9670236 0.9217535
vt 0.9707384 0.9199526
vn -0.3797005 -0.9251095 0
vn 1.87003E-06 -0.9238363 0.382788
vn 2.544338E-06 -1 -2.008688E-07
vn 2.270751E-06 -0.9238362 -0.3827882
vn -0.3637552 -0.8560228 0.3672968
vn -0.3391718 -0.6655096 0.6648756
vn -0.6627509 -0.6657767 0.3427865
vn 6.637789E-07 -0.7073866 0.7068269
vn 1.335817E-07 -0.3833764 0.9235922
vn -0.3637551 -0.8560228 -0.3672971
vn -0.3391714 -0.6655093 -0.6648761
vn -0.662751 -0.6657767 -0.3427866
vn 1.062046E-06 -0.7073865 -0.7068269
vn 4.007452E-07 -0.3833766 -0.9235922
vn -0.7056017 -0.7086087 2.660678E-07
vn -0.9235739 -0.3834206 4.013236E-07
vn -0.3637095 -0.3679882 0.8557453
vn -0.3796916 0 0.9251132
vn -0.6628589 -0.3436002 0.6652496
vn 0 0 1
vn -2.003726E-07 0.383377 0.9235919
vn -0.5751781 -0.5788373 0.578029
vn -0.8544173 -0.3677728 0.3670343
vn -0.9238228 -8.697357E-07 0.3828206
vn -0.7058823 -5.989275E-07 0.7083291
vn -0.6628586 0.3436004 0.6652498
vn -0.3637094 0.3679883 0.8557453
vn -0.3391716 0.6655108 0.6648743
vn -8.629125E-07 0.7073869 0.7068266
vn -1.936816E-06 0.9238367 0.3827868
vn -0.5751769 0.5788389 0.5780286
vn -0.662749 0.6657792 0.3427853
vn -0.3637554 0.8560237 0.3672949
vn -0.3797011 0.9251092 4.012419E-07
vn -2.477381E-06 1 1.339125E-07
vn -1.936816E-06 0.9238368 -0.3827866
vn -0.8544171 0.3677732 0.3670342
vn -0.9235737 0.383421 0
vn -0.7055992 0.7086112 2.660677E-07
vn -0.662749 0.6657792 -0.3427853
vn -0.3637556 0.8560238 -0.3672945
vn -0.3391715 0.6655107 -0.6648746
vn -7.301568E-07 0.707387 -0.7068264
vn -3.339544E-07 0.3833769 -0.923592
vn -1 -1.273919E-06 1.340967E-07
vn -0.9238228 -9.366385E-07 -0.3828206
vn -0.8544171 0.3677731 -0.3670346
vn -0.6628582 0.3436 -0.6652503
vn -0.5751765 0.5788386 -0.5780293
vn -0.3637092 0.367988 -0.8557455
vn -0.3796915 0 -0.9251132
vn 0 0 -1
vn -0.8544174 -0.3677728 -0.3670341
vn -0.6628588 -0.3435999 -0.6652498
vn -0.7058821 -5.989275E-07 -0.7083293
vn -0.3637094 -0.367988 -0.8557455
vn -0.575178 -0.5788369 -0.5780296
vn 0.3797018 -0.9251089 -4.012419E-07
vn 2.270751E-06 -0.9238362 -0.3827882
vn 2.544338E-06 -1 -2.008688E-07
vn 1.87003E-06 -0.9238363 0.382788
vn 0.3637563 -0.8560232 -0.3672951
vn 0.3391724 -0.6655105 -0.6648743
vn 0.6627495 -0.6657786 -0.3427857
vn 1.062046E-06 -0.7073865 -0.7068269
vn 4.007452E-07 -0.3833766 -0.9235922
vn 0.3637563 -0.8560233 0.367295
vn 0.3391719 -0.6655102 0.664875
vn 0.6627496 -0.6657786 0.3427853
vn 6.637789E-07 -0.7073866 0.7068269
vn 1.335817E-07 -0.3833764 0.9235922
vn 0.7055997 -0.7086107 -3.991015E-07
vn 0.923574 -0.3834205 -4.013243E-07
vn 0.3637097 -0.3679885 -0.8557451
vn 0.3796917 1.337866E-07 -0.9251131
vn 0.6628586 -0.3436002 -0.6652499
vn 0 0 -1
vn -3.339544E-07 0.3833769 -0.923592
vn 0.5751773 -0.5788388 -0.5780283
vn 0.8544171 -0.3677728 -0.3670347
vn 0.9238228 1.47186E-06 -0.3828202
vn 0.7058825 3.99285E-07 -0.708329
vn 0.6628593 0.3436006 -0.665249
vn 0.3637095 0.3679882 -0.8557453
vn 0.3391715 0.6655104 -0.6648749
vn -7.301568E-07 0.707387 -0.7068264
vn -1.936816E-06 0.9238368 -0.3827866
vn 0.5751781 0.5788378 -0.5780285
vn 0.6627509 0.6657776 -0.3427849
vn 0.3637549 0.8560235 -0.3672959
vn 0.3797001 0.9251096 -3.34369E-07
vn -2.477381E-06 1 1.339125E-07
vn -1.936816E-06 0.9238367 0.3827868
vn 0.8544177 0.3677734 -0.3670329
vn 0.9235734 0.3834214 4.013234E-07
vn 0.7056013 0.7086092 1.330339E-07
vn 0.6627506 0.6657775 0.3427855
vn 0.3637548 0.8560236 0.3672957
vn 0.3391713 0.6655099 0.6648753
vn -8.629125E-07 0.7073869 0.7068266
vn -2.003726E-07 0.383377 0.9235919
vn 1 1.877354E-06 1.340967E-07
vn 0.9238228 1.47186E-06 0.3828204
vn 0.8544174 0.367773 0.3670337
vn 0.6628588 0.3436 0.6652498
vn 0.5751778 0.5788373 0.5780294
vn 0.3637094 0.3679878 0.8557455
vn 0.3796917 2.675733E-07 0.9251131
vn 0 0 1
vn 0.8544173 -0.3677728 0.3670345
vn 0.6628585 -0.3435998 0.6652501
vn 0.7058823 3.992849E-07 0.7083292
vn 0.3637095 -0.367988 0.8557453
vn 0.5751774 -0.5788384 0.5780286
g pm1013_11_DropCSkin_ty3_0
f 3/3/3 2/2/2 1/1/1
f 3/3/3 1/1/1 4/4/4
f 2/2/2 5/5/5 1/1/1
f 6/6/6 5/5/5 2/2/2
f 1/1/1 5/5/5 7/7/7
f 7/7/7 5/5/5 6/6/6
f 8/8/8 6/6/6 2/2/2
f 8/8/8 9/9/9 6/6/6
f 1/1/1 10/10/10 4/4/4
f 4/4/4 10/10/10 11/11/11
f 12/12/12 10/10/10 1/1/1
f 11/11/11 10/10/10 12/12/12
f 13/13/13 4/4/4 11/11/11
f 13/13/13 11/11/11 14/14/14
f 15/15/15 1/1/1 7/7/7
f 15/15/15 12/12/12 1/1/1
f 15/15/15 7/7/7 16/16/16
f 15/15/15 16/16/16 12/12/12
f 9/9/9 17/17/17 6/6/6
f 18/18/18 17/17/17 9/9/9
f 6/6/6 17/17/17 19/19/19
f 19/19/19 17/17/17 18/18/18
f 20/20/20 18/18/18 9/9/9
f 20/20/20 21/21/21 18/18/18
f 22/22/22 7/7/7 6/6/6
f 22/22/22 6/6/6 19/19/19
f 22/22/22 19/19/19 7/7/7
f 7/7/7 23/23/23 16/16/16
f 19/19/19 23/23/23 7/7/7
f 24/24/24 23/23/23 19/19/19
f 16/16/16 23/23/23 24/24/24
f 25/25/25 19/19/19 18/18/18
f 25/25/25 24/24/24 19/19/19
f 25/25/25 18/18/18 26/26/26
f 25/25/25 26/26/26 24/24/24
f 21/21/21 27/27/27 18/18/18
f 18/18/18 27/27/27 26/26/26
f 28/28/28 27/27/27 21/21/21
f 26/26/26 27/27/27 28/28/28
f 29/29/29 28/28/28 21/21/21
f 29/29/29 30/30/30 28/28/28
f 31/31/31 26/26/26 28/28/28
f 31/31/31 28/28/28 32/32/32
f 31/31/31 32/32/32 26/26/26
f 30/30/30 33/33/33 28/28/28
f 28/28/28 33/33/33 32/32/32
f 34/34/34 33/33/33 30/30/30
f 32/32/32 33/33/33 34/34/34
f 35/35/35 34/34/34 30/30/30
f 35/35/35 36/36/36 34/34/34
f 26/26/26 37/37/37 24/24/24
f 32/32/32 37/37/37 26/26/26
f 24/24/24 37/37/37 38/38/38
f 38/38/38 37/37/37 32/32/32
f 39/39/39 32/32/32 34/34/34
f 39/39/39 38/38/38 32/32/32
f 39/39/39 34/34/34 40/40/40
f 39/39/39 40/40/40 38/38/38
f 36/36/36 41/41/41 34/34/34
f 34/34/34 41/41/41 40/40/40
f 42/42/42 41/41/41 36/36/36
f 40/40/40 41/41/41 42/42/42
f 43/43/43 42/42/42 36/36/36
f 43/43/43 44/44/44 42/42/42
f 45/45/45 24/24/24 38/38/38
f 45/45/45 38/38/38 46/46/46
f 45/45/45 16/16/16 24/24/24
f 45/45/45 46/46/46 16/16/16
f 40/40/40 47/47/47 38/38/38
f 38/38/38 47/47/47 46/46/46
f 48/48/48 47/47/47 40/40/40
f 46/46/46 47/47/47 48/48/48
f 49/49/49 40/40/40 42/42/42
f 49/49/49 48/48/48 40/40/40
f 49/49/49 42/42/42 48/48/48
f 44/44/44 50/50/50 42/42/42
f 42/42/42 50/50/50 48/48/48
f 51/51/51 50/50/50 44/44/44
f 48/48/48 50/50/50 51/51/51
f 52/52/52 51/51/51 44/44/44
f 52/52/52 14/14/14 51/51/51
f 46/46/46 53/53/53 16/16/16
f 54/54/54 53/53/53 46/46/46
f 16/16/16 53/53/53 12/12/12
f 12/12/12 53/53/53 54/54/54
f 55/55/55 46/46/46 48/48/48
f 55/55/55 48/48/48 51/51/51
f 55/55/55 54/54/54 46/46/46
f 55/55/55 51/51/51 54/54/54
f 14/14/14 56/56/56 51/51/51
f 51/51/51 56/56/56 54/54/54
f 11/11/11 56/56/56 14/14/14
f 54/54/54 56/56/56 11/11/11
f 57/57/57 11/11/11 12/12/12
f 57/57/57 54/54/54 11/11/11
f 57/57/57 12/12/12 54/54/54
f 60/60/60 59/59/59 58/58/58
f 60/60/60 58/58/58 61/61/61
f 59/59/59 62/62/62 58/58/58
f 63/63/63 62/62/62 59/59/59
f 58/58/58 62/62/62 64/64/64
f 64/64/64 62/62/62 63/63/63
f 65/65/65 63/63/63 59/59/59
f 65/65/65 66/66/66 63/63/63
f 58/58/58 67/67/67 61/61/61
f 61/61/61 67/67/67 68/68/68
f 69/69/69 67/67/67 58/58/58
f 68/68/68 67/67/67 69/69/69
f 70/70/70 61/61/61 68/68/68
f 70/70/70 68/68/68 71/71/71
f 72/72/72 58/58/58 64/64/64
f 72/72/72 69/69/69 58/58/58
f 72/72/72 64/64/64 73/73/73
f 72/72/72 73/73/73 69/69/69
f 66/66/66 74/74/74 63/63/63
f 75/75/75 74/74/74 66/66/66
f 63/63/63 74/74/74 76/76/76
f 76/76/76 74/74/74 75/75/75
f 77/77/77 75/75/75 66/66/66
f 77/77/77 78/78/78 75/75/75
f 79/79/79 64/64/64 63/63/63
f 79/79/79 63/63/63 76/76/76
f 79/79/79 76/76/76 64/64/64
f 64/64/64 80/80/80 73/73/73
f 76/76/76 80/80/80 64/64/64
f 81/81/81 80/80/80 76/76/76
f 73/73/73 80/80/80 81/81/81
f 82/82/82 76/76/76 75/75/75
f 82/82/82 81/81/81 76/76/76
f 82/82/82 75/75/75 83/83/83
f 82/82/82 83/83/83 81/81/81
f 78/78/78 84/84/84 75/75/75
f 75/75/75 84/84/84 83/83/83
f 85/85/85 84/84/84 78/78/78
f 83/83/83 84/84/84 85/85/85
f 86/86/86 85/85/85 78/78/78
f 86/86/86 87/87/87 85/85/85
f 88/88/88 83/83/83 85/85/85
f 88/88/88 85/85/85 89/89/89
f 88/88/88 89/89/89 83/83/83
f 87/87/87 90/90/90 85/85/85
f 85/85/85 90/90/90 89/89/89
f 91/91/91 90/90/90 87/87/87
f 89/89/89 90/90/90 91/91/91
f 92/92/92 91/91/91 87/87/87
f 92/92/92 93/93/93 91/91/91
f 83/83/83 94/94/94 81/81/81
f 89/89/89 94/94/94 83/83/83
f 81/81/81 94/94/94 95/95/95
f 95/95/95 94/94/94 89/89/89
f 96/96/96 89/89/89 91/91/91
f 96/96/96 95/95/95 89/89/89
f 96/96/96 91/91/91 97/97/97
f 96/96/96 97/97/97 95/95/95
f 93/93/93 98/98/98 91/91/91
f 91/91/91 98/98/98 97/97/97
f 99/99/99 98/98/98 93/93/93
f 97/97/97 98/98/98 99/99/99
f 100/100/100 99/99/99 93/93/93
f 100/100/100 101/101/101 99/99/99
f 102/102/102 81/81/81 95/95/95
f 102/102/102 95/95/95 103/103/103
f 102/102/102 73/73/73 81/81/81
f 102/102/102 103/103/103 73/73/73
f 97/97/97 104/104/104 95/95/95
f 95/95/95 104/104/104 103/103/103
f 105/105/105 104/104/104 97/97/97
f 103/103/103 104/104/104 105/105/105
f 106/106/106 97/97/97 99/99/99
f 106/106/106 105/105/105 97/97/97
f 106/106/106 99/99/99 105/105/105
f 101/101/101 107/107/107 99/99/99
f 99/99/99 107/107/107 105/105/105
f 108/108/108 107/107/107 101/101/101
f 105/105/105 107/107/107 108/108/108
f 109/109/109 108/108/108 101/101/101
f 109/109/109 71/71/71 108/108/108
f 103/103/103 110/110/110 73/73/73
f 111/111/111 110/110/110 103/103/103
f 73/73/73 110/110/110 69/69/69
f 69/69/69 110/110/110 111/111/111
f 112/112/112 103/103/103 105/105/105
f 112/112/112 105/105/105 108/108/108
f 112/112/112 111/111/111 103/103/103
f 112/112/112 108/108/108 111/111/111
f 71/71/71 113/113/113 108/108/108
f 108/108/108 113/113/113 111/111/111
f 68/68/68 113/113/113 71/71/71
f 111/111/111 113/113/113 68/68/68
f 114/114/114 68/68/68 69/69/69
f 114/114/114 111/111/111 68/68/68
f 114/114/114 69/69/69 111/111/111
