g pm1012_11_BodyCSkin_tx1
v 0.02651702 0.06148339 0.01098393
v 0.02386473 0.06148338 0.01594612
v 0.01942661 0.06157496 0.01298057
v 0.02029528 0.06148338 0.02029549
v 0.02158566 0.06157498 0.008941195
v 0.0229152 0.06157498 0.004558242
v 0.0281503 0.06148339 0.005599666
v 0.0287018 0.06148338 2.22914E-07
v 0.01652096 0.06157496 0.01652109
v 0.01541063 0.06180173 0.01029713
v 0.01712337 0.06180173 0.007092809
v 0.01298045 0.06157496 0.01942674
v 0.01594592 0.06148338 0.02386497
v 0.01098374 0.06148338 0.02651728
v 0.01310566 0.06180173 0.01310574
v 0.01029705 0.06180173 0.01541072
v 0.008941085 0.06157496 0.02158581
v 0.01205673 0.06196542 0.008056033
v 0.004558124 0.06157496 0.02291537
v 0.005599469 0.06148338 0.0281506
v 1.348984E-08 0.06148338 0.02870212
v 0.008056054 0.06196542 0.01205671
v 0.0102534 0.06196542 0.01025339
v 0.01339671 0.06196542 0.005549088
v 0.007092721 0.06180173 0.01712346
v 0.003615827 0.06180173 0.01817816
v -1.108402E-09 0.06157496 0.02336432
v 0.005549112 0.06196542 0.01339671
v 0.002828921 0.06196542 0.01422187
v 6.798205E-12 0.06196542 -1.143287E-08
v 1.713494E-08 0.06196542 0.0145005
v 0.01422187 0.06196542 0.002828896
v -0.005549093 0.06196542 0.01339671
v -2.270787E-08 0.06180173 0.01853429
v -0.00455813 0.06157496 0.02291539
v -0.005599443 0.06148338 0.02815064
v -0.01098373 0.06148338 0.0265173
v -0.002828901 0.06196542 0.01422187
v -0.003615875 0.06180173 0.01817816
v -0.008941088 0.06157496 0.02158581
v -0.007092765 0.06180173 0.01712344
v -0.01298045 0.06157496 0.01942674
v -0.0159459 0.06148338 0.02386498
v -0.02029527 0.06148338 0.02029548
v -0.01029709 0.06180173 0.01541069
v -0.008056036 0.06196542 0.01205673
v -0.01652097 0.06157496 0.01652108
v -0.01025339 0.06196542 0.0102534
v -0.01310569 0.06180173 0.01310571
v -0.01942661 0.06157496 0.01298056
v -0.02386473 0.06148338 0.01594613
v -0.02651702 0.06148339 0.01098393
v -0.01541066 0.06180173 0.0102971
v -0.01205671 0.06196542 0.00805605
v -0.02158566 0.06157498 0.008941188
v -0.0229152 0.06157498 0.004558235
v -0.02815029 0.06148339 0.005599677
v -0.0287018 0.06148339 2.312831E-07
v -0.01712339 0.06180173 0.007092764
v -0.0133967 0.06196542 0.005549108
v -0.01817808 0.06180173 0.003615873
v -0.01422186 0.06196542 0.002828916
v -0.01450049 0.06196542 1.221351E-08
v -0.01853421 0.06180173 2.841724E-08
v -0.02336414 0.06157498 1.18278E-07
v -0.02291518 0.06157498 -0.004557993
v -0.02815027 0.06148338 -0.0055992
v -0.02651695 0.06148338 -0.01098346
v -0.01817806 0.06180173 -0.003615812
v -0.01422187 0.06196542 -0.002828892
v -0.01339671 0.06196542 -0.005549084
v -0.02158561 0.06157498 -0.00894094
v -0.01712335 0.06180173 -0.007092696
v -0.0102534 0.06196542 -0.01025338
v -0.005549105 0.06196542 -0.0133967
v -0.002828915 0.06196542 -0.01422186
v -0.01942654 0.06157498 -0.01298028
v -0.02386462 0.06148339 -0.01594561
v -0.02029517 0.06148339 -0.02029494
v -0.01205672 0.06196542 -0.008056029
v -0.0154106 0.06180173 -0.01029701
v -0.0165209 0.06157498 -0.01652078
v -0.01310563 0.06180173 -0.0131056
v -0.0129804 0.06157498 -0.01942642
v -0.01594583 0.06148339 -0.0238644
v -0.01098368 0.06148339 -0.02651666
v -0.008056047 0.06196542 -0.01205671
v -0.01029703 0.06180173 -0.01541057
v -0.008941047 0.06157498 -0.02158546
v -0.004558108 0.06157498 -0.02291502
v -0.005599432 0.06148339 -0.02814996
v -7.898769E-09 0.06148339 -0.02870148
v -0.007092705 0.06180173 -0.0171233
v -0.003615821 0.06180173 -0.01817799
v -1.055766E-08 0.06196542 -0.01450049
v 1.606064E-08 0.06180173 -0.01853413
v -5.02247E-09 0.06157498 -0.02336397
v 0.004558117 0.06157498 -0.02291501
v 0.00559942 0.06148339 -0.02814996
v 0.01098365 0.06148339 -0.02651668
v 0.002828894 0.06196542 -0.01422186
v 0.003615852 0.06180173 -0.01817799
v 0.005549086 0.06196542 -0.0133967
v 0.007092732 0.06180173 -0.01712328
v 0.008941055 0.06157498 -0.02158546
v 0.0129804 0.06157498 -0.01942641
v 0.0159458 0.06148339 -0.02386441
v 0.02029518 0.06148339 -0.02029493
v 0.01029705 0.06180173 -0.01541055
v 0.00805603 0.06196542 -0.01205672
v 0.01652091 0.06157498 -0.01652077
v 0.01025339 0.06196542 -0.0102534
v 0.01310566 0.06180173 -0.01310557
v 0.01942654 0.06157498 -0.01298027
v 0.02386461 0.06148339 -0.01594561
v 0.02651694 0.06148338 -0.01098347
v 0.01541063 0.06180173 -0.01029697
v 0.01205671 0.06196542 -0.008056046
v 0.0133967 0.06196542 -0.005549104
v 0.02158562 0.06157498 -0.008940934
v 0.01712337 0.06180173 -0.007092651
v 0.01450049 0.06196542 -8.901811E-09
v 0.02291518 0.06157498 -0.004557989
v 0.02815026 0.06148338 -0.005599218
v 0.01422186 0.06196542 -0.002828913
v 0.01817807 0.06180173 -0.003615767
v 0.02336415 0.06157498 1.249619E-07
v 0.01853421 0.06180173 7.55926E-08
v 0.01817808 0.06180173 0.003615919
vt 0.741312 0.4644218
vt 0.73416 0.4510406
vt 0.7221927 0.4590366
vt 0.724534 0.4393119
vt 0.7280151 0.4699299
vt 0.7316003 0.4817496
vt 0.7457161 0.4789414
vt 0.7472037 0.4940414
vt 0.7143573 0.4494891
vt 0.7113543 0.4662788
vt 0.7159727 0.4749183
vt 0.7048092 0.4416533
vt 0.7128051 0.4296861
vt 0.6994241 0.4225339
vt 0.7051402 0.4587062
vt 0.6975672 0.4524918
vt 0.6939162 0.4358312
vt 0.7023056 0.4723253
vt 0.6820965 0.4322453
vt 0.6849047 0.4181294
vt 0.6698048 0.4166421
vt 0.6915214 0.4615407
vt 0.6974449 0.4664017
vt 0.705918 0.4790829
vt 0.688928 0.4478739
vt 0.6795536 0.4450302
vt 0.6698048 0.431035
vt 0.6847636 0.4579283
vt 0.6774306 0.4557041
vt 0.6698048 0.4940414
vt 0.6698048 0.4549528
vt 0.7081425 0.4864157
vt 0.6548462 0.4579283
vt 0.6698048 0.4440698
vt 0.6575127 0.4322453
vt 0.6547053 0.4181294
vt 0.6401856 0.4225339
vt 0.662179 0.4557041
vt 0.6600559 0.4450302
vt 0.6456934 0.4358312
vt 0.6506816 0.4478739
vt 0.6348 0.4416533
vt 0.6268043 0.4296861
vt 0.6150756 0.4393119
vt 0.6420422 0.4524918
vt 0.6480884 0.4615404
vt 0.6252525 0.4494891
vt 0.6421646 0.4664017
vt 0.6344695 0.4587063
vt 0.6174166 0.4590366
vt 0.6054497 0.4510406
vt 0.5982976 0.4644218
vt 0.6282551 0.4662788
vt 0.6373038 0.4723253
vt 0.6115946 0.4699299
vt 0.6080092 0.4817496
vt 0.5938935 0.4789414
vt 0.5924059 0.4940414
vt 0.6236371 0.4749183
vt 0.6336917 0.4790829
vt 0.6207934 0.4842926
vt 0.6314672 0.4864157
vt 0.6307157 0.4940414
vt 0.6198332 0.4940414
vt 0.6067985 0.4940414
vt 0.6080089 0.5063332
vt 0.5938935 0.5091408
vt 0.5982978 0.5236602
vt 0.6207936 0.5037905
vt 0.6314672 0.5016673
vt 0.6336917 0.5090005
vt 0.6115948 0.5181528
vt 0.6236371 0.5131646
vt 0.6421646 0.5216818
vt 0.6548462 0.5301551
vt 0.662179 0.5323798
vt 0.6174169 0.5290461
vt 0.6054502 0.5370414
vt 0.6150758 0.5487701
vt 0.6373038 0.5157584
vt 0.6282551 0.521804
vt 0.6252527 0.5385934
vt 0.6344695 0.5293768
vt 0.6348 0.5464295
vt 0.6268045 0.558396
vt 0.6401856 0.5655482
vt 0.6480882 0.5265427
vt 0.6420422 0.5355914
vt 0.6456934 0.5522515
vt 0.6575127 0.555837
vt 0.6547053 0.5699523
vt 0.6698048 0.5714395
vt 0.6506816 0.5402094
vt 0.6600556 0.5430529
vt 0.6698048 0.5331307
vt 0.6698048 0.5440128
vt 0.6698048 0.5570478
vt 0.6820965 0.555837
vt 0.6849047 0.5699523
vt 0.6994238 0.5655482
vt 0.6774306 0.5323798
vt 0.6795538 0.5430529
vt 0.6847636 0.5301551
vt 0.688928 0.5402092
vt 0.6939162 0.5522515
vt 0.7048092 0.5464295
vt 0.7128049 0.558396
vt 0.7245337 0.5487701
vt 0.6975672 0.5355914
vt 0.6915214 0.5265428
vt 0.714357 0.5385934
vt 0.6974449 0.5216819
vt 0.7051402 0.5293768
vt 0.7221927 0.5290461
vt 0.7341595 0.5370414
vt 0.7413117 0.5236602
vt 0.7113543 0.521804
vt 0.7023056 0.5157586
vt 0.705918 0.5090005
vt 0.7280149 0.5181529
vt 0.7159727 0.5131646
vt 0.7088934 0.4940414
vt 0.7316005 0.5063332
vt 0.7457161 0.5091408
vt 0.7081425 0.5016675
vt 0.718816 0.5037905
vt 0.732811 0.4940414
vt 0.7197763 0.4940414
vt 0.7188162 0.4842926
vn 0.01584971 0.9998528 0.006566166
vn 0.01426339 0.9998528 0.009532092
vn 0.02394593 0.9995852 0.01600158
vn 0.01213026 0.9998529 0.0121305
vn 0.02660716 0.9995852 0.01102197
vn 0.02824688 0.9995852 0.005618215
vn 0.01682758 0.9998528 0.003346682
vn 0.01715827 0.9998528 -1.192093E-07
vn 0.02036488 0.9995852 0.02036488
vn 0.03705395 0.9990066 0.02475906
vn 0.04117096 0.9990066 0.01705384
vn 0.01600039 0.9995852 0.02394605
vn 0.009530663 0.9998529 0.01426375
vn 0.006564736 0.9998529 0.01584876
vn 0.03151226 0.9990066 0.03151214
vn 0.0247587 0.9990066 0.03705442
vn 0.01102138 0.9995852 0.02660775
vn 0.008914828 0.9999425 0.005957365
vn 0.005618692 0.9995852 0.02824652
vn 0.003346801 0.9998529 0.01682496
vn 0 0.9998529 0.01715422
vn 0.005956531 0.9999425 0.008914828
vn 0.007581234 0.9999425 0.00758171
vn 0.009905577 0.9999425 0.004103303
vn 0.01705444 0.9990066 0.04117274
vn 0.008694173 0.9990066 0.04370869
vn 0 0.9995852 0.02879966
vn 0.004103065 0.9999425 0.0099051
vn 0.002091646 0.9999425 0.01051545
vn 0 1 0
vn -1.192093E-07 0.9999425 0.01072156
vn 0.01051569 0.9999425 0.002091646
vn -0.004103005 0.9999425 0.009905696
vn -2.384186E-07 0.9990066 0.04456497
vn -0.005618632 0.9995852 0.02824617
vn -0.003346741 0.9998529 0.01682401
vn -0.006564796 0.9998529 0.01584888
vn -0.002091706 0.9999425 0.01051557
vn -0.008694232 0.9990066 0.0437088
vn -0.01102132 0.9995852 0.02660763
vn -0.01705432 0.9990066 0.04117262
vn -0.01600039 0.9995852 0.02394581
vn -0.009530663 0.9998529 0.01426327
vn -0.01213026 0.9998529 0.01212966
vn -0.02475876 0.9990066 0.03705407
vn -0.005956531 0.9999425 0.008914948
vn -0.02036494 0.9995852 0.02036428
vn -0.007581174 0.9999425 0.007581472
vn -0.03151214 0.9990066 0.03151202
vn -0.02394605 0.9995852 0.01600182
vn -0.01426345 0.9998528 0.009532569
vn -0.01584971 0.9998528 0.006567
vn -0.03705395 0.9990066 0.02475894
vn -0.008914649 0.9999425 0.005956411
vn -0.02660734 0.9995852 0.01102245
vn -0.02824664 0.9995852 0.005618334
vn -0.0168271 0.9998528 0.0033468
vn -0.01715725 0.9998528 -7.748604E-07
vn -0.04117114 0.9990066 0.0170536
vn -0.009905577 0.9999425 0.004102707
vn -0.04370672 0.9990066 0.008693577
vn -0.01051575 0.9999425 0.002091765
vn -0.01072174 0.9999425 0
vn -0.04456311 0.9990066 -1.788139E-07
vn -0.02880037 0.9995852 -5.960464E-07
vn -0.0282476 0.9995852 -0.005619169
vn -0.01682854 0.9998528 -0.003347635
vn -0.01585251 0.9998528 -0.00656557
vn -0.04370702 0.9990066 -0.008694172
vn -0.01051575 0.9999425 -0.002091706
vn -0.009905636 0.9999425 -0.004102945
vn -0.02660901 0.9995852 -0.01102138
vn -0.04117126 0.9990066 -0.0170536
vn -0.007581472 0.9999425 -0.007581532
vn -0.004103065 0.9999425 -0.009905636
vn -0.002091706 0.9999425 -0.01051593
vn -0.02394724 0.9995852 -0.01600033
vn -0.01426655 0.9998528 -0.009531735
vn -0.01213229 0.9998528 -0.01213318
vn -0.008914828 0.9999425 -0.005956769
vn -0.03705323 0.9990066 -0.02475792
vn -0.02036518 0.9995852 -0.02036584
vn -0.03151107 0.9990066 -0.03151124
vn -0.01600081 0.9995852 -0.02394778
vn -0.009532272 0.9998528 -0.01426726
vn -0.006566226 0.9998528 -0.01585197
vn -0.005956709 0.9999425 -0.008914888
vn -0.0247581 0.9990066 -0.03705347
vn -0.01102179 0.9995852 -0.02660865
vn -0.005618871 0.9995852 -0.02824772
vn -0.003347456 0.9998528 -0.0168289
vn 0 0.9998528 -0.01715863
vn -0.01705378 0.9990066 -0.04117131
vn -0.008693933 0.9990066 -0.04370725
vn 0 0.9999425 -0.0107221
vn 0 0.9990066 -0.044563
vn 0 0.9995852 -0.02880072
vn 0.005618811 0.9995852 -0.02824736
vn 0.003347397 0.9998528 -0.01682902
vn 0.006566166 0.9998528 -0.01585245
vn 0.002091765 0.9999425 -0.01051587
vn 0.008693935 0.9990067 -0.04370636
vn 0.004103065 0.9999425 -0.009905636
vn 0.01705384 0.9990066 -0.04117072
vn 0.01102185 0.9995852 -0.02660859
vn 0.01600087 0.9995852 -0.02394712
vn 0.009532331 0.9998528 -0.01426685
vn 0.01213229 0.9998528 -0.012133
vn 0.02475822 0.9990066 -0.0370524
vn 0.00595665 0.9999425 -0.00891459
vn 0.020365 0.9995852 -0.0203653
vn 0.007581472 0.9999425 -0.007581293
vn 0.03151084 0.9990066 -0.03151048
vn 0.02394736 0.9995852 -0.01600033
vn 0.01426685 0.9998528 -0.009531974
vn 0.01585281 0.9998528 -0.006565808
vn 0.03705299 0.9990066 -0.02475763
vn 0.008914828 0.9999425 -0.005956471
vn 0.009905577 0.9999425 -0.004103422
vn 0.02660918 0.9995852 -0.01102162
vn 0.0411712 0.9990066 -0.01705384
vn 0.0107218 0.9999425 -4.172325E-07
vn 0.02824796 0.9995852 -0.00561893
vn 0.01682902 0.9998528 -0.003347278
vn 0.01051569 0.9999425 -0.002092838
vn 0.04370702 0.9990066 -0.008694351
vn 0.02880097 0.9995852 -1.192093E-07
vn 0.04456306 0.9990066 1.192093E-07
vn 0.04370666 0.9990066 0.008693577
g pm1012_11_BodyCSkin_tx1_0
f 3/3/3 2/2/2 1/1/1
f 4/4/4 2/2/2 3/3/3
f 5/5/5 3/3/3 1/1/1
f 5/5/5 1/1/1 6/6/6
f 1/1/1 7/7/7 6/6/6
f 6/6/6 7/7/7 8/8/8
f 9/9/9 4/4/4 3/3/3
f 3/3/3 5/5/5 10/10/10
f 3/3/3 10/10/10 9/9/9
f 11/11/11 5/5/5 6/6/6
f 5/5/5 11/11/11 10/10/10
f 9/9/9 12/12/12 4/4/4
f 12/12/12 13/13/13 4/4/4
f 14/14/14 13/13/13 12/12/12
f 10/10/10 15/15/15 9/9/9
f 12/12/12 9/9/9 16/16/16
f 9/9/9 15/15/15 16/16/16
f 17/17/17 14/14/14 12/12/12
f 12/12/12 16/16/16 17/17/17
f 10/10/10 11/11/11 18/18/18
f 10/10/10 18/18/18 15/15/15
f 17/17/17 19/19/19 14/14/14
f 19/19/19 20/20/20 14/14/14
f 21/21/21 20/20/20 19/19/19
f 16/16/16 15/15/15 22/22/22
f 18/18/18 23/23/23 15/15/15
f 15/15/15 23/23/23 22/22/22
f 11/11/11 24/24/24 18/18/18
f 23/23/23 18/18/18 24/24/24
f 16/16/16 25/25/25 17/17/17
f 16/16/16 22/22/22 25/25/25
f 19/19/19 17/17/17 26/26/26
f 17/17/17 25/25/25 26/26/26
f 27/27/27 21/21/21 19/19/19
f 19/19/19 26/26/26 27/27/27
f 28/28/28 22/22/22 23/23/23
f 22/22/22 28/28/28 25/25/25
f 26/26/26 25/25/25 29/29/29
f 25/25/25 28/28/28 29/29/29
f 30/30/30 28/28/28 23/23/23
f 30/30/30 23/23/23 24/24/24
f 30/30/30 31/31/31 28/28/28
f 31/31/31 29/29/29 28/28/28
f 24/24/24 32/32/32 30/30/30
f 31/31/31 30/30/30 33/33/33
f 26/26/26 29/29/29 34/34/34
f 29/29/29 31/31/31 34/34/34
f 26/26/26 34/34/34 27/27/27
f 27/27/27 35/35/35 21/21/21
f 35/35/35 36/36/36 21/21/21
f 37/37/37 36/36/36 35/35/35
f 34/34/34 31/31/31 38/38/38
f 38/38/38 31/31/31 33/33/33
f 27/27/27 34/34/34 39/39/39
f 35/35/35 27/27/27 39/39/39
f 39/39/39 34/34/34 38/38/38
f 40/40/40 37/37/37 35/35/35
f 35/35/35 39/39/39 40/40/40
f 39/39/39 38/38/38 41/41/41
f 38/38/38 33/33/33 41/41/41
f 39/39/39 41/41/41 40/40/40
f 40/40/40 42/42/42 37/37/37
f 42/42/42 43/43/43 37/37/37
f 44/44/44 43/43/43 42/42/42
f 40/40/40 41/41/41 45/45/45
f 42/42/42 40/40/40 45/45/45
f 41/41/41 33/33/33 46/46/46
f 45/45/45 41/41/41 46/46/46
f 47/47/47 44/44/44 42/42/42
f 42/42/42 45/45/45 47/47/47
f 46/46/46 33/33/33 48/48/48
f 33/33/33 30/30/30 48/48/48
f 45/45/45 46/46/46 49/49/49
f 45/45/45 49/49/49 47/47/47
f 46/46/46 48/48/48 49/49/49
f 47/47/47 50/50/50 44/44/44
f 50/50/50 51/51/51 44/44/44
f 52/52/52 51/51/51 50/50/50
f 47/47/47 49/49/49 53/53/53
f 50/50/50 47/47/47 53/53/53
f 49/49/49 48/48/48 54/54/54
f 53/53/53 49/49/49 54/54/54
f 55/55/55 52/52/52 50/50/50
f 50/50/50 53/53/53 55/55/55
f 55/55/55 56/56/56 52/52/52
f 56/56/56 57/57/57 52/52/52
f 58/58/58 57/57/57 56/56/56
f 53/53/53 59/59/59 55/55/55
f 53/53/53 54/54/54 59/59/59
f 56/56/56 55/55/55 59/59/59
f 54/54/54 48/48/48 60/60/60
f 54/54/54 60/60/60 59/59/59
f 48/48/48 30/30/30 60/60/60
f 61/61/61 59/59/59 60/60/60
f 61/61/61 56/56/56 59/59/59
f 62/62/62 60/60/60 30/30/30
f 62/62/62 61/61/61 60/60/60
f 62/62/62 63/63/63 61/61/61
f 63/63/63 62/62/62 30/30/30
f 61/61/61 64/64/64 56/56/56
f 63/63/63 64/64/64 61/61/61
f 65/65/65 58/58/58 56/56/56
f 64/64/64 65/65/65 56/56/56
f 65/65/65 66/66/66 58/58/58
f 66/66/66 67/67/67 58/58/58
f 68/68/68 67/67/67 66/66/66
f 65/65/65 64/64/64 69/69/69
f 66/66/66 65/65/65 69/69/69
f 64/64/64 63/63/63 70/70/70
f 69/69/69 64/64/64 70/70/70
f 63/63/63 30/30/30 71/71/71
f 70/70/70 63/63/63 71/71/71
f 72/72/72 68/68/68 66/66/66
f 66/66/66 69/69/69 72/72/72
f 69/69/69 70/70/70 73/73/73
f 70/70/70 71/71/71 73/73/73
f 69/69/69 73/73/73 72/72/72
f 71/71/71 30/30/30 74/74/74
f 74/74/74 30/30/30 75/75/75
f 76/76/76 75/75/75 30/30/30
f 72/72/72 77/77/77 68/68/68
f 77/77/77 78/78/78 68/68/68
f 79/79/79 78/78/78 77/77/77
f 73/73/73 71/71/71 80/80/80
f 80/80/80 71/71/71 74/74/74
f 72/72/72 73/73/73 81/81/81
f 77/77/77 72/72/72 81/81/81
f 81/81/81 73/73/73 80/80/80
f 82/82/82 79/79/79 77/77/77
f 77/77/77 81/81/81 82/82/82
f 81/81/81 80/80/80 83/83/83
f 80/80/80 74/74/74 83/83/83
f 81/81/81 83/83/83 82/82/82
f 82/82/82 84/84/84 79/79/79
f 84/84/84 85/85/85 79/79/79
f 86/86/86 85/85/85 84/84/84
f 83/83/83 74/74/74 87/87/87
f 87/87/87 74/74/74 75/75/75
f 82/82/82 83/83/83 88/88/88
f 84/84/84 82/82/82 88/88/88
f 88/88/88 83/83/83 87/87/87
f 89/89/89 86/86/86 84/84/84
f 84/84/84 88/88/88 89/89/89
f 89/89/89 90/90/90 86/86/86
f 90/90/90 91/91/91 86/86/86
f 92/92/92 91/91/91 90/90/90
f 88/88/88 87/87/87 93/93/93
f 88/88/88 93/93/93 89/89/89
f 87/87/87 75/75/75 93/93/93
f 90/90/90 89/89/89 93/93/93
f 94/94/94 93/93/93 75/75/75
f 94/94/94 90/90/90 93/93/93
f 76/76/76 94/94/94 75/75/75
f 76/76/76 95/95/95 94/94/94
f 95/95/95 76/76/76 30/30/30
f 94/94/94 96/96/96 90/90/90
f 95/95/95 96/96/96 94/94/94
f 97/97/97 92/92/92 90/90/90
f 96/96/96 97/97/97 90/90/90
f 97/97/97 98/98/98 92/92/92
f 98/98/98 97/97/97 96/96/96
f 98/98/98 99/99/99 92/92/92
f 100/100/100 99/99/99 98/98/98
f 96/96/96 95/95/95 101/101/101
f 101/101/101 95/95/95 30/30/30
f 102/102/102 96/96/96 101/101/101
f 102/102/102 98/98/98 96/96/96
f 102/102/102 101/101/101 103/103/103
f 103/103/103 101/101/101 30/30/30
f 102/102/102 104/104/104 98/98/98
f 104/104/104 102/102/102 103/103/103
f 105/105/105 100/100/100 98/98/98
f 104/104/104 105/105/105 98/98/98
f 105/105/105 106/106/106 100/100/100
f 106/106/106 107/107/107 100/100/100
f 108/108/108 107/107/107 106/106/106
f 105/105/105 104/104/104 109/109/109
f 106/106/106 105/105/105 109/109/109
f 104/104/104 103/103/103 110/110/110
f 109/109/109 104/104/104 110/110/110
f 111/111/111 108/108/108 106/106/106
f 106/106/106 109/109/109 111/111/111
f 112/112/112 110/110/110 103/103/103
f 30/30/30 112/112/112 103/103/103
f 109/109/109 110/110/110 113/113/113
f 109/109/109 113/113/113 111/111/111
f 110/110/110 112/112/112 113/113/113
f 111/111/111 114/114/114 108/108/108
f 114/114/114 115/115/115 108/108/108
f 116/116/116 115/115/115 114/114/114
f 111/111/111 113/113/113 117/117/117
f 114/114/114 111/111/111 117/117/117
f 113/113/113 112/112/112 118/118/118
f 117/117/117 113/113/113 118/118/118
f 30/30/30 119/119/119 112/112/112
f 119/119/119 118/118/118 112/112/112
f 120/120/120 116/116/116 114/114/114
f 114/114/114 117/117/117 120/120/120
f 117/117/117 118/118/118 121/121/121
f 118/118/118 119/119/119 121/121/121
f 117/117/117 121/121/121 120/120/120
f 30/30/30 122/122/122 119/119/119
f 32/32/32 122/122/122 30/30/30
f 120/120/120 123/123/123 116/116/116
f 123/123/123 124/124/124 116/116/116
f 8/8/8 124/124/124 123/123/123
f 121/121/121 119/119/119 125/125/125
f 122/122/122 125/125/125 119/119/119
f 120/120/120 121/121/121 126/126/126
f 123/123/123 120/120/120 126/126/126
f 126/126/126 121/121/121 125/125/125
f 127/127/127 8/8/8 123/123/123
f 123/123/123 126/126/126 127/127/127
f 127/127/127 6/6/6 8/8/8
f 125/125/125 122/122/122 128/128/128
f 126/126/126 125/125/125 128/128/128
f 126/126/126 128/128/128 127/127/127
f 128/128/128 122/122/122 32/32/32
f 6/6/6 127/127/127 128/128/128
f 129/129/129 128/128/128 32/32/32
f 129/129/129 6/6/6 128/128/128
f 129/129/129 32/32/32 24/24/24
f 129/129/129 11/11/11 6/6/6
f 11/11/11 129/129/129 24/24/24
