g n_eyebrows_default_mesh
v 0.9770484 94.32135 4.803492
v 1.058316 94.27169 4.764363
v 0.9379196 94.26416 4.783927
v 0.8641768 94.28222 4.797472
v 0.9138403 94.36048 4.808007
v 1.065841 94.34844 4.803492
v 1.285565 94.2747 4.695135
v 1.043267 94.46733 4.806502
v 1.28105 94.40864 4.771887
v 1.222356 94.60278 4.788442
v 1.526358 94.2747 4.604838
v 1.437565 94.75027 4.749314
v 1.494754 94.47937 4.726739
v 1.685883 94.53957 4.662026
v 1.709963 94.28523 4.544639
v 1.62719 94.79692 4.680086
v 1.886042 94.32135 4.482936
v 1.858953 94.58321 4.585273
v 1.819824 94.83755 4.592798
v 2.098241 94.64642 4.478421
v 2.101251 94.41466 4.391134
v 2.062122 94.87668 4.479926
v 2.311945 94.50947 4.287292
v 2.342044 94.69308 4.356519
v 2.31947 94.90076 4.3505
v 2.519629 94.56967 4.184955
v 2.566283 94.71264 4.231608
v 2.557253 94.90377 4.227093
v 2.724304 94.59977 4.064558
v 2.781492 94.87818 4.072083
v 2.784502 94.73371 4.099172
v 2.922958 94.62083 3.918577
v 2.968107 94.73672 3.954696
v 2.971117 94.84206 3.912557
v 3.108068 94.61181 3.754537
v 3.142682 94.78789 3.744002
v 3.148702 94.70662 3.786141
v 3.272108 94.65846 3.664239
v 3.219434 94.58622 3.650695
v 3.260068 94.73973 3.63113
v 3.323277 94.5471 3.540833
v 3.36692 94.67802 3.516754
v 3.383475 94.59676 3.542338
v 3.511396 94.53806 3.382813
v 3.451198 94.49292 3.390337
v 3.482802 94.59225 3.364753
v 3.571594 94.41917 3.242851
v 3.586644 94.48389 3.224792
v 3.595674 94.45831 3.254891
v 3.637813 94.368 3.167603
v 3.652862 94.38757 3.170613
v 3.648347 94.40112 3.152554
v 3.723595 94.27169 3.066772
v -2.967444 94.73672 3.954696
v -2.723641 94.59977 4.064558
v -2.9238 94.62083 3.918577
v -3.10891 94.61181 3.754537
v -2.783839 94.73371 4.099172
v -2.567126 94.71264 4.231608
v -2.520472 94.56967 4.184955
v -2.311283 94.50947 4.287292
v -2.342887 94.69308 4.356519
v -2.102094 94.41466 4.391134
v -2.099084 94.64642 4.478421
v -1.886885 94.32135 4.482936
v -1.859796 94.58321 4.585273
v -1.7093 94.28523 4.544639
v -1.686726 94.53957 4.662026
v -1.5272 94.2747 4.604838
v -1.820667 94.83755 4.592798
v -2.06146 94.87668 4.479926
v -2.320313 94.90076 4.3505
v -2.558096 94.90377 4.227093
v -2.780829 94.87818 4.072083
v -2.971959 94.84206 3.912557
v -1.628032 94.79692 4.680086
v -3.143524 94.78789 3.744002
v -1.438408 94.75027 4.749314
v -3.148039 94.70662 3.786141
v -3.259406 94.73973 3.63113
v -3.271445 94.65846 3.664239
v -3.367763 94.67802 3.516754
v -3.220277 94.58622 3.650695
v -3.382813 94.59676 3.542338
v -3.483644 94.59225 3.364753
v -3.324119 94.5471 3.540833
v -3.512239 94.53806 3.382813
v -3.585981 94.48389 3.224792
v -3.45204 94.49292 3.390337
v -3.595011 94.45831 3.254891
v -3.572437 94.41917 3.242851
v -3.64919 94.40112 3.152554
v -3.63715 94.368 3.167603
v -3.653705 94.38757 3.170613
v -3.722933 94.27169 3.066772
v -1.495596 94.47937 4.726739
v -1.280387 94.40864 4.771887
v -1.221694 94.60278 4.788442
v -1.286407 94.2747 4.695135
v -1.044109 94.46733 4.806502
v -1.065178 94.34844 4.803492
v -1.059158 94.27169 4.764363
v -0.9131775 94.36048 4.808007
v -0.9372568 94.26416 4.783927
v -0.9763861 94.32135 4.803492
v -0.8635139 94.28222 4.797472
vt 0.545437 0.01633392
vt 0.5525427 0.004855454
vt 0.542704 0.004855454
vt 0.542704 0.0272658
vt 0.5465301 0.0272658
vt 0.5525427 0.01633392
vt 0.5634745 0.004855454
vt 0.5509029 0.0272658
vt 0.562928 0.01633392
vt 0.560195 0.0272658
vt 0.5738599 0.004855454
vt 0.5716735 0.0272658
vt 0.5733132 0.01633392
vt 0.5826054 0.01633392
vt 0.5826054 0.004855454
vt 0.5815122 0.0272658
vt 0.5918974 0.004855454
vt 0.5918974 0.01633392
vt 0.5908043 0.0272658
vt 0.6011896 0.01633392
vt 0.600643 0.004855454
vt 0.6011896 0.0272658
vt 0.6088418 0.004855454
vt 0.6110283 0.01633392
vt 0.6115748 0.0272658
vt 0.6186805 0.004855454
vt 0.620867 0.01633392
vt 0.6219601 0.0272658
vt 0.6279727 0.004855454
vt 0.6317988 0.0272658
vt 0.6312522 0.01633392
vt 0.6372647 0.004855454
vt 0.6405443 0.01633392
vt 0.6416375 0.0272658
vt 0.6465569 0.004855454
vt 0.6514762 0.0272658
vt 0.650383 0.01633392
vt 0.6602217 0.01633392
vt 0.6569421 0.004855454
vt 0.6607683 0.0272658
vt 0.6673274 0.004855454
vt 0.670607 0.0272658
vt 0.6700604 0.01633392
vt 0.6766195 0.01633392
vt 0.6755263 0.004855454
vt 0.6771661 0.0272658
vt 0.6831787 0.004855454
vt 0.6842718 0.0272658
vt 0.6837252 0.01633392
vt 0.6924707 0.004855454
vt 0.6886446 0.01633392
vt 0.6875514 0.0272658
vt 0.6924707 0.0272658
vt 0.6405443 0.01633392
vt 0.6279727 0.004855454
vt 0.6372647 0.004855454
vt 0.6465569 0.004855454
vt 0.6312522 0.01633392
vt 0.620867 0.01633392
vt 0.6186805 0.004855454
vt 0.6088418 0.004855454
vt 0.6110283 0.01633392
vt 0.600643 0.004855454
vt 0.6011896 0.01633392
vt 0.5918974 0.004855454
vt 0.5918974 0.01633392
vt 0.5826054 0.004855454
vt 0.5826054 0.01633392
vt 0.5738599 0.004855454
vt 0.5908043 0.0272658
vt 0.6011896 0.0272658
vt 0.6115748 0.0272658
vt 0.6219601 0.0272658
vt 0.6317988 0.0272658
vt 0.6416375 0.0272658
vt 0.5815122 0.0272658
vt 0.6514762 0.0272658
vt 0.5716735 0.0272658
vt 0.650383 0.01633392
vt 0.6607683 0.0272658
vt 0.6602217 0.01633392
vt 0.670607 0.0272658
vt 0.6569421 0.004855454
vt 0.6700604 0.01633392
vt 0.6771661 0.0272658
vt 0.6673274 0.004855454
vt 0.6766195 0.01633392
vt 0.6842718 0.0272658
vt 0.6755263 0.004855454
vt 0.6837252 0.01633392
vt 0.6831787 0.004855454
vt 0.6875514 0.0272658
vt 0.6924707 0.004855454
vt 0.6886446 0.01633392
vt 0.6924707 0.0272658
vt 0.5733132 0.01633392
vt 0.562928 0.01633392
vt 0.560195 0.0272658
vt 0.5634745 0.004855454
vt 0.5509029 0.0272658
vt 0.5525427 0.01633392
vt 0.5525427 0.004855454
vt 0.5465301 0.0272658
vt 0.542704 0.004855454
vt 0.545437 0.01633392
vt 0.542704 0.0272658
vn 0.03134841 -0.03831494 0.9987739
vn 0.2542778 -0.463274 0.8489522
vn 0.1637127 -0.4423744 0.8817614
vn -0.01045084 -0.12888 0.9916052
vn 0.03134841 -0.03831494 0.9987739
vn 0.03134841 -0.03831494 0.9987739
vn 0.3169767 -0.4563075 0.83145
vn 0.03134841 -0.03831494 0.9987739
vn 0.1428131 -0.03134841 0.9892531
vn 0.1428131 -0.03134841 0.9892531
vn 0.3587759 -0.3936086 0.8463759
vn 0.205512 -0.03134841 0.9781524
vn 0.3587759 -0.3936086 0.8463759
vn 0.3587759 -0.3936086 0.8463759
vn 0.3587759 -0.3936086 0.8463759
vn 0.3309097 0.003484309 0.943656
vn 0.463274 -0.296077 0.8352937
vn 0.463274 -0.296077 0.8352937
vn 0.4075417 0.05225009 0.9116905
vn 0.463274 -0.296077 0.8352937
vn 0.463274 -0.296077 0.8352937
vn 0.4075417 0.05225009 0.9116905
vn 0.4981067 -0.3378763 0.7985795
vn 0.4981067 -0.3378763 0.7985795
vn 0.4354079 0.07314974 0.8972564
vn 0.5050733 -0.4145082 0.757023
vn 0.5050733 -0.4145082 0.757023
vn 0.5468726 0.1010159 0.8310994
vn 0.5050733 -0.4145082 0.757023
vn 0.5468726 0.1010159 0.8310994
vn 0.5050733 -0.4145082 0.757023
vn 0.5747387 -0.4493409 0.6839357
vn 0.5747387 -0.4493409 0.6839357
vn 0.7001365 0.2960791 0.6497277
vn 0.5259729 -0.4841737 0.6992341
vn 0.7001365 0.2960791 0.6497277
vn 0.5259729 -0.4841737 0.6992341
vn 0.5259729 -0.4841737 0.6992341
vn 0.5259729 -0.4841737 0.6992341
vn 0.7210361 0.3518115 0.5969386
vn 0.5050733 -0.5886718 0.6311628
vn 0.8046346 0.4005772 0.4382932
vn 0.5050733 -0.5886718 0.6311628
vn 0.5050733 -0.5886718 0.6311628
vn 0.5050733 -0.5886718 0.6311628
vn 0.8046346 0.4005772 0.4382932
vn 0.463274 -0.4911402 0.737671
vn 0.8255342 0.5190085 0.2216381
vn 0.463274 -0.4911402 0.737671
vn 0.463274 -0.4911402 0.737671
vn 0.463274 -0.4911402 0.737671
vn 0.8882331 0.449343 0.09556554
vn 0.8882331 0.449343 0.09556554
vn -0.5608078 -0.4354079 0.7042121
vn -0.5608078 -0.4354079 0.7042121
vn -0.5608078 -0.4354079 0.7042121
vn -0.5747408 -0.4493409 0.683934
vn -0.5608078 -0.4354079 0.7042121
vn -0.4841757 -0.3936086 0.7814385
vn -0.4841757 -0.3936086 0.7814385
vn -0.4841757 -0.3936086 0.7814385
vn -0.4841757 -0.3936086 0.7814385
vn -0.4981088 -0.3378763 0.7985783
vn -0.4981088 -0.3378763 0.7985783
vn -0.4145103 -0.3239432 0.8504364
vn -0.4145103 -0.3239432 0.8504364
vn -0.4145103 -0.3239432 0.8504364
vn -0.4145103 -0.3239432 0.8504364
vn -0.3169788 -0.4563075 0.8314493
vn -0.4005772 0.03135049 0.9157265
vn -0.43541 0.07314974 0.8972554
vn -0.43541 0.07314974 0.8972554
vn -0.4702427 0.06618321 0.880052
vn -0.6304732 0.1985475 0.7503881
vn -0.6304732 0.1985475 0.7503881
vn -0.4005772 0.03135049 0.9157265
vn -0.7001385 0.2960791 0.6497255
vn -0.205514 -0.03134841 0.978152
vn -0.7001385 0.2960791 0.6497255
vn -0.7698039 0.3309118 0.5458015
vn -0.4911423 -0.5329394 0.6890245
vn -0.7698039 0.3309118 0.5458015
vn -0.4911423 -0.5329394 0.6890245
vn -0.4911423 -0.5329394 0.6890245
vn -0.8255363 0.5190085 0.2216303
vn -0.4911423 -0.5329394 0.6890245
vn -0.5120419 -0.5329394 0.6736384
vn -0.8255363 0.5190085 0.2216303
vn -0.5120419 -0.5329394 0.6736384
vn -0.4632761 -0.4911402 0.7376696
vn -0.4632761 -0.4911402 0.7376696
vn -0.8882353 0.449343 0.09554558
vn -0.4632761 -0.4911402 0.7376696
vn -0.4632761 -0.4911402 0.7376696
vn -0.8882353 0.449343 0.09554558
vn -0.3169788 -0.4563075 0.8314493
vn -0.1428152 -0.03134841 0.9892528
vn -0.1428152 -0.03134841 0.9892528
vn -0.3169788 -0.4563075 0.8314493
vn -0.1428152 -0.03134841 0.9892528
vn -0.1428152 -0.03134841 0.9892528
vn -0.2542798 -0.463274 0.8489517
vn 0.01044875 -0.12888 0.9916052
vn -0.07314974 -0.3657424 0.927837
vn 0.01044875 -0.12888 0.9916052
vn 0.01044875 -0.12888 0.9916052
g n_eyebrows_default_mesh_0
f 3/3/3 2/2/2 1/1/1
f 3/3/3 1/1/1 4/4/4
f 5/5/5 4/4/4 1/1/1
f 2/2/2 6/6/6 1/1/1
f 5/5/5 1/1/1 6/6/6
f 6/6/6 2/2/2 7/7/7
f 8/8/8 5/5/5 6/6/6
f 9/9/9 6/6/6 7/7/7
f 6/6/6 9/9/9 8/8/8
f 9/9/9 10/10/10 8/8/8
f 9/9/9 7/7/7 11/11/11
f 10/10/10 9/9/9 12/12/12
f 13/13/13 9/9/9 11/11/11
f 9/9/9 13/13/13 12/12/12
f 14/14/14 13/13/13 11/11/11
f 13/13/13 14/14/14 12/12/12
f 15/15/15 14/14/14 11/11/11
f 14/14/14 16/16/16 12/12/12
f 15/15/15 17/17/17 14/14/14
f 14/14/14 18/18/18 16/16/16
f 17/17/17 18/18/18 14/14/14
f 18/18/18 19/19/19 16/16/16
f 20/20/20 18/18/18 17/17/17
f 18/18/18 20/20/20 19/19/19
f 21/21/21 20/20/20 17/17/17
f 20/20/20 22/22/22 19/19/19
f 21/21/21 23/23/23 20/20/20
f 20/20/20 24/24/24 22/22/22
f 23/23/23 24/24/24 20/20/20
f 24/24/24 25/25/25 22/22/22
f 24/24/24 23/23/23 26/26/26
f 25/25/25 24/24/24 27/27/27
f 27/27/27 24/24/24 26/26/26
f 28/28/28 25/25/25 27/27/27
f 27/27/27 26/26/26 29/29/29
f 28/28/28 27/27/27 30/30/30
f 31/31/31 27/27/27 29/29/29
f 27/27/27 31/31/31 30/30/30
f 31/31/31 29/29/29 32/32/32
f 30/30/30 31/31/31 33/33/33
f 33/33/33 31/31/31 32/32/32
f 34/34/34 30/30/30 33/33/33
f 33/33/33 32/32/32 35/35/35
f 34/34/34 33/33/33 36/36/36
f 37/37/37 33/33/33 35/35/35
f 33/33/33 37/37/37 36/36/36
f 38/38/38 37/37/37 35/35/35
f 36/36/36 37/37/37 38/38/38
f 39/39/39 38/38/38 35/35/35
f 40/40/40 36/36/36 38/38/38
f 39/39/39 41/41/41 38/38/38
f 40/40/40 38/38/38 42/42/42
f 41/41/41 43/43/43 38/38/38
f 38/38/38 43/43/43 42/42/42
f 44/44/44 43/43/43 41/41/41
f 42/42/42 43/43/43 44/44/44
f 45/45/45 44/44/44 41/41/41
f 46/46/46 42/42/42 44/44/44
f 45/45/45 47/47/47 44/44/44
f 46/46/46 44/44/44 48/48/48
f 47/47/47 49/49/49 44/44/44
f 44/44/44 49/49/49 48/48/48
f 47/47/47 50/50/50 49/49/49
f 48/48/48 49/49/49 51/51/51
f 50/50/50 51/51/51 49/49/49
f 52/52/52 48/48/48 51/51/51
f 50/50/50 53/53/53 51/51/51
f 52/52/52 51/51/51 53/53/53
f 56/56/56 55/55/55 54/54/54
f 56/56/56 54/54/54 57/57/57
f 55/55/55 58/58/58 54/54/54
f 59/59/59 58/58/58 55/55/55
f 60/60/60 59/59/59 55/55/55
f 60/60/60 61/61/61 59/59/59
f 61/61/61 62/62/62 59/59/59
f 62/62/62 61/61/61 63/63/63
f 64/64/64 62/62/62 63/63/63
f 64/64/64 63/63/63 65/65/65
f 66/66/66 64/64/64 65/65/65
f 66/66/66 65/65/65 67/67/67
f 68/68/68 66/66/66 67/67/67
f 68/68/68 67/67/67 69/69/69
f 64/64/64 66/66/66 70/70/70
f 70/70/70 66/66/66 68/68/68
f 71/71/71 64/64/64 70/70/70
f 71/71/71 72/72/72 64/64/64
f 72/72/72 62/62/62 64/64/64
f 62/62/62 72/72/72 73/73/73
f 59/59/59 62/62/62 73/73/73
f 59/59/59 73/73/73 74/74/74
f 58/58/58 59/59/59 74/74/74
f 58/58/58 74/74/74 75/75/75
f 76/76/76 70/70/70 68/68/68
f 54/54/54 58/58/58 75/75/75
f 54/54/54 75/75/75 77/77/77
f 76/76/76 68/68/68 78/78/78
f 79/79/79 54/54/54 77/77/77
f 79/79/79 77/77/77 80/80/80
f 54/54/54 79/79/79 57/57/57
f 81/81/81 79/79/79 80/80/80
f 79/79/79 81/81/81 57/57/57
f 81/81/81 80/80/80 82/82/82
f 81/81/81 83/83/83 57/57/57
f 84/84/84 81/81/81 82/82/82
f 81/81/81 84/84/84 83/83/83
f 84/84/84 82/82/82 85/85/85
f 84/84/84 86/86/86 83/83/83
f 87/87/87 84/84/84 85/85/85
f 84/84/84 87/87/87 86/86/86
f 87/87/87 85/85/85 88/88/88
f 87/87/87 89/89/89 86/86/86
f 90/90/90 87/87/87 88/88/88
f 87/87/87 90/90/90 89/89/89
f 90/90/90 91/91/91 89/89/89
f 90/90/90 88/88/88 92/92/92
f 93/93/93 91/91/91 90/90/90
f 94/94/94 90/90/90 92/92/92
f 94/94/94 93/93/93 90/90/90
f 94/94/94 92/92/92 95/95/95
f 94/94/94 95/95/95 93/93/93
f 96/96/96 68/68/68 69/69/69
f 68/68/68 96/96/96 78/78/78
f 97/97/97 96/96/96 69/69/69
f 96/96/96 97/97/97 78/78/78
f 97/97/97 98/98/98 78/78/78
f 99/99/99 97/97/97 69/69/69
f 100/100/100 98/98/98 97/97/97
f 101/101/101 97/97/97 99/99/99
f 101/101/101 100/100/100 97/97/97
f 102/102/102 101/101/101 99/99/99
f 103/103/103 100/100/100 101/101/101
f 101/101/101 102/102/102 104/104/104
f 105/105/105 103/103/103 101/101/101
f 105/105/105 101/101/101 104/104/104
f 105/105/105 106/106/106 103/103/103
f 105/105/105 104/104/104 106/106/106
