g n_eyelashes_fern_a_crease_mesh
v 1.401238 93.82006 4.339059
v 1.426447 93.79041 4.32423
v 1.307815 93.69698 4.297538
v 1.553976 93.95352 4.364268
v 1.571771 93.91348 4.34944
v 1.771962 93.99059 4.312366
v 1.760099 94.04102 4.325713
v 1.988465 94.02174 4.247119
v 1.982533 94.07215 4.258983
v 2.139721 94.02174 4.187803
v 2.138238 94.07067 4.198184
v 2.302839 94.05436 4.118107
v 2.298391 94.00987 4.107727
v 2.483753 93.9728 3.997992
v 2.498582 94.01432 4.009855
v 2.793679 93.85565 3.793352
v 2.811473 93.88383 3.799284
v 2.974592 93.76223 3.648029
v 1.260362 93.95055 4.413204
v 1.267777 93.96539 4.465105
v 1.284089 93.95352 4.410238
v 1.341922 94.01284 4.44731
v 1.330059 94.02174 4.49328
v 1.439793 94.11071 4.527387
v 1.445725 94.09588 4.47252
v 1.60736 94.11813 4.429516
v 1.610326 94.14185 4.491797
v 1.822381 94.15965 4.411721
v 1.813483 94.14037 4.367234
v 2.173827 94.17744 4.267879
v 2.163447 94.16558 4.23229
v 2.394779 94.13889 4.118107
v 2.409608 94.15372 4.159628
v 2.525274 94.12702 4.086967
v 2.505996 94.11516 4.054342
v 2.606833 94.07661 3.981681
v 2.633526 94.08698 4.011338
v 2.735846 94.00542 3.873429
v 2.762538 94.01284 3.89419
v 2.836683 93.95501 3.814113
v 1.260362 93.95055 4.413204
v 1.255914 93.9817 4.430999
v 1.267777 93.96539 4.465105
v 1.307815 94.04694 4.466588
v 1.330059 94.02174 4.49328
v 1.439793 94.11071 4.527387
v 1.413101 94.14778 4.496246
v 1.610326 94.14185 4.491797
v 1.595497 94.17744 4.453242
v 1.800137 94.19376 4.38058
v 1.822381 94.15965 4.411721
v 2.163447 94.2071 4.238222
v 2.173827 94.17744 4.267879
v 2.409608 94.15372 4.159628
v 2.408125 94.17892 4.127005
v 2.522308 94.15223 4.058791
v 2.525274 94.12702 4.086967
v 2.633526 94.08698 4.011338
v 2.627594 94.11516 3.984647
v 2.755123 94.03657 3.876395
v 2.762538 94.01284 3.89419
v 2.836683 93.95501 3.814113
v -1.401439 93.82006 4.339059
v -1.308016 93.69698 4.297538
v -1.426648 93.79041 4.32423
v -1.554177 93.95352 4.364268
v -1.571972 93.91348 4.34944
v -1.772163 93.99059 4.312366
v -1.7603 94.04102 4.325713
v -1.988666 94.02174 4.247119
v -1.982734 94.07215 4.258983
v -2.139922 94.02174 4.187803
v -2.138439 94.07067 4.198184
v -2.303041 94.05436 4.118107
v -2.298592 94.00987 4.107727
v -2.483954 93.9728 3.997992
v -2.498783 94.01432 4.009855
v -2.79388 93.85565 3.793352
v -2.811674 93.88383 3.799284
v -2.974793 93.76223 3.648029
v -1.260564 93.95055 4.413204
v -1.282807 93.95352 4.410238
v -1.267978 93.96539 4.465105
v -1.342123 94.01284 4.44731
v -1.33026 94.02174 4.49328
v -1.438511 94.11071 4.527387
v -1.445925 94.09588 4.47252
v -1.607561 94.11813 4.429516
v -1.610527 94.14185 4.491797
v -1.822582 94.15965 4.411721
v -1.813684 94.14037 4.367234
v -2.174029 94.17744 4.267879
v -2.163648 94.16558 4.23229
v -2.39498 94.13889 4.118107
v -2.409809 94.15372 4.159628
v -2.525475 94.12702 4.086967
v -2.506198 94.11516 4.054342
v -2.607034 94.07661 3.981681
v -2.633727 94.08698 4.011338
v -2.736047 94.00542 3.873429
v -2.762739 94.01284 3.89419
v -2.836884 93.95501 3.814113
v -1.260564 93.95055 4.413204
v -1.267978 93.96539 4.465105
v -1.256115 93.9817 4.430999
v -1.306533 94.04694 4.466588
v -1.33026 94.02174 4.49328
v -1.438511 94.11071 4.527387
v -1.411819 94.14778 4.496246
v -1.610527 94.14185 4.491797
v -1.595699 94.17744 4.453242
v -1.800338 94.19376 4.38058
v -1.822582 94.15965 4.411721
v -2.163648 94.2071 4.238222
v -2.174029 94.17744 4.267879
v -2.409809 94.15372 4.159628
v -2.408326 94.17892 4.127005
v -2.522509 94.15223 4.058791
v -2.525475 94.12702 4.086967
v -2.633727 94.08698 4.011338
v -2.627795 94.11516 3.984647
v -2.755324 94.03657 3.876395
v -2.762739 94.01284 3.89419
v -2.836884 93.95501 3.814113
vt 0.9721558 0.4556538
vt 0.9721558 0.4556538
vt 0.9716413 0.4556538
vt 0.9726702 0.4551394
vt 0.9726702 0.4551394
vt 0.9731847 0.454625
vt 0.9731847 0.454625
vt 0.9731847 0.4541105
vt 0.9731847 0.4541105
vt 0.9731847 0.4535961
vt 0.9731847 0.4535961
vt 0.9736991 0.4530816
vt 0.9731847 0.4530816
vt 0.9731847 0.4530816
vt 0.9736991 0.4530816
vt 0.9731847 0.4520527
vt 0.9731847 0.4520527
vt 0.9731847 0.4515383
vt 0.9731847 0.4535961
vt 0.9731847 0.4535961
vt 0.9731847 0.4535961
vt 0.9731847 0.4530816
vt 0.9731847 0.4535961
vt 0.9731847 0.4530816
vt 0.9731847 0.4530816
vt 0.9731847 0.4530816
vt 0.9731847 0.4530816
vt 0.9731847 0.4525672
vt 0.9731847 0.4525672
vt 0.9736991 0.4525672
vt 0.9731847 0.4525672
vt 0.9731847 0.4520527
vt 0.9736991 0.4520527
vt 0.9736991 0.4520527
vt 0.9731847 0.4520527
vt 0.9731847 0.4520527
vt 0.9736991 0.4520527
vt 0.9731847 0.4515383
vt 0.9731847 0.4515383
vt 0.9731847 0.4515383
vt 0.9731847 0.4535961
vt 0.9731847 0.4535961
vt 0.9731847 0.4535961
vt 0.9731847 0.4530816
vt 0.9731847 0.4535961
vt 0.9731847 0.4530816
vt 0.9731847 0.4530816
vt 0.9731847 0.4530816
vt 0.9731847 0.4530816
vt 0.9731847 0.4525672
vt 0.9731847 0.4525672
vt 0.9731847 0.4525672
vt 0.9736991 0.4525672
vt 0.9736991 0.4520527
vt 0.9731847 0.4520527
vt 0.9731847 0.4520527
vt 0.9736991 0.4520527
vt 0.9736991 0.4520527
vt 0.9731847 0.4520527
vt 0.9731847 0.4515383
vt 0.9731847 0.4515383
vt 0.9731847 0.4515383
vt 0.9721558 0.4556538
vt 0.9716413 0.4556538
vt 0.9721558 0.4556538
vt 0.9726702 0.4551394
vt 0.9726702 0.4551394
vt 0.9731847 0.454625
vt 0.9731847 0.454625
vt 0.9731847 0.4541105
vt 0.9731847 0.4541105
vt 0.9731847 0.4535961
vt 0.9731847 0.4535961
vt 0.9736991 0.4530816
vt 0.9731847 0.4530816
vt 0.9731847 0.4530816
vt 0.9736991 0.4530816
vt 0.9731847 0.4520527
vt 0.9731847 0.4520527
vt 0.9731847 0.4515383
vt 0.9731847 0.4535961
vt 0.9731847 0.4535961
vt 0.9731847 0.4535961
vt 0.9731847 0.4530816
vt 0.9731847 0.4535961
vt 0.9731847 0.4530816
vt 0.9731847 0.4530816
vt 0.9731847 0.4530816
vt 0.9731847 0.4530816
vt 0.9731847 0.4525672
vt 0.9731847 0.4525672
vt 0.9736991 0.4525672
vt 0.9731847 0.4525672
vt 0.9731847 0.4520527
vt 0.9736991 0.4520527
vt 0.9736991 0.4520527
vt 0.9731847 0.4520527
vt 0.9731847 0.4520527
vt 0.9736991 0.4520527
vt 0.9731847 0.4515383
vt 0.9731847 0.4515383
vt 0.9731847 0.4515383
vt 0.9731847 0.4535961
vt 0.9731847 0.4535961
vt 0.9731847 0.4535961
vt 0.9731847 0.4530816
vt 0.9731847 0.4535961
vt 0.9731847 0.4530816
vt 0.9731847 0.4530816
vt 0.9731847 0.4530816
vt 0.9731847 0.4530816
vt 0.9731847 0.4525672
vt 0.9731847 0.4525672
vt 0.9731847 0.4525672
vt 0.9736991 0.4525672
vt 0.9736991 0.4520527
vt 0.9731847 0.4520527
vt 0.9731847 0.4520527
vt 0.9736991 0.4520527
vt 0.9736991 0.4520527
vt 0.9731847 0.4520527
vt 0.9731847 0.4515383
vt 0.9731847 0.4515383
vt 0.9731847 0.4515383
vn 0.121792 -0.3390889 0.9328373
vn 0.1150015 -0.3458794 0.9312046
vn 0.1014205 -0.3866226 0.9166444
vn 0.2032784 -0.2576026 0.9446263
vn 0.1964878 -0.2643931 0.9441869
vn 0.2847647 -0.1964878 0.9382439
vn 0.2847647 -0.1964878 0.9382439
vn 0.3322984 -0.1829068 0.9252691
vn 0.3255079 -0.1829068 0.9276798
vn 0.3934131 -0.1964878 0.8981195
vn 0.3866226 -0.1964878 0.9010636
vn 0.4205752 -0.2576026 0.869918
vn 0.4205752 -0.2643931 0.8678783
vn 0.4069942 -0.3594605 0.8397285
vn 0.4069942 -0.3594605 0.8397285
vn 0.4002036 -0.4002036 0.8244236
vn 0.4002036 -0.4002036 0.8244236
vn 0.4205752 -0.4273658 0.8002968
vn -0.3263828 -0.8891216 0.3208381
vn -0.02759957 -0.5631763 0.8258758
vn 0.5224332 -0.7940542 0.3107113
vn 0.5631763 -0.7736826 0.2902546
vn 0.01993412 -0.4273658 0.903859
vn 0.1150015 -0.1285826 0.9850082
vn 0.3594605 -0.8823311 0.3037763
vn 0.2100689 -0.9162837 0.3410209
vn 0.2983457 -0.1896973 0.9354169
vn 0.3730416 -0.1421636 0.9168585
vn 0.1964878 -0.9230742 0.3306456
vn 0.3934131 -0.1285826 0.9103255
vn 0.1285826 -0.9366553 0.3257966
vn 0.0267247 -0.9434458 0.3304479
vn 0.4205752 -0.1761163 0.8899997
vn 0.4748994 -0.2643931 0.8393847
vn -0.04118061 -0.9298648 0.3655895
vn -0.1022954 -0.9027026 0.4179277
vn 0.5088521 -0.2983457 0.8075019
vn -0.1294575 -0.8891216 0.4389802
vn 0.5088521 -0.366251 0.779057
vn 0.4273658 -0.5020615 0.7518595
vn -0.3263828 -0.8891216 0.3208381
vn -0.7881385 0.2245249 0.5730849
vn -0.02759957 -0.5631763 0.8258758
vn -0.5844227 0.3195922 0.7458625
vn 0.01993412 -0.4273658 0.903859
vn 0.1150015 -0.1285826 0.9850082
vn -0.2313154 0.5572606 0.7974671
vn 0.2983457 -0.1896973 0.9354169
vn 0.1150015 0.7202333 0.6841335
vn 0.2032784 0.7270238 0.6558309
vn 0.3730416 -0.1421636 0.9168585
vn 0.2711836 0.7338144 0.6228771
vn 0.3934131 -0.1285826 0.9103255
vn 0.4205752 -0.1761163 0.8899997
vn 0.4002036 0.7270238 0.5579188
vn 0.5428047 0.6591185 0.5205053
vn 0.4748994 -0.2643931 0.8393847
vn 0.5088521 -0.2983457 0.8075019
vn 0.6582437 0.5776322 0.4827591
vn 0.726149 0.5368891 0.4294855
vn 0.5088521 -0.366251 0.779057
vn 0.4273658 -0.5020615 0.7518595
vn -0.1158764 -0.3390889 0.9335905
vn -0.1022954 -0.3866226 0.9165471
vn -0.1158764 -0.3458794 0.9310961
vn -0.2041533 -0.2576026 0.9444376
vn -0.1973627 -0.2643931 0.9440044
vn -0.2856395 -0.1964878 0.9379779
vn -0.2856395 -0.1964878 0.9379779
vn -0.3263828 -0.1829068 0.9273723
vn -0.3263828 -0.1829068 0.9273723
vn -0.3874974 -0.1964878 0.9006877
vn -0.3807069 -0.1964878 0.9035789
vn -0.4214501 -0.2576026 0.8694945
vn -0.4214501 -0.2643931 0.8674538
vn -0.4078691 -0.3594605 0.8393039
vn -0.4078691 -0.3594605 0.8393039
vn -0.4010786 -0.4002036 0.8239982
vn -0.4010786 -0.4002036 0.8239982
vn -0.4214501 -0.4273658 0.7998364
vn 0.3255079 -0.8891216 0.3217258
vn -0.523308 -0.7940542 0.3092356
vn 0.03351521 -0.5631763 0.8256568
vn -0.5640512 -0.7736826 0.2885507
vn -0.02080899 -0.4273658 0.9038393
vn -0.1158764 -0.1285826 0.9849057
vn -0.3603354 -0.8823311 0.302738
vn -0.2109438 -0.9162837 0.3404804
vn -0.2992207 -0.1896973 0.9351374
vn -0.3739164 -0.1421636 0.9165021
vn -0.1905721 -0.9230742 0.3340901
vn -0.3942879 -0.1285826 0.909947
vn -0.1294575 -0.9366553 0.32545
vn -0.02759957 -0.9434458 0.3303759
vn -0.4214501 -0.1761163 0.8895857
vn -0.4689838 -0.2643931 0.8427042
vn 0.04030573 -0.9298648 0.365687
vn 0.1014205 -0.9027026 0.418141
vn -0.5029365 -0.2983457 0.8111996
vn 0.1285826 -0.8891216 0.4392372
vn -0.509727 -0.366251 0.7784848
vn -0.4282407 -0.5020615 0.7513615
vn 0.3255079 -0.8891216 0.3217258
vn 0.03351521 -0.5631763 0.8256568
vn 0.7872637 0.2245249 0.574286
vn 0.5903384 0.3195922 0.7411892
vn -0.02080899 -0.4273658 0.9038393
vn -0.1158764 -0.1285826 0.9849057
vn 0.2304405 0.5572606 0.7977203
vn -0.2992207 -0.1896973 0.9351374
vn -0.1158764 0.7202333 0.6839858
vn -0.2041533 0.7270238 0.6555591
vn -0.3739164 -0.1421636 0.9165021
vn -0.2720585 0.7338144 0.6224955
vn -0.3942879 -0.1285826 0.909947
vn -0.4214501 -0.1761163 0.8895857
vn -0.4010786 0.7270238 0.5572901
vn -0.5436796 0.6591185 0.5195914
vn -0.4689838 -0.2643931 0.8427042
vn -0.5029365 -0.2983457 0.8111996
vn -0.6591185 0.5776322 0.4815639
vn -0.7270238 0.5368891 0.4280029
vn -0.509727 -0.366251 0.7784848
vn -0.4282407 -0.5020615 0.7513615
g n_eyelashes_fern_a_crease_mesh_0
f 3/3/3 2/2/2 1/1/1
f 4/4/4 1/1/1 2/2/2
f 5/5/5 4/4/4 2/2/2
f 5/5/5 6/6/6 4/4/4
f 6/6/6 7/7/7 4/4/4
f 6/6/6 8/8/8 7/7/7
f 8/8/8 9/9/9 7/7/7
f 8/8/8 10/10/10 9/9/9
f 10/10/10 11/11/11 9/9/9
f 11/11/11 10/10/10 12/12/12
f 10/10/10 13/13/13 12/12/12
f 13/13/13 14/14/14 12/12/12
f 14/14/14 15/15/15 12/12/12
f 14/14/14 16/16/16 15/15/15
f 16/16/16 17/17/17 15/15/15
f 18/18/18 17/17/17 16/16/16
f 21/21/21 20/20/20 19/19/19
f 21/21/21 22/22/22 20/20/20
f 22/22/22 23/23/23 20/20/20
f 24/24/24 23/23/23 22/22/22
f 25/25/25 24/24/24 22/22/22
f 24/24/24 25/25/25 26/26/26
f 27/27/27 24/24/24 26/26/26
f 27/27/27 26/26/26 28/28/28
f 26/26/26 29/29/29 28/28/28
f 30/30/30 28/28/28 29/29/29
f 31/31/31 30/30/30 29/29/29
f 31/31/31 32/32/32 30/30/30
f 32/32/32 33/33/33 30/30/30
f 34/34/34 33/33/33 32/32/32
f 35/35/35 34/34/34 32/32/32
f 35/35/35 36/36/36 34/34/34
f 36/36/36 37/37/37 34/34/34
f 36/36/36 38/38/38 37/37/37
f 38/38/38 39/39/39 37/37/37
f 38/38/38 40/40/40 39/39/39
f 43/43/43 42/42/42 41/41/41
f 42/42/42 43/43/43 44/44/44
f 43/43/43 45/45/45 44/44/44
f 44/44/44 45/45/45 46/46/46
f 47/47/47 44/44/44 46/46/46
f 47/47/47 46/46/46 48/48/48
f 49/49/49 47/47/47 48/48/48
f 49/49/49 48/48/48 50/50/50
f 48/48/48 51/51/51 50/50/50
f 52/52/52 50/50/50 51/51/51
f 53/53/53 52/52/52 51/51/51
f 52/52/52 53/53/53 54/54/54
f 55/55/55 52/52/52 54/54/54
f 56/56/56 55/55/55 54/54/54
f 57/57/57 56/56/56 54/54/54
f 57/57/57 58/58/58 56/56/56
f 58/58/58 59/59/59 56/56/56
f 59/59/59 58/58/58 60/60/60
f 58/58/58 61/61/61 60/60/60
f 60/60/60 61/61/61 62/62/62
f 65/65/65 64/64/64 63/63/63
f 63/63/63 66/66/66 65/65/65
f 66/66/66 67/67/67 65/65/65
f 68/68/68 67/67/67 66/66/66
f 69/69/69 68/68/68 66/66/66
f 70/70/70 68/68/68 69/69/69
f 71/71/71 70/70/70 69/69/69
f 72/72/72 70/70/70 71/71/71
f 73/73/73 72/72/72 71/71/71
f 72/72/72 73/73/73 74/74/74
f 75/75/75 72/72/72 74/74/74
f 76/76/76 75/75/75 74/74/74
f 77/77/77 76/76/76 74/74/74
f 78/78/78 76/76/76 77/77/77
f 79/79/79 78/78/78 77/77/77
f 79/79/79 80/80/80 78/78/78
f 83/83/83 82/82/82 81/81/81
f 84/84/84 82/82/82 83/83/83
f 85/85/85 84/84/84 83/83/83
f 85/85/85 86/86/86 84/84/84
f 86/86/86 87/87/87 84/84/84
f 87/87/87 86/86/86 88/88/88
f 86/86/86 89/89/89 88/88/88
f 88/88/88 89/89/89 90/90/90
f 91/91/91 88/88/88 90/90/90
f 90/90/90 92/92/92 91/91/91
f 92/92/92 93/93/93 91/91/91
f 94/94/94 93/93/93 92/92/92
f 95/95/95 94/94/94 92/92/92
f 95/95/95 96/96/96 94/94/94
f 96/96/96 97/97/97 94/94/94
f 98/98/98 97/97/97 96/96/96
f 99/99/99 98/98/98 96/96/96
f 100/100/100 98/98/98 99/99/99
f 101/101/101 100/100/100 99/99/99
f 102/102/102 100/100/100 101/101/101
f 105/105/105 104/104/104 103/103/103
f 104/104/104 105/105/105 106/106/106
f 107/107/107 104/104/104 106/106/106
f 107/107/107 106/106/106 108/108/108
f 106/106/106 109/109/109 108/108/108
f 108/108/108 109/109/109 110/110/110
f 109/109/109 111/111/111 110/110/110
f 110/110/110 111/111/111 112/112/112
f 113/113/113 110/110/110 112/112/112
f 112/112/112 114/114/114 113/113/113
f 114/114/114 115/115/115 113/113/113
f 115/115/115 114/114/114 116/116/116
f 114/114/114 117/117/117 116/116/116
f 117/117/117 118/118/118 116/116/116
f 118/118/118 119/119/119 116/116/116
f 120/120/120 119/119/119 118/118/118
f 121/121/121 120/120/120 118/118/118
f 120/120/120 121/121/121 122/122/122
f 123/123/123 120/120/120 122/122/122
f 123/123/123 122/122/122 124/124/124
