g n_glasses_divingsuit_lense_mesh
v -3.989428 92.66156 5.233066
v -4.126604 93.19067 5.239095
v -2.778953 93.24041 5.706401
v -3.72864 92.01035 5.257184
v -4.180872 93.70923 5.243617
v -3.55227 91.74805 5.291855
v -4.183887 94.1705 5.293363
v -3.226663 91.68474 5.383809
v -3.966816 94.54134 5.383809
v -2.787998 91.80231 5.522493
v -3.602015 94.60616 5.495359
v -2.349333 91.9214 5.641582
v -3.198021 94.50817 5.620478
v -1.821729 92.11737 5.811922
v -2.79252 94.41019 5.744087
v -1.324274 92.30429 5.950606
v -2.212156 94.24437 5.870712
v -1.001682 92.51382 6.06065
v -1.631792 94.07704 5.998844
v -0.8645048 92.68417 6.148081
v -1.030323 93.8253 6.136022
v -0.7544613 92.954 6.185767
v -0.8690271 93.67004 6.193304
v -0.7604914 93.34744 6.211393
v 3.989452 92.66156 5.233066
v 2.778977 93.24041 5.706401
v 4.126628 93.19067 5.239095
v 3.728664 92.01035 5.257184
v 4.180896 93.70923 5.243617
v 3.552294 91.74805 5.291855
v 4.183911 94.1705 5.293363
v 3.226687 91.68474 5.383809
v 3.96684 94.54134 5.383809
v 2.788022 91.80231 5.522493
v 3.60204 94.60616 5.495359
v 2.349357 91.9214 5.641582
v 3.198046 94.50817 5.620478
v 1.821753 92.11737 5.811922
v 2.792544 94.41019 5.744087
v 1.324298 92.30429 5.950606
v 2.21218 94.24437 5.870712
v 1.001706 92.51382 6.06065
v 1.631816 94.07704 5.998844
v 0.8645289 92.68417 6.148081
v 1.030347 93.8253 6.136022
v 0.7544858 92.954 6.185767
v 0.8690512 93.67004 6.193304
v 0.7605155 93.34744 6.211393
vt 0.8083975 0.7109765
vt 0.8148592 0.7417933
vt 0.7149528 0.7497461
vt 0.7949773 0.6727039
vt 0.8168473 0.7716161
vt 0.7850363 0.6572955
vt 0.8148592 0.7984565
vt 0.7656516 0.652822
vt 0.8009418 0.8193325
vt 0.738811 0.6587867
vt 0.7785747 0.8223147
vt 0.7124676 0.6647512
vt 0.7547165 0.8158532
vt 0.6801596 0.674692
vt 0.7303612 0.8093916
vt 0.6503369 0.6841359
vt 0.6965622 0.7984565
vt 0.630952 0.6975563
vt 0.662763 0.7875216
vt 0.6200171 0.7055089
vt 0.6274728 0.771119
vt 0.6140524 0.7204204
vt 0.619023 0.7656516
vt 0.6140524 0.7437814
vt 0.8083975 0.7109765
vt 0.7149528 0.7497461
vt 0.8148592 0.7417933
vt 0.7949773 0.6727039
vt 0.8168473 0.7716161
vt 0.7850363 0.6572955
vt 0.8148592 0.7984565
vt 0.7656516 0.652822
vt 0.8009418 0.8193325
vt 0.738811 0.6587867
vt 0.7785747 0.8223147
vt 0.7124676 0.6647512
vt 0.7547165 0.8158532
vt 0.6801596 0.674692
vt 0.7303612 0.8093916
vt 0.6503369 0.6841359
vt 0.6965622 0.7984565
vt 0.630952 0.6975563
vt 0.662763 0.7875216
vt 0.6200171 0.7055089
vt 0.6274728 0.771119
vt 0.6140524 0.7204204
vt 0.619023 0.7656516
vt 0.6140524 0.7437814
vn -0.3226811 -0.09351464 0.9418768
vn -0.3253153 -0.06717312 0.9432167
vn -0.2752664 -0.0750756 0.9584321
vn -0.3226811 -0.09351464 0.9418768
vn -0.3358519 -0.07770973 0.9387038
vn -0.304242 -0.1040512 0.946895
vn -0.3226811 -0.06717312 0.9441211
vn -0.2831689 -0.117222 0.9518794
vn -0.304242 -0.04083163 0.9517193
vn -0.2541932 -0.1198561 0.959698
vn -0.2937054 -0.03029504 0.9554158
vn -0.2462908 -0.1277586 0.9607385
vn -0.2989738 -0.03292918 0.953693
vn -0.2410224 -0.117222 0.9634143
vn -0.2620957 -0.03292918 0.9644799
vn -0.2410224 -0.1224903 0.9627587
vn -0.2225834 -0.03292918 0.9743574
vn -0.2673639 -0.1962465 0.9434001
vn -0.2278517 -0.02502674 0.9733742
vn -0.251559 -0.1066854 0.961944
vn -0.251559 0.04082704 0.9669805
vn -0.2383883 -0.05663654 0.9695171
vn -0.2462908 -0.001319379 0.9691951
vn -0.2410224 -0.05136824 0.9691592
vn 0.3226857 -0.09351464 0.9418752
vn 0.275271 -0.0750756 0.9584308
vn 0.3253199 -0.06717312 0.9432151
vn 0.3226857 -0.09351464 0.9418752
vn 0.3358565 -0.07770973 0.9387021
vn 0.3042467 -0.1040512 0.9468935
vn 0.3226857 -0.06717312 0.9441195
vn 0.2831735 -0.117222 0.951878
vn 0.3042467 -0.04083163 0.9517178
vn 0.2541978 -0.1198561 0.9596968
vn 0.2937101 -0.03029504 0.9554144
vn 0.2462954 -0.1277586 0.9607374
vn 0.2989784 -0.03292918 0.9536915
vn 0.2410271 -0.117222 0.9634132
vn 0.2621002 -0.03292918 0.9644787
vn 0.2410271 -0.1224903 0.9627576
vn 0.222588 -0.03292918 0.9743564
vn 0.2673686 -0.1962465 0.9433988
vn 0.2278563 -0.02502674 0.9733731
vn 0.2515637 -0.1066854 0.9619428
vn 0.2515637 0.04082704 0.9669793
vn 0.2383929 -0.05663654 0.9695159
vn 0.2462954 -0.001319379 0.9691939
vn 0.2383929 -0.05136824 0.9698093
g n_glasses_divingsuit_lense_mesh_0
f 3/3/3 2/2/2 1/1/1
f 3/3/3 1/1/1 4/4/4
f 3/3/3 5/5/5 2/2/2
f 3/3/3 4/4/4 6/6/6
f 3/3/3 7/7/7 5/5/5
f 3/3/3 6/6/6 8/8/8
f 3/3/3 9/9/9 7/7/7
f 3/3/3 8/8/8 10/10/10
f 3/3/3 11/11/11 9/9/9
f 3/3/3 10/10/10 12/12/12
f 3/3/3 13/13/13 11/11/11
f 3/3/3 12/12/12 14/14/14
f 3/3/3 15/15/15 13/13/13
f 3/3/3 14/14/14 16/16/16
f 3/3/3 17/17/17 15/15/15
f 3/3/3 16/16/16 18/18/18
f 3/3/3 19/19/19 17/17/17
f 3/3/3 18/18/18 20/20/20
f 3/3/3 21/21/21 19/19/19
f 3/3/3 20/20/20 22/22/22
f 3/3/3 23/23/23 21/21/21
f 3/3/3 22/22/22 24/24/24
f 3/3/3 24/24/24 23/23/23
f 27/27/27 26/26/26 25/25/25
f 25/25/25 26/26/26 28/28/28
f 29/29/29 26/26/26 27/27/27
f 28/28/28 26/26/26 30/30/30
f 31/31/31 26/26/26 29/29/29
f 30/30/30 26/26/26 32/32/32
f 33/33/33 26/26/26 31/31/31
f 32/32/32 26/26/26 34/34/34
f 35/35/35 26/26/26 33/33/33
f 34/34/34 26/26/26 36/36/36
f 37/37/37 26/26/26 35/35/35
f 36/36/36 26/26/26 38/38/38
f 39/39/39 26/26/26 37/37/37
f 38/38/38 26/26/26 40/40/40
f 41/41/41 26/26/26 39/39/39
f 40/40/40 26/26/26 42/42/42
f 43/43/43 26/26/26 41/41/41
f 42/42/42 26/26/26 44/44/44
f 45/45/45 26/26/26 43/43/43
f 44/44/44 26/26/26 46/46/46
f 47/47/47 26/26/26 45/45/45
f 46/46/46 26/26/26 48/48/48
f 48/48/48 26/26/26 47/47/47
