g n_necklace_default_mesh
v -1.2883153 86.75829 -5.7152214
v -0.3989544 86.801125 -5.8836718
v -0.3989544 87.670494 -5.389741
v -1.1641188 87.64052 -5.2698274
v -1.9178624 87.57485 -5.020007
v -2.0449142 86.68835 -5.472539
v -2.410366 86.636955 -5.3012333
v -2.083458 87.55201 -4.9329267
v -2.6787443 87.422104 -4.410445
v -3.0727463 86.501335 -4.850129
v -3.3439798 86.42425 -4.593171
v -2.904296 87.34359 -4.0892477
v -3.1955156 87.15658 -3.3697648
v -3.7394104 86.23867 -3.927935
v -3.8379107 86.141594 -3.5582006
v -3.231204 87.0952 -3.1442127
v -3.1997976 86.881065 -2.3719106
v -3.7750988 85.92175 -2.7858987
v -3.455329 85.696205 -2.0464303
v -3.0970144 86.76258 -1.9493573
v -2.85005 86.54274 -1.2227368
v -3.1355581 85.47065 -1.3512158
v -2.8514767 85.27079 -0.770205
v -2.6573305 86.39998 -0.78876305
v -2.1676826 86.1987 -0.17920113
v -2.307582 85.06666 -0.2120347
v -1.7565498 84.948166 0.07632923
v -1.7251439 86.0902 0.14770651
v -1.009944 85.984566 0.48746204
v -1.0156541 84.84253 0.35755587
v -0.3989544 84.792564 0.5145855
v -0.3989544 85.944595 0.64449215
v 0.3976159 85.944595 0.64449215
v 0.3976159 84.792564 0.5145855
v 1.0143151 84.84253 0.35755587
v 1.008605 85.984566 0.48746204
v 1.723805 86.0902 0.14770651
v 1.7552114 84.948166 0.07632923
v 2.3062437 85.06666 -0.2120347
v 2.1663442 86.1987 -0.18062878
v 2.6574197 86.39998 -0.78876305
v 2.8529935 85.27365 -0.7673497
v 3.1299372 85.4678 -1.3140998
v 2.8472831 86.541306 -1.2127442
v 3.1142342 86.761154 -1.9336543
v 3.4711204 85.70334 -1.9978938
v 3.7823253 85.916046 -2.6317239
v 3.2427132 86.88392 -2.3733382
v 3.3198006 87.08806 -3.1385024
v 3.880826 86.12732 -3.3926055
v 3.77376 86.25009 -3.9393554
v 3.2941048 87.160866 -3.4282942
v 3.0057406 87.34216 -4.150632
v 3.396888 86.421394 -4.618867
v 3.079973 86.50562 -4.917224
v 2.734507 87.42496 -4.490388
v 2.094967 87.55058 -4.962905
v 2.4033167 86.636955 -5.34406
v 2.0392926 86.68835 -5.4882417
v 1.893683 87.57628 -5.045703
v 1.128519 87.64052 -5.2626896
v 1.2755561 86.75829 -5.712366
v 0.3976159 86.801125 -5.882244
v 0.39618826 87.670494 -5.384031
v -0.3989544 87.670494 -5.389741
v -0.3989544 86.801125 -5.8836718
v 0.3976159 86.801125 -5.882244
v 0.39618826 87.670494 -5.384031
vt 0.061036825 0.91311264
vt 0.025141358 0.91311264
vt 0.026906714 0.9831382
vt 0.05985993 0.9831382
vt 0.09575537 0.9831382
vt 0.09222469 0.91311264
vt 0.107524395 0.91311264
vt 0.103993684 0.9831382
vt 0.14224294 0.9831382
vt 0.14224294 0.91311264
vt 0.16048491 0.91311264
vt 0.16107336 0.9831382
vt 0.2016764 0.9831382
vt 0.19873416 0.91311264
vt 0.2169761 0.91311264
vt 0.21462232 0.9831382
vt 0.25757918 0.9831382
vt 0.25287157 0.91311264
vt 0.28523633 0.91311264
vt 0.28052872 0.9831382
vt 0.31995487 0.9831382
vt 0.31760108 0.91311264
vt 0.34525824 0.91311264
vt 0.34290445 0.9831382
vt 0.38291907 0.9831382
vt 0.3823306 0.91311264
vt 0.41175312 0.91311264
vt 0.41057622 0.9831382
vt 0.4494139 0.9831382
vt 0.44882548 0.91311264
vt 0.478248 0.91311264
vt 0.478248 0.9831382
vt 0.5159088 0.9831382
vt 0.5159088 0.91311264
vt 0.5453313 0.91311264
vt 0.5453313 0.9831382
vt 0.58416903 0.9831382
vt 0.58299214 0.91311264
vt 0.6118262 0.91311264
vt 0.6112377 0.9831382
vt 0.6512523 0.9831382
vt 0.64948696 0.91311264
vt 0.6765557 0.91311264
vt 0.6742019 0.9831382
vt 0.71362805 0.9831382
vt 0.7100974 0.91311264
vt 0.7406967 0.91311264
vt 0.7377545 0.9831382
vt 0.77835757 0.9831382
vt 0.7748269 0.91311264
vt 0.79777646 0.91311264
vt 0.7936573 0.9831382
vt 0.8330834 0.9831382
vt 0.8330834 0.91311264
vt 0.85309076 0.91311264
vt 0.8525022 0.9831382
vt 0.89016306 0.9831382
vt 0.88722086 0.91311264
vt 0.9019321 0.91311264
vt 0.89957833 0.9831382
vt 0.93488526 0.9831382
vt 0.9337084 0.91311264
vt 0.96901536 0.91311264
vt 0.9672501 0.9831382
vt 0.026906714 0.9831382
vt 0.025141358 0.91311264
vt 0.011607006 0.914878
vt 0.009253204 0.9831382
vn -0.24389035 0.47079796 -0.8478601
vn -0.08574265 0.48454994 -0.8705513
vn -0.08574265 0.48454994 -0.8705513
vn -0.23701435 0.47079796 -0.8498079
vn -0.34703022 0.46392196 -0.81507444
vn -0.34703022 0.46392196 -0.81507444
vn -0.56018585 0.49830192 -0.6617303
vn -0.54643387 0.49830192 -0.6731309
vn -0.62894565 0.5258059 -0.572674
vn -0.63582164 0.5258059 -0.5650301
vn -0.76646537 0.56018585 -0.31420162
vn -0.76646537 0.56018585 -0.31420162
vn -0.8077213 0.56018585 -0.1837882
vn -0.8077213 0.56018585 -0.1837882
vn -0.86272925 0.48454994 0.1446016
vn -0.86960524 0.48454994 0.09485806
vn -0.87648124 0.38141006 0.29378057
vn -0.87648124 0.40203804 0.26485103
vn -0.87648124 0.25076634 0.41097066
vn -0.87648124 0.25764233 0.4066953
vn -0.87648124 0.1957584 0.43984008
vn -0.87648124 0.1957584 0.43984008
vn -0.78709334 0.1269986 0.60361856
vn -0.8008453 0.1338746 0.583716
vn -0.6564496 0.06511468 0.75155437
vn -0.64269763 0.058238685 0.76390314
vn -0.45016998 -0.044901133 0.8918133
vn -0.45704597 -0.03802514 0.8886299
vn -0.34015423 -0.086157024 0.9364145
vn -0.33327824 -0.093033016 0.9382273
vn -0.11324662 -0.11366099 0.9870443
vn -0.11324662 -0.11366099 0.9870443
vn 0.11366099 -0.11366099 0.98699665
vn 0.11366099 -0.11366099 0.98699665
vn 0.3336926 -0.093033016 0.93808
vn 0.3405686 -0.086157024 0.93626386
vn 0.45746037 -0.03802514 0.88841665
vn 0.45058438 -0.044901133 0.89160395
vn 0.6362361 0.058238685 0.7692931
vn 0.649988 0.06511468 0.7571497
vn 0.79438376 0.1338746 0.5924795
vn 0.7806318 0.1269986 0.6119521
vn 0.8631436 0.2026344 0.4625174
vn 0.8631436 0.2026344 0.4625174
vn 0.85626763 0.26451832 0.44366184
vn 0.85626763 0.25764233 0.44768983
vn 0.8700196 0.38828605 0.30380887
vn 0.8631436 0.38141006 0.3309221
vn 0.8768956 0.46392196 0.1258192
vn 0.8768956 0.46392196 0.1258192
vn 0.83563966 0.5189299 -0.18005036
vn 0.84251565 0.5120539 -0.16723695
vn 0.7806318 0.5258059 -0.33784938
vn 0.7806318 0.5258059 -0.33784938
vn 0.6156081 0.5051779 -0.6048321
vn 0.6018561 0.5051779 -0.618518
vn 0.5055923 0.48454994 -0.71385413
vn 0.5193442 0.49142593 -0.6991296
vn 0.31306463 0.46392196 -0.828714
vn 0.30618864 0.47079796 -0.82740426
vn 0.2236768 0.47767395 -0.84958595
vn 0.23055279 0.47767395 -0.84774584
vn 0.093033016 0.49142593 -0.86593616
vn 0.093033016 0.49142593 -0.86593616
vn -0.08574265 0.48454994 -0.8705513
vn -0.08574265 0.48454994 -0.8705513
vn 0.093033016 0.49142593 -0.86593616
vn 0.093033016 0.49142593 -0.86593616
g n_necklace_default_mesh_0
f 3/3/3 2/2/2 1/1/1
f 4/4/4 3/3/3 1/1/1
f 5/5/5 4/4/4 1/1/1
f 6/6/6 5/5/5 1/1/1
f 5/5/5 6/6/6 7/7/7
f 8/8/8 5/5/5 7/7/7
f 9/9/9 8/8/8 7/7/7
f 10/10/10 9/9/9 7/7/7
f 10/10/10 11/11/11 9/9/9
f 11/11/11 12/12/12 9/9/9
f 13/13/13 12/12/12 11/11/11
f 14/14/14 13/13/13 11/11/11
f 13/13/13 14/14/14 15/15/15
f 16/16/16 13/13/13 15/15/15
f 17/17/17 16/16/16 15/15/15
f 18/18/18 17/17/17 15/15/15
f 18/18/18 19/19/19 17/17/17
f 19/19/19 20/20/20 17/17/17
f 21/21/21 20/20/20 19/19/19
f 22/22/22 21/21/21 19/19/19
f 22/22/22 23/23/23 21/21/21
f 23/23/23 24/24/24 21/21/21
f 25/25/25 24/24/24 23/23/23
f 26/26/26 25/25/25 23/23/23
f 25/25/25 26/26/26 27/27/27
f 28/28/28 25/25/25 27/27/27
f 29/29/29 28/28/28 27/27/27
f 30/30/30 29/29/29 27/27/27
f 29/29/29 30/30/30 31/31/31
f 32/32/32 29/29/29 31/31/31
f 33/33/33 32/32/32 31/31/31
f 34/34/34 33/33/33 31/31/31
f 34/34/34 35/35/35 33/33/33
f 35/35/35 36/36/36 33/33/33
f 37/37/37 36/36/36 35/35/35
f 38/38/38 37/37/37 35/35/35
f 38/38/38 39/39/39 37/37/37
f 39/39/39 40/40/40 37/37/37
f 41/41/41 40/40/40 39/39/39
f 42/42/42 41/41/41 39/39/39
f 41/41/41 42/42/42 43/43/43
f 44/44/44 41/41/41 43/43/43
f 45/45/45 44/44/44 43/43/43
f 46/46/46 45/45/45 43/43/43
f 45/45/45 46/46/46 47/47/47
f 48/48/48 45/45/45 47/47/47
f 49/49/49 48/48/48 47/47/47
f 50/50/50 49/49/49 47/47/47
f 50/50/50 51/51/51 49/49/49
f 51/51/51 52/52/52 49/49/49
f 53/53/53 52/52/52 51/51/51
f 54/54/54 53/53/53 51/51/51
f 53/53/53 54/54/54 55/55/55
f 56/56/56 53/53/53 55/55/55
f 57/57/57 56/56/56 55/55/55
f 58/58/58 57/57/57 55/55/55
f 58/58/58 59/59/59 57/57/57
f 59/59/59 60/60/60 57/57/57
f 61/61/61 60/60/60 59/59/59
f 62/62/62 61/61/61 59/59/59
f 62/62/62 63/63/63 61/61/61
f 63/63/63 64/64/64 61/61/61
f 67/67/67 66/66/66 65/65/65
f 68/68/68 67/67/67 65/65/65
