g n_shoes_ultraReconSquad_tight_mesh
v -6.069547 9.6658945 -0.874407
v -5.6804743 9.667258 -2.3193111
v -5.6025786 9.516101 -2.3099473
v -6.0139713 9.522639 -0.79909563
v -7.135866 9.664261 0.13834032
v -5.8130674 6.84835 -1.8041052
v -7.150902 9.525858 0.2604457
v -8.4806595 9.664984 -0.009107622
v -6.367454 6.8483515 -0.37493005
v -7.330407 6.8483515 0.76232594
v -8.533396 9.522515 0.09034016
v -6.290032 5.1775217 -0.09933267
v -5.776156 4.813732 -1.7397971
v -9.448304 9.519196 -1.0014307
v -9.385741 9.665917 -1.0616841
v -6.527298 4.3785496 0.7038899
v -5.7803974 3.7293606 -1.4121674
v -7.646231 4.9460998 1.8856306
v -7.513812 5.662551 1.0654845
v -9.03837 4.6896234 1.7370718
v -8.62318 6.8483515 0.53017324
v -8.822074 5.348247 0.6915723
v -9.694595 9.5168295 -2.4175944
v -9.618277 9.667038 -2.4136765
v -9.3820305 6.848351 -0.540637
v -9.64774 5.0615826 -0.54793036
v -9.891519 5.028623 -2.23982
v -10.192732 3.9820697 0.028052252
v -10.048366 3.5943213 -2.2526424
v -9.238056 3.7539 -3.9717531
v -9.149476 9.511379 -3.8140721
v -9.098416 9.668891 -3.7503674
v -9.748631 6.84835 -2.0202937
v -8.071107 9.510198 -4.6338224
v -8.057662 9.66951 -4.5453043
v -9.065342 6.8483496 -3.456765
v -9.215212 5.036584 -3.7641125
v -8.154769 5.0707583 -4.673362
v -8.345003 3.7855308 -4.940155
v -6.8947124 9.510653 -4.578065
v -6.9230556 9.669287 -4.4925003
v -8.018374 6.8483496 -4.39373
v -6.759559 5.030431 -4.530595
v -6.6578407 3.798721 -4.940412
v -5.992981 4.8821077 -3.3409462
v -5.9471226 3.8076608 -3.5458767
v -5.7803974 3.7293606 -1.4121674
v -5.776156 4.813732 -1.7397971
v -5.8130674 6.84835 -1.8041052
v -6.839585 6.848349 -4.2749157
v -5.915897 9.539915 -3.8877316
v -6.000944 9.668488 -3.800975
v -5.9757094 6.84835 -3.263099
v -5.6025786 9.516101 -2.3099473
v -5.6804743 9.667258 -2.3193111
v 6.069547 9.6658945 -0.874407
v 5.6025786 9.516101 -2.3099473
v 5.6804743 9.667258 -2.3193111
v 6.0139713 9.522639 -0.79909563
v 7.135866 9.664261 0.13834032
v 5.8130674 6.84835 -1.8041052
v 7.150902 9.525858 0.2604457
v 8.4806595 9.664984 -0.009107622
v 6.367454 6.8483515 -0.37493005
v 7.330407 6.8483515 0.76232594
v 8.533396 9.522515 0.09034016
v 6.290032 5.1775217 -0.09933267
v 5.776156 4.813732 -1.7397971
v 9.448304 9.519196 -1.0014307
v 9.385741 9.665917 -1.0616841
v 6.527298 4.3785496 0.7038899
v 5.7803974 3.7293606 -1.4121674
v 7.646231 4.9460998 1.8856306
v 7.513812 5.662551 1.0654845
v 9.03837 4.6896234 1.7370718
v 8.62318 6.8483515 0.53017324
v 8.822074 5.348247 0.6915723
v 9.694595 9.5168295 -2.4175944
v 9.618277 9.667038 -2.4136765
v 9.3820305 6.848351 -0.540637
v 9.64774 5.0615826 -0.54793036
v 9.891519 5.028623 -2.23982
v 10.192732 3.9820697 0.028052252
v 10.048366 3.5943213 -2.2526424
v 9.238056 3.7539 -3.9717531
v 9.149476 9.511379 -3.8140721
v 9.098416 9.668891 -3.7503674
v 9.748631 6.84835 -2.0202937
v 8.071107 9.510198 -4.6338224
v 8.057662 9.66951 -4.5453043
v 9.065342 6.8483496 -3.456765
v 9.215212 5.036584 -3.7641125
v 8.154769 5.0707583 -4.673362
v 8.345003 3.7855308 -4.940155
v 6.8947124 9.510653 -4.578065
v 6.9230556 9.669287 -4.4925003
v 8.018374 6.8483496 -4.39373
v 6.759559 5.030431 -4.530595
v 6.6578407 3.798721 -4.940412
v 5.992981 4.8821077 -3.3409462
v 5.9471226 3.8076608 -3.5458767
v 5.7803974 3.7293606 -1.4121674
v 5.776156 4.813732 -1.7397971
v 5.8130674 6.84835 -1.8041052
v 6.839585 6.848349 -4.2749157
v 5.915897 9.539915 -3.8877316
v 6.000944 9.668488 -3.800975
v 5.9757094 6.84835 -3.263099
v 5.6025786 9.516101 -2.3099473
v 5.6804743 9.667258 -2.3193111
vt 0.38829708 0.018195376
vt 0.41871095 0.01337181
vt 0.41798717 0.015392116
vt 0.38777632 0.02005367
vt 0.3609681 0.018278107
vt 0.40923452 0.039823636
vt 0.36105964 0.020293297
vt 0.35146084 0.017253034
vt 0.3814788 0.04252599
vt 0.3621664 0.044662938
vt 0.35155445 0.019271431
vt 0.37874413 0.073456034
vt 0.40201092 0.06921314
vt 0.3417253 0.018214734
vt 0.3416295 0.016193017
vt 0.37754536 0.099879846
vt 0.402488 0.0852754
vt 0.3564806 0.09371196
vt 0.35952163 0.072983965
vt 0.34803152 0.09587439
vt 0.35268646 0.043679886
vt 0.34929597 0.072678044
vt 0.32889393 0.016722202
vt 0.3290154 0.014833121
vt 0.34288335 0.04266332
vt 0.33872175 0.07236169
vt 0.32379532 0.06772517
vt 0.33929443 0.09811054
vt 0.3275423 0.09810446
vt 0.27664423 0.07447921
vt 0.29272243 0.012395929
vt 0.29284382 0.010516748
vt 0.3274248 0.03956678
vt 0.27185902 0.011206001
vt 0.27196932 0.009328231
vt 0.29125428 0.03512083
vt 0.28258514 0.054517254
vt 0.26804113 0.05627154
vt 0.26503038 0.07440053
vt 0.24955697 0.011327486
vt 0.24942589 0.009553775
vt 0.27052546 0.033913836
vt 0.2479136 0.05569242
vt 0.24880314 0.072497115
vt 0.23213911 0.05709289
vt 0.23132372 0.07066415
vt 0.20432615 0.07089113
vt 0.21251845 0.05648993
vt 0.22764349 0.031155333
vt 0.25114202 0.032776937
vt 0.2392273 0.01176192
vt 0.23942947 0.010106072
vt 0.23678243 0.031786
vt 0.22929639 0.01222386
vt 0.22943306 0.010658368
vt 0.38829708 0.018195376
vt 0.41798717 0.015392116
vt 0.41871095 0.01337181
vt 0.38777632 0.02005367
vt 0.3609681 0.018278107
vt 0.40923452 0.039823636
vt 0.36105964 0.020293297
vt 0.35146084 0.017253034
vt 0.3814788 0.04252599
vt 0.3621664 0.044662938
vt 0.35155445 0.019271431
vt 0.37874413 0.073456034
vt 0.40201092 0.06921314
vt 0.3417253 0.018214734
vt 0.3416295 0.016193017
vt 0.37754536 0.099879846
vt 0.402488 0.0852754
vt 0.3564806 0.09371196
vt 0.35952163 0.072983965
vt 0.34803152 0.09587439
vt 0.35268646 0.043679886
vt 0.34929597 0.072678044
vt 0.32889393 0.016722202
vt 0.3290154 0.014833121
vt 0.34288335 0.04266332
vt 0.33872175 0.07236169
vt 0.32379532 0.06772517
vt 0.33929443 0.09811054
vt 0.3275423 0.09810446
vt 0.27664423 0.07447921
vt 0.29272243 0.012395929
vt 0.29284382 0.010516748
vt 0.3274248 0.03956678
vt 0.27185902 0.011206001
vt 0.27196932 0.009328231
vt 0.29125428 0.03512083
vt 0.28258514 0.054517254
vt 0.26804113 0.05627154
vt 0.26503038 0.07440053
vt 0.24955697 0.011327486
vt 0.24942589 0.009553775
vt 0.27052546 0.033913836
vt 0.2479136 0.05569242
vt 0.24880314 0.072497115
vt 0.23213911 0.05709289
vt 0.23132372 0.07066415
vt 0.20432615 0.07089113
vt 0.21251845 0.05648993
vt 0.22764349 0.031155333
vt 0.25114202 0.032776937
vt 0.2392273 0.01176192
vt 0.23942947 0.010106072
vt 0.23678243 0.031786
vt 0.22929639 0.01222386
vt 0.22943306 0.010658368
vn 0.7619454 0.49839973 0.41356596
vn 0.86262435 0.505198 0.025575446
vn 0.9979773 -0.03717436 0.051569764
vn 0.87082267 0.02182031 0.49111265
vn 0.3183581 0.6042127 0.73046225
vn 0.99428695 -0.022968596 0.10423958
vn 0.37401867 0.14560522 0.9159198
vn -0.37799805 0.619589 0.6879149
vn 0.85858226 0.0362665 0.5113914
vn 0.35247737 0.14255974 0.924898
vn -0.50718683 0.1783676 0.84317654
vn 0.89324397 0.12103883 0.43297192
vn 0.9954852 0.033317894 0.08887698
vn -0.91543365 0.08993765 0.39229122
vn -0.79097193 0.5073418 0.3420054
vn 0.8400535 0.27985275 0.4647499
vn 0.99019474 0.04100841 0.13353938
vn 0.18806136 0.74492645 0.6400918
vn 0.35460275 0.41987333 0.83544195
vn -0.5472983 0.7212587 0.4245592
vn -0.532438 0.16434072 0.83036244
vn -0.65534484 0.48357862 0.5802369
vn -0.9910314 0.0034180451 -0.13358562
vn -0.8896418 0.44490644 -0.102934845
vn -0.91038483 0.09302817 0.40316907
vn -0.9324091 0.28145579 0.22670673
vn -0.9725877 0.15493616 -0.17340076
vn -0.8821573 0.44683877 0.14877345
vn -0.960045 0.18760261 -0.20765075
vn -0.8232381 0.13721734 -0.55086344
vn -0.7983353 -0.055124864 -0.5996849
vn -0.7282023 0.44871205 -0.518053
vn -0.99510527 0.044456176 -0.08825645
vn -0.3289561 -0.07537683 -0.94133216
vn -0.29260215 0.487408 -0.8226891
vn -0.8165063 0.016681697 -0.5770954
vn -0.814205 0.14507346 -0.56216013
vn -0.31371838 0.20636047 -0.9268204
vn -0.33765385 0.24225885 -0.90956056
vn 0.3957993 -0.08331078 -0.91455024
vn 0.26499802 0.5491488 -0.79259807
vn -0.3265475 0.009527077 -0.94513273
vn 0.5098506 0.17416066 -0.84244907
vn 0.45267746 0.25513893 -0.8543929
vn 0.9473335 0.05689771 -0.3151539
vn 0.9472272 0.10299229 -0.30356756
vn 0.99019474 0.04100841 0.13353938
vn 0.9954852 0.033317894 0.08887698
vn 0.99428695 -0.022968596 0.10423958
vn 0.4665548 -0.021886734 -0.88422143
vn 0.87715715 -0.07527394 -0.47426698
vn 0.71852845 0.57859874 -0.3859278
vn 0.9250893 -0.046004374 -0.37695277
vn 0.9979773 -0.03717436 0.051569764
vn 0.86262435 0.505198 0.025575446
vn -0.7619451 0.49839967 0.4135667
vn -0.9979773 -0.03717432 0.051569793
vn -0.86262447 0.5051978 0.02557607
vn -0.87082267 0.021820325 0.49111274
vn -0.31835818 0.6042126 0.7304623
vn -0.99428695 -0.022968577 0.10423957
vn -0.37401876 0.14560515 0.9159198
vn 0.37799805 0.6195884 0.68791544
vn -0.85858226 0.036266476 0.5113914
vn -0.35247743 0.14255968 0.924898
vn 0.50718683 0.1783675 0.84317654
vn -0.89324397 0.1210388 0.43297198
vn -0.9954852 0.033317994 0.08887693
vn 0.91543365 0.089937724 0.39229122
vn 0.7909721 0.5073418 0.342005
vn -0.8400535 0.2798529 0.46474984
vn -0.99019474 0.041008607 0.13353935
vn -0.18806121 0.7449266 0.64009166
vn -0.35460263 0.4198734 0.835442
vn 0.5472983 0.7212586 0.42455927
vn 0.532438 0.16434075 0.83036244
vn 0.65534484 0.48357865 0.5802369
vn 0.9910314 0.0034181555 -0.13358566
vn 0.8896421 0.44490597 -0.102935515
vn 0.91038483 0.09302827 0.403169
vn 0.9324091 0.28145576 0.22670667
vn 0.9725877 0.15493593 -0.1734008
vn 0.8821573 0.44683868 0.14877342
vn 0.9600451 0.18760233 -0.20765078
vn 0.8232381 0.1372169 -0.55086356
vn 0.7983353 -0.055124786 -0.599685
vn 0.7282026 0.44871128 -0.51805335
vn 0.99510527 0.04445623 -0.08825647
vn 0.32895607 -0.07537678 -0.94133216
vn 0.2926022 0.48740757 -0.82268935
vn 0.8165063 0.016681654 -0.5770954
vn 0.814205 0.1450731 -0.56216025
vn 0.3137183 0.20636033 -0.9268205
vn 0.33765388 0.24225864 -0.9095607
vn -0.39579934 -0.08331076 -0.91455024
vn -0.26499844 0.54914886 -0.7925979
vn 0.32654747 0.009527104 -0.94513273
vn -0.5098506 0.1741607 -0.84244895
vn -0.45267755 0.25513905 -0.8543928
vn -0.9473335 0.056897853 -0.31515384
vn -0.9472272 0.10299265 -0.30356753
vn -0.99019474 0.041008607 0.13353935
vn -0.9954852 0.033317994 0.08887693
vn -0.99428695 -0.022968577 0.10423957
vn -0.4665549 -0.0218867 -0.88422143
vn -0.87715715 -0.07527387 -0.47426698
vn -0.718529 0.57859844 -0.3859274
vn -0.9250893 -0.046004333 -0.37695265
vn -0.9979773 -0.03717432 0.051569793
vn -0.86262447 0.5051978 0.02557607
g n_shoes_ultraReconSquad_tight_mesh_0
f 3/3/3 2/2/2 1/1/1
f 4/4/4 3/3/3 1/1/1
f 4/4/4 1/1/1 5/5/5
f 6/6/6 3/3/3 4/4/4
f 7/7/7 4/4/4 5/5/5
f 5/5/5 8/8/8 7/7/7
f 9/9/9 6/6/6 4/4/4
f 7/7/7 10/10/10 4/4/4
f 10/10/10 9/9/9 4/4/4
f 8/8/8 11/11/11 7/7/7
f 7/7/7 11/11/11 10/10/10
f 9/9/9 12/12/12 6/6/6
f 12/12/12 13/13/13 6/6/6
f 14/14/14 11/11/11 8/8/8
f 15/15/15 14/14/14 8/8/8
f 12/12/12 16/16/16 13/13/13
f 16/16/16 17/17/17 13/13/13
f 18/18/18 16/16/16 12/12/12
f 19/19/19 12/12/12 9/9/9
f 19/19/19 18/18/18 12/12/12
f 10/10/10 19/19/19 9/9/9
f 18/18/18 19/19/19 20/20/20
f 11/11/11 21/21/21 10/10/10
f 21/21/21 11/11/11 14/14/14
f 19/19/19 10/10/10 22/22/22
f 19/19/19 22/22/22 20/20/20
f 10/10/10 21/21/21 22/22/22
f 23/23/23 14/14/14 15/15/15
f 24/24/24 23/23/23 15/15/15
f 25/25/25 21/21/21 14/14/14
f 22/22/22 21/21/21 25/25/25
f 25/25/25 14/14/14 23/23/23
f 20/20/20 22/22/22 26/26/26
f 26/26/26 22/22/22 25/25/25
f 26/26/26 25/25/25 27/27/27
f 28/28/28 20/20/20 26/26/26
f 28/28/28 26/26/26 27/27/27
f 29/29/29 28/28/28 27/27/27
f 30/30/30 29/29/29 27/27/27
f 31/31/31 23/23/23 24/24/24
f 32/32/32 31/31/31 24/24/24
f 33/33/33 25/25/25 23/23/23
f 25/25/25 33/33/33 27/27/27
f 33/33/33 23/23/23 31/31/31
f 34/34/34 31/31/31 32/32/32
f 35/35/35 34/34/34 32/32/32
f 36/36/36 33/33/33 31/31/31
f 27/27/27 33/33/33 36/36/36
f 36/36/36 31/31/31 34/34/34
f 37/37/37 30/30/30 27/27/27
f 37/37/37 27/27/27 36/36/36
f 30/30/30 37/37/37 38/38/38
f 38/38/38 37/37/37 36/36/36
f 39/39/39 30/30/30 38/38/38
f 40/40/40 34/34/34 35/35/35
f 41/41/41 40/40/40 35/35/35
f 42/42/42 36/36/36 34/34/34
f 42/42/42 38/38/38 36/36/36
f 42/42/42 34/34/34 40/40/40
f 39/39/39 38/38/38 43/43/43
f 43/43/43 38/38/38 42/42/42
f 44/44/44 39/39/39 43/43/43
f 44/44/44 43/43/43 45/45/45
f 46/46/46 44/44/44 45/45/45
f 46/46/46 45/45/45 47/47/47
f 45/45/45 48/48/48 47/47/47
f 49/49/49 48/48/48 45/45/45
f 50/50/50 43/43/43 42/42/42
f 50/50/50 42/42/42 40/40/40
f 43/43/43 50/50/50 45/45/45
f 51/51/51 40/40/40 41/41/41
f 50/50/50 40/40/40 51/51/51
f 52/52/52 51/51/51 41/41/41
f 53/53/53 49/49/49 45/45/45
f 50/50/50 53/53/53 45/45/45
f 53/53/53 50/50/50 51/51/51
f 49/49/49 53/53/53 54/54/54
f 53/53/53 51/51/51 54/54/54
f 54/54/54 51/51/51 52/52/52
f 55/55/55 54/54/54 52/52/52
f 58/58/58 57/57/57 56/56/56
f 57/57/57 59/59/59 56/56/56
f 56/56/56 59/59/59 60/60/60
f 57/57/57 61/61/61 59/59/59
f 59/59/59 62/62/62 60/60/60
f 63/63/63 60/60/60 62/62/62
f 61/61/61 64/64/64 59/59/59
f 65/65/65 62/62/62 59/59/59
f 64/64/64 65/65/65 59/59/59
f 66/66/66 63/63/63 62/62/62
f 66/66/66 62/62/62 65/65/65
f 67/67/67 64/64/64 61/61/61
f 68/68/68 67/67/67 61/61/61
f 66/66/66 69/69/69 63/63/63
f 69/69/69 70/70/70 63/63/63
f 71/71/71 67/67/67 68/68/68
f 72/72/72 71/71/71 68/68/68
f 71/71/71 73/73/73 67/67/67
f 67/67/67 74/74/74 64/64/64
f 73/73/73 74/74/74 67/67/67
f 74/74/74 65/65/65 64/64/64
f 74/74/74 73/73/73 75/75/75
f 76/76/76 66/66/66 65/65/65
f 66/66/66 76/76/76 69/69/69
f 65/65/65 74/74/74 77/77/77
f 77/77/77 74/74/74 75/75/75
f 76/76/76 65/65/65 77/77/77
f 69/69/69 78/78/78 70/70/70
f 78/78/78 79/79/79 70/70/70
f 76/76/76 80/80/80 69/69/69
f 76/76/76 77/77/77 80/80/80
f 69/69/69 80/80/80 78/78/78
f 77/77/77 75/75/75 81/81/81
f 77/77/77 81/81/81 80/80/80
f 80/80/80 81/81/81 82/82/82
f 75/75/75 83/83/83 81/81/81
f 81/81/81 83/83/83 82/82/82
f 83/83/83 84/84/84 82/82/82
f 84/84/84 85/85/85 82/82/82
f 78/78/78 86/86/86 79/79/79
f 86/86/86 87/87/87 79/79/79
f 80/80/80 88/88/88 78/78/78
f 88/88/88 80/80/80 82/82/82
f 78/78/78 88/88/88 86/86/86
f 86/86/86 89/89/89 87/87/87
f 89/89/89 90/90/90 87/87/87
f 88/88/88 91/91/91 86/86/86
f 88/88/88 82/82/82 91/91/91
f 86/86/86 91/91/91 89/89/89
f 85/85/85 92/92/92 82/82/82
f 82/82/82 92/92/92 91/91/91
f 92/92/92 85/85/85 93/93/93
f 92/92/92 93/93/93 91/91/91
f 85/85/85 94/94/94 93/93/93
f 89/89/89 95/95/95 90/90/90
f 95/95/95 96/96/96 90/90/90
f 91/91/91 97/97/97 89/89/89
f 93/93/93 97/97/97 91/91/91
f 89/89/89 97/97/97 95/95/95
f 93/93/93 94/94/94 98/98/98
f 93/93/93 98/98/98 97/97/97
f 94/94/94 99/99/99 98/98/98
f 98/98/98 99/99/99 100/100/100
f 99/99/99 101/101/101 100/100/100
f 100/100/100 101/101/101 102/102/102
f 103/103/103 100/100/100 102/102/102
f 103/103/103 104/104/104 100/100/100
f 98/98/98 105/105/105 97/97/97
f 97/97/97 105/105/105 95/95/95
f 105/105/105 98/98/98 100/100/100
f 95/95/95 106/106/106 96/96/96
f 95/95/95 105/105/105 106/106/106
f 106/106/106 107/107/107 96/96/96
f 104/104/104 108/108/108 100/100/100
f 108/108/108 105/105/105 100/100/100
f 105/105/105 108/108/108 106/106/106
f 108/108/108 104/104/104 109/109/109
f 106/106/106 108/108/108 109/109/109
f 106/106/106 109/109/109 107/107/107
f 109/109/109 110/110/110 107/107/107
