g pm0746_12_EffectBSkin_ty
v -1.0777917 0.06976517 -0.45258108
v -1.0660448 0.03787032 -0.47123352
v -1.0660447 0.097648464 -0.49666277
v -1.0660448 0.07594817 -0.44977677
v -1.0660448 1.0767848E-05 -0.45239905
v -1.0660452 0.03695831 -0.40397984
v -1.0784243 0.02611257 -0.40397993
v -1.0908803 0.040040594 -0.3463203
v -1.0660454 0.056653645 -0.3463201
v -1.0660456 0.07591789 -0.28300107
v -1.0824486 1.07349615E-05 -0.40398005
v -1.1004332 0.053660177 -0.28300133
v -1.066046 0.0872167 -0.21244916
v -1.0998125 1.0502089E-05 -0.34632048
v -1.1049767 0.061648082 -0.21244945
v -1.0660464 0.08344192 -0.1217936
v -1.114026 1.0246359E-05 -0.2830016
v -1.104118 0.058979753 -0.12179389
v -1.0660466 0.054452512 -0.03941246
v -1.1209995 9.880085E-06 -0.21244976
v -1.0910558 0.038578697 -0.03983525
v -1.066047 0.019709233 -0.0013201876
v -1.1198872 9.51395E-06 -0.121794194
v -1.1049767 -0.061628077 -0.21244995
v -1.1004332 -0.053639844 -0.28300175
v -1.0908803 -0.040019426 -0.3463206
v -1.0754181 0.01496152 -0.004445873
v -1.066047 9.068826E-06 0.00855696
v -1.1012557 9.262169E-06 -0.039315086
v -1.104118 -0.05896072 -0.121794365
v -1.066046 -0.087196864 -0.21244986
v -1.0660456 -0.0758974 -0.2830017
v -1.0660464 -0.08342281 -0.12179429
v -1.0660454 -0.05663264 -0.34632057
v -1.0660466 -0.054434232 -0.039412905
v -1.0660452 -0.036937002 -0.40398014
v -1.0910558 -0.03856033 -0.03983556
v -1.066047 -0.019691179 -0.0013203467
v -1.0754181 -0.014943277 -0.0044459943
v -1.0775435 9.105805E-06 -0.00059889856
v -1.0784243 -0.026090937 -0.40398014
v -1.0777917 -0.06974332 -0.45258167
v -1.0660448 -0.07592633 -0.44977736
v -1.0660448 -0.037848227 -0.47123381
v -1.0660447 -0.09762625 -0.49666357
v -1.027116 -0.061628077 -0.21244957
v -1.0660456 -0.0758974 -0.2830017
v -1.066046 -0.087196864 -0.21244986
v -1.0660464 -0.08342281 -0.12179429
v -1.0316586 -0.053639844 -0.28300142
v -1.0660454 -0.05663264 -0.34632057
v -1.0412111 -0.040019426 -0.34632036
v -1.0660452 -0.036937002 -0.40398014
v -1.0279757 -0.05896072 -0.121794
v -1.0660466 -0.054434232 -0.039412905
v -1.0180662 1.0246358E-05 -0.28300115
v -1.011093 9.880083E-06 -0.21244925
v -1.0410384 -0.03856033 -0.039835326
v -1.012206 9.513948E-06 -0.121793695
v -1.0566767 -0.014943277 -0.0044459063
v -1.066047 -0.019691179 -0.0013203467
v -1.066047 9.068826E-06 0.00855696
v -1.054551 9.105805E-06 -0.00059879065
v -1.0308383 9.262169E-06 -0.039314754
v -1.0566767 0.01496152 -0.004445785
v -1.066047 0.019709233 -0.0013201876
v -1.0660466 0.054452512 -0.03941246
v -1.0410384 0.038578697 -0.039835013
v -1.0660464 0.08344192 -0.1217936
v -1.0279757 0.058979753 -0.12179352
v -1.066046 0.0872167 -0.21244916
v -1.027116 0.061648082 -0.21244907
v -1.0660456 0.07591789 -0.28300107
v -1.0316586 0.053660177 -0.283001
v -1.0660454 0.056653645 -0.3463201
v -1.0412111 0.040040594 -0.34632003
v -1.0660452 0.03695831 -0.40397984
v -1.0322789 1.0502088E-05 -0.34632018
v -1.0536666 0.02611257 -0.40397984
v -1.0496426 1.0734961E-05 -0.4039799
v -1.0542983 0.06976517 -0.45258102
v -1.0660448 0.07594817 -0.44977677
v -1.0660447 0.097648464 -0.49666277
v -1.0660448 0.03787032 -0.47123352
v -1.0660448 1.0767848E-05 -0.45239905
v -1.0536666 -0.026090937 -0.40398002
v -1.0542983 -0.06974332 -0.45258155
v -1.0660448 -0.037848227 -0.47123381
v -1.0660448 -0.07592633 -0.44977736
v -1.0660447 -0.09762625 -0.49666357
vt 0.026897505 0.51834184
vt 0.023023289 0.515322
vt 0.018829793 0.5210989
vt 0.027395906 0.52151173
vt 0.026653914 0.5117254
vt 0.036463127 0.5187451
vt 0.03637958 0.51443326
vt 0.047882996 0.51572096
vt 0.0464306 0.51856357
vt 0.059038766 0.5213149
vt 0.036806826 0.5117255
vt 0.0604595 0.5171587
vt 0.07422578 0.5228239
vt 0.048200734 0.5117256
vt 0.07466693 0.51798636
vt 0.09402679 0.5222944
vt 0.06071319 0.5117254
vt 0.09285863 0.51764166
vt 0.11157215 0.5184636
vt 0.07465489 0.5117254
vt 0.10933542 0.51559675
vt 0.11933305 0.51555544
vt 0.09256943 0.5117255
vt 0.07466696 0.50546485
vt 0.060459793 0.5062923
vt 0.04788305 0.5077303
vt 0.11746991 0.51431763
vt 0.12321929 0.5117252
vt 0.10886822 0.5117254
vt 0.092858605 0.5058095
vt 0.07422577 0.5006273
vt 0.05903873 0.50213623
vt 0.09402678 0.50115675
vt 0.046430588 0.5048877
vt 0.11157215 0.50498754
vt 0.03646314 0.5040153
vt 0.10933545 0.5078545
vt 0.11933328 0.5078948
vt 0.11746997 0.50913304
vt 0.11785251 0.5117252
vt 0.03637952 0.50901794
vt 0.02689768 0.5051093
vt 0.027983949 0.50277543
vt 0.023023337 0.5081291
vt 0.018829755 0.5023521
vt 0.18438841 0.50275487
vt 0.20001644 0.49942622
vt 0.1848296 0.49791738
vt 0.16502869 0.4984469
vt 0.19859554 0.50358236
vt 0.21262464 0.5021777
vt 0.21117209 0.5050202
vt 0.22259226 0.502594
vt 0.16619673 0.5030994
vt 0.14748332 0.50227755
vt 0.1983421 0.5090154
vt 0.18440038 0.5090154
vt 0.14971998 0.5051443
vt 0.16648597 0.5090155
vt 0.14158514 0.50642353
vt 0.13972253 0.5051855
vt 0.13583681 0.5090159
vt 0.14120261 0.509016
vt 0.15018733 0.5090155
vt 0.14158507 0.5116084
vt 0.1397223 0.5128461
vt 0.14748321 0.51575357
vt 0.14972007 0.5128867
vt 0.16502872 0.51958424
vt 0.16619678 0.51493174
vt 0.18482955 0.52011377
vt 0.18438837 0.5152764
vt 0.20001653 0.5186048
vt 0.19859557 0.51444876
vt 0.21262467 0.51585335
vt 0.21117209 0.5130109
vt 0.22259226 0.51476043
vt 0.21085455 0.5090155
vt 0.22267546 0.5117232
vt 0.22224876 0.5090154
vt 0.23215762 0.51563185
vt 0.2310712 0.51794034
vt 0.24022548 0.5183889
vt 0.23603186 0.5126119
vt 0.23240149 0.5090155
vt 0.22267543 0.5063079
vt 0.23215754 0.50239927
vt 0.23603195 0.5054191
vt 0.23107134 0.49968484
vt 0.24022554 0.49964216
vn -0.64795125 0.76076347 -0.03739058
vn -0.9323019 -0.15122716 -0.32854766
vn -0.9122847 0.40925336 0.01576257
vn -0.4964928 0.73078704 0.4684498
vn -0.9630348 2.8610234E-06 -0.2693769
vn 7.5125254E-06 0.9922397 -0.12433969
vn -0.79509467 0.5948908 -0.11802337
vn -0.6802261 0.700149 -0.21698779
vn 6.6307357E-06 0.9748751 -0.22275224
vn 5.440077E-06 0.97739834 -0.21140586
vn -0.9844201 2.5867068E-06 -0.1758327
vn -0.74166304 0.6439664 -0.18773176
vn 4.0542805E-06 0.99948055 -0.032230686
vn -0.97380733 2.2303723E-06 -0.22737485
vn -0.7689528 0.63856393 -0.030785047
vn 3.7300467E-06 0.961468 0.27491716
vn -0.9813665 1.1504071E-06 -0.19214538
vn -0.751905 0.6158249 0.23536915
vn 4.711303E-06 0.78883916 0.6145997
vn -0.99959713 1.4522793E-07 -0.028385455
vn -0.66167873 0.5232062 0.537063
vn 7.182867E-06 0.49970084 0.866198
vn -0.97731405 -9.505884E-07 0.21179506
vn -0.7689528 -0.6385637 -0.030790498
vn -0.7416634 -0.6439644 -0.18773715
vn -0.6802277 -0.7001458 -0.21699366
vn -0.5224417 0.39811316 0.7540295
vn 8.909793E-06 -3.134927E-06 1
vn -0.8609393 -2.100511E-06 0.5087077
vn -0.7519049 -0.6158269 0.23536389
vn 4.3921386E-06 -0.9994802 -0.032239396
vn 5.44008E-06 -0.9773966 -0.21141411
vn 4.2386914E-06 -0.9614702 0.27490917
vn 6.456255E-06 -0.97487324 -0.22276035
vn 5.1986835E-06 -0.78884363 0.614594
vn 7.303867E-06 -0.9922387 -0.12434771
vn -0.66167885 -0.5232104 0.53705883
vn 7.3390197E-06 -0.49970666 0.8661947
vn -0.52244174 -0.39811873 0.75402665
vn -0.6093611 -3.191334E-06 0.79289275
vn -0.79509693 -0.59488684 -0.11802805
vn -0.64795387 -0.7607609 -0.037396558
vn -0.49649054 -0.7307939 0.4684413
vn -0.9323019 0.15123129 -0.3285459
vn -0.9122833 -0.40925658 0.015757918
vn 0.7689561 -0.6385599 -0.030783484
vn 5.44008E-06 -0.9773966 -0.21141411
vn 4.3921386E-06 -0.9994802 -0.032239396
vn 4.2386914E-06 -0.9614702 0.27490917
vn 0.74166906 -0.6439602 -0.1877294
vn 6.456255E-06 -0.97487324 -0.22276035
vn 0.6802361 -0.7001403 -0.21698478
vn 7.303867E-06 -0.9922387 -0.12434771
vn 0.7519066 -0.6158228 0.23536964
vn 5.1986835E-06 -0.78884363 0.614594
vn 0.9813685 1.1504035E-06 -0.19213523
vn 0.9995974 4.356828E-07 -0.028376313
vn 0.6616812 -0.5232056 0.53706044
vn 0.97731245 -5.8497585E-07 0.21180265
vn 0.5224493 -0.39811414 0.7540238
vn 7.3390197E-06 -0.49970666 0.8661947
vn 8.909793E-06 -3.134927E-06 1
vn 0.60936636 -2.3749287E-06 0.7928888
vn 0.86093754 -1.521051E-06 0.50871056
vn 0.5224486 0.39810982 0.75402653
vn 7.182867E-06 0.49970084 0.866198
vn 4.711303E-06 0.78883916 0.6145997
vn 0.6616807 0.52320224 0.5370643
vn 3.7300467E-06 0.961468 0.27491716
vn 0.7519062 0.61582124 0.23537476
vn 4.0542805E-06 0.99948055 -0.032230686
vn 0.7689559 0.6385606 -0.030777967
vn 5.440077E-06 0.97739834 -0.21140586
vn 0.74166864 0.6439623 -0.18772402
vn 6.6307357E-06 0.9748751 -0.22275224
vn 0.6802351 0.70014304 -0.21697907
vn 7.5125254E-06 0.9922397 -0.12433969
vn 0.97381026 1.4869078E-06 -0.22736207
vn 0.7951018 0.5948834 -0.11801187
vn 0.9844226 1.2933463E-06 -0.1758182
vn 0.647961 0.7607556 -0.037381623
vn 0.49649528 0.73078585 0.46844903
vn 0.9122856 0.40925077 0.015770795
vn 0.9323061 -0.1512245 -0.3285369
vn 0.96304035 0 -0.26935738
vn 0.795103 -0.5948809 -0.11801646
vn 0.6479626 -0.76075387 -0.037387487
vn 0.9323058 0.15122938 -0.32853556
vn 0.4964943 -0.73079044 0.46844292
vn 0.9122853 -0.40925157 0.01576817
g pm0746_12_EffectBSkin_ty_0
f 3/3/3 2/2/2 1/1/1
f 3/3/3 1/1/1 4/4/4
f 1/1/1 2/2/2 5/5/5
f 4/4/4 1/1/1 6/6/6
f 1/1/1 7/7/7 6/6/6
f 1/1/1 5/5/5 7/7/7
f 8/8/8 6/6/6 7/7/7
f 8/8/8 9/9/9 6/6/6
f 9/9/9 8/8/8 10/10/10
f 5/5/5 11/11/11 7/7/7
f 7/7/7 11/11/11 8/8/8
f 8/8/8 12/12/12 10/10/10
f 10/10/10 12/12/12 13/13/13
f 11/11/11 14/14/14 8/8/8
f 8/8/8 14/14/14 12/12/12
f 12/12/12 15/15/15 13/13/13
f 13/13/13 15/15/15 16/16/16
f 14/14/14 17/17/17 12/12/12
f 12/12/12 17/17/17 15/15/15
f 15/15/15 18/18/18 16/16/16
f 19/19/19 16/16/16 18/18/18
f 17/17/17 20/20/20 15/15/15
f 15/15/15 20/20/20 18/18/18
f 21/21/21 19/19/19 18/18/18
f 19/19/19 21/21/21 22/22/22
f 20/20/20 23/23/23 18/18/18
f 21/21/21 18/18/18 23/23/23
f 20/20/20 17/17/17 24/24/24
f 20/20/20 24/24/24 23/23/23
f 17/17/17 14/14/14 25/25/25
f 17/17/17 25/25/25 24/24/24
f 14/14/14 11/11/11 26/26/26
f 14/14/14 26/26/26 25/25/25
f 21/21/21 27/27/27 22/22/22
f 28/28/28 22/22/22 27/27/27
f 29/29/29 21/21/21 23/23/23
f 21/21/21 29/29/29 27/27/27
f 24/24/24 30/30/30 23/23/23
f 29/29/29 23/23/23 30/30/30
f 24/24/24 25/25/25 31/31/31
f 24/24/24 31/31/31 30/30/30
f 25/25/25 32/32/32 31/31/31
f 25/25/25 26/26/26 32/32/32
f 31/31/31 33/33/33 30/30/30
f 26/26/26 34/34/34 32/32/32
f 30/30/30 33/33/33 35/35/35
f 36/36/36 34/34/34 26/26/26
f 37/37/37 30/30/30 35/35/35
f 37/37/37 29/29/29 30/30/30
f 37/37/37 35/35/35 38/38/38
f 39/39/39 37/37/37 38/38/38
f 29/29/29 37/37/37 39/39/39
f 38/38/38 28/28/28 39/39/39
f 40/40/40 29/29/29 39/39/39
f 28/28/28 40/40/40 39/39/39
f 29/29/29 40/40/40 27/27/27
f 40/40/40 28/28/28 27/27/27
f 36/36/36 26/26/26 41/41/41
f 11/11/11 41/41/41 26/26/26
f 11/11/11 5/5/5 41/41/41
f 41/41/41 42/42/42 36/36/36
f 5/5/5 42/42/42 41/41/41
f 42/42/42 43/43/43 36/36/36
f 5/5/5 44/44/44 42/42/42
f 42/42/42 45/45/45 43/43/43
f 44/44/44 45/45/45 42/42/42
f 48/48/48 47/47/47 46/46/46
f 48/48/48 46/46/46 49/49/49
f 47/47/47 50/50/50 46/46/46
f 47/47/47 51/51/51 50/50/50
f 51/51/51 52/52/52 50/50/50
f 51/51/51 53/53/53 52/52/52
f 46/46/46 54/54/54 49/49/49
f 55/55/55 49/49/49 54/54/54
f 50/50/50 56/56/56 46/46/46
f 50/50/50 52/52/52 56/56/56
f 46/46/46 57/57/57 54/54/54
f 56/56/56 57/57/57 46/46/46
f 58/58/58 55/55/55 54/54/54
f 57/57/57 59/59/59 54/54/54
f 58/58/58 54/54/54 59/59/59
f 55/55/55 58/58/58 60/60/60
f 61/61/61 55/55/55 60/60/60
f 62/62/62 61/61/61 60/60/60
f 60/60/60 58/58/58 63/63/63
f 63/63/63 62/62/62 60/60/60
f 64/64/64 58/58/58 59/59/59
f 58/58/58 64/64/64 63/63/63
f 62/62/62 63/63/63 65/65/65
f 66/66/66 62/62/62 65/65/65
f 67/67/67 66/66/66 65/65/65
f 68/68/68 65/65/65 63/63/63
f 68/68/68 67/67/67 65/65/65
f 64/64/64 68/68/68 63/63/63
f 67/67/67 68/68/68 69/69/69
f 68/68/68 64/64/64 70/70/70
f 68/68/68 70/70/70 69/69/69
f 64/64/64 59/59/59 70/70/70
f 71/71/71 69/69/69 70/70/70
f 72/72/72 70/70/70 59/59/59
f 72/72/72 71/71/71 70/70/70
f 57/57/57 72/72/72 59/59/59
f 73/73/73 71/71/71 72/72/72
f 74/74/74 72/72/72 57/57/57
f 74/74/74 73/73/73 72/72/72
f 75/75/75 73/73/73 74/74/74
f 56/56/56 74/74/74 57/57/57
f 76/76/76 75/75/75 74/74/74
f 76/76/76 74/74/74 56/56/56
f 77/77/77 75/75/75 76/76/76
f 78/78/78 76/76/76 56/56/56
f 52/52/52 78/78/78 56/56/56
f 79/79/79 77/77/77 76/76/76
f 79/79/79 76/76/76 78/78/78
f 80/80/80 78/78/78 52/52/52
f 80/80/80 79/79/79 78/78/78
f 81/81/81 77/77/77 79/79/79
f 81/81/81 82/82/82 77/77/77
f 83/83/83 82/82/82 81/81/81
f 83/83/83 81/81/81 84/84/84
f 84/84/84 81/81/81 85/85/85
f 81/81/81 79/79/79 85/85/85
f 85/85/85 79/79/79 80/80/80
f 86/86/86 80/80/80 52/52/52
f 86/86/86 85/85/85 80/80/80
f 53/53/53 86/86/86 52/52/52
f 86/86/86 87/87/87 85/85/85
f 53/53/53 87/87/87 86/86/86
f 87/87/87 88/88/88 85/85/85
f 53/53/53 89/89/89 87/87/87
f 87/87/87 90/90/90 88/88/88
f 89/89/89 90/90/90 87/87/87
