g pm0746_12_EffectDSkin_rx
v -0.011747894 0.06976529 -0.4525765
v -1.0681152E-06 0.037870437 -0.4712289
v -9.155273E-07 0.09764858 -0.49665818
v -1.0681152E-06 0.07594828 -0.44977215
v -1.0681152E-06 1.0882289E-05 -0.45239443
v -1.373291E-06 0.036958423 -0.40397522
v -0.012380524 0.026112685 -0.40397534
v -0.024836577 0.040040705 -0.34631568
v -1.6784668E-06 0.05665376 -0.3463155
v -1.8310546E-06 0.07591801 -0.28299645
v -0.016404876 1.0849402E-05 -0.40397543
v -0.034389496 0.053660292 -0.2829967
v -2.2888182E-06 0.08721682 -0.21244454
v -0.03376877 1.061653E-05 -0.34631586
v -0.038932953 0.061648197 -0.21244484
v -2.5939942E-06 0.08344204 -0.12178898
v -0.047982175 1.0360801E-05 -0.28299698
v -0.038074188 0.05897987 -0.12178926
v -2.8991699E-06 0.054452628 -0.03940784
v -0.054955747 9.9945255E-06 -0.21244514
v -0.025012054 0.03857881 -0.039830633
v -3.2043456E-06 0.019709347 -0.0013155685
v -0.053843535 9.628391E-06 -0.12178957
v -0.038932953 -0.061627965 -0.21244533
v -0.034389496 -0.05363973 -0.28299713
v -0.024836577 -0.04001931 -0.34631598
v -0.009374389 0.014961635 -0.004441254
v -3.2043456E-06 9.183268E-06 0.008561579
v -0.035211943 9.376611E-06 -0.039310466
v -0.038074188 -0.05896061 -0.12178974
v -2.2888182E-06 -0.087196745 -0.21244526
v -1.8310546E-06 -0.075897284 -0.2829971
v -2.5939942E-06 -0.0834227 -0.121789664
v -1.6784668E-06 -0.056632526 -0.34631595
v -2.8991699E-06 -0.054434117 -0.039408285
v -1.373291E-06 -0.036936887 -0.40397552
v -0.025012054 -0.038560215 -0.03983094
v -3.2043456E-06 -0.019691063 -0.0013157276
v -0.009374389 -0.014943163 -0.004441375
v -0.011499786 9.220245E-06 -0.0005942795
v -0.012380524 -0.026090821 -0.40397552
v -0.011747894 -0.0697432 -0.45257705
v -1.0681152E-06 -0.075926214 -0.44977275
v -1.0681152E-06 -0.037848115 -0.4712292
v -9.155273E-07 -0.09762613 -0.49665895
v 0.038927764 -0.061627965 -0.21244495
v -1.8310546E-06 -0.075897284 -0.2829971
v -2.2888182E-06 -0.087196745 -0.21244526
v -2.5939942E-06 -0.0834227 -0.121789664
v 0.03438507 -0.05363973 -0.28299683
v -1.6784668E-06 -0.056632526 -0.34631595
v 0.02483261 -0.04001931 -0.34631577
v -1.373291E-06 -0.036936887 -0.40397552
v 0.038068082 -0.05896061 -0.12178937
v -2.8991699E-06 -0.054434117 -0.039408285
v 0.0479776 1.0360799E-05 -0.28299657
v 0.054950714 9.994524E-06 -0.21244465
v 0.02500534 -0.038560215 -0.039830707
v 0.053837735 9.628388E-06 -0.12178907
v 0.0093670655 -0.014943163 -0.004441287
v -3.2043456E-06 -0.019691063 -0.0013157276
v -3.2043456E-06 9.183268E-06 0.008561579
v 0.011492767 9.220245E-06 -0.0005941716
v 0.035205536 9.37661E-06 -0.03931014
v 0.0093670655 0.014961635 -0.0044411663
v -3.2043456E-06 0.019709347 -0.0013155685
v -2.8991699E-06 0.054452628 -0.03940784
v 0.02500534 0.03857881 -0.039830394
v -2.5939942E-06 0.08344204 -0.12178898
v 0.038068082 0.05897987 -0.1217889
v -2.2888182E-06 0.08721682 -0.21244454
v 0.038927764 0.061648197 -0.21244445
v -1.8310546E-06 0.07591801 -0.28299645
v 0.03438507 0.053660292 -0.2829964
v -1.6784668E-06 0.05665376 -0.3463155
v 0.02483261 0.040040705 -0.3463154
v -1.373291E-06 0.036958423 -0.40397522
v 0.033764802 1.0616529E-05 -0.34631556
v 0.012377166 0.026112685 -0.40397522
v 0.016401215 1.0849401E-05 -0.40397528
v 0.011745453 0.06976529 -0.4525764
v -1.0681152E-06 0.07594828 -0.44977215
v -9.155273E-07 0.09764858 -0.49665818
v -1.0681152E-06 0.037870437 -0.4712289
v -1.0681152E-06 1.0882289E-05 -0.45239443
v 0.012377166 -0.026090821 -0.4039754
v 0.011745453 -0.0697432 -0.45257694
v -1.0681152E-06 -0.037848115 -0.4712292
v -1.0681152E-06 -0.075926214 -0.44977275
v -9.155273E-07 -0.09762613 -0.49665895
vt 0.026897505 0.58084244
vt 0.023023289 0.5778226
vt 0.018829793 0.5835995
vt 0.027983967 0.58315945
vt 0.026653914 0.574226
vt 0.036463127 0.58076024
vt 0.03637958 0.5769339
vt 0.047882996 0.5782216
vt 0.0464306 0.5810642
vt 0.059038766 0.5838155
vt 0.036806826 0.5742261
vt 0.0604595 0.57965934
vt 0.07422578 0.5853246
vt 0.048200734 0.5742262
vt 0.07466693 0.58048695
vt 0.09402679 0.584795
vt 0.06071319 0.574226
vt 0.09285863 0.5801423
vt 0.11157215 0.58096427
vt 0.07465489 0.574226
vt 0.10933542 0.5780974
vt 0.11933305 0.5784999
vt 0.09256943 0.5742261
vt 0.07466696 0.5679655
vt 0.060459793 0.5687929
vt 0.04788305 0.57023096
vt 0.11746991 0.57711875
vt 0.12309264 0.57422626
vt 0.10886822 0.5742261
vt 0.092858605 0.5683101
vt 0.07422577 0.56312793
vt 0.05903873 0.5646369
vt 0.09402678 0.5636574
vt 0.046430588 0.56738836
vt 0.11157215 0.56748813
vt 0.03646314 0.5675754
vt 0.10933545 0.5703551
vt 0.11933328 0.56995237
vt 0.11746997 0.57133394
vt 0.11785251 0.57422626
vt 0.03637952 0.5715186
vt 0.02689768 0.56760997
vt 0.03490828 0.55915636
vt 0.023023337 0.5706298
vt 0.018829755 0.5648528
vt 0.07466686 0.56796557
vt 0.059038877 0.5646369
vt 0.074225664 0.563128
vt 0.094026566 0.5636576
vt 0.060459733 0.568793
vt 0.046430588 0.5673884
vt 0.047883153 0.5702309
vt 0.036463022 0.56757563
vt 0.09285855 0.5683101
vt 0.11157203 0.56748825
vt 0.060713172 0.574226
vt 0.07465482 0.5742261
vt 0.1093353 0.570355
vt 0.09256935 0.57422614
vt 0.11747015 0.57133377
vt 0.11933279 0.56995237
vt 0.12309271 0.57422626
vt 0.11785269 0.5742263
vt 0.10886788 0.57422614
vt 0.11747026 0.57711893
vt 0.11933303 0.5784999
vt 0.11157203 0.58096427
vt 0.10933518 0.5780974
vt 0.094026566 0.58479494
vt 0.09285855 0.58014244
vt 0.074225664 0.58532447
vt 0.07466698 0.5804871
vt 0.05903876 0.5838155
vt 0.060459733 0.57965946
vt 0.046430588 0.58106405
vt 0.047883153 0.5782216
vt 0.036463022 0.5807601
vt 0.048200727 0.57422614
vt 0.036379814 0.5769339
vt 0.036806583 0.574226
vt 0.026897669 0.58084255
vt 0.027984142 0.58315945
vt 0.018829823 0.58359957
vt 0.023023367 0.5778226
vt 0.026653767 0.5742262
vt 0.036379814 0.5715186
vt 0.026897669 0.56760997
vt 0.023023367 0.5706298
vt 0.034908235 0.55915636
vt 0.018829703 0.5648528
vn -0.6479516 0.7607633 -0.037389908
vn -0.9323019 -0.15122736 -0.32854748
vn -0.912283 0.4092571 0.015763165
vn -0.49648595 0.7307918 0.4684496
vn -0.9630349 1.0728837E-06 -0.26937675
vn 7.92989E-06 0.9922397 -0.12433932
vn -0.7950952 0.5948902 -0.11802288
vn -0.6802264 0.7001489 -0.21698767
vn 6.8052304E-06 0.9748751 -0.22275211
vn 5.6049284E-06 0.97739834 -0.21140602
vn -0.9844201 1.5807652E-06 -0.17583254
vn -0.74166316 0.64396626 -0.18773179
vn 4.223211E-06 0.99948055 -0.03223087
vn -0.97380733 1.4869148E-06 -0.2273747
vn -0.7689529 0.6385638 -0.030785058
vn 3.730047E-06 0.96146786 0.27491736
vn -0.9813665 1.0066061E-06 -0.19214544
vn -0.751905 0.61582476 0.23536915
vn 4.5488437E-06 0.7888389 0.61459994
vn -0.99959713 1.4522792E-07 -0.028385524
vn -0.6616788 0.5232059 0.5370632
vn 6.714417E-06 0.49970096 0.866198
vn -0.97731405 -6.580996E-07 0.21179517
vn -0.768953 -0.63856333 -0.030790497
vn -0.7416635 -0.6439643 -0.18773717
vn -0.6802275 -0.7001459 -0.21699363
vn -0.5224418 0.39811298 0.75402963
vn 8.249805E-06 -2.887432E-06 1
vn -0.86093915 -1.521059E-06 0.5087079
vn -0.75190544 -0.6158263 0.23536405
vn 4.2232105E-06 -0.9994802 -0.032239396
vn 5.604932E-06 -0.9773966 -0.21141416
vn 3.7300485E-06 -0.9614702 0.27490935
vn 6.805241E-06 -0.9748731 -0.2227604
vn 4.548848E-06 -0.78884345 0.6145941
vn 7.512547E-06 -0.9922387 -0.1243482
vn -0.66167927 -0.52320933 0.537059
vn 6.714422E-06 -0.49970627 0.86619496
vn -0.52244234 -0.39811754 0.75402683
vn -0.6093613 -2.3749449E-06 0.7928927
vn -0.79509664 -0.5948872 -0.1180282
vn -0.64795357 -0.76076126 -0.037396643
vn -0.496488 -0.7307951 0.46844232
vn -0.93230206 0.15123034 -0.32854557
vn -0.91228306 -0.4092568 0.015759228
vn 0.768956 -0.6385601 -0.030783491
vn 5.604932E-06 -0.9773966 -0.21141416
vn 4.2232105E-06 -0.9994802 -0.032239396
vn 3.7300485E-06 -0.9614702 0.27490935
vn 0.74166906 -0.6439601 -0.18772952
vn 6.805241E-06 -0.9748731 -0.2227604
vn 0.6802361 -0.7001402 -0.21698487
vn 7.512547E-06 -0.9922387 -0.1243482
vn 0.75190634 -0.615823 0.23536965
vn 4.548848E-06 -0.78884345 0.6145941
vn 0.9813685 1.006603E-06 -0.19213523
vn 0.9995974 1.452276E-07 -0.028376313
vn 0.66168094 -0.52320594 0.5370603
vn 0.97731245 -6.58098E-07 0.2118027
vn 0.5224488 -0.3981145 0.7540239
vn 6.714422E-06 -0.49970627 0.86619496
vn 8.249805E-06 -2.887432E-06 1
vn 0.6093664 -2.2264965E-06 0.7928888
vn 0.86093754 -1.5210513E-06 0.5087107
vn 0.5224484 0.39810994 0.75402665
vn 6.714417E-06 0.49970096 0.866198
vn 4.5488437E-06 0.7888389 0.61459994
vn 0.6616805 0.5232024 0.5370643
vn 3.730047E-06 0.96146786 0.27491736
vn 0.75190604 0.6158214 0.23537478
vn 4.223211E-06 0.99948055 -0.03223087
vn 0.76895607 0.63856035 -0.03077812
vn 5.6049284E-06 0.97739834 -0.21140602
vn 0.74166876 0.64396214 -0.18772402
vn 6.8052304E-06 0.9748751 -0.22275211
vn 0.6802351 0.70014316 -0.21697891
vn 7.92989E-06 0.9922397 -0.12433932
vn 0.97381026 1.6355982E-06 -0.2273622
vn 0.79510194 0.5948834 -0.11801161
vn 0.9844226 1.4370517E-06 -0.17581832
vn 0.6479613 0.7607554 -0.037381183
vn 0.49649563 0.73078495 0.46844998
vn 0.91228586 0.40925032 0.015770793
vn 0.9323057 -0.15122518 -0.32853755
vn 0.96304035 9.536744E-07 -0.2693575
vn 0.79510325 -0.59488046 -0.11801685
vn 0.6479628 -0.7607538 -0.037387844
vn 0.932306 0.15122817 -0.3285354
vn 0.49649242 -0.73079073 0.4684445
vn 0.91228515 -0.40925193 0.015767815
g pm0746_12_EffectDSkin_rx_0
f 3/3/3 2/2/2 1/1/1
f 3/3/3 1/1/1 4/4/4
f 1/1/1 2/2/2 5/5/5
f 4/4/4 1/1/1 6/6/6
f 1/1/1 7/7/7 6/6/6
f 1/1/1 5/5/5 7/7/7
f 8/8/8 6/6/6 7/7/7
f 8/8/8 9/9/9 6/6/6
f 9/9/9 8/8/8 10/10/10
f 5/5/5 11/11/11 7/7/7
f 7/7/7 11/11/11 8/8/8
f 8/8/8 12/12/12 10/10/10
f 10/10/10 12/12/12 13/13/13
f 11/11/11 14/14/14 8/8/8
f 8/8/8 14/14/14 12/12/12
f 12/12/12 15/15/15 13/13/13
f 13/13/13 15/15/15 16/16/16
f 14/14/14 17/17/17 12/12/12
f 12/12/12 17/17/17 15/15/15
f 15/15/15 18/18/18 16/16/16
f 19/19/19 16/16/16 18/18/18
f 17/17/17 20/20/20 15/15/15
f 15/15/15 20/20/20 18/18/18
f 21/21/21 19/19/19 18/18/18
f 19/19/19 21/21/21 22/22/22
f 20/20/20 23/23/23 18/18/18
f 21/21/21 18/18/18 23/23/23
f 20/20/20 17/17/17 24/24/24
f 20/20/20 24/24/24 23/23/23
f 17/17/17 14/14/14 25/25/25
f 17/17/17 25/25/25 24/24/24
f 14/14/14 11/11/11 26/26/26
f 14/14/14 26/26/26 25/25/25
f 21/21/21 27/27/27 22/22/22
f 28/28/28 22/22/22 27/27/27
f 29/29/29 21/21/21 23/23/23
f 21/21/21 29/29/29 27/27/27
f 24/24/24 30/30/30 23/23/23
f 29/29/29 23/23/23 30/30/30
f 24/24/24 25/25/25 31/31/31
f 24/24/24 31/31/31 30/30/30
f 25/25/25 32/32/32 31/31/31
f 25/25/25 26/26/26 32/32/32
f 31/31/31 33/33/33 30/30/30
f 26/26/26 34/34/34 32/32/32
f 30/30/30 33/33/33 35/35/35
f 36/36/36 34/34/34 26/26/26
f 37/37/37 30/30/30 35/35/35
f 37/37/37 29/29/29 30/30/30
f 37/37/37 35/35/35 38/38/38
f 39/39/39 37/37/37 38/38/38
f 29/29/29 37/37/37 39/39/39
f 38/38/38 28/28/28 39/39/39
f 40/40/40 29/29/29 39/39/39
f 28/28/28 40/40/40 39/39/39
f 29/29/29 40/40/40 27/27/27
f 40/40/40 28/28/28 27/27/27
f 36/36/36 26/26/26 41/41/41
f 11/11/11 41/41/41 26/26/26
f 11/11/11 5/5/5 41/41/41
f 41/41/41 42/42/42 36/36/36
f 5/5/5 42/42/42 41/41/41
f 42/42/42 43/43/43 36/36/36
f 5/5/5 44/44/44 42/42/42
f 42/42/42 45/45/45 43/43/43
f 44/44/44 45/45/45 42/42/42
f 48/48/48 47/47/47 46/46/46
f 48/48/48 46/46/46 49/49/49
f 47/47/47 50/50/50 46/46/46
f 47/47/47 51/51/51 50/50/50
f 51/51/51 52/52/52 50/50/50
f 51/51/51 53/53/53 52/52/52
f 46/46/46 54/54/54 49/49/49
f 55/55/55 49/49/49 54/54/54
f 50/50/50 56/56/56 46/46/46
f 50/50/50 52/52/52 56/56/56
f 46/46/46 57/57/57 54/54/54
f 56/56/56 57/57/57 46/46/46
f 58/58/58 55/55/55 54/54/54
f 57/57/57 59/59/59 54/54/54
f 58/58/58 54/54/54 59/59/59
f 55/55/55 58/58/58 60/60/60
f 61/61/61 55/55/55 60/60/60
f 62/62/62 61/61/61 60/60/60
f 60/60/60 58/58/58 63/63/63
f 63/63/63 62/62/62 60/60/60
f 64/64/64 58/58/58 59/59/59
f 58/58/58 64/64/64 63/63/63
f 62/62/62 63/63/63 65/65/65
f 66/66/66 62/62/62 65/65/65
f 67/67/67 66/66/66 65/65/65
f 68/68/68 65/65/65 63/63/63
f 68/68/68 67/67/67 65/65/65
f 64/64/64 68/68/68 63/63/63
f 67/67/67 68/68/68 69/69/69
f 68/68/68 64/64/64 70/70/70
f 68/68/68 70/70/70 69/69/69
f 64/64/64 59/59/59 70/70/70
f 71/71/71 69/69/69 70/70/70
f 72/72/72 70/70/70 59/59/59
f 72/72/72 71/71/71 70/70/70
f 57/57/57 72/72/72 59/59/59
f 73/73/73 71/71/71 72/72/72
f 74/74/74 72/72/72 57/57/57
f 74/74/74 73/73/73 72/72/72
f 75/75/75 73/73/73 74/74/74
f 56/56/56 74/74/74 57/57/57
f 76/76/76 75/75/75 74/74/74
f 76/76/76 74/74/74 56/56/56
f 77/77/77 75/75/75 76/76/76
f 78/78/78 76/76/76 56/56/56
f 52/52/52 78/78/78 56/56/56
f 79/79/79 77/77/77 76/76/76
f 79/79/79 76/76/76 78/78/78
f 80/80/80 78/78/78 52/52/52
f 80/80/80 79/79/79 78/78/78
f 81/81/81 77/77/77 79/79/79
f 81/81/81 82/82/82 77/77/77
f 83/83/83 82/82/82 81/81/81
f 83/83/83 81/81/81 84/84/84
f 84/84/84 81/81/81 85/85/85
f 81/81/81 79/79/79 85/85/85
f 85/85/85 79/79/79 80/80/80
f 86/86/86 80/80/80 52/52/52
f 86/86/86 85/85/85 80/80/80
f 53/53/53 86/86/86 52/52/52
f 86/86/86 87/87/87 85/85/85
f 53/53/53 87/87/87 86/86/86
f 87/87/87 88/88/88 85/85/85
f 53/53/53 89/89/89 87/87/87
f 87/87/87 90/90/90 88/88/88
f 89/89/89 90/90/90 87/87/87
