g arena_screens
v -0.6271248 -11.25277 22.9861
v -0.6271248 -9.775128 22.9861
v 0.8505192 -9.775128 22.9861
v 0.8505192 -11.25277 22.9861
v -0.6271248 -9.775128 22.9861
v -0.6271248 -9.775128 -22.98807
v 0.8505192 -9.775128 -22.98807
v 0.8505192 -9.775128 22.9861
v -0.6271248 -9.775128 -22.98807
v -0.6271248 -11.25277 -22.98807
v 0.8505192 -11.25277 -22.98807
v 0.8505192 -9.775128 -22.98807
v 0.8505192 -11.25277 22.9861
v 0.8505192 -9.775128 22.9861
v 0.8505192 -9.775128 -22.98807
v 0.8505192 -11.25277 -22.98807
v -0.6271248 -11.25277 -22.98807
v -0.6271248 -9.775128 -22.98807
v -0.6271248 -9.775128 22.9861
v -0.6271248 -11.25277 22.9861
v -0.5322304 -9.562745 -21.22122
v -0.4599304 -9.034046 -20.74675
v -0.3198471 -9.034046 -0.0009860992
v -0.3876286 -9.562745 -0.0009860992
v -0.3876286 9.849972 -0.0009860992
v -0.3198471 9.321274 -0.0009860992
v -0.4599304 9.321274 -20.74675
v -0.5322304 9.849972 -21.22122
v -0.5322304 9.849972 -21.22122
v -0.4599304 9.321274 -20.74675
v -0.4599304 -9.034046 -20.74675
v -0.5322304 -9.562745 -21.22122
v -0.5322304 -9.562745 21.21925
v -0.3876286 -9.562745 -0.0009860992
v -0.3198471 -9.034046 -0.0009860992
v -0.4599304 -9.034046 20.74929
v -0.3876286 9.849972 -0.0009860992
v -0.5322304 9.849972 21.21925
v -0.4599304 9.321274 20.74929
v -0.3198471 9.321274 -0.0009860992
v -0.5322304 9.849972 21.21925
v -0.5322304 -9.562745 21.21925
v -0.4599304 -9.034046 20.74929
v -0.4599304 9.321274 20.74929
v -271.7726 -9.562745 -21.22122
v -271.9126 -9.562745 -0.0009860992
v -271.9804 -9.034046 -0.0009860992
v -271.8403 -9.034046 -20.74675
v -271.9126 9.849972 -0.0009860992
v -271.7726 9.849972 -21.22122
v -271.8403 9.321274 -20.74675
v -271.9804 9.321274 -0.0009860992
v -271.7726 9.849972 -21.22122
v -271.7726 -9.562745 -21.22122
v -271.8403 -9.034046 -20.74675
v -271.8403 9.321274 -20.74675
v -271.7726 -9.562745 21.21925
v -271.8403 -9.034046 20.74929
v -271.9804 -9.034046 -0.0009860992
v -271.9126 -9.562745 -0.0009860992
v -271.9126 9.849972 -0.0009860992
v -271.9804 9.321274 -0.0009860992
v -271.8403 9.321274 20.74929
v -271.7726 9.849972 21.21925
v -271.7726 9.849972 21.21925
v -271.8403 9.321274 20.74929
v -271.8403 -9.034046 20.74929
v -271.7726 -9.562745 21.21925
v -0.4599304 -10.11856 -21.15344
v -0.4599304 10.15273 -21.15344
v 0.529686 10.15273 -21.15344
v 0.529686 -10.11856 -21.15344
v -0.4599304 10.15273 -22.82539
v -0.4599304 -10.11856 -22.82539
v 0.529686 -10.11856 -22.82539
v 0.529686 10.15273 -22.82539
v -0.4599304 -10.11856 -22.82539
v -0.4599304 10.15273 -22.82539
v -0.4599304 10.15273 -21.15344
v -0.4599304 -10.11856 -21.15344
v -0.4599304 -10.11856 21.15147
v 0.529686 -10.11856 21.15147
v 0.529686 10.15273 21.15147
v -0.4599304 10.15273 21.15147
v -0.4599304 10.15273 22.82342
v 0.529686 10.15273 22.82342
v 0.529686 -10.11856 22.82342
v -0.4599304 -10.11856 22.82342
v -0.4599304 -10.11856 22.82342
v -0.4599304 -10.11856 21.15147
v -0.4599304 10.15273 21.15147
v -0.4599304 10.15273 22.82342
v -271.8403 -10.11856 -21.15344
v -272.83 -10.11856 -21.15344
v -272.83 10.15273 -21.15344
v -271.8403 10.15273 -21.15344
v -271.8403 10.15273 -22.82539
v -272.83 10.15273 -22.82539
v -272.83 -10.11856 -22.82539
v -271.8403 -10.11856 -22.82539
v -271.8403 -10.11856 -22.82539
v -271.8403 -10.11856 -21.15344
v -271.8403 10.15273 -21.15344
v -271.8403 10.15273 -22.82539
v -271.8403 -10.11856 21.15147
v -271.8403 10.15273 21.15147
v -272.83 10.15273 21.15147
v -272.83 -10.11856 21.15147
v -271.8403 10.15273 22.82342
v -271.8403 -10.11856 22.82342
v -272.83 -10.11856 22.82342
v -272.83 10.15273 22.82342
v -271.8403 -10.11856 22.82342
v -271.8403 10.15273 22.82342
v -271.8403 10.15273 21.15147
v -271.8403 -10.11856 21.15147
v -0.3876286 -9.034046 -0.0009860992
v -0.4599304 9.321274 20.74929
v -0.4599304 -9.034046 20.74929
v -0.3876286 9.321274 -0.0009860992
v -0.4599304 -9.034046 -20.74675
v -0.4599304 9.321274 -20.74675
v -271.9126 -9.034046 -0.0009860992
v -271.8403 -9.034046 20.74929
v -271.8403 9.321274 20.74929
v -271.9126 9.321274 -0.0009860992
v -271.8403 -9.034046 -20.74675
v -271.8403 9.321274 -20.74675
v -271.6731 -11.25277 22.9861
v -273.1508 -11.25277 22.9861
v -273.1508 -9.775128 22.9861
v -271.6731 -9.775128 22.9861
v -271.6731 -9.775128 22.9861
v -273.1508 -9.775128 22.9861
v -273.1508 -9.775128 -22.98807
v -271.6731 -9.775128 -22.98807
v -271.6731 -9.775128 -22.98807
v -273.1508 -9.775128 -22.98807
v -273.1508 -11.25277 -22.98807
v -271.6731 -11.25277 -22.98807
v -273.1508 -11.25277 22.9861
v -273.1508 -11.25277 -22.98807
v -273.1508 -9.775128 -22.98807
v -273.1508 -9.775128 22.9861
v -271.6731 -11.25277 -22.98807
v -271.6731 -11.25277 22.9861
v -271.6731 -9.775128 22.9861
v -271.6731 -9.775128 -22.98807
vt 0.3918849 0.4053292
vt 0.3851628 0.411091
vt 0.3851628 0.420694
vt 0.3918849 0.4264559
vt 0.3851628 0.411091
vt 0.1594917 0.411091
vt 0.1594917 0.420694
vt 0.3851628 0.420694
vt 0.1594917 0.411091
vt 0.1518093 0.4053292
vt 0.1518093 0.4264559
vt 0.1594917 0.420694
vt 0.3918849 0.4264559
vt 0.3851628 0.420694
vt 0.1594917 0.420694
vt 0.1518093 0.4264559
vt 0.1518093 0.4053292
vt 0.1594917 0.411091
vt 0.3851628 0.411091
vt 0.3918849 0.4053292
vt 0.4331779 0.2315144
vt 0.4370192 0.2353556
vt 0.59835 0.2353556
vt 0.59835 0.2315144
vt 0.59835 0.2353556
vt 0.59835 0.2315144
vt 0.4370192 0.2315144
vt 0.4331779 0.2353556
vt 0.5897073 0.2353556
vt 0.5858661 0.2315144
vt 0.4466222 0.2315144
vt 0.442781 0.2353556
vt 0.4331779 0.2315144
vt 0.59835 0.2315144
vt 0.59835 0.2353556
vt 0.4370192 0.2353556
vt 0.59835 0.2353556
vt 0.4331779 0.2353556
vt 0.4370192 0.2315144
vt 0.59835 0.2315144
vt 0.5897073 0.2353556
vt 0.442781 0.2353556
vt 0.4466222 0.2315144
vt 0.5858661 0.2315144
vt 0.4331779 0.2315144
vt 0.59835 0.2315144
vt 0.59835 0.2353556
vt 0.4370192 0.2353556
vt 0.59835 0.2353556
vt 0.4331779 0.2353556
vt 0.4370192 0.2315144
vt 0.59835 0.2315144
vt 0.5897073 0.2353556
vt 0.442781 0.2353556
vt 0.4466222 0.2315144
vt 0.5858661 0.2315144
vt 0.4331779 0.2315144
vt 0.4370192 0.2353556
vt 0.59835 0.2353556
vt 0.59835 0.2315144
vt 0.59835 0.2353556
vt 0.59835 0.2315144
vt 0.4370192 0.2315144
vt 0.4331779 0.2353556
vt 0.5897073 0.2353556
vt 0.5858661 0.2315144
vt 0.4466222 0.2315144
vt 0.442781 0.2353556
vt 0.07786602 0.992074
vt 0.07786602 0.01064484
vt 0.0346524 0.01064484
vt 0.0346524 0.992074
vt 0.1623726 0.01064484
vt 0.1623726 0.992074
vt 0.2046259 0.992074
vt 0.2046259 0.01064484
vt 0.1623726 0.992074
vt 0.1623726 0.01064484
vt 0.07786602 0.01064484
vt 0.07786602 0.992074
vt 0.07786602 0.992074
vt 0.0346524 0.992074
vt 0.0346524 0.01064484
vt 0.07786602 0.01064484
vt 0.1623726 0.01064484
vt 0.2046259 0.01064484
vt 0.2046259 0.992074
vt 0.1623726 0.992074
vt 0.1623726 0.992074
vt 0.07786602 0.992074
vt 0.07786602 0.01064484
vt 0.1623726 0.01064484
vt 0.07786602 0.992074
vt 0.0346524 0.992074
vt 0.0346524 0.01064484
vt 0.07786602 0.01064484
vt 0.1623726 0.01064484
vt 0.2046259 0.01064484
vt 0.2046259 0.992074
vt 0.1623726 0.992074
vt 0.1623726 0.992074
vt 0.07786602 0.992074
vt 0.07786602 0.01064484
vt 0.1623726 0.01064484
vt 0.07786602 0.992074
vt 0.07786602 0.01064484
vt 0.0346524 0.01064484
vt 0.0346524 0.992074
vt 0.1623726 0.01064484
vt 0.1623726 0.992074
vt 0.2046259 0.992074
vt 0.2046259 0.01064484
vt 0.1623726 0.992074
vt 0.1623726 0.01064484
vt 0.07786602 0.01064484
vt 0.07786602 0.992074
vt 0.4485428 0.5656997
vt 0.8758774 0.9930344
vt 0.8758774 0.5656997
vt 0.4485428 0.9930344
vt 0.02024786 0.5656997
vt 0.02024786 0.9930344
vt 0.4485428 0.5656997
vt 0.02024786 0.5656997
vt 0.02024786 0.9930344
vt 0.4485428 0.9930344
vt 0.8758774 0.5656997
vt 0.8758774 0.9930344
vt 0.3918849 0.4053292
vt 0.3918849 0.4264559
vt 0.3851628 0.420694
vt 0.3851628 0.411091
vt 0.3851628 0.411091
vt 0.3851628 0.420694
vt 0.1594917 0.420694
vt 0.1594917 0.411091
vt 0.1594917 0.411091
vt 0.1594917 0.420694
vt 0.1518093 0.4264559
vt 0.1518093 0.4053292
vt 0.3918849 0.4264559
vt 0.1518093 0.4264559
vt 0.1594917 0.420694
vt 0.3851628 0.420694
vt 0.1518093 0.4053292
vt 0.3918849 0.4053292
vt 0.3851628 0.411091
vt 0.1594917 0.411091
vn -0.003921509 0.003921509 0.9999846
vn -0.003921509 0.003921509 0.9999846
vn -0.003921509 0.003921509 0.9999846
vn -0.003921509 0.003921509 0.9999846
vn -0.003921509 0.9999923 -0.000345267
vn -0.003921509 0.9999923 -0.000345267
vn -0.003921509 0.9999923 -0.000345267
vn -0.003921509 0.9999923 -0.000345267
vn -0.003921509 0.003921509 -0.9999846
vn -0.003921509 0.003921509 -0.9999846
vn -0.003921509 0.003921509 -0.9999846
vn -0.003921509 0.003921509 -0.9999846
vn 0.9999924 0.003921509 0
vn 0.9999924 0.003921509 0
vn 0.9999924 0.003921509 0
vn 0.9999924 0.003921509 0
vn -0.9999923 0.003921509 -0.0003449296
vn -0.9999923 0.003921509 -0.0003449296
vn -0.9999923 0.003921509 -0.0003449296
vn -0.9999923 0.003921509 -0.0003449296
vn -0.9998079 -0.01960411 0
vn -0.9998079 -0.01960411 0
vn -0.9993777 -0.03527219 0
vn -0.9993777 -0.03527219 0
vn -0.9993777 0.03527213 0
vn -0.9993777 0.03527213 0
vn -0.9998079 0.01960405 0
vn -0.9998079 0.01960405 0
vn -0.9998079 0.01960405 0
vn -0.9998079 0.01960405 0
vn -0.9998079 -0.01960411 0
vn -0.9998079 -0.01960411 0
vn -0.9998079 -0.01960411 0
vn -0.9993777 -0.03527219 0
vn -0.9993777 -0.03527219 0
vn -0.9998079 -0.01960411 0
vn -0.9993777 0.03527213 0
vn -0.9998079 0.01960405 0
vn -0.9998079 0.01960405 0
vn -0.9993777 0.03527213 0
vn -0.9998079 0.01960405 0
vn -0.9998079 -0.01960411 0
vn -0.9998079 -0.01960411 0
vn -0.9998079 0.01960405 0
vn 0.9998079 -0.01960411 0
vn 0.9993777 -0.03527218 0
vn 0.9993777 -0.03527218 0
vn 0.9998079 -0.01960411 0
vn 0.9993777 0.03527213 0
vn 0.9998079 0.01960405 0
vn 0.9998079 0.01960405 0
vn 0.9993777 0.03527213 0
vn 0.9998079 0.01960405 0
vn 0.9998079 -0.01960411 0
vn 0.9998079 -0.01960411 0
vn 0.9998079 0.01960405 0
vn 0.9998079 -0.01960411 0
vn 0.9998079 -0.01960411 0
vn 0.9993777 -0.03527218 0
vn 0.9993777 -0.03527218 0
vn 0.9993777 0.03527213 0
vn 0.9993777 0.03527213 0
vn 0.9998079 0.01960405 0
vn 0.9998079 0.01960405 0
vn 0.9998079 0.01960405 0
vn 0.9998079 0.01960405 0
vn 0.9998079 -0.01960411 0
vn 0.9998079 -0.01960411 0
vn -0.003921509 0.003921509 0.9999846
vn -0.003921509 0.003921509 0.9999846
vn -0.003921509 0.003921509 0.9999846
vn -0.003921509 0.003921509 0.9999846
vn -0.003921509 0.003921509 -0.9999846
vn -0.003921509 0.003921509 -0.9999846
vn -0.003921509 0.003921509 -0.9999846
vn -0.003921509 0.003921509 -0.9999846
vn -0.9999923 0.003921509 -0.0003449296
vn -0.9999923 0.003921509 -0.0003449296
vn -0.9999923 0.003921509 -0.0003449296
vn -0.9999923 0.003921509 -0.0003449296
vn -0.003921509 0.003921509 -0.9999846
vn -0.003921509 0.003921509 -0.9999846
vn -0.003921509 0.003921509 -0.9999846
vn -0.003921509 0.003921509 -0.9999846
vn -0.003921509 0.003921509 0.9999846
vn -0.003921509 0.003921509 0.9999846
vn -0.003921509 0.003921509 0.9999846
vn -0.003921509 0.003921509 0.9999846
vn -0.9999923 0.003921509 -0.0003449296
vn -0.9999923 0.003921509 -0.0003449296
vn -0.9999923 0.003921509 -0.0003449296
vn -0.9999923 0.003921509 -0.0003449296
vn -0.003921509 0.003921509 0.9999846
vn -0.003921509 0.003921509 0.9999846
vn -0.003921509 0.003921509 0.9999846
vn -0.003921509 0.003921509 0.9999846
vn -0.003921509 0.003921509 -0.9999846
vn -0.003921509 0.003921509 -0.9999846
vn -0.003921509 0.003921509 -0.9999846
vn -0.003921509 0.003921509 -0.9999846
vn 0.9999924 0.003921509 0
vn 0.9999924 0.003921509 0
vn 0.9999924 0.003921509 0
vn 0.9999924 0.003921509 0
vn -0.003921509 0.003921509 -0.9999846
vn -0.003921509 0.003921509 -0.9999846
vn -0.003921509 0.003921509 -0.9999846
vn -0.003921509 0.003921509 -0.9999846
vn -0.003921509 0.003921509 0.9999846
vn -0.003921509 0.003921509 0.9999846
vn -0.003921509 0.003921509 0.9999846
vn -0.003921509 0.003921509 0.9999846
vn 0.9999924 0.003921509 0
vn 0.9999924 0.003921509 0
vn 0.9999924 0.003921509 0
vn 0.9999924 0.003921509 0
vn -0.9999923 0.003921509 -0.0003449296
vn -0.9999923 0.003921509 -0.0003449296
vn -0.9999923 0.003921509 -0.0003449296
vn -0.9999923 0.003921509 -0.0003449296
vn -0.9999923 0.003921509 -0.0003449296
vn -0.9999923 0.003921509 -0.0003449296
vn 0.9999924 0.003921509 0
vn 0.9999924 0.003921509 0
vn 0.9999924 0.003921509 0
vn 0.9999924 0.003921509 0
vn 0.9999924 0.003921509 0
vn 0.9999924 0.003921509 0
vn -0.003921509 0.003921509 0.9999846
vn -0.003921509 0.003921509 0.9999846
vn -0.003921509 0.003921509 0.9999846
vn -0.003921509 0.003921509 0.9999846
vn -0.003921509 0.9999923 -0.000345267
vn -0.003921509 0.9999923 -0.000345267
vn -0.003921509 0.9999923 -0.000345267
vn -0.003921509 0.9999923 -0.000345267
vn -0.003921509 0.003921509 -0.9999846
vn -0.003921509 0.003921509 -0.9999846
vn -0.003921509 0.003921509 -0.9999846
vn -0.003921509 0.003921509 -0.9999846
vn -0.9999923 0.003921509 -0.0003449296
vn -0.9999923 0.003921509 -0.0003449296
vn -0.9999923 0.003921509 -0.0003449296
vn -0.9999923 0.003921509 -0.0003449296
vn 0.9999924 0.003921509 0
vn 0.9999924 0.003921509 0
vn 0.9999924 0.003921509 0
vn 0.9999924 0.003921509 0
g arena_screens_0
f 3/3/3 2/2/2 1/1/1
f 4/4/4 3/3/3 1/1/1
f 7/7/7 6/6/6 5/5/5
f 8/8/8 7/7/7 5/5/5
f 11/11/11 10/10/10 9/9/9
f 12/12/12 11/11/11 9/9/9
f 15/15/15 14/14/14 13/13/13
f 16/16/16 15/15/15 13/13/13
f 19/19/19 18/18/18 17/17/17
f 20/20/20 19/19/19 17/17/17
f 23/23/23 22/22/22 21/21/21
f 24/24/24 23/23/23 21/21/21
f 27/27/27 26/26/26 25/25/25
f 28/28/28 27/27/27 25/25/25
f 31/31/31 30/30/30 29/29/29
f 32/32/32 31/31/31 29/29/29
f 35/35/35 34/34/34 33/33/33
f 36/36/36 35/35/35 33/33/33
f 39/39/39 38/38/38 37/37/37
f 40/40/40 39/39/39 37/37/37
f 43/43/43 42/42/42 41/41/41
f 44/44/44 43/43/43 41/41/41
f 47/47/47 46/46/46 45/45/45
f 48/48/48 47/47/47 45/45/45
f 51/51/51 50/50/50 49/49/49
f 52/52/52 51/51/51 49/49/49
f 55/55/55 54/54/54 53/53/53
f 56/56/56 55/55/55 53/53/53
f 59/59/59 58/58/58 57/57/57
f 60/60/60 59/59/59 57/57/57
f 63/63/63 62/62/62 61/61/61
f 64/64/64 63/63/63 61/61/61
f 67/67/67 66/66/66 65/65/65
f 68/68/68 67/67/67 65/65/65
g arena_screens_1
f 71/71/71 70/70/70 69/69/69
f 72/72/72 71/71/71 69/69/69
f 75/75/75 74/74/74 73/73/73
f 76/76/76 75/75/75 73/73/73
f 79/79/79 78/78/78 77/77/77
f 80/80/80 79/79/79 77/77/77
f 83/83/83 82/82/82 81/81/81
f 84/84/84 83/83/83 81/81/81
f 87/87/87 86/86/86 85/85/85
f 88/88/88 87/87/87 85/85/85
f 91/91/91 90/90/90 89/89/89
f 92/92/92 91/91/91 89/89/89
f 95/95/95 94/94/94 93/93/93
f 96/96/96 95/95/95 93/93/93
f 99/99/99 98/98/98 97/97/97
f 100/100/100 99/99/99 97/97/97
f 103/103/103 102/102/102 101/101/101
f 104/104/104 103/103/103 101/101/101
f 107/107/107 106/106/106 105/105/105
f 108/108/108 107/107/107 105/105/105
f 111/111/111 110/110/110 109/109/109
f 112/112/112 111/111/111 109/109/109
f 115/115/115 114/114/114 113/113/113
f 116/116/116 115/115/115 113/113/113
g arena_screens_2
f 119/119/119 118/118/118 117/117/117
f 118/118/118 120/120/120 117/117/117
f 117/117/117 120/120/120 121/121/121
f 120/120/120 122/122/122 121/121/121
f 125/125/125 124/124/124 123/123/123
f 126/126/126 125/125/125 123/123/123
f 126/126/126 123/123/123 127/127/127
f 128/128/128 126/126/126 127/127/127
g arena_screens_3
f 131/131/131 130/130/130 129/129/129
f 132/132/132 131/131/131 129/129/129
f 135/135/135 134/134/134 133/133/133
f 136/136/136 135/135/135 133/133/133
f 139/139/139 138/138/138 137/137/137
f 140/140/140 139/139/139 137/137/137
f 143/143/143 142/142/142 141/141/141
f 144/144/144 143/143/143 141/141/141
f 147/147/147 146/146/146 145/145/145
f 148/148/148 147/147/147 145/145/145
