g background
v 76.26957 18.346626 -0.0060043335
v 78.69273 30.505669 0.0011978149
v 75.698006 30.505669 15.056503
v 73.3661 18.346626 14.5858
v 74.19463 8.697205 -0.010810852
v 71.31998 30.505669 29.542648
v 71.370415 8.697205 14.184746
v 72.81134 4.064621 -0.013206482
v 69.12257 18.346626 28.622856
v 64.17297 30.505669 42.87844
v 70.039955 4.064621 13.9157715
v 71.776276 1.9416504 -0.013206482
v 69.045715 1.9416504 13.716446
v 62.1989 18.346626 41.550385
v 54.58599 30.505669 54.586
v 67.24215 8.697205 27.837547
v 65.990944 4.064621 27.316414
v 65.05194 1.9416504 26.924957
v 52.90731 18.346626 52.895294
v 42.878445 30.505669 64.17297
v 60.505806 8.697205 40.412056
v 59.379482 4.064621 39.655563
v 58.536537 1.9416504 39.0888
v 41.562397 18.346626 62.18689
v 29.540245 30.505669 71.31998
v 51.46878 8.697205 51.447174
v 50.510567 4.064621 50.484146
v 49.792503 1.9416504 49.763687
v 28.634861 18.346626 69.11055
v 15.056507 30.505669 75.698
v 40.433666 8.697205 60.48419
v 39.681984 4.064621 59.353058
v 39.11762 1.9416504 58.50772
v 14.597809 18.346626 73.354095
v -0.0011978149 30.505669 77.19417
v 27.859161 8.697205 67.220535
v 27.342827 4.064621 65.96452
v 26.953777 1.9416504 65.02312
v 0.0060043335 18.346626 74.80702
v -15.056503 30.505669 75.698
v 14.20636 8.697205 71.3488
v 13.942192 4.064621 70.015945
v 13.745262 1.9416504 69.01689
v -14.5858 18.346626 73.354095
v -29.540245 30.505669 71.31998
v 0.010810852 8.697205 72.76091
v 0.013206482 4.064621 71.39923
v 0.013206482 1.9416504 70.38338
v -28.622856 18.346626 69.11055
v -42.87844 30.505669 64.17297
v -14.184746 8.697205 71.3488
v -13.9157715 4.064621 70.015945
v -13.716446 1.9416504 69.01689
v -41.550385 18.346626 62.18689
v -54.586 30.505669 54.586
v -27.837547 8.697205 67.220535
v -27.316414 4.064621 65.96452
v -26.924957 1.9416504 65.02312
v -52.895294 18.346626 52.895294
v -64.17297 30.505669 42.87844
v -40.412056 8.697205 60.48419
v -39.655563 4.064621 59.353058
v -39.0888 1.9416504 58.50772
v -62.18689 18.346626 41.550385
v -71.31998 30.505669 29.540245
v -51.447174 8.697205 51.447174
v -50.484146 4.064621 50.484146
v -49.763687 1.9416504 49.763687
v -69.11055 18.346626 28.622856
v -75.698 30.505669 15.056503
v -60.48419 8.697205 40.412056
v -59.353058 4.064621 39.655563
v -58.50772 1.9416504 39.0888
v -73.354095 18.346626 14.5858
v -78.69273 30.505669 -0.0011978149
v -76.25757 18.346626 -0.0060043335
v -67.220535 8.697205 27.837547
v -65.96452 4.064621 27.316414
v -65.02312 1.9416504 26.924957
v -71.3488 8.697205 14.184746
v -74.17302 8.697205 -0.010810852
v -70.015945 4.064621 13.9157715
v -69.01689 1.9416504 13.716446
v -72.78493 4.064621 -0.013206482
v -71.74745 1.9416504 -0.013206482
vt 0.68906516 0.51262236
vt 0.68906516 0.8538561
vt 0.6574386 0.8538561
vt 0.6574386 0.51262236
vt 0.68906516 0.23630624
vt 0.6266443 0.8538561
vt 0.6574386 0.23630624
vt 0.68906516 0.087328576
vt 0.6266443 0.51262236
vt 0.5950178 0.8538561
vt 0.6574386 0.087328576
vt 0.68906516 0.0024362775
vt 0.6574386 0.0024362775
vt 0.5950178 0.51262236
vt 0.5642235 0.8538561
vt 0.6266443 0.23630624
vt 0.6266443 0.087328576
vt 0.6266443 0.0024362775
vt 0.5642235 0.51262236
vt 0.532597 0.8538561
vt 0.5950178 0.23630624
vt 0.5950178 0.087328576
vt 0.5950178 0.0024362775
vt 0.532597 0.51262236
vt 0.5018027 0.8538561
vt 0.5642235 0.23630624
vt 0.5642235 0.087328576
vt 0.5642235 0.0024362775
vt 0.5018027 0.51262236
vt 0.4701762 0.8538561
vt 0.532597 0.23630624
vt 0.532597 0.087328576
vt 0.532597 0.0024362775
vt 0.4701762 0.51262236
vt 0.43938193 0.8538561
vt 0.5018027 0.23630624
vt 0.5018027 0.087328576
vt 0.5018027 0.0024362775
vt 0.43938193 0.51262236
vt 0.40775537 0.8538561
vt 0.4701762 0.23630624
vt 0.4701762 0.087328576
vt 0.4701762 0.0024362775
vt 0.40775537 0.51262236
vt 0.37612882 0.8538561
vt 0.43938193 0.23630624
vt 0.43938193 0.087328576
vt 0.43938193 0.0024362775
vt 0.37612882 0.51262236
vt 0.34533456 0.8538561
vt 0.40775537 0.23630624
vt 0.40775537 0.087328576
vt 0.40775537 0.0024362775
vt 0.34533456 0.51262236
vt 0.31370804 0.8538561
vt 0.37612882 0.23630624
vt 0.37612882 0.087328576
vt 0.37612882 0.0024362775
vt 0.31370804 0.51262236
vt 0.28291377 0.8538561
vt 0.34533456 0.23630624
vt 0.34533456 0.087328576
vt 0.34533456 0.0024362775
vt 0.28291377 0.51262236
vt 0.25128722 0.8538561
vt 0.31370804 0.23630624
vt 0.31370804 0.087328576
vt 0.31370804 0.0024362775
vt 0.25128722 0.51262236
vt 0.22049296 0.8538561
vt 0.28291377 0.23630624
vt 0.28291377 0.087328576
vt 0.28291377 0.0024362775
vt 0.22049296 0.51262236
vt 0.18886642 0.8538561
vt 0.18886642 0.51262236
vt 0.25128722 0.23630624
vt 0.25128722 0.087328576
vt 0.25128722 0.0024362775
vt 0.22049296 0.23630624
vt 0.18886642 0.23630624
vt 0.22049296 0.087328576
vt 0.22049296 0.0024362775
vt 0.18886642 0.087328576
vt 0.18886642 0.0024362775
vn -0.9625567 0.20013058 -0.18284498
vn -0.9625567 0.19258189 -0.19077933
vn -0.95500803 0.19258189 -0.22554791
vn -0.9474592 0.20013058 -0.24953713
vn -0.95500803 0.2303257 -0.18684143
vn -0.9097153 0.19258189 -0.36787263
vn -0.9474592 0.2303257 -0.22197095
vn -0.9248129 0.32845974 -0.19192523
vn -0.9021666 0.20013058 -0.38215595
vn -0.81913006 0.19258189 -0.540313
vn -0.9172641 0.32845974 -0.22525708
vn -0.887069 0.4341426 -0.1569357
vn -0.8719715 0.4341426 -0.22624315
vn -0.81158125 0.20013058 -0.5488931
vn -0.6908009 0.19258189 -0.69692636
vn -0.9021666 0.2303257 -0.36475402
vn -0.8719715 0.32845974 -0.36301506
vn -0.83422756 0.4341426 -0.33997738
vn -0.6908009 0.20013058 -0.6947963
vn -0.54737425 0.19258189 -0.8144284
vn -0.81158125 0.2303257 -0.5369227
vn -0.78138626 0.32845974 -0.5306126
vn -0.75119114 0.4341426 -0.49722436
vn -0.54737425 0.20013058 -0.8126064
vn -0.37375247 0.19258189 -0.90731543
vn -0.6908009 0.2303257 -0.68537885
vn -0.6681546 0.32845974 -0.6675954
vn -0.6379595 0.4341426 -0.6360251
vn -0.37375247 0.20013058 -0.90568036
vn -0.19258189 0.19258189 -0.9621977
vn -0.53982544 0.2303257 -0.80965334
vn -0.52472794 0.32845974 -0.7853501
vn -0.5020815 0.4341426 -0.7479535
vn -0.19258189 0.20013058 -0.960656
vn 0.0036862493 0.19258189 -0.98127395
vn -0.37375247 0.2303257 -0.89847606
vn -0.35865486 0.32845974 -0.87377393
vn -0.34355736 0.4341426 -0.8327596
vn 0.0036862493 0.20013058 -0.9797623
vn 0.19240558 0.19258189 -0.96223295
vn -0.19258189 0.2303257 -0.953867
vn -0.18503308 0.32845974 -0.9262165
vn -0.17748427 0.4341426 -0.8831871
vn 0.19240558 0.20013058 -0.96069133
vn 0.37357616 0.19258189 -0.90738803
vn 0.0036862493 0.2303257 -0.9731066
vn 0.0036862493 0.32845974 -0.9445108
vn 0.0036862493 0.4341426 -0.90083665
vn 0.37357616 0.20013058 -0.9057531
vn 0.54719794 0.19258189 -0.8145469
vn 0.19240558 0.2303257 -0.9539026
vn 0.18485683 0.32845974 -0.92625165
vn 0.17730808 0.4341426 -0.8832225
vn 0.54719794 0.20013058 -0.8127251
vn 0.6906247 0.19258189 -0.69710094
vn 0.37357616 0.2303257 -0.8985493
vn 0.3584786 0.32845974 -0.8738463
vn 0.3433811 0.4341426 -0.83283234
vn 0.6906247 0.20013058 -0.6949714
vn 0.8189538 0.19258189 -0.5405801
vn 0.5396492 0.2303257 -0.8097708
vn 0.52455163 0.32845974 -0.78546786
vn 0.5019053 0.4341426 -0.7480717
vn 0.81140506 0.20013058 -0.5491535
vn 0.9095391 0.19258189 -0.36830807
vn 0.6906247 0.2303257 -0.6855564
vn 0.66797835 0.32845974 -0.66777176
vn 0.6377833 0.4341426 -0.6362018
vn 0.90199035 0.20013058 -0.38257176
vn 0.9548318 0.19258189 -0.22629297
vn 0.81140506 0.2303257 -0.5371889
vn 0.78120995 0.32845974 -0.5308721
vn 0.7510148 0.4341426 -0.49749067
vn 0.94728297 0.20013058 -0.2502054
vn 0.9623805 0.19258189 -0.19166613
vn 0.9623805 0.20013058 -0.18377008
vn 0.90199035 0.2303257 -0.36518967
vn 0.87179524 0.32845974 -0.3634381
vn 0.8340514 0.4341426 -0.34040934
vn 0.94728297 0.2303257 -0.22272195
vn 0.9548318 0.2303257 -0.18774016
vn 0.9170879 0.32845974 -0.2259733
vn 0.87179524 0.4341426 -0.22692132
vn 0.92463666 0.32845974 -0.19277258
vn 0.8868928 0.4341426 -0.15792842
g background_0
f 3/3/3 2/2/2 1/1/1
f 4/4/4 3/3/3 1/1/1
f 4/4/4 1/1/1 5/5/5
f 6/6/6 3/3/3 4/4/4
f 7/7/7 4/4/4 5/5/5
f 7/7/7 5/5/5 8/8/8
f 9/9/9 6/6/6 4/4/4
f 9/9/9 4/4/4 7/7/7
f 10/10/10 6/6/6 9/9/9
f 11/11/11 7/7/7 8/8/8
f 11/11/11 8/8/8 12/12/12
f 13/13/13 11/11/11 12/12/12
f 14/14/14 10/10/10 9/9/9
f 15/15/15 10/10/10 14/14/14
f 16/16/16 9/9/9 7/7/7
f 16/16/16 7/7/7 11/11/11
f 14/14/14 9/9/9 16/16/16
f 17/17/17 11/11/11 13/13/13
f 17/17/17 16/16/16 11/11/11
f 18/18/18 17/17/17 13/13/13
f 19/19/19 15/15/15 14/14/14
f 20/20/20 15/15/15 19/19/19
f 21/21/21 14/14/14 16/16/16
f 21/21/21 16/16/16 17/17/17
f 19/19/19 14/14/14 21/21/21
f 22/22/22 17/17/17 18/18/18
f 22/22/22 21/21/21 17/17/17
f 23/23/23 22/22/22 18/18/18
f 24/24/24 20/20/20 19/19/19
f 25/25/25 20/20/20 24/24/24
f 26/26/26 19/19/19 21/21/21
f 26/26/26 21/21/21 22/22/22
f 24/24/24 19/19/19 26/26/26
f 27/27/27 22/22/22 23/23/23
f 27/27/27 26/26/26 22/22/22
f 28/28/28 27/27/27 23/23/23
f 29/29/29 25/25/25 24/24/24
f 30/30/30 25/25/25 29/29/29
f 31/31/31 24/24/24 26/26/26
f 31/31/31 26/26/26 27/27/27
f 29/29/29 24/24/24 31/31/31
f 32/32/32 27/27/27 28/28/28
f 32/32/32 31/31/31 27/27/27
f 33/33/33 32/32/32 28/28/28
f 34/34/34 30/30/30 29/29/29
f 35/35/35 30/30/30 34/34/34
f 36/36/36 29/29/29 31/31/31
f 36/36/36 31/31/31 32/32/32
f 34/34/34 29/29/29 36/36/36
f 37/37/37 32/32/32 33/33/33
f 37/37/37 36/36/36 32/32/32
f 38/38/38 37/37/37 33/33/33
f 39/39/39 35/35/35 34/34/34
f 40/40/40 35/35/35 39/39/39
f 41/41/41 34/34/34 36/36/36
f 41/41/41 36/36/36 37/37/37
f 39/39/39 34/34/34 41/41/41
f 42/42/42 37/37/37 38/38/38
f 42/42/42 41/41/41 37/37/37
f 43/43/43 42/42/42 38/38/38
f 44/44/44 40/40/40 39/39/39
f 45/45/45 40/40/40 44/44/44
f 46/46/46 39/39/39 41/41/41
f 46/46/46 41/41/41 42/42/42
f 44/44/44 39/39/39 46/46/46
f 47/47/47 42/42/42 43/43/43
f 47/47/47 46/46/46 42/42/42
f 48/48/48 47/47/47 43/43/43
f 49/49/49 45/45/45 44/44/44
f 50/50/50 45/45/45 49/49/49
f 51/51/51 44/44/44 46/46/46
f 51/51/51 46/46/46 47/47/47
f 49/49/49 44/44/44 51/51/51
f 52/52/52 47/47/47 48/48/48
f 52/52/52 51/51/51 47/47/47
f 53/53/53 52/52/52 48/48/48
f 54/54/54 50/50/50 49/49/49
f 55/55/55 50/50/50 54/54/54
f 56/56/56 49/49/49 51/51/51
f 56/56/56 51/51/51 52/52/52
f 54/54/54 49/49/49 56/56/56
f 57/57/57 52/52/52 53/53/53
f 57/57/57 56/56/56 52/52/52
f 58/58/58 57/57/57 53/53/53
f 59/59/59 55/55/55 54/54/54
f 60/60/60 55/55/55 59/59/59
f 61/61/61 54/54/54 56/56/56
f 61/61/61 56/56/56 57/57/57
f 59/59/59 54/54/54 61/61/61
f 62/62/62 57/57/57 58/58/58
f 62/62/62 61/61/61 57/57/57
f 63/63/63 62/62/62 58/58/58
f 64/64/64 60/60/60 59/59/59
f 65/65/65 60/60/60 64/64/64
f 66/66/66 59/59/59 61/61/61
f 66/66/66 61/61/61 62/62/62
f 64/64/64 59/59/59 66/66/66
f 67/67/67 62/62/62 63/63/63
f 67/67/67 66/66/66 62/62/62
f 68/68/68 67/67/67 63/63/63
f 69/69/69 65/65/65 64/64/64
f 70/70/70 65/65/65 69/69/69
f 71/71/71 64/64/64 66/66/66
f 71/71/71 66/66/66 67/67/67
f 69/69/69 64/64/64 71/71/71
f 72/72/72 67/67/67 68/68/68
f 72/72/72 71/71/71 67/67/67
f 73/73/73 72/72/72 68/68/68
f 74/74/74 70/70/70 69/69/69
f 75/75/75 70/70/70 74/74/74
f 76/76/76 75/75/75 74/74/74
f 77/77/77 69/69/69 71/71/71
f 77/77/77 71/71/71 72/72/72
f 74/74/74 69/69/69 77/77/77
f 78/78/78 72/72/72 73/73/73
f 78/78/78 77/77/77 72/72/72
f 79/79/79 78/78/78 73/73/73
f 76/76/76 74/74/74 80/80/80
f 80/80/80 74/74/74 77/77/77
f 80/80/80 77/77/77 78/78/78
f 81/81/81 76/76/76 80/80/80
f 82/82/82 78/78/78 79/79/79
f 82/82/82 80/80/80 78/78/78
f 81/81/81 80/80/80 82/82/82
f 83/83/83 82/82/82 79/79/79
f 84/84/84 81/81/81 82/82/82
f 84/84/84 82/82/82 83/83/83
f 85/85/85 84/84/84 83/83/83
