g beam_half
v 0.093969256 0.034202013 0
v 0.099999994 0 0
v 0.099999994 0 0.018749999
v 0.093969256 0.034202013 0.018749999
v 0.07660444 0.06427877 0
v 0.093969256 0.034202013 0.037499998
v 0.099999994 0 0.037499998
v 0.099999994 0 0.05625
v 0.07660444 0.06427877 0.018749999
v 0.049999993 0.086602546 0
v 0.07660444 0.06427877 0.037499998
v 0.093969256 0.034202013 0.05625
v 0.049999993 0.086602546 0.018749999
v 0.017364811 0.098480776 0
v 0.049999993 0.086602546 0.037499998
v 0.017364811 0.098480776 0.018749999
v -0.01736483 0.098480776 0
v 0.093969256 0.034202013 0.074999996
v 0.099999994 0 0.074999996
v 0.099999994 0 0.09375
v 0.07660444 0.06427877 0.05625
v 0.017364811 0.098480776 0.037499998
v -0.01736483 0.098480776 0.018749999
v -0.050000004 0.08660253 0
v 0.07660444 0.06427877 0.074999996
v 0.093969256 0.034202013 0.09375
v 0.049999993 0.086602546 0.05625
v -0.01736483 0.098480776 0.037499998
v -0.050000004 0.08660253 0.018749999
v -0.07660444 0.06427877 0
v 0.049999993 0.086602546 0.074999996
v 0.017364811 0.098480776 0.05625
v -0.050000004 0.08660253 0.037499998
v -0.07660444 0.06427877 0.018749999
v -0.093969256 0.03420202 0
v 0.07660444 0.06427877 0.09375
v 0.017364811 0.098480776 0.074999996
v -0.01736483 0.098480776 0.05625
v -0.07660444 0.06427877 0.037499998
v -0.093969256 0.03420202 0.018749999
v -0.099999994 1.509958E-08 0
v -0.099999994 1.509958E-08 0.018749999
v -0.099999994 1.509958E-08 0.037499998
v -0.093969256 0.03420202 0.037499998
v -0.050000004 0.08660253 0.05625
v -0.01736483 0.098480776 0.074999996
v -0.093969256 0.03420202 0.05625
v -0.099999994 1.509958E-08 0.05625
v -0.099999994 1.509958E-08 0.074999996
v -0.07660444 0.06427877 0.05625
v -0.050000004 0.08660253 0.074999996
v -0.093969256 0.03420202 0.074999996
v -0.07660444 0.06427877 0.074999996
v -0.093969256 0.03420202 0.09375
v -0.099999994 1.509958E-08 0.09375
v -0.099999994 1.509958E-08 0.1125
v -0.07660444 0.06427877 0.09375
v -0.050000004 0.08660253 0.09375
v -0.01736483 0.098480776 0.09375
v -0.093969256 0.03420202 0.1125
v -0.07660444 0.06427877 0.1125
v -0.093969256 0.03420202 0.13125
v -0.099999994 1.509958E-08 0.13125
v -0.099999994 1.509958E-08 0.14999999
v -0.07660444 0.06427877 0.13125
v -0.050000004 0.08660253 0.1125
v 0.017364811 0.098480776 0.09375
v -0.093969256 0.03420202 0.14999999
v -0.050000004 0.08660253 0.13125
v -0.01736483 0.098480776 0.1125
v 0.049999993 0.086602546 0.09375
v 0.017364811 0.098480776 0.1125
v -0.01736483 0.098480776 0.13125
v -0.07660444 0.06427877 0.14999999
v 0.049999993 0.086602546 0.1125
v 0.017364811 0.098480776 0.13125
v -0.050000004 0.08660253 0.14999999
v 0.07660444 0.06427877 0.1125
v 0.049999993 0.086602546 0.13125
v -0.01736483 0.098480776 0.14999999
v 0.07660444 0.06427877 0.13125
v 0.093969256 0.034202013 0.1125
v 0.099999994 0 0.1125
v 0.099999994 0 0.13125
v 0.093969256 0.034202013 0.13125
v 0.017364811 0.098480776 0.14999999
v 0.093969256 0.034202013 0.14999999
v 0.099999994 0 0.14999999
v 0.099999994 0 0.16875
v 0.07660444 0.06427877 0.14999999
v 0.049999993 0.086602546 0.14999999
v 0.093969256 0.034202013 0.16875
v 0.07660444 0.06427877 0.16875
v 0.049999993 0.086602546 0.16875
v 0.017364811 0.098480776 0.16875
v 0.093969256 0.034202013 0.1875
v 0.099999994 0 0.1875
v 0.099999994 0 0.20625
v 0.07660444 0.06427877 0.1875
v 0.049999993 0.086602546 0.1875
v 0.093969256 0.034202013 0.20625
v -0.01736483 0.098480776 0.16875
v 0.017364811 0.098480776 0.1875
v 0.07660444 0.06427877 0.20625
v 0.093969256 0.034202013 0.225
v 0.099999994 0 0.225
v 0.099999994 0 0.24374999
v 0.07660444 0.06427877 0.225
v 0.049999993 0.086602546 0.20625
v -0.01736483 0.098480776 0.1875
v 0.093969256 0.034202013 0.24374999
v 0.049999993 0.086602546 0.225
v 0.017364811 0.098480776 0.20625
v 0.093969256 0.034202013 0.2625
v 0.099999994 0 0.2625
v 0.099999994 0 0.28125
v 0.07660444 0.06427877 0.24374999
v 0.017364811 0.098480776 0.225
v 0.07660444 0.06427877 0.2625
v 0.093969256 0.034202013 0.28125
v 0.049999993 0.086602546 0.24374999
v 0.093969256 0.034202013 0.29999998
v 0.099999994 0 0.29999998
v 0.07660444 0.06427877 0.29999998
v 0.07660444 0.06427877 0.28125
v 0.049999993 0.086602546 0.29999998
v 0.049999993 0.086602546 0.2625
v 0.049999993 0.086602546 0.28125
v 0.017364811 0.098480776 0.29999998
v 0.017364811 0.098480776 0.2625
v 0.017364811 0.098480776 0.28125
v -0.01736483 0.098480776 0.29999998
v 0.017364811 0.098480776 0.24374999
v -0.01736483 0.098480776 0.28125
v -0.050000004 0.08660253 0.29999998
v -0.01736483 0.098480776 0.2625
v -0.01736483 0.098480776 0.225
v -0.050000004 0.08660253 0.28125
v -0.07660444 0.06427877 0.29999998
v -0.050000004 0.08660253 0.2625
v -0.01736483 0.098480776 0.24374999
v -0.01736483 0.098480776 0.20625
v -0.07660444 0.06427877 0.28125
v -0.093969256 0.03420202 0.29999998
v -0.07660444 0.06427877 0.2625
v -0.050000004 0.08660253 0.225
v -0.050000004 0.08660253 0.24374999
v -0.050000004 0.08660253 0.1875
v -0.093969256 0.03420202 0.28125
v -0.099999994 1.509958E-08 0.29999998
v -0.099999994 1.509958E-08 0.28125
v -0.099999994 1.509958E-08 0.2625
v -0.093969256 0.03420202 0.2625
v -0.050000004 0.08660253 0.20625
v -0.07660444 0.06427877 0.225
v -0.07660444 0.06427877 0.24374999
v -0.093969256 0.03420202 0.24374999
v -0.099999994 1.509958E-08 0.24374999
v -0.099999994 1.509958E-08 0.225
v -0.093969256 0.03420202 0.225
v -0.07660444 0.06427877 0.20625
v -0.093969256 0.03420202 0.20625
v -0.099999994 1.509958E-08 0.20625
v -0.099999994 1.509958E-08 0.1875
v -0.07660444 0.06427877 0.1875
v -0.093969256 0.03420202 0.1875
v -0.050000004 0.08660253 0.16875
v -0.07660444 0.06427877 0.16875
v -0.093969256 0.03420202 0.16875
v -0.099999994 1.509958E-08 0.16875
vt 0.113711014 -1.4342368E-07
vt -3.5931356E-05 2.607517E-05
vt -2.0193867E-05 0.067346364
vt 0.11372161 0.06732273
vt 0.2240764 -1.658313E-05
vt 0.11373104 0.12911941
vt -6.106682E-06 0.12914023
vt 6.164424E-06 0.19093138
vt 0.22408253 0.06730791
vt 0.33444363 -2.4715438E-05
vt 0.22408788 0.12910669
vt 0.1137391 0.19091381
vt 0.33444595 0.06730072
vt 0.44481146 -2.607517E-05
vt 0.33444792 0.1291008
vt 0.4448108 0.06729978
vt 0.55517936 -2.2361055E-05
vt 0.113745674 0.25270614
vt 1.6390346E-05 0.2527203
vt 2.4513341E-05 0.3145072
vt 0.22409227 0.19090343
vt 0.44481 0.12910067
vt 0.5551765 0.067303635
vt 0.6655469 -1.511164E-05
vt 0.2240956 0.2526984
vt 0.11375059 0.31449667
vt 0.33444923 0.19089916
vt 0.5551734 0.12910505
vt 0.6655425 0.06731107
vt 0.7759149 -5.1576644E-06
vt 0.3344497 0.2526961
vt 0.44480875 0.19090024
vt 0.6655377 0.12911287
vt 0.77590907 0.067321256
vt 0.88628304 7.0985407E-06
vt 0.22409761 0.31449172
vt 0.4448069 0.25269857
vt 0.5551702 0.19090545
vt 0.7759032 0.12912348
vt 0.88627636 0.0673336
vt 1.0000839 2.0774081E-05
vt 1.0000768 0.067347385
vt 1.0000694 0.12915036
vt 0.88626933 0.12913619
vt 0.6655327 0.19091395
vt 0.55516636 0.2527048
vt 0.8862623 0.19093837
vt 1.0000615 0.19095315
vt 1.0000534 0.25275564
vt 0.77589715 0.19092508
vt 0.6655276 0.25271416
vt 0.8862548 0.25274011
vt 0.77589035 0.25272614
vt 0.88624704 0.3145414
vt 1.0000448 0.31455785
vt 1.0000358 0.37635973
vt 0.77588356 0.31452656
vt 0.66552186 0.31451362
vt 0.5551621 0.3145033
vt 0.8862388 0.37634227
vt 0.77587616 0.3763264
vt 0.8862299 0.43814263
vt 1.000026 0.43816128
vt 1.0000157 0.49996218
vt 0.7758683 0.4381257
vt 0.66551566 0.37631252
vt 0.4448043 0.31449574
vt 0.8862202 0.4999425
vt 0.66550875 0.43811068
vt 0.5551572 0.37630102
vt 0.33444926 0.3144916
vt 0.44480097 0.3762919
vt 0.55515146 0.4380979
vt 0.7758597 0.4999244
vt 0.3344477 0.37628585
vt 0.44479665 0.43808702
vt 0.66550124 0.49990812
vt 0.22409827 0.37628362
vt 0.33444503 0.43807903
vt 0.555145 0.49989375
vt 0.22409754 0.43807426
vt 0.11375381 0.37628558
vt 3.0535273E-05 0.37629244
vt 3.4340657E-05 0.4380761
vt 0.113755256 0.43807316
vt 0.44479135 0.49988124
vt 0.11375485 0.49985942
vt 3.5931356E-05 0.49985847
vt 3.525149E-05 0.5616398
vt 0.22409526 0.4998637
vt 0.33444116 0.49987122
vt 0.113752514 0.5616448
vt 0.22409146 0.5616523
vt 0.3344359 0.56166255
vt 0.44478488 0.5616747
vt 0.11374821 0.6234294
vt 3.218185E-05 0.6234205
vt 2.6785769E-05 0.6852002
vt 0.22408606 0.6234405
vt 0.33442953 0.6234536
vt 0.11374198 0.68521357
vt 0.5551374 0.561689
vt 0.44477746 0.6234679
vt 0.22407901 0.685228
vt 0.11373374 0.74699724
vt 1.9001774E-05 0.7469797
vt 8.833595E-06 0.8087591
vt 0.22407037 0.74701524
vt 0.33442175 0.68524384
vt 0.55512905 0.6234839
vt 0.11372352 0.8087809
vt 0.33441272 0.74703395
vt 0.44476902 0.68526053
vt 0.11371125 0.8705646
vt -3.776513E-06 0.8705385
vt -1.866091E-05 0.93231845
vt 0.22406009 0.80880237
vt 0.44475964 0.747053
vt 0.22404829 0.8705896
vt 0.11369702 0.9323486
vt 0.33440238 0.80882406
vt 0.113680765 0.9999084
vt -3.5931356E-05 0.99987406
vt 0.22401942 0.99994045
vt 0.22403467 0.9323771
vt 0.3343638 0.99997014
vt 0.3343908 0.87061393
vt 0.33437786 0.93240416
vt 0.44471163 0.99999684
vt 0.4447375 0.8706373
vt 0.44472495 0.9324293
vt 0.55506134 1.0000224
vt 0.44474903 0.80884516
vt 0.5550748 0.9324535
vt 0.665414 1.0000491
vt 0.55508745 0.87065995
vt 0.55511 0.74707234
vt 0.6654272 0.93247855
vt 0.77576923 1.0000753
vt 0.66543996 0.87068355
vt 0.555099 0.80886626
vt 0.5551199 0.6852782
vt 0.77578235 0.93250346
vt 0.8861257 1.0001004
vt 0.775795 0.87070715
vt 0.6654631 0.7470927
vt 0.6654519 0.8088883
vt 0.6654835 0.6235013
vt 0.8861389 0.9325284
vt 0.999916 1.0001259
vt 0.99992925 0.9325532
vt 0.9999425 0.87075603
vt 0.8861519 0.87073123
vt 0.6654737 0.685297
vt 0.77581894 0.7471143
vt 0.77580714 0.80891085
vt 0.88616455 0.8089342
vt 0.9999556 0.8089582
vt 0.99996823 0.7471602
vt 0.8861766 0.7471367
vt 0.77583027 0.6853175
vt 0.8861885 0.6853392
vt 0.999981 0.68536174
vt 0.99999326 0.62356246
vt 0.77584064 0.6235204
vt 0.8861997 0.6235409
vt 0.66549265 0.561705
vt 0.77585053 0.56172264
vt 0.8862103 0.56174195
vt 1.0000048 0.5617627
vn 0.9396926 0.3420201 0
vn 1 0 0
vn 1 -1.0114352E-07 0
vn 0.9396926 0.3420201 0
vn 0.7660445 0.6427876 0
vn 0.9396926 0.3420201 0
vn 1 -1.0114352E-07 0
vn 1 -1.0114352E-07 0
vn 0.7660445 0.6427876 0
vn 0.49999997 0.86602545 0
vn 0.7660445 0.6427876 0
vn 0.9396926 0.3420201 0
vn 0.49999997 0.86602545 0
vn 0.17364813 0.9848077 0
vn 0.49999997 0.86602545 0
vn 0.17364813 0.9848077 0
vn -0.17364831 0.9848077 0
vn 0.9396926 0.3420201 0
vn 1 -1.0114352E-07 0
vn 1 -1.0114352E-07 0
vn 0.7660445 0.6427876 0
vn 0.17364813 0.9848077 0
vn -0.17364831 0.9848077 0
vn -0.5000001 0.8660253 0
vn 0.7660445 0.6427876 0
vn 0.9396926 0.3420201 0
vn 0.49999997 0.86602545 0
vn -0.17364831 0.9848077 0
vn -0.5000001 0.8660253 0
vn -0.7660445 0.6427876 0
vn 0.49999997 0.86602545 0
vn 0.17364813 0.9848077 0
vn -0.5000001 0.8660253 0
vn -0.76604444 0.64278764 0
vn -0.93969256 0.34202024 0
vn 0.7660445 0.6427876 0
vn 0.17364813 0.9848077 0
vn -0.17364831 0.9848077 0
vn -0.76604444 0.64278764 0
vn -0.93969256 0.34202024 0
vn -1 1.6375617E-07 0
vn -1 1.589398E-07 0
vn -1 1.589398E-07 0
vn -0.93969256 0.34202024 0
vn -0.5000001 0.8660253 0
vn -0.17364831 0.9848077 0
vn -0.93969256 0.34202024 0
vn -1 1.589398E-07 0
vn -1 1.589398E-07 0
vn -0.76604444 0.64278764 0
vn -0.5000001 0.8660253 0
vn -0.93969256 0.34202024 0
vn -0.76604444 0.64278764 0
vn -0.93969256 0.34202024 0
vn -1 1.589398E-07 0
vn -1 1.589398E-07 0
vn -0.76604444 0.64278764 0
vn -0.5000001 0.8660253 0
vn -0.17364831 0.9848077 0
vn -0.93969256 0.34202024 0
vn -0.76604444 0.64278764 0
vn -0.93969256 0.34202024 0
vn -1 1.589398E-07 0
vn -1 1.589398E-07 0
vn -0.76604444 0.64278764 0
vn -0.5000001 0.8660253 0
vn 0.17364813 0.9848077 0
vn -0.93969256 0.34202024 0
vn -0.5000001 0.8660253 0
vn -0.17364831 0.9848077 0
vn 0.49999997 0.86602545 0
vn 0.17364813 0.9848077 0
vn -0.17364831 0.9848077 0
vn -0.76604444 0.64278764 0
vn 0.49999997 0.86602545 0
vn 0.17364813 0.9848077 0
vn -0.5000001 0.8660253 0
vn 0.7660445 0.6427876 0
vn 0.49999997 0.86602545 0
vn -0.17364831 0.9848077 0
vn 0.7660445 0.6427876 0
vn 0.9396926 0.3420201 0
vn 1 -1.0114352E-07 0
vn 1 -1.0114352E-07 0
vn 0.9396926 0.3420201 0
vn 0.17364813 0.9848077 0
vn 0.9396926 0.3420201 0
vn 1 -1.0114352E-07 0
vn 1 -1.0114352E-07 0
vn 0.7660445 0.6427876 0
vn 0.49999997 0.86602545 0
vn 0.9396926 0.3420201 0
vn 0.7660445 0.6427876 0
vn 0.49999997 0.86602545 0
vn 0.17364813 0.9848077 0
vn 0.9396926 0.3420201 0
vn 1 -1.0114352E-07 0
vn 1 -1.0114352E-07 0
vn 0.7660445 0.6427876 0
vn 0.49999997 0.86602545 0
vn 0.9396926 0.3420201 0
vn -0.17364831 0.9848077 0
vn 0.17364813 0.9848077 0
vn 0.7660445 0.6427876 0
vn 0.9396926 0.3420201 0
vn 1 -1.0114352E-07 0
vn 1 -1.0114352E-07 0
vn 0.7660445 0.6427876 0
vn 0.49999997 0.86602545 0
vn -0.17364831 0.9848077 0
vn 0.9396926 0.3420201 0
vn 0.49999997 0.86602545 0
vn 0.17364813 0.9848077 0
vn 0.9396926 0.3420201 0
vn 1 -1.0114352E-07 0
vn 1 -1.0114352E-07 0
vn 0.7660445 0.6427876 0
vn 0.17364813 0.9848077 0
vn 0.7660445 0.6427876 0
vn 0.9396926 0.3420201 0
vn 0.49999997 0.86602545 0
vn 0.93969256 0.34202015 0
vn 1 -1.0595988E-07 0
vn 0.7660445 0.6427876 0
vn 0.7660445 0.6427876 0
vn 0.49999997 0.86602545 0
vn 0.49999997 0.86602545 0
vn 0.49999997 0.86602545 0
vn 0.17364813 0.9848077 0
vn 0.17364813 0.9848077 0
vn 0.17364813 0.9848077 0
vn -0.17364831 0.9848077 0
vn 0.17364813 0.9848077 0
vn -0.17364831 0.9848077 0
vn -0.5000001 0.8660253 0
vn -0.17364831 0.9848077 0
vn -0.17364831 0.9848077 0
vn -0.5000001 0.8660253 0
vn -0.7660445 0.6427876 0
vn -0.5000001 0.8660253 0
vn -0.17364831 0.9848077 0
vn -0.17364831 0.9848077 0
vn -0.76604444 0.64278764 0
vn -0.93969256 0.34202024 0
vn -0.76604444 0.64278764 0
vn -0.5000001 0.8660253 0
vn -0.5000001 0.8660253 0
vn -0.5000001 0.8660253 0
vn -0.93969256 0.34202024 0
vn -1 1.5412347E-07 0
vn -1 1.589398E-07 0
vn -1 1.589398E-07 0
vn -0.93969256 0.34202024 0
vn -0.5000001 0.8660253 0
vn -0.76604444 0.64278764 0
vn -0.76604444 0.64278764 0
vn -0.93969256 0.34202024 0
vn -1 1.589398E-07 0
vn -1 1.589398E-07 0
vn -0.93969256 0.34202024 0
vn -0.76604444 0.64278764 0
vn -0.93969256 0.34202024 0
vn -1 1.589398E-07 0
vn -1 1.589398E-07 0
vn -0.76604444 0.64278764 0
vn -0.93969256 0.34202024 0
vn -0.5000001 0.8660253 0
vn -0.76604444 0.64278764 0
vn -0.93969256 0.34202024 0
vn -1 1.589398E-07 0
g beam_half_0
f 3/3/3 2/2/2 1/1/1
f 4/4/4 3/3/3 1/1/1
f 4/4/4 1/1/1 5/5/5
f 3/3/3 4/4/4 6/6/6
f 7/7/7 3/3/3 6/6/6
f 8/8/8 7/7/7 6/6/6
f 9/9/9 4/4/4 5/5/5
f 9/9/9 5/5/5 10/10/10
f 6/6/6 4/4/4 11/11/11
f 4/4/4 9/9/9 11/11/11
f 12/12/12 8/8/8 6/6/6
f 12/12/12 6/6/6 11/11/11
f 13/13/13 9/9/9 10/10/10
f 13/13/13 10/10/10 14/14/14
f 11/11/11 9/9/9 15/15/15
f 9/9/9 13/13/13 15/15/15
f 16/16/16 13/13/13 14/14/14
f 16/16/16 14/14/14 17/17/17
f 8/8/8 12/12/12 18/18/18
f 19/19/19 8/8/8 18/18/18
f 20/20/20 19/19/19 18/18/18
f 21/21/21 12/12/12 11/11/11
f 21/21/21 11/11/11 15/15/15
f 15/15/15 13/13/13 22/22/22
f 13/13/13 16/16/16 22/22/22
f 23/23/23 16/16/16 17/17/17
f 23/23/23 17/17/17 24/24/24
f 18/18/18 12/12/12 25/25/25
f 12/12/12 21/21/21 25/25/25
f 26/26/26 20/20/20 18/18/18
f 26/26/26 18/18/18 25/25/25
f 27/27/27 21/21/21 15/15/15
f 27/27/27 15/15/15 22/22/22
f 22/22/22 16/16/16 28/28/28
f 16/16/16 23/23/23 28/28/28
f 29/29/29 23/23/23 24/24/24
f 29/29/29 24/24/24 30/30/30
f 25/25/25 21/21/21 31/31/31
f 21/21/21 27/27/27 31/31/31
f 32/32/32 27/27/27 22/22/22
f 32/32/32 22/22/22 28/28/28
f 28/28/28 23/23/23 33/33/33
f 23/23/23 29/29/29 33/33/33
f 34/34/34 29/29/29 30/30/30
f 34/34/34 30/30/30 35/35/35
f 36/36/36 25/25/25 31/31/31
f 36/36/36 26/26/26 25/25/25
f 31/31/31 27/27/27 37/37/37
f 27/27/27 32/32/32 37/37/37
f 38/38/38 32/32/32 28/28/28
f 38/38/38 28/28/28 33/33/33
f 33/33/33 29/29/29 39/39/39
f 29/29/29 34/34/34 39/39/39
f 40/40/40 34/34/34 35/35/35
f 40/40/40 35/35/35 41/41/41
f 42/42/42 40/40/40 41/41/41
f 40/40/40 42/42/42 43/43/43
f 34/34/34 40/40/40 44/44/44
f 44/44/44 40/40/40 43/43/43
f 39/39/39 34/34/34 44/44/44
f 45/45/45 33/33/33 39/39/39
f 45/45/45 38/38/38 33/33/33
f 32/32/32 38/38/38 46/46/46
f 37/37/37 32/32/32 46/46/46
f 47/47/47 44/44/44 43/43/43
f 48/48/48 47/47/47 43/43/43
f 47/47/47 48/48/48 49/49/49
f 50/50/50 39/39/39 44/44/44
f 47/47/47 50/50/50 44/44/44
f 50/50/50 45/45/45 39/39/39
f 38/38/38 45/45/45 51/51/51
f 46/46/46 38/38/38 51/51/51
f 52/52/52 47/47/47 49/49/49
f 50/50/50 47/47/47 52/52/52
f 45/45/45 50/50/50 53/53/53
f 51/51/51 45/45/45 53/53/53
f 53/53/53 50/50/50 52/52/52
f 54/54/54 52/52/52 49/49/49
f 55/55/55 54/54/54 49/49/49
f 54/54/54 55/55/55 56/56/56
f 57/57/57 53/53/53 52/52/52
f 54/54/54 57/57/57 52/52/52
f 58/58/58 51/51/51 53/53/53
f 57/57/57 58/58/58 53/53/53
f 59/59/59 46/46/46 51/51/51
f 58/58/58 59/59/59 51/51/51
f 60/60/60 54/54/54 56/56/56
f 57/57/57 54/54/54 60/60/60
f 58/58/58 57/57/57 61/61/61
f 61/61/61 57/57/57 60/60/60
f 62/62/62 60/60/60 56/56/56
f 63/63/63 62/62/62 56/56/56
f 62/62/62 63/63/63 64/64/64
f 62/62/62 65/65/65 60/60/60
f 65/65/65 61/61/61 60/60/60
f 66/66/66 58/58/58 61/61/61
f 59/59/59 58/58/58 66/66/66
f 59/59/59 67/67/67 46/46/46
f 67/67/67 37/37/37 46/46/46
f 68/68/68 62/62/62 64/64/64
f 65/65/65 62/62/62 68/68/68
f 65/65/65 69/69/69 61/61/61
f 69/69/69 66/66/66 61/61/61
f 70/70/70 59/59/59 66/66/66
f 67/67/67 59/59/59 70/70/70
f 67/67/67 71/71/71 37/37/37
f 71/71/71 31/31/31 37/37/37
f 71/71/71 36/36/36 31/31/31
f 71/71/71 67/67/67 72/72/72
f 72/72/72 67/67/67 70/70/70
f 73/73/73 70/70/70 66/66/66
f 69/69/69 73/73/73 66/66/66
f 69/69/69 65/65/65 74/74/74
f 74/74/74 65/65/65 68/68/68
f 36/36/36 71/71/71 75/75/75
f 75/75/75 71/71/71 72/72/72
f 76/76/76 72/72/72 70/70/70
f 73/73/73 76/76/76 70/70/70
f 73/73/73 69/69/69 77/77/77
f 77/77/77 69/69/69 74/74/74
f 78/78/78 36/36/36 75/75/75
f 26/26/26 36/36/36 78/78/78
f 79/79/79 75/75/75 72/72/72
f 76/76/76 79/79/79 72/72/72
f 76/76/76 73/73/73 80/80/80
f 80/80/80 73/73/73 77/77/77
f 81/81/81 78/78/78 75/75/75
f 79/79/79 81/81/81 75/75/75
f 82/82/82 26/26/26 78/78/78
f 20/20/20 26/26/26 82/82/82
f 83/83/83 20/20/20 82/82/82
f 84/84/84 83/83/83 82/82/82
f 85/85/85 82/82/82 78/78/78
f 85/85/85 84/84/84 82/82/82
f 81/81/81 85/85/85 78/78/78
f 79/79/79 76/76/76 86/86/86
f 86/86/86 76/76/76 80/80/80
f 84/84/84 85/85/85 87/87/87
f 88/88/88 84/84/84 87/87/87
f 89/89/89 88/88/88 87/87/87
f 85/85/85 81/81/81 90/90/90
f 87/87/87 85/85/85 90/90/90
f 81/81/81 79/79/79 91/91/91
f 91/91/91 79/79/79 86/86/86
f 90/90/90 81/81/81 91/91/91
f 92/92/92 89/89/89 87/87/87
f 92/92/92 87/87/87 90/90/90
f 93/93/93 90/90/90 91/91/91
f 93/93/93 92/92/92 90/90/90
f 94/94/94 91/91/91 86/86/86
f 94/94/94 93/93/93 91/91/91
f 95/95/95 86/86/86 80/80/80
f 95/95/95 94/94/94 86/86/86
f 89/89/89 92/92/92 96/96/96
f 97/97/97 89/89/89 96/96/96
f 98/98/98 97/97/97 96/96/96
f 92/92/92 93/93/93 99/99/99
f 96/96/96 92/92/92 99/99/99
f 93/93/93 94/94/94 100/100/100
f 99/99/99 93/93/93 100/100/100
f 101/101/101 98/98/98 96/96/96
f 101/101/101 96/96/96 99/99/99
f 102/102/102 95/95/95 80/80/80
f 102/102/102 80/80/80 77/77/77
f 94/94/94 95/95/95 103/103/103
f 100/100/100 94/94/94 103/103/103
f 104/104/104 99/99/99 100/100/100
f 104/104/104 101/101/101 99/99/99
f 98/98/98 101/101/101 105/105/105
f 106/106/106 98/98/98 105/105/105
f 107/107/107 106/106/106 105/105/105
f 105/105/105 101/101/101 108/108/108
f 101/101/101 104/104/104 108/108/108
f 109/109/109 104/104/104 100/100/100
f 109/109/109 100/100/100 103/103/103
f 103/103/103 95/95/95 110/110/110
f 95/95/95 102/102/102 110/110/110
f 111/111/111 107/107/107 105/105/105
f 111/111/111 105/105/105 108/108/108
f 108/108/108 104/104/104 112/112/112
f 104/104/104 109/109/109 112/112/112
f 113/113/113 109/109/109 103/103/103
f 113/113/113 103/103/103 110/110/110
f 107/107/107 111/111/111 114/114/114
f 115/115/115 107/107/107 114/114/114
f 116/116/116 115/115/115 114/114/114
f 117/117/117 111/111/111 108/108/108
f 117/117/117 108/108/108 112/112/112
f 112/112/112 109/109/109 118/118/118
f 109/109/109 113/113/113 118/118/118
f 114/114/114 111/111/111 119/119/119
f 111/111/111 117/117/117 119/119/119
f 120/120/120 116/116/116 114/114/114
f 120/120/120 114/114/114 119/119/119
f 121/121/121 117/117/117 112/112/112
f 121/121/121 112/112/112 118/118/118
f 116/116/116 120/120/120 122/122/122
f 123/123/123 116/116/116 122/122/122
f 122/122/122 120/120/120 124/124/124
f 120/120/120 125/125/125 124/124/124
f 125/125/125 120/120/120 119/119/119
f 124/124/124 125/125/125 126/126/126
f 119/119/119 117/117/117 127/127/127
f 125/125/125 119/119/119 127/127/127
f 117/117/117 121/121/121 127/127/127
f 125/125/125 128/128/128 126/126/126
f 128/128/128 125/125/125 127/127/127
f 126/126/126 128/128/128 129/129/129
f 127/127/127 121/121/121 130/130/130
f 128/128/128 127/127/127 130/130/130
f 128/128/128 131/131/131 129/129/129
f 131/131/131 128/128/128 130/130/130
f 129/129/129 131/131/131 132/132/132
f 121/121/121 133/133/133 130/130/130
f 133/133/133 121/121/121 118/118/118
f 131/131/131 134/134/134 132/132/132
f 132/132/132 134/134/134 135/135/135
f 131/131/131 130/130/130 136/136/136
f 130/130/130 133/133/133 136/136/136
f 134/134/134 131/131/131 136/136/136
f 133/133/133 118/118/118 137/137/137
f 118/118/118 113/113/113 137/137/137
f 134/134/134 138/138/138 135/135/135
f 135/135/135 138/138/138 139/139/139
f 134/134/134 136/136/136 140/140/140
f 138/138/138 134/134/134 140/140/140
f 133/133/133 141/141/141 136/136/136
f 141/141/141 133/133/133 137/137/137
f 136/136/136 141/141/141 140/140/140
f 113/113/113 142/142/142 137/137/137
f 142/142/142 113/113/113 110/110/110
f 138/138/138 143/143/143 139/139/139
f 139/139/139 143/143/143 144/144/144
f 138/138/138 140/140/140 145/145/145
f 143/143/143 138/138/138 145/145/145
f 141/141/141 137/137/137 146/146/146
f 137/137/137 142/142/142 146/146/146
f 141/141/141 147/147/147 140/140/140
f 140/140/140 147/147/147 145/145/145
f 147/147/147 141/141/141 146/146/146
f 142/142/142 110/110/110 148/148/148
f 110/110/110 102/102/102 148/148/148
f 143/143/143 149/149/149 144/144/144
f 144/144/144 149/149/149 150/150/150
f 149/149/149 151/151/151 150/150/150
f 151/151/151 149/149/149 152/152/152
f 149/149/149 143/143/143 153/153/153
f 143/143/143 145/145/145 153/153/153
f 149/149/149 153/153/153 152/152/152
f 142/142/142 154/154/154 146/146/146
f 154/154/154 142/142/142 148/148/148
f 147/147/147 146/146/146 155/155/155
f 146/146/146 154/154/154 155/155/155
f 147/147/147 156/156/156 145/145/145
f 145/145/145 156/156/156 153/153/153
f 156/156/156 147/147/147 155/155/155
f 153/153/153 157/157/157 152/152/152
f 156/156/156 157/157/157 153/153/153
f 157/157/157 158/158/158 152/152/152
f 158/158/158 157/157/157 159/159/159
f 157/157/157 156/156/156 160/160/160
f 156/156/156 155/155/155 160/160/160
f 157/157/157 160/160/160 159/159/159
f 154/154/154 161/161/161 155/155/155
f 155/155/155 161/161/161 160/160/160
f 160/160/160 162/162/162 159/159/159
f 161/161/161 162/162/162 160/160/160
f 162/162/162 163/163/163 159/159/159
f 163/163/163 162/162/162 164/164/164
f 161/161/161 154/154/154 165/165/165
f 154/154/154 148/148/148 165/165/165
f 162/162/162 161/161/161 166/166/166
f 162/162/162 166/166/166 164/164/164
f 161/161/161 165/165/165 166/166/166
f 148/148/148 167/167/167 165/165/165
f 102/102/102 167/167/167 148/148/148
f 167/167/167 102/102/102 77/77/77
f 167/167/167 77/77/77 74/74/74
f 167/167/167 168/168/168 165/165/165
f 168/168/168 167/167/167 74/74/74
f 165/165/165 168/168/168 166/166/166
f 168/168/168 74/74/74 68/68/68
f 166/166/166 169/169/169 164/164/164
f 168/168/168 169/169/169 166/166/166
f 169/169/169 168/168/168 68/68/68
f 169/169/169 170/170/170 164/164/164
f 169/169/169 68/68/68 64/64/64
f 170/170/170 169/169/169 64/64/64
