g BigSnowball
v -0.05180448 -0.05419964 -0.08972973
v -1.624227E-06 -0.098894 1.624227E-06
v 0.05180536 -0.05419964 -0.08972973
v -0.09111587 -0.06373543 0.03227469
v -1.624227E-06 -0.098894 1.624227E-06
v -0.05180448 -0.05419964 -0.08972973
v -0.05180448 -0.0727841 0.07145811
v -1.624227E-06 -0.098894 1.624227E-06
v -0.09111587 -0.06373543 0.03227469
v 0.05180536 -0.05962388 0.08371016
v -1.624227E-06 -0.098894 1.624227E-06
v -0.05180448 -0.0727841 0.07145811
v 0.1036124 -0.05419964 1.624227E-06
v -1.624227E-06 -0.098894 1.624227E-06
v 0.05180536 -0.05962388 0.08371016
v 0.05180536 -0.05419964 -0.08972973
v -1.624227E-06 -0.098894 1.624227E-06
v 0.1036124 -0.05419964 1.624227E-06
v 0.04428819 0.1102329 -0.07458806
v -1.624227E-06 0.1460602 1.624227E-06
v -0.02494328 0.1184518 -0.08397111
v -0.02494328 0.1184518 -0.08397111
v -1.624227E-06 0.1460602 1.624227E-06
v -0.05750119 0.1228853 -0.001030385
v -0.05750119 0.1228853 -0.001030385
v -1.624227E-06 0.1460602 1.624227E-06
v -0.04223567 0.1115869 0.07252728
v -0.04223567 0.1115869 0.07252728
v -1.624227E-06 0.1460602 1.624227E-06
v 0.04428819 0.1102329 0.07252728
v 0.04428819 0.1102329 0.07252728
v -1.624227E-06 0.1460602 1.624227E-06
v 0.08609292 0.1177005 -0.001030385
v 0.08609292 0.1177005 -0.001030385
v -1.624227E-06 0.1460602 1.624227E-06
v 0.04428819 0.1102329 -0.07458806
v 0.05180536 -0.05419964 -0.08972973
v 0.06223694 0.01073042 -0.1191957
v -0.06223606 -0.01016576 -0.102052
v -0.05180448 -0.05419964 -0.08972973
v -0.05180448 -0.05419964 -0.08972973
v -0.06223606 -0.01016576 -0.102052
v -0.1244705 0.003630169 1.624227E-06
v -0.09111587 -0.06373543 0.03227469
v -0.09111587 -0.06373543 0.03227469
v -0.1244705 0.003630169 1.624227E-06
v -0.06223606 -0.029807 0.1077973
v -0.05180448 -0.0727841 0.07145811
v -0.05180448 -0.0727841 0.07145811
v -0.06223606 -0.029807 0.1077973
v 0.06223694 0.02256965 0.1137169
v 0.05180536 -0.05962388 0.08371016
v 0.05180536 -0.05962388 0.08371016
v 0.06223694 0.02256965 0.1137169
v 0.1244714 -0.01016576 1.624227E-06
v 0.1036124 -0.05419964 1.624227E-06
v 0.1036124 -0.05419964 1.624227E-06
v 0.1244714 -0.01016576 1.624227E-06
v 0.06223694 0.01073042 -0.1191957
v 0.05180536 -0.05419964 -0.08972973
v 0.06223694 0.01073042 -0.1191957
v 0.06223694 0.0705582 -0.1145764
v -0.06223606 0.0705582 -0.1077941
v -0.06223606 -0.01016576 -0.102052
v -0.06223606 -0.01016576 -0.102052
v -0.06223606 0.0705582 -0.1077941
v -0.09976413 0.08186079 1.624227E-06
v -0.1244705 0.003630169 1.624227E-06
v -0.1244705 0.003630169 1.624227E-06
v -0.09976413 0.08186079 1.624227E-06
v -0.06223606 0.04950517 0.1077973
v -0.06223606 -0.029807 0.1077973
v -0.06223606 -0.029807 0.1077973
v -0.06223606 0.04950517 0.1077973
v 0.06223694 0.0705582 0.1077973
v 0.06223694 0.02256965 0.1137169
v 0.06223694 0.02256965 0.1137169
v 0.06223694 0.0705582 0.1077973
v 0.1244714 0.0705582 1.624227E-06
v 0.1244714 -0.01016576 1.624227E-06
v 0.1244714 -0.01016576 1.624227E-06
v 0.1244714 0.0705582 1.624227E-06
v 0.06223694 0.0705582 -0.1145764
v 0.06223694 0.01073042 -0.1191957
v 0.06223694 0.0705582 -0.1145764
v 0.04428819 0.1102329 -0.07458806
v -0.02494328 0.1184518 -0.08397111
v -0.06223606 0.0705582 -0.1077941
v -0.06223606 0.0705582 -0.1077941
v -0.02494328 0.1184518 -0.08397111
v -0.05750119 0.1228853 -0.001030385
v -0.09976413 0.08186079 1.624227E-06
v -0.09976413 0.08186079 1.624227E-06
v -0.05750119 0.1228853 -0.001030385
v -0.04223567 0.1115869 0.07252728
v -0.06223606 0.04950517 0.1077973
v -0.06223606 0.04950517 0.1077973
v -0.04223567 0.1115869 0.07252728
v 0.04428819 0.1102329 0.07252728
v 0.06223694 0.0705582 0.1077973
v 0.06223694 0.0705582 0.1077973
v 0.04428819 0.1102329 0.07252728
v 0.08609292 0.1177005 -0.001030385
v 0.1244714 0.0705582 1.624227E-06
v 0.1244714 0.0705582 1.624227E-06
v 0.08609292 0.1177005 -0.001030385
v 0.04428819 0.1102329 -0.07458806
v 0.06223694 0.0705582 -0.1145764
vt 0.6627654 0.1008702
vt 0.7610053 0.3166306
vt 0.6269584 0.2716423
vt 0.8601633 0.1871744
vt 0.7610053 0.3166306
vt 0.6627654 0.1008702
vt 0.9051516 0.2881686
vt 0.7610053 0.3166306
vt 0.8601633 0.1871744
vt 0.9354499 0.4580226
vt 0.7610053 0.3166306
vt 0.9051516 0.2881686
vt 0.7913036 0.4736308
vt 0.7610053 0.3166306
vt 0.9354499 0.4580226
vt 0.3928354 0.1247416
vt 0.2927593 0.04027366
vt 0.1513673 0.1265778
vt 0.08067136 0.645321
vt 0.2395077 0.7463152
vt 0.2275721 0.5525899
vt 0.2275721 0.5525899
vt 0.2395077 0.7463152
vt 0.3441745 0.6848006
vt 0.3441745 0.6848006
vt 0.2395077 0.7463152
vt 0.3322388 0.8243562
vt 0.3322388 0.8243562
vt 0.2395077 0.7463152
vt 0.2009463 0.9299411
vt 0.2009463 0.9299411
vt 0.2395077 0.7463152
vt 0.08801639 0.8564907
vt 0.08801639 0.8564907
vt 0.2395077 0.7463152
vt 0.08067136 0.645321
vt 0.3928354 0.1247416
vt 0.4387418 0.2799054
vt 0.5498355 0.2303265
vt 0.5158647 0.134841
vt 0.9124966 0.5553443
vt 0.9492218 0.6581748
vt 0.8234381 0.6875549
vt 0.7288707 0.546163
vt 0.7288707 0.546163
vt 0.8234381 0.6875549
vt 0.5654437 0.6186952
vt 0.6122683 0.5259641
vt 0.6122683 0.5259641
vt 0.5654437 0.6186952
vt 0.3799815 0.7325433
vt 0.4460869 0.5452449
vt 0.085262 0.1256597
vt 0.02374732 0.298268
vt 0.1192328 0.2294083
vt 0.1513673 0.1265778
vt 0.1513673 0.1265778
vt 0.1192328 0.2294083
vt 0.4387418 0.2799054
vt 0.3928354 0.1247416
vt 0.4387418 0.2799054
vt 0.4286424 0.4240518
vt 0.5599349 0.4038529
vt 0.5498355 0.2303265
vt 0.9492218 0.6581748
vt 0.9602394 0.8463913
vt 0.7949761 0.8546545
vt 0.8234381 0.6875549
vt 0.8234381 0.6875549
vt 0.7949761 0.8546545
vt 0.5663618 0.7821223
vt 0.5654437 0.6186952
vt 0.5654437 0.6186952
vt 0.5663618 0.7821223
vt 0.390081 0.8418007
vt 0.3799815 0.7325433
vt 0.02374732 0.298268
vt 0.03292862 0.3992623
vt 0.1201509 0.4203793
vt 0.1192328 0.2294083
vt 0.1192328 0.2294083
vt 0.1201509 0.4203793
vt 0.4286424 0.4240518
vt 0.4387418 0.2799054
vt 0.4286424 0.4240518
vt 0.3726365 0.5076016
vt 0.4736308 0.5112741
vt 0.5599349 0.4038529
vt 0.9602394 0.8463913
vt 0.8665901 0.9629937
vt 0.7463152 0.9510581
vt 0.7949761 0.8546545
vt 0.7949761 0.8546545
vt 0.7463152 0.9510581
vt 0.5984964 0.9180054
vt 0.5663618 0.7821223
vt 0.5663618 0.7821223
vt 0.5984964 0.9180054
vt 0.4782214 0.9326955
vt 0.390081 0.8418007
vt 0.03292862 0.3992623
vt 0.1146421 0.4837302
vt 0.1789112 0.5222917
vt 0.1201509 0.4203793
vt 0.1201509 0.4203793
vt 0.1789112 0.5222917
vt 0.3726365 0.5076016
vt 0.4286424 0.4240518
vn -0.002776444 -0.8959083 -0.4442303
vn -0.002776444 -0.8959083 -0.4442303
vn -0.002776444 -0.8959083 -0.4442303
vn -0.4119337 -0.8886019 -0.2017357
vn -0.4119337 -0.8886019 -0.2017357
vn -0.4119337 -0.8886019 -0.2017357
vn -0.3242572 -0.9397466 0.1083223
vn -0.3242572 -0.9397466 0.1083223
vn -0.3242572 -0.9397466 0.1083223
vn 0.07028735 -0.9178274 0.3907077
vn 0.07028735 -0.9178274 0.3907077
vn 0.07028735 -0.9178274 0.3907077
vn 0.391768 -0.9032146 0.1752744
vn 0.391768 -0.9032146 0.1752744
vn 0.391768 -0.9032146 0.1752744
vn 0.3844617 -0.8959083 -0.2225702
vn 0.3844617 -0.8959083 -0.2225702
vn 0.3844617 -0.8959083 -0.2225702
vn 0.1579639 0.9233803 -0.3498802
vn 0.1579639 0.9233803 -0.3498802
vn 0.1579639 0.9233803 -0.3498802
vn -0.3607891 0.9087675 -0.2096969
vn -0.3607891 0.9087675 -0.2096969
vn -0.3607891 0.9087675 -0.2096969
vn -0.3680955 0.9014612 0.2277576
vn -0.3680955 0.9014612 0.2277576
vn -0.3680955 0.9014612 0.2277576
vn 0.01183629 0.9014612 0.4326981
vn 0.01183629 0.9014612 0.4326981
vn 0.01183629 0.9014612 0.4326981
vn 0.3040915 0.916074 0.2614131
vn 0.3040915 0.916074 0.2614131
vn 0.3040915 0.916074 0.2614131
vn 0.2967851 0.916074 -0.2696795
vn 0.2967851 0.916074 -0.2696795
vn 0.2967851 0.916074 -0.2696795
vn -0.03930837 -0.3552362 -0.9339498
vn -0.03930837 -0.3552362 -0.9339498
vn -0.03930837 -0.3552362 -0.9339498
vn -0.03930837 -0.3552362 -0.9339498
vn -0.8137847 -0.4648319 -0.3488351
vn -0.8137847 -0.4648319 -0.3488351
vn -0.8137847 -0.4648319 -0.3488351
vn -0.8137847 -0.4648319 -0.3488351
vn -0.8137847 -0.3406234 0.4708824
vn -0.8137847 -0.3406234 0.4708824
vn -0.8137847 -0.3406234 0.4708824
vn -0.8137847 -0.3406234 0.4708824
vn 0.06298095 -0.4648319 0.8831561
vn 0.06298095 -0.4648319 0.8831561
vn 0.06298095 -0.4648319 0.8831561
vn 0.06298095 -0.4648319 0.8831561
vn 0.8009254 -0.3187042 0.5068986
vn 0.8009254 -0.3187042 0.5068986
vn 0.8009254 -0.3187042 0.5068986
vn 0.8009254 -0.3187042 0.5068986
vn 0.8009254 -0.3625426 -0.4765306
vn 0.8009254 -0.3625426 -0.4765306
vn 0.8009254 -0.3625426 -0.4765306
vn 0.8009254 -0.3625426 -0.4765306
vn -0.09775943 -0.004529893 -0.9951998
vn -0.09775943 -0.004529893 -0.9951998
vn -0.09775943 -0.004529893 -0.9951998
vn -0.09775943 -0.004529893 -0.9951998
vn -0.8941548 0.1196786 -0.4314675
vn -0.8941548 0.1196786 -0.4314675
vn -0.8941548 0.1196786 -0.4314675
vn -0.8941548 0.1196786 -0.4314675
vn -0.8795421 0.1415977 0.4542641
vn -0.8795421 0.1415977 0.4542641
vn -0.8795421 0.1415977 0.4542641
vn -0.8795421 0.1415977 0.4542641
vn -0.03930837 0.04661477 0.9981392
vn -0.03930837 0.04661477 0.9981392
vn -0.03930837 0.04661477 0.9981392
vn -0.03930837 0.04661477 0.9981392
vn 0.8739892 0.02469558 0.4853175
vn 0.8739892 0.02469558 0.4853175
vn 0.8739892 0.02469558 0.4853175
vn 0.8739892 0.02469558 0.4853175
vn 0.8812955 0.01738924 -0.4722455
vn 0.8812955 0.01738924 -0.4722455
vn 0.8812955 0.01738924 -0.4722455
vn 0.8812955 0.01738924 -0.4722455
vn 0.03375542 0.5799804 -0.8139308
vn 0.03375542 0.5799804 -0.8139308
vn 0.03375542 0.5799804 -0.8139308
vn 0.03375542 0.5799804 -0.8139308
vn -0.6676571 0.6749634 -0.3140994
vn -0.6676571 0.6749634 -0.3140994
vn -0.6676571 0.6749634 -0.3140994
vn -0.6676571 0.6749634 -0.3140994
vn -0.7407208 0.5726741 0.3512507
vn -0.7407208 0.5726741 0.3512507
vn -0.7407208 0.5726741 0.3512507
vn -0.7407208 0.5726741 0.3512507
vn -0.0539211 0.5726741 0.8180079
vn -0.0539211 0.5726741 0.8180079
vn -0.0539211 0.5726741 0.8180079
vn -0.0539211 0.5726741 0.8180079
vn 0.6767169 0.609206 0.4134274
vn 0.6767169 0.609206 0.4134274
vn 0.6767169 0.609206 0.4134274
vn 0.6767169 0.609206 0.4134274
vn 0.6767169 0.6165124 -0.4024508
vn 0.6767169 0.6165124 -0.4024508
vn 0.6767169 0.6165124 -0.4024508
vn 0.6767169 0.6165124 -0.4024508
g BigSnowball_0
f 3/3/3 2/2/2 1/1/1
f 6/6/6 5/5/5 4/4/4
f 9/9/9 8/8/8 7/7/7
f 12/12/12 11/11/11 10/10/10
f 15/15/15 14/14/14 13/13/13
f 18/18/18 17/17/17 16/16/16
f 21/21/21 20/20/20 19/19/19
f 24/24/24 23/23/23 22/22/22
f 27/27/27 26/26/26 25/25/25
f 30/30/30 29/29/29 28/28/28
f 33/33/33 32/32/32 31/31/31
f 36/36/36 35/35/35 34/34/34
f 39/39/39 38/38/38 37/37/37
f 40/40/40 39/39/39 37/37/37
f 43/43/43 42/42/42 41/41/41
f 44/44/44 43/43/43 41/41/41
f 47/47/47 46/46/46 45/45/45
f 48/48/48 47/47/47 45/45/45
f 51/51/51 50/50/50 49/49/49
f 52/52/52 51/51/51 49/49/49
f 55/55/55 54/54/54 53/53/53
f 56/56/56 55/55/55 53/53/53
f 59/59/59 58/58/58 57/57/57
f 60/60/60 59/59/59 57/57/57
f 63/63/63 62/62/62 61/61/61
f 64/64/64 63/63/63 61/61/61
f 67/67/67 66/66/66 65/65/65
f 68/68/68 67/67/67 65/65/65
f 71/71/71 70/70/70 69/69/69
f 72/72/72 71/71/71 69/69/69
f 75/75/75 74/74/74 73/73/73
f 76/76/76 75/75/75 73/73/73
f 79/79/79 78/78/78 77/77/77
f 80/80/80 79/79/79 77/77/77
f 83/83/83 82/82/82 81/81/81
f 84/84/84 83/83/83 81/81/81
f 87/87/87 86/86/86 85/85/85
f 88/88/88 87/87/87 85/85/85
f 91/91/91 90/90/90 89/89/89
f 92/92/92 91/91/91 89/89/89
f 95/95/95 94/94/94 93/93/93
f 96/96/96 95/95/95 93/93/93
f 99/99/99 98/98/98 97/97/97
f 100/100/100 99/99/99 97/97/97
f 103/103/103 102/102/102 101/101/101
f 104/104/104 103/103/103 101/101/101
f 107/107/107 106/106/106 105/105/105
f 108/108/108 107/107/107 105/105/105
