g BlueFlower74
v -1.1995107E-07 7.174797E-08 -7.0763474E-07
v -0.04808087 0.03814216 -0.147978
v 0.12587695 0.03814216 -0.09145578
v -0.15559247 0.03814216 -7.0763474E-07
v 0.12587695 0.03814216 0.09145437
v -0.048080564 0.03814216 0.14797659
vt 0.5286379 0.50471234
vt 0.3720191 0.9867351
vt 0.9386714 0.80261517
vt 0.021809421 0.50471234
vt 0.9386714 0.20680185
vt 0.37202007 0.02268921
vn -0 1 -2.1269997E-07
vn 0.073574156 0.97124296 0.22643754
vn -0.19261916 0.9712431 0.13994528
vn 0.23809081 0.97124296 -4.093049E-07
vn -0.19261922 0.9712431 -0.1399454
vn 0.07357399 0.97124285 -0.22643822
g BlueFlower74_0
f 3/3/3 2/2/2 1/1/1
f 2/2/2 4/4/4 1/1/1
f 5/5/5 3/3/3 1/1/1
f 4/4/4 6/6/6 1/1/1
f 6/6/6 5/5/5 1/1/1
