g Boulder27
v 0.012296192 0.004662753 0.0006625814
v 0.013802724 -0.008777498 -0.003114694
v 0.013093881 -0.0089104865 -0.000293737
v 0.011681387 0.003891859 0.0022232232
v 0.010577762 0.00658912 0.002629139
v 0.010579277 0.009820769 0.0024054013
v 0.005632514 0.013066168 0.0038650027
v 0.005888991 0.011295246 0.004060597
v 0.0018997097 0.010065543 0.0071700714
v 0.012037183 0.0054456494 -0.0033107128
v 0.013802724 -0.008777498 -0.003114694
v 0.0074300435 -0.0056881593 -0.010346832
v 0.0081687225 0.011933859 -0.00051920285
v 0.005577383 7.5434444E-05 -0.009124045
v 0.009334621 0.0065626004 -0.0062341304
v 0.005895304 0.012808851 -0.003417302
v 0.0045385594 0.014101995 0.0028180112
v -0.0048210095 0.002307441 -0.008199119
v -0.006346599 -0.001625659 -0.009183252
v -0.011429419 -0.0006546467 -0.0052334904
v 0.0013404983 0.011519492 0.006644033
v 0.0002242321 0.013056318 0.0048508346
v -0.0013783032 0.01526263 0.0022764865
v 0.0029680484 0.015589059 0.0013149253
v -0.0011925363 0.0123216035 0.007662959
v -0.00089697837 0.0100948615 0.00838408
v -0.0056842566 0.009119056 0.009863772
v -0.003374958 0.007516911 0.010050607
v -0.008028107 0.012827762 0.004500475
v -0.0069551514 0.013398035 0.002749052
v -0.0060344455 0.01330896 0.0018741989
v -0.008788075 0.010039227 -0.00044874666
v -0.011036445 0.009511774 0.0009469233
v -0.0060344455 0.01330896 0.0018741989
v -0.012299999 0.0077532213 0.0019836237
v -0.0143201975 -0.00087331835 0.002371384
v -0.0135024525 -0.00089639495 0.0008104245
v -0.013972968 -0.00011031266 0.0050724284
v -0.009131074 0.010803028 0.007853351
v -0.010815872 0.008153442 0.0074472036
v -0.00959281 -0.0034684413 0.01045931
v -0.006986301 0.004939823 0.010081293
v -0.004712653 0.013181074 0.0006182384
v -0.006120076 0.010955739 -0.0024887323
v -0.008788075 0.010039227 -0.00044874666
v 0.00017553807 0.011443264 -0.005156245
v 0.0042391606 0.007702698 -0.008472235
v 0.006683093 0.009552676 -0.0068622157
v -0.0032573557 0.008290714 -0.007871308
v -0.009030604 0.0034788202 -0.004962287
v -0.011036445 0.009511774 0.0009469233
v -0.0135024525 -0.00089639495 0.0008104245
v -0.012202018 -0.00071050203 -0.0032192837
v -0.0067904615 0.009860001 -0.005209508
v -0.006808204 -0.004672525 0.011890822
v -0.00959281 -0.0034684413 0.01045931
v -0.006986301 0.004939823 0.010081293
v -0.0047115777 0.0038407636 0.010545224
v 0.013093881 -0.0089104865 -0.000293737
v 0.01178287 0.0033048156 0.0046313102
v 0.012806216 -0.009158383 0.002034996
v 0.008262894 -0.008159693 0.006928653
v 0.010577762 0.00658912 0.002629139
v 0.007574142 0.002541045 0.006671196
v 0.0059383223 -0.00814751 0.010292737
v 0.0048154774 0.0023448393 0.0096024005
v -0.0010692048 -0.006324445 0.012370596
v 0.006838078 0.010245805 0.006368022
v 0.0035601282 0.00930162 0.008866019
v 0.011205999 0.006018623 0.0050842594
v 0.005888991 0.011295246 0.004060597
v 0.0018997097 0.010065543 0.0071700714
v -0.00089697837 0.0100948615 0.00838408
v 0.00058464904 0.0025111535 0.01172011
v -0.0025708857 0.0029106464 0.011005757
v -0.0038861048 -0.0053276345 0.011370857
v -0.006808204 -0.004672525 0.011890822
v -0.0047115777 0.0038407636 0.010545224
v -0.003374958 0.007516911 0.010050607
v -0.0018743514 0.0071984194 0.0107867
v 0.0011647415 0.0060601193 0.011163344
v -0.0002451849 0.00907958 0.009427505
vt 0.6883996 0.9386115
vt 0.69187105 0.9232224
vt 0.68926615 0.9239615
vt 0.68685687 0.9378589
vt 0.6862311 0.9421456
vt 0.6870451 0.94593394
vt 0.6830472 0.9555306
vt 0.68325216 0.9527337
vt 0.6716825 0.9533073
vt 0.692841 0.9387553
vt 0.69187105 0.9232224
vt 0.70178443 0.92759615
vt 0.6917586 0.9495729
vt 0.70253825 0.9335037
vt 0.6973318 0.94037116
vt 0.6964752 0.95137924
vt 0.68637186 0.95894563
vt 0.714362 0.9379995
vt 0.7159679 0.9342287
vt 0.7214369 0.9367878
vt 0.6716292 0.955847
vt 0.67750704 0.9636831
vt 0.704528 0.96518666
vt 0.69369185 0.96111935
vt 0.66512656 0.9566532
vt 0.6656786 0.95269233
vt 0.6597658 0.94932204
vt 0.66242164 0.9475164
vt 0.65170604 0.9544195
vt 0.6491588 0.9563439
vt 0.64751154 0.957351
vt 0.6448039 0.9500425
vt 0.64683783 0.94839376
vt 0.7299498 0.97193336
vt 0.6479742 0.9462353
vt 0.648761 0.9380985
vt 0.6482131 0.93646586
vt 0.65069294 0.93933773
vt 0.6551646 0.950682
vt 0.6539719 0.94772106
vt 0.65628225 0.93583095
vt 0.65839934 0.94445884
vt 0.71896195 0.9619265
vt 0.71954983 0.9518383
vt 0.7240548 0.9500425
vt 0.7075707 0.9513576
vt 0.7033597 0.9424455
vt 0.69945145 0.94469047
vt 0.7121633 0.9451345
vt 0.7199863 0.9407056
vt 0.7265828 0.9490238
vt 0.7272742 0.9375049
vt 0.7233184 0.93689054
vt 0.71739113 0.948286
vt 0.65946144 0.9346935
vt 0.65628225 0.93583095
vt 0.65839934 0.94445884
vt 0.66113937 0.94313896
vt 0.68926615 0.9239615
vt 0.6840763 0.9374031
vt 0.68698066 0.9232671
vt 0.6776406 0.9253229
vt 0.6862311 0.9421456
vt 0.6789492 0.9380611
vt 0.6724033 0.92672414
vt 0.6732302 0.93891615
vt 0.66437966 0.9307741
vt 0.68015516 0.9491985
vt 0.67333055 0.94925916
vt 0.68359494 0.9409806
vt 0.68325216 0.9527337
vt 0.6716825 0.9533073
vt 0.6656786 0.95269233
vt 0.6672981 0.9401666
vt 0.6637228 0.94158745
vt 0.66216445 0.93255967
vt 0.65946144 0.9346935
vt 0.66113937 0.94313896
vt 0.66242164 0.9475164
vt 0.6646687 0.94674087
vt 0.66864574 0.944485
vt 0.66692746 0.95007694
vn 0.9653435 0.11730925 -0.23313186
vn 0.94745934 0.09047074 -0.30681574
vn 0.9805698 0.058319274 0.18730088
vn 0.9765653 0.089318804 0.19581231
vn 0.823897 0.4532207 0.3402715
vn 0.79892486 0.57573795 0.17391096
vn 0.481631 0.6999051 0.527413
vn 0.49137482 0.52876467 0.6920685
vn 0.23658735 0.7314018 0.63959193
vn 0.82961476 0.22588333 -0.5106036
vn 0.94745934 0.09047074 -0.30681574
vn 0.6367372 0.16580592 -0.75304323
vn 0.68993163 0.6966657 -0.19659927
vn 0.18888181 0.17919135 -0.9655124
vn 0.6233245 0.32639116 -0.71058816
vn 0.28435263 0.82121754 -0.4947175
vn 0.40147513 0.8660936 0.29782504
vn -0.21461558 0.19475277 -0.9570849
vn -0.18877873 0.27798843 -0.9418519
vn -0.73154795 0.34458604 -0.58830094
vn 0.2593812 0.72333497 0.6399281
vn -0.02309099 0.82478243 0.56497854
vn -0.19653133 0.9654655 -0.17103207
vn 0.07939091 0.9756168 -0.20461896
vn 0.080219686 0.87676233 0.47418612
vn 0.18772042 0.5154376 0.8361131
vn -0.18687648 0.5067138 0.8416164
vn -0.039310917 0.27489716 0.9606697
vn -0.4155634 0.8632209 0.28663
vn -0.27009654 0.9626552 -0.018518617
vn -0.39158916 0.9199424 0.019077143
vn -0.6454676 0.5479198 -0.5321235
vn -0.7437901 0.5075238 -0.4349666
vn -0.39158916 0.9199424 0.019077143
vn -0.9336854 0.3527429 -0.061676852
vn -0.9645676 0.2590565 -0.04999167
vn -0.89675367 0.21776417 -0.3852421
vn -0.8270396 0.20547652 0.5232447
vn -0.50947237 0.6386835 0.5766466
vn -0.77497 0.28560698 0.563782
vn -0.5151402 0.14841734 0.8441582
vn -0.50217795 0.14469983 0.8525722
vn -0.35305375 0.87549144 -0.32995126
vn -0.46366912 0.75144815 -0.46940035
vn -0.6454676 0.5479198 -0.5321235
vn -0.11531466 0.8023874 -0.58555704
vn 0.07967985 0.2537439 -0.963984
vn 0.40753523 0.5417197 -0.73515636
vn -0.23302059 0.29543138 -0.92651045
vn -0.5963306 0.35794988 -0.7185136
vn -0.7437901 0.5075238 -0.4349666
vn -0.89675367 0.21776417 -0.3852421
vn -0.9232133 0.23056611 -0.30743527
vn -0.5659867 0.52679 -0.63415414
vn -0.11900316 0.1349435 0.9836811
vn -0.5151402 0.14841734 0.8441582
vn -0.50217795 0.14469983 0.8525722
vn -0.15274204 0.13977426 0.9783318
vn 0.9805698 0.058319274 0.18730088
vn 0.7682795 0.029990884 0.6394115
vn 0.84236985 0.015257836 0.5386837
vn 0.6822506 0.014258329 0.7309794
vn 0.823897 0.4532207 0.3402715
vn 0.64126974 0.041622415 0.76618576
vn 0.5781108 0.076424554 0.8123713
vn 0.56284666 0.095150195 0.8210665
vn 0.18832947 0.07106058 0.97953176
vn 0.60146916 0.52778816 0.5997286
vn 0.47563773 0.40658754 0.78003544
vn 0.65323627 0.29647624 0.6966953
vn 0.49137482 0.52876467 0.6920685
vn 0.23658735 0.7314018 0.63959193
vn 0.18772042 0.5154376 0.8361131
vn 0.20334095 0.088249765 0.9751228
vn -0.13115685 0.10743058 0.9855236
vn -0.13210528 0.098930195 0.98628646
vn -0.11900316 0.1349435 0.9836811
vn -0.15274204 0.13977426 0.9783318
vn -0.039310917 0.27489716 0.9606697
vn -0.119131766 0.34276575 0.9318365
vn 0.28164572 0.22694607 0.9322935
vn 0.03461813 0.6591062 0.7512527
g Boulder27_0
f 3/3/3 2/2/2 1/1/1
f 4/4/4 3/3/3 1/1/1
f 4/4/4 1/1/1 5/5/5
f 1/1/1 6/6/6 5/5/5
f 5/5/5 6/6/6 7/7/7
f 8/8/8 5/5/5 7/7/7
f 8/8/8 7/7/7 9/9/9
f 6/6/6 1/1/1 10/10/10
f 1/1/1 11/11/11 10/10/10
f 11/11/11 12/12/12 10/10/10
f 7/7/7 6/6/6 13/13/13
f 13/13/13 6/6/6 10/10/10
f 10/10/10 12/12/12 14/14/14
f 15/15/15 13/13/13 10/10/10
f 15/15/15 10/10/10 14/14/14
f 16/16/16 13/13/13 15/15/15
f 17/17/17 7/7/7 13/13/13
f 17/17/17 13/13/13 16/16/16
f 14/14/14 12/12/12 18/18/18
f 12/12/12 19/19/19 18/18/18
f 18/18/18 19/19/19 20/20/20
f 7/7/7 21/21/21 9/9/9
f 17/17/17 22/22/22 7/7/7
f 22/22/22 21/21/21 7/7/7
f 23/23/23 22/22/22 17/17/17
f 24/24/24 17/17/17 16/16/16
f 24/24/24 23/23/23 17/17/17
f 24/24/24 16/16/16 23/23/23
f 21/21/21 25/25/25 9/9/9
f 25/25/25 26/26/26 9/9/9
f 26/26/26 25/25/25 27/27/27
f 28/28/28 26/26/26 27/27/27
f 29/29/29 25/25/25 21/21/21
f 27/27/27 25/25/25 29/29/29
f 30/30/30 21/21/21 22/22/22
f 30/30/30 29/29/29 21/21/21
f 31/31/31 30/30/30 22/22/22
f 31/31/31 32/32/32 30/30/30
f 32/32/32 33/33/33 30/30/30
f 34/34/34 22/22/22 23/23/23
f 35/35/35 29/29/29 30/30/30
f 33/33/33 35/35/35 30/30/30
f 36/36/36 35/35/35 33/33/33
f 37/37/37 36/36/36 33/33/33
f 36/36/36 38/38/38 35/35/35
f 39/39/39 29/29/29 35/35/35
f 39/39/39 27/27/27 29/29/29
f 38/38/38 40/40/40 35/35/35
f 40/40/40 39/39/39 35/35/35
f 39/39/39 40/40/40 27/27/27
f 40/40/40 38/38/38 41/41/41
f 42/42/42 40/40/40 41/41/41
f 40/40/40 42/42/42 27/27/27
f 43/43/43 34/34/34 23/23/23
f 43/43/43 44/44/44 34/34/34
f 43/43/43 23/23/23 44/44/44
f 44/44/44 45/45/45 34/34/34
f 23/23/23 46/46/46 44/44/44
f 16/16/16 46/46/46 23/23/23
f 47/47/47 46/46/46 16/16/16
f 48/48/48 47/47/47 16/16/16
f 48/48/48 16/16/16 15/15/15
f 48/48/48 15/15/15 47/47/47
f 15/15/15 14/14/14 47/47/47
f 49/49/49 46/46/46 47/47/47
f 47/47/47 14/14/14 49/49/49
f 44/44/44 46/46/46 49/49/49
f 14/14/14 18/18/18 49/49/49
f 49/49/49 18/18/18 50/50/50
f 50/50/50 45/45/45 44/44/44
f 50/50/50 18/18/18 20/20/20
f 50/50/50 20/20/20 45/45/45
f 20/20/20 51/51/51 45/45/45
f 52/52/52 51/51/51 20/20/20
f 53/53/53 52/52/52 20/20/20
f 54/54/54 44/44/44 49/49/49
f 54/54/54 50/50/50 44/44/44
f 54/54/54 49/49/49 50/50/50
f 57/57/57 56/56/56 55/55/55
f 58/58/58 57/57/57 55/55/55
f 58/58/58 28/28/28 57/57/57
f 28/28/28 27/27/27 57/57/57
f 4/4/4 60/60/60 59/59/59
f 60/60/60 61/61/61 59/59/59
f 62/62/62 61/61/61 60/60/60
f 4/4/4 63/63/63 60/60/60
f 64/64/64 62/62/62 60/60/60
f 62/62/62 64/64/64 65/65/65
f 64/64/64 66/66/66 65/65/65
f 67/67/67 65/65/65 66/66/66
f 64/64/64 60/60/60 68/68/68
f 64/64/64 68/68/68 66/66/66
f 68/68/68 69/69/69 66/66/66
f 63/63/63 70/70/70 60/60/60
f 60/60/60 70/70/70 68/68/68
f 68/68/68 70/70/70 63/63/63
f 71/71/71 68/68/68 63/63/63
f 69/69/69 68/68/68 71/71/71
f 72/72/72 69/69/69 71/71/71
f 72/72/72 73/73/73 69/69/69
f 74/74/74 67/67/67 66/66/66
f 74/74/74 66/66/66 69/69/69
f 74/74/74 75/75/75 67/67/67
f 75/75/75 76/76/76 67/67/67
f 77/77/77 76/76/76 75/75/75
f 78/78/78 77/77/77 75/75/75
f 78/78/78 75/75/75 79/79/79
f 79/79/79 80/80/80 73/73/73
f 75/75/75 80/80/80 79/79/79
f 74/74/74 81/81/81 75/75/75
f 81/81/81 74/74/74 69/69/69
f 81/81/81 80/80/80 75/75/75
f 80/80/80 82/82/82 73/73/73
f 73/73/73 82/82/82 69/69/69
f 82/82/82 80/80/80 81/81/81
f 69/69/69 82/82/82 81/81/81
