g Boulder20
v -0.43308547 -0.64344484 0.5783945
v -0.51479214 -0.6717268 0.417908
v -0.6387965 -0.28754085 0.5615512
v 0.053629912 -0.68191814 -0.38082916
v 0.32194227 -0.1788998 -0.73646146
v 0.036506195 -0.3973837 -0.67804104
v 0.33561385 -0.4768574 -0.44529876
v 0.24440536 -0.6591069 -0.30210236
v -0.17126358 -0.6923155 -0.17295441
v -0.038416594 -0.664711 0.03790924
v -0.4260858 -0.697809 0.07694
v -0.2779167 -0.65369993 0.38476044
v -0.58731216 -0.6829349 0.22918
v -0.51479214 -0.6717268 0.417908
v -0.43308547 -0.64344484 0.5783945
v -0.33723158 -0.6275425 0.65294033
v 0.021886138 -0.6131338 0.5167624
v -0.20474106 -0.6059257 0.68951875
v 0.23061875 -0.6305307 0.24848479
v 0.39780837 -0.64874864 -0.05518585
v 0.5776057 -0.29824123 -0.16737212
v 0.6006404 -0.075678825 -0.340347
v 0.4235945 0.0471912 -0.765867
v 0.7087825 -0.29992747 0.14986359
v 0.23061875 -0.6305307 0.24848479
v 0.6323701 0.15395634 -0.4930087
v 0.4204997 0.104930304 -0.78741604
v 0.62480605 0.21365115 -0.52225494
v 0.9416997 -0.01834774 0.29595673
v 0.4768849 -0.29698297 0.5342233
v -0.010749664 -0.3417068 0.763006
v 0.36237776 -0.0730003 0.6863022
v 0.021886138 -0.6131338 0.5167624
v 0.9437541 0.030113868 0.20095916
v 0.91585827 0.045969732 0.38532013
v 0.8625749 0.09919941 -0.0055026244
v 0.8187538 0.23199405 -0.22360626
v -0.11691818 -0.4406219 0.7646359
v -0.20474106 -0.6059257 0.68951875
v -0.2432019 -0.035118066 0.8451999
v -0.20038253 0.14155322 0.83349335
v 0.81436384 0.34065464 -0.25398466
v 0.72813916 0.54426455 -0.17943573
v 0.75498915 0.5626914 0.021584166
v 0.81282544 0.5578278 0.2663034
v 0.7394261 0.5044261 0.48022613
v 0.7223408 0.14081424 0.58201504
v 0.6165266 0.4712839 0.63296354
v 0.4711229 0.29637042 0.8031137
v 0.5663298 0.6344358 0.42865202
v 0.065175936 0.4186147 0.58191925
v 0.33946854 0.22037692 0.8445779
v 0.07049728 0.1301186 0.9085004
v 0.110056914 0.06416614 0.90293056
v 0.05827896 -0.17345363 0.81859374
v -0.33723158 -0.6275425 0.65294033
v -0.43308547 -0.64344484 0.5783945
v -0.6387965 -0.28754085 0.5615512
v -0.45069396 -0.28742626 0.72848874
v -0.20474106 -0.6059257 0.68951875
v -0.11691818 -0.4406219 0.7646359
v -0.2432019 -0.035118066 0.8451999
vt 0.42883134 0.5163539
vt 0.43242657 0.51579434
vt 0.42341918 0.51979136
vt 0.45172036 0.53131795
vt 0.45354375 0.545575
vt 0.45370847 0.537215
vt 0.4518276 0.5399522
vt 0.45085794 0.53457665
vt 0.44657555 0.52580476
vt 0.44251093 0.52706075
vt 0.4403605 0.5195403
vt 0.4338603 0.52041584
vt 0.43633237 0.51593614
vt 0.43242657 0.51579434
vt 0.42883134 0.5163539
vt 0.42728162 0.5176745
vt 0.43234107 0.5251443
vt 0.42664367 0.5201033
vt 0.44013783 0.5303458
vt 0.44795454 0.5350622
vt 0.44517592 0.54555845
vt 0.4460657 0.55009323
vt 0.4518477 0.55052924
vt 0.43951815 0.5459897
vt 0.44013783 0.5303458
vt 0.4464605 0.55447567
vt 0.4528862 0.5529479
vt 0.44713914 0.55714566
vt 0.43331206 0.55452174
vt 0.42791167 0.5372112
vt 0.4226913 0.5277748
vt 0.42282197 0.5398506
vt 0.43234107 0.5251443
vt 0.43489653 0.5557197
vt 0.43041945 0.5544779
vt 0.43825477 0.5559954
vt 0.4410576 0.5578645
vt 0.4233706 0.5240763
vt 0.42664367 0.5201033
vt 0.4170721 0.528207
vt 0.41351953 0.53155595
vt 0.44040796 0.55930203
vt 0.4403717 0.5636692
vt 0.43214145 0.5598575
vt 0.4271983 0.55993414
vt 0.42278743 0.55686134
vt 0.42413643 0.55089134
vt 0.41930112 0.55326706
vt 0.4166457 0.5470047
vt 0.41250697 0.5554495
vt 0.40895388 0.5433084
vt 0.41606864 0.54305506
vt 0.41477227 0.5361521
vt 0.41561922 0.53586394
vt 0.4198339 0.531538
vt 0.42728162 0.5176745
vt 0.42883134 0.5163539
vt 0.42341918 0.51979136
vt 0.4216528 0.5211912
vt 0.42664367 0.5201033
vt 0.4233706 0.5240763
vt 0.4170721 0.528207
vn 0.08564967 -0.98856366 0.12412073
vn 0.10351959 -0.9849186 0.13863213
vn -0.53660166 -0.34634534 0.7694826
vn 0.33013937 -0.6563953 -0.6783459
vn -0.04935311 -0.18812856 -0.98090357
vn -0.06265411 -0.20667331 -0.97640187
vn 0.32988006 -0.65443087 -0.6803671
vn 0.33270925 -0.67676455 -0.65673
vn 0.10698513 -0.99166006 0.07186436
vn 0.12703763 -0.98387456 0.12590624
vn 0.056859575 -0.9936195 0.097401895
vn 0.08564967 -0.98856366 0.12412073
vn 0.05685952 -0.9936195 0.097401865
vn 0.10351959 -0.9849186 0.13863213
vn 0.08564967 -0.98856366 0.12412073
vn 0.08564967 -0.98856366 0.12412073
vn 0.5626185 -0.64454824 0.5177044
vn 0.59934264 -0.5554025 0.57646894
vn 0.541699 -0.719773 0.43415326
vn 0.76671535 -0.58956623 -0.25408518
vn 0.7742029 -0.5793604 -0.25485548
vn 0.8094894 -0.40729088 -0.42289597
vn 0.0020754035 -0.20231469 -0.9793184
vn 0.7882738 -0.5592611 -0.25661552
vn 0.541699 -0.719773 0.43415326
vn 0.8337173 -0.14473112 -0.5328869
vn 0.0021707118 -0.2714581 -0.9624479
vn 0.8326594 -0.1464605 -0.5340669
vn 0.96540236 0.1992717 0.16819324
vn 0.54170024 -0.6429948 0.54140425
vn 0.5564063 -0.5916379 0.58341795
vn 0.50331765 -0.43046856 0.7492451
vn 0.5626185 -0.64454824 0.5177044
vn 0.94410086 0.32952964 -0.009155066
vn 0.9360837 0.3025549 0.17946549
vn 0.94649327 0.31862965 0.051242016
vn 0.84244716 -0.13012904 -0.52282804
vn 0.59934264 -0.5554025 0.57646894
vn 0.59934264 -0.5554025 0.57646894
vn 0.26864687 -0.077934474 0.9600808
vn -0.12479364 0.7349481 0.66654176
vn 0.84244716 -0.1301291 -0.52282804
vn 0.9411413 0.29173782 0.1707103
vn 0.95028776 0.28566 0.123901665
vn 0.94473666 0.32608667 0.033765554
vn 0.93544286 0.30441985 0.17965299
vn 0.725788 0.123256765 0.67678624
vn 0.4399108 0.72937465 0.5239189
vn 0.717826 0.11359695 0.6868926
vn 0.43991074 0.7293747 0.52391887
vn -0.12241132 0.7436278 0.6572923
vn 0.4841868 -0.36404184 0.79563606
vn 0.24965575 0.04186643 0.96742916
vn 0.4870439 -0.36364603 0.7940717
vn 0.5018092 -0.41636485 0.75817394
vn 0.08564967 -0.98856366 0.12412073
vn 0.08564967 -0.98856366 0.12412073
vn -0.53660166 -0.34634534 0.7694826
vn -0.5366016 -0.3463453 0.7694827
vn 0.59934264 -0.5554025 0.57646894
vn 0.59934264 -0.5554025 0.57646894
vn 0.26864687 -0.077934474 0.9600808
g Boulder20_0
f 3/3/3 2/2/2 1/1/1
f 6/6/6 5/5/5 4/4/4
f 5/5/5 7/7/7 4/4/4
f 4/4/4 7/7/7 8/8/8
f 4/4/4 8/8/8 9/9/9
f 8/8/8 10/10/10 9/9/9
f 9/9/9 10/10/10 11/11/11
f 10/10/10 12/12/12 11/11/11
f 13/13/13 11/11/11 12/12/12
f 14/14/14 13/13/13 12/12/12
f 14/14/14 12/12/12 15/15/15
f 16/16/16 15/15/15 12/12/12
f 12/12/12 17/17/17 16/16/16
f 17/17/17 18/18/18 16/16/16
f 19/19/19 17/17/17 12/12/12
f 10/10/10 19/19/19 12/12/12
f 19/19/19 10/10/10 20/20/20
f 10/10/10 8/8/8 20/20/20
f 20/20/20 8/8/8 7/7/7
f 7/7/7 5/5/5 21/21/21
f 21/21/21 20/20/20 7/7/7
f 5/5/5 22/22/22 21/21/21
f 22/22/22 5/5/5 23/23/23
f 20/20/20 21/21/21 24/24/24
f 25/25/25 20/20/20 24/24/24
f 26/26/26 22/22/22 23/23/23
f 26/26/26 23/23/23 27/27/27
f 28/28/28 26/26/26 27/27/27
f 24/24/24 21/21/21 29/29/29
f 30/30/30 25/25/25 24/24/24
f 24/24/24 29/29/29 30/30/30
f 25/25/25 30/30/30 31/31/31
f 30/30/30 32/32/32 31/31/31
f 33/33/33 25/25/25 31/31/31
f 34/34/34 21/21/21 22/22/22
f 21/21/21 34/34/34 29/29/29
f 30/30/30 29/29/29 35/35/35
f 32/32/32 30/30/30 35/35/35
f 29/29/29 34/34/34 35/35/35
f 22/22/22 26/26/26 36/36/36
f 36/36/36 34/34/34 22/22/22
f 26/26/26 28/28/28 37/37/37
f 26/26/26 37/37/37 36/36/36
f 33/33/33 31/31/31 38/38/38
f 39/39/39 33/33/33 38/38/38
f 40/40/40 38/38/38 31/31/31
f 41/41/41 40/40/40 31/31/31
f 28/28/28 42/42/42 37/37/37
f 28/28/28 43/43/43 42/42/42
f 43/43/43 44/44/44 42/42/42
f 37/37/37 42/42/42 44/44/44
f 37/37/37 44/44/44 36/36/36
f 44/44/44 45/45/45 36/36/36
f 45/45/45 34/34/34 36/36/36
f 34/34/34 45/45/45 46/46/46
f 35/35/35 34/34/34 46/46/46
f 35/35/35 46/46/46 47/47/47
f 47/47/47 46/46/46 48/48/48
f 32/32/32 35/35/35 47/47/47
f 49/49/49 47/47/47 48/48/48
f 47/47/47 49/49/49 32/32/32
f 48/48/48 50/50/50 49/49/49
f 50/50/50 51/51/51 49/49/49
f 52/52/52 49/49/49 51/51/51
f 49/49/49 52/52/52 32/32/32
f 52/52/52 51/51/51 53/53/53
f 51/51/51 41/41/41 53/53/53
f 32/32/32 52/52/52 54/54/54
f 52/52/52 53/53/53 54/54/54
f 53/53/53 41/41/41 55/55/55
f 54/54/54 53/53/53 55/55/55
f 55/55/55 32/32/32 54/54/54
f 31/31/31 55/55/55 41/41/41
f 32/32/32 55/55/55 31/31/31
f 58/58/58 57/57/57 56/56/56
f 59/59/59 58/58/58 56/56/56
f 56/56/56 60/60/60 59/59/59
f 60/60/60 61/61/61 59/59/59
f 61/61/61 62/62/62 59/59/59
