g Boulder06
v 0.004953708 0.01364602 -0.002929325
v 1.595497E-05 0.01147495 -0.005098009
v 0.003093271 0.008230529 -0.007987327
v 0.005737114 0.009615991 -0.005668068
v 0.008031359 0.005072396 -0.004968205
v 0.005249319 -0.0002918506 -0.008528804
v 0.008041339 -0.005438702 -0.005109348
v 0.009268269 -0.0001389837 -0.003614216
v 0.01121635 -0.003570907 -0.00327918
v 0.003109388 -0.008776839 -0.008215846
v 0.009999237 -0.007461073 -0.004755039
v 0.01216412 -0.002813191 -0.001627069
v 0.01174648 -0.01042805 -0.001521187
v 0.00575571 -0.01002243 -0.005931921
v 0.008567399 -0.01283401 -0.005062351
v 0.01133594 -0.0139603 -0.0004213428
v 0.009628958 -0.01482702 -0.003292942
v 0.005570278 -0.01478753 -0.003038912
v 0.005741596 -0.0123507 -0.005567694
v -0.0003544331 -0.0117304 -0.006608038
v -0.0001093769 -0.01449444 -0.003254566
v 0.00854176 -0.01084337 -0.00562375
v 0.008031359 0.005072396 -0.004968205
v 0.004953708 0.01364602 -0.002929325
v 0.005737114 0.009615991 -0.005668068
v 0.007399636 0.01113607 0.002238841
v 0.00572793 0.01373899 0.003253851
v 0.009903573 0.002157061 -0.0007802772
v 0.009268269 -0.0001389837 -0.003614216
v 0.01216412 -0.002813191 -0.001627069
v 0.01121635 -0.003570907 -0.00327918
v 0.008647426 0.007035418 0.002996862
v 0.005725457 0.01125768 0.004610071
v 0.002217899 0.01168907 0.007151953
v 0.003411423 0.01480772 0.0002771575
v -1.314286E-05 0.01412658 0.0001868656
v 1.595497E-05 0.01147495 -0.005098009
v -0.004945297 0.01072246 -0.002917547
v -0.003544357 0.01273288 0.0001792156
v -0.003516863 0.01290884 0.001268137
v 0.001730629 0.01340592 0.006653493
v -0.0006826764 0.01254045 0.008199601
v -9.160878E-05 0.01043445 0.008470554
v -0.003791981 0.008743303 0.00917305
v -0.00193008 0.007659039 0.009548125
v -0.004728047 0.01171949 0.004267692
v -0.009391813 0.007210149 0.001070261
v -0.008431453 0.008960984 0.0001636791
v -0.009010391 0.00484122 0.005660505
v -0.006634016 0.01006725 0.006712427
v -0.006137552 -0.0005340695 0.009116277
v -0.004567318 -0.0004977202 0.010291
v -0.004773579 -0.008981521 0.008351984
v -0.009135809 -0.005692608 0.004847727
v -0.008268557 -0.009932091 0.005691661
v -0.002531013 -0.008913681 0.00884736
v -0.002082831 -0.008942286 0.01016715
v -0.001602888 -0.0007248044 0.0103597
v 0.0004977307 -0.008472218 0.01197649
v -0.0001847401 0.006397548 0.01006399
v -9.160878E-05 0.01043445 0.008470554
v 0.0007735899 -0.0002727658 0.01136717
v 0.003524641 -0.009181089 0.008833848
v 0.001104446 0.00907774 0.009514446
v 0.003535622 0.01040681 0.008482865
v 0.002217899 0.01168907 0.007151953
v 0.005725457 0.01125768 0.004610071
v 0.001600319 0.005928693 0.01045164
v 0.003746472 6.106477E-06 0.008457511
v 0.005883532 0.01020358 0.006192246
v 0.007568971 0.006595389 0.004141005
v 0.00712055 -0.005880476 0.005262933
v 0.006975102 -0.01101331 0.005494212
v 0.008594419 0.0008033395 0.003114742
v 0.01016606 0.002174436 0.001040786
v 0.008594419 0.0008033395 0.003114742
v 0.01250242 -0.001743283 0.0006756219
v 0.01216412 -0.002813191 -0.001627069
v 0.01184115 -0.007778489 0.002689981
v 0.01174648 -0.01042805 -0.001521187
v 0.01133594 -0.0139603 -0.0004213428
v 0.01121477 -0.01237545 0.002304773
v 0.01131719 -0.002584887 0.003207846
v 0.01250242 -0.001743283 0.0006756219
v 0.01184115 -0.007778489 0.002689981
v 0.01172202 -0.006900179 0.004175348
v 0.01094506 -0.01147884 0.003966389
v 0.00712055 -0.005880476 0.005262933
v -0.003516863 0.01290884 0.001268137
v -0.008431453 0.008960984 0.0001636791
v -0.004945297 0.01072246 -0.002917547
v -0.003544357 0.01273288 0.0001792156
v -0.008492146 -0.0109673 0.003343706
v -0.009135809 -0.005692608 0.004847727
v -0.008268557 -0.009932091 0.005691661
v -0.009482688 -0.007272494 0.001345282
v -0.008414526 -0.008921597 -7.655143E-05
v -0.008334151 -0.01225958 0.0004795647
v -0.0099018 2.316237E-05 5.133629E-05
v -0.01038549 0.0002101064 0.001418905
v -0.008431453 0.008960984 0.0001636791
v -0.009391813 0.007210149 0.001070261
v -0.009010391 0.00484122 0.005660505
v -0.006137552 -0.0005340695 0.009116277
v -0.01023435 -0.001000726 0.003715525
vt 0.4515252 0.5809354
vt 0.4422633 0.5830511
vt 0.4510591 0.5794525
vt 0.455038 0.5773373
vt 0.4586371 0.5684963
vt 0.4545638 0.5671821
vt 0.4566774 0.5548717
vt 0.4591663 0.5588902
vt 0.4624068 0.5526164
vt 0.4488424 0.5578061
vt 0.4600694 0.5506042
vt 0.4622051 0.5510267
vt 0.4606884 0.5414704
vt 0.4519534 0.5519661
vt 0.4563602 0.5457525
vt 0.4582524 0.5361749
vt 0.4567855 0.5404629
vt 0.4485904 0.5430763
vt 0.4512926 0.5488694
vt 0.4407331 0.554782
vt 0.4380355 0.5475761
vt 0.4570889 0.5487459
vt 0.4586371 0.5684963
vt 0.4515252 0.5809354
vt 0.455038 0.5773373
vt 0.455429 0.5662131
vt 0.4471813 0.5730273
vt 0.4587698 0.5578324
vt 0.4591663 0.5588902
vt 0.4622051 0.5510267
vt 0.4624068 0.5526164
vt 0.4540272 0.5602062
vt 0.4446469 0.5682214
vt 0.4338782 0.5663078
vt 0.4438043 0.5806395
vt 0.436161 0.5820916
vt 0.4422633 0.5830511
vt 0.429434 0.5826669
vt 0.4275607 0.5818306
vt 0.4228716 0.5809761
vt 0.4352027 0.5700555
vt 0.4267586 0.5697231
vt 0.4263834 0.5645419
vt 0.4168561 0.5643306
vt 0.4207424 0.5600261
vt 0.4197121 0.576166
vt 0.4156953 0.5760016
vt 0.4186676 0.5789393
vt 0.4107016 0.566969
vt 0.4138281 0.5717725
vt 0.4125208 0.5527644
vt 0.4142623 0.549875
vt 0.416913 0.541936
vt 0.4124591 0.5539911
vt 0.4134151 0.5471081
vt 0.4208504 0.5395052
vt 0.4229836 0.5381151
vt 0.4206501 0.5470248
vt 0.4258102 0.533962
vt 0.4236765 0.5572308
vt 0.4263834 0.5645419
vt 0.4244156 0.5437915
vt 0.4353571 0.5319819
vt 0.4272552 0.5611556
vt 0.4345144 0.5619703
vt 0.4338782 0.5663078
vt 0.4446469 0.5682214
vt 0.4273671 0.5535181
vt 0.438426 0.5412465
vt 0.4441866 0.5625694
vt 0.4531756 0.5552094
vt 0.4485015 0.5375069
vt 0.4456835 0.5336728
vt 0.453691 0.5496129
vt 0.4563273 0.5541297
vt 0.453691 0.5496129
vt 0.4608085 0.5474987
vt 0.4622051 0.5510267
vt 0.4581246 0.5384324
vt 0.4606884 0.5414704
vt 0.4582524 0.5361749
vt 0.4561357 0.5340685
vt 0.4575983 0.5446637
vt 0.4608085 0.5474987
vt 0.4581246 0.5384324
vt 0.4567816 0.5373281
vt 0.4543232 0.5327891
vt 0.4485015 0.5375069
vt 0.4228716 0.5809761
vt 0.4186676 0.5789393
vt 0.429434 0.5826669
vt 0.4275607 0.5818306
vt 0.4158286 0.5490899
vt 0.4124591 0.5539911
vt 0.4134151 0.5471081
vt 0.4160749 0.5566103
vt 0.4197004 0.5556252
vt 0.4193638 0.5510362
vt 0.416372 0.567573
vt 0.4138018 0.5665762
vt 0.4186676 0.5789393
vt 0.4156953 0.5760016
vt 0.4107016 0.566969
vt 0.4125208 0.5527644
vt 0.4113505 0.5621719
vn 0.5362383 0.7158016 -0.4472992
vn -0.1013288 0.8082827 -0.58001
vn 0.4558859 0.3773396 -0.8060912
vn 0.6767533 0.4408761 -0.5896043
vn 0.834334 0.2358298 -0.498268
vn 0.7012581 0.008708681 -0.7128543
vn 0.5832931 -0.02855758 -0.8117597
vn 0.8180661 0.1563556 -0.5534626
vn 0.7232649 0.1231377 -0.6795035
vn 0.4995119 -0.2745862 -0.8216388
vn 0.6334423 0.004874718 -0.7737745
vn 0.9578788 0.0959354 -0.2706742
vn 0.9570184 -0.1270631 -0.2607119
vn 0.4173945 -0.2246189 -0.8805272
vn 0.4909042 -0.4139843 -0.7665704
vn 0.9535945 -0.1598779 -0.2551402
vn 0.6352676 -0.3860138 -0.668901
vn 0.0005936633 -0.7343889 -0.6787286
vn 0.07263311 -0.6189494 -0.7820653
vn 0.08268661 -0.6700885 -0.7376614
vn 0.012555 -0.7490276 -0.6624199
vn 0.523249 -0.09860234 -0.8464561
vn 0.834334 0.2358298 -0.498268
vn 0.5362383 0.7158016 -0.4472992
vn 0.6767533 0.4408761 -0.5896043
vn 0.9010935 0.431626 -0.04158615
vn 0.4670101 0.8479226 0.2508562
vn 0.917867 0.3182327 -0.2371669
vn 0.8180661 0.1563556 -0.5534626
vn 0.9578788 0.0959354 -0.2706742
vn 0.7232649 0.1231377 -0.6795035
vn 0.9359574 0.230265 0.2663866
vn 0.6979517 0.420344 0.5798055
vn 0.4177394 0.5349055 0.7344181
vn 0.1194036 0.9871814 -0.1059043
vn -0.2210988 0.9612349 -0.1647502
vn -0.1013288 0.8082827 -0.58001
vn -0.4333696 0.8338826 -0.341805
vn -0.4213844 0.8760726 -0.2343759
vn -0.4439209 0.8912121 0.09314109
vn 0.01928604 0.9077883 0.418985
vn -0.2450245 0.8254257 0.5085623
vn 0.07236632 0.3865584 0.9194213
vn -0.5024233 0.3144152 0.8054279
vn -0.1898876 0.1783195 0.9654765
vn -0.5776355 0.7764245 0.2519964
vn -0.9204109 0.3905993 -0.01660401
vn -0.7207223 0.6929638 0.01899011
vn -0.8310244 0.1961287 0.5205112
vn -0.7160072 0.4578554 0.5269746
vn -0.6366845 -0.0150828 0.7709768
vn -0.3157381 -0.01249136 0.9487641
vn -0.5814213 -0.1445057 0.8006668
vn -0.8396899 -0.1141422 0.5309356
vn -0.8024251 -0.1365004 0.5809317
vn -0.3858305 -0.1626278 0.9081228
vn -0.4510541 -0.02955566 0.8920071
vn -0.3388254 0.03806148 0.9400791
vn 0.2936817 0.03676226 0.955196
vn -0.1410737 0.1634317 0.9764161
vn 0.07236632 0.3865584 0.9194213
vn 0.3462132 0.05182051 0.9367236
vn 0.7041985 0.01560941 0.7098315
vn -0.01396586 0.418118 0.9082854
vn 0.6414785 0.203688 0.7396057
vn 0.4177394 0.5349055 0.7344181
vn 0.6979517 0.420344 0.5798055
vn 0.4582607 0.07841196 0.8853523
vn 0.7190101 0.01987533 0.6947155
vn 0.7429876 0.1548734 0.6511402
vn 0.756682 0.04132456 0.6524757
vn 0.5871946 0.05279424 0.8077222
vn 0.5290806 -0.004607244 0.8485591
vn 0.6927208 0.1080424 0.713067
vn 0.9122353 0.3273091 0.2463648
vn 0.6927208 0.1080424 0.713067
vn 0.9704972 0.2071463 0.1233925
vn 0.9578788 0.0959354 -0.2706742
vn 0.9926646 -0.07768516 0.09263889
vn 0.9570184 -0.1270631 -0.2607119
vn 0.9535945 -0.1598779 -0.2551402
vn 0.9866306 -0.1274213 0.1016063
vn 0.5458754 0.2624191 0.7957112
vn 0.9704972 0.2071463 0.1233925
vn 0.9926646 -0.07768516 0.09263889
vn 0.5380641 0.07694599 0.8393845
vn 0.5515544 -0.07391263 0.8308578
vn 0.5871946 0.05279424 0.8077222
vn -0.4439209 0.8912121 0.09314109
vn -0.7207223 0.6929638 0.01899011
vn -0.4333696 0.8338826 -0.341805
vn -0.4213844 0.8760726 -0.2343759
vn -0.9821748 -0.1813643 0.04939542
vn -0.8396899 -0.1141422 0.5309356
vn -0.8024251 -0.1365004 0.5809317
vn -0.9813057 -0.1581302 -0.1097
vn -0.9576305 -0.178638 -0.2259035
vn -0.9698318 -0.1988845 -0.1409652
vn -0.89698 -0.02279742 -0.4414828
vn -0.9974849 0.04447313 -0.05519067
vn -0.7207223 0.6929638 0.01899011
vn -0.9204109 0.3905993 -0.01660401
vn -0.8310244 0.1961287 0.5205112
vn -0.6366845 -0.0150828 0.7709768
vn -0.917617 -0.02852425 0.396441
g Boulder06_0
f 3/3/3 2/2/2 1/1/1
f 4/4/4 3/3/3 1/1/1
f 4/4/4 5/5/5 3/3/3
f 5/5/5 6/6/6 3/3/3
f 7/7/7 6/6/6 5/5/5
f 8/8/8 7/7/7 5/5/5
f 8/8/8 9/9/9 7/7/7
f 10/10/10 6/6/6 7/7/7
f 9/9/9 11/11/11 7/7/7
f 9/9/9 12/12/12 11/11/11
f 12/12/12 13/13/13 11/11/11
f 14/14/14 10/10/10 7/7/7
f 7/7/7 11/11/11 14/14/14
f 11/11/11 13/13/13 15/15/15
f 15/15/15 13/13/13 16/16/16
f 17/17/17 15/15/15 16/16/16
f 15/15/15 17/17/17 18/18/18
f 14/14/14 19/19/19 10/10/10
f 19/19/19 15/15/15 18/18/18
f 19/19/19 20/20/20 10/10/10
f 18/18/18 21/21/21 19/19/19
f 21/21/21 20/20/20 19/19/19
f 22/22/22 11/11/11 15/15/15
f 11/11/11 22/22/22 14/14/14
f 22/22/22 15/15/15 19/19/19
f 14/14/14 22/22/22 19/19/19
f 25/25/25 24/24/24 23/23/23
f 24/24/24 26/26/26 23/23/23
f 27/27/27 26/26/26 24/24/24
f 23/23/23 26/26/26 28/28/28
f 29/29/29 23/23/23 28/28/28
f 28/28/28 30/30/30 29/29/29
f 30/30/30 31/31/31 29/29/29
f 32/32/32 26/26/26 27/27/27
f 28/28/28 26/26/26 32/32/32
f 33/33/33 32/32/32 27/27/27
f 33/33/33 27/27/27 34/34/34
f 35/35/35 27/27/27 24/24/24
f 35/35/35 24/24/24 36/36/36
f 35/35/35 36/36/36 27/27/27
f 24/24/24 37/37/37 36/36/36
f 36/36/36 37/37/37 38/38/38
f 39/39/39 36/36/36 38/38/38
f 39/39/39 40/40/40 36/36/36
f 36/36/36 41/41/41 27/27/27
f 27/27/27 41/41/41 34/34/34
f 40/40/40 41/41/41 36/36/36
f 41/41/41 42/42/42 34/34/34
f 42/42/42 43/43/43 34/34/34
f 43/43/43 42/42/42 44/44/44
f 45/45/45 43/43/43 44/44/44
f 46/46/46 42/42/42 41/41/41
f 40/40/40 46/46/46 41/41/41
f 44/44/44 42/42/42 46/46/46
f 47/47/47 46/46/46 40/40/40
f 48/48/48 47/47/47 40/40/40
f 46/46/46 47/47/47 49/49/49
f 50/50/50 46/46/46 49/49/49
f 50/50/50 44/44/44 46/46/46
f 50/50/50 49/49/49 44/44/44
f 49/49/49 51/51/51 44/44/44
f 44/44/44 51/51/51 52/52/52
f 45/45/45 44/44/44 52/52/52
f 52/52/52 51/51/51 53/53/53
f 53/53/53 51/51/51 54/54/54
f 55/55/55 53/53/53 54/54/54
f 56/56/56 52/52/52 53/53/53
f 56/56/56 57/57/57 52/52/52
f 57/57/57 58/58/58 52/52/52
f 52/52/52 58/58/58 45/45/45
f 58/58/58 57/57/57 59/59/59
f 58/58/58 60/60/60 45/45/45
f 45/45/45 60/60/60 61/61/61
f 62/62/62 58/58/58 59/59/59
f 60/60/60 58/58/58 62/62/62
f 59/59/59 63/63/63 62/62/62
f 60/60/60 64/64/64 61/61/61
f 61/61/61 64/64/64 65/65/65
f 66/66/66 61/61/61 65/65/65
f 66/66/66 65/65/65 67/67/67
f 64/64/64 60/60/60 68/68/68
f 68/68/68 60/60/60 62/62/62
f 65/65/65 64/64/64 68/68/68
f 68/68/68 62/62/62 65/65/65
f 63/63/63 69/69/69 62/62/62
f 62/62/62 69/69/69 65/65/65
f 65/65/65 70/70/70 67/67/67
f 67/67/67 70/70/70 32/32/32
f 70/70/70 65/65/65 71/71/71
f 65/65/65 69/69/69 71/71/71
f 70/70/70 71/71/71 32/32/32
f 72/72/72 69/69/69 63/63/63
f 71/71/71 69/69/69 72/72/72
f 73/73/73 72/72/72 63/63/63
f 74/74/74 71/71/71 72/72/72
f 32/32/32 71/71/71 75/75/75
f 75/75/75 28/28/28 32/32/32
f 71/71/71 76/76/76 75/75/75
f 75/75/75 77/77/77 28/28/28
f 77/77/77 78/78/78 28/28/28
f 77/77/77 79/79/79 78/78/78
f 79/79/79 80/80/80 78/78/78
f 81/81/81 80/80/80 79/79/79
f 82/82/82 81/81/81 79/79/79
f 76/76/76 83/83/83 75/75/75
f 83/83/83 84/84/84 75/75/75
f 84/84/84 83/83/83 85/85/85
f 85/85/85 86/86/86 82/82/82
f 83/83/83 86/86/86 85/85/85
f 86/86/86 83/83/83 76/76/76
f 86/86/86 87/87/87 82/82/82
f 88/88/88 86/86/86 76/76/76
f 87/87/87 86/86/86 88/88/88
f 73/73/73 87/87/87 88/88/88
f 91/91/91 90/90/90 89/89/89
f 92/92/92 91/91/91 89/89/89
f 95/95/95 94/94/94 93/93/93
f 94/94/94 96/96/96 93/93/93
f 93/93/93 96/96/96 97/97/97
f 98/98/98 93/93/93 97/97/97
f 97/97/97 96/96/96 99/99/99
f 96/96/96 100/100/100 99/99/99
f 100/100/100 96/96/96 94/94/94
f 99/99/99 100/100/100 101/101/101
f 100/100/100 102/102/102 101/101/101
f 103/103/103 102/102/102 100/100/100
f 94/94/94 104/104/104 103/103/103
f 105/105/105 103/103/103 100/100/100
f 105/105/105 100/100/100 94/94/94
f 105/105/105 94/94/94 103/103/103
