g Boulder25
v -0.3852544 0.2214658 0.5090659
v -0.3830376 0.1462143 0.6178085
v -0.4371281 0.1067588 0.5830954
v -0.08554245 0.02025364 0.7763498
v 0.1903633 0.2079782 0.594631
v 0.2052522 -0.004490013 0.4675204
v -0.1153557 -0.1523806 0.7164682
v -0.1570659 -0.2764224 0.6829025
v 0.2021748 -0.1463736 0.3661325
v 0.09893387 -0.3335574 0.05874725
v -0.117498 -0.4987222 0.4278073
v -0.2261321 -0.566426 0.3418442
v 0.02757889 -0.3697439 -0.05446075
v -0.05478561 -0.3896279 -0.1630301
v -0.3078679 -0.5578225 0.1471384
v -0.3162346 -0.07157131 -0.2957376
v -0.4641789 -0.1665225 0.02631805
v -0.2278276 -0.3539236 0.7039242
v -0.2978239 -0.06806301 0.7847165
v -0.2601005 0.06315769 0.7629721
v -0.2775395 -0.4760867 0.6560873
v -0.3537382 -0.4973098 0.6456711
v -0.4005424 -0.5111477 0.5957712
v -0.4244145 -0.5302151 0.4681857
v -0.4368376 -0.5353799 0.3138071
v -0.516425 -0.3828897 0.2507285
v -0.5658244 -0.1766616 0.1268112
v -0.5789958 -0.2051113 0.1701498
v -0.5796452 -0.1415274 0.1466306
v -0.5014458 0.06018406 -0.01297882
v -0.5796452 -0.1415274 0.1466306
v -0.5789958 -0.2051113 0.1701498
v -0.5658244 -0.1766616 0.1268112
v -0.5894792 -0.1665152 0.1919797
v -0.5637627 -0.1430142 0.4454904
v -0.516425 -0.3828897 0.2507285
v -0.5127946 -0.03380764 0.5470908
v -0.5283989 -0.1685757 0.574321
v -0.4776274 -0.263677 0.6597079
v -0.4184648 -0.2582156 0.7216733
v -0.4244145 -0.5302151 0.4681857
v -0.4368376 -0.5353799 0.3138071
v -0.4005424 -0.5111477 0.5957712
v -0.3537382 -0.4973098 0.6456711
v -0.2775395 -0.4760867 0.6560873
v -0.2278276 -0.3539236 0.7039242
v -0.2978239 -0.06806301 0.7847165
v -0.4371281 0.1067588 0.5830954
v -0.2601005 0.06315769 0.7629721
v -0.3830376 0.1462143 0.6178085
v -0.1153557 -0.1523806 0.7164682
v -0.1570659 -0.2764224 0.6829025
v -0.1073076 0.06604099 0.7859005
v -0.08554245 0.02025364 0.7763498
v 0.1903633 0.2079782 0.594631
v -0.4641789 -0.1665225 0.02631805
v -0.3162346 -0.07157131 -0.2957376
v -0.3798088 0.2091208 -0.1633035
v -0.5014458 0.06018406 -0.01297882
v -0.3346843 0.3469236 0.3284897
v -0.3292644 0.3697275 0.2279123
v -0.3584355 0.321185 -0.0765921
v -0.4371281 0.1067588 0.5830954
v -0.3852544 0.2214658 0.5090659
v -0.5127946 -0.03380764 0.5470908
v -0.1073076 0.06604099 0.7859005
v 0.02685989 0.3212021 0.4412717
v 0.1903633 0.2079782 0.594631
v -0.2601005 0.06315769 0.7629721
v -0.3830376 0.1462143 0.6178085
v -0.3852544 0.2214658 0.5090659
v -0.3346843 0.3469236 0.3284897
v -0.1004423 0.4187168 0.2966745
v -0.2789372 0.3904831 0.276528
v -0.3584355 0.321185 -0.0765921
v -0.3292644 0.3697275 0.2279123
vt 0.4209049 0.4783904
vt 0.4184911 0.4807467
vt 0.419981 0.4819404
vt 0.4109476 0.4800339
vt 0.4111596 0.4711458
vt 0.4136431 0.4737071
vt 0.4126624 0.4828896
vt 0.4139124 0.4852398
vt 0.4156847 0.4753487
vt 0.4226609 0.4772836
vt 0.4184002 0.4858596
vt 0.4213637 0.4876255
vt 0.4255546 0.4778692
vt 0.428486 0.4783683
vt 0.4260132 0.4868777
vt 0.434947 0.4755816
vt 0.4310047 0.4818463
vt 0.414398 0.4877284
vt 0.4136387 0.4848306
vt 0.4135925 0.4817568
vt 0.4159931 0.489921
vt 0.4171873 0.4912733
vt 0.418788 0.4916898
vt 0.4215811 0.4910873
vt 0.4246743 0.4898723
vt 0.4271526 0.4880862
vt 0.4305489 0.4843591
vt 0.4298621 0.4854135
vt 0.4304428 0.4841674
vt 0.4327622 0.4782272
vt 0.4304428 0.4841674
vt 0.4298621 0.4854135
vt 0.4305489 0.4843591
vt 0.4296712 0.4851428
vt 0.4243733 0.4868059
vt 0.4271526 0.4880862
vt 0.4216954 0.4851921
vt 0.4212232 0.4879648
vt 0.4186834 0.4895984
vt 0.4165888 0.4892262
vt 0.4215811 0.4910873
vt 0.4246743 0.4898723
vt 0.418788 0.4916898
vt 0.4171873 0.4912733
vt 0.4159931 0.489921
vt 0.414398 0.4877284
vt 0.4136387 0.4848306
vt 0.419981 0.4819404
vt 0.4135925 0.4817568
vt 0.4184911 0.4807467
vt 0.4126624 0.4828896
vt 0.4139124 0.4852398
vt 0.4110137 0.4796323
vt 0.4109476 0.4800339
vt 0.4111596 0.4711458
vt 0.4310047 0.4818463
vt 0.434947 0.4755816
vt 0.4341489 0.4726865
vt 0.4327622 0.4782272
vt 0.4241009 0.4736952
vt 0.4261242 0.4723192
vt 0.4324696 0.4710835
vt 0.419981 0.4819404
vt 0.4209049 0.4783904
vt 0.4216954 0.4851921
vt 0.4110137 0.4796323
vt 0.416597 0.4700323
vt 0.4111596 0.4711458
vt 0.4135925 0.4817568
vt 0.4184911 0.4807467
vt 0.4209049 0.4783904
vt 0.4241009 0.4736952
vt 0.4214596 0.4687612
vt 0.4244186 0.4716284
vt 0.4324696 0.4710835
vt 0.4261242 0.4723192
vn -0.6083379 0.4967718 0.6189853
vn -0.6083379 0.4967718 0.6189853
vn -0.6083379 0.4967718 0.6189853
vn 0.4870441 -0.3636461 0.7940716
vn 0.484187 -0.3640416 0.7956361
vn 0.5033177 -0.4304685 0.7492451
vn 0.5018092 -0.4163649 0.7581741
vn 0.5564065 -0.5916378 0.5834178
vn 0.5417002 -0.6429948 0.5414042
vn 0.5416993 -0.7197728 0.4341533
vn 0.5626185 -0.6445482 0.5177045
vn 0.08564965 -0.9885637 0.1241207
vn 0.1270374 -0.9838746 0.1259062
vn 0.1069851 -0.9916601 0.07186441
vn 0.05685962 -0.9936195 0.09740198
vn -0.7731527 -0.1295559 -0.6208463
vn -0.7857324 -0.1392695 -0.6026844
vn 0.5993428 -0.5554025 0.5764688
vn 0.2686469 -0.07793442 0.9600808
vn -0.1247934 0.7349482 0.6665416
vn 0.5993428 -0.5554025 0.5764688
vn 0.08564965 -0.9885637 0.1241207
vn 0.08564965 -0.9885637 0.1241207
vn 0.1035196 -0.9849186 0.1386321
vn 0.05685963 -0.9936195 0.09740192
vn -0.8591449 -0.3598233 0.363864
vn -0.9431583 -0.2264338 -0.2432698
vn -0.9431583 -0.2264337 -0.2432697
vn -0.9431583 -0.2264338 -0.2432698
vn -0.7851949 -0.1389088 -0.6034678
vn -0.9431583 -0.2264338 -0.2432698
vn -0.9431583 -0.2264337 -0.2432697
vn -0.9431583 -0.2264338 -0.2432698
vn -0.9431583 -0.2264337 -0.2432698
vn -0.8333406 0.08699244 0.5458716
vn -0.8591449 -0.3598233 0.363864
vn -0.8333406 0.08699244 0.5458716
vn -0.8333406 0.08699244 0.5458716
vn -0.5366019 -0.3463453 0.7694825
vn -0.5366018 -0.3463454 0.7694826
vn 0.1035196 -0.9849186 0.1386321
vn 0.05685963 -0.9936195 0.09740192
vn 0.08564965 -0.9885637 0.1241207
vn 0.08564965 -0.9885637 0.1241207
vn 0.5993428 -0.5554025 0.5764688
vn 0.5993428 -0.5554025 0.5764688
vn 0.2686469 -0.07793442 0.9600808
vn -0.6083379 0.4967718 0.6189853
vn -0.1247934 0.7349482 0.6665416
vn -0.6083379 0.4967718 0.6189853
vn 0.5018092 -0.4163649 0.7581741
vn 0.5564065 -0.5916378 0.5834178
vn 0.2496561 0.0418665 0.9674292
vn 0.4870441 -0.3636461 0.7940716
vn 0.484187 -0.3640416 0.7956361
vn -0.7857324 -0.1392695 -0.6026844
vn -0.7731527 -0.1295559 -0.6208463
vn -0.85634 0.4727965 0.2077143
vn -0.7851949 -0.1389088 -0.6034678
vn -0.435278 0.8524171 0.2896864
vn -0.4352776 0.8524172 0.2896865
vn -0.8600248 0.4649005 0.2102973
vn -0.6083379 0.4967718 0.6189853
vn -0.6083379 0.4967718 0.6189853
vn -0.8333406 0.08699244 0.5458716
vn 0.2496561 0.0418665 0.9674292
vn -0.1224113 0.7436277 0.6572924
vn 0.484187 -0.3640416 0.7956361
vn -0.1247934 0.7349482 0.6665416
vn -0.6083379 0.4967718 0.6189853
vn -0.6083379 0.4967718 0.6189853
vn -0.435278 0.8524171 0.2896864
vn -0.1339426 0.7540776 0.6429825
vn -0.435278 0.8524171 0.2896865
vn -0.8600248 0.4649005 0.2102973
vn -0.4352776 0.8524172 0.2896865
g Boulder25_0
f 3/3/3 2/2/2 1/1/1
f 6/6/6 5/5/5 4/4/4
f 7/7/7 6/6/6 4/4/4
f 6/6/6 7/7/7 8/8/8
f 9/9/9 6/6/6 8/8/8
f 10/10/10 9/9/9 8/8/8
f 11/11/11 10/10/10 8/8/8
f 10/10/10 11/11/11 12/12/12
f 13/13/13 10/10/10 12/12/12
f 13/13/13 12/12/12 14/14/14
f 12/12/12 15/15/15 14/14/14
f 16/16/16 14/14/14 15/15/15
f 17/17/17 16/16/16 15/15/15
f 11/11/11 8/8/8 18/18/18
f 19/19/19 18/18/18 8/8/8
f 20/20/20 19/19/19 8/8/8
f 21/21/21 11/11/11 18/18/18
f 11/11/11 21/21/21 22/22/22
f 12/12/12 11/11/11 22/22/22
f 22/22/22 23/23/23 12/12/12
f 24/24/24 12/12/12 23/23/23
f 24/24/24 25/25/25 12/12/12
f 25/25/25 15/15/15 12/12/12
f 15/15/15 25/25/25 26/26/26
f 17/17/17 15/15/15 26/26/26
f 27/27/27 17/17/17 26/26/26
f 28/28/28 27/27/27 26/26/26
f 17/17/17 27/27/27 29/29/29
f 30/30/30 17/17/17 29/29/29
f 33/33/33 32/32/32 31/31/31
f 32/32/32 34/34/34 31/31/31
f 34/34/34 32/32/32 35/35/35
f 32/32/32 36/36/36 35/35/35
f 37/37/37 31/31/31 34/34/34
f 35/35/35 37/37/37 34/34/34
f 35/35/35 36/36/36 38/38/38
f 37/37/37 35/35/35 38/38/38
f 36/36/36 39/39/39 38/38/38
f 40/40/40 37/37/37 38/38/38
f 39/39/39 40/40/40 38/38/38
f 39/39/39 36/36/36 41/41/41
f 36/36/36 42/42/42 41/41/41
f 39/39/39 41/41/41 43/43/43
f 39/39/39 43/43/43 44/44/44
f 40/40/40 39/39/39 44/44/44
f 44/44/44 45/45/45 40/40/40
f 45/45/45 46/46/46 40/40/40
f 46/46/46 47/47/47 40/40/40
f 40/40/40 47/47/47 37/37/37
f 47/47/47 48/48/48 37/37/37
f 48/48/48 47/47/47 49/49/49
f 50/50/50 48/48/48 49/49/49
f 52/52/52 51/51/51 49/49/49
f 53/53/53 49/49/49 51/51/51
f 54/54/54 53/53/53 51/51/51
f 55/55/55 53/53/53 54/54/54
f 58/58/58 57/57/57 56/56/56
f 59/59/59 58/58/58 56/56/56
f 58/58/58 59/59/59 60/60/60
f 58/58/58 60/60/60 61/61/61
f 62/62/62 58/58/58 61/61/61
f 59/59/59 63/63/63 60/60/60
f 63/63/63 64/64/64 60/60/60
f 63/63/63 59/59/59 31/31/31
f 65/65/65 63/63/63 31/31/31
f 68/68/68 67/67/67 66/66/66
f 67/67/67 69/69/69 66/66/66
f 69/69/69 67/67/67 70/70/70
f 67/67/67 71/71/71 70/70/70
f 67/67/67 72/72/72 71/71/71
f 72/72/72 67/67/67 73/73/73
f 74/74/74 72/72/72 73/73/73
f 74/74/74 73/73/73 75/75/75
f 74/74/74 76/76/76 72/72/72
f 76/76/76 74/74/74 75/75/75
