g Boulder19
v 0.3406294 -0.4771099 -0.4396487
v 0.2466206 -0.6592184 -0.2996072
v 0.3050142 -0.6440765 -0.1597122
v 0.5633302 -0.2975225 -0.1834524
v 0.3395576 -0.1797866 -0.716619
v 0.6531495 -0.2971264 0.08719696
v 0.1465425 -0.6262975 0.153779
v 0.3127601 -0.2671649 0.5182687
v 0.5928304 -0.07528561 -0.3491446
v 0.4391908 0.04640598 -0.7482986
v 0.8966218 -0.01607815 0.2451791
v 0.9024702 0.03219242 0.1544553
v 0.6299226 0.1540796 -0.4957657
v 0.4371657 0.1040912 -0.7686428
v 0.623896 0.2136969 -0.5232803
v 0.8682515 0.04836674 0.331694
v 0.3221352 -0.07097408 0.6409714
v -0.04134079 -0.3401666 0.728547
v 0.02333633 -0.1716943 0.7792331
v 0.07035171 0.0661652 0.8582053
v 0.2942586 0.2226532 0.793652
v 0.423047 0.2987909 0.7489597
v 0.6739119 0.1432526 0.5274631
v 0.5703962 0.4736066 0.5810007
v 0.6950911 0.5066584 0.4302853
v 0.7745051 0.5597571 0.2231381
v 0.8324977 0.1007138 -0.03938263
v 0.728459 0.5640271 -0.008299866
v 0.7991402 0.2329816 -0.2456998
v 0.7963075 0.3415638 -0.274324
v 0.7105244 0.5451514 -0.1992776
v 0.04046097 0.4198591 0.5540793
v 0.423047 0.2987909 0.7489597
v 0.2942586 0.2226532 0.793652
v 0.5303932 0.6362451 0.3881723
v 0.5703962 0.4736066 0.5810007
v 0.6950911 0.5066584 0.4302853
v 0.7745051 0.5597571 0.2231381
v 0.4062459 0.6983508 0.2934164
v 0.728459 0.5640271 -0.008299866
v 0.4304652 0.6515692 -0.04466339
v 0.6247761 0.6471844 -0.2218069
v 0.7105244 0.5451514 -0.1992776
v 0.4115254 0.5708246 -0.4819754
v 0.623896 0.2136969 -0.5232803
v 0.7963075 0.3415638 -0.274324
vt 0.4518276 0.5399522
vt 0.4508579 0.5345767
vt 0.4479545 0.5350622
vt 0.4451759 0.5455585
vt 0.4535438 0.545575
vt 0.4395182 0.5459897
vt 0.4401378 0.5303458
vt 0.4279117 0.5372112
vt 0.4460657 0.5500932
vt 0.4518477 0.5505292
vt 0.4333121 0.5545217
vt 0.4348965 0.5557197
vt 0.4464605 0.5544757
vt 0.4515387 0.5513167
vt 0.4462881 0.5552309
vt 0.4304194 0.5544779
vt 0.422822 0.5398506
vt 0.4226913 0.5277748
vt 0.4198339 0.531538
vt 0.4156192 0.5358639
vt 0.4160686 0.5430551
vt 0.4166457 0.5470047
vt 0.4241364 0.5508913
vt 0.4193011 0.5532671
vt 0.4227874 0.5568613
vt 0.4271983 0.5599341
vt 0.4382548 0.5559954
vt 0.4321415 0.5598575
vt 0.4410576 0.5578645
vt 0.440408 0.559302
vt 0.4363293 0.5599105
vt 0.4195296 0.5423967
vt 0.4166457 0.5470047
vt 0.4160686 0.5430551
vt 0.422171 0.5554495
vt 0.4193011 0.5532671
vt 0.4227874 0.5568613
vt 0.4271983 0.5599341
vt 0.423462 0.5542244
vt 0.4321415 0.5598575
vt 0.4312224 0.5553565
vt 0.4354625 0.5595837
vt 0.4363293 0.5599105
vt 0.4407727 0.555585
vt 0.4462881 0.5552309
vt 0.440408 0.559302
vn 0.3298801 -0.6544309 -0.6803671
vn 0.3327093 -0.6767645 -0.65673
vn 0.7667153 -0.5895662 -0.2540852
vn 0.7742029 -0.5793604 -0.2548555
vn -0.04935311 -0.1881286 -0.9809036
vn 0.7882738 -0.5592611 -0.2566155
vn 0.541699 -0.719773 0.4341533
vn 0.5417002 -0.6429948 0.5414042
vn 0.8094894 -0.4072909 -0.422896
vn 0.002075403 -0.2023147 -0.9793184
vn 0.9654024 0.1992717 0.1681932
vn 0.9441009 0.3295296 -0.009155066
vn 0.8337173 -0.1447311 -0.5328869
vn 0.002170712 -0.2714581 -0.9624479
vn 0.8326594 -0.1464605 -0.5340669
vn 0.9360837 0.3025549 0.1794655
vn 0.5033177 -0.4304686 0.7492451
vn 0.5564063 -0.5916379 0.583418
vn 0.5018092 -0.4163648 0.7581739
vn 0.4870439 -0.363646 0.7940717
vn 0.4841868 -0.3640418 0.7956361
vn 0.717826 0.113597 0.6868926
vn 0.725788 0.1232568 0.6767862
vn 0.4399108 0.7293746 0.5239189
vn 0.9354429 0.3044198 0.179653
vn 0.9447367 0.3260867 0.03376555
vn 0.9464933 0.3186297 0.05124202
vn 0.9502878 0.28566 0.1239017
vn 0.8424472 -0.130129 -0.522828
vn 0.8424472 -0.1301291 -0.522828
vn 0.9411413 0.2917378 0.1707103
vn -0.1224113 0.7436278 0.6572923
vn 0.717826 0.113597 0.6868926
vn 0.4841868 -0.3640418 0.7956361
vn 0.4399107 0.7293747 0.5239189
vn 0.4399108 0.7293746 0.5239189
vn 0.9354429 0.3044198 0.179653
vn 0.9447367 0.3260867 0.03376555
vn -0.1179759 0.7567546 0.6429651
vn 0.9502878 0.28566 0.1239017
vn 0.4876056 0.6851451 0.5411258
vn 0.4876054 0.6851451 0.5411259
vn 0.9411413 0.2917378 0.1707103
vn 0.6093112 0.4440611 -0.6569244
vn 0.8326594 -0.1464605 -0.5340669
vn 0.8424472 -0.1301291 -0.522828
g Boulder19_0
f 3/3/3 2/2/2 1/1/1
f 4/4/4 3/3/3 1/1/1
f 1/1/1 5/5/5 4/4/4
f 3/3/3 4/4/4 6/6/6
f 7/7/7 3/3/3 6/6/6
f 8/8/8 7/7/7 6/6/6
f 5/5/5 9/9/9 4/4/4
f 9/9/9 5/5/5 10/10/10
f 6/6/6 4/4/4 11/11/11
f 6/6/6 11/11/11 8/8/8
f 4/4/4 12/12/12 11/11/11
f 12/12/12 4/4/4 9/9/9
f 13/13/13 9/9/9 10/10/10
f 13/13/13 10/10/10 14/14/14
f 15/15/15 13/13/13 14/14/14
f 8/8/8 11/11/11 16/16/16
f 11/11/11 12/12/12 16/16/16
f 17/17/17 8/8/8 16/16/16
f 8/8/8 17/17/17 18/18/18
f 17/17/17 19/19/19 18/18/18
f 19/19/19 17/17/17 20/20/20
f 17/17/17 21/21/21 20/20/20
f 22/22/22 21/21/21 17/17/17
f 23/23/23 22/22/22 17/17/17
f 17/17/17 16/16/16 23/23/23
f 22/22/22 23/23/23 24/24/24
f 23/23/23 25/25/25 24/24/24
f 16/16/16 25/25/25 23/23/23
f 16/16/16 12/12/12 25/25/25
f 12/12/12 26/26/26 25/25/25
f 26/26/26 12/12/12 27/27/27
f 27/27/27 12/12/12 9/9/9
f 9/9/9 13/13/13 27/27/27
f 28/28/28 26/26/26 27/27/27
f 13/13/13 29/29/29 27/27/27
f 29/29/29 28/28/28 27/27/27
f 13/13/13 15/15/15 29/29/29
f 15/15/15 30/30/30 29/29/29
f 29/29/29 30/30/30 28/28/28
f 31/31/31 28/28/28 30/30/30
f 34/34/34 33/33/33 32/32/32
f 35/35/35 32/32/32 33/33/33
f 36/36/36 35/35/35 33/33/33
f 35/35/35 36/36/36 37/37/37
f 37/37/37 38/38/38 35/35/35
f 38/38/38 39/39/39 35/35/35
f 39/39/39 38/38/38 40/40/40
f 41/41/41 39/39/39 40/40/40
f 42/42/42 41/41/41 40/40/40
f 43/43/43 42/42/42 40/40/40
f 42/42/42 43/43/43 44/44/44
f 43/43/43 45/45/45 44/44/44
f 45/45/45 43/43/43 46/46/46
