g Boulder14
v 0.7396119 0.5263252 0.4233786
v 0.6064192 0.48951954 0.5754111
v 0.5696419 0.6535832 0.3820822
v 0.44597274 0.30892003 0.7454022
v 0.047768705 0.42308766 0.55294156
v 0.4412126 0.7137927 0.28799286
v -0.019326018 0.6469575 0.27668425
v -0.5162103 0.5190601 0.30641815
v 0.46835157 0.66830397 -0.050540466
v 0.30833665 0.22887287 0.79146725
v 0.3321324 -0.06655727 0.6394174
v 0.70815045 0.15837787 0.5221487
v 0.06859268 0.065388985 0.8584723
v 0.014271087 -0.1756979 0.78063625
v 0.029789886 0.13104038 0.8655822
v -0.24126816 0.13620716 0.80672055
v -0.057260893 -0.34720027 0.731015
v -0.28973877 -0.043319665 0.82024074
v -0.6023405 0.20140857 0.56647915
v -0.16761886 -0.44969067 0.7377927
v -0.5020618 0.25423357 0.6181906
v -0.542707 0.3548601 0.49661162
v -0.50094086 -0.3029385 0.7188754
v -0.25719526 -0.6186217 0.67037565
v -0.39046186 -0.643582 0.6417264
v -0.73205626 0.009023017 0.5064279
v -0.620482 -0.30914682 0.63605374
v -0.48449218 -0.66179305 0.57500947
v -0.56021315 -0.69196683 0.42541167
v -0.7403458 -0.17669018 0.53082246
v -0.79303676 -0.489342 0.16334991
v -0.6247772 -0.7046057 0.24833404
v -0.8400073 -0.14394298 0.37832794
v -0.95178634 -0.1529446 0.03754974
v -0.9540149 -0.18528332 0.08606903
v -0.93880886 -0.24066402 0.06283539
v -0.9305211 -0.20364162 0.01736969
v -0.748342 -0.14246777 -0.22652252
v -0.8777818 0.116564214 -0.12133941
v -0.82100445 0.26802418 -0.21839386
v -0.604442 -0.08193676 -0.41270477
v -0.53406644 0.11455921 -0.52923733
v -0.4723886 0.002005806 -0.5651962
v -0.5089796 -0.057289235 -0.5216324
v -0.3813243 -0.065171316 -0.6182169
v -0.06828537 0.44991624 -0.7968631
v -0.5343677 0.42342043 -0.5197452
v 0.20626876 0.49870563 -0.75798064
v 0.52031356 0.61672 -0.5531235
v -0.59726316 0.32297152 -0.4900119
v -0.6226512 0.4220235 -0.4459201
v 0.6741548 0.6689955 -0.22946747
v 0.77592754 0.42573702 -0.015664367
v 0.7625215 0.59733933 -0.20734344
v -0.7376181 0.37046406 -0.3350943
v -0.6859564 0.43864366 -0.2905118
v -0.6933676 0.45815966 -0.1461325
v -0.4377931 0.57397586 0.26073027
v -0.5370068 0.54640996 0.1945462
v 0.6064192 0.48951954 0.5754111
v 0.70815045 0.15837787 0.5221487
v 0.44597274 0.30892003 0.7454022
v 0.7396119 0.5263252 0.4233786
v 0.9120454 0.06771045 0.32489836
v 0.3321324 -0.06655727 0.6394174
v 0.94911146 0.05279606 0.14721404
v 0.8224058 0.42165852 0.21570832
v 0.5696419 0.6535832 0.3820822
v 0.4412126 0.7137927 0.28799286
v 0.77592754 0.42573702 -0.015664367
v 0.46835157 0.66830397 -0.050540466
v 0.87863934 0.121095315 -0.046548154
v 0.31873274 -0.26452664 0.517341
v 0.9411107 0.0035739515 0.23827727
v -0.057260893 -0.34720027 0.731015
v 0.014271087 -0.1756979 0.78063625
v 0.5873814 -0.28689906 -0.18718903
v 0.6797053 -0.28539348 0.083075866
v 0.13848862 -0.62985384 0.15502472
v 0.6248921 -0.061123006 -0.35412323
v 0.35894972 -0.17121822 -0.71963227
v 0.3073732 -0.64303464 -0.16008575
v -0.053011015 -0.61897033 0.45741302
v -0.3175856 -0.66794765 0.38237822
v -0.16761886 -0.44969067 0.7377927
v -0.25719526 -0.6186217 0.67037565
v -0.39046186 -0.643582 0.6417264
v -0.48449218 -0.66179305 0.57500947
v -0.56021315 -0.69196683 0.42541167
v -0.6247772 -0.7046057 0.24833404
v -0.05747116 -0.6724716 0.039150085
v -0.4538876 -0.71537995 0.09502411
v -0.79303676 -0.489342 0.16334991
v -0.748342 -0.14246777 -0.22652252
v -0.18260513 -0.70308334 -0.15620391
v -0.604442 -0.08193676 -0.41270477
v -0.5089796 -0.057289235 -0.5216324
v -0.3813243 -0.065171316 -0.6182169
v 0.24671249 -0.6591763 -0.29962555
v 0.35097334 -0.47254038 -0.44125578
v 0.05632309 -0.6866545 -0.36581084
v 0.060764313 -0.39896205 -0.64978606
v -0.090274505 -0.26368725 -0.67129546
v 0.15429153 -0.0022120285 -0.73973113
v -0.1894957 -0.13111141 -0.71657133
v 0.06250625 0.374238 -0.8679892
v -0.06828537 0.44991624 -0.7968631
v 0.20626876 0.49870563 -0.75798064
v 0.17481215 0.38650805 -0.85892665
v 0.52031356 0.61672 -0.5531235
v 0.46927017 0.059691045 -0.7529666
v 0.33923873 0.23686008 -0.8028909
v 0.4686345 0.11799198 -0.77352446
v 0.7406181 0.20081851 -0.56721467
v 0.7358723 0.26100162 -0.5949301
v 0.8482628 0.2546787 -0.25332183
v 0.8480168 0.36440417 -0.28235075
v 0.7625215 0.59733933 -0.20734344
v 0.6741548 0.6689955 -0.22946747
vt 0.41425467 0.49247828
vt 0.4123922 0.49010155
vt 0.41869026 0.49305585
vt 0.40923083 0.48428395
vt 0.41963023 0.48178688
vt 0.42298508 0.49259642
vt 0.42824277 0.48540983
vt 0.43214732 0.4771902
vt 0.42992035 0.49145833
vt 0.40940535 0.48093098
vt 0.40948993 0.4740772
vt 0.40886316 0.48362175
vt 0.40975046 0.47471383
vt 0.4098642 0.46847844
vt 0.4107278 0.4757742
vt 0.41548347 0.4728949
vt 0.41027644 0.4636469
vt 0.41425145 0.46849397
vt 0.4252349 0.4701173
vt 0.4106789 0.46020687
vt 0.42345926 0.47236323
vt 0.42721575 0.47382888
vt 0.41671705 0.46041626
vt 0.4117373 0.4551835
vt 0.41388533 0.45331475
vt 0.42638958 0.4645802
vt 0.41982722 0.45895022
vt 0.41634429 0.4518417
vt 0.4202014 0.44995403
vt 0.42449254 0.46051002
vt 0.43026635 0.4518183
vt 0.42468423 0.44846484
vt 0.42901614 0.45989758
vt 0.4372893 0.45769122
vt 0.4360385 0.45710027
vt 0.43595177 0.45591885
vt 0.43711627 0.45667905
vt 0.44100115 0.45893288
vt 0.4419405 0.46387333
vt 0.44458464 0.46748668
vt 0.44417143 0.4611094
vt 0.44761488 0.46603552
vt 0.44698793 0.46391788
vt 0.44589365 0.46228325
vt 0.44679397 0.46307343
vt 0.45185256 0.4783079
vt 0.44966027 0.4731048
vt 0.44845867 0.4829029
vt 0.43984783 0.48867247
vt 0.4488611 0.47025898
vt 0.448819 0.47231936
vt 0.43160355 0.49401945
vt 0.4229251 0.4899545
vt 0.42930254 0.49358985
vt 0.44707564 0.47026908
vt 0.44608405 0.47239584
vt 0.4431426 0.47307602
vt 0.43268478 0.4791003
vt 0.43492508 0.47732514
vt 0.4123922 0.49010155
vt 0.40886316 0.48362175
vt 0.40923083 0.48428395
vt 0.41425467 0.49247828
vt 0.409377 0.48366526
vt 0.40948993 0.4740772
vt 0.41284767 0.48342493
vt 0.41680953 0.49084982
vt 0.41869026 0.49305585
vt 0.42298508 0.49259642
vt 0.4229251 0.4899545
vt 0.42992035 0.49145833
vt 0.41925213 0.48380563
vt 0.41041583 0.46889803
vt 0.41029134 0.48227164
vt 0.41027644 0.4636469
vt 0.4098642 0.46847844
vt 0.42276323 0.46937418
vt 0.4149149 0.47127855
vt 0.41755825 0.4568456
vt 0.42855904 0.4751971
vt 0.4401673 0.46812916
vt 0.42251903 0.45706627
vt 0.41352618 0.45632777
vt 0.41824752 0.45246023
vt 0.4106789 0.46020687
vt 0.4117373 0.4551835
vt 0.41388533 0.45331475
vt 0.41634429 0.4518417
vt 0.4202014 0.44995403
vt 0.42468423 0.44846484
vt 0.42247057 0.45346546
vt 0.42586935 0.44906247
vt 0.43026635 0.4518183
vt 0.44100115 0.45893288
vt 0.4283326 0.4507972
vt 0.44417143 0.4611094
vt 0.44589365 0.46228325
vt 0.44679397 0.46307343
vt 0.42659003 0.45550352
vt 0.43047556 0.4610268
vt 0.43045065 0.45264575
vt 0.43996638 0.45915586
vt 0.44337365 0.4609837
vt 0.44450498 0.4700332
vt 0.4466396 0.46312606
vt 0.45171446 0.47790533
vt 0.45185256 0.4783079
vt 0.44845867 0.4829029
vt 0.450425 0.47959447
vt 0.43984783 0.48867247
vt 0.44173196 0.4753382
vt 0.44602016 0.47807878
vt 0.4427767 0.47677118
vt 0.43385708 0.48136997
vt 0.43516928 0.4827679
vt 0.42606512 0.4863414
vt 0.42783925 0.48901668
vt 0.42930254 0.49358985
vt 0.43160355 0.49401945
vn 0.9354429 0.3044196 0.1796532
vn 0.4399107 0.7293747 0.52391887
vn 0.43991074 0.72937477 0.52391875
vn 0.717826 0.11359696 0.6868927
vn -0.12241137 0.7436278 0.6572922
vn -0.11797585 0.7567546 0.6429651
vn -0.13394259 0.7540774 0.6429826
vn -0.435278 0.85241705 0.28968632
vn 0.48760554 0.68514496 0.5411258
vn 0.4841868 -0.36404154 0.7956361
vn 0.5033176 -0.43046862 0.74924505
vn 0.725788 0.12325671 0.6767863
vn 0.48704395 -0.36364603 0.7940716
vn 0.50180936 -0.41636485 0.75817394
vn 0.24965593 0.04186641 0.96742916
vn -0.12479357 0.73494834 0.6665414
vn 0.5564064 -0.5916379 0.58341795
vn 0.26864675 -0.07793446 0.9600808
vn -0.6083379 0.4967716 0.6189855
vn 0.5993427 -0.5554026 0.5764688
vn -0.6083379 0.4967717 0.61898535
vn -0.60833776 0.49677202 0.61898524
vn -0.53660166 -0.3463453 0.7694826
vn 0.5993427 -0.5554026 0.5764688
vn 0.08564964 -0.98856366 0.124120794
vn -0.8333405 0.08699248 0.54587173
vn -0.53660166 -0.3463453 0.7694826
vn 0.08564964 -0.98856366 0.124120794
vn 0.103519686 -0.9849186 0.13863209
vn -0.8333404 0.0869925 0.54587173
vn -0.8591449 -0.3598233 0.36386412
vn 0.05685961 -0.9936195 0.09740189
vn -0.8333405 0.08699241 0.54587173
vn -0.94315827 -0.22643383 -0.24326977
vn -0.94315827 -0.22643375 -0.24326989
vn -0.94315827 -0.22643377 -0.24326977
vn -0.94315827 -0.22643383 -0.24326977
vn -0.78573227 -0.13926944 -0.6026846
vn -0.78519475 -0.13890885 -0.60346794
vn -0.8563399 0.47279662 0.20771438
vn -0.77315253 -0.12955573 -0.62084657
vn -0.76935494 -0.12478249 -0.62651604
vn -0.7076692 -0.15948093 -0.6883096
vn -0.71923107 -0.15235426 -0.67786044
vn -0.6180217 -0.20953175 -0.7577239
vn 0.006611854 0.6747281 -0.7380368
vn -0.64963967 0.16156437 -0.7428764
vn 0.006611854 0.6747281 -0.7380368
vn 0.60931134 0.44406113 -0.6569243
vn -0.64963967 0.16156437 -0.7428764
vn -0.64963967 0.16156441 -0.7428764
vn 0.4876054 0.6851451 0.5411259
vn 0.95028776 0.28566003 0.12390181
vn 0.9411413 0.29173785 0.17071038
vn -0.78932506 0.6000946 -0.12981744
vn -0.79382825 0.59580576 -0.121868975
vn -0.8600247 0.4649005 0.2102973
vn -0.43527785 0.85241723 0.28968617
vn -0.4352778 0.85241723 0.2896863
vn 0.4399107 0.7293747 0.52391887
vn 0.725788 0.12325671 0.6767863
vn 0.717826 0.11359696 0.6868927
vn 0.9354429 0.3044196 0.1796532
vn 0.9360837 0.30255485 0.17946547
vn 0.5033176 -0.43046862 0.74924505
vn 0.94410086 0.32952955 -0.009154974
vn 0.94473666 0.32608664 0.0337658
vn 0.43991074 0.72937477 0.52391875
vn -0.11797585 0.7567546 0.6429651
vn 0.95028776 0.28566003 0.12390181
vn 0.48760554 0.68514496 0.5411258
vn 0.94649315 0.31862962 0.05124205
vn 0.5417003 -0.6429948 0.5414042
vn 0.96540236 0.1992716 0.16819341
vn 0.5564064 -0.5916379 0.58341795
vn 0.50180936 -0.41636485 0.75817394
vn 0.7742029 -0.5793606 -0.25485545
vn 0.78827405 -0.5592608 -0.25661525
vn 0.5416992 -0.7197729 0.43415323
vn 0.8094894 -0.40729085 -0.42289588
vn -0.049353246 -0.18812868 -0.98090357
vn 0.7667153 -0.5895663 -0.25408515
vn 0.56261855 -0.6445483 0.5177044
vn 0.08564964 -0.98856366 0.124120794
vn 0.5993427 -0.5554026 0.5764688
vn 0.5993427 -0.5554026 0.5764688
vn 0.08564964 -0.98856366 0.124120794
vn 0.08564964 -0.98856366 0.124120794
vn 0.103519686 -0.9849186 0.13863209
vn 0.05685961 -0.9936195 0.09740189
vn 0.12703758 -0.98387456 0.1259064
vn 0.05685956 -0.9936195 0.09740203
vn -0.8591449 -0.3598233 0.36386412
vn -0.78573227 -0.13926944 -0.6026846
vn 0.10698523 -0.99166006 0.07186439
vn -0.77315253 -0.12955573 -0.62084657
vn -0.71923107 -0.15235426 -0.67786044
vn -0.6180217 -0.20953175 -0.7577239
vn 0.3327093 -0.67676455 -0.65673
vn 0.32988015 -0.6544309 -0.680367
vn 0.33013937 -0.6563953 -0.6783459
vn -0.062654175 -0.20667335 -0.97640187
vn -0.004817478 -0.25570324 -0.96674335
vn 0.01615608 -0.26214877 -0.9648922
vn 0.053681243 -0.30375162 -0.95123774
vn 0.006611854 0.6747281 -0.7380368
vn 0.006611854 0.6747281 -0.7380368
vn 0.006611854 0.6747281 -0.7380368
vn 0.006611854 0.6747281 -0.7380368
vn 0.60931134 0.44406113 -0.6569243
vn 0.0020753106 -0.2023148 -0.9793184
vn 0.05736397 -0.28144383 -0.9578616
vn 0.0021707492 -0.27145812 -0.9624479
vn 0.83371735 -0.14473133 -0.53288674
vn 0.83265954 -0.14646064 -0.5340668
vn 0.84244716 -0.13012916 -0.52282804
vn 0.84244716 -0.13012911 -0.522828
vn 0.9411413 0.29173785 0.17071038
vn 0.4876054 0.6851451 0.5411259
g Boulder14_0
f 3/3/3 2/2/2 1/1/1
f 2/2/2 3/3/3 4/4/4
f 3/3/3 5/5/5 4/4/4
f 3/3/3 6/6/6 5/5/5
f 6/6/6 7/7/7 5/5/5
f 8/8/8 5/5/5 7/7/7
f 7/7/7 6/6/6 9/9/9
f 10/10/10 4/4/4 5/5/5
f 4/4/4 10/10/10 11/11/11
f 12/12/12 4/4/4 11/11/11
f 11/11/11 10/10/10 13/13/13
f 14/14/14 11/11/11 13/13/13
f 10/10/10 15/15/15 13/13/13
f 13/13/13 15/15/15 14/14/14
f 10/10/10 5/5/5 15/15/15
f 15/15/15 16/16/16 14/14/14
f 5/5/5 16/16/16 15/15/15
f 17/17/17 14/14/14 16/16/16
f 16/16/16 18/18/18 17/17/17
f 19/19/19 18/18/18 16/16/16
f 18/18/18 20/20/20 17/17/17
f 16/16/16 5/5/5 21/21/21
f 21/21/21 19/19/19 16/16/16
f 5/5/5 22/22/22 21/21/21
f 19/19/19 21/21/21 22/22/22
f 5/5/5 8/8/8 22/22/22
f 19/19/19 22/22/22 8/8/8
f 20/20/20 18/18/18 23/23/23
f 24/24/24 20/20/20 23/23/23
f 25/25/25 24/24/24 23/23/23
f 18/18/18 19/19/19 26/26/26
f 23/23/23 18/18/18 26/26/26
f 23/23/23 27/27/27 25/25/25
f 27/27/27 28/28/28 25/25/25
f 27/27/27 29/29/29 28/28/28
f 27/27/27 23/23/23 30/30/30
f 23/23/23 26/26/26 30/30/30
f 27/27/27 31/31/31 29/29/29
f 31/31/31 27/27/27 30/30/30
f 31/31/31 32/32/32 29/29/29
f 26/26/26 33/33/33 30/30/30
f 33/33/33 31/31/31 30/30/30
f 26/26/26 19/19/19 34/34/34
f 33/33/33 26/26/26 35/35/35
f 26/26/26 34/34/34 35/35/35
f 35/35/35 36/36/36 33/33/33
f 36/36/36 31/31/31 33/33/33
f 36/36/36 35/35/35 34/34/34
f 36/36/36 37/37/37 31/31/31
f 37/37/37 36/36/36 34/34/34
f 37/37/37 38/38/38 31/31/31
f 38/38/38 37/37/37 34/34/34
f 19/19/19 39/39/39 34/34/34
f 39/39/39 38/38/38 34/34/34
f 39/39/39 40/40/40 38/38/38
f 40/40/40 41/41/41 38/38/38
f 39/39/39 19/19/19 8/8/8
f 40/40/40 39/39/39 8/8/8
f 42/42/42 41/41/41 40/40/40
f 42/42/42 43/43/43 41/41/41
f 43/43/43 44/44/44 41/41/41
f 44/44/44 43/43/43 45/45/45
f 45/45/45 43/43/43 42/42/42
f 46/46/46 45/45/45 42/42/42
f 46/46/46 42/42/42 47/47/47
f 46/46/46 47/47/47 48/48/48
f 47/47/47 49/49/49 48/48/48
f 50/50/50 42/42/42 40/40/40
f 42/42/42 50/50/50 47/47/47
f 47/47/47 7/7/7 49/49/49
f 51/51/51 47/47/47 50/50/50
f 7/7/7 47/47/47 51/51/51
f 7/7/7 9/9/9 49/49/49
f 49/49/49 9/9/9 52/52/52
f 52/52/52 9/9/9 53/53/53
f 54/54/54 52/52/52 53/53/53
f 50/50/50 40/40/40 55/55/55
f 51/51/51 50/50/50 55/55/55
f 51/51/51 55/55/55 56/56/56
f 56/56/56 55/55/55 57/57/57
f 51/51/51 56/56/56 57/57/57
f 7/7/7 51/51/51 57/57/57
f 55/55/55 40/40/40 57/57/57
f 58/58/58 7/7/7 57/57/57
f 58/58/58 8/8/8 7/7/7
f 40/40/40 8/8/8 59/59/59
f 57/57/57 40/40/40 59/59/59
f 58/58/58 59/59/59 8/8/8
f 59/59/59 58/58/58 57/57/57
f 62/62/62 61/61/61 60/60/60
f 61/61/61 63/63/63 60/60/60
f 64/64/64 63/63/63 61/61/61
f 65/65/65 64/64/64 61/61/61
f 64/64/64 66/66/66 63/63/63
f 66/66/66 67/67/67 63/63/63
f 63/63/63 67/67/67 68/68/68
f 67/67/67 69/69/69 68/68/68
f 69/69/69 67/67/67 70/70/70
f 71/71/71 69/69/69 70/70/70
f 67/67/67 66/66/66 72/72/72
f 70/70/70 67/67/67 72/72/72
f 65/65/65 73/73/73 64/64/64
f 74/74/74 66/66/66 64/64/64
f 73/73/73 74/74/74 64/64/64
f 73/73/73 65/65/65 75/75/75
f 65/65/65 76/76/76 75/75/75
f 77/77/77 66/66/66 74/74/74
f 78/78/78 74/74/74 73/73/73
f 78/78/78 77/77/77 74/74/74
f 79/79/79 73/73/73 75/75/75
f 73/73/73 79/79/79 78/78/78
f 72/72/72 66/66/66 80/80/80
f 66/66/66 77/77/77 80/80/80
f 81/81/81 80/80/80 77/77/77
f 82/82/82 77/77/77 78/78/78
f 79/79/79 82/82/82 78/78/78
f 83/83/83 79/79/79 75/75/75
f 79/79/79 83/83/83 84/84/84
f 83/83/83 75/75/75 85/85/85
f 86/86/86 83/83/83 85/85/85
f 83/83/83 86/86/86 87/87/87
f 84/84/84 83/83/83 87/87/87
f 87/87/87 88/88/88 84/84/84
f 89/89/89 84/84/84 88/88/88
f 89/89/89 90/90/90 84/84/84
f 91/91/91 79/79/79 84/84/84
f 79/79/79 91/91/91 82/82/82
f 90/90/90 92/92/92 84/84/84
f 91/91/91 84/84/84 92/92/92
f 92/92/92 90/90/90 93/93/93
f 94/94/94 92/92/92 93/93/93
f 95/95/95 91/91/91 92/92/92
f 96/96/96 95/95/95 92/92/92
f 94/94/94 96/96/96 92/92/92
f 96/96/96 97/97/97 95/95/95
f 97/97/97 98/98/98 95/95/95
f 91/91/91 99/99/99 82/82/82
f 99/99/99 91/91/91 95/95/95
f 82/82/82 99/99/99 100/100/100
f 77/77/77 82/82/82 100/100/100
f 100/100/100 81/81/81 77/77/77
f 101/101/101 100/100/100 99/99/99
f 101/101/101 99/99/99 95/95/95
f 81/81/81 100/100/100 101/101/101
f 101/101/101 95/95/95 102/102/102
f 102/102/102 81/81/81 101/101/101
f 95/95/95 103/103/103 102/102/102
f 95/95/95 98/98/98 103/103/103
f 81/81/81 102/102/102 103/103/103
f 104/104/104 81/81/81 103/103/103
f 98/98/98 105/105/105 103/103/103
f 104/104/104 103/103/103 105/105/105
f 106/106/106 105/105/105 98/98/98
f 106/106/106 104/104/104 105/105/105
f 107/107/107 106/106/106 98/98/98
f 106/106/106 107/107/107 108/108/108
f 109/109/109 106/106/106 108/108/108
f 104/104/104 106/106/106 109/109/109
f 109/109/109 108/108/108 110/110/110
f 81/81/81 104/104/104 111/111/111
f 80/80/80 81/81/81 111/111/111
f 112/112/112 104/104/104 109/109/109
f 112/112/112 109/109/109 110/110/110
f 113/113/113 104/104/104 112/112/112
f 104/104/104 113/113/113 111/111/111
f 113/113/113 112/112/112 110/110/110
f 114/114/114 80/80/80 111/111/111
f 114/114/114 111/111/111 113/113/113
f 80/80/80 114/114/114 72/72/72
f 115/115/115 113/113/113 110/110/110
f 115/115/115 114/114/114 113/113/113
f 114/114/114 116/116/116 72/72/72
f 114/114/114 115/115/115 116/116/116
f 116/116/116 70/70/70 72/72/72
f 116/116/116 117/117/117 70/70/70
f 115/115/115 117/117/117 116/116/116
f 118/118/118 70/70/70 117/117/117
f 115/115/115 118/118/118 117/117/117
f 118/118/118 115/115/115 110/110/110
f 119/119/119 118/118/118 110/110/110
