g Boulder06
v 0.0049537085 0.013646023 -0.002929325
v 1.595497E-05 0.011474952 -0.005098009
v 0.0030932713 0.008230529 -0.007987327
v 0.0057371138 0.009615991 -0.005668068
v 0.008031359 0.005072396 -0.0049682045
v 0.005249319 -0.00029185056 -0.008528804
v 0.008041339 -0.005438702 -0.0051093483
v 0.009268269 -0.00013898373 -0.0036142159
v 0.011216349 -0.003570907 -0.0032791805
v 0.0031093883 -0.008776839 -0.0082158465
v 0.009999237 -0.0074610733 -0.0047550392
v 0.012164118 -0.0028131912 -0.0016270685
v 0.011746483 -0.01042805 -0.0015211868
v 0.0057557104 -0.010022433 -0.005931921
v 0.008567399 -0.012834008 -0.005062351
v 0.01133594 -0.013960297 -0.00042134285
v 0.009628958 -0.014827024 -0.003292942
v 0.005570278 -0.014787528 -0.0030389118
v 0.005741596 -0.0123507 -0.0055676936
v -0.00035443305 -0.011730396 -0.0066080377
v -0.0001093769 -0.0144944405 -0.003254566
v 0.00854176 -0.010843375 -0.0056237504
v 0.008031359 0.005072396 -0.0049682045
v 0.0049537085 0.013646023 -0.002929325
v 0.0057371138 0.009615991 -0.005668068
v 0.0073996363 0.01113607 0.0022388415
v 0.00572793 0.013738985 0.0032538509
v 0.009903573 0.0021570611 -0.00078027725
v 0.009268269 -0.00013898373 -0.0036142159
v 0.012164118 -0.0028131912 -0.0016270685
v 0.011216349 -0.003570907 -0.0032791805
v 0.008647426 0.007035418 0.0029968622
v 0.0057254573 0.011257676 0.004610071
v 0.002217899 0.0116890725 0.0071519534
v 0.0034114234 0.014807723 0.00027715747
v -1.3142862E-05 0.014126583 0.00018686564
v 1.595497E-05 0.011474952 -0.005098009
v -0.0049452973 0.01072246 -0.0029175472
v -0.0035443567 0.012732876 0.0001792156
v -0.0035168626 0.01290884 0.0012681367
v 0.0017306285 0.013405917 0.006653493
v -0.00068267644 0.012540451 0.0081996005
v -9.160878E-05 0.010434447 0.008470554
v -0.0037919807 0.008743303 0.00917305
v -0.00193008 0.0076590395 0.009548125
v -0.004728047 0.011719491 0.004267692
v -0.009391813 0.0072101494 0.001070261
v -0.008431453 0.008960984 0.00016367911
v -0.009010391 0.00484122 0.005660505
v -0.006634016 0.010067246 0.006712427
v -0.006137552 -0.00053406955 0.009116277
v -0.0045673177 -0.0004977202 0.010291004
v -0.0047735786 -0.008981521 0.0083519835
v -0.009135809 -0.005692608 0.004847727
v -0.008268557 -0.009932091 0.0056916615
v -0.0025310135 -0.008913681 0.0088473605
v -0.0020828305 -0.0089422865 0.010167154
v -0.0016028881 -0.0007248044 0.010359697
v 0.0004977307 -0.008472218 0.011976486
v -0.00018474013 0.0063975477 0.010063986
v -9.160878E-05 0.010434447 0.008470554
v 0.0007735899 -0.00027276576 0.011367168
v 0.0035246408 -0.009181089 0.008833848
v 0.0011044461 0.00907774 0.009514446
v 0.003535622 0.010406807 0.008482865
v 0.002217899 0.0116890725 0.0071519534
v 0.0057254573 0.011257676 0.004610071
v 0.0016003194 0.0059286933 0.010451645
v 0.0037464718 6.106477E-06 0.008457511
v 0.005883532 0.0102035785 0.0061922455
v 0.0075689713 0.006595389 0.004141005
v 0.00712055 -0.0058804755 0.0052629327
v 0.006975102 -0.011013308 0.0054942123
v 0.008594419 0.0008033395 0.0031147425
v 0.010166063 0.0021744359 0.0010407859
v 0.008594419 0.0008033395 0.0031147425
v 0.012502419 -0.0017432834 0.0006756219
v 0.012164118 -0.0028131912 -0.0016270685
v 0.011841154 -0.0077784895 0.0026899814
v 0.011746483 -0.01042805 -0.0015211868
v 0.01133594 -0.013960297 -0.00042134285
v 0.011214771 -0.012375448 0.0023047733
v 0.011317186 -0.0025848865 0.0032078456
v 0.012502419 -0.0017432834 0.0006756219
v 0.011841154 -0.0077784895 0.0026899814
v 0.011722021 -0.006900179 0.004175348
v 0.0109450575 -0.011478841 0.0039663888
v 0.00712055 -0.0058804755 0.0052629327
v -0.0035168626 0.01290884 0.0012681367
v -0.008431453 0.008960984 0.00016367911
v -0.0049452973 0.01072246 -0.0029175472
v -0.0035443567 0.012732876 0.0001792156
v -0.008492146 -0.010967304 0.003343706
v -0.009135809 -0.005692608 0.004847727
v -0.008268557 -0.009932091 0.0056916615
v -0.009482688 -0.0072724936 0.0013452816
v -0.008414526 -0.008921597 -7.6551434E-05
v -0.008334151 -0.0122595765 0.00047956465
v -0.0099018 2.3162365E-05 5.1336287E-05
v -0.010385494 0.00021010637 0.0014189052
v -0.008431453 0.008960984 0.00016367911
v -0.009391813 0.0072101494 0.001070261
v -0.009010391 0.00484122 0.005660505
v -0.006137552 -0.00053406955 0.009116277
v -0.010234347 -0.0010007262 0.0037155247
vt 0.45152515 0.5809354
vt 0.4422633 0.5830511
vt 0.4510591 0.5794525
vt 0.45503795 0.5773373
vt 0.45863712 0.56849635
vt 0.4545638 0.56718206
vt 0.45667744 0.55487174
vt 0.45916635 0.55889016
vt 0.46240675 0.55261636
vt 0.4488424 0.55780613
vt 0.46006942 0.5506042
vt 0.46220505 0.5510267
vt 0.46068835 0.5414704
vt 0.45195335 0.55196613
vt 0.45636016 0.5457525
vt 0.45825243 0.5361749
vt 0.4567855 0.5404629
vt 0.4485904 0.5430763
vt 0.45129257 0.5488694
vt 0.44073308 0.55478203
vt 0.43803546 0.5475761
vt 0.45708895 0.5487459
vt 0.45863712 0.56849635
vt 0.45152515 0.5809354
vt 0.45503795 0.5773373
vt 0.45542902 0.56621313
vt 0.44718134 0.57302725
vt 0.4587698 0.5578324
vt 0.45916635 0.55889016
vt 0.46220505 0.5510267
vt 0.46240675 0.55261636
vt 0.45402718 0.56020623
vt 0.4446469 0.56822145
vt 0.43387818 0.5663078
vt 0.44380426 0.5806395
vt 0.436161 0.58209157
vt 0.4422633 0.5830511
vt 0.42943397 0.58266693
vt 0.42756072 0.58183056
vt 0.4228716 0.58097607
vt 0.43520272 0.57005554
vt 0.42675856 0.56972307
vt 0.4263834 0.56454194
vt 0.41685608 0.5643306
vt 0.42074236 0.5600261
vt 0.4197121 0.57616603
vt 0.4156953 0.57600164
vt 0.41866758 0.57893926
vt 0.41070163 0.56696904
vt 0.41382807 0.57177246
vt 0.4125208 0.5527644
vt 0.41426232 0.549875
vt 0.41691303 0.54193604
vt 0.4124591 0.55399114
vt 0.41341507 0.54710805
vt 0.42085037 0.53950524
vt 0.42298362 0.5381151
vt 0.42065006 0.54702485
vt 0.42581022 0.53396195
vt 0.4236765 0.55723083
vt 0.4263834 0.56454194
vt 0.42441556 0.54379153
vt 0.43535706 0.53198195
vt 0.42725524 0.56115556
vt 0.43451443 0.5619703
vt 0.43387818 0.5663078
vt 0.4446469 0.56822145
vt 0.42736712 0.5535181
vt 0.438426 0.54124653
vt 0.44418663 0.5625694
vt 0.4531756 0.5552094
vt 0.44850147 0.53750694
vt 0.44568354 0.5336728
vt 0.453691 0.5496129
vt 0.45632726 0.5541297
vt 0.453691 0.5496129
vt 0.46080852 0.5474987
vt 0.46220505 0.5510267
vt 0.45812458 0.5384324
vt 0.46068835 0.5414704
vt 0.45825243 0.5361749
vt 0.4561357 0.53406847
vt 0.45759827 0.54466367
vt 0.46080852 0.5474987
vt 0.45812458 0.5384324
vt 0.45678163 0.5373281
vt 0.45432323 0.5327891
vt 0.44850147 0.53750694
vt 0.4228716 0.58097607
vt 0.41866758 0.57893926
vt 0.42943397 0.58266693
vt 0.42756072 0.58183056
vt 0.4158286 0.5490899
vt 0.4124591 0.55399114
vt 0.41341507 0.54710805
vt 0.4160749 0.55661035
vt 0.41970044 0.5556252
vt 0.41936377 0.55103624
vt 0.41637197 0.56757295
vt 0.4138018 0.56657624
vt 0.41866758 0.57893926
vt 0.4156953 0.57600164
vt 0.41070163 0.56696904
vt 0.4125208 0.5527644
vt 0.41135052 0.5621719
vn 0.53623825 0.7158016 -0.4472992
vn -0.10132885 0.80828273 -0.58001
vn 0.45588595 0.37733957 -0.8060912
vn 0.67675334 0.44087607 -0.5896043
vn 0.834334 0.23582977 -0.49826798
vn 0.7012581 0.008708681 -0.71285427
vn 0.58329314 -0.02855758 -0.81175965
vn 0.8180661 0.15635556 -0.5534626
vn 0.72326493 0.12313768 -0.6795035
vn 0.49951187 -0.2745862 -0.8216388
vn 0.6334423 0.004874718 -0.7737745
vn 0.95787877 0.095935404 -0.27067423
vn 0.95701844 -0.12706313 -0.26071188
vn 0.4173945 -0.2246189 -0.8805272
vn 0.4909042 -0.41398427 -0.7665704
vn 0.9535945 -0.15987793 -0.25514024
vn 0.63526756 -0.3860138 -0.668901
vn 0.0005936633 -0.73438895 -0.6787286
vn 0.07263311 -0.61894935 -0.78206533
vn 0.08268661 -0.6700885 -0.7376614
vn 0.012555001 -0.74902755 -0.66241986
vn 0.52324903 -0.09860234 -0.8464561
vn 0.834334 0.23582977 -0.49826798
vn 0.53623825 0.7158016 -0.4472992
vn 0.67675334 0.44087607 -0.5896043
vn 0.90109354 0.431626 -0.041586146
vn 0.46701014 0.8479226 0.25085616
vn 0.917867 0.3182327 -0.2371669
vn 0.8180661 0.15635556 -0.5534626
vn 0.95787877 0.095935404 -0.27067423
vn 0.72326493 0.12313768 -0.6795035
vn 0.9359574 0.23026498 0.26638657
vn 0.6979517 0.420344 0.5798055
vn 0.41773936 0.5349055 0.7344181
vn 0.119403586 0.98718137 -0.105904296
vn -0.22109884 0.9612349 -0.16475022
vn -0.10132885 0.80828273 -0.58001
vn -0.43336958 0.83388263 -0.34180504
vn -0.42138436 0.8760726 -0.23437588
vn -0.4439209 0.8912121 0.09314109
vn 0.019286038 0.90778834 0.418985
vn -0.24502449 0.8254257 0.50856227
vn 0.07236632 0.3865584 0.9194213
vn -0.5024233 0.3144152 0.8054279
vn -0.18988761 0.17831945 0.96547645
vn -0.5776355 0.77642447 0.2519964
vn -0.92041093 0.39059934 -0.016604014
vn -0.72072226 0.6929638 0.018990105
vn -0.8310244 0.19612867 0.5205112
vn -0.7160072 0.4578554 0.52697456
vn -0.63668454 -0.0150828 0.77097684
vn -0.3157381 -0.0124913575 0.94876415
vn -0.5814213 -0.14450574 0.8006668
vn -0.83968985 -0.11414217 0.53093565
vn -0.8024251 -0.13650042 0.58093166
vn -0.3858305 -0.16262776 0.9081228
vn -0.45105413 -0.02955566 0.8920071
vn -0.33882537 0.03806148 0.9400791
vn 0.29368165 0.036762264 0.955196
vn -0.1410737 0.16343175 0.97641605
vn 0.07236632 0.3865584 0.9194213
vn 0.3462132 0.051820505 0.9367236
vn 0.70419854 0.015609411 0.70983154
vn -0.013965856 0.41811797 0.90828544
vn 0.6414785 0.20368798 0.7396057
vn 0.41773936 0.5349055 0.7344181
vn 0.6979517 0.420344 0.5798055
vn 0.45826074 0.07841196 0.88535225
vn 0.71901006 0.019875325 0.6947155
vn 0.74298763 0.15487345 0.6511402
vn 0.75668204 0.041324556 0.6524757
vn 0.5871946 0.05279424 0.8077222
vn 0.5290806 -0.004607244 0.8485591
vn 0.69272083 0.10804243 0.713067
vn 0.91223526 0.32730913 0.24636483
vn 0.69272083 0.10804243 0.713067
vn 0.9704972 0.20714633 0.123392455
vn 0.95787877 0.095935404 -0.27067423
vn 0.99266464 -0.07768516 0.092638895
vn 0.95701844 -0.12706313 -0.26071188
vn 0.9535945 -0.15987793 -0.25514024
vn 0.9866306 -0.12742133 0.10160629
vn 0.5458754 0.26241913 0.79571116
vn 0.9704972 0.20714633 0.123392455
vn 0.99266464 -0.07768516 0.092638895
vn 0.5380641 0.07694599 0.8393845
vn 0.55155444 -0.07391263 0.8308578
vn 0.5871946 0.05279424 0.8077222
vn -0.4439209 0.8912121 0.09314109
vn -0.72072226 0.6929638 0.018990105
vn -0.43336958 0.83388263 -0.34180504
vn -0.42138436 0.8760726 -0.23437588
vn -0.98217475 -0.18136427 0.049395423
vn -0.83968985 -0.11414217 0.53093565
vn -0.8024251 -0.13650042 0.58093166
vn -0.98130566 -0.15813015 -0.10969999
vn -0.95763046 -0.17863804 -0.22590353
vn -0.9698318 -0.19888455 -0.14096518
vn -0.89698 -0.022797417 -0.4414828
vn -0.9974849 0.04447313 -0.055190675
vn -0.72072226 0.6929638 0.018990105
vn -0.92041093 0.39059934 -0.016604014
vn -0.8310244 0.19612867 0.5205112
vn -0.63668454 -0.0150828 0.77097684
vn -0.917617 -0.028524254 0.39644095
g Boulder06_0
f 3/3/3 2/2/2 1/1/1
f 4/4/4 3/3/3 1/1/1
f 4/4/4 5/5/5 3/3/3
f 5/5/5 6/6/6 3/3/3
f 7/7/7 6/6/6 5/5/5
f 8/8/8 7/7/7 5/5/5
f 8/8/8 9/9/9 7/7/7
f 10/10/10 6/6/6 7/7/7
f 9/9/9 11/11/11 7/7/7
f 9/9/9 12/12/12 11/11/11
f 12/12/12 13/13/13 11/11/11
f 14/14/14 10/10/10 7/7/7
f 7/7/7 11/11/11 14/14/14
f 11/11/11 13/13/13 15/15/15
f 15/15/15 13/13/13 16/16/16
f 17/17/17 15/15/15 16/16/16
f 15/15/15 17/17/17 18/18/18
f 14/14/14 19/19/19 10/10/10
f 19/19/19 15/15/15 18/18/18
f 19/19/19 20/20/20 10/10/10
f 18/18/18 21/21/21 19/19/19
f 21/21/21 20/20/20 19/19/19
f 22/22/22 11/11/11 15/15/15
f 11/11/11 22/22/22 14/14/14
f 22/22/22 15/15/15 19/19/19
f 14/14/14 22/22/22 19/19/19
f 25/25/25 24/24/24 23/23/23
f 24/24/24 26/26/26 23/23/23
f 27/27/27 26/26/26 24/24/24
f 23/23/23 26/26/26 28/28/28
f 29/29/29 23/23/23 28/28/28
f 28/28/28 30/30/30 29/29/29
f 30/30/30 31/31/31 29/29/29
f 32/32/32 26/26/26 27/27/27
f 28/28/28 26/26/26 32/32/32
f 33/33/33 32/32/32 27/27/27
f 33/33/33 27/27/27 34/34/34
f 35/35/35 27/27/27 24/24/24
f 35/35/35 24/24/24 36/36/36
f 35/35/35 36/36/36 27/27/27
f 24/24/24 37/37/37 36/36/36
f 36/36/36 37/37/37 38/38/38
f 39/39/39 36/36/36 38/38/38
f 39/39/39 40/40/40 36/36/36
f 36/36/36 41/41/41 27/27/27
f 27/27/27 41/41/41 34/34/34
f 40/40/40 41/41/41 36/36/36
f 41/41/41 42/42/42 34/34/34
f 42/42/42 43/43/43 34/34/34
f 43/43/43 42/42/42 44/44/44
f 45/45/45 43/43/43 44/44/44
f 46/46/46 42/42/42 41/41/41
f 40/40/40 46/46/46 41/41/41
f 44/44/44 42/42/42 46/46/46
f 47/47/47 46/46/46 40/40/40
f 48/48/48 47/47/47 40/40/40
f 46/46/46 47/47/47 49/49/49
f 50/50/50 46/46/46 49/49/49
f 50/50/50 44/44/44 46/46/46
f 50/50/50 49/49/49 44/44/44
f 49/49/49 51/51/51 44/44/44
f 44/44/44 51/51/51 52/52/52
f 45/45/45 44/44/44 52/52/52
f 52/52/52 51/51/51 53/53/53
f 53/53/53 51/51/51 54/54/54
f 55/55/55 53/53/53 54/54/54
f 56/56/56 52/52/52 53/53/53
f 56/56/56 57/57/57 52/52/52
f 57/57/57 58/58/58 52/52/52
f 52/52/52 58/58/58 45/45/45
f 58/58/58 57/57/57 59/59/59
f 58/58/58 60/60/60 45/45/45
f 45/45/45 60/60/60 61/61/61
f 62/62/62 58/58/58 59/59/59
f 60/60/60 58/58/58 62/62/62
f 59/59/59 63/63/63 62/62/62
f 60/60/60 64/64/64 61/61/61
f 61/61/61 64/64/64 65/65/65
f 66/66/66 61/61/61 65/65/65
f 66/66/66 65/65/65 67/67/67
f 64/64/64 60/60/60 68/68/68
f 68/68/68 60/60/60 62/62/62
f 65/65/65 64/64/64 68/68/68
f 68/68/68 62/62/62 65/65/65
f 63/63/63 69/69/69 62/62/62
f 62/62/62 69/69/69 65/65/65
f 65/65/65 70/70/70 67/67/67
f 67/67/67 70/70/70 32/32/32
f 70/70/70 65/65/65 71/71/71
f 65/65/65 69/69/69 71/71/71
f 70/70/70 71/71/71 32/32/32
f 72/72/72 69/69/69 63/63/63
f 71/71/71 69/69/69 72/72/72
f 73/73/73 72/72/72 63/63/63
f 74/74/74 71/71/71 72/72/72
f 32/32/32 71/71/71 75/75/75
f 75/75/75 28/28/28 32/32/32
f 71/71/71 76/76/76 75/75/75
f 75/75/75 77/77/77 28/28/28
f 77/77/77 78/78/78 28/28/28
f 77/77/77 79/79/79 78/78/78
f 79/79/79 80/80/80 78/78/78
f 81/81/81 80/80/80 79/79/79
f 82/82/82 81/81/81 79/79/79
f 76/76/76 83/83/83 75/75/75
f 83/83/83 84/84/84 75/75/75
f 84/84/84 83/83/83 85/85/85
f 85/85/85 86/86/86 82/82/82
f 83/83/83 86/86/86 85/85/85
f 86/86/86 83/83/83 76/76/76
f 86/86/86 87/87/87 82/82/82
f 88/88/88 86/86/86 76/76/76
f 87/87/87 86/86/86 88/88/88
f 73/73/73 87/87/87 88/88/88
f 91/91/91 90/90/90 89/89/89
f 92/92/92 91/91/91 89/89/89
f 95/95/95 94/94/94 93/93/93
f 94/94/94 96/96/96 93/93/93
f 93/93/93 96/96/96 97/97/97
f 98/98/98 93/93/93 97/97/97
f 97/97/97 96/96/96 99/99/99
f 96/96/96 100/100/100 99/99/99
f 100/100/100 96/96/96 94/94/94
f 99/99/99 100/100/100 101/101/101
f 100/100/100 102/102/102 101/101/101
f 103/103/103 102/102/102 100/100/100
f 94/94/94 104/104/104 103/103/103
f 105/105/105 103/103/103 100/100/100
f 105/105/105 100/100/100 94/94/94
f 105/105/105 94/94/94 103/103/103
