g Boulder11
v 0.0030932664 0.008230529 -0.007987327
v -0.0030263804 0.008244848 -0.007955625
v 4.216671E-05 0.005761466 -0.009255087
v 1.5950203E-05 0.011474952 -0.0050979946
v 0.0049537085 0.013646025 -0.0029293203
v -0.0049452973 0.01072246 -0.0029175424
v -0.005648155 0.008255251 -0.0064604525
v -0.00799005 0.0051099253 -0.004885032
v -0.008191367 0.009379014 1.166162E-05
v -0.009534172 0.0004446543 -0.0038847402
v -0.010543911 0.0051843394 0.0013706435
v -0.010723543 0.007690203 0.0047085304
v -0.0002105729 0.013203847 -0.0021785155
v -0.0043788045 0.011623638 -0.0016590715
v -0.0005437978 0.015747122 0.0021161595
v 0.0044119875 0.0151730105 -0.0013221381
v 0.0057371138 0.009615993 -0.005668075
v 0.008031359 0.0050723935 -0.004968207
v 0.005249319 -0.00029184818 -0.008528803
v 0.0067068026 -0.002978593 -0.006743788
v 0.003109393 -0.008776831 -0.008215849
v 0.00449081 -0.009427054 -0.0070235897
v -0.0066463384 0.011293721 0.0011087543
v -0.00801631 0.0093199825 0.0021577894
v -0.00694131 0.010968892 0.0030077344
v -0.009391856 0.0075349817 0.0065871845
v -0.008373214 0.007416249 0.008024217
v -0.005992902 0.012423627 0.003757589
v -0.0054845163 0.0057963165 0.010244834
v -0.005225463 0.013054571 0.0021176885
v -0.00354547 0.012949305 0.0001921916
v 0.0016888024 0.011700745 0.0067164567
v 0.005358019 0.013356775 0.0037134795
v -0.00021729934 0.012127951 0.0073069795
v 0.0029405237 0.016244726 0.0014692558
v -0.00025993455 0.009721896 0.008516995
v -0.003995674 0.0039437874 0.011119666
v -0.003048712 0.0037199133 0.011090543
v 0.0019372909 0.009811614 0.007521807
v 0.0024712735 0.009182427 0.008730413
v 0.004730054 0.010749378 0.004922291
v 0.00024333317 0.008789771 0.0083605
v -0.0016225134 0.002788571 0.011996772
v 0.0025728112 -0.0010844416 0.013024489
v 0.007856914 0.0120974975 0.0030596845
v 0.0071918163 0.009187221 0.0044317557
v 0.008698479 0.007016113 0.003747193
v 0.0095032025 0.009848335 0.0019221856
v 0.00571337 0.010043758 0.0059220307
v 0.007955238 0.008965226 0.005112789
v 0.0059663597 0.0056788055 0.008152818
v 0.0049594673 -0.0041509788 0.012361553
v 0.009551917 0.0064084595 0.0010894885
v 0.009312419 0.0071228817 0.0042115734
v 0.007881534 0.0035326981 0.007373087
v 0.006398427 -0.0070556425 0.010436093
v 0.00843232 0.00015033837 0.005927836
v 0.0073805247 -0.011466118 0.0056129117
v 0.0097233225 0.0045278277 0.0033462883
v 0.008565797 -0.0024233544 0.004775216
v 0.0094103785 -0.014150961 0.004938209
v 0.011722025 -0.006900172 0.004175341
v 0.009223415 -0.015528127 0.0038536356
v 0.011551905 -0.007967512 0.0031610073
v 0.0095012495 -0.017154805 0.00074045383
v 0.009449637 0.0048709116 0.002814091
v 0.009238232 0.00065195415 0.003099423
v 0.011722025 -0.006900172 0.004175341
v 0.011317181 -0.0025848816 0.0032078503
v 0.009552953 0.0018889979 0.0023298135
v 0.011776892 -0.0018214103 0.0022084513
v 0.011551905 -0.007967512 0.0031610073
v 0.011722025 -0.006900172 0.004175341
v 0.009903573 0.0021570635 -0.00078027725
v 0.009552953 0.0018889979 0.0023298135
v 0.011776892 -0.0018214103 0.0022084513
v 0.008677048 0.0023519623 -0.004261396
v 0.011747264 -0.0021707676 -0.0010608578
v 0.011746478 -0.010428042 -0.0015211677
v 0.008041339 -0.0054386947 -0.0051093507
v 0.009268269 -0.00013898373 -0.0036142087
v 0.011216344 -0.0035709047 -0.003279171
v 0.009999232 -0.007461066 -0.004755034
v 0.011746478 -0.010428042 -0.0015211677
v 0.005755696 -0.010022425 -0.005931904
v 0.008567405 -0.012834 -0.0050623463
v 0.004194928 -0.01504371 -0.0045882855
v 0.0020584166 -0.013393837 -0.0055777524
v 0.00854176 -0.010843367 -0.0056237387
v 0.00693849 -0.017191464 -0.0033596086
v 0.009628964 -0.014827027 -0.003292942
vt 0.4255769 0.46667325
vt 0.39863917 0.48971346
vt 0.41295242 0.48863214
vt 0.39867944 0.4775343
vt 0.40602276 0.4644045
vt 0.37286723 0.47873408
vt 0.38103384 0.48872477
vt 0.36919907 0.49571285
vt 0.3633495 0.47781304
vt 0.35310557 0.5006483
vt 0.34305316 0.48223445
vt 0.3401725 0.46597865
vt 0.38388875 0.46792212
vt 0.36999315 0.46726406
vt 0.38009048 0.4539608
vt 0.40022376 0.463378
vt 0.4189574 0.463901
vt 0.4275656 0.45523813
vt 0.44526756 0.45965248
vt 0.44819492 0.45159924
vt 0.46291065 0.44559956
vt 0.46242002 0.44202527
vt 0.36131614 0.46447855
vt 0.35194588 0.46815658
vt 0.35333708 0.4568601
vt 0.34037298 0.4468364
vt 0.35443315 0.41884977
vt 0.35871795 0.43714982
vt 0.3754112 0.41314262
vt 0.3622642 0.44553423
vt 0.36870697 0.4570982
vt 0.38342997 0.43556276
vt 0.39157575 0.4512387
vt 0.38015482 0.43016106
vt 0.39352983 0.45926583
vt 0.38491467 0.42515695
vt 0.38235217 0.41112435
vt 0.3872743 0.4107281
vt 0.3878904 0.43228242
vt 0.39500332 0.4284286
vt 0.39387465 0.44174448
vt 0.38856936 0.42406476
vt 0.39505452 0.40932542
vt 0.40841225 0.4060886
vt 0.40058285 0.45139
vt 0.4042808 0.44294152
vt 0.41000178 0.44098032
vt 0.40718505 0.45027405
vt 0.39831507 0.4371496
vt 0.40189624 0.43840683
vt 0.40412626 0.4267256
vt 0.41849807 0.40222242
vt 0.41738433 0.446349
vt 0.4072559 0.43742687
vt 0.40994343 0.42500654
vt 0.42774394 0.40175673
vt 0.41945335 0.42276046
vt 0.43893424 0.4038465
vt 0.4141685 0.43518347
vt 0.4267728 0.42116472
vt 0.45302898 0.40373945
vt 0.43873402 0.41680846
vt 0.4580224 0.40519017
vt 0.4429537 0.41859704
vt 0.46607137 0.40797415
vt 0.4160593 0.439591
vt 0.42284256 0.4295971
vt 0.43873402 0.41680846
vt 0.43103546 0.42568272
vt 0.4231971 0.43592253
vt 0.43131915 0.43032855
vt 0.4429537 0.41859704
vt 0.43873402 0.41680846
vt 0.42719048 0.4416877
vt 0.4231971 0.43592253
vt 0.43131915 0.43032855
vt 0.4322653 0.44943592
vt 0.43688443 0.43546087
vt 0.4552603 0.42341933
vt 0.45087504 0.4442252
vt 0.43656874 0.44412327
vt 0.44337648 0.43799376
vt 0.45444375 0.43481418
vt 0.4552603 0.42341933
vt 0.46197027 0.43875226
vt 0.46598935 0.42719382
vt 0.48088393 0.43383262
vt 0.4823993 0.4394292
vt 0.4626197 0.4315331
vt 0.47549906 0.41970223
vt 0.46745846 0.4202677
vn 0.32931527 0.4517759 -0.82912606
vn -0.1677972 0.7103086 -0.68359774
vn -0.0028123679 0.5883302 -0.8086159
vn -0.09365762 0.72675484 -0.6804818
vn 0.5473224 0.6391041 -0.54035556
vn -0.55062956 0.70423275 -0.4481777
vn -0.5676003 0.68142235 -0.46205366
vn -0.8465955 0.37730068 -0.3753934
vn -0.813545 0.47541896 -0.33484548
vn -0.8842909 0.2918617 -0.3644809
vn -0.87334955 0.34925753 -0.3395287
vn -0.73473823 0.67529434 -0.064320534
vn -0.2761619 0.810714 -0.51621443
vn -0.44441742 0.7822685 -0.43651932
vn -0.25534898 0.93510413 0.24571767
vn 0.31585243 0.8858444 -0.33987775
vn 0.6318867 0.43356094 -0.64245164
vn 0.79068 0.22267625 -0.57029855
vn 0.6885289 0.037860274 -0.72422
vn 0.69506717 -0.08680199 -0.71368563
vn 0.6047291 -0.17811611 -0.7762586
vn 0.5330328 -0.23347336 -0.8132443
vn -0.662065 0.70685667 -0.24904555
vn -0.76473725 0.6394965 -0.078873895
vn -0.729233 0.67008656 0.13857579
vn -0.68500674 0.69954294 0.20348379
vn -0.37664476 0.6643242 0.64560986
vn -0.3441171 0.7844613 0.5159495
vn -0.22848462 0.5933441 0.7718403
vn -0.39450195 0.89663965 0.20101169
vn -0.48601782 0.87003034 -0.08266784
vn 0.1544945 0.7146128 0.6822463
vn 0.4021527 0.7188755 0.567002
vn -0.13952346 0.7767067 0.61421484
vn 0.12180607 0.9766625 0.17689976
vn 0.06917637 0.41812003 0.9057539
vn 0.08024794 0.38104478 0.9210675
vn -0.03239878 0.47151786 0.88126117
vn 0.33070084 0.59850746 0.72967505
vn 0.26255587 0.46119446 0.8475637
vn 0.4439299 0.48038775 0.7564086
vn -0.04197039 0.49136004 0.8699447
vn 0.20982876 0.4155676 0.8850285
vn 0.45113897 0.32270965 0.8320649
vn 0.7532813 0.6134304 0.23721433
vn 0.6409295 0.43624952 0.63158196
vn 0.93167025 0.2322797 0.27935058
vn 0.90994596 0.38268915 -0.15983556
vn 0.4735277 0.5908986 0.65315425
vn 0.64851177 0.44554567 0.61718845
vn 0.4614747 0.3424347 0.8184006
vn 0.7802132 0.12088374 0.61372185
vn 0.9886923 0.09676219 -0.11456325
vn 0.84986913 0.22492746 0.47658166
vn 0.75922936 0.15432903 0.63226056
vn 0.92811203 -0.04975251 0.36896166
vn 0.91880107 -0.034187756 0.3932376
vn 0.57140046 -0.010801927 0.8206002
vn 0.95213866 -0.009999554 0.30550295
vn 0.8494029 -0.011384723 0.527622
vn 0.67327464 -0.12053653 0.7295013
vn 0.5038804 0.030959686 0.8632184
vn 0.94523233 -0.26407987 0.19182715
vn 0.98367304 -0.14134677 0.111392885
vn 0.9469156 -0.3202194 0.02846543
vn 0.99450725 0.059798982 0.0859032
vn 0.8506446 0.09820473 0.5164877
vn 0.5038804 0.030959686 0.8632184
vn 0.6774432 0.25060752 0.6915682
vn 0.9592382 0.25555947 0.120629154
vn 0.9780708 0.17320439 0.11566207
vn 0.98367304 -0.14134677 0.111392885
vn 0.5038804 0.030959686 0.8632184
vn 0.94318426 0.27833527 -0.18147461
vn 0.9592382 0.25555947 0.120629154
vn 0.9780708 0.17320439 0.11566207
vn 0.8714202 0.07712124 -0.48443708
vn 0.97426516 0.16302787 -0.15565725
vn 0.97825235 -0.18421946 -0.095318064
vn 0.51635057 0.027649637 -0.85593086
vn 0.78974384 0.1758956 -0.58767784
vn 0.7840499 0.11697183 -0.6095764
vn 0.6777221 0.015885951 -0.73514646
vn 0.97825235 -0.18421946 -0.095318064
vn 0.3102811 -0.20052113 -0.92925614
vn 0.5202835 -0.32539377 -0.789572
vn 0.19361085 -0.37804118 -0.9053174
vn 0.2758323 -0.39456475 -0.8764903
vn 0.44544655 -0.13834271 -0.88455564
vn 0.3509553 -0.5250822 -0.7753187
vn 0.7291009 -0.40636823 -0.55070573
g Boulder11_0
f 3/3/3 2/2/2 1/1/1
f 2/2/2 4/4/4 1/1/1
f 1/1/1 4/4/4 5/5/5
f 6/6/6 4/4/4 2/2/2
f 7/7/7 6/6/6 2/2/2
f 7/7/7 8/8/8 6/6/6
f 8/8/8 9/9/9 6/6/6
f 9/9/9 8/8/8 10/10/10
f 11/11/11 9/9/9 10/10/10
f 11/11/11 12/12/12 9/9/9
f 13/13/13 4/4/4 6/6/6
f 5/5/5 4/4/4 13/13/13
f 14/14/14 6/6/6 9/9/9
f 14/14/14 13/13/13 6/6/6
f 15/15/15 13/13/13 14/14/14
f 16/16/16 5/5/5 13/13/13
f 16/16/16 13/13/13 15/15/15
f 17/17/17 1/1/1 5/5/5
f 17/17/17 18/18/18 1/1/1
f 17/17/17 5/5/5 18/18/18
f 18/18/18 19/19/19 1/1/1
f 20/20/20 19/19/19 18/18/18
f 21/21/21 19/19/19 20/20/20
f 22/22/22 21/21/21 20/20/20
f 23/23/23 14/14/14 9/9/9
f 23/23/23 9/9/9 24/24/24
f 12/12/12 24/24/24 9/9/9
f 25/25/25 24/24/24 12/12/12
f 25/25/25 23/23/23 24/24/24
f 26/26/26 25/25/25 12/12/12
f 26/26/26 27/27/27 25/25/25
f 27/27/27 28/28/28 25/25/25
f 25/25/25 28/28/28 23/23/23
f 27/27/27 29/29/29 28/28/28
f 23/23/23 30/30/30 14/14/14
f 28/28/28 30/30/30 23/23/23
f 30/30/30 31/31/31 14/14/14
f 31/31/31 15/15/15 14/14/14
f 31/31/31 30/30/30 15/15/15
f 30/30/30 28/28/28 32/32/32
f 30/30/30 32/32/32 15/15/15
f 15/15/15 32/32/32 33/33/33
f 29/29/29 34/34/34 28/28/28
f 28/28/28 34/34/34 32/32/32
f 35/35/35 15/15/15 33/33/33
f 35/35/35 16/16/16 15/15/15
f 35/35/35 33/33/33 16/16/16
f 36/36/36 34/34/34 29/29/29
f 37/37/37 36/36/36 29/29/29
f 37/37/37 38/38/38 36/36/36
f 32/32/32 34/34/34 39/39/39
f 33/33/33 32/32/32 39/39/39
f 34/34/34 36/36/36 39/39/39
f 39/39/39 36/36/36 40/40/40
f 39/39/39 40/40/40 41/41/41
f 41/41/41 33/33/33 39/39/39
f 38/38/38 42/42/42 36/36/36
f 36/36/36 42/42/42 40/40/40
f 42/42/42 38/38/38 43/43/43
f 40/40/40 42/42/42 43/43/43
f 43/43/43 44/44/44 40/40/40
f 33/33/33 45/45/45 16/16/16
f 16/16/16 45/45/45 5/5/5
f 41/41/41 46/46/46 33/33/33
f 46/46/46 45/45/45 33/33/33
f 46/46/46 47/47/47 45/45/45
f 45/45/45 48/48/48 5/5/5
f 47/47/47 48/48/48 45/45/45
f 5/5/5 48/48/48 18/18/18
f 41/41/41 49/49/49 46/46/46
f 40/40/40 49/49/49 41/41/41
f 49/49/49 50/50/50 46/46/46
f 49/49/49 40/40/40 50/50/50
f 46/46/46 50/50/50 47/47/47
f 44/44/44 51/51/51 40/40/40
f 40/40/40 51/51/51 50/50/50
f 44/44/44 52/52/52 51/51/51
f 18/18/18 48/48/48 53/53/53
f 53/53/53 48/48/48 47/47/47
f 50/50/50 51/51/51 54/54/54
f 50/50/50 54/54/54 47/47/47
f 52/52/52 55/55/55 51/51/51
f 51/51/51 55/55/55 54/54/54
f 52/52/52 56/56/56 55/55/55
f 56/56/56 57/57/57 55/55/55
f 54/54/54 55/55/55 57/57/57
f 56/56/56 58/58/58 57/57/57
f 47/47/47 54/54/54 59/59/59
f 59/59/59 54/54/54 57/57/57
f 58/58/58 60/60/60 57/57/57
f 59/59/59 57/57/57 60/60/60
f 58/58/58 61/61/61 60/60/60
f 61/61/61 62/62/62 60/60/60
f 62/62/62 61/61/61 63/63/63
f 64/64/64 62/62/62 63/63/63
f 63/63/63 65/65/65 64/64/64
f 66/66/66 47/47/47 59/59/59
f 66/66/66 53/53/53 47/47/47
f 67/67/67 59/59/59 60/60/60
f 60/60/60 68/68/68 67/67/67
f 68/68/68 69/69/69 67/67/67
f 59/59/59 67/67/67 70/70/70
f 66/66/66 59/59/59 70/70/70
f 67/67/67 69/69/69 70/70/70
f 69/69/69 71/71/71 70/70/70
f 71/71/71 69/69/69 72/72/72
f 69/69/69 73/73/73 72/72/72
f 74/74/74 53/53/53 66/66/66
f 75/75/75 74/74/74 66/66/66
f 75/75/75 76/76/76 74/74/74
f 77/77/77 53/53/53 74/74/74
f 77/77/77 18/18/18 53/53/53
f 77/77/77 20/20/20 18/18/18
f 76/76/76 78/78/78 74/74/74
f 76/76/76 64/64/64 78/78/78
f 64/64/64 79/79/79 78/78/78
f 80/80/80 20/20/20 77/77/77
f 22/22/22 20/20/20 80/80/80
f 81/81/81 77/77/77 74/74/74
f 74/74/74 78/78/78 81/81/81
f 81/81/81 80/80/80 77/77/77
f 78/78/78 82/82/82 81/81/81
f 81/81/81 82/82/82 80/80/80
f 82/82/82 78/78/78 83/83/83
f 82/82/82 83/83/83 80/80/80
f 78/78/78 84/84/84 83/83/83
f 65/65/65 84/84/84 64/64/64
f 85/85/85 22/22/22 80/80/80
f 80/80/80 83/83/83 85/85/85
f 86/86/86 84/84/84 65/65/65
f 83/83/83 84/84/84 86/86/86
f 85/85/85 87/87/87 22/22/22
f 87/87/87 88/88/88 22/22/22
f 83/83/83 89/89/89 85/85/85
f 85/85/85 89/89/89 87/87/87
f 89/89/89 83/83/83 86/86/86
f 89/89/89 86/86/86 87/87/87
f 87/87/87 86/86/86 90/90/90
f 91/91/91 86/86/86 65/65/65
f 90/90/90 91/91/91 65/65/65
f 86/86/86 91/91/91 90/90/90
