g Boulder28
v 0.003088135 0.009608006 -0.007621234
v -3.555923E-05 0.01258022 -0.005243197
v -0.003029821 0.009727274 -0.007542349
v 6.706953E-05 0.007304794 -0.008561004
v 0.0001296802 0.001136538 -0.00882876
v 0.005314539 0.0008653264 -0.007577249
v 0.003239627 -0.007888367 -0.006742815
v 0.0001751831 -0.005181407 -0.007934055
v 0.008120135 -0.004994546 -0.004246152
v 0.005877513 -0.009556809 -0.004663808
v 0.01009058 -0.007166316 -0.003820458
v 0.01126552 -0.003396365 -0.002771248
v 0.009293674 0.0002252358 -0.003269539
v 0.008666759 -0.0104982 -0.004362332
v 0.005878945 -0.01201016 -0.004193239
v 0.008703779 -0.01263337 -0.003738977
v 0.01183603 -0.0107333 -0.0007833873
v 0.005707659 -0.01489232 -0.001797932
v 0.01144504 -0.01452919 0.0004183651
v 0.009767225 -0.01496793 -0.002054648
v -0.003029821 0.009727274 -0.007542349
v -0.005005773 0.01157106 -0.003222859
v -0.005727817 0.01086913 -0.005530764
v -3.555923E-05 0.01258022 -0.005243197
v -0.0006834 0.01592801 0.0008774532
v 0.004867043 0.01440955 -0.003502764
v -0.003647495 0.01338199 -0.0006228487
v -0.005342355 0.01323605 0.001089503
v 0.003088135 0.009608006 -0.007621234
v 0.001749565 0.01142345 0.00504876
v 0.005094192 0.01351191 0.002757036
v -0.006117017 0.01235718 0.002588061
v 0.002800753 0.01647428 0.0002436068
v 0.005702623 0.01064628 -0.005678161
v 0.008026496 0.005818782 -0.004789122
v 0.005314539 0.0008653264 -0.007577249
v 0.008120135 -0.004994546 -0.004246152
v 0.009293674 0.0002252358 -0.003269539
v 0.009054211 0.0107649 0.001992786
v 0.009889232 0.00216188 -0.0009116606
v 0.008903267 0.006782198 0.002366839
v 0.01176844 -0.002290358 -0.000900619
v 0.01126552 -0.003396365 -0.002771248
v 0.01009058 -0.007166316 -0.003820458
v 0.01183603 -0.0107333 -0.0007833873
v 0.01187792 -0.008626063 0.002775983
v 0.01144504 -0.01452919 0.0004183651
v 0.01129079 -0.01329617 0.002732373
v 0.01206176 -0.002154459 0.001540075
v 0.01174066 -0.007938051 0.004036314
v 0.01100151 -0.01261265 0.004148879
v 0.009808491 0.00169169 0.001430515
v 0.01130938 -0.003340058 0.002908862
v 0.008869369 -0.007326556 0.005867343
v 0.007626981 -0.01239897 0.00549785
v 0.004647158 -0.01107491 0.008955413
v 0.009567843 5.472124E-05 0.003281876
v 0.009555831 0.005813823 0.004559267
v 0.005982874 -0.001816773 0.009062839
v 0.003538679 0.008194076 0.007190594
v 0.006067751 0.009605268 0.00513242
v 0.0006457065 -0.002006607 0.01026736
v 0.0009790759 -0.01027311 0.01023884
v 0.005168396 0.01103797 0.003017979
v 0.002093746 0.009226663 0.005588376
v -0.0003679389 0.01142508 0.005700675
v -0.0001095877 0.009026391 0.006493792
v -0.003928987 0.007724599 0.007598233
v -0.006836504 0.009728738 0.005569952
v -0.002056261 0.006079489 0.007987989
v -0.0007940409 0.005655142 0.008721887
v 0.0004721066 0.00782591 0.007498885
v 0.001689554 0.004466144 0.009280149
v -0.00169823 -0.002260411 0.009272271
vt 0.5304525 0.4423155
vt 0.5227757 0.4382864
vt 0.52294 0.4388801
vt 0.5290751 0.4408649
vt 0.5342393 0.4383447
vt 0.5405698 0.4389852
vt 0.5440595 0.4328221
vt 0.5387224 0.4343317
vt 0.5479737 0.432401
vt 0.5481746 0.430138
vt 0.5522586 0.4316668
vt 0.5511376 0.4321899
vt 0.545512 0.433778
vt 0.5525579 0.4304746
vt 0.5497276 0.4284513
vt 0.5539077 0.4286468
vt 0.5568625 0.4258366
vt 0.5509755 0.4236057
vt 0.5586092 0.4221631
vt 0.5566806 0.4254866
vt 0.52294 0.4388801
vt 0.516966 0.4319526
vt 0.5179774 0.4349757
vt 0.5227757 0.4382864
vt 0.5183351 0.4314651
vt 0.5264902 0.439164
vt 0.5153112 0.4289801
vt 0.5125542 0.4251193
vt 0.5304525 0.4423155
vt 0.5209095 0.420882
vt 0.5257267 0.42879
vt 0.5113025 0.4211276
vt 0.5223349 0.433812
vt 0.5322257 0.4412956
vt 0.5394819 0.4385242
vt 0.5405698 0.4389852
vt 0.5479737 0.432401
vt 0.545512 0.433778
vt 0.533943 0.4291291
vt 0.5442308 0.4308592
vt 0.5375238 0.42632
vt 0.5507308 0.4296623
vt 0.5511376 0.4321899
vt 0.5522586 0.4316668
vt 0.5568625 0.4258366
vt 0.5549878 0.4202872
vt 0.5586092 0.4221631
vt 0.5573107 0.4184693
vt 0.5506095 0.4253378
vt 0.5540699 0.4180961
vt 0.5562178 0.416005
vt 0.5438662 0.4262279
vt 0.5500517 0.4218827
vt 0.5487114 0.4137791
vt 0.550712 0.4125411
vt 0.5446205 0.4055578
vt 0.5443852 0.4218267
vt 0.5387055 0.4216816
vt 0.5387412 0.4081205
vt 0.5259678 0.4146496
vt 0.5291662 0.4205941
vt 0.5307953 0.4042813
vt 0.5385052 0.4025113
vt 0.5273232 0.4252045
vt 0.5236424 0.4178733
vt 0.5170327 0.416869
vt 0.5199592 0.4144703
vt 0.5164009 0.4112637
vt 0.5124596 0.4153319
vt 0.5202592 0.4105074
vt 0.5228779 0.410037
vt 0.5219566 0.4128357
vt 0.5262737 0.408356
vt 0.528338 0.4057292
vn 0.303324 0.3088848 -0.9014348
vn -0.1269626 0.7535852 -0.6449727
vn -0.1061403 0.6984926 -0.7077021
vn 0.1737006 0.2108903 -0.9619529
vn 0.240912 -0.04217083 -0.9696304
vn 0.4810725 -0.03924324 -0.875802
vn 0.4296508 -0.1806537 -0.8847398
vn 0.2336416 -0.1418197 -0.9619245
vn 0.5196992 -0.07791752 -0.8507888
vn 0.4111574 -0.1507118 -0.8990192
vn 0.6369569 -0.02549125 -0.7704778
vn 0.7520674 0.08142763 -0.6540368
vn 0.8029416 0.09039026 -0.5891641
vn 0.46451 -0.1393018 -0.874543
vn 0.00681968 -0.459629 -0.8880848
vn 0.4240883 -0.3950139 -0.8149313
vn 0.9501219 -0.1117037 -0.2911883
vn -0.04042666 -0.6198035 -0.783715
vn 0.9439238 -0.1627078 -0.2872874
vn 0.5578449 -0.378834 -0.73844
vn -0.1061403 0.6984926 -0.7077021
vn -0.3232388 0.8285185 -0.4572459
vn -0.2322782 0.8516701 -0.4697925
vn -0.1269626 0.7535852 -0.6449727
vn -0.263426 0.9530053 0.149625
vn 0.514403 0.7376791 -0.437286
vn -0.4495702 0.8923093 -0.04087353
vn -0.229355 0.8219104 0.5214016
vn 0.303324 0.3088848 -0.9014348
vn 0.123006 0.6149186 0.7789381
vn 0.4792172 0.7125441 0.5124762
vn -0.1181889 0.8020997 0.5853781
vn 0.1790608 0.9822257 0.05630132
vn 0.672626 0.3831456 -0.6330668
vn 0.8088978 0.1826026 -0.5588745
vn 0.4810725 -0.03924324 -0.875802
vn 0.5196992 -0.07791752 -0.8507888
vn 0.8029416 0.09039026 -0.5891641
vn 0.9018847 0.427538 0.06176718
vn 0.9564279 0.2092928 -0.2035738
vn 0.9346538 0.2634462 0.2387854
vn 0.9622641 0.1556426 -0.2232112
vn 0.7520674 0.08142763 -0.6540368
vn 0.6369569 -0.02549125 -0.7704778
vn 0.9501219 -0.1117037 -0.2911883
vn 0.997409 -0.03670831 0.06186862
vn 0.9439238 -0.1627078 -0.2872874
vn 0.9878516 -0.1107599 0.1090016
vn 0.9753711 0.1867884 0.117309
vn 0.6733971 0.04431961 0.7379513
vn 0.6501906 -0.1299369 0.7485778
vn 0.970611 0.2163607 0.1053674
vn 0.7055522 0.2270566 0.6712983
vn 0.6770051 -0.04758333 0.7344385
vn 0.5924135 -0.1344254 0.79434
vn 0.4777164 -0.08555672 0.8743381
vn 0.8509253 0.07706176 0.5196032
vn 0.7433367 0.252122 0.6195847
vn 0.5719824 0.05647634 0.8183193
vn 0.360979 0.3752272 0.8537557
vn 0.5097507 0.502247 0.6985
vn 0.1629356 0.08452616 0.9830094
vn 0.264804 -0.02262406 0.9640368
vn 0.425859 0.366525 0.8272263
vn 0.2048903 0.6133832 0.7627457
vn -0.02788348 0.7474945 0.6636824
vn 0.1293131 0.4525976 0.8822888
vn -0.09232385 0.5958708 0.7977558
vn -0.1919859 0.6773617 0.7101567
vn 0.01410263 0.4360509 0.8998115
vn -0.1709347 0.3317183 0.927763
vn -0.03282204 0.578415 0.8150822
vn 0.146885 0.2151239 0.9654773
vn -0.2787637 0.1392847 0.9502055
g Boulder28_0
f 3/3/3 2/2/2 1/1/1
f 4/4/4 3/3/3 1/1/1
f 4/4/4 1/1/1 5/5/5
f 1/1/1 6/6/6 5/5/5
f 5/5/5 6/6/6 7/7/7
f 8/8/8 5/5/5 7/7/7
f 7/7/7 6/6/6 9/9/9
f 10/10/10 7/7/7 9/9/9
f 9/9/9 11/11/11 10/10/10
f 12/12/12 11/11/11 9/9/9
f 13/13/13 12/12/12 9/9/9
f 11/11/11 14/14/14 10/10/10
f 10/10/10 14/14/14 15/15/15
f 14/14/14 11/11/11 16/16/16
f 14/14/14 16/16/16 15/15/15
f 11/11/11 17/17/17 16/16/16
f 15/15/15 16/16/16 18/18/18
f 16/16/16 17/17/17 19/19/19
f 16/16/16 20/20/20 18/18/18
f 20/20/20 16/16/16 19/19/19
f 23/23/23 22/22/22 21/21/21
f 22/22/22 24/24/24 21/21/21
f 25/25/25 24/24/24 22/22/22
f 26/26/26 24/24/24 25/25/25
f 27/27/27 25/25/25 22/22/22
f 27/27/27 28/28/28 25/25/25
f 29/29/29 24/24/24 26/26/26
f 28/28/28 30/30/30 25/25/25
f 25/25/25 30/30/30 31/31/31
f 28/28/28 32/32/32 30/30/30
f 33/33/33 26/26/26 25/25/25
f 33/33/33 25/25/25 31/31/31
f 33/33/33 31/31/31 26/26/26
f 34/34/34 29/29/29 26/26/26
f 34/34/34 35/35/35 29/29/29
f 34/34/34 26/26/26 35/35/35
f 35/35/35 36/36/36 29/29/29
f 37/37/37 36/36/36 35/35/35
f 38/38/38 37/37/37 35/35/35
f 26/26/26 39/39/39 35/35/35
f 31/31/31 39/39/39 26/26/26
f 38/38/38 35/35/35 40/40/40
f 35/35/35 39/39/39 40/40/40
f 41/41/41 39/39/39 31/31/31
f 40/40/40 39/39/39 41/41/41
f 40/40/40 42/42/42 38/38/38
f 42/42/42 43/43/43 38/38/38
f 43/43/43 42/42/42 44/44/44
f 42/42/42 45/45/45 44/44/44
f 46/46/46 45/45/45 42/42/42
f 47/47/47 45/45/45 46/46/46
f 48/48/48 47/47/47 46/46/46
f 49/49/49 42/42/42 40/40/40
f 49/49/49 46/46/46 42/42/42
f 46/46/46 50/50/50 48/48/48
f 50/50/50 51/51/51 48/48/48
f 52/52/52 49/49/49 40/40/40
f 52/52/52 40/40/40 41/41/41
f 49/49/49 53/53/53 46/46/46
f 53/53/53 50/50/50 46/46/46
f 53/53/53 49/49/49 52/52/52
f 51/51/51 50/50/50 54/54/54
f 55/55/55 51/51/51 54/54/54
f 55/55/55 54/54/54 56/56/56
f 50/50/50 53/53/53 57/57/57
f 57/57/57 53/53/53 52/52/52
f 54/54/54 50/50/50 57/57/57
f 58/58/58 57/57/57 52/52/52
f 57/57/57 58/58/58 54/54/54
f 41/41/41 58/58/58 52/52/52
f 54/54/54 59/59/59 56/56/56
f 58/58/58 59/59/59 54/54/54
f 60/60/60 59/59/59 58/58/58
f 61/61/61 60/60/60 58/58/58
f 61/61/61 58/58/58 41/41/41
f 56/56/56 59/59/59 62/62/62
f 62/62/62 59/59/59 60/60/60
f 63/63/63 56/56/56 62/62/62
f 64/64/64 61/61/61 41/41/41
f 60/60/60 61/61/61 64/64/64
f 64/64/64 41/41/41 31/31/31
f 64/64/64 31/31/31 65/65/65
f 65/65/65 60/60/60 64/64/64
f 31/31/31 30/30/30 65/65/65
f 30/30/30 66/66/66 65/65/65
f 32/32/32 66/66/66 30/30/30
f 66/66/66 67/67/67 65/65/65
f 65/65/65 67/67/67 60/60/60
f 68/68/68 66/66/66 32/32/32
f 67/67/67 66/66/66 68/68/68
f 69/69/69 68/68/68 32/32/32
f 70/70/70 67/67/67 68/68/68
f 70/70/70 71/71/71 67/67/67
f 67/67/67 72/72/72 60/60/60
f 71/71/71 72/72/72 67/67/67
f 60/60/60 72/72/72 73/73/73
f 72/72/72 71/71/71 73/73/73
f 73/73/73 62/62/62 60/60/60
f 73/73/73 71/71/71 62/62/62
f 71/71/71 74/74/74 62/62/62
