g Boulder18
v -0.3845102 0.3873414 0.06467804
v -0.5950737 0.1772832 -0.1376596
v -0.4361947 0.2057431 -0.2038651
v -0.5105556 0.347047 0.1461728
v -0.316152 0.4748613 0.2296701
v -0.3713991 0.4625157 0.3462228
v -0.4929568 0.3299346 0.553641
v -0.5638002 0.1975064 0.2204306
v -0.6319749 0.06935077 -0.06068085
v -0.6003537 0.0904665 0.2974191
v -0.5114886 0.2067162 0.6136521
v -0.6639634 -0.02421429 0.006052551
v -0.5590918 -0.02200436 0.3723953
v -0.5037076 0.02969761 0.5503134
v -0.626667 -0.1187935 0.05243317
v -0.5556944 -0.2038906 0.0846585
v -0.5201449 -0.1001965 0.4617068
v -0.5061619 -0.129526 0.5724869
v -0.5037076 0.02969761 0.5503134
v -0.3738089 -0.2415182 0.7313382
v -0.4391023 -0.2450204 0.6619235
v -0.2718053 -0.4175306 0.5610287
v -0.3229414 -0.4339868 0.5063046
v -0.1933894 -0.4011079 0.5789517
v -0.158438 -0.3218071 0.6824692
v -0.2072142 0.07168049 0.7404165
v -0.09973983 -0.2895028 0.7042642
v -0.5114886 0.2067162 0.6136521
v -0.1980339 0.1648586 0.7681409
v -0.06531417 -0.1431485 0.7476742
v -0.3797212 0.2364914 0.6406235
v -0.4929568 0.3299346 0.553641
v -0.03813889 0.3685123 0.5322689
v -0.3713991 0.4625157 0.3462228
v -0.05781997 0.5595963 0.2747763
v -0.04249649 0.1052883 0.8122455
v -0.04630112 0.06372349 0.8204599
v 0.1040559 0.1981388 0.7371085
v 0.1915279 0.2633573 0.6817966
v -0.2623267 0.4970092 0.2850674
v -0.316152 0.4748613 0.2296701
v 0.2901152 0.5115075 0.34392
v 0.302848 0.4132016 0.5064194
v 0.3994917 0.4402207 0.3491019
v 0.4745445 0.3461637 0.1410947
v 0.2236757 0.6067417 0.2466525
v 0.469131 0.348284 -0.07738067
v 0.2759553 0.5634452 -0.08177643
v 0.4059623 0.4469432 -0.1953592
v 0.2813539 0.5074987 -0.1792191
v 0.2946312 0.3699013 -0.418873
v -0.3845102 0.3873414 0.06467804
v -0.2623267 0.4970092 0.2850674
v -0.1873041 0.4275362 -0.01371796
v -0.2452836 0.2768085 -0.2639615
v -0.4361947 0.2057431 -0.2038651
v 0.2813539 0.5074987 -0.1792191
v 0.2759553 0.5634452 -0.08177643
v -0.5201449 -0.1001965 0.4617068
v -0.5119139 -0.367171 0.2099905
v -0.5556944 -0.2038906 0.0846585
v -0.5130655 -0.2844204 0.5109951
v -0.5061619 -0.129526 0.5724869
v -0.3548765 -0.468001 0.3742898
v -0.4391023 -0.2450204 0.6619235
vt 0.4338444 0.3473598
vt 0.4380175 0.3434322
vt 0.4351777 0.344256
vt 0.4381766 0.3495537
vt 0.4359285 0.3547179
vt 0.4383547 0.3564097
vt 0.4462301 0.3574032
vt 0.4448158 0.3492647
vt 0.4436792 0.342725
vt 0.4502036 0.3488399
vt 0.4519622 0.3561596
vt 0.4485872 0.3421119
vt 0.45506 0.3479957
vt 0.4563972 0.3516188
vt 0.4526988 0.3415982
vt 0.4543129 0.3418672
vt 0.4582399 0.3471677
vt 0.4617696 0.3505883
vt 0.4563972 0.3516188
vt 0.4680119 0.3564251
vt 0.4668499 0.3532079
vt 0.4737988 0.3550206
vt 0.4731967 0.3525922
vt 0.4733109 0.3576578
vt 0.4706151 0.3611225
vt 0.4628791 0.3635195
vt 0.4682999 0.3653679
vt 0.4519622 0.3561596
vt 0.4576786 0.3656786
vt 0.4653481 0.3685617
vt 0.4512593 0.3591472
vt 0.4462301 0.3574032
vt 0.4448737 0.3687774
vt 0.4383547 0.3564097
vt 0.4345473 0.3653058
vt 0.4583344 0.371051
vt 0.4603718 0.3731058
vt 0.4538212 0.3749244
vt 0.4507365 0.3768712
vt 0.4361091 0.357563
vt 0.4359285 0.3547179
vt 0.4362005 0.3756547
vt 0.4432281 0.3778767
vt 0.4398379 0.3849778
vt 0.4319215 0.3818815
vt 0.4339267 0.3713583
vt 0.4246894 0.3777296
vt 0.4242993 0.3670824
vt 0.4191104 0.364315
vt 0.4237313 0.3642804
vt 0.4223342 0.357389
vt 0.4338444 0.3473598
vt 0.4361091 0.357563
vt 0.4328998 0.3549303
vt 0.4313799 0.3453578
vt 0.4351777 0.344256
vt 0.4237313 0.3642804
vt 0.4242993 0.3670824
vt 0.4582399 0.3471677
vt 0.4625121 0.3440328
vt 0.4543129 0.3418672
vt 0.4652884 0.349905
vt 0.4617696 0.3505883
vt 0.4711381 0.3495315
vt 0.4668499 0.3532079
vn -0.8600247 0.4649006 0.2102973
vn -0.8563401 0.4727963 0.2077142
vn -0.3987761 0.8114249 -0.427279
vn -0.7400557 0.6644304 -0.1041625
vn -0.4352777 0.8524172 0.2896865
vn -0.4352781 0.8524169 0.2896864
vn -0.608338 0.4967718 0.6189853
vn -0.9049507 0.4192075 0.07300216
vn -0.9303917 0.3614827 0.06084024
vn -0.9764945 0.09281796 0.1945336
vn -0.608338 0.4967718 0.6189853
vn -0.9800244 0.1140273 0.1629416
vn -0.9230826 -0.2593238 0.2840237
vn -0.8333406 0.08699224 0.5458715
vn -0.9431583 -0.2264337 -0.2432699
vn -0.9431583 -0.2264336 -0.2432699
vn -0.8333406 0.08699224 0.5458715
vn -0.8333406 0.08699224 0.5458715
vn -0.8333406 0.08699224 0.5458715
vn -0.5366018 -0.3463453 0.7694825
vn -0.536602 -0.3463453 0.7694825
vn 0.08564967 -0.9885638 0.1241207
vn 0.08564967 -0.9885638 0.1241207
vn 0.5993426 -0.5554025 0.5764688
vn 0.5993426 -0.5554025 0.5764688
vn 0.268647 -0.07793463 0.9600807
vn 0.5564066 -0.5916378 0.5834178
vn -0.608338 0.4967718 0.6189853
vn -0.1247935 0.7349483 0.6665415
vn 0.5018091 -0.4163648 0.758174
vn -0.608338 0.4967718 0.6189853
vn -0.608338 0.4967718 0.6189853
vn -0.1224113 0.7436276 0.6572925
vn -0.4352781 0.8524169 0.2896864
vn -0.1339427 0.7540776 0.6429825
vn 0.249656 0.0418666 0.9674292
vn 0.487044 -0.3636462 0.7940716
vn 0.4841872 -0.3640416 0.7956359
vn 0.7178261 0.1135971 0.6868925
vn -0.4352781 0.8524171 0.2896864
vn -0.4352777 0.8524172 0.2896865
vn 0.4399109 0.7293746 0.5239189
vn 0.4399108 0.7293746 0.5239189
vn 0.9354429 0.3044195 0.1796532
vn 0.9447367 0.3260866 0.03376574
vn -0.1179758 0.7567549 0.6429649
vn 0.9502876 0.28566 0.1239017
vn 0.4876058 0.6851449 0.5411257
vn 0.4876056 0.6851449 0.5411258
vn -0.1917152 0.892208 -0.4089134
vn 0.6093113 0.4440611 -0.6569242
vn -0.8600247 0.4649006 0.2102973
vn -0.4352781 0.8524171 0.2896864
vn -0.317061 0.8573141 -0.4055675
vn -0.6496394 0.1615644 -0.7428765
vn -0.3987761 0.8114249 -0.427279
vn -0.1917152 0.892208 -0.4089134
vn 0.4876058 0.6851449 0.5411257
vn -0.8333406 0.08699224 0.5458715
vn -0.859145 -0.3598234 0.3638639
vn -0.9431583 -0.2264336 -0.2432699
vn -0.9118197 -0.3439045 0.2243088
vn -0.8333406 0.08699224 0.5458715
vn 0.1035196 -0.9849187 0.1386321
vn -0.536602 -0.3463453 0.7694825
g Boulder18_0
f 3/3/3 2/2/2 1/1/1
f 2/2/2 4/4/4 1/1/1
f 1/1/1 4/4/4 5/5/5
f 4/4/4 6/6/6 5/5/5
f 7/7/7 6/6/6 4/4/4
f 8/8/8 4/4/4 2/2/2
f 8/8/8 7/7/7 4/4/4
f 9/9/9 8/8/8 2/2/2
f 8/8/8 10/10/10 7/7/7
f 8/8/8 9/9/9 10/10/10
f 10/10/10 11/11/11 7/7/7
f 9/9/9 12/12/12 10/10/10
f 10/10/10 13/13/13 11/11/11
f 10/10/10 12/12/12 13/13/13
f 13/13/13 14/14/14 11/11/11
f 12/12/12 15/15/15 13/13/13
f 13/13/13 15/15/15 16/16/16
f 17/17/17 14/14/14 13/13/13
f 17/17/17 13/13/13 16/16/16
f 19/19/19 17/17/17 18/18/18
f 20/20/20 19/19/19 18/18/18
f 21/21/21 20/20/20 18/18/18
f 20/20/20 21/21/21 22/22/22
f 21/21/21 23/23/23 22/22/22
f 22/22/22 24/24/24 20/20/20
f 24/24/24 25/25/25 20/20/20
f 20/20/20 26/26/26 19/19/19
f 25/25/25 26/26/26 20/20/20
f 26/26/26 25/25/25 27/27/27
f 26/26/26 28/28/28 19/19/19
f 29/29/29 26/26/26 27/27/27
f 28/28/28 26/26/26 29/29/29
f 27/27/27 30/30/30 29/29/29
f 31/31/31 28/28/28 29/29/29
f 28/28/28 31/31/31 32/32/32
f 33/33/33 32/32/32 31/31/31
f 29/29/29 33/33/33 31/31/31
f 33/33/33 34/34/34 32/32/32
f 34/34/34 33/33/33 35/35/35
f 36/36/36 29/29/29 30/30/30
f 33/33/33 29/29/29 36/36/36
f 37/37/37 36/36/36 30/30/30
f 38/38/38 36/36/36 37/37/37
f 38/38/38 33/33/33 36/36/36
f 38/38/38 39/39/39 33/33/33
f 40/40/40 34/34/34 35/35/35
f 40/40/40 41/41/41 34/34/34
f 42/42/42 33/33/33 39/39/39
f 43/43/43 42/42/42 39/39/39
f 42/42/42 43/43/43 44/44/44
f 44/44/44 45/45/45 42/42/42
f 42/42/42 46/46/46 33/33/33
f 45/45/45 46/46/46 42/42/42
f 46/46/46 35/35/35 33/33/33
f 46/46/46 45/45/45 47/47/47
f 48/48/48 46/46/46 47/47/47
f 35/35/35 46/46/46 48/48/48
f 47/47/47 49/49/49 48/48/48
f 49/49/49 50/50/50 48/48/48
f 51/51/51 50/50/50 49/49/49
f 41/41/41 53/53/53 52/52/52
f 53/53/53 35/35/35 52/52/52
f 35/35/35 54/54/54 52/52/52
f 51/51/51 55/55/55 54/54/54
f 54/54/54 55/55/55 52/52/52
f 55/55/55 56/56/56 52/52/52
f 57/57/57 51/51/51 54/54/54
f 57/57/57 54/54/54 35/35/35
f 58/58/58 57/57/57 35/35/35
f 61/61/61 60/60/60 59/59/59
f 60/60/60 62/62/62 59/59/59
f 59/59/59 62/62/62 63/63/63
f 62/62/62 60/60/60 64/64/64
f 62/62/62 65/65/65 63/63/63
f 65/65/65 62/62/62 64/64/64
f 65/65/65 64/64/64 23/23/23
