g Boulder13
v -0.68682235 -0.32482478 0.55281097
v -0.8715164 0.18004826 0.34332246
v -0.57420105 0.25729296 0.5792813
v -0.3868057 -0.31108317 0.64034027
v -0.15257461 -0.30035472 0.70867646
v -0.3420799 0.31760058 0.76350373
v -0.024603728 -0.33487865 0.74039763
v -0.29338363 0.41266695 0.7788043
v 0.04708847 -0.16418728 0.7960507
v -0.02808548 0.46409962 0.84564453
v 0.10222763 0.07623844 0.88077146
v 0.20742233 0.5311037 0.75243163
v 0.35650894 -0.060110282 0.6653055
v 0.86237687 0.070558205 0.42595184
v 0.9378859 0.06167881 0.25439546
v 0.32843855 0.5804312 0.7048013
v 0.49016523 0.56590945 0.5776657
v 0.6552165 0.62917453 0.35490203
v 0.77189344 0.6310626 0.15974945
v 0.36034986 -0.25212535 0.5519601
v 0.9163484 0.12999393 0.031360168
v 0.6979936 0.7117255 -0.15134856
v 0.8140474 0.23980731 -0.22648773
v 0.47829542 0.59394455 -0.49117094
v 0.714857 0.20412174 -0.4456198
v 0.77001446 -0.16729747 -0.12607574
v 0.52310103 0.09954258 -0.62290555
v 0.30641282 0.52006596 -0.6354739
v 0.76346874 -0.20780376 0.06658356
v 0.52535444 -0.34945872 -0.42245513
v 0.31401595 0.0068504713 -0.8369119
v 0.059529264 0.4139501 -0.8427444
v 0.27784133 -0.39133084 -0.5614102
v 0.5089711 -0.4493815 -0.3487857
v 0.25746322 -0.50338924 -0.498522
v 0.37728134 -0.48533747 -0.17342621
v 0.13994583 -0.5657238 -0.3466507
v 0.51688004 -0.41424984 0.022645568
v 0.3578868 -0.37090036 0.4537332
v 0.024237212 -0.41839564 0.70939237
v -0.15257461 -0.30035472 0.70867646
v -0.1443245 -0.49439082 0.7596918
v -0.3868057 -0.31108317 0.64034027
v -0.3585887 -0.48323238 0.65751374
v -0.68682235 -0.32482478 0.55281097
v -0.6330307 -0.46894008 0.52663785
v 0.07663742 -0.6760557 -0.26902312
v 0.32142776 -0.62335384 -0.12223602
v 0.37728134 -0.48533747 -0.17342621
v -0.14798965 -0.69884735 -0.0402182
v 0.51688004 -0.41424984 0.022645568
v 0.13308273 -0.6277871 0.14475556
v -0.39279678 -0.68756425 0.30064666
v 0.46684614 -0.57388026 0.053196106
v 0.3578868 -0.37090036 0.4537332
v -0.14584549 -0.61880624 0.49135223
v -0.5547566 -0.67864746 0.48855314
v -0.3127905 -0.6300021 0.61495817
v -0.3585887 -0.48323238 0.65751374
v -0.12388107 -0.59202343 0.71364594
v -0.1443245 -0.49439082 0.7596918
v 0.024237212 -0.41839564 0.70939237
v -0.3127905 -0.6300021 0.61495817
v 0.35252365 -0.57230854 0.2891696
v 0.04695602 -0.56512505 0.6402414
vt 0.36416796 0.43942693
vt 0.36484462 0.4535448
vt 0.3656696 0.46588472
vt 0.38800883 0.45542377
vt 0.39286157 0.45699668
vt 0.3675149 0.4746809
vt 0.3969111 0.4604219
vt 0.37530744 0.48382744
vt 0.39755222 0.4705655
vt 0.38292554 0.49553892
vt 0.39051807 0.48471144
vt 0.39279678 0.5053791
vt 0.4078535 0.47918588
vt 0.43127105 0.49253538
vt 0.44251218 0.49041587
vt 0.40234697 0.50983214
vt 0.4350669 0.524753
vt 0.44758582 0.5195632
vt 0.46286398 0.5111271
vt 0.41089904 0.4670631
vt 0.45341134 0.48710078
vt 0.47822583 0.5105195
vt 0.46346647 0.4836031
vt 0.49483362 0.49760944
vt 0.4754916 0.47815046
vt 0.45649135 0.4718533
vt 0.47819385 0.47148064
vt 0.4974941 0.48984855
vt 0.44677705 0.47003144
vt 0.46961555 0.45329022
vt 0.49061713 0.45258862
vt 0.49848655 0.47307923
vt 0.4800283 0.43785834
vt 0.46453366 0.44604647
vt 0.46816698 0.42945105
vt 0.45002553 0.440439
vt 0.46207944 0.42489284
vt 0.4444264 0.45254895
vt 0.4164868 0.45646396
vt 0.3985608 0.44591588
vt 0.39286157 0.45699668
vt 0.3913341 0.4432993
vt 0.38800883 0.45542377
vt 0.3799211 0.43985808
vt 0.36416796 0.43942693
vt 0.3665409 0.4288628
vt 0.44329327 0.40860793
vt 0.44045264 0.42377982
vt 0.45002553 0.440439
vt 0.42178488 0.41141078
vt 0.4444264 0.45254895
vt 0.4209209 0.4269399
vt 0.39716145 0.41536945
vt 0.43803558 0.43338984
vt 0.4164868 0.45646396
vt 0.40312508 0.43018666
vt 0.38416135 0.41735825
vt 0.38919893 0.43102744
vt 0.3799211 0.43985808
vt 0.39673948 0.43787387
vt 0.3913341 0.4432993
vt 0.3985608 0.44591588
vt 0.38919893 0.43102744
vt 0.4216133 0.4368298
vt 0.40058646 0.43801865
vn -0.53660166 -0.34634528 0.7694826
vn -0.8333404 0.08699247 0.5458718
vn -0.4725976 -0.028940795 0.88080305
vn -0.44599992 -0.04432599 0.8939348
vn 0.59934264 -0.5554025 0.5764689
vn 0.2686467 -0.0779345 0.9600808
vn 0.5564063 -0.5916379 0.58341795
vn -0.12479351 0.73494834 0.66654146
vn 0.50180936 -0.41636488 0.7581739
vn 0.24965587 0.041866377 0.96742916
vn 0.48704395 -0.363646 0.7940716
vn 0.4841868 -0.36404166 0.7956361
vn 0.50331753 -0.43046856 0.7492451
vn 0.9360837 0.30255488 0.17946547
vn 0.94410086 0.3295296 -0.00915502
vn 0.717826 0.11359695 0.6868926
vn 0.4399108 0.72937477 0.52391875
vn -0.117975816 0.75675464 0.6429651
vn 0.4876056 0.685145 0.5411258
vn 0.54170024 -0.6429948 0.5414042
vn 0.94649315 0.31862968 0.051242072
vn 0.48760536 0.6851451 0.5411259
vn 0.84244716 -0.13012913 -0.52282804
vn 0.6093112 0.44406113 -0.6569243
vn 0.8337173 -0.14473128 -0.53288686
vn 0.8094894 -0.40729094 -0.42289588
vn 0.6907695 -0.059906654 -0.72058916
vn 0.56807625 0.28785807 -0.770991
vn 0.77420276 -0.5793606 -0.25485542
vn 0.72340155 -0.40441585 -0.55958724
vn 0.0020753013 -0.20231481 -0.9793184
vn 0.5699241 0.3075224 -0.7619819
vn -0.04935327 -0.18812868 -0.98090357
vn 0.5925042 -0.7856225 -0.17814632
vn 0.3298801 -0.65443087 -0.68036705
vn 0.5658186 -0.80704135 -0.1689189
vn 0.445984 -0.83340275 -0.32640177
vn 0.7075342 -0.6774883 0.2010099
vn 0.67140406 -0.5256306 0.5224261
vn 0.52780986 -0.3391497 0.77871317
vn 0.59934264 -0.5554025 0.5764689
vn -0.13487326 -0.14452508 0.98026615
vn -0.44599992 -0.04432599 0.8939348
vn -0.38354152 -0.16565128 0.9085458
vn -0.53660166 -0.34634528 0.7694826
vn -0.37730223 -0.21370308 0.9010961
vn 0.33270928 -0.67676455 -0.65673006
vn 0.38651925 -0.910479 -0.14707462
vn 0.5658186 -0.80704135 -0.1689189
vn 0.12703753 -0.98387456 0.12590638
vn 0.7075342 -0.6774883 0.2010099
vn 0.16368665 -0.9781993 0.12780005
vn 0.085649565 -0.98856366 0.12412078
vn 0.7667153 -0.5895663 -0.25408515
vn 0.67140406 -0.5256306 0.5224261
vn 0.15390861 -0.97794616 0.14118594
vn 0.085649565 -0.98856366 0.12412078
vn -0.10285826 -0.8460099 0.52315146
vn -0.38354152 -0.16565128 0.9085458
vn 0.59934264 -0.5554025 0.5764689
vn -0.13487326 -0.14452508 0.98026615
vn 0.52780986 -0.3391497 0.77871317
vn -0.10285826 -0.8460099 0.52315146
vn 0.5416992 -0.7197729 0.43415323
vn 0.5626185 -0.64454836 0.5177045
g Boulder13_0
f 3/3/3 2/2/2 1/1/1
f 4/4/4 3/3/3 1/1/1
f 4/4/4 5/5/5 3/3/3
f 5/5/5 6/6/6 3/3/3
f 6/6/6 5/5/5 7/7/7
f 8/8/8 6/6/6 7/7/7
f 7/7/7 9/9/9 8/8/8
f 10/10/10 8/8/8 9/9/9
f 11/11/11 10/10/10 9/9/9
f 12/12/12 10/10/10 11/11/11
f 9/9/9 13/13/13 11/11/11
f 13/13/13 12/12/12 11/11/11
f 13/13/13 9/9/9 7/7/7
f 12/12/12 13/13/13 14/14/14
f 14/14/14 13/13/13 15/15/15
f 16/16/16 12/12/12 14/14/14
f 17/17/17 16/16/16 14/14/14
f 18/18/18 17/17/17 14/14/14
f 15/15/15 18/18/18 14/14/14
f 19/19/19 18/18/18 15/15/15
f 20/20/20 13/13/13 7/7/7
f 13/13/13 20/20/20 15/15/15
f 21/21/21 19/19/19 15/15/15
f 22/22/22 19/19/19 21/21/21
f 23/23/23 22/22/22 21/21/21
f 24/24/24 22/22/22 23/23/23
f 25/25/25 23/23/23 21/21/21
f 25/25/25 24/24/24 23/23/23
f 21/21/21 15/15/15 26/26/26
f 26/26/26 25/25/25 21/21/21
f 24/24/24 25/25/25 27/27/27
f 25/25/25 26/26/26 27/27/27
f 28/28/28 24/24/24 27/27/27
f 15/15/15 29/29/29 26/26/26
f 15/15/15 20/20/20 29/29/29
f 26/26/26 30/30/30 27/27/27
f 30/30/30 26/26/26 29/29/29
f 28/28/28 27/27/27 31/31/31
f 27/27/27 30/30/30 31/31/31
f 32/32/32 28/28/28 31/31/31
f 30/30/30 33/33/33 31/31/31
f 33/33/33 30/30/30 34/34/34
f 34/34/34 30/30/30 29/29/29
f 35/35/35 33/33/33 34/34/34
f 34/34/34 36/36/36 35/35/35
f 34/34/34 29/29/29 36/36/36
f 36/36/36 37/37/37 35/35/35
f 29/29/29 38/38/38 36/36/36
f 29/29/29 20/20/20 38/38/38
f 20/20/20 39/39/39 38/38/38
f 39/39/39 20/20/20 7/7/7
f 40/40/40 39/39/39 7/7/7
f 40/40/40 7/7/7 41/41/41
f 42/42/42 40/40/40 41/41/41
f 41/41/41 43/43/43 42/42/42
f 43/43/43 44/44/44 42/42/42
f 43/43/43 45/45/45 44/44/44
f 45/45/45 46/46/46 44/44/44
f 48/48/48 47/47/47 37/37/37
f 49/49/49 48/48/48 37/37/37
f 50/50/50 47/47/47 48/48/48
f 49/49/49 51/51/51 48/48/48
f 52/52/52 50/50/50 48/48/48
f 50/50/50 52/52/52 53/53/53
f 51/51/51 54/54/54 48/48/48
f 52/52/52 48/48/48 54/54/54
f 51/51/51 55/55/55 54/54/54
f 52/52/52 56/56/56 53/53/53
f 53/53/53 56/56/56 57/57/57
f 46/46/46 57/57/57 58/58/58
f 59/59/59 46/46/46 58/58/58
f 59/59/59 58/58/58 60/60/60
f 61/61/61 59/59/59 60/60/60
f 61/61/61 60/60/60 62/62/62
f 56/56/56 63/63/63 57/57/57
f 64/64/64 52/52/52 54/54/54
f 55/55/55 64/64/64 54/54/54
f 52/52/52 64/64/64 56/56/56
f 60/60/60 65/65/65 62/62/62
f 65/65/65 60/60/60 63/63/63
f 62/62/62 65/65/65 55/55/55
f 56/56/56 65/65/65 63/63/63
f 65/65/65 64/64/64 55/55/55
f 64/64/64 65/65/65 56/56/56
