g Boulder14
v 0.7396119 0.5263252 0.4233786
v 0.6064192 0.4895195 0.5754111
v 0.5696419 0.6535832 0.3820822
v 0.4459727 0.30892 0.7454022
v 0.0477687 0.4230877 0.5529416
v 0.4412126 0.7137927 0.2879929
v -0.01932602 0.6469575 0.2766843
v -0.5162103 0.5190601 0.3064182
v 0.4683516 0.668304 -0.05054047
v 0.3083366 0.2288729 0.7914672
v 0.3321324 -0.06655727 0.6394174
v 0.7081504 0.1583779 0.5221487
v 0.06859268 0.06538898 0.8584723
v 0.01427109 -0.1756979 0.7806363
v 0.02978989 0.1310404 0.8655822
v -0.2412682 0.1362072 0.8067206
v -0.05726089 -0.3472003 0.731015
v -0.2897388 -0.04331966 0.8202407
v -0.6023405 0.2014086 0.5664791
v -0.1676189 -0.4496907 0.7377927
v -0.5020618 0.2542336 0.6181906
v -0.542707 0.3548601 0.4966116
v -0.5009409 -0.3029385 0.7188754
v -0.2571953 -0.6186217 0.6703756
v -0.3904619 -0.643582 0.6417264
v -0.7320563 0.009023017 0.5064279
v -0.620482 -0.3091468 0.6360537
v -0.4844922 -0.6617931 0.5750095
v -0.5602131 -0.6919668 0.4254117
v -0.7403458 -0.1766902 0.5308225
v -0.7930368 -0.489342 0.1633499
v -0.6247772 -0.7046057 0.248334
v -0.8400073 -0.143943 0.3783279
v -0.9517863 -0.1529446 0.03754974
v -0.9540149 -0.1852833 0.08606903
v -0.9388089 -0.240664 0.06283539
v -0.9305211 -0.2036416 0.01736969
v -0.748342 -0.1424678 -0.2265225
v -0.8777818 0.1165642 -0.1213394
v -0.8210045 0.2680242 -0.2183939
v -0.604442 -0.08193676 -0.4127048
v -0.5340664 0.1145592 -0.5292373
v -0.4723886 0.002005806 -0.5651962
v -0.5089796 -0.05728924 -0.5216324
v -0.3813243 -0.06517132 -0.6182169
v -0.06828537 0.4499162 -0.7968631
v -0.5343677 0.4234204 -0.5197452
v 0.2062688 0.4987056 -0.7579806
v 0.5203136 0.61672 -0.5531235
v -0.5972632 0.3229715 -0.4900119
v -0.6226512 0.4220235 -0.4459201
v 0.6741548 0.6689955 -0.2294675
v 0.7759275 0.425737 -0.01566437
v 0.7625215 0.5973393 -0.2073434
v -0.7376181 0.3704641 -0.3350943
v -0.6859564 0.4386437 -0.2905118
v -0.6933676 0.4581597 -0.1461325
v -0.4377931 0.5739759 0.2607303
v -0.5370068 0.54641 0.1945462
v 0.6064192 0.4895195 0.5754111
v 0.7081504 0.1583779 0.5221487
v 0.4459727 0.30892 0.7454022
v 0.7396119 0.5263252 0.4233786
v 0.9120454 0.06771045 0.3248984
v 0.3321324 -0.06655727 0.6394174
v 0.9491115 0.05279606 0.147214
v 0.8224058 0.4216585 0.2157083
v 0.5696419 0.6535832 0.3820822
v 0.4412126 0.7137927 0.2879929
v 0.7759275 0.425737 -0.01566437
v 0.4683516 0.668304 -0.05054047
v 0.8786393 0.1210953 -0.04654815
v 0.3187327 -0.2645266 0.517341
v 0.9411107 0.003573952 0.2382773
v -0.05726089 -0.3472003 0.731015
v 0.01427109 -0.1756979 0.7806363
v 0.5873814 -0.2868991 -0.187189
v 0.6797053 -0.2853935 0.08307587
v 0.1384886 -0.6298538 0.1550247
v 0.6248921 -0.06112301 -0.3541232
v 0.3589497 -0.1712182 -0.7196323
v 0.3073732 -0.6430346 -0.1600858
v -0.05301102 -0.6189703 0.457413
v -0.3175856 -0.6679476 0.3823782
v -0.1676189 -0.4496907 0.7377927
v -0.2571953 -0.6186217 0.6703756
v -0.3904619 -0.643582 0.6417264
v -0.4844922 -0.6617931 0.5750095
v -0.5602131 -0.6919668 0.4254117
v -0.6247772 -0.7046057 0.248334
v -0.05747116 -0.6724716 0.03915009
v -0.4538876 -0.71538 0.09502411
v -0.7930368 -0.489342 0.1633499
v -0.748342 -0.1424678 -0.2265225
v -0.1826051 -0.7030833 -0.1562039
v -0.604442 -0.08193676 -0.4127048
v -0.5089796 -0.05728924 -0.5216324
v -0.3813243 -0.06517132 -0.6182169
v 0.2467125 -0.6591763 -0.2996255
v 0.3509733 -0.4725404 -0.4412558
v 0.05632309 -0.6866545 -0.3658108
v 0.06076431 -0.3989621 -0.6497861
v -0.09027451 -0.2636873 -0.6712955
v 0.1542915 -0.002212028 -0.7397311
v -0.1894957 -0.1311114 -0.7165713
v 0.06250625 0.374238 -0.8679892
v -0.06828537 0.4499162 -0.7968631
v 0.2062688 0.4987056 -0.7579806
v 0.1748122 0.386508 -0.8589267
v 0.5203136 0.61672 -0.5531235
v 0.4692702 0.05969105 -0.7529666
v 0.3392387 0.2368601 -0.8028909
v 0.4686345 0.117992 -0.7735245
v 0.7406181 0.2008185 -0.5672147
v 0.7358723 0.2610016 -0.5949301
v 0.8482628 0.2546787 -0.2533218
v 0.8480168 0.3644042 -0.2823507
v 0.7625215 0.5973393 -0.2073434
v 0.6741548 0.6689955 -0.2294675
vt 0.4142547 0.4924783
vt 0.4123922 0.4901015
vt 0.4186903 0.4930559
vt 0.4092308 0.484284
vt 0.4196302 0.4817869
vt 0.4229851 0.4925964
vt 0.4282428 0.4854098
vt 0.4321473 0.4771902
vt 0.4299203 0.4914583
vt 0.4094054 0.480931
vt 0.4094899 0.4740772
vt 0.4088632 0.4836217
vt 0.4097505 0.4747138
vt 0.4098642 0.4684784
vt 0.4107278 0.4757742
vt 0.4154835 0.4728949
vt 0.4102764 0.4636469
vt 0.4142514 0.468494
vt 0.4252349 0.4701173
vt 0.4106789 0.4602069
vt 0.4234593 0.4723632
vt 0.4272158 0.4738289
vt 0.4167171 0.4604163
vt 0.4117373 0.4551835
vt 0.4138853 0.4533148
vt 0.4263896 0.4645802
vt 0.4198272 0.4589502
vt 0.4163443 0.4518417
vt 0.4202014 0.449954
vt 0.4244925 0.46051
vt 0.4302664 0.4518183
vt 0.4246842 0.4484648
vt 0.4290161 0.4598976
vt 0.4372893 0.4576912
vt 0.4360385 0.4571003
vt 0.4359518 0.4559188
vt 0.4371163 0.456679
vt 0.4410011 0.4589329
vt 0.4419405 0.4638733
vt 0.4445846 0.4674867
vt 0.4441714 0.4611094
vt 0.4476149 0.4660355
vt 0.4469879 0.4639179
vt 0.4458936 0.4622833
vt 0.446794 0.4630734
vt 0.4518526 0.4783079
vt 0.4496603 0.4731048
vt 0.4484587 0.4829029
vt 0.4398478 0.4886725
vt 0.4488611 0.470259
vt 0.448819 0.4723194
vt 0.4316036 0.4940194
vt 0.4229251 0.4899545
vt 0.4293025 0.4935898
vt 0.4470756 0.4702691
vt 0.4460841 0.4723958
vt 0.4431426 0.473076
vt 0.4326848 0.4791003
vt 0.4349251 0.4773251
vt 0.4123922 0.4901015
vt 0.4088632 0.4836217
vt 0.4092308 0.484284
vt 0.4142547 0.4924783
vt 0.409377 0.4836653
vt 0.4094899 0.4740772
vt 0.4128477 0.4834249
vt 0.4168095 0.4908498
vt 0.4186903 0.4930559
vt 0.4229851 0.4925964
vt 0.4229251 0.4899545
vt 0.4299203 0.4914583
vt 0.4192521 0.4838056
vt 0.4104158 0.468898
vt 0.4102913 0.4822716
vt 0.4102764 0.4636469
vt 0.4098642 0.4684784
vt 0.4227632 0.4693742
vt 0.4149149 0.4712785
vt 0.4175583 0.4568456
vt 0.428559 0.4751971
vt 0.4401673 0.4681292
vt 0.422519 0.4570663
vt 0.4135262 0.4563278
vt 0.4182475 0.4524602
vt 0.4106789 0.4602069
vt 0.4117373 0.4551835
vt 0.4138853 0.4533148
vt 0.4163443 0.4518417
vt 0.4202014 0.449954
vt 0.4246842 0.4484648
vt 0.4224706 0.4534655
vt 0.4258693 0.4490625
vt 0.4302664 0.4518183
vt 0.4410011 0.4589329
vt 0.4283326 0.4507972
vt 0.4441714 0.4611094
vt 0.4458936 0.4622833
vt 0.446794 0.4630734
vt 0.42659 0.4555035
vt 0.4304756 0.4610268
vt 0.4304506 0.4526457
vt 0.4399664 0.4591559
vt 0.4433737 0.4609837
vt 0.444505 0.4700332
vt 0.4466396 0.4631261
vt 0.4517145 0.4779053
vt 0.4518526 0.4783079
vt 0.4484587 0.4829029
vt 0.450425 0.4795945
vt 0.4398478 0.4886725
vt 0.441732 0.4753382
vt 0.4460202 0.4780788
vt 0.4427767 0.4767712
vt 0.4338571 0.48137
vt 0.4351693 0.4827679
vt 0.4260651 0.4863414
vt 0.4278392 0.4890167
vt 0.4293025 0.4935898
vt 0.4316036 0.4940194
vn 0.9354429 0.3044196 0.1796532
vn 0.4399107 0.7293747 0.5239189
vn 0.4399107 0.7293748 0.5239187
vn 0.717826 0.113597 0.6868927
vn -0.1224114 0.7436278 0.6572922
vn -0.1179759 0.7567546 0.6429651
vn -0.1339426 0.7540774 0.6429826
vn -0.435278 0.8524171 0.2896863
vn 0.4876055 0.685145 0.5411258
vn 0.4841868 -0.3640415 0.7956361
vn 0.5033176 -0.4304686 0.749245
vn 0.725788 0.1232567 0.6767863
vn 0.4870439 -0.363646 0.7940716
vn 0.5018094 -0.4163648 0.7581739
vn 0.2496559 0.04186641 0.9674292
vn -0.1247936 0.7349483 0.6665414
vn 0.5564064 -0.5916379 0.583418
vn 0.2686467 -0.07793446 0.9600808
vn -0.6083379 0.4967716 0.6189855
vn 0.5993427 -0.5554026 0.5764688
vn -0.6083379 0.4967717 0.6189854
vn -0.6083378 0.496772 0.6189852
vn -0.5366017 -0.3463453 0.7694826
vn 0.5993427 -0.5554026 0.5764688
vn 0.08564964 -0.9885637 0.1241208
vn -0.8333405 0.08699248 0.5458717
vn -0.5366017 -0.3463453 0.7694826
vn 0.08564964 -0.9885637 0.1241208
vn 0.1035197 -0.9849186 0.1386321
vn -0.8333404 0.0869925 0.5458717
vn -0.8591449 -0.3598233 0.3638641
vn 0.05685961 -0.9936195 0.09740189
vn -0.8333405 0.08699241 0.5458717
vn -0.9431583 -0.2264338 -0.2432698
vn -0.9431583 -0.2264338 -0.2432699
vn -0.9431583 -0.2264338 -0.2432698
vn -0.9431583 -0.2264338 -0.2432698
vn -0.7857323 -0.1392694 -0.6026846
vn -0.7851948 -0.1389088 -0.6034679
vn -0.8563399 0.4727966 0.2077144
vn -0.7731525 -0.1295557 -0.6208466
vn -0.7693549 -0.1247825 -0.626516
vn -0.7076692 -0.1594809 -0.6883096
vn -0.7192311 -0.1523543 -0.6778604
vn -0.6180217 -0.2095318 -0.7577239
vn 0.006611854 0.6747281 -0.7380368
vn -0.6496397 0.1615644 -0.7428764
vn 0.006611854 0.6747281 -0.7380368
vn 0.6093113 0.4440611 -0.6569243
vn -0.6496397 0.1615644 -0.7428764
vn -0.6496397 0.1615644 -0.7428764
vn 0.4876054 0.6851451 0.5411259
vn 0.9502878 0.28566 0.1239018
vn 0.9411413 0.2917379 0.1707104
vn -0.7893251 0.6000946 -0.1298174
vn -0.7938282 0.5958058 -0.121869
vn -0.8600247 0.4649005 0.2102973
vn -0.4352778 0.8524172 0.2896862
vn -0.4352778 0.8524172 0.2896863
vn 0.4399107 0.7293747 0.5239189
vn 0.725788 0.1232567 0.6767863
vn 0.717826 0.113597 0.6868927
vn 0.9354429 0.3044196 0.1796532
vn 0.9360837 0.3025548 0.1794655
vn 0.5033176 -0.4304686 0.749245
vn 0.9441009 0.3295296 -0.009154974
vn 0.9447367 0.3260866 0.0337658
vn 0.4399107 0.7293748 0.5239187
vn -0.1179759 0.7567546 0.6429651
vn 0.9502878 0.28566 0.1239018
vn 0.4876055 0.685145 0.5411258
vn 0.9464931 0.3186296 0.05124205
vn 0.5417003 -0.6429948 0.5414042
vn 0.9654024 0.1992716 0.1681934
vn 0.5564064 -0.5916379 0.583418
vn 0.5018094 -0.4163648 0.7581739
vn 0.7742029 -0.5793606 -0.2548555
vn 0.788274 -0.5592608 -0.2566153
vn 0.5416992 -0.7197729 0.4341532
vn 0.8094894 -0.4072908 -0.4228959
vn -0.04935325 -0.1881287 -0.9809036
vn 0.7667153 -0.5895663 -0.2540852
vn 0.5626186 -0.6445483 0.5177044
vn 0.08564964 -0.9885637 0.1241208
vn 0.5993427 -0.5554026 0.5764688
vn 0.5993427 -0.5554026 0.5764688
vn 0.08564964 -0.9885637 0.1241208
vn 0.08564964 -0.9885637 0.1241208
vn 0.1035197 -0.9849186 0.1386321
vn 0.05685961 -0.9936195 0.09740189
vn 0.1270376 -0.9838746 0.1259064
vn 0.05685956 -0.9936195 0.09740203
vn -0.8591449 -0.3598233 0.3638641
vn -0.7857323 -0.1392694 -0.6026846
vn 0.1069852 -0.9916601 0.07186439
vn -0.7731525 -0.1295557 -0.6208466
vn -0.7192311 -0.1523543 -0.6778604
vn -0.6180217 -0.2095318 -0.7577239
vn 0.3327093 -0.6767645 -0.65673
vn 0.3298801 -0.6544309 -0.680367
vn 0.3301394 -0.6563953 -0.6783459
vn -0.06265417 -0.2066734 -0.9764019
vn -0.004817478 -0.2557032 -0.9667434
vn 0.01615608 -0.2621488 -0.9648922
vn 0.05368124 -0.3037516 -0.9512377
vn 0.006611854 0.6747281 -0.7380368
vn 0.006611854 0.6747281 -0.7380368
vn 0.006611854 0.6747281 -0.7380368
vn 0.006611854 0.6747281 -0.7380368
vn 0.6093113 0.4440611 -0.6569243
vn 0.002075311 -0.2023148 -0.9793184
vn 0.05736397 -0.2814438 -0.9578616
vn 0.002170749 -0.2714581 -0.9624479
vn 0.8337173 -0.1447313 -0.5328867
vn 0.8326595 -0.1464606 -0.5340668
vn 0.8424472 -0.1301292 -0.522828
vn 0.8424472 -0.1301291 -0.522828
vn 0.9411413 0.2917379 0.1707104
vn 0.4876054 0.6851451 0.5411259
g Boulder14_0
f 3/3/3 2/2/2 1/1/1
f 2/2/2 3/3/3 4/4/4
f 3/3/3 5/5/5 4/4/4
f 3/3/3 6/6/6 5/5/5
f 6/6/6 7/7/7 5/5/5
f 8/8/8 5/5/5 7/7/7
f 7/7/7 6/6/6 9/9/9
f 10/10/10 4/4/4 5/5/5
f 4/4/4 10/10/10 11/11/11
f 12/12/12 4/4/4 11/11/11
f 11/11/11 10/10/10 13/13/13
f 14/14/14 11/11/11 13/13/13
f 10/10/10 15/15/15 13/13/13
f 13/13/13 15/15/15 14/14/14
f 10/10/10 5/5/5 15/15/15
f 15/15/15 16/16/16 14/14/14
f 5/5/5 16/16/16 15/15/15
f 17/17/17 14/14/14 16/16/16
f 16/16/16 18/18/18 17/17/17
f 19/19/19 18/18/18 16/16/16
f 18/18/18 20/20/20 17/17/17
f 16/16/16 5/5/5 21/21/21
f 21/21/21 19/19/19 16/16/16
f 5/5/5 22/22/22 21/21/21
f 19/19/19 21/21/21 22/22/22
f 5/5/5 8/8/8 22/22/22
f 19/19/19 22/22/22 8/8/8
f 20/20/20 18/18/18 23/23/23
f 24/24/24 20/20/20 23/23/23
f 25/25/25 24/24/24 23/23/23
f 18/18/18 19/19/19 26/26/26
f 23/23/23 18/18/18 26/26/26
f 23/23/23 27/27/27 25/25/25
f 27/27/27 28/28/28 25/25/25
f 27/27/27 29/29/29 28/28/28
f 27/27/27 23/23/23 30/30/30
f 23/23/23 26/26/26 30/30/30
f 27/27/27 31/31/31 29/29/29
f 31/31/31 27/27/27 30/30/30
f 31/31/31 32/32/32 29/29/29
f 26/26/26 33/33/33 30/30/30
f 33/33/33 31/31/31 30/30/30
f 26/26/26 19/19/19 34/34/34
f 33/33/33 26/26/26 35/35/35
f 26/26/26 34/34/34 35/35/35
f 35/35/35 36/36/36 33/33/33
f 36/36/36 31/31/31 33/33/33
f 36/36/36 35/35/35 34/34/34
f 36/36/36 37/37/37 31/31/31
f 37/37/37 36/36/36 34/34/34
f 37/37/37 38/38/38 31/31/31
f 38/38/38 37/37/37 34/34/34
f 19/19/19 39/39/39 34/34/34
f 39/39/39 38/38/38 34/34/34
f 39/39/39 40/40/40 38/38/38
f 40/40/40 41/41/41 38/38/38
f 39/39/39 19/19/19 8/8/8
f 40/40/40 39/39/39 8/8/8
f 42/42/42 41/41/41 40/40/40
f 42/42/42 43/43/43 41/41/41
f 43/43/43 44/44/44 41/41/41
f 44/44/44 43/43/43 45/45/45
f 45/45/45 43/43/43 42/42/42
f 46/46/46 45/45/45 42/42/42
f 46/46/46 42/42/42 47/47/47
f 46/46/46 47/47/47 48/48/48
f 47/47/47 49/49/49 48/48/48
f 50/50/50 42/42/42 40/40/40
f 42/42/42 50/50/50 47/47/47
f 47/47/47 7/7/7 49/49/49
f 51/51/51 47/47/47 50/50/50
f 7/7/7 47/47/47 51/51/51
f 7/7/7 9/9/9 49/49/49
f 49/49/49 9/9/9 52/52/52
f 52/52/52 9/9/9 53/53/53
f 54/54/54 52/52/52 53/53/53
f 50/50/50 40/40/40 55/55/55
f 51/51/51 50/50/50 55/55/55
f 51/51/51 55/55/55 56/56/56
f 56/56/56 55/55/55 57/57/57
f 51/51/51 56/56/56 57/57/57
f 7/7/7 51/51/51 57/57/57
f 55/55/55 40/40/40 57/57/57
f 58/58/58 7/7/7 57/57/57
f 58/58/58 8/8/8 7/7/7
f 40/40/40 8/8/8 59/59/59
f 57/57/57 40/40/40 59/59/59
f 58/58/58 59/59/59 8/8/8
f 59/59/59 58/58/58 57/57/57
f 62/62/62 61/61/61 60/60/60
f 61/61/61 63/63/63 60/60/60
f 64/64/64 63/63/63 61/61/61
f 65/65/65 64/64/64 61/61/61
f 64/64/64 66/66/66 63/63/63
f 66/66/66 67/67/67 63/63/63
f 63/63/63 67/67/67 68/68/68
f 67/67/67 69/69/69 68/68/68
f 69/69/69 67/67/67 70/70/70
f 71/71/71 69/69/69 70/70/70
f 67/67/67 66/66/66 72/72/72
f 70/70/70 67/67/67 72/72/72
f 65/65/65 73/73/73 64/64/64
f 74/74/74 66/66/66 64/64/64
f 73/73/73 74/74/74 64/64/64
f 73/73/73 65/65/65 75/75/75
f 65/65/65 76/76/76 75/75/75
f 77/77/77 66/66/66 74/74/74
f 78/78/78 74/74/74 73/73/73
f 78/78/78 77/77/77 74/74/74
f 79/79/79 73/73/73 75/75/75
f 73/73/73 79/79/79 78/78/78
f 72/72/72 66/66/66 80/80/80
f 66/66/66 77/77/77 80/80/80
f 81/81/81 80/80/80 77/77/77
f 82/82/82 77/77/77 78/78/78
f 79/79/79 82/82/82 78/78/78
f 83/83/83 79/79/79 75/75/75
f 79/79/79 83/83/83 84/84/84
f 83/83/83 75/75/75 85/85/85
f 86/86/86 83/83/83 85/85/85
f 83/83/83 86/86/86 87/87/87
f 84/84/84 83/83/83 87/87/87
f 87/87/87 88/88/88 84/84/84
f 89/89/89 84/84/84 88/88/88
f 89/89/89 90/90/90 84/84/84
f 91/91/91 79/79/79 84/84/84
f 79/79/79 91/91/91 82/82/82
f 90/90/90 92/92/92 84/84/84
f 91/91/91 84/84/84 92/92/92
f 92/92/92 90/90/90 93/93/93
f 94/94/94 92/92/92 93/93/93
f 95/95/95 91/91/91 92/92/92
f 96/96/96 95/95/95 92/92/92
f 94/94/94 96/96/96 92/92/92
f 96/96/96 97/97/97 95/95/95
f 97/97/97 98/98/98 95/95/95
f 91/91/91 99/99/99 82/82/82
f 99/99/99 91/91/91 95/95/95
f 82/82/82 99/99/99 100/100/100
f 77/77/77 82/82/82 100/100/100
f 100/100/100 81/81/81 77/77/77
f 101/101/101 100/100/100 99/99/99
f 101/101/101 99/99/99 95/95/95
f 81/81/81 100/100/100 101/101/101
f 101/101/101 95/95/95 102/102/102
f 102/102/102 81/81/81 101/101/101
f 95/95/95 103/103/103 102/102/102
f 95/95/95 98/98/98 103/103/103
f 81/81/81 102/102/102 103/103/103
f 104/104/104 81/81/81 103/103/103
f 98/98/98 105/105/105 103/103/103
f 104/104/104 103/103/103 105/105/105
f 106/106/106 105/105/105 98/98/98
f 106/106/106 104/104/104 105/105/105
f 107/107/107 106/106/106 98/98/98
f 106/106/106 107/107/107 108/108/108
f 109/109/109 106/106/106 108/108/108
f 104/104/104 106/106/106 109/109/109
f 109/109/109 108/108/108 110/110/110
f 81/81/81 104/104/104 111/111/111
f 80/80/80 81/81/81 111/111/111
f 112/112/112 104/104/104 109/109/109
f 112/112/112 109/109/109 110/110/110
f 113/113/113 104/104/104 112/112/112
f 104/104/104 113/113/113 111/111/111
f 113/113/113 112/112/112 110/110/110
f 114/114/114 80/80/80 111/111/111
f 114/114/114 111/111/111 113/113/113
f 80/80/80 114/114/114 72/72/72
f 115/115/115 113/113/113 110/110/110
f 115/115/115 114/114/114 113/113/113
f 114/114/114 116/116/116 72/72/72
f 114/114/114 115/115/115 116/116/116
f 116/116/116 70/70/70 72/72/72
f 116/116/116 117/117/117 70/70/70
f 115/115/115 117/117/117 116/116/116
f 118/118/118 70/70/70 117/117/117
f 115/115/115 118/118/118 117/117/117
f 118/118/118 115/115/115 110/110/110
f 119/119/119 118/118/118 110/110/110
