g Boulder15
v 0.0032411 0.008223465 -0.007912702
v 0.0003831243 0.0114574 -0.004912634
v -0.002091055 0.00820013 -0.007483439
v 0.0006581831 0.005732017 -0.008944106
v 0.0006753441 0.003397709 -0.009444697
v 0.005107617 0.003427352 -0.008368235
v 0.003183526 -0.002656886 -0.007795579
v 0.007335248 0.005105681 -0.005319628
v 0.005397301 0.009632243 -0.005839624
v 0.00729303 -0.000321911 -0.005169462
v 0.008289471 0.003427431 -0.0038883
v 0.009948275 0.0009855831 -0.003638252
v 0.008965771 -0.001758227 -0.004923305
v 0.005334158 -0.003589581 -0.005743796
v 0.007736856 -0.004159634 -0.005614616
v 0.00771261 -0.005451558 -0.005034876
v 0.01027284 -0.005775022 -0.001978612
v 0.005288146 -0.005437451 -0.005365734
v 5.120798E-05 -0.005415325 -0.006007227
v -0.00214853 -0.002702396 -0.00736767
v -0.005144776 -0.005881131 -0.002365258
v 0.0006114786 -0.000935089 -0.008794676
v -0.003963773 0.003349894 -0.007640201
v -0.006666442 -0.0004410773 -0.004049129
v -0.006634804 0.007056588 -0.004075103
v -0.004565005 0.009588667 -0.005037632
v -0.004082508 0.01068121 -0.00248198
v -0.004627926 -0.003674611 -0.00494425
v -0.007366867 -0.006243414 0.0006229386
v -0.008644511 0.003263329 0.0008923934
v -0.008375213 -0.006405865 0.001961868
v -0.007829517 0.003289842 -0.002594593
v -0.007325296 0.008908095 0.0007221031
v -0.009153765 0.003352073 0.002240857
v -0.008286031 -0.006775458 0.005211568
v -0.004646916 0.01302691 0.002409759
v -0.003058586 0.01292603 0.0004379702
v -0.00822648 0.007154441 0.00165854
v -0.005605793 0.01249553 0.004393935
v -0.008209831 0.00654452 0.006173532
v -0.00618268 0.01004567 0.006940255
v -0.005907307 -0.007163473 0.00881872
v -0.009177011 0.002421474 0.004466435
v -0.002091055 0.00820013 -0.007483439
v -0.004082508 0.01068121 -0.00248198
v -0.004565005 0.009588667 -0.005037632
v 0.0003831243 0.0114574 -0.004912634
v 2.187252E-05 0.01418613 0.0002083778
v 0.004549651 0.01366534 -0.003133307
v -0.003058586 0.01292603 0.0004379702
v 0.0032411 0.008223465 -0.007912702
v 0.005397301 0.009632243 -0.005839624
v -0.004646916 0.01302691 0.002409759
v 0.007335248 0.005105681 -0.005319628
v 0.001672573 0.01287319 0.005962901
v 0.004821577 0.01378232 0.002796292
v -0.005605793 0.01249553 0.004393935
v 0.003101387 0.01483973 -3.006935E-05
v 0.007816972 0.01111612 0.002449536
v 0.008669514 0.004988222 -0.001229952
v 0.008289471 0.003427431 -0.0038883
v 0.007638197 0.007269668 0.002594857
v 0.01027318 0.001924185 -0.001553416
v 0.009948275 0.0009855831 -0.003638252
v 0.008965771 -0.001758227 -0.004923305
v 0.01027284 -0.005775022 -0.001978612
v 0.01010554 -0.006219494 0.001906068
v 0.01037166 0.002228726 0.001118328
v 0.008444248 0.004853399 0.001322372
v 0.009619334 0.001498826 0.002600957
v 0.009913212 -0.006379059 0.003289366
v 0.008103076 0.003860053 0.003283437
v 0.007302711 -0.006649944 0.005442507
v 0.008058076 0.006703329 0.004911284
v 0.004702952 -0.007059725 0.008815276
v 0.002836142 0.009270832 0.008812061
v 0.001773079 -0.007345421 0.01107098
v 0.005005078 0.01042944 0.005996489
v 0.004367886 0.01145793 0.003811707
v 0.001512499 0.01003478 0.006690316
v -0.0007674503 0.0126124 0.007561259
v -0.00387186 0.008747124 0.009132723
v -0.00618268 0.01004567 0.006940255
v -0.008209831 0.00654452 0.006173532
v -0.005907307 -0.007163473 0.00881872
v -0.004615259 -0.0072677 0.009843376
v -0.0006479645 0.01003372 0.008144975
v -0.002275906 0.007246203 0.009346709
v -0.002062461 -0.007235143 0.009775888
v -0.001064157 0.006450014 0.009528651
v 0.0007447672 0.006042375 0.009847436
v -3.220081E-05 0.008940253 0.008789888
vt 0.5575039 0.4850311
vt 0.5471157 0.4890892
vt 0.5453265 0.4893019
vt 0.5529422 0.4849047
vt 0.5533077 0.477228
vt 0.5611519 0.4718689
vt 0.5555143 0.4623577
vt 0.5629116 0.4728082
vt 0.5598812 0.4824773
vt 0.5611494 0.4586586
vt 0.5625596 0.4625394
vt 0.565449 0.4558277
vt 0.5641516 0.4540627
vt 0.5571878 0.4560102
vt 0.561847 0.452429
vt 0.5608459 0.4493727
vt 0.5627632 0.4443291
vt 0.5563775 0.4528593
vt 0.547061 0.4595111
vt 0.5448163 0.4667233
vt 0.5326499 0.459254
vt 0.5519223 0.4688637
vt 0.5418184 0.4792054
vt 0.5318909 0.470697
vt 0.531158 0.4847348
vt 0.5364957 0.4907767
vt 0.5333498 0.4889977
vt 0.5371022 0.4644842
vt 0.5236528 0.4607758
vt 0.519804 0.4732437
vt 0.519291 0.4618124
vt 0.5270479 0.4767683
vt 0.5210764 0.4851867
vt 0.5164723 0.4721985
vt 0.5134472 0.4589158
vt 0.5231222 0.4871194
vt 0.5304062 0.4879908
vt 0.5177901 0.482094
vt 0.5171329 0.4844474
vt 0.5098836 0.472339
vt 0.5111015 0.4771827
vt 0.5095045 0.4570329
vt 0.5127117 0.4675094
vt 0.5453265 0.4893019
vt 0.5333498 0.4889977
vt 0.5364957 0.4907767
vt 0.5471157 0.4890892
vt 0.5379507 0.4873455
vt 0.5545076 0.4863539
vt 0.5304062 0.4879908
vt 0.5575039 0.4850311
vt 0.5598812 0.4824773
vt 0.5231222 0.4871194
vt 0.5629116 0.4728082
vt 0.5312071 0.4744152
vt 0.5453465 0.4774262
vt 0.5171329 0.4844474
vt 0.5459554 0.4855805
vt 0.5536022 0.4696972
vt 0.5602249 0.4611296
vt 0.5625596 0.4625394
vt 0.5523762 0.4633451
vt 0.5637772 0.4539133
vt 0.565449 0.4558277
vt 0.5641516 0.4540627
vt 0.5627632 0.4443291
vt 0.5574586 0.4407419
vt 0.5604522 0.4499481
vt 0.5559622 0.4570451
vt 0.556357 0.4469959
vt 0.5550772 0.4394423
vt 0.5519867 0.452206
vt 0.5456892 0.4397706
vt 0.5495228 0.4577501
vt 0.5323064 0.4433709
vt 0.5292381 0.4629183
vt 0.5180775 0.4465893
vt 0.5397871 0.4658978
vt 0.5422183 0.472234
vt 0.5295714 0.4684662
vt 0.5218371 0.4742762
vt 0.5118792 0.4688242
vt 0.5111015 0.4771827
vt 0.5098836 0.472339
vt 0.5095045 0.4570329
vt 0.5100794 0.4537679
vt 0.521306 0.4686674
vt 0.5154302 0.4640254
vt 0.5157716 0.4503814
vt 0.5180266 0.4608822
vt 0.5208063 0.4558178
vt 0.5216109 0.4649215
vn 0.2501318 0.4650043 -0.849238
vn -0.159585 0.7524931 -0.6389731
vn -0.3544621 0.4749409 -0.8054737
vn -0.0773474 0.3086125 -0.9480378
vn -0.07514146 -0.01419352 -0.9970719
vn 0.5309291 0.003943489 -0.847407
vn 0.3219152 -0.3574054 -0.8767166
vn 0.8417026 0.2461479 -0.4805706
vn 0.6957599 0.4620441 -0.5499395
vn 0.5883706 -0.06204367 -0.8062075
vn 0.8478895 0.2211829 -0.4818314
vn 0.8415802 0.1328467 -0.5235404
vn 0.7361463 0.01239263 -0.676709
vn 0.4153357 -0.3130268 -0.8541139
vn 0.4771966 -0.1366859 -0.8681016
vn 0.6050413 -0.2641006 -0.7511163
vn 0.9898151 -0.04837758 -0.1338871
vn 0.183958 -0.4792969 -0.8581572
vn -0.1460617 -0.5999421 -0.7865974
vn -0.4252071 -0.371085 -0.8255271
vn -0.6720234 -0.4575769 -0.5822439
vn -0.07563543 -0.244101 -0.9667957
vn -0.5948143 -0.004064263 -0.8038529
vn -0.8431923 -0.165948 -0.511359
vn -0.8246468 0.2688499 -0.4976719
vn -0.5683146 0.5882102 -0.5753497
vn -0.5291253 0.7403373 -0.4146411
vn -0.6080939 -0.4249376 -0.6705594
vn -0.8840672 -0.1789052 -0.4317617
vn -0.9450593 -0.001163613 -0.3268971
vn -0.9792309 -0.08717922 -0.1830482
vn -0.9236149 0.004338169 -0.3832971
vn -0.8421457 0.4791479 -0.2474023
vn -0.9881837 0.0425081 -0.1472623
vn -0.9237341 -0.05464287 0.3791165
vn -0.4392652 0.8967355 -0.05395686
vn -0.4054223 0.8845708 -0.2305801
vn -0.9376507 0.3424944 -0.05923491
vn -0.5961058 0.7618398 0.2534917
vn -0.7730436 0.1483652 0.6167587
vn -0.6808917 0.3479074 0.6444742
vn -0.6484764 0.01822896 0.7610165
vn -0.9410852 -0.01919761 0.3376243
vn -0.3544621 0.4749409 -0.8054737
vn -0.5291253 0.7403373 -0.4146411
vn -0.5683146 0.5882102 -0.5753497
vn -0.159585 0.7524931 -0.6389731
vn -0.2387492 0.9610456 -0.1392485
vn 0.5512351 0.6982172 -0.4567631
vn -0.4054223 0.8845708 -0.2305801
vn 0.2501318 0.4650043 -0.849238
vn 0.6957599 0.4620441 -0.5499395
vn -0.4392652 0.8967355 -0.05395686
vn 0.8417026 0.2461479 -0.4805706
vn 0.2087715 0.8353903 0.5084658
vn 0.4317304 0.8280991 0.3575763
vn -0.5961058 0.7618398 0.2534917
vn 0.1215182 0.9883017 -0.09215801
vn 0.8904862 0.4418663 0.1085751
vn 0.926933 0.3317291 -0.1753599
vn 0.8478895 0.2211829 -0.4818314
vn 0.9295655 0.2729475 0.2478052
vn 0.9811848 0.1464144 -0.1258541
vn 0.8415802 0.1328467 -0.5235404
vn 0.7361463 0.01239263 -0.676709
vn 0.9898151 -0.04837758 -0.1338871
vn 0.9918243 0.001225132 0.127605
vn 0.979634 0.15942 0.1220759
vn 0.9496276 0.2566999 0.1797567
vn 0.7357562 0.1279639 0.6650476
vn 0.7260748 0.08770143 0.6819999
vn 0.8648695 0.04008519 0.5003937
vn 0.8098041 0.01121421 0.5865933
vn 0.7482357 0.1490208 0.6464798
vn 0.6608762 0.05635366 0.7483763
vn 0.5506232 0.2013669 0.8101022
vn 0.1674794 0.075804 0.982957
vn 0.642454 0.3318985 0.6907216
vn 0.595808 0.4022715 0.695119
vn 0.3438457 0.6296408 0.696651
vn -0.05304358 0.8133709 0.579322
vn -0.4723917 0.2091832 0.8562058
vn -0.6808917 0.3479074 0.6444742
vn -0.7730436 0.1483652 0.6167587
vn -0.6484764 0.01822896 0.7610165
vn -0.2052115 0.04500135 0.9776825
vn 0.2551746 0.3738214 0.8917081
vn -0.1908768 0.09241512 0.977254
vn -0.1670084 0.04262136 0.9850338
vn -0.1378765 0.07815681 0.987361
vn 0.1967463 0.09566583 0.975776
vn -0.01554955 0.5121223 0.8587719
g Boulder15_0
f 3/3/3 2/2/2 1/1/1
f 4/4/4 3/3/3 1/1/1
f 4/4/4 1/1/1 5/5/5
f 4/4/4 5/5/5 3/3/3
f 1/1/1 6/6/6 5/5/5
f 5/5/5 6/6/6 7/7/7
f 8/8/8 6/6/6 1/1/1
f 9/9/9 8/8/8 1/1/1
f 10/10/10 6/6/6 8/8/8
f 7/7/7 6/6/6 10/10/10
f 11/11/11 10/10/10 8/8/8
f 11/11/11 12/12/12 10/10/10
f 12/12/12 13/13/13 10/10/10
f 14/14/14 7/7/7 10/10/10
f 10/10/10 13/13/13 14/14/14
f 13/13/13 15/15/15 14/14/14
f 15/15/15 13/13/13 16/16/16
f 13/13/13 17/17/17 16/16/16
f 15/15/15 16/16/16 18/18/18
f 14/14/14 15/15/15 18/18/18
f 14/14/14 18/18/18 7/7/7
f 18/18/18 19/19/19 7/7/7
f 7/7/7 19/19/19 20/20/20
f 20/20/20 19/19/19 21/21/21
f 22/22/22 7/7/7 20/20/20
f 22/22/22 5/5/5 7/7/7
f 22/22/22 20/20/20 5/5/5
f 20/20/20 23/23/23 5/5/5
f 24/24/24 23/23/23 20/20/20
f 25/25/25 23/23/23 24/24/24
f 5/5/5 23/23/23 3/3/3
f 3/3/3 23/23/23 25/25/25
f 26/26/26 3/3/3 25/25/25
f 26/26/26 25/25/25 27/27/27
f 28/28/28 20/20/20 21/21/21
f 28/28/28 24/24/24 20/20/20
f 28/28/28 21/21/21 24/24/24
f 21/21/21 29/29/29 24/24/24
f 24/24/24 29/29/29 30/30/30
f 29/29/29 31/31/31 30/30/30
f 32/32/32 25/25/25 24/24/24
f 32/32/32 24/24/24 30/30/30
f 32/32/32 30/30/30 25/25/25
f 25/25/25 33/33/33 27/27/27
f 30/30/30 33/33/33 25/25/25
f 31/31/31 34/34/34 30/30/30
f 30/30/30 34/34/34 33/33/33
f 34/34/34 31/31/31 35/35/35
f 27/27/27 33/33/33 36/36/36
f 37/37/37 27/27/27 36/36/36
f 33/33/33 38/38/38 36/36/36
f 34/34/34 38/38/38 33/33/33
f 38/38/38 39/39/39 36/36/36
f 39/39/39 38/38/38 40/40/40
f 40/40/40 38/38/38 34/34/34
f 41/41/41 39/39/39 40/40/40
f 35/35/35 42/42/42 40/40/40
f 43/43/43 40/40/40 34/34/34
f 43/43/43 34/34/34 35/35/35
f 43/43/43 35/35/35 40/40/40
f 46/46/46 45/45/45 44/44/44
f 45/45/45 47/47/47 44/44/44
f 48/48/48 47/47/47 45/45/45
f 49/49/49 47/47/47 48/48/48
f 50/50/50 48/48/48 45/45/45
f 51/51/51 47/47/47 49/49/49
f 52/52/52 51/51/51 49/49/49
f 50/50/50 53/53/53 48/48/48
f 52/52/52 49/49/49 54/54/54
f 53/53/53 55/55/55 48/48/48
f 48/48/48 55/55/55 56/56/56
f 53/53/53 57/57/57 55/55/55
f 58/58/58 49/49/49 48/48/48
f 58/58/58 48/48/48 56/56/56
f 58/58/58 56/56/56 49/49/49
f 49/49/49 59/59/59 54/54/54
f 56/56/56 59/59/59 49/49/49
f 54/54/54 59/59/59 60/60/60
f 61/61/61 54/54/54 60/60/60
f 62/62/62 59/59/59 56/56/56
f 60/60/60 59/59/59 62/62/62
f 60/60/60 63/63/63 61/61/61
f 63/63/63 64/64/64 61/61/61
f 64/64/64 63/63/63 65/65/65
f 63/63/63 66/66/66 65/65/65
f 67/67/67 66/66/66 63/63/63
f 68/68/68 63/63/63 60/60/60
f 68/68/68 67/67/67 63/63/63
f 69/69/69 68/68/68 60/60/60
f 69/69/69 60/60/60 62/62/62
f 68/68/68 70/70/70 67/67/67
f 70/70/70 68/68/68 69/69/69
f 70/70/70 71/71/71 67/67/67
f 71/71/71 70/70/70 72/72/72
f 72/72/72 70/70/70 69/69/69
f 73/73/73 71/71/71 72/72/72
f 74/74/74 72/72/72 69/69/69
f 72/72/72 74/74/74 73/73/73
f 62/62/62 74/74/74 69/69/69
f 74/74/74 75/75/75 73/73/73
f 76/76/76 75/75/75 74/74/74
f 77/77/77 75/75/75 76/76/76
f 78/78/78 74/74/74 62/62/62
f 78/78/78 76/76/76 74/74/74
f 79/79/79 78/78/78 62/62/62
f 76/76/76 78/78/78 79/79/79
f 79/79/79 62/62/62 56/56/56
f 79/79/79 56/56/56 80/80/80
f 80/80/80 76/76/76 79/79/79
f 56/56/56 55/55/55 80/80/80
f 55/55/55 81/81/81 80/80/80
f 57/57/57 81/81/81 55/55/55
f 82/82/82 81/81/81 57/57/57
f 83/83/83 82/82/82 57/57/57
f 83/83/83 84/84/84 82/82/82
f 84/84/84 85/85/85 82/82/82
f 82/82/82 85/85/85 86/86/86
f 81/81/81 87/87/87 80/80/80
f 87/87/87 81/81/81 82/82/82
f 80/80/80 87/87/87 76/76/76
f 88/88/88 82/82/82 86/86/86
f 88/88/88 87/87/87 82/82/82
f 86/86/86 89/89/89 88/88/88
f 89/89/89 90/90/90 88/88/88
f 88/88/88 90/90/90 87/87/87
f 90/90/90 89/89/89 77/77/77
f 91/91/91 77/77/77 76/76/76
f 91/91/91 90/90/90 77/77/77
f 90/90/90 92/92/92 87/87/87
f 87/87/87 92/92/92 76/76/76
f 92/92/92 90/90/90 91/91/91
f 76/76/76 92/92/92 91/91/91
