g Boulder09
v 0.0031138037 0.008269527 -0.008569231
v -0.0020304527 0.007672606 -0.008730147
v -5.8507917E-06 0.006163404 -0.009750852
v 0.00032892704 0.01292011 -0.0064610955
v 0.0050146435 0.014945514 -0.0043028067
v 0.00048129557 0.015996162 -0.0015655422
v 0.0058014533 0.0093234135 -0.0062628267
v 0.008065696 0.0053967736 -0.0053649712
v 0.009256582 0.009813191 0.0026779461
v 0.0062825535 0.015487034 0.0015665626
v 0.009944194 0.00778336 0.0050591854
v -0.0015920161 0.012572021 -0.005565667
v -0.003702812 0.008719299 -0.0076639317
v 0.0040715407 0.01665295 -0.001617813
v -0.003314686 0.012352185 -0.0041340226
v -0.004943952 0.008516041 -0.0071157324
v -0.0011653326 0.015016937 -0.0010128833
v -0.0025836756 0.014096913 3.8464495E-05
v -0.0047447276 0.012000814 0.0011328848
v -0.003314686 0.012352185 -0.0041340226
v -0.0061217854 0.004116769 -0.005636833
v -0.0057243425 0.0059576523 -0.004009287
v -0.0060047675 0.0058790133 0.00023512382
v -0.0015350503 0.013523025 0.003226951
v -0.005624013 0.010152067 0.004368817
v -0.005624013 0.010152067 0.004368817
v -0.005083716 0.011830045 0.0061852825
v -0.007571222 0.0023810517 0.0031220852
v 0.0028247738 0.01430865 0.004742355
v -0.0038340976 0.012537161 0.007580191
v 0.00364174 0.01201144 0.008127613
v -0.0018045711 0.010142337 0.009145116
v 0.006337065 0.012550542 0.0058678524
v 0.004492966 0.009585125 0.00963415
v 0.0068978053 0.008911727 0.008353328
v 0.010037291 0.005450635 0.0064715985
v -0.0068538236 0.006825288 0.006504889
v -0.0078055924 0.002687896 0.007919946
v -0.008411542 -0.001564099 0.0033906018
v -0.006240866 0.007449079 0.008633648
v -0.005083716 0.011830045 0.0061852825
v -0.0050830245 0.0075675 0.009997203
v -0.0072685787 0.0020342798 0.0103733
v -0.0038340976 0.012537161 0.007580191
v -0.0058037573 0.0012317296 0.012255483
v -0.0046010385 0.0016464216 0.01401295
v -0.0018045711 0.010142337 0.009145116
v -0.0035480787 0.0057602557 0.011293751
v -0.0015880712 0.00057706755 0.012679063
v -0.0013775671 0.0052575367 0.011354076
v 0.0010498214 -8.204866E-05 0.012390673
v 0.002030475 0.0045583635 0.011276152
v -0.00014499399 0.007837195 0.0104867015
v 0.004492966 0.009585125 0.00963415
vt 0.43571094 0.5148896
vt 0.41753182 0.5084061
vt 0.42334253 0.5126904
vt 0.42594633 0.50405496
vt 0.4412883 0.4990313
vt 0.4309896 0.48924652
vt 0.44298792 0.50340533
vt 0.45787245 0.50595653
vt 0.46598226 0.49193925
vt 0.44767916 0.48929515
vt 0.467172 0.48573807
vt 0.41670808 0.49528247
vt 0.41054544 0.49961734
vt 0.4393249 0.49535844
vt 0.41397384 0.488289
vt 0.4052083 0.49212405
vt 0.42689878 0.48613358
vt 0.42234695 0.4826699
vt 0.42102277 0.4772809
vt 0.41397384 0.488289
vt 0.40031 0.48314255
vt 0.40634137 0.48178983
vt 0.41255948 0.47157198
vt 0.43093684 0.47760305
vt 0.41911808 0.46790606
vt 0.41911808 0.46790606
vt 0.42340398 0.46735704
vt 0.4110098 0.4643165
vt 0.44058955 0.47791666
vt 0.42815542 0.4637143
vt 0.44392943 0.47096217
vt 0.4343818 0.46178773
vt 0.45262948 0.47701114
vt 0.44537646 0.4662305
vt 0.45259246 0.47086236
vt 0.46995288 0.47760278
vt 0.41960114 0.46094507
vt 0.41674504 0.45766857
vt 0.4065717 0.4592694
vt 0.42147243 0.45758706
vt 0.42340398 0.46735704
vt 0.42546225 0.45611486
vt 0.41886783 0.4525401
vt 0.42815542 0.4637143
vt 0.42521065 0.44301313
vt 0.431564 0.44062266
vt 0.4343818 0.46178773
vt 0.43229294 0.45371258
vt 0.4386074 0.44322762
vt 0.43876207 0.4538133
vt 0.44741052 0.4460115
vt 0.44334996 0.45592868
vt 0.44012144 0.45960045
vt 0.44537646 0.4662305
vn 0.16331631 0.44789967 -0.8790413
vn -0.11003294 0.47127753 -0.87509435
vn -0.022785405 0.4385561 -0.8984149
vn -0.010073741 0.6163274 -0.7874255
vn 0.62475145 0.570621 -0.53298914
vn -0.2465935 0.96599525 -0.07774799
vn 0.75817186 0.37915665 -0.5304864
vn 0.8776614 0.32011247 -0.35670486
vn 0.8899594 0.45106336 -0.06718712
vn 0.5897699 0.79943705 0.1143325
vn 0.7650255 0.46320173 0.44741488
vn -0.4434524 0.687223 -0.5753907
vn -0.4014172 0.5837275 -0.7057807
vn 0.31541246 0.9376279 -0.14618102
vn -0.7886613 0.5513434 -0.27209178
vn -0.8881398 0.43340525 -0.15286484
vn -0.44176602 0.8970417 0.012614134
vn -0.74498105 0.6638861 -0.06525773
vn -0.882031 0.45899948 -0.106493436
vn -0.7886613 0.5513434 -0.27209178
vn -0.9475917 0.31855792 0.024305409
vn -0.9447701 0.3210415 -0.065893136
vn -0.96337354 0.23617168 -0.12702137
vn -0.3895699 0.90515596 0.17008196
vn -0.91961443 0.38613328 -0.07218293
vn -0.91961443 0.38613328 -0.07218293
vn -0.6628346 0.7316308 0.15926927
vn -0.96783364 0.22894233 -0.10432419
vn -0.02507907 0.879499 0.47523952
vn -0.26051754 0.81542826 0.51692104
vn 0.13478169 0.6781477 0.7224608
vn -0.047375217 0.59025186 0.80582774
vn 0.5922883 0.64594513 0.48161116
vn 0.17644839 0.50026965 0.84770054
vn 0.6542395 0.47679108 0.5870614
vn 0.7321477 0.42671716 0.5309164
vn -0.9619092 0.27129212 -0.033633728
vn -0.97137344 0.23190872 0.05149688
vn -0.977086 0.2039834 -0.0607752
vn -0.84939045 0.355883 0.38972193
vn -0.6628346 0.7316308 0.15926927
vn -0.4912594 0.44199836 0.7505342
vn -0.79799795 0.31186703 0.515692
vn -0.26051754 0.81542826 0.51692104
vn -0.62717205 0.3851692 0.67697847
vn -0.07963511 0.4366245 0.89611226
vn -0.047375217 0.59025186 0.80582774
vn -0.14474009 0.44366735 0.8844262
vn 0.20344631 0.29083648 0.93489236
vn 0.13549507 0.3216823 0.9371028
vn 0.11196467 0.23818912 0.96474344
vn 0.09171619 0.26062283 0.9610743
vn 0.015842767 0.39028856 0.9205563
vn 0.17644839 0.50026965 0.84770054
g Boulder09_0
f 3/3/3 2/2/2 1/1/1
f 2/2/2 4/4/4 1/1/1
f 1/1/1 4/4/4 5/5/5
f 5/5/5 4/4/4 6/6/6
f 7/7/7 1/1/1 5/5/5
f 7/7/7 5/5/5 8/8/8
f 5/5/5 9/9/9 8/8/8
f 10/10/10 9/9/9 5/5/5
f 11/11/11 9/9/9 10/10/10
f 12/12/12 4/4/4 2/2/2
f 6/6/6 4/4/4 12/12/12
f 13/13/13 12/12/12 2/2/2
f 14/14/14 5/5/5 6/6/6
f 14/14/14 10/10/10 5/5/5
f 14/14/14 6/6/6 10/10/10
f 15/15/15 12/12/12 13/13/13
f 16/16/16 15/15/15 13/13/13
f 17/17/17 12/12/12 15/15/15
f 17/17/17 6/6/6 12/12/12
f 18/18/18 17/17/17 15/15/15
f 18/18/18 19/19/19 17/17/17
f 18/18/18 20/20/20 19/19/19
f 16/16/16 21/21/21 20/20/20
f 21/21/21 22/22/22 20/20/20
f 20/20/20 22/22/22 19/19/19
f 22/22/22 23/23/23 19/19/19
f 17/17/17 24/24/24 6/6/6
f 19/19/19 24/24/24 17/17/17
f 23/23/23 25/25/25 19/19/19
f 19/19/19 26/26/26 24/24/24
f 26/26/26 27/27/27 24/24/24
f 25/25/25 23/23/23 28/28/28
f 24/24/24 29/29/29 6/6/6
f 24/24/24 27/27/27 29/29/29
f 27/27/27 30/30/30 29/29/29
f 6/6/6 29/29/29 10/10/10
f 29/29/29 30/30/30 31/31/31
f 10/10/10 29/29/29 31/31/31
f 30/30/30 32/32/32 31/31/31
f 33/33/33 10/10/10 31/31/31
f 33/33/33 11/11/11 10/10/10
f 31/31/31 34/34/34 33/33/33
f 33/33/33 35/35/35 11/11/11
f 34/34/34 35/35/35 33/33/33
f 35/35/35 36/36/36 11/11/11
f 37/37/37 25/25/25 28/28/28
f 38/38/38 37/37/37 28/28/28
f 39/39/39 38/38/38 28/28/28
f 37/37/37 40/40/40 25/25/25
f 37/37/37 38/38/38 40/40/40
f 40/40/40 41/41/41 25/25/25
f 40/40/40 42/42/42 41/41/41
f 38/38/38 43/43/43 40/40/40
f 40/40/40 43/43/43 42/42/42
f 42/42/42 44/44/44 41/41/41
f 43/43/43 45/45/45 42/42/42
f 42/42/42 45/45/45 46/46/46
f 47/47/47 44/44/44 42/42/42
f 48/48/48 42/42/42 46/46/46
f 48/48/48 47/47/47 42/42/42
f 46/46/46 49/49/49 48/48/48
f 49/49/49 50/50/50 48/48/48
f 48/48/48 50/50/50 47/47/47
f 50/50/50 49/49/49 51/51/51
f 52/52/52 50/50/50 51/51/51
f 53/53/53 50/50/50 52/52/52
f 50/50/50 53/53/53 47/47/47
f 34/34/34 53/53/53 52/52/52
f 47/47/47 53/53/53 54/54/54
f 31/31/31 47/47/47 54/54/54
