g Boulder17
v 0.5964595 -0.07915706 -0.34280425
v 0.9672651 -0.03672268 0.26748383
v 0.86989945 0.060932655 0.025855407
v 0.59520704 -0.33143154 -0.12784332
v 0.9730244 -0.09733608 0.3784555
v 0.7170076 -0.36504725 0.19860077
v 0.3455281 -0.6871698 -0.08903839
v 0.29857865 -0.1362167 -0.7880899
v 0.3452461 -0.48202664 -0.43158966
v 0.2708235 -0.68496823 -0.25737578
v 0.07426345 -0.6916681 -0.35226715
v 0.02456375 -0.3593768 -0.71430326
v -0.14255905 -0.7109976 -0.13010406
v -0.14102462 -0.20212306 -0.7693985
v -0.44485763 0.025627479 -0.75836086
v -0.25675216 -0.049510308 -0.8466031
v -0.5637297 0.034458656 -0.6594351
v -0.64616865 0.0050735855 -0.5392923
v -0.387852 -0.7275929 0.13700287
v -0.766154 -0.06613766 -0.33001128
v -0.7312776 -0.41763866 0.17480865
v -0.61977184 -0.66777146 0.355076
v -0.82945323 -0.14600612 -0.11124847
v -0.8413794 -0.13283412 -0.014150085
v 0.07493545 -0.3164747 0.92473114
v 0.17172347 0.017692756 0.9319815
v 0.37638137 0.13530873 0.93691254
v 0.40846756 -0.16278835 0.7915634
v 0.50345534 0.21327427 0.8892245
v 0.75602 0.055920143 0.6706967
v 0.947729 -0.036164816 0.4703366
v -0.00591629 -0.4703323 0.891174
v 0.39825147 -0.3580859 0.6673947
v 0.9730244 -0.09733608 0.3784555
v 0.7170076 -0.36504725 0.19860077
v 0.20810013 -0.69177425 0.26116547
v 0.3455281 -0.6871698 -0.08903839
v 0.046721954 -0.69565034 0.59430146
v -0.05664444 -0.5637545 0.8692181
v -0.15749435 -0.7094125 0.81395596
v -0.23601073 -0.71531004 0.73977536
v -0.22372481 -0.7180844 0.48340422
v -0.32456574 -0.7098967 0.6526144
v -0.61977184 -0.66777146 0.355076
v -0.387852 -0.7275929 0.13700287
v 0.0018574523 -0.7089044 0.108992614
v 0.2708235 -0.68496823 -0.25737578
v -0.14255905 -0.7109976 -0.13010406
v 0.07426345 -0.6916681 -0.35226715
v -0.15749435 -0.7094125 0.81395596
v -0.23601073 -0.71531004 0.73977536
v -0.32456574 -0.7098967 0.6526144
v -0.65879256 -0.034896355 0.2512094
v -0.61977184 -0.66777146 0.355076
v -0.7312776 -0.41763866 0.17480865
v -0.8413794 -0.13283412 -0.014150085
v -0.5077937 0.005380745 0.41384795
v -0.3200206 0.100558504 0.5677554
v -0.05664444 -0.5637545 0.8692181
v 0.014664154 0.014428749 0.7705758
v -0.00591629 -0.4703323 0.891174
v 0.07493545 -0.3164747 0.92473114
v 0.17172347 0.017692756 0.9319815
vt 0.44159886 0.4704949
vt 0.44429228 0.48589376
vt 0.44471818 0.47991356
vt 0.43854877 0.47553325
vt 0.44324178 0.48839012
vt 0.43819267 0.48353133
vt 0.43085673 0.47505283
vt 0.43889216 0.45875403
vt 0.43500513 0.46714413
vt 0.43068382 0.47065714
vt 0.42722237 0.46675545
vt 0.4313792 0.45807922
vt 0.4206906 0.46967608
vt 0.42944258 0.4554751
vt 0.42488745 0.4532723
vt 0.42871606 0.45293728
vt 0.4219505 0.45434093
vt 0.4193067 0.45610934
vt 0.41339824 0.47322834
vt 0.41500846 0.4593721
vt 0.40858078 0.46995366
vt 0.40911037 0.47518045
vt 0.40964103 0.4636409
vt 0.40887043 0.46480313
vt 0.42106032 0.49223733
vt 0.42275235 0.49206507
vt 0.4286791 0.49269366
vt 0.42852402 0.49164584
vt 0.4318274 0.49254823
vt 0.43738973 0.49140567
vt 0.44226885 0.48968878
vt 0.41891393 0.49154824
vt 0.42801714 0.490044
vt 0.44324178 0.48839012
vt 0.43819267 0.48353133
vt 0.42503297 0.48131454
vt 0.43085673 0.47505283
vt 0.41902912 0.48680702
vt 0.4160684 0.49122614
vt 0.41354936 0.48979783
vt 0.41106915 0.4876582
vt 0.41418552 0.48204088
vt 0.40966198 0.48496705
vt 0.40911037 0.47518045
vt 0.41339824 0.47322834
vt 0.42181593 0.4761793
vt 0.43068382 0.47065714
vt 0.4206906 0.46967608
vt 0.42722237 0.46675545
vt 0.41354936 0.48979783
vt 0.41106915 0.4876582
vt 0.40966198 0.48496705
vt 0.40958408 0.47786167
vt 0.40911037 0.47518045
vt 0.40858078 0.46995366
vt 0.40887043 0.46480313
vt 0.41138774 0.47634593
vt 0.41459936 0.4780297
vt 0.4160684 0.49122614
vt 0.41856128 0.4877207
vt 0.41891393 0.49154824
vt 0.42106032 0.49223733
vt 0.42275235 0.49206507
vn 0.8094894 -0.40729088 -0.42289597
vn 0.94410074 0.32952967 -0.009154916
vn 0.94649315 0.31862983 0.051242113
vn 0.7742029 -0.5793606 -0.2548554
vn 0.96540236 0.1992716 0.16819341
vn 0.78827405 -0.55926085 -0.25661525
vn 0.7667153 -0.5895663 -0.25408512
vn -0.049353268 -0.18812867 -0.98090357
vn 0.32987997 -0.65443105 -0.680367
vn 0.33270922 -0.67676467 -0.65672994
vn 0.33013925 -0.6563955 -0.6783458
vn -0.062654205 -0.20667347 -0.97640187
vn 0.106985144 -0.99166006 0.07186442
vn -0.0048175147 -0.2557033 -0.96674335
vn -0.61802167 -0.20953177 -0.757724
vn 0.05368121 -0.30375174 -0.95123774
vn -0.7192311 -0.15235433 -0.67786044
vn -0.77315253 -0.1295558 -0.6208466
vn 0.056859512 -0.9936195 0.09740207
vn -0.78573227 -0.13926953 -0.6026847
vn -0.8591449 -0.35982335 0.36386412
vn 0.056859616 -0.9936195 0.097401895
vn -0.94315827 -0.22643386 -0.24326967
vn -0.94315827 -0.22643389 -0.24326973
vn 0.5018092 -0.41636485 0.758174
vn 0.24965593 0.041866414 0.96742916
vn 0.48418674 -0.36404154 0.7956362
vn 0.50331753 -0.43046844 0.74924517
vn 0.71782595 0.11359707 0.6868928
vn 0.7257878 0.12325682 0.67678636
vn 0.9360837 0.30255502 0.17946562
vn 0.5564063 -0.59163785 0.583418
vn 0.54170036 -0.6429947 0.54140425
vn 0.96540236 0.1992716 0.16819341
vn 0.78827405 -0.55926085 -0.25661525
vn 0.54169905 -0.7197729 0.43415332
vn 0.7667153 -0.5895663 -0.25408512
vn 0.56261843 -0.6445483 0.5177045
vn 0.59934264 -0.5554025 0.57646906
vn 0.59934264 -0.5554025 0.57646906
vn 0.0856496 -0.98856366 0.12412084
vn 0.0856496 -0.98856366 0.12412084
vn 0.0856496 -0.98856366 0.12412084
vn 0.056859616 -0.9936195 0.097401895
vn 0.056859512 -0.9936195 0.09740207
vn 0.12703758 -0.98387444 0.12590647
vn 0.33270922 -0.67676467 -0.65672994
vn 0.106985144 -0.99166006 0.07186442
vn 0.33013925 -0.6563955 -0.6783458
vn 0.59934264 -0.5554025 0.57646906
vn 0.0856496 -0.98856366 0.12412084
vn 0.0856496 -0.98856366 0.12412084
vn -0.8333404 0.08699247 0.54587173
vn 0.056859616 -0.9936195 0.097401895
vn -0.8591449 -0.35982335 0.36386412
vn -0.94315827 -0.22643389 -0.24326973
vn -0.8333404 0.086992435 0.5458718
vn -0.60833776 0.4967718 0.6189854
vn 0.59934264 -0.5554025 0.57646906
vn -0.12479352 0.73494834 0.6665414
vn 0.5564063 -0.59163785 0.583418
vn 0.5018092 -0.41636485 0.758174
vn 0.24965593 0.041866414 0.96742916
g Boulder17_0
f 3/3/3 2/2/2 1/1/1
f 2/2/2 4/4/4 1/1/1
f 4/4/4 2/2/2 5/5/5
f 6/6/6 4/4/4 5/5/5
f 7/7/7 4/4/4 6/6/6
f 8/8/8 1/1/1 4/4/4
f 4/4/4 7/7/7 9/9/9
f 9/9/9 8/8/8 4/4/4
f 7/7/7 10/10/10 9/9/9
f 11/11/11 9/9/9 10/10/10
f 8/8/8 9/9/9 11/11/11
f 12/12/12 8/8/8 11/11/11
f 11/11/11 13/13/13 12/12/12
f 13/13/13 14/14/14 12/12/12
f 13/13/13 15/15/15 14/14/14
f 15/15/15 16/16/16 14/14/14
f 17/17/17 15/15/15 13/13/13
f 18/18/18 17/17/17 13/13/13
f 18/18/18 13/13/13 19/19/19
f 20/20/20 18/18/18 19/19/19
f 20/20/20 19/19/19 21/21/21
f 19/19/19 22/22/22 21/21/21
f 23/23/23 20/20/20 21/21/21
f 24/24/24 23/23/23 21/21/21
f 27/27/27 26/26/26 25/25/25
f 28/28/28 27/27/27 25/25/25
f 29/29/29 27/27/27 28/28/28
f 30/30/30 29/29/29 28/28/28
f 28/28/28 31/31/31 30/30/30
f 28/28/28 25/25/25 32/32/32
f 28/28/28 33/33/33 31/31/31
f 33/33/33 28/28/28 32/32/32
f 33/33/33 34/34/34 31/31/31
f 35/35/35 34/34/34 33/33/33
f 33/33/33 36/36/36 35/35/35
f 36/36/36 33/33/33 32/32/32
f 36/36/36 37/37/37 35/35/35
f 38/38/38 36/36/36 32/32/32
f 38/38/38 32/32/32 39/39/39
f 40/40/40 38/38/38 39/39/39
f 38/38/38 40/40/40 41/41/41
f 42/42/42 38/38/38 41/41/41
f 36/36/36 38/38/38 42/42/42
f 41/41/41 43/43/43 42/42/42
f 43/43/43 44/44/44 42/42/42
f 44/44/44 45/45/45 42/42/42
f 36/36/36 46/46/46 37/37/37
f 46/46/46 36/36/36 42/42/42
f 46/46/46 42/42/42 45/45/45
f 46/46/46 47/47/47 37/37/37
f 48/48/48 46/46/46 45/45/45
f 47/47/47 46/46/46 48/48/48
f 49/49/49 47/47/47 48/48/48
f 52/52/52 51/51/51 50/50/50
f 50/50/50 53/53/53 52/52/52
f 54/54/54 52/52/52 53/53/53
f 53/53/53 55/55/55 54/54/54
f 53/53/53 56/56/56 55/55/55
f 50/50/50 57/57/57 53/53/53
f 58/58/58 57/57/57 50/50/50
f 59/59/59 58/58/58 50/50/50
f 60/60/60 58/58/58 59/59/59
f 61/61/61 60/60/60 59/59/59
f 61/61/61 62/62/62 60/60/60
f 63/63/63 60/60/60 62/62/62
