g Boulder01
v 0.0092126 -0.009032641 -0.002677372
v 0.01123154 -0.002671622 -0.001201249
v 0.01076547 -0.00380487 -0.002699796
v 0.009630184 -0.007942206 0.0002130785
v 0.01148018 -0.001932284 0.0001104499
v 0.00990579 -0.007367739 0.001633483
v 0.01158411 -0.001539972 0.00183222
v 0.01007315 -0.006768943 0.0029834
v 0.01162577 -0.001364314 0.003317628
v 0.01018901 -0.006209936 0.004469406
v 0.01046158 0.001443488 0.003635715
v 0.006858421 -0.005040518 0.006428381
v 0.0097859 0.005024433 0.005683765
v 0.006174526 -0.0003961182 0.01032469
v 0.003770027 0.006996784 0.008725624
v 0.009564044 0.002138575 0.002016337
v 0.006306266 0.00790905 0.00649971
v 0.009131357 0.005869085 0.003129896
v 0.005588704 0.009505601 0.003993182
v 0.005887505 0.0100214 0.002394833
v 0.008875527 0.002227148 -0.0001756393
v 0.009564044 0.002138575 0.002016337
v 0.01046158 0.001443488 0.003635715
v 0.008875527 0.002227148 -0.0001756393
v 0.01148018 -0.001932284 0.0001104499
v 0.009073551 0.0008027805 -0.002533129
v 0.01123154 -0.002671622 -0.001201249
v 0.008923591 -0.0007909222 -0.004430536
v 0.01076547 -0.00380487 -0.002699796
v 0.007951965 0.006014671 0.001117604
v 0.00802621 0.003851384 -0.002112071
v 0.004605681 0.0077012 -0.002895502
v 0.009073551 0.0008027805 -0.002533129
v 0.008923591 -0.0007909222 -0.004430536
v 0.004930665 0.003149865 -0.008007158
v 0.006046225 -0.009502756 -0.004597619
v 0.0005224281 -0.007089043 -0.006951629
v 0.003172061 0.00527149 -0.006882231
v 0.004896906 0.005396895 -0.004930638
v 0.002896829 0.007803272 -0.005476416
v 0.002295788 0.009395347 -0.003121607
v 0.003996524 0.01090754 -0.000332496
v 0.002426874 0.009223253 0.004743117
v 0.002293911 0.007601814 0.006935024
v 0.005588704 0.009505601 0.003993182
v 0.003770027 0.006996784 0.008725624
v 0.006306266 0.00790905 0.00649971
v 0.006046225 -0.009502756 -0.004597619
v 0.0092126 -0.009032641 -0.002677372
v 0.01076547 -0.00380487 -0.002699796
v 0.008923591 -0.0007909222 -0.004430536
vt 0.4393888 0.4515759
vt 0.4349924 0.4594899
vt 0.439297 0.4591471
vt 0.4337945 0.4514849
vt 0.4293993 0.4594712
vt 0.4288865 0.4521601
vt 0.4228591 0.4587412
vt 0.4230409 0.4529061
vt 0.4204153 0.4585387
vt 0.4197076 0.4535595
vt 0.4172596 0.4656037
vt 0.4152379 0.4594827
vt 0.4120318 0.4708263
vt 0.4087503 0.4660515
vt 0.4093941 0.4783512
vt 0.4224232 0.4657753
vt 0.4115852 0.4775108
vt 0.4168934 0.4741402
vt 0.4164776 0.480501
vt 0.4174752 0.4830166
vt 0.4281451 0.4666046
vt 0.4224232 0.4657753
vt 0.4172596 0.4656037
vt 0.4281451 0.4666046
vt 0.4293993 0.4594712
vt 0.4353574 0.4659785
vt 0.4349924 0.4594899
vt 0.4405002 0.4644007
vt 0.439297 0.4591471
vt 0.4225921 0.4768143
vt 0.437362 0.4737102
vt 0.4312785 0.4862848
vt 0.4353574 0.4659785
vt 0.4405002 0.4644007
vt 0.4545747 0.482351
vt 0.4505258 0.4609766
vt 0.4478809 0.4668899
vt 0.4442685 0.4840718
vt 0.438325 0.4818796
vt 0.4378695 0.4894511
vt 0.4264203 0.4902915
vt 0.4247421 0.4877654
vt 0.4137043 0.4842908
vt 0.4133898 0.4811912
vt 0.4164776 0.480501
vt 0.4093941 0.4783512
vt 0.4115852 0.4775108
vt 0.4505258 0.4609766
vt 0.4393888 0.4515759
vt 0.439297 0.4591471
vt 0.4405002 0.4644007
vn 0.6876518 -0.2086216 -0.6954222
vn 0.9766136 0.04535051 -0.2101645
vn 0.7858869 -0.1437503 -0.6014296
vn 0.9549751 -0.2935484 -0.04303341
vn 0.9767693 0.1443302 -0.1584
vn 0.9578759 -0.28647 -0.0202125
vn 0.9904776 0.09418258 -0.1004186
vn 0.9608298 -0.2769628 0.009886449
vn 0.7546425 0.07229282 0.6521415
vn 0.7211185 -0.03181787 0.6920807
vn 0.8958481 -0.05452612 0.4410022
vn 0.7563743 -0.1139196 0.6441431
vn 0.8144287 0.1952765 0.5464181
vn 0.7887654 -0.03756648 0.6135453
vn 0.4222976 0.496373 0.7584713
vn 0.8941097 0.3549514 -0.2730885
vn 0.4992807 0.585727 0.638469
vn 0.8471696 0.5222402 -0.09782137
vn 0.4399371 0.8521614 0.2833308
vn 0.4743053 0.8686659 -0.143018
vn 0.8948175 0.3750795 -0.2421096
vn 0.8941097 0.3549514 -0.2730885
vn 0.8958481 -0.05452612 0.4410022
vn 0.8948175 0.3750795 -0.2421096
vn 0.9767693 0.1443302 -0.1584
vn 0.8389255 0.3853023 -0.3843777
vn 0.9766136 0.04535051 -0.2101645
vn 0.5625031 -0.0657438 -0.8241771
vn 0.7858869 -0.1437503 -0.6014296
vn 0.8105375 0.4843114 -0.3293501
vn 0.8054848 0.4553925 -0.3792253
vn 0.7003459 0.5539448 -0.4501786
vn 0.8389255 0.3853023 -0.3843777
vn 0.5625031 -0.0657438 -0.8241771
vn 0.5556052 0.01139509 -0.8313681
vn 0.4431912 -0.1924226 -0.8755313
vn 0.4173026 -0.2019709 -0.8860397
vn 0.6589177 0.5755293 -0.4843484
vn 0.6788623 0.5706254 -0.4620959
vn 0.64824 0.5434294 -0.5333567
vn 0.2744235 0.8941694 -0.3537696
vn 0.251086 0.9488001 -0.1916616
vn -0.1968277 0.9180902 0.3440486
vn -0.005395415 0.882727 0.4698552
vn 0.4399371 0.8521614 0.2833308
vn 0.4222976 0.496373 0.7584713
vn 0.4992807 0.585727 0.638469
vn 0.4431912 -0.1924226 -0.8755313
vn 0.6876518 -0.2086216 -0.6954222
vn 0.7858869 -0.1437503 -0.6014296
vn 0.5625031 -0.0657438 -0.8241771
g Boulder01_0
f 3/3/3 2/2/2 1/1/1
f 2/2/2 4/4/4 1/1/1
f 2/2/2 5/5/5 4/4/4
f 5/5/5 6/6/6 4/4/4
f 5/5/5 7/7/7 6/6/6
f 7/7/7 8/8/8 6/6/6
f 7/7/7 9/9/9 8/8/8
f 9/9/9 10/10/10 8/8/8
f 10/10/10 9/9/9 11/11/11
f 12/12/12 10/10/10 11/11/11
f 11/11/11 13/13/13 12/12/12
f 13/13/13 14/14/14 12/12/12
f 15/15/15 14/14/14 13/13/13
f 13/13/13 11/11/11 16/16/16
f 17/17/17 15/15/15 13/13/13
f 18/18/18 13/13/13 16/16/16
f 17/17/17 13/13/13 18/18/18
f 19/19/19 17/17/17 18/18/18
f 19/19/19 18/18/18 20/20/20
f 16/16/16 21/21/21 18/18/18
f 9/9/9 7/7/7 22/22/22
f 23/23/23 9/9/9 22/22/22
f 22/22/22 7/7/7 24/24/24
f 7/7/7 25/25/25 24/24/24
f 24/24/24 25/25/25 26/26/26
f 25/25/25 27/27/27 26/26/26
f 26/26/26 27/27/27 28/28/28
f 27/27/27 29/29/29 28/28/28
f 21/21/21 30/30/30 18/18/18
f 18/18/18 30/30/30 20/20/20
f 31/31/31 30/30/30 21/21/21
f 20/20/20 30/30/30 32/32/32
f 32/32/32 30/30/30 31/31/31
f 33/33/33 31/31/31 21/21/21
f 33/33/33 34/34/34 31/31/31
f 34/34/34 35/35/35 31/31/31
f 35/35/35 34/34/34 36/36/36
f 37/37/37 35/35/35 36/36/36
f 31/31/31 35/35/35 38/38/38
f 39/39/39 31/31/31 38/38/38
f 39/39/39 32/32/32 31/31/31
f 39/39/39 38/38/38 32/32/32
f 38/38/38 40/40/40 32/32/32
f 32/32/32 40/40/40 41/41/41
f 42/42/42 32/32/32 41/41/41
f 42/42/42 20/20/20 32/32/32
f 42/42/42 41/41/41 20/20/20
f 41/41/41 43/43/43 20/20/20
f 20/20/20 43/43/43 44/44/44
f 45/45/45 20/20/20 44/44/44
f 44/44/44 46/46/46 45/45/45
f 46/46/46 47/47/47 45/45/45
f 50/50/50 49/49/49 48/48/48
f 51/51/51 50/50/50 48/48/48
