g Boulder20
v -0.4330855 -0.6434448 0.5783945
v -0.5147921 -0.6717268 0.417908
v -0.6387965 -0.2875409 0.5615512
v 0.05362991 -0.6819181 -0.3808292
v 0.3219423 -0.1788998 -0.7364615
v 0.03650619 -0.3973837 -0.678041
v 0.3356138 -0.4768574 -0.4452988
v 0.2444054 -0.6591069 -0.3021024
v -0.1712636 -0.6923155 -0.1729544
v -0.03841659 -0.664711 0.03790924
v -0.4260858 -0.697809 0.07694
v -0.2779167 -0.6536999 0.3847604
v -0.5873122 -0.6829349 0.22918
v -0.5147921 -0.6717268 0.417908
v -0.4330855 -0.6434448 0.5783945
v -0.3372316 -0.6275425 0.6529403
v 0.02188614 -0.6131338 0.5167624
v -0.2047411 -0.6059257 0.6895187
v 0.2306187 -0.6305307 0.2484848
v 0.3978084 -0.6487486 -0.05518585
v 0.5776057 -0.2982412 -0.1673721
v 0.6006404 -0.07567883 -0.340347
v 0.4235945 0.0471912 -0.765867
v 0.7087825 -0.2999275 0.1498636
v 0.2306187 -0.6305307 0.2484848
v 0.6323701 0.1539563 -0.4930087
v 0.4204997 0.1049303 -0.787416
v 0.624806 0.2136512 -0.5222549
v 0.9416997 -0.01834774 0.2959567
v 0.4768849 -0.296983 0.5342233
v -0.01074966 -0.3417068 0.763006
v 0.3623778 -0.0730003 0.6863022
v 0.02188614 -0.6131338 0.5167624
v 0.9437541 0.03011387 0.2009592
v 0.9158583 0.04596973 0.3853201
v 0.8625749 0.09919941 -0.005502624
v 0.8187538 0.231994 -0.2236063
v -0.1169182 -0.4406219 0.7646359
v -0.2047411 -0.6059257 0.6895187
v -0.2432019 -0.03511807 0.8451999
v -0.2003825 0.1415532 0.8334934
v 0.8143638 0.3406546 -0.2539847
v 0.7281392 0.5442646 -0.1794357
v 0.7549891 0.5626914 0.02158417
v 0.8128254 0.5578278 0.2663034
v 0.7394261 0.5044261 0.4802261
v 0.7223408 0.1408142 0.582015
v 0.6165266 0.4712839 0.6329635
v 0.4711229 0.2963704 0.8031137
v 0.5663298 0.6344358 0.428652
v 0.06517594 0.4186147 0.5819193
v 0.3394685 0.2203769 0.8445779
v 0.07049728 0.1301186 0.9085004
v 0.1100569 0.06416614 0.9029306
v 0.05827896 -0.1734536 0.8185937
v -0.3372316 -0.6275425 0.6529403
v -0.4330855 -0.6434448 0.5783945
v -0.6387965 -0.2875409 0.5615512
v -0.450694 -0.2874263 0.7284887
v -0.2047411 -0.6059257 0.6895187
v -0.1169182 -0.4406219 0.7646359
v -0.2432019 -0.03511807 0.8451999
vt 0.4288313 0.5163539
vt 0.4324266 0.5157943
vt 0.4234192 0.5197914
vt 0.4517204 0.5313179
vt 0.4535438 0.545575
vt 0.4537085 0.537215
vt 0.4518276 0.5399522
vt 0.4508579 0.5345767
vt 0.4465756 0.5258048
vt 0.4425109 0.5270607
vt 0.4403605 0.5195403
vt 0.4338603 0.5204158
vt 0.4363324 0.5159361
vt 0.4324266 0.5157943
vt 0.4288313 0.5163539
vt 0.4272816 0.5176745
vt 0.4323411 0.5251443
vt 0.4266437 0.5201033
vt 0.4401378 0.5303458
vt 0.4479545 0.5350622
vt 0.4451759 0.5455585
vt 0.4460657 0.5500932
vt 0.4518477 0.5505292
vt 0.4395182 0.5459897
vt 0.4401378 0.5303458
vt 0.4464605 0.5544757
vt 0.4528862 0.5529479
vt 0.4471391 0.5571457
vt 0.4333121 0.5545217
vt 0.4279117 0.5372112
vt 0.4226913 0.5277748
vt 0.422822 0.5398506
vt 0.4323411 0.5251443
vt 0.4348965 0.5557197
vt 0.4304194 0.5544779
vt 0.4382548 0.5559954
vt 0.4410576 0.5578645
vt 0.4233706 0.5240763
vt 0.4266437 0.5201033
vt 0.4170721 0.528207
vt 0.4135195 0.531556
vt 0.440408 0.559302
vt 0.4403717 0.5636692
vt 0.4321415 0.5598575
vt 0.4271983 0.5599341
vt 0.4227874 0.5568613
vt 0.4241364 0.5508913
vt 0.4193011 0.5532671
vt 0.4166457 0.5470047
vt 0.412507 0.5554495
vt 0.4089539 0.5433084
vt 0.4160686 0.5430551
vt 0.4147723 0.5361521
vt 0.4156192 0.5358639
vt 0.4198339 0.531538
vt 0.4272816 0.5176745
vt 0.4288313 0.5163539
vt 0.4234192 0.5197914
vt 0.4216528 0.5211912
vt 0.4266437 0.5201033
vt 0.4233706 0.5240763
vt 0.4170721 0.528207
vn 0.08564967 -0.9885637 0.1241207
vn 0.1035196 -0.9849186 0.1386321
vn -0.5366017 -0.3463453 0.7694826
vn 0.3301394 -0.6563953 -0.6783459
vn -0.04935311 -0.1881286 -0.9809036
vn -0.06265411 -0.2066733 -0.9764019
vn 0.3298801 -0.6544309 -0.6803671
vn 0.3327093 -0.6767645 -0.65673
vn 0.1069851 -0.9916601 0.07186436
vn 0.1270376 -0.9838746 0.1259062
vn 0.05685958 -0.9936195 0.09740189
vn 0.08564967 -0.9885637 0.1241207
vn 0.05685952 -0.9936195 0.09740186
vn 0.1035196 -0.9849186 0.1386321
vn 0.08564967 -0.9885637 0.1241207
vn 0.08564967 -0.9885637 0.1241207
vn 0.5626185 -0.6445482 0.5177044
vn 0.5993426 -0.5554025 0.5764689
vn 0.541699 -0.719773 0.4341533
vn 0.7667153 -0.5895662 -0.2540852
vn 0.7742029 -0.5793604 -0.2548555
vn 0.8094894 -0.4072909 -0.422896
vn 0.002075403 -0.2023147 -0.9793184
vn 0.7882738 -0.5592611 -0.2566155
vn 0.541699 -0.719773 0.4341533
vn 0.8337173 -0.1447311 -0.5328869
vn 0.002170712 -0.2714581 -0.9624479
vn 0.8326594 -0.1464605 -0.5340669
vn 0.9654024 0.1992717 0.1681932
vn 0.5417002 -0.6429948 0.5414042
vn 0.5564063 -0.5916379 0.583418
vn 0.5033177 -0.4304686 0.7492451
vn 0.5626185 -0.6445482 0.5177044
vn 0.9441009 0.3295296 -0.009155066
vn 0.9360837 0.3025549 0.1794655
vn 0.9464933 0.3186297 0.05124202
vn 0.8424472 -0.130129 -0.522828
vn 0.5993426 -0.5554025 0.5764689
vn 0.5993426 -0.5554025 0.5764689
vn 0.2686469 -0.07793447 0.9600808
vn -0.1247936 0.7349481 0.6665418
vn 0.8424472 -0.1301291 -0.522828
vn 0.9411413 0.2917378 0.1707103
vn 0.9502878 0.28566 0.1239017
vn 0.9447367 0.3260867 0.03376555
vn 0.9354429 0.3044198 0.179653
vn 0.725788 0.1232568 0.6767862
vn 0.4399108 0.7293746 0.5239189
vn 0.717826 0.113597 0.6868926
vn 0.4399107 0.7293747 0.5239189
vn -0.1224113 0.7436278 0.6572923
vn 0.4841868 -0.3640418 0.7956361
vn 0.2496558 0.04186643 0.9674292
vn 0.4870439 -0.363646 0.7940717
vn 0.5018092 -0.4163648 0.7581739
vn 0.08564967 -0.9885637 0.1241207
vn 0.08564967 -0.9885637 0.1241207
vn -0.5366017 -0.3463453 0.7694826
vn -0.5366016 -0.3463453 0.7694827
vn 0.5993426 -0.5554025 0.5764689
vn 0.5993426 -0.5554025 0.5764689
vn 0.2686469 -0.07793447 0.9600808
g Boulder20_0
f 3/3/3 2/2/2 1/1/1
f 6/6/6 5/5/5 4/4/4
f 5/5/5 7/7/7 4/4/4
f 4/4/4 7/7/7 8/8/8
f 4/4/4 8/8/8 9/9/9
f 8/8/8 10/10/10 9/9/9
f 9/9/9 10/10/10 11/11/11
f 10/10/10 12/12/12 11/11/11
f 13/13/13 11/11/11 12/12/12
f 14/14/14 13/13/13 12/12/12
f 14/14/14 12/12/12 15/15/15
f 16/16/16 15/15/15 12/12/12
f 12/12/12 17/17/17 16/16/16
f 17/17/17 18/18/18 16/16/16
f 19/19/19 17/17/17 12/12/12
f 10/10/10 19/19/19 12/12/12
f 19/19/19 10/10/10 20/20/20
f 10/10/10 8/8/8 20/20/20
f 20/20/20 8/8/8 7/7/7
f 7/7/7 5/5/5 21/21/21
f 21/21/21 20/20/20 7/7/7
f 5/5/5 22/22/22 21/21/21
f 22/22/22 5/5/5 23/23/23
f 20/20/20 21/21/21 24/24/24
f 25/25/25 20/20/20 24/24/24
f 26/26/26 22/22/22 23/23/23
f 26/26/26 23/23/23 27/27/27
f 28/28/28 26/26/26 27/27/27
f 24/24/24 21/21/21 29/29/29
f 30/30/30 25/25/25 24/24/24
f 24/24/24 29/29/29 30/30/30
f 25/25/25 30/30/30 31/31/31
f 30/30/30 32/32/32 31/31/31
f 33/33/33 25/25/25 31/31/31
f 34/34/34 21/21/21 22/22/22
f 21/21/21 34/34/34 29/29/29
f 30/30/30 29/29/29 35/35/35
f 32/32/32 30/30/30 35/35/35
f 29/29/29 34/34/34 35/35/35
f 22/22/22 26/26/26 36/36/36
f 36/36/36 34/34/34 22/22/22
f 26/26/26 28/28/28 37/37/37
f 26/26/26 37/37/37 36/36/36
f 33/33/33 31/31/31 38/38/38
f 39/39/39 33/33/33 38/38/38
f 40/40/40 38/38/38 31/31/31
f 41/41/41 40/40/40 31/31/31
f 28/28/28 42/42/42 37/37/37
f 28/28/28 43/43/43 42/42/42
f 43/43/43 44/44/44 42/42/42
f 37/37/37 42/42/42 44/44/44
f 37/37/37 44/44/44 36/36/36
f 44/44/44 45/45/45 36/36/36
f 45/45/45 34/34/34 36/36/36
f 34/34/34 45/45/45 46/46/46
f 35/35/35 34/34/34 46/46/46
f 35/35/35 46/46/46 47/47/47
f 47/47/47 46/46/46 48/48/48
f 32/32/32 35/35/35 47/47/47
f 49/49/49 47/47/47 48/48/48
f 47/47/47 49/49/49 32/32/32
f 48/48/48 50/50/50 49/49/49
f 50/50/50 51/51/51 49/49/49
f 52/52/52 49/49/49 51/51/51
f 49/49/49 52/52/52 32/32/32
f 52/52/52 51/51/51 53/53/53
f 51/51/51 41/41/41 53/53/53
f 32/32/32 52/52/52 54/54/54
f 52/52/52 53/53/53 54/54/54
f 53/53/53 41/41/41 55/55/55
f 54/54/54 53/53/53 55/55/55
f 55/55/55 32/32/32 54/54/54
f 31/31/31 55/55/55 41/41/41
f 32/32/32 55/55/55 31/31/31
f 58/58/58 57/57/57 56/56/56
f 59/59/59 58/58/58 56/56/56
f 56/56/56 60/60/60 59/59/59
f 60/60/60 61/61/61 59/59/59
f 61/61/61 62/62/62 59/59/59
