g Box_Geo05_mBox_base_blue
v -0.02999999 0.0549 0.007627396
v -0.02999999 0.02202781 0.007955194
v -0.02492066 0.02202781 0.007955194
v -0.02492066 0.0544035 0.007627396
v -0.02999999 0.02202781 0.007955194
v -0.03 0.02202782 -0.007955197
v -0.02492066 0.02202782 -0.007955198
v -0.02492066 0.02202781 0.007955194
v -0.03 0.02202782 -0.007955197
v -0.03 0.0549 -0.007627399
v -0.02492066 0.0544035 -0.007627405
v -0.02492066 0.02202782 -0.007955198
vt 0.3533829 0.5513994
vt 0.3533829 0.7982354
vt 0.3923269 0.7982354
vt 0.3923269 0.5550908
vt 0.3533829 0.800332
vt 0.3533829 0.9223638
vt 0.3923272 0.9223638
vt 0.3923272 0.800332
vt 0.3533829 0.5513995
vt 0.3533829 0.7982354
vt 0.3923269 0.7945439
vt 0.3923269 0.5513995
vn -0.0004909402 -0.01004727 -0.9999495
vn -0.0004909402 -0.01004727 -0.9999495
vn -0.0004909402 -0.01004727 -0.9999495
vn -0.0004909402 -0.01004727 -0.9999495
vn 0 1 0
vn 0 1 0
vn 0 1 0
vn 0 1 0
vn -0.0004903512 -0.0100472 0.9999495
vn -0.0004903512 -0.0100472 0.9999495
vn -0.0004903512 -0.0100472 0.9999495
vn -0.0004903512 -0.0100472 0.9999495
g Box_Geo05_mBox_base_blue_0
f 3/3/3 2/2/2 1/1/1
f 4/4/4 3/3/3 1/1/1
f 7/7/7 6/6/6 5/5/5
f 8/8/8 7/7/7 5/5/5
f 11/11/11 10/10/10 9/9/9
f 12/12/12 11/11/11 9/9/9
