g breadDarkOutGeo
v 0.0070710676 0 0.0070710676
v 0.01 0 0
v 0.009238794 0.0038268343 0
v 0.0065328144 0.0038268343 0.0065328144
v -0 0 0.009999999
v 0.006532814 0.0038268343 -0.006532814
v 0.007071067 0 -0.007071067
v -0 0.0038268343 0.009238794
v -0.007071067 0 0.007071067
v -0 0.0038268343 -0.0092387935
v -0 0 -0.009999999
v -0.006532814 0.0038268343 0.006532814
v -0.009999999 0 0
v -0.006532814 0.0038268343 -0.006532814
v -0.007071067 0 -0.007071067
v -0.0092387935 0.0038268343 0
v 0.0070710676 0.0070710676 0
v 0.0049999994 0.0070710676 -0.0049999994
v 0.0049999994 0.0070710676 0.0049999994
v -0 0.0070710676 -0.007071067
v -0 0.0070710676 0.007071067
v -0.0049999994 0.0070710676 0.0049999994
v -0.0049999994 0.0070710676 -0.0049999994
v -0.007071067 0.0070710676 0
v 0.0038268345 0.009238794 0
v 0.0027059806 0.009238794 -0.0027059806
v -0 0.01 0
v 0.0027059806 0.009238794 0.0027059806
v -0 0.009238794 -0.0038268338
v -0 0.009238794 0.0038268343
v -0.0027059806 0.009238794 -0.0027059806
v -0.0027059806 0.009238794 0.0027059806
v -0.0038268338 0.009238794 0
vt 0.5663247 0.39045423
vt 0.56770706 0.3899057
vt 0.5673592 0.38952458
vt 0.5663487 0.38993877
vt 0.56495976 0.38986456
vt 0.5677805 0.38851687
vt 0.5682961 0.3885403
vt 0.56534123 0.38951707
vt 0.5644117 0.3884827
vt 0.567366 0.38750663
vt 0.5677471 0.3871587
vt 0.5649272 0.3885067
vt 0.565001 0.38711822
vt 0.5663587 0.38708538
vt 0.5663824 0.38656986
vt 0.5653486 0.3874995
vt 0.5670248 0.38916448
vt 0.56728953 0.38849887
vt 0.56636685 0.38944772
vt 0.5670061 0.3878411
vt 0.5657015 0.38918293
vt 0.56541824 0.38852504
vt 0.5663407 0.3875764
vt 0.565683 0.3878597
vt 0.56669205 0.38882887
vt 0.5668169 0.388497
vt 0.5663539 0.38851213
vt 0.56636906 0.38897517
vt 0.56667054 0.38817394
vt 0.5660371 0.3888502
vt 0.5663387 0.38804898
vt 0.5658908 0.38852718
vt 0.5660157 0.38819534
vn -0.6935199 -0.19509052 -0.69351995
vn -0.98078525 -0.1950905 0
vn -0.9367894 -0.34989393 0
vn -0.6624101 -0.34989393 -0.66241014
vn -0 -0.19509037 -0.98078525
vn -0.66240996 -0.34989378 0.66241014
vn -0.6935199 -0.1950904 0.69351995
vn -0 -0.34989393 -0.9367894
vn 0.69351995 -0.1950903 -0.69351995
vn -0 -0.3498938 0.9367894
vn -0 -0.19509038 0.98078525
vn 0.66241014 -0.34989387 -0.66241014
vn 0.98078537 -0.19509019 0
vn 0.66241014 -0.3498938 0.66241014
vn 0.6935199 -0.1950903 0.69351995
vn 0.9367894 -0.3498938 0
vn -0.75626487 -0.6542656 0
vn -0.53476 -0.6542656 0.53476
vn -0.53475994 -0.6542657 -0.53476
vn -0 -0.6542655 0.75626487
vn -0 -0.65426564 -0.7562648
vn 0.53476 -0.6542657 -0.53475994
vn 0.53476 -0.6542657 0.53476
vn 0.7562648 -0.65426564 0
vn -0.4962203 -0.86819667 0
vn -0.3508807 -0.8681967 0.35088074
vn -0 -1 0
vn -0.3508807 -0.86819667 -0.3508807
vn -0 -0.86819667 0.49622035
vn -0 -0.8681967 -0.49622017
vn 0.3508807 -0.8681967 0.35088062
vn 0.3508807 -0.86819667 -0.3508807
vn 0.4962203 -0.86819667 0
g breadDarkOutGeo_0
f 3/3/3 2/2/2 1/1/1
f 4/4/4 3/3/3 1/1/1
f 4/4/4 1/1/1 5/5/5
f 3/3/3 6/6/6 2/2/2
f 6/6/6 7/7/7 2/2/2
f 8/8/8 4/4/4 5/5/5
f 8/8/8 5/5/5 9/9/9
f 6/6/6 10/10/10 7/7/7
f 10/10/10 11/11/11 7/7/7
f 12/12/12 8/8/8 9/9/9
f 12/12/12 9/9/9 13/13/13
f 10/10/10 14/14/14 11/11/11
f 14/14/14 15/15/15 11/11/11
f 16/16/16 13/13/13 15/15/15
f 16/16/16 12/12/12 13/13/13
f 14/14/14 16/16/16 15/15/15
f 17/17/17 3/3/3 4/4/4
f 18/18/18 6/6/6 3/3/3
f 17/17/17 18/18/18 3/3/3
f 19/19/19 4/4/4 8/8/8
f 19/19/19 17/17/17 4/4/4
f 20/20/20 10/10/10 6/6/6
f 18/18/18 20/20/20 6/6/6
f 21/21/21 8/8/8 12/12/12
f 21/21/21 19/19/19 8/8/8
f 22/22/22 12/12/12 16/16/16
f 22/22/22 21/21/21 12/12/12
f 23/23/23 14/14/14 10/10/10
f 20/20/20 23/23/23 10/10/10
f 24/24/24 16/16/16 14/14/14
f 24/24/24 22/22/22 16/16/16
f 23/23/23 24/24/24 14/14/14
f 25/25/25 17/17/17 19/19/19
f 26/26/26 18/18/18 17/17/17
f 25/25/25 26/26/26 17/17/17
f 27/27/27 26/26/26 25/25/25
f 28/28/28 25/25/25 19/19/19
f 28/28/28 19/19/19 21/21/21
f 27/27/27 25/25/25 28/28/28
f 26/26/26 29/29/29 18/18/18
f 29/29/29 20/20/20 18/18/18
f 27/27/27 29/29/29 26/26/26
f 30/30/30 28/28/28 21/21/21
f 30/30/30 21/21/21 22/22/22
f 27/27/27 28/28/28 30/30/30
f 29/29/29 31/31/31 20/20/20
f 31/31/31 23/23/23 20/20/20
f 27/27/27 31/31/31 29/29/29
f 32/32/32 30/30/30 22/22/22
f 32/32/32 22/22/22 24/24/24
f 27/27/27 30/30/30 32/32/32
f 33/33/33 24/24/24 23/23/23
f 31/31/31 33/33/33 23/23/23
f 33/33/33 32/32/32 24/24/24
f 27/27/27 33/33/33 31/31/31
f 27/27/27 32/32/32 33/33/33
