g breadStationFogScrollingGeo
v 65.94228 8.927071 -65.75435
v 76.65474 13.883575 -51.586086
v 77.70663 8.927071 -51.824512
v 64.58745 18.035034 -64.57623
v 51.70109 8.927071 -77.409294
v 49.126064 24.315521 -73.69261
v 35.300014 8.927071 -85.14279
v 32.783894 31.569359 -79.145615
v 17.903152 8.927071 -90.05161
v 16.612831 34.18927 -83.52148
v 0.0013809204 8.927071 -90.929596
v 0.0013809204 34.18927 -85.156815
v -17.575012 8.927071 -88.35456
v -16.612885 34.18927 -83.52148
v -34.47538 8.927071 -83.22975
v -32.587593 34.18927 -78.67437
v -50.048973 8.927071 -74.90439
v -47.311256 34.18927 -70.80623
v -63.701103 8.927071 -63.701057
v -60.21444 34.18927 -60.214394
v -74.90444 8.927071 -50.048923
v -70.80628 34.18927 -47.311203
v -83.227 8.927071 -34.475334
v -78.674416 34.18927 -32.58754
v -88.35461 8.927071 -17.574959
v -83.52152 34.18927 -16.612831
v -90.08532 8.927071 -0.0013809204
v -85.15687 34.18927 -0.0013809204
v -88.35461 8.927071 17.575012
v -83.52152 34.18927 16.612885
v -83.227 8.927071 34.47538
v -78.674416 34.18927 32.587593
v -74.90444 8.927071 50.048973
v -70.80628 34.18927 47.311256
v -63.701103 8.927071 63.701103
v -60.21444 34.18927 60.21444
v -50.048973 8.927071 74.90444
v -47.311256 34.18927 70.80628
v -34.47538 8.927071 83.227
v -32.587593 34.18927 78.674416
v -17.575012 8.927071 88.35461
v -16.612885 34.18927 83.52152
v 0.0013809204 8.927071 90.929634
v 0.0013809204 34.18927 85.15687
v 17.903152 8.927071 90.05166
v 16.612831 34.18927 83.52152
v 35.300014 8.927071 85.142845
v 32.783894 31.569359 79.14567
v 51.70109 8.927071 77.40934
v 49.126064 24.315521 73.692665
v 65.94228 8.927071 65.7544
v 64.58745 18.035034 64.57629
v 77.70663 8.927071 51.824562
v 76.65474 13.883575 51.58613
v 66.63794 8.927071 -66.45
v 77.462585 13.883575 -52.130264
v 78.522896 8.927071 -52.3715
v 65.26907 18.035034 -65.26066
v 52.248074 8.927071 -78.22836
v 49.656216 24.315521 -74.48644
v 35.678696 8.927071 -86.05443
v 33.14294 31.569359 -80.012375
v 18.093895 8.927071 -91.01655
v 16.795158 34.18927 -84.43312
v 0.0013809204 8.927071 -91.91416
v 0.0013809204 34.18927 -86.08809
v -17.765755 8.927071 -89.319496
v -16.795212 34.18927 -84.43312
v -34.851257 8.927071 -84.13859
v -32.943832 34.18927 -79.535515
v -50.595955 8.927071 -75.723465
v -47.827385 34.18927 -71.580414
v -64.39675 8.927071 -64.396706
v -60.87362 34.18927 -60.873573
v -75.72352 8.927071 -50.595905
v -71.58047 34.18927 -47.82733
v -84.13863 8.927071 -34.851208
v -79.53556 34.18927 -32.943783
v -89.31954 8.927071 -17.765701
v -84.43316 34.18927 -16.795158
v -91.06989 8.927071 -0.0013809204
v -86.08814 34.18927 -0.0013809204
v -89.31954 8.927071 17.765755
v -84.43316 34.18927 16.795212
v -84.13863 8.927071 34.851257
v -79.53556 34.18927 32.943832
v -75.72352 8.927071 50.595955
v -71.58047 34.18927 47.827385
v -64.39675 8.927071 64.39675
v -60.87362 34.18927 60.87362
v -50.595955 8.927071 75.72352
v -47.827385 34.18927 71.58047
v -34.851257 8.927071 84.13863
v -32.943832 34.18927 79.53556
v -17.765755 8.927071 89.31954
v -16.795212 34.18927 84.43316
v 0.0013809204 8.927071 91.91421
v 0.0013809204 34.18927 86.08814
v 18.093895 8.927071 91.016594
v 16.795158 34.18927 84.43316
v 35.678696 8.927071 86.05448
v 33.14294 31.569359 80.01243
v 52.248074 8.927071 78.22842
v 49.656216 24.315521 74.48649
v 66.63794 8.927071 66.45005
v 65.26907 18.035034 65.260704
v 78.5257 8.927071 52.371544
v 77.462585 13.883575 52.130318
vt -0.6442808 0.006716609
vt -0.7374885 0.49678516
vt -0.7374885 0.006716609
vt -0.6442808 0.49678516
vt -0.5518013 0.006716609
vt -0.5518013 0.49678516
vt -0.4593218 0.006716609
vt -0.4593218 0.49678516
vt -0.36611408 0.006716609
vt -0.36611408 0.49678516
vt -0.2736346 0.006716609
vt -0.2736346 0.49678516
vt -0.1804269 0.006716609
vt -0.1804269 0.49678516
vt -0.08794743 0.006716609
vt -0.08794743 0.49678516
vt 0.004532099 0.006716609
vt 0.004532099 0.49678516
vt 0.097739816 0.006716609
vt 0.097739816 0.49678516
vt 0.19021928 0.006716609
vt 0.19021928 0.49678516
vt 0.283427 0.006716609
vt 0.283427 0.49678516
vt 0.37590647 0.006716609
vt 0.37590647 0.49678516
vt 0.46838593 0.006716609
vt 0.46838593 0.49678516
vt 0.56159365 0.006716609
vt 0.56159365 0.49678516
vt 0.6540731 0.006716609
vt 0.6540731 0.49678516
vt 0.74728084 0.006716609
vt 0.74728084 0.49678516
vt 0.8397603 0.006716609
vt 0.8397603 0.49678516
vt 0.932968 0.006716609
vt 0.932968 0.49678516
vt 1.0254475 0.006716609
vt 1.0254475 0.49678516
vt 1.117927 0.006716609
vt 1.117927 0.49678516
vt 1.2111346 0.006716609
vt 1.2111346 0.49678516
vt 1.3036143 0.006716609
vt 1.3036143 0.49678516
vt 1.3968219 0.006716609
vt 1.3968219 0.49678516
vt 1.4893013 0.006716609
vt 1.4893013 0.49678516
vt 1.5817808 0.006716609
vt 1.5817808 0.49678516
vt 1.6749886 0.006716609
vt 1.6749886 0.49678516
vt -0.90788376 0.5033388
vt -1.0222088 0.99340737
vt -1.0222088 0.5033388
vt -0.90788376 0.99340737
vt -0.7928305 0.5033388
vt -0.7928305 0.99340737
vt -0.6777773 0.5033388
vt -0.6777773 0.99340737
vt -0.56345224 0.5033388
vt -0.56345224 0.99340737
vt -0.448399 0.5033388
vt -0.448399 0.99340737
vt -0.33407396 0.5033388
vt -0.33407396 0.99340737
vt -0.21974891 0.5033388
vt -0.21974891 0.99340737
vt -0.10469568 0.5033388
vt -0.10469568 0.99340737
vt 0.009629369 0.5033388
vt 0.009629369 0.99340737
vt 0.124682665 0.5033388
vt 0.124682665 0.99340737
vt 0.23973584 0.5033388
vt 0.23973584 0.99340737
vt 0.3540609 0.5033388
vt 0.3540609 0.99340737
vt 0.46838593 0.5033388
vt 0.46838593 0.99340737
vt 0.58343923 0.5033388
vt 0.58343923 0.99340737
vt 0.6977643 0.5033388
vt 0.6977643 0.99340737
vt 0.81281745 0.5033388
vt 0.81281745 0.99340737
vt 0.92787075 0.5033388
vt 0.92787075 0.99340737
vt 1.0421957 0.5033388
vt 1.0421957 0.99340737
vt 1.1572491 0.5033388
vt 1.1572491 0.99340737
vt 1.2715741 0.5033388
vt 1.2715741 0.99340737
vt 1.3858992 0.5033388
vt 1.3858992 0.99340737
vt 1.5009524 0.5033388
vt 1.5009524 0.99340737
vt 1.6160055 0.5033388
vt 1.6160055 0.99340737
vt 1.7303306 0.5033388
vt 1.7303306 0.99340737
vt 1.8453838 0.5033388
vt 1.8453838 0.99340737
vt 1.9597088 0.5033388
vt 1.9597088 0.99340737
vn -0.65438884 -0.22777075 0.7210379
vn -0.74939066 -0.19384152 0.63311857
vn -0.74939066 -0.19384152 0.63311857
vn -0.63403124 -0.23455662 0.7368769
vn -0.4847427 -0.26848578 0.8324301
vn -0.4643852 -0.26848578 0.843956
vn -0.33545417 -0.26848578 0.9029872
vn -0.32188255 -0.26848578 0.90791357
vn -0.17259401 -0.2549141 0.9514358
vn -0.16580814 -0.2481283 0.9544318
vn 0.024195492 -0.22098488 0.974977
vn 0.024195492 -0.22098488 0.974977
vn 0.20062739 -0.20062739 0.9589042
vn 0.20062739 -0.20062739 0.9589042
vn 0.37705928 -0.19384152 0.9056775
vn 0.37705928 -0.19384152 0.9056775
vn 0.54670537 -0.19384152 0.81457883
vn 0.54670537 -0.19384152 0.81457883
vn 0.6959939 -0.19384152 0.6913884
vn 0.6959939 -0.19384152 0.6913884
vn 0.8181391 -0.19384152 0.541363
vn 0.8181391 -0.19384152 0.541363
vn 0.906355 -0.19384152 0.37542778
vn 0.906355 -0.19384152 0.37542778
vn 0.96064174 -0.19384152 0.19897969
vn 0.96064174 -0.19384152 0.19897969
vn 0.9809993 -0.19384152 -0.008115381
vn 0.9809993 -0.19384152 -0.008115381
vn 0.96064174 -0.19384152 -0.19897969
vn 0.96064174 -0.19384152 -0.19897969
vn 0.906355 -0.19384152 -0.37542778
vn 0.906355 -0.19384152 -0.37542778
vn 0.8181391 -0.19384152 -0.541363
vn 0.8181391 -0.19384152 -0.541363
vn 0.6959939 -0.19384152 -0.6913884
vn 0.6959939 -0.19384152 -0.6913884
vn 0.54670537 -0.19384152 -0.81457883
vn 0.54670537 -0.19384152 -0.81457883
vn 0.37705928 -0.19384152 -0.9056775
vn 0.37705928 -0.19384152 -0.9056775
vn 0.20062739 -0.20062739 -0.9589042
vn 0.20062739 -0.20062739 -0.9589042
vn 0.024195492 -0.22098488 -0.974977
vn 0.024195492 -0.22098488 -0.974977
vn -0.17259401 -0.2549141 -0.9514358
vn -0.16580814 -0.2481283 -0.9544318
vn -0.33545417 -0.26848578 -0.9029872
vn -0.32188255 -0.26848578 -0.90791357
vn -0.4847427 -0.26848578 -0.8324301
vn -0.4643852 -0.26848578 -0.843956
vn -0.65438884 -0.22777075 -0.7210379
vn -0.63403124 -0.23455662 -0.7368769
vn -0.74939066 -0.19384152 -0.63311857
vn -0.74939066 -0.19384152 -0.63311857
vn -0.65438884 -0.22777075 0.7210379
vn -0.74939066 -0.19384152 0.63311857
vn -0.74939066 -0.19384152 0.63311857
vn -0.63403124 -0.23455662 0.7368769
vn -0.4847427 -0.26848578 0.8324301
vn -0.4643852 -0.26848578 0.843956
vn -0.33545417 -0.27527165 0.9009417
vn -0.32188255 -0.26848578 0.90791357
vn -0.17259401 -0.2549141 0.9514358
vn -0.16580814 -0.2549141 0.95264184
vn 0.024195492 -0.22777075 0.9734141
vn 0.024195492 -0.22777075 0.9734141
vn 0.20062739 -0.20062739 0.9589042
vn 0.20062739 -0.20062739 0.9589042
vn 0.37705928 -0.19384152 0.9056775
vn 0.37705928 -0.19384152 0.9056775
vn 0.54670537 -0.19384152 0.81457883
vn 0.54670537 -0.19384152 0.81457883
vn 0.6959939 -0.19384152 0.6913884
vn 0.6959939 -0.19384152 0.6913884
vn 0.8181391 -0.19384152 0.541363
vn 0.8181391 -0.19384152 0.541363
vn 0.906355 -0.19384152 0.37542778
vn 0.906355 -0.19384152 0.37542778
vn 0.96064174 -0.19384152 0.19897969
vn 0.96064174 -0.19384152 0.19897969
vn 0.9809993 -0.19384152 -0.008115381
vn 0.9809993 -0.19384152 -0.008115381
vn 0.96064174 -0.19384152 -0.19897969
vn 0.96064174 -0.19384152 -0.19897969
vn 0.906355 -0.19384152 -0.37542778
vn 0.906355 -0.19384152 -0.37542778
vn 0.8181391 -0.19384152 -0.541363
vn 0.8181391 -0.19384152 -0.541363
vn 0.6959939 -0.19384152 -0.6913884
vn 0.6959939 -0.19384152 -0.6913884
vn 0.54670537 -0.19384152 -0.81457883
vn 0.54670537 -0.19384152 -0.81457883
vn 0.37705928 -0.19384152 -0.9056775
vn 0.37705928 -0.19384152 -0.9056775
vn 0.20062739 -0.20062739 -0.9589042
vn 0.20062739 -0.20062739 -0.9589042
vn 0.024195492 -0.22777075 -0.9734141
vn 0.024195492 -0.22777075 -0.9734141
vn -0.17259401 -0.2549141 -0.9514358
vn -0.16580814 -0.2549141 -0.95264184
vn -0.33545417 -0.27527165 -0.9009417
vn -0.32188255 -0.26848578 -0.90791357
vn -0.4847427 -0.26848578 -0.8324301
vn -0.4643852 -0.26848578 -0.843956
vn -0.65438884 -0.22777075 -0.7210379
vn -0.63403124 -0.23455662 -0.7368769
vn -0.74939066 -0.19384152 -0.63311857
vn -0.74939066 -0.19384152 -0.63311857
g breadStationFogScrollingGeo_0
f 3/3/3 2/2/2 1/1/1
f 2/2/2 4/4/4 1/1/1
f 1/1/1 4/4/4 5/5/5
f 4/4/4 6/6/6 5/5/5
f 5/5/5 6/6/6 7/7/7
f 6/6/6 8/8/8 7/7/7
f 7/7/7 8/8/8 9/9/9
f 8/8/8 10/10/10 9/9/9
f 9/9/9 10/10/10 11/11/11
f 10/10/10 12/12/12 11/11/11
f 11/11/11 12/12/12 13/13/13
f 12/12/12 14/14/14 13/13/13
f 13/13/13 14/14/14 15/15/15
f 14/14/14 16/16/16 15/15/15
f 15/15/15 16/16/16 17/17/17
f 16/16/16 18/18/18 17/17/17
f 17/17/17 18/18/18 19/19/19
f 18/18/18 20/20/20 19/19/19
f 19/19/19 20/20/20 21/21/21
f 20/20/20 22/22/22 21/21/21
f 21/21/21 22/22/22 23/23/23
f 22/22/22 24/24/24 23/23/23
f 23/23/23 24/24/24 25/25/25
f 24/24/24 26/26/26 25/25/25
f 25/25/25 26/26/26 27/27/27
f 26/26/26 28/28/28 27/27/27
f 27/27/27 28/28/28 29/29/29
f 28/28/28 30/30/30 29/29/29
f 29/29/29 30/30/30 31/31/31
f 30/30/30 32/32/32 31/31/31
f 31/31/31 32/32/32 33/33/33
f 32/32/32 34/34/34 33/33/33
f 33/33/33 34/34/34 35/35/35
f 34/34/34 36/36/36 35/35/35
f 35/35/35 36/36/36 37/37/37
f 36/36/36 38/38/38 37/37/37
f 37/37/37 38/38/38 39/39/39
f 38/38/38 40/40/40 39/39/39
f 39/39/39 40/40/40 41/41/41
f 40/40/40 42/42/42 41/41/41
f 41/41/41 42/42/42 43/43/43
f 42/42/42 44/44/44 43/43/43
f 43/43/43 44/44/44 45/45/45
f 44/44/44 46/46/46 45/45/45
f 45/45/45 46/46/46 47/47/47
f 46/46/46 48/48/48 47/47/47
f 47/47/47 48/48/48 49/49/49
f 48/48/48 50/50/50 49/49/49
f 49/49/49 50/50/50 51/51/51
f 50/50/50 52/52/52 51/51/51
f 51/51/51 52/52/52 53/53/53
f 52/52/52 54/54/54 53/53/53
f 57/57/57 56/56/56 55/55/55
f 56/56/56 58/58/58 55/55/55
f 55/55/55 58/58/58 59/59/59
f 58/58/58 60/60/60 59/59/59
f 59/59/59 60/60/60 61/61/61
f 60/60/60 62/62/62 61/61/61
f 61/61/61 62/62/62 63/63/63
f 62/62/62 64/64/64 63/63/63
f 63/63/63 64/64/64 65/65/65
f 64/64/64 66/66/66 65/65/65
f 65/65/65 66/66/66 67/67/67
f 66/66/66 68/68/68 67/67/67
f 67/67/67 68/68/68 69/69/69
f 68/68/68 70/70/70 69/69/69
f 69/69/69 70/70/70 71/71/71
f 70/70/70 72/72/72 71/71/71
f 71/71/71 72/72/72 73/73/73
f 72/72/72 74/74/74 73/73/73
f 73/73/73 74/74/74 75/75/75
f 74/74/74 76/76/76 75/75/75
f 75/75/75 76/76/76 77/77/77
f 76/76/76 78/78/78 77/77/77
f 77/77/77 78/78/78 79/79/79
f 78/78/78 80/80/80 79/79/79
f 79/79/79 80/80/80 81/81/81
f 80/80/80 82/82/82 81/81/81
f 81/81/81 82/82/82 83/83/83
f 82/82/82 84/84/84 83/83/83
f 83/83/83 84/84/84 85/85/85
f 84/84/84 86/86/86 85/85/85
f 85/85/85 86/86/86 87/87/87
f 86/86/86 88/88/88 87/87/87
f 87/87/87 88/88/88 89/89/89
f 88/88/88 90/90/90 89/89/89
f 89/89/89 90/90/90 91/91/91
f 90/90/90 92/92/92 91/91/91
f 91/91/91 92/92/92 93/93/93
f 92/92/92 94/94/94 93/93/93
f 93/93/93 94/94/94 95/95/95
f 94/94/94 96/96/96 95/95/95
f 95/95/95 96/96/96 97/97/97
f 96/96/96 98/98/98 97/97/97
f 97/97/97 98/98/98 99/99/99
f 98/98/98 100/100/100 99/99/99
f 99/99/99 100/100/100 101/101/101
f 100/100/100 102/102/102 101/101/101
f 101/101/101 102/102/102 103/103/103
f 102/102/102 104/104/104 103/103/103
f 103/103/103 104/104/104 105/105/105
f 104/104/104 106/106/106 105/105/105
f 105/105/105 106/106/106 107/107/107
f 106/106/106 108/108/108 107/107/107
