g breadPOUFocusPanelsGeo
v -0.6640215 5.5901895 1.1669359
v -0.47152185 3.7071471 0.5872123
v -0.35508978 3.7069354 0.66868305
v -0.8626659 5.5905075 1.028044
v -0.56612957 3.707253 0.49281657
v -1.028044 5.5906134 0.8626659
v -0.6476002 3.7071471 0.3763845
v -1.167042 5.5905075 0.6640215
v 0.86230874 5.5892363 1.0277262
v 0.6637704 5.589024 1.1667242
v 0.39732206 3.70577 0.66836524
v 0.5136482 3.7058759 0.5868945
v 1.0276868 5.5891304 0.8623481
v 0.60814995 3.70577 0.49249876
v 1.1666849 5.5888124 0.66380954
v 0.68951464 3.705452 0.37606668
v -0.8626659 5.5905075 -1.0280046
v -0.6640215 5.5901895 -1.1670027
v -0.35508978 3.7069354 -0.6686438
v -0.47152185 3.7071471 -0.587279
v -1.028044 5.5906134 -0.86262655
v -0.56612957 3.707253 -0.4927773
v -1.167042 5.5905075 -0.6640882
v -0.6476002 3.7071471 -0.37634522
v 1.1618115 5.589024 -0.67076266
v 1.264153 5.5887065 -0.4510355
v 0.7447113 3.705452 -0.2542981
v 0.68464124 3.7056637 -0.3830197
v 1.0276868 5.5891304 -0.86230874
v 0.60814995 3.70577 -0.49245948
v 0.85626996 5.588918 -1.0337256
v 0.5076094 3.7056637 -0.592894
v -0.7196419 5.5601015 1.2463937
v -0.41071022 3.6767411 0.7480347
v -0.53402865 3.6767411 0.6616907
v -0.9250667 5.5601015 1.1025224
v -0.640502 3.6767411 0.5552174
v -1.1025224 5.5601015 0.9250667
v -0.726846 3.6767411 0.43189895
v -1.2463937 5.5601015 0.7196419
v 0.92513335 5.5601015 1.1025224
v 0.4530484 3.6767411 0.7480347
v 0.71960264 5.5601015 1.2463937
v 0.57647276 3.6767411 0.6616907
v 1.102483 5.5601015 0.9250667
v 0.68294615 3.6767411 0.5552174
v 1.2463546 5.5601015 0.7196419
v 0.7692902 3.6767411 0.43189895
v -0.9250667 5.5601015 -1.102483
v -0.41071022 3.6767411 -0.7481015
v -0.7196419 5.5601015 -1.2463546
v -0.53402865 3.6767411 -0.6617574
v -1.1025224 5.5601015 -0.92513335
v -0.640502 3.6767411 -0.555284
v -1.2463937 5.5601015 -0.71960264
v -0.726846 3.6767411 -0.43185967
v 1.2463546 5.5601015 -0.71960264
v 0.8328564 3.6767411 -0.29540431
v 1.3524041 5.5601015 -0.49224758
v 0.7692902 3.6767411 -0.43185967
v 1.102483 5.5601015 -0.92513335
v 0.68294615 3.6767411 -0.555284
v 0.92513335 5.5601015 -1.102483
v 0.57647276 3.6767411 -0.6617574
v -0.7196419 5.5601015 1.2463937
v -0.8626659 5.5905075 1.028044
v -0.6640215 5.5901895 1.1669359
v -0.9250667 5.5601015 1.1025224
v -1.028044 5.5906134 0.8626659
v -1.1025224 5.5601015 0.9250667
v -1.167042 5.5905075 0.6640215
v -1.2463937 5.5601015 0.7196419
v -0.53402865 3.6767411 0.6616907
v -0.41071022 3.6767411 0.7480347
v -0.35508978 3.7069354 0.66868305
v -0.47152185 3.7071471 0.5872123
v -0.640502 3.6767411 0.5552174
v -0.56612957 3.707253 0.49281657
v -0.726846 3.6767411 0.43189895
v -0.6476002 3.7071471 0.3763845
v -0.41071022 3.6767411 0.7480347
v -0.7196419 5.5601015 1.2463937
v -0.6640215 5.5901895 1.1669359
v -0.35508978 3.7069354 0.66868305
v -1.2463937 5.5601015 0.7196419
v -0.726846 3.6767411 0.43189895
v -0.6476002 3.7071471 0.3763845
v -1.167042 5.5905075 0.6640215
v 0.92513335 5.5601015 1.1025224
v 0.71960264 5.5601015 1.2463937
v 0.6637704 5.589024 1.1667242
v 0.86230874 5.5892363 1.0277262
v 1.102483 5.5601015 0.9250667
v 1.0276868 5.5891304 0.8623481
v 1.2463546 5.5601015 0.7196419
v 1.1666849 5.5888124 0.66380954
v 0.71960264 5.5601015 1.2463937
v 0.4530484 3.6767411 0.7480347
v 0.39732206 3.70577 0.66836524
v 0.6637704 5.589024 1.1667242
v 0.4530484 3.6767411 0.7480347
v 0.5136482 3.7058759 0.5868945
v 0.39732206 3.70577 0.66836524
v 0.57647276 3.6767411 0.6616907
v 0.60814995 3.70577 0.49249876
v 0.68294615 3.6767411 0.5552174
v 0.68951464 3.705452 0.37606668
v 0.7692902 3.6767411 0.43189895
v 0.7692902 3.6767411 0.43189895
v 1.2463546 5.5601015 0.7196419
v 1.1666849 5.5888124 0.66380954
v 0.68951464 3.705452 0.37606668
v -0.9250667 5.5601015 -1.102483
v -0.7196419 5.5601015 -1.2463546
v -0.6640215 5.5901895 -1.1670027
v -0.8626659 5.5905075 -1.0280046
v -1.1025224 5.5601015 -0.92513335
v -1.028044 5.5906134 -0.86262655
v -1.2463937 5.5601015 -0.71960264
v -1.167042 5.5905075 -0.6640882
v -0.7196419 5.5601015 -1.2463546
v -0.41071022 3.6767411 -0.7481015
v -0.35508978 3.7069354 -0.6686438
v -0.6640215 5.5901895 -1.1670027
v -0.41071022 3.6767411 -0.7481015
v -0.47152185 3.7071471 -0.587279
v -0.35508978 3.7069354 -0.6686438
v -0.53402865 3.6767411 -0.6617574
v -0.56612957 3.707253 -0.4927773
v -0.640502 3.6767411 -0.555284
v -0.6476002 3.7071471 -0.37634522
v -0.726846 3.6767411 -0.43185967
v -0.726846 3.6767411 -0.43185967
v -1.2463937 5.5601015 -0.71960264
v -1.167042 5.5905075 -0.6640882
v -0.6476002 3.7071471 -0.37634522
v 1.2463546 5.5601015 -0.71960264
v 1.3524041 5.5601015 -0.49224758
v 1.264153 5.5887065 -0.4510355
v 1.1618115 5.589024 -0.67076266
v 1.102483 5.5601015 -0.92513335
v 1.0276868 5.5891304 -0.86230874
v 0.92513335 5.5601015 -1.102483
v 0.85626996 5.588918 -1.0337256
v 1.3524041 5.5601015 -0.49224758
v 0.8328564 3.6767411 -0.29540431
v 0.7447113 3.705452 -0.2542981
v 1.264153 5.5887065 -0.4510355
v 0.8328564 3.6767411 -0.29540431
v 0.68464124 3.7056637 -0.3830197
v 0.7447113 3.705452 -0.2542981
v 0.7692902 3.6767411 -0.43185967
v 0.60814995 3.70577 -0.49245948
v 0.68294615 3.6767411 -0.555284
v 0.5076094 3.7056637 -0.592894
v 0.57647276 3.6767411 -0.6617574
v 0.57647276 3.6767411 -0.6617574
v 0.92513335 5.5601015 -1.102483
v 0.85626996 5.588918 -1.0337256
v 0.5076094 3.7056637 -0.592894
vt 0.8233098 0.37681136
vt 0.842607 0.3096037
vt 0.8233098 0.3096037
vt 0.842607 0.37681136
vt 0.86190426 0.3096037
vt 0.86190426 0.37681136
vt 0.8805361 0.3096037
vt 0.8805361 0.37681136
vt 0.86190426 0.37681136
vt 0.8805361 0.37681136
vt 0.8805361 0.3096037
vt 0.86190426 0.3096037
vt 0.842607 0.37681136
vt 0.842607 0.3096037
vt 0.8233098 0.37681136
vt 0.8233098 0.3096037
vt 0.86190426 0.37681136
vt 0.8805361 0.37681136
vt 0.8805361 0.3096037
vt 0.86190426 0.3096037
vt 0.842607 0.37681136
vt 0.842607 0.3096037
vt 0.8233098 0.37681136
vt 0.8233098 0.3096037
vt 0.86190426 0.37681136
vt 0.8805361 0.37681136
vt 0.8805361 0.3096037
vt 0.86190426 0.3096037
vt 0.842607 0.37681136
vt 0.842607 0.3096037
vt 0.8233098 0.37681136
vt 0.8233098 0.3096037
vt 0.47396302 0.90316045
vt 0.47396302 0.99033076
vt 0.4939257 0.99033076
vt 0.4939257 0.90316045
vt 0.5145538 0.99033076
vt 0.5145538 0.90316045
vt 0.5351819 0.99033076
vt 0.5351819 0.90316045
vt 0.5145538 0.90316045
vt 0.5351819 0.99033076
vt 0.5351819 0.90316045
vt 0.5145538 0.99033076
vt 0.4939257 0.90316045
vt 0.4939257 0.99033076
vt 0.47396302 0.90316045
vt 0.47396302 0.99033076
vt 0.5145538 0.90316045
vt 0.5351819 0.99033076
vt 0.5351819 0.90316045
vt 0.5145538 0.99033076
vt 0.4939257 0.90316045
vt 0.4939257 0.99033076
vt 0.47396302 0.90316045
vt 0.47396302 0.99033076
vt 0.5145538 0.90316045
vt 0.5351819 0.99033076
vt 0.5351819 0.90316045
vt 0.5145538 0.99033076
vt 0.4939257 0.90316045
vt 0.4939257 0.99033076
vt 0.47396302 0.90316045
vt 0.47396302 0.99033076
vt 0.740132 0.31093454
vt 0.80600876 0.31825417
vt 0.80600876 0.31093454
vt 0.740132 0.31825417
vt 0.80600876 0.32557383
vt 0.740132 0.32557383
vt 0.80600876 0.33222806
vt 0.740132 0.33222806
vt 0.740132 0.35352156
vt 0.740132 0.3601758
vt 0.80600876 0.3601758
vt 0.80600876 0.35352156
vt 0.740132 0.34620193
vt 0.80600876 0.34620193
vt 0.740132 0.3395477
vt 0.80600876 0.3395477
vt 0.740132 0.3601758
vt 0.740132 0.36749545
vt 0.80600876 0.36749545
vt 0.80600876 0.3601758
vt 0.740132 0.33222806
vt 0.740132 0.3395477
vt 0.80600876 0.3395477
vt 0.80600876 0.33222806
vt 0.740132 0.32557383
vt 0.740132 0.33222806
vt 0.80600876 0.33222806
vt 0.80600876 0.32557383
vt 0.740132 0.31825417
vt 0.80600876 0.31825417
vt 0.740132 0.31093454
vt 0.80600876 0.31093454
vt 0.740132 0.33222806
vt 0.740132 0.3395477
vt 0.80600876 0.3395477
vt 0.80600876 0.33222806
vt 0.740132 0.3395477
vt 0.80600876 0.34620193
vt 0.80600876 0.3395477
vt 0.740132 0.34620193
vt 0.80600876 0.35352156
vt 0.740132 0.35352156
vt 0.80600876 0.3601758
vt 0.740132 0.3601758
vt 0.740132 0.3601758
vt 0.740132 0.36749545
vt 0.80600876 0.36749545
vt 0.80600876 0.3601758
vt 0.740132 0.32557383
vt 0.740132 0.33222806
vt 0.80600876 0.33222806
vt 0.80600876 0.32557383
vt 0.740132 0.31825417
vt 0.80600876 0.31825417
vt 0.740132 0.31093454
vt 0.80600876 0.31093454
vt 0.740132 0.33222806
vt 0.740132 0.3395477
vt 0.80600876 0.3395477
vt 0.80600876 0.33222806
vt 0.740132 0.3395477
vt 0.80600876 0.34620193
vt 0.80600876 0.3395477
vt 0.740132 0.34620193
vt 0.80600876 0.35352156
vt 0.740132 0.35352156
vt 0.80600876 0.3601758
vt 0.740132 0.3601758
vt 0.740132 0.3601758
vt 0.740132 0.36749545
vt 0.80600876 0.36749545
vt 0.80600876 0.3601758
vt 0.740132 0.32557383
vt 0.740132 0.33222806
vt 0.80600876 0.33222806
vt 0.80600876 0.32557383
vt 0.740132 0.31825417
vt 0.80600876 0.31825417
vt 0.740132 0.31093454
vt 0.80600876 0.31093454
vt 0.740132 0.33222806
vt 0.740132 0.3395477
vt 0.80600876 0.3395477
vt 0.80600876 0.33222806
vt 0.740132 0.3395477
vt 0.80600876 0.34620193
vt 0.80600876 0.3395477
vt 0.740132 0.34620193
vt 0.80600876 0.35352156
vt 0.740132 0.35352156
vt 0.80600876 0.3601758
vt 0.740132 0.3601758
vt 0.740132 0.3601758
vt 0.740132 0.36749545
vt 0.80600876 0.36749545
vt 0.80600876 0.3601758
vn 0.5453385 0.29711407 -0.7837915
vn 0.61303556 0.29711407 -0.7320592
vn 0.5453385 0.29711407 -0.7837915
vn 0.61303556 0.29711407 -0.7320592
vn 0.7333859 0.29711407 -0.61144775
vn 0.7333859 0.29711407 -0.61144775
vn 0.7785173 0.29711407 -0.5528418
vn 0.7785173 0.29711407 -0.5528418
vn -0.6130337 0.2895922 -0.7350687
vn -0.55285853 0.28207022 -0.7840815
vn -0.55285853 0.28207022 -0.7840815
vn -0.6130337 0.2895922 -0.7350687
vn -0.7333841 0.28207022 -0.61853385
vn -0.7333841 0.28207022 -0.61853385
vn -0.7860374 0.28207022 -0.55007416
vn -0.7860374 0.28207022 -0.55007416
vn 0.61303556 0.29711407 0.7320592
vn 0.5453385 0.29711407 0.7837915
vn 0.5453385 0.29711407 0.7837915
vn 0.61303556 0.29711407 0.7320592
vn 0.7333859 0.29711407 0.61144775
vn 0.7333859 0.29711407 0.61144775
vn 0.7785173 0.29711407 0.5528418
vn 0.7785173 0.29711407 0.5528418
vn -0.83116883 0.28207022 0.4791605
vn -0.8687783 0.28207022 0.40701434
vn -0.8687783 0.28207022 0.40701434
vn -0.83116883 0.28207022 0.4791605
vn -0.7333841 0.28207022 0.61853385
vn -0.7333841 0.28207022 0.61853385
vn -0.6807309 0.28207022 0.6760487
vn -0.6807309 0.28207022 0.6760487
vn -0.54533666 -0.29711586 0.78379214
vn -0.54533666 -0.29711586 0.78379214
vn -0.6130337 -0.29711586 0.73206
vn -0.6130337 -0.29711586 0.73206
vn -0.7333841 -0.29711586 0.61144906
vn -0.7333841 -0.29711586 0.61144906
vn -0.7785155 -0.29711586 0.55284333
vn -0.7785155 -0.29711586 0.55284333
vn 0.61303556 -0.28959394 0.73506653
vn 0.5528604 -0.28207207 0.78407955
vn 0.5528604 -0.28207207 0.78407955
vn 0.61303556 -0.28959394 0.73506653
vn 0.7333859 -0.28207207 0.61853087
vn 0.7333859 -0.28207207 0.61853087
vn 0.78603923 -0.28207207 0.5500706
vn 0.78603923 -0.28207207 0.5500706
vn -0.6130337 -0.29711586 -0.73206
vn -0.54533666 -0.29711586 -0.78379214
vn -0.54533666 -0.29711586 -0.78379214
vn -0.6130337 -0.29711586 -0.73206
vn -0.7333841 -0.29711586 -0.61144906
vn -0.7333841 -0.29711586 -0.61144906
vn -0.7785155 -0.29711586 -0.55284333
vn -0.7785155 -0.29711586 -0.55284333
vn 0.83117056 -0.28207207 -0.4791564
vn 0.8687801 -0.28207207 -0.40700927
vn 0.8687801 -0.28207207 -0.40700927
vn 0.83117056 -0.28207207 -0.4791564
vn 0.7333859 -0.28207207 -0.61853087
vn 0.7333859 -0.28207207 -0.61853087
vn 0.6807326 -0.28207207 -0.6760462
vn 0.6807326 -0.28207207 -0.6760462
vn -0.16924185 0.9515192 0.25684324
vn -0.19180745 0.9515192 0.24046029
vn -0.16924185 0.9515192 0.25684324
vn -0.19180745 0.9515192 0.24046029
vn -0.22941703 0.9515192 0.20488796
vn -0.22941703 0.9515192 0.20488796
vn -0.24446076 0.9515192 0.18668203
vn -0.24446076 0.9515192 0.18668203
vn 0.1918093 -0.9515209 -0.24045199
vn 0.16924357 -0.9515209 -0.2568357
vn 0.16924357 -0.9515209 -0.2568357
vn 0.1918093 -0.9515209 -0.24045199
vn 0.22941875 -0.9515209 -0.20487791
vn 0.22941875 -0.9515209 -0.20487791
vn 0.24446255 -0.9515209 -0.18667085
vn 0.24446255 -0.9515209 -0.18667085
vn 0.8236487 -0.018805623 0.56678843
vn 0.8236487 -0.018805623 0.56678843
vn 0.8236487 -0.018805623 0.56678843
vn 0.8236487 -0.018805623 0.56678843
vn -0.5679024 -0.03384942 -0.8223996
vn -0.5679024 -0.03384942 -0.8223996
vn -0.5679024 -0.03384942 -0.8223996
vn -0.5679024 -0.03384942 -0.8223996
vn 0.18428737 0.95904106 0.21512419
vn 0.1617217 0.95904106 0.23256467
vn 0.1617217 0.95904106 0.23256467
vn 0.18428737 0.95904106 0.21512419
vn 0.21437496 0.95904106 0.18515842
vn 0.21437496 0.95904106 0.18515842
vn 0.23694068 0.95904106 0.15523966
vn 0.23694068 0.95904106 0.15523966
vn -0.82364684 -0.03384942 0.56609195
vn -0.82364684 -0.03384942 0.56609195
vn -0.82364684 -0.03384942 0.56609195
vn -0.82364684 -0.03384942 0.56609195
vn -0.16171986 -0.95904285 -0.23255852
vn -0.18428558 -0.95904285 -0.21511768
vn -0.16171986 -0.95904285 -0.23255852
vn -0.18428558 -0.95904285 -0.21511768
vn -0.22189504 -0.95904285 -0.17606635
vn -0.22189504 -0.95904285 -0.17606635
vn -0.2369389 -0.95904285 -0.15523121
vn -0.2369389 -0.95904285 -0.15523121
vn 0.5679042 -0.018805623 -0.82287985
vn 0.5679042 -0.018805623 -0.82287985
vn 0.5679042 -0.018805623 -0.82287985
vn 0.5679042 -0.018805623 -0.82287985
vn -0.19180745 0.9515192 -0.24046029
vn -0.16924185 0.9515192 -0.25684324
vn -0.16924185 0.9515192 -0.25684324
vn -0.19180745 0.9515192 -0.24046029
vn -0.22941703 0.9515192 -0.20488796
vn -0.22941703 0.9515192 -0.20488796
vn -0.24446076 0.9515192 -0.18668203
vn -0.24446076 0.9515192 -0.18668203
vn 0.8236487 -0.018805623 -0.56678843
vn 0.8236487 -0.018805623 -0.56678843
vn 0.8236487 -0.018805623 -0.56678843
vn 0.8236487 -0.018805623 -0.56678843
vn 0.16924357 -0.9515209 0.2568357
vn 0.1918093 -0.9515209 0.24045199
vn 0.16924357 -0.9515209 0.2568357
vn 0.1918093 -0.9515209 0.24045199
vn 0.22941875 -0.9515209 0.20487791
vn 0.22941875 -0.9515209 0.20487791
vn 0.24446255 -0.9515209 0.18667085
vn 0.24446255 -0.9515209 0.18667085
vn -0.5679024 -0.03384942 0.8223996
vn -0.5679024 -0.03384942 0.8223996
vn -0.5679024 -0.03384942 0.8223996
vn -0.5679024 -0.03384942 0.8223996
vn 0.24446255 0.95904106 -0.14310244
vn 0.25950634 0.95904106 -0.11356371
vn 0.25950634 0.95904106 -0.11356371
vn 0.24446255 0.95904106 -0.14310244
vn 0.21437496 0.95904106 -0.18515842
vn 0.21437496 0.95904106 -0.18515842
vn 0.19933116 0.95904106 -0.20126429
vn 0.19933116 0.95904106 -0.20126429
vn 0.41746622 -0.018805623 0.90849787
vn 0.41746622 -0.018805623 0.90849787
vn 0.41746622 -0.018805623 0.90849787
vn 0.41746622 -0.018805623 0.90849787
vn -0.25950462 -0.95904285 0.11355243
vn -0.24446076 -0.95904285 0.14309348
vn -0.25950462 -0.95904285 0.11355243
vn -0.24446076 -0.95904285 0.14309348
vn -0.21437317 -0.95904285 0.18515117
vn -0.21437317 -0.95904285 0.18515117
vn -0.19932944 -0.95904285 0.20125748
vn -0.19932944 -0.95904285 0.20125748
vn -0.71081847 -0.03384942 -0.70256054
vn -0.71081847 -0.03384942 -0.70256054
vn -0.71081847 -0.03384942 -0.70256054
vn -0.71081847 -0.03384942 -0.70256054
g breadPOUFocusPanelsGeo_0
f 3/3/3 2/2/2 1/1/1
f 2/2/2 4/4/4 1/1/1
f 2/2/2 5/5/5 4/4/4
f 5/5/5 6/6/6 4/4/4
f 5/5/5 7/7/7 6/6/6
f 7/7/7 8/8/8 6/6/6
f 11/11/11 10/10/10 9/9/9
f 12/12/12 11/11/11 9/9/9
f 12/12/12 9/9/9 13/13/13
f 14/14/14 12/12/12 13/13/13
f 14/14/14 13/13/13 15/15/15
f 16/16/16 14/14/14 15/15/15
f 19/19/19 18/18/18 17/17/17
f 20/20/20 19/19/19 17/17/17
f 20/20/20 17/17/17 21/21/21
f 22/22/22 20/20/20 21/21/21
f 22/22/22 21/21/21 23/23/23
f 24/24/24 22/22/22 23/23/23
f 27/27/27 26/26/26 25/25/25
f 28/28/28 27/27/27 25/25/25
f 28/28/28 25/25/25 29/29/29
f 30/30/30 28/28/28 29/29/29
f 30/30/30 29/29/29 31/31/31
f 32/32/32 30/30/30 31/31/31
f 35/35/35 34/34/34 33/33/33
f 36/36/36 35/35/35 33/33/33
f 37/37/37 35/35/35 36/36/36
f 38/38/38 37/37/37 36/36/36
f 39/39/39 37/37/37 38/38/38
f 40/40/40 39/39/39 38/38/38
f 43/43/43 42/42/42 41/41/41
f 42/42/42 44/44/44 41/41/41
f 41/41/41 44/44/44 45/45/45
f 44/44/44 46/46/46 45/45/45
f 45/45/45 46/46/46 47/47/47
f 46/46/46 48/48/48 47/47/47
f 51/51/51 50/50/50 49/49/49
f 50/50/50 52/52/52 49/49/49
f 49/49/49 52/52/52 53/53/53
f 52/52/52 54/54/54 53/53/53
f 53/53/53 54/54/54 55/55/55
f 54/54/54 56/56/56 55/55/55
f 59/59/59 58/58/58 57/57/57
f 58/58/58 60/60/60 57/57/57
f 57/57/57 60/60/60 61/61/61
f 60/60/60 62/62/62 61/61/61
f 61/61/61 62/62/62 63/63/63
f 62/62/62 64/64/64 63/63/63
f 67/67/67 66/66/66 65/65/65
f 66/66/66 68/68/68 65/65/65
f 66/66/66 69/69/69 68/68/68
f 69/69/69 70/70/70 68/68/68
f 69/69/69 71/71/71 70/70/70
f 71/71/71 72/72/72 70/70/70
f 75/75/75 74/74/74 73/73/73
f 76/76/76 75/75/75 73/73/73
f 76/76/76 73/73/73 77/77/77
f 78/78/78 76/76/76 77/77/77
f 78/78/78 77/77/77 79/79/79
f 80/80/80 78/78/78 79/79/79
f 83/83/83 82/82/82 81/81/81
f 84/84/84 83/83/83 81/81/81
f 87/87/87 86/86/86 85/85/85
f 88/88/88 87/87/87 85/85/85
f 91/91/91 90/90/90 89/89/89
f 92/92/92 91/91/91 89/89/89
f 92/92/92 89/89/89 93/93/93
f 94/94/94 92/92/92 93/93/93
f 94/94/94 93/93/93 95/95/95
f 96/96/96 94/94/94 95/95/95
f 99/99/99 98/98/98 97/97/97
f 100/100/100 99/99/99 97/97/97
f 103/103/103 102/102/102 101/101/101
f 102/102/102 104/104/104 101/101/101
f 102/102/102 105/105/105 104/104/104
f 105/105/105 106/106/106 104/104/104
f 105/105/105 107/107/107 106/106/106
f 107/107/107 108/108/108 106/106/106
f 111/111/111 110/110/110 109/109/109
f 112/112/112 111/111/111 109/109/109
f 115/115/115 114/114/114 113/113/113
f 116/116/116 115/115/115 113/113/113
f 116/116/116 113/113/113 117/117/117
f 118/118/118 116/116/116 117/117/117
f 118/118/118 117/117/117 119/119/119
f 120/120/120 118/118/118 119/119/119
f 123/123/123 122/122/122 121/121/121
f 124/124/124 123/123/123 121/121/121
f 127/127/127 126/126/126 125/125/125
f 126/126/126 128/128/128 125/125/125
f 126/126/126 129/129/129 128/128/128
f 129/129/129 130/130/130 128/128/128
f 129/129/129 131/131/131 130/130/130
f 131/131/131 132/132/132 130/130/130
f 135/135/135 134/134/134 133/133/133
f 136/136/136 135/135/135 133/133/133
f 139/139/139 138/138/138 137/137/137
f 140/140/140 139/139/139 137/137/137
f 140/140/140 137/137/137 141/141/141
f 142/142/142 140/140/140 141/141/141
f 142/142/142 141/141/141 143/143/143
f 144/144/144 142/142/142 143/143/143
f 147/147/147 146/146/146 145/145/145
f 148/148/148 147/147/147 145/145/145
f 151/151/151 150/150/150 149/149/149
f 150/150/150 152/152/152 149/149/149
f 150/150/150 153/153/153 152/152/152
f 153/153/153 154/154/154 152/152/152
f 153/153/153 155/155/155 154/154/154
f 155/155/155 156/156/156 154/154/154
f 159/159/159 158/158/158 157/157/157
f 160/160/160 159/159/159 157/157/157
