g breadPOUStationPoleGeo
v -0.14854777 4.461756 -2.078712E-05
v -0.14854777 0.023651421 -2.078712E-05
v -0.0742635 0.023651421 -0.12862046
v -0.0742635 4.461756 -0.12862046
v -0.1286515 4.535968 -2.078712E-05
v 0.07423246 0.023651421 -0.12862046
v -0.06431535 4.535968 -0.11141091
v -0.0742635 4.590356 -2.078712E-05
v 0.07423246 4.461756 -0.12862046
v 0.14851674 0.023651421 -2.078712E-05
v 0.14851674 4.461756 -2.078712E-05
v 0.06428432 4.535968 -0.11141091
v 0.12862046 4.535968 -2.078712E-05
v -0.037157655 4.590356 -0.06428432
v 2.078712E-05 4.6102524 -2.078712E-05
v 0.037126623 4.590356 -0.06428432
v 0.07423246 4.590356 -2.078712E-05
vt 0.38927245 0.51207864
vt 0.3891378 0.4050272
vt 0.3855021 0.4050272
vt 0.38577142 0.51140535
vt 0.38806057 0.51409847
vt 0.38200104 0.4050272
vt 0.3855021 0.5128865
vt 0.38631004 0.515445
vt 0.38227037 0.51140535
vt 0.37836534 0.4050272
vt 0.3787693 0.51207864
vt 0.38253966 0.5128865
vt 0.37984654 0.51409847
vt 0.38496348 0.5145024
vt 0.3840209 0.5161183
vt 0.3830783 0.5145024
vt 0.38173175 0.51557964
vn -0.86358935 0.002400279 -0.50419015
vn -0.86358935 0.002400279 -0.50419015
vn -0.50174516 0.002400279 -0.86501217
vn -0.50174516 0.002400279 -0.86501217
vn -0.8056943 0.3787182 -0.455444
vn 0.4969446 0.002400279 -0.8677789
vn -0.45108706 0.42213947 -0.7863325
vn -0.6030615 0.7188516 -0.34578776
vn 0.4969446 0.002400279 -0.8677789
vn 0.8660256 0.002400279 -0.49999386
vn 0.8660256 0.002400279 -0.49999386
vn 0.4535233 0.42213947 -0.7849298
vn 0.80089366 0.3787182 -0.46383387
vn -0.32082313 0.7622729 -0.5621499
vn -0.002400279 0.9793795 -0.20201497
vn 0.3232594 0.7622729 -0.5607525
vn 0.60549784 0.7188516 -0.34150362
g breadPOUStationPoleGeo_0
f 3/3/3 2/2/2 1/1/1
f 4/4/4 3/3/3 1/1/1
f 1/1/1 5/5/5 4/4/4
f 6/6/6 3/3/3 4/4/4
f 5/5/5 7/7/7 4/4/4
f 5/5/5 8/8/8 7/7/7
f 9/9/9 6/6/6 4/4/4
f 4/4/4 7/7/7 9/9/9
f 10/10/10 6/6/6 9/9/9
f 11/11/11 10/10/10 9/9/9
f 9/9/9 12/12/12 11/11/11
f 7/7/7 12/12/12 9/9/9
f 12/12/12 13/13/13 11/11/11
f 8/8/8 14/14/14 7/7/7
f 7/7/7 14/14/14 12/12/12
f 8/8/8 15/15/15 14/14/14
f 12/12/12 16/16/16 13/13/13
f 14/14/14 16/16/16 12/12/12
f 14/14/14 15/15/15 16/16/16
f 16/16/16 17/17/17 13/13/13
f 16/16/16 15/15/15 17/17/17
