g BushLeaves35
v -0.060456105 -0.12386424 -0.056966066
v -0.061663378 -0.13427714 -0.0673866
v -0.076076984 -0.12768908 -0.06569043
v -0.08382662 -0.11656146 -0.058009766
v -0.06151186 -0.10803851 -0.044251222
v -0.08323259 -0.097721204 -0.044119384
v -0.0043739527 0.13631588 -0.05553479
v -0.02148699 0.14051175 -0.060368165
v -0.0032472436 0.15129788 -0.07125317
v -0.012158071 0.124527864 -0.045210693
v -0.021993887 0.12755567 -0.048439454
v -0.060184497 0.09328885 -0.030496951
v -0.048705004 0.111606106 -0.039493535
v -0.0009089869 0.06758 -0.008800175
v 1.3173876E-07 4.6187715E-08 -1.262134E-07
v -0.029088004 0.1391467 -0.059719972
v 0.022605874 0.10609723 -0.034821294
v 0.0076630954 0.12162884 -0.044028442
v 0.018639352 0.113151215 -0.03931226
v 0.017923106 0.116951875 -0.04228345
v 0.011778086 0.12550901 -0.04827222
v 0.026226938 0.104612246 -0.03440198
v -0.043798998 0.13674024 -0.060448732
v -0.04483141 0.1431123 -0.06702222
v -0.04547472 0.12773526 -0.05240857
v -0.055742968 0.139622 -0.06634351
v -0.051927354 0.12399594 -0.050875977
v 0.054685496 0.09382871 -0.03821973
v 0.080218025 0.022011383 -0.0258064
v 0.05320692 0.102866486 -0.044064455
v 0.043455333 0.120578125 -0.053812377
v 0.055520456 0.09242291 -0.037862062
v 0.020960977 0.118857846 -0.044774905
v 0.07081129 0.09913357 -0.04942578
v 0.07709364 0.052744493 -0.030548831
v 0.073066846 0.09542203 -0.048533447
v 0.098072335 0.06448064 -0.04867444
v 0.09552381 0.04003369 -0.039248783
v 0.10111479 0.058104675 -0.049002197
v 0.10040937 0.07087872 -0.05312085
v 0.11583967 0.067006804 -0.06422803
v 0.12372968 0.090948 -0.07966199
v 0.024611337 0.12795636 -0.05338025
v 0.020526255 0.12880978 -0.053281374
v 0.040193155 0.12379345 -0.055397462
v 0.026517464 0.13127957 -0.056950197
v 0.035197273 0.13658291 -0.06557935
v 0.050402354 0.12804838 -0.063251466
v 0.04125578 0.149362 -0.08205884
v 0.048605174 0.12211514 -0.057224244
v 0.06361677 0.11784787 -0.059901856
v 0.06871885 0.13042904 -0.074210934
v 0.06987623 0.10922452 -0.05638501
v 0.08091566 0.11297238 -0.06463269
v 0.07585539 0.10496106 -0.056039553
v -0.018693715 -0.11816951 -0.03881177
v -0.044896107 -0.11507067 -0.045124024
v -0.027039206 -0.09274096 -0.02441602
v -0.015583669 -0.08425219 -0.018852055
v -0.0063276878 -0.114988275 -0.040836304
v 0.05540846 -0.092440896 -0.040492065
v 0.017426737 -0.1220885 -0.050225955
v 0.008041666 -0.13879503 -0.06482739
v 0.018970164 -0.12727161 -0.05579419
v 0.03408277 -0.124083735 -0.05943677
v -0.0003850001 -0.06735011 -0.010445682
v 0.05142927 -0.12601824 -0.06631848
v 0.06823606 -0.118147306 -0.066511355
v 0.080854625 -0.1019089 -0.05980054
v 0.041027203 -0.14471698 -0.08857129
v 0.06852385 -0.12969394 -0.07850781
v 0.08155988 -0.12985812 -0.085957766
v 0.086425915 -0.12202464 -0.07947949
v -0.01710436 -0.08237536 -0.017853519
v -0.08390413 -0.044108916 -0.020447513
v -0.061891038 -0.097997 -0.03710889
v -0.081186086 -0.09064677 -0.039282963
v 0.09673444 0.00077915995 -0.033084843
v 0.08570463 -0.048763454 -0.036541265
v 0.0855557 -0.051934384 -0.037431154
v 0.08592954 -0.06615268 -0.043476075
v 0.09074369 -0.057851743 -0.042777833
v 0.08030546 -0.08281466 -0.047973145
v 0.08261854 -0.08578471 -0.051117066
v 0.087726876 -0.09234423 -0.058061037
v 0.0846179 -0.07706286 -0.046812255
v 0.0945326 -0.080022454 -0.05547864
v 0.09160856 -0.069387384 -0.048625
v 0.102096386 -0.09332995 -0.06736707
v 0.09279463 -0.10907229 -0.07174878
v 0.11240705 -0.10585742 -0.0812898
v 0.082448706 0.008075531 -0.025868045
v 0.08970579 0.0073841554 -0.029807255
v 0.08976896 0.011415528 -0.030192386
v -0.100295275 -0.00014704854 -0.019838993
v -0.09145662 -0.04485049 -0.024437992
v -0.10904497 -0.01951831 -0.02835645
v -0.123151414 -0.02067981 -0.03754224
v -0.11424257 -0.010289337 -0.030194828
v -0.12320894 -0.030078689 -0.039767582
v -0.14036134 -0.018236343 -0.05152234
v -0.13720475 -0.0073873443 -0.04770032
v -0.12819277 -0.00033938556 -0.04006482
v -0.13634935 0.019069336 -0.047730837
v -0.13170855 0.0021680912 -0.042552
v -0.14344698 0.0016444096 -0.05294812
v -0.13969041 0.036629606 -0.052705202
v -0.15988801 0.02701474 -0.06914868
v -0.1337166 0.035608716 -0.047593508
v -0.11037462 0.055728424 -0.036439944
v -0.14410935 0.061367385 -0.061968505
v -0.088377856 0.08734425 -0.03773145
v -0.105586104 0.071020246 -0.038736086
v -0.12924394 0.07943959 -0.055457275
v -0.087773606 0.09297696 -0.040490847
v -0.08136034 0.10885342 -0.04796826
v -0.10798601 0.097375914 -0.051320925
v -0.09804399 0.12411206 -0.065281495
v -0.12431322 0.12205441 -0.07333081
v -0.06464434 0.110628024 -0.04371533
v -0.08504198 0.12915616 -0.065890625
v -0.062423572 0.123201415 -0.052866943
v -0.07219652 0.15146664 -0.08608716
v -0.10728685 -0.03776744 -0.03033643
v -0.12111696 -0.04809573 -0.04228406
v -0.11760774 -0.037432585 -0.037378665
v -0.10666399 -0.07661761 -0.043786135
v -0.10020433 -0.08606364 -0.044430666
v -0.08679659 -0.09998797 -0.046811037
v -0.09729295 -0.1144929 -0.06122693
v -0.10969591 -0.09454112 -0.05344556
v -0.11222628 -0.12161181 -0.07262342
v -0.11128313 -0.09204745 -0.052747317
v -0.119160324 -0.07766955 -0.05116101
v -0.13765642 -0.0939979 -0.06898267
vt 0.16963802 0.6553666
vt 0.14167583 0.6567961
vt 0.1594181 0.6947003
vt 0.18891822 0.71611476
vt 0.21201378 0.6601831
vt 0.23915282 0.7169332
vt 0.8567157 0.50527334
vt 0.8681554 0.5492666
vt 0.89981586 0.4993599
vt 0.82443845 0.52766234
vt 0.8325026 0.55286014
vt 0.7417958 0.65664303
vt 0.789552 0.6247135
vt 0.6742903 0.50527334
vt 0.49687394 0.50527334
vt 0.8641775 0.56933975
vt 0.77456 0.43851504
vt 0.8162478 0.4759031
vt 0.79334956 0.44804263
vt 0.80342656 0.44935146
vt 0.82656336 0.46431166
vt 0.7705616 0.42910692
vt 0.8565913 0.6078367
vt 0.87373704 0.6093073
vt 0.8323503 0.61376214
vt 0.8637569 0.63808405
vt 0.82229507 0.6310072
vt 0.7417958 0.3539036
vt 0.5531025 0.28999174
vt 0.76538616 0.35664052
vt 0.8121127 0.38028634
vt 0.73810244 0.35179362
vt 0.8083957 0.44091815
vt 0.7552194 0.30955422
vt 0.63378966 0.29697335
vt 0.7454667 0.30383924
vt 0.6638965 0.23862022
vt 0.5999018 0.24724245
vt 0.64707667 0.23065071
vt 0.6806347 0.23167624
vt 0.66996837 0.18930042
vt 0.7336209 0.16637324
vt 0.83245414 0.42971128
vt 0.8350719 0.440435
vt 0.8207511 0.38852608
vt 0.84143496 0.42403916
vt 0.8551971 0.39967918
vt 0.83148444 0.36030322
vt 0.88843954 0.38072103
vt 0.815938 0.36615473
vt 0.8042964 0.3264341
vt 0.83711904 0.31046128
vt 0.78172135 0.31076917
vt 0.7916204 0.28056633
vt 0.7705878 0.29527396
vt 0.20033006 0.54885685
vt 0.19304888 0.6165234
vt 0.25246045 0.55761486
vt 0.27490202 0.54387367
vt 0.1926246 0.5160909
vt 0.25195217 0.3539036
vt 0.17317013 0.45220092
vt 0.12616274 0.47445437
vt 0.15871803 0.44723353
vt 0.16760579 0.3936323
vt 0.31945768 0.50527334
vt 0.16240773 0.3602031
vt 0.18313529 0.31613895
vt 0.2257266 0.28413454
vt 0.097058654 0.38386366
vt 0.15227829 0.3133995
vt 0.1510121 0.27823073
vt 0.17122154 0.2668676
vt 0.2798843 0.5480162
vt 0.3810969 0.72234094
vt 0.23864877 0.66231406
vt 0.25810206 0.71246237
vt 0.49687397 0.24563763
vt 0.36661178 0.27457687
vt 0.35824743 0.27484965
vt 0.32066566 0.27297807
vt 0.3424645 0.2603688
vt 0.27676868 0.28714585
vt 0.2687118 0.2806357
vt 0.25091797 0.26625794
vt 0.291896 0.27860567
vt 0.28345686 0.24862689
vt 0.31188282 0.25724402
vt 0.2469939 0.22747695
vt 0.20513618 0.25156265
vt 0.21016678 0.20018744
vt 0.5164361 0.28430033
vt 0.5144176 0.26457492
vt 0.52500427 0.2642913
vt 0.49687394 0.764909
vt 0.37909633 0.74146056
vt 0.44575664 0.7866023
vt 0.4425518 0.8220055
vt 0.47001663 0.79980016
vt 0.4177704 0.8218731
vt 0.4487037 0.8646611
vt 0.47731966 0.85692
vt 0.4960037 0.8345365
vt 0.546873 0.85434455
vt 0.5025528 0.84329057
vt 0.5009624 0.8722606
vt 0.5929191 0.86201644
vt 0.56731707 0.9122244
vt 0.59033793 0.84725773
vt 0.64339054 0.78771675
vt 0.6577102 0.8716709
vt 0.72634315 0.7293329
vt 0.68358016 0.7744958
vt 0.7057549 0.8333057
vt 0.74116004 0.7271286
vt 0.78262013 0.7087757
vt 0.7537031 0.7775022
vt 0.8236388 0.7485118
vt 0.8233907 0.81285226
vt 0.7870072 0.6657998
vt 0.8358084 0.7148496
vt 0.8200256 0.6582041
vt 0.8936515 0.6776376
vt 0.39769256 0.7818653
vt 0.37029377 0.8161695
vt 0.3984532 0.8076938
vt 0.29488462 0.77820206
vt 0.2698021 0.7611594
vt 0.23297222 0.7257315
vt 0.19337997 0.750227
vt 0.24637017 0.7839894
vt 0.17229563 0.7861527
vt 0.25304648 0.7882957
vt 0.29175672 0.80954325
vt 0.24691033 0.85418093
vn -0.23051326 -0.63935214 0.7335478
vn -0.22632895 -0.6757629 0.70151246
vn -0.23045793 -0.6398775 0.73310703
vn -0.24101628 -0.6148489 0.75091404
vn -0.2441634 -0.60865706 0.754931
vn -0.26451424 -0.5668618 0.78019214
vn -0.030421084 0.6953571 0.71802026
vn -0.030512791 0.6951533 0.7182136
vn -0.017044513 0.7243637 0.6892074
vn -0.037763923 0.53975207 0.84097654
vn -0.06515369 0.5854134 0.80811274
vn -0.20404322 0.2700683 0.9409726
vn -0.101550676 0.5317049 0.8408195
vn -0.053727377 0.24915598 0.96697193
vn -0.004923306 0.031850893 0.99948055
vn -0.12841022 0.65190595 0.74734825
vn 0.029920409 0.51108235 0.8590108
vn 0.05883182 0.5547029 0.82996595
vn 0.046391293 0.5440267 0.83778447
vn 0.16187146 0.6366126 0.75400406
vn 0.16187146 0.6366126 0.75400406
vn 0.2622074 0.46390626 0.8461905
vn -0.1381908 0.66299987 0.7357544
vn -0.14888002 0.6982442 0.7002069
vn -0.12643066 0.6502368 0.7491377
vn -0.19009425 0.67332315 0.7144928
vn -0.19132604 0.63658035 0.7471009
vn 0.3276958 0.32857427 0.8858073
vn 0.29631823 0.15165272 0.9429724
vn 0.31884006 0.5763875 0.7524084
vn 0.29759657 0.60030025 0.74234486
vn 0.3308606 0.28058198 0.9010022
vn 0.24992494 0.62131155 0.7426368
vn 0.32811216 0.57137984 0.7522416
vn 0.35685378 0.3061312 0.8825752
vn 0.32621238 0.3327798 0.8847842
vn 0.52808404 0.31827635 0.78729117
vn 0.53985864 0.21960403 0.8126049
vn 0.5676764 0.25408277 0.78306156
vn 0.6092462 0.27599457 0.7434017
vn 0.60697067 0.2790508 0.7441218
vn 0.6061668 0.2801266 0.74437284
vn 0.24720392 0.62386775 0.7414035
vn 0.15319496 0.645923 0.74787354
vn 0.2666652 0.64815384 0.71329254
vn 0.26292658 0.63037986 0.7304046
vn 0.28711346 0.68932474 0.6651294
vn 0.27911136 0.67541754 0.6825746
vn 0.29342762 0.7002208 0.6508387
vn 0.32977462 0.59075695 0.73637956
vn 0.31139067 0.5897924 0.74510455
vn 0.30936772 0.6567413 0.6877373
vn 0.31752527 0.55453205 0.7692021
vn 0.36203524 0.5651128 0.7413353
vn 0.35091245 0.55344504 0.75535357
vn -0.030614983 -0.5321869 0.84607315
vn -0.25697127 -0.5386088 0.80241287
vn 0.022546832 -0.5266122 0.84980655
vn 0.17395318 -0.5446448 0.82042813
vn 0.16833459 -0.53675234 0.8267771
vn 0.33784327 -0.34166119 0.87700033
vn 0.2096328 -0.59262073 0.77772415
vn 0.08342135 -0.6819346 0.7266403
vn 0.31317607 -0.63705915 0.7043268
vn 0.24295032 -0.67240345 0.6991772
vn 0.07700604 -0.22506833 0.9712951
vn 0.23452836 -0.6708492 0.70353234
vn 0.32327816 -0.6215763 0.7135364
vn 0.3957384 -0.53839934 0.74398744
vn 0.19800876 -0.69249606 0.6937159
vn 0.3018261 -0.6268085 0.7183398
vn 0.35463992 -0.634122 0.68710965
vn 0.35463995 -0.634122 0.6871097
vn -0.12933509 -0.26701844 0.9549731
vn -0.22868347 -0.19460914 0.95385075
vn -0.2500619 -0.377781 0.89148784
vn -0.30734554 -0.37189996 0.8759162
vn 0.33913314 -0.19500586 0.92030513
vn -0.01668045 -0.07867246 0.996761
vn 0.039365068 -0.11696126 0.99235606
vn 0.39081463 -0.3532886 0.8499712
vn 0.4616052 -0.33677527 0.82067233
vn 0.40916854 -0.42626703 0.8067697
vn 0.43896446 -0.46424976 0.769274
vn 0.46387076 -0.46812516 0.75211877
vn 0.51312554 -0.41545656 0.7510646
vn 0.50597095 -0.426547 0.74970055
vn 0.562079 -0.33323768 0.7569808
vn 0.45455238 -0.47503644 0.7534737
vn 0.45489454 -0.4750387 0.75326574
vn 0.4467514 -0.4749638 0.75817055
vn 0.2884358 0.042757858 0.95654416
vn 0.3279551 -0.25706938 0.9090439
vn 0.48118812 0.075907655 0.87332463
vn -0.2689006 0.11521939 0.9562515
vn -0.41689396 -0.29444617 0.85994226
vn -0.47484165 -0.16643469 0.8641903
vn -0.5847137 -0.08217266 0.8070673
vn -0.5721922 -0.07719078 0.81647885
vn -0.5241942 -0.19318601 0.82939714
vn -0.63114417 -0.0073399832 0.77563083
vn -0.5967434 -0.041713554 0.8013472
vn -0.5887596 0.023829844 0.8079569
vn -0.60275203 0.08284937 0.79361564
vn -0.59369284 0.071734026 0.80148804
vn -0.66344625 0.046645727 0.74676853
vn -0.61737585 0.087751925 0.78175867
vn -0.6538674 0.0884534 0.75142103
vn -0.44783965 0.18046701 0.8757119
vn -0.37674037 0.20500298 0.9033497
vn -0.5660714 0.215632 0.79565454
vn -0.3067468 0.31952456 0.8965548
vn -0.33416563 0.2926192 0.8959394
vn -0.42867297 0.40213367 0.80902904
vn -0.31249428 0.5039243 0.8052376
vn -0.29744104 0.5434691 0.78496504
vn -0.31456456 0.5224877 0.7924997
vn -0.30605012 0.52331626 0.79528195
vn -0.28666785 0.5250371 0.8013473
vn -0.2581275 0.5686174 0.7810534
vn -0.22079338 0.6802473 0.69893765
vn -0.24488963 0.64111197 0.72732687
vn -0.19584984 0.71769035 0.6682541
vn -0.47083995 -0.2931394 0.8320931
vn -0.471454 -0.29245305 0.831987
vn -0.55763257 -0.18836182 0.8084342
vn -0.40676045 -0.34159863 0.84726405
vn -0.3607063 -0.42796046 0.8286983
vn -0.34343812 -0.47327426 0.81121004
vn -0.34805903 -0.51142 0.7856872
vn -0.34846202 -0.50597113 0.7890294
vn -0.3473734 -0.52023405 0.7801848
vn -0.459518 -0.34707314 0.81754726
vn -0.46107665 -0.34721592 0.81660855
vn -0.47262076 -0.3482416 0.80954146
g BushLeaves35_0
f 3/3/3 2/2/2 1/1/1
f 3/3/3 1/1/1 4/4/4
f 1/1/1 5/5/5 4/4/4
f 4/4/4 5/5/5 6/6/6
f 9/9/9 8/8/8 7/7/7
f 10/10/10 7/7/7 8/8/8
f 11/11/11 10/10/10 8/8/8
f 10/10/10 11/11/11 12/12/12
f 11/11/11 13/13/13 12/12/12
f 10/10/10 12/12/12 14/14/14
f 15/15/15 14/14/14 12/12/12
f 11/11/11 16/16/16 13/13/13
f 17/17/17 10/10/10 14/14/14
f 10/10/10 17/17/17 18/18/18
f 17/17/17 19/19/19 18/18/18
f 18/18/18 19/19/19 20/20/20
f 21/21/21 18/18/18 20/20/20
f 22/22/22 17/17/17 14/14/14
f 13/13/13 16/16/16 23/23/23
f 24/24/24 23/23/23 16/16/16
f 25/25/25 13/13/13 23/23/23
f 25/25/25 23/23/23 26/26/26
f 25/25/25 27/27/27 13/13/13
f 28/28/28 22/22/22 14/14/14
f 28/28/28 14/14/14 29/29/29
f 29/29/29 14/14/14 15/15/15
f 22/22/22 28/28/28 30/30/30
f 31/31/31 22/22/22 30/30/30
f 32/32/32 28/28/28 29/29/29
f 22/22/22 31/31/31 33/33/33
f 31/31/31 30/30/30 34/34/34
f 32/32/32 29/29/29 35/35/35
f 36/36/36 32/32/32 35/35/35
f 37/37/37 36/36/36 35/35/35
f 29/29/29 38/38/38 35/35/35
f 38/38/38 39/39/39 35/35/35
f 39/39/39 37/37/37 35/35/35
f 37/37/37 39/39/39 40/40/40
f 39/39/39 41/41/41 40/40/40
f 42/42/42 40/40/40 41/41/41
f 31/31/31 43/43/43 33/33/33
f 44/44/44 33/33/33 43/43/43
f 31/31/31 45/45/45 43/43/43
f 45/45/45 46/46/46 43/43/43
f 47/47/47 45/45/45 31/31/31
f 48/48/48 47/47/47 31/31/31
f 49/49/49 47/47/47 48/48/48
f 50/50/50 31/31/31 34/34/34
f 50/50/50 34/34/34 51/51/51
f 52/52/52 50/50/50 51/51/51
f 34/34/34 53/53/53 51/51/51
f 54/54/54 51/51/51 53/53/53
f 34/34/34 55/55/55 53/53/53
f 58/58/58 57/57/57 56/56/56
f 59/59/59 58/58/58 56/56/56
f 60/60/60 59/59/59 56/56/56
f 60/60/60 61/61/61 59/59/59
f 61/61/61 60/60/60 62/62/62
f 63/63/63 62/62/62 60/60/60
f 62/62/62 64/64/64 61/61/61
f 64/64/64 65/65/65 61/61/61
f 61/61/61 66/66/66 59/59/59
f 61/61/61 65/65/65 67/67/67
f 68/68/68 61/61/61 67/67/67
f 68/68/68 69/69/69 61/61/61
f 65/65/65 70/70/70 67/67/67
f 71/71/71 68/68/68 67/67/67
f 68/68/68 72/72/72 69/69/69
f 72/72/72 73/73/73 69/69/69
f 66/66/66 74/74/74 59/59/59
f 75/75/75 74/74/74 66/66/66
f 75/75/75 76/76/76 74/74/74
f 75/75/75 77/77/77 76/76/76
f 61/61/61 78/78/78 66/66/66
f 15/15/15 75/75/75 66/66/66
f 78/78/78 15/15/15 66/66/66
f 79/79/79 78/78/78 61/61/61
f 80/80/80 79/79/79 61/61/61
f 81/81/81 80/80/80 61/61/61
f 80/80/80 81/81/81 82/82/82
f 83/83/83 81/81/81 61/61/61
f 83/83/83 61/61/61 69/69/69
f 84/84/84 83/83/83 69/69/69
f 85/85/85 84/84/84 69/69/69
f 86/86/86 84/84/84 85/85/85
f 87/87/87 86/86/86 85/85/85
f 88/88/88 86/86/86 87/87/87
f 89/89/89 85/85/85 69/69/69
f 90/90/90 89/89/89 69/69/69
f 91/91/91 89/89/89 90/90/90
f 78/78/78 93/93/93 92/92/92
f 93/93/93 94/94/94 92/92/92
f 15/15/15 78/78/78 92/92/92
f 92/92/92 29/29/29 15/15/15
f 15/15/15 95/95/95 75/75/75
f 95/95/95 15/15/15 12/12/12
f 96/96/96 75/75/75 95/95/95
f 75/75/75 96/96/96 77/77/77
f 97/97/97 96/96/96 95/95/95
f 98/98/98 97/97/97 95/95/95
f 99/99/99 98/98/98 95/95/95
f 100/100/100 97/97/97 98/98/98
f 98/98/98 99/99/99 101/101/101
f 102/102/102 99/99/99 95/95/95
f 103/103/103 102/102/102 95/95/95
f 95/95/95 104/104/104 103/103/103
f 104/104/104 105/105/105 103/103/103
f 105/105/105 104/104/104 106/106/106
f 107/107/107 104/104/104 95/95/95
f 104/104/104 107/107/107 108/108/108
f 109/109/109 107/107/107 95/95/95
f 109/109/109 95/95/95 110/110/110
f 109/109/109 110/110/110 111/111/111
f 95/95/95 12/12/12 110/110/110
f 12/12/12 112/112/112 110/110/110
f 112/112/112 113/113/113 110/110/110
f 114/114/114 113/113/113 112/112/112
f 115/115/115 112/112/112 12/12/12
f 116/116/116 115/115/115 12/12/12
f 115/115/115 116/116/116 117/117/117
f 116/116/116 118/118/118 117/117/117
f 117/117/117 118/118/118 119/119/119
f 120/120/120 116/116/116 12/12/12
f 13/13/13 120/120/120 12/12/12
f 116/116/116 120/120/120 121/121/121
f 120/120/120 122/122/122 121/121/121
f 121/121/121 122/122/122 123/123/123
f 126/126/126 125/125/125 124/124/124
f 96/96/96 124/124/124 125/125/125
f 127/127/127 96/96/96 125/125/125
f 96/96/96 127/127/127 77/77/77
f 77/77/77 127/127/127 128/128/128
f 129/129/129 77/77/77 128/128/128
f 129/129/129 128/128/128 130/130/130
f 128/128/128 131/131/131 130/130/130
f 130/130/130 131/131/131 132/132/132
f 133/133/133 128/128/128 127/127/127
f 134/134/134 133/133/133 127/127/127
f 133/133/133 134/134/134 135/135/135
