g BushCardGeo_1
v -0.4351292 1.526262 -13.65498
v -0.4908504 1.374709 -13.65498
v -0.577075 1.445082 -13.65498
v -0.8520794 1.385757 -13.65498
v -0.4418535 1.344447 -13.65498
v -0.3184013 1.312743 -13.65498
v -0.3998222 1.420584 -13.65498
v -0.3135977 1.437877 -13.65498
v -0.2487497 1.220755 -13.65498
v -0.1512365 1.309861 -13.65498
v -0.1766958 1.380714 -13.65498
v -0.2698851 1.015402 -13.65498
v -0.1322632 1.059114 -13.65498
v -0.1281796 1.158068 -13.65498
v -0.3061523 0.8703337 -13.65498
v -0.2083998 0.8967533 -13.65498
v -0.1925478 0.9632826 -13.65498
v -0.7716198 1.448925 -13.65498
v -0.8520794 1.451807 -13.65498
v -0.9308586 1.38936 -13.65498
v -1.20178 0.1012793 -13.65498
v -0.6671419 1.510171 -13.65498
v -0.7903538 1.521459 -13.65498
v -0.7351122 1.569495 -13.65498
v -0.592926 1.612006 -13.65498
v -0.5213528 1.55004 -13.65498
v -1.808233 1.02597 -13.65498
v -1.007956 1.387198 -13.65498
v -1.546198 1.270952 -13.65498
v -0.2487497 0.594368 -13.65498
v -0.2083998 0.7968388 -13.65498
v -1.836575 1.132129 -13.65498
v -1.679497 1.330036 -13.65498
v -1.810635 1.287285 -13.65498
v -1.942253 0.8609667 -13.65498
v -1.918956 1.02621 -13.65498
v -2.085159 0.7555275 -13.65498
v -1.947536 0.293663 -13.65498
v -0.4003029 0.316 -13.65498
v -0.5924463 -0.0560379 -13.65498
v -0.2059975 0.3673983 -13.65498
v -0.1574812 0.5307198 -13.65498
v -1.609845 1.479908 -13.65498
v -1.659802 1.435475 -13.65498
v -1.512813 1.445562 -13.65498
v -1.341084 1.454449 -13.65498
v -1.359097 1.551002 -13.65498
v -1.470781 1.63002 -13.65498
v -1.567093 1.543555 -13.65498
v -1.243812 1.442921 -13.65498
v -1.063437 1.512092 -13.65498
v -1.184008 1.60336 -13.65498
v -0.9428673 1.471022 -13.65498
v -0.9873009 1.543076 -13.65498
vt 0.57112 0.424183
vt 0.5807869 0.383582
vt 0.6078543 0.3990491
vt 0.6832561 0.3768152
vt 0.5662866 0.3768152
vt 0.530519 0.3719817
vt 0.5566197 0.3980824
vt 0.5334191 0.4048492
vt 0.5092518 0.3507146
vt 0.4831512 0.3758485
vt 0.4918514 0.3932489
vt 0.5111852 0.2975466
vt 0.4715509 0.3120469
vt 0.4725176 0.3371809
vt 0.5208521 0.2598456
vt 0.4908847 0.2685458
vt 0.4870179 0.2859463
vt 0.6629556 0.3951823
vt 0.6861562 0.3932489
vt 0.70259 0.3729484
vt 0.7441577 0.03750675
vt 0.6358883 0.4135495
vt 0.6716559 0.4135495
vt 0.6571555 0.4270831
vt 0.6184879 0.4415835
vt 0.596254 0.4280498
vt 0.9171953 0.2434119
vt 0.730624 0.3739151
vt 0.8543604 0.3159137
vt 0.5121519 0.1921773
vt 0.5005516 0.2443786
vt 0.9220288 0.2666125
vt 0.8833612 0.3217138
vt 0.9162286 0.3052801
vt 0.9606964 0.2037776
vt 0.9529629 0.2434119
vt 1.003231 0.1767102
vt 0.9597297 0.06747416
vt 0.5372859 0.1158087
vt 0.56822 0.01430617
vt 0.4908847 0.1341758
vt 0.4850846 0.1786436
vt 0.8872279 0.3719817
vt 0.8968948 0.3574814
vt 0.8553271 0.3642482
vt 0.8137594 0.3748818
vt 0.8263264 0.4009825
vt 0.8630607 0.4193496
vt 0.8814278 0.3913155
vt 0.7905588 0.3768152
vt 0.7489911 0.4029159
vt 0.7847587 0.4232163
vt 0.7141902 0.396149
vt 0.7296573 0.4135495
vn 2.297373E-05 5.337643E-08 1
vn 5.54078E-06 5.337643E-08 1
vn 3.19904E-06 5.337643E-08 1
vn -3.135701E-07 5.337643E-08 1
vn -1.484441E-06 5.337643E-08 1
vn -2.785408E-06 5.337643E-08 1
vn -9.160143E-06 5.337643E-08 1
vn -9.160143E-06 5.337643E-08 1
vn -2.525214E-06 5.337643E-08 1
vn -7.208695E-06 5.337643E-08 1
vn -7.208695E-06 5.337643E-08 1
vn 6.061167E-06 5.337643E-08 1
vn 2.418459E-06 5.337643E-08 1
vn 2.418459E-06 5.337643E-08 1
vn -7.038598E-07 5.337643E-08 1
vn -1.020092E-05 5.337643E-08 1
vn -1.020092E-05 5.337643E-08 1
vn 5.93107E-06 5.337643E-08 1
vn -1.094151E-06 5.337643E-08 1
vn 7.272029E-07 5.337643E-08 1
vn 7.671952E-08 5.337643E-08 1
vn 3.58933E-06 5.337643E-08 1
vn -5.337643E-08 5.337643E-08 1
vn -5.337643E-08 5.337643E-08 1
vn -5.337643E-08 5.337643E-08 1
vn -5.337643E-08 5.337643E-08 1
vn 1.507782E-06 5.337643E-08 1
vn 2.02817E-06 5.337643E-08 1
vn -3.135701E-07 5.337643E-08 1
vn -3.565987E-06 5.337643E-08 1
vn -4.346568E-06 5.337643E-08 1
vn 3.369132E-07 5.337643E-08 1
vn 4.670092E-07 5.337643E-08 1
vn 5.020393E-06 5.337643E-08 1
vn -1.874731E-06 5.337643E-08 1
vn -5.337643E-08 5.337643E-08 1
vn -3.045601E-06 5.337643E-08 1
vn -3.045601E-06 5.337643E-08 1
vn -2.395118E-06 5.337643E-08 1
vn -5.337643E-08 5.337643E-08 1
vn 3.068943E-06 5.337643E-08 1
vn 3.068943E-06 5.337643E-08 1
vn -3.175697E-06 5.337643E-08 1
vn -3.175697E-06 5.337643E-08 1
vn -2.26502E-06 5.337643E-08 1
vn -2.395118E-06 5.337643E-08 1
vn -5.337643E-08 5.337643E-08 1
vn -5.337643E-08 5.337643E-08 1
vn -5.337643E-08 5.337643E-08 1
vn -1.354343E-06 5.337643E-08 1
vn -6.298018E-06 5.337643E-08 1
vn -7.598985E-06 5.337643E-08 1
vn -5.337643E-08 5.337643E-08 1
vn -5.337643E-08 5.337643E-08 1
g BushCardGeo_1_0
f 3/3/3 2/2/2 1/1/1
f 2/2/2 3/3/3 4/4/4
f 5/5/5 2/2/2 4/4/4
f 6/6/6 5/5/5 4/4/4
f 7/7/7 5/5/5 6/6/6
f 8/8/8 7/7/7 6/6/6
f 9/9/9 6/6/6 4/4/4
f 6/6/6 9/9/9 10/10/10
f 11/11/11 6/6/6 10/10/10
f 12/12/12 9/9/9 4/4/4
f 9/9/9 12/12/12 13/13/13
f 14/14/14 9/9/9 13/13/13
f 15/15/15 12/12/12 4/4/4
f 12/12/12 15/15/15 16/16/16
f 17/17/17 12/12/12 16/16/16
f 18/18/18 4/4/4 3/3/3
f 4/4/4 18/18/18 19/19/19
f 15/15/15 4/4/4 20/20/20
f 21/21/21 15/15/15 20/20/20
f 22/22/22 18/18/18 3/3/3
f 23/23/23 18/18/18 22/22/22
f 24/24/24 23/23/23 22/22/22
f 25/25/25 22/22/22 3/3/3
f 26/26/26 25/25/25 3/3/3
f 21/21/21 20/20/20 27/27/27
f 20/20/20 28/28/28 27/27/27
f 29/29/29 27/27/27 28/28/28
f 21/21/21 30/30/30 15/15/15
f 30/30/30 31/31/31 15/15/15
f 32/32/32 27/27/27 29/29/29
f 33/33/33 32/32/32 29/29/29
f 32/32/32 33/33/33 34/34/34
f 35/35/35 21/21/21 27/27/27
f 36/36/36 35/35/35 27/27/27
f 35/35/35 37/37/37 21/21/21
f 37/37/37 38/38/38 21/21/21
f 21/21/21 39/39/39 30/30/30
f 21/21/21 40/40/40 39/39/39
f 30/30/30 39/39/39 41/41/41
f 42/42/42 30/30/30 41/41/41
f 44/44/44 29/29/29 43/43/43
f 29/29/29 45/45/45 43/43/43
f 45/45/45 29/29/29 46/46/46
f 45/45/45 46/46/46 47/47/47
f 48/48/48 45/45/45 47/47/47
f 45/45/45 48/48/48 49/49/49
f 29/29/29 50/50/50 46/46/46
f 50/50/50 29/29/29 28/28/28
f 50/50/50 28/28/28 51/51/51
f 52/52/52 50/50/50 51/51/51
f 51/51/51 28/28/28 53/53/53
f 54/54/54 51/51/51 53/53/53
