g BushCardGeo_11
v 0.2618332 0.19775963 -12.18254
v 0.3471279 0.11607647 -12.182941
v 0.22671127 0.1379528 -12.178124
v 0.009157181 0.77777004 -12.154442
v -0.07694149 0.9140415 -12.147017
v 0.004541397 0.8873491 -12.150429
v -0.12290001 0.87791634 -12.146415
v -0.23830032 0.88233185 -12.140996
v -0.19896412 0.9246788 -12.141196
v -0.24793339 0.7956314 -12.143404
v -0.35149288 0.7595062 -12.140795
v -0.37356853 0.8313551 -12.137785
v -0.2920866 0.85604095 -12.13919
v 0.15987968 0.6469164 -12.17672
v 0.09344959 0.7789736 -12.15665
v 0.17111874 0.72257805 -12.166484
v 0.16610146 0.5030174 -12.184748
v 0.25661469 0.5307131 -12.1885605
v 0.26644897 0.64671516 -12.185951
v -0.44100285 0.6866541 -12.1397915
v -0.46267796 0.768939 -12.136379
v -0.4305668 0.7976389 -12.136781
v 0.18717384 0.35992146 -12.174913
v 0.2503929 0.45384693 -12.173509
v -0.5487757 0.673007 -12.136379
v -0.6158085 0.5845003 -12.13658
v 0.18376255 0.29449463 -12.177121
v 0.1488409 -0.26584625 -12.182138
v -0.73120785 -0.015780449 -12.143604
v -0.8963804 0.4859581 -12.131162
v -0.964015 0.11065769 -12.131162
v 0.22671127 0.1379528 -12.178124
v 0.3471279 0.11607647 -12.182941
v 0.2618332 0.19775963 -12.18254
v 0.24838638 0.31135368 -12.180532
vt 0.8935907 0.7128453
vt 0.82800376 0.7235223
vt 0.82266533 0.69454205
vt 0.6846277 0.56031764
vt 0.67166287 0.5191351
vt 0.6686123 0.5397264
vt 0.6876783 0.5137967
vt 0.71055746 0.47719002
vt 0.6876783 0.4810032
vt 0.72733545 0.4909175
vt 0.760129 0.47032624
vt 0.73801243 0.45431083
vt 0.7197091 0.46575043
vt 0.70979476 0.633531
vt 0.6579354 0.5801462
vt 0.67318815 0.6403947
vt 0.76317954 0.6464958
vt 0.730386 0.67471343
vt 0.6983552 0.6625112
vt 0.80359936 0.45964932
vt 0.77766967 0.441346
vt 0.76165426 0.4451592
vt 0.81275105 0.6754761
vt 0.7647048 0.6724255
vt 0.82952905 0.43448225
vt 0.8745247 0.43143168
vt 0.8440192 0.68539035
vt 0.9423996 0.7075069
vt 1.0270525 0.4695636
vt 0.8585093 0.34982935
vt 1.1300087 0.41922945
vt 0.82266533 0.69454205
vt 0.82800376 0.7235223
vt 0.8935907 0.7128453
vt 0.840206 0.7075069
vn 0.06875033 0.013284832 0.9975454
vn 0.037987143 -0.012817256 0.99919605
vn 0.02120722 -0.0081561655 0.99974185
vn 0.040783793 -0.09392021 0.994744
vn 0.033326052 -0.033326052 0.9988888
vn 0.033326052 -0.033326052 0.9988888
vn 0.040783793 -0.029597178 0.9987295
vn 0.042648226 -0.028664961 0.9986788
vn 0.0463771 -0.039851576 0.9981288
vn 0.04171601 -0.08366581 0.9956203
vn 0.05383484 -0.056631498 0.99694264
vn 0.035190485 -0.037987143 0.9986584
vn 0.035190485 -0.037987143 0.9986584
vn 0.056631498 -0.062224805 0.9964542
vn 0.027732745 -0.13680223 0.9902101
vn 0.027732745 -0.13680223 0.9902101
vn 0.06595367 0.0020982325 0.9978205
vn 0.07154698 -0.04171601 0.9965645
vn 0.07154698 -0.04171601 0.9965645
vn 0.07154698 0.014217064 0.9973359
vn 0.03705492 -0.03146162 0.99881786
vn 0.03705492 -0.03146162 0.99881786
vn 0.048241533 -0.0081561655 0.99880236
vn -0.100913316 0.053370208 0.9934627
vn 0.0463771 -0.018410563 0.9987543
vn 0.040783793 -0.017478347 0.9990151
vn 0.04171601 -0.01654613 0.9989925
vn 0.04171601 -0.015613914 0.9990075
vn 0.040783793 -0.015613914 0.99904597
vn 0.03425827 -0.01374948 0.9993184
vn 0.03425827 -0.01374948 0.9993184
vn 0.02120722 -0.0081561655 0.99974185
vn 0.037987143 -0.012817256 0.99919605
vn 0.06875033 0.013284832 0.9975454
vn 0.07434364 0.0048948824 0.9972207
g BushCardGeo_11_0
f 3/3/3 2/2/2 1/1/1
f 6/6/6 5/5/5 4/4/4
f 5/5/5 7/7/7 4/4/4
f 7/7/7 8/8/8 4/4/4
f 8/8/8 7/7/7 9/9/9
f 8/8/8 10/10/10 4/4/4
f 4/4/4 10/10/10 11/11/11
f 12/12/12 11/11/11 10/10/10
f 13/13/13 12/12/12 10/10/10
f 14/14/14 4/4/4 11/11/11
f 15/15/15 4/4/4 14/14/14
f 16/16/16 15/15/15 14/14/14
f 14/14/14 11/11/11 17/17/17
f 14/14/14 17/17/17 18/18/18
f 19/19/19 14/14/14 18/18/18
f 11/11/11 20/20/20 17/17/17
f 21/21/21 20/20/20 11/11/11
f 22/22/22 21/21/21 11/11/11
f 17/17/17 20/20/20 23/23/23
f 17/17/17 23/23/23 24/24/24
f 20/20/20 25/25/25 23/23/23
f 25/25/25 26/26/26 23/23/23
f 26/26/26 27/27/27 23/23/23
f 27/27/27 26/26/26 28/28/28
f 26/26/26 29/29/29 28/28/28
f 26/26/26 30/30/30 29/29/29
f 30/30/30 31/31/31 29/29/29
f 32/32/32 27/27/27 28/28/28
f 33/33/33 32/32/32 28/28/28
f 27/27/27 32/32/32 34/34/34
f 35/35/35 27/27/27 34/34/34
