g BushCardGeo_20
v -1.63315 -0.1916994 0.4397215
v -1.600096 -0.1993517 0.4442043
v -1.648545 -0.234896 0.4655761
v -1.593395 -0.5183449 0.6346946
v -0.7334489 -0.1952766 0.4400838
v -1.925157 -0.2668633 0.4851821
v -1.67929 -0.2121657 0.4520375
v -0.5797707 -0.5106474 0.6280838
v -0.5801329 -0.253053 0.4742697
v -1.510036 -0.0339461 0.3452688
v -1.611054 -0.1537101 0.4169913
v -1.998329 -0.2680858 0.4860423
v -2.255561 -0.5264047 0.6408526
v -2.144083 -0.2817602 0.4945096
v -2.23274 -0.3078864 0.5103121
v -2.193302 -0.2741079 0.4900722
v -1.9046 -0.2068228 0.4492756
v -1.995385 -0.2030646 0.4472379
v -1.943495 -0.2453102 0.4723681
v -1.959796 -0.1838661 0.4356917
v -1.929685 -0.2114866 0.4521281
v -1.873946 -0.1317948 0.4044489
v -1.953819 -0.1526687 0.4170366
v -1.922984 -0.1121436 0.3927669
v -1.851714 -0.08982086 0.3793189
v -1.780037 -0.08234972 0.3747004
v -1.695183 -0.1042197 0.387605
v -2.123617 -0.23716 0.46784
v -2.150784 -0.2317264 0.4646252
v -2.168081 -0.2512419 0.4763526
v -2.10555 -0.1893449 0.4392688
v -2.026855 -0.1993517 0.4450645
v -2.05769 -0.161317 0.4224249
v -1.612729 0.003862202 0.3229007
v -1.631837 -0.06709057 0.3653275
v -1.667065 -0.0260222 0.3408766
v -1.581124 -0.008272648 0.3301001
v -1.661948 -0.0905906 0.3794094
v -1.541143 0.01300865 0.3172861
v -1.465979 0.01015604 0.3188708
v -1.291155 0.05231112 0.2933334
v -1.003767 0.03496915 0.3031136
v -0.7478026 -0.1348738 0.4040415
v -1.404761 0.05855972 0.2898015
v -1.379088 0.09016472 0.27092
v -1.33571 0.09577936 0.2674788
v -1.452621 0.05625045 0.2912957
v -1.427446 0.07295853 0.2812437
v -1.488437 0.03012425 0.3069624
v -1.553911 0.03791231 0.3024345
v -1.559436 0.0818333 0.2762177
v -1.507591 0.1127139 0.2576984
v -1.447278 0.08541036 0.2738632
v -0.8692418 0.001281261 0.322946
v -0.8133671 -0.01366091 0.3317755
v -0.7274268 -0.06899232 0.3646484
v -0.7660953 -0.01302701 0.3313227
v -0.8264528 0.03700674 0.3015742
v -0.7962062 0.0283131 0.3066908
v -0.9279239 0.06037086 0.2878093
v -0.8753546 0.09147781 0.2691088
v -0.8284903 0.07644504 0.2779836
v -0.9856551 0.1121252 0.2570192
v -0.9360742 0.1144797 0.2555251
v -1.012008 0.1608006 0.2279952
v -1.084636 0.08396143 0.2740443
v -1.064713 0.1583102 0.2295799
v -1.102929 0.1036127 0.2623169
v -1.210694 0.09949225 0.2649884
v -1.285133 0.1051975 0.2617283
v -1.204264 0.1417832 0.2397225
v -1.107004 0.1511561 0.2339268
v -0.7111714 0.2433448 0.604131
v -0.8845009 0.2658035 0.5962977
v -0.8083411 0.2867678 0.5888719
v -0.8954585 0.2164037 0.613685
v -1.01966 0.1293314 0.6443391
v -1.019841 0.1949865 0.6212466
v -0.9582611 0.09297204 0.6571532
v -1.015811 -0.01207614 0.6941012
v -1.089571 0.03755009 0.6767139
v -1.05774 0.09659439 0.6558854
v -0.4327033 0.2388169 0.6056252
v -0.6631753 0.3450877 0.568315
v -0.4298506 0.3433217 0.5688583
v -0.3535096 0.1007148 0.65421
v -0.2682486 0.2095212 0.6158584
v -0.3318208 0.2912052 0.5871512
v -1.033153 -0.1401262 0.7391995
v -1.115018 -0.08094609 0.7184162
v -1.110626 -0.03254241 0.7013459
v -0.2171281 -0.01583433 0.6951426
v -0.2554798 0.1146156 0.6492745
v -1.111849 -0.2275155 0.7699894
v -1.098582 -0.3542072 0.8145443
v -0.1621589 -0.09425825 0.7227177
v -0.03102982 -0.4928979 0.8629933
v -0.9198189 -0.6638729 0.9234865
v -1.221968 -0.4925357 0.8633102
v -1.21015 -0.7118238 0.9404663
v -0.01844215 -0.2886426 0.7910896
v 0.02937287 -0.1823719 0.7536889
v -0.08346337 -0.06935453 0.7139335
vt 0.5932952 0.7518107
vt 0.5738546 0.7572939
vt 0.6022677 0.7822177
vt 0.5698668 0.9826052
vt 0.06441174 0.7582909
vt 0.764771 0.8026553
vt 0.6207114 0.765768
vt -0.02581248 0.9821068
vt -0.02531401 0.8001629
vt 0.5210161 0.6411489
vt 0.5798363 0.7253914
vt 0.8081385 0.8031538
vt 0.9591768 0.9845991
vt 0.893378 0.8121263
vt 0.945718 0.8300714
vt 0.9222896 0.8066431
vt 0.7528076 0.7607833
vt 0.8061446 0.7572939
vt 0.776236 0.787701
vt 0.7847101 0.743835
vt 0.7692574 0.7642726
vt 0.7348624 0.7079448
vt 0.7817193 0.7224005
vt 0.7637741 0.6939874
vt 0.7219021 0.6785346
vt 0.68003 0.6735499
vt 0.6301824 0.6895011
vt 0.8814145 0.7807223
vt 0.8973658 0.7767345
vt 0.9078338 0.7901934
vt 0.8709465 0.7468259
vt 0.8245882 0.7548015
vt 0.8430319 0.7273853
vt 0.5813317 0.6137327
vt 0.5927967 0.6635804
vt 0.6132342 0.6346687
vt 0.5628881 0.6227053
vt 0.6102434 0.68003
vt 0.5394597 0.607751
vt 0.4955938 0.6097449
vt 0.3924092 0.5808333
vt 0.2234257 0.5937936
vt 0.07288584 0.7159204
vt 0.4592051 0.5758485
vt 0.4442508 0.5534171
vt 0.4188285 0.5499277
vt 0.4876182 0.5773439
vt 0.4726639 0.5663775
vt 0.5085542 0.5957876
vt 0.5469369 0.5898058
vt 0.5504262 0.5584018
vt 0.5200192 0.5364689
vt 0.4841289 0.5564079
vt 0.144168 0.6177205
vt 0.111767 0.6291855
vt 0.06092241 0.670559
vt 0.08335385 0.6301824
vt 0.1192442 0.5932952
vt 0.101299 0.5997754
vt 0.1790613 0.576347
vt 0.1481558 0.5539156
vt 0.1207396 0.5643836
vt 0.2129577 0.5399582
vt 0.1840461 0.5379643
vt 0.228909 0.5050648
vt 0.2712795 0.5593988
vt 0.2598145 0.5065603
vt 0.2817475 0.5454414
vt 0.345054 0.5474353
vt 0.3894184 0.5429491
vt 0.3415646 0.5175267
vt 0.2842398 0.5115451
vt 0.6904981 0.5623897
vt 0.671556 0.5195207
vt 0.6690636 0.5399582
vt 0.6880057 0.5140374
vt 0.7104371 0.4771502
vt 0.6875072 0.4806395
vt 0.7273853 0.4911076
vt 0.7602848 0.47067
vt 0.7383518 0.4542203
vt 0.7194097 0.4656852
vt 0.7099386 0.6336718
vt 0.6580971 0.5803348
vt 0.6735499 0.640152
vt 0.7632756 0.6466321
vt 0.7308747 0.6745468
vt 0.6979752 0.6625834
vt 0.8041507 0.4592051
vt 0.7777314 0.4412599
vt 0.7612817 0.4452477
vt 0.8126248 0.6755438
vt 0.764771 0.6725529
vt 0.829573 0.4342812
vt 0.8744358 0.4312904
vt 0.8440288 0.6855133
vt 0.9920763 0.6984737
vt 0.9945687 0.4607005
vt 0.9153109 0.3924092
vt 0.9925748 0.3834367
vt 0.9212927 0.712431
vt 0.8868978 0.7303762
vt 0.840041 0.7074463
vn 0.001707918 0.5127093 0.8585606
vn 0.001707918 0.5127093 0.8585606
vn 0.001707918 0.5127093 0.8585606
vn 0.001707918 0.5127093 0.8585606
vn 0.001707918 0.5127093 0.8585606
vn 0.001707918 0.5127093 0.8585606
vn 0.001707918 0.5127093 0.8585606
vn 0.001707918 0.5127093 0.8585606
vn 0.001707918 0.5127093 0.8585606
vn 0.001707918 0.5127093 0.8585606
vn 0.001707918 0.5127093 0.8585606
vn 0.001707918 0.5127093 0.8585606
vn 0.001707918 0.5127093 0.8585606
vn 0.001707918 0.5127093 0.8585606
vn 0.001707918 0.5127093 0.8585606
vn 0.001707918 0.5127093 0.8585606
vn 0.001707918 0.5127093 0.8585606
vn 0.001707918 0.5127093 0.8585606
vn 0.001707918 0.5127093 0.8585606
vn 0.001707918 0.5127093 0.8585606
vn 0.001707918 0.5127093 0.8585606
vn 0.001707918 0.5127093 0.8585606
vn 0.001707918 0.5127093 0.8585606
vn 0.001707918 0.5127093 0.8585606
vn 0.001707918 0.5127093 0.8585606
vn 0.001707918 0.5127093 0.8585606
vn 0.001707918 0.5127093 0.8585606
vn 0.001707918 0.5127093 0.8585606
vn 0.001707918 0.5127093 0.8585606
vn 0.001707918 0.5127093 0.8585606
vn 0.001707918 0.5127093 0.8585606
vn 0.001707918 0.5127093 0.8585606
vn 0.001707918 0.5127093 0.8585606
vn 0.001707918 0.5127093 0.8585606
vn 0.001707918 0.5127093 0.8585606
vn 0.001707918 0.5127093 0.8585606
vn 0.001707918 0.5127093 0.8585606
vn 0.001707918 0.5127093 0.8585606
vn 0.001707918 0.5127093 0.8585606
vn 0.001707918 0.5127093 0.8585606
vn 0.001707918 0.5127093 0.8585606
vn 0.001707918 0.5127093 0.8585606
vn 0.001707918 0.5127093 0.8585606
vn 0.001707918 0.5127093 0.8585606
vn 0.001707918 0.5127093 0.8585606
vn 0.001707918 0.5127093 0.8585606
vn 0.001707918 0.5127093 0.8585606
vn 0.001707918 0.5127093 0.8585606
vn 0.001707918 0.5127093 0.8585606
vn 0.001707918 0.5127093 0.8585606
vn 0.001707918 0.5127093 0.8585606
vn 0.001707918 0.5127093 0.8585606
vn 0.001707918 0.5127093 0.8585606
vn 0.001707918 0.5127093 0.8585606
vn 0.001707918 0.5127093 0.8585606
vn 0.001707918 0.5127093 0.8585606
vn 0.001707918 0.5127093 0.8585606
vn 0.001707918 0.5127093 0.8585606
vn 0.001707918 0.5127093 0.8585606
vn 0.001707918 0.5127093 0.8585606
vn 0.001707918 0.5127093 0.8585606
vn 0.001707918 0.5127093 0.8585606
vn 0.001707918 0.5127093 0.8585606
vn 0.001707918 0.5127093 0.8585606
vn 0.001707918 0.5127093 0.8585606
vn 0.001707918 0.5127093 0.8585606
vn 0.001707918 0.5127093 0.8585606
vn 0.001707918 0.5127093 0.8585606
vn 0.001707918 0.5127093 0.8585606
vn 0.001707918 0.5127093 0.8585606
vn 0.001707918 0.5127093 0.8585606
vn 0.001707918 0.5127093 0.8585606
vn -0.0003094048 0.3311503 0.9435779
vn -0.0003094048 0.3311503 0.9435779
vn -0.0003094048 0.3311503 0.9435779
vn -0.0003094048 0.3311503 0.9435779
vn -0.0003094048 0.3311503 0.9435779
vn -0.0003094048 0.3311503 0.9435779
vn -0.0003094048 0.3311503 0.9435779
vn -0.0003094048 0.3311503 0.9435779
vn -0.0003094048 0.3311503 0.9435779
vn -0.0003094048 0.3311503 0.9435779
vn -0.0003094048 0.3311503 0.9435779
vn -0.0003094048 0.3311503 0.9435779
vn -0.0003094048 0.3311503 0.9435779
vn -0.0003094048 0.3311503 0.9435779
vn -0.0003094048 0.3311503 0.9435779
vn -0.0003094048 0.3311503 0.9435779
vn -0.0003094048 0.3311503 0.9435779
vn -0.0003094048 0.3311503 0.9435779
vn -0.0003094048 0.3311503 0.9435779
vn -0.0003094048 0.3311503 0.9435779
vn -0.0003094048 0.3311503 0.9435779
vn -0.0003094048 0.3311503 0.9435779
vn -0.0003094048 0.3311503 0.9435779
vn -0.0003094048 0.3311503 0.9435779
vn -0.0003094048 0.3311503 0.9435779
vn -0.0003094048 0.3311503 0.9435779
vn -0.0003094048 0.3311503 0.9435779
vn -0.0003094048 0.3311503 0.9435779
vn -0.0003094048 0.3311503 0.9435779
vn -0.0003094048 0.3311503 0.9435779
vn -0.0003094048 0.3311503 0.9435779
g BushCardGeo_20_0
f 3/3/3 2/2/2 1/1/1
f 4/4/4 2/2/2 3/3/3
f 5/5/5 2/2/2 4/4/4
f 6/6/6 4/4/4 3/3/3
f 6/6/6 3/3/3 7/7/7
f 8/8/8 5/5/5 4/4/4
f 8/8/8 9/9/9 5/5/5
f 5/5/5 10/10/10 2/2/2
f 2/2/2 10/10/10 11/11/11
f 6/6/6 12/12/12 4/4/4
f 12/12/12 13/13/13 4/4/4
f 12/12/12 14/14/14 13/13/13
f 14/14/14 15/15/15 13/13/13
f 15/15/15 14/14/14 16/16/16
f 17/17/17 6/6/6 7/7/7
f 18/18/18 12/12/12 6/6/6
f 19/19/19 18/18/18 6/6/6
f 20/20/20 18/18/18 19/19/19
f 21/21/21 20/20/20 19/19/19
f 17/17/17 7/7/7 22/22/22
f 23/23/23 17/17/17 22/22/22
f 24/24/24 23/23/23 22/22/22
f 25/25/25 22/22/22 7/7/7
f 26/26/26 25/25/25 7/7/7
f 26/26/26 7/7/7 27/27/27
f 14/14/14 12/12/12 28/28/28
f 14/14/14 28/28/28 29/29/29
f 30/30/30 14/14/14 29/29/29
f 31/31/31 28/28/28 12/12/12
f 32/32/32 31/31/31 12/12/12
f 31/31/31 32/32/32 33/33/33
f 36/36/36 35/35/35 34/34/34
f 35/35/35 37/37/37 34/34/34
f 35/35/35 11/11/11 37/37/37
f 11/11/11 35/35/35 38/38/38
f 11/11/11 10/10/10 37/37/37
f 37/37/37 10/10/10 39/39/39
f 40/40/40 10/10/10 5/5/5
f 41/41/41 40/40/40 5/5/5
f 42/42/42 41/41/41 5/5/5
f 43/43/43 42/42/42 5/5/5
f 40/40/40 41/41/41 44/44/44
f 45/45/45 44/44/44 41/41/41
f 46/46/46 45/45/45 41/41/41
f 40/40/40 44/44/44 47/47/47
f 47/47/47 44/44/44 48/48/48
f 49/49/49 40/40/40 47/47/47
f 50/50/50 49/49/49 47/47/47
f 51/51/51 50/50/50 47/47/47
f 52/52/52 51/51/51 47/47/47
f 53/53/53 52/52/52 47/47/47
f 42/42/42 43/43/43 54/54/54
f 54/54/54 43/43/43 55/55/55
f 55/55/55 43/43/43 56/56/56
f 57/57/57 55/55/55 56/56/56
f 58/58/58 54/54/54 55/55/55
f 59/59/59 58/58/58 55/55/55
f 60/60/60 42/42/42 54/54/54
f 61/61/61 60/60/60 54/54/54
f 62/62/62 61/61/61 54/54/54
f 63/63/63 42/42/42 60/60/60
f 64/64/64 63/63/63 60/60/60
f 66/66/66 42/42/42 65/65/65
f 67/67/67 66/66/66 65/65/65
f 41/41/41 42/42/42 66/66/66
f 41/41/41 66/66/66 68/68/68
f 69/69/69 41/41/41 68/68/68
f 41/41/41 69/69/69 70/70/70
f 71/71/71 69/69/69 68/68/68
f 72/72/72 71/71/71 68/68/68
f 75/75/75 74/74/74 73/73/73
f 74/74/74 76/76/76 73/73/73
f 76/76/76 77/77/77 73/73/73
f 77/77/77 76/76/76 78/78/78
f 77/77/77 79/79/79 73/73/73
f 73/73/73 79/79/79 80/80/80
f 81/81/81 80/80/80 79/79/79
f 82/82/82 81/81/81 79/79/79
f 83/83/83 73/73/73 80/80/80
f 84/84/84 73/73/73 83/83/83
f 85/85/85 84/84/84 83/83/83
f 83/83/83 80/80/80 86/86/86
f 83/83/83 86/86/86 87/87/87
f 88/88/88 83/83/83 87/87/87
f 80/80/80 89/89/89 86/86/86
f 90/90/90 89/89/89 80/80/80
f 91/91/91 90/90/90 80/80/80
f 86/86/86 89/89/89 92/92/92
f 86/86/86 92/92/92 93/93/93
f 89/89/89 94/94/94 92/92/92
f 94/94/94 95/95/95 92/92/92
f 95/95/95 96/96/96 92/92/92
f 96/96/96 95/95/95 97/97/97
f 95/95/95 98/98/98 97/97/97
f 95/95/95 99/99/99 98/98/98
f 99/99/99 100/100/100 98/98/98
f 101/101/101 96/96/96 97/97/97
f 96/96/96 101/101/101 102/102/102
f 103/103/103 96/96/96 102/102/102
