g Bushes06
v 2.3602634E-10 6.167072E-11 1.171166E-09
v 0.009081897 0.009081897 -0.009999999
v 0.012843743 6.167072E-11 -0.009999999
v 2.3602634E-10 0.012843743 -0.009999999
v 0.009081897 -0.009081897 -0.009999999
v -0.009081897 0.009081897 -0.009999999
v 2.3602634E-10 -0.012843743 -0.009999999
v -0.012843743 6.167072E-11 -0.009999999
v -0.009081897 -0.009081897 -0.009999999
vt 0.5000023 0.5000023
vt 0.85214365 0.85214365
vt 0.998008 0.5000023
vt 0.5000023 0.998008
vt 0.85214365 0.14785641
vt 0.14785641 0.85214365
vt 0.5000023 0.0019920322
vt 0.0019920322 0.5000023
vt 0.14785641 0.14785641
vn -0 0 1
vn 0.5482527 0.5482527 0.63153625
vn 0.77592 0 0.6308313
vn -0 0.77592003 0.63083124
vn 0.5482527 -0.5482527 0.63153625
vn -0.5482527 0.5482527 0.63153625
vn -0 -0.77592003 0.63083124
vn -0.77592 0 0.6308313
vn -0.5482527 -0.5482527 0.63153625
g Bushes06_0
f 3/3/3 2/2/2 1/1/1
f 2/2/2 4/4/4 1/1/1
f 5/5/5 3/3/3 1/1/1
f 4/4/4 6/6/6 1/1/1
f 7/7/7 5/5/5 1/1/1
f 6/6/6 8/8/8 1/1/1
f 9/9/9 7/7/7 1/1/1
f 8/8/8 9/9/9 1/1/1
