g BushCardGeo_22
v -0.6362045 0.5281756 -0.1734046
v -0.5624967 0.5896709 -0.1743863
v -0.4812098 0.5749056 -0.173758
v -0.6077347 0.4781468 -0.1722265
v 0.2282634 0.4900453 -0.169242
v -0.6769266 0.3748693 -0.1703416
v 0.384986 -0.3971987 -0.149961
v -0.6838379 0.4529754 -0.1719909
v 1.279377 0.6021976 -0.167475
v 1.117157 0.6652637 -0.1694384
v 1.356344 0.3844509 -0.1625663
v 1.491037 0.3308095 -0.1608385
v 1.545071 -0.04526985 -0.1527098
v 1.183561 0.7578206 -0.1710877
v 0.6000231 0.7238922 -0.1724229
v 1.03964 0.8060038 -0.1740329
v 1.107889 0.8218684 -0.1741115
v 0.9945589 0.8545794 -0.175211
v 0.4315983 0.668798 -0.1705379
v 0.458105 0.7341022 -0.1721088
v 0.5186577 0.7477679 -0.1733654
v 0.8872759 0.8806541 -0.1761534
v 0.6320666 0.7640252 -0.1745042
v 0.9342809 0.9684989 -0.1778027
v 1.009677 0.9430525 -0.1769781
v 0.8490279 0.9648468 -0.1780776
v 0.7792469 0.966182 -0.1783918
v 0.6411771 0.8116193 -0.1749361
v 0.6558244 0.912894 -0.1777635
v 0.5960569 0.857132 -0.1761534
v 0.5920515 0.9028804 -0.177999
v 0.6437295 0.9842458 -0.1793342
v 0.7056568 1.028424 -0.1800017
v -0.3383099 0.8494747 -0.17902
v -0.2283174 0.8394217 -0.1783918
v -0.1787992 0.7203975 -0.1757214
v -0.4006298 0.7703867 -0.1775671
v -0.5249162 0.7624545 -0.1779206
v -0.4621251 0.79654 -0.1783525
v -0.5480063 0.6678162 -0.1759963
v 0.02763808 0.6605513 -0.1736795
v -0.08934438 0.764575 -0.1763498
v -0.02706373 0.7430949 -0.175643
v 0.1478012 0.6487315 -0.1729333
v 0.2156581 0.5943046 -0.1714804
v -0.8956156 0.03000891 -0.16398
v -0.9904504 -0.4428686 -0.1544769
v -0.9734468 -0.01012409 -0.1634696
v -0.8443696 -0.7703721 -0.1470158
v -0.7162349 0.2683325 -0.1682603
v -0.7943017 0.253803 -0.1682997
v -0.8954587 0.127828 -0.1660613
v -0.774353 0.3039103 -0.169242
v -0.7485139 0.3679973 -0.1704987
v 0.2637234 0.7487495 -0.14894
v 0.332287 0.803844 -0.1445811
v 0.3969238 0.8001134 -0.140772
v 0.4154195 0.7599804 -0.1398689
v 0.5312238 0.7087345 -0.1332324
v 0.5183828 0.7648106 -0.1337429
v 0.4896772 0.6662846 -0.1359026
v 0.5561989 0.5873539 -0.1323292
v 0.6049318 0.6433909 -0.1291877
v 0.5679404 0.687922 -0.1311904
v 0.1345283 0.7210257 -0.1710484
v 0.2054874 0.8266592 -0.1520029
v 0.1115952 0.8096166 -0.1719517
v 0.06510067 0.6105618 -0.1704987
v -0.02415776 0.6875684 -0.1754466
v 0.01016331 0.7690909 -0.1730511
v 0.5953109 0.4812884 -0.1304835
v 0.6485596 0.5470247 -0.1270672
v 0.6355223 0.5875111 -0.1276562
v -0.02144825 0.5101118 -0.1760356
v -0.01759982 0.6210861 -0.1751324
v 0.6751055 0.4213246 -0.1260068
v 0.689635 0.3107431 -0.1256535
v -0.07701385 0.4048709 -0.1753681
v -0.1305768 -0.005961537 -0.1757214
v 0.6089765 0.01328027 -0.131858
v 0.8149817 0.2156335 -0.1186243
v 0.8490279 0.0263176 -0.1175247
v -0.1809982 0.1660367 -0.1779598
v -0.2399803 0.2478341 -0.1811013
v -0.1727518 0.3652877 -0.1766247
vt 0.7709314 0.4236017
vt 0.7375634 0.4382634
vt 0.7087457 0.4236017
vt 0.7663812 0.4023676
vt 0.4539362 0.313892
vt 0.8027825 0.3720331
vt 0.4938765 -0.0278763
vt 0.7967157 0.4013564
vt 0.05251004 0.2385615
vt 0.1050898 0.279513
vt 0.04846545 0.1505915
vt 0.005997188 0.1162124
vt 0.02773689 -0.02737073
vt 0.07172187 0.3063084
vt 0.2921523 0.3518101
vt 0.09649502 0.3518101
vt 0.06969957 0.3497878
vt 0.1086288 0.374561
vt 0.3897282 0.3472599
vt 0.3725387 0.3786056
vt 0.3194534 0.3715275
vt 0.1465469 0.3957951
vt 0.2517064 0.3720331
vt 0.1192459 0.4230961
vt 0.09396715 0.405401
vt 0.1510971 0.4311853
vt 0.1763758 0.4392745
vt 0.2608067 0.398323
vt 0.2274388 0.4332076
vt 0.2739516 0.4251184
vt 0.2512008 0.4418024
vt 0.2238998 0.4605086
vt 0.1965988 0.4701146
vt 0.6248204 0.5080326
vt 0.5843744 0.4923598
vt 0.5783075 0.4433191
vt 0.6571771 0.486293
vt 0.7031844 0.49691
vt 0.6768945 0.5024713
vt 0.7223962 0.4650588
vt 0.5080326 0.398323
vt 0.5388727 0.449386
vt 0.5186497 0.4342188
vt 0.4655644 0.3806279
vt 0.4468581 0.3533269
vt 0.9200758 0.2699071
vt 1.006023 0.1071121
vt 0.9524326 0.2638402
vt 0.9878228 -0.02888745
vt 0.8285668 0.3371485
vt 0.8583958 0.3406875
vt 0.9094588 0.3058029
vt 0.8457564 0.3568659
vt 0.829578 0.3770888
vt 0.690545 0.5626346
vt 0.6688053 0.5398838
vt 0.6713332 0.5191553
vt 0.6880171 0.513594
vt 0.7102624 0.4771926
vt 0.6875116 0.4807316
vt 0.7269464 0.4908431
vt 0.7603143 0.4706201
vt 0.738069 0.4544417
vt 0.7193627 0.4655644
vt 0.7097569 0.6339207
vt 0.6576827 0.5803298
vt 0.6733555 0.6399876
vt 0.7633477 0.64656
vt 0.7304854 0.6743667
vt 0.6981286 0.6622328
vt 0.8037937 0.4594975
vt 0.7780094 0.4412968
vt 0.7613254 0.4448358
vt 0.812894 0.6753778
vt 0.7648644 0.6728499
vt 0.829578 0.4347243
vt 0.8745741 0.4311853
vt 0.8437341 0.6854893
vt 0.9918674 0.6986342
vt 0.9943953 0.4605086
vt 0.91502 0.3922561
vt 0.9928785 0.3836613
vt 0.921087 0.7127903
vt 0.8872135 0.7304854
vt 0.8401951 0.707229
vn -0.003677189 0.02102106 0.9997723
vn -0.003677189 0.02102106 0.9997723
vn -0.003677189 0.02102106 0.9997723
vn -0.003677189 0.02102106 0.9997723
vn -0.003677189 0.02102106 0.9997723
vn -0.003677189 0.02102106 0.9997723
vn -0.003677189 0.02102106 0.9997723
vn -0.003677189 0.02102106 0.9997723
vn -0.003677189 0.02102106 0.9997723
vn -0.003677189 0.02102106 0.9997723
vn -0.003677189 0.02102106 0.9997723
vn -0.003677189 0.02102106 0.9997723
vn -0.003677189 0.02102106 0.9997723
vn -0.003677189 0.02306151 0.9997272
vn -0.003677189 0.02102106 0.9997723
vn -0.004697412 0.04040539 0.9991723
vn -0.005717643 0.0444863 0.9989936
vn -0.004697412 0.02918288 0.999563
vn 0.01264646 -0.002444178 0.999917
vn 0.004484639 0.03020311 0.9995337
vn 0.004484639 0.03020311 0.9995337
vn -0.003677189 0.02816266 0.9995966
vn -0.003677189 0.02918288 0.9995673
vn -0.003677189 0.02102106 0.9997723
vn -0.003677189 0.02102106 0.9997723
vn -0.002656959 0.02204129 0.9997535
vn -0.001636729 0.02204129 0.9997557
vn -0.001636729 0.02306151 0.9997327
vn -0.002656959 0.02306151 0.9997305
vn -0.002656959 0.03224356 0.9994766
vn -0.002656959 0.03224356 0.9994766
vn -0.003677189 0.02102106 0.9997723
vn -0.003677189 0.02102106 0.9997723
vn -0.003677189 0.02102106 0.9997723
vn -0.003677189 0.02102106 0.9997723
vn -0.003677189 0.02102106 0.9997723
vn -0.003677189 0.02102106 0.9997723
vn -0.003677189 0.02102106 0.9997723
vn -0.003677189 0.02102106 0.9997723
vn -0.003677189 0.02102106 0.9997723
vn -0.003677189 0.02204129 0.9997503
vn -0.003677189 0.02204129 0.9997503
vn -0.003677189 0.02204129 0.9997503
vn -0.003677189 0.02102106 0.9997723
vn -0.003677189 0.02102106 0.9997723
vn -0.003677189 0.02102106 0.9997723
vn -0.003677189 0.02102106 0.9997723
vn -0.003677189 0.02102106 0.9997723
vn -0.003677189 0.02102106 0.9997723
vn -0.003677189 0.02102106 0.9997723
vn -0.004697412 0.02102106 0.999768
vn -0.004697412 0.02102106 0.999768
vn -0.004697412 0.02102106 0.999768
vn -0.004697412 0.02102106 0.999768
vn -0.1179427 -0.0871231 0.9891911
vn -0.05876949 -0.005504861 0.9982564
vn -0.05876949 -0.005504861 0.9982564
vn -0.05876949 -0.004484639 0.9982615
vn -0.05876949 -0.004484639 0.9982615
vn -0.05876949 -0.004484639 0.9982615
vn -0.0954977 -0.07079945 0.9929087
vn -0.07815382 0.008778326 0.9969026
vn -0.05876949 -0.004484639 0.9982615
vn -0.05876949 -0.004484639 0.9982615
vn -0.08427519 0.0006165057 0.9964423
vn -0.173035 -0.06059717 0.9830498
vn -0.173035 -0.06059717 0.9830498
vn -0.06999201 0.005717643 0.9975312
vn -0.02918288 0.005717643 0.9995577
vn -0.02918288 0.005717643 0.9995577
vn -0.07407291 0.003677189 0.997246
vn -0.05876949 -0.004484639 0.9982615
vn -0.05876949 -0.004484639 0.9982615
vn -0.06795155 0.01183901 0.9976184
vn -0.05672903 -0.006525092 0.9983683
vn -0.06693132 0.01387946 0.9976611
vn -0.0628504 0.004697412 0.9980119
vn -0.06183018 0.004697412 0.9980756
vn -0.06183018 0.002656959 0.9980832
vn -0.06183018 0.001636729 0.9980853
vn -0.05978972 -0.004484639 0.998201
vn -0.05978972 -0.004484639 0.998201
vn -0.03122334 0.0006165057 0.9995123
vn -0.03020311 -0.005504861 0.9995286
vn -0.03020311 -0.005504861 0.9995286
g BushCardGeo_22_0
f 3/3/3 2/2/2 1/1/1
f 4/4/4 3/3/3 1/1/1
f 3/3/3 4/4/4 5/5/5
f 5/5/5 4/4/4 6/6/6
f 6/6/6 7/7/7 5/5/5
f 4/4/4 8/8/8 6/6/6
f 7/7/7 9/9/9 5/5/5
f 9/9/9 10/10/10 5/5/5
f 11/11/11 9/9/9 7/7/7
f 12/12/12 11/11/11 7/7/7
f 13/13/13 12/12/12 7/7/7
f 10/10/10 14/14/14 5/5/5
f 14/14/14 15/15/15 5/5/5
f 16/16/16 15/15/15 14/14/14
f 17/17/17 16/16/16 14/14/14
f 15/15/15 16/16/16 18/18/18
f 5/5/5 15/15/15 19/19/19
f 19/19/19 15/15/15 20/20/20
f 15/15/15 21/21/21 20/20/20
f 18/18/18 22/22/22 15/15/15
f 22/22/22 23/23/23 15/15/15
f 24/24/24 22/22/22 18/18/18
f 25/25/25 24/24/24 18/18/18
f 26/26/26 23/23/23 22/22/22
f 23/23/23 26/26/26 27/27/27
f 27/27/27 28/28/28 23/23/23
f 27/27/27 29/29/29 28/28/28
f 30/30/30 28/28/28 29/29/29
f 31/31/31 30/30/30 29/29/29
f 32/32/32 29/29/29 27/27/27
f 33/33/33 32/32/32 27/27/27
f 36/36/36 35/35/35 34/34/34
f 37/37/37 36/36/36 34/34/34
f 36/36/36 37/37/37 3/3/3
f 3/3/3 37/37/37 38/38/38
f 37/37/37 39/39/39 38/38/38
f 40/40/40 3/3/3 38/38/38
f 5/5/5 36/36/36 3/3/3
f 41/41/41 36/36/36 5/5/5
f 42/42/42 36/36/36 41/41/41
f 43/43/43 42/42/42 41/41/41
f 44/44/44 41/41/41 5/5/5
f 45/45/45 44/44/44 5/5/5
f 48/48/48 47/47/47 46/46/46
f 47/47/47 49/49/49 46/46/46
f 49/49/49 7/7/7 46/46/46
f 7/7/7 50/50/50 46/46/46
f 50/50/50 7/7/7 6/6/6
f 46/46/46 50/50/50 51/51/51
f 52/52/52 46/46/46 51/51/51
f 53/53/53 50/50/50 6/6/6
f 54/54/54 53/53/53 6/6/6
f 57/57/57 56/56/56 55/55/55
f 58/58/58 57/57/57 55/55/55
f 59/59/59 58/58/58 55/55/55
f 58/58/58 59/59/59 60/60/60
f 61/61/61 59/59/59 55/55/55
f 61/61/61 55/55/55 62/62/62
f 62/62/62 63/63/63 61/61/61
f 63/63/63 64/64/64 61/61/61
f 55/55/55 65/65/65 62/62/62
f 55/55/55 66/66/66 65/65/65
f 66/66/66 67/67/67 65/65/65
f 62/62/62 65/65/65 68/68/68
f 68/68/68 65/65/65 69/69/69
f 65/65/65 70/70/70 69/69/69
f 71/71/71 62/62/62 68/68/68
f 71/71/71 72/72/72 62/62/62
f 72/72/72 73/73/73 62/62/62
f 71/71/71 68/68/68 74/74/74
f 74/74/74 68/68/68 75/75/75
f 76/76/76 71/71/71 74/74/74
f 77/77/77 76/76/76 74/74/74
f 78/78/78 77/77/77 74/74/74
f 77/77/77 78/78/78 79/79/79
f 80/80/80 77/77/77 79/79/79
f 81/81/81 77/77/77 80/80/80
f 82/82/82 81/81/81 80/80/80
f 78/78/78 83/83/83 79/79/79
f 83/83/83 78/78/78 84/84/84
f 78/78/78 85/85/85 84/84/84
