g Cliff_Rocks6
v 1.4397871 -1.5944972 -1.0280676
v 1.4433748 -3.1346855 -1.1508105
v 1.6894771 -3.1219776 -0.3313293
v 1.2255116 -3.1430163 -1.688003
v 1.2315522 -1.6608118 -1.5511645
v 0.87545574 -3.1510034 -2.2030602
v 0.8882738 -1.7229702 -2.0414808
v 0.58507615 -3.1560876 -2.5309546
v 0.5958357 -1.7617732 -2.347566
v -0.16133955 -3.1564538 -2.554569
v -0.079524666 -1.7604007 -2.3367407
v -0.9416459 -3.1496465 -2.1155775
v 0.89452803 -1.019705 -1.963446
v 0.60108566 -0.9402131 -2.2759752
v -0.03960127 -0.9007661 -2.2530627
v -0.8701921 -1.7110827 -1.9477123
v 1.2344997 -1.0078334 -1.4754821
v -1.5532649 -1.63077 -1.3141955
v -1.6464775 -3.1402314 -1.5084534
v -1.9099237 -1.5420114 -0.61405635
v -2.0181534 -3.127652 -0.6972656
v -1.8443542 -1.482604 -0.14543943
v -1.945355 -3.1201904 -0.21610777
v -1.7758939 -3.1102307 0.42616093
v 0.58465254 -0.5168947 -2.1320446
v 0.008584765 -0.3997367 -2.1185217
v 0.8520143 -0.55281514 -1.8217065
v -0.8353248 -0.9462764 -1.8737646
v -1.50778 -0.9001163 -1.2186524
v -0.77022105 -0.29073477 -1.7206994
v -1.8571107 -0.97466344 -0.5472875
v -1.440854 -0.21199554 -1.0819947
v -0.72792953 -0.059055697 -1.6236877
v -1.7950686 -1.0185153 -0.0684863
v -1.6954145 -0.18083954 -0.44322506
v 0.030143907 -0.19080742 -2.0099072
v -1.3806568 -0.04493903 -1.0038012
v -1.6840712 -1.4043492 0.4718439
v -0.7007005 0.038331613 -1.5619568
v -1.4286289 -1.3421862 0.96219295
v -1.522661 -3.1022866 0.9384338
v -1.0211451 -1.2647656 1.5728967
v -1.0915397 -3.0915997 1.627594
v -0.45459884 -1.2219437 1.9106841
v -0.45748731 -3.08553 2.0189898
v 0.11405351 -1.2319543 1.8317187
v 0.16420336 -3.0865266 1.9547338
v 0.71737623 -1.2701361 1.5305395
v 0.7390071 -3.091379 1.6418493
v 1.2592982 -3.0994072 1.1241449
v 1.2445796 -1.3389218 0.98794734
v 1.6270423 -3.1083002 0.55066895
v 1.5945418 -1.4021878 0.4888959
v 1.6532643 -1.500012 -0.2827551
v 1.438036 -1.0322096 -0.9441772
v 1.635594 -1.071611 -0.21302488
v 1.5786824 -1.1011782 0.52613467
v 1.237397 -1.1173055 1.0022998
v 0.70682114 -1.1682261 1.5759692
v 1.1596376 -0.60684335 -1.3597925
v 1.3887019 -0.61525536 -0.8516821
v 1.5614936 -0.6573136 -0.16489683
v 1.5035499 -0.69611394 0.48545596
v 1.3335224 -0.43963584 -0.8062488
v 1.1219313 -0.41991743 -1.3012255
v 0.08958177 -1.1179507 1.8719677
v 1.1889912 -0.6016645 0.9029815
v 0.8297362 -0.3459365 -1.7458678
v 0.56404495 -0.26721403 -2.0228882
v 0.82034165 -0.21120338 -1.7019982
v 0.050617848 -0.052798603 -1.9386718
v -0.45318922 -1.100279 1.9576946
v 1.1021767 -0.3054573 -1.2671642
v 0.5506905 -0.14079992 -1.9551795
v 0.23944658 -0.085033484 -1.4142554
v -0.45951614 0.0054352656 -0.9430847
v -0.24444012 -0.027304372 -0.54531246
v 0.4149214 -0.11395125 -0.94811034
v 1.3002248 -0.33632582 -0.77725464
v -1.3437282 0.0930623 -0.94416016
v -1.084202 0.060796134 -0.46955317
v -1.639492 0.052229546 -0.40747187
v 1.4925556 -0.460184 -0.13144223
v 1.4360024 -0.47818008 0.4488666
v 0.61072767 -0.1461933 -0.42851192
v 1.4484724 -0.33654547 -0.10367368
v 0.843148 -0.18379524 0.17455629
v -1.6092145 0.14936486 -0.40953243
v -1.5759358 0.16906524 0.01680056
v 1.1523902 -0.37419823 0.8429327
v 0.6111406 -0.30444184 1.372605
v 1.3923928 -0.33485115 0.41825625
v 1.1336195 -0.24194129 0.79437435
v 0.5804451 -0.13361472 1.3059479
v 0.23003861 -0.095562965 0.5119251
v -0.85748 0.03185563 -0.039517187
v -0.001548292 -0.062246922 -0.0041021495
v -0.59928113 -0.037810963 0.4627234
v -0.31509382 -0.07102103 1.0001978
v -1.1957188 -0.029922247 1.0064502
v -0.0024189586 -0.076564856 1.6678082
v -1.4247062 0.09938813 0.54586613
v -1.4574721 -0.017908849 0.54849184
v -1.2330251 -0.17124352 1.0239514
v -1.6096091 0.04111001 0.0037927479
v -1.6714385 -0.1759536 -0.013571143
v -1.5156486 -0.20951942 0.5568793
v -1.639264 -1.0065616 0.5492353
v -1.382744 -1.0309614 1.0432135
v -1.2908775 -0.3314498 1.0593317
v -0.9867949 -1.0704508 1.6345855
v -0.9138127 -0.44181076 1.5969775
v -0.8558116 -0.20170456 1.5442865
v -0.44013503 -0.48084608 1.8727758
v -0.8165693 -0.1543955 1.5075165
v -0.43171555 -0.26294577 1.7826636
v -0.43225968 -0.17847817 1.7172107
v 0.021350266 -0.2295732 1.7111151
v 0.04570055 -0.45705175 1.7807336
v 0.65208757 -0.5506897 1.4612488
vt 0.23133801 0.83892566
vt 0.20702103 0.8106276
vt 0.18364637 0.84686357
vt 0.22893214 0.7884168
vt 0.24672647 0.8184255
vt 0.2636579 0.76915944
vt 0.27141434 0.79999727
vt 0.2939006 0.7554157
vt 0.2915829 0.7892735
vt 0.337674 0.7574187
vt 0.32419616 0.79177636
vt 0.3757721 0.7788267
vt 0.2742406 0.8148689
vt 0.29112893 0.8080756
vt 0.3172096 0.8120453
vt 0.35580015 0.80686134
vt 0.25503385 0.83242863
vt 0.38212982 0.8324634
vt 0.41094166 0.81529963
vt 0.403258 0.87269855
vt 0.43240276 0.8732927
vt 0.39932054 0.89850557
vt 0.4214475 0.9141707
vt 0.40638834 0.95797145
vt 0.28928548 0.821696
vt 0.3093011 0.825281
vt 0.27640778 0.82904625
vt 0.3451891 0.82116544
vt 0.36658114 0.8400935
vt 0.33453333 0.83825284
vt 0.3913424 0.87540436
vt 0.3551693 0.8578449
vt 0.3307221 0.8443624
vt 0.3917386 0.8982201
vt 0.36744604 0.87877244
vt 0.3065424 0.8312305
vt 0.35171372 0.86185974
vt 0.38267055 0.9319695
vt 0.32880217 0.8473697
vt 0.36206007 0.9486991
vt 0.38129336 0.9834666
vt 0.3339873 0.962844
vt 0.33938172 1.0070649
vt 0.30254444 0.9645126
vt 0.29112086 1.0071552
vt 0.2763309 0.95656866
vt 0.2506172 0.9900781
vt 0.25139475 0.9385633
vt 0.21991102 0.96005905
vt 0.19622031 0.9227813
vt 0.23262246 0.91261965
vt 0.18156148 0.8860964
vt 0.22228181 0.89053106
vt 0.22086433 0.864956
vt 0.24215494 0.8496913
vt 0.23210259 0.8717612
vt 0.2304988 0.8927827
vt 0.23603112 0.91231436
vt 0.25327888 0.93925774
vt 0.261832 0.8425984
vt 0.25200954 0.8577115
vt 0.24346153 0.8771856
vt 0.2428988 0.89411706
vt 0.25637293 0.8607802
vt 0.2649575 0.8473744
vt 0.27869278 0.9578276
vt 0.25102505 0.90875936
vt 0.27715373 0.8353947
vt 0.2878457 0.82923836
vt 0.27782825 0.8396767
vt 0.30450118 0.8352523
vt 0.30319437 0.96236354
vt 0.26714084 0.8504922
vt 0.28728238 0.83346575
vt 0.29695612 0.8490528
vt 0.31925675 0.8633447
vt 0.31120682 0.87333196
vt 0.29007727 0.86095566
vt 0.25928497 0.86285514
vt 0.34900948 0.86543584
vt 0.33903918 0.8775414
vt 0.35993603 0.8798594
vt 0.24899158 0.8795178
vt 0.2492491 0.89459157
vt 0.28240263 0.87422305
vt 0.25280985 0.8809886
vt 0.27332348 0.8896075
vt 0.35691884 0.8804528
vt 0.35539854 0.8920614
vt 0.2576582 0.9074408
vt 0.2745822 0.9248046
vt 0.25395295 0.89524937
vt 0.26198062 0.9056747
vt 0.2790507 0.9213946
vt 0.29306218 0.9001203
vt 0.3305375 0.88834614
vt 0.30191848 0.8870452
vt 0.32077897 0.9010322
vt 0.31013015 0.91452974
vt 0.3403101 0.9187829
vt 0.2980514 0.931935
vt 0.34915408 0.9055608
vt 0.35231343 0.9080603
vt 0.34285623 0.9233863
vt 0.35980228 0.8926928
vt 0.36646098 0.89343286
vt 0.35667026 0.9119672
vt 0.37415287 0.92879695
vt 0.3562116 0.94587535
vt 0.34514534 0.9276821
vt 0.33117872 0.958728
vt 0.32713515 0.94006366
vt 0.32594353 0.9328578
vt 0.3091396 0.945092
vt 0.32575336 0.9307615
vt 0.31135234 0.9388272
vt 0.31205449 0.93548566
vt 0.29471427 0.9366181
vt 0.2907863 0.94212097
vt 0.26855993 0.9288937
vn 0.94776195 0.03476594 -0.3170783
vn 0.94600886 0.029166456 -0.32282585
vn 0.99405766 0.024512807 -0.10605892
vn 0.87486 0.043341435 -0.4824329
vn 0.87942487 0.045437418 -0.47386417
vn 0.7831594 0.06362937 -0.618557
vn 0.7852686 0.06127272 -0.6161161
vn 0.28884524 0.12820473 -0.9487528
vn 0.30331135 0.11315777 -0.94614875
vn -0.26159924 0.14744455 -0.95384794
vn -0.26009437 0.13210462 -0.9565037
vn -0.56283087 0.13690056 -0.8151562
vn 0.7809969 0.1308562 -0.61067224
vn 0.28613216 0.16170892 -0.9444462
vn -0.2654252 0.1717101 -0.94871753
vn -0.56508535 0.12856592 -0.81495357
vn 0.87033916 0.13523355 -0.47352067
vn -0.7881518 0.116362184 -0.6043811
vn -0.78058475 0.11610183 -0.6141725
vn -0.968123 0.093013674 -0.23256421
vn -0.96649754 0.086674675 -0.2415988
vn -0.97742015 0.055447213 0.20390041
vn -0.9779885 0.05170867 0.20215032
vn -0.93845016 0.04358132 0.3426542
vn 0.33388934 0.32780597 -0.8837766
vn -0.25613585 0.321662 -0.91155255
vn 0.778039 0.27398878 -0.5653189
vn -0.5608074 0.16772814 -0.81077886
vn -0.77916235 0.17063843 -0.60314894
vn -0.54833513 0.29145232 -0.7838267
vn -0.95911163 0.15619604 -0.23602478
vn -0.7786773 0.26148805 -0.57033825
vn -0.47727826 0.46989533 -0.7425657
vn -0.97485006 0.11711023 0.18961203
vn -0.9561939 0.21864972 -0.19464222
vn -0.19651593 0.46160436 -0.86504513
vn -0.71236503 0.42537564 -0.55820405
vn -0.9362177 0.0435765 0.34870827
vn -0.010869704 0.9871603 -0.15936284
vn -0.8619525 0.035639368 0.50573486
vn -0.86396456 0.041382037 0.5018493
vn -0.7021205 0.033574697 0.7112663
vn -0.70537364 0.046677936 0.7072971
vn -0.23824726 0.03262181 0.9706566
vn -0.23542239 0.058238257 0.97014666
vn 0.300857 0.042861365 0.9527056
vn 0.30543575 0.06539756 0.94996434
vn 0.60180295 0.045186292 0.79736537
vn 0.5991562 0.06105479 0.7983008
vn 0.7684912 0.050211444 0.6378871
vn 0.77013034 0.040119253 0.6366236
vn 0.953527 0.031908423 0.2996133
vn 0.9537577 0.030396119 0.29903585
vn 0.994697 0.029809155 -0.0984345
vn 0.9437579 0.11958633 -0.30825356
vn 0.9883563 0.113009736 -0.101885565
vn 0.9426756 0.11304811 0.3139791
vn 0.7568294 0.12677997 0.64119893
vn 0.5966415 0.11927706 0.79359436
vn 0.85214835 0.2674648 -0.44978425
vn 0.92566687 0.2443529 -0.28884673
vn 0.9706223 0.22917739 -0.0732813
vn 0.9187741 0.22476965 0.32455018
vn 0.8993796 0.3416616 -0.2727335
vn 0.8486709 0.30159184 -0.43451118
vn 0.33415034 0.09234208 0.9379853
vn 0.74413824 0.23061937 0.6269553
vn 0.78022057 0.29805475 -0.5499265
vn 0.34696054 0.41891253 -0.83912486
vn 0.35808736 0.92847353 -0.09854145
vn 0.079265326 0.9751133 -0.2070533
vn -0.19855453 0.055728134 0.97850424
vn 0.36962974 0.92504126 -0.08759247
vn 0.260313 0.9347933 -0.2416582
vn 0.17053227 0.9853116 0.008935808
vn 0.11612357 0.9931599 0.01218942
vn 0.12191593 0.99235135 0.019372376
vn 0.1921651 0.9813518 -0.0046206512
vn 0.364407 0.92803574 -0.07718257
vn -0.07519724 0.9881677 -0.13367884
vn 0.13248791 0.99116087 0.006863464
vn -0.92492455 0.31894782 -0.20684952
vn 0.93992555 0.3368854 -0.05521101
vn 0.89872104 0.31678787 0.3032259
vn 0.19245304 0.9811431 -0.017885195
vn 0.3976603 0.9168092 -0.036428764
vn 0.19419408 0.98087424 -0.013211756
vn -0.10724323 0.9887537 -0.10423563
vn 0.001902652 0.99875057 0.049937684
vn 0.7307524 0.32547492 0.60005575
vn 0.5989726 0.3394264 0.7252734
vn 0.46461642 0.8825155 0.072787724
vn 0.31261995 0.9430763 0.113471895
vn 0.2220442 0.96395576 0.14658006
vn 0.112335496 0.9936506 0.006270154
vn 0.14387135 0.9883194 0.05025761
vn 0.11520474 0.9930813 0.022747515
vn 0.10240812 0.99166447 0.07819329
vn 0.03798916 0.99753165 0.05905434
vn -0.02811872 0.98062515 0.19386518
vn 0.08143194 0.9759117 0.20239872
vn 0.015859762 0.98857003 0.1499257
vn -0.88529134 0.2771311 0.37344012
vn -0.7745682 0.34497055 0.53013146
vn -0.9474617 0.25664586 0.19091676
vn -0.9674348 0.1684739 0.18890849
vn -0.9239753 0.16430692 0.34535903
vn -0.93380004 0.09975677 0.34360737
vn -0.8545994 0.07852096 0.5133169
vn -0.8403392 0.16255462 0.5171131
vn -0.6958314 0.058149606 0.71584725
vn -0.67987955 0.16616035 0.714251
vn -0.6060239 0.39171043 0.69231355
vn -0.18986501 0.18311201 0.96458346
vn -0.10345355 0.97194797 0.21122122
vn -0.15831777 0.38678095 0.90848
vn -0.12280137 0.952067 0.2801578
vn 0.36467817 0.35883158 0.85921454
vn 0.34166017 0.21306524 0.9153532
vn 0.59473974 0.22531559 0.7716979
g Cliff_Rocks6_0
f 3/3/3 2/2/2 1/1/1
f 1/1/1 2/2/2 4/4/4
f 5/5/5 1/1/1 4/4/4
f 5/5/5 4/4/4 6/6/6
f 7/7/7 5/5/5 6/6/6
f 7/7/7 6/6/6 8/8/8
f 9/9/9 7/7/7 8/8/8
f 9/9/9 8/8/8 10/10/10
f 11/11/11 9/9/9 10/10/10
f 11/11/11 10/10/10 12/12/12
f 7/7/7 13/13/13 5/5/5
f 9/9/9 14/14/14 7/7/7
f 14/14/14 13/13/13 7/7/7
f 11/11/11 15/15/15 9/9/9
f 15/15/15 14/14/14 9/9/9
f 16/16/16 11/11/11 12/12/12
f 15/15/15 11/11/11 16/16/16
f 5/5/5 17/17/17 1/1/1
f 13/13/13 17/17/17 5/5/5
f 18/18/18 16/16/16 12/12/12
f 19/19/19 18/18/18 12/12/12
f 20/20/20 18/18/18 19/19/19
f 21/21/21 20/20/20 19/19/19
f 22/22/22 20/20/20 21/21/21
f 23/23/23 22/22/22 21/21/21
f 23/23/23 24/24/24 22/22/22
f 14/14/14 25/25/25 13/13/13
f 15/15/15 26/26/26 14/14/14
f 26/26/26 25/25/25 14/14/14
f 17/17/17 13/13/13 27/27/27
f 25/25/25 27/27/27 13/13/13
f 28/28/28 15/15/15 16/16/16
f 18/18/18 29/29/29 16/16/16
f 29/29/29 28/28/28 16/16/16
f 28/28/28 30/30/30 15/15/15
f 30/30/30 26/26/26 15/15/15
f 30/30/30 28/28/28 29/29/29
f 31/31/31 29/29/29 18/18/18
f 20/20/20 31/31/31 18/18/18
f 32/32/32 30/30/30 29/29/29
f 32/32/32 29/29/29 31/31/31
f 30/30/30 33/33/33 26/26/26
f 33/33/33 30/30/30 32/32/32
f 34/34/34 31/31/31 20/20/20
f 22/22/22 34/34/34 20/20/20
f 35/35/35 32/32/32 31/31/31
f 35/35/35 31/31/31 34/34/34
f 26/26/26 36/36/36 25/25/25
f 33/33/33 36/36/36 26/26/26
f 37/37/37 33/33/33 32/32/32
f 37/37/37 32/32/32 35/35/35
f 22/22/22 38/38/38 34/34/34
f 24/24/24 38/38/38 22/22/22
f 33/33/33 39/39/39 36/36/36
f 39/39/39 33/33/33 37/37/37
f 40/40/40 38/38/38 24/24/24
f 41/41/41 40/40/40 24/24/24
f 42/42/42 40/40/40 41/41/41
f 43/43/43 42/42/42 41/41/41
f 44/44/44 42/42/42 43/43/43
f 45/45/45 44/44/44 43/43/43
f 46/46/46 44/44/44 45/45/45
f 47/47/47 46/46/46 45/45/45
f 48/48/48 46/46/46 47/47/47
f 49/49/49 48/48/48 47/47/47
f 48/48/48 49/49/49 50/50/50
f 51/51/51 48/48/48 50/50/50
f 51/51/51 50/50/50 52/52/52
f 53/53/53 51/51/51 52/52/52
f 53/53/53 52/52/52 3/3/3
f 54/54/54 53/53/53 3/3/3
f 54/54/54 3/3/3 1/1/1
f 54/54/54 1/1/1 55/55/55
f 17/17/17 55/55/55 1/1/1
f 54/54/54 56/56/56 53/53/53
f 56/56/56 54/54/54 55/55/55
f 53/53/53 57/57/57 51/51/51
f 56/56/56 57/57/57 53/53/53
f 51/51/51 58/58/58 48/48/48
f 57/57/57 58/58/58 51/51/51
f 48/48/48 59/59/59 46/46/46
f 58/58/58 59/59/59 48/48/48
f 55/55/55 17/17/17 60/60/60
f 60/60/60 17/17/17 27/27/27
f 55/55/55 61/61/61 56/56/56
f 61/61/61 55/55/55 60/60/60
f 57/57/57 56/56/56 62/62/62
f 61/61/61 62/62/62 56/56/56
f 58/58/58 57/57/57 63/63/63
f 63/63/63 57/57/57 62/62/62
f 61/61/61 60/60/60 64/64/64
f 61/61/61 64/64/64 62/62/62
f 60/60/60 27/27/27 65/65/65
f 60/60/60 65/65/65 64/64/64
f 59/59/59 66/66/66 46/46/46
f 46/46/46 66/66/66 44/44/44
f 67/67/67 58/58/58 63/63/63
f 58/58/58 67/67/67 59/59/59
f 27/27/27 68/68/68 65/65/65
f 68/68/68 27/27/27 25/25/25
f 69/69/69 68/68/68 25/25/25
f 36/36/36 69/69/69 25/25/25
f 65/65/65 68/68/68 70/70/70
f 70/70/70 68/68/68 69/69/69
f 36/36/36 71/71/71 69/69/69
f 39/39/39 71/71/71 36/36/36
f 66/66/66 72/72/72 44/44/44
f 44/44/44 72/72/72 42/42/42
f 73/73/73 65/65/65 70/70/70
f 64/64/64 65/65/65 73/73/73
f 71/71/71 74/74/74 69/69/69
f 74/74/74 70/70/70 69/69/69
f 71/71/71 75/75/75 74/74/74
f 75/75/75 70/70/70 74/74/74
f 39/39/39 76/76/76 71/71/71
f 76/76/76 75/75/75 71/71/71
f 76/76/76 77/77/77 75/75/75
f 75/75/75 78/78/78 70/70/70
f 78/78/78 73/73/73 70/70/70
f 77/77/77 78/78/78 75/75/75
f 79/79/79 64/64/64 73/73/73
f 79/79/79 73/73/73 78/78/78
f 76/76/76 39/39/39 80/80/80
f 80/80/80 39/39/39 37/37/37
f 77/77/77 76/76/76 81/81/81
f 81/81/81 76/76/76 80/80/80
f 80/80/80 37/37/37 82/82/82
f 82/82/82 37/37/37 35/35/35
f 64/64/64 79/79/79 83/83/83
f 64/64/64 83/83/83 62/62/62
f 62/62/62 83/83/83 84/84/84
f 63/63/63 62/62/62 84/84/84
f 85/85/85 79/79/79 78/78/78
f 85/85/85 78/78/78 77/77/77
f 79/79/79 86/86/86 83/83/83
f 84/84/84 83/83/83 86/86/86
f 87/87/87 86/86/86 79/79/79
f 85/85/85 87/87/87 79/79/79
f 81/81/81 80/80/80 88/88/88
f 88/88/88 80/80/80 82/82/82
f 89/89/89 81/81/81 88/88/88
f 89/89/89 88/88/88 82/82/82
f 63/63/63 84/84/84 90/90/90
f 67/67/67 63/63/63 90/90/90
f 67/67/67 90/90/90 91/91/91
f 92/92/92 84/84/84 86/86/86
f 92/92/92 86/86/86 87/87/87
f 90/90/90 84/84/84 93/93/93
f 84/84/84 92/92/92 93/93/93
f 91/91/91 90/90/90 93/93/93
f 93/93/93 92/92/92 87/87/87
f 94/94/94 93/93/93 87/87/87
f 94/94/94 91/91/91 93/93/93
f 95/95/95 87/87/87 85/85/85
f 95/95/95 94/94/94 87/87/87
f 96/96/96 81/81/81 89/89/89
f 96/96/96 77/77/77 81/81/81
f 97/97/97 85/85/85 77/77/77
f 97/97/97 95/95/95 85/85/85
f 98/98/98 97/97/97 77/77/77
f 95/95/95 97/97/97 98/98/98
f 96/96/96 98/98/98 77/77/77
f 94/94/94 95/95/95 99/99/99
f 99/99/99 95/95/95 98/98/98
f 100/100/100 98/98/98 96/96/96
f 99/99/99 98/98/98 100/100/100
f 91/91/91 94/94/94 101/101/101
f 101/101/101 94/94/94 99/99/99
f 102/102/102 96/96/96 89/89/89
f 102/102/102 100/100/100 96/96/96
f 103/103/103 102/102/102 89/89/89
f 104/104/104 100/100/100 102/102/102
f 103/103/103 104/104/104 102/102/102
f 105/105/105 103/103/103 89/89/89
f 105/105/105 89/89/89 82/82/82
f 105/105/105 82/82/82 35/35/35
f 106/106/106 105/105/105 35/35/35
f 105/105/105 106/106/106 103/103/103
f 106/106/106 35/35/35 34/34/34
f 106/106/106 107/107/107 103/103/103
f 103/103/103 107/107/107 104/104/104
f 34/34/34 108/108/108 106/106/106
f 108/108/108 107/107/107 106/106/106
f 38/38/38 108/108/108 34/34/34
f 109/109/109 108/108/108 38/38/38
f 108/108/108 109/109/109 107/107/107
f 40/40/40 109/109/109 38/38/38
f 109/109/109 110/110/110 107/107/107
f 107/107/107 110/110/110 104/104/104
f 111/111/111 109/109/109 40/40/40
f 110/110/110 109/109/109 111/111/111
f 42/42/42 111/111/111 40/40/40
f 72/72/72 111/111/111 42/42/42
f 112/112/112 110/110/110 111/111/111
f 104/104/104 110/110/110 112/112/112
f 111/111/111 72/72/72 112/112/112
f 113/113/113 104/104/104 112/112/112
f 100/100/100 104/104/104 113/113/113
f 72/72/72 114/114/114 112/112/112
f 72/72/72 66/66/66 114/114/114
f 115/115/115 100/100/100 113/113/113
f 115/115/115 99/99/99 100/100/100
f 113/113/113 112/112/112 116/116/116
f 113/113/113 116/116/116 115/115/115
f 112/112/112 114/114/114 116/116/116
f 115/115/115 117/117/117 99/99/99
f 116/116/116 117/117/117 115/115/115
f 117/117/117 101/101/101 99/99/99
f 117/117/117 116/116/116 101/101/101
f 116/116/116 118/118/118 101/101/101
f 116/116/116 114/114/114 118/118/118
f 118/118/118 91/91/91 101/101/101
f 66/66/66 119/119/119 114/114/114
f 114/114/114 119/119/119 118/118/118
f 118/118/118 119/119/119 91/91/91
f 119/119/119 66/66/66 59/59/59
f 119/119/119 120/120/120 91/91/91
f 120/120/120 119/119/119 59/59/59
f 120/120/120 67/67/67 91/91/91
f 67/67/67 120/120/120 59/59/59
