g Cliff_Rocks35
v -2.15372 0.3534124 -1.606364
v -2.118678 0.09571896 -1.891614
v -0.4307888 0.1308738 -2.604255
v -0.3995821 0.3441255 -2.244008
v 0.7873664 0.1468798 -3.112586
v -1.251818 0.4101696 -0.6745312
v -2.401371 0.4428643 -1.282584
v -2.431176 0.4238075 -0.347852
v -1.162451 0.3720874 0.5660167
v -2.458774 0.3829431 0.9249238
v 0.7618321 0.3298822 -2.74028
v 1.753102 0.1359173 -3.211606
v -0.1499282 0.3857875 -1.138568
v -1.390383 0.3328756 1.497185
v -2.772511 0.3243473 2.035247
v -1.691454 0.2772466 2.508321
v -3.111543 0.2489648 3.166787
v -3.254093 0.1700671 3.971852
v -1.922523 0.204838 3.436039
v -0.5633199 0.2404314 2.705026
v 1.012263 0.3592982 -1.599118
v 1.695937 0.3069552 -2.872266
v 2.476131 0.1112515 -3.058146
v -0.02934344 0.349145 0.1550298
v -0.3611611 0.2879408 1.83375
v 0.8398863 0.2650858 1.969534
v -0.1589192 0.3231732 0.9629021
v 1.15073 0.3232266 -0.2548187
v 0.9884114 0.2859245 1.231833
v 1.959938 0.261375 1.419935
v 1.100397 0.3050606 0.4808713
v 2.244429 0.2977784 -0.6106619
v 2.122815 0.2704101 0.7909805
v 2.772367 0.1561898 1.068094
v 2.222554 0.2826963 0.09921112
v 2.978094 0.1687028 0.4982224
v 3.252707 -0.1235795 0.925882
v 3.490289 -0.09189167 0.340593
v 3.626839 -0.05537387 -0.3690127
v 3.100413 0.1859331 -0.1835831
v 3.644721 -0.01651676 -1.119253
v 3.119757 0.2065983 -0.9022296
v 3.292968 0.0574947 -2.414924
v 2.816978 0.2520317 -2.16279
v 2.258788 0.2430291 -2.842542
v 2.028988 0.3336726 -1.91569
v -0.05571979 -2.746334 -3.644631
v -2.165565 -0.9915951 -2.409725
v -2.038524 -2.711714 -2.82313
v -0.3042738 -0.9795603 -3.200892
v 1.432114 -2.787831 -4.244833
v -0.3737514 -0.490599 -3.034034
v -2.19027 -0.5376922 -2.270227
v 1.081193 -0.9808413 -3.771537
v 2.617063 -2.83175 -4.401737
v -0.4117897 -0.1696348 -2.854161
v -2.17696 -0.2336195 -2.119265
v 0.8774477 -0.1312095 -3.377963
v 0.9671367 -0.4647033 -3.581078
v 1.901874 -0.1325727 -3.478878
v 2.202061 -0.9974238 -3.900434
v 3.524226 -2.873531 -4.242976
v 2.043821 -0.4698733 -3.693898
v 2.675583 -0.1551201 -3.316541
v 3.051056 -1.015203 -3.730835
v 4.611557 -2.93864 -3.374902
v 2.858603 -0.4880983 -3.525778
v 3.57561 -0.2129096 -2.633026
v 3.950679 -0.308979 -1.276205
v 3.783564 -0.5221512 -2.778027
v 3.993695 -1.029625 -2.920419
v 4.951265 -2.988662 -1.914138
v 4.375828 -1.094886 -1.508735
v 4.949589 -3.008977 -1.103931
v 4.168989 -0.6082019 -1.387562
v 3.931383 -0.3589553 -0.4912668
v 4.348127 -1.109338 -0.698688
v 4.143598 -0.6425411 -0.5845318
v 4.180061 -1.118767 0.09111053
v 4.797154 -3.023353 -0.2955798
v 4.442313 -3.028929 0.4773931
v 3.98317 -0.6738693 0.1897591
v 3.783837 -0.4074053 0.2578512
v 3.883279 -1.137148 0.7902906
v 3.321628 -1.157138 1.464514
v 3.796595 -3.023926 1.23611
v 2.771539 -3.00657 2.001693
v 3.704911 -0.7101215 0.8572782
v 3.522907 -0.4537456 0.8900309
v 3.169088 -0.7442066 1.493749
v 2.358952 -1.171395 2.179446
v 1.333722 -2.971181 2.876589
v 3.013649 -0.4925748 1.486631
v 2.235965 -0.7690346 2.174893
v 0.9871034 -1.171422 3.02069
v -0.5502712 -2.91208 3.963247
v 2.784458 -0.1471711 1.474781
v 2.121117 -0.5184908 2.129014
v 0.8964174 -0.7766529 2.993248
v 2.500618 0.07417614 1.475621
v 0.8324791 -0.5286939 2.914644
v 1.955896 -0.1593994 2.075225
v 1.861703 0.1524768 1.882531
v 0.755937 -0.170266 2.813308
v 0.7355015 0.1454029 2.546014
v -0.8650978 -0.5203845 3.940986
v -0.8586794 -0.75911 4.041352
v -0.730179 0.1060565 3.408296
v -0.8265175 -0.1897723 3.775125
v -2.435415 -0.5069296 4.778226
v -0.802057 -1.14872 4.07385
v -2.299398 -0.2089002 4.574453
v -2.114777 0.06100415 4.163647
v -3.362269 0.06008374 4.750304
v -3.692507 -0.1800629 5.218195
v -3.924315 -0.4641201 5.389612
v -4.035609 -0.6863579 5.481934
v -2.481854 -0.7351391 4.884727
v -4.060714 -1.066328 5.506699
v -2.463134 -1.120368 4.913363
v -2.323851 -2.850474 4.824478
v -4.040413 -2.770455 5.41613
vt 0.2200596 0.718887
vt 0.2145711 0.7253439
vt 0.230998 0.7264559
vt 0.2332807 0.719148
vt 0.2461774 0.7262095
vt 0.2241623 0.7041577
vt 0.2160114 0.7164192
vt 0.2155009 0.7044785
vt 0.2240496 0.6866819
vt 0.2122688 0.6872602
vt 0.2463264 0.71872
vt 0.2588615 0.7232459
vt 0.237841 0.7040227
vt 0.2209187 0.6759273
vt 0.2049389 0.6754013
vt 0.2090968 0.6665964
vt 0.1908258 0.6647213
vt 0.1809659 0.655406
vt 0.1977422 0.6565586
vt 0.2210903 0.6580155
vt 0.2498123 0.7031913
vt 0.2569588 0.7164747
vt 0.2682886 0.7181785
vt 0.2411713 0.6862096
vt 0.2306671 0.6672066
vt 0.2454659 0.6591169
vt 0.2394041 0.6753799
vt 0.2574459 0.6832744
vt 0.2524259 0.6667618
vt 0.2650054 0.6591722
vt 0.2584206 0.6740579
vt 0.2717134 0.6819472
vt 0.2708343 0.6654474
vt 0.2789737 0.6568809
vt 0.2756715 0.6722681
vt 0.2847307 0.6624445
vt 0.2864907 0.6510225
vt 0.2925854 0.6570402
vt 0.2972413 0.6646235
vt 0.2893549 0.6693193
vt 0.294462 0.675864
vt 0.284743 0.6787311
vt 0.2765686 0.7035588
vt 0.2683818 0.7025175
vt 0.2639685 0.7146029
vt 0.2590355 0.7025926
vt 0.2078389 0.7752662
vt 0.198044 0.7442808
vt 0.1749368 0.7678519
vt 0.2205503 0.7510218
vt 0.240741 0.7826805
vt 0.2248613 0.7417401
vt 0.2035633 0.7380407
vt 0.2443655 0.752848
vt 0.2735992 0.7698914
vt 0.2281421 0.7338462
vt 0.2090826 0.7318007
vt 0.2461245 0.7340441
vt 0.2455169 0.7427636
vt 0.2619373 0.7304382
vt 0.2677814 0.7476172
vt 0.3064574 0.7571023
vt 0.2648877 0.7384354
vt 0.2740465 0.7238308
vt 0.2868911 0.7368834
vt 0.3318936 0.7065808
vt 0.2802247 0.7298388
vt 0.2844817 0.7047362
vt 0.3006105 0.6732686
vt 0.2930073 0.7050695
vt 0.3032674 0.7065232
vt 0.3205357 0.6391335
vt 0.3132181 0.6627566
vt 0.3126472 0.6261099
vt 0.3075198 0.6684536
vt 0.3013225 0.6594372
vt 0.3064441 0.6482565
vt 0.3039045 0.6548671
vt 0.3010738 0.6397814
vt 0.3054198 0.6150064
vt 0.2984315 0.6075044
vt 0.2990828 0.6465783
vt 0.2965559 0.6511672
vt 0.294247 0.6327199
vt 0.2830044 0.6272811
vt 0.2869899 0.6018679
vt 0.2698919 0.5987765
vt 0.2923745 0.6395696
vt 0.2900668 0.6443851
vt 0.2813697 0.63426
vt 0.2651475 0.6239262
vt 0.2465791 0.5973017
vt 0.2794919 0.6393842
vt 0.2637439 0.6309848
vt 0.2404857 0.6218425
vt 0.2163205 0.5963586
vt 0.2766267 0.6466864
vt 0.2625327 0.6363444
vt 0.2392212 0.6288416
vt 0.2726032 0.6521652
vt 0.2387776 0.6342444
vt 0.2606812 0.6440194
vt 0.260691 0.6523427
vt 0.2382501 0.6419335
vt 0.2398198 0.6507999
vt 0.2075108 0.6319389
vt 0.2072318 0.6267886
vt 0.2128333 0.6483004
vt 0.2087697 0.6392469
vt 0.1798439 0.6314183
vt 0.2086099 0.6200702
vt 0.1824931 0.6380035
vt 0.1882313 0.6465684
vt 0.1744169 0.6472763
vt 0.1698978 0.6401795
vt 0.1673737 0.6345843
vt 0.1664819 0.6305137
vt 0.17907 0.6267466
vt 0.167788 0.6247206
vt 0.1805836 0.620463
vt 0.1893877 0.5978148
vt 0.1763604 0.603336
vn -0.03868676 0.9858626 -0.1630286
vn -0.2770355 0.7023897 -0.6556677
vn -0.2755926 0.7131668 -0.6445477
vn -0.06324852 0.9811826 -0.1824286
vn -0.1865446 0.758669 -0.6241974
vn 0.0166121 0.9998457 -0.005703503
vn 0.0518466 0.9976687 -0.0443744
vn 0.02716725 0.9995666 0.01133452
vn 0.02485388 0.9990116 0.03685193
vn 0.01850051 0.9988893 0.04333511
vn -0.03648136 0.9859046 -0.1632827
vn 0.01730617 0.7968993 -0.6038641
vn 0.0143941 0.9998615 -0.008357833
vn 0.02181921 0.9982728 0.05454719
vn 0.01588031 0.9979588 0.06185488
vn 0.01808161 0.9974167 0.06951858
vn 0.01594272 0.9964638 0.08249659
vn 0.04654661 0.9881719 0.1461149
vn 0.046367 0.9891075 0.1397016
vn 0.05231016 0.9899874 0.1311054
vn 0.0211913 0.9997724 -0.002460712
vn 0.03155943 0.9873805 -0.1551892
vn 0.278129 0.8483972 -0.4504068
vn 0.03109303 0.999076 0.02967178
vn 0.02049185 0.998451 0.05172703
vn 0.05595293 0.9915084 0.1173904
vn 0.02742842 0.9987488 0.04181615
vn 0.03085801 0.999208 0.02512518
vn 0.02125673 0.999188 0.03422605
vn 0.1048155 0.9869601 0.1221615
vn 0.02746225 0.9991731 0.02998051
vn 0.06661025 0.997561 0.02085891
vn 0.07175538 0.9967079 0.03774041
vn 0.3275801 0.9171737 0.2269001
vn 0.07068699 0.9970455 0.03006004
vn 0.2882217 0.9516236 0.1064932
vn 0.6288253 0.6605409 0.4102004
vn 0.6124084 0.7616442 0.2117878
vn 0.5794873 0.8086953 0.1010274
vn 0.2606829 0.9636708 0.05816384
vn 0.5222939 0.8520206 -0.03563745
vn 0.228843 0.9734489 0.00530758
vn 0.4630086 0.8618484 -0.2069796
vn 0.2117199 0.9752409 -0.06387234
vn 0.1495028 0.9702424 -0.1904693
vn 0.05921957 0.9982089 -0.008492388
vn -0.3744308 0.1771436 -0.9101767
vn -0.3798681 0.1990261 -0.9033763
vn -0.379476 0.1821071 -0.9071026
vn -0.3757518 0.1935264 -0.9062881
vn -0.2375327 0.2067831 -0.9491148
vn -0.3694891 0.3205836 -0.8721834
vn -0.3730573 0.3307072 -0.8668686
vn -0.2691389 0.217084 -0.9383171
vn 0.04339786 0.2727034 -0.9611189
vn -0.3416194 0.5081659 -0.7906096
vn -0.34431 0.5138059 -0.7857825
vn -0.2268106 0.5451229 -0.8070922
vn -0.2499309 0.3561363 -0.9003897
vn 0.03161177 0.6235921 -0.7811104
vn 0.01065633 0.286651 -0.9579758
vn 0.4711109 0.3471951 -0.81087
vn 0.02749583 0.4388165 -0.898156
vn 0.3464881 0.6972877 -0.6274837
vn 0.4400996 0.3645301 -0.8206279
vn 0.8063134 0.3622096 -0.4676141
vn 0.4065885 0.5162165 -0.7537946
vn 0.6179105 0.7083486 -0.3412169
vn 0.7299959 0.6787335 -0.08016674
vn 0.7338725 0.5265372 -0.4291733
vn 0.7987164 0.3804158 -0.4661931
vn 0.9348395 0.3248151 -0.1434229
vn 0.931168 0.3414436 -0.127838
vn 0.9550214 0.2800642 0.09745835
vn 0.8614947 0.4943865 -0.1157969
vn 0.7681248 0.6292595 0.1183924
vn 0.9479407 0.2958005 0.1179423
vn 0.8833633 0.4525541 0.1219185
vn 0.9187683 0.2502796 0.3053276
vn 0.9298775 0.239845 0.2789306
vn 0.8435451 0.167034 0.5104228
vn 0.865801 0.4124528 0.2833219
vn 0.7693962 0.5831737 0.2606488
vn 0.8221432 0.172205 0.5426103
vn 0.6622182 0.0979044 0.7428874
vn 0.6862843 0.08788168 0.7220046
vn 0.560689 0.04465828 0.8268213
vn 0.7893544 0.3385828 0.5121341
vn 0.7213005 0.5021409 0.4770535
vn 0.6376914 0.2671396 0.7224861
vn 0.5498487 0.06354432 0.8328437
vn 0.5127368 0.02826241 0.8580805
vn 0.5988379 0.4085983 0.6887965
vn 0.5311409 0.2473589 0.8103721
vn 0.5108513 0.05080855 0.8581664
vn 0.4792762 0.01283515 0.8775703
vn 0.5630103 0.5028051 0.6559013
vn 0.5089208 0.3624076 0.7808076
vn 0.5008108 0.2435325 0.8305904
vn 0.4173896 0.7578187 0.5014945
vn 0.4853778 0.3507349 0.8008704
vn 0.4790694 0.4589588 0.7482308
vn 0.2981302 0.8288378 0.473441
vn 0.4475864 0.4871505 0.7499005
vn 0.2478775 0.8596851 0.4466526
vn 0.4636267 0.3506905 0.8136747
vn 0.4757721 0.2188263 0.851913
vn 0.2236825 0.8751808 0.428981
vn 0.4175668 0.5243328 0.7421005
vn 0.4096367 0.3211645 0.8538449
vn 0.4751079 0.03329119 0.8792976
vn 0.3722473 0.5577142 0.7418805
vn 0.1803751 0.9053537 0.3844471
vn 0.2080231 0.8672926 0.4522499
vn 0.3707656 0.431756 0.822265
vn 0.3704806 0.2833872 0.884554
vn 0.3583787 0.1201585 0.9258114
vn 0.4055504 0.1663002 0.8988176
vn 0.338929 -0.01665099 0.9406646
vn 0.3928278 0.001030627 0.9196114
vn 0.3974778 -0.01544073 0.9174818
vn 0.3352844 -0.03361806 0.9415169
g Cliff_Rocks35_0
f 3/3/3 2/2/2 1/1/1
f 4/4/4 3/3/3 1/1/1
f 5/5/5 3/3/3 4/4/4
f 1/1/1 6/6/6 4/4/4
f 6/6/6 1/1/1 7/7/7
f 8/8/8 6/6/6 7/7/7
f 6/6/6 8/8/8 9/9/9
f 8/8/8 10/10/10 9/9/9
f 11/11/11 5/5/5 4/4/4
f 12/12/12 5/5/5 11/11/11
f 6/6/6 13/13/13 4/4/4
f 6/6/6 9/9/9 13/13/13
f 9/9/9 10/10/10 14/14/14
f 10/10/10 15/15/15 14/14/14
f 14/14/14 15/15/15 16/16/16
f 15/15/15 17/17/17 16/16/16
f 17/17/17 18/18/18 16/16/16
f 18/18/18 19/19/19 16/16/16
f 19/19/19 20/20/20 16/16/16
f 21/21/21 11/11/11 4/4/4
f 13/13/13 21/21/21 4/4/4
f 22/22/22 12/12/12 11/11/11
f 11/11/11 21/21/21 22/22/22
f 23/23/23 12/12/12 22/22/22
f 9/9/9 24/24/24 13/13/13
f 9/9/9 14/14/14 24/24/24
f 20/20/20 25/25/25 16/16/16
f 20/20/20 26/26/26 25/25/25
f 14/14/14 16/16/16 27/27/27
f 14/14/14 27/27/27 24/24/24
f 16/16/16 25/25/25 27/27/27
f 24/24/24 28/28/28 13/13/13
f 24/24/24 27/27/27 28/28/28
f 28/28/28 21/21/21 13/13/13
f 26/26/26 29/29/29 25/25/25
f 26/26/26 30/30/30 29/29/29
f 27/27/27 25/25/25 31/31/31
f 27/27/27 31/31/31 28/28/28
f 25/25/25 29/29/29 31/31/31
f 21/21/21 28/28/28 32/32/32
f 32/32/32 28/28/28 31/31/31
f 30/30/30 33/33/33 29/29/29
f 30/30/30 34/34/34 33/33/33
f 35/35/35 31/31/31 29/29/29
f 35/35/35 32/32/32 31/31/31
f 33/33/33 35/35/35 29/29/29
f 34/34/34 36/36/36 33/33/33
f 34/34/34 37/37/37 36/36/36
f 37/37/37 38/38/38 36/36/36
f 36/36/36 38/38/38 39/39/39
f 36/36/36 40/40/40 33/33/33
f 40/40/40 36/36/36 39/39/39
f 40/40/40 35/35/35 33/33/33
f 40/40/40 39/39/39 41/41/41
f 40/40/40 42/42/42 35/35/35
f 42/42/42 40/40/40 41/41/41
f 42/42/42 32/32/32 35/35/35
f 42/42/42 41/41/41 43/43/43
f 44/44/44 42/42/42 43/43/43
f 42/42/42 44/44/44 32/32/32
f 44/44/44 43/43/43 23/23/23
f 45/45/45 44/44/44 23/23/23
f 45/45/45 23/23/23 22/22/22
f 44/44/44 45/45/45 22/22/22
f 44/44/44 46/46/46 32/32/32
f 46/46/46 44/44/44 22/22/22
f 46/46/46 21/21/21 32/32/32
f 21/21/21 46/46/46 22/22/22
g Cliff_Rocks35_1
f 49/49/49 48/48/48 47/47/47
f 48/48/48 50/50/50 47/47/47
f 47/47/47 50/50/50 51/51/51
f 52/52/52 50/50/50 48/48/48
f 53/53/53 52/52/52 48/48/48
f 50/50/50 54/54/54 51/51/51
f 51/51/51 54/54/54 55/55/55
f 56/56/56 52/52/52 53/53/53
f 57/57/57 56/56/56 53/53/53
f 56/56/56 57/57/57 2/2/2
f 3/3/3 56/56/56 2/2/2
f 58/58/58 56/56/56 3/3/3
f 56/56/56 58/58/58 52/52/52
f 5/5/5 58/58/58 3/3/3
f 52/52/52 59/59/59 50/50/50
f 58/58/58 59/59/59 52/52/52
f 59/59/59 54/54/54 50/50/50
f 60/60/60 58/58/58 5/5/5
f 58/58/58 60/60/60 59/59/59
f 12/12/12 60/60/60 5/5/5
f 54/54/54 61/61/61 55/55/55
f 55/55/55 61/61/61 62/62/62
f 59/59/59 63/63/63 54/54/54
f 60/60/60 63/63/63 59/59/59
f 63/63/63 61/61/61 54/54/54
f 64/64/64 60/60/60 12/12/12
f 60/60/60 64/64/64 63/63/63
f 23/23/23 64/64/64 12/12/12
f 61/61/61 65/65/65 62/62/62
f 62/62/62 65/65/65 66/66/66
f 63/63/63 67/67/67 61/61/61
f 64/64/64 67/67/67 63/63/63
f 67/67/67 65/65/65 61/61/61
f 68/68/68 64/64/64 23/23/23
f 64/64/64 68/68/68 67/67/67
f 43/43/43 68/68/68 23/23/23
f 69/69/69 68/68/68 43/43/43
f 41/41/41 69/69/69 43/43/43
f 41/41/41 39/39/39 69/69/69
f 68/68/68 70/70/70 67/67/67
f 67/67/67 70/70/70 65/65/65
f 68/68/68 69/69/69 70/70/70
f 65/65/65 71/71/71 66/66/66
f 70/70/70 71/71/71 65/65/65
f 66/66/66 71/71/71 72/72/72
f 71/71/71 73/73/73 72/72/72
f 71/71/71 70/70/70 73/73/73
f 72/72/72 73/73/73 74/74/74
f 70/70/70 75/75/75 73/73/73
f 69/69/69 75/75/75 70/70/70
f 39/39/39 76/76/76 69/69/69
f 39/39/39 38/38/38 76/76/76
f 73/73/73 77/77/77 74/74/74
f 73/73/73 75/75/75 77/77/77
f 75/75/75 69/69/69 78/78/78
f 75/75/75 78/78/78 77/77/77
f 69/69/69 76/76/76 78/78/78
f 74/74/74 77/77/77 79/79/79
f 77/77/77 78/78/78 79/79/79
f 80/80/80 74/74/74 79/79/79
f 80/80/80 79/79/79 81/81/81
f 78/78/78 76/76/76 82/82/82
f 78/78/78 82/82/82 79/79/79
f 38/38/38 83/83/83 76/76/76
f 76/76/76 83/83/83 82/82/82
f 79/79/79 84/84/84 81/81/81
f 79/79/79 82/82/82 84/84/84
f 81/81/81 84/84/84 85/85/85
f 86/86/86 81/81/81 85/85/85
f 86/86/86 85/85/85 87/87/87
f 82/82/82 88/88/88 84/84/84
f 82/82/82 83/83/83 88/88/88
f 84/84/84 88/88/88 85/85/85
f 89/89/89 83/83/83 38/38/38
f 83/83/83 89/89/89 88/88/88
f 37/37/37 89/89/89 38/38/38
f 88/88/88 89/89/89 90/90/90
f 88/88/88 90/90/90 85/85/85
f 85/85/85 91/91/91 87/87/87
f 87/87/87 91/91/91 92/92/92
f 93/93/93 89/89/89 37/37/37
f 89/89/89 93/93/93 90/90/90
f 85/85/85 90/90/90 94/94/94
f 91/91/91 85/85/85 94/94/94
f 91/91/91 95/95/95 92/92/92
f 92/92/92 95/95/95 96/96/96
f 97/97/97 93/93/93 37/37/37
f 97/97/97 37/37/37 34/34/34
f 90/90/90 93/93/93 98/98/98
f 94/94/94 90/90/90 98/98/98
f 93/93/93 97/97/97 98/98/98
f 91/91/91 94/94/94 99/99/99
f 95/95/95 91/91/91 99/99/99
f 100/100/100 97/97/97 34/34/34
f 100/100/100 34/34/34 30/30/30
f 94/94/94 98/98/98 101/101/101
f 99/99/99 94/94/94 101/101/101
f 97/97/97 102/102/102 98/98/98
f 97/97/97 100/100/100 102/102/102
f 98/98/98 102/102/102 101/101/101
f 103/103/103 100/100/100 30/30/30
f 100/100/100 103/103/103 102/102/102
f 103/103/103 30/30/30 26/26/26
f 102/102/102 104/104/104 101/101/101
f 102/102/102 103/103/103 104/104/104
f 105/105/105 103/103/103 26/26/26
f 103/103/103 105/105/105 104/104/104
f 105/105/105 26/26/26 20/20/20
f 99/99/99 101/101/101 106/106/106
f 101/101/101 104/104/104 106/106/106
f 95/95/95 99/99/99 107/107/107
f 107/107/107 99/99/99 106/106/106
f 108/108/108 105/105/105 20/20/20
f 108/108/108 20/20/20 19/19/19
f 104/104/104 105/105/105 109/109/109
f 104/104/104 109/109/109 106/106/106
f 105/105/105 108/108/108 109/109/109
f 106/106/106 109/109/109 110/110/110
f 107/107/107 106/106/106 110/110/110
f 111/111/111 95/95/95 107/107/107
f 95/95/95 111/111/111 96/96/96
f 109/109/109 108/108/108 112/112/112
f 109/109/109 112/112/112 110/110/110
f 113/113/113 108/108/108 19/19/19
f 108/108/108 113/113/113 112/112/112
f 114/114/114 113/113/113 19/19/19
f 18/18/18 114/114/114 19/19/19
f 114/114/114 115/115/115 113/113/113
f 115/115/115 112/112/112 113/113/113
f 115/115/115 116/116/116 112/112/112
f 116/116/116 110/110/110 112/112/112
f 116/116/116 117/117/117 110/110/110
f 118/118/118 107/107/107 110/110/110
f 117/117/117 118/118/118 110/110/110
f 111/111/111 107/107/107 118/118/118
f 117/117/117 119/119/119 118/118/118
f 120/120/120 111/111/111 118/118/118
f 119/119/119 120/120/120 118/118/118
f 96/96/96 111/111/111 120/120/120
f 121/121/121 96/96/96 120/120/120
f 121/121/121 120/120/120 119/119/119
f 122/122/122 121/121/121 119/119/119
