g Cliff_Rocks10
v 3.781072 0.7489638 1.00145
v 3.649355 0.2621127 1.922921
v 1.374507 0.2494026 1.980984
v 1.492162 0.8571388 1.055194
v 3.971186 0.8587669 0.126243
v -0.1642976 0.287381 2.054053
v 1.658898 0.9884126 0.07495713
v -0.07271224 0.8726628 0.9721127
v 1.818358 0.8986986 -0.7063371
v 4.1479 0.76895 -0.6242297
v 4.313461 0.5346571 -1.303517
v 2.082628 0.6010222 -1.383692
v 4.475995 -0.03081008 -1.743836
v 2.3598 0.05064347 -1.974966
v 0.1995125 0.821649 -0.7098343
v 0.2714156 0.643054 -1.347703
v 0.6071733 0.08917771 -2.076577
v -1.154696 0.6422972 -1.347833
v -0.6955681 -0.01861861 -2.118287
v -1.462117 -0.3761566 -2.169711
v 0.05871873 0.9304686 0.1048062
v -1.735438 0.2288119 -1.406885
v -1.761693 -0.8237881 -2.231728
v -2.088487 -0.4775087 -1.607745
v -2.364861 -0.3699893 -0.794402
v -1.395507 0.7390453 -0.6868518
v -1.901617 0.2937132 -0.6666961
v -2.34454 -0.4370172 0.0766739
v -2.012787 0.2451237 0.04488595
v -2.288726 -0.6024094 1.056983
v -1.489681 0.6642122 0.09684876
v -1.408663 0.4431523 1.059178
v -1.28803 -0.02580413 1.882099
v -1.707856 -0.2871085 1.634676
v -2.013952 -0.02937408 1.074091
v -2.044042 -1.201863 -2.305216
v -2.356941 -1.156024 -1.681314
v -2.249827 -1.834719 -2.363925
v -2.506578 -1.853019 -1.721097
v -2.548683 -3.014896 -2.390429
v -2.686085 -1.066305 -0.8839207
v -2.522908 -3.09296 -1.795182
v -2.635711 -4.671443 -2.275756
v -2.545829 -4.833395 -1.899173
v -2.646842 -1.159985 0.01364389
v -2.778979 -1.836713 -0.9572296
v -2.651542 -3.099304 -0.9999139
v -2.597739 -4.871533 -1.059828
v -2.780994 -1.902483 -0.05182754
v -2.714192 -3.107316 -0.03815413
v -2.745501 -4.798471 -0.01896148
v -2.5003 -1.895136 1.087449
v -2.498544 -3.124926 1.095896
v -2.496078 -4.77133 1.107752
v -2.436437 -1.26932 1.083813
v -2.167168 -2.994022 1.973489
v -2.251998 -4.195683 2.072468
v -1.933993 -0.6832873 1.728072
v -2.106732 -2.13792 1.902973
v -2.058513 -1.403496 1.834187
v -1.418507 -2.991973 2.37523
v -1.449185 -4.164522 2.532659
v -1.365697 -0.77505 2.037879
v -1.396652 -2.156611 2.263073
v -0.1190626 -2.96045 2.509685
v -0.1129564 -4.133029 2.630222
v -1.41336 -1.459781 2.172419
v -0.1507707 -0.802138 2.179787
v -0.1234132 -2.125067 2.423811
v -0.1562807 -1.457902 2.325248
v 1.529863 -2.944413 2.438384
v 1.552767 -4.119775 2.522279
v 1.513545 -2.107048 2.378615
v 3.884071 -2.92959 2.30415
v 3.893415 -4.107524 2.431748
v 3.877413 -2.090393 2.213245
v 1.475368 -1.443389 2.315247
v 3.843471 -1.429975 2.13717
v 1.441439 -0.7913492 2.204315
v 3.763949 -0.781377 2.017587
vt 0.2475965 0.73763
vt 0.2509774 0.7217176
vt 0.2427291 0.7186115
vt 0.2398873 0.736553
vt 0.2441871 0.7506732
vt 0.2333601 0.7158275
vt 0.2359979 0.748327
vt 0.2307841 0.7350759
vt 0.2327756 0.7608391
vt 0.2418456 0.7620339
vt 0.24043 0.7735416
vt 0.2305606 0.7726099
vt 0.2379146 0.7810092
vt 0.2275163 0.7796338
vt 0.2223608 0.759481
vt 0.2187373 0.7681639
vt 0.2163778 0.7777182
vt 0.1971247 0.7619331
vt 0.1981113 0.7736893
vt 0.1892499 0.7651986
vt 0.2259679 0.7459773
vt 0.1875132 0.7572787
vt 0.1773488 0.7713212
vt 0.1739417 0.7549419
vt 0.1741568 0.7412834
vt 0.1958341 0.7520354
vt 0.1884761 0.7454631
vt 0.1777357 0.7253808
vt 0.1920221 0.7343348
vt 0.1876706 0.7101104
vt 0.1995796 0.7403075
vt 0.2091754 0.7267399
vt 0.2160048 0.7106917
vt 0.2061613 0.7084655
vt 0.1976669 0.7186061
vt 0.1640201 0.7671921
vt 0.1625521 0.7510539
vt 0.1503515 0.7629576
vt 0.150872 0.7470667
vt 0.1369039 0.7691969
vt 0.1643033 0.7345549
vt 0.1342374 0.7445375
vt 0.1180281 0.7779548
vt 0.1108883 0.7409875
vt 0.1702991 0.7171336
vt 0.1541986 0.7276549
vt 0.1367678 0.7116127
vt 0.1123011 0.6890952
vt 0.1626727 0.7086762
vt 0.1460456 0.688584
vt 0.122707 0.6603819
vt 0.1780851 0.6958178
vt 0.1692349 0.6763395
vt 0.1568125 0.648999
vt 0.1829382 0.7030541
vt 0.1925994 0.6634479
vt 0.1924233 0.6332806
vt 0.1993501 0.701579
vt 0.192725 0.6849399
vt 0.1960792 0.6933642
vt 0.2187678 0.6585476
vt 0.2213497 0.6291661
vt 0.2157753 0.6944274
vt 0.2169284 0.67948
vt 0.251466 0.6671088
vt 0.2571741 0.6406993
vt 0.2163446 0.6870478
vt 0.2396172 0.6987237
vt 0.2473993 0.6859237
vt 0.2434593 0.6924043
vt 0.2661779 0.6761471
vt 0.2723412 0.6523738
vt 0.261787 0.693084
vt 0.2797757 0.6845011
vt 0.2863597 0.6631643
vt 0.2750851 0.699702
vt 0.2571006 0.6992065
vt 0.269709 0.7054935
vt 0.2525309 0.7051766
vt 0.2644666 0.7111408
vn 0.0421665 0.9453767 0.3232411
vn 0.04520382 0.5665339 0.8227977
vn 0.03252575 0.5652513 0.8242773
vn 0.02299003 0.9380774 0.3456622
vn 0.05536368 0.998379 0.01319883
vn -0.09362955 0.5999932 0.7945072
vn 0.01970304 0.9997024 0.01438126
vn -0.1151522 0.940859 0.3186288
vn 0.02039869 0.9742544 -0.224527
vn 0.05574116 0.9690993 -0.24029
vn 0.0668989 0.8175315 -0.5719851
vn 0.04126047 0.8499583 -0.5252318
vn 0.0749251 0.692693 -0.7173302
vn 0.05730647 0.7252621 -0.6860836
vn -0.04872514 0.9825853 -0.1793098
vn -0.008876258 0.8708897 -0.4913985
vn 0.0104188 0.772819 -0.634541
vn -0.1780333 0.862458 -0.473783
vn -0.1179684 0.741154 -0.660889
vn -0.4673802 0.5863884 -0.6615922
vn -0.09499162 0.99516 0.02516005
vn -0.5800594 0.6494127 -0.4917258
vn -0.6799492 0.4719911 -0.5611538
vn -0.7569738 0.4775902 -0.4459801
vn -0.8699942 0.4700995 -0.1487164
vn -0.2629575 0.9567769 -0.1242234
vn -0.7491054 0.6468716 -0.1428228
vn -0.9090806 0.4066469 0.09061287
vn -0.768553 0.6337878 0.0874029
vn -0.9062346 0.3324418 0.2611922
vn -0.3368087 0.938219 0.07940535
vn -0.3672781 0.8709858 0.3263289
vn -0.3065681 0.5720183 0.7607963
vn -0.5919455 0.5039656 0.6289826
vn -0.7496238 0.5947827 0.2903405
vn -0.8122628 0.3583252 -0.4602522
vn -0.8565031 0.3187963 -0.4059204
vn -0.9448839 0.188978 -0.2673609
vn -0.9540017 0.1055635 -0.280601
vn -0.9956708 0.08736677 -0.03173024
vn -0.9441791 0.2925962 -0.1513713
vn -0.9942077 0.02257754 -0.1050768
vn -0.9914955 0.0324875 0.1260214
vn -0.9993154 0.007748834 -0.03617735
vn -0.9622054 0.2415267 0.1258003
vn -0.9886957 0.02928262 -0.1470484
vn -0.9924637 -0.02530463 -0.1198979
vn -0.9942562 -0.004471372 -0.1069323
vn -0.9939325 0.01612121 0.108803
vn -0.9970102 -0.01873376 0.07496342
vn -0.9985709 0.00279861 0.05336836
vn -0.9522941 0.04527669 0.3018045
vn -0.9664304 0.01376884 0.2565594
vn -0.973347 0.01956489 0.2285014
vn -0.9301523 0.1895498 0.314464
vn -0.7916138 0.07837154 0.605975
vn -0.8434639 0.07217947 0.5323145
vn -0.6781281 0.2735142 0.6821527
vn -0.7513554 0.08656507 0.6541953
vn -0.7061887 0.1574268 0.6903002
vn -0.254455 0.120037 0.959606
vn -0.2565041 0.1202669 0.9590316
vn -0.2390483 0.2008439 0.9500093
vn -0.2516984 0.122041 0.9600801
vn -0.01929743 0.1011716 0.9946818
vn -0.01090931 0.1013496 0.994791
vn -0.2495271 0.1640985 0.9543625
vn -0.05036359 0.1763196 0.9830437
vn -0.03751041 0.1122809 0.9929683
vn -0.0512127 0.1623855 0.9853975
vn 0.05019361 0.08891417 0.9947738
vn 0.0495357 0.08890915 0.9948072
vn 0.05017926 0.09989828 0.9937316
vn 0.05356302 0.09010964 0.9944905
vn 0.04710761 0.09005099 0.9948225
vn 0.06635777 0.0981271 0.992959
vn 0.04544698 0.1494988 0.987717
vn 0.07326782 0.1425558 0.9870713
vn 0.03920612 0.1686915 0.9848889
vn 0.06170881 0.1657247 0.9842395
g Cliff_Rocks10_0
f 3/3/3 2/2/2 1/1/1
f 4/4/4 3/3/3 1/1/1
f 4/4/4 1/1/1 5/5/5
f 6/6/6 3/3/3 4/4/4
f 7/7/7 4/4/4 5/5/5
f 8/8/8 6/6/6 4/4/4
f 8/8/8 4/4/4 7/7/7
f 7/7/7 5/5/5 9/9/9
f 5/5/5 10/10/10 9/9/9
f 9/9/9 10/10/10 11/11/11
f 12/12/12 9/9/9 11/11/11
f 12/12/12 11/11/11 13/13/13
f 14/14/14 12/12/12 13/13/13
f 7/7/7 9/9/9 15/15/15
f 15/15/15 9/9/9 12/12/12
f 16/16/16 12/12/12 14/14/14
f 16/16/16 15/15/15 12/12/12
f 17/17/17 16/16/16 14/14/14
f 18/18/18 16/16/16 17/17/17
f 15/15/15 16/16/16 18/18/18
f 19/19/19 18/18/18 17/17/17
f 18/18/18 19/19/19 20/20/20
f 21/21/21 7/7/7 15/15/15
f 21/21/21 8/8/8 7/7/7
f 22/22/22 18/18/18 20/20/20
f 22/22/22 20/20/20 23/23/23
f 24/24/24 22/22/22 23/23/23
f 24/24/24 25/25/25 22/22/22
f 26/26/26 15/15/15 18/18/18
f 21/21/21 15/15/15 26/26/26
f 26/26/26 18/18/18 22/22/22
f 25/25/25 27/27/27 22/22/22
f 27/27/27 26/26/26 22/22/22
f 25/25/25 28/28/28 27/27/27
f 28/28/28 29/29/29 27/27/27
f 27/27/27 29/29/29 26/26/26
f 29/29/29 28/28/28 30/30/30
f 31/31/31 21/21/21 26/26/26
f 8/8/8 21/21/21 31/31/31
f 29/29/29 31/31/31 26/26/26
f 32/32/32 8/8/8 31/31/31
f 32/32/32 31/31/31 29/29/29
f 6/6/6 8/8/8 32/32/32
f 33/33/33 6/6/6 32/32/32
f 34/34/34 33/33/33 32/32/32
f 35/35/35 29/29/29 30/30/30
f 35/35/35 32/32/32 29/29/29
f 35/35/35 34/34/34 32/32/32
f 30/30/30 34/34/34 35/35/35
g Cliff_Rocks10_1
f 24/24/24 23/23/23 36/36/36
f 37/37/37 24/24/24 36/36/36
f 37/37/37 36/36/36 38/38/38
f 24/24/24 37/37/37 25/25/25
f 39/39/39 37/37/37 38/38/38
f 38/38/38 40/40/40 39/39/39
f 37/37/37 41/41/41 25/25/25
f 37/37/37 39/39/39 41/41/41
f 25/25/25 41/41/41 28/28/28
f 40/40/40 42/42/42 39/39/39
f 40/40/40 43/43/43 42/42/42
f 43/43/43 44/44/44 42/42/42
f 41/41/41 45/45/45 28/28/28
f 30/30/30 28/28/28 45/45/45
f 39/39/39 46/46/46 41/41/41
f 39/39/39 42/42/42 46/46/46
f 41/41/41 46/46/46 45/45/45
f 42/42/42 44/44/44 47/47/47
f 42/42/42 47/47/47 46/46/46
f 44/44/44 48/48/48 47/47/47
f 46/46/46 47/47/47 49/49/49
f 46/46/46 49/49/49 45/45/45
f 47/47/47 48/48/48 50/50/50
f 47/47/47 50/50/50 49/49/49
f 48/48/48 51/51/51 50/50/50
f 45/45/45 49/49/49 52/52/52
f 49/49/49 50/50/50 52/52/52
f 50/50/50 51/51/51 53/53/53
f 50/50/50 53/53/53 52/52/52
f 51/51/51 54/54/54 53/53/53
f 55/55/55 30/30/30 45/45/45
f 55/55/55 45/45/45 52/52/52
f 53/53/53 54/54/54 56/56/56
f 54/54/54 57/57/57 56/56/56
f 30/30/30 55/55/55 58/58/58
f 30/30/30 58/58/58 34/34/34
f 34/34/34 58/58/58 33/33/33
f 52/52/52 53/53/53 59/59/59
f 53/53/53 56/56/56 59/59/59
f 55/55/55 52/52/52 60/60/60
f 55/55/55 60/60/60 58/58/58
f 52/52/52 59/59/59 60/60/60
f 56/56/56 57/57/57 61/61/61
f 57/57/57 62/62/62 61/61/61
f 58/58/58 63/63/63 33/33/33
f 58/58/58 60/60/60 63/63/63
f 59/59/59 56/56/56 64/64/64
f 56/56/56 61/61/61 64/64/64
f 61/61/61 62/62/62 65/65/65
f 61/61/61 65/65/65 64/64/64
f 62/62/62 66/66/66 65/65/65
f 60/60/60 59/59/59 67/67/67
f 59/59/59 64/64/64 67/67/67
f 60/60/60 67/67/67 63/63/63
f 63/63/63 68/68/68 33/33/33
f 68/68/68 6/6/6 33/33/33
f 6/6/6 68/68/68 3/3/3
f 64/64/64 69/69/69 67/67/67
f 65/65/65 69/69/69 64/64/64
f 67/67/67 70/70/70 63/63/63
f 69/69/69 70/70/70 67/67/67
f 70/70/70 68/68/68 63/63/63
f 65/65/65 66/66/66 71/71/71
f 66/66/66 72/72/72 71/71/71
f 69/69/69 65/65/65 73/73/73
f 69/69/69 73/73/73 70/70/70
f 65/65/65 71/71/71 73/73/73
f 71/71/71 72/72/72 74/74/74
f 72/72/72 75/75/75 74/74/74
f 71/71/71 74/74/74 76/76/76
f 73/73/73 71/71/71 76/76/76
f 73/73/73 77/77/77 70/70/70
f 73/73/73 76/76/76 77/77/77
f 70/70/70 77/77/77 68/68/68
f 76/76/76 78/78/78 77/77/77
f 77/77/77 79/79/79 68/68/68
f 77/77/77 78/78/78 79/79/79
f 68/68/68 79/79/79 3/3/3
f 78/78/78 80/80/80 79/79/79
f 3/3/3 79/79/79 2/2/2
f 79/79/79 80/80/80 2/2/2
