g Cliff_Rocks15
v -5.08095 3.305358 -2.3923662
v -3.3166845 3.0876927 -3.4726284
v -2.876768 3.8813772 -2.926298
v -4.4352303 3.882083 -2.0759256
v -4.9124374 3.88233 -1.3644938
v -2.7127275 4.321037 -1.5802922
v 2.7115428 4.6955967 -2.0629117
v 2.836355 3.8795493 -3.4333072
v 2.6244628 4.8795896 -0.8357157
v -2.59045 4.937059 -0.3707426
v 2.5280266 4.6948295 0.53248733
v -5.589264 3.2804492 -1.3767387
v -5.2180505 2.7832658 -2.549893
v -5.773714 2.7942107 -1.4982573
v -6.238341 3.1482427 0.11454305
v -6.448543 2.7190206 0.058908284
v -5.5196123 3.9768374 0.019916588
v -5.8218956 2.8047616 1.5352851
v -6.07103 2.4458878 1.5441865
v -5.5865207 2.1986709 3.3108444
v -5.311186 2.7365267 3.2609932
v -4.8460374 3.879836 1.5092427
v -4.172718 3.8075924 2.2353292
v -1.7868817 3.6804159 1.8874507
v -2.4682071 4.75183 1.0339937
v 3.3808062 3.4894977 2.0167377
v -5.9156384 -4.549095 3.1142135
v -6.3952656 -4.4365425 1.134587
v -6.895007 -4.4189725 -0.36176068
v -6.1660037 -4.594269 -2.0359905
v -5.6939597 -4.727346 -3.2341788
vt 0.17476949 0.8100201
vt 0.1673777 0.8406981
vt 0.18890335 0.843166
vt 0.19275683 0.8220093
vt 0.20334801 0.811623
vt 0.20830853 0.8388901
vt 0.2279977 0.90019536
vt 0.20968571 0.9080573
vt 0.24416193 0.8937047
vt 0.22523227 0.83476317
vt 0.26218635 0.8864757
vt 0.18756436 0.7940469
vt 0.16427568 0.8039949
vt 0.17993635 0.7865666
vt 0.21208252 0.7821303
vt 0.21045913 0.77294075
vt 0.22012773 0.80304456
vt 0.23902988 0.7722027
vt 0.24038397 0.76455945
vt 0.2751677 0.7667421
vt 0.26957303 0.77695733
vt 0.2392827 0.7967748
vt 0.26316172 0.7962111
vt 0.26605004 0.82460946
vt 0.24488011 0.8297429
vt 0.28326625 0.87823373
vt 0.30195552 0.7120768
vt 0.24429992 0.70049715
vt 0.1946468 0.70133626
vt 0.13554679 0.7275141
vt 0.09592326 0.76483107
vn -0.71412617 0.40350637 -0.57201964
vn -0.44265234 0.5393766 -0.71633214
vn -0.020934898 0.9946759 -0.100903794
vn -0.048479807 0.9941472 -0.096545115
vn -0.009478589 0.9995672 0.02784967
vn 0.086068474 0.9948999 0.05259679
vn 0.11103737 0.99149233 0.06792424
vn 0.098271616 0.99154305 -0.08476456
vn 0.12853362 0.9893271 0.068636775
vn 0.0843331 0.9931766 0.08054812
vn 0.1316325 0.98938924 0.061496016
vn -0.88244045 0.34070414 -0.32437548
vn -0.7574134 0.28179964 -0.5889939
vn -0.91246307 0.22692136 -0.34046715
vn -0.90954864 0.38019198 -0.16785504
vn -0.9502451 0.22878875 -0.2114001
vn -0.021914635 0.99588674 0.087917216
vn -0.87507236 0.48396805 0.0048288675
vn -0.9705364 0.23750852 -0.040606275
vn -0.9409824 0.26017788 0.21647073
vn -0.7930064 0.5672352 0.2222274
vn -0.060929846 0.9934923 0.09623125
vn -0.11559418 0.99021506 0.07818068
vn 0.012344212 0.9988607 0.04609746
vn 0.050820045 0.9954659 0.08040504
vn 0.13178249 0.98916465 0.06470414
vn -0.977477 0.053367667 0.20418239
vn -0.9967049 0.052544452 -0.061793126
vn -0.9740767 0.061409798 -0.21772356
vn -0.9378012 0.07566324 -0.3388274
vn -0.7673295 0.12150714 -0.62963593
g Cliff_Rocks15_0
f 3/3/3 2/2/2 1/1/1
f 4/4/4 3/3/3 1/1/1
f 5/5/5 4/4/4 1/1/1
f 6/6/6 3/3/3 4/4/4
f 5/5/5 6/6/6 4/4/4
f 6/6/6 7/7/7 3/3/3
f 7/7/7 8/8/8 3/3/3
f 9/9/9 7/7/7 6/6/6
f 10/10/10 9/9/9 6/6/6
f 10/10/10 6/6/6 5/5/5
f 11/11/11 9/9/9 10/10/10
f 12/12/12 5/5/5 1/1/1
f 12/12/12 1/1/1 13/13/13
f 14/14/14 12/12/12 13/13/13
f 12/12/12 14/14/14 15/15/15
f 12/12/12 15/15/15 5/5/5
f 14/14/14 16/16/16 15/15/15
f 15/15/15 17/17/17 5/5/5
f 17/17/17 10/10/10 5/5/5
f 15/15/15 16/16/16 18/18/18
f 15/15/15 18/18/18 17/17/17
f 16/16/16 19/19/19 18/18/18
f 18/18/18 19/19/19 20/20/20
f 21/21/21 18/18/18 20/20/20
f 18/18/18 22/22/22 17/17/17
f 22/22/22 18/18/18 21/21/21
f 17/17/17 22/22/22 10/10/10
f 23/23/23 22/22/22 21/21/21
f 23/23/23 24/24/24 22/22/22
f 22/22/22 25/25/25 10/10/10
f 24/24/24 25/25/25 22/22/22
f 25/25/25 11/11/11 10/10/10
f 24/24/24 26/26/26 25/25/25
f 26/26/26 11/11/11 25/25/25
g Cliff_Rocks15_1
f 28/28/28 27/27/27 20/20/20
f 19/19/19 28/28/28 20/20/20
f 29/29/29 28/28/28 19/19/19
f 16/16/16 29/29/29 19/19/19
f 30/30/30 29/29/29 16/16/16
f 14/14/14 30/30/30 16/16/16
f 31/31/31 30/30/30 14/14/14
f 13/13/13 31/31/31 14/14/14
