g Cliff_Rocks4
v 0.015798526 0.40239537 -0.9427702
v 0.69448423 0.3402988 -1.0737956
v 0.7181515 0.50050724 -1.0237541
v 0.038771167 0.599545 -0.89845806
v -0.50606763 0.44657215 -0.7043059
v 0.7490643 0.5772568 -0.9878197
v -0.43153608 0.6612544 -0.674019
v -0.54648155 0.4487122 -0.41743702
v 0.07399578 0.657277 -0.86233807
v 0.7494551 0.6848993 -0.9527897
v -0.17273617 0.7342683 -0.8101567
v 0.79988277 0.67264587 -0.6679338
v -0.52713484 0.60926944 -0.42897633
v -0.66656035 0.4445715 -0.10636279
v -0.3511512 0.7404235 -0.6521538
v -0.11143375 0.805304 -0.4966997
v 0.86199826 0.65744954 -0.31314746
v -0.603897 0.58975667 -0.100370355
v -0.6198574 0.43158647 0.20654064
v -0.4222801 0.7015333 -0.41734546
v -0.25677752 0.77576905 -0.6318859
v -0.3108842 0.7834418 -0.40440845
v -0.50772697 0.76913315 -0.096751586
v -0.12071224 0.83988476 -0.21098988
v -0.5518978 0.58178806 0.21436718
v -0.46003887 0.40815616 0.60554576
v -0.3351813 0.83775496 -0.11967089
v -0.4492361 0.74280554 0.21239147
v -0.41364703 0.58207834 0.6055171
v -0.1628461 0.3715198 0.9123219
v -0.03193554 0.8223068 0.13644177
v 0.9215312 0.64287186 0.02739392
v 0.98740476 0.6281106 0.35143137
v -0.27995273 0.83789206 0.20882824
v 0.056443054 0.7566644 0.4659742
v 1.0404216 0.61546993 0.64150405
v -0.31179652 0.7338742 0.5819325
v -0.11665172 0.5298514 0.8598323
v 0.31722277 0.32451937 0.93826365
v -0.17650104 0.7883475 0.5730683
v -0.07060391 0.58682144 0.8222371
v 0.081127204 0.66764 0.8141505
v 1.0485675 0.50261825 0.69036514
v -0.033281136 0.6937591 0.7122841
v 0.34436968 0.58067393 0.83157116
v 0.32608217 0.5127094 0.86685073
v 1.0220721 0.25943932 0.824922
v 1.0264121 0.42052507 0.7404872
v 0.22284847 -0.9737632 1.0931575
v 0.99779356 -0.22748181 0.87794566
v 0.932565 -1.0386914 0.95586437
v 0.28771937 -0.15986371 0.98490006
v -0.33327073 -0.91850936 1.0319551
v -0.22112957 -0.10820509 0.9574922
v -0.5846929 -0.06451765 0.629546
v -0.749715 -0.8686018 0.6571974
v -0.88592255 -0.84327316 0.18742381
v -0.7266072 -0.040971197 0.2144215
v -0.9285954 -0.8305818 -0.14312549
v -0.7763508 -0.027916083 -0.11840441
v -0.70921934 -0.025565619 -0.4727782
v -0.85312635 -0.8281807 -0.5164922
v -0.74940723 -0.8313246 -0.78118026
v -0.6010988 -0.024542518 -0.7422679
v -0.14380328 -0.8817496 -1.0902812
v -0.04514538 -0.077954836 -1.0146372
v 0.5563822 -0.94662154 -1.1942723
v 0.64562833 -0.1434976 -1.1337804
vt 0.21811207 0.42409313
vt 0.22915062 0.455328
vt 0.23740141 0.45925352
vt 0.22388338 0.4233077
vt 0.21027942 0.3872091
vt 0.24371846 0.4632383
vt 0.2159575 0.390542
vt 0.22116622 0.37379244
vt 0.22644804 0.4224835
vt 0.2527069 0.46667397
vt 0.22856481 0.41702256
vt 0.27070913 0.47419876
vt 0.22456318 0.3805101
vt 0.23439562 0.3608144
vt 0.21965846 0.3929537
vt 0.2345613 0.40637892
vt 0.28848398 0.4606592
vt 0.23718293 0.36726522
vt 0.24657755 0.35313788
vt 0.2270733 0.390033
vt 0.22670136 0.40415007
vt 0.2318887 0.39863175
vt 0.2411655 0.37494972
vt 0.24557558 0.39833972
vt 0.24903066 0.35884836
vt 0.26179558 0.3460428
vt 0.24510051 0.38614747
vt 0.2515695 0.36548316
vt 0.2639884 0.35044432
vt 0.27927923 0.342751
vt 0.25717798 0.38446885
vt 0.29986826 0.45042807
vt 0.30694985 0.4202965
vt 0.25463027 0.3755848
vt 0.2709114 0.3673753
vt 0.31258047 0.39549527
vt 0.26537976 0.3566652
vt 0.2807219 0.34958568
vt 0.29221243 0.344529
vt 0.26944312 0.36086953
vt 0.28112796 0.35232118
vt 0.28390616 0.36133632
vt 0.31288242 0.38839296
vt 0.28181547 0.35661095
vt 0.2917406 0.35892648
vt 0.29178128 0.35421976
vt 0.31654495 0.37604344
vt 0.31392583 0.3832997
vt 0.28872004 0.28915212
vt 0.31405059 0.3554147
vt 0.32200485 0.31970605
vt 0.29056275 0.32695547
vt 0.26741233 0.28221065
vt 0.27458087 0.32091415
vt 0.25706816 0.3252524
vt 0.24798179 0.2867271
vt 0.22767554 0.29528698
vt 0.2406656 0.3315817
vt 0.21228585 0.30401066
vt 0.22617285 0.3390981
vt 0.20915224 0.35271275
vt 0.19250377 0.3269911
vt 0.17771909 0.3598009
vt 0.19821948 0.3775819
vt 0.1820699 0.41299158
vt 0.2043728 0.42070326
vt 0.19223471 0.4457213
vt 0.2151364 0.450079
vn -0.27458718 0.19040075 -0.9425229
vn -0.15965734 0.18449189 -0.9697795
vn -0.13096148 0.3469657 -0.9286893
vn -0.25047645 0.34319937 -0.90524894
vn -0.62674797 0.2364273 -0.7424884
vn -0.11869051 0.37671736 -0.91869295
vn -0.58737016 0.40882894 -0.69846636
vn -0.9286536 0.27199358 -0.25223392
vn -0.15926456 0.38535786 -0.9089192
vn 0.039655708 0.9479641 -0.3158979
vn 0.024744876 0.9802025 -0.19644514
vn 0.12024415 0.9898122 -0.07624357
vn -0.8754517 0.42617944 -0.22793733
vn -0.9593381 0.27498043 -0.06368796
vn -0.5033831 0.7089947 -0.49389473
vn 0.09730123 0.99178547 -0.08303022
vn 0.17256877 0.9848702 -0.015838625
vn -0.8957098 0.44273 -0.04115901
vn -0.92901254 0.25783485 0.26543728
vn -0.62846994 0.75410134 -0.19067423
vn -0.2901078 0.92765933 -0.23512897
vn -0.28219566 0.9432222 -0.17520705
vn -0.676603 0.7359255 -0.024942191
vn 0.12859087 0.9913037 -0.027951721
vn -0.86407083 0.43297178 0.2567429
vn -0.8000139 0.23444423 0.55228037
vn -0.21686745 0.975059 -0.047205806
vn -0.6650957 0.7159374 0.21232374
vn -0.74610555 0.42371842 0.51360416
vn -0.36049527 0.19186862 0.9128142
vn 0.16007893 0.9860449 0.04572067
vn 0.17725834 0.9831814 0.043975763
vn 0.14211993 0.98341656 0.11266721
vn -0.1310746 0.98423135 0.11877722
vn 0.14520295 0.9820802 0.120143905
vn 0.14295134 0.93742025 0.31750318
vn -0.5540216 0.7150349 0.4263627
vn -0.3127631 0.39778772 0.862522
vn 0.08878895 0.17144074 0.98118526
vn -0.0809499 0.9480502 0.3076491
vn -0.24393515 0.54822236 0.7999674
vn 0.09783393 0.9518959 0.29038364
vn 0.20565444 0.50077534 0.8407915
vn -0.008589103 0.8454198 0.53403324
vn 0.17606889 0.5078055 0.8432872
vn 0.12218167 0.40127087 0.9077738
vn 0.17330052 0.17797169 0.9686553
vn 0.204698 0.40828842 0.88960624
vn 0.07314222 0.107728854 0.99148613
vn 0.17172243 0.09572563 0.98048353
vn 0.17759995 0.09796309 0.97921467
vn 0.074646026 0.103239834 0.9918516
vn -0.3748123 0.14601366 0.9155302
vn -0.37269253 0.1463283 0.9163451
vn -0.8093841 0.19027928 0.55559987
vn -0.81177026 0.17897038 0.5558765
vn -0.95356536 0.18738507 0.2357964
vn -0.9470932 0.20242716 0.24907377
vn -0.98172796 0.18767719 -0.031423487
vn -0.9761268 0.21318915 -0.041554708
vn -0.93968403 0.22062802 -0.26137573
vn -0.94594395 0.18605676 -0.26565567
vn -0.6219621 0.15620887 -0.7673083
vn -0.61903495 0.17890485 -0.76471484
vn -0.28967863 0.11616815 -0.9500481
vn -0.285345 0.13257922 -0.9492107
vn -0.1483743 0.10069566 -0.98379135
vn -0.15419552 0.11979193 -0.98075163
g Cliff_Rocks4_0
f 3/3/3 2/2/2 1/1/1
f 4/4/4 3/3/3 1/1/1
f 4/4/4 1/1/1 5/5/5
f 6/6/6 3/3/3 4/4/4
f 7/7/7 4/4/4 5/5/5
f 7/7/7 5/5/5 8/8/8
f 9/9/9 6/6/6 4/4/4
f 9/9/9 4/4/4 7/7/7
f 10/10/10 6/6/6 9/9/9
f 11/11/11 10/10/10 9/9/9
f 12/12/12 10/10/10 11/11/11
f 13/13/13 7/7/7 8/8/8
f 8/8/8 14/14/14 13/13/13
f 15/15/15 9/9/9 7/7/7
f 11/11/11 9/9/9 15/15/15
f 16/16/16 12/12/12 11/11/11
f 17/17/17 12/12/12 16/16/16
f 14/14/14 18/18/18 13/13/13
f 14/14/14 19/19/19 18/18/18
f 13/13/13 20/20/20 7/7/7
f 20/20/20 15/15/15 7/7/7
f 21/21/21 11/11/11 15/15/15
f 16/16/16 11/11/11 21/21/21
f 22/22/22 21/21/21 15/15/15
f 20/20/20 22/22/22 15/15/15
f 22/22/22 16/16/16 21/21/21
f 20/20/20 13/13/13 23/23/23
f 13/13/13 18/18/18 23/23/23
f 20/20/20 23/23/23 22/22/22
f 24/24/24 17/17/17 16/16/16
f 24/24/24 16/16/16 22/22/22
f 19/19/19 25/25/25 18/18/18
f 25/25/25 19/19/19 26/26/26
f 23/23/23 27/27/27 22/22/22
f 27/27/27 24/24/24 22/22/22
f 23/23/23 18/18/18 28/28/28
f 18/18/18 25/25/25 28/28/28
f 23/23/23 28/28/28 27/27/27
f 29/29/29 25/25/25 26/26/26
f 28/28/28 25/25/25 29/29/29
f 26/26/26 30/30/30 29/29/29
f 24/24/24 31/31/31 17/17/17
f 31/31/31 32/32/32 17/17/17
f 33/33/33 32/32/32 31/31/31
f 27/27/27 34/34/34 24/24/24
f 28/28/28 34/34/34 27/27/27
f 34/34/34 31/31/31 24/24/24
f 35/35/35 33/33/33 31/31/31
f 35/35/35 31/31/31 34/34/34
f 36/36/36 33/33/33 35/35/35
f 34/34/34 28/28/28 37/37/37
f 37/37/37 28/28/28 29/29/29
f 30/30/30 38/38/38 29/29/29
f 30/30/30 39/39/39 38/38/38
f 40/40/40 34/34/34 37/37/37
f 40/40/40 35/35/35 34/34/34
f 37/37/37 29/29/29 41/41/41
f 37/37/37 41/41/41 40/40/40
f 29/29/29 38/38/38 41/41/41
f 42/42/42 36/36/36 35/35/35
f 43/43/43 36/36/36 42/42/42
f 40/40/40 44/44/44 35/35/35
f 41/41/41 44/44/44 40/40/40
f 44/44/44 42/42/42 35/35/35
f 44/44/44 41/41/41 42/42/42
f 41/41/41 45/45/45 42/42/42
f 41/41/41 38/38/38 45/45/45
f 45/45/45 43/43/43 42/42/42
f 39/39/39 46/46/46 38/38/38
f 38/38/38 46/46/46 45/45/45
f 45/45/45 46/46/46 43/43/43
f 46/46/46 39/39/39 47/47/47
f 46/46/46 48/48/48 43/43/43
f 48/48/48 46/46/46 47/47/47
g Cliff_Rocks4_1
f 51/51/51 50/50/50 49/49/49
f 50/50/50 52/52/52 49/49/49
f 53/53/53 49/49/49 52/52/52
f 39/39/39 52/52/52 50/50/50
f 47/47/47 39/39/39 50/50/50
f 52/52/52 39/39/39 30/30/30
f 54/54/54 52/52/52 30/30/30
f 54/54/54 53/53/53 52/52/52
f 54/54/54 30/30/30 26/26/26
f 53/53/53 54/54/54 55/55/55
f 55/55/55 54/54/54 26/26/26
f 56/56/56 53/53/53 55/55/55
f 56/56/56 55/55/55 57/57/57
f 26/26/26 19/19/19 55/55/55
f 55/55/55 58/58/58 57/57/57
f 19/19/19 58/58/58 55/55/55
f 59/59/59 57/57/57 58/58/58
f 60/60/60 58/58/58 19/19/19
f 60/60/60 59/59/59 58/58/58
f 14/14/14 60/60/60 19/19/19
f 14/14/14 8/8/8 60/60/60
f 60/60/60 61/61/61 59/59/59
f 8/8/8 61/61/61 60/60/60
f 61/61/61 62/62/62 59/59/59
f 63/63/63 62/62/62 61/61/61
f 64/64/64 61/61/61 8/8/8
f 64/64/64 63/63/63 61/61/61
f 5/5/5 64/64/64 8/8/8
f 63/63/63 64/64/64 65/65/65
f 5/5/5 1/1/1 64/64/64
f 64/64/64 66/66/66 65/65/65
f 1/1/1 66/66/66 64/64/64
f 65/65/65 66/66/66 67/67/67
f 1/1/1 2/2/2 66/66/66
f 66/66/66 68/68/68 67/67/67
f 2/2/2 68/68/68 66/66/66
