g Cliff_Rocks14
v -0.4503228 0.5349871 5.501692
v -1.411485 0.6210921 5.632351
v -2.076619 0.8948116 5.093329
v -0.7148809 1.407372 4.485614
v -2.875448 0.9278304 4.330914
v 0.8609644 0.5493026 5.149524
v -1.062698 1.495945 3.365142
v -3.042156 1.294221 3.434668
v 0.6148432 1.464743 3.862976
v -1.369531 1.531598 2.25652
v -3.792053 1.298809 0.3406412
v 1.624369 1.40669 3.365127
v 1.857946 0.5342335 4.642894
v 0.3376234 1.597277 2.482246
v -2.036409 1.536987 -0.9186685
v -3.885962 1.300401 -3.332266
v -2.456107 1.29907 -4.904954
v -1.119346 1.297784 -6.147267
v -0.4834362 1.674852 -1.956377
v 0.03123298 1.29659 -6.72883
v 1.382189 1.495293 1.972373
v 2.419462 1.319497 2.952102
v 2.611711 0.5116485 4.075774
v 3.19335 0.5034181 3.542128
v 0.1045313 1.65004 1.288158
v 1.181466 1.530612 0.7393789
v 0.6641889 1.612092 -2.550882
v 1.609113 1.469816 -2.878167
v 0.7979884 0.9402466 -7.214393
v 1.806743 0.9850386 -6.789682
v 2.234326 1.342106 1.676436
v 3.105881 1.289448 2.583941
v 3.579523 0.5141175 3.121229
v 3.680279 0.5027556 2.351513
v 2.067451 1.351319 0.4360892
v 2.553981 1.369131 -3.114211
v 2.300544 0.5836089 -6.740084
v 2.838627 0.5208057 -5.325879
v 3.345602 0.5235304 -3.418868
v 3.057363 1.28983 1.435357
v 3.768989 0.5028853 1.238883
v 3.750573 0.5030279 -0.0250778
v 2.968661 1.290166 0.204202
v -3.142855 -0.5768387 4.756142
v -2.555626 -0.5770842 5.571114
v -3.534227 -2.827136 4.914486
v -2.836487 -2.825703 5.906119
v -1.721453 -0.5772362 6.160083
v -1.886394 -2.825034 6.642088
v -0.3933935 -0.5772017 6.297041
v -0.4315948 -2.825891 6.866725
v 1.000641 -0.5772734 6.06097
v 1.065138 -2.82768 6.663243
v 2.032736 -0.5777434 5.530838
v 2.141035 -2.829808 6.114848
v 2.799809 -0.5783827 4.860049
v 2.938443 -2.83215 5.385175
v 3.398775 -0.5789627 4.202001
v 3.599711 -2.83458 4.637865
v 3.841334 -0.5793642 3.412062
v 4.109365 -2.837317 3.709053
v 4.139186 -0.5794679 2.345597
v 4.451933 -2.840578 2.434868
v 4.286773 -0.5794086 1.076674
v 4.616335 -2.844026 0.9511294
v 4.278536 -0.5793208 -0.3206344
v 4.591487 -2.847323 -0.6063498
v 3.830658 -0.5785945 -3.952081
v 4.085761 -2.8546 -4.506921
v 3.230058 -0.5774315 -6.006389
v 3.423349 -2.858178 -6.735659
vt 0.260708 0.5735777
vt 0.239623 0.5747275
vt 0.2359704 0.5893979
vt 0.2639526 0.5936475
vt 0.2313558 0.6045803
vt 0.2842303 0.568803
vt 0.2617556 0.6089972
vt 0.2281192 0.6199257
vt 0.2879952 0.5928966
vt 0.2600552 0.623656
vt 0.2256777 0.662022
vt 0.3062299 0.5925551
vt 0.3030014 0.5678238
vt 0.2879038 0.6108656
vt 0.2594414 0.6647437
vt 0.2371122 0.7039126
vt 0.2657207 0.7125961
vt 0.2943293 0.7212794
vt 0.2886309 0.6665506
vt 0.3125034 0.7175531
vt 0.3067557 0.6103211
vt 0.3206354 0.5923155
vt 0.3180932 0.5692724
vt 0.3305776 0.571781
vt 0.2878638 0.6260219
vt 0.3074178 0.6256586
vt 0.3094415 0.6659817
vt 0.3260344 0.6636708
vt 0.3306775 0.7138268
vt 0.3484141 0.7125499
vt 0.3217207 0.6081965
vt 0.3331902 0.5918702
vt 0.3404175 0.5682517
vt 0.3460733 0.58294
vt 0.3229786 0.6233758
vt 0.3425708 0.6602521
vt 0.3622951 0.7104461
vt 0.361661 0.6846005
vt 0.3640163 0.6559997
vt 0.3362083 0.6053246
vt 0.3531362 0.59553
vt 0.3582664 0.6109073
vt 0.3388079 0.6199827
vt 0.1949119 0.59233
vt 0.2059175 0.574738
vt 0.1584679 0.5800797
vt 0.1673391 0.5498285
vt 0.2214619 0.5584472
vt 0.1892847 0.5250351
vt 0.246084 0.5447587
vt 0.2213393 0.5045836
vt 0.2727013 0.5352729
vt 0.2550093 0.4900733
vt 0.294231 0.5315903
vt 0.281801 0.4831039
vt 0.3124649 0.5326066
vt 0.3051584 0.4829486
vt 0.3291946 0.5372177
vt 0.3285251 0.4888805
vt 0.3452506 0.5454288
vt 0.3535167 0.5003257
vt 0.3614636 0.557245
vt 0.3817485 0.5167104
vt 0.3754221 0.5726374
vt 0.406731 0.5379257
vt 0.3847148 0.5915774
vt 0.4219749 0.5638629
vt 0.3953365 0.6511877
vt 0.4385735 0.6461095
vt 0.3921273 0.6930506
vt 0.4345752 0.7067379
vn 0.1189249 0.6866189 0.7172248
vn -0.1450527 0.6229075 0.7687301
vn -0.3944704 0.7530926 0.5265402
vn -0.006191759 0.9333187 0.3589956
vn -0.3727506 0.8466769 0.3797304
vn 0.2496544 0.7150447 0.6529807
vn -0.0890822 0.9854801 0.144545
vn -0.108815 0.9894693 0.09544502
vn 0.1450273 0.9335031 0.3279316
vn -0.09281728 0.9945408 0.04768237
vn -0.1101752 0.9938591 0.01027687
vn 0.2350625 0.9276996 0.2900329
vn 0.3844354 0.7071945 0.5933678
vn 0.030255 0.9980234 0.05508035
vn -0.09334975 0.9955879 -0.009514637
vn -0.09558771 0.9951245 -0.02429486
vn -0.09598207 0.9940299 -0.05188419
vn -0.04608253 0.9962409 -0.07335222
vn -0.03588372 0.9987053 -0.03605882
vn 0.1157027 0.9871392 -0.1103134
vn 0.1344661 0.9906778 0.02182583
vn 0.264123 0.924074 0.2762722
vn 0.4817886 0.6670477 0.5682669
vn 0.6064019 0.5919675 0.5308966
vn -0.008286862 0.999809 0.01770144
vn 0.1253491 0.9921086 0.00280981
vn 0.09587048 0.9936916 -0.05818974
vn 0.1349553 0.9885232 -0.06788842
vn 0.139802 0.9818521 -0.1281482
vn 0.2762608 0.9481077 -0.1573905
vn 0.1192047 0.9928685 0.001496321
vn 0.471099 0.8634674 0.1802491
vn 0.8263721 0.4605153 0.3240907
vn 0.8630742 0.4905581 0.1202316
vn 0.1330176 0.9910949 0.006099766
vn 0.4050017 0.9086714 -0.1014397
vn 0.6486871 0.7347544 -0.1983459
vn 0.7242675 0.6554446 -0.2140771
vn 0.7911842 0.5946587 -0.1428585
vn 0.4753229 0.879797 -0.005016781
vn 0.8426014 0.5382538 0.01748918
vn 0.8126507 0.5783785 -0.07125419
vn 0.4502157 0.8924288 -0.02961143
vn -0.7626267 0.2573723 0.5934307
vn -0.6718175 0.2687127 0.6902571
vn -0.8013108 0.1822189 0.5698221
vn -0.6992835 0.1939656 0.6880261
vn -0.312915 0.3061567 0.8990842
vn -0.3349892 0.2248712 0.9149947
vn 0.04452955 0.3532529 0.9344675
vn 0.01230168 0.2431405 0.969913
vn 0.2788706 0.3851811 0.879697
vn 0.2768418 0.2506635 0.9276456
vn 0.5162288 0.3683763 0.7731796
vn 0.5374482 0.2333081 0.8103807
vn 0.6567233 0.3274185 0.6793464
vn 0.6869538 0.2062697 0.6968122
vn 0.7732921 0.2708457 0.5732904
vn 0.7983258 0.1826216 0.5738686
vn 0.9085683 0.2130576 0.3593187
vn 0.9174993 0.1565234 0.3656439
vn 0.9627354 0.2114602 0.1685978
vn 0.972937 0.142092 0.1822179
vn 0.9719129 0.2309218 0.04539179
vn 0.9890414 0.1404119 0.04562382
vn 0.9635402 0.252348 -0.08894213
vn 0.9847808 0.1447869 -0.09614306
vn 0.9522938 0.2507989 -0.1738866
vn 0.9685735 0.1575022 -0.1925058
vn 0.9308284 0.2446455 -0.2714903
vn 0.944923 0.171533 -0.2787415
g Cliff_Rocks14_0
f 3/3/3 2/2/2 1/1/1
f 4/4/4 3/3/3 1/1/1
f 5/5/5 3/3/3 4/4/4
f 4/4/4 1/1/1 6/6/6
f 7/7/7 5/5/5 4/4/4
f 5/5/5 7/7/7 8/8/8
f 9/9/9 4/4/4 6/6/6
f 7/7/7 4/4/4 9/9/9
f 7/7/7 10/10/10 8/8/8
f 8/8/8 10/10/10 11/11/11
f 9/9/9 6/6/6 12/12/12
f 6/6/6 13/13/13 12/12/12
f 14/14/14 7/7/7 9/9/9
f 7/7/7 14/14/14 10/10/10
f 10/10/10 15/15/15 11/11/11
f 16/16/16 11/11/11 15/15/15
f 17/17/17 16/16/16 15/15/15
f 17/17/17 15/15/15 18/18/18
f 15/15/15 19/19/19 18/18/18
f 19/19/19 15/15/15 10/10/10
f 18/18/18 19/19/19 20/20/20
f 9/9/9 12/12/12 21/21/21
f 14/14/14 9/9/9 21/21/21
f 12/12/12 13/13/13 22/22/22
f 13/13/13 23/23/23 22/22/22
f 23/23/23 24/24/24 22/22/22
f 14/14/14 25/25/25 10/10/10
f 25/25/25 19/19/19 10/10/10
f 25/25/25 14/14/14 26/26/26
f 25/25/25 26/26/26 19/19/19
f 14/14/14 21/21/21 26/26/26
f 19/19/19 27/27/27 20/20/20
f 26/26/26 27/27/27 19/19/19
f 20/20/20 27/27/27 28/28/28
f 28/28/28 27/27/27 26/26/26
f 29/29/29 20/20/20 28/28/28
f 30/30/30 29/29/29 28/28/28
f 12/12/12 22/22/22 31/31/31
f 21/21/21 12/12/12 31/31/31
f 24/24/24 32/32/32 22/22/22
f 22/22/22 32/32/32 31/31/31
f 24/24/24 33/33/33 32/32/32
f 33/33/33 34/34/34 32/32/32
f 26/26/26 21/21/21 35/35/35
f 35/35/35 28/28/28 26/26/26
f 21/21/21 31/31/31 35/35/35
f 36/36/36 30/30/30 28/28/28
f 36/36/36 28/28/28 35/35/35
f 37/37/37 30/30/30 36/36/36
f 36/36/36 38/38/38 37/37/37
f 36/36/36 39/39/39 38/38/38
f 32/32/32 34/34/34 40/40/40
f 32/32/32 40/40/40 31/31/31
f 34/34/34 41/41/41 40/40/40
f 40/40/40 41/41/41 42/42/42
f 43/43/43 36/36/36 35/35/35
f 39/39/39 36/36/36 43/43/43
f 35/35/35 31/31/31 43/43/43
f 42/42/42 39/39/39 43/43/43
f 31/31/31 40/40/40 43/43/43
f 43/43/43 40/40/40 42/42/42
g Cliff_Rocks14_1
f 5/5/5 44/44/44 3/3/3
f 44/44/44 45/45/45 3/3/3
f 44/44/44 46/46/46 45/45/45
f 3/3/3 45/45/45 2/2/2
f 46/46/46 47/47/47 45/45/45
f 45/45/45 48/48/48 2/2/2
f 45/45/45 47/47/47 48/48/48
f 1/1/1 2/2/2 48/48/48
f 47/47/47 49/49/49 48/48/48
f 50/50/50 1/1/1 48/48/48
f 50/50/50 48/48/48 49/49/49
f 6/6/6 1/1/1 50/50/50
f 51/51/51 50/50/50 49/49/49
f 52/52/52 6/6/6 50/50/50
f 52/52/52 50/50/50 51/51/51
f 6/6/6 52/52/52 13/13/13
f 53/53/53 52/52/52 51/51/51
f 52/52/52 54/54/54 13/13/13
f 52/52/52 53/53/53 54/54/54
f 13/13/13 54/54/54 23/23/23
f 53/53/53 55/55/55 54/54/54
f 54/54/54 56/56/56 23/23/23
f 54/54/54 55/55/55 56/56/56
f 23/23/23 56/56/56 24/24/24
f 55/55/55 57/57/57 56/56/56
f 56/56/56 58/58/58 24/24/24
f 56/56/56 57/57/57 58/58/58
f 24/24/24 58/58/58 33/33/33
f 57/57/57 59/59/59 58/58/58
f 58/58/58 60/60/60 33/33/33
f 58/58/58 59/59/59 60/60/60
f 33/33/33 60/60/60 34/34/34
f 59/59/59 61/61/61 60/60/60
f 60/60/60 62/62/62 34/34/34
f 60/60/60 61/61/61 62/62/62
f 34/34/34 62/62/62 41/41/41
f 61/61/61 63/63/63 62/62/62
f 62/62/62 64/64/64 41/41/41
f 62/62/62 63/63/63 64/64/64
f 41/41/41 64/64/64 42/42/42
f 63/63/63 65/65/65 64/64/64
f 64/64/64 66/66/66 42/42/42
f 64/64/64 65/65/65 66/66/66
f 65/65/65 67/67/67 66/66/66
f 39/39/39 42/42/42 66/66/66
f 68/68/68 66/66/66 67/67/67
f 68/68/68 39/39/39 66/66/66
f 69/69/69 68/68/68 67/67/67
f 39/39/39 68/68/68 70/70/70
f 68/68/68 69/69/69 70/70/70
f 38/38/38 39/39/39 70/70/70
f 69/69/69 71/71/71 70/70/70
