g Cliff_Rocks29
v -0.6638427 0.02418459 -1.806622
v -0.7330773 -0.1031738 -1.860259
v -0.1571985 -0.1094966 -2.078377
v -1.632171 -0.0938494 -1.549642
v -0.1176712 0.02521004 -2.018161
v -0.5376041 0.1183531 -1.721963
v 0.3260516 -0.1142599 -2.17882
v -1.52521 0.01969368 -1.510212
v 0.3355471 0.02656191 -2.116226
v 1.721891 -0.09159502 -1.804386
v -1.887375 0.01744908 -0.9938579
v -2.043344 -0.08602355 -0.9943358
v -0.01452396 0.1202895 -1.941488
v 1.065294 0.2209256 -1.41984
v 1.662482 0.05377461 -1.768938
v 2.670859 -0.0690631 -1.147595
v 0.3084802 0.09709629 -2.035508
v 2.578291 0.06584866 -1.139986
v 2.885321 -0.07744011 -0.8182496
v 1.482605 0.157076 -1.662503
v 2.785703 0.05044793 -0.829492
v 3.004478 -0.105176 -0.5472209
v 2.377386 0.1547501 -1.057846
v 2.883773 0.0202899 -0.5746061
v 3.008006 -0.129781 -0.3024605
v 2.599999 0.1321561 -0.7711089
v 2.865419 -0.005497929 -0.3456141
v 2.925208 -0.1287651 -0.159637
v 2.70671 0.1006346 -0.5372679
v 2.237709 0.1857367 -0.5704756
v 2.723557 -0.007788102 -0.112801
v 2.614761 -0.1143992 0.2328951
v 2.724926 0.06069579 -0.368556
v 2.465252 0.003360389 0.1574754
v 1.912832 -0.08460747 0.7616621
v 2.422039 0.1430056 -0.3628831
v 2.566297 0.08030559 -0.2089412
v 1.960234 0.2139232 -0.8275694
v 1.771088 0.2151402 -0.2851927
v 2.050988 0.1620808 -0.09468794
v 0.9240969 0.215778 0.176935
v 1.437235 0.2458964 -0.5161613
v 1.797737 0.03425957 0.6800905
v 0.9264572 -0.0693175 1.28676
v 2.281016 0.09029533 0.05348894
v 1.610637 0.1162981 0.5623342
v 0.8569326 0.06119902 1.210197
v 0.2417016 -0.08513326 1.571523
v 0.5303649 0.2519606 -1.09332
v -0.251062 0.2356061 -0.7202885
v 0.5667263 0.2373626 -0.03562208
v 1.295746 0.1761137 0.3854347
v 0.4393649 0.1698487 0.9620882
v 0.7165042 0.1435563 1.106784
v 0.2323825 0.04971966 1.470767
v -0.2110044 -0.09114229 1.650838
v 0.2234018 0.113855 1.386431
v -0.1755332 0.04278982 1.542931
v -0.690021 -0.09300788 1.649858
v -0.3790815 0.1622455 0.3394789
v -0.05843417 0.1305715 1.398931
v -0.6131668 0.0376998 1.541312
v -1.448775 -0.09019016 1.356392
v 0.08147305 0.1670779 0.7860603
v -0.4580384 0.1227247 1.372273
v -1.348548 0.03461403 1.25397
v -2.020043 -0.07715417 0.7541395
v -1.167133 0.1149115 1.077348
v -1.888317 0.03027552 0.6780134
v -2.318643 -0.07787885 -0.05764784
v -1.055393 0.1418447 -0.2388316
v -1.685242 0.09644847 0.5228292
v -2.162384 0.02066256 -0.09471083
v -1.355016 0.1029494 -1.433857
v -1.69302 0.08243133 -0.9556117
v -2.013045 0.06434941 -0.1439869
v 0.3167633 -0.579948 -2.286092
v 0.2771389 -2.061328 -2.382726
v 1.847866 -2.018647 -1.947613
v 1.825958 -0.575721 -1.87016
v 2.918602 -1.981746 -1.215552
v 2.848328 -0.567598 -1.168971
v 3.206727 -1.968972 -0.8077818
v 3.092044 -0.5663072 -0.8076399
v 3.399638 -1.958772 -0.3640348
v 3.276625 -0.5639774 -0.4982755
v 3.588959 -1.952192 0.07982957
v 3.397386 -0.5603678 -0.1408452
v 3.373701 -1.95028 0.339012
v 0.3219467 -0.2919703 -2.231265
v 1.816845 -0.4375742 -1.865694
v 2.82877 -0.4259498 -1.169717
v 3.065965 -0.4268247 -0.8139384
v 2.762998 -0.2662675 -1.154279
v 3.245892 -0.4319189 -0.5151109
v -0.1905375 -0.2820834 -2.128827
v -0.2293973 -0.5700215 -2.180325
v 1.777801 -0.2816491 -1.834085
v 2.989357 -0.2695602 -0.8100063
v -0.7960837 -0.2696041 -1.905198
v -0.8686059 -0.557252 -1.951218
v -1.737294 -0.2487046 -1.582677
v -1.851017 -0.5348583 -1.61828
v -2.197637 -0.2324414 -0.9947358
v -2.371434 -0.5172598 -0.990114
v 3.161394 -0.2829105 -0.5274354
v -2.475572 -0.2201651 -0.02659437
v -2.669924 -0.5037162 0.02551073
v -2.150487 -0.2268874 0.8179207
v 3.266217 -0.2939011 -0.2334236
v 3.359941 -0.435212 -0.1852583
v 3.236864 -0.2901151 -0.04291883
v 3.365414 -0.5552377 0.02646807
v 3.327621 -0.4306835 -0.005271737
v 2.886482 -0.5490922 0.4120235
v 3.126242 -1.951585 0.6344539
v 2.38552 -1.959464 1.274018
v 2.758485 -0.2786586 0.3333278
v 2.846947 -0.4219746 0.3780879
v 2.121139 -0.5345733 0.9273726
v 1.284066 -1.974233 2.060708
v 1.079163 -0.5202094 1.449621
v 0.2941595 -1.996817 2.194835
v 2.083997 -0.4029734 0.8895186
v 2.011714 -0.2549088 0.830005
v 1.044466 -0.3882915 1.415559
v 0.9908871 -0.2400876 1.350906
v 0.2502844 -0.2578427 1.655942
v 0.2610672 -0.5390843 1.776998
v -0.2822409 -0.5451446 1.865369
v -0.3806977 -2.011984 2.275617
v -1.051306 -2.028403 2.241339
v -0.2439673 -0.2630803 1.741246
v -0.8442715 -0.5449397 1.860987
v -1.941229 -2.044598 1.892794
v -0.7618332 -0.2622442 1.740803
v -1.656534 -0.5373573 1.552865
v -1.544242 -0.2544804 1.442207
v -2.308337 -0.5095847 0.9013246
v -2.702453 -2.081935 1.163595
v -3.164282 -2.115807 0.2362254
vt 0.3357559 0.9227581
vt 0.3366211 0.9266619
vt 0.3469043 0.9234748
vt 0.3092974 0.9287882
vt 0.3455306 0.919613
vt 0.3354013 0.9184126
vt 0.3543324 0.9190644
vt 0.3090236 0.9249312
vt 0.3524073 0.9153794
vt 0.3652171 0.8899621
vt 0.283966 0.9203508
vt 0.2829743 0.9237908
vt 0.345142 0.9155575
vt 0.3472594 0.8887501
vt 0.3617252 0.8886346
vt 0.3661135 0.8606523
vt 0.3504841 0.9132251
vt 0.3615789 0.8613763
vt 0.3633298 0.8501471
vt 0.3567293 0.8881327
vt 0.3586771 0.851626
vt 0.3598239 0.8423772
vt 0.3560775 0.8623443
vt 0.3553314 0.8448403
vt 0.3546079 0.8368112
vt 0.3535551 0.8529789
vt 0.3507382 0.840195
vt 0.3466939 0.8329176
vt 0.3506268 0.8463917
vt 0.3450643 0.8540654
vt 0.3440943 0.836866
vt 0.3368018 0.8301252
vt 0.3482287 0.8424361
vt 0.3354574 0.8343477
vt 0.3138678 0.8264391
vt 0.3435367 0.846621
vt 0.3428901 0.8409762
vt 0.3465034 0.8635745
vt 0.3345318 0.8548424
vt 0.3344461 0.8461192
vt 0.3116737 0.8550363
vt 0.3348832 0.8646522
vt 0.3132795 0.8306667
vt 0.2915401 0.8270189
vt 0.3347226 0.8390864
vt 0.3127683 0.8359472
vt 0.2911528 0.8312326
vt 0.2767562 0.8323151
vt 0.3353649 0.8895749
vt 0.310771 0.8893021
vt 0.3116013 0.8649471
vt 0.3121479 0.84472
vt 0.2895022 0.8432357
vt 0.2903562 0.8359984
vt 0.2775184 0.8362264
vt 0.2699728 0.8371594
vt 0.2779567 0.8386505
vt 0.2715607 0.8405442
vt 0.264026 0.8441557
vt 0.288317 0.8621326
vt 0.2742007 0.8425492
vt 0.2664027 0.8468992
vt 0.2597693 0.8539244
vt 0.2887646 0.8521964
vt 0.2700973 0.8488793
vt 0.2627231 0.8560862
vt 0.2570676 0.883419
vt 0.2672259 0.8579481
vt 0.2604592 0.8834025
vt 0.2647574 0.9138523
vt 0.2867992 0.8873999
vt 0.2653552 0.8839952
vt 0.2676106 0.9112779
vt 0.3089001 0.9203442
vt 0.2844842 0.9163415
vt 0.2699443 0.9097946
vt 0.3637076 0.9340613
vt 0.3898226 0.9799631
vt 0.4204167 0.9149663
vt 0.3800119 0.8960429
vt 0.4277253 0.861881
vt 0.384494 0.8601288
vt 0.4249932 0.8447694
vt 0.3820926 0.8470302
vt 0.4117116 0.8195573
vt 0.3766042 0.8349223
vt 0.39843 0.7943453
vt 0.3679948 0.8249818
vt 0.3781632 0.7815987
vt 0.3575333 0.9238476
vt 0.3753836 0.8940568
vt 0.378986 0.8601406
vt 0.3765975 0.8478078
vt 0.3727872 0.8601539
vt 0.3717458 0.8370352
vt 0.3493459 0.9285743
vt 0.353936 0.9398524
vt 0.3701749 0.8918215
vt 0.3704131 0.8486829
vt 0.3382394 0.9319129
vt 0.341185 0.9439404
vt 0.3094082 0.9340733
vt 0.30929 0.9464726
vt 0.2810102 0.9285241
vt 0.2765428 0.9395845
vt 0.3662781 0.8394133
vt 0.2604752 0.917455
vt 0.2513916 0.9247355
vt 0.2520282 0.8836431
vt 0.3597592 0.832415
vt 0.36412 0.8284791
vt 0.3502334 0.8277583
vt 0.3562305 0.8183854
vt 0.3534089 0.8227953
vt 0.3428746 0.8140975
vt 0.3578963 0.7688521
vt 0.3199757 0.7594881
vt 0.3389068 0.824641
vt 0.3410078 0.8190581
vt 0.3162415 0.8094175
vt 0.2980743 0.7630213
vt 0.2912654 0.8102298
vt 0.2574447 0.7671406
vt 0.3155254 0.8147846
vt 0.3147195 0.8208252
vt 0.2912187 0.8155031
vt 0.2911662 0.821438
vt 0.2747361 0.8271359
vt 0.2709603 0.8162898
vt 0.260877 0.8223304
vt 0.2384518 0.7783731
vt 0.2194589 0.7896056
vt 0.2668545 0.8324485
vt 0.2519262 0.8312937
vt 0.2064303 0.8122505
vt 0.2599113 0.8401517
vt 0.2454953 0.8439238
vt 0.2550633 0.8509082
vt 0.2411929 0.8827577
vt 0.1946619 0.8749201
vt 0.2082187 0.9554396
vn -0.2534598 0.6798632 -0.6881456
vn -0.3012968 0.4257798 -0.8531893
vn -0.2608561 0.3829566 -0.8861706
vn -0.4426889 0.5473831 -0.7102101
vn -0.2399395 0.6135246 -0.7523407
vn -0.07473771 0.9847493 -0.1571091
vn 0.13739 0.3089117 -0.941115
vn -0.347289 0.7600845 -0.5492376
vn 0.1244468 0.5729759 -0.8100689
vn 0.3795973 0.3110115 -0.871308
vn -0.4425358 0.8702317 -0.216469
vn -0.6180609 0.7257742 -0.3020804
vn -0.04810877 0.9789985 -0.1981102
vn 0.02339623 0.9930885 -0.1150123
vn 0.3031679 0.6526166 -0.6943924
vn 0.5989227 0.3575155 -0.7165712
vn 0.03362583 0.9381617 -0.3445601
vn 0.4579881 0.6921824 -0.5577907
vn 0.7667959 0.4915772 -0.4127663
vn 0.1109165 0.954456 -0.2769678
vn 0.5637493 0.7837641 -0.2605771
vn 0.7292938 0.6619619 -0.1730237
vn 0.1745303 0.9642547 -0.1993789
vn 0.5977927 0.8002359 -0.04760756
vn 0.5840726 0.8071865 0.0854934
vn 0.2287496 0.9721732 -0.05052759
vn 0.5307054 0.8214702 0.2086589
vn 0.452255 0.823559 0.3423681
vn 0.2834041 0.957222 0.0583805
vn 0.1185776 0.9924423 0.03158645
vn 0.4321693 0.8374276 0.3345814
vn 0.4434472 0.7441652 0.4995726
vn 0.3374082 0.9220176 0.1898404
vn 0.3606375 0.8519113 0.3797205
vn 0.4156213 0.6378618 0.6483758
vn 0.1716663 0.9781743 0.1170712
vn 0.266129 0.9382195 0.2211774
vn 0.07075081 0.9957072 -0.0596774
vn 0.06953678 0.9946671 0.07617199
vn 0.1220192 0.9832965 0.1350537
vn 0.0166526 0.9972097 0.07277025
vn 0.02435188 0.9996887 0.00541385
vn 0.3176486 0.8344747 0.4502791
vn 0.3637966 0.5539203 0.7488819
vn 0.2114121 0.9515316 0.223366
vn 0.1703996 0.9603357 0.2207249
vn 0.2851452 0.7937317 0.5372916
vn 0.2538329 0.5055394 0.8246204
vn -0.02010317 0.9983896 -0.05304758
vn -0.06010382 0.998089 -0.01434392
vn -0.02419427 0.998767 0.04334783
vn 0.07357964 0.9913341 0.1088242
vn 0.02497944 0.9959148 0.08677527
vn 0.1272756 0.9672911 0.219428
vn 0.2134127 0.6946527 0.686959
vn 0.06746773 0.5294941 0.8456264
vn 0.094062 0.9471264 0.3067634
vn 0.03526054 0.7485164 0.6621783
vn -0.17892 0.6082556 0.7733129
vn -0.05001048 0.9977764 0.04405881
vn -0.008021355 0.986073 0.1661195
vn -0.1354382 0.8406604 0.5243535
vn -0.3981219 0.6760713 0.6200213
vn -0.02510029 0.9982837 0.05291002
vn -0.0456681 0.9924885 0.1134944
vn -0.2696871 0.875707 0.4005071
vn -0.5590997 0.7456538 0.3625024
vn -0.07547747 0.9938588 0.08091915
vn -0.368763 0.9009047 0.2288769
vn -0.6319982 0.7749397 0.006840609
vn -0.07626275 0.9969982 0.01336569
vn -0.09777944 0.9946026 0.03470967
vn -0.4410687 0.8974615 -0.004607997
vn -0.1170031 0.9867935 -0.1120216
vn -0.1323465 0.9907172 -0.03104517
vn -0.1373556 0.990454 -0.01159765
vn 0.2412298 0.07322248 -0.9677018
vn 0.2651378 0.05569838 -0.9626004
vn 0.3973414 0.05570274 -0.9159787
vn 0.4016549 0.06136354 -0.9137329
vn 0.6391556 0.0571546 -0.7669508
vn 0.6404389 0.05944751 -0.765705
vn 0.8567964 0.05915989 -0.5122499
vn 0.8542333 0.06471764 -0.515846
vn 0.9139907 0.05696216 -0.4017169
vn 0.9108565 0.06390848 -0.407745
vn 0.9939409 0.1079511 -0.02068787
vn 0.9899816 0.108636 -0.09019257
vn 0.730144 0.186304 0.6574045
vn 0.109772 0.2219653 -0.9688557
vn 0.399792 0.1786962 -0.8990183
vn 0.6337466 0.2071359 -0.7452917
vn 0.8141137 0.2692479 -0.5145139
vn 0.6139196 0.3206511 -0.7213082
vn 0.8652202 0.303388 -0.3991865
vn -0.2650931 0.2496701 -0.931338
vn -0.2689448 0.208313 -0.9403587
vn 0.3947722 0.2458825 -0.8852664
vn 0.7786263 0.4260475 -0.4606784
vn -0.3144195 0.2768463 -0.9080179
vn -0.316206 0.2273312 -0.9210507
vn -0.4926662 0.3743299 -0.7855935
vn -0.538177 0.3261233 -0.7771802
vn -0.7501764 0.5427867 -0.3776479
vn -0.7989425 0.4765805 -0.3668267
vn 0.7662036 0.5744261 -0.2880395
vn -0.7905954 0.6122329 0.01138628
vn -0.8749759 0.371645 0.3103179
vn -0.6718476 0.5930083 0.4438039
vn 0.7103272 0.7015993 -0.05651164
vn 0.9169143 0.3692058 -0.1515096
vn 0.5305524 0.7243017 0.4403421
vn 0.7432319 0.1995556 0.6385797
vn 0.6648604 0.4696078 0.5808865
vn 0.6108697 0.2507 0.7509912
vn 0.6174694 0.2381374 0.7496814
vn 0.5314126 0.3107041 0.7880759
vn 0.469708 0.6556226 0.5912135
vn 0.5286314 0.4524836 0.7181973
vn 0.525974 0.3152015 0.7899363
vn 0.3765118 0.347346 0.8588304
vn 0.383705 0.3489662 0.8549814
vn 0.1863735 0.3119952 0.9316243
vn 0.4558293 0.4376264 0.7750502
vn 0.4359905 0.5439977 0.7169232
vn 0.3783663 0.4220638 0.8238332
vn 0.3766859 0.465651 0.8007976
vn 0.2473359 0.4105822 0.8776373
vn 0.193573 0.3220814 0.926711
vn 0.05319451 0.2846207 0.9571632
vn 0.04186633 0.2654293 0.9632209
vn -0.2346439 0.2723187 0.9331584
vn 0.07267668 0.4169312 0.9060279
vn -0.2175629 0.2974168 0.9296287
vn -0.534957 0.2833219 0.7959583
vn -0.1932583 0.4724336 0.8599172
vn -0.5220756 0.313312 0.7932671
vn -0.4583488 0.5305365 0.713055
vn -0.777476 0.3332907 0.5333369
vn -0.7879223 0.2965593 0.5396582
vn -0.8692749 0.3007959 0.3922792
g Cliff_Rocks29_0
f 3/3/3 2/2/2 1/1/1
f 1/1/1 2/2/2 4/4/4
f 5/5/5 3/3/3 1/1/1
f 5/5/5 1/1/1 6/6/6
f 7/7/7 3/3/3 5/5/5
f 8/8/8 1/1/1 4/4/4
f 6/6/6 1/1/1 8/8/8
f 9/9/9 7/7/7 5/5/5
f 7/7/7 9/9/9 10/10/10
f 8/8/8 4/4/4 11/11/11
f 4/4/4 12/12/12 11/11/11
f 13/13/13 5/5/5 6/6/6
f 9/9/9 5/5/5 13/13/13
f 14/14/14 13/13/13 6/6/6
f 9/9/9 15/15/15 10/10/10
f 10/10/10 15/15/15 16/16/16
f 17/17/17 9/9/9 13/13/13
f 17/17/17 13/13/13 14/14/14
f 9/9/9 17/17/17 15/15/15
f 15/15/15 18/18/18 16/16/16
f 19/19/19 16/16/16 18/18/18
f 17/17/17 20/20/20 15/15/15
f 20/20/20 17/17/17 14/14/14
f 15/15/15 20/20/20 18/18/18
f 21/21/21 19/19/19 18/18/18
f 22/22/22 19/19/19 21/21/21
f 20/20/20 23/23/23 18/18/18
f 23/23/23 20/20/20 14/14/14
f 21/21/21 18/18/18 23/23/23
f 24/24/24 22/22/22 21/21/21
f 25/25/25 22/22/22 24/24/24
f 26/26/26 21/21/21 23/23/23
f 24/24/24 21/21/21 26/26/26
f 27/27/27 25/25/25 24/24/24
f 28/28/28 25/25/25 27/27/27
f 29/29/29 24/24/24 26/26/26
f 27/27/27 24/24/24 29/29/29
f 30/30/30 26/26/26 23/23/23
f 29/29/29 26/26/26 30/30/30
f 31/31/31 28/28/28 27/27/27
f 32/32/32 28/28/28 31/31/31
f 33/33/33 27/27/27 29/29/29
f 31/31/31 27/27/27 33/33/33
f 34/34/34 32/32/32 31/31/31
f 35/35/35 32/32/32 34/34/34
f 33/33/33 29/29/29 36/36/36
f 36/36/36 29/29/29 30/30/30
f 37/37/37 31/31/31 33/33/33
f 34/34/34 31/31/31 37/37/37
f 37/37/37 33/33/33 36/36/36
f 38/38/38 30/30/30 23/23/23
f 38/38/38 23/23/23 14/14/14
f 36/36/36 30/30/30 39/39/39
f 39/39/39 30/30/30 38/38/38
f 37/37/37 36/36/36 40/40/40
f 40/40/40 36/36/36 39/39/39
f 39/39/39 41/41/41 40/40/40
f 42/42/42 39/39/39 38/38/38
f 38/38/38 14/14/14 42/42/42
f 41/41/41 39/39/39 42/42/42
f 43/43/43 35/35/35 34/34/34
f 44/44/44 35/35/35 43/43/43
f 45/45/45 34/34/34 37/37/37
f 45/45/45 37/37/37 40/40/40
f 45/45/45 46/46/46 34/34/34
f 46/46/46 45/45/45 40/40/40
f 46/46/46 43/43/43 34/34/34
f 47/47/47 44/44/44 43/43/43
f 48/48/48 44/44/44 47/47/47
f 14/14/14 49/49/49 42/42/42
f 49/49/49 14/14/14 6/6/6
f 42/42/42 49/49/49 50/50/50
f 50/50/50 49/49/49 6/6/6
f 51/51/51 41/41/41 42/42/42
f 51/51/51 42/42/42 50/50/50
f 41/41/41 52/52/52 40/40/40
f 52/52/52 46/46/46 40/40/40
f 46/46/46 52/52/52 53/53/53
f 53/53/53 52/52/52 41/41/41
f 46/46/46 54/54/54 43/43/43
f 54/54/54 47/47/47 43/43/43
f 54/54/54 46/46/46 53/53/53
f 55/55/55 48/48/48 47/47/47
f 56/56/56 48/48/48 55/55/55
f 54/54/54 57/57/57 47/47/47
f 57/57/57 55/55/55 47/47/47
f 57/57/57 54/54/54 53/53/53
f 58/58/58 56/56/56 55/55/55
f 58/58/58 55/55/55 57/57/57
f 59/59/59 56/56/56 58/58/58
f 41/41/41 51/51/51 60/60/60
f 51/51/51 50/50/50 60/60/60
f 61/61/61 58/58/58 57/57/57
f 61/61/61 57/57/57 53/53/53
f 62/62/62 59/59/59 58/58/58
f 62/62/62 58/58/58 61/61/61
f 63/63/63 59/59/59 62/62/62
f 64/64/64 53/53/53 41/41/41
f 64/64/64 41/41/41 60/60/60
f 65/65/65 61/61/61 53/53/53
f 65/65/65 62/62/62 61/61/61
f 64/64/64 65/65/65 53/53/53
f 66/66/66 63/63/63 62/62/62
f 66/66/66 62/62/62 65/65/65
f 67/67/67 63/63/63 66/66/66
f 65/65/65 64/64/64 68/68/68
f 64/64/64 60/60/60 68/68/68
f 68/68/68 66/66/66 65/65/65
f 69/69/69 67/67/67 66/66/66
f 69/69/69 66/66/66 68/68/68
f 70/70/70 67/67/67 69/69/69
f 60/60/60 71/71/71 68/68/68
f 50/50/50 71/71/71 60/60/60
f 72/72/72 69/69/69 68/68/68
f 71/71/71 72/72/72 68/68/68
f 73/73/73 70/70/70 69/69/69
f 73/73/73 69/69/69 72/72/72
f 12/12/12 70/70/70 73/73/73
f 11/11/11 12/12/12 73/73/73
f 71/71/71 50/50/50 74/74/74
f 74/74/74 50/50/50 6/6/6
f 74/74/74 6/6/6 8/8/8
f 74/74/74 8/8/8 11/11/11
f 75/75/75 71/71/71 74/74/74
f 75/75/75 74/74/74 11/11/11
f 71/71/71 75/75/75 72/72/72
f 75/75/75 11/11/11 73/73/73
f 75/75/75 76/76/76 72/72/72
f 76/76/76 75/75/75 73/73/73
f 76/76/76 73/73/73 72/72/72
g Cliff_Rocks29_1
f 79/79/79 78/78/78 77/77/77
f 80/80/80 79/79/79 77/77/77
f 81/81/81 79/79/79 80/80/80
f 82/82/82 81/81/81 80/80/80
f 83/83/83 81/81/81 82/82/82
f 84/84/84 83/83/83 82/82/82
f 85/85/85 83/83/83 84/84/84
f 86/86/86 85/85/85 84/84/84
f 87/87/87 85/85/85 86/86/86
f 88/88/88 87/87/87 86/86/86
f 87/87/87 88/88/88 89/89/89
f 80/80/80 77/77/77 90/90/90
f 80/80/80 91/91/91 82/82/82
f 80/80/80 90/90/90 91/91/91
f 84/84/84 82/82/82 92/92/92
f 91/91/91 92/92/92 82/82/82
f 86/86/86 84/84/84 93/93/93
f 93/93/93 84/84/84 92/92/92
f 94/94/94 92/92/92 91/91/91
f 93/93/93 92/92/92 94/94/94
f 95/95/95 86/86/86 93/93/93
f 88/88/88 86/86/86 95/95/95
f 96/96/96 90/90/90 77/77/77
f 97/97/97 96/96/96 77/77/77
f 90/90/90 98/98/98 91/91/91
f 98/98/98 94/94/94 91/91/91
f 99/99/99 93/93/93 94/94/94
f 95/95/95 93/93/93 99/99/99
f 100/100/100 96/96/96 97/97/97
f 101/101/101 100/100/100 97/97/97
f 102/102/102 100/100/100 101/101/101
f 103/103/103 102/102/102 101/101/101
f 96/96/96 100/100/100 2/2/2
f 2/2/2 100/100/100 102/102/102
f 3/3/3 96/96/96 2/2/2
f 90/90/90 96/96/96 3/3/3
f 7/7/7 90/90/90 3/3/3
f 90/90/90 7/7/7 98/98/98
f 7/7/7 10/10/10 98/98/98
f 98/98/98 10/10/10 94/94/94
f 10/10/10 16/16/16 94/94/94
f 99/99/99 94/94/94 16/16/16
f 4/4/4 2/2/2 102/102/102
f 19/19/19 99/99/99 16/16/16
f 104/104/104 102/102/102 103/103/103
f 4/4/4 102/102/102 104/104/104
f 105/105/105 104/104/104 103/103/103
f 12/12/12 4/4/4 104/104/104
f 106/106/106 99/99/99 19/19/19
f 22/22/22 106/106/106 19/19/19
f 106/106/106 95/95/95 99/99/99
f 107/107/107 104/104/104 105/105/105
f 12/12/12 104/104/104 107/107/107
f 70/70/70 12/12/12 107/107/107
f 108/108/108 107/107/107 105/105/105
f 107/107/107 109/109/109 70/70/70
f 109/109/109 107/107/107 108/108/108
f 109/109/109 67/67/67 70/70/70
f 110/110/110 106/106/106 22/22/22
f 25/25/25 110/110/110 22/22/22
f 111/111/111 95/95/95 106/106/106
f 110/110/110 111/111/111 106/106/106
f 111/111/111 88/88/88 95/95/95
f 112/112/112 110/110/110 25/25/25
f 28/28/28 112/112/112 25/25/25
f 113/113/113 88/88/88 111/111/111
f 88/88/88 113/113/113 89/89/89
f 114/114/114 111/111/111 110/110/110
f 114/114/114 113/113/113 111/111/111
f 112/112/112 114/114/114 110/110/110
f 113/113/113 115/115/115 89/89/89
f 115/115/115 113/113/113 114/114/114
f 115/115/115 116/116/116 89/89/89
f 117/117/117 116/116/116 115/115/115
f 118/118/118 112/112/112 28/28/28
f 32/32/32 118/118/118 28/28/28
f 32/32/32 35/35/35 118/118/118
f 119/119/119 114/114/114 112/112/112
f 119/119/119 115/115/115 114/114/114
f 118/118/118 119/119/119 112/112/112
f 120/120/120 117/117/117 115/115/115
f 120/120/120 115/115/115 119/119/119
f 121/121/121 117/117/117 120/120/120
f 122/122/122 121/121/121 120/120/120
f 123/123/123 121/121/121 122/122/122
f 124/124/124 120/120/120 119/119/119
f 124/124/124 119/119/119 118/118/118
f 122/122/122 120/120/120 124/124/124
f 35/35/35 125/125/125 118/118/118
f 125/125/125 124/124/124 118/118/118
f 35/35/35 44/44/44 125/125/125
f 126/126/126 124/124/124 125/125/125
f 126/126/126 122/122/122 124/124/124
f 44/44/44 127/127/127 125/125/125
f 127/127/127 126/126/126 125/125/125
f 126/126/126 127/127/127 122/122/122
f 44/44/44 48/48/48 127/127/127
f 127/127/127 128/128/128 122/122/122
f 48/48/48 128/128/128 127/127/127
f 129/129/129 123/123/123 122/122/122
f 122/122/122 128/128/128 129/129/129
f 129/129/129 130/130/130 123/123/123
f 129/129/129 128/128/128 130/130/130
f 130/130/130 131/131/131 123/123/123
f 132/132/132 131/131/131 130/130/130
f 133/133/133 128/128/128 48/48/48
f 128/128/128 133/133/133 130/130/130
f 56/56/56 133/133/133 48/48/48
f 134/134/134 132/132/132 130/130/130
f 130/130/130 133/133/133 134/134/134
f 135/135/135 132/132/132 134/134/134
f 136/136/136 133/133/133 56/56/56
f 133/133/133 136/136/136 134/134/134
f 59/59/59 136/136/136 56/56/56
f 137/137/137 135/135/135 134/134/134
f 134/134/134 136/136/136 137/137/137
f 138/138/138 136/136/136 59/59/59
f 136/136/136 138/138/138 137/137/137
f 63/63/63 138/138/138 59/59/59
f 138/138/138 63/63/63 67/67/67
f 109/109/109 138/138/138 67/67/67
f 137/137/137 138/138/138 109/109/109
f 137/137/137 139/139/139 135/135/135
f 139/139/139 137/137/137 109/109/109
f 139/139/139 140/140/140 135/135/135
f 139/139/139 109/109/109 108/108/108
f 141/141/141 140/140/140 139/139/139
f 108/108/108 141/141/141 139/139/139
