g Cliff_Rocks2
v -0.16901776 0.25946268 -1.1216615
v 0.73195404 0.26291293 -1.416127
v 0.74654204 0.65585494 -1.3495822
v -0.16089353 0.7026316 -1.0606655
v -0.8393918 0.2529635 -0.7744271
v 0.76056087 0.84611964 -1.3064022
v -0.77240384 0.6905399 -0.72338706
v -1.0491513 0.24226823 -0.38342372
v -0.13865522 0.8675565 -1.018716
v 0.7742265 1.0315948 -1.2643087
v -0.2753761 1.0610312 -0.83648705
v 0.8881253 1.0208076 -0.9356331
v -0.92379576 0.641676 -0.37171718
v -1.0977178 0.22946115 0.04385839
v -0.70971847 0.87321067 -0.6774728
v -0.050703563 1.0285053 -0.6020504
v 1.0290458 1.0073718 -0.5261294
v -0.9425205 0.60625017 0.03285314
v -0.87716085 0.21766298 0.38390535
v -0.8137665 0.8009165 -0.3778927
v -0.62346554 1.000042 -0.6415487
v -0.6809548 0.991887 -0.36412257
v -0.7874506 0.8199172 0.023622183
v -0.22053152 1.0190567 -0.12864892
v -0.81203294 0.621777 0.39061436
v -0.629438 0.20241113 0.83103615
v -0.6386733 0.93051916 -0.08198816
v -0.7401693 0.7696552 0.37546724
v -0.711671 0.60441774 0.84679663
v -0.115986764 0.19029406 1.1223093
v -0.17467329 0.99367416 0.1635166
v 1.1641883 0.99447536 -0.13304895
v 1.3053122 0.9821844 0.23909764
v -0.6018857 0.93835056 0.3709415
v 0.0651317 0.9950344 0.5808115
v 1.4235595 0.9711932 0.5734519
v -0.6140562 0.7492635 0.81314003
v -0.08684645 0.58381504 1.0621744
v 0.54022336 0.18828745 1.0551767
v -0.49904165 0.89029175 0.78190285
v -0.061452158 0.74926186 1.0141459
v 0.48674285 0.96688133 0.9032291
v 1.4351376 0.7795457 0.62937593
v -0.03669737 0.9105438 0.9673264
v 0.49940962 0.7945078 0.94158727
v 0.5124037 0.617683 0.9809354
v 1.4795517 0.19101831 0.7764133
v 1.447015 0.58294916 0.68674415
v 0.5937822 -1.146147 1.2316867
v 1.508908 -0.17095426 0.8380686
v 1.5359039 -1.1425279 0.9234281
v 0.56122315 -0.17208005 1.1103196
v -0.17134695 -1.1426545 1.2723862
v -0.13455106 -0.16862044 1.1816025
v -0.6806613 -0.15547118 0.86557716
v -0.7967339 -1.1277069 0.91144997
v -1.0566212 -1.1098002 0.3802396
v -0.9394711 -0.14026502 0.40055332
v -1.1672698 -1.0973148 -0.0043917317
v -1.1396427 -0.12798567 0.03179418
v -1.1048951 -0.115106486 -0.40360805
v -1.1242715 -1.0834788 -0.4640939
v -1.1201962 -1.0712336 -0.8640682
v -0.92196256 -0.10196363 -0.7634585
v -0.25225744 -1.0634934 -1.2916886
v -0.20934339 -0.097898535 -1.2011397
v 0.68222624 -1.0611023 -1.5583731
v 0.7101965 -0.09634901 -1.4839548
vt 0.22530816 0.42173654
vt 0.22526486 0.466007
vt 0.23493314 0.47530663
vt 0.23549487 0.42901978
vt 0.23308606 0.3527589
vt 0.24513029 0.49246332
vt 0.24116305 0.38292012
vt 0.25695556 0.3393553
vt 0.24074304 0.4332666
vt 0.25467712 0.5022936
vt 0.24585909 0.43740648
vt 0.27984682 0.50800085
vt 0.26112914 0.36237225
vt 0.28242233 0.33645546
vt 0.2445964 0.39316627
vt 0.26852676 0.42681932
vt 0.30703452 0.5034424
vt 0.28179118 0.3570468
vt 0.29968306 0.3375926
vt 0.26264352 0.37305593
vt 0.2498275 0.39692068
vt 0.2639611 0.39065772
vt 0.28261548 0.3717443
vt 0.29074696 0.41207415
vt 0.2990537 0.35894036
vt 0.32282275 0.33965594
vt 0.28114557 0.38306916
vt 0.2993268 0.36654928
vt 0.32086757 0.35483578
vt 0.34501213 0.34674183
vt 0.30542833 0.40876526
vt 0.32508475 0.49868244
vt 0.3460247 0.4676707
vt 0.30155835 0.37816104
vt 0.32692823 0.41430935
vt 0.36301863 0.44201785
vt 0.32097498 0.36181846
vt 0.34328073 0.36520615
vt 0.36022025 0.36278728
vt 0.32037586 0.37672052
vt 0.34234184 0.37085298
vt 0.35026723 0.39034814
vt 0.36628878 0.43382955
vt 0.34142667 0.37635767
vt 0.3525722 0.3854679
vt 0.35493672 0.3804616
vt 0.3762297 0.41059458
vt 0.3696434 0.42542976
vt 0.37590027 0.30545905
vt 0.38103676 0.3959207
vt 0.39954394 0.36128244
vt 0.36440545 0.34724313
vt 0.352642 0.28523317
vt 0.34686542 0.32985118
vt 0.3242339 0.32407087
vt 0.3288219 0.27935547
vt 0.30095893 0.27537233
vt 0.30163473 0.3206972
vt 0.2787915 0.27618498
vt 0.28212976 0.318441
vt 0.25394046 0.32669872
vt 0.24946588 0.2828092
vt 0.2198302 0.30553353
vt 0.23062517 0.33887807
vt 0.19341196 0.39754492
vt 0.21503207 0.41733953
vt 0.1932957 0.44128978
vt 0.21613555 0.4586386
vn -0.37862045 0.1725862 -0.90931875
vn -0.2981959 0.18232958 -0.9369286
vn -0.2963149 0.1805031 -0.93787843
vn -0.3760939 0.19095504 -0.9066915
vn -0.63631696 0.18255274 -0.74951667
vn -0.29726216 0.3385305 -0.89276665
vn -0.64151937 0.24180397 -0.7279998
vn -0.93976 0.22987083 -0.25300315
vn -0.34653133 0.35524303 -0.8681695
vn -0.116996236 0.9211784 -0.37113634
vn -0.17240974 0.93771386 -0.3016084
vn 0.02670727 0.9989285 0.03779744
vn -0.907953 0.36605534 -0.20402129
vn -0.954271 0.22319244 0.19887698
vn -0.64673525 0.45231852 -0.6141184
vn 0.009682305 0.99894255 0.044945687
vn 0.017796777 0.99908364 0.038926035
vn -0.9075498 0.3860605 0.16525966
vn -0.8858737 0.12605806 0.44647193
vn -0.81237304 0.57961065 -0.06404341
vn -0.36294714 0.8953671 -0.25804502
vn -0.30434513 0.9506674 0.060047872
vn -0.7573618 0.64296436 0.11401667
vn -0.029542338 0.99835193 0.049199298
vn -0.9064914 0.2356445 0.3503499
vn -0.67651945 0.08546883 0.73144823
vn -0.3096081 0.9475869 0.078878485
vn -0.76852614 0.6053846 0.20706774
vn -0.7085736 0.12600712 0.6942951
vn -0.16706626 0.1309086 0.97721636
vn -0.035785764 0.99830866 0.0458185
vn 0.011657339 0.99956065 0.027248738
vn 0.012155262 0.9995751 0.026493186
vn -0.31578144 0.9412743 0.119519606
vn -0.030316912 0.9973923 0.065493986
vn 0.122240424 0.92901605 0.3492655
vn -0.5838265 0.50590277 0.63498735
vn -0.13018931 0.15730828 0.9789305
vn 0.21373858 0.17888816 0.96037227
vn -0.3061501 0.8833556 0.35490137
vn -0.10650042 0.3110501 0.9444075
vn 0.08167476 0.9287059 0.3617106
vn 0.30944955 0.2576837 0.91533613
vn -0.11027006 0.8434592 0.5257539
vn 0.24074346 0.25372118 0.9368394
vn 0.22588053 0.20962644 0.9513331
vn 0.2829407 0.19093911 0.93993986
vn 0.29396567 0.22329211 0.92936796
vn 0.20186505 0.109639436 0.9732573
vn 0.28749293 0.12659249 0.9493799
vn 0.29160807 0.10988641 0.9502051
vn 0.20225741 0.124625705 0.9713704
vn -0.20767872 0.108588256 0.9721513
vn -0.20181751 0.12246535 0.97173655
vn -0.691984 0.12431997 0.71112776
vn -0.69983304 0.10942164 0.7058758
vn -0.8992633 0.08869578 0.42832053
vn -0.88789696 0.10624633 0.44760564
vn -0.9892055 0.043538816 0.13991718
vn -0.9847504 0.06887723 0.15975782
vn -0.97773474 0.097320534 -0.18591288
vn -0.98472136 0.07609843 -0.15662935
vn -0.67754954 0.15032662 -0.7199505
vn -0.6615258 0.15680958 -0.7333447
vn -0.37961018 0.11860113 -0.91751283
vn -0.38039893 0.13792562 -0.9144797
vn -0.28313974 0.091981955 -0.9546576
vn -0.28701797 0.12634231 -0.9495569
g Cliff_Rocks2_0
f 3/3/3 2/2/2 1/1/1
f 4/4/4 3/3/3 1/1/1
f 4/4/4 1/1/1 5/5/5
f 6/6/6 3/3/3 4/4/4
f 7/7/7 4/4/4 5/5/5
f 7/7/7 5/5/5 8/8/8
f 9/9/9 6/6/6 4/4/4
f 9/9/9 4/4/4 7/7/7
f 10/10/10 6/6/6 9/9/9
f 11/11/11 10/10/10 9/9/9
f 12/12/12 10/10/10 11/11/11
f 13/13/13 7/7/7 8/8/8
f 8/8/8 14/14/14 13/13/13
f 15/15/15 9/9/9 7/7/7
f 11/11/11 9/9/9 15/15/15
f 16/16/16 12/12/12 11/11/11
f 17/17/17 12/12/12 16/16/16
f 14/14/14 18/18/18 13/13/13
f 14/14/14 19/19/19 18/18/18
f 13/13/13 20/20/20 7/7/7
f 20/20/20 15/15/15 7/7/7
f 21/21/21 11/11/11 15/15/15
f 16/16/16 11/11/11 21/21/21
f 22/22/22 21/21/21 15/15/15
f 20/20/20 22/22/22 15/15/15
f 22/22/22 16/16/16 21/21/21
f 20/20/20 13/13/13 23/23/23
f 13/13/13 18/18/18 23/23/23
f 20/20/20 23/23/23 22/22/22
f 24/24/24 17/17/17 16/16/16
f 24/24/24 16/16/16 22/22/22
f 19/19/19 25/25/25 18/18/18
f 25/25/25 19/19/19 26/26/26
f 23/23/23 27/27/27 22/22/22
f 27/27/27 24/24/24 22/22/22
f 23/23/23 18/18/18 28/28/28
f 18/18/18 25/25/25 28/28/28
f 23/23/23 28/28/28 27/27/27
f 29/29/29 25/25/25 26/26/26
f 28/28/28 25/25/25 29/29/29
f 26/26/26 30/30/30 29/29/29
f 24/24/24 31/31/31 17/17/17
f 31/31/31 32/32/32 17/17/17
f 33/33/33 32/32/32 31/31/31
f 27/27/27 34/34/34 24/24/24
f 28/28/28 34/34/34 27/27/27
f 34/34/34 31/31/31 24/24/24
f 35/35/35 33/33/33 31/31/31
f 35/35/35 31/31/31 34/34/34
f 36/36/36 33/33/33 35/35/35
f 34/34/34 28/28/28 37/37/37
f 37/37/37 28/28/28 29/29/29
f 30/30/30 38/38/38 29/29/29
f 30/30/30 39/39/39 38/38/38
f 40/40/40 34/34/34 37/37/37
f 40/40/40 35/35/35 34/34/34
f 37/37/37 29/29/29 41/41/41
f 37/37/37 41/41/41 40/40/40
f 29/29/29 38/38/38 41/41/41
f 42/42/42 36/36/36 35/35/35
f 43/43/43 36/36/36 42/42/42
f 40/40/40 44/44/44 35/35/35
f 41/41/41 44/44/44 40/40/40
f 44/44/44 42/42/42 35/35/35
f 44/44/44 41/41/41 42/42/42
f 41/41/41 45/45/45 42/42/42
f 41/41/41 38/38/38 45/45/45
f 45/45/45 43/43/43 42/42/42
f 39/39/39 46/46/46 38/38/38
f 38/38/38 46/46/46 45/45/45
f 45/45/45 46/46/46 43/43/43
f 46/46/46 39/39/39 47/47/47
f 46/46/46 48/48/48 43/43/43
f 48/48/48 46/46/46 47/47/47
g Cliff_Rocks2_1
f 51/51/51 50/50/50 49/49/49
f 50/50/50 52/52/52 49/49/49
f 53/53/53 49/49/49 52/52/52
f 39/39/39 52/52/52 50/50/50
f 47/47/47 39/39/39 50/50/50
f 52/52/52 39/39/39 30/30/30
f 54/54/54 52/52/52 30/30/30
f 54/54/54 53/53/53 52/52/52
f 54/54/54 30/30/30 26/26/26
f 53/53/53 54/54/54 55/55/55
f 55/55/55 54/54/54 26/26/26
f 56/56/56 53/53/53 55/55/55
f 56/56/56 55/55/55 57/57/57
f 26/26/26 19/19/19 55/55/55
f 55/55/55 58/58/58 57/57/57
f 19/19/19 58/58/58 55/55/55
f 59/59/59 57/57/57 58/58/58
f 60/60/60 58/58/58 19/19/19
f 60/60/60 59/59/59 58/58/58
f 14/14/14 60/60/60 19/19/19
f 14/14/14 8/8/8 60/60/60
f 60/60/60 61/61/61 59/59/59
f 8/8/8 61/61/61 60/60/60
f 61/61/61 62/62/62 59/59/59
f 63/63/63 62/62/62 61/61/61
f 64/64/64 61/61/61 8/8/8
f 64/64/64 63/63/63 61/61/61
f 5/5/5 64/64/64 8/8/8
f 63/63/63 64/64/64 65/65/65
f 5/5/5 1/1/1 64/64/64
f 64/64/64 66/66/66 65/65/65
f 1/1/1 66/66/66 64/64/64
f 65/65/65 66/66/66 67/67/67
f 1/1/1 2/2/2 66/66/66
f 66/66/66 68/68/68 67/67/67
f 2/2/2 68/68/68 66/66/66
