g Cliff_Rocks19
v -3.7446866 -0.05375406 -1.6378362
v 0.90071595 -0.22823876 -3.2144573
v 0.98145324 0.36908633 -2.8603997
v -3.23904 0.37006068 -1.4277997
v -4.7629232 0.062475793 -0.6899114
v 1.62086 0.86291814 -1.3960004
v -4.1705546 0.37043712 -0.6472991
v -4.601211 -0.021420615 0.8435529
v -4.0148206 0.3701051 0.76153874
v -3.1944134 -0.2412729 2.45044
v -2.2309144 0.8638939 -0.08715264
v 2.3879094 0.86245084 0.2640046
v -2.6910903 0.3684061 2.1886237
v -2.0159588 -0.31452584 2.841646
v -1.1177548 0.8632056 1.4533234
v 2.960713 0.36781877 1.1816169
v -1.707095 0.36824527 2.505191
v -0.5013196 0.36892658 2.4417315
v 3.1235192 -0.34382778 1.3752252
v -0.49666137 -0.27460802 2.715345
v -0.29382506 -7.863027 3.2796147
v 3.3147552 -1.3364848 1.6321051
v 3.4860966 -7.8790884 1.9210504
v -0.48530334 -1.3372574 2.9966266
v -2.268569 -7.8617835 3.371712
v -0.49116394 -0.78894615 2.8514898
v 3.2160802 -0.82428867 1.4995587
v -2.151044 -1.3161166 3.121143
v -4.0905895 -7.8693533 2.703631
v -2.0813422 -0.7993107 2.9769268
v -3.6244593 -1.280438 2.591829
v -5.7298307 -7.8925867 0.68346745
v -3.402562 -0.7442443 2.5188751
v -5.147856 -1.2040168 0.8404963
v -6.0167737 -7.914311 -1.1958392
v -5.360576 -1.1658611 -0.91865164
v -4.8657956 -0.5938148 0.84207344
v -5.052196 -0.53205776 -0.8006243
vt 0.27276406 0.9383928
vt 0.31721577 0.9275455
vt 0.31586418 0.9180775
vt 0.27206248 0.92876345
vt 0.25128242 0.93736535
vt 0.30800143 0.8946514
vt 0.25827822 0.92523164
vt 0.2344373 0.9111547
vt 0.24703929 0.9062798
vt 0.23370066 0.8725549
vt 0.26577204 0.90673447
vt 0.29961672 0.86811817
vt 0.2445392 0.87755644
vt 0.2394229 0.8567444
vt 0.26341826 0.87697667
vt 0.29601052 0.85202837
vt 0.24930936 0.86638343
vt 0.25939432 0.8596766
vt 0.30267045 0.83674735
vt 0.25307742 0.84516853
vt 0.24779078 0.7165079
vt 0.31141776 0.8205811
vt 0.34617773 0.7201725
vt 0.24904557 0.82167107
vt 0.16799925 0.73746675
vt 0.25161237 0.835144
vt 0.30579403 0.8305423
vt 0.22924122 0.8367936
vt 0.11630636 0.79735875
vt 0.23542084 0.8480638
vt 0.21315841 0.8599816
vt 0.11257741 0.90987897
vt 0.22486815 0.8669361
vt 0.20651338 0.9119286
vt 0.16137229 1.0148922
vt 0.23456563 0.96050143
vt 0.22200823 0.9107534
vt 0.24373543 0.9469439
vn -0.39425018 0.64219636 -0.65738153
vn -0.06717339 0.6061606 -0.79250056
vn 0.037524793 0.98991895 -0.13657357
vn -0.02554357 0.9949131 -0.09744438
vn -0.6783883 0.61074054 -0.40839362
vn 0.07620078 0.9970186 0.012145075
vn -0.03900577 0.9960419 -0.079869606
vn -0.73035973 0.56874764 0.3782866
vn 0.0017860668 0.99459696 0.103796296
vn -0.40640646 0.6207772 0.6704248
vn 0.05507912 0.99742705 0.045886505
vn 0.077295505 0.9969879 0.006376323
vn -0.047340836 0.9893162 0.13788493
vn -0.122115485 0.53450793 0.8362948
vn 0.013085001 0.99898106 0.043192804
vn 0.123927645 0.98657167 0.10638773
vn -0.05776475 0.9807999 0.18626508
vn 0.026125431 0.9889522 0.1459142
vn 0.4255986 0.5186595 0.74152434
vn 0.16236153 0.49862856 0.8514742
vn 0.13413788 0.09629834 0.98627263
vn 0.47503927 0.21818645 0.852486
vn 0.49206424 0.08803011 0.8660967
vn 0.15135372 0.13617627 0.9790547
vn -0.18359417 0.08894114 0.9789701
vn 0.25965104 0.26785985 0.92781055
vn 0.33177942 0.26942423 0.9040648
vn -0.16061753 0.08436432 0.9834046
vn -0.5683004 0.08974303 0.8179124
vn -0.104798704 0.26947963 0.9572867
vn -0.55672705 0.11082138 0.82327
vn -0.91551566 0.10620419 0.38801008
vn -0.56745523 0.3268794 0.755741
vn -0.89270246 0.23817237 0.3825655
vn -0.8226587 0.19299862 -0.5347749
vn -0.791861 0.33725873 -0.50912935
vn -0.819309 0.39224878 0.41817898
vn -0.90144575 0.4165116 0.117956124
g Cliff_Rocks19_0
f 3/3/3 2/2/2 1/1/1
f 4/4/4 3/3/3 1/1/1
f 4/4/4 1/1/1 5/5/5
f 3/3/3 4/4/4 6/6/6
f 7/7/7 4/4/4 5/5/5
f 7/7/7 5/5/5 8/8/8
f 9/9/9 7/7/7 8/8/8
f 4/4/4 7/7/7 9/9/9
f 9/9/9 8/8/8 10/10/10
f 4/4/4 11/11/11 6/6/6
f 11/11/11 4/4/4 9/9/9
f 12/12/12 6/6/6 11/11/11
f 13/13/13 9/9/9 10/10/10
f 11/11/11 9/9/9 13/13/13
f 10/10/10 14/14/14 13/13/13
f 15/15/15 12/12/12 11/11/11
f 15/15/15 11/11/11 13/13/13
f 16/16/16 12/12/12 15/15/15
f 14/14/14 17/17/17 13/13/13
f 13/13/13 17/17/17 15/15/15
f 18/18/18 16/16/16 15/15/15
f 17/17/17 18/18/18 15/15/15
f 17/17/17 14/14/14 18/18/18
f 19/19/19 16/16/16 18/18/18
f 14/14/14 20/20/20 18/18/18
f 20/20/20 19/19/19 18/18/18
g Cliff_Rocks19_1
f 23/23/23 22/22/22 21/21/21
f 22/22/22 24/24/24 21/21/21
f 21/21/21 24/24/24 25/25/25
f 24/24/24 22/22/22 26/26/26
f 22/22/22 27/27/27 26/26/26
f 24/24/24 28/28/28 25/25/25
f 24/24/24 26/26/26 28/28/28
f 25/25/25 28/28/28 29/29/29
f 26/26/26 27/27/27 20/20/20
f 27/27/27 19/19/19 20/20/20
f 26/26/26 20/20/20 30/30/30
f 26/26/26 30/30/30 28/28/28
f 20/20/20 14/14/14 30/30/30
f 28/28/28 31/31/31 29/29/29
f 28/28/28 30/30/30 31/31/31
f 29/29/29 31/31/31 32/32/32
f 30/30/30 14/14/14 33/33/33
f 30/30/30 33/33/33 31/31/31
f 14/14/14 10/10/10 33/33/33
f 31/31/31 34/34/34 32/32/32
f 34/34/34 31/31/31 33/33/33
f 32/32/32 34/34/34 35/35/35
f 34/34/34 36/36/36 35/35/35
f 37/37/37 33/33/33 10/10/10
f 37/37/37 34/34/34 33/33/33
f 36/36/36 34/34/34 37/37/37
f 8/8/8 37/37/37 10/10/10
f 38/38/38 36/36/36 37/37/37
f 38/38/38 37/37/37 8/8/8
f 5/5/5 38/38/38 8/8/8
