g Cliff_Path
v -3.058371 1.715697 -4.516375
v -3.208839 1.659608 -4.519578
v -3.458557 1.85849 -6.214958
v -3.320529 1.862611 -6.203812
v -2.721455 1.841287 -4.509204
v -3.011469 1.87184 -6.178854
v -2.551191 1.904756 -4.50558
v -2.855282 1.876503 -6.166241
v -3.838581 1.892786 -7.6499
v -3.320529 1.862611 -6.203812
v -3.458557 1.85849 -6.214958
v -3.728709 1.893644 -7.621687
v -3.011469 1.87184 -6.178854
v -3.482692 1.895566 -7.558512
v -2.855282 1.876503 -6.166241
v -3.358365 1.896537 -7.526587
v -3.812186 1.97017 -7.774632
v -3.728709 1.893644 -7.621687
v -3.838581 1.892786 -7.6499
v -3.701561 1.980003 -7.752472
v -3.482692 1.895566 -7.558512
v -3.45386 2.002021 -7.702854
v -3.358365 1.896537 -7.526587
v -3.328681 2.013147 -7.677778
v -3.701561 1.980003 -7.752472
v -3.812186 1.97017 -7.774632
v -3.835068 2.076817 -8.511082
v -3.721489 2.082408 -8.490866
v -3.45386 2.002021 -7.702854
v -4.269581 2.165411 -9.701346
v -4.396085 2.155984 -9.712999
v -3.467173 2.094928 -8.4456
v -3.328681 2.013147 -7.677778
v -3.338652 2.101255 -8.422724
v -3.986325 2.170938 -9.675254
v -3.841064 2.17259 -9.664742
v -4.187895 2.134827 -10.73687
v -4.324322 2.134466 -10.74153
v -4.242074 2.13449 -10.82947
v -4.370109 2.13447 -10.90776
v -4.594024 2.134407 -10.7511
v -4.714574 2.134204 -10.74802
v -4.62346 2.134428 -10.91442
v -4.694579 2.134164 -10.85892
v -3.193212 1.60803 -3.358083
v -3.208839 1.659608 -4.519578
v -3.058371 1.715697 -4.516375
v -3.042278 1.716766 -3.298693
v -3.209123 1.740003 -2.377208
v -3.391571 1.615655 -2.440935
v -3.691767 1.647558 -1.423061
v -2.710817 1.933805 -3.187648
v -2.721455 1.841287 -4.509204
v -3.472632 1.82125 -1.341506
v -4.203218 1.713758 -0.4324457
v -2.833254 1.94729 -2.220237
v -2.543309 2.055218 -3.13153
v -2.551191 1.904756 -4.50558
v -2.63821 2.038073 -2.143138
v -2.981963 2.036402 -1.158895
v -2.733999 2.110049 -1.066611
v -3.953282 1.826828 -0.06940689
v -3.357043 1.907754 0.8648808
v -3.11083 1.778835 1.154276
v -4.252856 1.777339 2.81209
v -5.215729 1.738842 1.534036
v -5.487347 1.731764 1.150939
v -7.124521 1.70595 0.6726465
v -4.572464 1.774634 2.429231
v -7.001623 1.725819 1.39236
v -8.76228 1.655554 0.9423012
v -6.726443 1.810879 3.003878
v -6.654924 1.912472 3.818275
v -8.89424 1.660795 1.535506
v -9.624566 1.594618 1.014642
v -9.834173 1.60209 1.573908
v -8.720156 1.66999 2.863757
v -8.553539 1.643798 3.535002
v -9.687209 1.593995 2.826166
v -9.612939 1.568957 3.459008
vt 0.2075982 0.6848897
vt 5.164742E-05 0.6848897
vt 5.164742E-05 0.6114017
vt 0.2075982 0.6114017
vt 0.7316716 0.6848897
vt 0.7316716 0.6114017
vt 0.9860846 0.6848897
vt 0.9860846 0.6114017
vt 5.164742E-05 0.7219515
vt 0.2075982 0.6114017
vt 5.164742E-05 0.6114017
vt 0.2075982 0.7219515
vt 0.7316716 0.6114017
vt 0.7316716 0.7219515
vt 0.9860846 0.6114017
vt 0.9860846 0.7219515
vt 5.164742E-05 0.6982586
vt 0.2075982 0.7219515
vt 5.164742E-05 0.7219515
vt 0.2075982 0.6982586
vt 0.7316716 0.7219515
vt 0.7316716 0.6982585
vt 0.9860846 0.7219515
vt 0.9860846 0.6982586
vt 0.2075982 0.6982586
vt 5.164742E-05 0.6982586
vt 5.164742E-05 0.8
vt 0.2075982 0.8
vt 0.7316716 0.6982585
vt 0.2075982 0.9
vt 5.164742E-05 0.9
vt 0.7316716 0.8
vt 0.9860846 0.6982586
vt 0.9860846 0.8
vt 0.7316716 0.9
vt 0.9860846 0.9
vt 0.9860846 0.9856275
vt 0.7316716 0.9856275
vt 0.9860846 1
vt 0.7316716 1
vt 0.2075982 0.9856275
vt 5.164742E-05 0.9856275
vt 0.2075982 1
vt 5.164742E-05 1
vt 5.164742E-05 0.5915285
vt 5.164742E-05 0.6848897
vt 0.2075982 0.6848897
vt 0.2075982 0.5915285
vt 0.2075982 0.5202262
vt 5.164742E-05 0.5202262
vt 5.164742E-05 0.4470805
vt 0.7316716 0.5915285
vt 0.7316716 0.6848897
vt 0.2075982 0.4470805
vt 5.164742E-05 0.3785948
vt 0.7316716 0.5202262
vt 0.9860846 0.5915285
vt 0.9860846 0.6848897
vt 0.9860846 0.5202262
vt 0.7316716 0.4470805
vt 0.9860846 0.4470805
vt 0.2075982 0.3785948
vt 0.7316716 0.3785948
vt 0.9860846 0.3785948
vt 0.9860846 0.3194316
vt 0.2075982 0.3194316
vt 5.164742E-05 0.3194316
vt 5.164742E-05 0.2477435
vt 0.7316716 0.3175096
vt 0.2075982 0.2477435
vt 5.164742E-05 0.1999857
vt 0.7316716 0.2477435
vt 0.9860846 0.2477435
vt 0.2075982 0.1999857
vt 5.164742E-05 0.1605424
vt 0.2075982 0.1605424
vt 0.7316716 0.1999857
vt 0.9860846 0.1999857
vt 0.7316716 0.1605424
vt 0.9860846 0.1605424
vn -0.3254087 0.9442838 0.04936821
vn -0.3308094 0.9397454 0.08627706
vn -0.119417 0.9894742 0.08173398
vn -0.1287788 0.9891689 0.07043476
vn -0.3312377 0.9434494 0.01359268
vn -0.1409558 0.988432 0.05597737
vn -0.3481946 0.937148 -0.02267309
vn -0.1537089 0.9875385 0.03378172
vn -0.04335778 0.9944449 0.09591316
vn -0.1287788 0.9891689 0.07043476
vn -0.119417 0.9894742 0.08173398
vn -0.04106155 0.9952766 0.08796886
vn -0.1409558 0.988432 0.05597737
vn -0.03866196 0.9961151 0.07912034
vn -0.1537089 0.9875385 0.03378172
vn -0.03687875 0.9967147 0.07210901
vn -0.1058528 0.9733843 0.2032687
vn -0.04106155 0.9952766 0.08796886
vn -0.04335778 0.9944449 0.09591316
vn -0.1070631 0.9721257 0.208588
vn -0.03866196 0.9961151 0.07912034
vn -0.1086178 0.9703668 0.2158481
vn -0.03687875 0.9967147 0.07210901
vn -0.110499 0.9681079 0.2248489
vn -0.1070631 0.9721257 0.208588
vn -0.1058528 0.9733843 0.2032687
vn -0.0808497 0.9903232 0.1127971
vn -0.06443881 0.9925328 0.1035676
vn -0.1086178 0.9703668 0.2158481
vn -0.03518451 0.9989668 0.0287641
vn -0.05209342 0.9982338 0.02855956
vn -0.06238965 0.9930172 0.1001214
vn -0.110499 0.9681079 0.2248489
vn -0.06490156 0.9929957 0.09872898
vn -0.02752812 0.9990662 0.03330096
vn -0.02676722 0.9989405 0.03743503
vn -0.005153645 0.9994951 -0.03135021
vn -0.006794887 0.9996075 -0.02717927
vn -0.001181626 0.9999989 -0.0008342861
vn -0.0003190232 1 -4.803021E-07
vn -0.01755784 0.9996505 -0.01976681
vn -0.03491839 0.9993168 -0.01210242
vn -0.0006388204 0.9999998 9.744904E-05
vn -0.002430542 0.999997 1.488143E-05
vn -0.5085736 0.8602131 -0.0372347
vn -0.3308094 0.9397454 0.08627706
vn -0.3254087 0.9442838 0.04936821
vn -0.4809794 0.8750045 -0.0550089
vn -0.4712344 0.8713518 -0.1366903
vn -0.5389564 0.8267444 -0.1613065
vn -0.4414254 0.876209 -0.1933946
vn -0.4732062 0.8785982 -0.06435271
vn -0.3312377 0.9434494 0.01359268
vn -0.3309169 0.9380949 -0.1023332
vn -0.2298872 0.9650454 -0.125854
vn -0.417023 0.9018357 -0.1130668
vn -0.4799807 0.8749691 -0.06362111
vn -0.3481946 0.937148 -0.02267309
vn -0.3774257 0.9219071 -0.08739027
vn -0.2202111 0.9750364 -0.02847976
vn -0.059302 0.9965171 0.05862501
vn -0.1665792 0.9853056 -0.03774074
vn -0.05960804 0.9976649 0.03334097
vn 0.07513516 0.9911488 0.1094471
vn 0.03797376 0.9991372 -0.01682071
vn -0.0428081 0.9985167 -0.0336421
vn -0.05652298 0.9973958 -0.04479734
vn -0.02528333 0.9994761 -0.02020536
vn -0.008272471 0.999652 -0.02504664
vn -0.02804208 0.9991508 -0.03019005
vn -0.0423329 0.9988614 -0.02199314
vn -0.03390779 0.9983262 -0.0468509
vn -0.0468122 0.9969819 -0.06193249
vn -0.05559697 0.9983183 -0.01641965
vn -0.068115 0.9971898 -0.03118808
vn -0.06988999 0.9975538 -0.001358762
vn -0.06784202 0.9976399 -0.01058671
vn -0.09551933 0.9953256 -0.01425233
vn -0.07249225 0.9971252 0.02205114
vn -0.07709619 0.9955953 0.05335115
g Cliff_Path_0
f 3/3/3 2/2/2 1/1/1
f 4/4/4 3/3/3 1/1/1
f 4/4/4 1/1/1 5/5/5
f 6/6/6 4/4/4 5/5/5
f 6/6/6 5/5/5 7/7/7
f 8/8/8 6/6/6 7/7/7
f 11/11/11 10/10/10 9/9/9
f 10/10/10 12/12/12 9/9/9
f 10/10/10 13/13/13 12/12/12
f 13/13/13 14/14/14 12/12/12
f 13/13/13 15/15/15 14/14/14
f 15/15/15 16/16/16 14/14/14
f 19/19/19 18/18/18 17/17/17
f 18/18/18 20/20/20 17/17/17
f 18/18/18 21/21/21 20/20/20
f 21/21/21 22/22/22 20/20/20
f 21/21/21 23/23/23 22/22/22
f 23/23/23 24/24/24 22/22/22
f 27/27/27 26/26/26 25/25/25
f 28/28/28 27/27/27 25/25/25
f 28/28/28 25/25/25 29/29/29
f 28/28/28 30/30/30 27/27/27
f 30/30/30 31/31/31 27/27/27
f 32/32/32 28/28/28 29/29/29
f 28/28/28 32/32/32 30/30/30
f 32/32/32 29/29/29 33/33/33
f 34/34/34 32/32/32 33/33/33
f 32/32/32 34/34/34 35/35/35
f 32/32/32 35/35/35 30/30/30
f 34/34/34 36/36/36 35/35/35
f 35/35/35 36/36/36 37/37/37
f 38/38/38 35/35/35 37/37/37
f 30/30/30 35/35/35 38/38/38
f 38/38/38 37/37/37 39/39/39
f 40/40/40 38/38/38 39/39/39
f 31/31/31 30/30/30 41/41/41
f 41/41/41 30/30/30 38/38/38
f 41/41/41 38/38/38 40/40/40
f 42/42/42 31/31/31 41/41/41
f 43/43/43 41/41/41 40/40/40
f 42/42/42 41/41/41 43/43/43
f 44/44/44 42/42/42 43/43/43
f 47/47/47 46/46/46 45/45/45
f 48/48/48 47/47/47 45/45/45
f 48/48/48 45/45/45 49/49/49
f 45/45/45 50/50/50 49/49/49
f 50/50/50 51/51/51 49/49/49
f 48/48/48 52/52/52 47/47/47
f 52/52/52 53/53/53 47/47/47
f 51/51/51 54/54/54 49/49/49
f 51/51/51 55/55/55 54/54/54
f 48/48/48 49/49/49 56/56/56
f 52/52/52 48/48/48 56/56/56
f 49/49/49 54/54/54 56/56/56
f 52/52/52 57/57/57 53/53/53
f 57/57/57 58/58/58 53/53/53
f 57/57/57 52/52/52 59/59/59
f 52/52/52 56/56/56 59/59/59
f 56/56/56 60/60/60 59/59/59
f 54/54/54 60/60/60 56/56/56
f 60/60/60 61/61/61 59/59/59
f 55/55/55 62/62/62 54/54/54
f 54/54/54 62/62/62 60/60/60
f 60/60/60 63/63/63 61/61/61
f 62/62/62 63/63/63 60/60/60
f 63/63/63 64/64/64 61/61/61
f 65/65/65 64/64/64 63/63/63
f 66/66/66 62/62/62 55/55/55
f 67/67/67 66/66/66 55/55/55
f 67/67/67 68/68/68 66/66/66
f 69/69/69 63/63/63 62/62/62
f 69/69/69 65/65/65 63/63/63
f 66/66/66 69/69/69 62/62/62
f 68/68/68 70/70/70 66/66/66
f 66/66/66 70/70/70 69/69/69
f 68/68/68 71/71/71 70/70/70
f 69/69/69 72/72/72 65/65/65
f 70/70/70 72/72/72 69/69/69
f 72/72/72 73/73/73 65/65/65
f 71/71/71 74/74/74 70/70/70
f 70/70/70 74/74/74 72/72/72
f 71/71/71 75/75/75 74/74/74
f 75/75/75 76/76/76 74/74/74
f 72/72/72 77/77/77 73/73/73
f 74/74/74 77/77/77 72/72/72
f 74/74/74 76/76/76 77/77/77
f 77/77/77 78/78/78 73/73/73
f 76/76/76 79/79/79 77/77/77
f 77/77/77 79/79/79 78/78/78
f 79/79/79 80/80/80 78/78/78
