g Cliff_Rocks1
v 0.6562534 0.44796747 -0.92298543
v 1.5112894 0.24311815 -0.52241784
v 1.4849737 0.6240763 -0.4628439
v 0.6290528 0.6921152 -0.87741536
v -0.1002073 0.27104342 -1.1071578
v 1.4697745 0.8145654 -0.42107508
v -0.062173545 0.73307043 -1.0131856
v -0.40325508 0.2678846 -0.9430379
v 0.620084 0.85709614 -0.8309896
v 1.4549569 1.0002593 -0.38035855
v 0.6124995 1.2050029 -0.7799923
v 1.3112011 0.9914323 -0.06354091
v -0.33579186 0.6531286 -0.8638033
v -0.7318748 0.26147935 -0.66785604
v 0.032254096 0.8169382 -0.97818077
v -0.00011605301 1.1529938 -0.5720309
v 1.1313761 0.98045796 0.33050814
v -0.6365949 0.6234312 -0.5926022
v -0.9133558 0.24763483 -0.17990626
v -0.23330712 0.8395515 -0.8195333
v 0.16121404 0.9453434 -0.9323604
v -0.1170781 0.9806616 -0.7343404
v -0.5304097 0.81185186 -0.5561251
v -0.19899927 1.1138114 -0.43014246
v -0.7521442 0.5980376 -0.23751003
v -0.9434791 0.23705362 0.17109531
v -0.349436 1.0478257 -0.503038
v -0.6312424 0.85399985 -0.17883389
v -0.83735627 0.5823755 0.21326327
v -0.8518577 0.21916474 0.7357145
v -0.26179543 1.0829716 -0.022740133
v 0.95867085 0.9699269 0.70866734
v 0.804721 0.9596194 1.0757548
v -0.44816154 1.0418109 -0.16011257
v -0.34242392 1.0535445 0.44802645
v 0.66020775 0.95057625 1.3996841
v -0.70269203 0.87332344 0.28026035
v -0.76934004 0.56712407 0.71930397
v -0.32972953 0.20357187 1.1385318
v -0.52040017 1.0350618 0.31157443
v -0.64091015 0.8033316 0.6841892
v -0.22322977 1.0112966 0.87882483
v 0.62575966 0.7594647 1.4474337
v -0.4963481 0.92249876 0.6383664
v -0.2674356 0.79654205 1.0301639
v -0.28911477 0.62001157 1.0669217
v 0.543469 0.18453707 1.5826223
v 0.5904221 0.5634179 1.4964163
v -0.4428312 -1.141744 1.2975376
v 0.5136695 -0.244716 1.6439834
v 0.45270637 -1.1603192 1.7221518
v -0.3610794 -0.2250163 1.1893924
v -1.0257442 -1.1228871 0.8005985
v -0.9147343 -0.20815565 0.762338
v -1.0039878 -0.18901838 0.15728672
v -1.1463312 -1.1003832 0.1084354
v -1.0533428 -1.0841737 -0.45576626
v -0.9605812 -0.17364438 -0.35812894
v -0.86869323 -1.0744218 -0.810942
v -0.78225416 -0.1636833 -0.72104573
v -0.45720038 -0.1568054 -1.0130062
v -0.52091604 -1.0672532 -1.1148604
v -0.21784212 -1.0637333 -1.2908175
v -0.14618638 -0.15248686 -1.1905965
v 0.681442 -1.0746914 -1.1152511
v 0.67195535 -0.16407926 -1.0176973
v 1.5428085 -1.0938189 -0.665732
v 1.5335674 -0.1828868 -0.59013516
vt 0.23857468 0.44975457
vt 0.24176691 0.4973148
vt 0.25346673 0.50130224
vt 0.2461909 0.4479543
vt 0.2337129 0.3875555
vt 0.26726997 0.5152688
vt 0.24660265 0.39784524
vt 0.25614947 0.33660173
vt 0.25251517 0.44989106
vt 0.27913234 0.5212039
vt 0.26434863 0.4558565
vt 0.3069686 0.51369536
vt 0.26110458 0.35768968
vt 0.279612 0.31852272
vt 0.24941418 0.40542847
vt 0.27818277 0.4070169
vt 0.33521223 0.49329847
vt 0.28288287 0.33848763
vt 0.30783272 0.30439252
vt 0.2622164 0.38111305
vt 0.25354075 0.417622
vt 0.26671493 0.39495346
vt 0.28384095 0.35486963
vt 0.28707543 0.3887928
vt 0.30238864 0.32819566
vt 0.3235261 0.29932693
vt 0.2838387 0.37507412
vt 0.30353117 0.34602067
vt 0.32531348 0.31802097
vt 0.34917378 0.29313323
vt 0.31037235 0.3754202
vt 0.35366833 0.47777045
vt 0.37074238 0.43055096
vt 0.30323225 0.36385792
vt 0.33535743 0.35454693
vt 0.38451642 0.3916738
vt 0.32795295 0.3356608
vt 0.3498462 0.3123649
vt 0.3680924 0.3029784
vt 0.32919383 0.3481983
vt 0.34850967 0.32687375
vt 0.35659724 0.34593734
vt 0.3866137 0.3804667
vt 0.34611744 0.337473
vt 0.36374477 0.33271044
vt 0.36541677 0.32565475
vt 0.39370528 0.34857965
vt 0.38876516 0.3689702
vt 0.37503126 0.22801833
vt 0.396948 0.3261405
vt 0.40976554 0.27878362
vt 0.36989 0.28075317
vt 0.34676492 0.21782482
vt 0.34818128 0.26910105
vt 0.3220159 0.27611026
vt 0.3181407 0.22579187
vt 0.28992265 0.23537177
vt 0.2983542 0.28386244
vt 0.26640013 0.24867499
vt 0.2753679 0.29587132
vt 0.2504308 0.31170905
vt 0.23622626 0.27263188
vt 0.19960341 0.35532966
vt 0.22105531 0.3790285
vt 0.19591796 0.43537834
vt 0.22070037 0.44560465
vt 0.20323676 0.48556516
vt 0.2288062 0.4930113
vn 0.33776242 0.1713627 -0.92550063
vn 0.4459149 0.16418882 -0.87988746
vn 0.4426531 0.20624925 -0.87265086
vn 0.3365406 0.20548342 -0.9189761
vn 0.0039779 0.19312367 -0.9811663
vn 0.4413358 0.20075725 -0.87459666
vn -0.06252062 0.26857463 -0.9612278
vn -0.5728937 0.22902492 -0.7869819
vn 0.3748524 0.19355376 -0.90665466
vn 0.292313 0.9183608 -0.26677066
vn 0.18364047 0.960385 -0.20961094
vn 0.06166567 0.9827711 0.17423642
vn -0.57140714 0.32904723 -0.75181234
vn -0.7985196 0.25388953 -0.5458082
vn -0.011617503 0.39272568 -0.9195823
vn -0.023644034 0.99969923 -0.0065206434
vn 0.053080566 0.9941909 0.09363159
vn -0.78480214 0.37620598 -0.49249834
vn -0.9468888 0.24873166 -0.20379926
vn -0.5013004 0.57882416 -0.64316446
vn -0.05564943 0.5281911 -0.84730005
vn -0.35813135 0.7305024 -0.58147055
vn -0.7048682 0.56775004 -0.42523018
vn -0.010839565 0.9991327 0.040206004
vn -0.89368004 0.39159298 -0.21906847
vn -0.9760494 0.21328911 0.042838767
vn -0.5298904 0.773254 -0.34827346
vn -0.7945466 0.57917774 -0.18234251
vn -0.93181926 0.3625589 0.016242113
vn -0.8280985 0.18566652 0.5289432
vn 0.020054182 0.9981013 0.05823779
vn 0.053580903 0.9964328 0.065198235
vn 0.04528177 0.99686474 0.06488536
vn -0.53283244 0.83922946 -0.10855155
vn -0.021200806 0.99620855 0.08437502
vn -0.15066397 0.90239227 0.40371835
vn -0.81412333 0.5802443 0.022798171
vn -0.8058822 0.29047868 0.5159225
vn -0.504021 0.17436044 0.84590846
vn -0.48057374 0.8750726 0.057417985
vn -0.73740464 0.5117574 0.44083887
vn -0.15309846 0.9365271 0.31540126
vn -0.40056327 0.37730643 0.8349784
vn -0.5427955 0.7558387 0.36617064
vn -0.46595082 0.40917975 0.7845138
vn -0.49036276 0.23909143 0.8380809
vn -0.43933716 0.18270126 0.8795472
vn -0.42024726 0.23445813 0.8765966
vn -0.51995146 0.1265137 0.8447749
vn -0.44251323 0.13180757 0.8870225
vn -0.43917513 0.12467268 0.88970894
vn -0.5186308 0.1319152 0.8447606
vn -0.84385335 0.13968393 0.51807326
vn -0.84183264 0.14286466 0.5204876
vn -0.9893735 0.1390311 0.042548884
vn -0.99004376 0.13690706 0.032707185
vn -0.9542323 0.13690525 -0.2658904
vn -0.95368665 0.15151171 -0.25985754
vn -0.7799286 0.13495728 -0.6111447
vn -0.786524 0.15677333 -0.5973292
vn -0.58513147 0.15324432 -0.7963274
vn -0.5900857 0.13285209 -0.79633486
vn -0.012246701 0.115281016 -0.9932574
vn 0.009019761 0.13605545 -0.99066013
vn 0.33470702 0.09464956 -0.93755674
vn 0.3365224 0.116952084 -0.9343847
vn 0.4534087 0.088963106 -0.8868518
vn 0.45076543 0.112815164 -0.88548476
g Cliff_Rocks1_0
f 3/3/3 2/2/2 1/1/1
f 4/4/4 3/3/3 1/1/1
f 4/4/4 1/1/1 5/5/5
f 6/6/6 3/3/3 4/4/4
f 7/7/7 4/4/4 5/5/5
f 7/7/7 5/5/5 8/8/8
f 9/9/9 6/6/6 4/4/4
f 9/9/9 4/4/4 7/7/7
f 10/10/10 6/6/6 9/9/9
f 11/11/11 10/10/10 9/9/9
f 12/12/12 10/10/10 11/11/11
f 13/13/13 7/7/7 8/8/8
f 8/8/8 14/14/14 13/13/13
f 15/15/15 9/9/9 7/7/7
f 11/11/11 9/9/9 15/15/15
f 16/16/16 12/12/12 11/11/11
f 17/17/17 12/12/12 16/16/16
f 14/14/14 18/18/18 13/13/13
f 14/14/14 19/19/19 18/18/18
f 13/13/13 20/20/20 7/7/7
f 20/20/20 15/15/15 7/7/7
f 21/21/21 11/11/11 15/15/15
f 16/16/16 11/11/11 21/21/21
f 22/22/22 21/21/21 15/15/15
f 20/20/20 22/22/22 15/15/15
f 22/22/22 16/16/16 21/21/21
f 20/20/20 13/13/13 23/23/23
f 13/13/13 18/18/18 23/23/23
f 20/20/20 23/23/23 22/22/22
f 24/24/24 17/17/17 16/16/16
f 24/24/24 16/16/16 22/22/22
f 19/19/19 25/25/25 18/18/18
f 25/25/25 19/19/19 26/26/26
f 23/23/23 27/27/27 22/22/22
f 27/27/27 24/24/24 22/22/22
f 23/23/23 18/18/18 28/28/28
f 18/18/18 25/25/25 28/28/28
f 23/23/23 28/28/28 27/27/27
f 29/29/29 25/25/25 26/26/26
f 28/28/28 25/25/25 29/29/29
f 26/26/26 30/30/30 29/29/29
f 24/24/24 31/31/31 17/17/17
f 31/31/31 32/32/32 17/17/17
f 33/33/33 32/32/32 31/31/31
f 27/27/27 34/34/34 24/24/24
f 28/28/28 34/34/34 27/27/27
f 34/34/34 31/31/31 24/24/24
f 35/35/35 33/33/33 31/31/31
f 35/35/35 31/31/31 34/34/34
f 36/36/36 33/33/33 35/35/35
f 34/34/34 28/28/28 37/37/37
f 37/37/37 28/28/28 29/29/29
f 30/30/30 38/38/38 29/29/29
f 30/30/30 39/39/39 38/38/38
f 40/40/40 34/34/34 37/37/37
f 40/40/40 35/35/35 34/34/34
f 37/37/37 29/29/29 41/41/41
f 37/37/37 41/41/41 40/40/40
f 29/29/29 38/38/38 41/41/41
f 42/42/42 36/36/36 35/35/35
f 43/43/43 36/36/36 42/42/42
f 40/40/40 44/44/44 35/35/35
f 41/41/41 44/44/44 40/40/40
f 44/44/44 42/42/42 35/35/35
f 44/44/44 41/41/41 42/42/42
f 41/41/41 45/45/45 42/42/42
f 41/41/41 38/38/38 45/45/45
f 45/45/45 43/43/43 42/42/42
f 39/39/39 46/46/46 38/38/38
f 38/38/38 46/46/46 45/45/45
f 45/45/45 46/46/46 43/43/43
f 46/46/46 39/39/39 47/47/47
f 46/46/46 48/48/48 43/43/43
f 48/48/48 46/46/46 47/47/47
g Cliff_Rocks1_1
f 51/51/51 50/50/50 49/49/49
f 50/50/50 52/52/52 49/49/49
f 53/53/53 49/49/49 52/52/52
f 39/39/39 52/52/52 50/50/50
f 47/47/47 39/39/39 50/50/50
f 52/52/52 39/39/39 30/30/30
f 54/54/54 52/52/52 30/30/30
f 54/54/54 53/53/53 52/52/52
f 54/54/54 30/30/30 26/26/26
f 53/53/53 54/54/54 55/55/55
f 55/55/55 54/54/54 26/26/26
f 56/56/56 53/53/53 55/55/55
f 56/56/56 55/55/55 57/57/57
f 26/26/26 19/19/19 55/55/55
f 55/55/55 58/58/58 57/57/57
f 19/19/19 58/58/58 55/55/55
f 59/59/59 57/57/57 58/58/58
f 60/60/60 58/58/58 19/19/19
f 60/60/60 59/59/59 58/58/58
f 14/14/14 60/60/60 19/19/19
f 14/14/14 8/8/8 60/60/60
f 60/60/60 61/61/61 59/59/59
f 8/8/8 61/61/61 60/60/60
f 61/61/61 62/62/62 59/59/59
f 63/63/63 62/62/62 61/61/61
f 64/64/64 61/61/61 8/8/8
f 64/64/64 63/63/63 61/61/61
f 5/5/5 64/64/64 8/8/8
f 63/63/63 64/64/64 65/65/65
f 5/5/5 1/1/1 64/64/64
f 64/64/64 66/66/66 65/65/65
f 1/1/1 66/66/66 64/64/64
f 65/65/65 66/66/66 67/67/67
f 1/1/1 2/2/2 66/66/66
f 66/66/66 68/68/68 67/67/67
f 2/2/2 68/68/68 66/66/66
