g Cliff_Rocks9
v -0.10848689 0.8304204 -4.8536615
v 2.1828766 0.68912643 -5.6497283
v 2.780511 1.7471403 -4.45639
v -2.9771397 0.6909489 -3.2211456
v -2.7115467 1.7489622 -1.076159
v 3.3962653 1.9267137 -3.2268798
v -2.4718022 -0.81390977 -4.810832
v -0.20222346 -0.6689686 -6.137185
v -4.2630014 0.69165266 -1.8443561
v -2.3242927 2.1216385 0.4662036
v 3.9927251 1.9263096 -2.0358856
v -3.447503 -1.3648597 -4.5415087
v -0.5727612 -1.1874516 -5.941516
v -3.956441 1.0612974 0.10629271
v -4.8107343 -0.37578318 -2.0098193
v -4.0437737 -2.2150702 -4.4499598
v -0.9266491 -2.0975337 -6.1072245
v -5.1103063 -1.1658992 -2.115608
v -5.446039 -2.1768029 -2.2416472
v -4.4659333 -0.41300243 0.05090819
v -4.740405 -1.2303846 -0.00033265393
v -5.046297 -2.2747414 -0.06838136
v -3.4135144 1.2951139 1.3544421
v -4.017207 -0.4033735 1.4592383
v -4.279557 -1.2130944 1.4930005
v -4.574267 -2.248044 1.5182067
v -2.7986662 1.2934984 2.4356213
v -3.3362372 -0.42521006 2.63583
v -3.566018 -1.2496028 2.7116883
v -3.8262029 -2.302538 2.7789867
v -2.4509838 -1.3083104 4.1221876
v -2.6810534 -2.3907335 4.282971
v -2.2529864 -0.4598701 3.9617114
v -1.0914006 -1.3523414 4.822135
v -1.1641393 -2.4573512 5.0855174
v -1.8103552 2.1454685 1.2883295
v 4.6068144 1.7459055 -0.8096832
v -0.6503814 1.7473155 2.371809
v 5.346515 0.6867619 0.66732603
v -1.9193597 1.0572544 3.604597
v -1.0288683 -0.4854878 4.574596
v -0.9162652 0.68755597 4.081267
v 0.19115299 0.6888292 3.9400342
v 5.5276384 -0.500511 1.0289819
v 0.26349917 -0.49973154 4.3866944
v 5.6215143 -1.3776978 1.2164301
v 0.30754703 -1.3779073 4.603845
v 5.7223234 -2.4953783 1.4177233
v 0.355777 -2.496819 4.8311973
v 5.769211 -3.6353204 1.511347
v 0.41519594 -3.6289535 4.914485
v 5.8296247 -5.177702 1.6319782
v 0.4954804 -5.1606603 5.0180883
v -1.1774523 -5.143568 5.244128
v -1.1707201 -3.5989046 5.157085
v -2.8859715 -5.1253204 4.328535
v -2.769937 -3.5526628 4.3060617
v -4.107407 -5.1047873 2.6547828
v -3.9483361 -3.4929757 2.7290137
v -4.858577 -5.093934 1.3512243
v -4.698378 -3.456871 1.449038
v -5.360068 -5.118195 -0.29094973
v -5.183275 -3.4825625 -0.16244753
v -5.780577 -5.0893683 -2.4809606
v -5.59197 -3.413736 -2.3438861
v -5.440195 -4.6611943 -4.4478855
v -4.7239103 -3.3635616 -4.4354334
v -1.68448 -4.893476 -6.4432135
v -1.2865845 -3.330937 -6.2468553
vt 0.21784487 0.6922698
vt 0.23136422 0.7080778
vt 0.23978014 0.69605756
vt 0.19931896 0.6706076
vt 0.20947316 0.660678
vt 0.24734592 0.6857584
vt 0.18194686 0.6871631
vt 0.20640223 0.71231997
vt 0.19514686 0.6545739
vt 0.21820766 0.6517426
vt 0.25578493 0.67427975
vt 0.16909471 0.69941115
vt 0.19793677 0.7271534
vt 0.198235 0.64357847
vt 0.16965169 0.6548821
vt 0.15266863 0.7150651
vt 0.18711726 0.74611175
vt 0.15078998 0.6551101
vt 0.12668315 0.65540147
vt 0.17295596 0.6348598
vt 0.15425414 0.6284096
vt 0.13035168 0.62016565
vt 0.20552796 0.6316124
vt 0.1882099 0.6111983
vt 0.17539775 0.5960957
vt 0.15902278 0.57679325
vt 0.21492681 0.620392
vt 0.20403644 0.5957775
vt 0.19597957 0.5775673
vt 0.18568224 0.55429316
vt 0.2236776 0.5650269
vt 0.22086453 0.53981006
vt 0.22587863 0.5847571
vt 0.25213426 0.5645188
vt 0.2582251 0.54015505
vt 0.22827831 0.64121044
vt 0.2657193 0.66100246
vt 0.2392131 0.63005334
vt 0.27763343 0.647477
vt 0.2288537 0.61142623
vt 0.24736863 0.5835816
vt 0.24092698 0.6093486
vt 0.25194672 0.6153631
vt 0.29675415 0.6370027
vt 0.26593828 0.5918975
vt 0.31089997 0.62925375
vt 0.27628943 0.5745373
vt 0.32897946 0.61934996
vt 0.28951907 0.5523495
vt 0.3456009 0.6062634
vt 0.3059644 0.53631514
vt 0.36811122 0.5885404
vt 0.32823622 0.5145999
vt 0.28177345 0.48319343
vt 0.2682274 0.5159603
vt 0.22281176 0.47335565
vt 0.22169162 0.51158315
vt 0.16641805 0.49594787
vt 0.17749967 0.5295106
vt 0.12846047 0.5271563
vt 0.14604126 0.55570966
vt 0.0957059 0.5883281
vt 0.11563569 0.6066425
vt 0.077079035 0.6439806
vt 0.10561351 0.65055037
vt 0.09685223 0.7342613
vt 0.12896028 0.7232188
vt 0.14339393 0.7911068
vt 0.16854551 0.7652237
vn -0.28041267 0.82580346 -0.48930305
vn 0.076155975 0.9697021 -0.23211658
vn 0.17554943 0.98445094 0.00621377
vn -0.08040794 0.98578215 -0.14753957
vn 0.13643116 0.99063826 0.004741043
vn 0.19742064 0.9802736 -0.009416994
vn -0.496423 0.50645816 -0.7050278
vn -0.43637255 0.5467978 -0.7145566
vn -0.11267765 0.9870645 -0.114049725
vn 0.14912347 0.9873976 0.05299215
vn 0.19738941 0.9800252 -0.024246728
vn -0.5968064 0.4042431 -0.6931159
vn -0.45725477 0.24866413 -0.8538643
vn 0.0031598925 0.9984363 0.055811603
vn -0.8279545 0.46217299 -0.3176279
vn -0.7686586 0.16067307 -0.61915106
vn -0.45297015 0.2604155 -0.852644
vn -0.8702166 0.42296758 -0.25262925
vn -0.96021026 0.15108894 -0.2348797
vn -0.9189887 0.3351928 0.20761883
vn -0.9323737 0.2874823 0.21916464
vn -0.9673967 0.113449745 0.22643504
vn 0.019875744 0.98577094 0.16691467
vn -0.8681317 0.30967417 0.38787806
vn -0.8823398 0.27048868 0.38511357
vn -0.9160025 0.09591844 0.38953695
vn -0.024150971 0.97598517 0.21649423
vn -0.779224 0.29919013 0.55072254
vn -0.78865963 0.25748238 0.5583178
vn -0.82301706 0.07453179 0.5631056
vn -0.6190632 0.25573426 0.74253666
vn -0.6493597 0.054034952 0.75855935
vn -0.6054179 0.30542234 0.7349737
vn -0.15884848 0.24829894 0.95557046
vn -0.16206291 0.049965765 0.98551464
vn 0.10715152 0.99059206 0.08512317
vn 0.19929108 0.9797549 -0.019062443
vn 0.04049607 0.9970503 0.065198064
vn 0.32297787 0.9388332 0.11948821
vn -0.10077407 0.96621865 0.23720439
vn -0.14778864 0.32053882 0.9356353
vn -0.11840174 0.94236237 0.31294453
vn 0.088201806 0.97071695 0.22344801
vn 0.5147098 0.28653625 0.80806607
vn 0.45457014 0.2913565 0.841711
vn 0.5253536 0.21005213 0.8245493
vn 0.46259227 0.21502756 0.8600997
vn 0.7446185 0.11885506 0.6568233
vn 0.33060285 0.08330773 0.94008595
vn 0.534365 0.087783955 0.84068304
vn 0.46217382 0.084728174 0.88273245
vn 0.5343403 0.08579466 0.8409041
vn 0.46275684 0.08273506 0.88261604
vn -0.19176944 0.05951708 0.9796337
vn -0.1910324 0.062104985 0.97961706
vn -0.664119 0.056300856 0.74550396
vn -0.6579659 0.058432564 0.7507773
vn -0.8311469 0.059074644 0.552906
vn -0.827219 0.06108713 0.558549
vn -0.92061937 0.070024766 0.38413084
vn -0.91708964 0.07157194 0.39220423
vn -0.96979386 0.08721156 0.2278029
vn -0.96908474 0.089007676 0.23011367
vn -0.9816492 0.19046617 -0.009349432
vn -0.97560865 0.20576695 -0.07647094
vn -0.7235154 0.28597906 -0.6282846
vn -0.64502436 0.27794343 -0.7118224
vn -0.4491707 0.23784812 -0.8612049
vn -0.453426 0.24125233 -0.8580222
g Cliff_Rocks9_0
f 3/3/3 2/2/2 1/1/1
f 1/1/1 4/4/4 3/3/3
f 4/4/4 5/5/5 3/3/3
f 6/6/6 3/3/3 5/5/5
f 4/4/4 1/1/1 7/7/7
f 1/1/1 8/8/8 7/7/7
f 5/5/5 4/4/4 9/9/9
f 9/9/9 4/4/4 7/7/7
f 10/10/10 6/6/6 5/5/5
f 11/11/11 6/6/6 10/10/10
f 7/7/7 8/8/8 12/12/12
f 8/8/8 13/13/13 12/12/12
f 14/14/14 5/5/5 9/9/9
f 10/10/10 5/5/5 14/14/14
f 15/15/15 9/9/9 7/7/7
f 15/15/15 7/7/7 12/12/12
f 14/14/14 9/9/9 15/15/15
f 12/12/12 13/13/13 16/16/16
f 13/13/13 17/17/17 16/16/16
f 18/18/18 12/12/12 16/16/16
f 18/18/18 15/15/15 12/12/12
f 19/19/19 18/18/18 16/16/16
f 20/20/20 14/14/14 15/15/15
f 20/20/20 15/15/15 18/18/18
f 21/21/21 18/18/18 19/19/19
f 21/21/21 20/20/20 18/18/18
f 22/22/22 21/21/21 19/19/19
f 23/23/23 14/14/14 20/20/20
f 23/23/23 10/10/10 14/14/14
f 24/24/24 20/20/20 21/21/21
f 24/24/24 23/23/23 20/20/20
f 25/25/25 21/21/21 22/22/22
f 25/25/25 24/24/24 21/21/21
f 26/26/26 25/25/25 22/22/22
f 23/23/23 27/27/27 10/10/10
f 27/27/27 23/23/23 24/24/24
f 28/28/28 24/24/24 25/25/25
f 28/28/28 27/27/27 24/24/24
f 29/29/29 25/25/25 26/26/26
f 29/29/29 28/28/28 25/25/25
f 30/30/30 29/29/29 26/26/26
f 31/31/31 29/29/29 30/30/30
f 32/32/32 31/31/31 30/30/30
f 33/33/33 28/28/28 29/29/29
f 31/31/31 33/33/33 29/29/29
f 34/34/34 31/31/31 32/32/32
f 35/35/35 34/34/34 32/32/32
f 27/27/27 36/36/36 10/10/10
f 36/36/36 11/11/11 10/10/10
f 37/37/37 11/11/11 36/36/36
f 38/38/38 37/37/37 36/36/36
f 38/38/38 36/36/36 27/27/27
f 39/39/39 37/37/37 38/38/38
f 40/40/40 27/27/27 28/28/28
f 33/33/33 40/40/40 28/28/28
f 40/40/40 38/38/38 27/27/27
f 41/41/41 33/33/33 31/31/31
f 34/34/34 41/41/41 31/31/31
f 42/42/42 40/40/40 33/33/33
f 40/40/40 42/42/42 38/38/38
f 41/41/41 42/42/42 33/33/33
f 43/43/43 39/39/39 38/38/38
f 42/42/42 43/43/43 38/38/38
f 43/43/43 42/42/42 41/41/41
f 44/44/44 39/39/39 43/43/43
f 45/45/45 43/43/43 41/41/41
f 45/45/45 44/44/44 43/43/43
f 45/45/45 41/41/41 34/34/34
f 46/46/46 44/44/44 45/45/45
f 47/47/47 45/45/45 34/34/34
f 47/47/47 46/46/46 45/45/45
f 47/47/47 34/34/34 35/35/35
f 48/48/48 46/46/46 47/47/47
f 49/49/49 47/47/47 35/35/35
f 49/49/49 48/48/48 47/47/47
g Cliff_Rocks9_1
f 50/50/50 48/48/48 49/49/49
f 51/51/51 50/50/50 49/49/49
f 52/52/52 50/50/50 51/51/51
f 53/53/53 52/52/52 51/51/51
f 53/53/53 51/51/51 54/54/54
f 51/51/51 49/49/49 55/55/55
f 51/51/51 55/55/55 54/54/54
f 49/49/49 35/35/35 55/55/55
f 54/54/54 55/55/55 56/56/56
f 55/55/55 35/35/35 57/57/57
f 55/55/55 57/57/57 56/56/56
f 35/35/35 32/32/32 57/57/57
f 56/56/56 57/57/57 58/58/58
f 57/57/57 32/32/32 59/59/59
f 57/57/57 59/59/59 58/58/58
f 32/32/32 30/30/30 59/59/59
f 58/58/58 59/59/59 60/60/60
f 59/59/59 30/30/30 61/61/61
f 59/59/59 61/61/61 60/60/60
f 30/30/30 26/26/26 61/61/61
f 60/60/60 61/61/61 62/62/62
f 61/61/61 26/26/26 63/63/63
f 61/61/61 63/63/63 62/62/62
f 26/26/26 22/22/22 63/63/63
f 62/62/62 63/63/63 64/64/64
f 63/63/63 22/22/22 65/65/65
f 63/63/63 65/65/65 64/64/64
f 22/22/22 19/19/19 65/65/65
f 64/64/64 65/65/65 66/66/66
f 65/65/65 19/19/19 67/67/67
f 65/65/65 67/67/67 66/66/66
f 68/68/68 66/66/66 67/67/67
f 19/19/19 16/16/16 67/67/67
f 69/69/69 68/68/68 67/67/67
f 69/69/69 67/67/67 16/16/16
f 17/17/17 69/69/69 16/16/16
