g Clover_11
v 0.1076561 -0.02627659 0.2050642
v 0.1805114 -0.02234584 0.2640249
v 0.1129351 -0.02049476 0.2735775
v 0.1733813 -0.02273434 0.1967686
v 0.0940814 -0.008199871 0.14215
v 0.2407976 -0.003149331 0.2594087
v 0.1605607 -0.00676012 0.1333516
v 0.2333933 -0.002829373 0.1923123
v 0.2264916 0.01211643 0.1272498
v -0.1826912 -0.02134031 0.4810598
v -0.1283467 -0.02760202 0.5460537
v -0.1892043 -0.01702112 0.5430371
v -0.1229992 -0.02687073 0.4850362
v -0.1813657 -0.003217876 0.4233103
v -0.07205987 -0.01839226 0.5527954
v -0.1212167 -0.01073653 0.4269211
v -0.06687224 -0.0169754 0.491915
v -0.05974209 -0.002555192 0.4333199
v 0.2228808 -0.02150029 0.1541935
v 0.3446644 -0.001801014 0.14976
v 0.2842183 0.0001415014 0.2165136
v 0.2820015 -0.01485008 0.08890253
v 0.1556245 -0.005000412 0.09843218
v 0.3999001 0.02980465 0.08876538
v 0.2152479 -0.001755297 0.03256989
v 0.3370544 0.01792109 0.02811354
v 0.2750314 0.0293476 -0.03466362
v -0.1467891 -0.02931601 0.388231
v -0.1346771 -0.02549958 0.3356234
v -0.1134923 -0.02296287 0.3688059
v -0.1675854 -0.02904177 0.3555055
v -0.1783948 -0.02312285 0.4096671
v -0.1543763 -0.01702112 0.3042462
v -0.199351 -0.0239684 0.3767588
v -0.1872389 -0.02015197 0.324174
v -0.2211528 -0.01578707 0.3427535
v 0.1982682 0.007660151 -0.4136347
v 0.1684222 -0.0221402 -0.3507433
v 0.1469404 -0.001938105 -0.3977062
v 0.2187216 -0.009342492 -0.3661691
v 0.2450482 0.03151864 -0.427278
v 0.185859 -0.02977306 -0.3017922
v 0.265913 0.01325911 -0.380018
v 0.2360442 -0.01654118 -0.3171266
v 0.2856809 0.003935099 -0.3272505
v -0.2539925 -0.01670116 0.2937567
v -0.1877188 -0.01640409 0.3058459
v -0.2268203 -0.007948458 0.3342294
v -0.2153938 -0.02106607 0.266196
v -0.2833357 -0.007331431 0.2569177
v -0.150537 -0.008908272 0.2806391
v -0.2445314 -0.0133189 0.229037
v -0.1782805 -0.01302183 0.2411034
v -0.2043101 -0.006691575 0.201065
v 0.2436085 -0.02872181 -0.2727004
v 0.3365288 -0.004063487 -0.2828928
v 0.2940679 -0.01363885 -0.2270629
v 0.2845839 -0.01526141 -0.3271362
v 0.1866817 -0.02661937 -0.3121446
v 0.3732992 0.02061778 -0.3332608
v 0.2282513 -0.01471293 -0.3671289
v 0.3211716 0.009945393 -0.3773214
v 0.2681755 0.01056248 -0.4226617
v 0.168605 -0.01229054 -0.198611
v 0.1319031 -0.02655083 -0.08352333
v 0.09021926 -0.01635838 -0.1601722
v 0.2091919 -0.018278 -0.1220306
v 0.2421231 0.01037961 -0.2373468
v 0.1692906 -0.02035767 -0.007102907
v 0.2831442 0.002723873 -0.1607207
v 0.2464194 -0.01153642 -0.04563308
v 0.3248052 0.008002937 -0.07822144
v 0.177152 -0.02220875 -0.2473792
v 0.1737926 -0.01859796 -0.2978158
v 0.2009648 -0.01137644 -0.2739116
v 0.150414 -0.02634513 -0.2708493
v 0.1551217 -0.01932925 -0.2189502
v 0.1481973 -0.0137074 -0.320006
v 0.1282009 -0.02467686 -0.2425801
v 0.1248415 -0.02104324 -0.2929938
v 0.1000689 -0.0205633 -0.2665529
v 0.1429182 -0.02490538 0.06732929
v 0.2032044 -0.01930642 0.06956887
v 0.1708674 -0.01466727 0.09914064
v 0.1744553 -0.02693933 0.03821456
v 0.1114725 -0.0235799 0.0375061
v 0.2324791 -0.01375312 0.04175681
v 0.1433524 -0.0266422 0.008208573
v 0.2036386 -0.02102035 0.01044816
v 0.1750953 -0.02161455 -0.02241439
v 0.1304405 -0.01034802 0.4294121
v 0.2535267 0.01124805 0.4332742
v 0.1893098 0.007774413 0.4976739
v 0.1927606 0.0002100468 0.3675948
v 0.0631156 0.002952397 0.3726224
v 0.3102935 0.04239666 0.3789298
v 0.1261898 0.0107224 0.3097766
v 0.2492532 0.03231847 0.313616
v 0.1878244 0.04184818 0.2493305
v 0.100983 -0.0224601 -0.5925508
v 0.1903153 -0.001892447 -0.6135527
v 0.1509168 0.005032003 -0.5583627
v 0.1387818 -0.0249511 -0.6481978
v 0.04407907 -0.03029871 -0.6287728
v 0.2235893 0.008482814 -0.6705481
v 0.0825178 -0.03454936 -0.6842599
v 0.1718501 -0.01398164 -0.7052618
v 0.1186712 -0.02508819 -0.7462143
v -0.3414052 4.351139E-06 0.5897029
v -0.3241054 -0.009913802 0.7040364
v -0.3914304 0.009808302 0.6560909
v -0.2746516 -0.01450729 0.6375342
v -0.2939624 0.01328194 0.5227209
v -0.2590201 -0.009296775 0.7514564
v -0.2269574 -0.003286481 0.5705978
v -0.2096577 -0.01320463 0.6849313
v -0.1557246 -0.004520535 0.6214457
v -0.2600257 -0.02147746 0.1010374
v -0.1710818 -0.01674688 0.05793673
v -0.1933864 -0.0178895 0.1265185
v -0.2375155 -0.01532996 0.03405535
v -0.3257509 -0.002806544 0.08275503
v -0.1480232 0.003980815 -0.004292011
v -0.3033321 0.001375556 0.01515591
v -0.2144111 0.006106138 -0.02794486
v -0.2790166 0.02208036 -0.05310595
v 0.1553274 -0.02524817 -0.5849179
v 0.1244759 -0.03221834 -0.6244079
v 0.1577498 -0.02102035 -0.6197002
v 0.1220077 -0.03493786 -0.5893742
v 0.1527222 -0.02282578 -0.5490616
v 0.09104192 -0.03756595 -0.6281329
v 0.1194254 -0.03310961 -0.5536093
v 0.08857381 -0.04007977 -0.5930765
v 0.08315766 -0.03946275 -0.5574029
vt 0.1787601 0.08942978
vt 0.3139709 0.2310213
vt 0.3139709 0.08942978
vt 0.1787601 0.2310213
vt 0.05144921 0.08942978
vt 0.3139709 0.3622822
vt 0.05144921 0.2310213
vt 0.1787601 0.3622822
vt 0.05144921 0.3622822
vt 0.1787601 0.08942978
vt 0.3139709 0.2310213
vt 0.3139709 0.08942978
vt 0.1787601 0.2310213
vt 0.05144921 0.08942978
vt 0.3139709 0.3622822
vt 0.05144921 0.2310213
vt 0.1787601 0.3622822
vt 0.05144921 0.3622822
vt 0.1787601 0.08942978
vt 0.3139709 0.2310213
vt 0.3139709 0.08942978
vt 0.1787601 0.2310213
vt 0.05144921 0.08942978
vt 0.3139709 0.3622822
vt 0.05144921 0.2310213
vt 0.1787601 0.3622822
vt 0.05144921 0.3622822
vt 0.1787601 0.08942978
vt 0.3139709 0.2310213
vt 0.3139709 0.08942978
vt 0.1787601 0.2310213
vt 0.05144921 0.08942978
vt 0.3139709 0.3622822
vt 0.05144921 0.2310213
vt 0.1787601 0.3622822
vt 0.05144921 0.3622822
vt 0.1787601 0.08942978
vt 0.3139709 0.2310213
vt 0.3139709 0.08942978
vt 0.1787601 0.2310213
vt 0.05144921 0.08942978
vt 0.3139709 0.3622822
vt 0.05144921 0.2310213
vt 0.1787601 0.3622822
vt 0.05144921 0.3622822
vt 0.1787601 0.08942978
vt 0.3139709 0.2310213
vt 0.3139709 0.08942978
vt 0.1787601 0.2310213
vt 0.05144921 0.08942978
vt 0.3139709 0.3622822
vt 0.05144921 0.2310213
vt 0.1787601 0.3622822
vt 0.05144921 0.3622822
vt 0.1787601 0.08942978
vt 0.3139709 0.2310213
vt 0.3139709 0.08942978
vt 0.1787601 0.2310213
vt 0.05144921 0.08942978
vt 0.3139709 0.3622822
vt 0.05144921 0.2310213
vt 0.1787601 0.3622822
vt 0.05144921 0.3622822
vt 0.1787601 0.08942978
vt 0.3139709 0.2310213
vt 0.3139709 0.08942978
vt 0.1787601 0.2310213
vt 0.05144921 0.08942978
vt 0.3139709 0.3622822
vt 0.05144921 0.2310213
vt 0.1787601 0.3622822
vt 0.05144921 0.3622822
vt 0.1787601 0.08942978
vt 0.3139709 0.2310213
vt 0.3139709 0.08942978
vt 0.1787601 0.2310213
vt 0.05144921 0.08942978
vt 0.3139709 0.3622822
vt 0.05144921 0.2310213
vt 0.1787601 0.3622822
vt 0.05144921 0.3622822
vt 0.1787601 0.08942978
vt 0.3139709 0.2310213
vt 0.3139709 0.08942978
vt 0.1787601 0.2310213
vt 0.05144921 0.08942978
vt 0.3139709 0.3622822
vt 0.05144921 0.2310213
vt 0.1787601 0.3622822
vt 0.05144921 0.3622822
vt 0.1787601 0.08942978
vt 0.3139709 0.2310213
vt 0.3139709 0.08942978
vt 0.1787601 0.2310213
vt 0.05144921 0.08942978
vt 0.3139709 0.3622822
vt 0.05144921 0.2310213
vt 0.1787601 0.3622822
vt 0.05144921 0.3622822
vt 0.1787601 0.08942978
vt 0.3139709 0.2310213
vt 0.3139709 0.08942978
vt 0.1787601 0.2310213
vt 0.05144921 0.08942978
vt 0.3139709 0.3622822
vt 0.05144921 0.2310213
vt 0.1787601 0.3622822
vt 0.05144921 0.3622822
vt 0.1787601 0.08942978
vt 0.3139709 0.2310213
vt 0.3139709 0.08942978
vt 0.1787601 0.2310213
vt 0.05144921 0.08942978
vt 0.3139709 0.3622822
vt 0.05144921 0.2310213
vt 0.1787601 0.3622822
vt 0.05144921 0.3622822
vt 0.1787601 0.08942978
vt 0.3139709 0.2310213
vt 0.3139709 0.08942978
vt 0.1787601 0.2310213
vt 0.05144921 0.08942978
vt 0.3139709 0.3622822
vt 0.05144921 0.2310213
vt 0.1787601 0.3622822
vt 0.05144921 0.3622822
vt 0.1787601 0.08942978
vt 0.3139709 0.2310213
vt 0.3139709 0.08942978
vt 0.1787601 0.2310213
vt 0.05144921 0.08942978
vt 0.3139709 0.3622822
vt 0.05144921 0.2310213
vt 0.1787601 0.3622822
vt 0.05144921 0.3622822
vn -0.01126511 0.9951279 0.09794665
vn -0.1593221 0.9855758 -0.05706836
vn -0.02081468 0.9997834 0
vn -0.1497701 0.9807998 0.1249027
vn -0.001713052 0.9664717 0.2567676
vn -0.3072165 0.9516397 0
vn -0.1306659 0.9569197 0.2592898
vn -0.288275 0.9473675 0.1392561
vn -0.2643949 0.9282634 0.2615766
vn 0.1129117 0.9855758 0.1260605
vn -0.01126511 0.9999039 -0.008078805
vn 0.1320159 0.9903518 -0.04213247
vn -0.03036925 0.9903518 0.1352074
vn 0.08425553 0.9569197 0.2778593
vn -0.1688742 0.9855758 0.01103775
vn -0.03992133 0.9616957 0.2711968
vn -0.1736502 0.9760238 0.1312369
vn -0.1736502 0.9569197 0.2327023
vn -0.03989339 0.999204 0
vn -0.2594283 0.9657624 0
vn -0.1640982 0.9807998 -0.1053735
vn -0.144994 0.9807998 0.1304166
vn 0.08903156 0.9855758 0.1439225
vn -0.3503634 0.9234874 0.1562576
vn -0.02559322 0.9664717 0.2554947
vn -0.2405147 0.9330394 0.2675633
vn -0.140218 0.9282634 0.3444792
vn -0.001713052 0.9999039 -0.01375663
vn -0.03992133 0.9903518 0.1327012
vn -0.1211139 0.9903518 0.06734034
vn 0.06515141 0.9951279 0.07399838
vn 0.1176878 0.9903518 -0.07316361
vn 0.04604727 0.9712477 0.2335756
vn 0.1654481 0.9855758 0.03559852
vn 0.1320159 0.9760238 0.1730589
vn 0.2132084 0.9712477 0.105925
vn -0.1832023 0.8900552 0.4174191
vn -0.1306659 0.9425915 0.3073233
vn -0.07812957 0.9139353 0.3982688
vn -0.2261866 0.9139353 0.3369894
vn -0.288275 0.8470708 0.4465071
vn -0.1832023 0.9616957 0.2039077
vn -0.3121552 0.8805031 0.3567541
vn -0.2643949 0.9330394 0.2439934
vn -0.3360354 0.9043833 0.2630039
vn 0.1081357 0.9903518 -0.08665995
vn -0.07812957 0.9951279 -0.06013496
vn 0.02694315 0.9807998 -0.1931472
vn -0.001713052 0.9999039 0.01375663
vn 0.1893283 0.9807998 0.04676105
vn -0.1879783 0.9807998 0.05192223
vn 0.07470347 0.9855758 0.1518543
vn -0.1163379 0.9855758 0.1229058
vn -0.03992133 0.9760238 0.2139715
vn -0.1736502 0.9807998 0.08875444
vn -0.3073792 0.9473675 0.08951408
vn -0.2548428 0.9664717 0.03142688
vn -0.2309626 0.9569197 0.1759575
vn -0.08768164 0.9807998 0.1741945
vn -0.3551395 0.9139353 0.1964643
vn -0.1545461 0.9616957 0.2264
vn -0.283499 0.9282634 0.2407391
vn -0.2166345 0.9330394 0.2872402
vn -0.1020097 0.9807998 0.1662101
vn -0.06857751 0.9951279 0.07083487
vn -0.02081719 0.9951279 0.0963697
vn -0.144994 0.9855758 0.08727575
vn -0.1879783 0.9664717 0.1749191
vn -0.1211139 0.9903518 -0.06734034
vn -0.2118585 0.9712477 0.1085998
vn -0.1832023 0.9807998 0.06684818
vn -0.2357386 0.9712477 0.03324528
vn -0.1735189 0.9848306 0
vn -0.1593221 0.9712477 0.1769022
vn -0.2787229 0.9569197 0.0813527
vn -0.06380148 0.9951279 0.07516518
vn -0.06380148 0.9903518 -0.1230149
vn -0.02559322 0.9664717 0.2554947
vn 0.02693596 0.9996371 0
vn 0.0508233 0.9855758 0.1614227
vn 0.1176878 0.9903518 0.07316361
vn -0.01604114 0.9951279 -0.09727862
vn -0.1497701 0.9807998 -0.1249027
vn -0.08290561 0.9760238 -0.2012565
vn -0.08768164 0.9951279 -0.04508214
vn 0.05551893 0.9984576 0
vn -0.2212287 0.9752219 0
vn -0.02081468 0.9997834 0
vn -0.1545461 0.9855758 0.06896271
vn -0.0972337 0.9903518 0.0987367
vn -0.07335354 0.9951279 0.06587636
vn -0.2594283 0.9657624 0
vn -0.1688742 0.9855758 -0.01103775
vn -0.1688742 0.9712477 0.1678077
vn 0.02694315 0.9855758 0.1670761
vn -0.3455874 0.9234874 0.1665542
vn -0.06857751 0.9664717 0.2474463
vn -0.2596188 0.9282634 0.2663176
vn -0.1736502 0.9282634 0.328896
vn -0.1784263 0.9664717 -0.1846526
vn -0.3264833 0.9330394 -0.1511493
vn -0.2739469 0.9234874 -0.2685592
vn -0.2405147 0.9664717 -0.08991769
vn -0.07812957 0.9903518 -0.1144512
vn -0.3790197 0.9234874 -0.05928798
vn -0.149529 0.9887574 0
vn -0.2928207 0.9561673 0
vn -0.2166345 0.9760238 0.0211432
vn 0.1415679 0.9807998 0.1341279
vn 0.1224638 0.9903518 0.06485324
vn 0.2132084 0.9760238 0.04381423
vn 0.05559935 0.9951279 0.08141971
vn 0.06515141 0.9712477 0.2289831
vn 0.0221638 0.9997543 0
vn -0.001713052 0.9855758 0.1692259
vn -0.0255873 0.9996726 0
vn -0.06857751 0.9951279 0.07083487
vn 0.0938076 0.9903518 0.1019973
vn -0.05424942 0.9855758 0.1603039
vn -0.03035817 0.9995391 0
vn 0.05559935 0.9760238 0.210443
vn 0.2179845 0.9664717 0.1357029
vn -0.07812957 0.9521435 0.2954969
vn 0.1702241 0.9521435 0.2538629
vn 0.02216712 0.9473675 0.3193796
vn 0.1176878 0.9330394 0.339981
vn -0.2928207 0.9561673 0
vn -0.2357386 0.9712477 0.03324528
vn -0.3073792 0.9473675 0.08951408
vn -0.22576 0.9741829 0
vn -0.2787229 0.9569197 -0.0813527
vn -0.1593221 0.9855758 0.05706836
vn -0.2214106 0.9712477 -0.0874947
vn -0.1593221 0.9855758 0.05706836
vn -0.1593221 0.9855758 -0.05706836
g Clover_11_0
f 3/3/3 2/2/2 1/1/1
f 2/2/2 4/4/4 1/1/1
f 1/1/1 4/4/4 5/5/5
f 2/2/2 6/6/6 4/4/4
f 4/4/4 7/7/7 5/5/5
f 6/6/6 8/8/8 4/4/4
f 4/4/4 8/8/8 7/7/7
f 8/8/8 9/9/9 7/7/7
f 12/12/12 11/11/11 10/10/10
f 11/11/11 13/13/13 10/10/10
f 10/10/10 13/13/13 14/14/14
f 11/11/11 15/15/15 13/13/13
f 13/13/13 16/16/16 14/14/14
f 15/15/15 17/17/17 13/13/13
f 13/13/13 17/17/17 16/16/16
f 17/17/17 18/18/18 16/16/16
f 21/21/21 20/20/20 19/19/19
f 20/20/20 22/22/22 19/19/19
f 19/19/19 22/22/22 23/23/23
f 20/20/20 24/24/24 22/22/22
f 22/22/22 25/25/25 23/23/23
f 24/24/24 26/26/26 22/22/22
f 22/22/22 26/26/26 25/25/25
f 26/26/26 27/27/27 25/25/25
f 30/30/30 29/29/29 28/28/28
f 29/29/29 31/31/31 28/28/28
f 28/28/28 31/31/31 32/32/32
f 29/29/29 33/33/33 31/31/31
f 31/31/31 34/34/34 32/32/32
f 33/33/33 35/35/35 31/31/31
f 31/31/31 35/35/35 34/34/34
f 35/35/35 36/36/36 34/34/34
f 39/39/39 38/38/38 37/37/37
f 38/38/38 40/40/40 37/37/37
f 37/37/37 40/40/40 41/41/41
f 38/38/38 42/42/42 40/40/40
f 40/40/40 43/43/43 41/41/41
f 42/42/42 44/44/44 40/40/40
f 40/40/40 44/44/44 43/43/43
f 44/44/44 45/45/45 43/43/43
f 48/48/48 47/47/47 46/46/46
f 47/47/47 49/49/49 46/46/46
f 46/46/46 49/49/49 50/50/50
f 47/47/47 51/51/51 49/49/49
f 49/49/49 52/52/52 50/50/50
f 51/51/51 53/53/53 49/49/49
f 49/49/49 53/53/53 52/52/52
f 53/53/53 54/54/54 52/52/52
f 57/57/57 56/56/56 55/55/55
f 56/56/56 58/58/58 55/55/55
f 55/55/55 58/58/58 59/59/59
f 56/56/56 60/60/60 58/58/58
f 58/58/58 61/61/61 59/59/59
f 60/60/60 62/62/62 58/58/58
f 58/58/58 62/62/62 61/61/61
f 62/62/62 63/63/63 61/61/61
f 66/66/66 65/65/65 64/64/64
f 65/65/65 67/67/67 64/64/64
f 64/64/64 67/67/67 68/68/68
f 65/65/65 69/69/69 67/67/67
f 67/67/67 70/70/70 68/68/68
f 69/69/69 71/71/71 67/67/67
f 67/67/67 71/71/71 70/70/70
f 71/71/71 72/72/72 70/70/70
f 75/75/75 74/74/74 73/73/73
f 74/74/74 76/76/76 73/73/73
f 73/73/73 76/76/76 77/77/77
f 74/74/74 78/78/78 76/76/76
f 76/76/76 79/79/79 77/77/77
f 78/78/78 80/80/80 76/76/76
f 76/76/76 80/80/80 79/79/79
f 80/80/80 81/81/81 79/79/79
f 84/84/84 83/83/83 82/82/82
f 83/83/83 85/85/85 82/82/82
f 82/82/82 85/85/85 86/86/86
f 83/83/83 87/87/87 85/85/85
f 85/85/85 88/88/88 86/86/86
f 87/87/87 89/89/89 85/85/85
f 85/85/85 89/89/89 88/88/88
f 89/89/89 90/90/90 88/88/88
f 93/93/93 92/92/92 91/91/91
f 92/92/92 94/94/94 91/91/91
f 91/91/91 94/94/94 95/95/95
f 92/92/92 96/96/96 94/94/94
f 94/94/94 97/97/97 95/95/95
f 96/96/96 98/98/98 94/94/94
f 94/94/94 98/98/98 97/97/97
f 98/98/98 99/99/99 97/97/97
f 102/102/102 101/101/101 100/100/100
f 101/101/101 103/103/103 100/100/100
f 100/100/100 103/103/103 104/104/104
f 101/101/101 105/105/105 103/103/103
f 103/103/103 106/106/106 104/104/104
f 105/105/105 107/107/107 103/103/103
f 103/103/103 107/107/107 106/106/106
f 107/107/107 108/108/108 106/106/106
f 111/111/111 110/110/110 109/109/109
f 110/110/110 112/112/112 109/109/109
f 109/109/109 112/112/112 113/113/113
f 110/110/110 114/114/114 112/112/112
f 112/112/112 115/115/115 113/113/113
f 114/114/114 116/116/116 112/112/112
f 112/112/112 116/116/116 115/115/115
f 116/116/116 117/117/117 115/115/115
f 120/120/120 119/119/119 118/118/118
f 119/119/119 121/121/121 118/118/118
f 118/118/118 121/121/121 122/122/122
f 119/119/119 123/123/123 121/121/121
f 121/121/121 124/124/124 122/122/122
f 123/123/123 125/125/125 121/121/121
f 121/121/121 125/125/125 124/124/124
f 125/125/125 126/126/126 124/124/124
f 129/129/129 128/128/128 127/127/127
f 128/128/128 130/130/130 127/127/127
f 127/127/127 130/130/130 131/131/131
f 128/128/128 132/132/132 130/130/130
f 130/130/130 133/133/133 131/131/131
f 132/132/132 134/134/134 130/130/130
f 130/130/130 134/134/134 133/133/133
f 134/134/134 135/135/135 133/133/133
