g converter_window_L
v 0.03406412 -0.07297967 7.389354E-10
v 0.04161011 -0.05881355 2.626585E-09
v 0.04135645 -0.07671051 1.183686E-09
v 0.03507926 -0.05570809 2.241195E-09
v 0.02744813 -0.06959485 3.354334E-10
v 0.04186377 -0.0409166 4.069483E-09
v 0.02827514 -0.05243444 1.818227E-09
v 0.01814647 -0.06483601 -2.318643E-10
v 0.03609441 -0.03843651 3.743454E-09
v 0.04281612 0.003711177 5.877235E-09
v 0.03823228 0.005166634 5.637216E-09
v 0.02910214 -0.03527404 3.30102E-09
v 0.03277975 0.007265464 4.746842E-09
v 0.0185627 -0.04774138 1.195764E-09
v 0.01897894 -0.03064676 2.623391E-09
v 0.008914509 -0.06013786 -7.919276E-10
v 0.003930874 -0.07152113 5.650639E-10
v 0.009175751 -0.04309771 6.076678E-10
v -0.005805036 -0.05264707 -1.684899E-09
v 0.02121489 0.01133641 4.311798E-09
v 0.03316507 0.01572881 4.138262E-09
v 0.02210955 0.02006945 3.501159E-09
v 0.0106059 0.01510823 3.944102E-09
v 0.01137132 0.02537531 2.711336E-09
v 0.009436993 -0.02605756 2.007263E-09
v 0.001401086 0.01826124 3.149603E-09
v 0.002645067 0.03012185 1.951608E-09
v -0.004359394 -0.03628542 -4.536018E-10
v -0.002913752 -0.01992376 7.776956E-10
v -0.006897027 -0.06604212 -8.808441E-11
v -0.001646953 -0.07687645 1.203469E-09
v -0.009685939 -0.07265762 7.005442E-10
v -0.01772493 -0.06843878 1.976195E-10
v -0.01772493 -0.06056312 -7.412327E-10
v -0.03062241 -0.06146473 -6.337529E-10
v -0.01772493 -0.04658103 -2.408028E-09
v -0.03062241 -0.05403689 -1.51922E-09
v -0.03797872 -0.05691459 -1.176172E-09
v -0.04237483 -0.04809007 -2.228136E-09
v -0.03062241 -0.04003667 -3.188177E-09
v -0.05124662 -0.02957417 -4.435404E-09
v -0.01772493 -0.02969406 -1.073843E-09
v -0.03062241 -0.02329765 -1.878506E-09
v -0.01772493 -0.0128071 2.603426E-10
v -0.05124662 -0.0129623 -3.155932E-09
v -0.06088115 -0.02433046 -5.060917E-09
v -0.01772493 0.02535075 2.399734E-09
v -0.03062241 -0.00655864 -5.688355E-10
v -0.06160009 -0.007718865 -3.835513E-09
v -0.06640792 -0.02197052 -5.341488E-09
v -0.06713843 -0.005247003 -4.122783E-09
v -0.01772493 0.03740442 9.486697E-10
v 0.002168828 0.04027441 7.317379E-10
v -0.03062241 0.03084191 1.57865E-09
v -0.05124662 0.003649571 -1.876461E-09
v -0.06231903 0.008892731 -2.610109E-09
v -0.06786892 0.01147651 -2.904079E-09
v -0.01772493 0.04867472 -4.093132E-10
v 0.001692589 0.05042697 -4.881318E-10
v -0.01772493 0.05795494 -1.524434E-09
v -0.03062241 0.04263188 1.60388E-10
v -0.05124662 0.03921825 4.008287E-10
v -0.06297 0.04348854 -3.282399E-10
v -0.06896109 0.0452338 -5.033509E-10
v -0.03062241 0.05433703 -1.25138E-09
v -0.03062241 0.06383438 -2.393718E-09
v -0.05124662 0.05155303 -1.080717E-09
v -0.0629963 0.05400895 -1.564791E-09
v -0.06948049 0.05501521 -1.67176E-09
v -0.05161288 0.06396842 -2.579601E-09
v -0.05197914 0.07321962 -3.692341E-09
v -0.06865572 0.06719225 -3.126264E-09
v -0.06253587 0.06161793 -2.419375E-09
v -0.06870213 0.06204435 -2.511606E-09
v -0.06989149 0.06204435 -2.511606E-09
vt 0.8153043 0.03654147
vt 0.8646421 0.1291629
vt 0.8629836 0.01214866
vt 0.8219414 0.1494668
vt 0.7720457 0.05867147
vt 0.8663005 0.2461772
vt 0.7774528 0.17087
vt 0.7112261 0.08978428
vt 0.8285785 0.2623924
vt 0.8725271 0.5379632
vt 0.8425562 0.5474791
vt 0.7828598 0.2830686
vt 0.806904 0.5612009
vt 0.7139483 0.2015531
vt 0.7166696 0.3133217
vt 0.6508633 0.1205008
vt 0.6182784 0.04607411
vt 0.6525715 0.2319131
vt 0.5546212 0.169476
vt 0.7312882 0.5878166
vt 0.809422 0.6165357
vt 0.7371373 0.644915
vt 0.6619207 0.6124756
vt 0.6669248 0.6796038
vt 0.654279 0.3433253
vt 0.6017349 0.6330881
vt 0.6098671 0.7106332
vt 0.564073 0.2764519
vt 0.5735244 0.3834274
vt 0.5474816 0.08189628
vt 0.5818084 0.01105934
vt 0.5292471 0.03864267
vt 0.4766848 0.06622571
vt 0.4766848 0.1177183
vt 0.3923574 0.111823
vt 0.4766846 0.2091359
vt 0.3923573 0.1603874
vt 0.34426 0.1415725
vt 0.3155172 0.1992686
vt 0.392357 0.2519231
vt 0.257511 0.3203275
vt 0.4766843 0.319546
vt 0.3923566 0.3613652
vt 0.4766839 0.4299555
vt 0.2575106 0.4289379
vt 0.1945179 0.3546091
vt 0.4766832 0.6794381
vt 0.3923562 0.4708069
vt 0.1898172 0.4632185
vt 0.1583827 0.370038
vt 0.1536064 0.4793792
vt 0.4766823 0.7582451
vt 0.6067512 0.7770081
vt 0.3923557 0.7153374
vt 0.2575103 0.5375477
vt 0.1851164 0.5718268
vt 0.1488301 0.5887194
vt 0.4766815 0.8319302
vt 0.603637 0.8433863
vt 0.4766811 0.8926051
vt 0.3923552 0.7924206
vt 0.2575099 0.7701012
vt 0.18086 0.7980197
vt 0.1416889 0.8094301
vt 0.3923548 0.8689497
vt 0.3923546 0.9310447
vt 0.2575095 0.8507468
vt 0.1806877 0.8668025
vt 0.1382929 0.8733823
vt 0.2551146 0.9319201
vt 0.2527198 0.992406
vt 0.143685 0.9529969
vt 0.1836979 0.916551
vt 0.1433817 0.9193386
vt 0.1356055 0.9193385
vn -1.005022E-07 0 1
vn 0 0 1
vn 0 0 1
vn 0 0 1
vn -1.02279E-07 0 1
vn 0 0 1
vn -1.021733E-07 0 1
vn 0 1.192093E-07 1
vn 0 0 1
vn 0 0 1
vn 0 0 1
vn -1.004039E-07 0 1
vn 0 0 1
vn -1.029625E-07 0 1
vn 0 0 1
vn 0 1.192093E-07 1
vn 0 1.192093E-07 1
vn -1.0779E-07 0 1
vn -1.000517E-07 0 1
vn 0 1.082622E-07 1
vn 0 0 1
vn 0 1.082622E-07 1
vn 0 1.131943E-07 1
vn 0 1.131943E-07 1
vn -1.00156E-07 0 1
vn 0 1.131943E-07 1
vn 0 1.131943E-07 1
vn -1.011753E-07 0 1
vn 0 0 1
vn 0 1.192093E-07 1
vn 0 1.192093E-07 1
vn 0 1.192093E-07 1
vn 0 1.192093E-07 1
vn 0 1.192093E-07 1
vn 0 1.192093E-07 1
vn 0 1.192093E-07 1
vn 0 1.192093E-07 1
vn 0 1.192093E-07 1
vn 0 1.192093E-07 1
vn 0 1.192093E-07 1
vn 0 1.192093E-07 1
vn 0 0 1
vn -1.01113E-07 0 1
vn 0 0 1
vn -1.031545E-07 0 1
vn -1.060555E-07 0 1
vn 0 1.203393E-07 1
vn 0 0 1
vn -1.046668E-07 0 1
vn 0 0 1
vn 0 0 1
vn 0 1.203393E-07 1
vn 0 1.201888E-07 1
vn 0 1.203393E-07 1
vn 0 0 1
vn 0 0 1
vn 0 0 1
vn 0 1.205526E-07 1
vn 0 1.199914E-07 1
vn 0 1.20221E-07 1
vn 0 1.203393E-07 1
vn 0 0 1
vn 0 0 1
vn 0 1.185554E-07 1
vn 0 1.205526E-07 1
vn 0 1.20221E-07 1
vn 0 1.202006E-07 1
vn 0 1.189067E-07 1
vn 0 1.185554E-07 1
vn 0 1.205497E-07 1
vn 0 1.201221E-07 1
vn 0 1.185108E-07 1
vn 0 1.185108E-07 1
vn 0 1.194601E-07 1
vn 0 1.192921E-07 1
g converter_window_L_0
f 3/3/3 2/2/2 1/1/1
f 2/2/2 4/4/4 1/1/1
f 1/1/1 4/4/4 5/5/5
f 4/4/4 2/2/2 6/6/6
f 4/4/4 7/7/7 5/5/5
f 5/5/5 7/7/7 8/8/8
f 9/9/9 4/4/4 6/6/6
f 7/7/7 4/4/4 9/9/9
f 9/9/9 6/6/6 10/10/10
f 11/11/11 9/9/9 10/10/10
f 12/12/12 9/9/9 11/11/11
f 12/12/12 7/7/7 9/9/9
f 13/13/13 12/12/12 11/11/11
f 7/7/7 14/14/14 8/8/8
f 14/14/14 7/7/7 12/12/12
f 12/12/12 13/13/13 15/15/15
f 15/15/15 14/14/14 12/12/12
f 8/8/8 14/14/14 16/16/16
f 16/16/16 17/17/17 8/8/8
f 14/14/14 18/18/18 16/16/16
f 18/18/18 14/14/14 15/15/15
f 17/17/17 16/16/16 19/19/19
f 16/16/16 18/18/18 19/19/19
f 13/13/13 20/20/20 15/15/15
f 13/13/13 21/21/21 20/20/20
f 21/21/21 22/22/22 20/20/20
f 20/20/20 22/22/22 23/23/23
f 20/20/20 23/23/23 15/15/15
f 22/22/22 24/24/24 23/23/23
f 25/25/25 18/18/18 15/15/15
f 23/23/23 25/25/25 15/15/15
f 23/23/23 24/24/24 26/26/26
f 24/24/24 27/27/27 26/26/26
f 18/18/18 25/25/25 28/28/28
f 18/18/18 28/28/28 19/19/19
f 29/29/29 25/25/25 23/23/23
f 26/26/26 29/29/29 23/23/23
f 25/25/25 29/29/29 28/28/28
f 30/30/30 17/17/17 19/19/19
f 31/31/31 17/17/17 30/30/30
f 32/32/32 31/31/31 30/30/30
f 33/33/33 32/32/32 30/30/30
f 34/34/34 33/33/33 30/30/30
f 34/34/34 30/30/30 19/19/19
f 35/35/35 33/33/33 34/34/34
f 19/19/19 28/28/28 36/36/36
f 36/36/36 34/34/34 19/19/19
f 37/37/37 35/35/35 34/34/34
f 34/34/34 36/36/36 37/37/37
f 38/38/38 35/35/35 37/37/37
f 39/39/39 38/38/38 37/37/37
f 39/39/39 37/37/37 40/40/40
f 36/36/36 40/40/40 37/37/37
f 41/41/41 39/39/39 40/40/40
f 28/28/28 42/42/42 36/36/36
f 36/36/36 42/42/42 40/40/40
f 42/42/42 28/28/28 29/29/29
f 40/40/40 43/43/43 41/41/41
f 42/42/42 43/43/43 40/40/40
f 44/44/44 42/42/42 29/29/29
f 43/43/43 42/42/42 44/44/44
f 44/44/44 29/29/29 26/26/26
f 43/43/43 45/45/45 41/41/41
f 41/41/41 45/45/45 46/46/46
f 47/47/47 44/44/44 26/26/26
f 26/26/26 27/27/27 47/47/47
f 48/48/48 43/43/43 44/44/44
f 45/45/45 43/43/43 48/48/48
f 48/48/48 44/44/44 47/47/47
f 45/45/45 49/49/49 46/46/46
f 46/46/46 49/49/49 50/50/50
f 49/49/49 51/51/51 50/50/50
f 27/27/27 52/52/52 47/47/47
f 52/52/52 27/27/27 53/53/53
f 54/54/54 48/48/48 47/47/47
f 47/47/47 52/52/52 54/54/54
f 55/55/55 45/45/45 48/48/48
f 45/45/45 55/55/55 49/49/49
f 55/55/55 48/48/48 54/54/54
f 51/51/51 49/49/49 56/56/56
f 55/55/55 56/56/56 49/49/49
f 57/57/57 51/51/51 56/56/56
f 58/58/58 52/52/52 53/53/53
f 58/58/58 53/53/53 59/59/59
f 60/60/60 58/58/58 59/59/59
f 52/52/52 61/61/61 54/54/54
f 61/61/61 52/52/52 58/58/58
f 62/62/62 55/55/55 54/54/54
f 55/55/55 62/62/62 56/56/56
f 54/54/54 61/61/61 62/62/62
f 57/57/57 56/56/56 63/63/63
f 62/62/62 63/63/63 56/56/56
f 64/64/64 57/57/57 63/63/63
f 65/65/65 58/58/58 60/60/60
f 65/65/65 61/61/61 58/58/58
f 66/66/66 65/65/65 60/60/60
f 61/61/61 67/67/67 62/62/62
f 63/63/63 62/62/62 67/67/67
f 67/67/67 61/61/61 65/65/65
f 64/64/64 63/63/63 68/68/68
f 68/68/68 63/63/63 67/67/67
f 69/69/69 64/64/64 68/68/68
f 70/70/70 65/65/65 66/66/66
f 70/70/70 67/67/67 65/65/65
f 71/71/71 70/70/70 66/66/66
f 71/71/71 72/72/72 70/70/70
f 70/70/70 73/73/73 67/67/67
f 72/72/72 73/73/73 70/70/70
f 73/73/73 68/68/68 67/67/67
f 74/74/74 73/73/73 72/72/72
f 73/73/73 74/74/74 68/68/68
f 69/69/69 68/68/68 74/74/74
f 75/75/75 69/69/69 74/74/74
