g crowdBannerBack
v 0.2449465 0.3652918 -1.005064
v 0.2449465 0.4230431 -1.005064
v 0.360451 0.4230431 -1.005064
v 0.360451 0.3652918 -1.005064
v 0.7271635 0.388352 -0.7658616
v 0.7271635 0.4461033 -0.7658616
v 0.8088368 0.4461033 -0.6841863
v 0.8088368 0.388352 -0.6841863
v 0.8990459 0.3605537 -0.5223297
v 0.8990459 0.4277812 -0.5223297
v 0.9941201 0.4277812 -0.4272556
v 0.9941201 0.3605537 -0.4272556
v -0.1719278 0.388352 -1.055727
v -0.1719278 0.4461033 -1.055727
v -0.05642128 0.4461033 -1.055727
v -0.05642128 0.388352 -1.055727
v -0.5343512 0.3652918 -0.8870245
v -0.5343512 0.4230431 -0.8870245
v -0.4526778 0.4230431 -0.9686978
v -0.4526778 0.3652918 -0.9686978
v -0.8538921 0.388352 -0.6391311
v -0.8538921 0.4461033 -0.6391311
v -0.7722187 0.4461033 -0.7208064
v -0.7722187 0.388352 -0.7208064
v 0.2449465 0.3652918 1.005064
v 0.360451 0.3652918 1.005064
v 0.360451 0.4230431 1.005064
v 0.2449465 0.4230431 1.005064
v 0.7271635 0.388352 0.7658616
v 0.8088368 0.388352 0.6841863
v 0.8088368 0.4461033 0.6841863
v 0.7271635 0.4461033 0.7658616
v 0.8990459 0.3605537 0.5223298
v 0.9941201 0.3605537 0.4272556
v 0.9941201 0.4277812 0.4272556
v 0.8990459 0.4277812 0.5223298
v -0.1719278 0.388352 1.055727
v -0.05642128 0.388352 1.055727
v -0.05642128 0.4461033 1.055727
v -0.1719278 0.4461033 1.055727
v -0.5343512 0.3652918 0.8870245
v -0.4526778 0.3652918 0.9686978
v -0.4526778 0.4230431 0.9686978
v -0.5343512 0.4230431 0.8870245
v -0.8538921 0.388352 0.6391311
v -0.7722187 0.388352 0.7208065
v -0.7722187 0.4461033 0.7208065
v -0.8538921 0.4461033 0.6391311
vt 0 0
vt 0 0.3337453
vt 1 0.3337453
vt 1 0
vt 0 0
vt 0 0.3337453
vt 1 0.3337453
vt 1 0
vt 0 0
vt 0 0.3337453
vt 1 0.3337453
vt 1 0
vt 0 0
vt 0 0.3337453
vt 1 0.3337453
vt 1 0
vt 0 0
vt 0 0.3337453
vt 1 0.3337453
vt 1 0
vt 0 0
vt 0 0.3337453
vt 1 0.3337453
vt 1 0
vt 1 0
vt 0 0
vt 0 0.3337453
vt 1 0.3337453
vt 1 0
vt 0 0
vt 0 0.3337453
vt 1 0.3337453
vt 1 0.00125124
vt 0 0.00125124
vt 0 0.3337453
vt 1 0.3337453
vt 1 0.00125124
vt 0 0.00125124
vt 0 0.3337453
vt 1 0.3337453
vt 1 0
vt 0 0
vt 0 0.3337453
vt 1 0.3337453
vt 1 0
vt 0 0
vt 0 0.3337453
vt 1 0.3337453
vn -0.0006911755 0.0006911755 0.9999995
vn -0.0006911755 0.0006911755 0.9999995
vn -0.0006911755 0.0006911755 0.9999995
vn -0.0006911755 0.0006911755 0.9999995
vn -0.7071066 0.0006911755 0.7071066
vn -0.7071066 0.0006911755 0.7071066
vn -0.7071066 0.0006911755 0.7071066
vn -0.7071066 0.0006911755 0.7071066
vn -0.7071066 0.0006911755 0.7071066
vn -0.7071066 0.0006911755 0.7071066
vn -0.7071066 0.0006911755 0.7071066
vn -0.7071066 0.0006911755 0.7071066
vn -0.0006911755 0.0006911755 0.9999995
vn -0.0006911755 0.0006911755 0.9999995
vn -0.0006911755 0.0006911755 0.9999995
vn -0.0006911755 0.0006911755 0.9999995
vn 0.7071068 0.0006911755 0.7071065
vn 0.7071068 0.0006911755 0.7071065
vn 0.7071068 0.0006911755 0.7071065
vn 0.7071068 0.0006911755 0.7071065
vn 0.7071068 0.0006911755 0.7071065
vn 0.7071068 0.0006911755 0.7071065
vn 0.7071068 0.0006911755 0.7071065
vn 0.7071068 0.0006911755 0.7071065
vn -0.0006911755 0.0006911755 -0.9999995
vn -0.0006911755 0.0006911755 -0.9999995
vn -0.0006911755 0.0006911755 -0.9999995
vn -0.0006911755 0.0006911755 -0.9999995
vn -0.7071066 0.0006911755 -0.7071066
vn -0.7071066 0.0006911755 -0.7071066
vn -0.7071066 0.0006911755 -0.7071066
vn -0.7071066 0.0006911755 -0.7071066
vn -0.7071066 0.0006911755 -0.7071066
vn -0.7071066 0.0006911755 -0.7071066
vn -0.7071066 0.0006911755 -0.7071066
vn -0.7071066 0.0006911755 -0.7071066
vn -0.0006911755 0.0006911755 -0.9999995
vn -0.0006911755 0.0006911755 -0.9999995
vn -0.0006911755 0.0006911755 -0.9999995
vn -0.0006911755 0.0006911755 -0.9999995
vn 0.7071068 0.0006911755 -0.7071065
vn 0.7071068 0.0006911755 -0.7071065
vn 0.7071068 0.0006911755 -0.7071065
vn 0.7071068 0.0006911755 -0.7071065
vn 0.7071068 0.0006911755 -0.7071065
vn 0.7071068 0.0006911755 -0.7071065
vn 0.7071068 0.0006911755 -0.7071065
vn 0.7071068 0.0006911755 -0.7071065
g crowdBannerBack_0
f 3/3/3 2/2/2 1/1/1
f 4/4/4 3/3/3 1/1/1
f 7/7/7 6/6/6 5/5/5
f 8/8/8 7/7/7 5/5/5
f 11/11/11 10/10/10 9/9/9
f 12/12/12 11/11/11 9/9/9
f 15/15/15 14/14/14 13/13/13
f 16/16/16 15/15/15 13/13/13
f 19/19/19 18/18/18 17/17/17
f 20/20/20 19/19/19 17/17/17
f 23/23/23 22/22/22 21/21/21
f 24/24/24 23/23/23 21/21/21
f 27/27/27 26/26/26 25/25/25
f 28/28/28 27/27/27 25/25/25
f 31/31/31 30/30/30 29/29/29
f 32/32/32 31/31/31 29/29/29
f 35/35/35 34/34/34 33/33/33
f 36/36/36 35/35/35 33/33/33
f 39/39/39 38/38/38 37/37/37
f 40/40/40 39/39/39 37/37/37
f 43/43/43 42/42/42 41/41/41
f 44/44/44 43/43/43 41/41/41
f 47/47/47 46/46/46 45/45/45
f 48/48/48 47/47/47 45/45/45
