g decal1
v 0.03927329 0.025970379 0.039148193
v 0.04610202 0.025970379 0.030827418
v 0.049437445 0.014758985 0.033056054
v 0.04210986 0.014758985 0.04198478
v 0.050656833 0.0036026756 0.033870786
v 0.04314683 0.0036026756 0.04302179
v 0.033181135 0.014758985 0.04931244
v 0.0339959 0.0036026756 0.05053177
v 0.023555625 0.0036026756 0.056112155
v 0.022994429 0.014758985 0.054757364
v 0.030952455 0.025970379 0.04597691
v 0.02197813 0.02218134 0.052303717
v 0.021459308 0.025970379 0.05105115
vt 0.21548688 0.26340377
vt 0.31314057 0.26649314
vt 0.32013273 0.15868002
vt 0.21611512 0.15617418
vt 0.32317197 0.05689776
vt 0.21604276 0.054725826
vt 0.11243793 0.15833375
vt 0.1084134 0.056728244
vt 0.0014662445 0.063411
vt 0.008674741 0.16509491
vt 0.11761999 0.26568115
vt 0.016177982 0.23642766
vt 0.020148635 0.2726251
vn 0.6657719 0.33689132 0.6657718
vn 0.7282205 0.33544993 0.5976356
vn 0.7517634 0.23284838 0.61695504
vn 0.6874903 0.23391473 0.6874889
vn 0.766481 0.12971398 0.62903184
vn 0.7010768 0.13033067 0.70107436
vn 0.5401576 0.23391502 0.8084018
vn 0.55083185 0.13032801 0.8243779
vn 0.4674132 0.12970868 0.87447166
vn 0.45843992 0.23284903 0.8576795
vn 0.5230947 0.33689415 0.78286284
vn 0.44408447 0.3354557 0.830818
vn 0.4440845 0.33545572 0.830818
g decal1_0
f 3/3/3 2/2/2 1/1/1
f 4/4/4 3/3/3 1/1/1
f 5/5/5 3/3/3 4/4/4
f 6/6/6 5/5/5 4/4/4
f 4/4/4 1/1/1 7/7/7
f 6/6/6 4/4/4 7/7/7
f 8/8/8 6/6/6 7/7/7
f 8/8/8 7/7/7 9/9/9
f 7/7/7 10/10/10 9/9/9
f 1/1/1 11/11/11 7/7/7
f 10/10/10 7/7/7 11/11/11
f 11/11/11 12/12/12 10/10/10
f 11/11/11 13/13/13 12/12/12
