g doodad_horizons_2025_pinSkin
v 0.09517041 0.04512722 0.03702056
v 0.09551389 0.04247585 0.03726093
v 0.09340999 0.04452991 0.03914914
v 0.07879428 0.0120718 0.06333565
v 0.07938359 -0.00135952 0.0658522
v 0.07790693 -0.001410866 0.06753115
v 0.07676736 0.0006430435 0.06833089
v 0.07569621 0.04411747 0.05924136
v 0.07036866 0.06028278 0.06142548
v 0.07291651 0.05947559 0.05874081
v 0.07589715 0.05670933 0.05603169
v 0.07766455 0.04763142 0.05618716
v 0.07759743 0.05217327 0.05518702
v 0.07845706 0.016115 0.06077394
v 0.07879428 0.0120718 0.06333565
v 0.07569621 0.04411747 0.05924136
v 0.07584634 0.04385838 0.05714871
v 0.07683675 0.01166096 0.06160139
v 0.07373866 0.04370663 0.05750711
v 0.07584634 0.04385838 0.05714871
v 0.07766455 0.04763142 0.05618716
v 0.07787957 0.04778377 0.0539238
v 0.075707 0.04722057 0.05445291
v 0.07759743 0.05217327 0.05518702
v 0.07776922 0.05270443 0.05288271
v 0.07563989 0.05176243 0.05345277
v 0.07589715 0.05670933 0.05603169
v 0.07589835 0.0576099 0.05383241
v 0.0739396 0.05629856 0.05429742
v 0.07291651 0.05947559 0.05874081
v 0.0727443 0.06057575 0.05669
v 0.07095899 0.05906475 0.05700659
v 0.07036866 0.06028278 0.06142548
v 0.06811482 0.06280994 0.06138628
v 0.0684111 0.05987194 0.05969123
v 0.07676736 0.0006430435 0.06833089
v 0.07503843 -0.003066673 0.06917665
v 0.07790693 -0.001410866 0.06753115
v 0.07481073 0.0002257919 0.06659713
v 0.07657164 -0.005257301 0.06796496
v 0.07595035 -0.001823387 0.0657962
v 0.09610408 0.04932773 0.03298706
v 0.09322539 0.0447324 0.03526838
v 0.09355219 0.0420615 0.03553219
v 0.0961195 0.04680355 0.03356757
v 0.09539513 0.04197132 0.03552991
v 0.09551389 0.04247585 0.03726093
v 0.07856962 -0.005059319 0.06566282
v 0.07742801 -0.001766243 0.06411475
v 0.07595035 -0.001823387 0.0657962
v 0.07657164 -0.005257301 0.06796496
v 0.07938359 -0.00135952 0.0658522
v 0.07790693 -0.001410866 0.06753115
v 0.09517041 0.04512722 0.03702056
v 0.09340999 0.04452991 0.03914914
v 0.09449136 0.04863415 0.0349717
v 0.09322539 0.0447324 0.03526838
v 0.09145406 0.04410991 0.03741523
v 0.0920136 0.04516689 0.03858984
v 0.07683675 0.01166096 0.06160139
v 0.07845706 0.016115 0.06077394
v 0.07879428 0.0120718 0.06333565
v 0.09322539 0.0447324 0.03526838
v 0.09145406 0.04410991 0.03741523
v 0.09355219 0.0420615 0.03553219
v 0.07742801 -0.001766243 0.06411475
v 0.07683675 0.01166096 0.06160139
v 0.07595035 -0.001823387 0.0657962
v 0.07481073 0.0002257919 0.06659713
v 0.0684111 0.05987194 0.05969123
v 0.07373866 0.04370663 0.05750711
v 0.07095899 0.05906475 0.05700659
v 0.0739396 0.05629856 0.05429742
v 0.07563989 0.05176243 0.05345277
v 0.075707 0.04722057 0.05445291
vt 0.75819 0.7684995
vt 0.7634378 0.7791951
vt 0.7697002 0.7719159
vt 0.9538127 0.9056683
vt 0.9720843 0.9667606
vt 0.9824964 0.9761207
vt 0.9819403 0.9603183
vt 0.9541947 0.7342163
vt 0.9713748 0.6600422
vt 0.9609155 0.6671831
vt 0.9507902 0.6777257
vt 0.9444559 0.7148264
vt 0.9429522 0.6964003
vt 0.9580851 0.0515478
vt 0.9442605 0.03551489
vt 0.9501808 0.2279999
vt 0.9611331 0.2278635
vt 0.9714721 0.03505203
vt 0.9722382 0.227608
vt 0.9611331 0.2278635
vt 0.9510255 0.2508888
vt 0.9616426 0.2542332
vt 0.9722714 0.2504984
vt 0.9501952 0.2733283
vt 0.9620115 0.2747044
vt 0.9739078 0.2729154
vt 0.9498749 0.2979503
vt 0.9623861 0.297252
vt 0.9750531 0.2975495
vt 0.9518877 0.3157691
vt 0.9626471 0.3134528
vt 0.9735898 0.3154624
vt 0.9549755 0.3299558
vt 0.9628307 0.3248195
vt 0.9709183 0.3298478
vt 0.9559706 0.5919214
vt 0.9640231 0.6126635
vt 0.956023 0.6057107
vt 0.972132 0.5918944
vt 0.9640804 0.6265148
vt 0.9721957 0.605662
vt 0.9144627 0.3063124
vt 0.9023696 0.3022293
vt 0.90543 0.3150007
vt 0.9141675 0.3062792
vt 0.9132606 0.3128704
vt 0.9224892 0.3162802
vt 0.9182714 0.6023968
vt 0.9080826 0.5888063
vt 0.9082152 0.6024973
vt 0.9185114 0.6162609
vt 0.9272284 0.5855745
vt 0.927465 0.599013
vt 0.9265932 0.3090276
vt 0.9233438 0.2972214
vt 0.9148222 0.3063647
vt 0.9023696 0.3022293
vt 0.906643 0.2948024
vt 0.915794 0.2999772
vt 0.9039609 0.07784006
vt 0.9120971 0.09254745
vt 0.9213042 0.07575518
vt 0.7581482 0.7684568
vt 0.76978 0.7719669
vt 0.7635445 0.7792122
vt 0.9721097 0.966776
vt 0.953867 0.9057011
vt 0.9825411 0.9761571
vt 0.981988 0.9603838
vt 0.9714613 0.6600787
vt 0.954272 0.7342499
vt 0.9610016 0.667218
vt 0.9508752 0.6777589
vt 0.9430346 0.6964324
vt 0.944536 0.7148587
vn 0.739432 0.1551828 0.6551019
vn 0.8634321 0.01714861 0.5041735
vn 0.6192234 0.2759881 0.7351143
vn 0.7382318 0.165347 0.6539681
vn 0.9292631 -0.12339 0.3482025
vn 0.6901855 -0.006145179 0.7236063
vn 0.332746 0.1393364 0.9326658
vn 0.79383 0.1460812 0.590334
vn 0.3420705 0.1786665 0.9225324
vn 0.7568477 0.3341112 0.5617395
vn 0.8171331 0.2810298 0.5033047
vn 0.8760984 0.01206219 0.4819815
vn 0.8677707 0.1703536 0.4668551
vn 0.6675506 -0.03230185 -0.7438635
vn 0.7382318 0.165347 0.6539681
vn 0.79383 0.1460812 0.590334
vn 0.6665909 -0.03250343 -0.7447148
vn -0.7406372 -0.1444842 -0.6561866
vn -0.677405 -0.163484 -0.7172137
vn 0.5568643 -0.6899181 -0.4625097
vn 0.8760984 0.01206219 0.4819815
vn 0.6617661 -0.3404488 -0.6679523
vn -0.5447396 -0.2913795 -0.7863566
vn 0.8677707 0.1703536 0.4668551
vn 0.6348653 0.1590056 -0.7560842
vn -0.5663115 -0.1309215 -0.8137265
vn 0.8171331 0.2810298 0.5033047
vn 0.4573465 0.5962478 -0.6597899
vn -0.6242101 -0.01779592 -0.7810538
vn 0.7568477 0.3341112 0.5617395
vn 0.2021092 0.8764623 -0.4369964
vn -0.6894789 0.03647805 -0.7233866
vn 0.3420705 0.1786665 0.9225324
vn -0.6782675 0.1236296 0.7243403
vn -0.9702562 -0.09378994 -0.2231734
vn 0.332746 0.1393364 0.9326658
vn -0.6586865 -0.06699885 0.7494286
vn 0.6901855 -0.006145179 0.7236063
vn -0.9699658 -0.1322136 -0.2041713
vn -0.1573928 -0.9075379 0.3893616
vn -0.7643688 -0.3168641 -0.561549
vn 0.2569601 0.8309702 -0.4934169
vn -0.4043224 -0.1726131 -0.8981804
vn -0.5667978 -0.2885557 -0.7716708
vn 0.6767101 -0.1046042 -0.7287807
vn 0.6098607 -0.5642557 -0.556494
vn 0.8634321 0.01714861 0.5041735
vn 0.5723309 -0.6503732 -0.4994518
vn -0.3839419 -0.4078142 -0.8284178
vn -0.7643688 -0.3168641 -0.561549
vn -0.1573928 -0.9075379 0.3893616
vn 0.9292631 -0.12339 0.3482025
vn 0.6901855 -0.006145179 0.7236063
vn 0.79261 0.3302852 0.5125241
vn 0.6192234 0.2759881 0.7351143
vn -0.2980164 0.9478368 0.1130994
vn -0.7880594 0.2117467 -0.5780362
vn -0.8362042 -0.02444911 -0.5478731
vn -0.5754891 0.6530733 0.4922476
vn -0.7406372 -0.1444842 -0.6561866
vn -0.5792166 0.6430306 0.5010187
vn 0.7382318 0.165347 0.6539681
vn -0.7394368 -0.1551837 -0.6550964
vn -0.8362042 -0.02444911 -0.5478731
vn -0.5667978 -0.2885557 -0.7716708
vn -0.3839419 -0.4078142 -0.8284178
vn -0.7406372 -0.1444842 -0.6561866
vn -0.7643688 -0.3168641 -0.561549
vn -0.9699658 -0.1322136 -0.2041713
vn -0.9702562 -0.09378994 -0.2231734
vn -0.677405 -0.163484 -0.7172137
vn -0.6894789 0.03647805 -0.7233866
vn -0.6242101 -0.01779592 -0.7810538
vn -0.5663115 -0.1309215 -0.8137265
vn -0.5447396 -0.2913795 -0.7863566
g doodad_horizons_2025_pinSkin_0
f 3/3/3 2/2/2 1/1/1
f 3/3/3 4/4/4 2/2/2
f 4/4/4 5/5/5 2/2/2
f 4/4/4 6/6/6 5/5/5
f 4/4/4 7/7/7 6/6/6
f 7/7/7 4/4/4 8/8/8
f 9/9/9 7/7/7 8/8/8
f 9/9/9 8/8/8 10/10/10
f 8/8/8 11/11/11 10/10/10
f 8/8/8 12/12/12 11/11/11
f 12/12/12 13/13/13 11/11/11
f 16/16/16 15/15/15 14/14/14
f 17/17/17 16/16/16 14/14/14
f 17/17/17 14/14/14 18/18/18
f 19/19/19 17/17/17 18/18/18
f 21/21/21 16/16/16 20/20/20
f 22/22/22 20/20/20 19/19/19
f 22/22/22 21/21/21 20/20/20
f 23/23/23 22/22/22 19/19/19
f 24/24/24 21/21/21 22/22/22
f 25/25/25 22/22/22 23/23/23
f 25/25/25 24/24/24 22/22/22
f 26/26/26 25/25/25 23/23/23
f 27/27/27 24/24/24 25/25/25
f 28/28/28 25/25/25 26/26/26
f 28/28/28 27/27/27 25/25/25
f 29/29/29 28/28/28 26/26/26
f 30/30/30 27/27/27 28/28/28
f 31/31/31 28/28/28 29/29/29
f 31/31/31 30/30/30 28/28/28
f 32/32/32 31/31/31 29/29/29
f 33/33/33 30/30/30 31/31/31
f 34/34/34 31/31/31 32/32/32
f 34/34/34 33/33/33 31/31/31
f 35/35/35 34/34/34 32/32/32
f 36/36/36 33/33/33 34/34/34
f 37/37/37 34/34/34 35/35/35
f 37/37/37 36/36/36 34/34/34
f 38/38/38 36/36/36 37/37/37
f 39/39/39 37/37/37 35/35/35
f 40/40/40 38/38/38 37/37/37
f 40/40/40 37/37/37 39/39/39
f 41/41/41 40/40/40 39/39/39
f 44/44/44 43/43/43 42/42/42
f 45/45/45 44/44/44 42/42/42
f 44/44/44 45/45/45 46/46/46
f 46/46/46 45/45/45 47/47/47
f 45/45/45 42/42/42 47/47/47
f 44/44/44 46/46/46 48/48/48
f 46/46/46 47/47/47 48/48/48
f 49/49/49 44/44/44 48/48/48
f 49/49/49 48/48/48 50/50/50
f 48/48/48 51/51/51 50/50/50
f 47/47/47 52/52/52 48/48/48
f 48/48/48 52/52/52 51/51/51
f 52/52/52 53/53/53 51/51/51
f 42/42/42 54/54/54 47/47/47
f 55/55/55 54/54/54 42/42/42
f 56/56/56 55/55/55 42/42/42
f 42/42/42 57/57/57 56/56/56
f 57/57/57 58/58/58 56/56/56
f 58/58/58 59/59/59 56/56/56
f 56/56/56 59/59/59 55/55/55
f 58/58/58 60/60/60 59/59/59
f 60/60/60 61/61/61 59/59/59
f 59/59/59 61/61/61 55/55/55
f 61/61/61 62/62/62 55/55/55
f 65/65/65 64/64/64 63/63/63
f 64/64/64 65/65/65 66/66/66
f 67/67/67 64/64/64 66/66/66
f 67/67/67 66/66/66 68/68/68
f 69/69/69 67/67/67 68/68/68
f 69/69/69 70/70/70 67/67/67
f 70/70/70 71/71/71 67/67/67
f 70/70/70 72/72/72 71/71/71
f 72/72/72 73/73/73 71/71/71
f 73/73/73 74/74/74 71/71/71
f 74/74/74 75/75/75 71/71/71
