g Fog03
v -24.368706 -8.283816 0.47166052
v -23.916733 11.090943 0.08110388
v -12.152819 11.090164 -0.06691369
v -12.969785 -8.284718 0.328516
v -5.533293 11.089147 -0.14879845
v -6.421438 -8.285735 0.24759804
v 7.2363195 11.088057 -0.30914024
v 7.180902 -8.286871 0.07679725
v 14.277095 -8.286485 -0.014950796
v 14.308085 11.088416 -0.40061486
vt 0.0032634044 0.6996186
vt 0.0032634044 0.98779273
vt 0.16090252 0.98779273
vt 0.16090252 0.6996186
vt 0.3347904 0.98779273
vt 0.3347904 0.6996186
vt 0.779553 0.98779273
vt 0.779553 0.6996186
vt 0.99497765 0.6996186
vt 0.99578094 0.98779273
vn -0.000117008305 0.019908484 0.9998018
vn -0.00011700828 0.019908484 0.9998018
vn -0.00023660854 0.01992648 0.99980146
vn -0.00023249273 0.019925043 0.99980146
vn -0.00044996463 0.019944087 0.999801
vn -0.00044529047 0.019944204 0.999801
vn 0.00010109235 0.019924426 0.99980146
vn 9.946301E-05 0.019924024 0.9998016
vn 0.00011676903 0.01992816 0.99980146
vn 0.000116769006 0.01992816 0.99980146
g Fog03_0
f 3/3/3 2/2/2 1/1/1
f 4/4/4 3/3/3 1/1/1
f 5/5/5 3/3/3 4/4/4
f 6/6/6 5/5/5 4/4/4
f 5/5/5 6/6/6 7/7/7
f 6/6/6 8/8/8 7/7/7
f 7/7/7 8/8/8 9/9/9
f 10/10/10 7/7/7 9/9/9
