g Fog12
v -1.530742 -0.149266 -1.117867
v -1.482873 0.04635815 -1.064116
v -0.8936705 0.04635937 -0.4753351
v -0.9805943 -0.1492655 -0.4721106
v -0.4710287 0.04635921 0.2242084
v -0.5655692 -0.1492655 0.2359064
v -0.1044466 0.04635914 0.919566
v -0.155981 -0.1492657 0.9562628
v 0.7740364 0.0463583 0.9496417
v 0.7686014 -0.1492659 1.010781
v 1.52792 -0.1492661 0.7331885
v 1.530742 0.04635731 0.6609869
vt 0.003263404 0.6996186
vt 0.003263404 0.9877927
vt 0.1609025 0.9877927
vt 0.1609025 0.6996186
vt 0.3347904 0.9877927
vt 0.3347904 0.6996186
vt 0.5096857 0.9877927
vt 0.5096857 0.6996186
vt 0.779553 0.9877927
vt 0.779553 0.6996186
vt 0.9949777 0.6996186
vt 0.9957809 0.9877927
vn -0.6458094 -0.0514075 0.761766
vn -0.6458094 -0.0514075 0.7617661
vn -0.7870942 0.3339177 0.5186345
vn -0.7919816 0.3038264 0.5295796
vn -0.8302949 0.4179004 0.3687404
vn -0.82318 0.4228703 0.3788869
vn -0.5791188 0.2211518 0.784674
vn -0.5982024 0.231826 0.7670792
vn 0.3016547 0.2228611 0.9270045
vn 0.2950395 0.2079907 0.9325725
vn 0.3340296 0.2977383 0.8943021
vn 0.3340295 0.2977383 0.8943021
g Fog12_0
f 3/3/3 2/2/2 1/1/1
f 4/4/4 3/3/3 1/1/1
f 5/5/5 3/3/3 4/4/4
f 6/6/6 5/5/5 4/4/4
f 7/7/7 5/5/5 6/6/6
f 8/8/8 7/7/7 6/6/6
f 9/9/9 7/7/7 8/8/8
f 10/10/10 9/9/9 8/8/8
f 9/9/9 10/10/10 11/11/11
f 12/12/12 9/9/9 11/11/11
