g Fog19
v -32.042725 -6.2560997 0.16071327
v -31.454447 8.376098 -0.22500938
v -15.984669 8.375509 -0.22272423
v -17.052914 -6.25678 0.16321327
v -11.806695 -6.2571616 0.16459022
v -10.23041 8.375109 -0.22131798
v -8.441687 -6.257549 0.1659574
v -7.279838 8.374741 -0.2200289
v -4.9607697 -6.2580004 0.16755897
v -4.0734053 8.374301 -0.21842735
v -1.9169163 -6.258338 0.16873084
v -1.283588 8.3739805 -0.2173336
v 2.8235724 -6.258495 0.16928749
v 3.2264123 8.373736 -0.2165621
v 9.445667 -6.258406 0.16895546
v 9.512461 8.373917 -0.21721642
v 18.777264 -6.2581153 0.16787148
v 18.811934 8.374189 -0.21833946
vt 0.0032634044 0.6996186
vt 0.0032634044 0.98779273
vt 0.16090252 0.98779273
vt 0.16090252 0.6996186
vt 0.2500757 0.6996186
vt 0.2500757 0.98779273
vt 0.3347904 0.6996186
vt 0.3347904 0.98779273
vt 0.4372623 0.6996186
vt 0.4372623 0.98779273
vt 0.5096857 0.6996186
vt 0.5096857 0.98779273
vt 0.63002217 0.6996186
vt 0.63002217 0.98779273
vt 0.779553 0.6996186
vt 0.779553 0.98779273
vt 0.99497765 0.6996186
vt 0.99578094 0.98779273
vn -0.000117008305 0.019908484 0.9998018
vn -0.00011700828 0.019908484 0.9998018
vn -0.00023660854 0.01992648 0.99980146
vn -0.00023249273 0.019925043 0.99980146
vn -0.0003006482 0.019935971 0.9998012
vn -0.00032543423 0.019937934 0.9998012
vn -0.00044529047 0.019944204 0.999801
vn -0.00044996463 0.019944087 0.999801
vn -0.00043687382 0.019939838 0.9998011
vn -0.00043205687 0.019939445 0.9998011
vn -0.00024044965 0.019926775 0.99980146
vn -0.00023295313 0.01992636 0.99980146
vn -2.1095233E-05 0.019919522 0.9998016
vn -8.5862275E-06 0.01991943 0.9998016
vn 9.946301E-05 0.019924024 0.9998016
vn 0.00010109235 0.019924426 0.99980146
vn 0.00011676903 0.01992816 0.99980146
vn 0.000116769006 0.01992816 0.99980146
g Fog19_0
f 3/3/3 2/2/2 1/1/1
f 4/4/4 3/3/3 1/1/1
f 3/3/3 4/4/4 5/5/5
f 6/6/6 3/3/3 5/5/5
f 5/5/5 7/7/7 6/6/6
f 7/7/7 8/8/8 6/6/6
f 7/7/7 9/9/9 8/8/8
f 9/9/9 10/10/10 8/8/8
f 10/10/10 9/9/9 11/11/11
f 12/12/12 10/10/10 11/11/11
f 11/11/11 13/13/13 12/12/12
f 13/13/13 14/14/14 12/12/12
f 13/13/13 15/15/15 14/14/14
f 15/15/15 16/16/16 14/14/14
f 16/16/16 15/15/15 17/17/17
f 18/18/18 16/16/16 17/17/17
