g Fog16
v -2.3040283 -0.10697994 -0.71290404
v -2.963618 -0.07628147 -1.0734705
v -2.8713915 0.21310058 -1.4947467
v -2.2249486 0.20337479 -1.1520623
v -1.3588537 0.19599976 -0.45442685
v -1.6576988 -0.1562534 0.086023554
v -0.6388319 0.1902525 0.4160504
v -0.7784721 -0.17884044 0.9456146
v 0.5115327 0.17906208 0.9996551
v 0.44805694 -0.18976031 1.5001303
v 1.4901342 -0.17772876 1.4869428
v 1.5003088 0.16555434 0.91454285
v 2.9581573 -0.15159167 1.3081225
v 2.9628832 0.138502 0.752041
vt 0.079011075 0.26231214
vt 0.0032634044 0.26231214
vt 0.0032634044 0.5451468
vt 0.079011075 0.5451468
vt 0.2500757 0.5451468
vt 0.2500757 0.26231214
vt 0.4372623 0.5451468
vt 0.4372623 0.26231214
vt 0.63002217 0.5451468
vt 0.63002217 0.26231214
vt 0.779553 0.26231214
vt 0.779553 0.5451468
vt 0.99497765 0.26231214
vt 0.99578094 0.5451468
vn -0.71701044 0.04543734 0.69557995
vn -0.64580935 -0.0514075 0.761766
vn -0.6458094 -0.0514075 0.76176614
vn -0.7485269 0.095159985 0.65624094
vn -0.7754175 0.43694165 0.45586148
vn -0.7731572 0.43074316 0.4654979
vn -0.8141823 0.3577906 0.45726687
vn -0.8223602 0.36281732 0.4382776
vn -0.012401885 0.10498828 0.9943961
vn -0.08254001 0.11050874 0.9904418
vn 0.29503947 0.20799068 0.9325725
vn 0.30165473 0.2228611 0.92700446
vn 0.33402956 0.29773828 0.89430207
vn 0.33402953 0.29773825 0.89430207
g Fog16_0
f 3/3/3 2/2/2 1/1/1
f 4/4/4 3/3/3 1/1/1
f 5/5/5 4/4/4 1/1/1
f 6/6/6 5/5/5 1/1/1
f 5/5/5 6/6/6 7/7/7
f 6/6/6 8/8/8 7/7/7
f 7/7/7 8/8/8 9/9/9
f 8/8/8 10/10/10 9/9/9
f 10/10/10 11/11/11 9/9/9
f 11/11/11 12/12/12 9/9/9
f 12/12/12 11/11/11 13/13/13
f 14/14/14 12/12/12 13/13/13
