g Fog22
v -2.8635192 -0.33184636 3.3501763
v -3.9111938 -0.28604525 1.9873366
v -3.78019 0.0015169906 1.119696
v -2.72197 0.010508079 2.3421185
v -1.6400067 0.03765789 4.0985513
v -1.8946779 -0.30508456 5.0608177
v -0.5389996 0.0852074 7.0291424
v -0.6932813 -0.23566608 8.063062
v 0.5505458 -0.2572662 3.9987454
v 0.6422125 0.030432854 3.0805588
v 2.0733469 -0.26016146 2.6921663
v 2.0932224 0.027956886 1.6645001
v 3.8649576 -0.26613933 3.0957632
v 3.8778722 0.022052117 2.0540895
vt 0.079011075 0.6996186
vt 0.0032634044 0.6996186
vt 0.0032634044 0.98779273
vt 0.079011075 0.98779273
vt 0.2500757 0.98779273
vt 0.2500757 0.6996186
vt 0.5096857 0.98779273
vt 0.5096857 0.6996186
vt 0.63002217 0.6996186
vt 0.63002217 0.98779273
vt 0.779553 0.6996186
vt 0.779553 0.98779273
vt 0.99497765 0.6996186
vt 0.99578094 0.98779273
vn -0.71701044 0.04543734 0.69557995
vn -0.64580935 -0.0514075 0.761766
vn -0.6458094 -0.0514075 0.76176614
vn -0.7485269 0.095159985 0.65624094
vn -0.7754175 0.43694165 0.45586148
vn -0.7731572 0.43074316 0.4654979
vn -0.57911885 0.22115181 0.784674
vn -0.5982024 0.23182596 0.76707923
vn -0.08254001 0.11050874 0.9904418
vn -0.012401885 0.10498828 0.9943961
vn 0.29503947 0.20799068 0.9325725
vn 0.30165473 0.2228611 0.92700446
vn 0.33402956 0.29773828 0.89430207
vn 0.33402953 0.29773825 0.89430207
g Fog22_0
f 3/3/3 2/2/2 1/1/1
f 4/4/4 3/3/3 1/1/1
f 5/5/5 4/4/4 1/1/1
f 6/6/6 5/5/5 1/1/1
f 7/7/7 5/5/5 6/6/6
f 8/8/8 7/7/7 6/6/6
f 8/8/8 9/9/9 7/7/7
f 9/9/9 10/10/10 7/7/7
f 9/9/9 11/11/11 10/10/10
f 11/11/11 12/12/12 10/10/10
f 12/12/12 11/11/11 13/13/13
f 14/14/14 12/12/12 13/13/13
