g Fog23
v -1.487473 -0.1494794 -0.5629815
v -1.929325 -0.1464236 -0.9568805
v -1.938074 0.0618214 -1.713066
v -1.505122 0.05882793 -1.32704
v -1.21319 -0.1522426 -0.1369342
v -1.172473 0.0560963 -0.9401758
v -0.9425933 -0.1549874 0.2872143
v -0.8485805 0.05310467 -0.4940363
v -0.6699944 -0.1577203 0.707746
v -0.6195953 0.05062366 -0.1019727
v -0.4562092 -0.1605487 1.181055
v -0.434585 0.04792141 0.3609564
v -0.133626 -0.1632328 1.563489
v -0.1388682 0.04544071 0.7157599
v 0.3643504 -0.1657861 1.820857
v 0.3357332 0.0427026 1.024733
v 1.056147 -0.1679383 1.886248
v 0.9912927 0.04107616 1.000188
v 2.028948 -0.1702154 1.821285
v 1.960586 0.03886524 0.9231488
vt 0.3691598 0.6996186
vt 0.3250975 0.6996186
vt 0.3250975 0.9877927
vt 0.3691598 0.9877927
vt 0.416796 0.6996186
vt 0.416796 0.9877927
vt 0.468668 0.6996186
vt 0.468668 0.9877927
vt 0.5179465 0.6996186
vt 0.5179465 0.9877927
vt 0.5775543 0.6996186
vt 0.5775543 0.9877927
vt 0.619683 0.6996186
vt 0.619683 0.9877927
vt 0.6896827 0.6996186
vt 0.6896827 0.9877927
vt 0.7766646 0.6996186
vt 0.7766646 0.9877927
vt 0.901977 0.6996186
vt 0.9024443 0.9877927
vn -0.7170104 0.04543734 0.6955799
vn -0.6458094 -0.0514075 0.761766
vn -0.6458094 -0.0514075 0.7617661
vn -0.7485269 0.09515999 0.6562409
vn -0.7919816 0.3038264 0.5295796
vn -0.7870942 0.3339177 0.5186345
vn -0.7731572 0.4307432 0.4654979
vn -0.7754175 0.4369417 0.4558615
vn -0.82318 0.4228703 0.3788869
vn -0.8302949 0.4179004 0.3687404
vn -0.8223602 0.3628173 0.4382776
vn -0.8141823 0.3577906 0.4572669
vn -0.5982024 0.231826 0.7670792
vn -0.5791188 0.2211518 0.784674
vn -0.08254001 0.1105087 0.9904418
vn -0.01240189 0.1049883 0.9943961
vn 0.2950395 0.2079907 0.9325725
vn 0.3016547 0.2228611 0.9270045
vn 0.3340296 0.2977383 0.8943021
vn 0.3340295 0.2977383 0.8943021
g Fog23_0
f 3/3/3 2/2/2 1/1/1
f 4/4/4 3/3/3 1/1/1
f 4/4/4 1/1/1 5/5/5
f 6/6/6 4/4/4 5/5/5
f 6/6/6 5/5/5 7/7/7
f 8/8/8 6/6/6 7/7/7
f 7/7/7 9/9/9 8/8/8
f 9/9/9 10/10/10 8/8/8
f 9/9/9 11/11/11 10/10/10
f 11/11/11 12/12/12 10/10/10
f 12/12/12 11/11/11 13/13/13
f 14/14/14 12/12/12 13/13/13
f 13/13/13 15/15/15 14/14/14
f 15/15/15 16/16/16 14/14/14
f 15/15/15 17/17/17 16/16/16
f 17/17/17 18/18/18 16/16/16
f 18/18/18 17/17/17 19/19/19
f 20/20/20 18/18/18 19/19/19
