g FoliagePlant_10
v -0.01601595 0.3035615 0.0724887
v -0.1290784 0.2324442 0.1179897
v -0.05979753 0.2743776 0.07115525
v -0.06358734 0.2826473 0.167959
v 0.02539119 0.2804132 0.2055646
v 0.01893449 0.2988242 0.1157907
v -0.1009941 0.2504223 0.2513932
v -0.1727313 0.1944526 0.1962889
v -3.793836E-05 0.2481063 0.294087
v -0.1251132 0.2100211 0.3190833
v -0.1784394 0.1721348 0.2796763
v -0.0534578 0.2109569 0.3505363
v -0.1412315 0.1666957 0.3724681
v 0.03042087 0.2504691 0.08601034
v -0.01979405 0.178802 0.185364
v -0.004377484 0.2259407 0.1104686
v 0.06534788 0.21794 0.1711757
v 0.1500453 0.2123605 0.1286339
v 0.08217975 0.2430415 0.08155382
v 0.09856716 0.1746263 0.2453108
v 0.004909873 0.1309265 0.2605753
v 0.1947159 0.1684737 0.1970843
v 0.1277627 0.1267858 0.2998652
v 0.05975676 0.09741485 0.312416
v 0.1971605 0.1245634 0.2665173
v 0.1512501 0.07878163 0.3399155
v -0.01708037 0.3403366 0.04553896
v -0.05934134 0.3068132 0.1043277
v -0.03896531 0.3229199 0.06010166
v -0.01304492 0.3456821 0.1014854
v 0.04667959 0.350934 0.09252551
v 0.01506279 0.3454131 0.05408943
v -0.006038457 0.3419742 0.1511856
v -0.05679142 0.298754 0.1542385
v 0.06171013 0.3480799 0.1410093
v 0.004196346 0.3304527 0.1913178
v -0.03336248 0.3008244 0.1938326
v 0.05241108 0.3365234 0.1842996
v 0.01479377 0.3145215 0.2234141
v -0.02116257 0.3228029 0.05462748
v -0.09412801 0.3556947 -0.04029307
v -0.03725755 0.3274934 0.007114559
v -0.08833802 0.3663506 0.05869803
v -0.1003391 0.3285578 0.1503668
v -0.04041573 0.3136676 0.1042926
v -0.1571276 0.3949145 0.06041747
v -0.1637715 0.3825391 -0.04857449
v -0.1706376 0.3521856 0.1645435
v -0.2196945 0.4061201 0.06148189
v -0.2235662 0.3996634 -0.01728521
v -0.2285842 0.3777083 0.1369739
v -0.2747286 0.406471 0.06037068
v -0.08473536 0.1790126 0.08960131
v -0.1348216 0.1176739 -0.04807152
v -0.08865383 0.1557357 0.02683559
v -0.1794454 0.1472203 0.06805557
v -0.1904288 0.1196273 0.1926395
v -0.1169838 0.15673 0.1495247
v -0.2537208 0.1059419 0.05110672
v -0.2041844 0.07264075 -0.07654184
v -0.2662717 0.07486317 0.1925342
v -0.3078893 0.05633524 0.04095379
v -0.2736641 0.03516379 -0.05217715
v -0.3186622 0.03675458 0.142565
v -0.346267 0.004681617 0.03331569
v -0.0009619892 0.2655114 0.04863867
v -0.06258139 0.2333448 -0.06051706
v -0.011922 0.2539197 0.0004005432
v -0.0937303 0.2438019 0.02304578
v -0.1013567 0.2049564 0.1038131
v -0.03168982 0.2394506 0.08415052
v -0.1676081 0.2137174 0.0003303587
v -0.1330437 0.2015175 -0.09165427
v -0.1763106 0.1698188 0.09204596
v -0.2239522 0.1753164 -0.01822098
v -0.2000554 0.1690585 -0.08487006
v -0.2314382 0.1460857 0.04808891
v -0.2660494 0.1344941 -0.03464346
v 0.004406899 0.2704358 0.0858115
v 0.0169577 0.2509838 0.1999969
v -0.005500406 0.2562474 0.1283766
v 0.06502037 0.2909522 0.1369271
v 0.1194813 0.277758 0.0678567
v 0.04674977 0.269886 0.06102571
v 0.1226394 0.2961924 0.1828024
v 0.0698746 0.2514984 0.2521301
v 0.1844109 0.2814192 0.1043862
v 0.1736029 0.2869636 0.2187938
v 0.1349329 0.2573001 0.2694415
v 0.2178758 0.2789511 0.1625316
v 0.2166008 0.2693597 0.2479075
v 0.05234091 0.04683733 0.1682163
v -0.09474793 -0.02375361 0.1866039
v -0.006178826 0.02125615 0.1540982
v -0.002389014 0.01295134 0.261242
v 0.1091178 -0.003436059 0.3141355
v 0.09772497 0.03161964 0.219098
v -0.0492703 -0.03318134 0.3432959
v -0.1506359 -0.07430772 0.2609262
v 0.07729045 -0.05154552 0.4033947
v -0.08210355 -0.08566545 0.4076992
v -0.1567183 -0.1127321 0.3489923
v 0.008231789 -0.09629795 0.4521709
v -0.1064098 -0.1390151 0.4564988
v -0.006904036 0.1543438 0.06671041
v -0.07905066 0.117978 -0.03701793
v -0.02724499 0.1417813 0.02044907
v -0.08616239 0.1164224 0.06488568
v -0.06372771 0.0763019 0.1562972
v -0.02013326 0.1224346 0.1101762
v -0.1572212 0.0674707 0.059856
v -0.1490217 0.06861702 -0.05239938
v -0.1318155 0.02208665 0.1636896
v -0.2091907 0.01588726 0.05442864
v -0.2047692 0.0187647 -0.02653748
v -0.1923705 -0.01495753 0.1298738
v -0.2467378 -0.03381297 0.0473403
v 0.01010332 0.1906744 0.1194168
v -0.06828949 0.1288094 0.1567884
v -0.0256542 0.167807 0.1211479
v -0.0009619892 0.1622158 0.1862413
v 0.07925554 0.1639704 0.1963123
v 0.04954533 0.1857266 0.14129
v -0.008167297 0.1268794 0.2442347
v -0.08206847 0.08968318 0.2116002
v 0.08285819 0.1290199 0.2557211
v -0.009699583 0.0891802 0.2883204
v -0.06404352 0.06384465 0.2656166
v 0.05533531 0.09229159 0.2975843
v -0.009067953 0.05199566 0.3210367
v -0.009126455 0.1206449 0.1060472
v -0.0957188 0.06839478 0.07223135
v -0.03905886 0.1049009 0.08032563
v -0.05977413 0.08246616 0.1431381
v -0.002693146 0.06734204 0.1983827
v 0.008360475 0.1043628 0.1446119
v -0.1021521 0.03863779 0.1739127
v -0.1414304 0.02274168 0.0957188
v -0.0374096 0.02160707 0.2366901
v -0.1315699 -0.005857319 0.1967568
v -0.1611865 -0.01585819 0.1407754
v -0.08591676 -0.01671207 0.242831
v -0.1522851 -0.04808322 0.2123021
v 0.01865375 0.01202729 0.02520972
v -0.07121372 -0.05584998 -0.06973423
v -0.002377331 -0.01102737 -0.02449052
v -0.07420814 -0.02691178 0.03792426
v -0.04727012 -0.043229 0.1450915
v 0.00983426 -0.004594058 0.08499271
v -0.1540982 -0.07573475 0.0495744
v -0.1504253 -0.1082171 -0.06885697
v -0.1235809 -0.09405214 0.1712575
v -0.2133314 -0.1284996 0.06097892
v -0.2122202 -0.1497061 -0.02500519
v -0.1928384 -0.139483 0.1487877
v -0.2568556 -0.1806094 0.06958786
v 0.08827387 0.08831462 0.1738192
v 0.005447924 0.02662504 0.2901919
v 0.04186046 0.06144679 0.2049096
v 0.1112232 0.07699201 0.2779335
v 0.2250577 0.07374027 0.247077
v 0.1537883 0.08546057 0.1829311
v 0.1348159 0.05201906 0.3714738
v 0.01858358 -0.004137874 0.3847615
v 0.2640202 0.04855677 0.3364766
v 0.1585256 0.01741958 0.4450124
v 0.07367609 -0.02053696 0.4556098
v 0.2513524 0.01758331 0.4207179
v 0.1788899 -0.02133235 0.5025378
v -0.01061195 0.3426994 0.04259133
v 0.02981262 0.383276 0.0751673
v 0.001377404 0.3510627 0.06180939
v 0.01484056 0.3845977 0.0309763
v 0.02356647 0.3635433 -0.009845972
v -0.001804173 0.3410033 0.018484
v 0.04545142 0.4185657 0.02089354
v 0.0622599 0.4168228 0.06955275
v 0.05524175 0.394739 -0.02547306
v 0.07732554 0.4411641 0.01260042
v 0.08828555 0.4410588 0.04777309
v 0.08323249 0.4250925 -0.02101654
v 0.1081235 0.4557619 0.006670088
v -0.02058944 0.320908 0.03353792
v 0.01562425 0.3699766 -0.003517926
v 0.0007106662 0.3337279 0.02545536
v -0.03414616 0.3618238 8.4728E-05
v -0.06904981 0.3300199 -0.01817419
v -0.04245099 0.3133635 0.01798102
v -0.04300073 0.3945402 -0.03762618
v 0.01195142 0.4031959 -0.04191895
v -0.08268842 0.3585019 -0.05825955
v -0.04725841 0.4155829 -0.075185
v -0.008120507 0.4231041 -0.07713839
v -0.0766294 0.3907737 -0.08899906
v -0.0477263 0.428742 -0.1102641
vt 0.878431 0.809107
vt 0.7882264 0.6604365
vt 0.8341638 0.7740275
vt 0.878431 0.6604365
vt 0.9686356 0.6604365
vt 0.9260389 0.7740275
vt 0.878431 0.5259648
vt 0.7790388 0.5259648
vt 0.981164 0.5259648
vt 0.8801014 0.4123738
vt 0.8074366 0.4123738
vt 0.9536014 0.4123738
vt 0.8801014 0.3188283
vt 0.878431 0.9627889
vt 0.7882264 0.8216354
vt 0.8341638 0.9343912
vt 0.878431 0.8216354
vt 0.9686356 0.8216354
vt 0.9260389 0.9343912
vt 0.878431 0.5159421
vt 0.7790388 0.5159421
vt 0.981164 0.5159421
vt 0.8801014 0.4023511
vt 0.8074366 0.4023511
vt 0.9536014 0.4023511
vt 0.8801014 0.3088056
vt 0.878431 0.6671183
vt 0.7882264 0.5201182
vt 0.8341638 0.632874
vt 0.878431 0.5201182
vt 0.9686356 0.5201182
vt 0.9260389 0.632874
vt 0.878431 0.3848113
vt 0.7790388 0.3848113
vt 0.981164 0.3848113
vt 0.8801014 0.2712203
vt 0.8074366 0.2712203
vt 0.9536014 0.2712203
vt 0.8801014 0.1776748
vt 0.8959707 0.6412262
vt 0.8057661 0.5000727
vt 0.8517036 0.6128285
vt 0.8959707 0.5000727
vt 0.9870105 0.5000727
vt 0.944414 0.6128285
vt 0.8959707 0.3647658
vt 0.7974138 0.3647658
vt 0.9987037 0.3647658
vt 0.8976412 0.2511749
vt 0.8258116 0.2511749
vt 0.9719765 0.2511749
vt 0.8984764 0.1576294
vt 0.878431 0.9769878
vt 0.7882264 0.8216354
vt 0.8341638 0.9343912
vt 0.878431 0.8216354
vt 0.9686356 0.8216354
vt 0.9260389 0.9343912
vt 0.878431 0.5794194
vt 0.7790388 0.5794194
vt 0.981164 0.5794194
vt 0.8801014 0.4658284
vt 0.8074366 0.4658284
vt 0.9536014 0.4658284
vt 0.8801014 0.3722829
vt 0.878431 0.80159
vt 0.7882264 0.6437319
vt 0.8341638 0.7564877
vt 0.878431 0.6437319
vt 0.9686356 0.6437319
vt 0.9260389 0.7564877
vt 0.878431 0.5092602
vt 0.7790388 0.5092602
vt 0.981164 0.5092602
vt 0.8801014 0.3956693
vt 0.8074366 0.3956693
vt 0.9536014 0.3956693
vt 0.8801014 0.3012885
vt 0.878431 0.9678003
vt 0.7882264 0.8216354
vt 0.8341638 0.9343912
vt 0.878431 0.8216354
vt 0.9686356 0.8216354
vt 0.9260389 0.9343912
vt 0.878431 0.6871638
vt 0.7790388 0.6871638
vt 0.981164 0.6871638
vt 0.8801014 0.5735728
vt 0.8074366 0.5735728
vt 0.9536014 0.5735728
vt 0.8801014 0.479192
vt 0.878431 0.9644594
vt 0.7882264 0.8216354
vt 0.8341638 0.9302151
vt 0.878431 0.8216354
vt 0.9686356 0.8216354
vt 0.9260389 0.9302151
vt 0.878431 0.6061467
vt 0.7790388 0.6061467
vt 0.981164 0.6061467
vt 0.8801014 0.4324193
vt 0.8074366 0.4324193
vt 0.9536014 0.4324193
vt 0.8801014 0.3388738
vt 0.878431 0.9561071
vt 0.7882264 0.8216354
vt 0.83834 0.9143457
vt 0.878431 0.8216354
vt 0.9686356 0.8216354
vt 0.922698 0.9143457
vt 0.878431 0.4925557
vt 0.7790388 0.4925557
vt 0.981164 0.4925557
vt 0.8801014 0.3789647
vt 0.8074366 0.3789647
vt 0.9536014 0.3789647
vt 0.8801014 0.284584
vt 0.878431 0.9644594
vt 0.7882264 0.8216354
vt 0.8341638 0.9302151
vt 0.878431 0.8216354
vt 0.9686356 0.8216354
vt 0.9260389 0.9302151
vt 0.878431 0.6061467
vt 0.7790388 0.6061467
vt 0.981164 0.6061467
vt 0.8801014 0.4324193
vt 0.8074366 0.4324193
vt 0.9536014 0.4324193
vt 0.8801014 0.3388738
vt 0.878431 0.9644594
vt 0.7882264 0.8216354
vt 0.8341638 0.9302151
vt 0.878431 0.8216354
vt 0.9686356 0.8216354
vt 0.9260389 0.9302151
vt 0.878431 0.6061467
vt 0.7790388 0.6061467
vt 0.981164 0.6061467
vt 0.8801014 0.4324193
vt 0.8074366 0.4324193
vt 0.9536014 0.4324193
vt 0.8801014 0.3388738
vt 0.878431 0.9644594
vt 0.7882264 0.8216354
vt 0.8341638 0.9302151
vt 0.878431 0.8216354
vt 0.9686356 0.8216354
vt 0.9260389 0.9302151
vt 0.878431 0.6061467
vt 0.7790388 0.6061467
vt 0.981164 0.6061467
vt 0.8801014 0.4324193
vt 0.8074366 0.4324193
vt 0.9536014 0.4324193
vt 0.8801014 0.3388738
vt 0.878431 0.9644594
vt 0.7882264 0.8216354
vt 0.8341638 0.9302151
vt 0.878431 0.8216354
vt 0.9686356 0.8216354
vt 0.9260389 0.9302151
vt 0.878431 0.6061467
vt 0.7790388 0.6061467
vt 0.981164 0.6061467
vt 0.8801014 0.4324193
vt 0.8074366 0.4324193
vt 0.9536014 0.4324193
vt 0.8801014 0.3388738
vt 0.8842775 0.6905047
vt 0.7940729 0.548516
vt 0.8400105 0.6621069
vt 0.8842775 0.548516
vt 0.9744821 0.548516
vt 0.9318855 0.6621069
vt 0.8842775 0.4140443
vt 0.7848854 0.4140443
vt 0.9861753 0.4140443
vt 0.8851128 0.3004533
vt 0.8132831 0.3004533
vt 0.959448 0.3004533
vt 0.885948 0.2069078
vt 0.9093344 0.7163967
vt 0.8191298 0.574408
vt 0.8650673 0.687999
vt 0.9093344 0.574408
vt 0.999539 0.574408
vt 0.9577776 0.6871638
vt 0.9093344 0.4399363
vt 0.8107775 0.4399363
vt 1.012067 0.4399363
vt 0.9110048 0.3263454
vt 0.8391752 0.3263454
vt 0.9845049 0.3263454
vt 0.91184 0.2319646
vn -0.5545446 0.8233585 -0.1206692
vn -0.5545446 0.8233585 -0.1206692
vn -0.5545446 0.8233585 -0.1206692
vn -0.5545446 0.8233585 -0.1206692
vn -0.07067925 0.9786733 0.1928805
vn -0.07067925 0.9786733 0.1928805
vn -0.6680437 0.7218065 0.1808672
vn -0.6680437 0.7218065 0.1808672
vn -0.1782049 0.883095 0.4340348
vn -0.6680437 0.7218065 0.1808672
vn -0.6680437 0.7218065 0.1808672
vn -0.2558623 0.7875167 0.560671
vn -0.6919384 0.6501229 0.3139451
vn -0.2976778 0.8412795 0.4512613
vn -0.2976778 0.8412795 0.4512613
vn -0.2976778 0.8412795 0.4512613
vn -0.2976778 0.8412795 0.4512613
vn 0.1921611 0.9368578 0.292184
vn 0.1921611 0.9368578 0.292184
vn -0.1961258 0.697912 0.6888059
vn -0.1961258 0.697912 0.6888059
vn 0.2937131 0.799464 0.5240133
vn -0.1961258 0.697912 0.6888059
vn -0.1961258 0.697912 0.6888059
vn 0.3295549 0.6919384 0.642351
vn -0.1124948 0.6023337 0.7902778
vn -0.6381756 0.7695957 -0.02131447
vn -0.6381756 0.7695957 -0.02131447
vn -0.6381756 0.7695957 -0.02131447
vn -0.6381756 0.7695957 -0.02131447
vn -0.1124948 0.9906206 -0.07756106
vn -0.1124948 0.9906206 -0.07756106
vn -0.5844127 0.7397275 0.3335642
vn -0.5844127 0.7397275 0.3335642
vn -0.05873197 0.9607524 0.2711189
vn -0.5844127 0.7397275 0.3335642
vn -0.5844127 0.7397275 0.3335642
vn -0.0467847 0.8890686 0.455377
vn -0.512729 0.6919384 0.5082619
vn 0.5266852 0.8412795 -0.1218665
vn 0.5266852 0.8412795 -0.1218665
vn 0.5266852 0.8412795 -0.1218665
vn 0.5266852 0.8412795 -0.1218665
vn 0.5027906 0.781543 0.3693129
vn 0.5027906 0.781543 0.3693129
vn 0.1981348 0.9726996 -0.1208222
vn 0.1981348 0.9726996 -0.1208222
vn 0.1921611 0.9069896 0.3747586
vn 0.1981348 0.9726996 -0.1208222
vn 0.1981348 0.9726996 -0.1208222
vn 0.001004457 0.9368578 0.349709
vn 0.006978095 0.9965943 -0.08216484
vn -0.2319677 0.9189368 -0.3189766
vn -0.2319677 0.9189368 -0.3189766
vn -0.2319677 0.9189368 -0.3189766
vn -0.2319677 0.9189368 -0.3189766
vn -0.3574142 0.9189368 0.1667638
vn -0.3574142 0.9189368 0.1667638
vn -0.5605181 0.7277802 -0.395165
vn -0.5605181 0.7277802 -0.395165
vn -0.6620702 0.7457012 0.07478558
vn -0.5605181 0.7277802 -0.395165
vn -0.5605181 0.7277802 -0.395165
vn -0.8054376 0.5903864 0.05209814
vn -0.7098593 0.5844127 -0.3931433
vn -0.1722313 0.9667261 -0.1891483
vn -0.1722313 0.9667261 -0.1891483
vn -0.1722313 0.9667261 -0.1891483
vn -0.1722313 0.9667261 -0.1891483
vn -0.3155987 0.8711478 0.3761636
vn -0.3155987 0.8711478 0.3761636
vn -0.4589662 0.8472531 -0.2674177
vn -0.4589662 0.8472531 -0.2674177
vn -0.5844127 0.7576485 0.2905695
vn -0.4589662 0.8472531 -0.2674177
vn -0.4589662 0.8472531 -0.2674177
vn -0.7218065 0.6620702 0.2016394
vn -0.6083074 0.7397275 -0.2876898
vn -0.4529926 0.8711478 0.1894714
vn -0.4529926 0.8711478 0.1894714
vn -0.4529926 0.8711478 0.1894714
vn -0.4529926 0.8711478 0.1894714
vn -0.1005475 0.9667261 -0.2352253
vn -0.1005475 0.9667261 -0.2352253
vn -0.1662576 0.8890686 0.4265154
vn -0.1662576 0.8890686 0.4265154
vn 0.1742402 0.9846469 -0.0105264
vn -0.1662576 0.8890686 0.4265154
vn -0.1662576 0.8890686 0.4265154
vn 0.311634 0.9428314 0.1181237
vn 0.006978095 0.8592005 0.5115915
vn -0.3813088 0.9010159 0.2068187
vn -0.3813088 0.9010159 0.2068187
vn -0.3813088 0.9010159 0.2068187
vn -0.3813088 0.9010159 0.2068187
vn 0.06671456 0.9428314 0.3265243
vn 0.06671456 0.9428314 0.3265243
vn -0.4410453 0.7695957 0.4617375
vn -0.4410453 0.7695957 0.4617375
vn 0.006978095 0.817385 0.5760496
vn -0.4410453 0.7695957 0.4617375
vn -0.4410453 0.7695957 0.4617375
vn -0.04081106 0.7098593 0.7031602
vn -0.4410453 0.6740174 0.592604
vn -0.4171507 0.9069896 -0.05792413
vn -0.4171507 0.9069896 -0.05792413
vn -0.4171507 0.9069896 -0.05792413
vn -0.4171507 0.9069896 -0.05792413
vn -0.3872824 0.8054376 0.4486453
vn -0.3872824 0.8054376 0.4486453
vn -0.6858922 0.7277033 0
vn -0.6858922 0.7277033 0
vn -0.6501229 0.6322019 0.4214985
vn -0.6858922 0.7277033 0
vn -0.6858922 0.7277033 0
vn -0.763622 0.5187026 0.3844853
vn -0.7934903 0.6023337 -0.08699016
vn -0.3514406 0.8114113 0.4670131
vn -0.3514406 0.8114113 0.4670131
vn -0.3514406 0.8114113 0.4670131
vn -0.3514406 0.8114113 0.4670131
vn 0.0965828 0.9189368 0.3823962
vn 0.0965828 0.9189368 0.3823962
vn -0.2678096 0.6560965 0.7055604
vn -0.2678096 0.6560965 0.7055604
vn 0.1682665 0.7695957 0.6159617
vn -0.2678096 0.6560965 0.7055604
vn -0.2678096 0.6560965 0.7055604
vn 0.1981348 0.6501229 0.7335413
vn -0.2020994 0.5545446 0.8072398
vn -0.5485709 0.8293322 0.1061981
vn -0.5485709 0.8293322 0.1061981
vn -0.5485709 0.8293322 0.1061981
vn -0.5485709 0.8293322 0.1061981
vn -0.2737832 0.8233585 0.4971152
vn -0.2737832 0.8233585 0.4971152
vn -0.7277802 0.6381756 0.2511331
vn -0.7277802 0.6381756 0.2511331
vn -0.4529926 0.6441492 0.6163356
vn -0.7277802 0.6381756 0.2511331
vn -0.7277802 0.6381756 0.2511331
vn -0.5485709 0.512729 0.6604384
vn -0.7934903 0.512729 0.3278446
vn -0.4052034 0.883095 -0.2365447
vn -0.4052034 0.883095 -0.2365447
vn -0.4052034 0.883095 -0.2365447
vn -0.4052034 0.883095 -0.2365447
vn -0.3633879 0.9069896 0.2128829
vn -0.3633879 0.9069896 0.2128829
vn -0.6560965 0.7218065 -0.2203014
vn -0.6560965 0.7218065 -0.2203014
vn -0.6023337 0.7576485 0.2513225
vn -0.6560965 0.7218065 -0.2203014
vn -0.6560965 0.7218065 -0.2203014
vn -0.7218065 0.6441492 0.2531149
vn -0.7695957 0.6142809 -0.1743025
vn -0.1841785 0.7457012 0.6403187
vn -0.1841785 0.7457012 0.6403187
vn -0.1841785 0.7457012 0.6403187
vn -0.1841785 0.7457012 0.6403187
vn 0.1622929 0.9129633 0.3743782
vn 0.1622929 0.9129633 0.3743782
vn 0.02489907 0.5963601 0.8023308
vn 0.02489907 0.5963601 0.8023308
vn 0.3534495 0.7755694 0.5230349
vn 0.02489907 0.5963601 0.8023308
vn 0.02489907 0.5963601 0.8023308
vn 0.4430542 0.6620702 0.6044552
vn 0.144372 0.5067554 0.8499151
vn -0.781543 0.5605181 0.2738794
vn -0.781543 0.5605181 0.2738794
vn -0.781543 0.5605181 0.2738794
vn -0.781543 0.5605181 0.2738794
vn -0.8293322 0.4231243 -0.3649299
vn -0.8293322 0.4231243 -0.3649299
vn -0.5485709 0.8114113 0.2016971
vn -0.5485709 0.8114113 0.2016971
vn -0.6083074 0.6560965 -0.4466538
vn -0.5485709 0.8114113 0.2016971
vn -0.5485709 0.8114113 0.2016971
vn -0.4529926 0.7695957 -0.4500224
vn -0.4052034 0.9069896 0.1148045
vn -0.05873197 0.6262282 0.7774245
vn -0.05873197 0.6262282 0.7774245
vn -0.05873197 0.6262282 0.7774245
vn -0.05873197 0.6262282 0.7774245
vn -0.6501229 0.3574142 0.6705187
vn -0.6501229 0.3574142 0.6705187
vn -0.1124948 0.8472531 0.5191407
vn -0.1124948 0.8472531 0.5191407
vn -0.7098593 0.5664918 0.4185532
vn -0.1124948 0.8472531 0.5191407
vn -0.1124948 0.8472531 0.5191407
vn -0.6919384 0.6740174 0.2586924
vn -0.1602839 0.9249105 0.3447457
g FoliagePlant_10_0
f 3/3/3 2/2/2 1/1/1
f 2/2/2 4/4/4 1/1/1
f 4/4/4 5/5/5 1/1/1
f 5/5/5 6/6/6 1/1/1
f 7/7/7 4/4/4 2/2/2
f 5/5/5 4/4/4 7/7/7
f 8/8/8 7/7/7 2/2/2
f 9/9/9 5/5/5 7/7/7
f 7/7/7 8/8/8 10/10/10
f 9/9/9 7/7/7 10/10/10
f 8/8/8 11/11/11 10/10/10
f 12/12/12 9/9/9 10/10/10
f 10/10/10 11/11/11 13/13/13
f 12/12/12 10/10/10 13/13/13
f 16/16/16 15/15/15 14/14/14
f 15/15/15 17/17/17 14/14/14
f 17/17/17 18/18/18 14/14/14
f 18/18/18 19/19/19 14/14/14
f 20/20/20 17/17/17 15/15/15
f 18/18/18 17/17/17 20/20/20
f 21/21/21 20/20/20 15/15/15
f 22/22/22 18/18/18 20/20/20
f 20/20/20 21/21/21 23/23/23
f 22/22/22 20/20/20 23/23/23
f 21/21/21 24/24/24 23/23/23
f 25/25/25 22/22/22 23/23/23
f 23/23/23 24/24/24 26/26/26
f 25/25/25 23/23/23 26/26/26
f 29/29/29 28/28/28 27/27/27
f 28/28/28 30/30/30 27/27/27
f 30/30/30 31/31/31 27/27/27
f 31/31/31 32/32/32 27/27/27
f 33/33/33 30/30/30 28/28/28
f 31/31/31 30/30/30 33/33/33
f 34/34/34 33/33/33 28/28/28
f 35/35/35 31/31/31 33/33/33
f 33/33/33 34/34/34 36/36/36
f 35/35/35 33/33/33 36/36/36
f 34/34/34 37/37/37 36/36/36
f 38/38/38 35/35/35 36/36/36
f 36/36/36 37/37/37 39/39/39
f 38/38/38 36/36/36 39/39/39
f 42/42/42 41/41/41 40/40/40
f 41/41/41 43/43/43 40/40/40
f 43/43/43 44/44/44 40/40/40
f 44/44/44 45/45/45 40/40/40
f 46/46/46 43/43/43 41/41/41
f 44/44/44 43/43/43 46/46/46
f 47/47/47 46/46/46 41/41/41
f 48/48/48 44/44/44 46/46/46
f 46/46/46 47/47/47 49/49/49
f 48/48/48 46/46/46 49/49/49
f 47/47/47 50/50/50 49/49/49
f 51/51/51 48/48/48 49/49/49
f 49/49/49 50/50/50 52/52/52
f 51/51/51 49/49/49 52/52/52
f 55/55/55 54/54/54 53/53/53
f 54/54/54 56/56/56 53/53/53
f 56/56/56 57/57/57 53/53/53
f 57/57/57 58/58/58 53/53/53
f 59/59/59 56/56/56 54/54/54
f 57/57/57 56/56/56 59/59/59
f 60/60/60 59/59/59 54/54/54
f 61/61/61 57/57/57 59/59/59
f 59/59/59 60/60/60 62/62/62
f 61/61/61 59/59/59 62/62/62
f 60/60/60 63/63/63 62/62/62
f 64/64/64 61/61/61 62/62/62
f 62/62/62 63/63/63 65/65/65
f 64/64/64 62/62/62 65/65/65
f 68/68/68 67/67/67 66/66/66
f 67/67/67 69/69/69 66/66/66
f 69/69/69 70/70/70 66/66/66
f 70/70/70 71/71/71 66/66/66
f 72/72/72 69/69/69 67/67/67
f 70/70/70 69/69/69 72/72/72
f 73/73/73 72/72/72 67/67/67
f 74/74/74 70/70/70 72/72/72
f 72/72/72 73/73/73 75/75/75
f 74/74/74 72/72/72 75/75/75
f 73/73/73 76/76/76 75/75/75
f 77/77/77 74/74/74 75/75/75
f 75/75/75 76/76/76 78/78/78
f 77/77/77 75/75/75 78/78/78
f 81/81/81 80/80/80 79/79/79
f 80/80/80 82/82/82 79/79/79
f 82/82/82 83/83/83 79/79/79
f 83/83/83 84/84/84 79/79/79
f 85/85/85 82/82/82 80/80/80
f 83/83/83 82/82/82 85/85/85
f 86/86/86 85/85/85 80/80/80
f 87/87/87 83/83/83 85/85/85
f 85/85/85 86/86/86 88/88/88
f 87/87/87 85/85/85 88/88/88
f 86/86/86 89/89/89 88/88/88
f 90/90/90 87/87/87 88/88/88
f 88/88/88 89/89/89 91/91/91
f 90/90/90 88/88/88 91/91/91
f 94/94/94 93/93/93 92/92/92
f 93/93/93 95/95/95 92/92/92
f 95/95/95 96/96/96 92/92/92
f 96/96/96 97/97/97 92/92/92
f 98/98/98 95/95/95 93/93/93
f 96/96/96 95/95/95 98/98/98
f 99/99/99 98/98/98 93/93/93
f 100/100/100 96/96/96 98/98/98
f 98/98/98 99/99/99 101/101/101
f 100/100/100 98/98/98 101/101/101
f 99/99/99 102/102/102 101/101/101
f 103/103/103 100/100/100 101/101/101
f 101/101/101 102/102/102 104/104/104
f 103/103/103 101/101/101 104/104/104
f 107/107/107 106/106/106 105/105/105
f 106/106/106 108/108/108 105/105/105
f 108/108/108 109/109/109 105/105/105
f 109/109/109 110/110/110 105/105/105
f 111/111/111 108/108/108 106/106/106
f 109/109/109 108/108/108 111/111/111
f 112/112/112 111/111/111 106/106/106
f 113/113/113 109/109/109 111/111/111
f 111/111/111 112/112/112 114/114/114
f 113/113/113 111/111/111 114/114/114
f 112/112/112 115/115/115 114/114/114
f 116/116/116 113/113/113 114/114/114
f 114/114/114 115/115/115 117/117/117
f 116/116/116 114/114/114 117/117/117
f 120/120/120 119/119/119 118/118/118
f 119/119/119 121/121/121 118/118/118
f 121/121/121 122/122/122 118/118/118
f 122/122/122 123/123/123 118/118/118
f 124/124/124 121/121/121 119/119/119
f 122/122/122 121/121/121 124/124/124
f 125/125/125 124/124/124 119/119/119
f 126/126/126 122/122/122 124/124/124
f 124/124/124 125/125/125 127/127/127
f 126/126/126 124/124/124 127/127/127
f 125/125/125 128/128/128 127/127/127
f 129/129/129 126/126/126 127/127/127
f 127/127/127 128/128/128 130/130/130
f 129/129/129 127/127/127 130/130/130
f 133/133/133 132/132/132 131/131/131
f 132/132/132 134/134/134 131/131/131
f 134/134/134 135/135/135 131/131/131
f 135/135/135 136/136/136 131/131/131
f 137/137/137 134/134/134 132/132/132
f 135/135/135 134/134/134 137/137/137
f 138/138/138 137/137/137 132/132/132
f 139/139/139 135/135/135 137/137/137
f 137/137/137 138/138/138 140/140/140
f 139/139/139 137/137/137 140/140/140
f 138/138/138 141/141/141 140/140/140
f 142/142/142 139/139/139 140/140/140
f 140/140/140 141/141/141 143/143/143
f 142/142/142 140/140/140 143/143/143
f 146/146/146 145/145/145 144/144/144
f 145/145/145 147/147/147 144/144/144
f 147/147/147 148/148/148 144/144/144
f 148/148/148 149/149/149 144/144/144
f 150/150/150 147/147/147 145/145/145
f 148/148/148 147/147/147 150/150/150
f 151/151/151 150/150/150 145/145/145
f 152/152/152 148/148/148 150/150/150
f 150/150/150 151/151/151 153/153/153
f 152/152/152 150/150/150 153/153/153
f 151/151/151 154/154/154 153/153/153
f 155/155/155 152/152/152 153/153/153
f 153/153/153 154/154/154 156/156/156
f 155/155/155 153/153/153 156/156/156
f 159/159/159 158/158/158 157/157/157
f 158/158/158 160/160/160 157/157/157
f 160/160/160 161/161/161 157/157/157
f 161/161/161 162/162/162 157/157/157
f 163/163/163 160/160/160 158/158/158
f 161/161/161 160/160/160 163/163/163
f 164/164/164 163/163/163 158/158/158
f 165/165/165 161/161/161 163/163/163
f 163/163/163 164/164/164 166/166/166
f 165/165/165 163/163/163 166/166/166
f 164/164/164 167/167/167 166/166/166
f 168/168/168 165/165/165 166/166/166
f 166/166/166 167/167/167 169/169/169
f 168/168/168 166/166/166 169/169/169
f 172/172/172 171/171/171 170/170/170
f 171/171/171 173/173/173 170/170/170
f 173/173/173 174/174/174 170/170/170
f 174/174/174 175/175/175 170/170/170
f 176/176/176 173/173/173 171/171/171
f 174/174/174 173/173/173 176/176/176
f 177/177/177 176/176/176 171/171/171
f 178/178/178 174/174/174 176/176/176
f 176/176/176 177/177/177 179/179/179
f 178/178/178 176/176/176 179/179/179
f 177/177/177 180/180/180 179/179/179
f 181/181/181 178/178/178 179/179/179
f 179/179/179 180/180/180 182/182/182
f 181/181/181 179/179/179 182/182/182
f 185/185/185 184/184/184 183/183/183
f 184/184/184 186/186/186 183/183/183
f 186/186/186 187/187/187 183/183/183
f 187/187/187 188/188/188 183/183/183
f 189/189/189 186/186/186 184/184/184
f 187/187/187 186/186/186 189/189/189
f 190/190/190 189/189/189 184/184/184
f 191/191/191 187/187/187 189/189/189
f 189/189/189 190/190/190 192/192/192
f 191/191/191 189/189/189 192/192/192
f 190/190/190 193/193/193 192/192/192
f 194/194/194 191/191/191 192/192/192
f 192/192/192 193/193/193 195/195/195
f 194/194/194 192/192/192 195/195/195
