g Glow_Poi_Trim_Light
v 3.186383 0.1520545 -0.63187
v 1.807757 0.03041124 -0.7467556
v 1.915885 0.03041124 -0.3818252
v 3.003918 0.1520545 -1.240088
v 3.389122 0.1520545 -0.6724179
v 3.193141 0.1520545 -1.321183
v 3.003918 0.1520545 -1.240088
v 1.625292 0.03041124 -1.084654
v 1.807757 0.03041124 -0.7467556
v 2.699809 0.1520545 -1.807757
v 3.193141 0.1520545 -1.321183
v 2.875516 0.1520545 -1.922643
v 2.699809 0.1520545 -1.807757
v 1.382005 0.03041124 -1.382005
v 1.625292 0.03041124 -1.084654
v 2.294331 0.1520545 -2.294331
v 2.875516 0.1520545 -1.922643
v 2.443006 0.1520545 -2.443006
v 2.294331 0.1520545 -2.294331
v 1.084654 0.03041124 -1.625292
v 1.382005 0.03041124 -1.382005
v 1.807757 0.1520545 -2.699809
v 2.443006 0.1520545 -2.443006
v 1.922643 0.1520545 -2.875516
v 1.807757 0.1520545 -2.699809
v 0.7467556 0.03041124 -1.807757
v 1.084654 0.03041124 -1.625292
v 1.240088 0.1520545 -3.003918
v 1.922643 0.1520545 -2.875516
v 1.321183 0.1520545 -3.193141
v 1.240088 0.1520545 -3.003918
v 0.3818252 0.03041124 -1.915885
v 0.7467556 0.03041124 -1.807757
v 0.63187 0.1520545 -3.186383
v 1.321183 0.1520545 -3.193141
v 0.6724179 0.1520545 -3.389122
v 0.63187 0.1520545 -3.186383
v 0.00337863 0.03041124 -1.956432
v 0.3818252 0.03041124 -1.915885
v 0.00337863 0.1520545 -3.247205
v 0.6724179 0.1520545 -3.389122
v 0.00337863 0.1520545 -3.456702
v 0.00337863 0.1520545 -3.247205
v -0.3818257 0.03041124 -1.915885
v 0.00337863 0.03041124 -1.956432
v -0.6318705 0.1520545 -3.186383
v 0.00337863 0.1520545 -3.456702
v -0.6724184 0.1520545 -3.389122
v -0.6318705 0.1520545 -3.186383
v -0.7467563 0.03041124 -1.807757
v -0.3818257 0.03041124 -1.915885
v -1.240088 0.1520545 -3.003918
v -0.6724184 0.1520545 -3.389122
v -1.321183 0.1520545 -3.193141
v -1.240088 0.1520545 -3.003918
v -1.084655 0.03041124 -1.625292
v -0.7467563 0.03041124 -1.807757
v -1.807758 0.1520545 -2.699809
v -1.321183 0.1520545 -3.193141
v -1.922643 0.1520545 -2.875516
v -1.807758 0.1520545 -2.699809
v -1.382005 0.03041124 -1.382005
v -1.084655 0.03041124 -1.625292
v -2.294331 0.1520545 -2.294331
v -1.922643 0.1520545 -2.875516
v -2.443007 0.1520545 -2.443006
v -2.294331 0.1520545 -2.294331
v -1.625293 0.03041124 -1.084654
v -1.382005 0.03041124 -1.382005
v -2.69981 0.1520545 -1.807757
v -2.443007 0.1520545 -2.443006
v -2.875517 0.1520545 -1.922643
v -3.003918 0.1520545 -1.240088
v -1.807758 0.03041124 -0.7467556
v -1.625293 0.03041124 -1.084654
v -2.69981 0.1520545 -1.807757
v -2.875517 0.1520545 -1.922643
v -3.193142 0.1520545 -1.321183
v -3.003918 0.1520545 -1.240088
v -1.915885 0.03041124 -0.3818252
v -1.807758 0.03041124 -0.7467556
v -3.186383 0.1520545 -0.63187
v -3.193142 0.1520545 -1.321183
v -3.389123 0.1520545 -0.6724179
v -3.186383 0.1520545 -0.63187
v -1.956433 0.03041124 -0.00337863
v -1.915885 0.03041124 -0.3818252
v -3.247205 0.1520545 -0.00337863
v -3.389123 0.1520545 -0.6724179
v -3.456702 0.1520545 -0.00337863
v -3.247205 0.1520545 -0.00337863
v -1.915885 0.03041124 0.3818257
v -1.956433 0.03041124 -0.00337863
v -3.186383 0.1520545 0.6318705
v -3.456702 0.1520545 -0.00337863
v -3.389123 0.1520545 0.6724184
v -3.186383 0.1520545 0.6318705
v -1.807758 0.03041124 0.7467563
v -1.915885 0.03041124 0.3818257
v -3.003918 0.1520545 1.240088
v -3.389123 0.1520545 0.6724184
v -3.193142 0.1520545 1.321183
v -3.003918 0.1520545 1.240088
v -1.625293 0.03041124 1.084655
v -1.807758 0.03041124 0.7467563
v -2.69981 0.1520545 1.807758
v -3.193142 0.1520545 1.321183
v -2.875517 0.1520545 1.922643
v -2.69981 0.1520545 1.807758
v -1.382005 0.03041124 1.382005
v -1.625293 0.03041124 1.084655
v -2.294331 0.1520545 2.294331
v -2.875517 0.1520545 1.922643
v -2.443007 0.1520545 2.443007
v -2.294331 0.1520545 2.294331
v -1.084655 0.03041124 1.625293
v -1.382005 0.03041124 1.382005
v -1.807758 0.1520545 2.69981
v -2.443007 0.1520545 2.443007
v -1.922643 0.1520545 2.875517
v -1.807758 0.1520545 2.69981
v -0.7467563 0.03041124 1.807758
v -1.084655 0.03041124 1.625293
v -1.240088 0.1520545 3.003918
v -1.922643 0.1520545 2.875517
v -1.321183 0.1520545 3.193142
v -1.240088 0.1520545 3.003918
v -0.3818257 0.03041124 1.915885
v -0.7467563 0.03041124 1.807758
v -0.6318705 0.1520545 3.186383
v -1.321183 0.1520545 3.193142
v -0.6724184 0.1520545 3.389123
v -0.6318705 0.1520545 3.186383
v 0.00337863 0.03041124 1.956433
v -0.3818257 0.03041124 1.915885
v -0.003379345 0.1520545 3.247205
v -0.6724184 0.1520545 3.389123
v -0.003379345 0.1520545 3.456702
v -0.003379345 0.1520545 3.247205
v 0.3818252 0.03041124 1.915885
v 0.00337863 0.03041124 1.956433
v 0.63187 0.1520545 3.186383
v -0.003379345 0.1520545 3.456702
v 0.6724179 0.1520545 3.389123
v 0.63187 0.1520545 3.186383
v 0.7467556 0.03041124 1.807758
v 0.3818252 0.03041124 1.915885
v 1.240088 0.1520545 3.003918
v 0.6724179 0.1520545 3.389123
v 1.321183 0.1520545 3.193142
v 1.240088 0.1520545 3.003918
v 1.084654 0.03041124 1.625293
v 0.7467556 0.03041124 1.807758
v 1.807757 0.1520545 2.69981
v 1.321183 0.1520545 3.193142
v 1.922643 0.1520545 2.875517
v 1.807757 0.1520545 2.69981
v 1.382005 0.03041124 1.382005
v 1.084654 0.03041124 1.625293
v 2.294331 0.1520545 2.294331
v 1.922643 0.1520545 2.875517
v 2.443006 0.1520545 2.443007
v 2.294331 0.1520545 2.294331
v 1.625292 0.03041124 1.084655
v 1.382005 0.03041124 1.382005
v 2.699809 0.1520545 1.807758
v 2.443006 0.1520545 2.443007
v 2.875516 0.1520545 1.922643
v 2.699809 0.1520545 1.807758
v 1.807757 0.03041124 0.7467563
v 1.625292 0.03041124 1.084655
v 3.003918 0.1520545 1.240088
v 2.875516 0.1520545 1.922643
v 3.193141 0.1520545 1.321183
v 3.003918 0.1520545 1.240088
v 1.915885 0.03041124 0.3818257
v 1.807757 0.03041124 0.7467563
v 3.186383 0.1520545 0.6318705
v 3.193141 0.1520545 1.321183
v 3.389122 0.1520545 0.6724184
v 3.186383 0.1520545 0.6318705
v 1.956432 0.03041124 0.003379345
v 1.915885 0.03041124 0.3818257
v 3.247205 0.1520545 -0.00337863
v 3.389122 0.1520545 0.6724184
v 3.456702 0.1520545 -0.00337863
v 3.247205 0.1520545 -0.00337863
v 1.915885 0.03041124 -0.3818252
v 1.956432 0.03041124 0.003379345
v 3.186383 0.1520545 -0.63187
v 3.456702 0.1520545 -0.00337863
v 3.389122 0.1520545 -0.6724179
vt 0 0.02745098
vt 1 1
vt 0 1
vt 1 0.02745098
vt 0 0
vt 1 0
vt 0 0.02745098
vt 1 1
vt 0 1
vt 1 0.02745098
vt 0 0
vt 1 0
vt 0 0.02745098
vt 1 1
vt 0 1
vt 1 0.02745098
vt 0 0
vt 1 0
vt 0 0.02745098
vt 1 1
vt 0 1
vt 1 0.02745098
vt 0 0
vt 1 0
vt 0 0.02745098
vt 1 1
vt 0 1
vt 1 0.02745098
vt 0 0
vt 1 0
vt 0 0.02745098
vt 1 1
vt 0 1
vt 1 0.02745098
vt 0 0
vt 1 0
vt 0 0.02745098
vt 1 1
vt 0 1
vt 1 0.02745098
vt 0 0
vt 1 0
vt 0 0.02745098
vt 1 1
vt 0 1
vt 1 0.02745098
vt 0 0
vt 1 0
vt 0 0.02745098
vt 1 1
vt 0 1
vt 1 0.02745098
vt 0 0
vt 1 0
vt 0 0.02745098
vt 1 1
vt 0 1
vt 1 0.02745098
vt 0 0
vt 1 0
vt 0 0.02745098
vt 1 1
vt 0 1
vt 1 0.02745098
vt 0 0
vt 1 0
vt 0 0.02745098
vt 1 1
vt 0 1
vt 1 0.02745098
vt 0 0
vt 1 0
vt 1 0.02745098
vt 1 1
vt 0 1
vt 0 0.02745098
vt 0 0
vt 1 0
vt 0 0.02745098
vt 1 1
vt 0 1
vt 1 0.02745098
vt 0 0
vt 1 0
vt 0 0.02745098
vt 1 1
vt 0 1
vt 1 0.02745098
vt 0 0
vt 1 0
vt 0 0.02745098
vt 1 1
vt 0 1
vt 1 0.02745098
vt 0 0
vt 1 0
vt 0 0.02745098
vt 1 1
vt 0 1
vt 1 0.02745098
vt 0 0
vt 1 0
vt 0 0.02745098
vt 1 1
vt 0 1
vt 1 0.02745098
vt 0 0
vt 1 0
vt 0 0.02745098
vt 1 1
vt 0 1
vt 1 0.02745098
vt 0 0
vt 1 0
vt 0 0.02745098
vt 1 1
vt 0 1
vt 1 0.02745098
vt 0 0
vt 1 0
vt 0 0.02745098
vt 1 1
vt 0 1
vt 1 0.02745098
vt 0 0
vt 1 0
vt 0 0.02745098
vt 1 1
vt 0 1
vt 1 0.02745098
vt 0 0
vt 1 0
vt 0 0.02745098
vt 1 1
vt 0 1
vt 1 0.02745098
vt 0 0
vt 1 0
vt 0 0.02745098
vt 1 1
vt 0 1
vt 1 0.02745098
vt 0 0
vt 1 0
vt 0 0.02745098
vt 1 1
vt 0 1
vt 1 0.02745098
vt 0 0
vt 1 0
vt 0 0.02745098
vt 1 1
vt 0 1
vt 1 0.02745098
vt 0 0
vt 1 0
vt 0 0.02745098
vt 1 1
vt 0 1
vt 1 0.02745098
vt 0 0
vt 1 0
vt 0 0.02745098
vt 1 1
vt 0 1
vt 1 0.02745098
vt 0 0
vt 1 0
vt 0 0.02745098
vt 1 1
vt 0 1
vt 1 0.02745098
vt 0 0
vt 1 0
vt 0 0.02745098
vt 1 1
vt 0 1
vt 1 0.02745098
vt 0 0
vt 1 0
vt 0 0.02745098
vt 1 1
vt 0 1
vt 1 0.02745098
vt 0 0
vt 1 0
vt 0 0.02745098
vt 1 1
vt 0 1
vt 1 0.02745098
vt 0 0
vt 1 0
vn 0.07342148 -0.9970844 -0.02078209
vn 0.07342148 -0.9970844 -0.02078209
vn 0.07342148 -0.9970844 -0.02078209
vn 0.07342148 -0.9970844 -0.02078209
vn 0.07342148 -0.9970844 -0.02078209
vn 0.07342148 -0.9970844 -0.02078209
vn 0.07342148 -0.9970844 -0.02078209
vn 0.07342148 -0.9970844 -0.02078209
vn 0.07342148 -0.9970844 -0.02078209
vn 0.07342148 -0.9970844 -0.02078209
vn 0.07342148 -0.9970844 -0.02078209
vn 0.07342148 -0.9970844 -0.02078209
vn 0.05631661 -0.9970844 -0.05148821
vn 0.05631661 -0.9970844 -0.05148821
vn 0.05631661 -0.9970844 -0.05148821
vn 0.05631661 -0.9970844 -0.05148821
vn 0.05631661 -0.9970844 -0.05148821
vn 0.05631661 -0.9970844 -0.05148821
vn 0.05631661 -0.9970844 -0.05148821
vn 0.05631661 -0.9970844 -0.05148821
vn 0.05631661 -0.9970844 -0.05148821
vn 0.05631661 -0.9970844 -0.05148821
vn 0.05631661 -0.9970844 -0.05148821
vn 0.05631661 -0.9970844 -0.05148821
vn 0.03921175 -0.9970844 -0.0654602
vn 0.03921175 -0.9970844 -0.0654602
vn 0.03921175 -0.9970844 -0.0654602
vn 0.03921175 -0.9970844 -0.0654602
vn 0.03921175 -0.9970844 -0.0654602
vn 0.03921175 -0.9970844 -0.0654602
vn 0.02210689 -0.9970844 -0.07303356
vn 0.02210689 -0.9970844 -0.07303356
vn 0.02210689 -0.9970844 -0.07303356
vn 0.02210689 -0.9970844 -0.07303356
vn 0.02210689 -0.9970844 -0.07303356
vn 0.02210689 -0.9970844 -0.07303356
vn 0.005002022 -0.9970844 -0.07614174
vn 0.005002022 -0.9970844 -0.07614174
vn 0.005002022 -0.9970844 -0.07614174
vn 0.005002022 -0.9970844 -0.07614174
vn 0.005002022 -0.9970844 -0.07614174
vn 0.005002022 -0.9970844 -0.07614174
vn -0.0121029 -0.9970844 -0.07533983
vn -0.0121029 -0.9970844 -0.07533983
vn -0.0121029 -0.9970844 -0.07533983
vn -0.0121029 -0.9970844 -0.07533983
vn -0.0121029 -0.9970844 -0.07533983
vn -0.0121029 -0.9970844 -0.07533983
vn -0.02920777 -0.9970844 -0.07049453
vn -0.02920777 -0.9970844 -0.07049453
vn -0.02920777 -0.9970844 -0.07049453
vn -0.02920777 -0.9970844 -0.07049453
vn -0.02920777 -0.9970844 -0.07049453
vn -0.02920777 -0.9970844 -0.07049453
vn -0.02920777 -0.9970844 -0.07049453
vn -0.04631263 -0.9970844 -0.06064426
vn -0.04631263 -0.9970844 -0.06064426
vn -0.02920777 -0.9970844 -0.07049453
vn -0.04631263 -0.9970844 -0.06064426
vn -0.04631263 -0.9970844 -0.06064426
vn -0.04631263 -0.9970844 -0.06064426
vn -0.04631263 -0.9970844 -0.06064426
vn -0.04631263 -0.9970844 -0.06064426
vn -0.04631263 -0.9970844 -0.06064426
vn -0.04631263 -0.9970844 -0.06064426
vn -0.04631263 -0.9970844 -0.06064426
vn -0.06341749 -0.9970844 -0.04243625
vn -0.06341749 -0.9970844 -0.04243625
vn -0.06341749 -0.9970844 -0.04243625
vn -0.06341749 -0.9970844 -0.04243625
vn -0.06341749 -0.9970844 -0.04243625
vn -0.06341749 -0.9970844 -0.04243625
vn -0.06341749 -0.9970844 -0.04243625
vn -0.06341749 -0.9970844 -0.04243625
vn -0.06341749 -0.9970844 -0.04243625
vn -0.06341749 -0.9970844 -0.04243625
vn -0.06341749 -0.9970844 -0.04243625
vn -0.06341749 -0.9970844 -0.04243625
vn -0.08049575 -0.9967549 0
vn -0.08049575 -0.9967549 0
vn -0.08049575 -0.9967549 0
vn -0.08049575 -0.9967549 0
vn -0.08049575 -0.9967549 0
vn -0.08049575 -0.9967549 0
vn -0.08049575 -0.9967549 0
vn -0.08049575 -0.9967549 0
vn -0.08049575 -0.9967549 0
vn -0.08049575 -0.9967549 0
vn -0.08049575 -0.9967549 0
vn -0.08049575 -0.9967549 0
vn -0.08049575 -0.9967549 0
vn -0.08049575 -0.9967549 0
vn -0.08049575 -0.9967549 0
vn -0.08049575 -0.9967549 0
vn -0.08049575 -0.9967549 0
vn -0.08049575 -0.9967549 0
vn -0.08049575 -0.9967549 0
vn -0.08049575 -0.9967549 0
vn -0.08049575 -0.9967549 0
vn -0.08049575 -0.9967549 0
vn -0.08049575 -0.9967549 0
vn -0.08049575 -0.9967549 0
vn -0.06341749 -0.9970844 0.04243625
vn -0.06341749 -0.9970844 0.04243625
vn -0.06341749 -0.9970844 0.04243625
vn -0.06341749 -0.9970844 0.04243625
vn -0.06341749 -0.9970844 0.04243625
vn -0.06341749 -0.9970844 0.04243625
vn -0.06341749 -0.9970844 0.04243625
vn -0.06341749 -0.9970844 0.04243625
vn -0.06341749 -0.9970844 0.04243625
vn -0.06341749 -0.9970844 0.04243625
vn -0.06341749 -0.9970844 0.04243625
vn -0.06341749 -0.9970844 0.04243625
vn -0.04631263 -0.9970844 0.06064426
vn -0.04631263 -0.9970844 0.06064426
vn -0.04631263 -0.9970844 0.06064426
vn -0.04631263 -0.9970844 0.06064426
vn -0.04631263 -0.9970844 0.06064426
vn -0.04631263 -0.9970844 0.06064426
vn -0.02920777 -0.9970844 0.07049453
vn -0.04631263 -0.9970844 0.06064426
vn -0.04631263 -0.9970844 0.06064426
vn -0.02920777 -0.9970844 0.07049453
vn -0.04631263 -0.9970844 0.06064426
vn -0.04631263 -0.9970844 0.06064426
vn -0.02920777 -0.9970844 0.07049453
vn -0.02920777 -0.9970844 0.07049453
vn -0.02920777 -0.9970844 0.07049453
vn -0.02920777 -0.9970844 0.07049453
vn -0.02920777 -0.9970844 0.07049453
vn -0.02920777 -0.9970844 0.07049453
vn -0.0121029 -0.9970844 0.07533983
vn -0.0121029 -0.9970844 0.07533983
vn -0.0121029 -0.9970844 0.07533983
vn -0.0121029 -0.9970844 0.07533983
vn -0.0121029 -0.9970844 0.07533983
vn -0.0121029 -0.9970844 0.07533983
vn 0.005002022 -0.9970844 0.07614174
vn 0.005002022 -0.9970844 0.07614174
vn 0.005002022 -0.9970844 0.07614174
vn 0.005002022 -0.9970844 0.07614174
vn 0.005002022 -0.9970844 0.07614174
vn 0.005002022 -0.9970844 0.07614174
vn 0.02210689 -0.9970844 0.07303356
vn 0.02210689 -0.9970844 0.07303356
vn 0.02210689 -0.9970844 0.07303356
vn 0.02210689 -0.9970844 0.07303356
vn 0.02210689 -0.9970844 0.07303356
vn 0.02210689 -0.9970844 0.07303356
vn 0.03921175 -0.9970844 0.0654602
vn 0.03921175 -0.9970844 0.0654602
vn 0.03921175 -0.9970844 0.0654602
vn 0.03921175 -0.9970844 0.0654602
vn 0.03921175 -0.9970844 0.0654602
vn 0.03921175 -0.9970844 0.0654602
vn 0.05631661 -0.9970844 0.05148821
vn 0.05631661 -0.9970844 0.05148821
vn 0.05631661 -0.9970844 0.05148821
vn 0.05631661 -0.9970844 0.05148821
vn 0.05631661 -0.9970844 0.05148821
vn 0.05631661 -0.9970844 0.05148821
vn 0.05631661 -0.9970844 0.05148821
vn 0.05631661 -0.9970844 0.05148821
vn 0.05631661 -0.9970844 0.05148821
vn 0.05631661 -0.9970844 0.05148821
vn 0.05631661 -0.9970844 0.05148821
vn 0.05631661 -0.9970844 0.05148821
vn 0.07342148 -0.9970844 0.02078209
vn 0.07342148 -0.9970844 0.02078209
vn 0.07342148 -0.9970844 0.02078209
vn 0.07342148 -0.9970844 0.02078209
vn 0.07342148 -0.9970844 0.02078209
vn 0.07342148 -0.9970844 0.02078209
vn 0.07342148 -0.9970844 0.02078209
vn 0.07342148 -0.9970844 0.02078209
vn 0.07342148 -0.9970844 0.02078209
vn 0.07342148 -0.9970844 0.02078209
vn 0.07342148 -0.9970844 0.02078209
vn 0.07342148 -0.9970844 0.02078209
vn 0.07342148 -0.9970844 0.02078209
vn 0.07342148 -0.9970844 0.02078209
vn 0.07342148 -0.9970844 0.02078209
vn 0.07342148 -0.9970844 0.02078209
vn 0.07342148 -0.9970844 0.02078209
vn 0.07342148 -0.9970844 0.02078209
vn 0.07342148 -0.9970844 -0.02078209
vn 0.07342148 -0.9970844 -0.02078209
vn 0.07342148 -0.9970844 -0.02078209
vn 0.07342148 -0.9970844 -0.02078209
vn 0.07342148 -0.9970844 -0.02078209
vn 0.07342148 -0.9970844 -0.02078209
g Glow_Poi_Trim_Light_0
f 3/3/3 2/2/2 1/1/1
f 2/2/2 4/4/4 1/1/1
f 1/1/1 4/4/4 5/5/5
f 4/4/4 6/6/6 5/5/5
f 9/9/9 8/8/8 7/7/7
f 8/8/8 10/10/10 7/7/7
f 7/7/7 10/10/10 11/11/11
f 10/10/10 12/12/12 11/11/11
f 15/15/15 14/14/14 13/13/13
f 14/14/14 16/16/16 13/13/13
f 13/13/13 16/16/16 17/17/17
f 16/16/16 18/18/18 17/17/17
f 21/21/21 20/20/20 19/19/19
f 20/20/20 22/22/22 19/19/19
f 19/19/19 22/22/22 23/23/23
f 22/22/22 24/24/24 23/23/23
f 27/27/27 26/26/26 25/25/25
f 26/26/26 28/28/28 25/25/25
f 25/25/25 28/28/28 29/29/29
f 28/28/28 30/30/30 29/29/29
f 33/33/33 32/32/32 31/31/31
f 32/32/32 34/34/34 31/31/31
f 31/31/31 34/34/34 35/35/35
f 34/34/34 36/36/36 35/35/35
f 39/39/39 38/38/38 37/37/37
f 38/38/38 40/40/40 37/37/37
f 37/37/37 40/40/40 41/41/41
f 40/40/40 42/42/42 41/41/41
f 45/45/45 44/44/44 43/43/43
f 44/44/44 46/46/46 43/43/43
f 43/43/43 46/46/46 47/47/47
f 46/46/46 48/48/48 47/47/47
f 51/51/51 50/50/50 49/49/49
f 50/50/50 52/52/52 49/49/49
f 49/49/49 52/52/52 53/53/53
f 52/52/52 54/54/54 53/53/53
f 57/57/57 56/56/56 55/55/55
f 56/56/56 58/58/58 55/55/55
f 55/55/55 58/58/58 59/59/59
f 58/58/58 60/60/60 59/59/59
f 63/63/63 62/62/62 61/61/61
f 62/62/62 64/64/64 61/61/61
f 61/61/61 64/64/64 65/65/65
f 64/64/64 66/66/66 65/65/65
f 69/69/69 68/68/68 67/67/67
f 68/68/68 70/70/70 67/67/67
f 67/67/67 70/70/70 71/71/71
f 70/70/70 72/72/72 71/71/71
f 75/75/75 74/74/74 73/73/73
f 76/76/76 75/75/75 73/73/73
f 76/76/76 73/73/73 77/77/77
f 73/73/73 78/78/78 77/77/77
f 81/81/81 80/80/80 79/79/79
f 80/80/80 82/82/82 79/79/79
f 79/79/79 82/82/82 83/83/83
f 82/82/82 84/84/84 83/83/83
f 87/87/87 86/86/86 85/85/85
f 86/86/86 88/88/88 85/85/85
f 85/85/85 88/88/88 89/89/89
f 88/88/88 90/90/90 89/89/89
f 93/93/93 92/92/92 91/91/91
f 92/92/92 94/94/94 91/91/91
f 91/91/91 94/94/94 95/95/95
f 94/94/94 96/96/96 95/95/95
f 99/99/99 98/98/98 97/97/97
f 98/98/98 100/100/100 97/97/97
f 97/97/97 100/100/100 101/101/101
f 100/100/100 102/102/102 101/101/101
f 105/105/105 104/104/104 103/103/103
f 104/104/104 106/106/106 103/103/103
f 103/103/103 106/106/106 107/107/107
f 106/106/106 108/108/108 107/107/107
f 111/111/111 110/110/110 109/109/109
f 110/110/110 112/112/112 109/109/109
f 109/109/109 112/112/112 113/113/113
f 112/112/112 114/114/114 113/113/113
f 117/117/117 116/116/116 115/115/115
f 116/116/116 118/118/118 115/115/115
f 115/115/115 118/118/118 119/119/119
f 118/118/118 120/120/120 119/119/119
f 123/123/123 122/122/122 121/121/121
f 122/122/122 124/124/124 121/121/121
f 121/121/121 124/124/124 125/125/125
f 124/124/124 126/126/126 125/125/125
f 129/129/129 128/128/128 127/127/127
f 128/128/128 130/130/130 127/127/127
f 127/127/127 130/130/130 131/131/131
f 130/130/130 132/132/132 131/131/131
f 135/135/135 134/134/134 133/133/133
f 134/134/134 136/136/136 133/133/133
f 133/133/133 136/136/136 137/137/137
f 136/136/136 138/138/138 137/137/137
f 141/141/141 140/140/140 139/139/139
f 140/140/140 142/142/142 139/139/139
f 139/139/139 142/142/142 143/143/143
f 142/142/142 144/144/144 143/143/143
f 147/147/147 146/146/146 145/145/145
f 146/146/146 148/148/148 145/145/145
f 145/145/145 148/148/148 149/149/149
f 148/148/148 150/150/150 149/149/149
f 153/153/153 152/152/152 151/151/151
f 152/152/152 154/154/154 151/151/151
f 151/151/151 154/154/154 155/155/155
f 154/154/154 156/156/156 155/155/155
f 159/159/159 158/158/158 157/157/157
f 158/158/158 160/160/160 157/157/157
f 157/157/157 160/160/160 161/161/161
f 160/160/160 162/162/162 161/161/161
f 165/165/165 164/164/164 163/163/163
f 164/164/164 166/166/166 163/163/163
f 163/163/163 166/166/166 167/167/167
f 166/166/166 168/168/168 167/167/167
f 171/171/171 170/170/170 169/169/169
f 170/170/170 172/172/172 169/169/169
f 169/169/169 172/172/172 173/173/173
f 172/172/172 174/174/174 173/173/173
f 177/177/177 176/176/176 175/175/175
f 176/176/176 178/178/178 175/175/175
f 175/175/175 178/178/178 179/179/179
f 178/178/178 180/180/180 179/179/179
f 183/183/183 182/182/182 181/181/181
f 182/182/182 184/184/184 181/181/181
f 181/181/181 184/184/184 185/185/185
f 184/184/184 186/186/186 185/185/185
f 189/189/189 188/188/188 187/187/187
f 188/188/188 190/190/190 187/187/187
f 187/187/187 190/190/190 191/191/191
f 190/190/190 192/192/192 191/191/191
