g Grass102
v 0.1811353 0.1248878 -0.0258252
v 0.2920508 -0.01107269 -0.07611023
v 0.2215515 -0.1269835 -0.08396667
v 0.09918945 -0.148804 -0.03679077
v -0.0592395 0.1386703 0.04342529
v -0.04644165 -0.168959 0.01760132
v -0.2139648 0.06791855 0.07925842
v -0.1781934 -0.1895953 0.06753418
vt 0.6429352 0.3304647
vt 0.9289448 0.3227891
vt 0.9092821 0.01069299
vt 0.6508242 0.01370726
vt 0.2416682 0.3138387
vt 0.2268824 0.009079057
vt 0.04175136 0.3198021
vt 0.0432726 0.01069299
vn 0.3064368 -0.1147458 0.9449496
vn 0.3543976 -2.825743E-06 0.9350949
vn 0.3543976 -2.825743E-06 0.9350949
vn 0.3062395 -0.111985 0.9453448
vn 0.3023662 -0.07401206 0.9503141
vn 0.3018897 -0.07021592 0.9507536
vn 0.3543966 1.766091E-07 0.9350952
vn 0.3543966 1.766091E-07 0.9350952
g Grass102_0
f 3/3/3 2/2/2 1/1/1
f 4/4/4 3/3/3 1/1/1
f 4/4/4 1/1/1 5/5/5
f 6/6/6 4/4/4 5/5/5
f 6/6/6 5/5/5 7/7/7
f 8/8/8 6/6/6 7/7/7
