g Grass71
v 0.012785034 0.24876823 0.020659178
v 0.46286315 0.19861808 0.03750366
v 0.47333923 -0.17606407 0.0073034666
v 0.0069110105 -0.18730064 -0.015019531
v -0.47333923 0.17606224 -0.0073034666
v -0.46286803 -0.19861808 -0.03750366
vt 0.45854613 0.3329912
vt 0.854643 0.3329912
vt 0.854643 0.014107559
vt 0.45854613 0.014107559
vt 0.05960431 0.3329912
vt 0.05960431 0.014107559
vn -0.04570491 -0.08116283 0.9956524
vn -0.045686264 -0.08152678 0.9956235
vn -0.045686264 -0.08152678 0.9956235
vn -0.045689967 -0.08116282 0.99565303
vn -0.04568844 -0.08152642 0.9956234
vn -0.04568844 -0.08152642 0.9956234
g Grass71_0
f 3/3/3 2/2/2 1/1/1
f 4/4/4 3/3/3 1/1/1
f 4/4/4 1/1/1 5/5/5
f 6/6/6 4/4/4 5/5/5
