g Grass7
v 0.1472882 0.191015 0.08476074
v 0.4628631 0.1986181 0.03750366
v 0.4733392 -0.1760641 0.007303467
v 0.1577618 -0.1836666 0.05456055
v -0.4733392 0.1760622 -0.007303467
v -0.1921051 0.182838 0.06851684
v -0.1816327 -0.1918429 0.03831787
v -0.462868 -0.1986181 -0.03750366
v -0.1921051 0.182838 0.06851684
v 0.1472882 0.191015 0.08476074
v 0.1577618 -0.1836666 0.05456055
v -0.1816327 -0.1918429 0.03831787
vt 0.5866511 0.3329912
vt 0.854643 0.3329912
vt 0.854643 0.01410756
vt 0.5866511 0.01410756
vt 0.05960431 0.3329912
vt 0.2984329 0.3329912
vt 0.2984329 0.01410756
vt 0.05960431 0.01410756
vt 0.2984329 0.3329912
vt 0.5866511 0.3329912
vt 0.5866511 0.01410756
vt 0.2984329 0.01410756
vn 0.1494522 -0.07528745 0.9858985
vn 0.1494522 -0.07528745 0.9858985
vn 0.1494522 -0.07528745 0.9858985
vn 0.1494522 -0.07528745 0.9858985
vn -0.2574658 -0.08477863 0.9625612
vn -0.2574658 -0.08477863 0.9625612
vn -0.2574658 -0.08477863 0.9625612
vn -0.2574658 -0.08477863 0.9625612
vn -0.04568776 -0.08152514 0.9956236
vn -0.04568776 -0.08152514 0.9956236
vn -0.04568776 -0.08152514 0.9956236
vn -0.04568776 -0.08152514 0.9956236
g Grass7_0
f 3/3/3 2/2/2 1/1/1
f 4/4/4 3/3/3 1/1/1
f 7/7/7 6/6/6 5/5/5
f 8/8/8 7/7/7 5/5/5
f 11/11/11 10/10/10 9/9/9
f 12/12/12 11/11/11 9/9/9
