g Grass1
v 0.03473871 0.013197682 1.1853701
v 0.05709344 -0.04544745 1.1754891
v 0.041487306 -0.047551017 1.1791701
v 0.050329927 0.015408127 1.1817013
v 0.02455221 0.074921064 1.1770186
v 0.06344407 -0.0036750769 1.1739461
v 0.072024755 -0.058880348 1.1689254
v 0.056711096 -0.05695612 1.1737533
v 0.07876667 -0.0055048345 1.1691195
v 0.08294416 0.050701093 1.159418
v 0.07522208 -0.025784876 1.1709335
v 0.081241146 -0.06450929 1.1674105
v 0.07049917 -0.06315951 1.170798
v 0.08597033 -0.027068371 1.1675472
v 0.08890068 0.012357976 1.1607418
v -0.4251753 -0.000251019 0.6247109
v -0.41752496 -0.04565684 0.6275973
v -0.4285369 -0.04407417 0.6203072
v -0.41415945 -0.0017559647 0.63200736
v -0.40579623 0.04447289 0.6296572
v -0.4140185 -0.020111792 0.63235986
v -0.40865222 -0.05196226 0.6343847
v -0.41637656 -0.050852086 0.62927085
v -0.40629146 -0.021167452 0.63747764
v -0.4004248 0.011260345 0.63582814
v -0.27229708 -0.018365238 1.0926086
v -0.2658057 -0.06027069 1.0895619
v -0.27329805 -0.06003354 1.088934
v -0.26480433 -0.018528735 1.0932426
v -0.27535862 0.026072165 1.0894301
v -0.28690335 -0.025443213 1.0855297
v -0.26799533 -0.056868598 1.084399
v -0.27820674 -0.059407663 1.0833107
v -0.27670932 -0.02284466 1.0866225
v -0.30182827 0.009187 1.0805379
v -0.6686927 -0.018055832 -0.23008585
v -0.6573692 -0.064455405 -0.24496439
v -0.66606796 -0.06601905 -0.23580179
v -0.659999 -0.01640777 -0.23924051
v -0.66856635 0.03418576 -0.23891702
v -0.6625554 -0.031453297 -0.24199563
v -0.658629 -0.074921064 -0.24876565
v -0.66724104 -0.07340595 -0.23950906
v -0.6539376 -0.03289401 -0.2512504
v -0.65484625 0.011361673 -0.25952005
v -0.67625356 -0.03434423 -0.21952677
v -0.66650784 -0.059050065 -0.2354783
v -0.6723386 -0.062037505 -0.22940347
v -0.6704312 -0.031311154 -0.22557534
v -0.6787146 -0.0015415072 -0.219022
v 0.44757244 -0.020409357 -0.6467667
v 0.4611487 -0.06581518 -0.64388037
v 0.45013675 -0.06423251 -0.65117043
v 0.45858836 -0.021914303 -0.6394703
v 0.45148623 0.024314553 -0.6596842
v 0.4650081 -0.02357175 -0.6374613
v 0.47037446 -0.055422213 -0.6354365
v 0.4626501 -0.054312035 -0.6405503
v 0.47273517 -0.024627412 -0.63234353
v 0.47227076 0.007800386 -0.63399297
v -0.29057828 -0.030656144 -0.7767646
v -0.28629848 -0.07256158 -0.7825181
v -0.2931976 -0.072324425 -0.7795298
v -0.283677 -0.030819641 -0.7797498
v -0.27965716 0.013781277 -0.77811927
v -0.30952084 -0.026928479 -0.7760962
v -0.29339465 -0.05835386 -0.7860331
v -0.3029065 -0.06089292 -0.78216404
v -0.30002186 -0.024329927 -0.77995396
v -0.31681034 0.007701738 -0.77343667
v -0.7883138 -0.0029719353 -0.99153256
v -0.78426105 -0.047595534 -1.0137775
v -0.7961612 -0.04729034 -1.0092618
v -0.77640164 -0.0031976674 -0.99602056
v -0.7706187 0.046470147 -0.9844933
v -0.7813477 -0.015750738 -1.003665
v -0.78643286 -0.056232348 -1.0205784
v -0.7974881 -0.05313441 -1.0150713
v -0.7702706 -0.018782059 -1.0091468
v -0.7558093 0.023581782 -1.0042524
v -0.80371237 -0.0168606 -0.9895405
v -0.79484814 -0.040755395 -1.0071557
v -0.80330265 -0.042330854 -1.0047367
v -0.7952631 -0.0152445575 -0.9919266
v -0.7974304 0.014193084 -0.9806787
v -0.21246961 -0.008722203 -1.1858497
v -0.20693795 -0.040344305 -1.1899503
v -0.2161928 -0.039270006 -1.1894611
v -0.20321038 -0.009742318 -1.1863325
v -0.20455426 0.022664607 -1.1847526
v -0.20210072 -0.01539156 -1.185228
v -0.19631277 -0.057297 -1.1894574
v -0.20378652 -0.05705985 -1.1886426
v -0.19462599 -0.015555059 -1.1860392
v -0.19126737 0.02904586 -1.1832929
v -0.22656567 -0.01266214 -1.180852
v -0.20755565 -0.047437865 -1.1896827
v -0.21850975 -0.05024762 -1.1866635
v -0.2156262 -0.009786548 -1.1838648
v -0.23492119 0.025660098 -1.1788727
vt 0.13618787 0.008929819
vt 0.21713091 0.04431039
vt 0.21652909 0.007612191
vt 0.1367897 0.04562801
vt 0.021605864 0.029163018
vt 0.1305391 0.04660263
vt 0.21148215 0.026408238
vt 0.21088032 0.0473547
vt 0.13114093 0.025656171
vt 0.015957102 0.035054
vt 0.1305391 0.04660263
vt 0.21148215 0.026408238
vt 0.21088032 0.0473547
vt 0.13114093 0.025656171
vt 0.015957102 0.035054
vt 0.1305391 0.04660263
vt 0.21148215 0.026408238
vt 0.21088032 0.0473547
vt 0.13114093 0.025656171
vt 0.015957102 0.035054
vt 0.1305391 0.04660263
vt 0.21148215 0.026408238
vt 0.21088032 0.0473547
vt 0.13114093 0.025656171
vt 0.015957102 0.035054
vt 0.1305391 0.04660263
vt 0.21148215 0.026408238
vt 0.21088032 0.0473547
vt 0.13114093 0.025656171
vt 0.015957102 0.035054
vt 0.1305391 0.04660263
vt 0.21148215 0.026408238
vt 0.21088032 0.0473547
vt 0.13114093 0.025656171
vt 0.015957102 0.035054
vt 0.13618787 0.008929819
vt 0.21713091 0.04431039
vt 0.21652909 0.007612191
vt 0.1367897 0.04562801
vt 0.021605864 0.029163018
vt 0.1305391 0.04660263
vt 0.21148215 0.026408238
vt 0.21088032 0.0473547
vt 0.13114093 0.025656171
vt 0.015957102 0.035054
vt 0.1305391 0.04660263
vt 0.21148215 0.026408238
vt 0.21088032 0.0473547
vt 0.13114093 0.025656171
vt 0.015957102 0.035054
vt 0.1305391 0.04660263
vt 0.21148215 0.026408238
vt 0.21088032 0.0473547
vt 0.13114093 0.025656171
vt 0.015957102 0.035054
vt 0.1305391 0.04660263
vt 0.21148215 0.026408238
vt 0.21088032 0.0473547
vt 0.13114093 0.025656171
vt 0.015957102 0.035054
vt 0.1305391 0.04660263
vt 0.21148215 0.026408238
vt 0.21088032 0.0473547
vt 0.13114093 0.025656171
vt 0.015957102 0.035054
vt 0.1305391 0.04660263
vt 0.21148215 0.026408238
vt 0.21088032 0.0473547
vt 0.13114093 0.025656171
vt 0.015957102 0.035054
vt 0.13618787 0.008929819
vt 0.21713091 0.04431039
vt 0.21652909 0.007612191
vt 0.1367897 0.04562801
vt 0.021605864 0.029163018
vt 0.1305391 0.04660263
vt 0.21148215 0.026408238
vt 0.21088032 0.0473547
vt 0.13114093 0.025656171
vt 0.015957102 0.035054
vt 0.1305391 0.04660263
vt 0.21148215 0.026408238
vt 0.21088032 0.0473547
vt 0.13114093 0.025656171
vt 0.015957102 0.035054
vt 0.1305391 0.04660263
vt 0.21148215 0.026408238
vt 0.21088032 0.0473547
vt 0.13114093 0.025656171
vt 0.015957102 0.035054
vt 0.1305391 0.04660263
vt 0.21148215 0.026408238
vt 0.21088032 0.0473547
vt 0.13114093 0.025656171
vt 0.015957102 0.035054
vt 0.1305391 0.04660263
vt 0.21148215 0.026408238
vt 0.21088032 0.0473547
vt 0.13114093 0.025656171
vt 0.015957102 0.035054
vn 0.28998804 0.006686808 0.95700693
vn 0.2957748 -0.04165548 0.95434904
vn 0.2957748 -0.041655485 0.95434904
vn 0.28915033 0.013240075 0.9571921
vn 0.27439138 0.1157212 0.9546297
vn 0.30192006 0.013665588 0.9532353
vn 0.295774 -0.040827002 0.9543851
vn 0.29577404 -0.04082701 0.9543851
vn 0.3027848 0.02204393 0.95280397
vn 0.31260836 0.13895515 0.93966347
vn 0.3019476 0.0136607 0.9532266
vn 0.29581785 -0.04083077 0.95437133
vn 0.29581785 -0.04083077 0.95437133
vn 0.3028099 0.02203918 0.95279616
vn 0.31259885 0.13895036 0.9396674
vn 0.30189624 0.013666871 0.9532428
vn 0.2957424 -0.040826406 0.954395
vn 0.2957424 -0.04082641 0.954395
vn 0.30276224 0.022045275 0.9528111
vn 0.31260264 0.13895646 0.93966514
vn 0.30192694 0.013668154 0.95323306
vn 0.29579934 -0.040822104 0.9543774
vn 0.29579934 -0.040822104 0.9543774
vn 0.30278885 0.022046223 0.95280266
vn 0.31257343 0.13895504 0.93967515
vn 0.54733837 -0.031407487 0.8363219
vn 0.5446029 -0.08547343 0.8343272
vn 0.5446029 -0.085473426 0.8343272
vn 0.5470494 -0.03905086 0.8361889
vn 0.5482232 0.06541435 0.83377
vn 0.53399837 -0.022208989 0.84519374
vn 0.54584295 -0.0864491 0.83341587
vn 0.54584295 -0.0864491 0.83341587
vn 0.53709334 -0.03782974 0.8426741
vn 0.5084666 0.08718495 0.85665655
vn 0.28998804 0.006686808 0.95700693
vn 0.2957748 -0.04165548 0.95434904
vn 0.2957748 -0.041655485 0.95434904
vn 0.28915033 0.013240075 0.9571921
vn 0.27439138 0.1157212 0.9546297
vn 0.30192006 0.013665588 0.9532353
vn 0.295774 -0.040827002 0.9543851
vn 0.29577404 -0.04082701 0.9543851
vn 0.3027848 0.02204393 0.95280397
vn 0.31260836 0.13895515 0.93966347
vn 0.3019476 0.0136607 0.9532266
vn 0.29581785 -0.04083077 0.95437133
vn 0.29581785 -0.04083077 0.95437133
vn 0.3028099 0.02203918 0.95279616
vn 0.31259885 0.13895036 0.9396674
vn 0.30189624 0.013666871 0.9532428
vn 0.2957424 -0.040826406 0.954395
vn 0.2957424 -0.04082641 0.954395
vn 0.30276224 0.022045275 0.9528111
vn 0.31260264 0.13895646 0.93966514
vn 0.30192694 0.013668154 0.95323306
vn 0.29579934 -0.040822104 0.9543774
vn 0.29579934 -0.040822104 0.9543774
vn 0.30278885 0.022046223 0.95280266
vn 0.31257343 0.13895504 0.93967515
vn 0.54733837 -0.031407487 0.8363219
vn 0.5446029 -0.08547343 0.8343272
vn 0.5446029 -0.085473426 0.8343272
vn 0.5470494 -0.03905086 0.8361889
vn 0.5482232 0.06541435 0.83377
vn 0.53399837 -0.022208989 0.84519374
vn 0.54584295 -0.0864491 0.83341587
vn 0.54584295 -0.0864491 0.83341587
vn 0.53709334 -0.03782974 0.8426741
vn 0.5084666 0.08718495 0.85665655
vn 0.28998804 0.006686808 0.95700693
vn 0.2957748 -0.04165548 0.95434904
vn 0.2957748 -0.041655485 0.95434904
vn 0.28915033 0.013240075 0.9571921
vn 0.27439138 0.1157212 0.9546297
vn 0.30192006 0.013665588 0.9532353
vn 0.295774 -0.040827002 0.9543851
vn 0.29577404 -0.04082701 0.9543851
vn 0.3027848 0.02204393 0.95280397
vn 0.31260836 0.13895515 0.93966347
vn 0.3019476 0.0136607 0.9532266
vn 0.29581785 -0.04083077 0.95437133
vn 0.29581785 -0.04083077 0.95437133
vn 0.3028099 0.02203918 0.95279616
vn 0.31259885 0.13895036 0.9396674
vn 0.30192694 0.013668154 0.95323306
vn 0.29579934 -0.040822104 0.9543774
vn 0.29579934 -0.040822104 0.9543774
vn 0.30278885 0.022046223 0.95280266
vn 0.31257343 0.13895504 0.93967515
vn 0.54733837 -0.031407487 0.8363219
vn 0.5446029 -0.08547343 0.8343272
vn 0.5446029 -0.085473426 0.8343272
vn 0.5470494 -0.03905086 0.8361889
vn 0.5482232 0.06541435 0.83377
vn 0.53399837 -0.022208989 0.84519374
vn 0.54584295 -0.0864491 0.83341587
vn 0.54584295 -0.0864491 0.83341587
vn 0.53709334 -0.03782974 0.8426741
vn 0.5084666 0.08718495 0.85665655
g Grass1_0
f 3/3/3 2/2/2 1/1/1
f 2/2/2 4/4/4 1/1/1
f 1/1/1 4/4/4 5/5/5
f 8/8/8 7/7/7 6/6/6
f 7/7/7 9/9/9 6/6/6
f 6/6/6 9/9/9 10/10/10
f 13/13/13 12/12/12 11/11/11
f 12/12/12 14/14/14 11/11/11
f 11/11/11 14/14/14 15/15/15
f 18/18/18 17/17/17 16/16/16
f 17/17/17 19/19/19 16/16/16
f 16/16/16 19/19/19 20/20/20
f 23/23/23 22/22/22 21/21/21
f 22/22/22 24/24/24 21/21/21
f 21/21/21 24/24/24 25/25/25
f 28/28/28 27/27/27 26/26/26
f 27/27/27 29/29/29 26/26/26
f 26/26/26 29/29/29 30/30/30
f 33/33/33 32/32/32 31/31/31
f 32/32/32 34/34/34 31/31/31
f 31/31/31 34/34/34 35/35/35
f 38/38/38 37/37/37 36/36/36
f 37/37/37 39/39/39 36/36/36
f 36/36/36 39/39/39 40/40/40
f 43/43/43 42/42/42 41/41/41
f 42/42/42 44/44/44 41/41/41
f 41/41/41 44/44/44 45/45/45
f 48/48/48 47/47/47 46/46/46
f 47/47/47 49/49/49 46/46/46
f 46/46/46 49/49/49 50/50/50
f 53/53/53 52/52/52 51/51/51
f 52/52/52 54/54/54 51/51/51
f 51/51/51 54/54/54 55/55/55
f 58/58/58 57/57/57 56/56/56
f 57/57/57 59/59/59 56/56/56
f 56/56/56 59/59/59 60/60/60
f 63/63/63 62/62/62 61/61/61
f 62/62/62 64/64/64 61/61/61
f 61/61/61 64/64/64 65/65/65
f 68/68/68 67/67/67 66/66/66
f 67/67/67 69/69/69 66/66/66
f 66/66/66 69/69/69 70/70/70
f 73/73/73 72/72/72 71/71/71
f 72/72/72 74/74/74 71/71/71
f 71/71/71 74/74/74 75/75/75
f 78/78/78 77/77/77 76/76/76
f 77/77/77 79/79/79 76/76/76
f 76/76/76 79/79/79 80/80/80
f 83/83/83 82/82/82 81/81/81
f 82/82/82 84/84/84 81/81/81
f 81/81/81 84/84/84 85/85/85
f 88/88/88 87/87/87 86/86/86
f 87/87/87 89/89/89 86/86/86
f 86/86/86 89/89/89 90/90/90
f 93/93/93 92/92/92 91/91/91
f 92/92/92 94/94/94 91/91/91
f 91/91/91 94/94/94 95/95/95
f 98/98/98 97/97/97 96/96/96
f 97/97/97 99/99/99 96/96/96
f 96/96/96 99/99/99 100/100/100
