g Grass15
v 0.1874237 0.19635856 -0.12831299
v 0.49269286 0.20258957 -0.12085937
v 0.50316894 -0.17209266 -0.15105957
v 0.19789733 -0.17832313 -0.15851317
v -0.47333923 0.17606224 -0.0073034666
v -0.15957092 0.18716949 -0.104204096
v -0.1490985 -0.18751137 -0.13440308
v -0.46286803 -0.19861808 -0.03750366
v -0.15957092 0.18716949 -0.104204096
v 0.1874237 0.19635856 -0.12831299
v 0.19789733 -0.17832313 -0.15851317
v -0.1490985 -0.18751137 -0.13440308
vt 0.58665115 0.3329912
vt 0.854643 0.3329912
vt 0.854643 0.014107559
vt 0.58665115 0.014107559
vt 0.05960431 0.3329912
vt 0.2984329 0.3329912
vt 0.2984329 0.014107559
vt 0.05960431 0.014107559
vt 0.2984329 0.3329912
vt 0.58665115 0.3329912
vt 0.58665115 0.014107559
vt 0.2984329 0.014107559
vn 0.14945218 -0.075287454 0.9858985
vn 0.14945218 -0.075287454 0.9858985
vn 0.14945218 -0.075287454 0.9858985
vn 0.14945218 -0.075287454 0.9858985
vn -0.25746584 -0.08477863 0.9625612
vn -0.25746584 -0.08477863 0.9625612
vn -0.25746584 -0.08477863 0.9625612
vn -0.25746584 -0.08477863 0.9625612
vn -0.045687757 -0.08152514 0.99562365
vn -0.045687757 -0.08152514 0.99562365
vn -0.045687757 -0.08152514 0.99562365
vn -0.045687757 -0.08152514 0.99562365
g Grass15_0
f 3/3/3 2/2/2 1/1/1
f 4/4/4 3/3/3 1/1/1
f 7/7/7 6/6/6 5/5/5
f 8/8/8 7/7/7 5/5/5
f 11/11/11 10/10/10 9/9/9
f 12/12/12 11/11/11 9/9/9
