g Grass75
v 0.1308624 0.2005561 0.02242676
v 0.3995935 0.1169982 0.05019775
v 0.3665289 -0.3410381 0.02506592
v 0.09779724 -0.2574795 -0.002705078
v -0.1695917 0.1873737 0.003654785
v -0.1657977 -0.2020895 -0.02460937
v -0.4760565 0.06605019 -0.01564331
v -0.472265 -0.3234124 -0.04390747
vt 0.5846319 0.3329912
vt 0.854643 0.3329912
vt 0.854643 0.01410756
vt 0.5846319 0.01410756
vt 0.2960649 0.3329912
vt 0.2960649 0.01410756
vt 0.05960431 0.3329912
vt 0.05960431 0.01410756
vn -0.09634997 -0.05312479 0.9939288
vn -0.04568626 -0.08152678 0.9956235
vn -0.04568626 -0.08152678 0.9956235
vn -0.0993015 -0.05210049 0.9936925
vn -0.05823528 -0.06546585 0.996154
vn -0.05425068 -0.06665383 0.9963003
vn -0.04568844 -0.08152642 0.9956234
vn -0.04568844 -0.08152642 0.9956234
g Grass75_0
f 3/3/3 2/2/2 1/1/1
f 4/4/4 3/3/3 1/1/1
f 4/4/4 1/1/1 5/5/5
f 6/6/6 4/4/4 5/5/5
f 6/6/6 5/5/5 7/7/7
f 8/8/8 6/6/6 7/7/7
