g holiday_treeBirch_04Trunkgeo
v 0.014533933 1.7930566E-07 -0.15899435
v 0.15726162 1.7930566E-07 -0.036088537
v 0.12939806 0.82310575 -0.016048858
v 0.004012371 0.82310575 -0.1240211
v -0.14646173 1.7930566E-07 -0.06123223
v 0.09155731 1.6464634 -0.0052534514
v -0.13742165 0.82310575 -0.03813748
v -0.10323481 1.7930566E-07 0.12209389
v -0.0072560715 1.6464634 -0.09034372
v 0.092855655 2.127902 -0.012650732
v -0.09944698 0.82310575 0.12291374
v 0.08447652 1.7930566E-07 0.13763353
v -0.11871676 1.6464634 -0.02266095
v 0.009690357 2.127902 -0.0842661
v 0.07188887 3.2541842 -0.007706923
v 0.06545666 0.82310575 0.13656527
v 0.15726162 1.7930566E-07 -0.036088537
v 0.12939806 0.82310575 -0.016048858
v -0.08878982 1.6464634 0.10425957
v 0.041166663 1.6464634 0.11501801
v 0.09155731 1.6464634 -0.0052534514
v -0.084119424 2.127902 -0.027301578
v 0.007913107 3.2541842 -0.06279779
v 0.08510525 4.533649 0.0019767885
v 0.047113564 4.533649 -0.030738644
v -0.06425104 3.2541842 -0.018977238
v 0.0042592594 4.533649 -0.00471603
v -0.05893171 2.127902 0.079519816
v 0.050444864 2.127902 0.08857456
v 0.092855655 2.127902 -0.012650732
v -0.044875126 3.2541842 0.06319623
v 0.01576555 4.533649 0.044082254
v 0.03926394 3.2541842 0.070161685
v 0.07188887 3.2541842 -0.007706923
v 0.0657311 4.533649 0.048218656
v 0.08510525 4.533649 0.0019767885
v 0.042177852 2.2303174 -0.01707544
v -0.0006875655 2.1548455 0.04412534
v -0.06858689 2.1158936 -0.025638055
v -0.020371782 2.1944344 -0.081342295
v 0.12081332 2.426416 -0.11460118
v -0.031404983 2.0237277 -0.05906637
v 0.087208614 2.4071739 -0.16919002
v 0.22223109 2.7391562 -0.2092387
v 0.013880616 2.10953 -0.11213684
v 0.05947399 2.0057178 -0.009962837
v 0.20422447 2.7412481 -0.25303096
v 0.25473872 2.9269288 -0.25058207
v 0.24220805 2.9283843 -0.2810566
v 0.12739576 2.3677537 -0.20539124
v 0.09759938 2.0929391 -0.0669021
v 0.078458354 2.0867534 0.05381319
v 0.23613633 2.72289 -0.28288066
v 0.2644152 2.9156094 -0.30182868
v 0.1858375 2.3626332 -0.17317602
v 0.115087986 2.1675901 -0.008150882
v -0.0006875655 2.1548455 0.04412534
v 0.042177852 2.2303174 -0.01707544
v 0.2738656 2.7094533 -0.25753638
v 0.29067057 2.9062586 -0.2841919
v 0.18176924 2.3988883 -0.11706456
v 0.12081332 2.426416 -0.11460118
v 0.26527157 2.7195058 -0.2120231
v 0.28469008 2.9132543 -0.2525197
v 0.22223109 2.7391562 -0.2092387
v 0.25473872 2.9269288 -0.25058207
v 0.08411092 1.9874903 0.027324293
v 0.045181647 1.9157786 -0.031063387
v 0.07771831 1.8312092 0.003413402
v 0.11130275 1.917687 0.05631127
v 0.14466895 2.1767547 0.12884101
v 0.024827814 1.8080559 0.08123185
v 0.18221046 2.1294446 0.17134053
v 0.23155443 2.4865158 0.256995
v 0.06729627 1.8983864 0.1210442
v -0.04061233 1.87817 0.09521765
v 0.25744495 2.4721038 0.29080594
v 0.24567325 2.643868 0.282768
v 0.14049686 2.1133707 0.22999243
v 0.012702929 1.9562479 0.13247453
v -0.028201938 1.9449819 0.025708515
v 0.26805612 2.6397972 0.31302825
v 0.23712148 3.0371525 0.28179505
v 0.25399104 3.0386052 0.3055796
v 0.23048349 2.4589474 0.32446676
v 0.24513233 2.6368246 0.34272754
v 0.23652557 3.0407364 0.32892135
v 0.077082895 2.150763 0.22392103
v 0.02208425 2.0102425 0.073493965
v 0.045181647 1.9157786 -0.031063387
v 0.08411092 1.9874903 0.027324293
v 0.07958245 2.1899445 0.16130544
v 0.14466895 2.1767547 0.12884101
v 0.18793313 2.465229 0.31145763
v 0.2086007 2.6390412 0.3310435
v 0.20888916 3.0406096 0.31954896
v 0.18859498 2.482267 0.269758
v 0.23155443 2.4865158 0.256995
v 0.20886153 2.6432848 0.29391527
v 0.2092461 3.0383916 0.29042915
v 0.24567325 2.643868 0.282768
v 0.23712148 3.0371525 0.28179505
vt -0.60006976 -1.0139002
vt -0.504279 -1.0723816
vt -0.17973503 -0.54078615
vt -0.27552572 -0.48230493
vt -0.69586074 -0.9554192
vt 0.14497572 -0.008918107
vt -0.37131652 -0.4238237
vt -0.7916516 -0.89693797
vt 0.049185026 0.049563468
vt 0.33502296 0.30237472
vt -0.46710733 -0.36534274
vt -0.8874421 -0.83845675
vt -0.04660586 0.108044565
vt 0.23923218 0.36085618
vt 0.7789588 1.0295309
vt -0.5628984 -0.3068614
vt -0.9832333 -0.77997553
vt -0.6586889 -0.24838006
vt -0.14239666 0.16652572
vt -0.23818746 0.225007
vt -0.33397844 0.28348827
vt 0.14344135 0.4193374
vt 0.68316805 1.0880123
vt 1.2835797 1.8560871
vt 1.1877884 1.914569
vt 0.5873774 1.1464936
vt 1.0919977 1.9730505
vt 0.047650557 0.47781873
vt -0.04814032 0.53629965
vt -0.14393121 0.59478104
vt 0.49158648 1.2049745
vt 0.9962075 2.0315313
vt 0.39579555 1.2634555
vt 0.3000046 1.321937
vt 0.9004164 2.090012
vt 0.8046255 2.1484942
vt 0.07574084 -0.8140789
vt 0.015789397 -0.91227925
vt -0.035359867 -0.88105214
vt 0.024591602 -0.7828517
vt 0.22473645 -0.5700269
vt -0.08650937 -0.8498256
vt 0.17358729 -0.5387995
vt 0.42297342 -0.24531987
vt -0.026557676 -0.7516254
vt -0.13765892 -0.8185972
vt 0.37182418 -0.2140924
vt 0.5312563 -0.06795409
vt 0.48010734 -0.036726862
vt 0.12243829 -0.50757194
vt -0.077707134 -0.72039795
vt -0.18880847 -0.7873707
vt 0.32067502 -0.18286565
vt 0.4289581 -0.005499989
vt 0.0712891 -0.4763448
vt -0.12885645 -0.68917
vt -0.23995778 -0.756143
vt -0.18000552 -0.6579431
vt 0.2695258 -0.15163794
vt 0.3778092 0.025727183
vt 0.02013982 -0.44511834
vt -0.03100916 -0.41389087
vt 0.21837649 -0.12041119
vt 0.32665992 0.056954414
vt 0.16722742 -0.089184195
vt 0.27551094 0.088181645
vt -0.23330447 -0.8223099
vt -0.29351273 -0.92092973
vt -0.33469322 -0.8957873
vt -0.27448505 -0.7971682
vt -0.09690093 -0.598884
vt -0.37588325 -0.8706414
vt -0.13808158 -0.5737427
vt 0.110441096 -0.2592606
vt -0.31567517 -0.7720224
vt -0.41712704 -0.84546155
vt 0.069260456 -0.23411953
vt 0.21040663 -0.09551966
vt -0.1792717 -0.5485962
vt -0.35691932 -0.74684244
vt -0.4583209 -0.8203121
vt 0.1692259 -0.07037842
vt 0.445093 0.28889078
vt 0.40391216 0.31403118
vt 0.028070621 -0.20897365
vt 0.12803614 -0.045232415
vt 0.3627223 0.33917838
vt -0.22051564 -0.5234161
vt -0.39811316 -0.72169286
vt -0.49965373 -0.7950782
vt -0.439446 -0.6964589
vt -0.2617095 -0.49826735
vt -0.30304235 -0.47303265
vt -0.013173334 -0.18379354
vt 0.0867923 -0.020052314
vt 0.32147822 0.36435777
vt -0.054367058 -0.1586451
vt -0.09569945 -0.13341072
vt 0.045598634 0.005096197
vt 0.28028473 0.38950664
vt 0.0042661205 0.0303303
vt 0.23895225 0.41474038
vn 0.08578142 0.043389127 -0.9953687
vn 0.9712297 0.038599126 -0.2349958
vn 0.9730241 0.042975437 -0.22666568
vn 0.082477085 0.04262125 -0.99568117
vn -0.9189931 0.021139838 -0.3937063
vn 0.9738002 0.021025721 -0.22643124
vn -0.9230328 0.024477556 -0.38394186
vn -0.65369654 0.0022544533 0.75675344
vn 0.073866114 0.026146308 -0.9969253
vn 0.9726704 0.0064178347 -0.23210138
vn -0.6511817 0.013868628 0.7587951
vn 0.5250332 0.013236616 0.85097885
vn -0.92449105 0.04525835 -0.37850755
vn 0.08929503 0.01412808 -0.995905
vn 0.9728737 0.005449488 -0.23127273
vn 0.51757145 0.025219698 0.85526824
vn 0.9712297 0.038599126 -0.2349958
vn 0.9730241 0.042975437 -0.22666568
vn -0.6541564 0.05190981 0.7545758
vn 0.5097805 0.03762874 0.8594812
vn 0.9738002 0.021025721 -0.22643124
vn -0.9187506 0.040856004 -0.39271894
vn 0.07653104 0.020961652 -0.99684674
vn 0.9741009 -0.008351898 -0.22595955
vn 0.09477339 0.022034109 -0.995255
vn -0.9224341 0.03616172 -0.3844576
vn -0.919441 0.053574584 -0.38956144
vn -0.64969784 0.049688317 0.75856686
vn 0.526219 0.027724622 0.84989697
vn 0.9726704 0.0064178347 -0.23210138
vn -0.6557904 0.030658914 0.7543202
vn -0.6443405 0.041945994 0.7635875
vn 0.5147712 0.011687471 0.8572479
vn 0.9728737 0.005449488 -0.23127273
vn 0.52752405 0.0036571855 0.8495323
vn 0.9741009 -0.008351898 -0.22595955
vn -0.29279366 0.603291 0.74183005
vn -0.21803476 0.68641067 0.6937587
vn -0.8897934 0.30628684 -0.3383136
vn -0.89064354 0.35609454 -0.28275573
vn -0.38767844 0.46008927 0.7987636
vn -0.18193036 -0.44601384 -0.87634075
vn -0.91609746 0.30034104 -0.26563245
vn -0.42930558 0.32976753 0.8408032
vn -0.21633786 -0.34502664 -0.91332066
vn 0.6936976 -0.5810674 -0.42561063
vn -0.9468173 0.2053256 -0.24774659
vn -0.5507147 0.2692947 0.7900594
vn -0.9641852 0.1645513 -0.20801383
vn -0.13217695 -0.22830187 -0.96457636
vn 0.7580351 -0.50705045 -0.41022262
vn 0.8568784 0.006849301 0.5154732
vn -0.085611396 -0.12782802 -0.9880945
vn -0.20572256 -0.06581153 -0.9763949
vn 0.8273228 -0.37122884 -0.42157573
vn 0.79969096 0.08022876 0.59502745
vn -0.21803476 0.68641067 0.6937587
vn -0.29279366 0.603291 0.74183005
vn 0.88694894 -0.23175412 -0.39951423
vn 0.89017475 -0.13495138 -0.43517476
vn 0.73339033 0.050459754 0.6779325
vn -0.38767844 0.46008927 0.7987636
vn 0.71354324 0.0477694 0.6989808
vn 0.64644784 0.09347893 0.7572099
vn -0.42930558 0.32976753 0.8408032
vn -0.5507147 0.2692947 0.7900594
vn 0.34917057 0.4171078 -0.83910733
vn 0.45572868 0.4005135 -0.7949216
vn 0.9413787 -0.33307672 -0.05353432
vn 0.9545105 -0.270634 -0.12516698
vn 0.29665038 0.3295075 -0.8963389
vn 0.42493638 -0.5247811 0.73758644
vn 0.9706096 -0.22890319 -0.074299626
vn 0.34150496 0.19214283 -0.9200302
vn 0.37053525 -0.5111457 0.77552164
vn -0.5481277 -0.02388543 0.8360535
vn 0.9919693 -0.1264792 -4.6591114E-05
vn 0.34230262 0.06342707 -0.93744653
vn 0.32997835 -0.4275553 0.84161204
vn -0.6842934 -0.002395543 0.72920275
vn -0.6821828 0.6935296 -0.23161048
vn 0.99933356 -0.014177111 0.03363656
vn 0.31187606 0.0050489902 -0.9501094
vn 0.9988381 0.03486884 0.033266
vn 0.34144783 -0.23696202 0.9095397
vn 0.31020966 -0.04419487 0.94964033
vn 0.27809712 0.039727416 0.95973104
vn -0.7420588 4.3295462E-05 0.6703348
vn -0.74157643 0.5743263 -0.34671858
vn 0.45572868 0.4005135 -0.7949216
vn 0.34917057 0.4171078 -0.83910733
vn -0.7909018 0.45661062 -0.40740773
vn 0.29665038 0.3295075 -0.8963389
vn -0.7384097 0.039942082 0.6731685
vn -0.7857424 0.022050072 0.6181607
vn -0.80629605 0.017142493 0.5912638
vn -0.80077285 0.32808194 -0.5011239
vn 0.34150496 0.19214283 -0.9200302
vn -0.80952173 0.09112702 -0.5799746
vn -0.81555104 -0.004625099 -0.5786667
vn 0.34230262 0.06342707 -0.93744653
vn 0.31187606 0.0050489902 -0.9501094
g holiday_treeBirch_04Trunkgeo_0
f 3/3/3 2/2/2 1/1/1
f 4/4/4 3/3/3 1/1/1
f 4/4/4 1/1/1 5/5/5
f 6/6/6 3/3/3 4/4/4
f 7/7/7 4/4/4 5/5/5
f 7/7/7 5/5/5 8/8/8
f 9/9/9 6/6/6 4/4/4
f 9/9/9 4/4/4 7/7/7
f 10/10/10 6/6/6 9/9/9
f 11/11/11 7/7/7 8/8/8
f 11/11/11 8/8/8 12/12/12
f 13/13/13 9/9/9 7/7/7
f 13/13/13 7/7/7 11/11/11
f 14/14/14 10/10/10 9/9/9
f 14/14/14 9/9/9 13/13/13
f 15/15/15 10/10/10 14/14/14
f 16/16/16 11/11/11 12/12/12
f 16/16/16 12/12/12 17/17/17
f 18/18/18 16/16/16 17/17/17
f 19/19/19 13/13/13 11/11/11
f 19/19/19 11/11/11 16/16/16
f 20/20/20 16/16/16 18/18/18
f 20/20/20 19/19/19 16/16/16
f 21/21/21 20/20/20 18/18/18
f 22/22/22 14/14/14 13/13/13
f 22/22/22 13/13/13 19/19/19
f 23/23/23 15/15/15 14/14/14
f 23/23/23 14/14/14 22/22/22
f 24/24/24 15/15/15 23/23/23
f 25/25/25 24/24/24 23/23/23
f 25/25/25 23/23/23 26/26/26
f 26/26/26 23/23/23 22/22/22
f 27/27/27 25/25/25 26/26/26
f 28/28/28 22/22/22 19/19/19
f 28/28/28 19/19/19 20/20/20
f 26/26/26 22/22/22 28/28/28
f 29/29/29 20/20/20 21/21/21
f 29/29/29 28/28/28 20/20/20
f 30/30/30 29/29/29 21/21/21
f 27/27/27 26/26/26 31/31/31
f 31/31/31 26/26/26 28/28/28
f 31/31/31 28/28/28 29/29/29
f 32/32/32 27/27/27 31/31/31
f 33/33/33 29/29/29 30/30/30
f 33/33/33 31/31/31 29/29/29
f 32/32/32 31/31/31 33/33/33
f 34/34/34 33/33/33 30/30/30
f 35/35/35 32/32/32 33/33/33
f 35/35/35 33/33/33 34/34/34
f 36/36/36 35/35/35 34/34/34
f 39/39/39 38/38/38 37/37/37
f 40/40/40 39/39/39 37/37/37
f 37/37/37 41/41/41 40/40/40
f 42/42/42 39/39/39 40/40/40
f 41/41/41 43/43/43 40/40/40
f 41/41/41 44/44/44 43/43/43
f 45/45/45 42/42/42 40/40/40
f 40/40/40 43/43/43 45/45/45
f 46/46/46 42/42/42 45/45/45
f 44/44/44 47/47/47 43/43/43
f 44/44/44 48/48/48 47/47/47
f 48/48/48 49/49/49 47/47/47
f 43/43/43 50/50/50 45/45/45
f 43/43/43 47/47/47 50/50/50
f 51/51/51 46/46/46 45/45/45
f 45/45/45 50/50/50 51/51/51
f 52/52/52 46/46/46 51/51/51
f 47/47/47 49/49/49 53/53/53
f 47/47/47 53/53/53 50/50/50
f 49/49/49 54/54/54 53/53/53
f 50/50/50 55/55/55 51/51/51
f 50/50/50 53/53/53 55/55/55
f 56/56/56 52/52/52 51/51/51
f 51/51/51 55/55/55 56/56/56
f 57/57/57 52/52/52 56/56/56
f 58/58/58 57/57/57 56/56/56
f 53/53/53 54/54/54 59/59/59
f 53/53/53 59/59/59 55/55/55
f 54/54/54 60/60/60 59/59/59
f 56/56/56 61/61/61 58/58/58
f 55/55/55 61/61/61 56/56/56
f 55/55/55 59/59/59 61/61/61
f 61/61/61 62/62/62 58/58/58
f 59/59/59 60/60/60 63/63/63
f 59/59/59 63/63/63 61/61/61
f 61/61/61 63/63/63 62/62/62
f 60/60/60 64/64/64 63/63/63
f 63/63/63 65/65/65 62/62/62
f 63/63/63 64/64/64 65/65/65
f 64/64/64 66/66/66 65/65/65
f 69/69/69 68/68/68 67/67/67
f 70/70/70 69/69/69 67/67/67
f 67/67/67 71/71/71 70/70/70
f 72/72/72 69/69/69 70/70/70
f 71/71/71 73/73/73 70/70/70
f 71/71/71 74/74/74 73/73/73
f 75/75/75 72/72/72 70/70/70
f 70/70/70 73/73/73 75/75/75
f 76/76/76 72/72/72 75/75/75
f 74/74/74 77/77/77 73/73/73
f 74/74/74 78/78/78 77/77/77
f 73/73/73 79/79/79 75/75/75
f 73/73/73 77/77/77 79/79/79
f 80/80/80 76/76/76 75/75/75
f 75/75/75 79/79/79 80/80/80
f 81/81/81 76/76/76 80/80/80
f 78/78/78 82/82/82 77/77/77
f 78/78/78 83/83/83 82/82/82
f 83/83/83 84/84/84 82/82/82
f 77/77/77 85/85/85 79/79/79
f 77/77/77 82/82/82 85/85/85
f 82/82/82 84/84/84 86/86/86
f 82/82/82 86/86/86 85/85/85
f 84/84/84 87/87/87 86/86/86
f 79/79/79 88/88/88 80/80/80
f 79/79/79 85/85/85 88/88/88
f 89/89/89 81/81/81 80/80/80
f 80/80/80 88/88/88 89/89/89
f 90/90/90 81/81/81 89/89/89
f 91/91/91 90/90/90 89/89/89
f 89/89/89 92/92/92 91/91/91
f 88/88/88 92/92/92 89/89/89
f 92/92/92 93/93/93 91/91/91
f 85/85/85 94/94/94 88/88/88
f 85/85/85 86/86/86 94/94/94
f 88/88/88 94/94/94 92/92/92
f 86/86/86 87/87/87 95/95/95
f 86/86/86 95/95/95 94/94/94
f 87/87/87 96/96/96 95/95/95
f 92/92/92 97/97/97 93/93/93
f 94/94/94 97/97/97 92/92/92
f 94/94/94 95/95/95 97/97/97
f 97/97/97 98/98/98 93/93/93
f 95/95/95 96/96/96 99/99/99
f 95/95/95 99/99/99 97/97/97
f 97/97/97 99/99/99 98/98/98
f 96/96/96 100/100/100 99/99/99
f 99/99/99 101/101/101 98/98/98
f 99/99/99 100/100/100 101/101/101
f 100/100/100 102/102/102 101/101/101
