g holiday_treepalm_02_trunk_geo
v 0.16382118 4.1738887 0.22033304
v 0.06507022 3.9788415 0.33217674
v 0.06199464 4.160446 0.2921114
v 0.22382921 3.9950302 0.24129589
v 0.24081914 4.193035 0.116016135
v 0.2133491 3.7513616 0.19388212
v 0.06570335 3.739704 0.27791104
v 0.32177398 4.0158486 0.08103946
v 0.18246391 4.2149806 -0.0069821654
v 0.23893371 3.508735 0.183979
v 0.067355745 3.4988883 0.28102407
v 0.06645031 3.2316954 0.18136169
v 0.30379242 3.777076 0.044238303
v 0.34316584 3.5454152 0.009372946
v 0.18653505 3.2402914 0.10491501
v 0.06432932 3.189583 0.14858
v 0.16295794 3.1966527 0.08573002
v 0.0614824 3.1791177 0.1371571
v 0.27582625 3.2691503 -0.022319531
v 0.25821993 3.5795946 -0.18294862
v 0.2310055 3.8053832 -0.123530604
v 0.15937963 3.186747 0.07454991
v 0.055249676 3.1203575 0.11520145
v 0.23615861 3.2152123 -0.019317424
v 0.20731942 3.2898736 -0.1609156
v 0.14410114 3.126873 0.058897097
v 0.05627556 2.927312 0.06988572
v 0.22975282 3.1966546 -0.028403634
v 0.13588408 2.9271402 0.022630252
v 0.049200844 2.5141525 0.08239876
v 0.2437339 4.0449286 -0.10164952
v 0.064464726 3.5948958 -0.26678944
v 0.17974582 3.2303908 -0.1330859
v 0.20999631 3.135727 -0.03673823
v 0.14211579 2.5146742 0.031610522
v 0.026781032 2.0068905 0.14060608
v 0.060142763 4.2253165 -0.06694101
v 0.24081914 4.193035 0.116016135
v 0.06436136 3.3014586 -0.22816232
v 0.17367391 3.214992 -0.13947456
v 0.19381744 2.9253378 -0.06465147
v 0.058687877 4.203292 0.096877
v 0.16382118 4.1738887 0.22033304
v 0.06199464 4.160446 0.2921114
v -0.04614349 4.173059 0.21942835
v -0.124097385 4.191035 0.117534004
v -0.063519195 4.2136245 -0.0058570853
v 0.062488224 4.056619 -0.18055902
v 0.15930948 3.145869 -0.1393877
v -0.12287153 4.042961 -0.100071445
v -0.124097385 4.191035 0.117534004
v 0.06325901 3.8174486 -0.19634937
v -0.10850159 3.8026705 -0.12211763
v -0.13418546 3.5754824 -0.18139732
v -0.203641 4.012727 0.08316586
v -0.04614349 4.173059 0.21942835
v -0.18411115 3.77408 0.04621317
v -0.22271228 3.5418139 0.011660615
v -0.08195 3.2874918 -0.1598062
v -0.105483025 3.9935665 0.23896785
v 0.06199464 4.160446 0.2921114
v 0.06507022 3.9788415 0.33217674
v 0.06570335 3.739704 0.27791104
v -0.0933104 3.7494457 0.19153678
v 0.067355745 3.4988883 0.28102407
v -0.1179071 3.5059383 0.18109044
v -0.15480241 3.2667828 -0.02052886
v -0.06380358 3.2386947 0.10295994
v 0.06645031 3.2316954 0.18136169
v -0.04270327 3.1952465 0.084109955
v 0.06432932 3.189583 0.14858
v -0.11727304 3.2131941 -0.017851919
v -0.057246882 3.2285597 -0.13221002
v -0.04456992 3.1850204 0.07300794
v 0.0614824 3.1791177 0.1371571
v -0.11970787 3.1945899 -0.026858827
v -0.04134879 3.1254485 0.057354808
v 0.055249676 3.1203575 0.11520145
v 0.06266203 3.2382042 -0.18821515
v 0.056981124 3.2192845 -0.19332269
v -0.06070933 3.2136357 -0.13862677
v -0.10837926 3.1338747 -0.035425484
v -0.03145617 2.9255917 0.020987205
v 0.05627556 2.927312 0.06988572
v 0.053863987 3.1501687 -0.18919872
v -0.054265246 3.1445394 -0.13858497
v -0.09079849 2.9239435 -0.0634215
v -0.05444198 2.5132334 0.02929629
v 0.049200844 2.5141525 0.08239876
v 0.14839965 2.9224782 -0.15318677
v 0.054928277 2.9192593 -0.19546306
v -0.041509952 2.92106 -0.15243709
v -0.12403022 2.5107377 -0.071903944
v -0.08778857 2.0078847 0.08091972
v 0.026781032 2.0068905 0.14060608
v 0.048468377 1.1646037 0.16031879
v 0.20983863 2.5112305 -0.073182024
v -0.0663084 2.50868 -0.1749043
v 0.15794577 2.509124 -0.17531799
v 0.04830254 2.5078535 -0.22519712
v -0.16149956 2.004361 -0.03518064
v -0.10007775 1.1681284 0.09875139
v 0.036166728 0.7882765 0.21005715
v 0.13123305 2.003843 0.08959029
v -0.09449527 1.9976602 -0.1456201
v 0.033488642 1.991978 -0.19694604
v 0.208267 1.9947361 -0.027052602
v 0.15312538 1.9913025 -0.1398505
v -0.12842546 0.7892599 0.142814
v 0.024145922 0.4175365 0.26956588
v 0.1785201 1.1609048 0.10184034
v 0.048468377 1.1646037 0.16031879
v -0.10524091 1.1572986 -0.17762779
v -0.18855916 1.1659064 -0.04893194
v 0.052918233 1.147267 -0.2411747
v 0.26630294 1.1475986 -0.05153309
v 0.19804364 1.1442786 -0.17673373
v 0.17930877 0.7877618 0.14801751
v 0.036166728 0.7882765 0.21005715
v -0.2279296 0.7856111 -0.024068076
v -0.13552728 0.7801079 -0.16855079
v 0.040187307 0.77495605 -0.23898241
v 0.20268959 0.774718 -0.16848928
v 0.27948502 0.7781327 -0.025998618
v 0.18668954 0.42006698 0.20091161
v 0.024145922 0.4175365 0.26956588
v -0.16406287 0.4162512 0.19379203
v -0.2794215 0.41128546 0.00014909341
v -0.17335609 0.40846366 -0.16666768
v 0.02794769 0.4076532 -0.24673526
v 0.2147619 0.41009283 -0.16696888
v 0.30341986 0.4137631 -0.0012039848
v 0.21858189 0.15987822 0.2794833
v 0.023733508 0.15881334 0.36616305
v -0.34022105 0.15529133 0.008832342
v 0.25106543 0.15493843 -0.2140264
v 0.35735804 0.15659954 0.0052129156
v 0.26845998 -0.08925556 0.37802458
v 0.024023509 -0.08908383 0.4898909
v 0.44183668 -0.0898536 0.00990368
v 0.3084304 -0.0898501 -0.2806472
v 0.027652211 0.15390193 -0.31905386
v 0.028458318 -0.08964423 -0.419344
v -0.21314998 0.15402937 -0.21259391
v -0.27318835 -0.08989169 -0.27793247
v -0.43229353 -0.08974184 0.015929643
v -0.20257443 0.1579786 0.27055493
v -0.26024887 -0.08929131 0.36635712
v 0.023733508 0.15881334 0.36616305
v 0.024023509 -0.08908383 0.4898909
vt 0.50069183 2.0584283
vt 0.35290632 2.0045571
vt 0.39085948 2.10145
vt 0.46273866 1.9615355
vt 0.6240693 2.0101008
vt 0.41334847 1.8354445
vt 0.30351615 1.8784662
vt 0.58611614 1.9132081
vt 0.7386457 1.9652209
vt 0.36377102 1.7088757
vt 0.2539387 1.7518973
vt 0.19895542 1.6115274
vt 0.5367259 1.7871172
vt 0.48714846 1.6605482
vt 0.30878776 1.5685058
vt 0.18698484 1.5809672
vt 0.29681718 1.5379455
vt 0.18295273 1.5706732
vt 0.4321652 1.5201786
vt 0.60172486 1.6156684
vt 0.65130234 1.7422372
vt 0.29278508 1.5276515
vt 0.16913089 1.5353868
vt 0.4201946 1.4896181
vt 0.54674166 1.4752985
vt 0.2789632 1.492365
vt 0.12437475 1.4211264
vt 0.4161625 1.4793243
vt 0.2342071 1.3781047
vt 0.042498052 1.2120988
vt 0.70069253 1.8683283
vt 0.71155727 1.5726466
vt 0.5347711 1.4447383
vt 0.40234068 1.4440378
vt 0.15233043 1.1690772
vt -0.06224987 0.94468206
vt 0.84847796 1.9221992
vt 0.7706758 2.0469923
vt 0.6565739 1.432277
vt 0.53073895 1.4344444
vt 0.35758454 1.3297774
vt 0.88050807 2.0039706
vt 0.80516624 2.135045
vt 0.91499853 2.0920231
vt 1.0322791 2.046084
vt 0.9977888 1.9580314
vt 0.9657587 1.8762602
vt 0.8105248 1.8253067
vt 0.5169171 1.3991578
vt 0.9278055 1.7793674
vt 1.0803349 1.8313804
vt 0.76113456 1.6992157
vt 0.8784153 1.6532764
vt 0.8288378 1.5267076
vt 1.0423819 1.7344875
vt 1.2037125 1.7830529
vt 0.9929917 1.6083968
vt 0.9434142 1.4818277
vt 0.7738546 1.3863378
vt 1.1657592 1.6861601
vt 1.3209931 1.7371137
vt 1.2830398 1.640221
vt 1.2336497 1.5141302
vt 1.1163691 1.5600693
vt 1.1840721 1.3875611
vt 1.0667917 1.4335003
vt 0.88843095 1.3414578
vt 1.0118084 1.2931305
vt 1.129089 1.2471914
vt 0.9998379 1.2625701
vt 1.1171184 1.216631
vt 0.8764603 1.3108976
vt 0.761884 1.3557773
vt 0.9958057 1.2522764
vt 1.1130863 1.2063372
vt 0.8724283 1.3006037
vt 0.98198384 1.2169899
vt 1.0992644 1.1710505
vt 0.6446034 1.4017165
vt 0.64057124 1.3914227
vt 0.75785184 1.3454835
vt 0.85860646 1.2653172
vt 0.93722767 1.1027293
vt 1.0545083 1.0567902
vt 0.6267494 1.3561363
vt 0.74403 1.310197
vt 0.8138503 1.1510568
vt 0.8553511 0.8937019
vt 0.97263163 0.8477627
vt 0.47216097 1.2848973
vt 0.5819932 1.2418758
vt 0.6992739 1.1959366
vt 0.7319736 0.94202924
vt 0.7506031 0.62628514
vt 0.8678837 0.5803459
vt 0.6964925 0.14279175
vt 0.27570784 1.12075
vt 0.61739725 0.98690915
vt 0.3902843 1.0758699
vt 0.5001166 1.0328482
vt 0.6272257 0.6746124
vt 0.57921183 0.18873101
vt 0.62118065 -0.049476147
vt 0.047582448 0.9016604
vt 0.5126493 0.7194923
vt 0.39536864 0.7654315
vt 0.17095992 0.85333306
vt 0.28553635 0.80845314
vt 0.50389993 -0.0035367012
vt 0.545777 -0.24197793
vt -0.12380889 0.46410632
vt -0.23364112 0.5071279
vt 0.34125802 0.2819382
vt 0.45583445 0.23705834
vt 0.22397736 0.3278774
vt -0.0004313588 0.415779
vt 0.11414504 0.37089902
vt -0.19912061 0.27183837
vt -0.30895302 0.31486
vt 0.38052255 0.044790387
vt 0.2659461 0.08967036
vt 0.14866549 0.13560957
vt 0.03883317 0.17863113
vt -0.07574323 0.22351104
vt -0.27452418 0.079336464
vt -0.38435665 0.12235814
vt 0.42849636 -0.19603884
vt 0.30511898 -0.14771152
vt 0.19054255 -0.1028316
vt 0.07326189 -0.056892514
vt -0.03657046 -0.013870716
vt -0.15114686 0.031009138
vt -0.3267555 -0.05400753
vt -0.43658778 -0.010985851
vt 0.2528878 -0.28105545
vt -0.08880165 -0.14721465
vt -0.20337799 -0.10233486
vt -0.38188085 -0.19474006
vt -0.49171308 -0.15171826
vt -0.25850335 -0.24306738
vt -0.14392701 -0.28794718
vt 0.021030694 -0.19023645
vt -0.03409472 -0.33096886
vt 0.13831133 -0.23617554
vt 0.08318603 -0.37690794
vt 0.1977624 -0.42178786
vt 0.37626517 -0.32938266
vt 0.3211398 -0.4701153
vt 0.4935458 -0.37532198
vt 0.43842044 -0.5160544
vn 0.42405266 0.7069365 0.56605667
vn 0.011272166 0.0054849396 0.99992144
vn 0.002016377 0.61534715 0.78825366
vn 0.69452393 0.046246205 0.71798176
vn 0.64590234 0.7388381 0.1921679
vn 0.7003967 -0.06164308 0.71108687
vn 0.010153862 -0.101987205 0.9947339
vn 0.9832176 0.15822856 0.09081245
vn 0.44421706 0.8464661 -0.29354098
vn 0.70287985 -0.13804547 0.6977847
vn 0.012445113 -0.17354357 0.9847476
vn 0.01662796 -0.47859883 0.8778763
vn 0.99640536 0.036795788 0.07630614
vn 0.9977133 -0.047608912 0.04797539
vn 0.66294867 -0.43644983 0.608285
vn 0.018658869 -0.6733962 0.73904634
vn 0.57665604 -0.61431855 0.5385913
vn -0.013071228 -0.5959191 0.80293804
vn 0.91132694 -0.41134807 -0.016612923
vn 0.70501393 0.053155527 -0.7071986
vn 0.71047646 0.14586508 -0.6884379
vn 0.645351 -0.50801355 0.5704773
vn -0.0053715045 -0.28392828 0.9588304
vn 0.8473761 -0.5291554 0.044141546
vn 0.6290305 -0.34680468 -0.695735
vn 0.6767556 -0.25695002 0.6899119
vn 0.018029504 -0.09496234 0.9953176
vn 0.94400436 -0.32749462 -0.04003684
vn 0.6931966 -0.07088946 0.717254
vn 0.010869134 0.076632336 0.99700016
vn 0.7003129 0.2766945 -0.65802884
vn 0.0011935254 0.088880904 -0.99604154
vn 0.6735842 -0.31735128 -0.6675122
vn 0.9780081 -0.20329523 0.04659701
vn 0.6826582 0.04482355 0.7293617
vn -0.0074992245 0.07161017 0.9974045
vn -0.0055568204 0.86792135 -0.49667057
vn 0.64590234 0.7388381 0.1921679
vn 0.004632474 -0.3213695 -0.94694257
vn 0.66202337 -0.042244766 -0.7482917
vn 0.9989717 -0.021291811 0.040026285
vn -0.004803143 0.9844967 0.1753377
vn 0.42405266 0.7069365 0.56605667
vn 0.002016377 0.61534715 0.78825366
vn -0.4232778 0.6996279 0.57563597
vn -0.65433407 0.73135555 0.19226545
vn -0.44912735 0.84271896 -0.29683223
vn -0.00017878262 0.32240856 -0.9466006
vn 0.68407625 -0.06997815 -0.72604597
vn -0.698266 0.27053925 -0.6627466
vn -0.65433407 0.73135555 0.19226545
vn -0.0006902032 0.1853161 -0.9826788
vn -0.7061243 0.14184584 -0.69373494
vn -0.69928694 0.049054135 -0.713156
vn -0.984373 0.15044673 0.091518074
vn -0.4232778 0.6996279 0.57563597
vn -0.99660516 0.031183172 0.07619531
vn -0.9974778 -0.05203579 0.048272837
vn -0.6206777 -0.3395752 -0.7067161
vn -0.6836835 0.037281234 0.72882575
vn 0.002016377 0.61534715 0.78825366
vn 0.011272166 0.0054849396 0.99992144
vn 0.010153862 -0.101987205 0.9947339
vn -0.6872031 -0.06768729 0.72330505
vn 0.012445113 -0.17354357 0.9847476
vn -0.68907344 -0.14356993 0.7103277
vn -0.9142397 -0.4048826 -0.015358997
vn -0.6483545 -0.42533284 0.63144946
vn 0.01662796 -0.47859883 0.8778763
vn -0.58171356 -0.5280841 0.618657
vn 0.018658869 -0.6733962 0.73904634
vn -0.9315679 -0.34738618 0.10725706
vn -0.68701714 -0.10011474 -0.7197114
vn -0.67919683 -0.31891 0.6610507
vn -0.013071228 -0.5959191 0.80293804
vn -0.9991093 -0.03705228 0.020186843
vn -0.6682359 -0.20285846 0.71575785
vn -0.0053715045 -0.28392828 0.9588304
vn 0.0397519 -0.18348129 -0.9822191
vn -0.02983234 0.13103263 -0.99092907
vn -0.68764347 0.16129495 -0.70790565
vn -0.98899746 -0.13685463 0.056169678
vn -0.67180616 -0.061843373 0.7381408
vn 0.018029504 -0.09496234 0.9953176
vn -0.0061058374 -0.017546875 -0.9998274
vn -0.68537074 -0.03107145 -0.72753114
vn -0.9993316 -0.00488013 0.036230065
vn -0.66758215 0.083397254 0.73985064
vn 0.010869134 0.076632336 0.99700016
vn 0.6880428 0.032925017 -0.7249228
vn 0.0061145904 0.052759565 -0.9985885
vn -0.67089224 0.044553738 -0.7402152
vn -0.9968156 0.077174045 0.0200678
vn -0.6640556 0.0690762 0.7444855
vn -0.0074992245 0.07161017 0.9974045
vn 0.016934957 0.08227621 0.9964657
vn 0.9990939 0.019816173 0.037666526
vn -0.6599552 0.035840146 -0.75044966
vn 0.68961877 -0.0005056016 -0.7241725
vn 0.013641916 0.008359681 -0.99987197
vn -0.9982578 0.054046094 0.023672884
vn -0.6576337 0.0778643 0.749303
vn 0.01199182 0.14680679 0.98909247
vn 0.66059816 0.056025527 0.7486463
vn -0.65608925 0.016449867 -0.754504
vn 0.016444506 0.0005290357 -0.9998647
vn 0.99729353 0.036720607 0.06369647
vn 0.69652754 0.007573577 -0.7174901
vn -0.64533186 0.14939952 0.74915045
vn 0.0044473144 0.25873995 0.9659367
vn 0.67603534 0.06763815 0.7337582
vn 0.016934957 0.08227621 0.9964657
vn -0.6302251 0.035089966 -0.77561915
vn -0.997336 0.06777733 -0.026966399
vn 0.02769773 0.024013683 -0.9993279
vn 0.9986255 0.05213301 0.0054034325
vn 0.6817346 0.028800726 -0.73103243
vn 0.66464144 0.105409116 0.7396896
vn 0.01199182 0.14680679 0.98909247
vn -0.9925821 0.11991896 -0.0200067
vn -0.6350423 0.045869753 -0.77111423
vn 0.014627237 0.008352127 -0.99985814
vn 0.67610455 0.0044189175 -0.7367925
vn 0.99860054 0.051666107 0.011299429
vn 0.66133153 0.2028401 0.7221471
vn 0.0044473144 0.25873995 0.9659367
vn -0.6481681 0.23258688 0.72510785
vn -0.97964144 0.20012465 -0.015898393
vn -0.6444912 0.14926463 -0.74990076
vn 0.008850408 0.14514358 -0.98937106
vn 0.6813622 0.1249741 -0.7211984
vn 0.9881495 0.15264139 0.0161598
vn 0.6522368 0.3373289 0.67881984
vn 0.0071771652 0.39814547 0.9172942
vn -0.94836026 0.3165063 -0.020896599
vn 0.6725299 0.28492323 -0.68302435
vn 0.9573558 0.28884798 0.006070329
vn 0.62793314 0.38775346 0.67479414
vn 0.0072239884 0.4421424 0.89691585
vn 0.9408379 0.33876425 0.007921242
vn 0.6660525 0.3370726 -0.66539913
vn 0.010172368 0.31844634 -0.9478863
vn 0.009761808 0.36924002 -0.9292828
vn -0.63896793 0.28972563 -0.71258616
vn -0.63832897 0.34097943 -0.6901224
vn -0.9303761 0.36643025 -0.011364237
vn -0.6365736 0.35233703 0.6860267
vn -0.6172156 0.40089944 0.6769968
vn 0.0071771652 0.39814547 0.9172942
vn 0.0072239884 0.4421424 0.89691585
g holiday_treepalm_02_trunk_geo_0
f 3/3/3 2/2/2 1/1/1
f 2/2/2 4/4/4 1/1/1
f 1/1/1 4/4/4 5/5/5
f 6/6/6 4/4/4 2/2/2
f 7/7/7 6/6/6 2/2/2
f 4/4/4 8/8/8 5/5/5
f 5/5/5 8/8/8 9/9/9
f 10/10/10 6/6/6 7/7/7
f 11/11/11 10/10/10 7/7/7
f 11/11/11 12/12/12 10/10/10
f 6/6/6 13/13/13 4/4/4
f 13/13/13 8/8/8 4/4/4
f 10/10/10 14/14/14 6/6/6
f 14/14/14 13/13/13 6/6/6
f 12/12/12 15/15/15 10/10/10
f 10/10/10 15/15/15 14/14/14
f 12/12/12 16/16/16 15/15/15
f 16/16/16 17/17/17 15/15/15
f 16/16/16 18/18/18 17/17/17
f 15/15/15 19/19/19 14/14/14
f 15/15/15 17/17/17 19/19/19
f 14/14/14 20/20/20 13/13/13
f 14/14/14 19/19/19 20/20/20
f 13/13/13 21/21/21 8/8/8
f 20/20/20 21/21/21 13/13/13
f 18/18/18 22/22/22 17/17/17
f 18/18/18 23/23/23 22/22/22
f 17/17/17 24/24/24 19/19/19
f 17/17/17 22/22/22 24/24/24
f 19/19/19 25/25/25 20/20/20
f 19/19/19 24/24/24 25/25/25
f 23/23/23 26/26/26 22/22/22
f 23/23/23 27/27/27 26/26/26
f 22/22/22 28/28/28 24/24/24
f 22/22/22 26/26/26 28/28/28
f 27/27/27 29/29/29 26/26/26
f 27/27/27 30/30/30 29/29/29
f 21/21/21 31/31/31 8/8/8
f 8/8/8 31/31/31 9/9/9
f 20/20/20 32/32/32 21/21/21
f 20/20/20 25/25/25 32/32/32
f 24/24/24 33/33/33 25/25/25
f 24/24/24 28/28/28 33/33/33
f 26/26/26 34/34/34 28/28/28
f 26/26/26 29/29/29 34/34/34
f 30/30/30 35/35/35 29/29/29
f 30/30/30 36/36/36 35/35/35
f 9/9/9 31/31/31 37/37/37
f 38/38/38 9/9/9 37/37/37
f 25/25/25 39/39/39 32/32/32
f 25/25/25 33/33/33 39/39/39
f 28/28/28 40/40/40 33/33/33
f 28/28/28 34/34/34 40/40/40
f 29/29/29 41/41/41 34/34/34
f 29/29/29 35/35/35 41/41/41
f 42/42/42 38/38/38 37/37/37
f 43/43/43 38/38/38 42/42/42
f 44/44/44 43/43/43 42/42/42
f 44/44/44 42/42/42 45/45/45
f 42/42/42 46/46/46 45/45/45
f 42/42/42 37/37/37 46/46/46
f 37/37/37 47/47/47 46/46/46
f 37/37/37 48/48/48 47/47/47
f 31/31/31 48/48/48 37/37/37
f 34/34/34 49/49/49 40/40/40
f 34/34/34 41/41/41 49/49/49
f 48/48/48 50/50/50 47/47/47
f 51/51/51 47/47/47 50/50/50
f 52/52/52 48/48/48 31/31/31
f 21/21/21 52/52/52 31/31/31
f 32/32/32 52/52/52 21/21/21
f 52/52/52 53/53/53 48/48/48
f 53/53/53 50/50/50 48/48/48
f 32/32/32 54/54/54 52/52/52
f 54/54/54 53/53/53 52/52/52
f 32/32/32 39/39/39 54/54/54
f 55/55/55 51/51/51 50/50/50
f 51/51/51 55/55/55 56/56/56
f 50/50/50 53/53/53 57/57/57
f 55/55/55 50/50/50 57/57/57
f 53/53/53 54/54/54 58/58/58
f 57/57/57 53/53/53 58/58/58
f 39/39/39 59/59/59 54/54/54
f 58/58/58 54/54/54 59/59/59
f 55/55/55 60/60/60 56/56/56
f 56/56/56 60/60/60 61/61/61
f 60/60/60 62/62/62 61/61/61
f 63/63/63 62/62/62 60/60/60
f 64/64/64 60/60/60 55/55/55
f 64/64/64 63/63/63 60/60/60
f 57/57/57 64/64/64 55/55/55
f 65/65/65 63/63/63 64/64/64
f 66/66/66 64/64/64 57/57/57
f 58/58/58 66/66/66 57/57/57
f 66/66/66 65/65/65 64/64/64
f 58/58/58 67/67/67 66/66/66
f 67/67/67 58/58/58 59/59/59
f 66/66/66 68/68/68 65/65/65
f 67/67/67 68/68/68 66/66/66
f 68/68/68 69/69/69 65/65/65
f 68/68/68 70/70/70 69/69/69
f 70/70/70 71/71/71 69/69/69
f 67/67/67 72/72/72 68/68/68
f 72/72/72 70/70/70 68/68/68
f 67/67/67 59/59/59 73/73/73
f 72/72/72 67/67/67 73/73/73
f 70/70/70 74/74/74 71/71/71
f 74/74/74 75/75/75 71/71/71
f 72/72/72 76/76/76 70/70/70
f 76/76/76 74/74/74 70/70/70
f 74/74/74 77/77/77 75/75/75
f 77/77/77 78/78/78 75/75/75
f 79/79/79 73/73/73 59/59/59
f 39/39/39 79/79/79 59/59/59
f 33/33/33 79/79/79 39/39/39
f 33/33/33 40/40/40 79/79/79
f 40/40/40 80/80/80 79/79/79
f 79/79/79 80/80/80 73/73/73
f 40/40/40 49/49/49 80/80/80
f 72/72/72 73/73/73 81/81/81
f 80/80/80 81/81/81 73/73/73
f 76/76/76 72/72/72 81/81/81
f 76/76/76 82/82/82 74/74/74
f 82/82/82 77/77/77 74/74/74
f 77/77/77 83/83/83 78/78/78
f 83/83/83 84/84/84 78/78/78
f 49/49/49 85/85/85 80/80/80
f 80/80/80 85/85/85 81/81/81
f 76/76/76 81/81/81 86/86/86
f 82/82/82 76/76/76 86/86/86
f 85/85/85 86/86/86 81/81/81
f 82/82/82 87/87/87 77/77/77
f 87/87/87 83/83/83 77/77/77
f 83/83/83 88/88/88 84/84/84
f 88/88/88 89/89/89 84/84/84
f 49/49/49 90/90/90 85/85/85
f 41/41/41 90/90/90 49/49/49
f 85/85/85 91/91/91 86/86/86
f 90/90/90 91/91/91 85/85/85
f 82/82/82 86/86/86 92/92/92
f 87/87/87 82/82/82 92/92/92
f 91/91/91 92/92/92 86/86/86
f 87/87/87 93/93/93 83/83/83
f 93/93/93 88/88/88 83/83/83
f 88/88/88 94/94/94 89/89/89
f 94/94/94 95/95/95 89/89/89
f 96/96/96 95/95/95 94/94/94
f 41/41/41 97/97/97 90/90/90
f 35/35/35 97/97/97 41/41/41
f 87/87/87 92/92/92 98/98/98
f 93/93/93 87/87/87 98/98/98
f 90/90/90 99/99/99 91/91/91
f 97/97/97 99/99/99 90/90/90
f 91/91/91 100/100/100 92/92/92
f 100/100/100 98/98/98 92/92/92
f 99/99/99 100/100/100 91/91/91
f 101/101/101 94/94/94 88/88/88
f 93/93/93 101/101/101 88/88/88
f 102/102/102 96/96/96 94/94/94
f 102/102/102 94/94/94 101/101/101
f 103/103/103 96/96/96 102/102/102
f 35/35/35 104/104/104 97/97/97
f 36/36/36 104/104/104 35/35/35
f 93/93/93 98/98/98 105/105/105
f 101/101/101 93/93/93 105/105/105
f 100/100/100 106/106/106 98/98/98
f 106/106/106 105/105/105 98/98/98
f 97/97/97 107/107/107 99/99/99
f 104/104/104 107/107/107 97/97/97
f 99/99/99 108/108/108 100/100/100
f 108/108/108 106/106/106 100/100/100
f 107/107/107 108/108/108 99/99/99
f 109/109/109 103/103/103 102/102/102
f 110/110/110 103/103/103 109/109/109
f 111/111/111 104/104/104 36/36/36
f 112/112/112 111/111/111 36/36/36
f 113/113/113 105/105/105 106/106/106
f 101/101/101 105/105/105 113/113/113
f 114/114/114 102/102/102 101/101/101
f 109/109/109 102/102/102 114/114/114
f 114/114/114 101/101/101 113/113/113
f 115/115/115 106/106/106 108/108/108
f 115/115/115 113/113/113 106/106/106
f 116/116/116 107/107/107 104/104/104
f 111/111/111 116/116/116 104/104/104
f 117/117/117 108/108/108 107/107/107
f 117/117/117 115/115/115 108/108/108
f 116/116/116 117/117/117 107/107/107
f 118/118/118 111/111/111 112/112/112
f 119/119/119 118/118/118 112/112/112
f 120/120/120 109/109/109 114/114/114
f 114/114/114 113/113/113 120/120/120
f 121/121/121 113/113/113 115/115/115
f 113/113/113 121/121/121 120/120/120
f 122/122/122 115/115/115 117/117/117
f 122/122/122 121/121/121 115/115/115
f 123/123/123 117/117/117 116/116/116
f 123/123/123 122/122/122 117/117/117
f 124/124/124 116/116/116 111/111/111
f 118/118/118 124/124/124 111/111/111
f 124/124/124 123/123/123 116/116/116
f 125/125/125 118/118/118 119/119/119
f 126/126/126 125/125/125 119/119/119
f 127/127/127 109/109/109 120/120/120
f 127/127/127 110/110/110 109/109/109
f 120/120/120 121/121/121 128/128/128
f 128/128/128 127/127/127 120/120/120
f 129/129/129 121/121/121 122/122/122
f 121/121/121 129/129/129 128/128/128
f 130/130/130 122/122/122 123/123/123
f 130/130/130 129/129/129 122/122/122
f 131/131/131 123/123/123 124/124/124
f 131/131/131 130/130/130 123/123/123
f 132/132/132 124/124/124 118/118/118
f 132/132/132 131/131/131 124/124/124
f 125/125/125 132/132/132 118/118/118
f 125/125/125 126/126/126 133/133/133
f 126/126/126 134/134/134 133/133/133
f 128/128/128 135/135/135 127/127/127
f 128/128/128 129/129/129 135/135/135
f 131/131/131 136/136/136 130/130/130
f 131/131/131 132/132/132 136/136/136
f 132/132/132 125/125/125 137/137/137
f 125/125/125 133/133/133 137/137/137
f 132/132/132 137/137/137 136/136/136
f 133/133/133 134/134/134 138/138/138
f 134/134/134 139/139/139 138/138/138
f 133/133/133 138/138/138 140/140/140
f 137/137/137 133/133/133 140/140/140
f 137/137/137 140/140/140 141/141/141
f 136/136/136 137/137/137 141/141/141
f 136/136/136 142/142/142 130/130/130
f 136/136/136 141/141/141 142/142/142
f 130/130/130 142/142/142 129/129/129
f 141/141/141 143/143/143 142/142/142
f 142/142/142 144/144/144 129/129/129
f 142/142/142 143/143/143 144/144/144
f 143/143/143 145/145/145 144/144/144
f 129/129/129 144/144/144 135/135/135
f 144/144/144 145/145/145 146/146/146
f 135/135/135 144/144/144 146/146/146
f 135/135/135 146/146/146 147/147/147
f 135/135/135 147/147/147 127/127/127
f 127/127/127 147/147/147 110/110/110
f 146/146/146 148/148/148 147/147/147
f 147/147/147 149/149/149 110/110/110
f 147/147/147 148/148/148 149/149/149
f 148/148/148 150/150/150 149/149/149
