g holiday_treePineForestTrunkGeo2
v 0.031000184 8.290312 -0.043564938
v 0.029332275 9.568631 -0.01441331
v 0.0110302735 9.568631 -0.0073497896
v -0.0104663335 8.290312 -0.027561227
v 0.040428996 1.0638787 -0.20836121
v 0.0014294434 9.568631 0.007457889
v -0.13198821 1.0638787 -0.14181793
v 0.045676082 0.4592956 -0.3000698
v -0.032218784 8.290312 0.0059881974
v 0.011987304 9.56885 0.02527832
v -0.19961475 0.4592956 -0.20540142
v 0.05176906 -0.23029044 -0.4065628
v -0.27814338 -0.23029044 -0.2792353
v -0.008297913 8.290811 0.046363577
v 0.029332275 9.568631 0.03165147
v -0.22243468 1.0638787 -0.0023200803
v -0.3282892 0.4592956 -0.0069436072
v -0.45120856 -0.23029044 -0.012312497
v 0.031000184 8.290312 0.060803097
v 0.044229124 9.569376 0.026064789
v -0.12297172 1.065965 0.16556005
v -0.18678737 0.46226406 0.23189251
v -0.2608907 -0.22629718 0.30891842
v 0.06475152 8.291999 0.048145484
v 0.05459961 9.568631 0.007457889
v 0.040428996 1.0638787 0.22559936
v 0.045676082 0.4592956 0.31730795
v 0.05176906 -0.23029044 0.42380095
v 0.08824784 8.290312 0.0059881974
v 0.046400145 9.568631 -0.0072858897
v 0.1807662 1.0708932 0.17296928
v 0.24532798 0.4692747 0.2424333
v 0.32029784 -0.21686862 0.32309562
v 0.069670334 8.290312 -0.027416522
v 0.029332275 9.568631 -0.01441331
v 0.031000184 8.290312 -0.043564938
v 0.27846378 1.0638787 -0.0023200803
v 0.38431826 0.4592956 -0.0069436072
v 0.5072377 -0.23029044 -0.012312497
v 0.20121841 1.0638787 -0.14121644
v 0.040428996 1.0638787 -0.20836121
v 0.27442452 0.4592956 -0.20454566
v 0.35943213 -0.23029044 -0.27808425
v 0.045676082 0.4592956 -0.3000698
v 0.05176906 -0.23029044 -0.4065628
vt -1.7314525 5.311183
vt -1.731453 6.6214933
vt -1.1786575 6.6201506
vt -1.178657 5.3096843
vt -1.7314501 -2.096098
vt -0.6813743 6.618943
vt -1.1786542 -2.0984793
vt -1.7314491 -2.723092
vt -0.68137383 5.3083363
vt -0.097677946 6.617526
vt -1.1786537 -2.7255468
vt -1.7314491 -3.4385538
vt -1.1786537 -3.4410944
vt -0.09767744 5.306754
vt 0.4230584 6.6162615
vt -0.681371 -2.1006203
vt -0.68137074 -2.7277555
vt -0.6813705 -3.4433794
vt 0.42305887 5.3053427
vt 0.87186193 6.6151724
vt -0.09767461 -2.1031342
vt -0.09767437 -2.7303476
vt -0.09767413 -3.446063
vt 0.8718624 5.3041267
vt 1.4724755 6.613715
vt 0.42306173 -2.1053772
vt 0.42306197 -2.7326612
vt 0.4230622 -3.4484568
vt 1.4724759 5.3025
vt 1.9478564 6.612563
vt 0.8718653 -2.1073093
vt 0.8718655 -2.7346544
vt 0.87186575 -3.4505186
vt 1.9478569 5.3012133
vt 2.4690428 6.6112986
vt 2.4690437 5.299802
vt 1.4724789 -2.1098957
vt 1.4724793 -2.7373228
vt 1.4724793 -3.4532785
vt 1.9478598 -2.1119423
vt 2.4690495 -2.1141872
vt 1.9478598 -2.7394342
vt 1.9478602 -3.4554644
vt 2.4690495 -2.7417498
vt 2.4690495 -3.45786
vn 0.013618372 0.022814365 -0.999647
vn 0.013383851 0.022814132 -0.9996501
vn -0.6296685 0.022866333 -0.77652735
vn -0.6301371 0.0228682 -0.7761471
vn 0.012859405 0.08795338 -0.99604154
vn -0.99949074 0.026329558 -0.0180309
vn -0.6264654 0.08788803 -0.7744785
vn 0.013317178 0.1514455 -0.9883759
vn -0.9994473 0.026331013 -0.02028958
vn -0.639305 0.02282784 0.7686143
vn -0.62274987 0.15178041 -0.767558
vn 0.014946594 0.15273307 -0.9881544
vn -0.6258494 0.15315306 -0.76475924
vn -0.63946444 0.022828184 0.76848173
vn 0.0067057996 0.022806961 0.9997174
vn -0.99453235 0.10251449 -0.01990356
vn -0.9845005 0.17418444 -0.020455629
vn -0.9841636 0.17561583 -0.024106978
vn 0.0029456862 0.022802472 0.99973565
vn 0.6529048 0.023576342 0.7570729
vn -0.6363488 0.08748874 0.76642406
vn -0.6320386 0.15170492 0.75994265
vn -0.63365406 0.15302487 0.75833106
vn 0.65198624 0.023575267 0.75786424
vn 0.99963284 0.026305063 0.006498297
vn 0.00094596174 0.08902928 0.99602854
vn 0.0005676928 0.15137132 0.98847675
vn -0.0017446915 0.15260588 0.98828566
vn 0.9996538 0.026313016 7.8356716E-05
vn 0.66576463 0.023863766 -0.7457801
vn 0.6488449 0.08936129 0.7556552
vn 0.64348 0.1569821 0.74919295
vn 0.6433116 0.15834758 0.7490502
vn 0.6662403 0.023865726 -0.7453551
vn 0.013383851 0.022814132 -0.9996501
vn 0.013618372 0.022814365 -0.999647
vn 0.9947014 0.102807336 -3.723459E-05
vn 0.9848534 0.17338006 -0.0017503101
vn 0.98441017 0.17555612 -0.010796846
vn 0.6621888 0.0917856 -0.7436945
vn 0.012859405 0.08795338 -0.99604154
vn 0.6577557 0.15824601 -0.7364208
vn 0.660891 0.15967065 -0.7332996
vn 0.013317178 0.1514455 -0.9883759
vn 0.014946594 0.15273307 -0.9881544
g holiday_treePineForestTrunkGeo2_0
f 3/3/3 2/2/2 1/1/1
f 4/4/4 3/3/3 1/1/1
f 4/4/4 1/1/1 5/5/5
f 6/6/6 3/3/3 4/4/4
f 7/7/7 4/4/4 5/5/5
f 7/7/7 5/5/5 8/8/8
f 9/9/9 6/6/6 4/4/4
f 9/9/9 4/4/4 7/7/7
f 10/10/10 6/6/6 9/9/9
f 11/11/11 7/7/7 8/8/8
f 11/11/11 8/8/8 12/12/12
f 13/13/13 11/11/11 12/12/12
f 14/14/14 10/10/10 9/9/9
f 15/15/15 10/10/10 14/14/14
f 16/16/16 9/9/9 7/7/7
f 16/16/16 7/7/7 11/11/11
f 14/14/14 9/9/9 16/16/16
f 17/17/17 11/11/11 13/13/13
f 17/17/17 16/16/16 11/11/11
f 18/18/18 17/17/17 13/13/13
f 19/19/19 15/15/15 14/14/14
f 20/20/20 15/15/15 19/19/19
f 21/21/21 14/14/14 16/16/16
f 21/21/21 16/16/16 17/17/17
f 19/19/19 14/14/14 21/21/21
f 22/22/22 17/17/17 18/18/18
f 22/22/22 21/21/21 17/17/17
f 23/23/23 22/22/22 18/18/18
f 24/24/24 20/20/20 19/19/19
f 25/25/25 20/20/20 24/24/24
f 26/26/26 19/19/19 21/21/21
f 26/26/26 21/21/21 22/22/22
f 24/24/24 19/19/19 26/26/26
f 27/27/27 22/22/22 23/23/23
f 27/27/27 26/26/26 22/22/22
f 28/28/28 27/27/27 23/23/23
f 29/29/29 25/25/25 24/24/24
f 30/30/30 25/25/25 29/29/29
f 31/31/31 24/24/24 26/26/26
f 31/31/31 26/26/26 27/27/27
f 29/29/29 24/24/24 31/31/31
f 32/32/32 27/27/27 28/28/28
f 32/32/32 31/31/31 27/27/27
f 33/33/33 32/32/32 28/28/28
f 34/34/34 30/30/30 29/29/29
f 35/35/35 30/30/30 34/34/34
f 36/36/36 35/35/35 34/34/34
f 37/37/37 29/29/29 31/31/31
f 37/37/37 31/31/31 32/32/32
f 34/34/34 29/29/29 37/37/37
f 38/38/38 32/32/32 33/33/33
f 38/38/38 37/37/37 32/32/32
f 39/39/39 38/38/38 33/33/33
f 36/36/36 34/34/34 40/40/40
f 40/40/40 34/34/34 37/37/37
f 40/40/40 37/37/37 38/38/38
f 41/41/41 36/36/36 40/40/40
f 42/42/42 38/38/38 39/39/39
f 42/42/42 40/40/40 38/38/38
f 41/41/41 40/40/40 42/42/42
f 43/43/43 42/42/42 39/39/39
f 44/44/44 41/41/41 42/42/42
f 44/44/44 42/42/42 43/43/43
f 45/45/45 44/44/44 43/43/43
