g holiday_treePineForestGeo01
v -0.12297172 1.065965 0.16556005
v 0.011987304 9.56885 0.02527832
v 0.029332275 9.568631 0.03165147
v 0.040428996 1.0638787 0.22559936
v -0.13198821 1.0638787 -0.14181793
v 0.0110302735 9.568631 -0.0073497896
v 0.0014294434 9.568631 0.007457889
v -0.22243468 1.0638787 -0.0023200803
v 0.20121841 1.0638787 -0.14121644
v 0.046400145 9.568631 -0.0072858897
v 0.029332275 9.568631 -0.01441331
v 0.040428996 1.0638787 -0.20836121
v 0.1807662 1.0708932 0.17296928
v 0.044229124 9.569376 0.026064789
v 0.05459961 9.568631 0.007457889
v 0.27846378 1.0638787 -0.0023200803
v 0.27846378 1.0638787 -0.0023200803
v 0.05459961 9.568631 0.007457889
v 0.046400145 9.568631 -0.0072858897
v 0.20121841 1.0638787 -0.14121644
v 0.040428996 1.0638787 0.22559936
v 0.029332275 9.568631 0.03165147
v 0.044229124 9.569376 0.026064789
v 0.1807662 1.0708932 0.17296928
v 0.040428996 1.0638787 -0.20836121
v 0.029332275 9.568631 -0.01441331
v 0.0110302735 9.568631 -0.0073497896
v -0.13198821 1.0638787 -0.14181793
v -0.22243468 1.0638787 -0.0023200803
v 0.0014294434 9.568631 0.007457889
v 0.011987304 9.56885 0.02527832
v -0.12297172 1.065965 0.16556005
v -0.19961475 0.4592956 -0.20540142
v -0.13198821 1.0638787 -0.14181793
v -0.22243468 1.0638787 -0.0023200803
v -0.3282892 0.4592956 -0.0069436072
v -0.27814338 -0.23029044 -0.2792353
v -0.45120856 -0.23029044 -0.012312497
v -0.3282892 0.4592956 -0.0069436072
v -0.22243468 1.0638787 -0.0023200803
v -0.12297172 1.065965 0.16556005
v -0.18678737 0.46226406 0.23189251
v -0.45120856 -0.23029044 -0.012312497
v -0.2608907 -0.22629718 0.30891842
v -0.18678737 0.46226406 0.23189251
v -0.12297172 1.065965 0.16556005
v 0.040428996 1.0638787 0.22559936
v 0.045676082 0.4592956 0.31730795
v -0.2608907 -0.22629718 0.30891842
v 0.05176906 -0.23029044 0.42380095
v 0.045676082 0.4592956 0.31730795
v 0.040428996 1.0638787 0.22559936
v 0.1807662 1.0708932 0.17296928
v 0.24532798 0.4692747 0.2424333
v 0.05176906 -0.23029044 0.42380095
v 0.32029784 -0.21686862 0.32309562
v 0.24532798 0.4692747 0.2424333
v 0.1807662 1.0708932 0.17296928
v 0.27846378 1.0638787 -0.0023200803
v 0.38431826 0.4592956 -0.0069436072
v 0.32029784 -0.21686862 0.32309562
v 0.5072377 -0.23029044 -0.012312497
v 0.38431826 0.4592956 -0.0069436072
v 0.27846378 1.0638787 -0.0023200803
v 0.20121841 1.0638787 -0.14121644
v 0.27442452 0.4592956 -0.20454566
v 0.5072377 -0.23029044 -0.012312497
v 0.35943213 -0.23029044 -0.27808425
v 0.27442452 0.4592956 -0.20454566
v 0.20121841 1.0638787 -0.14121644
v 0.040428996 1.0638787 -0.20836121
v 0.045676082 0.4592956 -0.3000698
v 0.35943213 -0.23029044 -0.27808425
v 0.05176906 -0.23029044 -0.4065628
v 0.045676082 0.4592956 -0.3000698
v 0.040428996 1.0638787 -0.20836121
v -0.13198821 1.0638787 -0.14181793
v -0.19961475 0.4592956 -0.20540142
v 0.05176906 -0.23029044 -0.4065628
v -0.27814338 -0.23029044 -0.2792353
vt -0.09767461 -2.4054747
vt -0.097677946 6.3151855
vt 0.4230584 6.313921
vt 0.42306173 -2.4077177
vt -1.1786542 -2.4008198
vt -1.1786575 6.31781
vt -0.6813743 6.3166027
vt -0.681371 -2.4029608
vt 1.9478598 -2.4142828
vt 1.9478564 6.3102226
vt 2.4690428 6.308958
vt 2.4690495 -2.4165277
vt 0.8718653 -2.4096498
vt 0.87186193 6.312832
vt 1.4724755 6.3113747
vt 1.4724789 -2.4122362
vt 1.4724789 -2.4122362
vt 1.4724755 6.3113747
vt 1.9478564 6.3102226
vt 1.9478598 -2.4142828
vt 0.42306173 -2.4077177
vt 0.4230584 6.313921
vt 0.87186193 6.312832
vt 0.8718653 -2.4096498
vt -1.7314501 -2.3984385
vt -1.731453 6.319153
vt -1.1786575 6.31781
vt -1.1786542 -2.4008198
vt -0.681371 -2.4029608
vt -0.6813743 6.3166027
vt -0.097677946 6.3151855
vt -0.09767461 -2.4054747
vt -1.1786537 -3.0278873
vt -1.1786542 -2.4008198
vt -0.681371 -2.4029608
vt -0.68137074 -3.030096
vt -1.1786537 -3.743435
vt -0.6813705 -3.74572
vt -0.68137074 -3.030096
vt -0.681371 -2.4029608
vt -0.09767461 -2.4054747
vt -0.09767437 -3.0326881
vt -0.6813705 -3.74572
vt -0.09767413 -3.7484035
vt -0.09767437 -3.0326881
vt -0.09767461 -2.4054747
vt 0.42306173 -2.4077177
vt 0.42306197 -3.0350018
vt -0.09767413 -3.7484035
vt 0.4230622 -3.7507973
vt 0.42306197 -3.0350018
vt 0.42306173 -2.4077177
vt 0.8718653 -2.4096498
vt 0.8718655 -3.036995
vt 0.4230622 -3.7507973
vt 0.87186575 -3.752859
vt 0.8718655 -3.036995
vt 0.8718653 -2.4096498
vt 1.4724789 -2.4122362
vt 1.4724793 -3.0396633
vt 0.87186575 -3.752859
vt 1.4724793 -3.755619
vt 1.4724793 -3.0396633
vt 1.4724789 -2.4122362
vt 1.9478598 -2.4142828
vt 1.9478598 -3.0417747
vt 1.4724793 -3.755619
vt 1.9478602 -3.7578049
vt 1.9478598 -3.0417747
vt 1.9478598 -2.4142828
vt 2.4690495 -2.4165277
vt 2.4690495 -3.0440903
vt 1.9478602 -3.7578049
vt 2.4690495 -3.7602005
vt -1.7314491 -3.0254326
vt -1.7314501 -2.3984385
vt -1.1786542 -2.4008198
vt -1.1786537 -3.0278873
vt -1.7314491 -3.7408943
vt -1.1786537 -3.743435
vn -0.34458005 0.020953096 0.93852305
vn -0.34458005 0.020953096 0.93852305
vn -0.34458005 0.020953096 0.93852305
vn -0.34458005 0.020953096 0.93852305
vn -0.83885115 0.022705745 -0.54388714
vn -0.83885115 0.022705745 -0.54388714
vn -0.83885115 0.022705745 -0.54388714
vn -0.83885115 0.022705745 -0.54388714
vn 0.38525534 0.021541288 -0.92255855
vn 0.38525534 0.021541288 -0.92255855
vn 0.38525534 0.021541288 -0.92255855
vn 0.38525534 0.021541288 -0.92255855
vn 0.8736528 0.022437697 0.48603237
vn 0.8736528 0.022437697 0.48603237
vn 0.8736528 0.022437697 0.48603237
vn 0.8736528 0.022437697 0.48603237
vn 0.8736993 0.023556357 -0.48589575
vn 0.8736993 0.023556357 -0.48589575
vn 0.8736993 0.023556357 -0.48589575
vn 0.8736993 0.023556357 -0.48589575
vn 0.35010508 0.021812364 0.93645644
vn 0.35010508 0.021812364 0.93645644
vn 0.35010508 0.021812364 0.93645644
vn 0.35010508 0.021812364 0.93645644
vn -0.35998023 0.020800846 -0.93272805
vn -0.35998023 0.020800846 -0.93272805
vn -0.35998023 0.020800846 -0.93272805
vn -0.35998023 0.020800846 -0.93272805
vn -0.86025083 0.022058075 0.50939363
vn -0.86025083 0.022058075 0.50939363
vn -0.86025083 0.022058075 0.50939363
vn -0.86025083 0.022058075 0.50939363
vn -0.8294827 0.15071705 -0.5378132
vn -0.82965344 0.14937513 -0.537924
vn -0.82965344 0.14937513 -0.537924
vn -0.829476 0.15076827 -0.5378089
vn -0.82931614 0.15201281 -0.5377052
vn -0.82931614 0.15201281 -0.5377052
vn -0.85183054 0.14669992 0.5028557
vn -0.85199744 0.14532708 0.50297177
vn -0.85199744 0.14532708 0.50297177
vn -0.8518381 0.14663777 0.5028609
vn -0.8516835 0.14789917 0.50275356
vn -0.8516835 0.14789917 0.50275356
vn -0.33995393 0.13941519 0.9300509
vn -0.34002927 0.13815187 0.9302119
vn -0.34002927 0.13815187 0.9302119
vn -0.33995286 0.13943301 0.93004864
vn -0.3398826 0.1406014 0.92989844
vn -0.3398826 0.1406014 0.92989844
vn 0.34105098 0.14521776 0.92876047
vn 0.3411794 0.14386848 0.92892325
vn 0.3411794 0.14386848 0.92892325
vn 0.34105703 0.14515461 0.92876816
vn 0.34093615 0.14641862 0.928614
vn 0.34093615 0.14641862 0.928614
vn 0.8662217 0.14936669 0.47681192
vn 0.86637324 0.14804302 0.4769493
vn 0.86637324 0.14804302 0.4769493
vn 0.866358 0.14818181 0.476934
vn 0.8660713 0.15066682 0.476676
vn 0.8660713 0.15066682 0.476676
vn 0.863204 0.1562748 -0.48005944
vn 0.8634012 0.15484221 -0.48016912
vn 0.8634012 0.15484221 -0.48016912
vn 0.8632094 0.15623534 -0.48006245
vn 0.86302394 0.15757161 -0.4799593
vn 0.86302394 0.15757161 -0.4799593
vn 0.38137457 0.14318158 -0.91326475
vn 0.3814473 0.14186917 -0.91343915
vn 0.3814473 0.14186917 -0.91343915
vn 0.38137543 0.14316496 -0.91326696
vn 0.3813075 0.14438006 -0.913104
vn 0.3813075 0.14438006 -0.913104
vn -0.35659575 0.1383471 -0.9239586
vn -0.356659 0.13708381 -0.92412245
vn -0.356659 0.13708381 -0.92412245
vn -0.35659564 0.13835 -0.9239583
vn -0.35653678 0.1395134 -0.92380595
vn -0.35653678 0.1395134 -0.92380595
g holiday_treePineForestGeo01_0
f 3/3/3 2/2/2 1/1/1
f 4/4/4 3/3/3 1/1/1
f 7/7/7 6/6/6 5/5/5
f 8/8/8 7/7/7 5/5/5
f 11/11/11 10/10/10 9/9/9
f 12/12/12 11/11/11 9/9/9
f 15/15/15 14/14/14 13/13/13
f 16/16/16 15/15/15 13/13/13
f 19/19/19 18/18/18 17/17/17
f 20/20/20 19/19/19 17/17/17
f 23/23/23 22/22/22 21/21/21
f 24/24/24 23/23/23 21/21/21
f 27/27/27 26/26/26 25/25/25
f 28/28/28 27/27/27 25/25/25
f 31/31/31 30/30/30 29/29/29
f 32/32/32 31/31/31 29/29/29
f 35/35/35 34/34/34 33/33/33
f 36/36/36 35/35/35 33/33/33
f 36/36/36 33/33/33 37/37/37
f 38/38/38 36/36/36 37/37/37
f 41/41/41 40/40/40 39/39/39
f 42/42/42 41/41/41 39/39/39
f 42/42/42 39/39/39 43/43/43
f 44/44/44 42/42/42 43/43/43
f 47/47/47 46/46/46 45/45/45
f 48/48/48 47/47/47 45/45/45
f 48/48/48 45/45/45 49/49/49
f 50/50/50 48/48/48 49/49/49
f 53/53/53 52/52/52 51/51/51
f 54/54/54 53/53/53 51/51/51
f 54/54/54 51/51/51 55/55/55
f 56/56/56 54/54/54 55/55/55
f 59/59/59 58/58/58 57/57/57
f 60/60/60 59/59/59 57/57/57
f 60/60/60 57/57/57 61/61/61
f 62/62/62 60/60/60 61/61/61
f 65/65/65 64/64/64 63/63/63
f 66/66/66 65/65/65 63/63/63
f 66/66/66 63/63/63 67/67/67
f 68/68/68 66/66/66 67/67/67
f 71/71/71 70/70/70 69/69/69
f 72/72/72 71/71/71 69/69/69
f 72/72/72 69/69/69 73/73/73
f 74/74/74 72/72/72 73/73/73
f 77/77/77 76/76/76 75/75/75
f 78/78/78 77/77/77 75/75/75
f 78/78/78 75/75/75 79/79/79
f 80/80/80 78/78/78 79/79/79
