g inner_ring_reflection
v 12.07669 -0.0002250671 -24.07866
v -0.7568226 -0.0002250671 -24.07866
v -0.7568226 1.564156 -24.07866
v 12.07669 1.564156 -24.07866
v 22.95752 -0.0002250671 -17.27919
v 12.07669 -0.0002250671 -24.07866
v 12.07669 1.564156 -24.07866
v 22.95752 1.564156 -17.27919
v 29.75606 -0.0002250671 -6.398359
v 22.95752 -0.0002250671 -17.27919
v 22.95752 1.564156 -17.27919
v 29.75606 1.564156 -6.398359
v 12.07669 -0.0002250671 24.1108
v 12.07669 1.564156 24.1108
v -0.7568226 1.564156 24.1108
v -0.7568226 -0.0002250671 24.1108
v 22.95752 -0.0002250671 17.31226
v 22.95752 1.564156 17.31226
v 12.07669 1.564156 24.1108
v 12.07669 -0.0002250671 24.1108
v 29.75606 -0.0002250671 6.431431
v 29.75606 1.564156 6.431431
v 22.95752 1.564156 17.31226
v 22.95752 -0.0002250671 17.31226
v 29.75606 -0.0002250671 6.431431
v 29.75606 -0.0002250671 -6.398359
v 29.75606 1.564156 -6.398359
v 29.75606 1.564156 6.431431
v -13.58941 -0.0002250671 -24.07866
v -13.58941 1.564156 -24.07866
v -0.7568226 1.564156 -24.07866
v -0.7568226 -0.0002250671 -24.07866
v -24.47024 -0.0002250671 -17.27919
v -24.47024 1.564156 -17.27919
v -13.58941 1.564156 -24.07866
v -13.58941 -0.0002250671 -24.07866
v -31.26878 -0.0002250671 -6.398359
v -31.26878 1.564156 -6.398359
v -24.47024 1.564156 -17.27919
v -24.47024 -0.0002250671 -17.27919
v -13.58941 -0.0002250671 24.1108
v -0.7568226 -0.0002250671 24.1108
v -0.7568226 1.564156 24.1108
v -13.58941 1.564156 24.1108
v -24.47024 -0.0002250671 17.31226
v -13.58941 -0.0002250671 24.1108
v -13.58941 1.564156 24.1108
v -24.47024 1.564156 17.31226
v -31.26878 -0.0002250671 6.431431
v -24.47024 -0.0002250671 17.31226
v -24.47024 1.564156 17.31226
v -31.26878 1.564156 6.431431
v -31.26878 -0.0002250671 6.431431
v -31.26878 1.564156 6.431431
v -31.26878 1.564156 -6.398359
v -31.26878 -0.0002250671 -6.398359
vt -5.350461 3.02504
vt -5.900448 3.02504
vt -5.900448 3.092004
vt -5.350461 3.092004
vt -5.350461 3.02504
vt -5.900448 3.02504
vt -5.900448 3.092004
vt -5.350461 3.092004
vt -5.350461 3.02504
vt -5.900448 3.02504
vt -5.900448 3.092004
vt -5.350461 3.092004
vt -5.900448 3.02504
vt -5.900448 3.092004
vt -5.350461 3.092004
vt -5.350461 3.02504
vt -5.900448 3.02504
vt -5.900448 3.092004
vt -5.350461 3.092004
vt -5.350461 3.02504
vt -5.900448 3.02504
vt -5.900448 3.092004
vt -5.350461 3.092004
vt -5.350461 3.02504
vt -5.350461 3.02504
vt -5.900448 3.02504
vt -5.900448 3.092004
vt -5.350461 3.092004
vt -5.900448 3.02504
vt -5.900448 3.092004
vt -5.350461 3.092004
vt -5.350461 3.02504
vt -5.900448 3.02504
vt -5.900448 3.092004
vt -5.350461 3.092004
vt -5.350461 3.02504
vt -5.900448 3.02504
vt -5.900448 3.092004
vt -5.350461 3.092004
vt -5.350461 3.02504
vt -5.350461 3.02504
vt -5.900448 3.02504
vt -5.900448 3.092004
vt -5.350461 3.092004
vt -5.350461 3.02504
vt -5.900448 3.02504
vt -5.900448 3.092004
vt -5.350461 3.092004
vt -5.350461 3.02504
vt -5.900448 3.02504
vt -5.900448 3.092004
vt -5.350461 3.092004
vt -5.900448 3.02504
vt -5.900448 3.092004
vt -5.350461 3.092004
vt -5.350461 3.02504
vn -0.2751848 0.003769755 0.9613839
vn -0.003769755 0.003769755 0.9999858
vn -0.003769755 0.003769755 0.9999858
vn -0.2751848 0.003769755 0.9613839
vn -0.7049254 0.003769755 0.7092715
vn -0.2751848 0.003769755 0.9613839
vn -0.2751848 0.003769755 0.9613839
vn -0.7049254 0.003769755 0.7092715
vn -0.9612618 0.003769755 0.2756112
vn -0.7049254 0.003769755 0.7092715
vn -0.7049254 0.003769755 0.7092715
vn -0.9612618 0.003769755 0.2756112
vn -0.2751848 0.003769755 -0.9613839
vn -0.2751848 0.003769755 -0.9613839
vn -0.003769755 0.003769755 -0.9999858
vn -0.003769755 0.003769755 -0.9999858
vn -0.7049254 0.003769755 -0.7092715
vn -0.7049254 0.003769755 -0.7092715
vn -0.2751848 0.003769755 -0.9613839
vn -0.2751848 0.003769755 -0.9613839
vn -0.9612618 0.003769755 -0.2756112
vn -0.9612618 0.003769755 -0.2756112
vn -0.7049254 0.003769755 -0.7092715
vn -0.7049254 0.003769755 -0.7092715
vn -0.9612618 0.003769755 -0.2756112
vn -0.9612618 0.003769755 0.2756112
vn -0.9612618 0.003769755 0.2756112
vn -0.9612618 0.003769755 -0.2756112
vn 0.2751847 0.003769755 0.961384
vn 0.2751847 0.003769755 0.961384
vn -0.003769755 0.003769755 0.9999858
vn -0.003769755 0.003769755 0.9999858
vn 0.7049252 0.003769755 0.7092717
vn 0.7049252 0.003769755 0.7092717
vn 0.2751847 0.003769755 0.961384
vn 0.2751847 0.003769755 0.961384
vn 0.9612617 0.003769755 0.2756116
vn 0.9612617 0.003769755 0.2756116
vn 0.7049252 0.003769755 0.7092717
vn 0.7049252 0.003769755 0.7092717
vn 0.2751847 0.003769755 -0.961384
vn -0.003769755 0.003769755 -0.9999858
vn -0.003769755 0.003769755 -0.9999858
vn 0.2751847 0.003769755 -0.961384
vn 0.7049252 0.003769755 -0.7092717
vn 0.2751847 0.003769755 -0.961384
vn 0.2751847 0.003769755 -0.961384
vn 0.7049252 0.003769755 -0.7092717
vn 0.9612617 0.003769755 -0.2756116
vn 0.7049252 0.003769755 -0.7092717
vn 0.7049252 0.003769755 -0.7092717
vn 0.9612617 0.003769755 -0.2756116
vn 0.9612617 0.003769755 -0.2756116
vn 0.9612617 0.003769755 -0.2756116
vn 0.9612617 0.003769755 0.2756116
vn 0.9612617 0.003769755 0.2756116
g inner_ring_reflection_0
f 3/3/3 2/2/2 1/1/1
f 4/4/4 3/3/3 1/1/1
f 7/7/7 6/6/6 5/5/5
f 8/8/8 7/7/7 5/5/5
f 11/11/11 10/10/10 9/9/9
f 12/12/12 11/11/11 9/9/9
f 15/15/15 14/14/14 13/13/13
f 16/16/16 15/15/15 13/13/13
f 19/19/19 18/18/18 17/17/17
f 20/20/20 19/19/19 17/17/17
f 23/23/23 22/22/22 21/21/21
f 24/24/24 23/23/23 21/21/21
f 27/27/27 26/26/26 25/25/25
f 28/28/28 27/27/27 25/25/25
f 31/31/31 30/30/30 29/29/29
f 32/32/32 31/31/31 29/29/29
f 35/35/35 34/34/34 33/33/33
f 36/36/36 35/35/35 33/33/33
f 39/39/39 38/38/38 37/37/37
f 40/40/40 39/39/39 37/37/37
f 43/43/43 42/42/42 41/41/41
f 44/44/44 43/43/43 41/41/41
f 47/47/47 46/46/46 45/45/45
f 48/48/48 47/47/47 45/45/45
f 51/51/51 50/50/50 49/49/49
f 52/52/52 51/51/51 49/49/49
f 55/55/55 54/54/54 53/53/53
f 56/56/56 55/55/55 53/53/53
