g jirachiTreeMiddleLeavesGeo
v 1.437541 3.691123 -3.669495
v 1.007056 3.863281 -3.633771
v 1.145106 4.13579 -3.283351
v 1.575591 3.963632 -3.319075
v 1.267538 3.522735 -3.813469
v 0.9614582 3.22617 -3.99927
v 0.6121154 3.469597 -3.812212
v 0.9183741 3.766161 -3.62641
v 0.9704342 3.163339 -3.957083
v 1.163417 3.544456 -4.140552
v 1.567513 3.437822 -3.936977
v 1.37453 3.056705 -3.75351
v 1.961915 3.092788 -4.33856
v 1.766778 2.739675 -4.569421
v 1.345269 2.889393 -4.442502
v 1.540406 3.242506 -4.211461
v 1.244739 2.831229 -3.519956
v 1.561409 2.524252 -3.667161
v 1.225709 2.276338 -3.871992
v 0.909039 2.583314 -3.724787
v 1.226966 2.213147 -3.89892
v 0.842617 2.083894 -4.036072
v 0.6614828 2.423542 -3.848655
v 1.046011 2.552795 -3.711323
v 0.8542857 2.239356 -4.262444
v 1.212425 2.281363 -4.11883
v 1.251919 1.895399 -4.104827
v 0.8937798 1.853392 -4.248622
v -1.439063 4.252477 -6.229429
v -1.4475 4.619772 -6.222068
v -1.112878 4.62426 -6.070375
v -1.10462 4.257144 -6.077556
v -1.092413 4.216035 -6.10233
v -1.169247 4.613309 -6.035369
v -0.7881289 4.707197 -6.153852
v -0.7111154 4.309923 -6.220812
v -1.751784 4.630363 -6.450236
v -1.397056 4.435765 -6.517915
v -1.560417 4.088218 -6.373941
v -1.914967 4.282816 -6.306262
v -0.9708786 4.217471 -6.171265
v -0.7371459 4.054289 -6.037882
v -0.9168439 3.796141 -6.0386
v -1.150577 3.959323 -6.171983
v -0.7813072 4.201674 -6.06858
v -0.494616 4.12466 -6.240738
v -0.5709114 3.790935 -6.218298
v -0.8576026 3.867949 -6.04614
v -1.264212 4.09486 -6.068042
v -0.9358726 4.234525 -6.211477
v -0.9430532 3.967402 -6.488115
v -1.271393 3.827916 -6.34468
v -0.7394795 3.954476 -6.550408
v -0.5134654 3.709613 -6.647348
v -0.7696385 3.475521 -6.653451
v -0.9956522 3.720564 -6.556511
v -0.2790146 3.252918 -7.057548
v -0.7069864 3.302824 -7.034389
v -0.6520538 3.685019 -6.842125
v -0.224082 3.635113 -6.865104
v -0.8179288 3.432436 -6.567821
v -0.6567216 3.73672 -6.611803
v -0.3702097 3.569947 -6.714308
v -0.5314174 3.265843 -6.670506
v -0.9168439 3.504244 -6.696715
v -0.7403769 3.222759 -6.797246
v -1.026529 3.030135 -6.759547
v -1.202996 3.311621 -6.659196
v -1.739936 3.736181 -5.691591
v -1.532592 3.424358 -5.678127
v -1.844775 3.217014 -5.670588
v -2.052118 3.529017 -5.683872
v -2.030756 3.491319 -6.006108
v -2.18945 3.174109 -6.127821
v -2.52515 3.300131 -6.018136
v -2.366456 3.617161 -5.896602
v -1.793792 3.658092 -6.339474
v -1.36582 3.72936 -6.440722
v -1.328838 3.30803 -6.580747
v -1.756811 3.236761 -6.479498
v -2.175447 2.496965 -6.538021
v -2.466088 2.829075 -6.56082
v -2.134697 3.114868 -6.622036
v -1.844236 2.782759 -6.599416
v -2.342041 2.691204 -6.752905
v -2.680972 2.413131 -6.698331
v -2.932118 2.747214 -6.555434
v -2.593187 3.025468 -6.610008
v -0.8904543 3.073579 -6.829918
v -0.7761011 3.400303 -6.804965
v -0.4484801 3.286129 -6.813044
v -0.5628333 2.959405 -6.837996
v -0.6527719 2.14852 -5.312628
v -0.6369743 2.559258 -5.432187
v -0.2765012 2.482065 -5.649764
v -0.2922988 2.071148 -5.530384
v -0.7963867 2.654404 -5.547797
v -0.5211849 2.395717 -5.345839
v -0.846652 2.147802 -5.219637
v -1.121854 2.406488 -5.421596
v -1.747835 2.095741 -6.686124
v -1.999879 2.45424 -6.743031
v -1.653408 2.671278 -6.910163
v -1.401185 2.312959 -6.853255
v -2.096819 2.220687 -6.950016
v -2.387459 2.552795 -6.972815
v -2.056068 2.838409 -7.03403
v -1.765428 2.50648 -7.011411
v -2.146366 2.025909 -5.942019
v -2.195913 2.393922 -6.009519
v -2.024652 2.355684 -6.343423
v -1.975105 1.987672 -6.275924
v -2.310805 1.982106 -6.178086
v -2.529997 2.01065 -5.795532
v -2.358198 2.411874 -5.726777
v -2.138826 2.38333 -6.109331
v -2.593905 1.722881 -6.028368
v -2.731237 2.045117 -5.75909
v -2.541486 2.345632 -6.021726
v -2.404155 2.023396 -6.291004
vt 0 0
vt 0 1
vt 1 1
vt 1 0
vt 0 0
vt 0 1
vt 1 1
vt 1 0
vt 0 0
vt 0 1
vt 1 1
vt 1 0
vt 0 0
vt 0 1
vt 1 1
vt 1 0
vt 0 0
vt 0 1
vt 1 1
vt 1 0
vt 0 0
vt 0 1
vt 1 1
vt 1 0
vt 0 0
vt 0 1
vt 1 1
vt 1 0
vt 0 0
vt 0 1
vt 1 1
vt 1 0
vt 0 0
vt 0 1
vt 1 1
vt 1 0
vt 0 0
vt 0 1
vt 1 1
vt 1 0
vt 0 0
vt 0 1
vt 1 1
vt 1 0
vt 0 0
vt 0 1
vt 1 1
vt 1 0
vt 0 0
vt 0 1
vt 1 1
vt 1 0
vt 0 0
vt 0 1
vt 1 1
vt 1 0
vt 0 0
vt 0 1
vt 1 1
vt 1 0
vt 0 0
vt 0 1
vt 1 1
vt 1 0
vt 0 0
vt 0 1
vt 1 1
vt 1 0
vt 0 0
vt 0 1
vt 1 1
vt 1 0
vt 0 0
vt 0 1
vt 1 1
vt 1 0
vt 0 0
vt 0 1
vt 1 1
vt 1 0
vt 0 0
vt 0 1
vt 1 1
vt 1 0
vt 0 0
vt 0 1
vt 1 1
vt 1 0
vt 0 0
vt 0 1
vt 1 1
vt 1 0
vt 0 0
vt 0 1
vt 1 1
vt 1 0
vt 0 0
vt 0 1
vt 1 1
vt 1 0
vt 0 0
vt 0 1
vt 1 1
vt 1 0
vt 0 0
vt 0 1
vt 1 1
vt 1 0
vt 0 0
vt 0 1
vt 1 1
vt 1 0
vt 0 0
vt 0 1
vt 1 1
vt 1 0
vt 0 0
vt 0 1
vt 1 1
vt 1 0
vn -0.2339997 -0.71869 0.6547738
vn -0.2339997 -0.71869 0.6547738
vn -0.2339997 -0.71869 0.6547738
vn -0.2339997 -0.71869 0.6547738
vn 0.04620314 -0.5673805 0.8221586
vn 0.04620314 -0.5673805 0.8221586
vn 0.04620314 -0.5673805 0.8221586
vn 0.04620314 -0.5673805 0.8221586
vn -0.267624 0.5254108 0.8076639
vn -0.267624 0.5254108 0.8076639
vn -0.267624 0.5254108 0.8076639
vn -0.267624 0.5254108 0.8076639
vn 0.04620314 -0.5673805 0.8221586
vn 0.04620314 -0.5673805 0.8221586
vn 0.04620314 -0.5673805 0.8221586
vn 0.04620314 -0.5673805 0.8221586
vn -0.1219186 -0.5281521 0.8403518
vn -0.1219186 -0.5281521 0.8403518
vn -0.1219186 -0.5281521 0.8403518
vn -0.1219186 -0.5281521 0.8403518
vn -0.1219186 -0.5281521 0.8403518
vn -0.1219186 -0.5281521 0.8403518
vn -0.1219186 -0.5281521 0.8403518
vn -0.1219186 -0.5281521 0.8403518
vn -0.3741012 -0.006974757 0.9273617
vn -0.3741012 -0.006974757 0.9273617
vn -0.3741012 -0.006974757 0.9273617
vn -0.3741012 -0.006974757 0.9273617
vn -0.4133296 -0.02939099 0.910107
vn -0.4133296 -0.02939099 0.910107
vn -0.4133296 -0.02939099 0.910107
vn -0.4133296 -0.02939099 0.910107
vn 0.3151979 -0.09663963 0.9440927
vn 0.3151979 -0.09663963 0.9440927
vn 0.3151979 -0.09663963 0.9440927
vn 0.3151979 -0.09663963 0.9440927
vn 0.3039898 0.2396038 0.9220522
vn 0.3039898 0.2396038 0.9220522
vn 0.3039898 0.2396038 0.9220522
vn 0.3039898 0.2396038 0.9220522
vn -0.3516849 0.2396038 0.9049352
vn -0.3516849 0.2396038 0.9049352
vn -0.3516849 0.2396038 0.9049352
vn -0.3516849 0.2396038 0.9049352
vn 0.5001318 -0.05741125 0.864044
vn 0.5001318 -0.05741125 0.864044
vn 0.5001318 -0.05741125 0.864044
vn 0.5001318 -0.05741125 0.864044
vn 0.522548 -0.6234211 0.5816268
vn 0.522548 -0.6234211 0.5816268
vn 0.522548 -0.6234211 0.5816268
vn 0.522548 -0.6234211 0.5816268
vn 0.1750965 -0.2199289 0.9596731
vn 0.1750965 -0.2199289 0.9596731
vn 0.1750965 -0.2199289 0.9596731
vn 0.1750965 -0.2199289 0.9596731
vn -0.00423336 -0.4496953 0.893172
vn -0.00423336 -0.4496953 0.893172
vn -0.00423336 -0.4496953 0.893172
vn -0.00423336 -0.4496953 0.893172
vn 0.320802 -0.03499502 0.9464996
vn 0.320802 -0.03499502 0.9464996
vn 0.320802 -0.03499502 0.9464996
vn 0.320802 -0.03499502 0.9464996
vn 0.2479492 -0.1807005 0.9517713
vn 0.2479492 -0.1807005 0.9517713
vn 0.2479492 -0.1807005 0.9517713
vn 0.2479492 -0.1807005 0.9517713
vn -0.00423336 0.0434618 0.9990461
vn -0.00423336 0.0434618 0.9990461
vn -0.00423336 0.0434618 0.9990461
vn -0.00423336 0.0434618 0.9990461
vn 0.1358681 -0.4160709 0.8991245
vn 0.1358681 -0.4160709 0.8991245
vn 0.1358681 -0.4160709 0.8991245
vn 0.1358681 -0.4160709 0.8991245
vn 0.2647614 -0.2815735 0.9222894
vn 0.2647614 -0.2815735 0.9222894
vn 0.2647614 -0.2815735 0.9222894
vn 0.2647614 -0.2815735 0.9222894
vn 0.06861937 0.1275226 0.9894591
vn 0.06861937 0.1275226 0.9894591
vn 0.06861937 0.1275226 0.9894591
vn 0.06861937 0.1275226 0.9894591
vn 0.2983857 -0.1807005 0.9371837
vn 0.2983857 -0.1807005 0.9371837
vn 0.2983857 -0.1807005 0.9371837
vn 0.2983857 -0.1807005 0.9371837
vn -0.00423336 -0.07422346 0.9972326
vn -0.00423336 -0.07422346 0.9972326
vn -0.00423336 -0.07422346 0.9972326
vn -0.00423336 -0.07422346 0.9972326
vn 0.5393602 0.2171875 0.8135848
vn 0.5393602 0.2171875 0.8135848
vn 0.5393602 0.2171875 0.8135848
vn 0.5393602 0.2171875 0.8135848
vn -0.0938983 0.547827 0.8313054
vn -0.0938983 0.547827 0.8313054
vn -0.0938983 0.547827 0.8313054
vn -0.0938983 0.547827 0.8313054
vn 0.2423452 0.3180606 0.9165731
vn 0.2423452 0.3180606 0.9165731
vn 0.2423452 0.3180606 0.9165731
vn 0.2423452 0.3180606 0.9165731
vn 0.06861937 0.1275226 0.9894591
vn 0.06861937 0.1275226 0.9894591
vn 0.06861937 0.1275226 0.9894591
vn 0.06861937 0.1275226 0.9894591
vn 0.8812077 0.1947713 0.4307402
vn 0.8812077 0.1947713 0.4307402
vn 0.8812077 0.1947713 0.4307402
vn 0.8812077 0.1947713 0.4307402
vn 0.7747306 -0.4160709 0.4761065
vn 0.7747306 -0.4160709 0.4761065
vn 0.7747306 -0.4160709 0.4761065
vn 0.7747306 -0.4160709 0.4761065
vn 0.8475834 -0.07422346 0.5254458
vn 0.8475834 -0.07422346 0.5254458
vn 0.8475834 -0.07422346 0.5254458
vn 0.8475834 -0.07422346 0.5254458
g jirachiTreeMiddleLeavesGeo_0
f 3/3/3 2/2/2 1/1/1
f 4/4/4 3/3/3 1/1/1
f 7/7/7 6/6/6 5/5/5
f 8/8/8 7/7/7 5/5/5
f 11/11/11 10/10/10 9/9/9
f 12/12/12 11/11/11 9/9/9
f 15/15/15 14/14/14 13/13/13
f 16/16/16 15/15/15 13/13/13
f 19/19/19 18/18/18 17/17/17
f 20/20/20 19/19/19 17/17/17
f 23/23/23 22/22/22 21/21/21
f 24/24/24 23/23/23 21/21/21
f 27/27/27 26/26/26 25/25/25
f 28/28/28 27/27/27 25/25/25
f 31/31/31 30/30/30 29/29/29
f 32/32/32 31/31/31 29/29/29
f 35/35/35 34/34/34 33/33/33
f 36/36/36 35/35/35 33/33/33
f 39/39/39 38/38/38 37/37/37
f 40/40/40 39/39/39 37/37/37
f 43/43/43 42/42/42 41/41/41
f 44/44/44 43/43/43 41/41/41
f 47/47/47 46/46/46 45/45/45
f 48/48/48 47/47/47 45/45/45
f 51/51/51 50/50/50 49/49/49
f 52/52/52 51/51/51 49/49/49
f 55/55/55 54/54/54 53/53/53
f 56/56/56 55/55/55 53/53/53
f 59/59/59 58/58/58 57/57/57
f 60/60/60 59/59/59 57/57/57
f 63/63/63 62/62/62 61/61/61
f 64/64/64 63/63/63 61/61/61
f 67/67/67 66/66/66 65/65/65
f 68/68/68 67/67/67 65/65/65
f 71/71/71 70/70/70 69/69/69
f 72/72/72 71/71/71 69/69/69
f 75/75/75 74/74/74 73/73/73
f 76/76/76 75/75/75 73/73/73
f 79/79/79 78/78/78 77/77/77
f 80/80/80 79/79/79 77/77/77
f 83/83/83 82/82/82 81/81/81
f 84/84/84 83/83/83 81/81/81
f 87/87/87 86/86/86 85/85/85
f 88/88/88 87/87/87 85/85/85
f 91/91/91 90/90/90 89/89/89
f 92/92/92 91/91/91 89/89/89
f 95/95/95 94/94/94 93/93/93
f 96/96/96 95/95/95 93/93/93
f 99/99/99 98/98/98 97/97/97
f 100/100/100 99/99/99 97/97/97
f 103/103/103 102/102/102 101/101/101
f 104/104/104 103/103/103 101/101/101
f 107/107/107 106/106/106 105/105/105
f 108/108/108 107/107/107 105/105/105
f 111/111/111 110/110/110 109/109/109
f 112/112/112 111/111/111 109/109/109
f 115/115/115 114/114/114 113/113/113
f 116/116/116 115/115/115 113/113/113
f 119/119/119 118/118/118 117/117/117
f 120/120/120 119/119/119 117/117/117
