g jirachiForeGroundWorldGeo
v 0.610913 0.04118156 -0.9083686
v -0.7231495 0.04579711 -0.9083686
v -0.7231495 0.02630877 -1.451481
v 0.610913 0.02335978 -1.655597
v -0.7231495 0.04579711 -0.9083686
v -4.515067 0.04579711 -0.9083686
v -4.515067 0.04579711 -1.583157
v -0.7231495 0.02630877 -1.451481
v 0.610913 0.02335978 -1.655597
v 3.887412 0.02400088 -1.655597
v 3.887412 0.04118156 -0.9083686
v 0.610913 0.04118156 -0.9083686
v 0.610913 0.02335978 -1.655597
v 0.610913 -0.03549027 -2.617584
v 3.887412 0.228245 -3.06787
v 3.887412 0.02400088 -1.655597
vt 0.990041 0.9824522
vt 0.990041 0.01961946
vt 0.5982677 0.01961946
vt 0.4502855 0.9824522
vt 0.990041 0.01961946
vt 0.990041 0.02436248
vt 0.6011135 0.02436248
vt 0.5982677 0.01961946
vt 0.4502855 0.9824522
vt 0.4502855 0.9767606
vt 0.990041 0.9767606
vt 0.990041 0.9824522
vt 0.4502855 0.9824522
vt 0.4740006 0.9824522
vt 0.4853839 0.9767606
vt 0.4502855 0.9767606
vn -0.001079986 0.9998675 -0.01624223
vn -0.001079986 0.9998675 -0.01624223
vn -0.001079986 0.9998675 -0.01624223
vn -0.001079986 0.9998675 -0.01624223
vn 0.002852248 0.9998675 -0.01602798
vn 0.002852248 0.9998675 -0.01602798
vn 0.002852248 0.9998675 -0.01602798
vn 0.002852248 0.9998675 -0.01602798
vn -0.001079986 0.9998675 -0.01624223
vn -0.001079986 0.9998675 -0.01624223
vn -0.001079986 0.9998675 -0.01624223
vn -0.001079986 0.9998675 -0.01624223
vn -0.03647009 0.9959353 0.0823583
vn -0.03647009 0.9959353 0.0823583
vn -0.03647009 0.9959353 0.0823583
vn -0.03647009 0.9959353 0.0823583
g jirachiForeGroundWorldGeo_0
f 3/3/3 2/2/2 1/1/1
f 4/4/4 3/3/3 1/1/1
f 7/7/7 6/6/6 5/5/5
f 8/8/8 7/7/7 5/5/5
f 11/11/11 10/10/10 9/9/9
f 12/12/12 11/11/11 9/9/9
f 15/15/15 14/14/14 13/13/13
f 16/16/16 15/15/15 13/13/13
