g jirachiTreeLightLeavesGeo
v -0.4776959 4.877943 -6.3009
v -0.8328362 4.613182 -6.410967
v -1.117848 4.920507 -6.230397
v -0.7628956 5.185268 -6.12033
v -1.349608 5.029261 -6.104767
v -0.9436526 5.063763 -6.218396
v -0.9755292 4.705623 -6.441155
v -1.381484 4.671121 -6.327526
v -1.509365 4.810253 -6.106642
v -1.205226 4.960259 -6.255335
v -1.153474 4.654433 -6.457656
v -1.457613 4.504427 -6.308963
v -1.659371 4.966072 -6.493283
v -1.40511 4.781563 -6.725792
v -1.659183 4.488114 -6.770794
v -1.913444 4.672621 -6.538285
v -2.151204 4.450987 -6.6041
v -2.100201 4.796565 -6.428593
v -1.737186 4.815877 -6.572224
v -1.788188 4.4703 -6.747543
v -1.780501 4.390234 -6.661102
v -2.086138 4.146849 -6.669915
v -2.288459 4.39286 -6.443593
v -1.982822 4.636245 -6.434781
v -0.9123397 4.800689 -6.401404
v -0.6839547 5.081389 -6.253648
v -0.3704414 4.853755 -6.305963
v -0.5988264 4.573055 -6.453531
v -0.888526 4.556366 -6.405529
v -0.6127019 4.787939 -6.253835
v -0.3415656 4.605306 -6.468157
v -0.6175771 4.373734 -6.619851
v -0.3858171 3.974718 -6.411342
v -0.8703375 3.994405 -6.316276
v -0.8028345 4.410673 -6.058265
v -0.3181272 4.390797 -6.153331
v -1.12066 4.02647 -6.260023
v -0.9618411 4.33792 -6.085266
v -0.6089516 4.230478 -6.214834
v -0.7679582 3.919028 -6.389403
v -1.860941 3.98953 -5.647247
v -1.644932 3.752333 -5.897383
v -1.972133 3.51851 -5.958136
v -2.188142 3.755708 -5.708188
v -1.561117 3.610765 -5.946885
v -1.852503 3.761709 -5.734814
v -1.613806 4.043908 -5.607683
v -1.322419 3.892964 -5.819755
v -1.734561 3.5772 -6.220272
v -1.685622 3.812898 -5.892508
v -1.296917 3.874588 -5.994887
v -1.345857 3.638703 -6.322651
v -0.338378 4.043533 -6.563786
v -0.404943 3.714456 -6.764044
v -0.7777085 3.718394 -6.646477
v -0.7109561 4.047471 -6.446218
v -0.6803923 3.648078 -6.617038
v -0.357316 3.955217 -6.510533
v -0.05261564 3.721769 -6.761044
v -0.3756919 3.414631 -6.867548
v 1.434134 4.096972 -3.771606
v 1.428321 3.73677 -3.980303
v 1.016929 3.773897 -4.032805
v 1.022929 4.134099 -3.824109
v 1.011866 3.549075 -4.119809
v 0.6901026 3.798647 -4.033742
v 0.9462385 4.060971 -3.836484
v 1.268189 3.811398 -3.92255
v 0.74823 3.859587 -3.933426
v 1.130934 3.729832 -3.939426
v 1.016741 3.403193 -4.148122
v 0.634038 3.532949 -4.142122
v -0.1396194 2.684289 -5.87807
v -0.2489367 2.309648 -5.856881
v -0.6196394 2.42084 -5.802879
v -0.5103226 2.79548 -5.82388
v -0.7246437 2.41409 -5.868132
v -0.9297776 2.724602 -5.748314
v -0.6007013 2.934612 -5.729376
v -0.3955679 2.624098 -5.849006
v -0.578763 2.76698 -6.821609
v -0.3466282 2.504094 -6.993741
v -0.613452 2.226019 -6.929239
v -0.8457742 2.488905 -6.756919
v -0.6832047 2.162642 -6.899237
v -0.5817628 2.536157 -6.844485
v -0.2074971 2.44409 -6.909925
v -0.308939 2.070763 -6.964865
v -1.733061 2.905735 -6.855735
v -1.501676 2.664788 -7.058806
v -1.790438 2.401902 -7.075682
v -2.021823 2.642662 -6.872799
v -2.051637 2.772792 -7.045681
v -2.177454 3.113869 -6.902613
v -1.823252 3.268751 -6.95999
v -1.697247 2.927486 -7.103058
v -1.792876 3.332691 -6.920988
v -1.780125 2.960675 -7.040056
v -2.155891 2.916423 -6.941989
v -2.168642 3.288438 -6.822922
v -2.451404 3.358004 -6.676291
v -2.151578 3.19281 -6.864736
v -2.334211 2.84742 -6.852548
v -2.634037 3.012802 -6.664103
v -2.26052 2.23952 -6.228897
v -2.028574 2.547782 -6.166081
v -1.761 2.395339 -6.406842
v -1.992947 2.087264 -6.46947
v 1.504449 2.952799 -4.703521
v 1.425508 3.301189 -4.489574
v 1.8084 3.287876 -4.326818
v 1.88734 2.939674 -4.540764
v 1.415383 2.505594 -4.328318
v 1.095307 2.771292 -4.346693
v 1.330255 3.066617 -4.170811
v 1.650331 2.801106 -4.152435
v 1.373381 2.489092 -4.214313
v 0.9833651 2.291646 -4.409321
v 0.7461677 2.703414 -4.351756
v 1.136184 2.90086 -4.156748
v 0.5999112 2.457592 -4.408383
v 0.9888029 2.656912 -4.213187
v 1.227875 2.246083 -4.269815
v 0.8387966 2.046762 -4.465198
v 1.300253 3.33869 -4.500824
v 1.298378 3.641891 -4.215438
v 1.572515 3.427945 -3.98649
v 1.574389 3.124932 -4.27169
v 1.388382 3.520573 -4.113996
v 1.186811 3.297814 -4.27844
v 0.9149246 3.495635 -4.213375
v 1.116496 3.718394 -4.048743
v -0.8247733 4.144412 -6.295837
v -0.4799461 4.319919 -6.24071
v -0.3044391 4.041095 -6.451094
v -0.6492658 3.865588 -6.506221
v -1.026906 2.856608 -5.602058
v -0.7417073 2.653162 -5.775315
v -0.9849048 2.350712 -5.820692
v -1.270292 2.554158 -5.647435
vt 0 0
vt 0 1
vt 1 1
vt 1 0
vt 0 0
vt 0 1
vt 1 1
vt 1 0
vt 0 0
vt 0 1
vt 1 1
vt 1 0
vt 0 0
vt 0 1
vt 1 1
vt 1 0
vt 0 0
vt 0 1
vt 1 1
vt 1 0
vt 0 0
vt 0 1
vt 1 1
vt 1 0
vt 0 0
vt 0 1
vt 1 1
vt 1 0
vt 0 0
vt 0 1
vt 1 1
vt 1 0
vt 0 0
vt 0 1
vt 1 1
vt 1 0
vt 0 0
vt 0 1
vt 1 1
vt 1 0
vt 0 0
vt 0 1
vt 1 1
vt 1 0
vt 0 0
vt 0 1
vt 1 1
vt 1 0
vt 0 0
vt 0 1
vt 1 1
vt 1 0
vt 0 0
vt 0 1
vt 1 1
vt 1 0
vt 0 0
vt 0 1
vt 1 1
vt 1 0
vt 0 0
vt 0 1
vt 1 1
vt 1 0
vt 0 0
vt 0 1
vt 1 1
vt 1 0
vt 0 0
vt 0 1
vt 1 1
vt 1 0
vt 0 0
vt 0 1
vt 1 1
vt 1 0
vt 0 0
vt 0 1
vt 1 1
vt 1 0
vt 0 0
vt 0 1
vt 1 1
vt 1 0
vt 0 0
vt 0 1
vt 1 1
vt 1 0
vt 0 0
vt 0 1
vt 1 1
vt 1 0
vt 0 0
vt 0 1
vt 1 1
vt 1 0
vt 0 0
vt 0 1
vt 1 1
vt 1 0
vt 0 0
vt 0 1
vt 1 1
vt 1 0
vt 0 0
vt 0 1
vt 1 1
vt 1 0
vt 0 0
vt 0 1
vt 1 1
vt 1 0
vt 0 0
vt 0 1
vt 1 1
vt 1 0
vt 0 0
vt 0 1
vt 1 1
vt 1 0
vt 0 0
vt 0 1
vt 1 1
vt 1 0
vt 0 0
vt 0 1
vt 1 1
vt 1 0
vt 0 0
vt 0 1
vt 1 1
vt 1 0
vt 0 0
vt 0 1
vt 1 1
vt 1 0
vt 0 0
vt 0 1
vt 1 1
vt 1 0
vn 0.06975913 -0.4595834 0.8853907
vn 0.06975913 -0.4595834 0.8853907
vn 0.06975913 -0.4595834 0.8853907
vn 0.06975913 -0.4595834 0.8853907
vn 0.2707623 -0.5265845 0.8058515
vn 0.2707623 -0.5265845 0.8058515
vn 0.2707623 -0.5265845 0.8058515
vn 0.2707623 -0.5265845 0.8058515
vn 0.5509485 -0.3925824 0.7364339
vn 0.5509485 -0.3925824 0.7364339
vn 0.5509485 -0.3925824 0.7364339
vn 0.5509485 -0.3925824 0.7364339
vn 0.3925824 -0.4595834 0.7966568
vn 0.3925824 -0.4595834 0.7966568
vn 0.3925824 -0.4595834 0.7966568
vn 0.3925824 -0.4595834 0.7966568
vn 0.3438543 -0.4656744 0.815421
vn 0.3438543 -0.4656744 0.815421
vn 0.3438543 -0.4656744 0.815421
vn 0.3438543 -0.4656744 0.815421
vn 0.3438543 -0.4656744 0.815421
vn 0.3438543 -0.4656744 0.815421
vn 0.3438543 -0.4656744 0.815421
vn 0.3438543 -0.4656744 0.815421
vn -0.125153 -0.3804004 0.9163145
vn -0.125153 -0.3804004 0.9163145
vn -0.125153 -0.3804004 0.9163145
vn -0.125153 -0.3804004 0.9163145
vn 0.1428512 -0.6544956 0.742448
vn 0.1428512 -0.6544956 0.742448
vn 0.1428512 -0.6544956 0.742448
vn 0.1428512 -0.6544956 0.742448
vn 0.1428512 -0.5387665 0.8302554
vn 0.1428512 -0.5387665 0.8302554
vn 0.1428512 -0.5387665 0.8302554
vn 0.1428512 -0.5387665 0.8302554
vn 0.1428512 -0.5387665 0.8302554
vn 0.1428512 -0.5387665 0.8302554
vn 0.1428512 -0.5387665 0.8302554
vn 0.1428512 -0.5387665 0.8302554
vn 0.2646713 -0.5753125 0.773928
vn 0.2646713 -0.5753125 0.773928
vn 0.2646713 -0.5753125 0.773928
vn 0.2646713 -0.5753125 0.773928
vn 0.2646713 -0.5753125 0.773928
vn 0.2646713 -0.5753125 0.773928
vn 0.2646713 -0.5753125 0.773928
vn 0.2646713 -0.5753125 0.773928
vn 0.2707623 -0.8006797 0.5344154
vn 0.2707623 -0.8006797 0.5344154
vn 0.2707623 -0.8006797 0.5344154
vn 0.2707623 -0.8006797 0.5344154
vn 0.2463983 -0.5387665 0.8056169
vn 0.2463983 -0.5387665 0.8056169
vn 0.2463983 -0.5387665 0.8056169
vn 0.2463983 -0.5387665 0.8056169
vn 0.2463983 -0.5387665 0.8056169
vn 0.2463983 -0.5387665 0.8056169
vn 0.2463983 -0.5387665 0.8056169
vn 0.2463983 -0.5387665 0.8056169
vn -0.1556081 -0.4961295 0.8541907
vn -0.1556081 -0.4961295 0.8541907
vn -0.1556081 -0.4961295 0.8541907
vn -0.1556081 -0.4961295 0.8541907
vn -0.1556081 -0.4961295 0.8541907
vn -0.1556081 -0.4961295 0.8541907
vn -0.1556081 -0.4961295 0.8541907
vn -0.1556081 -0.4961295 0.8541907
vn -0.1556081 -0.4961295 0.8541907
vn -0.1556081 -0.4961295 0.8541907
vn -0.1556081 -0.4961295 0.8541907
vn -0.1556081 -0.4961295 0.8541907
vn 0.1489422 0.009423912 0.988801
vn 0.1489422 0.009423912 0.988801
vn 0.1489422 0.009423912 0.988801
vn 0.1489422 0.009423912 0.988801
vn 0.1245782 -0.2829443 0.9510115
vn 0.1245782 -0.2829443 0.9510115
vn 0.1245782 -0.2829443 0.9510115
vn 0.1245782 -0.2829443 0.9510115
vn 0.4230374 -0.2037612 0.8829047
vn 0.4230374 -0.2037612 0.8829047
vn 0.4230374 -0.2037612 0.8829047
vn 0.4230374 -0.2037612 0.8829047
vn 0.1245782 -0.1793972 0.975857
vn 0.1245782 -0.1793972 0.975857
vn 0.1245782 -0.1793972 0.975857
vn 0.1245782 -0.1793972 0.975857
vn 0.3255813 -0.4108554 0.8515837
vn 0.3255813 -0.4108554 0.8515837
vn 0.3255813 -0.4108554 0.8515837
vn 0.3255813 -0.4108554 0.8515837
vn 0.2707623 -0.2829443 0.9201252
vn 0.2707623 -0.2829443 0.9201252
vn 0.2707623 -0.2829443 0.9201252
vn 0.2707623 -0.2829443 0.9201252
vn 0.2707623 -0.2829443 0.9201252
vn 0.2707623 -0.2829443 0.9201252
vn 0.2707623 -0.2829443 0.9201252
vn 0.2707623 -0.2829443 0.9201252
vn 0.4413104 -0.2037612 0.8739145
vn 0.4413104 -0.2037612 0.8739145
vn 0.4413104 -0.2037612 0.8739145
vn 0.4413104 -0.2037612 0.8739145
vn 0.4230374 -0.4778564 0.7698653
vn 0.4230374 -0.4778564 0.7698653
vn 0.4230374 -0.4778564 0.7698653
vn 0.4230374 -0.4778564 0.7698653
vn -0.3444291 -0.5448575 0.7645253
vn -0.3444291 -0.5448575 0.7645253
vn -0.3444291 -0.5448575 0.7645253
vn -0.3444291 -0.5448575 0.7645253
vn -0.3017921 -0.3012173 0.9045383
vn -0.3017921 -0.3012173 0.9045383
vn -0.3017921 -0.3012173 0.9045383
vn -0.3017921 -0.3012173 0.9045383
vn -0.3017921 -0.3012173 0.9045383
vn -0.3017921 -0.3012173 0.9045383
vn -0.3017921 -0.3012173 0.9045383
vn -0.3017921 -0.3012173 0.9045383
vn -0.3017921 -0.3012173 0.9045383
vn -0.3017921 -0.3012173 0.9045383
vn -0.3017921 -0.3012173 0.9045383
vn -0.3017921 -0.3012173 0.9045383
vn -0.7525265 -0.4534924 0.4775442
vn -0.7525265 -0.4534924 0.4775442
vn -0.7525265 -0.4534924 0.4775442
vn -0.7525265 -0.4534924 0.4775442
vn -0.1556081 -0.4961295 0.8541907
vn -0.1556081 -0.4961295 0.8541907
vn -0.1556081 -0.4961295 0.8541907
vn -0.1556081 -0.4961295 0.8541907
vn 0.1428512 -0.5387665 0.8302554
vn 0.1428512 -0.5387665 0.8302554
vn 0.1428512 -0.5387665 0.8302554
vn 0.1428512 -0.5387665 0.8302554
vn 0.2829443 -0.3621274 0.8881477
vn 0.2829443 -0.3621274 0.8881477
vn 0.2829443 -0.3621274 0.8881477
vn 0.2829443 -0.3621274 0.8881477
g jirachiTreeLightLeavesGeo_0
f 3/3/3 2/2/2 1/1/1
f 4/4/4 3/3/3 1/1/1
f 7/7/7 6/6/6 5/5/5
f 8/8/8 7/7/7 5/5/5
f 11/11/11 10/10/10 9/9/9
f 12/12/12 11/11/11 9/9/9
f 15/15/15 14/14/14 13/13/13
f 16/16/16 15/15/15 13/13/13
f 19/19/19 18/18/18 17/17/17
f 20/20/20 19/19/19 17/17/17
f 23/23/23 22/22/22 21/21/21
f 24/24/24 23/23/23 21/21/21
f 27/27/27 26/26/26 25/25/25
f 28/28/28 27/27/27 25/25/25
f 31/31/31 30/30/30 29/29/29
f 32/32/32 31/31/31 29/29/29
f 35/35/35 34/34/34 33/33/33
f 36/36/36 35/35/35 33/33/33
f 39/39/39 38/38/38 37/37/37
f 40/40/40 39/39/39 37/37/37
f 43/43/43 42/42/42 41/41/41
f 44/44/44 43/43/43 41/41/41
f 47/47/47 46/46/46 45/45/45
f 48/48/48 47/47/47 45/45/45
f 51/51/51 50/50/50 49/49/49
f 52/52/52 51/51/51 49/49/49
f 55/55/55 54/54/54 53/53/53
f 56/56/56 55/55/55 53/53/53
f 59/59/59 58/58/58 57/57/57
f 60/60/60 59/59/59 57/57/57
f 63/63/63 62/62/62 61/61/61
f 64/64/64 63/63/63 61/61/61
f 67/67/67 66/66/66 65/65/65
f 68/68/68 67/67/67 65/65/65
f 71/71/71 70/70/70 69/69/69
f 72/72/72 71/71/71 69/69/69
f 75/75/75 74/74/74 73/73/73
f 76/76/76 75/75/75 73/73/73
f 79/79/79 78/78/78 77/77/77
f 80/80/80 79/79/79 77/77/77
f 83/83/83 82/82/82 81/81/81
f 84/84/84 83/83/83 81/81/81
f 87/87/87 86/86/86 85/85/85
f 88/88/88 87/87/87 85/85/85
f 91/91/91 90/90/90 89/89/89
f 92/92/92 91/91/91 89/89/89
f 95/95/95 94/94/94 93/93/93
f 96/96/96 95/95/95 93/93/93
f 99/99/99 98/98/98 97/97/97
f 100/100/100 99/99/99 97/97/97
f 103/103/103 102/102/102 101/101/101
f 104/104/104 103/103/103 101/101/101
f 107/107/107 106/106/106 105/105/105
f 108/108/108 107/107/107 105/105/105
f 111/111/111 110/110/110 109/109/109
f 112/112/112 111/111/111 109/109/109
f 115/115/115 114/114/114 113/113/113
f 116/116/116 115/115/115 113/113/113
f 119/119/119 118/118/118 117/117/117
f 120/120/120 119/119/119 117/117/117
f 123/123/123 122/122/122 121/121/121
f 124/124/124 123/123/123 121/121/121
f 127/127/127 126/126/126 125/125/125
f 128/128/128 127/127/127 125/125/125
f 131/131/131 130/130/130 129/129/129
f 132/132/132 131/131/131 129/129/129
f 135/135/135 134/134/134 133/133/133
f 136/136/136 135/135/135 133/133/133
f 139/139/139 138/138/138 137/137/137
f 140/140/140 139/139/139 137/137/137
