g LightHouse_Mesh_Lamp
v 0.08348322 0.078864 -0.06891274
v 0.0397413 0.078864 -0.1006913
v 0.0397413 -0.06638075 -0.1006913
v 0.08346598 -0.06636015 -0.06892555
v 0.02703394 -0.06638075 -0.1048216
v 0.02703394 0.078864 -0.1048216
v -0.0270339 0.078864 -0.1048216
v -0.0270339 -0.06638075 -0.1048216
v -0.03974157 -0.06638075 -0.1006913
v -0.03974157 0.078864 -0.1006913
v -0.08348318 0.078864 -0.06891274
v -0.08348318 -0.06638075 -0.06891274
v -0.09133703 -0.06638075 -0.05810341
v -0.09133703 0.078864 -0.05810341
v -0.1080449 0.078864 -0.006681296
v -0.1080449 -0.06638075 -0.006681296
v -0.1080449 -0.06638075 0.0066793
v -0.1080449 0.078864 0.0066793
v -0.09133703 0.078864 0.05810203
v -0.09133703 -0.06638075 0.05810203
v -0.08348318 -0.06638075 0.06891136
v -0.08348318 0.078864 0.06891136
v -0.03974157 0.078864 0.1006917
v -0.03974157 -0.06638075 0.1006917
v -0.0270339 -0.06638075 0.1048208
v -0.0270339 0.078864 0.1048208
v 0.02703394 0.078864 0.1048208
v 0.02703394 -0.06638075 0.1048208
v 0.0397413 -0.06638075 0.1006917
v 0.0397413 0.078864 0.1006917
v 0.08348322 0.078864 0.06891136
v 0.08348322 -0.06638075 0.06891136
v 0.09133707 -0.06638075 0.05810203
v 0.09133707 0.078864 0.05810203
v 0.1080448 0.078864 0.0066793
v 0.1080448 -0.06638075 0.0066793
v 0.1080448 -0.06638075 -0.006681296
v 0.1080448 0.078864 -0.006681296
v 0.09134378 0.07884325 -0.05808266
v 0.09133707 -0.06638075 -0.05810341
v 0.02113411 0.005487078 -0.03660607
v -5.727269E-08 0.02783388 -6.288705E-07
v -0.02113421 0.005487078 -0.03660607
v -0.02801207 -0.0235507 -0.04851888
v 0.02801198 -0.0235507 -0.04851887
v 0.03256038 -0.07886427 -0.05639693
v -0.03256047 -0.07886427 -0.05639694
v -5.727269E-08 -0.07886427 -6.288705E-07
v 0.04226826 0.005487078 -6.295516E-07
v -5.727269E-08 0.02783388 -6.288705E-07
v 0.06512078 -0.07886427 -6.288705E-07
v 0.05602398 -0.0235507 -6.291417E-07
v 0.03256036 -0.07886427 0.05639567
v 0.0211341 0.005487078 0.03660481
v -5.727269E-08 0.02783388 -6.288705E-07
v 0.02801196 -0.0235507 0.04851761
v -0.03256048 -0.07886427 0.05639567
v -0.02113422 0.005487078 0.03660481
v -5.727269E-08 0.02783388 -6.288705E-07
v -0.0651209 -0.07886427 -6.385743E-07
v -0.03256047 -0.07886427 -0.05639694
v -0.02801208 -0.0235507 0.04851761
v -0.0560241 -0.0235507 -6.374899E-07
v -0.02801207 -0.0235507 -0.04851888
v -0.02113421 0.005487078 -0.03660607
v -0.04226838 0.005487078 -6.358501E-07
v -5.727269E-08 0.02783388 -6.288705E-07
v -5.727269E-08 0.02783388 -6.288705E-07
vt 0.02956441 0.9911122
vt 0.1059309 0.9911122
vt 0.1059309 0.7693101
vt 0.02959445 0.7693417
vt 0.1257743 0.76931
vt 0.1257743 0.9911122
vt 0.202141 0.9911122
vt 0.2021414 0.76931
vt 0.2219844 0.7693099
vt 0.2219844 0.9911122
vt 0.2983507 0.9911122
vt 0.2983507 0.7693099
vt 0.3181937 0.7693099
vt 0.3181937 0.9911122
vt 0.3945616 0.9911122
vt 0.3945614 0.7693099
vt 0.4144037 0.7693099
vt 0.4144037 0.9911122
vt 0.4907707 0.9911122
vt 0.4907703 0.7693099
vt 0.5106127 0.7693099
vt 0.5106127 0.9911122
vt 0.5869799 0.9911122
vt 0.5869799 0.7693099
vt 0.6068221 0.76931
vt 0.6068221 0.9911122
vt 0.6831887 0.9911122
vt 0.6831887 0.76931
vt 0.7030313 0.76931
vt 0.7030313 0.9911122
vt 0.7793981 0.9911122
vt 0.779398 0.76931
vt 0.7992404 0.76931
vt 0.7992404 0.9911122
vt 0.8756078 0.9911122
vt 0.8756082 0.7693099
vt 0.8954504 0.7693099
vt 0.8954504 0.9911122
vt 0.9717869 0.9910805
vt 0.9718171 0.7693099
vt 0.8099346 0.7176441
vt 0.4178264 0.7601079
vt 0.9667661 0.7176441
vt 0.9667661 0.6819982
vt 0.8099346 0.6819982
vt 0.8099346 0.6140965
vt 0.9667661 0.6140965
vt 0.4178262 0.6140965
vt 0.6531033 0.7176441
vt 0.4178262 0.7601078
vt 0.6531033 0.6140965
vt 0.6531033 0.6819982
vt 0.4962718 0.6140965
vt 0.4962718 0.7176441
vt 0.4178262 0.7601078
vt 0.4962718 0.6819982
vt 0.3394404 0.6140965
vt 0.3394404 0.7176441
vt 0.4178262 0.7601078
vt 0.182609 0.6140965
vt 0.02577758 0.6140965
vt 0.3394404 0.6819982
vt 0.182609 0.6819982
vt 0.02577758 0.6819982
vt 0.02577758 0.7176441
vt 0.182609 0.7176441
vt 0.4178262 0.7601078
vt 0.4178262 0.7601078
vn 0.5877621 7.774372E-07 -0.8090338
vn 0.5877621 7.774372E-07 -0.8090338
vn 0.5877621 7.774372E-07 -0.8090338
vn 0.5877622 7.774373E-07 -0.8090338
vn 0 0 -1
vn 0 0 -1
vn 0 0 -1
vn 0 0 -1
vn -0.5877665 0 -0.8090307
vn -0.5877665 0 -0.8090307
vn -0.5877665 0 -0.8090307
vn -0.5877665 0 -0.8090307
vn -0.9510572 0 -0.3090149
vn -0.9510572 0 -0.3090149
vn -0.9510572 0 -0.3090149
vn -0.9510572 0 -0.3090149
vn -0.9510583 0 0.3090116
vn -0.9510583 0 0.3090116
vn -0.9510583 0 0.3090116
vn -0.9510583 0 0.3090116
vn -0.5877885 0 0.8090146
vn -0.5877885 0 0.8090146
vn -0.5877885 0 0.8090146
vn -0.5877885 0 0.8090146
vn 0 0 1
vn 0 0 1
vn 0 0 1
vn 0 0 1
vn 0.5877855 0 0.8090168
vn 0.5877855 0 0.8090168
vn 0.5877855 0 0.8090168
vn 0.5877855 0 0.8090168
vn 0.9510592 0 0.3090087
vn 0.9510592 0 0.3090087
vn 0.9510592 0 0.3090087
vn 0.9510592 0 0.3090087
vn 0.951058 0 -0.3090125
vn 0.951058 0 -0.3090125
vn 0.951058 0 -0.3090125
vn 0.951058 0 -0.3090125
vn 0.4065275 0.5821857 -0.7041272
vn 0 1 0
vn -0.406527 0.5821858 -0.7041274
vn -0.4856898 0.2375326 -0.8412394
vn 0.4856899 0.2375328 -0.8412392
vn 0.4814254 -0.2700322 -0.8338538
vn -0.481426 -0.270032 -0.8338535
vn 0 -1 -1.661918E-06
vn 0.8130556 0.582186 4.767641E-07
vn 0 1 0
vn 0.9628513 -0.2700324 -2.445397E-07
vn 0.9713796 0.2375325 8.736395E-07
vn 0.4814254 -0.270032 0.8338539
vn 0.4065281 0.5821869 0.7041258
vn 0 1 0
vn 0.4856895 0.2375325 0.8412396
vn -0.4814252 -0.2700318 0.8338541
vn -0.4065286 0.5821869 0.7041255
vn 0 1 0
vn -0.9628513 -0.270032 6.161115E-07
vn -0.481426 -0.270032 -0.8338535
vn -0.4856897 0.2375326 0.8412395
vn -0.9713796 0.2375324 0
vn -0.4856898 0.2375326 -0.8412394
vn -0.406527 0.5821858 -0.7041274
vn -0.8130556 0.582186 -4.622064E-07
vn 0 1 0
vn 0 1 0
g LightHouse_Mesh_Lamp_0
f 3/3/3 2/2/2 1/1/1
f 4/4/4 3/3/3 1/1/1
f 7/7/7 6/6/6 5/5/5
f 8/8/8 7/7/7 5/5/5
f 11/11/11 10/10/10 9/9/9
f 12/12/12 11/11/11 9/9/9
f 15/15/15 14/14/14 13/13/13
f 16/16/16 15/15/15 13/13/13
f 19/19/19 18/18/18 17/17/17
f 20/20/20 19/19/19 17/17/17
f 23/23/23 22/22/22 21/21/21
f 24/24/24 23/23/23 21/21/21
f 27/27/27 26/26/26 25/25/25
f 28/28/28 27/27/27 25/25/25
f 31/31/31 30/30/30 29/29/29
f 32/32/32 31/31/31 29/29/29
f 35/35/35 34/34/34 33/33/33
f 36/36/36 35/35/35 33/33/33
f 39/39/39 38/38/38 37/37/37
f 40/40/40 39/39/39 37/37/37
g LightHouse_Mesh_Lamp_1
f 43/43/43 42/42/42 41/41/41
f 43/43/43 41/41/41 44/44/44
f 41/41/41 45/45/45 44/44/44
f 44/44/44 45/45/45 46/46/46
f 47/47/47 44/44/44 46/46/46
f 46/46/46 48/48/48 47/47/47
f 41/41/41 49/49/49 45/45/45
f 41/41/41 50/50/50 49/49/49
f 46/46/46 45/45/45 51/51/51
f 51/51/51 48/48/48 46/46/46
f 49/49/49 52/52/52 45/45/45
f 45/45/45 52/52/52 51/51/51
f 53/53/53 48/48/48 51/51/51
f 51/51/51 52/52/52 53/53/53
f 49/49/49 54/54/54 52/52/52
f 49/49/49 55/55/55 54/54/54
f 52/52/52 56/56/56 53/53/53
f 54/54/54 56/56/56 52/52/52
f 57/57/57 48/48/48 53/53/53
f 53/53/53 56/56/56 57/57/57
f 54/54/54 58/58/58 56/56/56
f 54/54/54 59/59/59 58/58/58
f 60/60/60 48/48/48 57/57/57
f 61/61/61 48/48/48 60/60/60
f 56/56/56 62/62/62 57/57/57
f 58/58/58 62/62/62 56/56/56
f 57/57/57 62/62/62 60/60/60
f 60/60/60 63/63/63 61/61/61
f 62/62/62 63/63/63 60/60/60
f 63/63/63 64/64/64 61/61/61
f 65/65/65 64/64/64 63/63/63
f 58/58/58 66/66/66 62/62/62
f 66/66/66 63/63/63 62/62/62
f 66/66/66 65/65/65 63/63/63
f 58/58/58 67/67/67 66/66/66
f 66/66/66 68/68/68 65/65/65
