g lower_arena_walls
v 51.794415 -2.2091064 34.995396
v 44.827965 -2.2091064 13.602642
v 44.827965 2.208641 13.602642
v 51.794415 2.208641 34.995396
v 51.794415 -2.2091064 34.995396
v 51.794415 2.208641 34.995396
v 52.640713 2.208641 40.226765
v 52.640713 -2.2091064 40.226765
v 44.827965 -2.2091064 13.602642
v 32.80986 -2.2091064 -4.8819733
v 32.80986 2.208641 -4.8819733
v 44.827965 2.208641 13.602642
v 13.03455 -2.2091064 -22.585646
v -4.656048 -2.2091064 -33.98945
v -4.656048 2.208641 -33.98945
v 13.03455 2.208641 -22.585646
v 30.395126 -2.2091064 -7.7541656
v 13.03455 -2.2091064 -22.585646
v 13.03455 2.208641 -22.585646
v 30.395126 2.208641 -7.7541656
v -29.842442 -2.2091064 -40.22723
v -52.640247 -2.2091064 -39.78611
v -52.640247 2.208641 -39.78611
v -29.842442 2.208641 -40.22723
v -8.211159 -2.2091064 -35.655907
v -29.842442 -2.2091064 -40.22723
v -29.842442 2.208641 -40.22723
v -8.211159 2.208641 -35.655907
v 51.794415 -2.2091064 76.4314
v 51.794415 2.208641 76.4314
v 44.827965 2.208641 97.82414
v 44.827965 -2.2091064 97.82414
v 51.794415 -2.2091064 76.4314
v 52.640713 -2.2091064 71.20003
v 52.640713 2.208641 71.20003
v 51.794415 2.208641 76.4314
v 44.827965 -2.2091064 97.82414
v 44.827965 2.208641 97.82414
v 32.80986 2.208641 116.30876
v 32.80986 -2.2091064 116.30876
v 13.03455 -2.2091064 134.01244
v 13.03455 2.208641 134.01244
v -4.656048 2.208641 145.41623
v -4.656048 -2.2091064 145.41623
v 30.395126 -2.2091064 119.180954
v 30.395126 2.208641 119.180954
v 13.03455 2.208641 134.01244
v 13.03455 -2.2091064 134.01244
v -29.842442 -2.2091064 151.65402
v -29.842442 2.208641 151.65402
v -52.640247 2.208641 151.21289
v -52.640247 -2.2091064 151.21289
v -8.211159 -2.2091064 147.08269
v -8.211159 2.208641 147.08269
v -29.842442 2.208641 151.65402
v -29.842442 -2.2091064 151.65402
v -160.6529 -2.2091064 34.995396
v -160.6529 2.208641 34.995396
v -153.68645 2.208641 13.602642
v -153.68645 -2.2091064 13.602642
v -160.6529 -2.2091064 34.995396
v -161.49919 -2.2091064 40.226765
v -161.49919 2.208641 40.226765
v -160.6529 2.208641 34.995396
v -153.68645 -2.2091064 13.602642
v -153.68645 2.208641 13.602642
v -141.66833 2.208641 -4.8819733
v -141.66833 -2.2091064 -4.8819733
v -121.893036 -2.2091064 -22.585646
v -121.893036 2.208641 -22.585646
v -104.20242 2.208641 -33.98945
v -104.20242 -2.2091064 -33.98945
v -139.2536 -2.2091064 -7.7541656
v -139.2536 2.208641 -7.7541656
v -121.893036 2.208641 -22.585646
v -121.893036 -2.2091064 -22.585646
v -79.01604 -2.2091064 -40.22723
v -79.01604 2.208641 -40.22723
v -56.218235 2.208641 -39.78611
v -56.218235 -2.2091064 -39.78611
v -100.64732 -2.2091064 -35.655907
v -100.64732 2.208641 -35.655907
v -79.01604 2.208641 -40.22723
v -79.01604 -2.2091064 -40.22723
v -160.6529 -2.2091064 76.4314
v -153.68645 -2.2091064 97.82414
v -153.68645 2.208641 97.82414
v -160.6529 2.208641 76.4314
v -160.6529 -2.2091064 76.4314
v -160.6529 2.208641 76.4314
v -161.49919 2.208641 71.20003
v -161.49919 -2.2091064 71.20003
v -153.68645 -2.2091064 97.82414
v -141.66833 -2.2091064 116.30876
v -141.66833 2.208641 116.30876
v -153.68645 2.208641 97.82414
v -121.893036 -2.2091064 134.01244
v -104.20242 -2.2091064 145.41623
v -104.20242 2.208641 145.41623
v -121.893036 2.208641 134.01244
v -139.2536 -2.2091064 119.180954
v -121.893036 -2.2091064 134.01244
v -121.893036 2.208641 134.01244
v -139.2536 2.208641 119.180954
v -79.01604 -2.2091064 151.65402
v -56.218235 -2.2091064 151.21289
v -56.218235 2.208641 151.21289
v -79.01604 2.208641 151.65402
v -100.64732 -2.2091064 147.08269
v -79.01604 -2.2091064 151.65402
v -79.01604 2.208641 151.65402
v -100.64732 2.208641 147.08269
vt 0.56058794 0.62682205
vt 0.8895079 0.62682205
vt 0.8895079 0.5705552
vt 0.56058794 0.5705552
vt 0.8895079 0.62682205
vt 0.8895079 0.5705552
vt 0.81202036 0.5705552
vt 0.81202036 0.62682205
vt 0.56058794 0.62682205
vt 0.8895079 0.62682205
vt 0.8895079 0.5705552
vt 0.56058794 0.5705552
vt 0.56058794 0.62682205
vt 0.8895079 0.62682205
vt 0.8895079 0.5705552
vt 0.56058794 0.5705552
vt 0.56058794 0.62682205
vt 0.8895079 0.62682205
vt 0.8895079 0.5705552
vt 0.56058794 0.5705552
vt 0.56058794 0.62682205
vt 0.8895079 0.62682205
vt 0.8895079 0.5705552
vt 0.56058794 0.5705552
vt 0.56058794 0.62682205
vt 0.8895079 0.62682205
vt 0.8895079 0.5705552
vt 0.56058794 0.5705552
vt 0.56058794 0.62682205
vt 0.56058794 0.5705552
vt 0.8895079 0.5705552
vt 0.8895079 0.62682205
vt 0.8895079 0.62682205
vt 0.81202036 0.62682205
vt 0.81202036 0.5705552
vt 0.8895079 0.5705552
vt 0.56058794 0.62682205
vt 0.56058794 0.5705552
vt 0.8895079 0.5705552
vt 0.8895079 0.62682205
vt 0.56058794 0.62682205
vt 0.56058794 0.5705552
vt 0.8895079 0.5705552
vt 0.8895079 0.62682205
vt 0.56058794 0.62682205
vt 0.56058794 0.5705552
vt 0.8895079 0.5705552
vt 0.8895079 0.62682205
vt 0.56058794 0.62682205
vt 0.56058794 0.5705552
vt 0.8895079 0.5705552
vt 0.8895079 0.62682205
vt 0.56058794 0.62682205
vt 0.56058794 0.5705552
vt 0.8895079 0.5705552
vt 0.8895079 0.62682205
vt 0.56058794 0.62682205
vt 0.56058794 0.5705552
vt 0.8895079 0.5705552
vt 0.8895079 0.62682205
vt 0.8895079 0.62682205
vt 0.81202036 0.62682205
vt 0.81202036 0.5705552
vt 0.8895079 0.5705552
vt 0.56058794 0.62682205
vt 0.56058794 0.5705552
vt 0.8895079 0.5705552
vt 0.8895079 0.62682205
vt 0.56058794 0.62682205
vt 0.56058794 0.5705552
vt 0.8895079 0.5705552
vt 0.8895079 0.62682205
vt 0.56058794 0.62682205
vt 0.56058794 0.5705552
vt 0.8895079 0.5705552
vt 0.8895079 0.62682205
vt 0.56058794 0.62682205
vt 0.56058794 0.5705552
vt 0.8895079 0.5705552
vt 0.8895079 0.62682205
vt 0.56058794 0.62682205
vt 0.56058794 0.5705552
vt 0.8895079 0.5705552
vt 0.8895079 0.62682205
vt 0.56058794 0.62682205
vt 0.8895079 0.62682205
vt 0.8895079 0.5705552
vt 0.56058794 0.5705552
vt 0.8895079 0.62682205
vt 0.8895079 0.5705552
vt 0.81202036 0.5705552
vt 0.81202036 0.62682205
vt 0.56058794 0.62682205
vt 0.8895079 0.62682205
vt 0.8895079 0.5705552
vt 0.56058794 0.5705552
vt 0.56058794 0.62682205
vt 0.8895079 0.62682205
vt 0.8895079 0.5705552
vt 0.56058794 0.5705552
vt 0.56058794 0.62682205
vt 0.8895079 0.62682205
vt 0.8895079 0.5705552
vt 0.56058794 0.5705552
vt 0.56058794 0.62682205
vt 0.8895079 0.62682205
vt 0.8895079 0.5705552
vt 0.56058794 0.5705552
vt 0.56058794 0.62682205
vt 0.8895079 0.62682205
vt 0.8895079 0.5705552
vt 0.56058794 0.5705552
vn -0.95621985 0.003871262 0.29262367
vn -0.9020212 0.003871262 0.43167427
vn -0.9020212 0.003871262 0.43167427
vn -0.95621985 0.003871262 0.29262367
vn -0.95621985 0.003871262 0.29262367
vn -0.95621985 0.003871262 0.29262367
vn -0.98719054 0.003871262 0.15949869
vn -0.98719054 0.003871262 0.15949869
vn -0.9020212 0.003871262 0.43167427
vn -0.84007984 0.003871262 0.54244894
vn -0.84007984 0.003871262 0.54244894
vn -0.9020212 0.003871262 0.43167427
vn -0.60005695 0.003871262 0.7999479
vn -0.53811556 0.003871262 0.8428622
vn -0.53811556 0.003871262 0.8428622
vn -0.60005695 0.003871262 0.7999479
vn -0.64651304 0.003871262 0.76289314
vn -0.60005695 0.003871262 0.7999479
vn -0.60005695 0.003871262 0.7999479
vn -0.64651304 0.003871262 0.76289314
vn -0.0890407 0.003871262 0.9960205
vn 0.019356728 0.003871262 0.99980515
vn 0.019356728 0.003871262 0.99980515
vn -0.0890407 0.003871262 0.9960205
vn -0.2051807 0.003871262 0.9787165
vn -0.0890407 0.003871262 0.9960205
vn -0.0890407 0.003871262 0.9960205
vn -0.2051807 0.003871262 0.9787165
vn -0.95621985 0.003871262 -0.29262367
vn -0.95621985 0.003871262 -0.29262367
vn -0.9020212 0.003871262 -0.43167427
vn -0.9020212 0.003871262 -0.43167427
vn -0.95621985 0.003871262 -0.29262367
vn -0.98719054 0.003871262 -0.15949869
vn -0.98719054 0.003871262 -0.15949869
vn -0.95621985 0.003871262 -0.29262367
vn -0.9020212 0.003871262 -0.43167427
vn -0.9020212 0.003871262 -0.43167427
vn -0.84007984 0.003871262 -0.54244894
vn -0.84007984 0.003871262 -0.54244894
vn -0.60005695 0.003871262 -0.7999479
vn -0.60005695 0.003871262 -0.7999479
vn -0.53811556 0.003871262 -0.8428622
vn -0.53811556 0.003871262 -0.8428622
vn -0.64651304 0.003871262 -0.76289314
vn -0.64651304 0.003871262 -0.76289314
vn -0.60005695 0.003871262 -0.7999479
vn -0.60005695 0.003871262 -0.7999479
vn -0.0890407 0.003871262 -0.9960205
vn -0.0890407 0.003871262 -0.9960205
vn 0.019356728 0.003871262 -0.99980515
vn 0.019356728 0.003871262 -0.99980515
vn -0.2051807 0.003871262 -0.9787165
vn -0.2051807 0.003871262 -0.9787165
vn -0.0890407 0.003871262 -0.9960205
vn -0.0890407 0.003871262 -0.9960205
vn 0.95622 0.003871262 0.29262325
vn 0.95622 0.003871262 0.29262325
vn 0.9020213 0.003871262 0.4316742
vn 0.9020213 0.003871262 0.4316742
vn 0.95622 0.003871262 0.29262325
vn 0.98719066 0.003871262 0.15949795
vn 0.98719066 0.003871262 0.15949795
vn 0.95622 0.003871262 0.29262325
vn 0.9020213 0.003871262 0.4316742
vn 0.9020213 0.003871262 0.4316742
vn 0.8400799 0.003871262 0.5424489
vn 0.8400799 0.003871262 0.5424489
vn 0.6000571 0.003871262 0.7999478
vn 0.6000571 0.003871262 0.7999478
vn 0.53811574 0.003871262 0.84286207
vn 0.53811574 0.003871262 0.84286207
vn 0.6465131 0.003871262 0.7628931
vn 0.6465131 0.003871262 0.7628931
vn 0.6000571 0.003871262 0.7999478
vn 0.6000571 0.003871262 0.7999478
vn 0.089040756 0.003871262 0.9960205
vn 0.089040756 0.003871262 0.9960205
vn -0.019356668 0.003871262 0.99980515
vn -0.019356668 0.003871262 0.99980515
vn 0.20518082 0.003871262 0.97871643
vn 0.20518082 0.003871262 0.97871643
vn 0.089040756 0.003871262 0.9960205
vn 0.089040756 0.003871262 0.9960205
vn 0.95622 0.003871262 -0.29262325
vn 0.9020213 0.003871262 -0.4316742
vn 0.9020213 0.003871262 -0.4316742
vn 0.95622 0.003871262 -0.29262325
vn 0.95622 0.003871262 -0.29262325
vn 0.95622 0.003871262 -0.29262325
vn 0.98719066 0.003871262 -0.15949795
vn 0.98719066 0.003871262 -0.15949795
vn 0.9020213 0.003871262 -0.4316742
vn 0.8400799 0.003871262 -0.5424489
vn 0.8400799 0.003871262 -0.5424489
vn 0.9020213 0.003871262 -0.4316742
vn 0.6000571 0.003871262 -0.7999478
vn 0.53811574 0.003871262 -0.84286207
vn 0.53811574 0.003871262 -0.84286207
vn 0.6000571 0.003871262 -0.7999478
vn 0.6465131 0.003871262 -0.7628931
vn 0.6000571 0.003871262 -0.7999478
vn 0.6000571 0.003871262 -0.7999478
vn 0.6465131 0.003871262 -0.7628931
vn 0.089040756 0.003871262 -0.9960205
vn -0.019356668 0.003871262 -0.99980515
vn -0.019356668 0.003871262 -0.99980515
vn 0.089040756 0.003871262 -0.9960205
vn 0.20518082 0.003871262 -0.97871643
vn 0.089040756 0.003871262 -0.9960205
vn 0.089040756 0.003871262 -0.9960205
vn 0.20518082 0.003871262 -0.97871643
g lower_arena_walls_0
f 3/3/3 2/2/2 1/1/1
f 4/4/4 3/3/3 1/1/1
f 7/7/7 6/6/6 5/5/5
f 8/8/8 7/7/7 5/5/5
f 11/11/11 10/10/10 9/9/9
f 12/12/12 11/11/11 9/9/9
f 15/15/15 14/14/14 13/13/13
f 16/16/16 15/15/15 13/13/13
f 19/19/19 18/18/18 17/17/17
f 20/20/20 19/19/19 17/17/17
f 23/23/23 22/22/22 21/21/21
f 24/24/24 23/23/23 21/21/21
f 27/27/27 26/26/26 25/25/25
f 28/28/28 27/27/27 25/25/25
f 31/31/31 30/30/30 29/29/29
f 32/32/32 31/31/31 29/29/29
f 35/35/35 34/34/34 33/33/33
f 36/36/36 35/35/35 33/33/33
f 39/39/39 38/38/38 37/37/37
f 40/40/40 39/39/39 37/37/37
f 43/43/43 42/42/42 41/41/41
f 44/44/44 43/43/43 41/41/41
f 47/47/47 46/46/46 45/45/45
f 48/48/48 47/47/47 45/45/45
f 51/51/51 50/50/50 49/49/49
f 52/52/52 51/51/51 49/49/49
f 55/55/55 54/54/54 53/53/53
f 56/56/56 55/55/55 53/53/53
f 59/59/59 58/58/58 57/57/57
f 60/60/60 59/59/59 57/57/57
f 63/63/63 62/62/62 61/61/61
f 64/64/64 63/63/63 61/61/61
f 67/67/67 66/66/66 65/65/65
f 68/68/68 67/67/67 65/65/65
f 71/71/71 70/70/70 69/69/69
f 72/72/72 71/71/71 69/69/69
f 75/75/75 74/74/74 73/73/73
f 76/76/76 75/75/75 73/73/73
f 79/79/79 78/78/78 77/77/77
f 80/80/80 79/79/79 77/77/77
f 83/83/83 82/82/82 81/81/81
f 84/84/84 83/83/83 81/81/81
f 87/87/87 86/86/86 85/85/85
f 88/88/88 87/87/87 85/85/85
f 91/91/91 90/90/90 89/89/89
f 92/92/92 91/91/91 89/89/89
f 95/95/95 94/94/94 93/93/93
f 96/96/96 95/95/95 93/93/93
f 99/99/99 98/98/98 97/97/97
f 100/100/100 99/99/99 97/97/97
f 103/103/103 102/102/102 101/101/101
f 104/104/104 103/103/103 101/101/101
f 107/107/107 106/106/106 105/105/105
f 108/108/108 107/107/107 105/105/105
f 111/111/111 110/110/110 109/109/109
f 112/112/112 111/111/111 109/109/109
