g mesh_white_flower
v 0.01270095 0 -5.55176E-10
v 0.006350472 0 -0.01099934
v -0.006350474 0 -0.01099934
v -0.01270095 0 1.665528E-09
v -0.006350472 0 0.01099934
v 0.006350473 0 0.01099934
v 0.01270095 1.312585 0
v 0.006350472 1.312585 -0.01099932
v -0.006350474 1.312585 -0.01099932
v -0.01270095 1.312585 0
v -0.006350472 1.312585 0.01099932
v 0.006350473 1.312585 0.01099932
v 0.01270095 0.6562927 0
v 0.006350472 0.6562927 -0.01099935
v -0.006350474 0.6562927 -0.01099935
v -0.01270095 0.6562927 0
v -0.006350472 0.6562927 0.01099934
v 0.006350473 0.6562927 0.01099934
v 0.01270095 0.984439 0
v 0.006350472 0.984439 -0.01099935
v -0.006350474 0.984439 -0.01099935
v -0.01270095 0.984439 0
v -0.006350472 0.984439 0.01099935
v 0.006350473 0.984439 0.01099935
v 0.006350472 0.3281463 -0.01099934
v -0.006350474 0.3281463 -0.01099934
v -0.01270095 0.3281463 0
v -0.006350472 0.3281463 0.01099934
v 0.006350473 0.3281463 0.01099934
v 0.01270095 0.3281463 0
v 8.568168E-08 1.2954 0.1237805
v -0.0589799 1.2954 0.08117896
v -0.03931993 1.32188 0.05411932
v 5.960464E-08 1.32188 0.08241832
v -0.2684813 1.275025 0.2030722
v -0.1101676 1.275025 0.3180936
v -0.2417476 1.2954 0.09357315
v -0.01428901 1.2954 0.2588313
v -0.2102637 1.275025 0.2894033
v -0.1280183 1.33073 0.1762022
v -0.07275635 1.2954 -0.1001405
v -0.1177222 1.2954 0.03825033
v -0.09543157 1.2954 -0.03100759
v -0.0484443 1.32188 -0.06667781
v -0.06362104 1.32188 -0.02067173
v -0.07838448 1.32188 0.02546871
v -0.2760983 1.275025 -0.1925882
v -0.3365687 1.275025 -0.006479323
v -0.1636974 1.2954 -0.201
v -0.2505787 1.2954 0.06639352
v -0.340214 1.275025 -0.1105422
v -0.2071382 1.33073 -0.06730318
v 0.07275628 1.2954 -0.1001405
v -2.235174E-08 1.2954 -0.1003427
v 0.04844424 1.32188 -0.06667787
v -1.117587E-08 1.32188 -0.06689513
v 0.09784319 1.275025 -0.3220981
v -0.09784321 1.275025 -0.3220981
v 0.140577 1.2954 -0.2177979
v -0.1405771 1.2954 -0.2177978
v 0 1.275025 -0.3577221
v -3.72529E-08 1.33073 -0.2177978
v 0.09543154 1.2954 -0.03100765
v 0.06362101 1.32188 -0.02067178
v -5.347332E-16 1.343833 0
v 0.3365688 1.275025 -0.006479621
v 0.2760981 1.275025 -0.1925884
v 0.2505789 1.2954 0.06639332
v 0.1636972 1.2954 -0.201
v 0.3402139 1.275025 -0.1105424
v 0.207138 1.33073 -0.06730342
v 0.1177222 1.2954 0.03825018
v 0.05898003 1.2954 0.0811789
v 0.03932001 1.32188 0.05411926
v 0.07838451 1.32188 0.02546859
v 0.1101679 1.275025 0.3180935
v 0.2684814 1.275025 0.2030719
v 0.01428931 1.2954 0.2588313
v 0.2417477 1.2954 0.09357285
v 0.210264 1.275025 0.2894031
v 0.1280185 1.33073 0.1762021
v 0.006350472 0 -0.01099934
v 0.006350472 0.3281463 -0.01099934
v 0.006350472 0.6562927 -0.01099935
v 0.006350472 0.984439 -0.01099935
v 0.006350472 1.312585 -0.01099932
v -0.0589799 1.2954 0.08117896
v 8.568168E-08 1.2954 0.1237805
v -0.1177222 1.2954 0.03825033
v -0.09543157 1.2954 -0.03100759
v -0.1177222 1.2954 0.03825033
v -0.07275635 1.2954 -0.1001405
v -2.235174E-08 1.2954 -0.1003427
v -0.07275635 1.2954 -0.1001405
v 0.07275628 1.2954 -0.1001405
v 0.09543154 1.2954 -0.03100765
v 0.07275628 1.2954 -0.1001405
v 0.1177222 1.2954 0.03825018
v 0.05898003 1.2954 0.0811789
v 0.1177222 1.2954 0.03825018
v 8.568168E-08 1.2954 0.1237805
vt 0.03417778 0.3044053
vt 0.03550363 0.3044029
vt 0.0288744 0.3044053
vt 0.03020024 0.3044067
vt 0.03152609 0.3044072
vt 0.03285193 0.3044067
vt 0.03431904 0.4675982
vt 0.03569007 0.4675972
vt 0.0288353 0.467602
vt 0.0302062 0.4676011
vt 0.03157711 0.4676001
vt 0.03294814 0.4675992
vt 0.03424841 0.3860017
vt 0.03559685 0.3860001
vt 0.02885485 0.3860036
vt 0.03020322 0.3860039
vt 0.0315516 0.3860036
vt 0.03290004 0.3860029
vt 0.03428373 0.4268
vt 0.03564346 0.4267986
vt 0.02884507 0.4268028
vt 0.03020471 0.4268025
vt 0.03156435 0.4268019
vt 0.03292409 0.426801
vt 0.03555024 0.3452015
vt 0.02886462 0.3452045
vt 0.03020173 0.3452053
vt 0.03153884 0.3452054
vt 0.03287598 0.3452048
vt 0.0342131 0.3452035
vt 0.1898245 0.6414033
vt 0.257373 0.5922796
vt 0.2348569 0.5610772
vt 0.1898245 0.5937088
vt 0.2949109 0.2946391
vt 0.07026677 0.2953662
vt 0.3443563 0.1744938
vt 0.02159683 0.1755385
vt 0.1824564 0.3359845
vt 0.1829766 0.175016
vt 0.273151 0.3832008
vt 0.3246495 0.5427787
vt 0.2991205 0.4629177
vt 0.2453069 0.4217865
vt 0.2626884 0.4748359
vt 0.2795967 0.5280403
vt 0.2959657 0.2947688
vt 0.07046646 0.2943193
vt 0.3449706 0.1753362
vt 0.02098255 0.1746901
vt 0.1832979 0.3353701
vt 0.1829765 0.1750132
vt 0.1064982 0.3832008
vt 0.1898247 0.3829677
vt 0.1343424 0.4217864
vt 0.1898246 0.4215359
vt 0.2950343 0.2951192
vt 0.0709186 0.2951191
vt 0.3439767 0.1748511
vt 0.0219764 0.1748509
vt 0.1829765 0.3361971
vt 0.1829765 0.1748509
vt 0.0805287 0.4629176
vt 0.1169607 0.4748359
vt 0.1898246 0.4986725
vt 0.2954866 0.2943194
vt 0.0699873 0.2947686
vt 0.3449705 0.1746903
vt 0.02098259 0.1753359
vt 0.1826551 0.3353701
vt 0.1829766 0.1750131
vt 0.05499954 0.5427786
vt 0.1222759 0.5922796
vt 0.1447921 0.5610772
vt 0.1000523 0.5280402
vt 0.2956863 0.2953665
vt 0.07104209 0.2946391
vt 0.3443564 0.1755388
vt 0.02159681 0.1744936
vt 0.1834966 0.3359845
vt 0.1829767 0.1750162
vt 0.02754855 0.3044029
vt 0.02752748 0.3452029
vt 0.02750641 0.3860029
vt 0.02748534 0.4268029
vt 0.02746427 0.4676029
vt 0.1834131 0.03989607
vt 0.09989104 0.03993386
vt 0.2669368 0.03939325
vt 0.1827068 0.04040641
vt 0.09886548 0.04000753
vt 0.2665471 0.04034191
vt 0.1829766 0.03941387
vt 0.09965022 0.03918058
vt 0.2663029 0.03918076
vt 0.1832464 0.04040635
vt 0.09940618 0.04034173
vt 0.2670876 0.04000765
vt 0.1825401 0.03989625
vt 0.09901649 0.03939325
vt 0.2660623 0.03993416
vn 1 0 0
vn 0.5 0 -0.8660254
vn -0.5000002 0 -0.8660253
vn -1 0 0
vn -0.4999999 0 0.8660255
vn 0.5 0 0.8660254
vn 1 0 0
vn 0.5 0 -0.8660254
vn -0.5000002 0 -0.8660253
vn -1 0 0
vn -0.4999999 0 0.8660254
vn 0.5000001 0 0.8660254
vn 1 0 0
vn 0.4999999 0 -0.8660254
vn -0.5000001 0 -0.8660253
vn -1 0 0
vn -0.4999999 0 0.8660254
vn 0.5 0 0.8660254
vn 1 0 0
vn 0.5 0 -0.8660254
vn -0.5000001 0 -0.8660253
vn -1 0 0
vn -0.4999999 0 0.8660254
vn 0.5000001 0 0.8660254
vn 0.5 0 -0.8660254
vn -0.5000002 0 -0.8660253
vn -1 0 0
vn -0.4999999 0 0.8660255
vn 0.5 0 0.8660254
vn 1 0 0
vn 0 0.9901538 0.1399835
vn -0.1391585 0.9715704 0.1915355
vn -0.2784151 0.8807033 0.383206
vn 0 0.8922791 0.451484
vn -0.3392978 0.9284559 0.1511513
vn -0.03890424 0.9284558 0.3693999
vn -0.1973847 0.9797192 -0.03449039
vn 0.09379777 0.9797192 0.1770657
vn -0.1924467 0.9448824 0.2648804
vn -0.03912773 0.9977819 0.05385477
vn -0.08228029 0.9901538 -0.1132489
vn -0.1331323 0.9901538 0.04325726
vn -0.2251634 0.9715704 -0.07315988
vn -0.2653758 0.8922791 -0.3652582
vn -0.4504854 0.8807033 -0.1463714
vn -0.4293868 0.8922793 0.1395165
vn -0.2486023 0.9284558 -0.2759834
vn -0.3633424 0.9284558 0.07715077
vn -0.02819282 0.9797192 -0.1983821
vn -0.1394144 0.9797192 0.1439233
vn -0.3113857 0.9448823 -0.1011753
vn -0.06331032 0.9977819 -0.02057069
vn 0.08228005 0.9901538 -0.1132489
vn 0 0.9715704 -0.2367508
vn 0.2653754 0.8922793 -0.3652583
vn 0 0.8807034 -0.4736683
vn 0.1856534 0.9284558 -0.3217182
vn -0.1856535 0.9284558 -0.3217182
vn 0.1799605 0.9797192 -0.0881165
vn -0.1799605 0.9797192 -0.08811633
vn 0 0.9448824 -0.3274102
vn 0 0.9977819 -0.06656812
vn 0.2251633 0.9715704 -0.07316016
vn 0.4504853 0.8807034 -0.1463719
vn 0 1 0
vn 0.3633422 0.9284559 0.07715014
vn 0.2486019 0.9284558 -0.2759835
vn 0.1394146 0.9797192 0.143923
vn 0.02819261 0.9797192 -0.1983821
vn 0.3113854 0.9448824 -0.1011756
vn 0.06330999 0.9977819 -0.02057079
vn 0.1331322 0.9901538 0.04325718
vn 0.1391587 0.9715704 0.1915352
vn 0.2784155 0.8807034 0.3832055
vn 0.4293869 0.8922791 0.1395158
vn 0.0389047 0.9284558 0.3694
vn 0.3392981 0.9284558 0.1511509
vn -0.09379754 0.9797192 0.1770659
vn 0.1973846 0.9797192 -0.03449063
vn 0.1924471 0.9448824 0.2648803
vn 0.03912779 0.9977819 0.05385482
vn 0.5 0 -0.8660254
vn 0.5 0 -0.8660254
vn 0.4999999 0 -0.8660254
vn 0.5 0 -0.8660254
vn 0.5 0 -0.8660254
vn -0.1391585 0.9715704 0.1915355
vn 0 0.9901538 0.1399835
vn -0.1331323 0.9901538 0.04325726
vn -0.2251634 0.9715704 -0.07315988
vn -0.1331323 0.9901538 0.04325726
vn -0.08228029 0.9901538 -0.1132489
vn 0 0.9715704 -0.2367508
vn -0.08228029 0.9901538 -0.1132489
vn 0.08228005 0.9901538 -0.1132489
vn 0.2251633 0.9715704 -0.07316016
vn 0.08228005 0.9901538 -0.1132489
vn 0.1331322 0.9901538 0.04325718
vn 0.1391587 0.9715704 0.1915352
vn 0.1331322 0.9901538 0.04325718
vn 0 0.9901538 0.1399835
g mesh_white_flower_0
f 30/30/30 1/1/1 2/2/2
f 25/25/25 30/30/30 2/2/2
f 83/83/83 82/82/82 3/3/3
f 26/26/26 83/83/83 3/3/3
f 26/26/26 3/3/3 4/4/4
f 27/27/27 26/26/26 4/4/4
f 27/27/27 4/4/4 5/5/5
f 28/28/28 27/27/27 5/5/5
f 28/28/28 5/5/5 6/6/6
f 29/29/29 28/28/28 6/6/6
f 29/29/29 6/6/6 1/1/1
f 30/30/30 29/29/29 1/1/1
f 13/13/13 14/14/14 20/20/20
f 19/19/19 13/13/13 20/20/20
f 84/84/84 15/15/15 21/21/21
f 85/85/85 84/84/84 21/21/21
f 15/15/15 16/16/16 22/22/22
f 21/21/21 15/15/15 22/22/22
f 16/16/16 17/17/17 23/23/23
f 22/22/22 16/16/16 23/23/23
f 17/17/17 18/18/18 24/24/24
f 23/23/23 17/17/17 24/24/24
f 18/18/18 13/13/13 19/19/19
f 24/24/24 18/18/18 19/19/19
f 19/19/19 20/20/20 8/8/8
f 7/7/7 19/19/19 8/8/8
f 85/85/85 21/21/21 9/9/9
f 86/86/86 85/85/85 9/9/9
f 21/21/21 22/22/22 10/10/10
f 9/9/9 21/21/21 10/10/10
f 22/22/22 23/23/23 11/11/11
f 10/10/10 22/22/22 11/11/11
f 23/23/23 24/24/24 12/12/12
f 11/11/11 23/23/23 12/12/12
f 24/24/24 19/19/19 7/7/7
f 12/12/12 24/24/24 7/7/7
f 30/30/30 25/25/25 14/14/14
f 13/13/13 30/30/30 14/14/14
f 83/83/83 26/26/26 15/15/15
f 84/84/84 83/83/83 15/15/15
f 26/26/26 27/27/27 16/16/16
f 15/15/15 26/26/26 16/16/16
f 27/27/27 28/28/28 17/17/17
f 16/16/16 27/27/27 17/17/17
f 28/28/28 29/29/29 18/18/18
f 17/17/17 28/28/28 18/18/18
f 29/29/29 30/30/30 13/13/13
f 18/18/18 29/29/29 13/13/13
f 33/33/33 46/46/46 42/42/42
f 32/32/32 33/33/33 42/42/42
f 34/34/34 33/33/33 32/32/32
f 31/31/31 34/34/34 32/32/32
f 33/33/33 65/65/65 46/46/46
f 34/34/34 65/65/65 33/33/33
f 38/38/38 88/88/88 87/87/87
f 40/40/40 38/38/38 87/87/87
f 40/40/40 37/37/37 35/35/35
f 39/39/39 40/40/40 35/35/35
f 40/40/40 87/87/87 89/89/89
f 37/37/37 40/40/40 89/89/89
f 40/40/40 39/39/39 36/36/36
f 38/38/38 40/40/40 36/36/36
f 45/45/45 44/44/44 41/41/41
f 43/43/43 45/45/45 41/41/41
f 46/46/46 45/45/45 43/43/43
f 42/42/42 46/46/46 43/43/43
f 45/45/45 65/65/65 44/44/44
f 46/46/46 65/65/65 45/45/45
f 50/50/50 91/91/91 90/90/90
f 52/52/52 50/50/50 90/90/90
f 52/52/52 49/49/49 47/47/47
f 51/51/51 52/52/52 47/47/47
f 52/52/52 90/90/90 92/92/92
f 49/49/49 52/52/52 92/92/92
f 52/52/52 51/51/51 48/48/48
f 50/50/50 52/52/52 48/48/48
f 56/56/56 55/55/55 53/53/53
f 54/54/54 56/56/56 53/53/53
f 44/44/44 56/56/56 54/54/54
f 41/41/41 44/44/44 54/54/54
f 56/56/56 65/65/65 55/55/55
f 44/44/44 65/65/65 56/56/56
f 60/60/60 94/94/94 93/93/93
f 62/62/62 60/60/60 93/93/93
f 62/62/62 59/59/59 57/57/57
f 61/61/61 62/62/62 57/57/57
f 62/62/62 93/93/93 95/95/95
f 59/59/59 62/62/62 95/95/95
f 62/62/62 61/61/61 58/58/58
f 60/60/60 62/62/62 58/58/58
f 64/64/64 75/75/75 72/72/72
f 63/63/63 64/64/64 72/72/72
f 55/55/55 64/64/64 63/63/63
f 53/53/53 55/55/55 63/63/63
f 64/64/64 65/65/65 75/75/75
f 55/55/55 65/65/65 64/64/64
f 69/69/69 97/97/97 96/96/96
f 71/71/71 69/69/69 96/96/96
f 71/71/71 68/68/68 66/66/66
f 70/70/70 71/71/71 66/66/66
f 71/71/71 96/96/96 98/98/98
f 68/68/68 71/71/71 98/98/98
f 71/71/71 70/70/70 67/67/67
f 69/69/69 71/71/71 67/67/67
f 74/74/74 34/34/34 31/31/31
f 73/73/73 74/74/74 31/31/31
f 75/75/75 74/74/74 73/73/73
f 72/72/72 75/75/75 73/73/73
f 74/74/74 65/65/65 34/34/34
f 75/75/75 65/65/65 74/74/74
f 79/79/79 100/100/100 99/99/99
f 81/81/81 79/79/79 99/99/99
f 81/81/81 78/78/78 76/76/76
f 80/80/80 81/81/81 76/76/76
f 81/81/81 99/99/99 101/101/101
f 78/78/78 81/81/81 101/101/101
f 81/81/81 80/80/80 77/77/77
f 79/79/79 81/81/81 77/77/77
