g mesh_storm_tornado_c
v 1.9191607 -1.1865889 -0.5346096
v 2.9506896 1.0054425 0.48578933
v 2.9977014 1.2435677 -0.29661757
v 1.7288902 -0.94846404 -1.0210761
v 2.839307 1.4816928 -1.0701067
v 1.4166743 -0.71033895 -1.4449408
v 2.4834166 1.7198175 -1.7812928
v 1.0021229 -0.4722141 -1.7760133
v 1.9516689 1.9579427 -2.380311
v 0.51221603 -0.23408897 -1.9900378
v 1.2781386 2.196067 -2.8243113
v -0.020451851 0.004036026 -2.0704675
v 0.507164 2.4341922 -3.0805202
v -0.5598358 0.2421609 -2.0097177
v -0.30957413 2.6723168 -3.1286416
v -1.0688803 0.4802858 -1.8098326
v -1.1165115 2.9104416 -2.9624321
v -1.5120656 0.7184108 -1.4824858
v -1.8579829 3.1485674 -2.5903356
v -1.8578838 0.95653594 -1.0483197
v -2.48206 3.3866925 -2.0350952
v -2.081076 1.1946604 -0.53564787
v -2.9441867 3.6248174 -1.3323879
v -2.1644678 1.4327857 0.021380462
v -3.2103522 3.8629425 -0.52853787
v -2.1002746 1.670911 0.5850623
v -3.2595813 4.1010675 0.3225308
v -1.8907746 1.9090359 1.1166849
v -3.0855572 4.339192 1.1629162
v -1.5482974 2.1471605 1.5791901
v -2.6972542 4.5773177 1.9346734
v -1.094515 2.385285 1.9397548
v -2.118522 4.8154426 2.58381
v -0.55908036 2.6234107 2.1721137
v -1.3866376 5.0535665 3.0640619
v 0.022308717 2.8615355 2.258468
v -0.54991406 5.2916913 3.3401833
v 0.6102868 3.0996606 2.1908312
v 0.33548766 5.5298166 3.3905206
v 1.1644897 3.3377855 1.9717164
v 1.2093192 5.7679405 3.208682
v 1.646315 3.5759113 1.6141095
v 2.0113637 6.006067 2.804173
v 2.0216253 3.8140352 1.1407107
v 2.6855597 6.2441916 2.2019484
v 2.2631497 4.0521607 0.58251214
v 3.183936 6.4823155 1.4408866
v 2.352468 4.2902856 -0.023237761
v 3.4700139 6.7204413 0.57128876
v 2.2813873 4.5284104 -0.6355139
v 3.5214605 6.958566 -0.34844267
v 2.0526593 4.766535 -1.2122928
v 3.3318052 7.1966915 -1.2557263
v 1.6799196 5.00466 -1.7134402
v 2.9110918 7.434817 -2.0880532
v 1.186907 5.2427855 -2.1034954
v 2.2853758 7.672941 -2.7873082
v 0.60594404 5.4809093 -2.3541884
v 1.4951342 7.911065 -3.3038125
v -0.02416713 5.7190356 -2.4464676
v 0.59266186 8.149192 -3.599844
v -0.6607405 5.9571605 -2.3719451
v -0.36139846 8.387317 -3.6523995
v -1.2600969 6.1952844 -2.1336017
v -1.3021301 8.625441 -3.454931
v -1.7805648 6.433409 -1.7457309
v -2.164746 8.863566 -3.0180092
v -2.185368 6.671535 -1.2331017
v -2.8890593 9.101691 -2.3688016
v -2.4452262 6.9096594 -0.6293759
v -3.4236882 9.339815 -1.5493835
v -2.5404685 7.1477847 0.025096435
v -3.7296774 9.57794 -0.61403835
v -2.4625025 7.38591 0.6859657
v -3.7833395 9.816066 0.37435728
v -2.2145433 7.624035 1.3079027
v -3.5780547 10.054192 1.348537
v -1.8115426 7.8621597 1.8476907
v -3.1249301 10.2923155 2.2414358
v -1.2792988 8.100285 2.2672384
v -2.4522307 10.530439 2.9908087
v -0.6528101 8.338408 2.5362637
v -1.6036346 10.768565 3.5435627
v 0.026023217 8.576534 2.6344686
v -0.6354112 11.006689 3.8595085
v 0.71119225 8.81466 2.5530584
v 0.38731125 11.244816 3.914279
v 1.3557049 9.052784 2.2954857
v 1.3949392 11.482942 3.7011802
v 1.9148148 9.290909 1.8773547
v 2.3181236 11.7210655 3.2318492
v 2.3491085 9.529035 1.3254958
v 3.0925586 11.959189 2.5356553
v 2.627301 9.767159 0.6762408
v 3.6634386 12.197315 1.6578814
v 2.7284682 10.005283 -0.026953429
v 3.9893384 12.43544 0.6567877
v 2.643615 10.243409 -0.73641783
vt 1 5.066395E-07
vt 2.9802322E-08 5.066395E-07
vt 2.9802322E-08 0.02083382
vt 1 0.02083382
vt 2.9802322E-08 0.041667104
vt 1 0.041667134
vt 2.9802322E-08 0.06250042
vt 1 0.06250045
vt 2.9802322E-08 0.08333373
vt 1 0.08333373
vt 2.9802322E-08 0.104167044
vt 1 0.104167044
vt 2.9802322E-08 0.12500036
vt 1 0.12500036
vt 2.9802322E-08 0.14583367
vt 1 0.14583367
vt 2.9802322E-08 0.16666698
vt 1 0.16666698
vt 2.9802322E-08 0.1875003
vt 1 0.1875003
vt 2.9802322E-08 0.20833361
vt 1 0.20833361
vt 2.9802322E-08 0.22916692
vt 1 0.22916692
vt 2.9802322E-08 0.25000024
vt 1 0.25000024
vt 2.9802322E-08 0.27083355
vt 1 0.27083355
vt 2.9802322E-08 0.29166687
vt 1 0.29166687
vt 2.9802322E-08 0.31250018
vt 1 0.31250018
vt 2.9802322E-08 0.33333355
vt 1 0.33333355
vt 2.9802322E-08 0.3541668
vt 1 0.3541668
vt 2.9802322E-08 0.37500012
vt 1 0.37500012
vt 2.9802322E-08 0.39583343
vt 1 0.39583343
vt 2.9802322E-08 0.41666675
vt 1 0.41666675
vt 2.9802322E-08 0.43750006
vt 1 0.43750006
vt 2.9802322E-08 0.45833337
vt 1 0.45833337
vt 2.9802322E-08 0.4791667
vt 1 0.4791667
vt 2.9802322E-08 0.5
vt 1 0.5
vt 2.9802322E-08 0.52083325
vt 1 0.52083325
vt 2.9802322E-08 0.5416666
vt 1 0.5416666
vt 2.9802322E-08 0.5624999
vt 1 0.5624999
vt 2.9802322E-08 0.5833332
vt 1 0.5833332
vt 2.9802322E-08 0.60416657
vt 1 0.60416657
vt 2.9802322E-08 0.6249998
vt 1 0.6249998
vt 2.9802322E-08 0.6458331
vt 1 0.6458331
vt 2.9802322E-08 0.66666657
vt 1 0.66666657
vt -2.9802322E-08 0.6874998
vt 1 0.6874998
vt -2.9802322E-08 0.7083331
vt 1 0.7083331
vt -2.9802322E-08 0.72916645
vt 1 0.72916645
vt -2.9802322E-08 0.7499997
vt 1 0.7499997
vt -2.9802322E-08 0.7708331
vt 1 0.7708331
vt -2.9802322E-08 0.7916663
vt 1 0.7916663
vt -2.9802322E-08 0.8124996
vt 1 0.8124996
vt -2.9802322E-08 0.83333296
vt 1 0.83333296
vt -2.9802322E-08 0.8541663
vt 1 0.8541663
vt -2.9802322E-08 0.8749996
vt 1 0.8749996
vt -2.9802322E-08 0.89583284
vt 1 0.89583284
vt -2.9802322E-08 0.9166662
vt 1 0.9166662
vt -2.9802322E-08 0.9374996
vt 1 0.9374996
vt -2.9802322E-08 0.95833284
vt 1 0.95833284
vt -2.9802322E-08 0.9791661
vt 1 0.9791661
vt -2.9802322E-08 0.99999946
vt 1 0.99999946
vn 0.8955366 -0.37381083 -0.24141164
vn 0.8955366 -0.37381086 -0.24141164
vn 0.85658044 -0.37752375 -0.3517751
vn 0.85250366 -0.37760404 -0.36145908
vn 0.73588324 -0.3794757 -0.5607799
vn 0.72897345 -0.37956142 -0.56967616
vn 0.56539917 -0.38142285 -0.7313279
vn 0.5558244 -0.38151374 -0.73858404
vn 0.35679677 -0.38336462 -0.8518964
vn 0.34498346 -0.38346073 -0.85670555
vn 0.12431559 -0.3853013 -0.9143788
vn 0.11093259 -0.38540232 -0.9160562
vn -0.11620703 -0.3872329 -0.9146292
vn -0.13028623 -0.38733885 -0.91268504
vn -0.34841454 -0.38915938 -0.8527381
vn -0.3621713 -0.38927007 -0.8469361
vn -0.5565426 -0.39108053 -0.7330187
vn -0.56888807 -0.391196 -0.7234169
vn -0.72649044 -0.3929968 -0.5637067
vn -0.73635244 -0.39311686 -0.5506761
vn -0.84677696 -0.3949079 -0.35639367
vn -0.8531903 -0.39503244 -0.34061056
vn -0.90931576 -0.39681402 -0.12523392
vn -0.91150886 -0.39694294 -0.1076468
vn -0.9099589 -0.39871493 0.11402299
vn -0.9074303 -0.39884803 0.13225159
vn -0.84877217 -0.40061054 0.34510422
vn -0.8413484 -0.40074793 0.36267605
vn -0.7300235 -0.4025012 0.55232096
vn -0.71789455 -0.40264255 0.5678964
vn -0.5618852 -0.4043866 0.72163457
vn -0.54561216 -0.40453196 0.7339354
vn -0.355872 -0.40626705 0.841607
vn -0.33636546 -0.40641618 0.8495199
vn -0.12605166 -0.40814227 0.9041742
vn -0.10452198 -0.40829524 0.9068462
vn 0.1119148 -0.41001213 0.9051879
vn 0.13403356 -0.41016892 0.9021067
vn 0.34184062 -0.4118769 0.8446907
vn 0.3629884 -0.41203722 0.83574206
vn 0.54811496 -0.41373634 0.72690594
vn 0.56671697 -0.41390023 0.71240336
vn 0.71676254 -0.4155908 0.5599427
vn 0.7313475 -0.415758 0.5406256
vn 0.8363907 -0.41744018 0.35523856
vn 0.84570634 -0.41761073 0.33223784
vn 0.8989599 -0.41928437 0.12677465
vn 0.9020772 -0.41945803 0.10154612
vn 0.90032333 -0.42112312 -0.10987838
vn 0.89671975 -0.42130014 -0.13564602
vn 0.8405015 -0.4229569 -0.33862185
vn 0.8301186 -0.42313683 -0.36312315
vn 0.72367364 -0.42478493 -0.54392475
vn 0.7069411 -0.42496786 -0.5653641
vn 0.5578873 -0.4266083 -0.71187574
vn 0.5357121 -0.42679435 -0.72860086
vn 0.35450134 -0.4284267 -0.83113134
vn 0.3282201 -0.42861536 -0.8417602
vn 0.12740813 -0.43023923 -0.8936785
vn 0.098708145 -0.4304306 -0.89721024
vn -0.10791051 -0.43204665 -0.8953719
vn -0.13710196 -0.43224084 -0.89127487
vn -0.33544564 -0.4338497 -0.8362121
vn -0.3630929 -0.43404633 -0.82448006
vn -0.53974885 -0.43564707 -0.7203352
vn -0.56384933 -0.43584615 -0.70150703
vn -0.70697695 -0.43743885 -0.5557255
vn -0.7257086 -0.4376403 -0.53086543
vn -0.8258341 -0.4392256 -0.353665
vn -0.8376924 -0.43942964 -0.32430384
vn -0.88833493 -0.44100755 -0.12795886
vn -0.89225245 -0.4412136 -0.09599994
vn -0.8903399 -0.44278395 0.10600647
vn -0.88577646 -0.4429923 0.1384118
vn -0.8318291 -0.44455513 0.33231166
vn -0.8188279 -0.44476563 0.362911
vn -0.71689695 -0.44632113 0.5355895
vn -0.6960994 -0.44653383 0.5621861
vn -0.5534653 -0.44808206 0.7020673
vn -0.5260833 -0.4482966 0.7226801
vn -0.35273725 -0.4498374 0.8205015
vn -0.3204835 -0.45005378 0.8335118
vn -0.12842995 -0.45158777 0.882935
vn -0.09341134 -0.45180616 0.88721216
vn 0.10416375 -0.4533331 0.8852339
vn 0.13958593 -0.45355317 0.8802303
vn 0.32921696 -0.45507288 0.8273603
vn 0.3625864 -0.45529473 0.81316537
vn 0.53144586 -0.45680758 0.7133668
vn 0.5603847 -0.4570311 0.6907182
vn 0.6971503 -0.458537 0.5511128
vn 0.7195274 -0.45876214 0.5213613
vn 0.815138 -0.46026155 0.35172346
vn 0.82922727 -0.4604883 0.31675327
vn 0.8774838 -0.46198055 0.12882616
vn 0.88209647 -0.46220854 0.09093436
vn 0.8879679 -0.45989612 -0.0029140646
vn 0.8879679 -0.45989612 -0.0029140646
g mesh_storm_tornado_c_0
f 3/3/3 2/2/2 1/1/1
f 4/4/4 3/3/3 1/1/1
f 5/5/5 3/3/3 4/4/4
f 6/6/6 5/5/5 4/4/4
f 7/7/7 5/5/5 6/6/6
f 8/8/8 7/7/7 6/6/6
f 9/9/9 7/7/7 8/8/8
f 10/10/10 9/9/9 8/8/8
f 11/11/11 9/9/9 10/10/10
f 12/12/12 11/11/11 10/10/10
f 13/13/13 11/11/11 12/12/12
f 14/14/14 13/13/13 12/12/12
f 15/15/15 13/13/13 14/14/14
f 16/16/16 15/15/15 14/14/14
f 17/17/17 15/15/15 16/16/16
f 18/18/18 17/17/17 16/16/16
f 19/19/19 17/17/17 18/18/18
f 20/20/20 19/19/19 18/18/18
f 21/21/21 19/19/19 20/20/20
f 22/22/22 21/21/21 20/20/20
f 23/23/23 21/21/21 22/22/22
f 24/24/24 23/23/23 22/22/22
f 25/25/25 23/23/23 24/24/24
f 26/26/26 25/25/25 24/24/24
f 27/27/27 25/25/25 26/26/26
f 28/28/28 27/27/27 26/26/26
f 29/29/29 27/27/27 28/28/28
f 30/30/30 29/29/29 28/28/28
f 31/31/31 29/29/29 30/30/30
f 32/32/32 31/31/31 30/30/30
f 33/33/33 31/31/31 32/32/32
f 34/34/34 33/33/33 32/32/32
f 35/35/35 33/33/33 34/34/34
f 36/36/36 35/35/35 34/34/34
f 37/37/37 35/35/35 36/36/36
f 38/38/38 37/37/37 36/36/36
f 39/39/39 37/37/37 38/38/38
f 40/40/40 39/39/39 38/38/38
f 41/41/41 39/39/39 40/40/40
f 42/42/42 41/41/41 40/40/40
f 43/43/43 41/41/41 42/42/42
f 44/44/44 43/43/43 42/42/42
f 45/45/45 43/43/43 44/44/44
f 46/46/46 45/45/45 44/44/44
f 47/47/47 45/45/45 46/46/46
f 48/48/48 47/47/47 46/46/46
f 49/49/49 47/47/47 48/48/48
f 50/50/50 49/49/49 48/48/48
f 51/51/51 49/49/49 50/50/50
f 52/52/52 51/51/51 50/50/50
f 53/53/53 51/51/51 52/52/52
f 54/54/54 53/53/53 52/52/52
f 55/55/55 53/53/53 54/54/54
f 56/56/56 55/55/55 54/54/54
f 57/57/57 55/55/55 56/56/56
f 58/58/58 57/57/57 56/56/56
f 59/59/59 57/57/57 58/58/58
f 60/60/60 59/59/59 58/58/58
f 61/61/61 59/59/59 60/60/60
f 62/62/62 61/61/61 60/60/60
f 63/63/63 61/61/61 62/62/62
f 64/64/64 63/63/63 62/62/62
f 65/65/65 63/63/63 64/64/64
f 66/66/66 65/65/65 64/64/64
f 67/67/67 65/65/65 66/66/66
f 68/68/68 67/67/67 66/66/66
f 69/69/69 67/67/67 68/68/68
f 70/70/70 69/69/69 68/68/68
f 71/71/71 69/69/69 70/70/70
f 72/72/72 71/71/71 70/70/70
f 73/73/73 71/71/71 72/72/72
f 74/74/74 73/73/73 72/72/72
f 75/75/75 73/73/73 74/74/74
f 76/76/76 75/75/75 74/74/74
f 77/77/77 75/75/75 76/76/76
f 78/78/78 77/77/77 76/76/76
f 79/79/79 77/77/77 78/78/78
f 80/80/80 79/79/79 78/78/78
f 81/81/81 79/79/79 80/80/80
f 82/82/82 81/81/81 80/80/80
f 83/83/83 81/81/81 82/82/82
f 84/84/84 83/83/83 82/82/82
f 85/85/85 83/83/83 84/84/84
f 86/86/86 85/85/85 84/84/84
f 87/87/87 85/85/85 86/86/86
f 88/88/88 87/87/87 86/86/86
f 89/89/89 87/87/87 88/88/88
f 90/90/90 89/89/89 88/88/88
f 91/91/91 89/89/89 90/90/90
f 92/92/92 91/91/91 90/90/90
f 93/93/93 91/91/91 92/92/92
f 94/94/94 93/93/93 92/92/92
f 95/95/95 93/93/93 94/94/94
f 96/96/96 95/95/95 94/94/94
f 97/97/97 95/95/95 96/96/96
f 98/98/98 97/97/97 96/96/96
