g mesh_ring_button
v 0.96710753 5.1302305E-08 -0.25913563
v 1.3969477 7.006674E-08 -0.3743109
v 1.4462265 9.083749E-09 3.016721E-08
v 1.0012234 9.08375E-09 2.0887251E-08
v 0.5031892 3.1050202E-08 -0.13482907
v 0.52093977 9.083751E-09 9.9396855E-09
v 0.8670849 9.064373E-08 -0.50061166
v 1.252469 1.2689384E-07 -0.72311306
v 1.3969477 7.006674E-08 -0.3743109
v 0.96710753 5.1302305E-08 -0.25913563
v 0.45114708 5.151969E-08 -0.26046988
v 0.5031892 3.1050202E-08 -0.13482907
v 0.70797193 1.24427E-07 -0.7079717
v 1.0226365 1.7569238E-07 -1.0226365
v 1.252469 1.2689384E-07 -0.72311306
v 0.8670849 9.064373E-08 -0.50061166
v 0.36836004 6.90972E-08 -0.36835998
v 0.45114708 5.151969E-08 -0.26046988
v 0.5006118 1.5034982E-07 -0.8670849
v 0.7231133 2.1313684E-07 -1.2524688
v 1.0226365 1.7569238E-07 -1.0226365
v 0.70797193 1.24427E-07 -0.7079717
v 0.26046988 8.258492E-08 -0.45114708
v 0.36836004 6.90972E-08 -0.36835998
v 0.2591358 1.6664555E-07 -0.96710736
v 0.37431112 2.3667538E-07 -1.3969475
v 0.7231133 2.1313684E-07 -1.2524688
v 0.5006118 1.5034982E-07 -0.8670849
v 0.1348292 9.106365E-08 -0.5031891
v 0.26046988 8.258492E-08 -0.45114708
v 2.0290173E-07 1.7220374E-07 -1.0012233
v 2.952552E-07 2.4470393E-07 -1.4462264
v 0.37431112 2.3667538E-07 -1.3969475
v 0.2591358 1.6664555E-07 -0.96710736
v 1.033656E-07 9.3955606E-08 -0.52093977
v 0.1348292 9.106365E-08 -0.5031891
v -0.25913543 1.6664558E-07 -0.9671076
v -0.3743106 2.366754E-07 -1.3969476
v 2.952552E-07 2.4470393E-07 -1.4462264
v 2.0290173E-07 1.7220374E-07 -1.0012233
v -0.13482898 9.106366E-08 -0.50318915
v 1.033656E-07 9.3955606E-08 -0.52093977
v -0.5006114 1.5034982E-07 -0.8670849
v -0.72311276 2.1313684E-07 -1.2524688
v -0.3743106 2.366754E-07 -1.3969476
v -0.25913543 1.6664558E-07 -0.9671076
v -0.26046965 8.258492E-08 -0.45114708
v -0.13482898 9.106366E-08 -0.50318915
v -0.70797145 1.2442705E-07 -0.70797193
v -1.022636 1.7569242E-07 -1.0226367
v -0.72311276 2.1313684E-07 -1.2524688
v -0.5006114 1.5034982E-07 -0.8670849
v -0.36835986 6.9097226E-08 -0.3683601
v -0.26046965 8.258492E-08 -0.45114708
v -0.86708456 9.0643766E-08 -0.50061184
v -1.2524683 1.268939E-07 -0.72311354
v -1.022636 1.7569242E-07 -1.0226367
v -0.70797145 1.2442705E-07 -0.70797193
v -0.45114687 5.1519713E-08 -0.26047003
v -0.36835986 6.9097226E-08 -0.3683601
v -0.96710736 5.1302365E-08 -0.25913596
v -1.396947 7.0066804E-08 -0.37431136
v -1.2524683 1.268939E-07 -0.72311354
v -0.86708456 9.0643766E-08 -0.50061184
v -0.503189 3.105023E-08 -0.13482927
v -0.45114687 5.1519713E-08 -0.26047003
v -1.0012231 9.083814E-09 -3.6900352E-07
v -1.4462261 9.08384E-09 -5.330252E-07
v -1.396947 7.0066804E-08 -0.37431136
v -0.96710736 5.1302365E-08 -0.25913596
v -0.52093965 9.0837835E-09 -1.9292173E-07
v -0.503189 3.105023E-08 -0.13482927
v -0.96710753 -3.3134736E-08 0.25913528
v -1.3969473 -5.189915E-08 0.37431037
v -1.4462261 9.08384E-09 -5.330252E-07
v -1.0012231 9.083814E-09 -3.6900352E-07
v -0.50318915 -1.2882667E-08 0.13482891
v -0.52093965 9.0837835E-09 -1.9292173E-07
v -0.8670849 -7.247619E-08 0.50061125
v -1.2524688 -1.0872625E-07 0.7231125
v -1.3969473 -5.189915E-08 0.37431037
v -0.96710753 -3.3134736E-08 0.25913528
v -0.45114708 -3.3352137E-08 0.26046962
v -0.50318915 -1.2882667E-08 0.13482891
v -0.7079721 -1.0625943E-07 0.70797145
v -1.022637 -1.575248E-07 1.0226359
v -1.2524688 -1.0872625E-07 0.7231125
v -0.8670849 -7.247619E-08 0.50061125
v -0.36836016 -5.092969E-08 0.36835983
v -0.45114708 -3.3352137E-08 0.26046962
v -0.5006118 -1.321823E-07 0.8670848
v -0.72311336 -1.9496929E-07 1.2524685
v -1.022637 -1.575248E-07 1.0226359
v -0.7079721 -1.0625943E-07 0.70797145
v -0.26046988 -6.441744E-08 0.451147
v -0.36836016 -5.092969E-08 0.36835983
v -0.25913593 -1.4847805E-07 0.96710736
v -0.3743113 -2.1850788E-07 1.3969473
v -0.72311336 -1.9496929E-07 1.2524685
v -0.5006118 -1.321823E-07 0.8670848
v -0.13482925 -7.2896185E-08 0.50318915
v -0.26046988 -6.441744E-08 0.451147
v -3.3816949E-07 -1.5403624E-07 1.0012233
v -4.863003E-07 -2.2653644E-07 1.4462264
v -0.3743113 -2.1850788E-07 1.3969473
v -0.25913593 -1.4847805E-07 0.96710736
v -1.7815552E-07 -7.578813E-08 0.5209398
v -0.13482925 -7.2896185E-08 0.50318915
v 0.25913528 -1.484781E-07 0.9671076
v 0.37431037 -2.1850789E-07 1.3969476
v -4.863003E-07 -2.2653644E-07 1.4462264
v -3.3816949E-07 -1.5403624E-07 1.0012233
v 0.13482893 -7.2896206E-08 0.5031892
v -1.7815552E-07 -7.578813E-08 0.5209398
v 0.5006113 -1.3218235E-07 0.8670851
v 0.72311264 -1.9496939E-07 1.2524692
v 0.37431037 -2.1850789E-07 1.3969476
v 0.25913528 -1.484781E-07 0.9671076
v 0.2604697 -6.4417485E-08 0.45114726
v 0.13482893 -7.2896206E-08 0.5031892
v 0.70797163 -1.0625959E-07 0.7079724
v 1.022636 -1.5752501E-07 1.0226371
v 0.72311264 -1.9496939E-07 1.2524692
v 0.5006113 -1.3218235E-07 0.8670851
v 0.3683599 -5.0929756E-08 0.36836028
v 0.2604697 -6.4417485E-08 0.45114726
v 0.8670848 -7.247636E-08 0.5006123
v 1.2524686 -1.087265E-07 0.72311413
v 1.022636 -1.5752501E-07 1.0226371
v 0.70797163 -1.0625959E-07 0.7079724
v 0.451147 -3.3352226E-08 0.26047015
v 0.3683599 -5.0929756E-08 0.36836028
v 0.96710736 -3.313492E-08 0.2591364
v 1.3969473 -5.189942E-08 0.37431198
v 1.2524686 -1.087265E-07 0.72311413
v 0.8670848 -7.247636E-08 0.5006123
v 0.50318915 -1.2882765E-08 0.13482952
v 0.451147 -3.3352226E-08 0.26047015
v 1.0012234 9.08375E-09 2.0887251E-08
v 1.4462265 9.083749E-09 3.016721E-08
v 1.3969473 -5.189942E-08 0.37431198
v 0.96710736 -3.313492E-08 0.2591364
v 0.52093977 9.083751E-09 9.9396855E-09
v 0.50318915 -1.2882765E-08 0.13482952
vt 0.20833316 0.49999976
vt 0.20833302 0.99999976
vt 0.24999964 0.99999976
vt 0.24999979 0.49999976
vt 0.20833331 -2.3841858E-07
vt 0.24999994 -2.3841858E-07
vt 0.16666648 0.49999973
vt 0.16666633 0.9999997
vt 0.20833302 0.99999976
vt 0.20833316 0.49999976
vt 0.16666663 -2.3841858E-07
vt 0.20833331 -2.3841858E-07
vt 0.12499979 0.49999973
vt 0.12499964 0.9999997
vt 0.16666633 0.9999997
vt 0.16666648 0.49999973
vt 0.12499994 -2.3841858E-07
vt 0.16666663 -2.3841858E-07
vt 0.083333105 0.4999997
vt 0.083332956 0.9999997
vt 0.12499964 0.9999997
vt 0.12499979 0.49999973
vt 0.083333254 -3.5762787E-07
vt 0.12499994 -2.3841858E-07
vt 0.041666478 0.4999997
vt 0.04166633 0.9999997
vt 0.083332956 0.9999997
vt 0.083333105 0.4999997
vt 0.041666627 -3.5762787E-07
vt 0.083333254 -3.5762787E-07
vt -1.4901161E-07 0.4999997
vt -2.9802322E-07 0.9999997
vt 0.04166633 0.9999997
vt 0.041666478 0.4999997
vt 0 -3.5762787E-07
vt 0.041666627 -3.5762787E-07
vt 0.95833313 0.5
vt 0.958333 1
vt 0.9999997 1
vt 0.9999999 0.5
vt 0.9583333 0
vt 1 0
vt 0.9166665 0.5
vt 0.9166663 1
vt 0.958333 1
vt 0.95833313 0.5
vt 0.9166666 0
vt 0.9583333 0
vt 0.8749998 0.49999997
vt 0.87499964 0.99999994
vt 0.9166663 1
vt 0.9166665 0.5
vt 0.875 0
vt 0.9166666 0
vt 0.8333332 0.49999997
vt 0.833333 0.99999994
vt 0.87499964 0.99999994
vt 0.8749998 0.49999997
vt 0.8333334 0
vt 0.875 0
vt 0.7916665 0.49999994
vt 0.7916664 0.99999994
vt 0.833333 0.99999994
vt 0.8333332 0.49999997
vt 0.7916667 -1.1920929E-07
vt 0.8333334 0
vt 0.7499999 0.49999994
vt 0.7499997 0.99999994
vt 0.7916664 0.99999994
vt 0.7916665 0.49999994
vt 0.75 -1.1920929E-07
vt 0.7916667 -1.1920929E-07
vt 0.7083332 0.49999988
vt 0.708333 0.9999999
vt 0.7499997 0.99999994
vt 0.7499999 0.49999994
vt 0.7083334 -1.1920929E-07
vt 0.75 -1.1920929E-07
vt 0.66666657 0.49999988
vt 0.6666664 0.9999999
vt 0.708333 0.9999999
vt 0.7083332 0.49999988
vt 0.66666675 -1.1920929E-07
vt 0.7083334 -1.1920929E-07
vt 0.6249999 0.49999988
vt 0.62499976 0.9999999
vt 0.6666664 0.9999999
vt 0.66666657 0.49999988
vt 0.62500006 -1.1920929E-07
vt 0.66666675 -1.1920929E-07
vt 0.5833332 0.49999988
vt 0.583333 0.9999999
vt 0.62499976 0.9999999
vt 0.6249999 0.49999988
vt 0.5833334 -1.1920929E-07
vt 0.62500006 -1.1920929E-07
vt 0.54166657 0.49999985
vt 0.5416664 0.9999998
vt 0.583333 0.9999999
vt 0.5833332 0.49999988
vt 0.54166675 -1.1920929E-07
vt 0.5833334 -1.1920929E-07
vt 0.49999988 0.49999985
vt 0.49999973 0.9999998
vt 0.5416664 0.9999998
vt 0.54166657 0.49999985
vt 0.50000006 -1.1920929E-07
vt 0.54166675 -1.1920929E-07
vt 0.45833322 0.49999985
vt 0.45833308 0.9999998
vt 0.49999973 0.9999998
vt 0.49999988 0.49999985
vt 0.45833337 -1.1920929E-07
vt 0.50000006 -1.1920929E-07
vt 0.41666654 0.49999982
vt 0.4166664 0.9999998
vt 0.45833308 0.9999998
vt 0.45833322 0.49999985
vt 0.4166667 -2.3841858E-07
vt 0.45833337 -1.1920929E-07
vt 0.3749999 0.49999982
vt 0.37499976 0.9999998
vt 0.4166664 0.9999998
vt 0.41666654 0.49999982
vt 0.37500006 -2.3841858E-07
vt 0.4166667 -2.3841858E-07
vt 0.33333322 0.49999976
vt 0.33333308 0.99999976
vt 0.37499976 0.9999998
vt 0.3749999 0.49999982
vt 0.33333337 -2.3841858E-07
vt 0.37500006 -2.3841858E-07
vt 0.29166654 0.49999976
vt 0.2916664 0.99999976
vt 0.33333308 0.99999976
vt 0.33333322 0.49999976
vt 0.2916667 -2.3841858E-07
vt 0.33333337 -2.3841858E-07
vt 0.24999979 0.49999976
vt 0.24999964 0.99999976
vt 0.2916664 0.99999976
vt 0.29166654 0.49999976
vt 0.24999994 -2.3841858E-07
vt 0.2916667 -2.3841858E-07
vn -0.045672942 0.9988815 0.012238188
vn -0.17868353 0.9839066 1.02156314E-07
vn -0.136869 0.99058914 1.12684454E-07
vn -0.047284123 0.9988815 1.4730546E-07
vn -1.3355132E-07 1 1.9870564E-07
vn -1.3826252E-07 1 1.629206E-07
vn -0.04094924 0.9988815 0.023642223
vn -0.17259502 0.9839066 0.046246845
vn -0.13220528 0.99058914 0.035424452
vn -0.045672942 0.9988815 0.012238188
vn -1.1973884E-07 1 2.3205195E-07
vn -1.3355132E-07 1 1.9870564E-07
vn -0.03343492 0.9988815 0.033435088
vn -0.15474446 0.9839066 0.08934194
vn -0.11853204 0.99058914 0.06843467
vn -0.04094924 0.9988815 0.023642223
vn -0 1 2.6068705E-07
vn -1.1973884E-07 1 2.3205195E-07
vn -0.023642061 0.9988815 0.04094942
vn -0.12634835 0.9839065 0.12634853
vn -0.096781015 0.99058914 0.09678117
vn -0.03343492 0.9988815 0.033435088
vn -0 1 2.8265953E-07
vn -0 1 2.6068705E-07
vn -0.012238025 0.9988815 0.045673106
vn -0.089341775 0.9839065 0.15474467
vn -0.06843451 0.99058914 0.11853222
vn -0.023642061 0.9988815 0.04094942
vn -0 1 2.9647205E-07
vn -0 1 2.8265953E-07
vn -0 0.9988815 0.04728428
vn -0.04624669 0.9839065 0.17259522
vn -0.035424296 0.99058914 0.13220547
vn -0.012238025 0.9988815 0.045673106
vn -0 1 3.011832E-07
vn -0 1 2.9647205E-07
vn 0.012238025 0.9988815 0.045673124
vn -0 0.9839065 0.17868373
vn -0 0.99058914 0.13686922
vn -0 0.9988815 0.04728428
vn -0 1 2.96472E-07
vn -0 1 3.011832E-07
vn 0.023642061 0.9988815 0.04094941
vn 0.046246674 0.9839065 0.17259522
vn 0.035424296 0.99058914 0.13220552
vn 0.012238025 0.9988815 0.045673124
vn -0 1 2.8265953E-07
vn -0 1 2.96472E-07
vn 0.033434916 0.9988815 0.033435095
vn 0.08934178 0.9839065 0.1547447
vn 0.06843452 0.99058914 0.11853222
vn 0.023642061 0.9988815 0.04094941
vn -0 1 2.606871E-07
vn -0 1 2.8265953E-07
vn 0.04094924 0.9988815 0.02364223
vn 0.12634838 0.9839065 0.12634858
vn 0.09678102 0.99058914 0.09678122
vn 0.033434916 0.9988815 0.033435095
vn 1.1973889E-07 1 2.32052E-07
vn -0 1 2.606871E-07
vn 0.04567297 0.9988815 0.012238206
vn 0.15474452 0.9839065 0.089342006
vn 0.11853208 0.99058914 0.068434715
vn 0.04094924 0.9988815 0.02364223
vn 1.3355142E-07 1 1.9870566E-07
vn 1.1973889E-07 1 2.32052E-07
vn 0.047284123 0.9988815 1.7787467E-07
vn 0.17259511 0.9839066 0.046246916
vn 0.13220535 0.99058914 0.035424504
vn 0.04567297 0.9988815 0.012238206
vn 1.3826262E-07 1 1.6292071E-07
vn 1.3355142E-07 1 1.9870566E-07
vn 0.045672964 0.9988815 -0.01223785
vn 0.17868365 0.9839066 2.223173E-07
vn 0.13686909 0.99058914 2.0830858E-07
vn 0.047284123 0.9988815 1.7787467E-07
vn 1.3355142E-07 1 1.2713572E-07
vn 1.3826262E-07 1 1.6292071E-07
vn 0.04094926 0.9988815 -0.023641868
vn 0.17259517 0.9839066 -0.046246514
vn 0.13220541 0.99058914 -0.035424106
vn 0.045672964 0.9988815 -0.01223785
vn 1.1973896E-07 1 0
vn 1.3355142E-07 1 1.2713572E-07
vn 0.03343496 0.9988815 -0.033434737
vn 0.15474465 0.9839066 -0.089341566
vn 0.11853215 0.99058914 -0.06843429
vn 0.04094926 0.9988815 -0.023641868
vn -0 1 0
vn 1.1973896E-07 1 0
vn 0.023642078 0.9988815 -0.04094908
vn 0.12634848 0.9839066 -0.12634814
vn 0.09678109 0.99058914 -0.09678079
vn 0.03343496 0.9988815 -0.033434737
vn -0 1 0
vn -0 1 0
vn 0.012238048 0.9988815 -0.04567279
vn 0.089341864 0.9839066 -0.15474433
vn 0.06843455 0.99058914 -0.11853188
vn 0.023642078 0.9988815 -0.04094908
vn -0 1 0
vn -0 1 0
vn -0 0.9988815 -0.047283962
vn 0.04624678 0.9839066 -0.17259492
vn 0.03542437 0.99058914 -0.13220517
vn 0.012238048 0.9988815 -0.04567279
vn -0 1 0
vn -0 1 0
vn -0.012238007 0.9988815 -0.0456728
vn -0 0.9839066 -0.17868343
vn -0 0.99058914 -0.1368689
vn -0 0.9988815 -0.047283962
vn -0 1 0
vn -0 1 0
vn -0.023642031 0.9988815 -0.040949106
vn -0.046246633 0.9839066 -0.17259495
vn -0.03542425 0.99058914 -0.13220519
vn -0.012238007 0.9988815 -0.0456728
vn -0 1 0
vn -0 1 0
vn -0.033434883 0.9988815 -0.033434782
vn -0.089341655 0.9839066 -0.1547444
vn -0.068434425 0.99058914 -0.11853193
vn -0.023642031 0.9988815 -0.040949106
vn -0 1 0
vn -0 1 0
vn -0.040949225 0.9988815 -0.023641916
vn -0.12634821 0.9839066 -0.12634832
vn -0.09678088 0.99058914 -0.09678094
vn -0.033434883 0.9988815 -0.033434782
vn -1.1973879E-07 1 0
vn -0 1 0
vn -0.045672946 0.9988815 -0.012237876
vn -0.15474443 0.9839066 -0.08934171
vn -0.11853201 0.99058914 -0.06843442
vn -0.040949225 0.9988815 -0.023641916
vn -1.3355132E-07 1 1.2713562E-07
vn -1.1973879E-07 1 0
vn -0.047284123 0.9988815 1.4730546E-07
vn -0.17259502 0.9839066 -0.046246585
vn -0.13220528 0.99058914 -0.035424177
vn -0.045672946 0.9988815 -0.012237876
vn -1.3826252E-07 1 1.629206E-07
vn -1.3355132E-07 1 1.2713562E-07
g mesh_ring_button_0
f 3/3/3 2/2/2 1/1/1
f 4/4/4 3/3/3 1/1/1
f 4/4/4 1/1/1 5/5/5
f 6/6/6 4/4/4 5/5/5
f 9/9/9 8/8/8 7/7/7
f 10/10/10 9/9/9 7/7/7
f 10/10/10 7/7/7 11/11/11
f 12/12/12 10/10/10 11/11/11
f 15/15/15 14/14/14 13/13/13
f 16/16/16 15/15/15 13/13/13
f 16/16/16 13/13/13 17/17/17
f 18/18/18 16/16/16 17/17/17
f 21/21/21 20/20/20 19/19/19
f 22/22/22 21/21/21 19/19/19
f 22/22/22 19/19/19 23/23/23
f 24/24/24 22/22/22 23/23/23
f 27/27/27 26/26/26 25/25/25
f 28/28/28 27/27/27 25/25/25
f 28/28/28 25/25/25 29/29/29
f 30/30/30 28/28/28 29/29/29
f 33/33/33 32/32/32 31/31/31
f 34/34/34 33/33/33 31/31/31
f 34/34/34 31/31/31 35/35/35
f 36/36/36 34/34/34 35/35/35
f 39/39/39 38/38/38 37/37/37
f 40/40/40 39/39/39 37/37/37
f 40/40/40 37/37/37 41/41/41
f 42/42/42 40/40/40 41/41/41
f 45/45/45 44/44/44 43/43/43
f 46/46/46 45/45/45 43/43/43
f 46/46/46 43/43/43 47/47/47
f 48/48/48 46/46/46 47/47/47
f 51/51/51 50/50/50 49/49/49
f 52/52/52 51/51/51 49/49/49
f 52/52/52 49/49/49 53/53/53
f 54/54/54 52/52/52 53/53/53
f 57/57/57 56/56/56 55/55/55
f 58/58/58 57/57/57 55/55/55
f 58/58/58 55/55/55 59/59/59
f 60/60/60 58/58/58 59/59/59
f 63/63/63 62/62/62 61/61/61
f 64/64/64 63/63/63 61/61/61
f 64/64/64 61/61/61 65/65/65
f 66/66/66 64/64/64 65/65/65
f 69/69/69 68/68/68 67/67/67
f 70/70/70 69/69/69 67/67/67
f 70/70/70 67/67/67 71/71/71
f 72/72/72 70/70/70 71/71/71
f 75/75/75 74/74/74 73/73/73
f 76/76/76 75/75/75 73/73/73
f 76/76/76 73/73/73 77/77/77
f 78/78/78 76/76/76 77/77/77
f 81/81/81 80/80/80 79/79/79
f 82/82/82 81/81/81 79/79/79
f 82/82/82 79/79/79 83/83/83
f 84/84/84 82/82/82 83/83/83
f 87/87/87 86/86/86 85/85/85
f 88/88/88 87/87/87 85/85/85
f 88/88/88 85/85/85 89/89/89
f 90/90/90 88/88/88 89/89/89
f 93/93/93 92/92/92 91/91/91
f 94/94/94 93/93/93 91/91/91
f 94/94/94 91/91/91 95/95/95
f 96/96/96 94/94/94 95/95/95
f 99/99/99 98/98/98 97/97/97
f 100/100/100 99/99/99 97/97/97
f 100/100/100 97/97/97 101/101/101
f 102/102/102 100/100/100 101/101/101
f 105/105/105 104/104/104 103/103/103
f 106/106/106 105/105/105 103/103/103
f 106/106/106 103/103/103 107/107/107
f 108/108/108 106/106/106 107/107/107
f 111/111/111 110/110/110 109/109/109
f 112/112/112 111/111/111 109/109/109
f 112/112/112 109/109/109 113/113/113
f 114/114/114 112/112/112 113/113/113
f 117/117/117 116/116/116 115/115/115
f 118/118/118 117/117/117 115/115/115
f 118/118/118 115/115/115 119/119/119
f 120/120/120 118/118/118 119/119/119
f 123/123/123 122/122/122 121/121/121
f 124/124/124 123/123/123 121/121/121
f 124/124/124 121/121/121 125/125/125
f 126/126/126 124/124/124 125/125/125
f 129/129/129 128/128/128 127/127/127
f 130/130/130 129/129/129 127/127/127
f 130/130/130 127/127/127 131/131/131
f 132/132/132 130/130/130 131/131/131
f 135/135/135 134/134/134 133/133/133
f 136/136/136 135/135/135 133/133/133
f 136/136/136 133/133/133 137/137/137
f 138/138/138 136/136/136 137/137/137
f 141/141/141 140/140/140 139/139/139
f 142/142/142 141/141/141 139/139/139
f 142/142/142 139/139/139 143/143/143
f 144/144/144 142/142/142 143/143/143
