g mesh_firebird_body
v 0.008355358 0.007297578 -0.021452691
v 0.0062222895 0.008529102 -0.017700365
v 0.009162023 0.01778109 -0.018977653
v -0.0072942576 1.4245475E-08 -0.014424576
v -0.010948794 -0.0018003058 -0.02436059
v -0.010295627 0.005648415 -0.024360588
v -0.0055080494 -0.004417786 -0.014424573
v -0.013996527 -0.0039159693 -0.0034638743
v -0.019794088 8.881058E-09 -0.0034638708
v -0.024815788 5.155768E-09 0.0045476863
v -0.017547408 -0.006144172 0.004547679
v -0.024870971 -2.4438243E-09 0.020484693
v -0.005748315 -0.008044364 -0.024360592
v -0.01050379 -0.00079898245 -0.030860852
v -1.070498E-09 -0.007465484 -0.003463875
v -0.017586427 -0.009069242 0.020484688
v -0.019587597 -1.1980568E-08 0.036774866
v -0.005085726 -0.006896722 -0.030860858
v -0.0074920063 -0.0004967952 -0.03566229
v 1.7459449E-10 -0.006247698 -0.014424574
v -1.4670019E-09 -0.010594186 0.0045476714
v -0.013850527 -0.007823619 0.036774866
v -0.007306462 -2.0325217E-08 0.054095667
v 0.002259447 -0.009426083 -0.024360593
v 0.013996537 -0.0039159665 -0.0034638743
v -1.2950994E-09 -0.013529147 0.020484686
v 0.005508053 -0.0044177836 -0.014424572
v 0.017547412 -0.006144168 0.0045476705
v 0.019794088 1.1265243E-08 -0.00346387
v 0.00729426 1.5437568E-08 -0.014424576
v 0.00838364 -0.005136063 -0.0243606
v 0.024815788 8.732046E-09 0.004547682
v 0.017586434 -0.009069234 0.02048469
v 0.024870971 -5.963848E-11 0.020484697
v 0.0195876 -7.2121957E-09 0.036774866
v 0.013850532 -0.007823614 0.036774866
v 0.007306466 -1.5556846E-08 0.05409567
v 0.0029041138 -0.008540038 -0.030860858
v -8.5776874E-10 -0.011064265 0.036774855
v 0.005166453 -0.0018374013 0.05409567
v -0.0051664524 -0.0018374013 0.054095678
v 0.008524823 -0.005217572 -0.030860852
v 0.009036807 0.002312656 -0.024360599
v 0.00885236 0.0017626345 -0.030860852
v -0.003727923 -0.004544942 -0.03566229
v 0.005515393 -0.0034800742 -0.03566229
v 0.0055800187 0.0010091566 -0.0356623
v 0.0012082439 -0.0012432564 -0.040414885
v 0.0016599214 -0.005780661 -0.03566229
v -0.0036047047 -0.004331517 -0.04041488
v -0.0054412805 -0.002264551 -0.04041488
v -0.0045145587 -0.005907434 -0.04592438
v 0.0010972181 -0.0036093567 -0.04041488
v -0.00089636876 -0.0048885583 -0.04041488
v 0.00729426 1.5437568E-08 -0.014424576
v 0.009036807 0.002312656 -0.024360599
v 0.00838364 -0.005136063 -0.0243606
v 0.0055080494 0.004417811 -0.014424576
v 0.01399653 0.008569291 -0.0034638671
v 0.019794088 1.1265243E-08 -0.00346387
v 0.024815788 8.732046E-09 0.004547682
v 0.017547406 0.010743287 0.0045476924
v 0.024870971 -5.963848E-11 0.020484697
v 0.008355358 0.007297578 -0.021452691
v 0.00885236 0.0017626345 -0.030860852
v 3.0771136E-11 0.012118803 -0.0034638655
v 0.017586429 0.010767171 0.020484695
v 0.0195876 -7.2121957E-09 0.036774866
v -8.6344015E-11 0.0151933 0.004547687
v 0.013850524 0.007823599 0.03677487
v 0.007306466 -1.5556846E-08 0.05409567
v 8.8628535E-11 0.015227079 0.020484703
v 0.0062222895 0.008529102 -0.017700365
v 0.004420861 0.009569157 -0.01714931
v 0.009162023 0.01778109 -0.018977653
v 6.079766E-10 0.0062477216 -0.014424574
v -0.005508049 0.004417811 -0.014424576
v -0.013996529 0.008569293 -0.0034638655
v -0.017547406 0.010743287 0.004547695
v 0.00670289 0.008724055 -0.024592655
v 0.005145571 0.010824392 -0.025440346
v 0.002619434 0.010609213 -0.017700365
v 0.00048636532 0.011840745 -0.021452695
v -0.019794088 8.881058E-09 -0.0034638708
v -0.0072942576 1.4245475E-08 -0.014424576
v -0.024815788 5.155768E-09 0.0045476863
v -0.010295627 0.005648415 -0.024360588
v -0.017586427 0.010767172 0.020484699
v -0.024870971 -2.4438243E-09 0.020484693
v -0.019587597 -1.1980568E-08 0.036774866
v -0.013850524 0.007823599 0.03677487
v -0.007306462 -2.0325217E-08 0.054095667
v 2.3201209E-10 0.011064244 0.036774874
v -0.0051664505 0.0018373667 0.054095667
v 0.0051664496 0.0018373667 0.054095667
v -0.004171427 0.009938432 -0.024360592
v -0.004555538 0.00950369 -0.03086085
v -0.010436808 0.0057299314 -0.030860852
v -0.010948794 -0.0018003058 -0.02436059
v -0.01050379 -0.00079898245 -0.030860852
v -0.0074273786 0.0039924383 -0.035662293
v -0.0074920063 -0.0004967952 -0.03566229
v -0.0054412805 -0.002264551 -0.04041488
v -0.0035719033 0.006293022 -0.035662297
v -0.005330254 0.00010154837 -0.040414885
v -0.0045145587 -0.005907434 -0.04592438
v -0.0033366643 0.0013807499 -0.04041488
v 0.0021957653 0.005715186 -0.035662297
v -0.0006283311 0.00082370866 -0.04041488
v 0.0012082439 -0.0012432564 -0.040414885
v 0.0055800187 0.0010091566 -0.0356623
v 0.0048369216 0.010289801 -0.028581953
v 0.0025479665 0.011122902 -0.024592655
v -0.014090514 -2.5093588E-08 0.08756768
v -0.0138836475 -2.2709402E-08 0.075466774
v -0.019927 -3.4630332E-08 0.0875677
v -0.009817219 -0.00053330784 0.075466774
v -0.00963703 -2.0325217E-08 0.065186106
v -2.7905568E-12 -2.5093588E-08 0.08485113
v -0.0068144095 -0.0009863675 0.065186106
v 5.213663E-11 -0.00075420266 0.07013719
v 8.54736E-11 -0.001394931 0.06177939
v 0.009817221 -0.00053330784 0.075466774
v 0.014090517 -2.5093588E-08 0.08756768
v 0.013883651 -2.2709402E-08 0.075466774
v 0.019927002 -3.4630332E-08 0.0875677
v 0.009637034 -2.0325217E-08 0.0651861
v 0.006814412 -0.0009863675 0.065186106
v -1.4204601E-10 -0.0025984715 0.05409567
v -0.0138836475 -2.2709402E-08 0.075466774
v -0.014090514 -2.5093588E-08 0.08756768
v -0.019927 -3.4630332E-08 0.0875677
v -0.009817219 0.0005332624 0.075466774
v -0.00963703 -2.0325217E-08 0.065186106
v -2.7905568E-12 -2.5093588E-08 0.08485113
v -0.0068144095 0.0009863268 0.065186106
v 1.620785E-10 0.0007541524 0.07013719
v 2.8453448E-10 0.0013948953 0.06177938
v 0.009817221 0.0005332624 0.075466774
v 0.014090517 -2.5093588E-08 0.08756768
v 0.013883651 -2.2709402E-08 0.075466774
v 0.019927002 -3.4630332E-08 0.0875677
v 0.009637034 -2.0325217E-08 0.0651861
v 0.0068144104 0.0009863268 0.065186106
v 2.6445846E-10 0.0025984324 0.05409567
vt 0.6679741 0.81668067
vt 0.62509143 0.78857166
vt 0.6841911 0.7981399
vt 0.353358 0.76403236
vt 0.2798881 0.8384639
vt 0.29301924 0.8384639
vt 0.3892675 0.76403236
vt 0.21861717 0.6819249
vt 0.10206443 0.6819249
vt 0.0011093318 0.6219096
vt 0.1472311 0.6219097
vt 0 0.5025242
vt 0.38443726 0.8384639
vt 0.28883433 0.8871579
vt 0.49999997 0.6819249
vt 0.1464467 0.5025242
vt 0.106215626 0.38049313
vt 0.3977578 0.8871579
vt 0.34938252 0.92312586
vt 0.5 0.76403236
vt 0.49999997 0.6219097
vt 0.22155234 0.38049316
vt 0.35311264 0.25074154
vt 0.5454234 0.8384639
vt 0.78138304 0.6819249
vt 0.49999997 0.5025242
vt 0.61073256 0.76403236
vt 0.85276896 0.62190974
vt 0.89793557 0.6819248
vt 0.646642 0.76403236
vt 0.6685427 0.83846396
vt 0.99889064 0.6219097
vt 0.8535535 0.5025242
vt 1 0.5025242
vt 0.8937844 0.38049313
vt 0.77844775 0.3804931
vt 0.6468874 0.25074154
vt 0.5583836 0.8871579
vt 0.49999997 0.38049316
vt 0.60386515 0.25074154
vt 0.39613488 0.25074154
vt 0.671381 0.8871579
vt 0.6816738 0.83846396
vt 0.6779657 0.8871579
vt 0.42505473 0.92312586
vt 0.61088014 0.92312586
vt 0.61217934 0.923126
vt 0.52429026 0.95872796
vt 0.5333707 0.92312586
vt 0.4275319 0.95872796
vt 0.3906098 0.95872796
vt 0.4092404 1
vt 0.5220582 0.95872796
vt 0.4819796 0.95872796
vt 0.646642 0.76403236
vt 0.6816738 0.83846396
vt 0.6685427 0.83846396
vt 0.6107325 0.76403236
vt 0.78138286 0.6819249
vt 0.89793557 0.6819248
vt 0.99889064 0.6219097
vt 0.85276884 0.6219096
vt 1 0.5025242
vt 0.6679741 0.81668067
vt 0.6779657 0.8871579
vt 0.5 0.6819249
vt 0.8535533 0.5025242
vt 0.8937844 0.38049313
vt 0.5 0.6219097
vt 0.77844757 0.38049313
vt 0.6468874 0.25074154
vt 0.5 0.5025242
vt 0.62509143 0.78857166
vt 0.58887595 0.7844437
vt 0.6841911 0.7981399
vt 0.5 0.76403236
vt 0.3892675 0.76403236
vt 0.21861714 0.6819248
vt 0.14723113 0.6219096
vt 0.6347533 0.84020233
vt 0.6034453 0.8465525
vt 0.55266047 0.78857166
vt 0.5097778 0.81668067
vt 0.10206443 0.6819249
vt 0.353358 0.76403236
vt 0.0011093318 0.6219096
vt 0.29301924 0.8384639
vt 0.1464467 0.5025242
vt 0 0.5025242
vt 0.106215626 0.38049313
vt 0.22155243 0.38049313
vt 0.35311264 0.25074154
vt 0.5 0.38049313
vt 0.3961349 0.25074154
vt 0.603865 0.25074154
vt 0.41613865 0.83846396
vt 0.40841657 0.8871579
vt 0.29018092 0.8871579
vt 0.2798881 0.8384639
vt 0.28883433 0.8871579
vt 0.35068178 0.92312586
vt 0.34938252 0.92312586
vt 0.3906098 0.95872796
vt 0.4281913 0.923126
vt 0.39284188 0.95872796
vt 0.4092404 1
vt 0.43292052 0.95872796
vt 0.54414314 0.923126
vt 0.4873682 0.95872796
vt 0.52429026 0.95872796
vt 0.61217934 0.923126
vt 0.5972403 0.87008655
vt 0.5512237 0.84020233
vt 0.2167277 2.9802322E-08
vt 0.2208865 0.09064886
vt 0.099392384 0
vt 0.30263698 0.09064889
vt 0.30625945 0.16766217
vt 0.5 0.02034995
vt 0.36300474 0.1676622
vt 0.5 0.13057321
vt 0.5 0.1931822
vt 0.697363 0.09064889
vt 0.7832724 2.9802322E-08
vt 0.77911353 0.09064889
vt 0.9006077 0
vt 0.6937406 0.16766217
vt 0.6369953 0.1676622
vt 0.5 0.25074154
vt 0.2208865 0.09064886
vt 0.2167277 2.9802322E-08
vt 0.099392384 0
vt 0.30263698 0.09064889
vt 0.30625945 0.16766217
vt 0.5 0.02034995
vt 0.36300474 0.1676622
vt 0.5 0.13057321
vt 0.5 0.1931822
vt 0.697363 0.09064889
vt 0.7832724 2.9802322E-08
vt 0.77911353 0.09064889
vt 0.9006077 0
vt 0.6937406 0.16766217
vt 0.63699526 0.1676622
vt 0.5 0.25074154
vn 0.9919899 0.07628828 0.10067813
vn 0.67469865 0.101654634 0.7310595
vn 0.48707363 0.8436453 0.22588043
vn -0.9783463 0.041899726 -0.20268948
vn -0.92130834 -0.36982462 0.12008673
vn -0.87659955 0.43984783 0.19521035
vn -0.6296397 -0.7768871 0.00040876842
vn -0.45156837 -0.7867512 -0.42084262
vn -0.78114045 -0.1273871 -0.61122173
vn -0.9565111 -0.09780217 -0.27481148
vn -0.47681963 -0.8416182 -0.2536175
vn -0.99037445 -0.053353455 0.12771796
vn -0.4429469 -0.89422065 0.06455527
vn -0.90539706 -0.2940264 -0.30627528
vn -0 -0.9663303 -0.257305
vn -0.5297943 -0.8473998 0.03509353
vn -0.90078133 -0.01468415 0.43402466
vn -0.47281945 -0.8189436 -0.32522777
vn -0.8528405 -0.2959065 -0.4302354
vn -0.09792543 -0.9907658 0.093774684
vn -0 -0.9629037 -0.26984513
vn -0.5028004 -0.79764366 0.33310091
vn -0.92356163 0 0.38344976
vn 0.24156328 -0.96552634 0.09698487
vn 0.4515563 -0.7867566 -0.42084542
vn -0 -0.9998 -0.019999633
vn 0.48220572 -0.87573916 -0.023632823
vn 0.476808 -0.8416242 -0.25361934
vn 0.7811406 -0.12738688 -0.61122173
vn 0.9404794 -0.16637181 -0.29634246
vn 0.88206655 -0.4565438 0.11630282
vn 0.9565108 -0.09780344 -0.27481198
vn 0.5297943 -0.8473998 0.03509353
vn 0.99037445 -0.053353146 0.12771796
vn 0.9007842 -0.014683692 0.43401873
vn 0.5028004 -0.79764366 0.33310091
vn 0.9235606 2.6109902E-07 0.38345245
vn 0.19806793 -0.93110955 -0.3062746
vn -0 -0.9598258 0.2805967
vn 0.3517006 -0.89670354 0.26875538
vn -0.3517006 -0.89670354 0.26875538
vn 0.82433665 -0.48589823 -0.29046857
vn 0.9934558 0.067970805 0.09179096
vn 0.91939986 0.19804914 -0.33982426
vn -0.47860116 -0.82895553 -0.28943688
vn 0.6968466 -0.37879682 -0.6090302
vn 0.73002565 0.23463234 -0.6418803
vn 0.6264541 0.21134791 -0.7502582
vn 0.17015727 -0.8865346 -0.4302359
vn -0.49552727 -0.8582763 0.13347086
vn -0.93598425 -0.32867795 -0.12611254
vn -0.30023956 -0.52003145 -0.7996396
vn 0.68174183 -0.42335793 -0.5966541
vn 0.18334708 -0.9749254 -0.12611279
vn 0.9404794 -0.16637181 -0.29634246
vn 0.9934558 0.067970805 0.09179096
vn 0.88206655 -0.4565438 0.11630282
vn 0.7900743 0.6116497 -0.040831655
vn 0.4984858 0.69321114 -0.52054805
vn 0.7811406 -0.12738688 -0.61122173
vn 0.9565108 -0.09780344 -0.27481198
vn 0.5742459 0.79007643 -0.2145247
vn 0.99037445 -0.053353146 0.12771796
vn 0.9919899 0.07628828 0.10067813
vn 0.91939986 0.19804914 -0.33982426
vn -0 0.9068255 -0.42150623
vn 0.57194424 0.8099616 0.12977675
vn 0.9007842 -0.014683692 0.43401873
vn -0 0.98397255 -0.17831986
vn 0.5107947 0.77600265 0.3700117
vn 0.9235606 2.6109902E-07 0.38345245
vn -0 0.99310714 0.117210165
vn 0.67469865 0.101654634 0.7310595
vn 0.103555955 0.38524637 0.916985
vn 0.48707363 0.8436453 0.22588043
vn -0.011828324 0.97447455 0.22418612
vn -0.5918446 0.8006424 -0.093229614
vn -0.4984982 0.6932072 -0.5205413
vn -0.57425565 0.7900689 -0.21452644
vn 0.8603314 0.3485639 -0.3719317
vn 0.42354047 0.73359376 -0.53146374
vn -0.34523478 0.6295597 0.69603705
vn -0.4432083 0.88917494 0.11372911
vn -0.78114045 -0.1273871 -0.61122173
vn -0.9783463 0.041899726 -0.20268948
vn -0.9565111 -0.09780217 -0.27481148
vn -0.87659955 0.43984783 0.19521035
vn -0.57195437 0.80995464 0.1297756
vn -0.99037445 -0.053353455 0.12771796
vn -0.90078133 -0.01468415 0.43402466
vn -0.5107947 0.77600265 0.3700117
vn -0.92356163 0 0.38344976
vn -0 0.94413507 0.32955858
vn -0.3517006 0.89670354 0.26875538
vn 0.3517006 0.89670354 0.26875538
vn -0.5114327 0.8443777 0.15957077
vn -0.28818208 0.8952493 -0.3398232
vn -0.8329685 0.4709486 -0.2904667
vn -0.92130834 -0.36982462 0.12008673
vn -0.90539706 -0.2940264 -0.30627528
vn -0.67647135 0.41408464 -0.6090324
vn -0.8528405 -0.2959065 -0.4302354
vn -0.93598425 -0.32867795 -0.12611254
vn -0.16181557 0.7495565 -0.6418574
vn -0.7075119 0.37872565 -0.5966521
vn -0.30023956 -0.52003145 -0.7996396
vn -0.13019304 0.64819926 -0.75025827
vn 0.37453827 0.6487146 -0.66248816
vn 0.31249523 0.5412565 -0.7806332
vn 0.6264541 0.21134791 -0.7502582
vn 0.73002565 0.23463234 -0.6418803
vn 0.4627584 0.8015241 -0.37869996
vn -0.1282975 0.9193514 -0.3719312
vn -0.887445 4.8111514E-07 0.46091363
vn -0.9838471 -2.9350076E-07 -0.17901069
vn -0.9998542 0 -0.017077547
vn -0.07268512 -0.9973067 0.009810449
vn -0.9865823 -1.3430392E-07 -0.16326463
vn -0 -1.6292107E-07 1
vn -0.19779119 -0.9801862 0.010658269
vn -0 -0.9985103 0.054562926
vn -0 -0.99622214 0.08684095
vn 0.07268512 -0.9973067 0.009810449
vn 0.88744825 0 0.46090746
vn 0.9838471 0 -0.17901069
vn 0.9998542 0 -0.017077288
vn 0.9865823 2.9478426E-07 -0.16326463
vn 0.19779119 -0.9801862 0.010658269
vn -0 -0.9625468 0.2711155
vn -0.9838471 -2.9350076E-07 -0.17901069
vn -0.887445 4.8111514E-07 0.46091363
vn -0.9998542 0 -0.017077547
vn -0.07268512 0.9973067 0.009810449
vn -0.9865823 -1.3430392E-07 -0.16326463
vn -0 -1.6292107E-07 1
vn -0.19779119 0.9801862 0.010658269
vn -0 0.9985103 0.05456298
vn -0 0.99621695 0.08690106
vn 0.07268512 0.9973067 0.009810449
vn 0.88744825 0 0.46090746
vn 0.9838471 0 -0.17901069
vn 0.9998542 0 -0.017077288
vn 0.9865823 2.9478426E-07 -0.16326463
vn 0.19779119 0.9801862 0.010658269
vn -0 0.9625468 0.2711155
g mesh_firebird_body_0
f 3/3/3 2/2/2 1/1/1
f 6/6/6 5/5/5 4/4/4
f 5/5/5 7/7/7 4/4/4
f 7/7/7 8/8/8 4/4/4
f 8/8/8 9/9/9 4/4/4
f 9/9/9 8/8/8 10/10/10
f 8/8/8 11/11/11 10/10/10
f 12/12/12 10/10/10 11/11/11
f 5/5/5 13/13/13 7/7/7
f 13/13/13 5/5/5 14/14/14
f 15/15/15 8/8/8 7/7/7
f 8/8/8 15/15/15 11/11/11
f 16/16/16 12/12/12 11/11/11
f 17/17/17 12/12/12 16/16/16
f 18/18/18 13/13/13 14/14/14
f 18/18/18 14/14/14 19/19/19
f 13/13/13 20/20/20 7/7/7
f 20/20/20 15/15/15 7/7/7
f 15/15/15 21/21/21 11/11/11
f 16/16/16 11/11/11 21/21/21
f 22/22/22 17/17/17 16/16/16
f 23/23/23 17/17/17 22/22/22
f 24/24/24 13/13/13 18/18/18
f 13/13/13 24/24/24 20/20/20
f 25/25/25 15/15/15 20/20/20
f 15/15/15 25/25/25 21/21/21
f 26/26/26 16/16/16 21/21/21
f 22/22/22 16/16/16 26/26/26
f 24/24/24 27/27/27 20/20/20
f 27/27/27 25/25/25 20/20/20
f 25/25/25 28/28/28 21/21/21
f 26/26/26 21/21/21 28/28/28
f 29/29/29 25/25/25 27/27/27
f 25/25/25 29/29/29 28/28/28
f 30/30/30 29/29/29 27/27/27
f 31/31/31 30/30/30 27/27/27
f 24/24/24 31/31/31 27/27/27
f 29/29/29 32/32/32 28/28/28
f 33/33/33 28/28/28 32/32/32
f 33/33/33 26/26/26 28/28/28
f 34/34/34 33/33/33 32/32/32
f 33/33/33 34/34/34 35/35/35
f 36/36/36 33/33/33 35/35/35
f 26/26/26 33/33/33 36/36/36
f 36/36/36 35/35/35 37/37/37
f 31/31/31 24/24/24 38/38/38
f 38/38/38 24/24/24 18/18/18
f 39/39/39 26/26/26 36/36/36
f 39/39/39 22/22/22 26/26/26
f 40/40/40 36/36/36 37/37/37
f 39/39/39 36/36/36 40/40/40
f 41/41/41 22/22/22 39/39/39
f 41/41/41 23/23/23 22/22/22
f 42/42/42 31/31/31 38/38/38
f 43/43/43 31/31/31 42/42/42
f 44/44/44 43/43/43 42/42/42
f 38/38/38 18/18/18 45/45/45
f 45/45/45 18/18/18 19/19/19
f 44/44/44 42/42/42 46/46/46
f 47/47/47 44/44/44 46/46/46
f 48/48/48 47/47/47 46/46/46
f 42/42/42 38/38/38 49/49/49
f 49/49/49 38/38/38 45/45/45
f 46/46/46 42/42/42 49/49/49
f 50/50/50 45/45/45 19/19/19
f 45/45/45 50/50/50 49/49/49
f 51/51/51 50/50/50 19/19/19
f 52/52/52 50/50/50 51/51/51
f 53/53/53 48/48/48 46/46/46
f 53/53/53 46/46/46 49/49/49
f 52/52/52 48/48/48 53/53/53
f 50/50/50 54/54/54 49/49/49
f 54/54/54 53/53/53 49/49/49
f 52/52/52 53/53/53 54/54/54
f 52/52/52 54/54/54 50/50/50
f 57/57/57 56/56/56 55/55/55
f 56/56/56 58/58/58 55/55/55
f 58/58/58 59/59/59 55/55/55
f 59/59/59 60/60/60 55/55/55
f 60/60/60 59/59/59 61/61/61
f 59/59/59 62/62/62 61/61/61
f 63/63/63 61/61/61 62/62/62
f 56/56/56 64/64/64 58/58/58
f 65/65/65 64/64/64 56/56/56
f 59/59/59 66/66/66 62/62/62
f 66/66/66 59/59/59 58/58/58
f 67/67/67 63/63/63 62/62/62
f 68/68/68 63/63/63 67/67/67
f 66/66/66 69/69/69 62/62/62
f 67/67/67 62/62/62 69/69/69
f 70/70/70 68/68/68 67/67/67
f 71/71/71 68/68/68 70/70/70
f 72/72/72 67/67/67 69/69/69
f 70/70/70 67/67/67 72/72/72
f 64/64/64 73/73/73 58/58/58
f 73/73/73 74/74/74 58/58/58
f 75/75/75 74/74/74 73/73/73
f 76/76/76 66/66/66 58/58/58
f 74/74/74 76/76/76 58/58/58
f 76/76/76 74/74/74 77/77/77
f 77/77/77 78/78/78 76/76/76
f 78/78/78 66/66/66 76/76/76
f 66/66/66 78/78/78 69/69/69
f 78/78/78 79/79/79 69/69/69
f 72/72/72 69/69/69 79/79/79
f 75/75/75 64/64/64 80/80/80
f 80/80/80 64/64/64 65/65/65
f 81/81/81 80/80/80 65/65/65
f 75/75/75 80/80/80 81/81/81
f 74/74/74 82/82/82 77/77/77
f 75/75/75 82/82/82 74/74/74
f 75/75/75 83/83/83 82/82/82
f 82/82/82 83/83/83 77/77/77
f 78/78/78 84/84/84 79/79/79
f 84/84/84 78/78/78 77/77/77
f 85/85/85 84/84/84 77/77/77
f 84/84/84 86/86/86 79/79/79
f 87/87/87 85/85/85 77/77/77
f 88/88/88 79/79/79 86/86/86
f 89/89/89 88/88/88 86/86/86
f 88/88/88 89/89/89 90/90/90
f 88/88/88 72/72/72 79/79/79
f 91/91/91 88/88/88 90/90/90
f 72/72/72 88/88/88 91/91/91
f 91/91/91 90/90/90 92/92/92
f 93/93/93 72/72/72 91/91/91
f 93/93/93 70/70/70 72/72/72
f 94/94/94 91/91/91 92/92/92
f 93/93/93 91/91/91 94/94/94
f 95/95/95 70/70/70 93/93/93
f 95/95/95 71/71/71 70/70/70
f 96/96/96 87/87/87 77/77/77
f 87/87/87 96/96/96 97/97/97
f 98/98/98 87/87/87 97/97/97
f 83/83/83 96/96/96 77/77/77
f 96/96/96 83/83/83 97/97/97
f 99/99/99 87/87/87 98/98/98
f 100/100/100 99/99/99 98/98/98
f 100/100/100 98/98/98 101/101/101
f 102/102/102 100/100/100 101/101/101
f 103/103/103 102/102/102 101/101/101
f 101/101/101 98/98/98 104/104/104
f 98/98/98 97/97/97 104/104/104
f 105/105/105 103/103/103 101/101/101
f 105/105/105 101/101/101 104/104/104
f 106/106/106 103/103/103 105/105/105
f 107/107/107 105/105/105 104/104/104
f 106/106/106 105/105/105 107/107/107
f 107/107/107 104/104/104 108/108/108
f 104/104/104 97/97/97 108/108/108
f 106/106/106 107/107/107 109/109/109
f 109/109/109 107/107/107 108/108/108
f 106/106/106 109/109/109 110/110/110
f 110/110/110 109/109/109 111/111/111
f 109/109/109 108/108/108 111/111/111
f 108/108/108 112/112/112 111/111/111
f 97/97/97 112/112/112 108/108/108
f 112/112/112 65/65/65 111/111/111
f 112/112/112 81/81/81 65/65/65
f 112/112/112 97/97/97 81/81/81
f 97/97/97 113/113/113 81/81/81
f 81/81/81 113/113/113 75/75/75
f 97/97/97 83/83/83 113/113/113
f 113/113/113 83/83/83 75/75/75
f 116/116/116 115/115/115 114/114/114
f 115/115/115 117/117/117 114/114/114
f 117/117/117 115/115/115 118/118/118
f 114/114/114 117/117/117 119/119/119
f 120/120/120 117/117/117 118/118/118
f 120/120/120 118/118/118 23/23/23
f 41/41/41 120/120/120 23/23/23
f 117/117/117 121/121/121 119/119/119
f 121/121/121 117/117/117 120/120/120
f 122/122/122 120/120/120 41/41/41
f 122/122/122 121/121/121 120/120/120
f 119/119/119 121/121/121 123/123/123
f 124/124/124 119/119/119 123/123/123
f 124/124/124 123/123/123 125/125/125
f 126/126/126 124/124/124 125/125/125
f 127/127/127 125/125/125 123/123/123
f 128/128/128 123/123/123 121/121/121
f 128/128/128 127/127/127 123/123/123
f 122/122/122 128/128/128 121/121/121
f 37/37/37 127/127/127 128/128/128
f 40/40/40 37/37/37 128/128/128
f 40/40/40 128/128/128 122/122/122
f 129/129/129 122/122/122 41/41/41
f 129/129/129 40/40/40 122/122/122
f 129/129/129 41/41/41 39/39/39
f 129/129/129 39/39/39 40/40/40
f 132/132/132 131/131/131 130/130/130
f 131/131/131 133/133/133 130/130/130
f 134/134/134 130/130/130 133/133/133
f 131/131/131 135/135/135 133/133/133
f 136/136/136 134/134/134 133/133/133
f 92/92/92 134/134/134 136/136/136
f 94/94/94 92/92/92 136/136/136
f 135/135/135 137/137/137 133/133/133
f 136/136/136 133/133/133 137/137/137
f 94/94/94 136/136/136 138/138/138
f 138/138/138 136/136/136 137/137/137
f 139/139/139 137/137/137 135/135/135
f 140/140/140 139/139/139 135/135/135
f 141/141/141 139/139/139 140/140/140
f 142/142/142 141/141/141 140/140/140
f 139/139/139 141/141/141 143/143/143
f 137/137/137 139/139/139 144/144/144
f 144/144/144 139/139/139 143/143/143
f 138/138/138 137/137/137 144/144/144
f 144/144/144 143/143/143 71/71/71
f 95/95/95 144/144/144 71/71/71
f 138/138/138 144/144/144 95/95/95
f 145/145/145 94/94/94 138/138/138
f 145/145/145 138/138/138 95/95/95
f 145/145/145 93/93/93 94/94/94
f 145/145/145 95/95/95 93/93/93
