g mesh_stripe_curved
v 0.00035346983 0.097024076 6.826326E-12
v -0.084785305 0.09362785 2.248771E-10
v -0.0013035584 0.10913139 2.0871198E-10
v -0.08055374 0.080398746 9.593151E-11
v 0.0020105361 0.08491676 -1.9506047E-10
v -0.16486911 0.063717104 5.4787605E-11
v -0.076322176 0.06716967 -3.3014088E-11
v 0.0036675644 0.07280945 -3.9694667E-10
v -0.15764114 0.049939375 2.7282496E-11
v -0.23907161 0.020113554 -1.9192953E-10
v -0.07209068 0.053940542 -1.6195997E-10
v 0.0053245923 0.060702093 -5.988335E-10
v -0.06785911 0.04071144 -2.9090558E-10
v -0.15041313 0.03616166 -2.2261304E-13
v -0.22855385 0.0064690397 -9.1987716E-11
v -0.30505523 -0.03604084 -4.01825E-10
v -0.14318515 0.022383947 -2.7727721E-11
v -0.13595714 0.008606234 -5.523283E-11
v -0.21803607 -0.0071754456 7.954099E-12
v -0.2911071 -0.04879015 -1.52462E-10
v -0.36070195 -0.103205815 -4.610615E-10
v -0.20751831 -0.02081993 1.07895914E-10
v -0.19700053 -0.034464452 2.0783772E-10
v -0.27715904 -0.061539497 9.690097E-11
v -0.3433536 -0.11425131 -4.574531E-11
v -0.40418097 -0.17948478 -2.588797E-10
v -0.2632109 -0.074288785 3.4626396E-10
v -0.24926281 -0.087038115 5.956264E-10
v -0.3260053 -0.12529683 3.6957032E-10
v -0.38364413 -0.18800823 3.3225886E-10
v -0.4340085 -0.26267788 3.0896558E-10
v -0.30865702 -0.13634232 7.8488593E-10
v -0.2913087 -0.1473878 1.2002016E-09
v -0.36310732 -0.19653171 9.2339747E-10
v -0.41067928 -0.26789072 1.0781673E-09
v -0.44909793 -0.35034573 1.336931E-09
v -0.34257048 -0.20505516 1.514536E-09
v -0.32203367 -0.21357864 2.1056745E-09
v -0.3873501 -0.2731036 1.847369E-09
v -0.42355156 -0.3515286 2.2781386E-09
v -0.4487975 -0.4398804 2.9066791E-09
v -0.3640208 -0.27831638 2.6165718E-09
v -0.3406916 -0.28352925 3.3857723E-09
v -0.39800516 -0.35271156 3.2193463E-09
v -0.421775 -0.436422 4.0052055E-09
v -0.43291658 -0.5285836 5.0844027E-09
v -0.37245885 -0.3538945 4.160555E-09
v -0.3469125 -0.35507742 5.1017626E-09
v -0.39475244 -0.43296355 5.103734E-09
v -0.40530306 -0.52001584 6.3169705E-09
v -0.4017371 -0.61374724 7.918611E-09
v -0.36772993 -0.42950514 6.2022614E-09
v -0.34070742 -0.4260467 7.300791E-09
v -0.37768963 -0.5114482 7.549536E-09
v -0.37453327 -0.59977704 9.253744E-09
v -0.356011 -0.69273674 1.14384235E-08
v -0.3500761 -0.50288045 8.782103E-09
v -0.32246265 -0.49431273 1.0014669E-08
v -0.34732935 -0.58580685 1.0588883E-08
v -0.3302975 -0.673271 1.2837247E-08
v -0.29694286 -0.7630723 1.5652443E-08
v -0.3201255 -0.5718367 1.1924016E-08
v -0.2929216 -0.5578666 1.3259151E-08
v -0.30458403 -0.6538054 1.423607E-08
v -0.27384043 -0.73823637 1.7069796E-08
v -0.22615944 -0.82250655 2.0548205E-08
v -0.2788706 -0.6343397 1.5634894E-08
v -0.25315714 -0.61487395 1.7033717E-08
v -0.25073805 -0.7134005 1.8487148E-08
v -0.20678435 -0.7926539 2.1934099E-08
v -0.14566475 -0.8690957 2.6092325E-08
v -0.2276356 -0.68856454 1.9904501E-08
v -0.20453323 -0.6637286 2.1321853E-08
v -0.18740936 -0.76280135 2.3319993E-08
v -0.13108288 -0.8348096 2.7393671E-08
v -0.057783775 -0.90126336 3.2231238E-08
v -0.16803429 -0.7329487 2.4705887E-08
v -0.14865924 -0.7030962 2.6091781E-08
v -0.116500966 -0.80052364 2.8695016E-08
v -0.048963774 -0.86334854 3.339378E-08
v 0.03490509 -0.9178531 3.889263E-08
v -0.10191909 -0.76623756 2.999636E-08
v -0.08733719 -0.7319514 3.129771E-08
v -0.04014366 -0.8254336 3.455632E-08
v 0.037136763 -0.8773181 3.9863032E-08
v 0.12964469 -0.9181687 4.598734E-08
v 0.12464523 -0.8761996 4.6715343E-08
v -0.031323623 -0.78751874 3.571886E-08
v -0.022503547 -0.74960387 3.68814E-08
v 0.03936836 -0.83678305 4.0833438E-08
v 0.11964577 -0.8342308 4.7443343E-08
v 0.04159996 -0.796248 4.1803837E-08
v 0.043831635 -0.75571287 4.277424E-08
v 0.11464622 -0.7922619 4.8171348E-08
v 0.109646834 -0.7502929 4.8899356E-08
vt 0.25000024 1.0000004
vt 2.3841858E-07 0.9444448
vt 2.3841858E-07 1.0000004
vt 0.25000024 0.9444448
vt 0.50000024 1.0000002
vt 2.3841858E-07 0.8888892
vt 0.50000024 0.9444447
vt 0.75000024 1.0000002
vt 0.25000024 0.8888892
vt 2.3841858E-07 0.8333337
vt 0.75000024 0.9444447
vt 1.0000002 1.0000002
vt 1.0000002 0.94444466
vt 0.50000024 0.8888892
vt 0.25000024 0.8333336
vt 2.3841858E-07 0.7777781
vt 0.75000024 0.88888913
vt 1.0000002 0.88888913
vt 0.50000024 0.8333336
vt 0.25000024 0.7777781
vt 2.3841858E-07 0.72222257
vt 0.75000024 0.8333336
vt 1.0000002 0.83333355
vt 0.50000024 0.777778
vt 0.25000024 0.7222225
vt 2.3841858E-07 0.666667
vt 0.75000024 0.777778
vt 1.0000002 0.777778
vt 0.50000024 0.72222245
vt 0.25000024 0.666667
vt 2.3841858E-07 0.6111114
vt 0.75000024 0.72222245
vt 1.0000002 0.72222245
vt 0.50000024 0.6666669
vt 0.25000018 0.6111114
vt 2.3841858E-07 0.5555559
vt 0.75000024 0.6666669
vt 1.0000002 0.66666687
vt 0.5000002 0.6111114
vt 0.25000018 0.5555558
vt 2.3841858E-07 0.50000036
vt 0.75000024 0.6111114
vt 1.0000002 0.61111134
vt 0.5000002 0.5555558
vt 0.25000018 0.5000003
vt 2.3841858E-07 0.44444472
vt 0.75000024 0.5555558
vt 1.0000002 0.5555558
vt 0.5000002 0.50000024
vt 0.25000018 0.44444472
vt 2.3841858E-07 0.38888913
vt 0.75000024 0.50000024
vt 1.0000002 0.50000024
vt 0.5000002 0.44444472
vt 0.25000018 0.38888913
vt 2.3841858E-07 0.33333355
vt 0.7500002 0.44444466
vt 1.0000002 0.44444466
vt 0.5000002 0.38888913
vt 0.25000018 0.33333355
vt 1.1920929E-07 0.27777797
vt 0.7500002 0.38888907
vt 1.0000002 0.38888907
vt 0.5000002 0.33333355
vt 0.25000018 0.27777797
vt 1.1920929E-07 0.22222239
vt 0.7500002 0.3333335
vt 1.0000002 0.3333335
vt 0.5000002 0.27777797
vt 0.25000018 0.22222239
vt 1.1920929E-07 0.1666668
vt 0.7500002 0.2777779
vt 1.0000001 0.2777779
vt 0.5000002 0.22222239
vt 0.25000018 0.1666668
vt 1.1920929E-07 0.11111122
vt 0.7500002 0.22222233
vt 1.0000001 0.22222233
vt 0.5000002 0.1666668
vt 0.25000018 0.11111122
vt 1.1920929E-07 0.05555564
vt 0.7500002 0.16666675
vt 1.0000001 0.16666675
vt 0.5000002 0.11111122
vt 0.25000018 0.05555564
vt 1.1920929E-07 1.1920929E-07
vt 0.25000018 1.1920929E-07
vt 0.7500001 0.111111164
vt 1.0000001 0.111111164
vt 0.5000002 0.05555564
vt 0.5000002 0
vt 0.7500001 0.055555582
vt 1.0000001 0.055555582
vt 0.7500001 0
vt 1.0000001 0
vn -0 0 1
vn -0 0 1
vn -0 0 1
vn -0 0 1
vn -0 0 1
vn -0 0 1
vn -0 0 1
vn -0 0 1
vn -0 0 1
vn -0 0 1
vn -0 0 1
vn -0 0 1
vn -0 0 1
vn -0 0 1
vn -0 0 1
vn -0 0 1
vn -0 0 1
vn -0 0 1
vn -0 0 1
vn -0 0 1
vn -0 0 1
vn -0 0 1
vn -0 0 1
vn -0 0 1
vn -0 0 1
vn -0 0 1
vn -0 0 1
vn -0 0 1
vn -0 0 1
vn -0 0 1
vn -0 0 1
vn -0 0 1
vn -0 0 1
vn -0 0 1
vn -0 0 1
vn -0 0 1
vn -0 0 1
vn -0 0 1
vn -0 0 1
vn -0 0 1
vn -0 0 1
vn -0 0 1
vn -0 0 1
vn -0 0 1
vn -0 0 1
vn -0 0 1
vn -0 0 1
vn -0 0 1
vn -0 0 1
vn -0 0 1
vn -0 0 1
vn -0 0 1
vn -0 0 1
vn -0 0 1
vn -0 0 1
vn -0 0 1
vn -0 0 1
vn -0 0 1
vn -0 0 1
vn -0 0 1
vn -0 0 1
vn -0 0 1
vn -0 0 1
vn -0 0 1
vn -0 0 1
vn -0 0 1
vn -0 0 1
vn -0 0 1
vn -0 0 1
vn -0 0 1
vn -0 0 1
vn -0 0 1
vn -0 0 1
vn -0 0 1
vn -0 0 1
vn -0 0 1
vn -0 0 1
vn -0 0 1
vn -0 0 1
vn -0 0 1
vn -0 0 1
vn -0 0 1
vn -0 0 1
vn -0 0 1
vn -0 0 1
vn -0 0 1
vn -0 0 1
vn -0 0 1
vn -0 0 1
vn -0 0 1
vn -0 0 1
vn -0 0 1
vn -0 0 1
vn -0 0 1
vn -0 0 1
g mesh_stripe_curved_0
f 3/3/3 2/2/2 1/1/1
f 2/2/2 4/4/4 1/1/1
f 1/1/1 4/4/4 5/5/5
f 2/2/2 6/6/6 4/4/4
f 4/4/4 7/7/7 5/5/5
f 5/5/5 7/7/7 8/8/8
f 6/6/6 9/9/9 4/4/4
f 4/4/4 9/9/9 7/7/7
f 6/6/6 10/10/10 9/9/9
f 7/7/7 11/11/11 8/8/8
f 8/8/8 11/11/11 12/12/12
f 11/11/11 13/13/13 12/12/12
f 9/9/9 14/14/14 7/7/7
f 7/7/7 14/14/14 11/11/11
f 10/10/10 15/15/15 9/9/9
f 9/9/9 15/15/15 14/14/14
f 10/10/10 16/16/16 15/15/15
f 11/11/11 17/17/17 13/13/13
f 14/14/14 17/17/17 11/11/11
f 17/17/17 18/18/18 13/13/13
f 15/15/15 19/19/19 14/14/14
f 14/14/14 19/19/19 17/17/17
f 16/16/16 20/20/20 15/15/15
f 15/15/15 20/20/20 19/19/19
f 16/16/16 21/21/21 20/20/20
f 17/17/17 22/22/22 18/18/18
f 19/19/19 22/22/22 17/17/17
f 22/22/22 23/23/23 18/18/18
f 20/20/20 24/24/24 19/19/19
f 19/19/19 24/24/24 22/22/22
f 21/21/21 25/25/25 20/20/20
f 20/20/20 25/25/25 24/24/24
f 21/21/21 26/26/26 25/25/25
f 22/22/22 27/27/27 23/23/23
f 24/24/24 27/27/27 22/22/22
f 27/27/27 28/28/28 23/23/23
f 25/25/25 29/29/29 24/24/24
f 24/24/24 29/29/29 27/27/27
f 26/26/26 30/30/30 25/25/25
f 25/25/25 30/30/30 29/29/29
f 26/26/26 31/31/31 30/30/30
f 27/27/27 32/32/32 28/28/28
f 29/29/29 32/32/32 27/27/27
f 32/32/32 33/33/33 28/28/28
f 30/30/30 34/34/34 29/29/29
f 29/29/29 34/34/34 32/32/32
f 31/31/31 35/35/35 30/30/30
f 30/30/30 35/35/35 34/34/34
f 31/31/31 36/36/36 35/35/35
f 32/32/32 37/37/37 33/33/33
f 34/34/34 37/37/37 32/32/32
f 37/37/37 38/38/38 33/33/33
f 35/35/35 39/39/39 34/34/34
f 34/34/34 39/39/39 37/37/37
f 36/36/36 40/40/40 35/35/35
f 35/35/35 40/40/40 39/39/39
f 36/36/36 41/41/41 40/40/40
f 37/37/37 42/42/42 38/38/38
f 39/39/39 42/42/42 37/37/37
f 42/42/42 43/43/43 38/38/38
f 40/40/40 44/44/44 39/39/39
f 39/39/39 44/44/44 42/42/42
f 41/41/41 45/45/45 40/40/40
f 40/40/40 45/45/45 44/44/44
f 41/41/41 46/46/46 45/45/45
f 42/42/42 47/47/47 43/43/43
f 44/44/44 47/47/47 42/42/42
f 47/47/47 48/48/48 43/43/43
f 45/45/45 49/49/49 44/44/44
f 44/44/44 49/49/49 47/47/47
f 46/46/46 50/50/50 45/45/45
f 45/45/45 50/50/50 49/49/49
f 46/46/46 51/51/51 50/50/50
f 47/47/47 52/52/52 48/48/48
f 49/49/49 52/52/52 47/47/47
f 52/52/52 53/53/53 48/48/48
f 50/50/50 54/54/54 49/49/49
f 49/49/49 54/54/54 52/52/52
f 51/51/51 55/55/55 50/50/50
f 50/50/50 55/55/55 54/54/54
f 51/51/51 56/56/56 55/55/55
f 52/52/52 57/57/57 53/53/53
f 54/54/54 57/57/57 52/52/52
f 57/57/57 58/58/58 53/53/53
f 55/55/55 59/59/59 54/54/54
f 54/54/54 59/59/59 57/57/57
f 56/56/56 60/60/60 55/55/55
f 55/55/55 60/60/60 59/59/59
f 56/56/56 61/61/61 60/60/60
f 57/57/57 62/62/62 58/58/58
f 59/59/59 62/62/62 57/57/57
f 62/62/62 63/63/63 58/58/58
f 60/60/60 64/64/64 59/59/59
f 59/59/59 64/64/64 62/62/62
f 61/61/61 65/65/65 60/60/60
f 60/60/60 65/65/65 64/64/64
f 61/61/61 66/66/66 65/65/65
f 62/62/62 67/67/67 63/63/63
f 64/64/64 67/67/67 62/62/62
f 67/67/67 68/68/68 63/63/63
f 65/65/65 69/69/69 64/64/64
f 64/64/64 69/69/69 67/67/67
f 66/66/66 70/70/70 65/65/65
f 65/65/65 70/70/70 69/69/69
f 66/66/66 71/71/71 70/70/70
f 67/67/67 72/72/72 68/68/68
f 69/69/69 72/72/72 67/67/67
f 72/72/72 73/73/73 68/68/68
f 70/70/70 74/74/74 69/69/69
f 69/69/69 74/74/74 72/72/72
f 71/71/71 75/75/75 70/70/70
f 70/70/70 75/75/75 74/74/74
f 71/71/71 76/76/76 75/75/75
f 72/72/72 77/77/77 73/73/73
f 74/74/74 77/77/77 72/72/72
f 77/77/77 78/78/78 73/73/73
f 75/75/75 79/79/79 74/74/74
f 74/74/74 79/79/79 77/77/77
f 76/76/76 80/80/80 75/75/75
f 75/75/75 80/80/80 79/79/79
f 76/76/76 81/81/81 80/80/80
f 77/77/77 82/82/82 78/78/78
f 79/79/79 82/82/82 77/77/77
f 82/82/82 83/83/83 78/78/78
f 80/80/80 84/84/84 79/79/79
f 79/79/79 84/84/84 82/82/82
f 81/81/81 85/85/85 80/80/80
f 80/80/80 85/85/85 84/84/84
f 81/81/81 86/86/86 85/85/85
f 86/86/86 87/87/87 85/85/85
f 82/82/82 88/88/88 83/83/83
f 84/84/84 88/88/88 82/82/82
f 88/88/88 89/89/89 83/83/83
f 85/85/85 90/90/90 84/84/84
f 85/85/85 87/87/87 90/90/90
f 84/84/84 90/90/90 88/88/88
f 87/87/87 91/91/91 90/90/90
f 88/88/88 92/92/92 89/89/89
f 90/90/90 92/92/92 88/88/88
f 90/90/90 91/91/91 92/92/92
f 92/92/92 93/93/93 89/89/89
f 91/91/91 94/94/94 92/92/92
f 92/92/92 94/94/94 93/93/93
f 94/94/94 95/95/95 93/93/93
