g mesh_ring_half_panning
v -1.3280061 -0.17528518 -5.149841E-07
v -1.3280061 0.17528534 -5.149841E-07
v -1.2827554 0.17528534 0.3437127
v -1.2827554 -0.17528518 0.3437127
v -1.1500874 0.17528534 0.6640024
v -1.1500874 -0.17528518 0.6640024
v -0.9390426 0.17528534 0.93904155
v -0.9390426 -0.17528518 0.93904155
v -0.6640034 0.17528526 1.1500868
v -0.6640034 -0.17528518 1.1500868
v -0.3437138 0.17528534 1.2827553
v -0.3437138 -0.17528518 1.2827553
v -6.1740633E-07 0.17528534 1.3280061
v -6.1740633E-07 -0.17528518 1.3280061
v 0.34371257 0.17528534 1.2827554
v 0.34371257 -0.17528518 1.2827554
v 0.66400236 0.17528526 1.1500874
v 0.66400236 -0.17528518 1.1500874
v 0.9390415 0.17528534 0.93904275
v 0.9390415 -0.17528518 0.93904275
v 1.1500865 0.17528534 0.6640038
v 1.1500865 -0.17528518 0.6640038
v 1.2827551 0.17528534 0.3437142
v 1.2827551 -0.17528518 0.3437142
v 1.3280061 0.17528534 0
v 1.3280061 -0.17528518 0
vt 1.7881393E-07 0.00049066235
vt -1.7881393E-07 1.0004909
vt 0.08333284 1.0004909
vt 0.083333194 0.00049066916
vt 0.16666609 1.0004909
vt 0.16666645 0.000490676
vt 0.24999934 1.0004909
vt 0.2499997 0.0004906827
vt 0.33333284 1.0004909
vt 0.3333332 0.00049068953
vt 0.4166661 1.0004909
vt 0.41666645 0.00049069634
vt 0.49999946 1.0004909
vt 0.49999982 0.0004907031
vt 0.58333284 1.0004909
vt 0.5833331 0.0004907099
vt 0.6666663 1.0004902
vt 0.66666645 0.00049047824
vt 0.7499996 1.0004902
vt 0.7499997 0.00049048505
vt 0.83333284 1.0004902
vt 0.8333331 0.00049049186
vt 0.9166663 1.0004902
vt 0.91666645 0.0004904986
vt 0.9999998 1.0004902
vt 0.99999994 0.0004905054
vn -1 0 -3.6834206E-07
vn -1 0 -3.6834206E-07
vn -0.96591425 0 0.25886214
vn -0.96591425 0 0.25886214
vn -0.8659414 0 0.5001456
vn -0.8659414 0 0.5001456
vn -0.70710677 0 0.70710677
vn -0.70710677 0 0.70710677
vn -0.5001456 0 0.8659414
vn -0.5001456 0 0.8659414
vn -0.258807 0 0.96592903
vn -0.258807 0 0.96592903
vn -3.6360524E-07 0 1
vn -3.6360524E-07 0 1
vn 0.25886214 0 0.96591425
vn 0.25886214 0 0.96591425
vn 0.50005686 0 0.86599255
vn 0.50005686 0 0.86599255
vn 0.70710677 0 0.70710677
vn 0.70710677 0 0.70710677
vn 0.8660221 0 0.5000056
vn 0.8660221 0 0.5000056
vn 0.96592903 0 0.258807
vn 0.96592903 0 0.258807
vn 1 0 1.5788031E-07
vn 1 0 1.5788031E-07
g mesh_ring_half_panning_0
f 3/3/3 2/2/2 1/1/1
f 4/4/4 3/3/3 1/1/1
f 5/5/5 3/3/3 4/4/4
f 6/6/6 5/5/5 4/4/4
f 7/7/7 5/5/5 6/6/6
f 8/8/8 7/7/7 6/6/6
f 9/9/9 7/7/7 8/8/8
f 10/10/10 9/9/9 8/8/8
f 11/11/11 9/9/9 10/10/10
f 12/12/12 11/11/11 10/10/10
f 13/13/13 11/11/11 12/12/12
f 14/14/14 13/13/13 12/12/12
f 15/15/15 13/13/13 14/14/14
f 16/16/16 15/15/15 14/14/14
f 17/17/17 15/15/15 16/16/16
f 18/18/18 17/17/17 16/16/16
f 19/19/19 17/17/17 18/18/18
f 20/20/20 19/19/19 18/18/18
f 21/21/21 19/19/19 20/20/20
f 22/22/22 21/21/21 20/20/20
f 23/23/23 21/21/21 22/22/22
f 24/24/24 23/23/23 22/22/22
f 25/25/25 23/23/23 24/24/24
f 26/26/26 25/25/25 24/24/24
