g mesh_beam_tornado_b
v 1.470598 0.07792675 0.9548259
v 0.4763656 0 1.827908
v 1.169353 0.3183326 1.336562
v 0.7731449 0.5585939 1.627637
v -0.01627158 0.238125 1.902294
v 0.3088106 0.7987111 1.804891
v -0.5151201 0.4762499 1.846109
v -0.191314 1.038687 1.852989
v -0.9859092 0.7143748 1.661246
v -0.691635 1.278526 1.765681
v -1.395789 0.9524998 1.3585
v -1.155818 1.518229 1.546431
v -1.715618 1.190625 0.9569618
v -1.549434 1.757792 1.208365
v -1.922037 1.428749 0.4828181
v -1.842475 1.997219 0.7734811
v -1.999162 1.666875 -0.03234894
v -2.011628 2.236511 0.2712391
v -1.939793 1.905 -0.5536694
v -2.042093 2.475664 -0.2634435
v -1.746038 2.143125 -1.04534
v -1.928801 2.714687 -0.7926135
v -1.429298 2.38125 -1.473087
v -1.676968 2.953576 -1.277969
v -1.009618 2.619374 -1.806555
v -1.301932 3.19233 -1.683625
v -0.5144221 2.8575 -2.021452
v -0.8282002 3.430952 -1.978744
v 0.02327487 3.095625 -2.101317
v -0.2878721 3.669442 -2.139861
v 0.5670656 3.33375 -2.038763
v 0.2815445 3.907802 -2.152705
v 1.07962 3.571874 -1.836115
v 0.839727 4.146026 -2.013407
v 1.525235 3.81 -1.505383
v 1.346394 4.384131 -1.728937
v 1.87234 4.048124 -1.067561
v 1.764198 4.622102 -1.316857
v 2.095714 4.286249 -0.5513114
v 2.061476 4.859942 -0.8041896
v 2.17832 4.524374 0.008915448
v 2.214616 5.097653 -0.2256823
v 2.112581 4.762499 0.5751784
v 2.209881 5.33524 0.3785516
v 1.901042 5.000624 1.108611
v 2.044582 5.572706 0.965818
v 1.556314 5.23875 1.572097
v 1.727499 5.810037 1.493857
v 1.100353 5.476874 1.932839
v 1.278379 6.047253 1.923872
v 0.5630499 5.714999 2.164692
v 0.7267849 6.28434 2.223362
v -0.01970759 5.953124 2.250037
v 0.110117 6.521307 2.368567
v -0.6084416 6.191249 2.181115
v -0.5289158 6.758145 2.346315
v -1.162756 6.429373 1.960683
v -1.145255 6.994872 2.155104
v -1.64411 6.667499 1.601961
v -1.694657 7.231476 1.805477
v -2.018492 6.905624 1.127857
v -2.13688 7.467963 1.319425
v -2.258821 7.143748 0.5695024
v -2.438612 7.704329 0.7290223
v -2.346906 7.381873 -0.03578566
v -2.575947 7.940582 0.07432209
v -2.274799 7.619999 -0.6469896
v -2.536253 8.176724 -0.599385
v -2.045475 7.858124 -1.222188
v -2.31926 8.412749 -1.244677
v -1.67276 8.096248 -1.72141
v -1.937272 8.64866 -1.815353
v -1.180515 8.334373 -2.109428
v -1.414497 8.88446 -2.269737
v -0.601108 8.572497 -2.358235
v -0.785519 9.120156 -2.573712
v 0.02671017 8.810623 -2.44906
v -0.09302307 9.355742 -2.703239
v 0.6603879 9.048748 -2.373769
v 0.6151174 9.591223 -2.646254
v 1.256464 9.286872 -2.135553
v 1.289153 9.826604 -2.403682
v 1.773557 9.524998 -1.748845
v 1.880946 10.06189 -1.989592
v 2.175213 9.763123 -1.238459
v 2.347288 10.29803 -1.430259
v 2.432499 10.00125 -0.6379963
v 2.646285 10.55165 -0.7681555
v 2.526063 10.23937 0.01235201
v 2.447587 10.4775 0.6684993
vt 2.980232E-08 0.06250042
vt 1 0.08333373
vt 2.980232E-08 0.08333373
vt 2.980232E-08 0.104167
vt 1 0.104167
vt 2.980232E-08 0.1250004
vt 1 0.1250004
vt 2.980232E-08 0.1458337
vt 1 0.1458337
vt 2.980232E-08 0.166667
vt 1 0.166667
vt 2.980232E-08 0.1875003
vt 1 0.1875003
vt 2.980232E-08 0.2083336
vt 1 0.2083336
vt 2.980232E-08 0.2291669
vt 1 0.2291669
vt 2.980232E-08 0.2500002
vt 1 0.2500002
vt 2.980232E-08 0.2708336
vt 1 0.2708336
vt 2.980232E-08 0.2916669
vt 1 0.2916669
vt 2.980232E-08 0.3125002
vt 1 0.3125002
vt 2.980232E-08 0.3333336
vt 1 0.3333336
vt 2.980232E-08 0.3541668
vt 1 0.3541668
vt 2.980232E-08 0.3750001
vt 1 0.3750001
vt 2.980232E-08 0.3958334
vt 1 0.3958334
vt 2.980232E-08 0.4166667
vt 1 0.4166667
vt 2.980232E-08 0.4375001
vt 1 0.4375001
vt 2.980232E-08 0.4583334
vt 1 0.4583334
vt 2.980232E-08 0.4791667
vt 1 0.4791667
vt 2.980232E-08 0.5
vt 1 0.5
vt 2.980232E-08 0.5208333
vt 1 0.5208333
vt 2.980232E-08 0.5416666
vt 1 0.5416666
vt 2.980232E-08 0.5624999
vt 1 0.5624999
vt 2.980232E-08 0.5833332
vt 1 0.5833332
vt 2.980232E-08 0.6041666
vt 1 0.6041666
vt 2.980232E-08 0.6249998
vt 1 0.6249998
vt 2.980232E-08 0.6458331
vt 1 0.6458331
vt 2.980232E-08 0.6666666
vt 1 0.6666666
vt -2.980232E-08 0.6874998
vt 1 0.6874998
vt -2.980232E-08 0.7083331
vt 1 0.7083331
vt -2.980232E-08 0.7291664
vt 1 0.7291664
vt -2.980232E-08 0.7499997
vt 1 0.7499997
vt -2.980232E-08 0.7708331
vt 1 0.7708331
vt -2.980232E-08 0.7916663
vt 1 0.7916663
vt -2.980232E-08 0.8124996
vt 1 0.8124996
vt -2.980232E-08 0.833333
vt 1 0.833333
vt -2.980232E-08 0.8541663
vt 1 0.8541663
vt -2.980232E-08 0.8749996
vt 1 0.8749996
vt -2.980232E-08 0.8958328
vt 1 0.8958328
vt -2.980232E-08 0.9166662
vt 1 0.9166662
vt -2.980232E-08 0.9374996
vt 1 0.9374996
vt -2.980232E-08 0.9583328
vt 1 0.9583328
vt -2.980232E-08 0.9791661
vt 1 0.9791661
vt 1 0.9999995
vn 0.5653993 -0.3814228 0.7313278
vn 0.3449835 -0.3834607 0.8567055
vn 0.3567968 -0.3833646 0.8518964
vn 0.1243157 -0.3853013 0.9143788
vn 0.1109327 -0.3854023 0.9160562
vn -0.1162069 -0.3872329 0.9146292
vn -0.1302862 -0.3873388 0.912685
vn -0.3484143 -0.3891593 0.8527383
vn -0.3621711 -0.38927 0.8469362
vn -0.5565426 -0.3910805 0.7330187
vn -0.5688879 -0.391196 0.7234171
vn -0.7264903 -0.3929968 0.5637068
vn -0.7363523 -0.3931169 0.5506763
vn -0.8467769 -0.394908 0.3563939
vn -0.8531902 -0.3950326 0.3406108
vn -0.9093156 -0.3968141 0.1252341
vn -0.9115089 -0.396943 0.107647
vn -0.9099589 -0.398715 -0.1140229
vn -0.9074302 -0.3988482 -0.1322515
vn -0.8487722 -0.4006107 -0.3451041
vn -0.8413484 -0.400748 -0.3626758
vn -0.7300236 -0.4025012 -0.5523209
vn -0.7178946 -0.4026426 -0.5678963
vn -0.5618854 -0.4043866 -0.7216344
vn -0.5456123 -0.404532 -0.7339353
vn -0.3558721 -0.406267 -0.8416069
vn -0.3363656 -0.4064163 -0.8495199
vn -0.1260517 -0.4081422 -0.9041741
vn -0.1045221 -0.4082952 -0.9068462
vn 0.1119147 -0.4100122 -0.9051879
vn 0.1340335 -0.4101689 -0.9021067
vn 0.3418405 -0.4118769 -0.8446908
vn 0.3629883 -0.4120373 -0.8357421
vn 0.5481148 -0.4137364 -0.7269059
vn 0.5667168 -0.4139003 -0.7124034
vn 0.7167624 -0.4155908 -0.5599428
vn 0.7313474 -0.415758 -0.5406257
vn 0.8363906 -0.4174401 -0.3552386
vn 0.8457063 -0.4176108 -0.332238
vn 0.8989599 -0.4192844 -0.1267748
vn 0.9020772 -0.419458 -0.1015463
vn 0.9003233 -0.4211231 0.1098782
vn 0.8967198 -0.4213002 0.1356459
vn 0.8405015 -0.4229569 0.3386217
vn 0.8301187 -0.4231368 0.363123
vn 0.7236739 -0.4247848 0.5439247
vn 0.7069412 -0.4249678 0.565364
vn 0.5578874 -0.4266084 0.7118756
vn 0.5357122 -0.4267943 0.7286008
vn 0.3545015 -0.4284268 0.8311313
vn 0.3282202 -0.4286154 0.8417602
vn 0.1274084 -0.4302392 0.8936785
vn 0.09870835 -0.4304306 0.8972102
vn -0.1079104 -0.4320467 0.895372
vn -0.1371018 -0.4322408 0.8912749
vn -0.3354456 -0.4338497 0.8362122
vn -0.3630927 -0.4340463 0.8244801
vn -0.5397487 -0.435647 0.7203354
vn -0.5638491 -0.4358462 0.7015072
vn -0.7069768 -0.4374388 0.5557256
vn -0.7257085 -0.4376403 0.5308655
vn -0.8258341 -0.4392256 0.353665
vn -0.8376924 -0.4394296 0.324304
vn -0.8883349 -0.4410075 0.127959
vn -0.8922524 -0.4412136 0.09600013
vn -0.8903399 -0.4427838 -0.1060063
vn -0.8857765 -0.4429922 -0.1384116
vn -0.8318292 -0.4445551 -0.3323115
vn -0.818828 -0.4447656 -0.3629109
vn -0.716897 -0.4463212 -0.5355894
vn -0.6960995 -0.4465339 -0.5621861
vn -0.5534654 -0.448082 -0.7020673
vn -0.5260833 -0.4482965 -0.7226802
vn -0.3527373 -0.4498373 -0.8205016
vn -0.3204836 -0.4500537 -0.8335118
vn -0.1284301 -0.4515878 -0.882935
vn -0.09341153 -0.4518062 -0.8872122
vn 0.1041636 -0.4533331 -0.8852339
vn 0.1395858 -0.4535532 -0.8802303
vn 0.3292169 -0.4550729 -0.8273603
vn 0.3625863 -0.4552947 -0.8131654
vn 0.5314458 -0.4568076 -0.7133667
vn 0.5603845 -0.4570311 -0.6907182
vn 0.6971502 -0.458537 -0.5511128
vn 0.7195274 -0.4587621 -0.5213614
vn 0.8151379 -0.4602615 -0.3517236
vn 0.8292273 -0.4604882 -0.3167534
vn 0.8774837 -0.4619806 -0.1288263
vn 0.8820964 -0.4622086 -0.09093454
vn 0.8879678 -0.4598963 0.002913783
g mesh_beam_tornado_b_0
f 3/3/3 2/2/2 1/1/1
f 3/3/3 4/4/4 2/2/2
f 4/4/4 5/5/5 2/2/2
f 4/4/4 6/6/6 5/5/5
f 6/6/6 7/7/7 5/5/5
f 6/6/6 8/8/8 7/7/7
f 8/8/8 9/9/9 7/7/7
f 8/8/8 10/10/10 9/9/9
f 10/10/10 11/11/11 9/9/9
f 10/10/10 12/12/12 11/11/11
f 12/12/12 13/13/13 11/11/11
f 12/12/12 14/14/14 13/13/13
f 14/14/14 15/15/15 13/13/13
f 14/14/14 16/16/16 15/15/15
f 16/16/16 17/17/17 15/15/15
f 16/16/16 18/18/18 17/17/17
f 18/18/18 19/19/19 17/17/17
f 18/18/18 20/20/20 19/19/19
f 20/20/20 21/21/21 19/19/19
f 20/20/20 22/22/22 21/21/21
f 22/22/22 23/23/23 21/21/21
f 22/22/22 24/24/24 23/23/23
f 24/24/24 25/25/25 23/23/23
f 24/24/24 26/26/26 25/25/25
f 26/26/26 27/27/27 25/25/25
f 26/26/26 28/28/28 27/27/27
f 28/28/28 29/29/29 27/27/27
f 28/28/28 30/30/30 29/29/29
f 30/30/30 31/31/31 29/29/29
f 30/30/30 32/32/32 31/31/31
f 32/32/32 33/33/33 31/31/31
f 32/32/32 34/34/34 33/33/33
f 34/34/34 35/35/35 33/33/33
f 34/34/34 36/36/36 35/35/35
f 36/36/36 37/37/37 35/35/35
f 36/36/36 38/38/38 37/37/37
f 38/38/38 39/39/39 37/37/37
f 38/38/38 40/40/40 39/39/39
f 40/40/40 41/41/41 39/39/39
f 40/40/40 42/42/42 41/41/41
f 42/42/42 43/43/43 41/41/41
f 42/42/42 44/44/44 43/43/43
f 44/44/44 45/45/45 43/43/43
f 44/44/44 46/46/46 45/45/45
f 46/46/46 47/47/47 45/45/45
f 46/46/46 48/48/48 47/47/47
f 48/48/48 49/49/49 47/47/47
f 48/48/48 50/50/50 49/49/49
f 50/50/50 51/51/51 49/49/49
f 50/50/50 52/52/52 51/51/51
f 52/52/52 53/53/53 51/51/51
f 52/52/52 54/54/54 53/53/53
f 54/54/54 55/55/55 53/53/53
f 54/54/54 56/56/56 55/55/55
f 56/56/56 57/57/57 55/55/55
f 56/56/56 58/58/58 57/57/57
f 58/58/58 59/59/59 57/57/57
f 58/58/58 60/60/60 59/59/59
f 60/60/60 61/61/61 59/59/59
f 60/60/60 62/62/62 61/61/61
f 62/62/62 63/63/63 61/61/61
f 62/62/62 64/64/64 63/63/63
f 64/64/64 65/65/65 63/63/63
f 64/64/64 66/66/66 65/65/65
f 66/66/66 67/67/67 65/65/65
f 66/66/66 68/68/68 67/67/67
f 68/68/68 69/69/69 67/67/67
f 68/68/68 70/70/70 69/69/69
f 70/70/70 71/71/71 69/69/69
f 70/70/70 72/72/72 71/71/71
f 72/72/72 73/73/73 71/71/71
f 72/72/72 74/74/74 73/73/73
f 74/74/74 75/75/75 73/73/73
f 74/74/74 76/76/76 75/75/75
f 76/76/76 77/77/77 75/75/75
f 76/76/76 78/78/78 77/77/77
f 78/78/78 79/79/79 77/77/77
f 78/78/78 80/80/80 79/79/79
f 80/80/80 81/81/81 79/79/79
f 80/80/80 82/82/82 81/81/81
f 82/82/82 83/83/83 81/81/81
f 82/82/82 84/84/84 83/83/83
f 84/84/84 85/85/85 83/83/83
f 84/84/84 86/86/86 85/85/85
f 86/86/86 87/87/87 85/85/85
f 86/86/86 88/88/88 87/87/87
f 88/88/88 89/89/89 87/87/87
f 88/88/88 90/90/90 89/89/89
