g mid_arena_pillars
v 1.1825027 1.5597229 -94.91368
v 1.1825027 -1.497406 -94.91368
v -1.1759491 -1.497406 -94.91368
v -1.1759491 1.5597229 -94.91368
v 1.1825027 1.5597229 94.91368
v -1.1759491 1.5597229 94.91368
v -1.1759491 -1.497406 94.91368
v 1.1825027 -1.497406 94.91368
v 105.55459 -1.5630035 15.408653
v 105.876045 -1.5630035 12.820587
v 105.876045 1.497406 12.820587
v 105.55459 1.497406 15.408653
v -105.554596 -1.5630035 15.408653
v -105.554596 1.497406 15.408653
v -105.87605 1.497406 12.820587
v -105.87605 -1.5630035 12.820587
v 64.18166 -1.5236435 -81.14348
v 62.042988 -1.5236435 -82.20298
v 62.042988 1.536766 -82.20298
v 64.18166 1.536766 -81.14348
v 105.55459 -1.5630035 -15.408653
v 105.55459 1.497406 -15.408653
v 105.876045 1.497406 -12.820587
v 105.876045 -1.5630035 -12.820587
v 97.242615 -1.5138016 -42.02076
v 97.242615 1.5433273 -42.02076
v 98.210266 1.5433273 -39.645912
v 98.210266 -1.5138016 -39.645912
v 102.559784 -1.4744415 -28.952522
v 102.559784 1.5826874 -28.952522
v 103.52416 1.5826874 -26.577667
v 103.52416 -1.4744415 -26.577667
v 82.1505 -1.5334854 -65.02467
v 82.1505 1.5269241 -65.02467
v 83.62658 1.5269241 -62.97456
v 83.62658 -1.5334854 -62.97456
v 90.26567 -1.5138016 -53.74085
v 90.26567 1.5433273 -53.74085
v 91.741745 1.5433273 -51.687454
v 91.741745 -1.5138016 -51.687454
v 49.45365 -1.5400467 -88.435326
v 49.45365 1.5170822 -88.435326
v 51.59233 1.5170822 -87.375824
v 51.59233 -1.5400467 -87.375824
v 72.30339 -1.5302048 -73.98941
v 72.30339 1.5269241 -73.98941
v 74.15669 1.5269241 -72.36572
v 74.15669 -1.5302048 -72.36572
v 23.415573 -1.5564423 -94.31013
v 23.415573 1.5006866 -94.31013
v 25.721542 1.5006866 -93.95259
v 25.721542 -1.5564423 -93.95259
v 36.093475 -1.5170822 -92.35186
v 36.093475 1.5400467 -92.35186
v 38.399445 1.5400467 -91.997604
v 38.399445 -1.5170822 -91.997604
v 10.622864 -1.461319 -94.4807
v 10.622864 1.5958099 -94.4807
v 12.981316 1.5958099 -94.4807
v 12.981316 -1.461319 -94.4807
v 64.18166 -1.5236435 81.14348
v 64.18166 1.536766 81.14348
v 62.042988 1.536766 82.20299
v 62.042988 -1.5236435 82.20299
v 97.242615 -1.5138016 42.020767
v 98.210266 -1.5138016 39.645905
v 98.210266 1.5433273 39.645905
v 97.242615 1.5433273 42.020767
v 102.559784 -1.4744415 28.952515
v 103.52416 -1.4744415 26.577667
v 103.52416 1.5826874 26.577667
v 102.559784 1.5826874 28.952515
v 82.1505 -1.5334854 65.02467
v 83.62658 -1.5334854 62.974564
v 83.62658 1.5269241 62.974564
v 82.1505 1.5269241 65.02467
v 90.26567 -1.5138016 53.740845
v 91.741745 -1.5138016 51.687454
v 91.741745 1.5433273 51.687454
v 90.26567 1.5433273 53.740845
v 48.138298 -1.5400467 89.08481
v 50.276978 -1.5400467 88.0253
v 50.276978 1.5170822 88.0253
v 48.138298 1.5170822 89.08481
v 72.30339 -1.5302048 73.98941
v 74.15669 -1.5302048 72.36572
v 74.15669 1.5269241 72.36572
v 72.30339 1.5269241 73.98941
v 23.415573 -1.5564423 94.310135
v 25.721542 -1.5564423 93.95259
v 25.721542 1.5006866 93.95259
v 23.415573 1.5006866 94.310135
v 36.093475 -1.5170822 92.35187
v 38.399445 -1.5170822 91.997604
v 38.399445 1.5400467 91.997604
v 36.093475 1.5400467 92.35187
v 10.622864 -1.5269241 94.4807
v 12.981316 -1.5269241 94.4807
v 12.981316 1.5302048 94.4807
v 10.622864 1.5302048 94.4807
v -64.18167 -1.5236435 -81.14348
v -64.18167 1.536766 -81.14348
v -62.042984 1.536766 -82.20298
v -62.042984 -1.5236435 -82.20298
v -105.554596 -1.5630035 -15.408653
v -105.87605 -1.5630035 -12.820587
v -105.87605 1.497406 -12.820587
v -105.554596 1.497406 -15.408653
v -97.242615 -1.5138016 -42.02076
v -98.210266 -1.5138016 -39.645912
v -98.210266 1.5433273 -39.645912
v -97.242615 1.5433273 -42.02076
v -102.559784 -1.4744415 -28.952522
v -103.524155 -1.4744415 -26.577667
v -103.524155 1.5826874 -26.577667
v -102.559784 1.5826874 -28.952522
v -82.1505 -1.5334854 -65.02467
v -83.62659 -1.5334854 -62.97456
v -83.62659 1.5269241 -62.97456
v -82.1505 1.5269241 -65.02467
v -90.26567 -1.5138016 -53.74085
v -91.741745 -1.5138016 -51.687454
v -91.741745 1.5433273 -51.687454
v -90.26567 1.5433273 -53.74085
v -49.45366 -1.5400467 -88.435326
v -51.59233 -1.5400467 -87.375824
v -51.59233 1.5170822 -87.375824
v -49.45366 1.5170822 -88.435326
v -72.30339 -1.5302048 -73.98941
v -74.15669 -1.5302048 -72.36572
v -74.15669 1.5269241 -72.36572
v -72.30339 1.5269241 -73.98941
v -23.415573 -1.5564423 -94.31013
v -25.721542 -1.5564423 -93.95259
v -25.721542 1.5006866 -93.95259
v -23.415573 1.5006866 -94.31013
v -36.093475 -1.5170822 -92.35186
v -38.399445 -1.5170822 -91.997604
v -38.399445 1.5400467 -91.997604
v -36.093475 1.5400467 -92.35186
v -10.622864 -1.4580383 -94.4807
v -12.981316 -1.4580383 -94.4807
v -12.981316 1.5990906 -94.4807
v -10.622864 1.5990906 -94.4807
v -64.18167 -1.5236435 81.14348
v -62.042984 -1.5236435 82.20299
v -62.042984 1.536766 82.20299
v -64.18167 1.536766 81.14348
v -97.242615 -1.5138016 42.020767
v -97.242615 1.5433273 42.020767
v -98.210266 1.5433273 39.645905
v -98.210266 -1.5138016 39.645905
v -102.559784 -1.4744415 28.952515
v -102.559784 1.5826874 28.952515
v -103.524155 1.5826874 26.577667
v -103.524155 -1.4744415 26.577667
v -82.1505 -1.5334854 65.02467
v -82.1505 1.5269241 65.02467
v -83.62659 1.5269241 62.974564
v -83.62659 -1.5334854 62.974564
v -90.26567 -1.5138016 53.740845
v -90.26567 1.5433273 53.740845
v -91.741745 1.5433273 51.687454
v -91.741745 -1.5138016 51.687454
v -48.138306 -1.5400467 89.08481
v -48.138306 1.5170822 89.08481
v -50.276978 1.5170822 88.0253
v -50.276978 -1.5400467 88.0253
v -72.30339 -1.5302048 73.98941
v -72.30339 1.5269241 73.98941
v -74.15669 1.5269241 72.36572
v -74.15669 -1.5302048 72.36572
v -23.415573 -1.5564423 94.310135
v -23.415573 1.5006866 94.310135
v -25.721542 1.5006866 93.95259
v -25.721542 -1.5564423 93.95259
v -36.093475 -1.5170822 92.35187
v -36.093475 1.5400467 92.35187
v -38.399445 1.5400467 91.997604
v -38.399445 -1.5170822 91.997604
v -10.622864 -1.5269241 94.4807
v -10.622864 1.5302048 94.4807
v -12.981316 1.5302048 94.4807
v -12.981316 -1.5269241 94.4807
v 107.48334 1.4580383 1.1825027
v 107.48334 -1.5990906 1.1825027
v 107.48334 -1.5990906 -1.1759415
v 107.48334 1.4580383 -1.1759415
v -107.48334 1.4580383 1.1825027
v -107.48334 1.4580383 -1.1759415
v -107.48334 -1.5990906 -1.1759415
v -107.48334 -1.5990906 1.1825027
vt 0.66776335 0.63962835
vt 0.66776335 0.57753724
vt 0.6151976 0.57753724
vt 0.6151976 0.63962835
vt 0.66776335 0.63962835
vt 0.6151976 0.63962835
vt 0.6151976 0.57753724
vt 0.66776335 0.57753724
vt 0.6151976 0.57762545
vt 0.66776335 0.57762545
vt 0.66776335 0.63962835
vt 0.6151976 0.63962835
vt 0.6151976 0.57762545
vt 0.6151976 0.63962835
vt 0.66776335 0.63962835
vt 0.66776335 0.57762545
vt 0.66776335 0.57753724
vt 0.6151976 0.57753724
vt 0.6151976 0.63962835
vt 0.66776335 0.63962835
vt 0.6151976 0.57762545
vt 0.6151976 0.63962835
vt 0.66776335 0.63962835
vt 0.66776335 0.57762545
vt 0.6151976 0.57753724
vt 0.6151976 0.63962835
vt 0.66776335 0.63962835
vt 0.66776335 0.57753724
vt 0.6151976 0.57753724
vt 0.6151976 0.63962835
vt 0.66776335 0.63962835
vt 0.66776335 0.57753724
vt 0.6151976 0.57753724
vt 0.6151976 0.63962835
vt 0.66776335 0.63962835
vt 0.66776335 0.57753724
vt 0.6151976 0.57753724
vt 0.6151976 0.63962835
vt 0.66776335 0.63962835
vt 0.66776335 0.57753724
vt 0.6151976 0.57753724
vt 0.6151976 0.63962835
vt 0.66776335 0.63962835
vt 0.66776335 0.57753724
vt 0.6151976 0.57753724
vt 0.6151976 0.63962835
vt 0.66776335 0.63962835
vt 0.66776335 0.57753724
vt 0.6151976 0.57753724
vt 0.6151976 0.63962835
vt 0.66776335 0.63962835
vt 0.66776335 0.57753724
vt 0.6151976 0.57753724
vt 0.6151976 0.63962835
vt 0.66776335 0.63962835
vt 0.66776335 0.57753724
vt 0.6151976 0.57753724
vt 0.6151976 0.63962835
vt 0.66776335 0.63962835
vt 0.66776335 0.57753724
vt 0.66776335 0.57753724
vt 0.66776335 0.63962835
vt 0.6151976 0.63962835
vt 0.6151976 0.57753724
vt 0.6151976 0.57753724
vt 0.66776335 0.57753724
vt 0.66776335 0.63962835
vt 0.6151976 0.63962835
vt 0.6151976 0.57753724
vt 0.66776335 0.57753724
vt 0.66776335 0.63962835
vt 0.6151976 0.63962835
vt 0.6151976 0.57753724
vt 0.66776335 0.57753724
vt 0.66776335 0.63962835
vt 0.6151976 0.63962835
vt 0.6151976 0.57753724
vt 0.66776335 0.57753724
vt 0.66776335 0.63962835
vt 0.6151976 0.63962835
vt 0.6151976 0.57753724
vt 0.66776335 0.57753724
vt 0.66776335 0.63962835
vt 0.6151976 0.63962835
vt 0.6151976 0.57753724
vt 0.66776335 0.57753724
vt 0.66776335 0.63962835
vt 0.6151976 0.63962835
vt 0.6151976 0.57753724
vt 0.66776335 0.57753724
vt 0.66776335 0.63962835
vt 0.6151976 0.63962835
vt 0.6151976 0.57753724
vt 0.66776335 0.57753724
vt 0.66776335 0.63962835
vt 0.6151976 0.63962835
vt 0.6151976 0.57753724
vt 0.66776335 0.57753724
vt 0.66776335 0.63962835
vt 0.6151976 0.63962835
vt 0.66776335 0.57753724
vt 0.66776335 0.63962835
vt 0.6151976 0.63962835
vt 0.6151976 0.57753724
vt 0.6151976 0.57762545
vt 0.66776335 0.57762545
vt 0.66776335 0.63962835
vt 0.6151976 0.63962835
vt 0.6151976 0.57753724
vt 0.66776335 0.57753724
vt 0.66776335 0.63962835
vt 0.6151976 0.63962835
vt 0.6151976 0.57753724
vt 0.66776335 0.57753724
vt 0.66776335 0.63962835
vt 0.6151976 0.63962835
vt 0.6151976 0.57753724
vt 0.66776335 0.57753724
vt 0.66776335 0.63962835
vt 0.6151976 0.63962835
vt 0.6151976 0.57753724
vt 0.66776335 0.57753724
vt 0.66776335 0.63962835
vt 0.6151976 0.63962835
vt 0.6151976 0.57753724
vt 0.66776335 0.57753724
vt 0.66776335 0.63962835
vt 0.6151976 0.63962835
vt 0.6151976 0.57753724
vt 0.66776335 0.57753724
vt 0.66776335 0.63962835
vt 0.6151976 0.63962835
vt 0.6151976 0.57753724
vt 0.66776335 0.57753724
vt 0.66776335 0.63962835
vt 0.6151976 0.63962835
vt 0.6151976 0.57753724
vt 0.66776335 0.57753724
vt 0.66776335 0.63962835
vt 0.6151976 0.63962835
vt 0.6151976 0.57753724
vt 0.66776335 0.57753724
vt 0.66776335 0.63962835
vt 0.6151976 0.63962835
vt 0.66776335 0.57753724
vt 0.6151976 0.57753724
vt 0.6151976 0.63962835
vt 0.66776335 0.63962835
vt 0.6151976 0.57753724
vt 0.6151976 0.63962835
vt 0.66776335 0.63962835
vt 0.66776335 0.57753724
vt 0.6151976 0.57753724
vt 0.6151976 0.63962835
vt 0.66776335 0.63962835
vt 0.66776335 0.57753724
vt 0.6151976 0.57753724
vt 0.6151976 0.63962835
vt 0.66776335 0.63962835
vt 0.66776335 0.57753724
vt 0.6151976 0.57753724
vt 0.6151976 0.63962835
vt 0.66776335 0.63962835
vt 0.66776335 0.57753724
vt 0.6151976 0.57753724
vt 0.6151976 0.63962835
vt 0.66776335 0.63962835
vt 0.66776335 0.57753724
vt 0.6151976 0.57753724
vt 0.6151976 0.63962835
vt 0.66776335 0.63962835
vt 0.66776335 0.57753724
vt 0.6151976 0.57753724
vt 0.6151976 0.63962835
vt 0.66776335 0.63962835
vt 0.66776335 0.57753724
vt 0.6151976 0.57753724
vt 0.6151976 0.63962835
vt 0.66776335 0.63962835
vt 0.66776335 0.57753724
vt 0.6151976 0.57753724
vt 0.6151976 0.63962835
vt 0.66776335 0.63962835
vt 0.66776335 0.57753724
vt 0.66776335 0.63962835
vt 0.66776335 0.57753724
vt 0.6151976 0.57753724
vt 0.6151976 0.63962835
vt 0.66776335 0.63962835
vt 0.6151976 0.63962835
vt 0.6151976 0.57753724
vt 0.66776335 0.57753724
vn 0.0039215684 0.003921509 0.9999846
vn 0.0039215684 0.003921509 0.9999846
vn 0.0039215684 0.003921509 0.9999846
vn 0.0039215684 0.003921509 0.9999846
vn 0.0039215684 0.003921509 -0.9999846
vn 0.0039215684 0.003921509 -0.9999846
vn 0.0039215684 0.003921509 -0.9999846
vn 0.0039215684 0.003921509 -0.9999846
vn -0.99214923 0.003921509 -0.12499809
vn -0.99214923 0.003921509 -0.12499809
vn -0.99214923 0.003921509 -0.12499809
vn -0.99214923 0.003921509 -0.12499809
vn 0.9921493 0.003921509 -0.124997616
vn 0.9921493 0.003921509 -0.124997616
vn 0.9921493 0.003921509 -0.124997616
vn 0.9921493 0.003921509 -0.124997616
vn -0.44313383 0.003921509 0.8964469
vn -0.44313383 0.003921509 0.8964469
vn -0.44313383 0.003921509 0.8964469
vn -0.44313383 0.003921509 0.8964469
vn -0.99214923 0.003921509 0.12499809
vn -0.99214923 0.003921509 0.12499809
vn -0.99214923 0.003921509 0.12499809
vn -0.99214923 0.003921509 0.12499809
vn -0.9294046 0.003921509 0.36904156
vn -0.9294046 0.003921509 0.36904156
vn -0.9294046 0.003921509 0.36904156
vn -0.9294046 0.003921509 0.36904156
vn -0.9294046 0.003921509 0.36904156
vn -0.9294046 0.003921509 0.36904156
vn -0.9294046 0.003921509 0.36904156
vn -0.9294046 0.003921509 0.36904156
vn -0.8117584 0.003921509 0.58398026
vn -0.8117584 0.003921509 0.58398026
vn -0.8117584 0.003921509 0.58398026
vn -0.8117584 0.003921509 0.58398026
vn -0.8117584 0.003921509 0.58398026
vn -0.8117584 0.003921509 0.58398026
vn -0.8117584 0.003921509 0.58398026
vn -0.8117584 0.003921509 0.58398026
vn -0.44313383 0.003921509 0.8964469
vn -0.44313383 0.003921509 0.8964469
vn -0.44313383 0.003921509 0.8964469
vn -0.44313383 0.003921509 0.8964469
vn -0.65489686 0.003921509 0.7557081
vn -0.65489686 0.003921509 0.7557081
vn -0.65489686 0.003921509 0.7557081
vn -0.65489686 0.003921509 0.7557081
vn -0.15293992 0.003921509 0.9882277
vn -0.15293992 0.003921509 0.9882277
vn -0.15293992 0.003921509 0.9882277
vn -0.15293992 0.003921509 0.9882277
vn -0.15293992 0.003921509 0.9882277
vn -0.15293992 0.003921509 0.9882277
vn -0.15293992 0.003921509 0.9882277
vn -0.15293992 0.003921509 0.9882277
vn -0.003921509 0.003921509 0.9999846
vn -0.003921509 0.003921509 0.9999846
vn -0.003921509 0.003921509 0.9999846
vn -0.003921509 0.003921509 0.9999846
vn -0.44313383 0.003921509 -0.8964469
vn -0.44313383 0.003921509 -0.8964469
vn -0.44313383 0.003921509 -0.8964469
vn -0.44313383 0.003921509 -0.8964469
vn -0.9294046 0.003921509 -0.36904156
vn -0.9294046 0.003921509 -0.36904156
vn -0.9294046 0.003921509 -0.36904156
vn -0.9294046 0.003921509 -0.36904156
vn -0.9294046 0.003921509 -0.36904156
vn -0.9294046 0.003921509 -0.36904156
vn -0.9294046 0.003921509 -0.36904156
vn -0.9294046 0.003921509 -0.36904156
vn -0.8117584 0.003921509 -0.58398026
vn -0.8117584 0.003921509 -0.58398026
vn -0.8117584 0.003921509 -0.58398026
vn -0.8117584 0.003921509 -0.58398026
vn -0.8117584 0.003921509 -0.58398026
vn -0.8117584 0.003921509 -0.58398026
vn -0.8117584 0.003921509 -0.58398026
vn -0.8117584 0.003921509 -0.58398026
vn -0.44313383 0.003921509 -0.8964469
vn -0.44313383 0.003921509 -0.8964469
vn -0.44313383 0.003921509 -0.8964469
vn -0.44313383 0.003921509 -0.8964469
vn -0.65489686 0.003921509 -0.7557081
vn -0.65489686 0.003921509 -0.7557081
vn -0.65489686 0.003921509 -0.7557081
vn -0.65489686 0.003921509 -0.7557081
vn -0.15293992 0.003921509 -0.9882277
vn -0.15293992 0.003921509 -0.9882277
vn -0.15293992 0.003921509 -0.9882277
vn -0.15293992 0.003921509 -0.9882277
vn -0.15293992 0.003921509 -0.9882277
vn -0.15293992 0.003921509 -0.9882277
vn -0.15293992 0.003921509 -0.9882277
vn -0.15293992 0.003921509 -0.9882277
vn -0.003921509 0.003921509 -0.9999846
vn -0.003921509 0.003921509 -0.9999846
vn -0.003921509 0.003921509 -0.9999846
vn -0.003921509 0.003921509 -0.9999846
vn 0.4431339 0.003921509 0.8964469
vn 0.4431339 0.003921509 0.8964469
vn 0.4431339 0.003921509 0.8964469
vn 0.4431339 0.003921509 0.8964469
vn 0.9921493 0.003921509 0.124997616
vn 0.9921493 0.003921509 0.124997616
vn 0.9921493 0.003921509 0.124997616
vn 0.9921493 0.003921509 0.124997616
vn 0.9294047 0.003921509 0.36904138
vn 0.9294047 0.003921509 0.36904138
vn 0.9294047 0.003921509 0.36904138
vn 0.9294047 0.003921509 0.36904138
vn 0.9294047 0.003921509 0.36904138
vn 0.9294047 0.003921509 0.36904138
vn 0.9294047 0.003921509 0.36904138
vn 0.9294047 0.003921509 0.36904138
vn 0.8117585 0.003921509 0.5839801
vn 0.8117585 0.003921509 0.5839801
vn 0.8117585 0.003921509 0.5839801
vn 0.8117585 0.003921509 0.5839801
vn 0.8117585 0.003921509 0.5839801
vn 0.8117585 0.003921509 0.5839801
vn 0.8117585 0.003921509 0.5839801
vn 0.8117585 0.003921509 0.5839801
vn 0.4431339 0.003921509 0.8964469
vn 0.4431339 0.003921509 0.8964469
vn 0.4431339 0.003921509 0.8964469
vn 0.4431339 0.003921509 0.8964469
vn 0.654897 0.003921509 0.755708
vn 0.654897 0.003921509 0.755708
vn 0.654897 0.003921509 0.755708
vn 0.654897 0.003921509 0.755708
vn 0.15294003 0.003921509 0.98822767
vn 0.15294003 0.003921509 0.98822767
vn 0.15294003 0.003921509 0.98822767
vn 0.15294003 0.003921509 0.98822767
vn 0.15294003 0.003921509 0.98822767
vn 0.15294003 0.003921509 0.98822767
vn 0.15294003 0.003921509 0.98822767
vn 0.15294003 0.003921509 0.98822767
vn 0.0039215684 0.003921509 0.9999846
vn 0.0039215684 0.003921509 0.9999846
vn 0.0039215684 0.003921509 0.9999846
vn 0.0039215684 0.003921509 0.9999846
vn 0.4431339 0.003921509 -0.8964469
vn 0.4431339 0.003921509 -0.8964469
vn 0.4431339 0.003921509 -0.8964469
vn 0.4431339 0.003921509 -0.8964469
vn 0.9294047 0.003921509 -0.36904138
vn 0.9294047 0.003921509 -0.36904138
vn 0.9294047 0.003921509 -0.36904138
vn 0.9294047 0.003921509 -0.36904138
vn 0.9294047 0.003921509 -0.36904138
vn 0.9294047 0.003921509 -0.36904138
vn 0.9294047 0.003921509 -0.36904138
vn 0.9294047 0.003921509 -0.36904138
vn 0.8117585 0.003921509 -0.5839801
vn 0.8117585 0.003921509 -0.5839801
vn 0.8117585 0.003921509 -0.5839801
vn 0.8117585 0.003921509 -0.5839801
vn 0.8117585 0.003921509 -0.5839801
vn 0.8117585 0.003921509 -0.5839801
vn 0.8117585 0.003921509 -0.5839801
vn 0.8117585 0.003921509 -0.5839801
vn 0.4431339 0.003921509 -0.8964469
vn 0.4431339 0.003921509 -0.8964469
vn 0.4431339 0.003921509 -0.8964469
vn 0.4431339 0.003921509 -0.8964469
vn 0.654897 0.003921509 -0.755708
vn 0.654897 0.003921509 -0.755708
vn 0.654897 0.003921509 -0.755708
vn 0.654897 0.003921509 -0.755708
vn 0.15294003 0.003921509 -0.98822767
vn 0.15294003 0.003921509 -0.98822767
vn 0.15294003 0.003921509 -0.98822767
vn 0.15294003 0.003921509 -0.98822767
vn 0.15294003 0.003921509 -0.98822767
vn 0.15294003 0.003921509 -0.98822767
vn 0.15294003 0.003921509 -0.98822767
vn 0.15294003 0.003921509 -0.98822767
vn 0.0039215684 0.003921509 -0.9999846
vn 0.0039215684 0.003921509 -0.9999846
vn 0.0039215684 0.003921509 -0.9999846
vn 0.0039215684 0.003921509 -0.9999846
vn -0.99999225 0.003921509 -0.00034492963
vn -0.99999225 0.003921509 -0.00034492963
vn -0.99999225 0.003921509 -0.00034492963
vn -0.99999225 0.003921509 -0.00034492963
vn 0.9999924 0.003921509 -0
vn 0.9999924 0.003921509 -0
vn 0.9999924 0.003921509 -0
vn 0.9999924 0.003921509 -0
g mid_arena_pillars_0
f 3/3/3 2/2/2 1/1/1
f 4/4/4 3/3/3 1/1/1
f 7/7/7 6/6/6 5/5/5
f 8/8/8 7/7/7 5/5/5
f 11/11/11 10/10/10 9/9/9
f 12/12/12 11/11/11 9/9/9
f 15/15/15 14/14/14 13/13/13
f 16/16/16 15/15/15 13/13/13
f 19/19/19 18/18/18 17/17/17
f 20/20/20 19/19/19 17/17/17
f 23/23/23 22/22/22 21/21/21
f 24/24/24 23/23/23 21/21/21
f 27/27/27 26/26/26 25/25/25
f 28/28/28 27/27/27 25/25/25
f 31/31/31 30/30/30 29/29/29
f 32/32/32 31/31/31 29/29/29
f 35/35/35 34/34/34 33/33/33
f 36/36/36 35/35/35 33/33/33
f 39/39/39 38/38/38 37/37/37
f 40/40/40 39/39/39 37/37/37
f 43/43/43 42/42/42 41/41/41
f 44/44/44 43/43/43 41/41/41
f 47/47/47 46/46/46 45/45/45
f 48/48/48 47/47/47 45/45/45
f 51/51/51 50/50/50 49/49/49
f 52/52/52 51/51/51 49/49/49
f 55/55/55 54/54/54 53/53/53
f 56/56/56 55/55/55 53/53/53
f 59/59/59 58/58/58 57/57/57
f 60/60/60 59/59/59 57/57/57
f 63/63/63 62/62/62 61/61/61
f 64/64/64 63/63/63 61/61/61
f 67/67/67 66/66/66 65/65/65
f 68/68/68 67/67/67 65/65/65
f 71/71/71 70/70/70 69/69/69
f 72/72/72 71/71/71 69/69/69
f 75/75/75 74/74/74 73/73/73
f 76/76/76 75/75/75 73/73/73
f 79/79/79 78/78/78 77/77/77
f 80/80/80 79/79/79 77/77/77
f 83/83/83 82/82/82 81/81/81
f 84/84/84 83/83/83 81/81/81
f 87/87/87 86/86/86 85/85/85
f 88/88/88 87/87/87 85/85/85
f 91/91/91 90/90/90 89/89/89
f 92/92/92 91/91/91 89/89/89
f 95/95/95 94/94/94 93/93/93
f 96/96/96 95/95/95 93/93/93
f 99/99/99 98/98/98 97/97/97
f 100/100/100 99/99/99 97/97/97
f 103/103/103 102/102/102 101/101/101
f 104/104/104 103/103/103 101/101/101
f 107/107/107 106/106/106 105/105/105
f 108/108/108 107/107/107 105/105/105
f 111/111/111 110/110/110 109/109/109
f 112/112/112 111/111/111 109/109/109
f 115/115/115 114/114/114 113/113/113
f 116/116/116 115/115/115 113/113/113
f 119/119/119 118/118/118 117/117/117
f 120/120/120 119/119/119 117/117/117
f 123/123/123 122/122/122 121/121/121
f 124/124/124 123/123/123 121/121/121
f 127/127/127 126/126/126 125/125/125
f 128/128/128 127/127/127 125/125/125
f 131/131/131 130/130/130 129/129/129
f 132/132/132 131/131/131 129/129/129
f 135/135/135 134/134/134 133/133/133
f 136/136/136 135/135/135 133/133/133
f 139/139/139 138/138/138 137/137/137
f 140/140/140 139/139/139 137/137/137
f 143/143/143 142/142/142 141/141/141
f 144/144/144 143/143/143 141/141/141
f 147/147/147 146/146/146 145/145/145
f 148/148/148 147/147/147 145/145/145
f 151/151/151 150/150/150 149/149/149
f 152/152/152 151/151/151 149/149/149
f 155/155/155 154/154/154 153/153/153
f 156/156/156 155/155/155 153/153/153
f 159/159/159 158/158/158 157/157/157
f 160/160/160 159/159/159 157/157/157
f 163/163/163 162/162/162 161/161/161
f 164/164/164 163/163/163 161/161/161
f 167/167/167 166/166/166 165/165/165
f 168/168/168 167/167/167 165/165/165
f 171/171/171 170/170/170 169/169/169
f 172/172/172 171/171/171 169/169/169
f 175/175/175 174/174/174 173/173/173
f 176/176/176 175/175/175 173/173/173
f 179/179/179 178/178/178 177/177/177
f 180/180/180 179/179/179 177/177/177
f 183/183/183 182/182/182 181/181/181
f 184/184/184 183/183/183 181/181/181
f 187/187/187 186/186/186 185/185/185
f 188/188/188 187/187/187 185/185/185
f 191/191/191 190/190/190 189/189/189
f 192/192/192 191/191/191 189/189/189
