g Monitors
v -1.2330818 0.06589961 0.13780951
v -1.2330818 0.06589961 -0.13780951
v -1.2330818 -0.06589961 -0.13780951
v -1.2330818 -0.06589961 0.13780951
v -0.13780951 0.06589961 -1.2330818
v 0.13780951 0.06589961 -1.2330818
v 0.13780951 -0.06589961 -1.2330818
v -0.13780951 -0.06589961 -1.2330818
v 1.2330818 0.06589961 -0.13780951
v 1.2330818 0.06589961 0.13780951
v 1.2330818 -0.06589961 0.13780951
v 1.2330818 -0.06589961 -0.13780951
v 0.13780951 0.06589961 1.2330818
v -0.13780951 0.06589961 1.2330818
v -0.13780951 -0.06589961 1.2330818
v 0.13780951 -0.06589961 1.2330818
vt 0.04847396 0.97576296
vt 0.95152485 0.97576296
vt 0.95152485 0.5242376
vt 0.04847396 0.5242376
vt 0.04847396 0.97576296
vt 0.95152485 0.97576296
vt 0.95152485 0.5242376
vt 0.04847396 0.5242376
vt 0.04847396 0.97576296
vt 0.95152485 0.97576296
vt 0.95152485 0.5242376
vt 0.04847396 0.5242376
vt 0.04847396 0.97576296
vt 0.95152485 0.97576296
vt 0.95152485 0.5242376
vt 0.04847396 0.5242376
vn 0.9999995 0.0009775162 -0
vn 0.9999995 0.0009775162 -0
vn 0.9999995 0.0009775162 -0
vn 0.9999995 0.0009775162 -0
vn -0.0009775162 0.0009775162 0.99999905
vn -0.0009775162 0.0009775162 0.99999905
vn -0.0009775162 0.0009775162 0.99999905
vn -0.0009775162 0.0009775162 0.99999905
vn -0.9999995 0.0009775162 -0
vn -0.9999995 0.0009775162 -0
vn -0.9999995 0.0009775162 -0
vn -0.9999995 0.0009775162 -0
vn -0.0009775162 0.0009775162 -0.99999905
vn -0.0009775162 0.0009775162 -0.99999905
vn -0.0009775162 0.0009775162 -0.99999905
vn -0.0009775162 0.0009775162 -0.99999905
g Monitors_0
f 3/3/3 2/2/2 1/1/1
f 4/4/4 3/3/3 1/1/1
f 7/7/7 6/6/6 5/5/5
f 8/8/8 7/7/7 5/5/5
f 11/11/11 10/10/10 9/9/9
f 12/12/12 11/11/11 9/9/9
f 15/15/15 14/14/14 13/13/13
f 16/16/16 15/15/15 13/13/13
