g motionGraphicPokeballGeo
v 0.002726031 0 0.00110815
v 0.002859411 0 0.0007661724
v 0.008358328 5.960464E-10 0.00110815
v 0.002960274 0 0
v 0.00844554 5.960464E-10 -1.907349E-08
v 0.008358328 5.960464E-10 -0.00110815
v 0.002859411 0 -0.0007661724
v 0.002726031 0 -0.00110815
v 0.008358328 5.960464E-10 0.00110815
v 0.008341561 5.960464E-10 0.001321192
v 0.002726031 0 0.00110815
v 0.008032185 5.960464E-10 0.002609825
v 0.007525031 5.960464E-10 0.003834209
v 0.002563672 0 0.001480141
v 0.006832585 5.960464E-10 0.004964171
v 0.002093229 0 0.002093229
v 0.005971897 5.960464E-10 0.005971899
v 0.004964163 5.960464E-10 0.00683259
v 0.001480136 0 0.002563677
v 0.003834194 5.960464E-10 0.007525034
v 0.0007661745 0 0.002859411
v 0.002609814 5.960464E-10 0.008032188
v 0.001321172 5.960464E-10 0.008341569
v 3.350925E-10 0 0.002960272
v 1.822255E-09 5.960464E-10 0.008445558
v -0.001321172 5.960464E-10 0.008341569
v -0.0007661743 0 0.002859411
v -0.002609814 5.960464E-10 0.008032188
v -0.003834193 5.960464E-10 0.007525034
v -0.001480136 0 0.002563677
v -0.004964164 5.960464E-10 0.00683259
v -0.002093229 0 0.002093229
v -0.005971897 5.960464E-10 0.005971899
v -0.006832585 5.960464E-10 0.004964171
v -0.002563671 0 0.001480141
v -0.007525031 5.960464E-10 0.003834209
v -0.002726031 0 0.00110815
v -0.008032185 5.960464E-10 0.002609825
v -0.008341561 5.960464E-10 0.001321192
v -0.008358328 5.960464E-10 0.00110815
v -0.002726031 0 0.00110815
v -0.008358328 5.960464E-10 0.00110815
v -0.002859411 0 0.0007661724
v -0.002960273 0 0
v -0.00844554 5.960464E-10 -1.907349E-08
v -0.008358328 5.960464E-10 -0.00110815
v -0.002859411 0 -0.0007661724
v -0.002726031 0 -0.00110815
v 0.008358328 5.960464E-10 -0.00110815
v 0.002726031 0 -0.00110815
v 0.008341561 5.960464E-10 -0.001321192
v 0.008032185 5.960464E-10 -0.002609825
v 0.007525031 5.960464E-10 -0.003834209
v 0.002563672 0 -0.001480141
v 0.006832585 5.960464E-10 -0.004964171
v 0.002093229 0 -0.002093229
v 0.005971897 5.960464E-10 -0.005971899
v 0.004964163 5.960464E-10 -0.00683259
v 0.001480136 0 -0.002563677
v 0.003834194 5.960464E-10 -0.007525034
v 0.0007661745 0 -0.002859411
v 0.002609814 5.960464E-10 -0.008032188
v 0.001321172 5.960464E-10 -0.008341551
v 3.350925E-10 0 -0.002960272
v 1.822255E-09 5.960464E-10 -0.008445558
v -0.001321172 5.960464E-10 -0.008341569
v -0.0007661743 0 -0.002859411
v -0.002609814 5.960464E-10 -0.008032188
v -0.003834193 5.960464E-10 -0.007525034
v -0.001480136 0 -0.002563677
v -0.004964164 5.960464E-10 -0.00683259
v -0.002093229 0 -0.002093229
v -0.005971897 5.960464E-10 -0.005971899
v -0.006832585 5.960464E-10 -0.004964171
v -0.002563671 0 -0.001480141
v -0.007525031 5.960464E-10 -0.003834209
v -0.002726031 0 -0.00110815
v -0.008032185 5.960464E-10 -0.002609806
v -0.008341561 5.960464E-10 -0.001321192
v -0.008358328 5.960464E-10 -0.00110815
v 0.002279399 0 0
v 0.002960274 0 0
v 0.002201731 0 0.0005899525
v 0.002201731 0 -0.0005899525
v 0.002859411 0 0.0007661724
v 0.002859411 0 -0.0007661724
v 0.002726031 0 0.00110815
v 0.002726031 0 -0.00110815
v 0.001974017 0 0.001139698
v 0.001974017 0 -0.001139698
v 0.002563672 0 0.001480141
v 0.002563672 0 -0.001480141
v 0.001611778 0 0.001611786
v 0.001611778 0 -0.001611786
v 0.002093229 0 0.002093229
v 0.002093229 0 -0.002093229
v 0.001139699 0 0.001974029
v 0.001139699 0 -0.001974029
v 0.001480136 0 0.002563677
v 0.001480136 0 -0.002563677
v 0.0005899517 0 0.002201738
v 0.0005899517 0 -0.002201738
v 0.0007661745 0 0.002859411
v 0.0007661745 0 -0.002859411
v 3.553841E-10 0 0.002279405
v 3.350925E-10 0 0.002960272
v -0.0007661743 0 0.002859411
v -0.0005899518 0 0.002201738
v -0.001480136 0 0.002563677
v -0.001139699 0 0.001974029
v -0.002093229 0 0.002093229
v -0.001611778 0 0.001611786
v -0.002563671 0 0.001480141
v -0.001974017 0 0.001139698
v -0.002726031 0 0.00110815
v 3.553841E-10 0 -0.002279405
v 3.350925E-10 0 -0.002960272
v -0.0007661743 0 -0.002859411
v -0.0005899518 0 -0.002201738
v -0.001480136 0 -0.002563677
v -0.001139699 0 -0.00197401
v -0.002093229 0 -0.002093229
v -0.001611778 0 -0.001611786
v -0.002563671 0 -0.001480141
v -0.001974017 0 -0.001139698
v -0.002726031 0 -0.00110815
v -0.002202779 0 -0.0005922318
v -0.002859411 0 -0.0007661724
v -0.002279399 0 0
v -0.002960273 0 0
v -0.002201731 0 0.0005899525
v -0.002859411 0 0.0007661724
v -0.008032185 5.960464E-10 -0.002609806
v -0.008341561 5.960464E-10 -0.001321192
v -0.00888823 5.960464E-10 -0.001407776
v -0.008358328 5.960464E-10 -0.00110815
v -0.008558579 5.960464E-10 -0.002780857
v -0.007525031 5.960464E-10 -0.003834209
v -0.008018187 5.960464E-10 -0.004085483
v -0.006832585 5.960464E-10 -0.004964171
v -0.007280362 5.960464E-10 -0.005289497
v -0.005971897 5.960464E-10 -0.005971899
v -0.006363269 5.960464E-10 -0.006363277
v -0.004964164 5.960464E-10 -0.00683259
v -0.005289494 5.960464E-10 -0.007280378
v -0.003834193 5.960464E-10 -0.007525034
v -0.004085469 5.960464E-10 -0.008018197
v -0.002609814 5.960464E-10 -0.008032188
v -0.002780849 5.960464E-10 -0.008558588
v -0.001321172 5.960464E-10 -0.008341569
v -0.001407755 5.960464E-10 -0.008888245
v 1.822255E-09 5.960464E-10 -0.008445558
v 2.025392E-09 5.960464E-10 -0.008999042
v 0.001407756 5.960464E-10 -0.008888245
v 0.001321172 5.960464E-10 -0.008341551
v 0.00278085 5.960464E-10 -0.008558588
v 0.002609814 5.960464E-10 -0.008032188
v 0.00408547 5.960464E-10 -0.008018197
v 0.003834194 5.960464E-10 -0.007525034
v 0.005289493 5.960464E-10 -0.007280378
v 0.004964163 5.960464E-10 -0.00683259
v 0.006363269 5.960464E-10 -0.006363277
v 0.005971897 5.960464E-10 -0.005971899
v 0.007280362 5.960464E-10 -0.005289497
v 0.006832585 5.960464E-10 -0.004964171
v 0.008018187 5.960464E-10 -0.004085483
v 0.007525031 5.960464E-10 -0.003834209
v 0.008558579 5.960464E-10 -0.002780857
v 0.008032185 5.960464E-10 -0.002609825
v 0.00888823 5.960464E-10 -0.001407776
v 0.008341561 5.960464E-10 -0.001321192
v 0.008358328 5.960464E-10 -0.00110815
v 0.008999023 5.960464E-10 -1.907349E-08
v 0.00844554 5.960464E-10 -1.907349E-08
v 0.008358328 5.960464E-10 0.00110815
v 0.00888823 5.960464E-10 0.001407776
v 0.008341561 5.960464E-10 0.001321192
v 0.008032185 5.960464E-10 0.002609825
v 0.008558579 5.960464E-10 0.002780857
v 0.007525031 5.960464E-10 0.003834209
v 0.008018187 5.960464E-10 0.004085483
v 0.006832585 5.960464E-10 0.004964171
v 0.007280362 5.960464E-10 0.005289497
v 0.005971897 5.960464E-10 0.005971899
v 0.006363269 5.960464E-10 0.006363277
v 0.004964163 5.960464E-10 0.00683259
v 0.005289493 5.960464E-10 0.007280378
v 0.003834194 5.960464E-10 0.007525034
v 0.00408547 5.960464E-10 0.008018197
v 0.002609814 5.960464E-10 0.008032188
v 0.00278085 5.960464E-10 0.008558588
v 0.001321172 5.960464E-10 0.008341569
v 0.001407756 5.960464E-10 0.008888245
v 1.822255E-09 5.960464E-10 0.008445558
v 2.025392E-09 5.960464E-10 0.008999042
v -0.001407755 5.960464E-10 0.008888245
v -0.001321172 5.960464E-10 0.008341569
v -0.002780849 5.960464E-10 0.008558588
v -0.002609814 5.960464E-10 0.008032188
v -0.004085469 5.960464E-10 0.008018197
v -0.003834193 5.960464E-10 0.007525034
v -0.005289494 5.960464E-10 0.007280378
v -0.004964164 5.960464E-10 0.00683259
v -0.006363269 5.960464E-10 0.006363277
v -0.005971897 5.960464E-10 0.005971899
v -0.007280362 5.960464E-10 0.005289497
v -0.006832585 5.960464E-10 0.004964171
v -0.008018187 5.960464E-10 0.004085483
v -0.007525031 5.960464E-10 0.003834209
v -0.008558579 5.960464E-10 0.002780857
v -0.008032185 5.960464E-10 0.002609825
v -0.00888823 5.960464E-10 0.001407776
v -0.008341561 5.960464E-10 0.001321192
v -0.008358328 5.960464E-10 0.00110815
v -0.008999023 5.960464E-10 -1.907349E-08
v -0.00844554 5.960464E-10 -1.907349E-08
v -0.001974017 0 -0.001139698
v 8.36584E-11 0 0
v -0.002202779 0 -0.0005922318
v -0.001611778 0 -0.001611786
v -0.002279399 0 0
v -0.001139699 0 -0.00197401
v -0.002201731 0 0.0005899525
v -0.0005899518 0 -0.002201738
v -0.001974017 0 0.001139698
v 3.553841E-10 0 -0.002279405
v -0.001611778 0 0.001611786
v 0.0005899517 0 -0.002201738
v -0.001139699 0 0.001974029
v 0.001139699 0 -0.001974029
v -0.0005899518 0 0.002201738
v 0.001611778 0 -0.001611786
v 3.553841E-10 0 0.002279405
v 0.001974017 0 -0.001139698
v 0.0005899517 0 0.002201738
v 0.002201731 0 -0.0005899525
v 0.001139699 0 0.001974029
v 0.002279399 0 0
v 0.001611778 0 0.001611786
v 0.002201731 0 0.0005899525
v 0.001974017 0 0.001139698
vt 0.1917194 0.922702
vt 0.1921485 0.9238021
vt 0.2098377 0.922702
vt 0.1924729 0.9262667
vt 0.2101182 0.9262668
vt 0.2098377 0.9298314
vt 0.1921485 0.9287314
vt 0.1917194 0.9298314
vt 0.7965011 0.9267014
vt 0.7964864 0.9265141
vt 0.7915501 0.9267014
vt 0.7962144 0.9253814
vt 0.7957686 0.9243051
vt 0.7914074 0.9263744
vt 0.7951599 0.9233118
vt 0.790994 0.9258355
vt 0.7944034 0.922426
vt 0.7935175 0.9216695
vt 0.7904549 0.9254219
vt 0.7925243 0.9210608
vt 0.7898274 0.925162
vt 0.7914479 0.920615
vt 0.7903152 0.9203429
vt 0.7891539 0.9250733
vt 0.7891539 0.9202516
vt 0.7879926 0.9203429
vt 0.7884805 0.925162
vt 0.7868598 0.920615
vt 0.7857835 0.9210608
vt 0.7878529 0.9254219
vt 0.7847903 0.9216695
vt 0.7873138 0.9258355
vt 0.7839044 0.922426
vt 0.7831478 0.9233118
vt 0.7869003 0.9263744
vt 0.7825391 0.9243051
vt 0.7867576 0.9267014
vt 0.7820933 0.9253814
vt 0.7818214 0.9265141
vt 0.7818066 0.9267014
vt 0.2099277 0.922702
vt 0.1918094 0.922702
vt 0.2094986 0.9238021
vt 0.2091741 0.9262667
vt 0.1915288 0.9262668
vt 0.1918094 0.9298314
vt 0.2094986 0.9287314
vt 0.2099277 0.9298314
vt 0.7907166 0.9230551
vt 0.7865542 0.9230551
vt 0.7907043 0.9232126
vt 0.7904756 0.924165
vt 0.7901008 0.9250698
vt 0.7864342 0.9233301
vt 0.789589 0.9259049
vt 0.7860865 0.9237831
vt 0.788953 0.9266497
vt 0.7882083 0.9272857
vt 0.7856334 0.9241308
vt 0.7873731 0.9277975
vt 0.7851058 0.9243494
vt 0.7864683 0.9281723
vt 0.785516 0.9284009
vt 0.7845395 0.9244239
vt 0.7845395 0.9284779
vt 0.7835631 0.9284009
vt 0.7839733 0.9243494
vt 0.7826107 0.9281723
vt 0.7817059 0.9277975
vt 0.7834457 0.9241308
vt 0.7808707 0.9272857
vt 0.7829925 0.9237831
vt 0.780126 0.9266497
vt 0.7794899 0.9259049
vt 0.7826449 0.9233301
vt 0.7789782 0.9250698
vt 0.7825248 0.9230551
vt 0.7786034 0.9241649
vt 0.7783747 0.9232126
vt 0.7783623 0.9230551
vt 0.2069242 0.9261723
vt 0.2085527 0.9261723
vt 0.2067384 0.9247611
vt 0.2067384 0.9275832
vt 0.2083115 0.9243397
vt 0.2083115 0.9280047
vt 0.2079924 0.9235218
vt 0.2079924 0.9288228
vt 0.2061937 0.9234462
vt 0.2061937 0.9288982
vt 0.2076042 0.922632
vt 0.2076042 0.9297125
vt 0.2053273 0.922317
vt 0.2053273 0.9300274
vt 0.2064788 0.9211655
vt 0.2064788 0.9311788
vt 0.2041981 0.9214506
vt 0.2041981 0.9308938
vt 0.2050125 0.9200404
vt 0.2050125 0.9323041
vt 0.2028833 0.9209061
vt 0.2028833 0.9314384
vt 0.2033048 0.919333
vt 0.2033048 0.9330115
vt 0.2014722 0.9207202
vt 0.2014722 0.9190917
vt 0.1996397 0.919333
vt 0.2000611 0.9209061
vt 0.1979319 0.9200404
vt 0.1987462 0.9214506
vt 0.1964655 0.9211655
vt 0.1976171 0.922317
vt 0.1953403 0.922632
vt 0.1967507 0.9234462
vt 0.1949519 0.9235218
vt 0.2014722 0.9316242
vt 0.2014722 0.9332527
vt 0.1996397 0.9330115
vt 0.2000611 0.9314384
vt 0.1979319 0.9323041
vt 0.1987462 0.9308937
vt 0.1964655 0.9311788
vt 0.1976171 0.9300274
vt 0.1953403 0.9297125
vt 0.1967507 0.9288982
vt 0.1949519 0.9288228
vt 0.1962035 0.9275887
vt 0.1946329 0.9280047
vt 0.1960203 0.9261723
vt 0.1943916 0.9261723
vt 0.196206 0.9247611
vt 0.1946329 0.9243397
vt 0.1943087 0.9276404
vt 0.1940648 0.9266245
vt 0.1936338 0.9266927
vt 0.1940516 0.9264565
vt 0.1938937 0.9277752
vt 0.1947085 0.9286057
vt 0.1943197 0.9288037
vt 0.1952545 0.9294965
vt 0.1949015 0.9297531
vt 0.195933 0.9302911
vt 0.1956245 0.9305996
vt 0.1967275 0.9309696
vt 0.1964711 0.9313227
vt 0.1976184 0.9315156
vt 0.1974203 0.9319044
vt 0.1985837 0.9319154
vt 0.1984489 0.9323304
vt 0.1995997 0.9321593
vt 0.1995314 0.9325902
vt 0.2006413 0.9322412
vt 0.2006413 0.9326776
vt 0.2017511 0.9325902
vt 0.2016829 0.9321593
vt 0.2028337 0.9323304
vt 0.2026988 0.9319154
vt 0.2038622 0.9319044
vt 0.2036641 0.9315156
vt 0.2048115 0.9313227
vt 0.2045549 0.9309696
vt 0.205658 0.9305996
vt 0.2053495 0.9302911
vt 0.2063811 0.9297531
vt 0.206028 0.9294965
vt 0.2069627 0.9288037
vt 0.2065739 0.9286057
vt 0.2073888 0.9277752
vt 0.2069738 0.9276404
vt 0.2076487 0.9266927
vt 0.2072177 0.9266245
vt 0.207231 0.9264565
vt 0.207736 0.9255828
vt 0.2072997 0.9255828
vt 0.207231 0.9247091
vt 0.2076487 0.9244728
vt 0.2072177 0.9245412
vt 0.2069738 0.9235253
vt 0.2073888 0.9233903
vt 0.2065739 0.92256
vt 0.2069627 0.9223618
vt 0.206028 0.921669
vt 0.2063811 0.9214125
vt 0.2053495 0.9208745
vt 0.205658 0.920566
vt 0.2045549 0.920196
vt 0.2048115 0.919843
vt 0.2036641 0.91965
vt 0.2038622 0.9192612
vt 0.2026988 0.9192502
vt 0.2028337 0.9188352
vt 0.2016829 0.9190063
vt 0.2017511 0.9185753
vt 0.2006413 0.9189243
vt 0.2006413 0.918488
vt 0.1995314 0.9185753
vt 0.1995997 0.9190063
vt 0.1984489 0.9188352
vt 0.1985837 0.9192502
vt 0.1974203 0.9192612
vt 0.1976184 0.91965
vt 0.1964711 0.919843
vt 0.1967275 0.920196
vt 0.1956245 0.920566
vt 0.195933 0.9208745
vt 0.1949015 0.9214125
vt 0.1952545 0.921669
vt 0.1943197 0.9223618
vt 0.1947085 0.92256
vt 0.1938937 0.9233903
vt 0.1943087 0.9235253
vt 0.1936338 0.9244728
vt 0.1940648 0.9245412
vt 0.1940516 0.9247091
vt 0.1935465 0.9255828
vt 0.1939828 0.9255828
vt 0.7803094 0.9289088
vt 0.7865831 0.9252867
vt 0.7795823 0.9271689
vt 0.7814606 0.9304093
vt 0.7793388 0.9252867
vt 0.782961 0.9315605
vt 0.7795857 0.9234117
vt 0.7847082 0.9322842
vt 0.7803094 0.9216645
vt 0.7865831 0.9325311
vt 0.7814606 0.920164
vt 0.7884582 0.9322842
vt 0.782961 0.9190128
vt 0.7902054 0.9315605
vt 0.7847082 0.9182891
vt 0.7917058 0.9304093
vt 0.7865831 0.9180422
vt 0.792857 0.9289088
vt 0.7884582 0.9182891
vt 0.7935807 0.9271616
vt 0.7902054 0.9190128
vt 0.7938276 0.9252867
vt 0.7917058 0.920164
vt 0.7935807 0.9234117
vt 0.792857 0.9216645
vn -1.058265E-07 1 0
vn -1.069024E-07 1 0
vn -1.085555E-07 1 0
vn -1.076995E-07 1 0
vn -1.086632E-07 1 0
vn -1.085554E-07 1 0
vn -1.069024E-07 1 0
vn -1.058265E-07 1 0
vn -1.058265E-07 1 0
vn -1.052883E-07 1 0
vn -1.012768E-07 1 0
vn -1.029313E-07 1 0
vn 0 1 0
vn 0 1 0
vn 0 1 0
vn 0 1 0
vn 0 1 0
vn 0 1 0
vn 0 1 0
vn 0 1 0
vn 0 1 -1.081567E-07
vn 0 1 -1.032142E-07
vn 0 1 -1.081566E-07
vn 0 1 -1.081566E-07
vn 0 1 -1.081566E-07
vn 0 1 -1.081566E-07
vn 0 1 -1.081566E-07
vn 0 1 -1.032142E-07
vn 0 1 0
vn 0 1 0
vn 0 1 0
vn 0 1 0
vn 0 1 0
vn 0 1 0
vn 0 1 0
vn 0 1 0
vn 1.012768E-07 1 0
vn 1.029313E-07 1 0
vn 1.052883E-07 1 0
vn 1.058265E-07 1 0
vn 1.058265E-07 1 0
vn 1.085554E-07 1 0
vn 1.069024E-07 1 0
vn 1.076994E-07 1 0
vn 1.086632E-07 1 0
vn 1.085554E-07 1 0
vn 1.069024E-07 1 0
vn 1.058265E-07 1 0
vn -1.058265E-07 1 0
vn -1.012768E-07 1 0
vn -1.052883E-07 1 0
vn -1.029313E-07 1 0
vn 0 1 0
vn 0 1 0
vn 0 1 0
vn 0 1 0
vn 0 1 0
vn 0 1 0
vn 0 1 0
vn 0 1 0
vn 0 1 1.081568E-07
vn 0 1 1.032144E-07
vn 0 1 1.081568E-07
vn 0 1 1.081568E-07
vn 0 1 1.081568E-07
vn 0 1 1.081566E-07
vn 0 1 1.081566E-07
vn 0 1 1.032142E-07
vn 0 1 0
vn 0 1 0
vn 0 1 0
vn 0 1 0
vn 0 1 0
vn 0 1 0
vn 0 1 0
vn 0 1 0
vn 1.012769E-07 1 0
vn 1.029314E-07 1 0
vn 1.052883E-07 1 0
vn 1.058265E-07 1 0
vn 0 1 0
vn 0 1 0
vn 0 1 0
vn 0 1 0
vn 0 1 0
vn 0 1 0
vn 0 1 0
vn 0 1 0
vn 0 1 0
vn 0 1 0
vn 0 1 0
vn 0 1 0
vn 0 1 0
vn 0 1 0
vn 0 1 0
vn 0 1 0
vn 0 1 0
vn 0 1 0
vn 0 1 0
vn 0 1 0
vn 0 1 0
vn 0 1 0
vn 0 1 0
vn 0 1 0
vn 0 1 0
vn 0 1 0
vn 0 1 0
vn 0 1 0
vn 0 1 0
vn 0 1 0
vn 0 1 0
vn 0 1 0
vn 0 1 0
vn 0 1 0
vn 0 1 0
vn 0 1 0
vn 0 1 0
vn 0 1 0
vn 0 1 0
vn 0 1 0
vn 0 1 0
vn 0 1 0
vn 0 1 0
vn 0 1 0
vn 0 1 0
vn 0 1 0
vn 0 1 0
vn 0 1 0
vn 0 1 0
vn 0 1 0
vn 0 1 0
vn 0 1 0
vn 0 1 0
vn 0 1 0
vn 0 1 0
vn 0 1 0
vn 0 1 0
vn 0 1 0
vn 0 1 0
vn 0 1 0
vn 0 1 0
vn 0 1 0
vn 0 1 0
vn 0 1 0
vn 0 1 0
vn 0 1 0
vn 0 1 0
vn 0 1 0
vn 0 1 0
vn 0 1 0
vn 0 1 0
vn 0 1 0
vn 0 1 0
vn 0 1 0
vn 0 1 0
vn 0 1 0
vn 0 1 0
vn 0 1 0
vn 0 1 0
vn 0 1 0
vn 0 1 0
vn 0 1 0
vn 0 1 0
vn 0 1 0
vn 0 1 0
vn 0 1 0
vn 0 1 0
vn 0 1 0
vn 0 1 0
vn 0 1 0
vn 0 1 0
vn 0 1 0
vn 0 1 0
vn 0 1 0
vn 0 1 0
vn 0 1 0
vn 0 1 0
vn 0 1 0
vn 0 1 0
vn 0 1 0
vn 0 1 0
vn 0 1 0
vn 0 1 0
vn 0 1 0
vn 0 1 0
vn 0 1 0
vn 0 1 0
vn 0 1 0
vn 0 1 0
vn 0 1 0
vn 0 1 0
vn 0 1 0
vn 0 1 0
vn 0 1 0
vn 0 1 0
vn 0 1 0
vn 0 1 0
vn 0 1 0
vn 0 1 0
vn 0 1 0
vn 0 1 0
vn 0 1 0
vn 0 1 0
vn 0 1 0
vn 0 1 0
vn 0 1 0
vn 0 1 0
vn 0 1 0
vn 0 1 0
vn 0 1 0
vn 0 1 0
vn 0 1 0
vn 0 1 0
vn 0 1 0
vn 0 1 0
vn 0 1 0
vn 0 1 0
vn 0 1 0
vn 0 1 0
vn 0 1 0
vn 0 1 0
vn 0 1 0
vn 0 1 0
vn 0 1 0
vn 0 1 0
vn 0 1 0
vn 0 1 0
vn 0 1 0
vn 0 1 0
vn 0 1 0
vn 0 1 0
vn 0 1 0
vn 0 1 0
vn 0 1 0
vn 0 1 0
vn 0 1 0
vn 0 1 0
vn 0 1 0
vn 0 1 0
vn 0 1 0
vn 0 1 0
g motionGraphicPokeballGeo_0
f 3/3/3 2/2/2 1/1/1
f 3/3/3 4/4/4 2/2/2
f 3/3/3 5/5/5 4/4/4
f 6/6/6 4/4/4 5/5/5
f 6/6/6 7/7/7 4/4/4
f 7/7/7 6/6/6 8/8/8
f 11/11/11 10/10/10 9/9/9
f 11/11/11 12/12/12 10/10/10
f 11/11/11 13/13/13 12/12/12
f 14/14/14 13/13/13 11/11/11
f 14/14/14 15/15/15 13/13/13
f 14/14/14 16/16/16 15/15/15
f 15/15/15 16/16/16 17/17/17
f 17/17/17 16/16/16 18/18/18
f 18/18/18 16/16/16 19/19/19
f 18/18/18 19/19/19 20/20/20
f 20/20/20 19/19/19 21/21/21
f 20/20/20 21/21/21 22/22/22
f 22/22/22 21/21/21 23/23/23
f 24/24/24 23/23/23 21/21/21
f 24/24/24 25/25/25 23/23/23
f 26/26/26 25/25/25 24/24/24
f 26/26/26 24/24/24 27/27/27
f 27/27/27 28/28/28 26/26/26
f 27/27/27 29/29/29 28/28/28
f 30/30/30 29/29/29 27/27/27
f 30/30/30 31/31/31 29/29/29
f 32/32/32 31/31/31 30/30/30
f 32/32/32 33/33/33 31/31/31
f 32/32/32 34/34/34 33/33/33
f 32/32/32 35/35/35 34/34/34
f 34/34/34 35/35/35 36/36/36
f 36/36/36 35/35/35 37/37/37
f 36/36/36 37/37/37 38/38/38
f 38/38/38 37/37/37 39/39/39
f 39/39/39 37/37/37 40/40/40
f 43/43/43 42/42/42 41/41/41
f 42/42/42 43/43/43 44/44/44
f 42/42/42 44/44/44 45/45/45
f 46/46/46 45/45/45 44/44/44
f 46/46/46 44/44/44 47/47/47
f 46/46/46 47/47/47 48/48/48
f 51/51/51 50/50/50 49/49/49
f 52/52/52 50/50/50 51/51/51
f 53/53/53 50/50/50 52/52/52
f 53/53/53 54/54/54 50/50/50
f 55/55/55 54/54/54 53/53/53
f 56/56/56 54/54/54 55/55/55
f 56/56/56 55/55/55 57/57/57
f 56/56/56 57/57/57 58/58/58
f 56/56/56 58/58/58 59/59/59
f 59/59/59 58/58/58 60/60/60
f 59/59/59 60/60/60 61/61/61
f 61/61/61 60/60/60 62/62/62
f 61/61/61 62/62/62 63/63/63
f 63/63/63 64/64/64 61/61/61
f 63/63/63 65/65/65 64/64/64
f 64/64/64 65/65/65 66/66/66
f 64/64/64 66/66/66 67/67/67
f 68/68/68 67/67/67 66/66/66
f 69/69/69 67/67/67 68/68/68
f 69/69/69 70/70/70 67/67/67
f 71/71/71 70/70/70 69/69/69
f 71/71/71 72/72/72 70/70/70
f 73/73/73 72/72/72 71/71/71
f 74/74/74 72/72/72 73/73/73
f 75/75/75 72/72/72 74/74/74
f 75/75/75 74/74/74 76/76/76
f 75/75/75 76/76/76 77/77/77
f 77/77/77 76/76/76 78/78/78
f 77/77/77 78/78/78 79/79/79
f 77/77/77 79/79/79 80/80/80
f 83/83/83 82/82/82 81/81/81
f 82/82/82 84/84/84 81/81/81
f 83/83/83 85/85/85 82/82/82
f 82/82/82 86/86/86 84/84/84
f 83/83/83 87/87/87 85/85/85
f 86/86/86 88/88/88 84/84/84
f 89/89/89 87/87/87 83/83/83
f 88/88/88 90/90/90 84/84/84
f 89/89/89 91/91/91 87/87/87
f 88/88/88 92/92/92 90/90/90
f 93/93/93 91/91/91 89/89/89
f 92/92/92 94/94/94 90/90/90
f 93/93/93 95/95/95 91/91/91
f 92/92/92 96/96/96 94/94/94
f 97/97/97 95/95/95 93/93/93
f 96/96/96 98/98/98 94/94/94
f 97/97/97 99/99/99 95/95/95
f 96/96/96 100/100/100 98/98/98
f 101/101/101 99/99/99 97/97/97
f 100/100/100 102/102/102 98/98/98
f 101/101/101 103/103/103 99/99/99
f 100/100/100 104/104/104 102/102/102
f 105/105/105 103/103/103 101/101/101
f 105/105/105 106/106/106 103/103/103
f 107/107/107 106/106/106 105/105/105
f 107/107/107 105/105/105 108/108/108
f 109/109/109 107/107/107 108/108/108
f 109/109/109 108/108/108 110/110/110
f 111/111/111 109/109/109 110/110/110
f 111/111/111 110/110/110 112/112/112
f 113/113/113 111/111/111 112/112/112
f 113/113/113 112/112/112 114/114/114
f 115/115/115 113/113/113 114/114/114
f 104/104/104 116/116/116 102/102/102
f 104/104/104 117/117/117 116/116/116
f 116/116/116 117/117/117 118/118/118
f 116/116/116 118/118/118 119/119/119
f 119/119/119 118/118/118 120/120/120
f 119/119/119 120/120/120 121/121/121
f 121/121/121 120/120/120 122/122/122
f 121/121/121 122/122/122 123/123/123
f 123/123/123 122/122/122 124/124/124
f 123/123/123 124/124/124 125/125/125
f 125/125/125 124/124/124 126/126/126
f 125/125/125 126/126/126 127/127/127
f 127/127/127 126/126/126 128/128/128
f 128/128/128 129/129/129 127/127/127
f 128/128/128 130/130/130 129/129/129
f 130/130/130 131/131/131 129/129/129
f 130/130/130 132/132/132 131/131/131
f 132/132/132 115/115/115 131/131/131
f 115/115/115 114/114/114 131/131/131
f 135/135/135 134/134/134 133/133/133
f 136/136/136 134/134/134 135/135/135
f 135/135/135 133/133/133 137/137/137
f 137/137/137 133/133/133 138/138/138
f 137/137/137 138/138/138 139/139/139
f 139/139/139 138/138/138 140/140/140
f 139/139/139 140/140/140 141/141/141
f 141/141/141 140/140/140 142/142/142
f 141/141/141 142/142/142 143/143/143
f 143/143/143 142/142/142 144/144/144
f 143/143/143 144/144/144 145/145/145
f 145/145/145 144/144/144 146/146/146
f 145/145/145 146/146/146 147/147/147
f 147/147/147 146/146/146 148/148/148
f 147/147/147 148/148/148 149/149/149
f 149/149/149 148/148/148 150/150/150
f 149/149/149 150/150/150 151/151/151
f 151/151/151 150/150/150 152/152/152
f 151/151/151 152/152/152 153/153/153
f 152/152/152 154/154/154 153/153/153
f 152/152/152 155/155/155 154/154/154
f 155/155/155 156/156/156 154/154/154
f 155/155/155 157/157/157 156/156/156
f 157/157/157 158/158/158 156/156/156
f 157/157/157 159/159/159 158/158/158
f 159/159/159 160/160/160 158/158/158
f 159/159/159 161/161/161 160/160/160
f 161/161/161 162/162/162 160/160/160
f 161/161/161 163/163/163 162/162/162
f 163/163/163 164/164/164 162/162/162
f 163/163/163 165/165/165 164/164/164
f 165/165/165 166/166/166 164/164/164
f 165/165/165 167/167/167 166/166/166
f 167/167/167 168/168/168 166/166/166
f 167/167/167 169/169/169 168/168/168
f 169/169/169 170/170/170 168/168/168
f 169/169/169 171/171/171 170/170/170
f 171/171/171 172/172/172 170/170/170
f 172/172/172 173/173/173 170/170/170
f 172/172/172 174/174/174 173/173/173
f 173/173/173 174/174/174 175/175/175
f 173/173/173 175/175/175 176/176/176
f 175/175/175 177/177/177 176/176/176
f 176/176/176 177/177/177 178/178/178
f 176/176/176 178/178/178 179/179/179
f 179/179/179 178/178/178 180/180/180
f 179/179/179 180/180/180 181/181/181
f 181/181/181 180/180/180 182/182/182
f 181/181/181 182/182/182 183/183/183
f 183/183/183 182/182/182 184/184/184
f 183/183/183 184/184/184 185/185/185
f 185/185/185 184/184/184 186/186/186
f 185/185/185 186/186/186 187/187/187
f 187/187/187 186/186/186 188/188/188
f 187/187/187 188/188/188 189/189/189
f 189/189/189 188/188/188 190/190/190
f 189/189/189 190/190/190 191/191/191
f 191/191/191 190/190/190 192/192/192
f 191/191/191 192/192/192 193/193/193
f 193/193/193 192/192/192 194/194/194
f 193/193/193 194/194/194 195/195/195
f 194/194/194 196/196/196 195/195/195
f 194/194/194 197/197/197 196/196/196
f 197/197/197 198/198/198 196/196/196
f 197/197/197 199/199/199 198/198/198
f 199/199/199 200/200/200 198/198/198
f 199/199/199 201/201/201 200/200/200
f 201/201/201 202/202/202 200/200/200
f 201/201/201 203/203/203 202/202/202
f 203/203/203 204/204/204 202/202/202
f 203/203/203 205/205/205 204/204/204
f 205/205/205 206/206/206 204/204/204
f 205/205/205 207/207/207 206/206/206
f 207/207/207 208/208/208 206/206/206
f 207/207/207 209/209/209 208/208/208
f 209/209/209 210/210/210 208/208/208
f 209/209/209 211/211/211 210/210/210
f 211/211/211 212/212/212 210/210/210
f 211/211/211 213/213/213 212/212/212
f 213/213/213 214/214/214 212/212/212
f 214/214/214 215/215/215 212/212/212
f 214/214/214 216/216/216 215/215/215
f 215/215/215 216/216/216 136/136/136
f 215/215/215 136/136/136 135/135/135
f 219/219/219 218/218/218 217/217/217
f 217/217/217 218/218/218 220/220/220
f 221/221/221 218/218/218 219/219/219
f 220/220/220 218/218/218 222/222/222
f 218/218/218 221/221/221 223/223/223
f 222/222/222 218/218/218 224/224/224
f 218/218/218 223/223/223 225/225/225
f 224/224/224 218/218/218 226/226/226
f 218/218/218 225/225/225 227/227/227
f 218/218/218 228/228/228 226/226/226
f 218/218/218 227/227/227 229/229/229
f 218/218/218 230/230/230 228/228/228
f 218/218/218 229/229/229 231/231/231
f 218/218/218 232/232/232 230/230/230
f 218/218/218 231/231/231 233/233/233
f 218/218/218 234/234/234 232/232/232
f 235/235/235 218/218/218 233/233/233
f 218/218/218 236/236/236 234/234/234
f 237/237/237 218/218/218 235/235/235
f 218/218/218 238/238/238 236/236/236
f 239/239/239 218/218/218 237/237/237
f 238/238/238 218/218/218 240/240/240
f 241/241/241 218/218/218 239/239/239
f 240/240/240 218/218/218 241/241/241
