g motionGraphicBar03Geo
v -0.2072345 0 0.005413413
v -0.2072345 0 -0.001752329
v -0.03482261 0 0.005413384
v -0.03221121 0 -0.001752324
v -0.03482261 0 0.005413384
v -0.03440266 0 0.006013388
v -0.2072345 0 0.005413413
v -0.2078345 0 0.006013412
v -0.2072345 0 0.005413413
v -0.2078345 0 0.006013412
v -0.2072345 0 -0.001752329
v -0.2078345 0 -0.002352328
v -0.2072345 0 -0.001752329
v -0.2078345 0 -0.002352328
v -0.03221121 0 -0.001752324
v -0.03135395 0 -0.002352319
v -0.03482261 0 0.005413384
v -0.03221121 0 -0.001752324
v -0.03440266 0 0.006013388
v -0.03135395 0 -0.002352319
vt 0.3076216 0.916436
vt 0.3076216 0.935447
vt 0.3266326 0.916436
vt 0.3266326 0.935447
vt 0.06409611 0.9154583
vt 0.06409611 0.9355077
vt 0.08414544 0.9154583
vt 0.08414544 0.9355077
vt 0.06409611 0.9154583
vt 0.06409611 0.9355077
vt 0.08414544 0.9154583
vt 0.08414544 0.9355077
vt 0.06409611 0.9154583
vt 0.06409611 0.9355077
vt 0.08414544 0.9154583
vt 0.08414544 0.9355077
vt 0.08414544 0.9154583
vt 0.06409611 0.9154583
vt 0.08414544 0.9355077
vt 0.06409611 0.9355077
vn 0 1 0
vn 0 1 0
vn 0 1 0
vn 0 1 0
vn 0 1 0
vn 0 1 0
vn 0 1 0
vn 0 1 0
vn 0 1 0
vn 0 1 0
vn 0 1 0
vn 0 1 0
vn 0 1 0
vn 0 1 0
vn 0 1 0
vn 0 1 0
vn 0 1 0
vn 0 1 0
vn 0 1 0
vn 0 1 0
g motionGraphicBar03Geo_0
f 3/3/3 2/2/2 1/1/1
f 3/3/3 4/4/4 2/2/2
f 7/7/7 6/6/6 5/5/5
f 7/7/7 8/8/8 6/6/6
f 11/11/11 10/10/10 9/9/9
f 11/11/11 12/12/12 10/10/10
f 15/15/15 14/14/14 13/13/13
f 15/15/15 16/16/16 14/14/14
f 19/19/19 18/18/18 17/17/17
f 19/19/19 20/20/20 18/18/18
