g motionGraphicBar03Geo
v -0.20723455 0 0.005413413
v -0.20723455 0 -0.0017523288
v -0.03482261 0 0.005413384
v -0.03221121 0 -0.001752324
v -0.03482261 0 0.005413384
v -0.034402665 0 0.0060133883
v -0.20723455 0 0.005413413
v -0.20783454 0 0.0060134125
v -0.20723455 0 0.005413413
v -0.20783454 0 0.0060134125
v -0.20723455 0 -0.0017523288
v -0.20783454 0 -0.0023523283
v -0.20723455 0 -0.0017523288
v -0.20783454 0 -0.0023523283
v -0.03221121 0 -0.001752324
v -0.031353947 0 -0.0023523187
v -0.03482261 0 0.005413384
v -0.03221121 0 -0.001752324
v -0.034402665 0 0.0060133883
v -0.031353947 0 -0.0023523187
vt 0.3076216 0.91643596
vt 0.3076216 0.935447
vt 0.32663256 0.91643596
vt 0.32663256 0.935447
vt 0.06409611 0.9154583
vt 0.06409611 0.93550766
vt 0.08414544 0.9154583
vt 0.08414544 0.93550766
vt 0.06409611 0.9154583
vt 0.06409611 0.93550766
vt 0.08414544 0.9154583
vt 0.08414544 0.93550766
vt 0.06409611 0.9154583
vt 0.06409611 0.93550766
vt 0.08414544 0.9154583
vt 0.08414544 0.93550766
vt 0.08414544 0.9154583
vt 0.06409611 0.9154583
vt 0.08414544 0.93550766
vt 0.06409611 0.93550766
vn -0 1 0
vn -0 1 0
vn -0 1 0
vn -0 1 0
vn -0 1 0
vn -0 1 0
vn -0 1 0
vn -0 1 0
vn -0 1 0
vn -0 1 0
vn -0 1 0
vn -0 1 0
vn -0 1 0
vn -0 1 0
vn -0 1 0
vn -0 1 0
vn -0 1 0
vn -0 1 0
vn -0 1 0
vn -0 1 0
g motionGraphicBar03Geo_0
f 3/3/3 2/2/2 1/1/1
f 3/3/3 4/4/4 2/2/2
f 7/7/7 6/6/6 5/5/5
f 7/7/7 8/8/8 6/6/6
f 11/11/11 10/10/10 9/9/9
f 11/11/11 12/12/12 10/10/10
f 15/15/15 14/14/14 13/13/13
f 15/15/15 16/16/16 14/14/14
f 19/19/19 18/18/18 17/17/17
f 19/19/19 20/20/20 18/18/18
