g Mountain_plane
v -9.780652 -2.6218064 2.223827
v -13.346539 -2.6218064 3.641676
v -13.77124 -1.249104 1.918092
v -9.780652 -1.249104 0.32014036
v -4.8851438 -2.6218064 2.223827
v -14.238964 -0.16661559 0.019903565
v -4.8851438 -1.249104 0.17173217
v 0.010362549 -2.6218064 2.223827
v -9.780648 -0.16661559 -1.4099671
v -4.8851414 -0.16661559 -1.359215
v 0.010362549 -1.249104 0.3000525
v 4.9058676 -2.6218064 2.223827
v 0.010366211 -0.16661559 -1.3457947
v 4.9058676 -1.249104 0.5534949
v 9.801374 -2.6218064 2.223827
v 4.905869 -0.16661559 -1.2146252
v 9.801374 -1.249104 0.7116296
v 13.518094 -2.6218064 3.2519445
v 9.801375 -0.16661559 -1.5062757
v 13.97162 -1.249104 1.8526428
v 15.3914385 -2.621806 5.384714
v 14.540075 0.19721466 0.09873657
v 16.84787 -1.5653381 4.109984
v 11.746846 2.4236972 -1.5515002
v 17.958727 -2.6218064 9.553053
v 12.593479 2.3026383 -1.5799768
v 10.434462 2.1238625 -1.9746912
v 13.658353 2.4535275 -1.2356335
v 9.801374 2.0865633 -2.0860949
v 8.16913 1.7031558 -2.023258
v 6.4454355 1.9090945 -1.9702697
v 14.847829 2.0979764 -0.85080445
v 4.9266057 1.4718405 -1.9157434
v 15.524376 2.1004953 -0.66889524
v 3.6020007 1.1054953 -1.8609875
v 2.126631 1.1668588 -1.8068689
v 0.84531003 0.6656991 -1.7417346
v 0.01036377 0.625661 -1.7101525
v -0.9349597 0.6964523 -1.7157824
v -1.3836865 0.80933315 -1.7180628
v -2.3761597 0.86966157 -1.723092
v -3.0189562 0.82312953 -1.7263538
v -4.8851414 0.7273855 -1.7363293
v -6.9474964 0.3892227 -1.7406945
v -10.188586 0.864863 -1.749679
v -11.774207 0.5015298 -1.8396008
v -14.359686 1.0745687 -0.47002563
v 26.269335 -0.1666159 15.933599
v 25.059755 2.0302138 14.136031
v 26.635489 1.5044848 15.708083
v 23.161274 -0.16661552 12.098331
v 24.604761 -1.2491043 16.958815
v 23.680702 2.4860268 11.778404
v 23.094257 2.1859627 10.139722
v 23.417255 2.6218057 11.31653
v 22.618803 1.8924283 8.804785
v 21.134766 -0.16661559 7.596924
v 21.610947 2.0066695 7.3036413
v 21.277645 2.0464113 6.742988
v 20.922808 1.8168055 6.159198
v 20.549786 1.7346035 5.5478454
v 19.979923 1.7825887 4.607367
v 21.615385 -1.2491041 13.050441
v 23.093296 -2.621806 17.889727
v 20.52601 -2.6218064 13.72138
v 19.247425 -1.249104 8.759342
v 18.487532 -0.1666159 3.4778306
v 19.07867 2.1664548 3.1137438
v 16.750593 2.3400435 -0.23821655
v 17.413517 2.6218064 -0.1609436
v -15.357074 -2.6218064 5.402228
v -13.77124 -1.249104 1.918092
v -13.346539 -2.6218064 3.641676
v -17.00367 -1.249104 4.4468493
v -17.813911 -2.6218064 9.636602
v -14.238964 -0.16661559 0.019903565
v -19.588875 -1.249104 8.606744
v -20.270756 -2.6218064 13.8709755
v -18.50013 -0.16661559 3.5785875
v -20.91307 -0.16661559 7.8384337
v -21.934727 -1.249104 12.905516
v -22.727596 -2.6218064 18.10535
v -24.172348 -1.249104 17.26708
v -23.358305 -0.16661559 12.079539
v -25.701689 -0.16661559 16.379742
v -17.136377 0.5015298 0.39054808
v -14.359686 1.0745687 -0.47002563
v -18.589237 0.864863 3.0552552
v -20.208029 0.3892227 5.863148
v -21.239258 0.7273855 7.6491785
v -22.167187 0.82312953 9.268341
v -22.486958 0.86966157 9.825963
v -22.980682 0.80933315 10.6869335
v -23.20391 0.6964523 11.0762005
v -23.673456 0.625661 11.896686
v -24.119795 0.6656991 12.603024
v -24.819174 1.1668588 13.678615
v -25.606405 1.1054953 14.92758
v -26.318525 1.4718405 16.04582
vt 0.1000002 0.1274181
vt 7.748604E-07 0.12741642
vt 2.3841858E-07 0.1760139
vt 0.10000008 0.18012193
vt 0.20000005 0.12741913
vt 0 0.22995345
vt 0.20000005 0.18525448
vt 0.3 0.1274197
vt 0.099999905 0.22874714
vt 0.20000005 0.22818577
vt 0.3 0.18156263
vt 0.39999992 0.12741989
vt 0.3 0.22803524
vt 0.39999998 0.17575909
vt 0.49999994 0.12741995
vt 0.40000004 0.22647434
vt 0.5 0.1747258
vt 0.5999999 0.12741993
vt 0.5 0.22995345
vt 0.5999999 0.17528622
vt 0.6999999 0.1274197
vt 0.6 0.23531036
vt 0.6934304 0.17713861
vt 0.53537214 0.30745345
vt 0.7999999 0.12741913
vt 0.55160165 0.30699277
vt 0.5129602 0.30087733
vt 0.57446253 0.311437
vt 0.5 0.30062503
vt 0.4666587 0.28887048
vt 0.43144786 0.29452765
vt 0.6 0.300983
vt 0.40042353 0.28125206
vt 0.6142922 0.30132616
vt 0.37336594 0.2700607
vt 0.34322888 0.27145606
vt 0.3170554 0.2562203
vt 0.3 0.25480342
vt 0.28068995 0.2569285
vt 0.27152395 0.26026633
vt 0.25125086 0.26207912
vt 0.23812056 0.26073495
vt 0.20000005 0.25799403
vt 0.15787262 0.24807945
vt 0.091667235 0.26213932
vt 0.059378922 0.2519603
vt 0.00031381845 0.27032104
vt 1 0.22995345
vt 0.955775 0.29378688
vt 1 0.28236797
vt 0.9000005 0.22168508
vt 0.99999964 0.1760139
vt 0.90039 0.30649835
vt 0.86536884 0.30109608
vt 0.889568 0.3108468
vt 0.8369053 0.29529542
vt 0.8 0.22995345
vt 0.8 0.29811913
vt 0.7866782 0.29936558
vt 0.7727235 0.29264167
vt 0.75809455 0.2902462
vt 0.73563254 0.29171818
vt 0.9 0.16564347
vt 0.99999917 0.12741637
vt 0.89999974 0.12741806
vt 0.8000001 0.17121898
vt 0.7 0.22882985
vt 0.7 0.30313087
vt 0.6408322 0.30779982
vt 0.65420055 0.31741303
vt 0.1000002 0.1274181
vt 2.3841858E-07 0.1760139
vt 7.748604E-07 0.12741642
vt 0.10000008 0.18012193
vt 0.20000005 0.12741913
vt 0 0.22995345
vt 0.20000005 0.18525448
vt 0.3 0.1274197
vt 0.099999905 0.22874714
vt 0.20000005 0.22818577
vt 0.3 0.18156263
vt 0.39999992 0.12741989
vt 0.39999998 0.17575909
vt 0.3 0.22803524
vt 0.40000004 0.22647434
vt 0.059378922 0.2519603
vt 0.00031381845 0.27032104
vt 0.091667235 0.26213932
vt 0.15787262 0.24807945
vt 0.20000005 0.25799403
vt 0.23812056 0.26073495
vt 0.25125086 0.26207912
vt 0.27152395 0.26026633
vt 0.28068995 0.2569285
vt 0.3 0.25480342
vt 0.3170554 0.2562203
vt 0.34322888 0.27145606
vt 0.37336594 0.2700607
vt 0.40042353 0.28125206
vn 0.00825771 0.81181437 0.5838571
vn 0.007852367 0.801407 0.59806794
vn -0.0049534612 0.8312362 0.55589736
vn 0.0060365167 0.82968587 0.5581978
vn 0.000583917 0.8222082 0.5691865
vn -0.00047412282 0.802674 0.5964178
vn -0.00026290686 0.82570297 0.56410503
vn -0.011445959 0.80942655 0.5871096
vn -7.968123E-05 0.78797776 0.61570364
vn -0.004965861 0.77189255 0.63573354
vn -0.013011062 0.8222257 0.5690128
vn -0.013230881 0.7768987 0.6294866
vn -0.016572302 0.7635787 0.64550203
vn -0.0097136805 0.8223156 0.56894875
vn -0.0067710723 0.74677837 0.6650384
vn 0.0017079398 0.7610016 0.6487477
vn -0.017152242 0.81199986 0.5834055
vn 0.02554144 0.77627224 0.6298802
vn -0.016016005 0.71542567 0.6985052
vn 0.023085278 0.797923 0.6023171
vn -0.0016177088 0.8138145 0.58112246
vn 0.022824349 0.6644436 0.7469897
vn 0.019475592 0.81369376 0.5809674
vn -0.047563393 0.26038176 0.96433353
vn -0.033332314 0.767634 0.64002115
vn -0.03485047 0.2750362 0.9608021
vn -0.20896024 0.25104433 0.94515204
vn 0.009538226 0.40874267 0.91259986
vn -0.0774349 0.24846652 0.96554035
vn 0.04619018 0.2985261 0.9532831
vn 0.048500687 0.3144775 0.9480251
vn 0.10404769 0.46240804 0.8805412
vn -0.07719406 0.3930615 0.91626626
vn -0.07154659 0.49623063 0.86523765
vn -0.003687489 0.44997442 0.89303386
vn -0.032225266 0.39488506 0.9181652
vn -0.039118443 0.3852284 0.9219917
vn 0.020493204 0.41773164 0.9083393
vn 0.07520178 0.461346 0.88402754
vn 0.0020169637 0.3452525 0.9385076
vn -0.00014850927 0.34456098 0.93876386
vn -0.029687282 0.3963538 0.91761774
vn -0.028855445 0.45708904 0.88895273
vn -0.02163722 0.46846518 0.8832169
vn -0.019896131 0.39918047 0.91665643
vn -0.039107636 0.42210627 0.9057025
vn 0.019694116 0.3765295 0.92619526
vn 0.119865224 0.59540725 0.79443216
vn 0.12998855 0.15294693 0.979648
vn 0.16902384 0.12775822 0.97729677
vn -0.0014706772 0.7243414 0.6894399
vn 0.0473135 0.8164994 0.5754043
vn -0.08980856 0.21205325 0.9731227
vn -0.17090768 0.31366837 0.934025
vn -0.12736653 -0.37760305 0.9171662
vn -0.12654589 0.32916895 0.93575317
vn -0.05603919 0.72413677 0.6873759
vn 0.038121924 0.24903336 0.9677443
vn -0.04270061 0.23716557 0.97053033
vn -0.058461376 0.24077088 0.96881974
vn 0.012708579 0.30731878 0.95152175
vn 0.02406882 0.30552936 0.9518785
vn 0.007460772 0.80728847 0.59010994
vn 0.033824712 0.7433166 0.6680841
vn 0.009144999 0.7289611 0.684494
vn -0.038386956 0.82308984 0.5666123
vn 0.03490419 0.66021353 0.7502665
vn 0.061692778 0.32309872 0.9443523
vn 0.052214183 0.3407346 0.9387085
vn 0.026555248 0.369747 0.92875296
vn -0.00825771 0.81181437 0.5838571
vn -0.0049534612 0.8312362 0.55589736
vn -0.007852365 0.80140686 0.5980679
vn -0.0060365167 0.82968587 0.5581978
vn -0.000583917 0.8222082 0.5691865
vn -0.00047412282 0.802674 0.5964178
vn 0.00026290686 0.82570297 0.56410503
vn 0.01144596 0.80942655 0.5871096
vn 7.968123E-05 0.78797776 0.61570364
vn 0.004965861 0.7718926 0.6357335
vn 0.0130110625 0.8222257 0.5690128
vn 0.013230881 0.7768987 0.6294866
vn 0.0097136805 0.8223156 0.56894875
vn 0.016572302 0.7635787 0.64550203
vn -0.0017079398 0.7610016 0.6487477
vn 0.039107636 0.42210627 0.9057025
vn -0.019694116 0.3765295 0.92619526
vn 0.019896131 0.39918047 0.91665643
vn 0.02163722 0.46846518 0.8832169
vn 0.028855443 0.45708904 0.88895273
vn 0.029687282 0.39635378 0.91761774
vn 0.00014850928 0.344561 0.93876386
vn -0.0020169637 0.3452525 0.9385076
vn -0.07520177 0.461346 0.88402754
vn -0.020493204 0.41773164 0.9083393
vn 0.039118443 0.3852284 0.9219917
vn 0.032225266 0.39488506 0.9181652
vn 0.003687489 0.44997448 0.89303386
vn 0.07719406 0.39306152 0.91626626
g Mountain_plane_0
f 3/3/3 2/2/2 1/1/1
f 4/4/4 3/3/3 1/1/1
f 4/4/4 1/1/1 5/5/5
f 6/6/6 3/3/3 4/4/4
f 7/7/7 4/4/4 5/5/5
f 7/7/7 5/5/5 8/8/8
f 9/9/9 6/6/6 4/4/4
f 9/9/9 4/4/4 7/7/7
f 10/10/10 9/9/9 7/7/7
f 11/11/11 7/7/7 8/8/8
f 10/10/10 7/7/7 11/11/11
f 11/11/11 8/8/8 12/12/12
f 13/13/13 10/10/10 11/11/11
f 13/13/13 11/11/11 14/14/14
f 14/14/14 11/11/11 12/12/12
f 14/14/14 12/12/12 15/15/15
f 16/16/16 13/13/13 14/14/14
f 16/16/16 14/14/14 17/17/17
f 17/17/17 14/14/14 15/15/15
f 17/17/17 15/15/15 18/18/18
f 19/19/19 16/16/16 17/17/17
f 19/19/19 17/17/17 20/20/20
f 20/20/20 17/17/17 18/18/18
f 20/20/20 18/18/18 21/21/21
f 22/22/22 19/19/19 20/20/20
f 22/22/22 20/20/20 23/23/23
f 23/23/23 20/20/20 21/21/21
f 24/24/24 19/19/19 22/22/22
f 23/23/23 21/21/21 25/25/25
f 26/26/26 24/24/24 22/22/22
f 27/27/27 19/19/19 24/24/24
f 28/28/28 26/26/26 22/22/22
f 29/29/29 19/19/19 27/27/27
f 29/29/29 30/30/30 19/19/19
f 30/30/30 31/31/31 19/19/19
f 31/31/31 16/16/16 19/19/19
f 32/32/32 28/28/28 22/22/22
f 33/33/33 16/16/16 31/31/31
f 32/32/32 22/22/22 34/34/34
f 33/33/33 35/35/35 16/16/16
f 35/35/35 36/36/36 16/16/16
f 36/36/36 37/37/37 16/16/16
f 37/37/37 13/13/13 16/16/16
f 38/38/38 13/13/13 37/37/37
f 38/38/38 39/39/39 13/13/13
f 39/39/39 40/40/40 13/13/13
f 40/40/40 41/41/41 13/13/13
f 41/41/41 10/10/10 13/13/13
f 42/42/42 10/10/10 41/41/41
f 43/43/43 10/10/10 42/42/42
f 43/43/43 44/44/44 10/10/10
f 44/44/44 9/9/9 10/10/10
f 45/45/45 9/9/9 44/44/44
f 45/45/45 46/46/46 9/9/9
f 46/46/46 6/6/6 9/9/9
f 47/47/47 6/6/6 46/46/46
f 50/50/50 49/49/49 48/48/48
f 49/49/49 51/51/51 48/48/48
f 48/48/48 51/51/51 52/52/52
f 53/53/53 51/51/51 49/49/49
f 53/53/53 54/54/54 51/51/51
f 55/55/55 54/54/54 53/53/53
f 54/54/54 56/56/56 51/51/51
f 56/56/56 57/57/57 51/51/51
f 58/58/58 57/57/57 56/56/56
f 58/58/58 59/59/59 57/57/57
f 59/59/59 60/60/60 57/57/57
f 60/60/60 61/61/61 57/57/57
f 61/61/61 62/62/62 57/57/57
f 51/51/51 63/63/63 52/52/52
f 51/51/51 57/57/57 63/63/63
f 52/52/52 63/63/63 64/64/64
f 63/63/63 65/65/65 64/64/64
f 63/63/63 66/66/66 65/65/65
f 57/57/57 66/66/66 63/63/63
f 66/66/66 25/25/25 65/65/65
f 66/66/66 23/23/23 25/25/25
f 62/62/62 67/67/67 57/57/57
f 57/57/57 67/67/67 66/66/66
f 67/67/67 23/23/23 66/66/66
f 68/68/68 67/67/67 62/62/62
f 67/67/67 22/22/22 23/23/23
f 68/68/68 69/69/69 67/67/67
f 69/69/69 22/22/22 67/67/67
f 70/70/70 69/69/69 68/68/68
f 34/34/34 22/22/22 69/69/69
f 73/73/73 72/72/72 71/71/71
f 72/72/72 74/74/74 71/71/71
f 71/71/71 74/74/74 75/75/75
f 72/72/72 76/76/76 74/74/74
f 74/74/74 77/77/77 75/75/75
f 75/75/75 77/77/77 78/78/78
f 76/76/76 79/79/79 74/74/74
f 74/74/74 79/79/79 77/77/77
f 79/79/79 80/80/80 77/77/77
f 77/77/77 81/81/81 78/78/78
f 77/77/77 80/80/80 81/81/81
f 78/78/78 81/81/81 82/82/82
f 81/81/81 83/83/83 82/82/82
f 81/81/81 84/84/84 83/83/83
f 80/80/80 84/84/84 81/81/81
f 84/84/84 85/85/85 83/83/83
f 76/76/76 86/86/86 79/79/79
f 76/76/76 87/87/87 86/86/86
f 86/86/86 88/88/88 79/79/79
f 79/79/79 88/88/88 89/89/89
f 79/79/79 89/89/89 80/80/80
f 89/89/89 90/90/90 80/80/80
f 80/80/80 90/90/90 91/91/91
f 80/80/80 91/91/91 92/92/92
f 80/80/80 92/92/92 84/84/84
f 92/92/92 93/93/93 84/84/84
f 93/93/93 94/94/94 84/84/84
f 94/94/94 95/95/95 84/84/84
f 84/84/84 95/95/95 96/96/96
f 84/84/84 96/96/96 85/85/85
f 96/96/96 97/97/97 85/85/85
f 97/97/97 98/98/98 85/85/85
f 98/98/98 99/99/99 85/85/85
