g n_eyebrows_thickFurrowed_mesh
v 3.890029 94.54647 2.711265
v 3.964218 94.42686 2.515951
v 3.893057 94.43291 2.691582
v 3.964218 94.42686 2.515951
v 3.890029 94.54647 2.711265
v 3.871861 94.72513 2.723377
v 3.859748 94.68728 2.782425
v 3.809784 94.70847 2.892952
v 3.803728 94.87804 2.830875
v 3.600844 95.07487 3.142771
v 3.581161 94.94921 3.20939
v 3.517571 95.10818 3.276009
v -3.890716 94.54647 2.711265
v -3.89223 94.43291 2.691582
v -3.964905 94.42686 2.515951
v -3.964905 94.42686 2.515951
v -3.871033 94.72513 2.723377
v -3.890716 94.54647 2.711265
v -3.860435 94.68728 2.782425
v -3.804415 94.87804 2.830875
v -3.810471 94.70847 2.892952
v -3.600017 95.07487 3.142771
v -3.516744 95.10818 3.276009
v -3.581848 94.94921 3.20939
v 0.6423743 94.31027 4.882424
v 0.5030808 94.27848 4.843059
v 0.531848 94.4102 4.835488
v 0.5696995 94.49651 4.833975
v 0.6378322 94.54647 4.847601
v 0.789238 94.60249 4.88091
v 0.9285314 94.36781 4.865769
v 0.6423743 94.31027 4.882424
v 0.6560009 94.51013 4.88091
v 3.316201 94.91893 3.707515
v 3.600844 94.83112 3.269952
v 3.569049 94.52225 3.266924
v 3.275321 94.5495 3.680262
v 3.049727 94.5071 3.904343
v 3.067896 94.84322 3.998214
v 0.9027922 93.93176 4.724962
v 0.9285314 94.36781 4.865769
v 1.251026 94.42232 4.791581
v 1.205604 93.99535 4.638661
v 1.702215 94.52679 4.628062
v 1.717356 94.11799 4.534191
v 2.153404 94.25274 4.369159
v 2.159461 94.64791 4.458488
v 2.645473 94.41172 4.15719
v 2.672726 94.78872 4.248034
v 3.049727 94.5071 3.904343
v 3.067896 94.84322 3.998214
v 0.9027922 93.93176 4.724962
v 0.7120209 93.91662 4.7613
v 0.6423743 94.31027 4.882424
v 0.9285314 94.36781 4.865769
v 0.5893822 93.97415 4.788552
v 0.6423743 94.31027 4.882424
v 0.7120209 93.91662 4.7613
v 0.5469887 94.11799 4.814292
v 0.5030808 94.27848 4.843059
v 0.789238 94.60249 4.88091
v 0.9784951 94.70544 4.856686
v 0.9527562 94.57372 4.856686
v 0.9285314 94.36781 4.865769
v 1.132929 94.6797 4.806722
v 1.278279 94.7539 4.755243
v 1.285849 94.64488 4.7613
v 1.251026 94.42232 4.791581
v 3.316201 94.91893 3.707515
v 3.067896 94.84322 3.998214
v 2.97251 95.25959 3.939166
v 3.213245 95.2066 3.624242
v 3.414615 95.14603 3.359282
v 3.562993 94.9371 3.236643
v 3.600844 94.83112 3.269952
v 3.581161 94.94921 3.20939
v 3.067896 94.84322 3.998214
v 2.531919 95.18843 4.185958
v 2.97251 95.25959 3.939166
v 2.672726 94.78872 4.248034
v 2.053477 95.02037 4.429721
v 2.159461 94.64791 4.458488
v 1.702215 94.52679 4.628062
v 1.602287 94.8735 4.628062
v 1.353982 94.78569 4.767356
v 1.285849 94.64488 4.7613
v 1.251026 94.42232 4.791581
v 3.787073 94.74178 2.945944
v 3.600844 94.83112 3.269952
v 3.581161 94.94921 3.20939
v 3.600844 95.07487 3.142771
v 3.765877 94.92801 2.891438
v 3.600844 94.83112 3.269952
v 3.787073 94.74178 2.945944
v 3.774961 94.47531 2.953514
v 3.569049 94.52225 3.266924
v 1.251026 94.42232 4.791581
v 0.9285314 94.36781 4.865769
v 1.011805 94.56918 4.843059
v 1.132929 94.6797 4.806722
v 3.809784 94.70847 2.892952
v 3.859748 94.68728 2.782425
v 3.876403 94.43443 2.749116
v 3.799186 94.46774 2.900522
v -0.6430612 94.31027 4.882424
v -0.5310206 94.4102 4.835488
v -0.503768 94.27848 4.843059
v -0.5703864 94.49651 4.833975
v -0.6385188 94.54647 4.847601
v -0.7899246 94.60249 4.88091
v -0.6566877 94.51013 4.88091
v -0.6430612 94.31027 4.882424
v -0.9292183 94.36781 4.865769
v -3.316888 94.91893 3.707515
v -3.568222 94.52225 3.266924
v -3.601531 94.83112 3.269952
v -3.276009 94.5495 3.680262
v -3.050414 94.5071 3.904343
v -3.068583 94.84322 3.998214
v -0.9034791 93.93176 4.724962
v -1.250198 94.42232 4.791581
v -0.9292183 94.36781 4.865769
v -1.206291 93.99535 4.638661
v -1.701388 94.52679 4.628062
v -1.716528 94.11799 4.534191
v -2.154091 94.25274 4.369159
v -2.158634 94.64791 4.458488
v -2.64616 94.41172 4.15719
v -2.671899 94.78872 4.248034
v -3.050414 94.5071 3.904343
v -3.068583 94.84322 3.998214
v -0.9034791 93.93176 4.724962
v -0.9292183 94.36781 4.865769
v -0.6430612 94.31027 4.882424
v -0.7111936 93.91662 4.7613
v -0.5900693 93.97415 4.788552
v -0.7111936 93.91662 4.7613
v -0.6430612 94.31027 4.882424
v -0.5461617 94.11799 4.814292
v -0.503768 94.27848 4.843059
v -0.7899246 94.60249 4.88091
v -0.9519291 94.57372 4.856686
v -0.9791822 94.70544 4.856686
v -0.9292183 94.36781 4.865769
v -1.132102 94.6797 4.806722
v -1.286536 94.64488 4.7613
v -1.277452 94.7539 4.755243
v -1.250198 94.42232 4.791581
v -3.316888 94.91893 3.707515
v -2.973197 95.25959 3.939166
v -3.068583 94.84322 3.998214
v -3.212418 95.2066 3.624242
v -3.415302 95.14603 3.359282
v -3.562166 94.9371 3.236643
v -3.601531 94.83112 3.269952
v -3.581848 94.94921 3.20939
v -3.068583 94.84322 3.998214
v -2.973197 95.25959 3.939166
v -2.532606 95.18843 4.185958
v -2.671899 94.78872 4.248034
v -2.054163 95.02037 4.429721
v -2.158634 94.64791 4.458488
v -1.701388 94.52679 4.628062
v -1.60146 94.8735 4.628062
v -1.353155 94.78569 4.767356
v -1.286536 94.64488 4.7613
v -1.250198 94.42232 4.791581
v -3.786246 94.74178 2.945944
v -3.581848 94.94921 3.20939
v -3.601531 94.83112 3.269952
v -3.600017 95.07487 3.142771
v -3.765049 94.92801 2.891438
v -3.601531 94.83112 3.269952
v -3.568222 94.52225 3.266924
v -3.775648 94.47531 2.953514
v -3.786246 94.74178 2.945944
v -1.250198 94.42232 4.791581
v -1.012491 94.56918 4.843059
v -0.9292183 94.36781 4.865769
v -1.132102 94.6797 4.806722
v -3.810471 94.70847 2.892952
v -3.798358 94.46774 2.900522
v -3.87709 94.43443 2.749116
v -3.860435 94.68728 2.782425
vt 0.7193352 0.007629089
vt 0.7241966 0.004712261
vt 0.7193352 0.004712261
vt 0.7241966 0.004712261
vt 0.7193352 0.007629089
vt 0.7241966 0.01054592
vt 0.7173907 0.008601367
vt 0.7154461 0.009573646
vt 0.7241966 0.01637958
vt 0.7125293 0.02707462
vt 0.7057233 0.01637958
vt 0.6979451 0.02707462
vt 0.7193352 0.007629089
vt 0.7193352 0.004712261
vt 0.7241966 0.004712261
vt 0.7241966 0.004712261
vt 0.7241966 0.01054592
vt 0.7193352 0.007629089
vt 0.7173907 0.008601367
vt 0.7241966 0.01637958
vt 0.7154461 0.009573646
vt 0.7125293 0.02707462
vt 0.6979451 0.02707462
vt 0.7057233 0.01637958
vt 0.5521037 0.01540729
vt 0.5462701 0.004712261
vt 0.5462701 0.01637958
vt 0.5462701 0.02415779
vt 0.5501592 0.02415779
vt 0.5627987 0.02415779
vt 0.5666879 0.01443502
vt 0.5521037 0.01540729
vt 0.5569651 0.02415779
vt 0.6814165 0.01637958
vt 0.7076679 0.01249047
vt 0.7057233 0.004712261
vt 0.6872501 0.004712261
vt 0.6619709 0.004712261
vt 0.6619709 0.01637958
vt 0.5666879 0.004712261
vt 0.5666879 0.01443502
vt 0.5802997 0.01443502
vt 0.5802997 0.004712261
vt 0.6046066 0.01540729
vt 0.6046066 0.004712261
vt 0.6259967 0.004712261
vt 0.6250244 0.01637958
vt 0.64447 0.004712261
vt 0.6434977 0.01637958
vt 0.6619709 0.004712261
vt 0.6619709 0.01637958
vt 0.5666879 0.004712261
vt 0.5550206 0.004712261
vt 0.5521037 0.01540729
vt 0.5666879 0.01443502
vt 0.5462701 0.004712261
vt 0.5521037 0.01540729
vt 0.5550206 0.004712261
vt 0.5462701 0.004712261
vt 0.5462701 0.004712261
vt 0.5627987 0.02415779
vt 0.5686324 0.02415779
vt 0.5686324 0.02026868
vt 0.5666879 0.01443502
vt 0.5734938 0.02415779
vt 0.5832165 0.02610233
vt 0.5822443 0.02221324
vt 0.5802997 0.01443502
vt 0.6814165 0.01637958
vt 0.6619709 0.01637958
vt 0.6629432 0.02707462
vt 0.6853055 0.02707462
vt 0.694056 0.02707462
vt 0.6969728 0.01735185
vt 0.7076679 0.01249047
vt 0.7057233 0.01637958
vt 0.6619709 0.01637958
vt 0.64447 0.02707462
vt 0.6629432 0.02707462
vt 0.6434977 0.01637958
vt 0.6250244 0.02707462
vt 0.6250244 0.01637958
vt 0.6046066 0.01540729
vt 0.6036344 0.02707462
vt 0.5832165 0.02610233
vt 0.5822443 0.02221324
vt 0.5802997 0.01443502
vt 0.7144738 0.01054592
vt 0.7076679 0.01249047
vt 0.7057233 0.01637958
vt 0.7125293 0.02707462
vt 0.7241966 0.01832412
vt 0.7076679 0.01249047
vt 0.7144738 0.01054592
vt 0.7135016 0.004712261
vt 0.7057233 0.004712261
vt 0.5802997 0.01443502
vt 0.5666879 0.01443502
vt 0.5676602 0.02026868
vt 0.5734938 0.02415779
vt 0.7154461 0.009573646
vt 0.7173907 0.008601367
vt 0.7173907 0.004712261
vt 0.7144738 0.004712261
vt 0.5521037 0.01540729
vt 0.5462701 0.01637958
vt 0.5462701 0.004712261
vt 0.5462701 0.02415779
vt 0.5501592 0.02415779
vt 0.5627987 0.02415779
vt 0.5569651 0.02415779
vt 0.5521037 0.01540729
vt 0.5666879 0.01443502
vt 0.6814165 0.01637958
vt 0.7057233 0.004712261
vt 0.7076679 0.01249047
vt 0.6872501 0.004712261
vt 0.6619709 0.004712261
vt 0.6619709 0.01637958
vt 0.5666879 0.004712261
vt 0.5802997 0.01443502
vt 0.5666879 0.01443502
vt 0.5802997 0.004712261
vt 0.6046066 0.01540729
vt 0.6046066 0.004712261
vt 0.6259967 0.004712261
vt 0.6250244 0.01637958
vt 0.64447 0.004712261
vt 0.6434977 0.01637958
vt 0.6619709 0.004712261
vt 0.6619709 0.01637958
vt 0.5666879 0.004712261
vt 0.5666879 0.01443502
vt 0.5521037 0.01540729
vt 0.5550206 0.004712261
vt 0.5462701 0.004712261
vt 0.5550206 0.004712261
vt 0.5521037 0.01540729
vt 0.5462701 0.004712261
vt 0.5462701 0.004712261
vt 0.5627987 0.02415779
vt 0.5686324 0.02026868
vt 0.5686324 0.02415779
vt 0.5666879 0.01443502
vt 0.5734938 0.02415779
vt 0.5822443 0.02221324
vt 0.5832165 0.02610233
vt 0.5802997 0.01443502
vt 0.6814165 0.01637958
vt 0.6629432 0.02707462
vt 0.6619709 0.01637958
vt 0.6853055 0.02707462
vt 0.694056 0.02707462
vt 0.6969728 0.01735185
vt 0.7076679 0.01249047
vt 0.7057233 0.01637958
vt 0.6619709 0.01637958
vt 0.6629432 0.02707462
vt 0.64447 0.02707462
vt 0.6434977 0.01637958
vt 0.6250244 0.02707462
vt 0.6250244 0.01637958
vt 0.6046066 0.01540729
vt 0.6036344 0.02707462
vt 0.5832165 0.02610233
vt 0.5822443 0.02221324
vt 0.5802997 0.01443502
vt 0.7144738 0.01054592
vt 0.7057233 0.01637958
vt 0.7076679 0.01249047
vt 0.7125293 0.02707462
vt 0.7241966 0.01832412
vt 0.7076679 0.01249047
vt 0.7057233 0.004712261
vt 0.7135016 0.004712261
vt 0.7144738 0.01054592
vt 0.5802997 0.01443502
vt 0.5676602 0.02026868
vt 0.5666879 0.01443502
vt 0.5734938 0.02415779
vt 0.7154461 0.009573646
vt 0.7144738 0.004712261
vt 0.7173907 0.004712261
vt 0.7173907 0.008601367
vn 0.9250184 -0.04086411 0.3777183
vn 0.4049276 -0.4643666 0.787653
vn 0.9250184 -0.04086411 0.3777183
vn 0.887869 0.4495071 0.09814271
vn 0.9473079 0.07801378 0.3106791
vn 0.9473079 0.07801378 0.3106791
vn 0.9101586 0.1671722 0.3790313
vn 0.9101586 0.1671722 0.3790313
vn 0.9101586 0.1671722 0.3790313
vn 0.7689911 0.3306292 0.5471169
vn 0.8581495 0.1374527 0.4946576
vn 0.8581495 0.1374527 0.4946576
vn -0.9250187 -0.04086411 0.3777176
vn -0.9250187 -0.04086411 0.3777176
vn -0.404928 -0.4643666 0.7876529
vn -0.8878694 0.4495071 0.09813937
vn -0.9473083 0.07801378 0.310678
vn -0.9473083 0.07801378 0.310678
vn -0.9101589 0.1671722 0.3790307
vn -0.9101589 0.1671722 0.3790307
vn -0.9101589 0.1671722 0.3790307
vn -0.7689915 0.3306292 0.5471165
vn -0.8581499 0.1374527 0.494657
vn -0.8581499 0.1374527 0.494657
vn 0.02600437 -0.04086411 0.9988263
vn -0.01114494 -0.1300225 0.9914484
vn -0.2860501 0.1300229 0.9493521
vn -0.01114494 -0.1300225 0.9914484
vn 0.02600437 -0.04086411 0.9988263
vn 0.1374524 -0.02600437 0.990167
vn 0.1374524 -0.02600437 0.990167
vn 0.1374524 -0.02600437 0.990167
vn 0.1225927 -0.01114464 0.9923945
vn 0.7838508 -0.2563303 0.5655729
vn 0.4866562 -0.5312353 0.693509
vn 0.4866562 -0.5312353 0.693509
vn 0.7838508 -0.2637601 0.5621463
vn 0.5609548 -0.4346471 0.7045648
vn 0.5609548 -0.4346471 0.7045648
vn 0.3157692 -0.4495068 0.8356037
vn 0.3157692 -0.4495068 0.8356037
vn 0.3752081 -0.3009095 0.8767396
vn 0.382638 -0.3009095 0.8735225
vn 0.4197873 -0.3009095 0.8562897
vn 0.4123575 -0.3009095 0.8598923
vn 0.4346471 -0.3306289 0.837715
vn 0.4346471 -0.3380588 0.8347443
vn 0.5015159 -0.3677783 0.7830843
vn 0.5163757 -0.3677783 0.7733662
vn 0.5089458 -0.4123575 0.7556027
vn 0.5089458 -0.4123575 0.7556027
vn 0.2563303 -0.4643666 0.8477373
vn 0.2563303 -0.4643666 0.8477373
vn 0.2563303 -0.4643666 0.8477373
vn 0.2563303 -0.4643666 0.8477373
vn 0.159742 -0.442077 0.8826383
vn 0.159742 -0.442077 0.8826383
vn 0.159742 -0.442077 0.8826383
vn -0.03343457 -0.2637601 0.9640087
vn 0.07058358 -0.3677783 0.9272308
vn 0.2043212 -0.02600437 0.9785584
vn 0.1448823 -0.03343427 0.9888839
vn 0.1448823 0.003715098 0.9894419
vn 0.2043212 -0.02600437 0.9785584
vn 0.3083394 0.07058394 0.9486542
vn 0.3009095 0.07801378 0.9504564
vn 0.3009095 0.07801378 0.9504564
vn 0.3157692 0.07801378 0.9456234
vn 0.664973 0.4346474 0.6073652
vn 0.6278237 0.1968917 0.7530413
vn 0.6278237 0.1968917 0.7530413
vn 0.664973 0.4346474 0.6073652
vn 0.8061405 0.3677785 0.4635477
vn 0.7987106 0.3900682 0.4581574
vn 0.7689911 0.3306292 0.5471169
vn 0.6278237 0.4272175 0.6506325
vn 0.5460951 0.1003034 0.8316966
vn 0.4049276 0.3009098 0.8634159
vn 0.5460951 0.1003034 0.8316966
vn 0.4049276 0.3083396 0.8607906
vn 0.3380588 0.1968917 0.9202988
vn 0.3380588 0.1968917 0.9202988
vn 0.3306289 0.1225929 0.9357647
vn 0.3306289 0.1225929 0.9357647
vn 0.382638 0.01114494 0.9238311
vn 0.3603484 0.04086441 0.9319223
vn 0.3157692 0.07801378 0.9456234
vn 0.8655794 0.3603487 0.347737
vn 0.7987106 0.397498 0.4517264
vn 0.8581495 0.234041 0.456951
vn 0.7987106 0.397498 0.4517264
vn 0.8581495 0.3677785 0.3582155
vn 0.5015159 -0.5906743 0.6321279
vn 0.8804392 -0.07801348 0.4676973
vn 0.8804392 -0.07058358 0.4688761
vn 0.5015159 -0.5906743 0.6321279
vn 0.3157692 0.07801378 0.9456234
vn 0.2043212 -0.02600437 0.9785584
vn 0.2266108 0.03343457 0.9734114
vn 0.2414705 0.05572414 0.9688069
vn 0.8952989 -0.01114464 0.4453265
vn 0.8952989 -0.01114464 0.4453265
vn 0.8952989 -0.01114464 0.4453265
vn 0.8952989 -0.01114464 0.4453265
vn -0.02600467 -0.04086411 0.9988263
vn 0.2860497 0.1300229 0.9493522
vn 0.01114464 -0.1300225 0.9914484
vn 0.01114464 -0.1300225 0.9914484
vn -0.02600467 -0.04086411 0.9988263
vn -0.1374527 -0.02600437 0.9901669
vn -0.1225929 -0.01114464 0.9923944
vn -0.1374527 -0.02600437 0.9901669
vn -0.1374527 -0.02600437 0.9901669
vn -0.7838511 -0.2563303 0.5655724
vn -0.4866564 -0.5312353 0.6935089
vn -0.4866564 -0.5312353 0.6935089
vn -0.7838511 -0.2637601 0.5621459
vn -0.5609552 -0.4346471 0.7045646
vn -0.5609552 -0.4346471 0.7045646
vn -0.3157696 -0.4495068 0.8356035
vn -0.3752085 -0.3009095 0.8767395
vn -0.3157696 -0.4495068 0.8356035
vn -0.3826383 -0.3009095 0.8735224
vn -0.4197876 -0.3009095 0.8562896
vn -0.4123578 -0.3009095 0.8598922
vn -0.4346474 -0.3306289 0.8377148
vn -0.4346474 -0.3380588 0.8347442
vn -0.5015162 -0.3677783 0.783084
vn -0.5163759 -0.3677783 0.773366
vn -0.5089461 -0.4123575 0.7556026
vn -0.5089461 -0.4123575 0.7556026
vn -0.2563306 -0.4643666 0.8477372
vn -0.2563306 -0.4643666 0.8477372
vn -0.2563306 -0.4643666 0.8477372
vn -0.2563306 -0.4643666 0.8477372
vn -0.1597424 -0.442077 0.8826383
vn -0.1597424 -0.442077 0.8826383
vn -0.1597424 -0.442077 0.8826383
vn 0.03343427 -0.2637601 0.9640087
vn -0.07058394 -0.3677783 0.9272308
vn -0.2043215 -0.02600437 0.9785584
vn -0.1448826 0.003715098 0.9894419
vn -0.1448826 -0.03343427 0.9888838
vn -0.2043215 -0.02600437 0.9785584
vn -0.3083396 0.07058394 0.9486541
vn -0.3009098 0.07801378 0.9504563
vn -0.3009098 0.07801378 0.9504563
vn -0.3157696 0.07801378 0.9456233
vn -0.6649733 0.4346474 0.6073649
vn -0.6278239 0.1968917 0.753041
vn -0.6278239 0.1968917 0.753041
vn -0.6649733 0.4346474 0.6073649
vn -0.8061408 0.3677785 0.4635472
vn -0.7987109 0.3900682 0.4581568
vn -0.7689915 0.3306292 0.5471165
vn -0.6278239 0.4272175 0.6506323
vn -0.5460954 0.1003034 0.8316965
vn -0.5460954 0.1003034 0.8316965
vn -0.404928 0.3009098 0.8634157
vn -0.404928 0.3083396 0.8607904
vn -0.3380591 0.1968917 0.9202988
vn -0.3380591 0.1968917 0.9202988
vn -0.3306292 0.1225929 0.9357646
vn -0.3306292 0.1225929 0.9357646
vn -0.3826383 0.01114494 0.923831
vn -0.3603487 0.04086441 0.9319221
vn -0.3157696 0.07801378 0.9456233
vn -0.8655797 0.3603487 0.3477364
vn -0.8581499 0.234041 0.4569503
vn -0.7987109 0.397498 0.4517258
vn -0.7987109 0.397498 0.4517258
vn -0.8581499 0.3677785 0.3582146
vn -0.5015162 -0.5906743 0.6321277
vn -0.5015162 -0.5906743 0.6321277
vn -0.8804394 -0.07058358 0.4688757
vn -0.8804394 -0.07801348 0.4676969
vn -0.3157696 0.07801378 0.9456233
vn -0.2266111 0.03343457 0.9734113
vn -0.2043215 -0.02600437 0.9785584
vn -0.2414708 0.05572414 0.9688069
vn -0.8952992 -0.01114464 0.4453259
vn -0.8952992 -0.01114464 0.4453259
vn -0.8952992 -0.01114464 0.4453259
vn -0.8952992 -0.01114464 0.4453259
g n_eyebrows_thickFurrowed_mesh_0
f 3/3/3 2/2/2 1/1/1
f 6/6/6 5/5/5 4/4/4
f 9/9/9 8/8/8 7/7/7
f 12/12/12 11/11/11 10/10/10
f 15/15/15 14/14/14 13/13/13
f 18/18/18 17/17/17 16/16/16
f 21/21/21 20/20/20 19/19/19
f 24/24/24 23/23/23 22/22/22
f 27/27/27 26/26/26 25/25/25
f 28/28/28 27/27/27 25/25/25
f 29/29/29 28/28/28 25/25/25
f 32/32/32 31/31/31 30/30/30
f 33/33/33 32/32/32 30/30/30
f 36/36/36 35/35/35 34/34/34
f 37/37/37 36/36/36 34/34/34
f 37/37/37 34/34/34 38/38/38
f 34/34/34 39/39/39 38/38/38
f 42/42/42 41/41/41 40/40/40
f 43/43/43 42/42/42 40/40/40
f 44/44/44 42/42/42 43/43/43
f 45/45/45 44/44/44 43/43/43
f 45/45/45 46/46/46 44/44/44
f 46/46/46 47/47/47 44/44/44
f 46/46/46 48/48/48 47/47/47
f 48/48/48 49/49/49 47/47/47
f 48/48/48 50/50/50 49/49/49
f 50/50/50 51/51/51 49/49/49
f 54/54/54 53/53/53 52/52/52
f 55/55/55 54/54/54 52/52/52
f 58/58/58 57/57/57 56/56/56
f 57/57/57 59/59/59 56/56/56
f 57/57/57 60/60/60 59/59/59
f 63/63/63 62/62/62 61/61/61
f 63/63/63 61/61/61 64/64/64
f 67/67/67 66/66/66 65/65/65
f 67/67/67 65/65/65 68/68/68
f 71/71/71 70/70/70 69/69/69
f 72/72/72 71/71/71 69/69/69
f 73/73/73 72/72/72 69/69/69
f 74/74/74 73/73/73 69/69/69
f 74/74/74 69/69/69 75/75/75
f 74/74/74 75/75/75 76/76/76
f 79/79/79 78/78/78 77/77/77
f 78/78/78 80/80/80 77/77/77
f 78/78/78 81/81/81 80/80/80
f 81/81/81 82/82/82 80/80/80
f 83/83/83 82/82/82 81/81/81
f 84/84/84 83/83/83 81/81/81
f 84/84/84 85/85/85 83/83/83
f 85/85/85 86/86/86 83/83/83
f 86/86/86 87/87/87 83/83/83
f 90/90/90 89/89/89 88/88/88
f 91/91/91 90/90/90 88/88/88
f 92/92/92 91/91/91 88/88/88
f 95/95/95 94/94/94 93/93/93
f 96/96/96 95/95/95 93/93/93
f 99/99/99 98/98/98 97/97/97
f 100/100/100 99/99/99 97/97/97
f 103/103/103 102/102/102 101/101/101
f 104/104/104 103/103/103 101/101/101
f 107/107/107 106/106/106 105/105/105
f 106/106/106 108/108/108 105/105/105
f 108/108/108 109/109/109 105/105/105
f 112/112/112 111/111/111 110/110/110
f 113/113/113 112/112/112 110/110/110
f 116/116/116 115/115/115 114/114/114
f 115/115/115 117/117/117 114/114/114
f 114/114/114 117/117/117 118/118/118
f 119/119/119 114/114/114 118/118/118
f 122/122/122 121/121/121 120/120/120
f 121/121/121 123/123/123 120/120/120
f 121/121/121 124/124/124 123/123/123
f 124/124/124 125/125/125 123/123/123
f 126/126/126 125/125/125 124/124/124
f 127/127/127 126/126/126 124/124/124
f 128/128/128 126/126/126 127/127/127
f 129/129/129 128/128/128 127/127/127
f 130/130/130 128/128/128 129/129/129
f 131/131/131 130/130/130 129/129/129
f 134/134/134 133/133/133 132/132/132
f 135/135/135 134/134/134 132/132/132
f 138/138/138 137/137/137 136/136/136
f 139/139/139 138/138/138 136/136/136
f 140/140/140 138/138/138 139/139/139
f 143/143/143 142/142/142 141/141/141
f 141/141/141 142/142/142 144/144/144
f 147/147/147 146/146/146 145/145/145
f 145/145/145 146/146/146 148/148/148
f 151/151/151 150/150/150 149/149/149
f 150/150/150 152/152/152 149/149/149
f 152/152/152 153/153/153 149/149/149
f 153/153/153 154/154/154 149/149/149
f 149/149/149 154/154/154 155/155/155
f 155/155/155 154/154/154 156/156/156
f 159/159/159 158/158/158 157/157/157
f 160/160/160 159/159/159 157/157/157
f 161/161/161 159/159/159 160/160/160
f 162/162/162 161/161/161 160/160/160
f 162/162/162 163/163/163 161/161/161
f 163/163/163 164/164/164 161/161/161
f 165/165/165 164/164/164 163/163/163
f 166/166/166 165/165/165 163/163/163
f 167/167/167 166/166/166 163/163/163
f 170/170/170 169/169/169 168/168/168
f 169/169/169 171/171/171 168/168/168
f 171/171/171 172/172/172 168/168/168
f 175/175/175 174/174/174 173/173/173
f 176/176/176 175/175/175 173/173/173
f 179/179/179 178/178/178 177/177/177
f 178/178/178 180/180/180 177/177/177
f 183/183/183 182/182/182 181/181/181
f 184/184/184 183/183/183 181/181/181
