g n_eyelashes_b_crease_mesh
v 1.050822 93.76384 4.40745
v 1.067133 93.81574 4.46528
v 1.119031 93.8187 4.438589
v 2.922144 93.87802 3.704592
v 2.947352 93.88247 3.677901
v 2.994802 93.80685 3.631933
v -1.050339 93.76384 4.40745
v -1.120031 93.8187 4.438589
v -1.066649 93.81574 4.46528
v -2.921661 93.87802 3.704592
v -2.994319 93.80685 3.631933
v -2.946869 93.88247 3.677901
v 1.322178 93.96106 4.448969
v 1.274728 94.01889 4.484557
v 1.445253 94.12417 4.468246
v 1.474909 94.04855 4.414864
v 2.10066 94.09748 4.22358
v 2.134765 94.17014 4.241374
v 2.413536 94.12714 4.090126
v 2.383879 94.06041 4.079746
v 2.776828 93.95661 3.806906
v 2.807967 93.99368 3.809872
v 2.947352 93.88247 3.677901
v 2.922144 93.87802 3.704592
v 2.383879 94.06041 4.079746
v 2.413536 94.12714 4.090126
v 2.564784 94.08858 3.993742
v 2.532162 94.03075 3.983362
v 2.701204 94.04113 3.894393
v 2.668581 93.99368 3.885496
v 2.776828 93.95661 3.806906
v 2.807967 93.99368 3.809872
v 1.640985 94.08117 4.385207
v 1.620226 94.1553 4.423761
v 1.850063 94.182 4.34962
v 1.839683 94.10044 4.321446
v 2.10066 94.09748 4.22358
v 2.134765 94.17014 4.241374
v 1.445253 94.12417 4.468246
v 1.620226 94.1553 4.423761
v 1.640985 94.08117 4.385207
v 1.474909 94.04855 4.414864
v 1.119031 93.8187 4.438589
v 1.067133 93.81574 4.46528
v 1.159068 93.92399 4.487522
v 1.218381 93.89137 4.456383
v 1.322178 93.96106 4.448969
v 1.274728 94.01889 4.484557
v -1.323178 93.96106 4.448969
v -1.475909 94.04855 4.414864
v -1.444769 94.12417 4.468246
v -1.274245 94.01889 4.484557
v -2.100177 94.09748 4.22358
v -2.383397 94.06041 4.079746
v -2.413053 94.12714 4.090126
v -2.134282 94.17014 4.241374
v -2.777827 93.95661 3.806906
v -2.921661 93.87802 3.704592
v -2.946869 93.88247 3.677901
v -2.807484 93.99368 3.809872
v -2.383397 94.06041 4.079746
v -2.564301 94.08858 3.993742
v -2.413053 94.12714 4.090126
v -2.531679 94.03075 3.983362
v -2.70072 94.04113 3.894393
v -2.668098 93.99368 3.885496
v -2.777827 93.95661 3.806906
v -2.807484 93.99368 3.809872
v -1.641985 94.08117 4.385207
v -1.84958 94.182 4.34962
v -1.619742 94.1553 4.423761
v -1.8392 94.10044 4.321446
v -2.100177 94.09748 4.22358
v -2.134282 94.17014 4.241374
v -1.444769 94.12417 4.468246
v -1.475909 94.04855 4.414864
v -1.641985 94.08117 4.385207
v -1.619742 94.1553 4.423761
v -1.120031 93.8187 4.438589
v -1.160068 93.92399 4.487522
v -1.066649 93.81574 4.46528
v -1.217897 93.89137 4.456383
v -1.323178 93.96106 4.448969
v -1.274245 94.01889 4.484557
vt 0.5857674 0.5852638
vt 0.5842566 0.5847602
vt 0.5842566 0.5847602
vt 0.5756958 0.5807316
vt 0.5756958 0.5807316
vt 0.5746886 0.580228
vt 0.5857674 0.5852638
vt 0.5842566 0.5847602
vt 0.5842566 0.5847602
vt 0.5756958 0.5807316
vt 0.5746886 0.580228
vt 0.5756958 0.5807316
vt 0.583753 0.5842566
vt 0.583753 0.5842566
vt 0.5832495 0.5842566
vt 0.5832495 0.5842566
vt 0.5797244 0.5822423
vt 0.5797244 0.5822423
vt 0.5787172 0.5817388
vt 0.5787172 0.5817388
vt 0.576703 0.5812352
vt 0.576703 0.5812352
vt 0.5756958 0.5807316
vt 0.5756958 0.5807316
vt 0.5787172 0.5817388
vt 0.5787172 0.5817388
vt 0.5782137 0.5817388
vt 0.5782137 0.5817388
vt 0.5777101 0.5812352
vt 0.5777101 0.5812352
vt 0.576703 0.5812352
vt 0.576703 0.5812352
vt 0.5822423 0.5832495
vt 0.5822423 0.5832495
vt 0.5807316 0.5822423
vt 0.5807316 0.5822423
vt 0.5797244 0.5822423
vt 0.5797244 0.5822423
vt 0.5832495 0.5842566
vt 0.5822423 0.5832495
vt 0.5822423 0.5832495
vt 0.5832495 0.5842566
vt 0.5842566 0.5847602
vt 0.5842566 0.5847602
vt 0.583753 0.5842566
vt 0.583753 0.5842566
vt 0.583753 0.5842566
vt 0.583753 0.5842566
vt 0.583753 0.5842566
vt 0.5832495 0.5842566
vt 0.5832495 0.5842566
vt 0.583753 0.5842566
vt 0.5797244 0.5822423
vt 0.5787172 0.5817388
vt 0.5787172 0.5817388
vt 0.5797244 0.5822423
vt 0.576703 0.5812352
vt 0.5756958 0.5807316
vt 0.5756958 0.5807316
vt 0.576703 0.5812352
vt 0.5787172 0.5817388
vt 0.5782137 0.5817388
vt 0.5787172 0.5817388
vt 0.5782137 0.5817388
vt 0.5777101 0.5812352
vt 0.5777101 0.5812352
vt 0.576703 0.5812352
vt 0.576703 0.5812352
vt 0.5822423 0.5832495
vt 0.5807316 0.5822423
vt 0.5822423 0.5832495
vt 0.5807316 0.5822423
vt 0.5797244 0.5822423
vt 0.5797244 0.5822423
vt 0.5832495 0.5842566
vt 0.5832495 0.5842566
vt 0.5822423 0.5832495
vt 0.5822423 0.5832495
vt 0.5842566 0.5847602
vt 0.583753 0.5842566
vt 0.5842566 0.5847602
vt 0.583753 0.5842566
vt 0.583753 0.5842566
vt 0.583753 0.5842566
vn 0.3262694 -0.7446085 0.5823285
vn 0.3262694 -0.7446085 0.5823285
vn 0.3262694 -0.7446085 0.5823285
vn 0.7387982 0.0630182 0.6709738
vn 0.7387982 0.0630182 0.6709738
vn 0.7387982 0.0630182 0.6709738
vn -0.3302904 -0.7446085 0.5800573
vn -0.3302904 -0.7446085 0.5800573
vn -0.3302904 -0.7446085 0.5800573
vn -0.7370089 0.0630182 0.6729388
vn -0.7370089 0.0630182 0.6729388
vn -0.7370089 0.0630182 0.6729388
vn 0.3320797 -0.3553208 0.8737678
vn 0.3262694 -0.3495105 0.8782885
vn 0.3553208 -0.3669413 0.8597099
vn 0.3553208 -0.3669413 0.8597099
vn 0.3959926 -0.3553208 0.8467213
vn 0.3959926 -0.3553208 0.8467213
vn 0.3959926 -0.3553208 0.8467213
vn 0.3959926 -0.3553208 0.8467213
vn 0.5238184 -0.227495 0.8208899
vn 0.5238184 -0.227495 0.8208899
vn 0.5238184 -0.227495 0.8208899
vn 0.5238184 -0.227495 0.8208899
vn 0.448285 -0.361131 0.8176949
vn 0.448285 -0.361131 0.8176949
vn 0.4424748 -0.3843721 0.8102309
vn 0.4424748 -0.3843721 0.8102309
vn 0.4366645 -0.4250439 0.792882
vn 0.4366645 -0.4250439 0.792882
vn 0.4308542 -0.4366645 0.7897397
vn 0.4308542 -0.4366645 0.7897397
vn 0.3204592 -0.3495105 0.880425
vn 0.3204592 -0.3495105 0.880425
vn 0.3204592 -0.3495105 0.880425
vn 0.3204592 -0.3495105 0.880425
vn 0.3262694 -0.3553208 0.875954
vn 0.3262694 -0.3553208 0.875954
vn 0.2681668 -0.4250439 0.864537
vn 0.2681668 -0.4250439 0.864537
vn 0.2681668 -0.4250439 0.864537
vn 0.2681668 -0.4250439 0.864537
vn 0.2855976 -0.4889568 0.8242301
vn 0.2855976 -0.4889568 0.8242301
vn 0.2914079 -0.4076132 0.8654091
vn 0.2914079 -0.3785618 0.8785058
vn 0.3320797 -0.3553208 0.8737678
vn 0.3262694 -0.3495105 0.8782885
vn -0.3361006 -0.3553208 0.8722291
vn -0.3535314 -0.3669413 0.8604473
vn -0.3535314 -0.3669413 0.8604473
vn -0.3302904 -0.3495105 0.8767843
vn -0.3942032 -0.3553208 0.8475558
vn -0.3942032 -0.3553208 0.8475558
vn -0.3942032 -0.3553208 0.8475558
vn -0.3942032 -0.3553208 0.8475558
vn -0.5278394 -0.227495 0.8183103
vn -0.5278394 -0.227495 0.8183103
vn -0.5278394 -0.227495 0.8183103
vn -0.5278394 -0.227495 0.8183103
vn -0.4464956 -0.361131 0.8186733
vn -0.4406853 -0.3843721 0.8112056
vn -0.4464956 -0.361131 0.8186733
vn -0.4464956 -0.3843721 0.8080221
vn -0.4348751 -0.4250439 0.7938648
vn -0.4406853 -0.4250439 0.7906542
vn -0.4348751 -0.4366645 0.7875327
vn -0.4348751 -0.4366645 0.7875327
vn -0.3186699 -0.3495105 0.8810743
vn -0.3186699 -0.3495105 0.8810743
vn -0.3186699 -0.3495105 0.8810743
vn -0.3186699 -0.3495105 0.8810743
vn -0.3244801 -0.3553208 0.8766184
vn -0.3244801 -0.3553208 0.8766184
vn -0.2663775 -0.4308542 0.8622109
vn -0.2663775 -0.4308542 0.8622109
vn -0.2663775 -0.4308542 0.8622109
vn -0.2663775 -0.4308542 0.8622109
vn -0.2896186 -0.4889568 0.8228258
vn -0.2896186 -0.4076132 0.8660096
vn -0.2896186 -0.4889568 0.8228258
vn -0.2954288 -0.3785618 0.8771617
vn -0.3361006 -0.3553208 0.8722291
vn -0.3302904 -0.3495105 0.8767843
g n_eyelashes_b_crease_mesh_0
f 3/3/3 2/2/2 1/1/1
f 6/6/6 5/5/5 4/4/4
f 9/9/9 8/8/8 7/7/7
f 12/12/12 11/11/11 10/10/10
f 15/15/15 14/14/14 13/13/13
f 16/16/16 15/15/15 13/13/13
f 19/19/19 18/18/18 17/17/17
f 20/20/20 19/19/19 17/17/17
f 23/23/23 22/22/22 21/21/21
f 24/24/24 23/23/23 21/21/21
f 27/27/27 26/26/26 25/25/25
f 28/28/28 27/27/27 25/25/25
f 27/27/27 28/28/28 29/29/29
f 28/28/28 30/30/30 29/29/29
f 30/30/30 31/31/31 29/29/29
f 31/31/31 32/32/32 29/29/29
f 35/35/35 34/34/34 33/33/33
f 36/36/36 35/35/35 33/33/33
f 35/35/35 36/36/36 37/37/37
f 38/38/38 35/35/35 37/37/37
f 41/41/41 40/40/40 39/39/39
f 42/42/42 41/41/41 39/39/39
f 45/45/45 44/44/44 43/43/43
f 46/46/46 45/45/45 43/43/43
f 46/46/46 47/47/47 45/45/45
f 47/47/47 48/48/48 45/45/45
f 51/51/51 50/50/50 49/49/49
f 52/52/52 51/51/51 49/49/49
f 55/55/55 54/54/54 53/53/53
f 56/56/56 55/55/55 53/53/53
f 59/59/59 58/58/58 57/57/57
f 60/60/60 59/59/59 57/57/57
f 63/63/63 62/62/62 61/61/61
f 62/62/62 64/64/64 61/61/61
f 64/64/64 62/62/62 65/65/65
f 66/66/66 64/64/64 65/65/65
f 67/67/67 66/66/66 65/65/65
f 68/68/68 67/67/67 65/65/65
f 71/71/71 70/70/70 69/69/69
f 70/70/70 72/72/72 69/69/69
f 72/72/72 70/70/70 73/73/73
f 70/70/70 74/74/74 73/73/73
f 77/77/77 76/76/76 75/75/75
f 78/78/78 77/77/77 75/75/75
f 81/81/81 80/80/80 79/79/79
f 80/80/80 82/82/82 79/79/79
f 83/83/83 82/82/82 80/80/80
f 84/84/84 83/83/83 80/80/80
