g n_face_gracidea_mesh
v 3.435752 89.71474 3.1050992
v 3.3568232 90.06845 3.436892
v 3.7324653 90.16931 2.8902373
v 2.7897058 89.16516 3.607904
v 3.8420887 90.47918 2.7908459
v 2.6523113 89.596344 3.9733148
v 2.323442 89.108154 4.0347037
v 2.0588846 89.11254 4.2349486
v 3.6900778 90.83436 3.2790346
v 3.9502501 91.123764 2.7528434
v 3.8669364 91.649956 3.1021757
v 2.4959157 89.93983 4.2276406
v 1.8659477 89.69573 4.5375085
v 3.115652 90.442635 3.8505368
v 3.399211 91.056526 3.7248354
v 3.5746078 91.8385 3.562593
v 3.2954342 91.6938 3.8856163
v 3.054263 91.316696 4.0917077
v 2.821862 90.69257 4.1808677
v 2.5485349 90.92644 4.4205775
v 2.2562063 90.25408 4.4717345
v 1.9010272 90.21169 4.6485934
v 2.2869008 90.76273 4.5565104
v 1.9375682 90.53764 4.6939044
vt 0.89374804 0.29727843
vt 0.80300856 0.44766492
vt 1.0492109 0.44703043
vt 0.6056659 0.15894824
vt 1.1190106 0.5498262
vt 0.5098501 0.34360003
vt 0.40895784 0.19384807
vt 0.29727843 0.21098071
vt 0.9635477 0.70846176
vt 1.1888102 0.7750887
vt 1.0872835 0.982584
vt 0.42291778 0.48510295
vt 0.19765532 0.43370503
vt 0.6500839 0.6120114
vt 0.7795305 0.81950665
vt 0.9007281 1.0783999
vt 0.741458 1.0511146
vt 0.6101077 0.93435884
vt 0.50604284 0.72749805
vt 0.38801798 0.824583
vt 0.31504562 0.61518407
vt 0.17861906 0.6158186
vt 0.29220212 0.78079957
vt 0.17481181 0.71988356
vn 0.76840496 -0.3398258 0.5422843
vn 0.76500356 -0.27519876 0.5822673
vn 0.8398348 -0.23778313 0.4879925
vn 0.6969751 -0.33642435 0.63328063
vn 0.8636448 -0.20717037 0.45956296
vn 0.6561581 -0.3024102 0.69137883
vn 0.61193955 -0.3194173 0.72353476
vn 0.53370684 -0.27179736 0.80080163
vn 0.84323627 -0.16295189 0.51224923
vn 0.9146661 -0.122134805 0.3853167
vn 0.8568419 -0.08131772 0.50912607
vn 0.5745239 -0.24798739 0.7800157
vn 0.49969265 -0.25479025 0.82788235
vn 0.6969751 -0.22757888 0.6800247
vn 0.76160216 -0.1255362 0.6357695
vn 0.81262344 -0.06090921 0.5795974
vn 0.74459505 -0.047303498 0.66583824
vn 0.66976374 -0.11193055 0.73409
vn 0.6187424 -0.17315614 0.7662733
vn 0.5711225 -0.15274757 0.8065279
vn 0.51669973 -0.20717037 0.83072364
vn 0.45207274 -0.20036751 0.8691853
vn 0.5064955 -0.17315614 0.84467703
vn 0.45547414 -0.17315614 0.87324697
g n_face_gracidea_mesh_0
f 3/3/3 2/2/2 1/1/1
f 2/2/2 4/4/4 1/1/1
f 2/2/2 3/3/3 5/5/5
f 2/2/2 6/6/6 4/4/4
f 7/7/7 4/4/4 6/6/6
f 6/6/6 8/8/8 7/7/7
f 9/9/9 2/2/2 5/5/5
f 10/10/10 9/9/9 5/5/5
f 9/9/9 10/10/10 11/11/11
f 8/8/8 6/6/6 12/12/12
f 12/12/12 13/13/13 8/8/8
f 6/6/6 2/2/2 14/14/14
f 9/9/9 14/14/14 2/2/2
f 14/14/14 12/12/12 6/6/6
f 11/11/11 15/15/15 9/9/9
f 14/14/14 9/9/9 15/15/15
f 15/15/15 11/11/11 16/16/16
f 17/17/17 15/15/15 16/16/16
f 15/15/15 17/17/17 18/18/18
f 15/15/15 19/19/19 14/14/14
f 19/19/19 15/15/15 18/18/18
f 12/12/12 14/14/14 19/19/19
f 18/18/18 20/20/20 19/19/19
f 13/13/13 12/12/12 21/21/21
f 19/19/19 21/21/21 12/12/12
f 21/21/21 19/19/19 20/20/20
f 21/21/21 22/22/22 13/13/13
f 23/23/23 21/21/21 20/20/20
f 22/22/22 21/21/21 24/24/24
f 21/21/21 23/23/23 24/24/24
