g n_glasses_frillishglasses_lense_mesh
v -3.0784297 92.9845 5.2507524
v -3.1856117 93.672874 5.235656
v -2.6044135 93.76345 5.3458576
v -2.4972315 93.07507 5.3564243
v 3.0777411 92.9845 5.2507524
v 2.4980526 93.07507 5.3564243
v 2.6052346 93.76345 5.3458576
v 3.1849232 93.672874 5.235656
v 0.89636135 92.84863 5.4379435
v 0.9159863 93.32717 5.4515295
v 1.3930216 93.25169 5.44851
v 1.0458124 93.789116 5.45002
v 1.2813108 92.56332 5.425866
v 0.98693776 92.3882 5.407751
v 1.1801672 91.977585 5.3654823
v 1.7991054 92.4818 5.394164
v 1.501713 93.93856 5.4424715
v 1.276782 94.19822 5.430395
v 1.5877607 94.52882 5.3971834
v 2.0179982 93.85705 5.4107704
v 1.6979618 91.89456 5.3413286
v 1.4594443 91.64698 5.3141556
v 1.8036342 91.412994 5.2552805
v 1.9123259 93.16866 5.425866
v 2.2836888 91.802475 5.2688675
v 2.1916027 91.29223 5.1948967
v 2.5976868 91.2877 5.1360216
v 2.3848324 92.3882 5.3292513
v 2.863377 91.71039 5.166214
v 2.9977322 91.40243 5.0816765
v 3.3675854 91.63189 5.0363884
v 2.964521 92.29762 5.2190504
v 3.468729 92.21761 5.096772
v 3.5804398 92.90449 5.119416
v 3.678564 91.962494 5.0031767
v 3.9080243 92.3716 4.9850616
v 4.03936 92.833534 4.9820423
v 4.0589848 93.31208 4.9956284
v 3.0777411 92.9845 5.2507524
v 2.4980526 93.07507 5.3564243
v 2.6052346 93.76345 5.3458576
v 3.1849232 93.672874 5.235656
v 2.6912823 94.35371 5.29906
v 3.6891315 93.592865 5.1133776
v 3.9684083 93.77251 5.0258207
v 3.775179 94.18312 5.0680895
v 3.2724802 94.26162 5.197916
v 3.495902 94.513725 5.120926
v 3.151712 94.74771 5.1782913
v 2.7637434 94.868484 5.238675
v 2.3576593 94.87301 5.29755
v 2.1055553 94.44579 5.3730297
v 1.957614 94.75828 5.3518953
v -0.89554024 92.84863 5.4379435
v -1.3937101 93.25169 5.44851
v -0.9166746 93.32717 5.4515295
v -1.0465007 93.789116 5.45002
v -1.2819991 92.56332 5.425866
v -0.9861164 92.3882 5.407751
v -1.1793461 91.977585 5.3654823
v -1.7982845 92.4818 5.394164
v -1.5008922 93.93856 5.4424715
v -1.2759609 94.19822 5.430395
v -1.588449 94.52882 5.3971834
v -2.0186868 93.85705 5.4107704
v -1.6971407 91.89456 5.3413286
v -1.4586229 91.64698 5.3141556
v -1.8043227 91.412994 5.2552805
v -1.9115047 93.16866 5.425866
v -2.282868 91.802475 5.2688675
v -2.1907816 91.29223 5.1948967
v -2.5968657 91.2877 5.1360216
v -2.385521 92.3882 5.3292513
v -2.8640656 91.71039 5.166214
v -2.9984207 91.40243 5.0816765
v -3.3667645 91.63189 5.0363884
v -2.9652095 92.29762 5.2190504
v -3.4694176 92.21761 5.096772
v -3.5811286 92.90449 5.119416
v -3.6792526 91.962494 5.0031767
v -3.9087129 92.3716 4.9850616
v -4.038539 92.833534 4.9820423
v -4.0596733 93.31208 4.9956284
v -3.0784297 92.9845 5.2507524
v -2.4972315 93.07507 5.3564243
v -2.6044135 93.76345 5.3458576
v -3.1856117 93.672874 5.235656
v -2.6919708 94.35371 5.29906
v -3.6883106 93.592865 5.1133776
v -3.9690971 93.77251 5.0258207
v -3.7758675 94.18312 5.0680895
v -3.2716594 94.26162 5.197916
v -3.4965906 94.513725 5.120926
v -3.1508908 94.74771 5.1782913
v -2.764432 94.868484 5.238675
v -2.358348 94.87301 5.29755
v -2.106244 94.44579 5.3730297
v -1.9567928 94.75828 5.3518953
vt 0.18012846 0.6590916
vt 0.18012846 0.7122129
vt 0.13484466 0.7122129
vt 0.13484466 0.6590916
vt 0.38390553 0.8489351
vt 0.3377509 0.8489351
vt 0.3377509 0.90205646
vt 0.38390553 0.90205646
vt 0.21931636 0.8123597
vt 0.21496212 0.8489351
vt 0.25153744 0.8489351
vt 0.21931636 0.88551044
vt 0.25153744 0.7958137
vt 0.23150814 0.7792678
vt 0.25153744 0.74965906
vt 0.29159617 0.7958137
vt 0.25153744 0.90205646
vt 0.23150814 0.9194733
vt 0.25153744 0.9482111
vt 0.29159617 0.90205646
vt 0.29159617 0.74965906
vt 0.27679193 0.7278881
vt 0.30640054 0.71395457
vt 0.29246712 0.8489351
vt 0.3377509 0.74965906
vt 0.3377509 0.7096003
vt 0.36910117 0.71395457
vt 0.3377509 0.7958137
vt 0.38390553 0.74965906
vt 0.39870977 0.7278881
vt 0.42396426 0.74965906
vt 0.38390553 0.7958137
vt 0.42396426 0.7958137
vt 0.42396426 0.8489351
vt 0.44399357 0.7792678
vt 0.45618534 0.8123597
vt 0.46053958 0.8489351
vt 0.45618534 0.88551044
vt 0.38390553 0.8489351
vt 0.3377509 0.8489351
vt 0.3377509 0.90205646
vt 0.38390553 0.90205646
vt 0.3377509 0.9482111
vt 0.42396426 0.90205646
vt 0.44399357 0.9194733
vt 0.42396426 0.9482111
vt 0.38390553 0.9482111
vt 0.39870977 0.96998215
vt 0.36910117 0.98391557
vt 0.3377509 0.9882698
vt 0.30640054 0.98391557
vt 0.29159617 0.9482111
vt 0.27679193 0.96998215
vt 0.016410172 0.62251616
vt 0.04863131 0.6590916
vt 0.0120559335 0.6590916
vt 0.016410172 0.6956669
vt 0.04863131 0.60597014
vt 0.028601944 0.5885533
vt 0.04863131 0.5598155
vt 0.08869004 0.60597014
vt 0.04863131 0.7122129
vt 0.028601944 0.72875893
vt 0.04863131 0.75836754
vt 0.08869004 0.7122129
vt 0.08869004 0.5598155
vt 0.07388574 0.53804445
vt 0.103494346 0.52411103
vt 0.08869004 0.6590916
vt 0.13484466 0.5598155
vt 0.13484466 0.5197568
vt 0.16619498 0.52411103
vt 0.13484466 0.60597014
vt 0.18099928 0.5598155
vt 0.19580364 0.53804445
vt 0.22105801 0.5598155
vt 0.18012846 0.60597014
vt 0.22105801 0.60597014
vt 0.22105801 0.6590916
vt 0.24108744 0.5885533
vt 0.2532792 0.62251616
vt 0.25763345 0.6590916
vt 0.2532792 0.6956669
vt 0.18012846 0.6590916
vt 0.13484466 0.6590916
vt 0.13484466 0.7122129
vt 0.18012846 0.7122129
vt 0.13484466 0.75836754
vt 0.22105801 0.7122129
vt 0.24108744 0.72875893
vt 0.22105801 0.75836754
vt 0.18099928 0.75836754
vt 0.19580364 0.7801386
vt 0.16619498 0.79407203
vt 0.13484466 0.7984263
vt 0.103494346 0.79407203
vt 0.08869004 0.75836754
vt 0.07388574 0.7801386
vn -0.20457521 -0.044073954 0.97785807
vn -0.21135655 0.007916331 0.977377
vn -0.15258494 0.019218564 0.98810345
vn -0.14354315 -0.035032153 0.9890238
vn 0.20456569 -0.044073954 0.9778601
vn 0.14353362 -0.035032153 0.98902524
vn 0.1525754 0.019218564 0.98810494
vn 0.21134703 0.007916331 0.977379
vn 0.0011254549 -0.0372926 0.99930376
vn 0.005646348 -0.012427688 0.99990684
vn 0.0372926 -0.019209027 0.9991197
vn 0.010167241 0.012437224 0.99987096
vn 0.03051126 -0.068938866 0.9971542
vn -0.0056558847 -0.08702244 0.9961903
vn 0.032771707 -0.105106026 0.99392086
vn 0.07345976 -0.07798065 0.99424475
vn 0.048594847 0.032781243 0.99828047
vn 0.019209027 0.059906602 0.99801916
vn 0.05989708 0.064427495 0.9961232
vn 0.089282885 0.02826035 0.9956053
vn 0.07119931 -0.118668705 0.9903779
vn 0.03955306 -0.14805451 0.98818797
vn 0.09380379 -0.1570963 0.9831183
vn 0.0802411 -0.025990367 0.9964366
vn 0.12771049 -0.12771049 0.9835548
vn 0.12092915 -0.16161719 0.97941613
vn 0.15031496 -0.16613808 0.9745787
vn 0.13449183 -0.089282885 0.98688424
vn 0.18422166 -0.13675228 0.9733248
vn 0.20230524 -0.17291942 0.9639354
vn 0.22264926 -0.13449183 0.9655772
vn 0.1955239 -0.09832469 0.9757575
vn 0.23621194 -0.10058513 0.96648157
vn 0.24751419 -0.050855294 0.9675487
vn 0.26559776 -0.12997094 0.95528287
vn 0.27463955 -0.082501546 0.9580014
vn 0.27916044 -0.055376187 0.95864636
vn 0.2814209 -0.03051126 0.95909923
vn 0.20456569 -0.044073954 0.9778601
vn 0.14353362 -0.035032153 0.98902524
vn 0.1525754 0.019218564 0.98810494
vn 0.21134703 0.007916331 0.977379
vn 0.1570963 0.059906602 0.9857647
vn 0.25203508 -0.0011254549 0.96771747
vn 0.28820223 0.016958117 0.9574194
vn 0.24977463 0.03504169 0.9676697
vn 0.21360748 0.04860437 0.97570974
vn 0.2429933 0.077990174 0.9668877
vn 0.19100301 0.08703196 0.97772354
vn 0.16161719 0.0938133 0.9823843
vn 0.13223138 0.09607375 0.98655194
vn 0.10058513 0.06668794 0.992691
vn 0.0802411 0.10511556 0.9912175
vn -0.0011349916 -0.0372926 0.9993037
vn -0.037302136 -0.019209027 0.99911934
vn -0.0056558847 -0.012427688 0.9999068
vn -0.010176778 0.012437224 0.99987084
vn -0.030520797 -0.068938866 0.99715394
vn 0.005646348 -0.08702244 0.99619037
vn -0.032781243 -0.105106026 0.99392056
vn -0.07346928 -0.07798065 0.9942441
vn -0.04860437 0.032781243 0.99828005
vn -0.019218564 0.059906602 0.998019
vn -0.059906602 0.064427495 0.9961226
vn -0.08929241 0.02826035 0.99560446
vn -0.071208835 -0.118668705 0.99037725
vn -0.039562583 -0.14805451 0.98818755
vn -0.0938133 -0.1570963 0.9831174
vn -0.08025062 -0.025990367 0.9964358
vn -0.12772003 -0.12771049 0.9835536
vn -0.12093869 -0.16161719 0.979415
vn -0.1503245 -0.16613808 0.9745772
vn -0.13450137 -0.089282885 0.986883
vn -0.18423119 -0.13675228 0.973323
vn -0.20231476 -0.17291942 0.9639334
vn -0.22265881 -0.13449183 0.965575
vn -0.19553342 -0.09832469 0.9757556
vn -0.23622149 -0.10058513 0.9664792
vn -0.24752373 -0.050855294 0.9675463
vn -0.2656073 -0.12997094 0.95528024
vn -0.27464908 -0.082501546 0.95799863
vn -0.27916998 -0.055376187 0.9586436
vn -0.28143042 -0.03051126 0.95909643
vn -0.20457521 -0.044073954 0.97785807
vn -0.14354315 -0.035032153 0.9890238
vn -0.15258494 0.019218564 0.98810345
vn -0.21135655 0.007916331 0.977377
vn -0.15710583 0.059906602 0.98576313
vn -0.25204462 -0.0011254549 0.96771497
vn -0.28821176 0.016958117 0.9574165
vn -0.24978417 0.03504169 0.9676673
vn -0.21361703 0.04860437 0.97570765
vn -0.24300283 0.077990174 0.96688527
vn -0.19101253 0.08703196 0.9777217
vn -0.16162673 0.0938133 0.9823827
vn -0.13224092 0.09607375 0.9865507
vn -0.10059464 0.06668794 0.99269
vn -0.08025062 0.10511556 0.9912167
g n_glasses_frillishglasses_lense_mesh_0
f 3/3/3 2/2/2 1/1/1
f 4/4/4 3/3/3 1/1/1
f 7/7/7 6/6/6 5/5/5
f 8/8/8 7/7/7 5/5/5
f 11/11/11 10/10/10 9/9/9
f 12/12/12 10/10/10 11/11/11
f 9/9/9 13/13/13 11/11/11
f 14/14/14 13/13/13 9/9/9
f 13/13/13 14/14/14 15/15/15
f 13/13/13 15/15/15 16/16/16
f 13/13/13 16/16/16 11/11/11
f 11/11/11 17/17/17 12/12/12
f 17/17/17 18/18/18 12/12/12
f 17/17/17 19/19/19 18/18/18
f 17/17/17 11/11/11 20/20/20
f 17/17/17 20/20/20 19/19/19
f 15/15/15 21/21/21 16/16/16
f 15/15/15 22/22/22 21/21/21
f 21/21/21 22/22/22 23/23/23
f 16/16/16 24/24/24 11/11/11
f 11/11/11 24/24/24 20/20/20
f 25/25/25 21/21/21 23/23/23
f 23/23/23 26/26/26 25/25/25
f 25/25/25 26/26/26 27/27/27
f 16/16/16 21/21/21 28/28/28
f 16/16/16 28/28/28 24/24/24
f 21/21/21 25/25/25 28/28/28
f 27/27/27 29/29/29 25/25/25
f 29/29/29 27/27/27 30/30/30
f 29/29/29 30/30/30 31/31/31
f 29/29/29 32/32/32 25/25/25
f 32/32/32 29/29/29 31/31/31
f 32/32/32 28/28/28 25/25/25
f 33/33/33 32/32/32 31/31/31
f 33/33/33 34/34/34 32/32/32
f 33/33/33 31/31/31 35/35/35
f 33/33/33 35/35/35 36/36/36
f 34/34/34 33/33/33 36/36/36
f 36/36/36 37/37/37 34/34/34
f 34/34/34 37/37/37 38/38/38
f 32/32/32 39/39/39 28/28/28
f 34/34/34 39/39/39 32/32/32
f 39/39/39 40/40/40 28/28/28
f 28/28/28 40/40/40 24/24/24
f 24/24/24 40/40/40 41/41/41
f 42/42/42 39/39/39 34/34/34
f 43/43/43 41/41/41 42/42/42
f 20/20/20 24/24/24 41/41/41
f 20/20/20 41/41/41 43/43/43
f 38/38/38 44/44/44 34/34/34
f 44/44/44 42/42/42 34/34/34
f 44/44/44 38/38/38 45/45/45
f 44/44/44 45/45/45 46/46/46
f 42/42/42 44/44/44 46/46/46
f 47/47/47 42/42/42 46/46/46
f 47/47/47 43/43/43 42/42/42
f 47/47/47 46/46/46 48/48/48
f 47/47/47 48/48/48 49/49/49
f 43/43/43 47/47/47 49/49/49
f 49/49/49 50/50/50 43/43/43
f 43/43/43 50/50/50 51/51/51
f 52/52/52 20/20/20 43/43/43
f 51/51/51 52/52/52 43/43/43
f 20/20/20 52/52/52 19/19/19
f 52/52/52 51/51/51 53/53/53
f 52/52/52 53/53/53 19/19/19
f 56/56/56 55/55/55 54/54/54
f 56/56/56 57/57/57 55/55/55
f 58/58/58 54/54/54 55/55/55
f 58/58/58 59/59/59 54/54/54
f 59/59/59 58/58/58 60/60/60
f 60/60/60 58/58/58 61/61/61
f 61/61/61 58/58/58 55/55/55
f 62/62/62 55/55/55 57/57/57
f 63/63/63 62/62/62 57/57/57
f 64/64/64 62/62/62 63/63/63
f 55/55/55 62/62/62 65/65/65
f 65/65/65 62/62/62 64/64/64
f 66/66/66 60/60/60 61/61/61
f 67/67/67 60/60/60 66/66/66
f 67/67/67 66/66/66 68/68/68
f 69/69/69 61/61/61 55/55/55
f 69/69/69 55/55/55 65/65/65
f 66/66/66 70/70/70 68/68/68
f 71/71/71 68/68/68 70/70/70
f 71/71/71 70/70/70 72/72/72
f 66/66/66 61/61/61 73/73/73
f 73/73/73 61/61/61 69/69/69
f 70/70/70 66/66/66 73/73/73
f 74/74/74 72/72/72 70/70/70
f 72/72/72 74/74/74 75/75/75
f 75/75/75 74/74/74 76/76/76
f 77/77/77 74/74/74 70/70/70
f 74/74/74 77/77/77 76/76/76
f 73/73/73 77/77/77 70/70/70
f 77/77/77 78/78/78 76/76/76
f 79/79/79 78/78/78 77/77/77
f 76/76/76 78/78/78 80/80/80
f 80/80/80 78/78/78 81/81/81
f 78/78/78 79/79/79 81/81/81
f 82/82/82 81/81/81 79/79/79
f 82/82/82 79/79/79 83/83/83
f 84/84/84 77/77/77 73/73/73
f 84/84/84 79/79/79 77/77/77
f 85/85/85 84/84/84 73/73/73
f 85/85/85 73/73/73 69/69/69
f 85/85/85 69/69/69 86/86/86
f 84/84/84 87/87/87 79/79/79
f 86/86/86 88/88/88 87/87/87
f 69/69/69 65/65/65 86/86/86
f 86/86/86 65/65/65 88/88/88
f 89/89/89 83/83/83 79/79/79
f 87/87/87 89/89/89 79/79/79
f 83/83/83 89/89/89 90/90/90
f 90/90/90 89/89/89 91/91/91
f 89/89/89 87/87/87 91/91/91
f 87/87/87 92/92/92 91/91/91
f 88/88/88 92/92/92 87/87/87
f 91/91/91 92/92/92 93/93/93
f 93/93/93 92/92/92 94/94/94
f 92/92/92 88/88/88 94/94/94
f 95/95/95 94/94/94 88/88/88
f 95/95/95 88/88/88 96/96/96
f 65/65/65 97/97/97 88/88/88
f 97/97/97 96/96/96 88/88/88
f 97/97/97 65/65/65 64/64/64
f 96/96/96 97/97/97 98/98/98
f 98/98/98 97/97/97 64/64/64
