g n_glasses_lv40glasses_lense_mesh
v -2.3935313 92.82289 5.462739
v -4.144351 92.414566 5.306039
v -4.088602 92.26088 5.313572
v -4.019292 92.10268 5.321106
v -4.185032 92.562225 5.298505
v -3.922861 91.936935 5.3316536
v -4.2181807 92.6888 5.2939854
v -3.788762 91.77421 5.345214
v -3.6290493 91.614494 5.3572674
v -3.4316678 91.46081 5.3738413
v -3.2071652 91.32973 5.390415
v -2.9751287 91.2348 5.406989
v -4.2498217 92.83947 5.287958
v -2.723505 91.17001 5.4205503
v -4.2121534 93.18601 5.2849445
v -2.4688678 91.145905 5.4341106
v -4.025319 93.63653 5.2909718
v -3.591381 94.103615 5.312066
v -2.9329405 94.42605 5.343707
v -4.254342 92.83947 5.32864
v -4.215167 93.18752 5.3256264
v -2.3950381 92.82289 5.50342
v -4.2211943 92.6888 5.3346663
v -4.2181807 92.6888 5.2939854
v -4.0283327 93.63803 5.3316536
v -3.591381 94.103615 5.312066
v -4.1895523 92.562225 5.3406935
v -4.185032 92.562225 5.298505
v -3.5943947 94.10512 5.352747
v -4.1473637 92.41608 5.3467207
v -4.144351 92.414566 5.306039
v -2.935954 94.42756 5.384389
v -4.0916147 92.26239 5.354254
v -2.1886163 94.48783 5.4190435
v -4.088602 92.26088 5.313572
v -2.1871095 94.48482 5.3783617
v -4.0223055 92.10418 5.3632946
v -4.019292 92.10268 5.321106
v -3.9258747 91.936935 5.3738413
v -3.922861 91.936935 5.3316536
v -3.7932825 91.77421 5.3858957
v -3.788762 91.77421 5.345214
v -3.6335692 91.614494 5.397949
v -3.6290493 91.614494 5.3572674
v -3.4361877 91.46081 5.414523
v -3.4316678 91.46081 5.3738413
v -3.2116852 91.32973 5.431097
v -3.2071652 91.32973 5.390415
v -2.9766355 91.23329 5.447671
v -2.7265186 91.17001 5.462739
v -2.9751287 91.2348 5.406989
v -2.4718814 91.145905 5.4747925
v -2.2157373 91.15645 5.485339
v -2.2142305 91.15645 5.4446573
v -1.9611001 91.203156 5.49438
v -1.9611001 91.204666 5.453698
v -1.7200236 91.286026 5.501913
v -1.7200236 91.286026 5.461232
v -1.4894938 91.40506 5.5064335
v -1.4879875 91.40506 5.4657516
v -1.278552 91.55423 5.509447
v -1.0962377 91.73202 5.509447
v -0.9425516 91.92338 5.509447
v -1.278552 91.55423 5.4687653
v -1.0947309 91.730515 5.4687653
v -0.9425516 91.92187 5.4672585
v -0.83105326 92.1087 5.5064335
v -0.83105326 92.1087 5.4657516
v -0.74969006 92.291016 5.50342
v -0.75119686 92.291016 5.462739
v -0.6879144 92.479355 5.500407
v -0.6879144 92.479355 5.4597254
v -0.6110711 92.825905 5.492873
v -0.6110711 92.8244 5.4521914
v -0.66832685 93.37285 5.440138
v -1.3719692 94.20456 5.4115095
v -0.66832685 93.37285 5.4823256
v -0.66832685 93.37285 5.440138
v -1.373476 94.20607 5.453698
v 2.3948536 92.82289 5.462739
v 4.089924 92.26088 5.313572
v 4.145673 92.414566 5.306039
v 4.020614 92.10268 5.321106
v 4.187861 92.562225 5.298505
v 3.9241834 91.936935 5.3316536
v 4.2195024 92.6888 5.2939854
v 3.7915914 91.77421 5.345214
v 4.2511435 92.83947 5.287958
v 3.631878 91.614494 5.3572674
v 4.213475 93.18601 5.2849445
v 3.4344964 91.46081 5.3738413
v 4.026641 93.63653 5.2909718
v 3.2099938 91.32973 5.390415
v 3.592703 94.103615 5.312066
v 2.976451 91.2348 5.406989
v 2.9342625 94.42605 5.343707
v 2.7263339 91.17001 5.4205503
v 2.1899383 94.48482 5.3783617
v 2.4716966 91.145905 5.4341106
v 1.3747978 94.20456 5.4115095
v 2.2155528 91.15645 5.4446573
v 0.66964865 93.37285 5.440138
v 1.9624221 91.204666 5.453698
v 0.6138997 92.8244 5.4521914
v 1.7213457 91.286026 5.461232
v 0.69074297 92.479355 5.4597254
v 1.4908161 91.40506 5.4657516
v 0.7525189 92.291016 5.462739
v 1.2798741 91.55423 5.4687653
v 0.8338821 92.1087 5.4657516
v 1.0975597 91.730515 5.4687653
v 0.9438734 91.92187 5.4672585
v 4.089924 92.26088 5.313572
v 4.148686 92.41608 5.3467207
v 4.145673 92.414566 5.306039
v 4.094444 92.26239 5.354254
v 2.3963602 92.82289 5.50342
v 4.020614 92.10268 5.321106
v 4.1908746 92.562225 5.3406935
v 4.187861 92.562225 5.298505
v 4.0236278 92.10418 5.3632946
v 3.9241834 91.936935 5.3316536
v 4.2240224 92.6888 5.3346663
v 4.2195024 92.6888 5.2939854
v 3.927197 91.936935 5.3738413
v 3.7915914 91.77421 5.345214
v 4.255664 92.83947 5.32864
v 4.2511435 92.83947 5.287958
v 3.7946048 91.77421 5.3858957
v 4.2179956 93.18752 5.3256264
v 3.6348915 91.614494 5.397949
v 3.631878 91.614494 5.3572674
v 4.213475 93.18601 5.2849445
v 3.4344964 91.46081 5.3738413
v 4.0296545 93.63803 5.3316536
v 4.026641 93.63653 5.2909718
v 3.43751 91.46081 5.414523
v 3.2099938 91.32973 5.390415
v 3.5957165 94.10512 5.352747
v 3.592703 94.103615 5.312066
v 3.2130075 91.32973 5.431097
v 2.976451 91.2348 5.406989
v 2.937276 94.42756 5.384389
v 2.9342625 94.42605 5.343707
v 2.9794645 91.23329 5.447671
v 2.191445 94.48783 5.4190435
v 2.7278407 91.17001 5.462739
v 2.7263339 91.17001 5.4205503
v 2.1899383 94.48482 5.3783617
v 2.4716966 91.145905 5.4341106
v 1.3747978 94.20607 5.453698
v 1.3747978 94.20456 5.4115095
v 2.4732034 91.145905 5.4747925
v 2.2155528 91.15645 5.4446573
v 0.66964865 93.37285 5.4823256
v 0.66964865 93.37285 5.440138
v 2.2170594 91.15645 5.485339
v 1.9624221 91.204666 5.453698
v 0.6138997 92.825905 5.492873
v 0.6138997 92.8244 5.4521914
v 1.9639289 91.203156 5.49438
v 0.69074297 92.479355 5.500407
v 1.7228522 91.286026 5.501913
v 1.7213457 91.286026 5.461232
v 0.69074297 92.479355 5.4597254
v 1.4908161 91.40506 5.4657516
v 0.7525189 92.291016 5.50342
v 0.7525189 92.291016 5.462739
v 1.4908161 91.40506 5.5064335
v 1.2798741 91.55423 5.4687653
v 0.8338821 92.1087 5.5064335
v 0.8338821 92.1087 5.4657516
v 1.2798741 91.55423 5.509447
v 1.0975597 91.730515 5.4687653
v 0.9438734 91.92338 5.509447
v 0.9438734 91.92187 5.4672585
v 1.0975597 91.73202 5.509447
vt 0.47302806 0.5887518
vt 0.7094637 0.5343816
vt 0.70198154 0.51343155
vt 0.69250417 0.49198282
vt 0.71495056 0.5543339
vt 0.67953515 0.4695363
vt 0.71943986 0.5712935
vt 0.66157806 0.44758868
vt 0.6401292 0.42613995
vt 0.6131935 0.40519
vt 0.58326495 0.38773155
vt 0.55134106 0.37476254
vt 0.72392917 0.59174466
vt 0.5174221 0.36628282
vt 0.7189411 0.638134
vt 0.4830042 0.36279118
vt 0.69350183 0.6989887
vt 0.63464224 0.7618387
vt 0.5458542 0.80523515
vt 0.72392917 0.59174466
vt 0.7189411 0.638134
vt 0.47302806 0.5887518
vt 0.71943986 0.5712935
vt 0.71943986 0.5712935
vt 0.69350183 0.6989887
vt 0.63464224 0.7618387
vt 0.71495056 0.5543339
vt 0.71495056 0.5543339
vt 0.63464224 0.7618387
vt 0.7094637 0.5343816
vt 0.7094637 0.5343816
vt 0.5458542 0.80523515
vt 0.70198154 0.51343155
vt 0.4450947 0.813216
vt 0.70198154 0.51343155
vt 0.4450947 0.813216
vt 0.69250417 0.49198282
vt 0.69250417 0.49198282
vt 0.67953515 0.4695363
vt 0.67953515 0.4695363
vt 0.66157806 0.44758868
vt 0.66157806 0.44758868
vt 0.6401292 0.42613995
vt 0.6401292 0.42613995
vt 0.6131935 0.40519
vt 0.6131935 0.40519
vt 0.58326495 0.38773155
vt 0.58326495 0.38773155
vt 0.55134106 0.37476254
vt 0.5174221 0.36628282
vt 0.55134106 0.37476254
vt 0.4830042 0.36279118
vt 0.44858634 0.3642875
vt 0.44858634 0.3642875
vt 0.41416848 0.37077212
vt 0.41416848 0.37077212
vt 0.38174593 0.38174593
vt 0.38174593 0.38174593
vt 0.35032094 0.39770782
vt 0.35032094 0.39770782
vt 0.32238758 0.41766012
vt 0.2974471 0.44160306
vt 0.27649713 0.4675411
vt 0.32238758 0.41766012
vt 0.2974471 0.44160306
vt 0.27649713 0.4675411
vt 0.26153278 0.4924816
vt 0.26153278 0.4924816
vt 0.25055897 0.5169233
vt 0.25055897 0.5169233
vt 0.24257803 0.5423626
vt 0.24257803 0.5423626
vt 0.23210299 0.5892507
vt 0.23210299 0.5892507
vt 0.23958516 0.6630745
vt 0.33485782 0.77530646
vt 0.23958516 0.6630745
vt 0.23958516 0.6630745
vt 0.33485782 0.77530646
vt 0.47302806 0.5887518
vt 0.70198154 0.51343155
vt 0.7094637 0.5343816
vt 0.69250417 0.49198282
vt 0.71495056 0.5543339
vt 0.67953515 0.4695363
vt 0.71943986 0.5712935
vt 0.66157806 0.44758868
vt 0.72392917 0.59174466
vt 0.6401292 0.42613995
vt 0.7189411 0.638134
vt 0.6131935 0.40519
vt 0.69350183 0.6989887
vt 0.58326495 0.38773155
vt 0.63464224 0.7618387
vt 0.55134106 0.37476254
vt 0.5458542 0.80523515
vt 0.5174221 0.36628282
vt 0.4450947 0.813216
vt 0.4830042 0.36279118
vt 0.33485782 0.77530646
vt 0.44858634 0.3642875
vt 0.23958516 0.6630745
vt 0.41416848 0.37077212
vt 0.23210299 0.5892507
vt 0.38174593 0.38174593
vt 0.24257803 0.5423626
vt 0.35032094 0.39770782
vt 0.25055897 0.5169233
vt 0.32238758 0.41766012
vt 0.26153278 0.4924816
vt 0.2974471 0.44160306
vt 0.27649713 0.4675411
vt 0.70198154 0.51343155
vt 0.7094637 0.5343816
vt 0.7094637 0.5343816
vt 0.70198154 0.51343155
vt 0.47302806 0.5887518
vt 0.69250417 0.49198282
vt 0.71495056 0.5543339
vt 0.71495056 0.5543339
vt 0.69250417 0.49198282
vt 0.67953515 0.4695363
vt 0.71943986 0.5712935
vt 0.71943986 0.5712935
vt 0.67953515 0.4695363
vt 0.66157806 0.44758868
vt 0.72392917 0.59174466
vt 0.72392917 0.59174466
vt 0.66157806 0.44758868
vt 0.7189411 0.638134
vt 0.6401292 0.42613995
vt 0.6401292 0.42613995
vt 0.7189411 0.638134
vt 0.6131935 0.40519
vt 0.69350183 0.6989887
vt 0.69350183 0.6989887
vt 0.6131935 0.40519
vt 0.58326495 0.38773155
vt 0.63464224 0.7618387
vt 0.63464224 0.7618387
vt 0.58326495 0.38773155
vt 0.55134106 0.37476254
vt 0.5458542 0.80523515
vt 0.5458542 0.80523515
vt 0.55134106 0.37476254
vt 0.4450947 0.813216
vt 0.5174221 0.36628282
vt 0.5174221 0.36628282
vt 0.4450947 0.813216
vt 0.4830042 0.36279118
vt 0.33485782 0.77530646
vt 0.33485782 0.77530646
vt 0.4830042 0.36279118
vt 0.44858634 0.3642875
vt 0.23958516 0.6630745
vt 0.23958516 0.6630745
vt 0.44858634 0.3642875
vt 0.41416848 0.37077212
vt 0.23210299 0.5892507
vt 0.23210299 0.5892507
vt 0.41416848 0.37077212
vt 0.24257803 0.5423626
vt 0.38174593 0.38174593
vt 0.38174593 0.38174593
vt 0.24257803 0.5423626
vt 0.35032094 0.39770782
vt 0.25055897 0.5169233
vt 0.25055897 0.5169233
vt 0.35032094 0.39770782
vt 0.32238758 0.41766012
vt 0.26153278 0.4924816
vt 0.26153278 0.4924816
vt 0.32238758 0.41766012
vt 0.2974471 0.44160306
vt 0.27649713 0.4675411
vt 0.27649713 0.4675411
vt 0.2974471 0.44160306
vn 0.038122244 -0.031492658 -0.99877673
vn 0.04917156 -0.03038773 -0.998328
vn 0.04917156 -0.032597594 -0.99825823
vn 0.04917156 -0.033702523 -0.9982215
vn 0.04917156 -0.0292828 -0.998361
vn 0.04917156 -0.035912387 -0.9981445
vn 0.04917156 -0.027072936 -0.99842334
vn 0.04806663 -0.033702523 -0.9982754
vn 0.04917156 -0.03480745 -0.9981836
vn 0.05359128 -0.03922718 -0.9977922
vn 0.05359128 -0.038122244 -0.997835
vn 0.050276488 -0.038122244 -0.99800754
vn 0.044751838 -0.019338414 -0.99881095
vn 0.046961695 -0.037017316 -0.99821055
vn 0.045856766 -0.009394035 -0.9989038
vn 0.045856766 -0.035912387 -0.9983023
vn 0.046961695 -0.0016595125 -0.99889535
vn 0.04806663 0.0005503446 -0.99884397
vn 0.04806663 0.0005503446 -0.99884397
vn -0.14087662 0.020439103 0.9898162
vn -0.13977167 0.035908148 0.9895325
vn -0.038118005 0.03148842 0.998777
vn -0.13756183 0.006074995 0.9904745
vn 0.04917156 -0.027072936 -0.99842334
vn -0.13093224 0.0591117 0.9896275
vn 0.04806663 0.0005503446 -0.99884397
vn -0.13756183 0.0049700737 0.9904807
vn 0.04917156 -0.0292828 -0.998361
vn -0.11104348 0.085630044 0.99011964
vn -0.13756183 0.0016552806 0.9904918
vn 0.04917156 -0.03038773 -0.998328
vn -0.075685665 0.10551882 0.9915329
vn -0.13645688 -0.0027644485 0.99064213
vn -0.028173625 0.10993853 0.99353904
vn 0.04917156 -0.032597594 -0.99825823
vn 0.0436469 0.0005503446 -0.99904686
vn -0.13424703 -0.009394035 0.9909034
vn 0.04917156 -0.033702523 -0.9982215
vn -0.12982729 -0.02044335 0.99132586
vn 0.04917156 -0.035912387 -0.9981445
vn -0.11988291 -0.031492658 0.9922884
vn 0.04806663 -0.033702523 -0.9982754
vn -0.114358276 -0.04033211 0.9926205
vn 0.04917156 -0.03480745 -0.9981836
vn -0.10993853 -0.0436469 0.9929796
vn 0.05359128 -0.03922718 -0.9977922
vn -0.097784296 -0.051381424 0.99388033
vn 0.05359128 -0.038122244 -0.997835
vn -0.08231525 -0.05911594 0.9948515
vn -0.064636365 -0.0646406 0.9958131
vn 0.050276488 -0.038122244 -0.99800754
vn -0.048062384 -0.065745525 0.99667823
vn -0.03148842 -0.065745525 0.9973395
vn 0.0436469 -0.037017316 -0.998361
vn -0.014914453 -0.062430732 0.99793786
vn 0.041437045 -0.037017316 -0.9984551
vn 0.0005545914 -0.05690608 0.99837935
vn 0.04033211 -0.037017316 -0.9985004
vn 0.012708828 -0.050276488 0.9986545
vn 0.04033211 -0.037017316 -0.9985004
vn 0.024863072 -0.041437045 0.99883175
vn 0.03480745 -0.03038773 0.99893194
vn 0.042541973 -0.02044335 0.9988855
vn 0.04033211 -0.037017316 -0.9985004
vn 0.03922718 -0.038122244 -0.99850285
vn 0.04033211 -0.037017316 -0.9985004
vn 0.04806663 -0.010498971 0.99878895
vn 0.04033211 -0.03480745 -0.99857986
vn 0.050276488 -0.0027644485 0.99873155
vn 0.041437045 -0.032597594 -0.9986092
vn 0.052486353 0.0049700737 0.9986093
vn 0.041437045 -0.0292828 -0.99871194
vn 0.055801146 0.019334182 0.99825466
vn 0.044751838 -0.021548279 -0.9987657
vn 0.04806663 -0.0016595125 -0.9988428
vn 0.0436469 0.0038651377 -0.99903953
vn 0.05359128 0.058006763 0.9968767
vn 0.04806663 -0.0016595125 -0.9988428
vn 0.024863072 0.08894485 0.99572617
vn -0.038118005 -0.031492658 -0.99877685
vn -0.04916732 -0.032597594 -0.9982585
vn -0.04916732 -0.03038773 -0.9983282
vn -0.04916732 -0.033702523 -0.99822176
vn -0.04916732 -0.0292828 -0.9983612
vn -0.04916732 -0.035912387 -0.9981447
vn -0.04916732 -0.027072936 -0.9984236
vn -0.048062384 -0.033702523 -0.9982756
vn -0.04474759 -0.019338414 -0.9988111
vn -0.04916732 -0.03480745 -0.99818385
vn -0.045852527 -0.009394035 -0.99890405
vn -0.05358705 -0.03922718 -0.9977924
vn -0.046957463 -0.0016595125 -0.9988955
vn -0.05358705 -0.038122244 -0.9978352
vn -0.048062384 0.0005503446 -0.9988442
vn -0.050272256 -0.038122244 -0.9980077
vn -0.048062384 0.0005503446 -0.9988442
vn -0.046957463 -0.037017316 -0.9982107
vn -0.04364267 0.0005503446 -0.99904704
vn -0.045852527 -0.035912387 -0.99830246
vn -0.04364267 0.0038651377 -0.9990397
vn -0.04364267 -0.037017316 -0.9983612
vn -0.048062384 -0.0016595125 -0.99884295
vn -0.041432798 -0.037017316 -0.9984553
vn -0.04474759 -0.021548279 -0.9987659
vn -0.040327877 -0.037017316 -0.9985006
vn -0.041432798 -0.0292828 -0.9987121
vn -0.040327877 -0.037017316 -0.9985006
vn -0.041432798 -0.032597594 -0.99860936
vn -0.040327877 -0.037017316 -0.9985006
vn -0.040327877 -0.03480745 -0.99858004
vn -0.03922294 -0.038122244 -0.998503
vn -0.040327877 -0.037017316 -0.9985006
vn -0.04916732 -0.032597594 -0.9982585
vn 0.13756606 0.0016552806 0.9904912
vn -0.04916732 -0.03038773 -0.9983282
vn 0.13646112 -0.0027644485 0.9906416
vn 0.038122244 0.03148842 0.99877685
vn -0.04916732 -0.033702523 -0.99822176
vn 0.13756606 0.0049700737 0.9904801
vn -0.04916732 -0.0292828 -0.9983612
vn 0.13425127 -0.009394035 0.9909028
vn -0.04916732 -0.035912387 -0.9981447
vn 0.13756606 0.006074995 0.990474
vn -0.04916732 -0.027072936 -0.9984236
vn 0.12983154 -0.02044335 0.99132526
vn -0.048062384 -0.033702523 -0.9982756
vn 0.14088085 0.020439103 0.98981553
vn -0.04474759 -0.019338414 -0.9988111
vn 0.11988716 -0.031492658 0.99228793
vn 0.13977592 0.035908148 0.9895319
vn 0.1143625 -0.04033211 0.99262005
vn -0.04916732 -0.03480745 -0.99818385
vn -0.045852527 -0.009394035 -0.99890405
vn -0.05358705 -0.03922718 -0.9977924
vn 0.13093647 0.0591117 0.9896269
vn -0.046957463 -0.0016595125 -0.9988955
vn 0.10994278 -0.0436469 0.99297917
vn -0.05358705 -0.038122244 -0.9978352
vn 0.11104771 0.085630044 0.99011916
vn -0.048062384 0.0005503446 -0.9988442
vn 0.097788535 -0.051381424 0.9938799
vn -0.050272256 -0.038122244 -0.9980077
vn 0.07568991 0.10551882 0.99153256
vn -0.048062384 0.0005503446 -0.9988442
vn 0.0823195 -0.05911594 0.9948512
vn 0.028177865 0.10993853 0.9935389
vn 0.0646406 -0.0646406 0.99581283
vn -0.046957463 -0.037017316 -0.9982107
vn -0.04364267 0.0005503446 -0.99904704
vn -0.045852527 -0.035912387 -0.99830246
vn -0.024858832 0.08894485 0.9957263
vn -0.04364267 0.0038651377 -0.9990397
vn 0.04806663 -0.065745525 0.99667805
vn -0.04364267 -0.037017316 -0.9983612
vn -0.05358705 0.058006763 0.99687696
vn -0.048062384 -0.0016595125 -0.99884295
vn 0.031492658 -0.065745525 0.99733937
vn -0.041432798 -0.037017316 -0.9984553
vn -0.055796906 0.019334182 0.9982549
vn -0.04474759 -0.021548279 -0.9987659
vn 0.014918685 -0.062430732 0.9979378
vn -0.052482113 0.0049700737 0.9986095
vn -0.0005503446 -0.05690608 0.99837935
vn -0.040327877 -0.037017316 -0.9985006
vn -0.041432798 -0.0292828 -0.9987121
vn -0.040327877 -0.037017316 -0.9985006
vn -0.050272256 -0.0027644485 0.99873173
vn -0.041432798 -0.032597594 -0.99860936
vn -0.012704596 -0.050276488 0.99865454
vn -0.040327877 -0.037017316 -0.9985006
vn -0.048062384 -0.010498971 0.9987892
vn -0.040327877 -0.03480745 -0.99858004
vn -0.024858832 -0.041437045 0.9988318
vn -0.03922294 -0.038122244 -0.998503
vn -0.042537734 -0.02044335 0.9988857
vn -0.040327877 -0.037017316 -0.9985006
vn -0.03480321 -0.03038773 0.99893206
g n_glasses_lv40glasses_lense_mesh_0
f 3/3/3 2/2/2 1/1/1
f 4/4/4 3/3/3 1/1/1
f 2/2/2 5/5/5 1/1/1
f 6/6/6 4/4/4 1/1/1
f 5/5/5 7/7/7 1/1/1
f 8/8/8 6/6/6 1/1/1
f 9/9/9 8/8/8 1/1/1
f 10/10/10 9/9/9 1/1/1
f 11/11/11 10/10/10 1/1/1
f 12/12/12 11/11/11 1/1/1
f 7/7/7 13/13/13 1/1/1
f 14/14/14 12/12/12 1/1/1
f 13/13/13 15/15/15 1/1/1
f 16/16/16 14/14/14 1/1/1
f 15/15/15 17/17/17 1/1/1
f 17/17/17 18/18/18 1/1/1
f 18/18/18 19/19/19 1/1/1
f 13/13/13 20/20/20 15/15/15
f 15/15/15 21/21/21 17/17/17
f 20/20/20 21/21/21 15/15/15
f 21/21/21 20/20/20 22/22/22
f 23/23/23 20/20/20 13/13/13
f 20/20/20 23/23/23 22/22/22
f 24/24/24 23/23/23 13/13/13
f 21/21/21 25/25/25 17/17/17
f 25/25/25 21/21/21 22/22/22
f 17/17/17 25/25/25 26/26/26
f 27/27/27 23/23/23 24/24/24
f 23/23/23 27/27/27 22/22/22
f 28/28/28 27/27/27 24/24/24
f 25/25/25 29/29/29 26/26/26
f 26/26/26 29/29/29 19/19/19
f 29/29/29 25/25/25 22/22/22
f 30/30/30 27/27/27 28/28/28
f 27/27/27 30/30/30 22/22/22
f 31/31/31 30/30/30 28/28/28
f 32/32/32 29/29/29 22/22/22
f 29/29/29 32/32/32 19/19/19
f 30/30/30 33/33/33 22/22/22
f 33/33/33 30/30/30 31/31/31
f 34/34/34 32/32/32 22/22/22
f 35/35/35 33/33/33 31/31/31
f 19/19/19 32/32/32 36/36/36
f 32/32/32 34/34/34 36/36/36
f 19/19/19 36/36/36 1/1/1
f 37/37/37 33/33/33 35/35/35
f 33/33/33 37/37/37 22/22/22
f 38/38/38 37/37/37 35/35/35
f 39/39/39 37/37/37 38/38/38
f 37/37/37 39/39/39 22/22/22
f 40/40/40 39/39/39 38/38/38
f 41/41/41 39/39/39 40/40/40
f 39/39/39 41/41/41 22/22/22
f 42/42/42 41/41/41 40/40/40
f 43/43/43 41/41/41 42/42/42
f 41/41/41 43/43/43 22/22/22
f 44/44/44 43/43/43 42/42/42
f 45/45/45 43/43/43 44/44/44
f 43/43/43 45/45/45 22/22/22
f 46/46/46 45/45/45 44/44/44
f 45/45/45 47/47/47 22/22/22
f 47/47/47 45/45/45 46/46/46
f 48/48/48 47/47/47 46/46/46
f 47/47/47 49/49/49 22/22/22
f 49/49/49 47/47/47 48/48/48
f 49/49/49 50/50/50 22/22/22
f 51/51/51 49/49/49 48/48/48
f 50/50/50 49/49/49 51/51/51
f 14/14/14 50/50/50 51/51/51
f 52/52/52 50/50/50 14/14/14
f 50/50/50 52/52/52 22/22/22
f 16/16/16 52/52/52 14/14/14
f 53/53/53 52/52/52 16/16/16
f 52/52/52 53/53/53 22/22/22
f 54/54/54 53/53/53 16/16/16
f 54/54/54 16/16/16 1/1/1
f 55/55/55 53/53/53 54/54/54
f 53/53/53 55/55/55 22/22/22
f 56/56/56 55/55/55 54/54/54
f 56/56/56 54/54/54 1/1/1
f 57/57/57 55/55/55 56/56/56
f 55/55/55 57/57/57 22/22/22
f 58/58/58 57/57/57 56/56/56
f 58/58/58 56/56/56 1/1/1
f 57/57/57 59/59/59 22/22/22
f 59/59/59 57/57/57 58/58/58
f 60/60/60 58/58/58 1/1/1
f 60/60/60 59/59/59 58/58/58
f 59/59/59 61/61/61 22/22/22
f 61/61/61 59/59/59 60/60/60
f 61/61/61 62/62/62 22/22/22
f 62/62/62 63/63/63 22/22/22
f 64/64/64 60/60/60 1/1/1
f 64/64/64 61/61/61 60/60/60
f 62/62/62 61/61/61 64/64/64
f 65/65/65 64/64/64 1/1/1
f 65/65/65 62/62/62 64/64/64
f 63/63/63 62/62/62 65/65/65
f 66/66/66 65/65/65 1/1/1
f 66/66/66 63/63/63 65/65/65
f 67/67/67 63/63/63 66/66/66
f 63/63/63 67/67/67 22/22/22
f 68/68/68 67/67/67 66/66/66
f 68/68/68 66/66/66 1/1/1
f 69/69/69 67/67/67 68/68/68
f 67/67/67 69/69/69 22/22/22
f 70/70/70 69/69/69 68/68/68
f 70/70/70 68/68/68 1/1/1
f 71/71/71 69/69/69 70/70/70
f 69/69/69 71/71/71 22/22/22
f 72/72/72 71/71/71 70/70/70
f 72/72/72 70/70/70 1/1/1
f 73/73/73 71/71/71 72/72/72
f 71/71/71 73/73/73 22/22/22
f 74/74/74 73/73/73 72/72/72
f 74/74/74 72/72/72 1/1/1
f 75/75/75 74/74/74 1/1/1
f 76/76/76 75/75/75 1/1/1
f 36/36/36 76/76/76 1/1/1
f 36/36/36 34/34/34 76/76/76
f 77/77/77 73/73/73 74/74/74
f 73/73/73 77/77/77 22/22/22
f 78/78/78 77/77/77 74/74/74
f 34/34/34 79/79/79 76/76/76
f 79/79/79 34/34/34 22/22/22
f 77/77/77 79/79/79 22/22/22
f 79/79/79 77/77/77 78/78/78
f 76/76/76 79/79/79 78/78/78
f 82/82/82 81/81/81 80/80/80
f 81/81/81 83/83/83 80/80/80
f 84/84/84 82/82/82 80/80/80
f 83/83/83 85/85/85 80/80/80
f 86/86/86 84/84/84 80/80/80
f 85/85/85 87/87/87 80/80/80
f 88/88/88 86/86/86 80/80/80
f 87/87/87 89/89/89 80/80/80
f 90/90/90 88/88/88 80/80/80
f 89/89/89 91/91/91 80/80/80
f 92/92/92 90/90/90 80/80/80
f 91/91/91 93/93/93 80/80/80
f 94/94/94 92/92/92 80/80/80
f 93/93/93 95/95/95 80/80/80
f 96/96/96 94/94/94 80/80/80
f 95/95/95 97/97/97 80/80/80
f 98/98/98 96/96/96 80/80/80
f 97/97/97 99/99/99 80/80/80
f 100/100/100 98/98/98 80/80/80
f 99/99/99 101/101/101 80/80/80
f 102/102/102 100/100/100 80/80/80
f 101/101/101 103/103/103 80/80/80
f 104/104/104 102/102/102 80/80/80
f 103/103/103 105/105/105 80/80/80
f 106/106/106 104/104/104 80/80/80
f 105/105/105 107/107/107 80/80/80
f 108/108/108 106/106/106 80/80/80
f 107/107/107 109/109/109 80/80/80
f 110/110/110 108/108/108 80/80/80
f 109/109/109 111/111/111 80/80/80
f 112/112/112 110/110/110 80/80/80
f 111/111/111 112/112/112 80/80/80
f 115/115/115 114/114/114 113/113/113
f 114/114/114 116/116/116 113/113/113
f 116/116/116 114/114/114 117/117/117
f 113/113/113 116/116/116 118/118/118
f 119/119/119 114/114/114 115/115/115
f 114/114/114 119/119/119 117/117/117
f 120/120/120 119/119/119 115/115/115
f 116/116/116 121/121/121 118/118/118
f 121/121/121 116/116/116 117/117/117
f 118/118/118 121/121/121 122/122/122
f 123/123/123 119/119/119 120/120/120
f 119/119/119 123/123/123 117/117/117
f 124/124/124 123/123/123 120/120/120
f 121/121/121 125/125/125 122/122/122
f 125/125/125 121/121/121 117/117/117
f 122/122/122 125/125/125 126/126/126
f 127/127/127 123/123/123 124/124/124
f 123/123/123 127/127/127 117/117/117
f 128/128/128 127/127/127 124/124/124
f 125/125/125 129/129/129 126/126/126
f 129/129/129 125/125/125 117/117/117
f 127/127/127 130/130/130 117/117/117
f 130/130/130 127/127/127 128/128/128
f 131/131/131 129/129/129 117/117/117
f 126/126/126 129/129/129 132/132/132
f 129/129/129 131/131/131 132/132/132
f 133/133/133 130/130/130 128/128/128
f 132/132/132 131/131/131 134/134/134
f 135/135/135 130/130/130 133/133/133
f 130/130/130 135/135/135 117/117/117
f 136/136/136 135/135/135 133/133/133
f 131/131/131 137/137/137 134/134/134
f 137/137/137 131/131/131 117/117/117
f 134/134/134 137/137/137 138/138/138
f 139/139/139 135/135/135 136/136/136
f 135/135/135 139/139/139 117/117/117
f 140/140/140 139/139/139 136/136/136
f 137/137/137 141/141/141 138/138/138
f 141/141/141 137/137/137 117/117/117
f 138/138/138 141/141/141 142/142/142
f 143/143/143 139/139/139 140/140/140
f 139/139/139 143/143/143 117/117/117
f 144/144/144 143/143/143 140/140/140
f 141/141/141 145/145/145 142/142/142
f 145/145/145 141/141/141 117/117/117
f 143/143/143 146/146/146 117/117/117
f 146/146/146 143/143/143 144/144/144
f 147/147/147 145/145/145 117/117/117
f 142/142/142 145/145/145 148/148/148
f 145/145/145 147/147/147 148/148/148
f 149/149/149 146/146/146 144/144/144
f 148/148/148 147/147/147 150/150/150
f 151/151/151 146/146/146 149/149/149
f 146/146/146 151/151/151 117/117/117
f 152/152/152 151/151/151 149/149/149
f 147/147/147 153/153/153 150/150/150
f 153/153/153 147/147/147 117/117/117
f 150/150/150 153/153/153 154/154/154
f 155/155/155 151/151/151 152/152/152
f 151/151/151 155/155/155 117/117/117
f 156/156/156 155/155/155 152/152/152
f 153/153/153 157/157/157 154/154/154
f 157/157/157 153/153/153 117/117/117
f 154/154/154 157/157/157 158/158/158
f 159/159/159 155/155/155 156/156/156
f 155/155/155 159/159/159 117/117/117
f 160/160/160 159/159/159 156/156/156
f 157/157/157 161/161/161 158/158/158
f 161/161/161 157/157/157 117/117/117
f 159/159/159 162/162/162 117/117/117
f 162/162/162 159/159/159 160/160/160
f 163/163/163 161/161/161 117/117/117
f 158/158/158 161/161/161 164/164/164
f 161/161/161 163/163/163 164/164/164
f 165/165/165 162/162/162 160/160/160
f 164/164/164 163/163/163 166/166/166
f 167/167/167 162/162/162 165/165/165
f 162/162/162 167/167/167 117/117/117
f 168/168/168 167/167/167 165/165/165
f 163/163/163 169/169/169 166/166/166
f 169/169/169 163/163/163 117/117/117
f 166/166/166 169/169/169 170/170/170
f 171/171/171 167/167/167 168/168/168
f 167/167/167 171/171/171 117/117/117
f 172/172/172 171/171/171 168/168/168
f 169/169/169 173/173/173 170/170/170
f 173/173/173 169/169/169 117/117/117
f 170/170/170 173/173/173 174/174/174
f 175/175/175 171/171/171 172/172/172
f 171/171/171 175/175/175 117/117/117
f 176/176/176 175/175/175 172/172/172
f 174/174/174 177/177/177 176/176/176
f 173/173/173 177/177/177 174/174/174
f 177/177/177 173/173/173 117/117/117
f 175/175/175 177/177/177 117/117/117
f 177/177/177 175/175/175 176/176/176
