g n_shirt_tshirt03zzTag_base
v 8.942981 56.22265 4.895581
v 8.464253 56.05464 6.011938
v 8.157585 56.21658 5.733607
v 9.24965 56.06071 5.174924
v 9.750644 56.22063 4.034277
v 10.05731 56.05869 4.312607
v 8.513847 55.39778 6.053434
v 10.10589 55.3998 4.355116
v 9.298231 55.40183 5.217432
v 8.510811 55.14273 6.049385
v 10.10286 55.14577 4.351068
v 9.295195 55.14779 5.213384
v 9.285074 54.40086 5.203262
v 8.50069 54.39478 6.040277
v 10.09274 54.39883 4.340946
v 8.35697 54.13467 5.909714
v 9.949018 54.1367 4.211396
v 9.141355 54.13872 5.073712
v 8.055362 54.38871 5.652638
v 9.646397 54.39073 3.954321
v 8.838734 54.39275 4.816637
vt 0.499218 0.2478366
vt 0.4577109 0.2414059
vt 0.4577109 0.2478366
vt 0.499218 0.2414059
vt 0.5418943 0.2478366
vt 0.5418943 0.2414059
vt 0.4577109 0.2168524
vt 0.5418943 0.2168524
vt 0.499218 0.2168524
vt 0.4577109 0.2074987
vt 0.5418943 0.2074987
vt 0.499218 0.2074987
vt 0.499218 0.1806067
vt 0.4577109 0.1806067
vt 0.5418943 0.1806067
vt 0.4577109 0.1694992
vt 0.5418943 0.1694992
vt 0.499218 0.1694992
vt 0.4577109 0.1256536
vt 0.5418943 0.1256536
vt 0.499218 0.1256536
vn 0.2653226 0.9313537 0.2493676
vn 0.6288698 0.5072153 0.5892839
vn 0.2653226 0.9313537 0.2493676
vn 0.6288698 0.5072153 0.5892839
vn 0.2653226 0.9313537 0.2493676
vn 0.6288698 0.4996414 0.5957192
vn 0.7273305 0.06792903 0.6829173
vn 0.7273305 0.06792903 0.6829173
vn 0.7273305 0.06792903 0.6829173
vn 0.7273305 -0.01538384 0.6861149
vn 0.7273305 -0.01538384 0.6861149
vn 0.7273305 -0.01538384 0.6861149
vn 0.7121828 -0.2047314 0.6714765
vn 0.7121828 -0.2047314 0.6714765
vn 0.7121828 -0.2047314 0.6714765
vn 0.0002360344 -0.9999909 -0.00424973
vn 0.0229519 -0.9997366 0
vn 0.007809769 -0.9999695 0
vn -0.3936068 -0.840939 -0.3713425
vn -0.3936068 -0.840939 -0.3713425
vn -0.3936068 -0.840939 -0.3713425
g n_shirt_tshirt03zzTag_base_0
f 3/3/3 2/2/2 1/1/1
f 2/2/2 4/4/4 1/1/1
f 5/5/5 1/1/1 4/4/4
f 6/6/6 5/5/5 4/4/4
f 2/2/2 7/7/7 4/4/4
f 8/8/8 6/6/6 4/4/4
f 7/7/7 9/9/9 4/4/4
f 9/9/9 8/8/8 4/4/4
f 7/7/7 10/10/10 9/9/9
f 8/8/8 9/9/9 11/11/11
f 10/10/10 12/12/12 9/9/9
f 9/9/9 12/12/12 11/11/11
f 12/12/12 10/10/10 13/13/13
f 12/12/12 13/13/13 11/11/11
f 10/10/10 14/14/14 13/13/13
f 13/13/13 15/15/15 11/11/11
f 14/14/14 16/16/16 13/13/13
f 15/15/15 13/13/13 17/17/17
f 16/16/16 18/18/18 13/13/13
f 13/13/13 18/18/18 17/17/17
f 16/16/16 19/19/19 18/18/18
f 17/17/17 18/18/18 20/20/20
f 19/19/19 21/21/21 18/18/18
f 18/18/18 21/21/21 20/20/20
