g palmtree_hi_05
v -0.05409741 -0.465161 -0.2194308
v -0.1535853 -1.390831 -0.3712072
v -0.2203135 -1.33021 -0.7704949
v -0.04353797 -0.425722 -0.4531385
v 0.1612266 -1.417739 -0.7337912
v 0.1673332 -0.4493219 -0.3892092
v 0.2305628 0.809417 -0.0944984
v 0.05226052 0.8209307 -0.1569647
v 0.04004717 0.7790744 0.05168021
v 0.2735004 1.691323 0.2920034
v 0.1177166 1.702518 0.2259113
v 0.09876037 1.668995 0.4024324
v 0.1219149 2.621128 1.007757
v 0.1432246 2.696126 0.7618995
v 0.3892728 2.687284 0.8391871
v 0.1208335 -0.4857074 -0.1949406
v 0.1995206 -1.472636 -0.3856469
v -0.1535853 -1.390831 -0.3712072
v -0.05409741 -0.465161 -0.2194308
v 0.04004717 0.7790744 0.05168021
v 0.1817094 0.769978 0.07846045
v 0.09876037 1.668995 0.4024324
v 0.2180314 1.659517 0.4353831
v 0.3253435 2.611904 1.056928
v 0.1219149 2.621128 1.007757
v 0.1995206 -1.472636 -0.3856469
v 0.1915056 -0.4713312 -0.2757268
v 0.2503459 -1.45915 -0.5519267
v 0.1208335 -0.4857074 -0.1949406
v 0.2479923 0.7878528 0.00842452
v 0.1817094 0.769978 0.07846045
v 0.2841871 1.673639 0.3806773
v 0.2180314 1.659517 0.4353831
v 0.3253435 2.611904 1.056928
v 0.4115367 2.648036 0.9676182
v 0.2503459 -1.45915 -0.5519267
v 0.1673332 -0.4493219 -0.3892092
v 0.1612266 -1.417739 -0.7337912
v 0.1915056 -0.4713312 -0.2757268
v 0.2305628 0.809417 -0.0944984
v 0.2479923 0.7878528 0.00842452
v 0.2735004 1.691323 0.2920034
v 0.2841871 1.673639 0.3806773
v 0.4115367 2.648036 0.9676182
v 0.3892728 2.687284 0.8391871
vt 0.6128588 0.6093291
vt 0.6128588 0.7822845
vt 0.5846211 0.7822845
vt 0.5846211 0.6093291
vt 0.5546187 0.7822845
vt 0.5546187 0.6093291
vt 0.5546187 0.4346088
vt 0.5846211 0.4346088
vt 0.6128588 0.4346088
vt 0.5546187 0.2643006
vt 0.5846211 0.2643006
vt 0.6128588 0.2643006
vt 0.6128588 0.010162
vt 0.5846211 0.010162
vt 0.5546187 0.010162
vt 0.6481558 0.6093291
vt 0.6481558 0.7822845
vt 0.6128588 0.7822845
vt 0.6128588 0.6093291
vt 0.6128588 0.4346088
vt 0.6481558 0.4346088
vt 0.6128588 0.2643006
vt 0.6481558 0.2643006
vt 0.6481558 0.010162
vt 0.6128588 0.010162
vt 0.6252127 0.7822845
vt 0.5969751 0.6093291
vt 0.5969751 0.7822845
vt 0.6252127 0.6093291
vt 0.5969751 0.4346088
vt 0.6252127 0.4346088
vt 0.5969751 0.2643006
vt 0.6252127 0.2643006
vt 0.6252127 0.010162
vt 0.5969751 0.010162
vt 0.5978575 0.7822845
vt 0.5775617 0.6093291
vt 0.5775617 0.7822845
vt 0.5978575 0.6093291
vt 0.5775617 0.4346088
vt 0.5978575 0.4346088
vt 0.5775617 0.2643006
vt 0.5978575 0.2643006
vt 0.5978575 0.010162
vt 0.5775617 0.010162
vn -0.2565565 0.4639177 0.8479146
vn -0.3602371 0.152876 0.920249
vn -0.9230745 0.152876 -0.3529339
vn -0.7527421 0.5379753 -0.3794231
vn 0.424773 0.03438383 -0.9046467
vn 0.2766579 -0.424773 -0.8619909
vn 0.3284982 -0.2618464 -0.907483
vn -0.849017 0.3972659 -0.3483534
vn -0.3232083 0.3083968 0.8946663
vn 0.39515 -0.0470795 -0.9174094
vn -0.8860458 0.3232083 -0.3323542
vn -0.3972659 0.06400687 0.9154687
vn 0.002644956 0.8564227 0.5162685
vn -0.1380644 0.9897264 0.0371471
vn 0.3433098 0.9156688 -0.2090195
vn 0.7876551 -0.4025558 0.4664207
vn 0.8839299 0.1232529 0.4510838
vn -0.3602371 0.152876 0.920249
vn -0.2565565 0.4639177 0.8479146
vn -0.3232083 0.3083968 0.8946663
vn 0.8469011 -0.2840637 0.4495178
vn -0.3972659 0.06400687 0.9154687
vn 0.8617126 -0.2544407 0.438989
vn 0.4914249 0.8193939 0.295119
vn 0.002644956 0.8564227 0.5162685
vn 0.8839299 0.1232529 0.4510838
vn 0.669163 -0.5951054 -0.445051
vn 0.8987414 0.04919535 -0.4357105
vn 0.7876551 -0.4025558 0.4664207
vn 0.7802494 -0.4025558 -0.4787063
vn 0.8469011 -0.2840637 0.4495178
vn 0.8543069 -0.2100061 -0.4754547
vn 0.8617126 -0.2544407 0.438989
vn 0.4914249 0.8193939 0.295119
vn 0.5136421 0.8564227 -0.05207526
vn 0.8987414 0.04919535 -0.4357105
vn 0.2766579 -0.424773 -0.8619909
vn 0.424773 0.03438383 -0.9046467
vn 0.669163 -0.5951054 -0.445051
vn 0.3284982 -0.2618464 -0.907483
vn 0.7802494 -0.4025558 -0.4787063
vn 0.39515 -0.0470795 -0.9174094
vn 0.8543069 -0.2100061 -0.4754547
vn 0.5136421 0.8564227 -0.05207526
vn 0.3433098 0.9156688 -0.2090195
g palmtree_hi_05_0
f 3/3/3 2/2/2 1/1/1
f 4/4/4 3/3/3 1/1/1
f 5/5/5 3/3/3 4/4/4
f 6/6/6 5/5/5 4/4/4
f 6/6/6 4/4/4 7/7/7
f 4/4/4 1/1/1 8/8/8
f 4/4/4 8/8/8 7/7/7
f 1/1/1 9/9/9 8/8/8
f 7/7/7 8/8/8 10/10/10
f 8/8/8 9/9/9 11/11/11
f 8/8/8 11/11/11 10/10/10
f 9/9/9 12/12/12 11/11/11
f 11/11/11 12/12/12 13/13/13
f 14/14/14 11/11/11 13/13/13
f 10/10/10 11/11/11 14/14/14
f 15/15/15 10/10/10 14/14/14
f 18/18/18 17/17/17 16/16/16
f 19/19/19 18/18/18 16/16/16
f 19/19/19 16/16/16 20/20/20
f 16/16/16 21/21/21 20/20/20
f 20/20/20 21/21/21 22/22/22
f 21/21/21 23/23/23 22/22/22
f 22/22/22 23/23/23 24/24/24
f 25/25/25 22/22/22 24/24/24
f 28/28/28 27/27/27 26/26/26
f 27/27/27 29/29/29 26/26/26
f 27/27/27 30/30/30 29/29/29
f 30/30/30 31/31/31 29/29/29
f 30/30/30 32/32/32 31/31/31
f 32/32/32 33/33/33 31/31/31
f 34/34/34 33/33/33 32/32/32
f 35/35/35 34/34/34 32/32/32
f 38/38/38 37/37/37 36/36/36
f 37/37/37 39/39/39 36/36/36
f 37/37/37 40/40/40 39/39/39
f 40/40/40 41/41/41 39/39/39
f 40/40/40 42/42/42 41/41/41
f 42/42/42 43/43/43 41/41/41
f 44/44/44 43/43/43 42/42/42
f 45/45/45 44/44/44 42/42/42
