g Plants_03
v -0.0026960997 0.0010495372 5.789008E-05
v 0.0028536068 -0.0005167965 -0.0051111644
v 0.002910412 -0.00034384336 -6.5675005E-05
v -0.0027462672 0.0011592424 -0.0050315205
v 0.0027673258 -0.0019956771 -0.0099536395
v -0.0028391853 -0.00060229655 -0.009830074
vt 0.95375216 0.76141346
vt 0.7869712 0.9553905
vt 0.95375216 0.9553905
vt 0.7869712 0.76141346
vt 0.62019026 0.9553905
vt 0.62019026 0.76141346
vn 0.2640067 0.96448076 -0.008795842
vn 0.2591891 0.95002794 -0.17397688
vn 0.2640067 0.96448076 -0.008795842
vn 0.2591891 0.95484555 -0.14522757
vn 0.24473631 0.9163047 -0.31700125
vn 0.24473631 0.9163047 -0.31700125
g Plants_03_0
f 3/3/3 2/2/2 1/1/1
f 2/2/2 4/4/4 1/1/1
f 2/2/2 5/5/5 4/4/4
f 5/5/5 6/6/6 4/4/4
