g Plants_06
v -4.4237822E-08 0.0010551782 0.005176851
v 0.0050000385 0.0006522974 4.4237822E-08
v 0.0050000385 0.0011625709 0.0049999687
v -4.4237822E-08 0.0015869308 4.4237822E-08
v -0.004294177 -0.00036825007 0.0049999687
v 0.0049221786 -0.00032260828 -0.0051731304
v -0.0049999687 0.0006522974 4.4237822E-08
v -4.4237822E-08 0.0006522974 -0.0050000385
v -0.0049999687 4.4237822E-08 -0.0050000385
vt 0.9515689 0.6032372
vt 0.78420836 0.72724533
vt 0.9515689 0.72724533
vt 0.78420836 0.6032372
vt 0.9515689 0.43587667
vt 0.6168479 0.72724533
vt 0.78420836 0.43587667
vt 0.6168479 0.6032372
vt 0.6168479 0.43587667
vn -0.08129431 0.9937851 0.07604226
vn 0.13640654 0.9845212 -0.11005111
vn 0.08068753 0.99673945 -0
vn -0.030343056 0.9984171 -0.04735636
vn -0.24341197 0.9567296 0.15943374
vn 0.18272586 0.96599346 -0.18294232
vn -0.20163628 0.9794605 -0
vn 0.01597628 0.9845212 -0.1745358
vn -0.15540524 0.97525734 -0.15723339
g Plants_06_0
f 3/3/3 2/2/2 1/1/1
f 2/2/2 4/4/4 1/1/1
f 1/1/1 4/4/4 5/5/5
f 2/2/2 6/6/6 4/4/4
f 4/4/4 7/7/7 5/5/5
f 6/6/6 8/8/8 4/4/4
f 4/4/4 8/8/8 7/7/7
f 8/8/8 9/9/9 7/7/7
