g pm0006_81_WingFireSparkASkin_rx
v -0.8959607 1.0628266 -0.14366554
v -1.0627209 1.0599922 -0.14366554
v -1.2350878 1.1305132 -0.14366554
v -1.0482694 1.2432832 -0.14366554
v -0.6659475 1.0697534 -0.14366555
v -1.8652488 1.2272104 -0.14366554
v -0.8550408 1.3587534 -0.14366554
v -1.6037045 1.4073738 -0.14366554
v -1.2779778 1.6035733 -0.14366554
v -0.5745183 1.0509472 -0.14366554
v -0.7085981 1.0244315 -0.14366554
v -0.815618 1.0775508 -0.14366554
v -0.67396814 1.1612495 -0.14366554
v -0.22206385 1.0598594 -0.14366554
v -0.4243573 1.2971656 -0.14366554
v -0.97806484 1.1643729 -0.14366554
v -0.84948134 1.3356478 -0.14366554
v -0.696691 1.528729 -0.14366554
v -1.1610042 1.5216641 -0.14366554
v -1.1660947 1.2270652 -0.14366554
v -1.0794286 1.8177426 -0.14366554
v -0.2551498 1.0148062 -0.48505348
v -0.741724 1.0148062 -0.42480195
v -0.64884573 1.0148062 -0.65994966
v -0.43992248 1.0148062 -0.31286618
v -0.0253651 1.0148062 -0.19107933
v -0.2617986 1.0148062 -0.15828213
v -0.83620673 1.0148062 -0.21287745
v -0.57927126 1.0148062 -0.1938347
v -0.47848138 1.0148062 -0.1283585
v -1.0798302 1.0148062 -0.21731283
v -1.1357679 1.0148062 -0.4733424
v -0.741724 1.0148062 -0.42480195
v -1.1934787 1.0148062 -0.75490385
v -0.64884573 1.0148062 -0.65994966
v -1.3143677 0.7561429 -0.1436655
v -1.1273986 1.0145242 -0.1436655
v -1.0612 0.8895987 -0.1436655
v -1.4308058 1.0148062 -0.1436655
v -1.1504978 1.1566145 -0.1436655
v -1.4257611 1.2510439 -0.1436655
v -1.7921611 1.3941592 -0.1436655
v -1.844223 1.0148062 -0.1436655
v -1.6036175 0.61824787 -0.1436655
v -0.5077522 0.9396952 -0.14366554
v -0.7837686 0.9309446 -0.14366554
v -0.6037562 0.97213393 -0.14366554
v -0.73697585 0.7800307 -0.14366554
v -0.36518523 0.9102071 -0.14366554
v -1.0206664 0.92146343 -0.14366554
v -0.6918979 0.65331304 -0.14366554
v -1.0815421 0.7402652 -0.14366554
v -1.1232533 0.53466785 -0.14366554
v -0.48501688 1.0148062 0.1683742
v -1.0431964 1.0148062 0.1340649
v -1.003737 1.0148062 0.39328343
v -0.6435847 1.0148062 0.02929222
v -0.22101532 1.0148062 -0.11628897
v -1.0687236 1.0148062 -0.0673426
v -0.4368693 1.0148062 -0.12511702
v -0.81005967 1.0148062 -0.10069593
v -0.7092698 1.0148062 -0.14156842
v -1.3361666 1.0148062 -0.14366554
v -1.8507136 1.0148062 -0.14366554
v -1.792682 1.0148062 0.12995093
v -1.3361666 1.0148062 0.17649406
v -1.0270553 1.0148062 -0.14366554
v -0.9692002 1.0148062 0.17213766
v -1.3361666 1.0148062 -0.45580077
v -1.792682 1.0148062 -0.4025188
v -1.8507136 1.0148062 -0.14366554
v -1.3361666 1.0148062 -0.14366554
v -1.0827223 1.0148062 -0.4712365
v -1.0270553 1.0148062 -0.14366554
v 0.8959607 1.0628266 -0.14366554
v 1.2350878 1.1305132 -0.14366554
v 1.0627209 1.0599922 -0.14366554
v 1.0482694 1.2432832 -0.14366554
v 0.6659475 1.0697534 -0.14366554
v 1.8652488 1.2272104 -0.14366554
v 0.8550408 1.3587534 -0.14366554
v 1.6037045 1.4073738 -0.14366554
v 1.2779778 1.6035733 -0.14366554
v 0.5745183 1.0509472 -0.14366554
v 0.815618 1.0775508 -0.14366554
v 0.7085981 1.0244315 -0.14366554
v 0.67396814 1.1612495 -0.14366554
v 0.22206385 1.0598594 -0.14366554
v 0.4243573 1.2971656 -0.14366554
v 0.97806484 1.1643729 -0.14366554
v 0.696691 1.528729 -0.14366554
v 0.84948134 1.3356478 -0.14366554
v 1.1660947 1.2270652 -0.14366554
v 1.0794286 1.8177426 -0.14366554
v 1.1610042 1.5216641 -0.14366554
v 0.2551498 1.0148062 -0.48505348
v 0.64884573 1.0148062 -0.65994966
v 0.741724 1.0148062 -0.42480195
v 0.43992248 1.0148062 -0.31286618
v 0.0253651 1.0148062 -0.19107933
v 0.2617986 1.0148062 -0.15828213
v 0.83620673 1.0148062 -0.21287745
v 0.57927126 1.0148062 -0.1938347
v 0.47848138 1.0148062 -0.1283585
v 0.741724 1.0148062 -0.42480195
v 1.1357679 1.0148062 -0.4733424
v 1.0798302 1.0148062 -0.21731283
v 0.741724 1.0148062 -0.42480195
v 0.64884573 1.0148062 -0.65994966
v 1.1934787 1.0148062 -0.75490385
v 1.1357679 1.0148062 -0.4733424
v 1.3143677 0.7561429 -0.1436655
v 1.0612 0.8895987 -0.1436655
v 1.1273986 1.0145242 -0.1436655
v 1.4308058 1.0148062 -0.1436655
v 1.6036175 0.61824787 -0.1436655
v 1.1504978 1.1566145 -0.1436655
v 1.844223 1.0148062 -0.1436655
v 1.4257611 1.2510439 -0.1436655
v 1.7921611 1.3941592 -0.1436655
v 0.5077522 0.9396952 -0.14366554
v 0.6037562 0.97213393 -0.14366554
v 0.7837686 0.9309446 -0.14366554
v 0.73697585 0.7800307 -0.14366554
v 0.36518523 0.9102071 -0.14366554
v 1.0206664 0.92146343 -0.14366554
v 0.6918979 0.65331304 -0.14366554
v 1.0815421 0.7402652 -0.14366554
v 1.1232533 0.53466785 -0.14366554
v 0.48501688 1.0148062 0.1683742
v 1.003737 1.0148062 0.39328343
v 1.0431964 1.0148062 0.1340649
v 0.6435847 1.0148062 0.02929222
v 0.22101532 1.0148062 -0.11628897
v 1.0687236 1.0148062 -0.0673426
v 0.4368693 1.0148062 -0.12511702
v 0.81005967 1.0148062 -0.10069593
v 0.7092698 1.0148062 -0.14156842
v 1.3361666 1.0148062 -0.14366554
v 1.792682 1.0148062 0.12995093
v 1.8507136 1.0148062 -0.14366554
v 1.3361666 1.0148062 0.17649406
v 0.9692002 1.0148062 0.17213766
v 1.0270553 1.0148062 -0.14366554
v 1.3361666 1.0148062 -0.45580077
v 1.8507136 1.0148062 -0.14366554
v 1.792682 1.0148062 -0.4025188
v 1.3361666 1.0148062 -0.14366554
v 1.0827223 1.0148062 -0.4712365
v 1.0270553 1.0148062 -0.14366554
vt 0.6459077 1.4329284
vt 1 1.4329282
vt 1 1.7710556
vt 0.6459077 1.7710556
vt 0 1.4329287
vt 1 2.1875129
vt 0 1.7710556
vt 0.6459077 2.1875129
vt 0 2.1875129
vt 0.55809575 0.39999998
vt 0.9999999 0.39999998
vt 1 0.6116626
vt 0.55809575 0.61166257
vt 5.9604645E-08 0.39999998
vt 0 0.61166257
vt 1 0.9907297
vt 0.55809575 0.9907297
vt 0 0.99072975
vt 0.55809575 1.6650467
vt 1 1.8120272
vt 0 1.4915617
vt 0.6083775 2.3839946
vt 0.30418873 2.865178
vt 0.6083775 2.865178
vt 0.30418873 2.3839946
vt 0.6083775 1.9028102
vt 0.30418873 1.9028102
vt 0 2.865178
vt 1.8131063E-08 2.3839946
vt 1.8131063E-08 1.9028102
vt 7.252425E-08 3.3463626
vt 0.30418876 3.3463626
vt 0.30418873 2.865178
vt 0.6083775 3.3463626
vt 0.6083775 2.865178
vt 0 2.5126743
vt 0.31466913 2.1629047
vt 0 2.1629047
vt 0.31466913 2.5126743
vt 1 2.1629047
vt 1 2.5126743
vt 1 3.2072077
vt 0.31466913 3.2072077
vt 0 3.2072077
vt 0 1.3240008
vt 0.46927014 0.82400084
vt 0 0.82400084
vt 0.46927014 1.3240006
vt 0 1.5740008
vt 0.94508135 0.82400084
vt 0.46927014 1.5740008
vt 0.94508135 1.3240006
vt 0.9450813 1.5740008
vt 0.6083775 2.3839946
vt 0.30418873 2.865178
vt 0.6083775 2.865178
vt 0.30418873 2.3839946
vt 0.6083775 1.9028102
vt 0 2.865178
vt 0.30418873 1.9028102
vt 1.8131063E-08 2.3839946
vt 1.8131063E-08 1.9028102
vt 0.30418876 3.3463626
vt 0.30418882 3.8275466
vt 0.6083775 3.8275466
vt 0.6083775 3.3463626
vt 0.30418873 3.1057703
vt 0.6083775 3.1057703
vt 7.252425E-08 3.3463626
vt 1.450485E-07 3.8275466
vt 0.30418882 3.8275466
vt 0.30418876 3.3463626
vt 3.6262126E-08 3.1057703
vt 0.30418873 3.1057703
vt 0.6459077 0.11238921
vt 1 0.45051646
vt 1 0.11238909
vt 0.6459077 0.45051646
vt 0 0.11238956
vt 1 1.0695434
vt 0 0.45051646
vt 0.6459077 1.0695434
vt 0 1.0695434
vt 0.5580957 0
vt 1 0.21166259
vt 1 0
vt 0.55809575 0.21166259
vt 2.9802322E-08 0
vt 0 0.21166259
vt 1 0.5907297
vt 0 0.5907297
vt 0.55809575 0.5907297
vt 1 1.4120274
vt 0 1.0915617
vt 0.55809575 1.2650468
vt 0.6083775 2.0634553
vt 0.6083775 2.5446386
vt 0.30418873 2.5446386
vt 0.30418873 2.0634553
vt 0.6083775 1.5822709
vt 0.30418873 1.5822709
vt 0 2.5446386
vt 1.8131063E-08 2.0634553
vt 1.8131063E-08 1.5822709
vt 0.30418873 2.5446386
vt 0.30418876 3.0258234
vt 7.252425E-08 3.0258234
vt 0.30418873 2.5446386
vt 0.6083775 2.5446386
vt 0.6083775 3.0258234
vt 0.30418876 3.0258234
vt 0 1.1921353
vt 0 0.84236526
vt 0.31466913 0.84236526
vt 0.31466913 1.1921353
vt 0 1.8284855
vt 1 0.84236526
vt 0.31466913 1.8284855
vt 1 1.1921353
vt 1 1.8284855
vt 0 0.49999976
vt 0 0
vt 0.4692701 0
vt 0.4692701 0.49999976
vt 0 0.75
vt 0.9448668 0
vt 0.4692701 0.75
vt 0.9448668 0.49999976
vt 0.9448667 0.75
vt 0.6083775 2.0634553
vt 0.6083775 2.5446386
vt 0.30418873 2.5446386
vt 0.30418873 2.0634553
vt 0.6083775 1.5822709
vt 0 2.5446386
vt 0.30418873 1.5822709
vt 1.8131063E-08 2.0634553
vt 1.8131063E-08 1.5822709
vt 0.30418876 3.0258234
vt 0.6083775 3.5070076
vt 0.30418882 3.5070076
vt 0.6083775 3.0258234
vt 0.6083775 2.785231
vt 0.30418873 2.785231
vt 7.252425E-08 3.0258234
vt 0.30418882 3.5070076
vt 1.450485E-07 3.5070076
vt 0.30418876 3.0258234
vt 3.6262126E-08 2.785231
vt 0.30418873 2.785231
vn -0 0 1
vn -0 0 1
vn -0 0 1
vn -0 0 1
vn -0 0 1
vn -0 0 1
vn -0 0 1
vn -0 0 1
vn -0 0 1
vn -0 0 1
vn -0 0 1
vn -0 0 1
vn -0 0 1
vn -0 0 1
vn -0 0 1
vn -0 0 1
vn -0 0 1
vn -0 0 1
vn -0 0 1
vn -0 0 1
vn -0 0 1
vn -0 1 0
vn -0 1 2.3841858E-07
vn -0 1 2.3841858E-07
vn -0 1 1.1920929E-07
vn -0 1 -3.5762787E-07
vn -0 1 -1.7881393E-07
vn -0 1 2.3841858E-07
vn -0 1 3.5762787E-07
vn -0 1 8.34465E-07
vn -0 1 3.5762787E-07
vn -0 1 3.5762787E-07
vn -0 1 3.5762787E-07
vn -0 1 3.5762787E-07
vn -0 1 3.5762787E-07
vn -0 0 1
vn -0 0 1
vn -0 0 1
vn -0 0 1
vn -0 0 1
vn -0 0 1
vn -0 0 1
vn -0 0 1
vn -0 0 1
vn -0 0 1
vn -0 0 1
vn -0 0 1
vn -0 0 1
vn -0 0 1
vn -0 0 1
vn -0 0 1
vn -0 0 1
vn -0 0 1
vn -0 -1 2.3841858E-07
vn -0 -1 -1.1920929E-07
vn -0 -1 0
vn -0 -1 1.1920929E-07
vn -0 -1 4.7683716E-07
vn -0 -1 -4.172325E-07
vn -0 -1 4.7683716E-07
vn -0 -1 -1.7881393E-07
vn -0 -1 7.152559E-07
vn -0 -1 -2.9802322E-07
vn -0 -1 -3.5762787E-07
vn -0 -1 -3.5762787E-07
vn -0 -1 -2.9802322E-07
vn -0 -1 -2.3841858E-07
vn -0 -1 -2.3841858E-07
vn -0 -1 2.3841858E-07
vn -0 -1 3.5762787E-07
vn -0 -1 3.5762795E-07
vn -0 -1 2.3841858E-07
vn -0 -1 0
vn -0 -1 0
vn -0 0 1
vn -0 0 1
vn -0 0 1
vn -0 0 1
vn -0 0 1
vn -0 0 1
vn -0 0 1
vn -0 0 1
vn -0 0 1
vn -0 0 1
vn -0 0 1
vn -0 0 1
vn -0 0 1
vn -0 0 1
vn -0 0 1
vn -0 0 1
vn -0 0 1
vn -0 0 1
vn -0 0 1
vn -0 0 1
vn -0 0 1
vn -0 1 0
vn -0 1 0
vn -0 1 -1.7881393E-07
vn -0 1 0
vn -0 1 0
vn -0 1 0
vn -0 1 -4.7683716E-07
vn -0 1 -3.5762787E-07
vn -0 1 0
vn -0 1 -1.7881393E-07
vn -0 1 -1.7881393E-07
vn -0 1 -1.7881393E-07
vn -0 1 2.3841858E-07
vn -0 1 2.3841858E-07
vn -0 1 2.3841858E-07
vn -0 1 2.3841858E-07
vn -0 0 1
vn -0 0 1
vn -0 0 1
vn -0 0 1
vn -0 0 1
vn -0 0 1
vn -0 0 1
vn -0 0 1
vn -0 0 1
vn -0 0 1
vn -0 0 1
vn -0 0 1
vn -0 0 1
vn -0 0 1
vn -0 0 1
vn -0 0 1
vn -0 0 1
vn -0 0 1
vn -0 -1 -1.7881393E-07
vn -0 -1 0
vn -0 -1 1.1920929E-07
vn -0 -1 1.1920929E-07
vn -0 -1 -4.172325E-07
vn -0 -1 3.5762787E-07
vn -0 -1 -2.3841858E-07
vn -0 -1 4.7683716E-07
vn -0 -1 7.152559E-07
vn -0 -1 -2.9802322E-07
vn -0 -1 -3.5762787E-07
vn -0 -1 -3.5762787E-07
vn -0 -1 -2.9802322E-07
vn -0 -1 -2.3841858E-07
vn -0 -1 -2.3841858E-07
vn -0 -1 2.3841858E-07
vn -0 -1 3.5762795E-07
vn -0 -1 3.5762787E-07
vn -0 -1 2.3841858E-07
vn -0 -1 1.1920929E-07
vn -0 -1 1.1920929E-07
g pm0006_81_WingFireSparkASkin_rx_0
f 3/3/3 2/2/2 1/1/1
f 4/4/4 3/3/3 1/1/1
f 4/4/4 1/1/1 5/5/5
f 6/6/6 3/3/3 4/4/4
f 7/7/7 4/4/4 5/5/5
f 8/8/8 6/6/6 4/4/4
f 8/8/8 4/4/4 7/7/7
f 9/9/9 8/8/8 7/7/7
f 12/12/12 11/11/11 10/10/10
f 13/13/13 12/12/12 10/10/10
f 13/13/13 10/10/10 14/14/14
f 15/15/15 13/13/13 14/14/14
f 16/16/16 12/12/12 13/13/13
f 17/17/17 13/13/13 15/15/15
f 17/17/17 16/16/16 13/13/13
f 18/18/18 17/17/17 15/15/15
f 17/17/17 19/19/19 16/16/16
f 19/19/19 17/17/17 18/18/18
f 19/19/19 20/20/20 16/16/16
f 21/21/21 19/19/19 18/18/18
f 24/24/24 23/23/23 22/22/22
f 23/23/23 25/25/25 22/22/22
f 22/22/22 25/25/25 26/26/26
f 25/25/25 27/27/27 26/26/26
f 23/23/23 28/28/28 25/25/25
f 25/25/25 29/29/29 27/27/27
f 28/28/28 29/29/29 25/25/25
f 29/29/29 30/30/30 27/27/27
f 32/32/32 31/31/31 28/28/28
f 33/33/33 32/32/32 28/28/28
f 34/34/34 32/32/32 33/33/33
f 35/35/35 34/34/34 33/33/33
f 38/38/38 37/37/37 36/36/36
f 37/37/37 39/39/39 36/36/36
f 37/37/37 40/40/40 39/39/39
f 40/40/40 41/41/41 39/39/39
f 39/39/39 41/41/41 42/42/42
f 43/43/43 39/39/39 42/42/42
f 36/36/36 39/39/39 43/43/43
f 44/44/44 36/36/36 43/43/43
f 47/47/47 46/46/46 45/45/45
f 46/46/46 48/48/48 45/45/45
f 45/45/45 48/48/48 49/49/49
f 46/46/46 50/50/50 48/48/48
f 48/48/48 51/51/51 49/49/49
f 50/50/50 52/52/52 48/48/48
f 51/51/51 48/48/48 53/53/53
f 48/48/48 52/52/52 53/53/53
f 56/56/56 55/55/55 54/54/54
f 55/55/55 57/57/57 54/54/54
f 54/54/54 57/57/57 58/58/58
f 55/55/55 59/59/59 57/57/57
f 57/57/57 60/60/60 58/58/58
f 59/59/59 61/61/61 57/57/57
f 57/57/57 61/61/61 60/60/60
f 61/61/61 62/62/62 60/60/60
f 65/65/65 64/64/64 63/63/63
f 66/66/66 65/65/65 63/63/63
f 66/66/66 63/63/63 67/67/67
f 68/68/68 66/66/66 67/67/67
f 71/71/71 70/70/70 69/69/69
f 72/72/72 71/71/71 69/69/69
f 72/72/72 69/69/69 73/73/73
f 74/74/74 72/72/72 73/73/73
f 77/77/77 76/76/76 75/75/75
f 76/76/76 78/78/78 75/75/75
f 75/75/75 78/78/78 79/79/79
f 76/76/76 80/80/80 78/78/78
f 78/78/78 81/81/81 79/79/79
f 80/80/80 82/82/82 78/78/78
f 78/78/78 82/82/82 81/81/81
f 82/82/82 83/83/83 81/81/81
f 86/86/86 85/85/85 84/84/84
f 85/85/85 87/87/87 84/84/84
f 84/84/84 87/87/87 88/88/88
f 87/87/87 89/89/89 88/88/88
f 85/85/85 90/90/90 87/87/87
f 89/89/89 87/87/87 91/91/91
f 90/90/90 92/92/92 87/87/87
f 87/87/87 92/92/92 91/91/91
f 90/90/90 93/93/93 92/92/92
f 91/91/91 92/92/92 94/94/94
f 93/93/93 95/95/95 92/92/92
f 92/92/92 95/95/95 94/94/94
f 98/98/98 97/97/97 96/96/96
f 99/99/99 98/98/98 96/96/96
f 99/99/99 96/96/96 100/100/100
f 101/101/101 99/99/99 100/100/100
f 102/102/102 98/98/98 99/99/99
f 103/103/103 99/99/99 101/101/101
f 103/103/103 102/102/102 99/99/99
f 104/104/104 103/103/103 101/101/101
f 106/106/106 105/105/105 102/102/102
f 107/107/107 106/106/106 102/102/102
f 110/110/110 109/109/109 108/108/108
f 111/111/111 110/110/110 108/108/108
f 114/114/114 113/113/113 112/112/112
f 115/115/115 114/114/114 112/112/112
f 115/115/115 112/112/112 116/116/116
f 117/117/117 114/114/114 115/115/115
f 118/118/118 115/115/115 116/116/116
f 119/119/119 117/117/117 115/115/115
f 119/119/119 115/115/115 118/118/118
f 120/120/120 119/119/119 118/118/118
f 123/123/123 122/122/122 121/121/121
f 124/124/124 123/123/123 121/121/121
f 124/124/124 121/121/121 125/125/125
f 126/126/126 123/123/123 124/124/124
f 127/127/127 124/124/124 125/125/125
f 128/128/128 126/126/126 124/124/124
f 128/128/128 124/124/124 127/127/127
f 129/129/129 128/128/128 127/127/127
f 132/132/132 131/131/131 130/130/130
f 133/133/133 132/132/132 130/130/130
f 133/133/133 130/130/130 134/134/134
f 135/135/135 132/132/132 133/133/133
f 136/136/136 133/133/133 134/134/134
f 137/137/137 135/135/135 133/133/133
f 137/137/137 133/133/133 136/136/136
f 138/138/138 137/137/137 136/136/136
f 141/141/141 140/140/140 139/139/139
f 140/140/140 142/142/142 139/139/139
f 139/139/139 142/142/142 143/143/143
f 144/144/144 139/139/139 143/143/143
f 147/147/147 146/146/146 145/145/145
f 146/146/146 148/148/148 145/145/145
f 145/145/145 148/148/148 149/149/149
f 148/148/148 150/150/150 149/149/149
