g pm0025_00_Wcs2024Glass2
v 0.103104495 0.4559534 -0.013047846
v 0.10310451 0.46668938 -0.02215443
v 0.10632762 0.4717228 -0.016220383
v 0.10632761 0.46098685 -0.0071138
v 0.1031043 0.4419294 -0.0011522311
v 0.11410892 0.4738077 -0.013762395
v 0.10632744 0.4469628 0.004781842
v 0.10310371 0.4279058 0.010743002
v 0.114108905 0.46307173 -0.0046558105
v 0.12189022 0.47172278 -0.01622036
v 0.106326826 0.43293914 0.016677158
v 0.10310226 0.4138822 0.022638263
v 0.11410871 0.44904757 0.0072399126
v 0.1218902 0.46098682 -0.007113774
v 0.12511334 0.4666893 -0.022154378
v 0.10632537 0.41891536 0.028572554
v 0.10309921 0.39985827 0.0345338
v 0.11410812 0.43502375 0.019135365
v 0.12189001 0.44696257 0.0047820313
v 0.12511331 0.45595333 -0.013047793
v 0.1218902 0.46165588 -0.02808845
v 0.1063223 0.40489116 0.040468328
v 0.10309301 0.38583338 0.04643017
v 0.11410667 0.42099965 0.031031089
v 0.1218894 0.43293852 0.016677672
v 0.12511311 0.44192907 -0.0011519882
v 0.12189018 0.45091996 -0.018981867
v 0.11410892 0.45957097 -0.030546412
v 0.10631613 0.39086565 0.0523652
v 0.10308042 0.37181425 0.058321632
v 0.11410362 0.4069747 0.042927466
v 0.121887945 0.41891402 0.028573694
v 0.12511253 0.42790496 0.010743734
v 0.12189001 0.43689567 -0.007086062
v 0.114108905 0.44883502 -0.021439828
v 0.10632762 0.4616559 -0.028088473
v 0.10630356 0.3768453 0.06425772
v 0.10305301 0.35780206 0.0702072
v 0.114097424 0.3929478 0.05482552
v 0.1218849 0.40488842 0.040470667
v 0.12511109 0.4138803 0.022639891
v 0.1218894 0.42287162 0.00480958
v 0.11410871 0.43481085 -0.009544104
v 0.10632761 0.45091996 -0.018981889
v 0.10310451 0.46668938 -0.02215443
v 0.103104495 0.4559534 -0.013047846
v 0.106327415 0.4368959 -0.0070862477
v 0.1031043 0.4419294 -0.0011522311
v 0.11410812 0.42078704 0.0023513471
v 0.106326826 0.42287222 0.0048090685
v 0.10310371 0.4279058 0.010743002
v 0.121887945 0.40884712 0.016705602
v 0.11410667 0.40676287 0.014247071
v 0.10632537 0.4088485 0.016704464
v 0.10310226 0.4138822 0.022638263
v 0.125108 0.3998544 0.034537107
v 0.1218849 0.3948215 0.028602576
v 0.11410362 0.39273795 0.026143445
v 0.1063223 0.3948243 0.028600244
v 0.10309921 0.39985827 0.0345338
v 0.1218787 0.39086014 0.05236989
v 0.12510183 0.38582554 0.046436824
v 0.1218787 0.3807932 0.0405018
v 0.114097424 0.37871107 0.038041506
v 0.10631613 0.3807988 0.040497106
v 0.10309301 0.38583338 0.04643017
v 0.11408483 0.3789245 0.06672054
v 0.12186611 0.3768338 0.064267464
v 0.12508923 0.37179798 0.058335427
v 0.12186611 0.36676693 0.052399367
v 0.11408483 0.36468777 0.04993652
v 0.106303535 0.3667784 0.052389625
v 0.10308042 0.37181425 0.058321632
v 0.10627611 0.36283004 0.07614589
v 0.10298412 0.34381002 0.08207569
v 0.114057384 0.3649018 0.07861501
v 0.1062072 0.3488288 0.088022195
v 0.10281425 0.32987678 0.09389432
v 0.10627611 0.35276318 0.0642778
v 0.10305301 0.35780206 0.0702072
v 0.114057384 0.3506651 0.061830997
v 0.12183866 0.36280373 0.07616823
v 0.106037006 0.3348729 0.09986003
v 0.1006498 0.3187843 0.10330333
v 0.11398834 0.3508783 0.09051021
v 0.1062072 0.3387619 0.076154105
v 0.10298412 0.34381002 0.08207569
v 0.12506178 0.35776478 0.07023883
v 0.10368345 0.32298744 0.10994164
v 0.093317166 0.30964884 0.11105229
v 0.1138174 0.33686772 0.102394424
v 0.12176948 0.34875792 0.08808231
v 0.12183866 0.3527368 0.06430014
v 0.09571787 0.31304222 0.118377484
v 0.08108538 0.30146456 0.11799444
v 0.11100735 0.32306784 0.11409989
v 0.12159778 0.3346927 0.1000129
v 0.12499256 0.34370983 0.08216071
v 0.12176948 0.33869103 0.076214224
v 0.08303718 0.30454198 0.12558766
v 0.07376337 0.2974805 0.12137388
v 0.07568434 0.30054072 0.12898166
v 0.10151369 0.3111677 0.12419399
v 0.08774927 0.30190462 0.13205123
v 0.080321975 0.29786187 0.13548039
v 0.11833124 0.31897843 0.1133422
v 0.12482054 0.32962188 0.094110526
v 0.11398834 0.33664152 0.07372621
v 0.10730949 0.30512333 0.12509455
v 0.09246133 0.2950974 0.13359885
v 0.084959604 0.2910132 0.13706319
v 0.1213649 0.3131147 0.10811244
v 0.12159778 0.32462576 0.08814482
v 0.11381739 0.32263094 0.085610405
v 0.10971022 0.2984498 0.12055165
v 0.09441315 0.28810793 0.12932399
v 0.086880565 0.28400657 0.13280289
v 0.11833124 0.30891153 0.101474114
v 0.10603698 0.324806 0.08799193
v 0.10281425 0.32987678 0.09389432
v 0.10730949 0.29505643 0.11322646
v 0.09246133 0.2850305 0.12173077
v 0.084959604 0.2809463 0.12519512
v 0.11100735 0.30883113 0.09731587
v 0.10368345 0.31292054 0.09807356
v 0.1006498 0.3187843 0.10330333
v 0.10151369 0.29693097 0.10740996
v 0.08774927 0.2876679 0.115267195
v 0.080321975 0.28362513 0.118696384
v 0.09571787 0.30297536 0.106509395
v 0.093317166 0.30964884 0.11105229
v 0.08303718 0.29447508 0.113719575
v 0.07568434 0.29047382 0.117113575
v 0.08108538 0.30146456 0.11799444
v 0.07376337 0.2974805 0.12137388
v 0.10632762 0.4616559 -0.028088473
v 0.11410892 0.45957097 -0.030546412
v 0.11410891 0.46668932 -0.022154404
v 0.10310451 0.46668938 -0.02215443
v 0.1218902 0.46165588 -0.02808845
v 0.10632762 0.4717228 -0.016220383
v 0.12511334 0.4666893 -0.022154378
v 0.11410892 0.4738077 -0.013762395
v 0.12189022 0.47172278 -0.01622036
v 0.07568434 0.30054072 0.12898166
v 0.080321975 0.29786187 0.13548039
v 0.08032197 0.29074353 0.1270884
v 0.07376337 0.2974805 0.12137388
v 0.084959604 0.2910132 0.13706319
v 0.07568434 0.29047382 0.117113575
v 0.086880565 0.28400657 0.13280289
v 0.080321975 0.28362513 0.118696384
v 0.084959604 0.2809463 0.12519512
vt 0.8218613 0.5345277
vt 0.8218613 0.56926316
vt 0.8417462 0.56926316
vt 0.8417462 0.5345277
vt 0.8218613 0.4911111
vt 0.86163086 0.56926316
vt 0.8417462 0.4911111
vt 0.8218613 0.44769585
vt 0.86163086 0.5345277
vt 0.8815155 0.56926316
vt 0.8417462 0.44769585
vt 0.8218613 0.40428057
vt 0.86163086 0.4911111
vt 0.8815155 0.5345277
vt 0.9014002 0.56926316
vt 0.8417462 0.40428057
vt 0.8218613 0.36086428
vt 0.86163086 0.44769585
vt 0.8815155 0.4911111
vt 0.9014002 0.5345277
vt 0.9212849 0.56926316
vt 0.8417462 0.36086428
vt 0.8218613 0.31744498
vt 0.86163086 0.40428057
vt 0.8815155 0.44769585
vt 0.9014002 0.4911111
vt 0.9212849 0.5345277
vt 0.94116974 0.56926316
vt 0.8417462 0.31744498
vt 0.8218613 0.27404356
vt 0.86163086 0.36086428
vt 0.8815155 0.40428057
vt 0.9014002 0.44769585
vt 0.9212849 0.4911111
vt 0.94116974 0.5345277
vt 0.96105444 0.56926316
vt 0.8417462 0.27404356
vt 0.8218613 0.23066355
vt 0.86163086 0.31744498
vt 0.8815155 0.36086428
vt 0.9014002 0.40428057
vt 0.9212849 0.44769585
vt 0.94116974 0.4911111
vt 0.96105444 0.5345277
vt 0.9809391 0.56926316
vt 0.9809391 0.5345277
vt 0.96105444 0.4911111
vt 0.9809391 0.4911111
vt 0.94116974 0.44769585
vt 0.96105444 0.44769585
vt 0.9809391 0.44769585
vt 0.9212849 0.40428057
vt 0.94116974 0.40428057
vt 0.96105444 0.40428057
vt 0.9809391 0.40428057
vt 0.9014002 0.36086428
vt 0.9212849 0.36086428
vt 0.94116974 0.36086428
vt 0.96105444 0.36086428
vt 0.9809391 0.36086428
vt 0.8815155 0.31744498
vt 0.9014002 0.31744498
vt 0.9212849 0.31744498
vt 0.94116974 0.31744498
vt 0.96105444 0.31744498
vt 0.9809391 0.31744498
vt 0.86163086 0.27404356
vt 0.8815155 0.27404356
vt 0.9014002 0.27404356
vt 0.9212849 0.27404356
vt 0.94116974 0.27404356
vt 0.96105444 0.27404356
vt 0.9809391 0.27404356
vt 0.8417462 0.23066355
vt 0.8218613 0.18734573
vt 0.86163086 0.23066355
vt 0.8417462 0.18734573
vt 0.8218613 0.14420821
vt 0.96105444 0.23066355
vt 0.9809391 0.23066355
vt 0.94116974 0.23066355
vt 0.8815155 0.23066355
vt 0.8417462 0.14420821
vt 0.8218613 0.10948913
vt 0.86163086 0.18734573
vt 0.96105444 0.18734573
vt 0.9809391 0.18734573
vt 0.9014002 0.23066355
vt 0.8417462 0.10948913
vt 0.8218613 0.0763292
vt 0.86163086 0.14420821
vt 0.8815155 0.18734573
vt 0.9212849 0.23066355
vt 0.8417462 0.0763292
vt 0.8218613 0.03791113
vt 0.86163086 0.10948913
vt 0.8815155 0.14420821
vt 0.9014002 0.18734573
vt 0.9212849 0.18734573
vt 0.8417462 0.03791113
vt 0.8218613 0.016675185
vt 0.8417462 0.016675185
vt 0.86163086 0.0763292
vt 0.86163086 0.03791113
vt 0.86163086 0.016675185
vt 0.8815155 0.10948913
vt 0.9014002 0.14420821
vt 0.94116974 0.18734573
vt 0.8815155 0.0763292
vt 0.8815155 0.03791113
vt 0.8815155 0.016675185
vt 0.9014002 0.10948913
vt 0.9212849 0.14420821
vt 0.94116974 0.14420821
vt 0.9014002 0.0763292
vt 0.9014002 0.03791113
vt 0.9014002 0.016675185
vt 0.9212849 0.10948913
vt 0.96105444 0.14420821
vt 0.9809391 0.14420821
vt 0.9212849 0.0763292
vt 0.9212849 0.03791113
vt 0.9212849 0.016675185
vt 0.94116974 0.10948913
vt 0.96105444 0.10948913
vt 0.9809391 0.10948913
vt 0.94116974 0.0763292
vt 0.94116974 0.03791113
vt 0.94116974 0.016675185
vt 0.96105444 0.0763292
vt 0.9809391 0.0763292
vt 0.96105444 0.03791113
vt 0.96105444 0.016675185
vt 0.9809391 0.03791113
vt 0.9809391 0.016675185
vt 0.79824257 0.1465573
vt 0.7715566 0.11987226
vt 0.7526878 0.16542777
vt 0.7982433 0.18429631
vt 0.7338176 0.11987296
vt 0.7715584 0.2109825
vt 0.70713246 0.146559
vt 0.73381925 0.21098292
vt 0.7071332 0.18429798
vt 0.7073537 0.08248526
vt 0.7339143 0.10903972
vt 0.75268793 0.06369385
vt 0.70734936 0.044923127
vt 0.77147216 0.10903108
vt 0.7339038 0.018356506
vt 0.7980266 0.08246446
vt 0.7714617 0.018347912
vt 0.7980222 0.044902265
vn -1 1.1663768E-05 -9.719807E-06
vn -1 1.4305115E-06 -1.7285347E-06
vn -0.7071067 0.4574026 0.53924286
vn -0.7071051 0.45741183 0.5392373
vn -1 2.3732397E-05 -1.9571522E-05
vn -0 0.64686275 0.7626065
vn -0.7071039 0.4574212 0.5392308
vn -1 5.4296743E-05 -4.573162E-05
vn 3.2399296E-06 0.64686483 0.76260465
vn 0.70710534 0.45740157 0.53924555
vn -0.7071014 0.45744446 0.5392143
vn -1 0.00011639434 -9.849928E-05
vn 5.3937115E-06 0.64686495 0.76260453
vn 0.70710844 0.45739317 0.53924865
vn 1 -2.026558E-06 8.34465E-07
vn -0.7070964 0.45749146 0.539181
vn -1 0.00024150882 -0.0002048007
vn 1.0553401E-05 0.64686507 0.7626045
vn 0.7071095 0.45738408 0.53925484
vn 1 -1.2068723E-05 9.395784E-06
vn 0.70710486 -0.45740467 -0.5392435
vn -0.7070858 0.4575871 0.5391137
vn -0.99999976 0.00051744195 -0.00043867083
vn 2.0342062E-05 0.64686507 0.7626045
vn 0.70711184 0.45736092 0.5392714
vn 1 -2.3809342E-05 1.9725538E-05
vn 0.70710796 -0.45740998 -0.53923506
vn -0 -0.6468639 -0.7626055
vn -0.7070581 0.45779985 0.53896946
vn -0.9999988 0.0011909659 -0.0010097818
vn 4.1907704E-05 0.6468651 0.7626044
vn 0.70711684 0.4573139 0.53930485
vn 1 -5.4296244E-05 4.60371E-05
vn 0.70710933 -0.4574176 -0.5392268
vn 3.2399282E-06 -0.64686483 -0.76260465
vn -0.7071058 -0.45740142 -0.53924507
vn -0.70698243 0.4583243 0.5386229
vn -0.99997723 0.005146922 -0.004365375
vn 9.696893E-05 0.64686525 0.7626044
vn 0.70712763 0.4572185 0.53937155
vn 1 -0.00011623938 9.895642E-05
vn 0.7071119 -0.4574378 -0.53920627
vn 5.3937124E-06 -0.64686507 -0.7626045
vn -0.7071049 -0.4573956 -0.5392512
vn -1 1.4305115E-06 -1.7285347E-06
vn -1 1.1663768E-05 -9.719807E-06
vn -0.707104 -0.45738792 -0.5392589
vn -1 2.3732397E-05 -1.9571522E-05
vn 1.0247509E-05 -0.6468652 -0.7626044
vn -0.70710164 -0.45736778 -0.5392792
vn -1 5.4296743E-05 -4.573162E-05
vn 0.7071169 -0.45747843 -0.53916526
vn 2.0036174E-05 -0.6468652 -0.7626044
vn -0.7070967 -0.45732698 -0.5393202
vn -1 0.00011639434 -9.849928E-05
vn 1 -0.00024127115 0.0002047937
vn 0.70712763 -0.45755988 -0.53908205
vn 4.1142986E-05 -0.6468652 -0.7626044
vn -0.7070859 -0.4572455 -0.53940344
vn -1 0.00024150882 -0.0002048007
vn 0.70715505 0.4570058 0.5395159
vn 0.99999976 -0.0005169447 0.00043848527
vn 0.7071547 -0.45773718 -0.5388959
vn 9.605128E-05 -0.6468652 -0.7626044
vn -0.7070583 -0.4570683 -0.53958976
vn -0.99999976 0.00051744195 -0.00043867083
vn 0.00024594011 0.6468643 0.7626051
vn 0.70722854 0.4564807 0.53986406
vn 0.9999988 -0.001191429 0.001010585
vn 0.7072282 -0.45816633 -0.53843474
vn 0.0002451754 -0.6468657 -0.76260394
vn -0.70698285 -0.4566405 -0.5400506
vn -0.9999988 0.0011909659 -0.0010097818
vn -0.70607156 0.4616765 0.5369523
vn -0.99923635 0.02979658 -0.02527376
vn 0.0021200632 0.6466574 0.76277757
vn -0.70000064 0.48171604 0.52720857
vn -0.9887183 0.114228696 -0.09689145
vn -0.706072 -0.4544452 -0.5430855
vn -0.99997723 0.005146922 -0.004365375
vn 0.0021197575 -0.6470695 -0.76242805
vn 0.7081806 0.45260012 0.5418795
vn -0.67808044 0.5474047 0.490464
vn -0.9300674 0.2801729 -0.23765065
vn 0.01082477 0.6443793 0.7646294
vn -0.70000124 -0.4415628 -0.561267
vn -0.99923635 0.02979658 -0.02527376
vn 0.9999721 -0.0056953756 0.004830822
vn -0.6215807 0.66786784 0.40937746
vn -0.8036881 0.4537887 -0.38491717
vn 0.029208962 0.6379028 0.7695628
vn 0.7109221 0.43037146 0.55621046
vn 0.70818037 -0.46078742 -0.5349351
vn -0.53918946 0.7849389 0.30519766
vn -0.7083537 0.53829056 -0.45659432
vn 0.04421203 0.6303919 0.7750169
vn 0.7075413 0.36215222 0.6068205
vn 0.99907 -0.032881975 0.027891804
vn 0.7109221 -0.47855264 -0.51534164
vn -0.48314548 0.84132624 0.2423649
vn -0.58083916 0.620775 -0.5265589
vn -0.41153568 0.8963106 0.16512324
vn 0.04058064 0.6282923 0.7769183
vn 0.030138802 0.63016206 0.7758785
vn -0.0014183521 0.64840746 0.7612922
vn 0.6679121 0.24489813 0.70279336
vn 0.98726106 -0.12133707 0.10292238
vn 0.010824622 -0.64926815 -0.7604825
vn 0.5840675 0.12601508 0.8018636
vn 0.5171466 0.06379648 0.8535159
vn 0.4102267 0.019897103 0.91176647
vn 0.9287157 -0.28276765 0.23985292
vn 0.7075415 -0.53961337 -0.45629206
vn 0.029208675 -0.65519214 -0.7548974
vn 0.80872446 -0.4485544 0.38047817
vn 0.71472776 -0.5333676 0.45241937
vn 0.581056 -0.62065536 0.5264607
vn 0.66791224 -0.65342844 -0.35626468
vn -0.6780812 -0.39459446 -0.6200814
vn -0.9887183 0.114228696 -0.09689145
vn 0.58406746 -0.77056545 -0.25513563
vn 0.51714665 -0.83167547 -0.2021767
vn 0.41022715 -0.89630663 -0.16836882
vn 0.044211753 -0.66179883 -0.74837667
vn -0.6215814 -0.29494312 -0.7257032
vn -0.9300674 0.2801729 -0.23765065
vn 0.04058034 -0.6640172 -0.74661535
vn 0.030138485 -0.662686 -0.7482907
vn -0.0014171005 -0.6453172 -0.7639134
vn -0.5391899 -0.17306101 -0.82421124
vn -0.8036881 0.4537887 -0.38491717
vn -0.4831455 -0.10187123 -0.8695934
vn -0.41153556 -0.016693654 -0.9112408
vn -0.7083537 0.53829056 -0.45659432
vn -0.58083916 0.620775 -0.5265589
vn 3.6954882E-06 0.7626059 -0.6468634
vn 2.9802322E-06 0.7626058 -0.6468635
vn 3.5762785E-06 0.7626037 -0.6468659
vn 4.1723256E-06 0.7626055 -0.6468639
vn 3.4570694E-06 0.7626066 -0.64686245
vn 5.126E-06 0.7626031 -0.6468668
vn 4.053116E-06 0.76260245 -0.6468674
vn 2.9802327E-06 0.7626012 -0.64686894
vn 1.9073486E-06 0.7625993 -0.64687127
vn -0.8029137 -0.4545851 0.38559294
vn -0.80291486 -0.45458326 0.38559276
vn -0.8029141 -0.4545845 0.38559297
vn -0.80291355 -0.45458412 0.3855944
vn -0.80291474 -0.4545828 0.38559353
vn -0.80291307 -0.4545847 0.3855946
vn -0.8029137 -0.4545857 0.38559237
vn -0.8029143 -0.454585 0.38559183
vn -0.8029149 -0.45458537 0.38559023
g pm0025_00_Wcs2024Glass2_0
f 3/3/3 2/2/2 1/1/1
f 4/4/4 3/3/3 1/1/1
f 4/4/4 1/1/1 5/5/5
f 6/6/6 3/3/3 4/4/4
f 7/7/7 4/4/4 5/5/5
f 7/7/7 5/5/5 8/8/8
f 9/9/9 6/6/6 4/4/4
f 9/9/9 4/4/4 7/7/7
f 10/10/10 6/6/6 9/9/9
f 11/11/11 7/7/7 8/8/8
f 11/11/11 8/8/8 12/12/12
f 13/13/13 9/9/9 7/7/7
f 13/13/13 7/7/7 11/11/11
f 14/14/14 10/10/10 9/9/9
f 14/14/14 9/9/9 13/13/13
f 15/15/15 10/10/10 14/14/14
f 16/16/16 11/11/11 12/12/12
f 16/16/16 12/12/12 17/17/17
f 18/18/18 13/13/13 11/11/11
f 18/18/18 11/11/11 16/16/16
f 19/19/19 14/14/14 13/13/13
f 19/19/19 13/13/13 18/18/18
f 20/20/20 15/15/15 14/14/14
f 20/20/20 14/14/14 19/19/19
f 21/21/21 15/15/15 20/20/20
f 22/22/22 16/16/16 17/17/17
f 22/22/22 17/17/17 23/23/23
f 24/24/24 18/18/18 16/16/16
f 24/24/24 16/16/16 22/22/22
f 25/25/25 19/19/19 18/18/18
f 25/25/25 18/18/18 24/24/24
f 26/26/26 20/20/20 19/19/19
f 26/26/26 19/19/19 25/25/25
f 27/27/27 21/21/21 20/20/20
f 27/27/27 20/20/20 26/26/26
f 28/28/28 21/21/21 27/27/27
f 29/29/29 22/22/22 23/23/23
f 29/29/29 23/23/23 30/30/30
f 31/31/31 24/24/24 22/22/22
f 31/31/31 22/22/22 29/29/29
f 32/32/32 25/25/25 24/24/24
f 32/32/32 24/24/24 31/31/31
f 33/33/33 26/26/26 25/25/25
f 33/33/33 25/25/25 32/32/32
f 34/34/34 27/27/27 26/26/26
f 34/34/34 26/26/26 33/33/33
f 35/35/35 28/28/28 27/27/27
f 35/35/35 27/27/27 34/34/34
f 36/36/36 28/28/28 35/35/35
f 37/37/37 29/29/29 30/30/30
f 37/37/37 30/30/30 38/38/38
f 39/39/39 31/31/31 29/29/29
f 39/39/39 29/29/29 37/37/37
f 40/40/40 32/32/32 31/31/31
f 40/40/40 31/31/31 39/39/39
f 41/41/41 33/33/33 32/32/32
f 41/41/41 32/32/32 40/40/40
f 42/42/42 34/34/34 33/33/33
f 42/42/42 33/33/33 41/41/41
f 43/43/43 35/35/35 34/34/34
f 43/43/43 34/34/34 42/42/42
f 44/44/44 36/36/36 35/35/35
f 44/44/44 35/35/35 43/43/43
f 45/45/45 36/36/36 44/44/44
f 46/46/46 45/45/45 44/44/44
f 46/46/46 44/44/44 47/47/47
f 47/47/47 44/44/44 43/43/43
f 48/48/48 46/46/46 47/47/47
f 49/49/49 43/43/43 42/42/42
f 47/47/47 43/43/43 49/49/49
f 48/48/48 47/47/47 50/50/50
f 50/50/50 47/47/47 49/49/49
f 51/51/51 48/48/48 50/50/50
f 52/52/52 42/42/42 41/41/41
f 49/49/49 42/42/42 52/52/52
f 50/50/50 49/49/49 53/53/53
f 53/53/53 49/49/49 52/52/52
f 51/51/51 50/50/50 54/54/54
f 54/54/54 50/50/50 53/53/53
f 55/55/55 51/51/51 54/54/54
f 52/52/52 41/41/41 56/56/56
f 56/56/56 41/41/41 40/40/40
f 53/53/53 52/52/52 57/57/57
f 57/57/57 52/52/52 56/56/56
f 54/54/54 53/53/53 58/58/58
f 58/58/58 53/53/53 57/57/57
f 55/55/55 54/54/54 59/59/59
f 59/59/59 54/54/54 58/58/58
f 60/60/60 55/55/55 59/59/59
f 56/56/56 40/40/40 61/61/61
f 61/61/61 40/40/40 39/39/39
f 57/57/57 56/56/56 62/62/62
f 62/62/62 56/56/56 61/61/61
f 58/58/58 57/57/57 63/63/63
f 63/63/63 57/57/57 62/62/62
f 59/59/59 58/58/58 64/64/64
f 64/64/64 58/58/58 63/63/63
f 60/60/60 59/59/59 65/65/65
f 65/65/65 59/59/59 64/64/64
f 66/66/66 60/60/60 65/65/65
f 61/61/61 39/39/39 67/67/67
f 67/67/67 39/39/39 37/37/37
f 62/62/62 61/61/61 68/68/68
f 68/68/68 61/61/61 67/67/67
f 63/63/63 62/62/62 69/69/69
f 69/69/69 62/62/62 68/68/68
f 64/64/64 63/63/63 70/70/70
f 70/70/70 63/63/63 69/69/69
f 65/65/65 64/64/64 71/71/71
f 71/71/71 64/64/64 70/70/70
f 66/66/66 65/65/65 72/72/72
f 72/72/72 65/65/65 71/71/71
f 73/73/73 66/66/66 72/72/72
f 67/67/67 37/37/37 74/74/74
f 74/74/74 37/37/37 38/38/38
f 74/74/74 38/38/38 75/75/75
f 68/68/68 67/67/67 76/76/76
f 76/76/76 67/67/67 74/74/74
f 77/77/77 74/74/74 75/75/75
f 76/76/76 74/74/74 77/77/77
f 77/77/77 75/75/75 78/78/78
f 73/73/73 72/72/72 79/79/79
f 80/80/80 73/73/73 79/79/79
f 72/72/72 71/71/71 81/81/81
f 79/79/79 72/72/72 81/81/81
f 82/82/82 68/68/68 76/76/76
f 69/69/69 68/68/68 82/82/82
f 83/83/83 77/77/77 78/78/78
f 83/83/83 78/78/78 84/84/84
f 85/85/85 76/76/76 77/77/77
f 82/82/82 76/76/76 85/85/85
f 85/85/85 77/77/77 83/83/83
f 80/80/80 79/79/79 86/86/86
f 87/87/87 80/80/80 86/86/86
f 88/88/88 69/69/69 82/82/82
f 70/70/70 69/69/69 88/88/88
f 89/89/89 83/83/83 84/84/84
f 89/89/89 84/84/84 90/90/90
f 91/91/91 85/85/85 83/83/83
f 91/91/91 83/83/83 89/89/89
f 92/92/92 82/82/82 85/85/85
f 88/88/88 82/82/82 92/92/92
f 92/92/92 85/85/85 91/91/91
f 93/93/93 70/70/70 88/88/88
f 71/71/71 70/70/70 93/93/93
f 81/81/81 71/71/71 93/93/93
f 94/94/94 89/89/89 90/90/90
f 94/94/94 90/90/90 95/95/95
f 96/96/96 91/91/91 89/89/89
f 96/96/96 89/89/89 94/94/94
f 97/97/97 92/92/92 91/91/91
f 97/97/97 91/91/91 96/96/96
f 98/98/98 88/88/88 92/92/92
f 93/93/93 88/88/88 98/98/98
f 98/98/98 92/92/92 97/97/97
f 81/81/81 93/93/93 99/99/99
f 99/99/99 93/93/93 98/98/98
f 100/100/100 94/94/94 95/95/95
f 100/100/100 95/95/95 101/101/101
f 102/102/102 100/100/100 101/101/101
f 103/103/103 96/96/96 94/94/94
f 103/103/103 94/94/94 100/100/100
f 104/104/104 100/100/100 102/102/102
f 104/104/104 103/103/103 100/100/100
f 105/105/105 104/104/104 102/102/102
f 106/106/106 97/97/97 96/96/96
f 106/106/106 96/96/96 103/103/103
f 107/107/107 98/98/98 97/97/97
f 99/99/99 98/98/98 107/107/107
f 107/107/107 97/97/97 106/106/106
f 108/108/108 81/81/81 99/99/99
f 79/79/79 81/81/81 108/108/108
f 86/86/86 79/79/79 108/108/108
f 109/109/109 103/103/103 104/104/104
f 109/109/109 106/106/106 103/103/103
f 110/110/110 104/104/104 105/105/105
f 110/110/110 109/109/109 104/104/104
f 111/111/111 110/110/110 105/105/105
f 112/112/112 107/107/107 106/106/106
f 112/112/112 106/106/106 109/109/109
f 113/113/113 99/99/99 107/107/107
f 108/108/108 99/99/99 113/113/113
f 113/113/113 107/107/107 112/112/112
f 86/86/86 108/108/108 114/114/114
f 114/114/114 108/108/108 113/113/113
f 115/115/115 109/109/109 110/110/110
f 115/115/115 112/112/112 109/109/109
f 116/116/116 110/110/110 111/111/111
f 116/116/116 115/115/115 110/110/110
f 117/117/117 116/116/116 111/111/111
f 118/118/118 113/113/113 112/112/112
f 118/118/118 112/112/112 115/115/115
f 114/114/114 113/113/113 118/118/118
f 119/119/119 86/86/86 114/114/114
f 87/87/87 86/86/86 119/119/119
f 120/120/120 87/87/87 119/119/119
f 121/121/121 115/115/115 116/116/116
f 121/121/121 118/118/118 115/115/115
f 122/122/122 116/116/116 117/117/117
f 122/122/122 121/121/121 116/116/116
f 123/123/123 122/122/122 117/117/117
f 124/124/124 114/114/114 118/118/118
f 119/119/119 114/114/114 124/124/124
f 124/124/124 118/118/118 121/121/121
f 120/120/120 119/119/119 125/125/125
f 125/125/125 119/119/119 124/124/124
f 126/126/126 120/120/120 125/125/125
f 127/127/127 124/124/124 121/121/121
f 127/127/127 121/121/121 122/122/122
f 125/125/125 124/124/124 127/127/127
f 128/128/128 122/122/122 123/123/123
f 128/128/128 127/127/127 122/122/122
f 129/129/129 128/128/128 123/123/123
f 126/126/126 125/125/125 130/130/130
f 130/130/130 125/125/125 127/127/127
f 130/130/130 127/127/127 128/128/128
f 131/131/131 126/126/126 130/130/130
f 132/132/132 128/128/128 129/129/129
f 132/132/132 130/130/130 128/128/128
f 131/131/131 130/130/130 132/132/132
f 133/133/133 132/132/132 129/129/129
f 134/134/134 131/131/131 132/132/132
f 134/134/134 132/132/132 133/133/133
f 135/135/135 134/134/134 133/133/133
f 138/138/138 137/137/137 136/136/136
f 138/138/138 136/136/136 139/139/139
f 138/138/138 140/140/140 137/137/137
f 141/141/141 138/138/138 139/139/139
f 138/138/138 142/142/142 140/140/140
f 141/141/141 143/143/143 138/138/138
f 144/144/144 142/142/142 138/138/138
f 143/143/143 144/144/144 138/138/138
f 147/147/147 146/146/146 145/145/145
f 147/147/147 145/145/145 148/148/148
f 147/147/147 149/149/149 146/146/146
f 150/150/150 147/147/147 148/148/148
f 147/147/147 151/151/151 149/149/149
f 150/150/150 152/152/152 147/147/147
f 153/153/153 151/151/151 147/147/147
f 152/152/152 153/153/153 147/147/147
