g pm0025_00_Wcs2024Glass1
v -0.012130599 0.35550648 0.13040014
v -0.023505548 0.35055467 0.13142832
v -0.026383622 0.3603292 0.123725116
v -0.0128560085 0.3620662 0.124737464
v -0.005497305 0.3574662 0.12918949
v -0.028093504 0.3702125 0.115465485
v 7.187015E-05 0.36356565 0.1240852
v 7.187015E-05 0.3579109 0.1290651
v -0.01401055 0.37075764 0.117048435
v 7.187015E-05 0.37147242 0.117485456
v 7.187015E-05 0.38218313 0.10792187
v -0.014633325 0.38201624 0.10752178
v -0.02888235 0.38147232 0.106069945
v 7.187015E-05 0.39305788 0.098936394
v -0.014545064 0.39297843 0.098358445
v -0.014528889 0.4014984 0.09071803
v 7.187015E-05 0.40200076 0.09150491
v -0.02834868 0.40033263 0.088980444
v -0.028698364 0.3920335 0.09675132
v -0.041638844 0.39854056 0.08635235
v -0.042284902 0.38997 0.093808584
v -0.04290576 0.3797634 0.102270745
v -0.056552403 0.37750468 0.09646848
v -0.05578135 0.38688773 0.089356914
v -0.05443291 0.39550593 0.083017275
v -0.067579634 0.39112464 0.078445844
v -0.06917488 0.38351032 0.08328102
v -0.06989501 0.3750513 0.08942642
v -0.079573706 0.38517767 0.074258074
v -0.07791471 0.38030413 0.078918576
v -0.080376096 0.37386915 0.08235874
v -0.088637464 0.37523764 0.073663875
v -0.08285831 0.36249092 0.08922589
v -0.09291105 0.36416835 0.07872608
v -0.09279438 0.35252836 0.086826116
v -0.08377004 0.35057494 0.096305355
v -0.08891566 0.34542185 0.09543175
v -0.080937624 0.3397439 0.10576063
v -0.08285831 0.36249092 0.08922589
v -0.080376096 0.37386915 0.08235874
v -0.06989501 0.3750513 0.08942642
v -0.070607536 0.3633999 0.097923465
v -0.08377004 0.35057494 0.096305355
v -0.056552403 0.37750468 0.09646848
v -0.07005764 0.3515087 0.10665323
v -0.080937624 0.3397439 0.10576063
v -0.06666773 0.33837885 0.11768843
v -0.050550334 0.3408493 0.12698399
v -0.056898106 0.36565167 0.10540353
v -0.04290576 0.3797634 0.102270745
v -0.055619106 0.35445425 0.114610374
v -0.03586578 0.3454211 0.13128866
v -0.042562246 0.36829293 0.111242265
v -0.02888235 0.38147232 0.106069945
v -0.028093504 0.3702125 0.115465485
v -0.04058988 0.3578457 0.120203175
v -0.023505548 0.35055467 0.13142832
v -0.026383622 0.3603292 0.123725116
v 0.012274339 0.35550648 0.13040014
v 0.026527362 0.3603292 0.123725116
v 0.023649288 0.35055467 0.13142832
v 0.012999749 0.3620662 0.124737464
v 0.0056410455 0.3574662 0.12918949
v 0.028237244 0.3702125 0.115465485
v 7.187015E-05 0.36356565 0.1240852
v 7.187015E-05 0.3579109 0.1290651
v 0.014154291 0.37075764 0.117048435
v 7.187015E-05 0.37147242 0.117485456
v 7.187015E-05 0.38218313 0.10792187
v 0.014777065 0.38201624 0.10752178
v 0.029026091 0.38147232 0.106069945
v 7.187015E-05 0.39305788 0.098936394
v 0.014688805 0.39297843 0.098358445
v 0.01467263 0.4014984 0.09071803
v 7.187015E-05 0.40200076 0.09150491
v 0.02849242 0.40033263 0.088980444
v 0.028842105 0.3920335 0.09675132
v 0.041782588 0.39854056 0.08635235
v 0.042428646 0.38997 0.093808584
v 0.043049503 0.3797634 0.102270745
v 0.056696147 0.37750468 0.09646848
v 0.05592509 0.38688773 0.089356914
v 0.054576654 0.39550593 0.083017275
v 0.06772338 0.39112464 0.078445844
v 0.069318615 0.38351032 0.08328102
v 0.07003874 0.3750513 0.08942642
v 0.07971745 0.38517767 0.074258074
v 0.07805845 0.38030413 0.078918576
v 0.08051984 0.37386915 0.08235874
v 0.0887812 0.37523764 0.073663875
v 0.08300205 0.36249092 0.08922589
v 0.09305479 0.36416835 0.07872608
v 0.09293812 0.35252836 0.086826116
v 0.08391377 0.35057494 0.096305355
v 0.0890594 0.34542185 0.09543175
v 0.08108136 0.3397439 0.10576063
v 0.08300205 0.36249092 0.08922589
v 0.07003874 0.3750513 0.08942642
v 0.08051984 0.37386915 0.08235874
v 0.07075128 0.3633999 0.097923465
v 0.08391377 0.35057494 0.096305355
v 0.056696147 0.37750468 0.09646848
v 0.07020138 0.3515087 0.10665323
v 0.08108136 0.3397439 0.10576063
v 0.06681147 0.33837885 0.11768843
v 0.05069408 0.3408493 0.12698399
v 0.05704185 0.36565167 0.10540353
v 0.043049503 0.3797634 0.102270745
v 0.055762846 0.35445425 0.114610374
v 0.036009517 0.3454211 0.13128866
v 0.042705987 0.36829293 0.111242265
v 0.029026091 0.38147232 0.106069945
v 0.028237244 0.3702125 0.115465485
v 0.040733624 0.3578457 0.120203175
v 0.023649288 0.35055467 0.13142832
v 0.026527362 0.3603292 0.123725116
vt 0.75806946 0.8364531
vt 0.7285059 0.82243675
vt 0.7253205 0.8570976
vt 0.7564605 0.8613126
vt 0.77569264 0.8448359
vt 0.723049 0.89126885
vt 0.78751236 0.86362696
vt 0.78751236 0.8463434
vt 0.75486666 0.891806
vt 0.78751236 0.8932196
vt 0.78751236 0.92986727
vt 0.75387937 0.9297732
vt 0.7217588 0.9295542
vt 0.78751236 0.96238256
vt 0.7539932 0.9620042
vt 0.75405854 0.9894693
vt 0.78751236 0.9901787
vt 0.7215925 0.9875367
vt 0.72180456 0.9610778
vt 0.6911445 0.98510706
vt 0.69123346 0.95996344
vt 0.6906958 0.9294077
vt 0.6612975 0.9296088
vt 0.6618009 0.95734656
vt 0.6620291 0.98079705
vt 0.6342794 0.9730928
vt 0.63629484 0.95344055
vt 0.635911 0.92954004
vt 0.6111156 0.9596472
vt 0.62142324 0.9496002
vt 0.61642134 0.9317409
vt 0.5951232 0.9363923
vt 0.61012363 0.89730227
vt 0.5868896 0.9073595
vt 0.58785295 0.8748752
vt 0.6092104 0.85879564
vt 0.5969794 0.8482609
vt 0.6127713 0.8262975
vt 0.61012363 0.89730227
vt 0.61642134 0.9317409
vt 0.635911 0.92954004
vt 0.63397 0.89273226
vt 0.6092104 0.85879564
vt 0.6612975 0.9296088
vt 0.63530004 0.85497284
vt 0.6127713 0.8262975
vt 0.6400659 0.8134185
vt 0.66991264 0.8102307
vt 0.6615135 0.89054644
vt 0.6906958 0.9294077
vt 0.66380376 0.8542521
vt 0.701472 0.8135983
vt 0.6911157 0.8907262
vt 0.7217588 0.9295542
vt 0.723049 0.89126885
vt 0.69445914 0.85487795
vt 0.7285059 0.82243675
vt 0.7253205 0.8570976
vt 0.75806946 0.8364531
vt 0.7253205 0.8570976
vt 0.7285059 0.82243675
vt 0.7564605 0.8613126
vt 0.77569264 0.8448359
vt 0.723049 0.89126885
vt 0.78751236 0.86362696
vt 0.78751236 0.8463434
vt 0.75486666 0.891806
vt 0.78751236 0.8932196
vt 0.78751236 0.92986727
vt 0.75387937 0.9297732
vt 0.7217588 0.9295542
vt 0.78751236 0.96238256
vt 0.7539932 0.9620042
vt 0.75405854 0.9894693
vt 0.78751236 0.9901787
vt 0.7215925 0.9875367
vt 0.72180456 0.9610778
vt 0.6911445 0.98510706
vt 0.69123346 0.95996344
vt 0.6906958 0.9294077
vt 0.6612975 0.9296088
vt 0.6618009 0.95734656
vt 0.6620291 0.98079705
vt 0.6342794 0.9730928
vt 0.63629484 0.95344055
vt 0.635911 0.92954004
vt 0.6111156 0.9596472
vt 0.62142324 0.9496002
vt 0.61642134 0.9317409
vt 0.5951232 0.9363923
vt 0.61012363 0.89730227
vt 0.5868896 0.9073595
vt 0.58785295 0.8748752
vt 0.6092104 0.85879564
vt 0.5969794 0.8482609
vt 0.6127713 0.8262975
vt 0.61012363 0.89730227
vt 0.635911 0.92954004
vt 0.61642134 0.9317409
vt 0.63397 0.89273226
vt 0.6092104 0.85879564
vt 0.6612975 0.9296088
vt 0.63530004 0.85497284
vt 0.6127713 0.8262975
vt 0.6400659 0.8134185
vt 0.66991264 0.8102307
vt 0.6615135 0.89054644
vt 0.6906958 0.9294077
vt 0.66380376 0.8542521
vt 0.701472 0.8135983
vt 0.6911157 0.8907262
vt 0.7217588 0.9295542
vt 0.723049 0.89126885
vt 0.69445914 0.85487795
vt 0.7285059 0.82243675
vt 0.7253205 0.8570976
vn -0.14728108 0.60996044 0.77862465
vn -0.23076102 0.580846 0.7806198
vn -0.22176456 0.5965998 0.7712905
vn -0.1056666 0.6331342 0.76679575
vn -0.042266965 0.65843874 0.7514466
vn -0.20859258 0.6137201 0.7614701
vn 1.1920929E-07 0.6525346 0.7577589
vn -0 0.66090584 0.75046885
vn -0.081027865 0.644229 0.76052845
vn 1.1920929E-07 0.6533108 0.75708985
vn -0 0.6473477 0.7621949
vn -0.07382583 0.64458984 0.7609558
vn -0.19647396 0.62855554 0.7525397
vn -0 0.64551544 0.76374733
vn -0.081198104 0.6521609 0.7537195
vn -0.092516355 0.6623296 0.7434785
vn -0 0.6534087 0.7570053
vn -0.18965054 0.66536164 0.72202945
vn -0.18957959 0.652714 0.7335012
vn -0.29565707 0.6361704 0.7126529
vn -0.31148648 0.62372214 0.7169008
vn -0.3365236 0.5933988 0.73118377
vn -0.4296849 0.56001115 0.70834905
vn -0.41135073 0.57951236 0.7035311
vn -0.39264536 0.58985686 0.7056192
vn -0.46495834 0.5486658 0.69482344
vn -0.47847715 0.5457799 0.6878837
vn -0.48871782 0.5382643 0.686605
vn -0.5335121 0.51410985 0.6716069
vn -0.5324219 0.5213619 0.66686493
vn -0.546688 0.51983047 0.6564362
vn -0.5740019 0.5105665 0.64019036
vn -0.5618779 0.48527038 0.66992974
vn -0.5899188 0.48688352 0.64415866
vn -0.6045554 0.4472213 0.6591706
vn -0.56189024 0.4604745 0.6871991
vn -0.5773877 0.46248376 0.67285377
vn -0.55098456 0.45543948 0.6992789
vn -0.5618779 0.48527038 0.66992974
vn -0.546688 0.51983047 0.6564362
vn -0.48871782 0.5382643 0.686605
vn -0.5046764 0.5095162 0.69691813
vn -0.56189024 0.4604745 0.6871991
vn -0.4296849 0.56001115 0.70834905
vn -0.5186504 0.4790491 0.7081764
vn -0.55098456 0.45543948 0.6992789
vn -0.5098846 0.4726421 0.71876776
vn -0.4331475 0.51069176 0.7426824
vn -0.44077206 0.53997123 0.71704334
vn -0.3365236 0.5933988 0.73118377
vn -0.44872287 0.5145974 0.7306417
vn -0.33696654 0.54787606 0.7656927
vn -0.34941542 0.57267165 0.74159026
vn -0.19647396 0.62855554 0.7525397
vn -0.20859258 0.6137201 0.7614701
vn -0.3487027 0.55604225 0.754469
vn -0.23076102 0.580846 0.7806198
vn -0.22176456 0.5965998 0.7712905
vn 0.1472814 0.6099604 0.77862465
vn 0.22176479 0.59660023 0.77129024
vn 0.23076126 0.5808465 0.7806193
vn 0.10566676 0.6331343 0.7667956
vn 0.042267326 0.65843844 0.7514467
vn 0.20859253 0.61372006 0.7614702
vn 1.1920929E-07 0.6525346 0.7577589
vn -0 0.66090584 0.75046885
vn 0.081027985 0.644229 0.76052845
vn 1.1920929E-07 0.6533108 0.75708985
vn -0 0.6473477 0.7621949
vn 0.07382583 0.6445896 0.76095587
vn 0.19647385 0.62855554 0.7525397
vn -0 0.64551544 0.76374733
vn 0.081198215 0.65216094 0.7537194
vn 0.09251644 0.66232973 0.7434784
vn -0 0.6534087 0.7570053
vn 0.18965055 0.6653614 0.72202975
vn 0.18957974 0.6527143 0.7335009
vn 0.29565677 0.6361701 0.7126533
vn 0.31148648 0.62372243 0.7169006
vn 0.33652377 0.593399 0.73118365
vn 0.42968488 0.5600109 0.7083492
vn 0.41135073 0.57951236 0.7035311
vn 0.39264536 0.5898571 0.7056191
vn 0.46495834 0.548666 0.6948233
vn 0.47847712 0.5457797 0.6878838
vn 0.48871762 0.538264 0.6866055
vn 0.53351164 0.51410925 0.6716078
vn 0.5324214 0.5213615 0.66686565
vn 0.5466877 0.51983005 0.6564368
vn 0.5740018 0.5105658 0.6401911
vn 0.5618778 0.48527026 0.6699299
vn 0.589919 0.4868833 0.64415866
vn 0.6045558 0.4472219 0.65916973
vn 0.5618906 0.46047458 0.68719864
vn 0.5773877 0.4624836 0.6728539
vn 0.55098575 0.45544004 0.69927746
vn 0.5618778 0.48527026 0.6699299
vn 0.48871762 0.538264 0.6866055
vn 0.5466877 0.51983005 0.6564368
vn 0.50467634 0.5095159 0.6969185
vn 0.5618906 0.46047458 0.68719864
vn 0.42968488 0.5600109 0.7083492
vn 0.5186509 0.47904927 0.7081758
vn 0.55098575 0.45544004 0.69927746
vn 0.50988483 0.47264215 0.7187676
vn 0.4331473 0.51069117 0.74268293
vn 0.4407722 0.5399711 0.71704334
vn 0.33652377 0.593399 0.73118365
vn 0.44872284 0.5145972 0.73064184
vn 0.33696648 0.5478759 0.7656929
vn 0.3494154 0.5726712 0.7415905
vn 0.19647385 0.62855554 0.7525397
vn 0.20859253 0.61372006 0.7614702
vn 0.34870267 0.55604196 0.7544692
vn 0.23076126 0.5808465 0.7806193
vn 0.22176479 0.59660023 0.77129024
g pm0025_00_Wcs2024Glass1_0
f 3/3/3 2/2/2 1/1/1
f 4/4/4 3/3/3 1/1/1
f 1/1/1 5/5/5 4/4/4
f 6/6/6 3/3/3 4/4/4
f 5/5/5 7/7/7 4/4/4
f 5/5/5 8/8/8 7/7/7
f 9/9/9 4/4/4 7/7/7
f 9/9/9 6/6/6 4/4/4
f 10/10/10 9/9/9 7/7/7
f 10/10/10 11/11/11 9/9/9
f 9/9/9 12/12/12 6/6/6
f 11/11/11 12/12/12 9/9/9
f 12/12/12 13/13/13 6/6/6
f 11/11/11 14/14/14 12/12/12
f 14/14/14 15/15/15 12/12/12
f 12/12/12 15/15/15 13/13/13
f 16/16/16 15/15/15 14/14/14
f 17/17/17 16/16/16 14/14/14
f 16/16/16 18/18/18 15/15/15
f 18/18/18 19/19/19 15/15/15
f 15/15/15 19/19/19 13/13/13
f 18/18/18 20/20/20 19/19/19
f 19/19/19 21/21/21 13/13/13
f 20/20/20 21/21/21 19/19/19
f 21/21/21 22/22/22 13/13/13
f 23/23/23 22/22/22 21/21/21
f 24/24/24 21/21/21 20/20/20
f 24/24/24 23/23/23 21/21/21
f 25/25/25 24/24/24 20/20/20
f 25/25/25 26/26/26 24/24/24
f 24/24/24 27/27/27 23/23/23
f 26/26/26 27/27/27 24/24/24
f 27/27/27 28/28/28 23/23/23
f 26/26/26 29/29/29 27/27/27
f 27/27/27 30/30/30 28/28/28
f 29/29/29 30/30/30 27/27/27
f 30/30/30 31/31/31 28/28/28
f 30/30/30 29/29/29 31/31/31
f 29/29/29 32/32/32 31/31/31
f 31/31/31 32/32/32 33/33/33
f 32/32/32 34/34/34 33/33/33
f 33/33/33 34/34/34 35/35/35
f 36/36/36 33/33/33 35/35/35
f 35/35/35 37/37/37 36/36/36
f 37/37/37 38/38/38 36/36/36
f 41/41/41 40/40/40 39/39/39
f 42/42/42 41/41/41 39/39/39
f 42/42/42 39/39/39 43/43/43
f 44/44/44 41/41/41 42/42/42
f 45/45/45 42/42/42 43/43/43
f 45/45/45 43/43/43 46/46/46
f 47/47/47 45/45/45 46/46/46
f 47/47/47 48/48/48 45/45/45
f 49/49/49 44/44/44 42/42/42
f 49/49/49 42/42/42 45/45/45
f 50/50/50 44/44/44 49/49/49
f 48/48/48 51/51/51 45/45/45
f 51/51/51 49/49/49 45/45/45
f 48/48/48 52/52/52 51/51/51
f 53/53/53 50/50/50 49/49/49
f 53/53/53 49/49/49 51/51/51
f 54/54/54 50/50/50 53/53/53
f 55/55/55 54/54/54 53/53/53
f 52/52/52 56/56/56 51/51/51
f 56/56/56 53/53/53 51/51/51
f 55/55/55 53/53/53 56/56/56
f 52/52/52 57/57/57 56/56/56
f 58/58/58 55/55/55 56/56/56
f 57/57/57 58/58/58 56/56/56
f 61/61/61 60/60/60 59/59/59
f 60/60/60 62/62/62 59/59/59
f 63/63/63 59/59/59 62/62/62
f 60/60/60 64/64/64 62/62/62
f 65/65/65 63/63/63 62/62/62
f 66/66/66 63/63/63 65/65/65
f 62/62/62 67/67/67 65/65/65
f 64/64/64 67/67/67 62/62/62
f 67/67/67 68/68/68 65/65/65
f 69/69/69 68/68/68 67/67/67
f 70/70/70 67/67/67 64/64/64
f 70/70/70 69/69/69 67/67/67
f 71/71/71 70/70/70 64/64/64
f 72/72/72 69/69/69 70/70/70
f 73/73/73 72/72/72 70/70/70
f 73/73/73 70/70/70 71/71/71
f 73/73/73 74/74/74 72/72/72
f 74/74/74 75/75/75 72/72/72
f 76/76/76 74/74/74 73/73/73
f 77/77/77 76/76/76 73/73/73
f 77/77/77 73/73/73 71/71/71
f 78/78/78 76/76/76 77/77/77
f 79/79/79 77/77/77 71/71/71
f 79/79/79 78/78/78 77/77/77
f 80/80/80 79/79/79 71/71/71
f 80/80/80 81/81/81 79/79/79
f 79/79/79 82/82/82 78/78/78
f 81/81/81 82/82/82 79/79/79
f 82/82/82 83/83/83 78/78/78
f 84/84/84 83/83/83 82/82/82
f 85/85/85 82/82/82 81/81/81
f 85/85/85 84/84/84 82/82/82
f 86/86/86 85/85/85 81/81/81
f 87/87/87 84/84/84 85/85/85
f 88/88/88 85/85/85 86/86/86
f 88/88/88 87/87/87 85/85/85
f 89/89/89 88/88/88 86/86/86
f 87/87/87 88/88/88 89/89/89
f 90/90/90 87/87/87 89/89/89
f 90/90/90 89/89/89 91/91/91
f 92/92/92 90/90/90 91/91/91
f 92/92/92 91/91/91 93/93/93
f 91/91/91 94/94/94 93/93/93
f 95/95/95 93/93/93 94/94/94
f 96/96/96 95/95/95 94/94/94
f 99/99/99 98/98/98 97/97/97
f 98/98/98 100/100/100 97/97/97
f 97/97/97 100/100/100 101/101/101
f 98/98/98 102/102/102 100/100/100
f 100/100/100 103/103/103 101/101/101
f 101/101/101 103/103/103 104/104/104
f 103/103/103 105/105/105 104/104/104
f 106/106/106 105/105/105 103/103/103
f 102/102/102 107/107/107 100/100/100
f 100/100/100 107/107/107 103/103/103
f 102/102/102 108/108/108 107/107/107
f 109/109/109 106/106/106 103/103/103
f 107/107/107 109/109/109 103/103/103
f 110/110/110 106/106/106 109/109/109
f 108/108/108 111/111/111 107/107/107
f 107/107/107 111/111/111 109/109/109
f 108/108/108 112/112/112 111/111/111
f 112/112/112 113/113/113 111/111/111
f 114/114/114 110/110/110 109/109/109
f 111/111/111 114/114/114 109/109/109
f 111/111/111 113/113/113 114/114/114
f 115/115/115 110/110/110 114/114/114
f 113/113/113 116/116/116 114/114/114
f 116/116/116 115/115/115 114/114/114
