g pm0849_81_HairASkin_ty
v 0.0081622545 1.28359 -0.13119325
v 5.156996E-16 1.2452365 -0.17226915
v 5.156996E-16 1.2568012 -0.12107309
v 0.007282466 1.268048 -0.17977804
v 0.0121467095 1.3248065 -0.14349134
v 1.5470912E-15 1.2226653 -0.29386905
v 0.009690359 1.3074075 -0.19571844
v 1.5470912E-15 1.2869978 -0.24059713
v 0.016252305 1.3959353 -0.16387656
v 1.5470912E-15 1.2668797 -0.355633
v 0.013669862 1.369222 -0.21917666
v 1.5470912E-15 1.3195416 -0.30667672
v 0.022174811 1.5061549 -0.18894821
v 1.5470912E-15 1.294338 -0.47824106
v 0.021100251 1.4817853 -0.24854247
v 1.5470912E-15 1.414163 -0.3800856
v 0.026566755 1.5989794 -0.20762111
v 1.5470912E-15 1.4012017 -0.5258526
v 0.024681399 1.575931 -0.26769865
v 1.5470912E-15 1.4748563 -0.46160084
v 0.031456366 1.6728984 -0.21485446
v 1.5470912E-15 1.4797328 -0.66099906
v 0.030034678 1.6552157 -0.2784104
v 1.5278253E-15 1.6114563 -0.5059241
v 0.034900803 1.7361952 -0.21508537
v 1.5085803E-15 1.6175195 -0.6290077
v 0.033042934 1.7190909 -0.27731875
v 1.525948E-15 1.6740953 -0.52806574
v 0.040993147 1.8850822 -0.19460514
v 1.5433441E-15 1.723312 -0.72145224
v 0.040187743 1.8752251 -0.24471107
v 2.0609133E-15 1.7982113 -0.5450132
v 0.044937138 2.0206397 -0.17806149
v 2.5784826E-15 1.8699996 -0.8514327
v 0.043387387 2.0195205 -0.22000101
v 2.5538933E-15 2.0017908 -0.57444525
v 0.049072437 2.1441436 -0.1755373
v 2.5292757E-15 2.1010258 -0.83076996
v 0.044565644 2.1465955 -0.21998364
v 2.5256549E-15 2.1896248 -0.56925637
v 0.049120035 2.326925 -0.18152812
v -3.6717324E-08 2.3606584 -0.8941476
v 0.04569298 2.3337972 -0.21721286
v 3.0636277E-15 2.4003034 -0.51255846
v 3.6053356E-15 2.5492678 -0.6504724
v 0.051262535 2.3869781 -0.17291416
v 0.04730961 2.401494 -0.21019828
v 0.049075477 2.5052419 -0.1681986
v 3.605193E-15 2.546449 -0.49670738
v 3.605156E-15 2.8250062 -0.66613036
v 0.05472517 2.4694479 -0.14471963
v 3.6049066E-15 2.6906402 -0.29965878
v 0.055861115 2.5294962 -0.10787216
v 3.604848E-15 2.9222858 -0.37138954
v 0.05223751 2.553741 -0.12126461
v 3.604833E-15 2.8505967 -0.26581293
v 3.604904E-15 3.0662873 -0.28950247
v 0.054212816 2.574726 -0.025658874
v 0.05079727 2.5983899 -0.029096717
v 3.604683E-15 2.8102431 -0.07632589
v 3.6045445E-15 3.0919147 -0.0040386883
v 0.045980144 2.5983267 0.07260601
v 0.04964288 2.5680218 0.0757914
v 0.04440473 2.5341814 0.15276171
v 0.040622823 2.5658393 0.15600407
v 3.6048867E-15 2.6404388 0.16131824
v 3.605296E-15 2.785531 0.20253515
v 0.031441804 2.5294108 0.20512888
v 0.03474455 2.4977584 0.20372728
v 0.01824228 2.4678996 0.2342652
v 0.01624935 2.503747 0.23296548
v 2.5800367E-15 2.489439 0.24735162
v 2.5800363E-15 2.4512289 0.25103983
v -0.0081622545 1.28359 -0.13119325
v 5.156996E-16 1.2568012 -0.12107309
v 5.156996E-16 1.2452365 -0.17226915
v -0.007282466 1.268048 -0.17977804
v -0.0121467095 1.3248065 -0.14349134
v 1.5470912E-15 1.2226653 -0.29386905
v -0.009690359 1.3074075 -0.19571844
v 1.5470912E-15 1.2869978 -0.24059713
v -0.016252305 1.3959353 -0.16387656
v 1.5470912E-15 1.2668797 -0.355633
v -0.013669862 1.369222 -0.21917666
v 1.5470912E-15 1.3195416 -0.30667672
v -0.022174811 1.5061549 -0.18894821
v 1.5470912E-15 1.294338 -0.47824106
v -0.021100251 1.4817853 -0.24854247
v 1.5470912E-15 1.414163 -0.3800856
v -0.026566755 1.5989794 -0.20762111
v 1.5470912E-15 1.4012017 -0.5258526
v -0.024681399 1.575931 -0.26769865
v 1.5470912E-15 1.4748563 -0.46160084
v -0.031456366 1.6728984 -0.21485446
v 1.5470912E-15 1.4797328 -0.66099906
v -0.030034678 1.6552157 -0.2784104
v 1.5278253E-15 1.6114563 -0.5059241
v -0.034900803 1.7361952 -0.21508537
v 1.5085803E-15 1.6175195 -0.6290077
v -0.033042893 1.7190909 -0.27731875
v 1.525948E-15 1.6740953 -0.52806574
v -0.040993147 1.8850822 -0.19460514
v 1.5433441E-15 1.723312 -0.72145224
v -0.04018471 1.8752245 -0.24471092
v 2.0609133E-15 1.7982113 -0.5450132
v -0.044937138 2.0206397 -0.17806149
v 2.5784826E-15 1.8699996 -0.8514327
v -0.043387387 2.0195205 -0.22000101
v 2.5538933E-15 2.0017908 -0.57444525
v -0.049072437 2.1441436 -0.1755373
v 2.5292757E-15 2.1010258 -0.83076996
v -0.044565637 2.1465955 -0.21998361
v 2.5256549E-15 2.1896248 -0.56925637
v -0.049120028 2.326925 -0.18152812
v -3.6717324E-08 2.3606584 -0.8941476
v -0.04569298 2.3337972 -0.21721286
v 3.0636277E-15 2.4003034 -0.51255846
v 3.6053356E-15 2.5492678 -0.6504724
v -0.051262535 2.3869781 -0.17291418
v -0.04730961 2.401494 -0.21019827
v -0.049075484 2.5052419 -0.1681986
v 3.605193E-15 2.546449 -0.49670738
v 3.605156E-15 2.8250062 -0.66613036
v -0.054725174 2.4694479 -0.14471963
v 3.6049066E-15 2.6906402 -0.29965878
v -0.055861115 2.5294962 -0.10787216
v 3.604848E-15 2.9222858 -0.37138954
v -0.05223751 2.553741 -0.12126461
v 3.604833E-15 2.8505967 -0.26581293
v 3.604904E-15 3.0662873 -0.28950247
v -0.054212816 2.574726 -0.025658874
v -0.05079727 2.5983899 -0.029096717
v 3.604683E-15 2.8102431 -0.07632589
v 3.6045445E-15 3.0919147 -0.0040386883
v -0.045980144 2.5983267 0.07260601
v -0.04964288 2.5680218 0.0757914
v -0.04440473 2.5341814 0.15276171
v -0.040622823 2.5658393 0.15600407
v 3.6048867E-15 2.6404388 0.16131824
v 3.605296E-15 2.785531 0.20253515
v -0.031441804 2.5294108 0.20512888
v -0.03474455 2.4977584 0.20372728
v -0.01824228 2.4678996 0.2342652
v -0.01624935 2.503747 0.23296548
v 2.5800367E-15 2.489439 0.24735162
v 2.5800363E-15 2.4512289 0.25103983
vt 0.2664485 -0.9738089
vt 0.23362398 -0.97951627
vt 0.26510048 -0.9829395
vt 0.23532999 -0.9718243
vt 0.2701031 -0.96076226
vt 0.15979755 -0.9708159
vt 0.23637283 -0.9586531
vt 0.2052648 -0.9587343
vt 0.27836633 -0.93863046
vt 0.1366955 -0.94776773
vt 0.24048436 -0.9382423
vt 0.17789447 -0.9396311
vt 0.29644084 -0.9052974
vt 0.07755494 -0.92144203
vt 0.25698507 -0.90318465
vt 0.1648885 -0.9023198
vt 0.3140142 -0.87772083
vt 0.082911015 -0.8836155
vt 0.27479768 -0.8748592
vt 0.139225 -0.8729899
vt 0.33266973 -0.85700345
vt 0.034112215 -0.8412422
vt 0.29330337 -0.85189486
vt 0.15688705 -0.8287494
vt 0.3522483 -0.8403168
vt 0.09411788 -0.8073813
vt 0.31387496 -0.835034
vt 0.16543686 -0.80740297
vt 0.41046357 -0.8045279
vt 0.0798924 -0.76331794
vt 0.3810128 -0.798967
vt 0.1973033 -0.76980495
vt 0.4636563 -0.772158
vt 0.062800884 -0.7000731
vt 0.44152153 -0.7654438
vt 0.25052524 -0.7105187
vt 0.50651205 -0.74088633
vt 0.15307355 -0.6413467
vt 0.48443115 -0.7326379
vt 0.31813574 -0.66168463
vt 0.56635606 -0.69333553
vt 0.2132783 -0.56156814
vt 0.5505794 -0.68531203
vt 0.42330432 -0.6155807
vt 0.40799665 -0.5535673
vt 0.59182787 -0.67990994
vt 0.5783522 -0.66952634
vt 0.6370796 -0.6513549
vt 0.48526478 -0.58095396
vt 0.5029259 -0.48105383
vt 0.63556385 -0.66468036
vt 0.6402931 -0.5795598
vt 0.67558503 -0.6571121
vt 0.69840413 -0.5107832
vt 0.67852926 -0.6486473
vt 0.7232592 -0.5480623
vt 0.79805803 -0.49278438
vt 0.7320349 -0.66227615
vt 0.74004793 -0.6560122
vt 0.804694 -0.5952524
vt 0.9557688 -0.5475315
vt 0.7870226 -0.67692053
vt 0.7756691 -0.6843219
vt 0.7943089 -0.70762765
vt 0.81141025 -0.70238054
vt 0.8555293 -0.68680024
vt 0.9478779 -0.68178546
vt 0.80952185 -0.7214112
vt 0.7924113 -0.72624564
vt 0.78914946 -0.7400862
vt 0.80735415 -0.7338302
vt 0.80799794 -0.7417871
vt 0.7896261 -0.7492744
vt 0.2664485 -0.9738089
vt 0.26510045 -0.9829395
vt 0.23362401 -0.97951627
vt 0.2353299 -0.9718243
vt 0.27010304 -0.96076226
vt 0.15979749 -0.9708159
vt 0.23637274 -0.9586531
vt 0.20526484 -0.9587343
vt 0.27836636 -0.93863046
vt 0.13669541 -0.94776773
vt 0.24048428 -0.9382423
vt 0.1778944 -0.9396311
vt 0.29644084 -0.9052974
vt 0.0775549 -0.92144203
vt 0.25698492 -0.90318465
vt 0.16488843 -0.9023198
vt 0.31401417 -0.87772083
vt 0.082910836 -0.8836155
vt 0.27479765 -0.8748592
vt 0.13922504 -0.8729899
vt 0.3326697 -0.85700345
vt 0.034112215 -0.8412422
vt 0.29330343 -0.85189486
vt 0.15688704 -0.8287494
vt 0.35224825 -0.8403168
vt 0.09411791 -0.8073813
vt 0.3138749 -0.835034
vt 0.16543679 -0.80740297
vt 0.41046357 -0.8045279
vt 0.0798922 -0.76331794
vt 0.38101244 -0.79896724
vt 0.19730327 -0.76980495
vt 0.46365637 -0.772158
vt 0.0628009 -0.7000731
vt 0.44152147 -0.7654438
vt 0.2505252 -0.7105187
vt 0.5065121 -0.74088633
vt 0.15307358 -0.6413467
vt 0.48443103 -0.7326379
vt 0.31813574 -0.66168463
vt 0.5663561 -0.69333553
vt 0.21327826 -0.56156814
vt 0.5505793 -0.68531203
vt 0.42330432 -0.6155807
vt 0.4079966 -0.5535673
vt 0.59182787 -0.67990994
vt 0.57835203 -0.66952634
vt 0.6370797 -0.6513549
vt 0.48526478 -0.58095396
vt 0.5029259 -0.48105383
vt 0.63556385 -0.66468036
vt 0.6402931 -0.5795598
vt 0.67558503 -0.6571121
vt 0.6984041 -0.5107832
vt 0.67852926 -0.6486473
vt 0.7232592 -0.5480623
vt 0.79805803 -0.49278438
vt 0.7320349 -0.66227615
vt 0.74004793 -0.6560122
vt 0.8046941 -0.5952524
vt 0.9557688 -0.5475315
vt 0.7870226 -0.67692053
vt 0.7756691 -0.6843219
vt 0.7943089 -0.70762765
vt 0.8114102 -0.70238054
vt 0.8555293 -0.68680024
vt 0.94787765 -0.68178546
vt 0.80952173 -0.7214112
vt 0.7924113 -0.72624564
vt 0.78914934 -0.7400862
vt 0.807354 -0.7338302
vt 0.80799794 -0.7417871
vt 0.7896261 -0.7492744
vn 0.99119663 -0.1321633 0.007874689
vn 0.95776176 -0.28122786 0.060028195
vn 0.9591281 -0.2751012 0.06627751
vn 0.9912545 -0.1319563 0.001412854
vn 0.9960996 -0.08769739 -0.0097374655
vn 0.9953709 -0.08076787 -0.052089814
vn 0.9957878 -0.08984887 -0.018272322
vn 0.9731843 -0.19548848 -0.12122948
vn 0.9977277 -0.06610181 -0.013037684
vn 0.9960316 -0.065125115 -0.06066192
vn 0.9972036 -0.07075862 -0.024043992
vn 0.9806137 -0.19073698 -0.044902503
vn 0.9982899 -0.05697508 -0.013084744
vn 0.99692947 -0.053897202 -0.056805495
vn 0.9977012 -0.0613418 -0.028798243
vn 0.9899559 -0.058772385 -0.1285811
vn 0.9982609 -0.05726595 -0.013994437
vn 0.99566525 -0.051719006 -0.07730365
vn 0.9976312 -0.05993312 -0.033764854
vn 0.9915127 -0.11040093 -0.06865931
vn 0.9983889 -0.05354717 -0.018773196
vn 0.9966918 -0.02526271 -0.077247374
vn 0.9977157 -0.051836774 -0.04331699
vn 0.99072534 0.019305825 -0.13450126
vn 0.99878436 -0.042631205 -0.024744455
vn 0.9942054 -0.0016693472 -0.10748415
vn 0.9978921 -0.039921172 -0.05116341
vn 0.9890863 -0.0939759 -0.11347596
vn 0.9989975 -0.030604174 -0.03266975
vn 0.9951874 -0.04894995 -0.0848872
vn 0.99814296 -0.027757578 -0.05422266
vn 0.9905025 -0.07953554 -0.11215614
vn 0.9983839 -0.019439299 -0.053401716
vn 0.99655366 -0.014853537 -0.081609786
vn 0.997837 -0.015478737 -0.063888445
vn 0.9924441 0.01216221 -0.12209309
vn 0.99679154 -0.011267611 -0.07924324
vn 0.99611855 0.0044124126 -0.08791197
vn 0.99702495 -0.008198773 -0.07664216
vn 0.99073327 -0.03628897 -0.1308838
vn 0.9951953 -0.0036650896 -0.09784114
vn 0.9965702 -0.002737999 -0.08270656
vn 0.99606603 -0.0016200466 -0.08859889
vn 0.9793102 0.16731238 -0.113833725
vn 0.99250096 -0.0028820038 -0.12220275
vn 0.99314827 0.010074732 -0.11642625
vn 0.9945868 0.011736416 -0.10324385
vn 0.99423075 0.048779055 -0.095529445
vn 0.9861498 -0.005771399 -0.16575696
vn 0.9951509 0.05425657 -0.08204246
vn 0.9923281 0.04466234 -0.11528314
vn 0.976398 0.19909285 -0.08371943
vn 0.9930138 0.087867685 -0.078758165
vn 0.9910636 0.11142588 -0.07333046
vn 0.99437654 0.08391381 -0.06460495
vn 0.9809199 0.08826517 -0.17322062
vn 0.991791 0.12766922 -0.0071593523
vn 0.99298084 0.11827336 0.00064270553
vn 0.99397886 0.109424844 0.005674521
vn 0.97326976 0.22871569 -0.02086121
vn 0.99137104 0.12971543 -0.018901883
vn 0.9881578 0.11794412 0.09814982
vn 0.9884914 0.11986146 0.09229294
vn 0.9679414 0.11103675 0.22530049
vn 0.96249104 0.12553851 0.24052228
vn 0.75582135 0.37325546 0.5379725
vn 0.974519 0.18736432 0.12331769
vn 0.89364016 0.1085819 0.4354506
vn 0.8983497 0.089855075 0.42999277
vn 0.7840852 0.082061544 0.61520416
vn 0.78272146 0.097991996 0.6146094
vn 0.61231786 0.09917738 0.7843665
vn 0.63397276 0.06894039 0.7702765
vn -0.99119663 -0.1321633 0.007874689
vn -0.9591281 -0.27510116 0.06627739
vn -0.95776176 -0.28122786 0.060028076
vn -0.9912545 -0.13195631 0.0014126155
vn -0.9960996 -0.08769732 -0.009737586
vn -0.9953709 -0.08076787 -0.052089993
vn -0.9957878 -0.08984893 -0.01827244
vn -0.9731843 -0.19548848 -0.12122948
vn -0.9977277 -0.06610181 -0.013037804
vn -0.9960316 -0.065125115 -0.06066192
vn -0.9972036 -0.07075862 -0.024044111
vn -0.9806137 -0.19073698 -0.044902503
vn -0.9982899 -0.05697508 -0.013084744
vn -0.99692947 -0.05389721 -0.0568055
vn -0.9977012 -0.0613418 -0.028798303
vn -0.9899559 -0.058772385 -0.1285811
vn -0.9982609 -0.057265762 -0.013994851
vn -0.99566525 -0.051719017 -0.077303596
vn -0.9976312 -0.05993288 -0.033764914
vn -0.9915127 -0.11040093 -0.06865931
vn -0.9983889 -0.05354479 -0.01877755
vn -0.9966918 -0.025262712 -0.077247374
vn -0.9977157 -0.051834144 -0.043318298
vn -0.99072534 0.019305825 -0.13450128
vn -0.99878436 -0.04262362 -0.02476037
vn -0.9942054 -0.001669109 -0.10748411
vn -0.9978921 -0.039914005 -0.051169768
vn -0.9890864 -0.093975775 -0.11347555
vn -0.9989969 -0.030601718 -0.032690186
vn -0.9951881 -0.048938215 -0.084885955
vn -0.9981426 -0.027758053 -0.054230344
vn -0.99050385 -0.07952964 -0.11214781
vn -0.99838316 -0.019441377 -0.05341433
vn -0.9965539 -0.01485783 -0.08160609
vn -0.99783665 -0.015483385 -0.06389268
vn -0.9924441 0.0121622095 -0.122093074
vn -0.9967913 -0.011268205 -0.07924629
vn -0.99611855 0.004412413 -0.08791198
vn -0.99702483 -0.008200321 -0.07664281
vn -0.99073327 -0.03628933 -0.1308838
vn -0.9951952 -0.0036650894 -0.09784131
vn -0.9965702 -0.0027380588 -0.08270651
vn -0.99606603 -0.0016201062 -0.088598706
vn -0.97931015 0.16731274 -0.11383402
vn -0.99250096 -0.0028820038 -0.12220269
vn -0.99314827 0.010074732 -0.11642625
vn -0.9945868 0.011736417 -0.10324384
vn -0.99423075 0.048779055 -0.09552957
vn -0.9861498 -0.0057713394 -0.16575696
vn -0.9951509 0.05425656 -0.082042456
vn -0.9923281 0.04466234 -0.115283206
vn -0.976398 0.19909295 -0.083719365
vn -0.9930138 0.08786767 -0.078758284
vn -0.9910636 0.11142601 -0.07333053
vn -0.99437654 0.083913684 -0.06460507
vn -0.9809199 0.08826517 -0.17322062
vn -0.991791 0.12766923 -0.007159472
vn -0.99298084 0.118273355 0.0006424666
vn -0.99397886 0.1094247 0.0056744013
vn -0.97326976 0.22871569 -0.02086121
vn -0.99137104 0.12971544 -0.018901823
vn -0.9881578 0.11794412 0.09814982
vn -0.9884914 0.11986145 0.09229292
vn -0.9679414 0.111036725 0.22530046
vn -0.96249115 0.12553851 0.24052203
vn -0.75582135 0.37325552 0.5379725
vn -0.97451913 0.18736435 0.12331749
vn -0.89364034 0.10858176 0.43545035
vn -0.8983499 0.089855075 0.4299925
vn -0.78408545 0.082061544 0.615204
vn -0.7827217 0.09799199 0.614609
vn -0.61231786 0.09917737 0.78436637
vn -0.6339727 0.06894029 0.77027637
g pm0849_81_HairASkin_ty_0
f 3/3/3 2/2/2 1/1/1
f 2/2/2 4/4/4 1/1/1
f 1/1/1 4/4/4 5/5/5
f 4/4/4 2/2/2 6/6/6
f 4/4/4 7/7/7 5/5/5
f 7/7/7 4/4/4 6/6/6
f 7/7/7 6/6/6 8/8/8
f 9/9/9 5/5/5 7/7/7
f 8/8/8 10/10/10 7/7/7
f 11/11/11 9/9/9 7/7/7
f 11/11/11 7/7/7 10/10/10
f 11/11/11 10/10/10 12/12/12
f 9/9/9 11/11/11 13/13/13
f 12/12/12 14/14/14 11/11/11
f 11/11/11 15/15/15 13/13/13
f 14/14/14 15/15/15 11/11/11
f 15/15/15 14/14/14 16/16/16
f 13/13/13 15/15/15 17/17/17
f 16/16/16 18/18/18 15/15/15
f 15/15/15 19/19/19 17/17/17
f 18/18/18 19/19/19 15/15/15
f 19/19/19 18/18/18 20/20/20
f 17/17/17 19/19/19 21/21/21
f 20/20/20 22/22/22 19/19/19
f 19/19/19 23/23/23 21/21/21
f 22/22/22 23/23/23 19/19/19
f 23/23/23 22/22/22 24/24/24
f 21/21/21 23/23/23 25/25/25
f 24/24/24 26/26/26 23/23/23
f 23/23/23 27/27/27 25/25/25
f 26/26/26 27/27/27 23/23/23
f 27/27/27 26/26/26 28/28/28
f 29/29/29 25/25/25 27/27/27
f 28/28/28 30/30/30 27/27/27
f 31/31/31 29/29/29 27/27/27
f 31/31/31 27/27/27 30/30/30
f 31/31/31 30/30/30 32/32/32
f 33/33/33 29/29/29 31/31/31
f 32/32/32 34/34/34 31/31/31
f 35/35/35 33/33/33 31/31/31
f 35/35/35 31/31/31 34/34/34
f 35/35/35 34/34/34 36/36/36
f 37/37/37 33/33/33 35/35/35
f 36/36/36 38/38/38 35/35/35
f 39/39/39 37/37/37 35/35/35
f 39/39/39 35/35/35 38/38/38
f 39/39/39 38/38/38 40/40/40
f 41/41/41 37/37/37 39/39/39
f 40/40/40 42/42/42 39/39/39
f 43/43/43 41/41/41 39/39/39
f 43/43/43 39/39/39 42/42/42
f 43/43/43 42/42/42 44/44/44
f 45/45/45 43/43/43 44/44/44
f 41/41/41 43/43/43 46/46/46
f 45/45/45 47/47/47 43/43/43
f 43/43/43 47/47/47 46/46/46
f 46/46/46 47/47/47 48/48/48
f 49/49/49 47/47/47 45/45/45
f 50/50/50 47/47/47 49/49/49
f 50/50/50 48/48/48 47/47/47
f 51/51/51 46/46/46 48/48/48
f 52/52/52 48/48/48 50/50/50
f 51/51/51 48/48/48 53/53/53
f 52/52/52 54/54/54 48/48/48
f 48/48/48 55/55/55 53/53/53
f 54/54/54 55/55/55 48/48/48
f 54/54/54 56/56/56 55/55/55
f 57/57/57 55/55/55 56/56/56
f 53/53/53 55/55/55 58/58/58
f 55/55/55 57/57/57 59/59/59
f 55/55/55 59/59/59 58/58/58
f 60/60/60 59/59/59 57/57/57
f 61/61/61 59/59/59 60/60/60
f 58/58/58 59/59/59 62/62/62
f 62/62/62 59/59/59 61/61/61
f 63/63/63 58/58/58 62/62/62
f 63/63/63 62/62/62 64/64/64
f 62/62/62 61/61/61 65/65/65
f 62/62/62 65/65/65 64/64/64
f 66/66/66 65/65/65 61/61/61
f 66/66/66 67/67/67 65/65/65
f 64/64/64 65/65/65 68/68/68
f 68/68/68 65/65/65 67/67/67
f 69/69/69 64/64/64 68/68/68
f 69/69/69 68/68/68 70/70/70
f 71/71/71 68/68/68 67/67/67
f 68/68/68 71/71/71 70/70/70
f 72/72/72 71/71/71 67/67/67
f 70/70/70 71/71/71 73/73/73
f 71/71/71 72/72/72 73/73/73
f 76/76/76 75/75/75 74/74/74
f 77/77/77 76/76/76 74/74/74
f 77/77/77 74/74/74 78/78/78
f 76/76/76 77/77/77 79/79/79
f 80/80/80 77/77/77 78/78/78
f 77/77/77 80/80/80 79/79/79
f 79/79/79 80/80/80 81/81/81
f 78/78/78 82/82/82 80/80/80
f 83/83/83 81/81/81 80/80/80
f 82/82/82 84/84/84 80/80/80
f 80/80/80 84/84/84 83/83/83
f 83/83/83 84/84/84 85/85/85
f 84/84/84 82/82/82 86/86/86
f 87/87/87 85/85/85 84/84/84
f 88/88/88 84/84/84 86/86/86
f 88/88/88 87/87/87 84/84/84
f 87/87/87 88/88/88 89/89/89
f 88/88/88 86/86/86 90/90/90
f 91/91/91 89/89/89 88/88/88
f 92/92/92 88/88/88 90/90/90
f 92/92/92 91/91/91 88/88/88
f 91/91/91 92/92/92 93/93/93
f 92/92/92 90/90/90 94/94/94
f 95/95/95 93/93/93 92/92/92
f 96/96/96 92/92/92 94/94/94
f 96/96/96 95/95/95 92/92/92
f 95/95/95 96/96/96 97/97/97
f 96/96/96 94/94/94 98/98/98
f 99/99/99 97/97/97 96/96/96
f 100/100/100 96/96/96 98/98/98
f 100/100/100 99/99/99 96/96/96
f 99/99/99 100/100/100 101/101/101
f 98/98/98 102/102/102 100/100/100
f 103/103/103 101/101/101 100/100/100
f 102/102/102 104/104/104 100/100/100
f 100/100/100 104/104/104 103/103/103
f 103/103/103 104/104/104 105/105/105
f 102/102/102 106/106/106 104/104/104
f 107/107/107 105/105/105 104/104/104
f 106/106/106 108/108/108 104/104/104
f 104/104/104 108/108/108 107/107/107
f 107/107/107 108/108/108 109/109/109
f 106/106/106 110/110/110 108/108/108
f 111/111/111 109/109/109 108/108/108
f 110/110/110 112/112/112 108/108/108
f 108/108/108 112/112/112 111/111/111
f 111/111/111 112/112/112 113/113/113
f 110/110/110 114/114/114 112/112/112
f 115/115/115 113/113/113 112/112/112
f 114/114/114 116/116/116 112/112/112
f 112/112/112 116/116/116 115/115/115
f 115/115/115 116/116/116 117/117/117
f 116/116/116 118/118/118 117/117/117
f 116/116/116 114/114/114 119/119/119
f 120/120/120 118/118/118 116/116/116
f 120/120/120 116/116/116 119/119/119
f 120/120/120 119/119/119 121/121/121
f 120/120/120 122/122/122 118/118/118
f 120/120/120 123/123/123 122/122/122
f 121/121/121 123/123/123 120/120/120
f 119/119/119 124/124/124 121/121/121
f 121/121/121 125/125/125 123/123/123
f 121/121/121 124/124/124 126/126/126
f 127/127/127 125/125/125 121/121/121
f 128/128/128 121/121/121 126/126/126
f 128/128/128 127/127/127 121/121/121
f 129/129/129 127/127/127 128/128/128
f 128/128/128 130/130/130 129/129/129
f 128/128/128 126/126/126 131/131/131
f 130/130/130 128/128/128 132/132/132
f 132/132/132 128/128/128 131/131/131
f 132/132/132 133/133/133 130/130/130
f 132/132/132 134/134/134 133/133/133
f 132/132/132 131/131/131 135/135/135
f 132/132/132 135/135/135 134/134/134
f 131/131/131 136/136/136 135/135/135
f 135/135/135 136/136/136 137/137/137
f 134/134/134 135/135/135 138/138/138
f 138/138/138 135/135/135 137/137/137
f 138/138/138 139/139/139 134/134/134
f 140/140/140 139/139/139 138/138/138
f 138/138/138 137/137/137 141/141/141
f 138/138/138 141/141/141 140/140/140
f 137/137/137 142/142/142 141/141/141
f 141/141/141 142/142/142 143/143/143
f 141/141/141 144/144/144 140/140/140
f 144/144/144 141/141/141 143/143/143
f 144/144/144 145/145/145 140/140/140
f 144/144/144 143/143/143 146/146/146
f 145/145/145 144/144/144 146/146/146
