g Rocks017
v -0.15032229 4.536222 0.57291013
v -0.25775146 5.177892 -0.9624634
v 0.80405945 6.6112175 -1.9942114
v 1.1298296 5.5715156 1.7763134
v 2.7682593 7.3223367 -2.1055787
v 3.4093237 6.0235906 2.609321
v 5.1621103 7.5679374 -1.5699097
v 6.80493 6.979213 -0.0010888567
v 6.8991294 6.233715 1.882185
v 6.3445835 5.3984513 2.9302685
v 3.4093237 6.0235906 2.609321
v 1.1735584 3.5603545 1.7858666
v 1.1298296 5.5715156 1.7763134
v 3.4923706 3.6967907 2.529414
v 3.3558643 -0.3261287 2.493474
v 1.4604437 -0.283253 1.8212304
v 1.1298296 5.5715156 1.7763134
v -0.38333622 3.243665 0.6046826
v -0.15032229 4.536222 0.57291013
v 1.1735584 3.5603545 1.7858666
v 1.4604437 -0.283253 1.8212304
v -0.31749818 -0.1853099 0.52536374
v 3.4923706 3.6967907 2.529414
v 3.4093237 6.0235906 2.609321
v 6.3445835 5.3984513 2.9302685
v 7.236517 3.4281409 2.5360303
v 3.3558643 -0.3261287 2.493474
v 7.68004 -0.24338119 1.9455492
v 6.8991294 6.233715 1.882185
v 7.236517 3.4281409 2.5360303
v 6.3445835 5.3984513 2.9302685
v 7.8742394 3.779757 1.6125195
v 8.307379 -0.18954512 1.3839452
v 7.68004 -0.24338119 1.9455492
v -0.37170473 3.5591435 -1.7815503
v -0.25775146 5.177892 -0.9624634
v -0.15032229 4.536222 0.57291013
v -0.38333622 3.243665 0.6046826
v -0.34162906 0.16742325 -3.5432494
v -0.31749818 -0.1853099 0.52536374
v 0.80405945 6.6112175 -1.9942114
v 3.0460277 4.41718 -2.9671264
v 2.7682593 7.3223367 -2.1055787
v 0.8673706 4.131749 -2.7257152
v -0.25775146 5.177892 -0.9624634
v -0.37170473 3.5591435 -1.7815503
v -0.34162906 0.16742325 -3.5432494
v 0.93111324 0.22815688 -4.1232495
v 3.0299573 0.27795 -4.5000854
vt 0.350018 0.5019817
vt 0.1951773 0.5922157
vt 0.16381155 0.793235
vt 0.54202735 0.63606304
vt 0.28129968 0.92260975
vt 0.7603009 0.7399859
vt 0.4788766 0.99999994
vt 0.71641463 0.96044946
vt 0.89207286 0.8647411
vt 0.95949465 0.75202453
vt 0.7603009 0.7399859
vt 0.55697995 0.42186403
vt 0.54202735 0.63606304
vt 0.7674972 0.49985245
vt 0.77265984 0.08947051
vt 0.5986162 0.03472536
vt 0.54202735 0.63606304
vt 0.34604794 0.35459614
vt 0.350018 0.5019817
vt 0.55697995 0.42186403
vt 0.5986162 0.03472536
vt 0.36617523 0
vt 0.7674972 0.49985245
vt 0.7603009 0.7399859
vt 0.95949465 0.75202453
vt 0.9771777 0.58539826
vt 0.77265984 0.08947051
vt 0.9791469 0.20608316
vt 0.89207286 0.8647411
vt 0.9771777 0.58539826
vt 0.95949465 0.75202453
vt 1.0336822 0.78454876
vt 1.0698755 0.26570353
vt 0.9791469 0.20608316
vt 0.1253279 0.428795
vt 0.1951773 0.5922157
vt 0.350018 0.5019817
vt 0.34604794 0.35459614
vt 0 0.11169117
vt 0.36617523 0
vt 0.16381155 0.793235
vt -0.037437797 0.8592072
vt 0.28129968 0.92260975
vt 0.05853623 0.61406434
vt 0.1951773 0.5922157
vt 0.1253279 0.428795
vt 0 0.11169117
vt -0.08168324 0.233508
vt -0.090159744 0.3516295
vn -0.70865947 0.65386873 0.2650612
vn -0.70865947 0.65386873 0.2650612
vn -0.39271122 0.873907 0.286469
vn -0.39291322 0.87381625 0.2864689
vn -0.14958568 0.9287897 0.33907795
vn -0.10986694 0.9295767 0.35187563
vn -0.039041013 0.9269937 0.37303948
vn -0.039041013 0.9269937 0.37303948
vn -0.039041005 0.9269937 0.37303948
vn -0.039041 0.9269937 0.37303942
vn -0.32138813 -0.02474517 0.9466242
vn -0.3194908 -0.013114377 0.9474986
vn -0.32138816 -0.024745174 0.9466242
vn -0.31955653 -0.013512708 0.9474709
vn -0.3183342 -0.0061547523 0.9479585
vn -0.31833416 -0.0061547523 0.9479586
vn -0.65574414 0.04699579 0.7535191
vn -0.6092108 -0.015249577 0.79286164
vn -0.6557441 0.04699578 0.7535192
vn -0.614757 -0.008149256 0.7886745
vn -0.5945199 -0.03369008 0.8033748
vn -0.5945199 -0.033690084 0.8033748
vn 0.022000153 -0.09367393 0.99535984
vn -0.06515503 -0.12403521 0.99013644
vn -0.06515502 -0.12403521 0.99013644
vn 0.03673864 -0.08845394 0.99540246
vn 0.064935446 -0.078398146 0.99480504
vn 0.06493545 -0.078398146 0.99480504
vn 0.7641314 0.23215058 0.6018382
vn 0.7657913 0.11363606 0.6329696
vn 0.7641314 0.23215061 0.60183823
vn 0.7660233 0.121045075 0.63131326
vn 0.7588078 0.017268231 0.6510857
vn 0.7588078 0.017268227 0.6510856
vn -0.9999635 0.0034872508 0.0078059873
vn -0.99323314 0.104888685 0.04986315
vn -0.99323314 0.104888685 0.049863145
vn -0.9999217 0.007962035 0.009663566
vn -0.99989927 -0.014186922 0.00046759506
vn -0.99989927 -0.014186924 0.00046759506
vn -0.31629547 0.2775893 -0.90713906
vn -0.1548978 0.3109456 -0.93772036
vn -0.14643697 0.27209786 -0.9510621
vn -0.35260552 0.31643465 -0.8806467
vn -0.74541247 0.24393187 -0.62036884
vn -0.6258075 0.29844207 -0.7206229
vn -0.54914314 0.32615182 -0.7694588
vn -0.3092816 0.34009585 -0.8880764
vn -0.16049913 0.33706626 -0.9276995
g Rocks017_0
f 3/3/3 2/2/2 1/1/1
f 4/4/4 3/3/3 1/1/1
f 5/5/5 3/3/3 4/4/4
f 6/6/6 5/5/5 4/4/4
f 7/7/7 5/5/5 6/6/6
f 6/6/6 8/8/8 7/7/7
f 6/6/6 9/9/9 8/8/8
f 6/6/6 10/10/10 9/9/9
f 13/13/13 12/12/12 11/11/11
f 12/12/12 14/14/14 11/11/11
f 14/14/14 12/12/12 15/15/15
f 12/12/12 16/16/16 15/15/15
f 19/19/19 18/18/18 17/17/17
f 18/18/18 20/20/20 17/17/17
f 20/20/20 18/18/18 21/21/21
f 18/18/18 22/22/22 21/21/21
f 25/25/25 24/24/24 23/23/23
f 26/26/26 25/25/25 23/23/23
f 26/26/26 23/23/23 27/27/27
f 28/28/28 26/26/26 27/27/27
f 31/31/31 30/30/30 29/29/29
f 30/30/30 32/32/32 29/29/29
f 32/32/32 30/30/30 33/33/33
f 30/30/30 34/34/34 33/33/33
f 37/37/37 36/36/36 35/35/35
f 38/38/38 37/37/37 35/35/35
f 38/38/38 35/35/35 39/39/39
f 40/40/40 38/38/38 39/39/39
f 43/43/43 42/42/42 41/41/41
f 42/42/42 44/44/44 41/41/41
f 41/41/41 44/44/44 45/45/45
f 44/44/44 46/46/46 45/45/45
f 46/46/46 44/44/44 47/47/47
f 44/44/44 48/48/48 47/47/47
f 44/44/44 42/42/42 48/48/48
f 42/42/42 49/49/49 48/48/48
