g rock_10
v -0.230175 -0.1692075 -0.888193
v -0.7539352 0.1868219 -0.2087933
v -0.727899 -0.1980082 -0.6411082
v 0.5362953 -0.5214089 -0.1005778
v 0.3739114 -0.4427233 0.5023237
v 0.7754508 -0.05889577 0.3154834
v 0.6666582 0.203835 0.7036554
v 0.7898512 0.4516489 0.1026375
v 0.7482907 0.5008958 0.3954449
v 0.7188519 0.5691001 0.374209
v 0.5239912 0.670328 0.4992248
v 0.5468374 0.5807661 0.6646772
v 0.6341206 0.19305 0.8459881
v 0.407087 0.4460893 0.9250687
v 0.5088921 -0.1527716 0.7597378
v 0.3162188 -0.1015804 0.9119746
v 0.1844281 -0.446612 0.5893031
v 0.5679519 0.08082426 0.9867715
v 0.4782078 0.1120858 1.068282
v 0.3779824 0.1048552 1.102795
v 0.2241051 0.0289343 1.093316
v 0.0506019 -0.05765015 1.050601
v 0.0233202 -0.2447639 0.8807738
v -0.03257996 -0.5267255 0.5858397
v 0.0233202 -0.2447639 0.8807738
v -0.03257996 -0.5267255 0.5858397
v -0.5985388 -0.05525011 0.2526261
v -0.5151746 0.09048527 0.4751027
v -0.1543147 0.1191341 0.9499807
v 0.0506019 -0.05765015 1.050601
v -0.6358461 0.4103314 0.2242203
v -0.6953616 -0.02900136 0.01015913
v 0.2241051 0.0289343 1.093316
v 0.277514 0.4496134 0.9576365
v 0.3779824 0.1048552 1.102795
v 0.4782078 0.1120858 1.068282
v 0.407087 0.4460893 0.9250687
v 0.1003348 0.5335549 0.8785561
v 0.04568022 0.6404639 0.7266838
v 0.5468374 0.5807661 0.6646772
v 0.1227252 0.744183 0.5418183
v 0.5239912 0.670328 0.4992248
v 0.2070009 0.7625329 0.4709709
v 0.06655169 0.7755054 0.3602036
v -0.1057667 0.7558492 0.1293723
v -0.08228254 0.5104657 0.8360233
v -0.4126707 0.3480818 0.7354334
v -0.368224 0.3573478 0.7847714
v -0.3666746 0.2977716 0.8042757
v -0.4063516 0.2906018 0.74953
v -0.5568567 0.3958095 0.4164075
v -0.2120985 0.7152304 0.06514788
v -0.1115086 0.7259243 0.0205493
v -0.5496868 0.5211292 0.04825634
v -0.7055997 0.3661582 0.0420891
v -0.6566263 0.4145543 -0.01505667
v -0.7426032 0.2754419 -0.1187758
v -0.7428766 0.1681986 -0.08408123
v -0.7539352 0.1868219 -0.2087933
v -0.727899 -0.1980082 -0.6411082
v -0.5496868 0.5211292 0.04825634
v -0.1115086 0.7259243 0.0205493
v -0.2120985 0.7152304 0.06514788
v 0.1124566 0.5782142 -0.2692202
v -0.1057667 0.7558492 0.1293723
v 0.4169303 0.5644822 -0.006428599
v 0.06655169 0.7755054 0.3602036
v 0.2070009 0.7625329 0.4709709
v 0.5239912 0.670328 0.4992248
v 0.7188519 0.5691001 0.374209
v 0.7898512 0.4516489 0.1026375
v 0.8106315 0.3234431 -0.2098262
v 0.1112718 0.03820038 -0.7357435
v -0.230175 -0.1692075 -0.888193
v -0.7539352 0.1868219 -0.2087933
v -0.7426032 0.2754419 -0.1187758
v -0.6566263 0.4145543 -0.01505667
vt 0.1255899 0.425058
vt 0.185787 0.5798506
vt 0.03200612 0.4144349
vt 0.5565811 0.2065272
vt 0.7022683 0.114461
vt 0.7958521 0.3233805
vt 0.9541857 0.3592964
vt 0.8373325 0.5864268
vt 0.9253518 0.5505108
vt 0.9197873 0.5838975
vt 0.9875724 0.6633173
vt 1.046758 0.5459581
vt 0.9885841 0.3254039
vt 1.067498 0.4144349
vt 0.8692015 0.1898339
vt 0.8651547 0.175164
vt 0.6693875 0.0891681
vt 0.9966778 0.24649
vt 1.000219 0.2404197
vt 0.9784669 0.2272674
vt 0.9152346 0.1913515
vt 0.8327798 0.1569531
vt 0.7407135 0.1099083
vt 0.5879444 0.04869944
vt 0.7407135 0.1099083
vt 0.5879444 0.04869944
vt 0.3668843 0.3021344
vt 0.4852551 0.3233805
vt 0.760442 0.2490193
vt 0.8327798 0.1569531
vt 0.4113998 0.5130773
vt 0.2626775 0.3598022
vt 0.9152346 0.1913515
vt 0.9916192 0.4129174
vt 0.9784669 0.2272674
vt 1.000219 0.2404197
vt 1.067498 0.4144349
vt 0.8828597 0.4549036
vt 0.831768 0.5317941
vt 1.046758 0.5459581
vt 0.8120396 0.6167783
vt 0.9875724 0.6633173
vt 0.8039458 0.6623055
vt 0.739196 0.6653407
vt 0.6061553 0.6977156
vt 0.8064751 0.4483275
vt 0.6405536 0.3876245
vt 0.6729286 0.3825659
vt 0.6709051 0.3522144
vt 0.6390361 0.3592964
vt 0.4968899 0.4700794
vt 0.5449464 0.6901277
vt 0.5651807 0.7316081
vt 0.4002709 0.5995791
vt 0.3243922 0.5282531
vt 0.3365328 0.5833916
vt 0.2662185 0.5813682
vt 0.2449724 0.464009
vt 0.185787 0.5798506
vt 0.03200612 0.4144349
vt 0.4007768 0.6005908
vt 0.5636632 0.7432429
vt 0.5398878 0.7017624
vt 0.5489933 0.881848
vt 0.5980615 0.7098562
vt 0.7240202 0.8611078
vt 0.7219968 0.6724227
vt 0.7988873 0.6658465
vt 0.9076468 0.7209851
vt 0.931928 0.799899
vt 0.8717309 0.8985413
vt 0.8312622 0.9557033
vt 0.38206 0.9916192
vt 0.1933749 0.9223167
vt 0.2292908 0.5990732
vt 0.2662185 0.5813682
vt 0.3365328 0.5833916
vn -0.3173401 0.6746147 -0.666476
vn -0.993055 0.006666481 0.1174617
vn -0.9619878 -0.2418724 0.126796
vn 0.7855511 -0.5447791 0.2934712
vn 0.7933179 -0.5370122 0.2868181
vn 0.8709863 -0.4205096 0.2540756
vn 0.9020537 -0.3661418 0.2285591
vn 0.9874889 -0.0554682 0.1476107
vn 0.9874889 -0.0554682 0.1476107
vn 0.9011888 0.4334267 0
vn 0.3195407 0.9076199 -0.2722496
vn 0.933121 0.3406406 0.1151049
vn 0.9175874 -0.358375 0.1720487
vn 0.2030382 0.4260759 0.8816093
vn 0.8632195 -0.4438102 0.2405923
vn 0.2341055 -0.6845822 0.69032
vn 0.2651728 -0.7001159 0.6629639
vn 0.9175874 -0.358375 0.1720487
vn 0.2341055 -0.6845822 0.69032
vn 0.2341055 -0.6845822 0.69032
vn 0.2574061 -0.6845822 0.6819745
vn 0.1952713 -0.6845822 0.7022936
vn 0.1952713 -0.6845822 0.7022936
vn 0.2263387 -0.7078827 0.6690837
vn 0.1952713 -0.6845822 0.7022936
vn 0.2263387 -0.7078827 0.6690837
vn -0.9153867 -0.07100189 0.3962649
vn -0.9076199 -0.06323504 0.415003
vn -0.3406406 0.3018064 0.8904364
vn 0.1952713 -0.6845822 0.7022936
vn -0.5192779 0.8066509 0.2822495
vn -0.9153867 -0.07100189 0.3962649
vn 0.2574061 -0.6845822 0.6819745
vn 0.2030382 0.4260759 0.8816093
vn 0.2341055 -0.6845822 0.69032
vn 0.2341055 -0.6845822 0.69032
vn 0.2030382 0.4260759 0.8816093
vn -0.2396716 0.7289825 0.6412035
vn -0.2396716 0.7289825 0.6412035
vn 0.933121 0.3406406 0.1151049
vn -0.0455007 0.9775215 0.2058676
vn 0.3195407 0.9076199 -0.2722496
vn -0.0455007 0.9775215 0.2058676
vn -0.0455007 0.9775215 0.2058676
vn -0.1853039 0.9464541 -0.2643617
vn -0.2396716 0.7289825 0.6412035
vn -0.7600499 0.1076354 0.640889
vn -0.7600499 0.1076354 0.640889
vn -0.7600499 0.1076354 0.640889
vn -0.7600499 0.1076354 0.640889
vn -0.9076199 -0.06323504 0.415003
vn -0.1853039 0.9464541 -0.2643617
vn -0.1853039 0.9464541 -0.2643617
vn -0.5192779 0.8066509 0.2822495
vn -0.7212158 0.6901484 0.05952277
vn -0.7134489 0.6979153 0.06248903
vn -0.993055 0.006666481 0.1174617
vn -0.993055 0.006666481 0.1174617
vn -0.993055 0.006666481 0.1174617
vn -0.9619878 -0.2418724 0.126796
vn -0.5192779 0.8066509 0.2822495
vn -0.1853039 0.9464541 -0.2643617
vn -0.1853039 0.9464541 -0.2643617
vn 0.2962402 0.9153867 -0.2725965
vn -0.1853039 0.9464541 -0.2643617
vn 0.3117739 0.9076199 -0.2811106
vn -0.0455007 0.9775215 0.2058676
vn -0.0455007 0.9775215 0.2058676
vn 0.3195407 0.9076199 -0.2722496
vn 0.9011888 0.4334267 0
vn 0.9874889 -0.0554682 0.1476107
vn 0.3273076 0.8998531 -0.2883301
vn -0.3095732 0.6823816 -0.6622083
vn -0.3173401 0.6746147 -0.666476
vn -0.993055 0.006666481 0.1174617
vn -0.993055 0.006666481 0.1174617
vn -0.7134489 0.6979153 0.06248903
g rock_10_0
f 3/3/3 2/2/2 1/1/1
f 6/6/6 5/5/5 4/4/4
f 5/5/5 6/6/6 7/7/7
f 7/7/7 6/6/6 8/8/8
f 9/9/9 7/7/7 8/8/8
f 8/8/8 10/10/10 9/9/9
f 9/9/9 10/10/10 7/7/7
f 10/10/10 11/11/11 7/7/7
f 11/11/11 12/12/12 7/7/7
f 12/12/12 13/13/13 7/7/7
f 13/13/13 12/12/12 14/14/14
f 15/15/15 5/5/5 7/7/7
f 15/15/15 7/7/7 13/13/13
f 5/5/5 15/15/15 16/16/16
f 17/17/17 5/5/5 16/16/16
f 18/18/18 13/13/13 14/14/14
f 18/18/18 15/15/15 13/13/13
f 19/19/19 18/18/18 14/14/14
f 15/15/15 18/18/18 19/19/19
f 16/16/16 15/15/15 19/19/19
f 19/19/19 20/20/20 16/16/16
f 21/21/21 16/16/16 20/20/20
f 21/21/21 22/22/22 16/16/16
f 22/22/22 23/23/23 16/16/16
f 17/17/17 16/16/16 23/23/23
f 24/24/24 17/17/17 23/23/23
f 27/27/27 26/26/26 25/25/25
f 28/28/28 27/27/27 25/25/25
f 28/28/28 25/25/25 29/29/29
f 25/25/25 30/30/30 29/29/29
f 31/31/31 27/27/27 28/28/28
f 32/32/32 27/27/27 31/31/31
f 29/29/29 30/30/30 33/33/33
f 34/34/34 29/29/29 33/33/33
f 34/34/34 33/33/33 35/35/35
f 34/34/34 35/35/35 36/36/36
f 37/37/37 34/34/34 36/36/36
f 34/34/34 37/37/37 38/38/38
f 29/29/29 34/34/34 38/38/38
f 37/37/37 39/39/39 38/38/38
f 37/37/37 40/40/40 39/39/39
f 40/40/40 41/41/41 39/39/39
f 41/41/41 40/40/40 42/42/42
f 43/43/43 41/41/41 42/42/42
f 41/41/41 43/43/43 44/44/44
f 41/41/41 44/44/44 45/45/45
f 46/46/46 29/29/29 38/38/38
f 39/39/39 46/46/46 38/38/38
f 39/39/39 41/41/41 47/47/47
f 46/46/46 39/39/39 48/48/48
f 39/39/39 47/47/47 48/48/48
f 48/48/48 49/49/49 46/46/46
f 49/49/49 29/29/29 46/46/46
f 49/49/49 48/48/48 47/47/47
f 49/49/49 50/50/50 29/29/29
f 50/50/50 49/49/49 47/47/47
f 50/50/50 28/28/28 29/29/29
f 28/28/28 50/50/50 47/47/47
f 41/41/41 51/51/51 47/47/47
f 51/51/51 28/28/28 47/47/47
f 51/51/51 41/41/41 45/45/45
f 51/51/51 31/31/31 28/28/28
f 31/31/31 51/51/51 45/45/45
f 31/31/31 45/45/45 52/52/52
f 53/53/53 52/52/52 45/45/45
f 54/54/54 31/31/31 52/52/52
f 55/55/55 31/31/31 54/54/54
f 56/56/56 55/55/55 54/54/54
f 57/57/57 55/55/55 56/56/56
f 58/58/58 31/31/31 55/55/55
f 57/57/57 58/58/58 55/55/55
f 58/58/58 32/32/32 31/31/31
f 57/57/57 59/59/59 58/58/58
f 32/32/32 58/58/58 59/59/59
f 60/60/60 32/32/32 59/59/59
f 63/63/63 62/62/62 61/61/61
f 62/62/62 64/64/64 61/61/61
f 62/62/62 65/65/65 64/64/64
f 65/65/65 66/66/66 64/64/64
f 66/66/66 65/65/65 67/67/67
f 66/66/66 67/67/67 68/68/68
f 69/69/69 66/66/66 68/68/68
f 66/66/66 69/69/69 70/70/70
f 71/71/71 66/66/66 70/70/70
f 71/71/71 72/72/72 66/66/66
f 66/66/66 72/72/72 64/64/64
f 72/72/72 73/73/73 64/64/64
f 64/64/64 73/73/73 74/74/74
f 75/75/75 64/64/64 74/74/74
f 64/64/64 75/75/75 76/76/76
f 64/64/64 76/76/76 61/61/61
f 76/76/76 77/77/77 61/61/61
