g rock_11
v 0.22595604 0.14870355 0.07696998
v 0.23318182 -0.055863276 0.1360707
v 0.067283615 -0.057641044 0.21807766
v -0.0023690462 0.15678954 0.13743886
v -0.08444154 0.055669487 0.18529126
v -0.080246985 -0.056248322 0.21045864
v -0.17044646 -0.05635482 0.15335688
v -0.16508856 0.067769796 0.121430695
v -0.054293126 0.116031855 0.1626226
v -0.2215595 0.026495963 0.0851461
v -0.23481497 -0.056633368 0.010938406
v -0.22037157 -0.056133628 -0.1465297
v -0.16528517 0.1946553 0.050221473
v -0.18901888 0.1693159 0.041652113
v -0.18805215 0.1673333 -0.0036114752
v 0.12767877 0.14177269 -0.15013441
v 0.062491 -0.0567071 -0.20224693
v 0.25543267 -0.05710034 -0.07765533
v -0.13136002 0.2283265 0.02471
v 0.012901783 0.27986556 0.0045482516
v 0.21995093 0.04460141 -0.05536352
v 0.23318182 -0.055863276 0.1360707
v 0.037757844 0.26730645 0.027462691
v 0.13083288 0.25700027 0.006629139
v 0.088281006 0.2814631 -0.0037999153
vt -0.10688648 0.44277877
vt 0.017860234 0.7226792
vt 0.39755803 0.87315494
vt 0.41159207 0.4973554
vt 0.6088478 0.5955935
vt 0.6400345 0.71020454
vt 0.8123409 0.59481376
vt 0.7359335 0.4614907
vt 0.53166074 0.5441354
vt 0.86457855 0.39989704
vt 0.99400324 0.33362538
vt 0.9612573 0.07789457
vt 0.6914925 0.25643831
vt 0.7445099 0.25331968
vt 0.7335945 0.18860728
vt 0.32037103 -0.21448052
vt 0.59637314 -0.24956554
vt -0.0733608 -0.5746867
vt 0.6088478 0.20731932
vt 0.31959134 0.1667766
vt -0.24020955 0.020978868
vt -0.601975 0.16989529
vt 0.27125198 0.26033664
vt 0.042029917 0.27281135
vt 0.16599697 0.21667528
vn 0.30848503 0.64655983 0.69770867
vn 0.98308027 0.017442942 0.18234289
vn 0.2175284 0.30547237 0.927021
vn 0.050774515 0.6086613 0.7918039
vn -0.532864 0.3736899 0.7592179
vn -0.5177046 0.41916823 0.74584174
vn -0.532864 0.42674792 0.7307135
vn -0.54802346 0.3585304 0.75572896
vn -0.55560315 0.32063186 0.76713777
vn -0.532864 0.3585304 0.76649326
vn -0.94974875 -0.16447037 0.26632082
vn -0.3585304 0.6010815 -0.71425277
vn -0.7526759 0.6541395 -0.074702844
vn -0.7526759 0.6541395 -0.074702844
vn -0.7526759 0.6541395 -0.074702844
vn 0.8087467 0.45706677 -0.37016043
vn -0.09324014 0.41916823 -0.9031081
vn 0.98308027 0.017442942 0.18234289
vn -0.7526759 0.6541395 -0.074702844
vn -0.03260243 0.8360529 0.5476793
vn 0.8239061 0.45706677 -0.33506513
vn 0.98308027 0.017442942 0.18234289
vn 0.24784726 0.6768787 0.693114
vn 0.26300675 0.669299 0.6948858
vn 0.20236897 0.72993684 0.6528698
g rock_11_0
f 3/3/3 2/2/2 1/1/1
f 4/4/4 3/3/3 1/1/1
f 3/3/3 4/4/4 5/5/5
f 3/3/3 5/5/5 6/6/6
f 7/7/7 6/6/6 5/5/5
f 8/8/8 7/7/7 5/5/5
f 4/4/4 9/9/9 5/5/5
f 8/8/8 5/5/5 9/9/9
f 8/8/8 10/10/10 7/7/7
f 10/10/10 11/11/11 7/7/7
f 12/12/12 11/11/11 10/10/10
f 13/13/13 8/8/8 9/9/9
f 13/13/13 9/9/9 4/4/4
f 14/14/14 10/10/10 8/8/8
f 13/13/13 14/14/14 8/8/8
f 10/10/10 14/14/14 15/15/15
f 10/10/10 15/15/15 12/12/12
f 14/14/14 13/13/13 15/15/15
f 15/15/15 16/16/16 12/12/12
f 16/16/16 17/17/17 12/12/12
f 18/18/18 17/17/17 16/16/16
f 13/13/13 19/19/19 15/15/15
f 19/19/19 13/13/13 4/4/4
f 15/15/15 19/19/19 16/16/16
f 20/20/20 19/19/19 4/4/4
f 19/19/19 20/20/20 16/16/16
f 21/21/21 18/18/18 16/16/16
f 22/22/22 18/18/18 21/21/21
f 1/1/1 22/22/22 21/21/21
f 23/23/23 4/4/4 1/1/1
f 23/23/23 20/20/20 4/4/4
f 24/24/24 1/1/1 21/21/21
f 24/24/24 23/23/23 1/1/1
f 16/16/16 24/24/24 21/21/21
f 23/23/23 24/24/24 20/20/20
f 20/20/20 25/25/25 16/16/16
f 24/24/24 25/25/25 20/20/20
f 25/25/25 24/24/24 16/16/16
