g Rocks022
v 37.602253 33.155834 -4.4424753
v 44.898037 29.856926 -35.557407
v 56.310253 20.748425 -32.438686
v 34.85488 31.239077 -36.967308
v 48.63906 23.56218 -1.1193111
v 63.649784 2.36719 -35.077652
v 25.232662 34.618286 -7.49475
v 25.739992 31.129513 -38.81978
v 58.104687 6.318663 0.49826694
v 65.8672 -14.276982 -39.162582
v 63.86461 -14.276879 9.428057
v 34.069996 32.653587 12.561015
v 15.99814 34.149334 -10.4867525
v 22.004005 23.553484 -41.92486
v 52.87624 6.3229175 16.073133
v 57.144203 -14.276881 26.31934
v 43.747196 6.326105 26.4152
v 48.889915 -14.276879 37.33575
v 42.41202 24.359064 15.947289
v 20.003763 33.94387 9.141646
v 37.029636 23.770094 23.243599
v 33.023926 5.727785 33.10196
v 36.21308 -14.276879 41.832108
v 29.652761 30.058706 22.08846
v 24.288357 5.354033 35.900803
v 23.850128 -14.276879 39.946182
v 13.541522 4.565335 32.741173
v 12.996998 -14.276879 37.57141
v -3.014263 -14.276879 32.96992
v 10.391039 31.785105 5.7477593
v 16.70128 30.122597 20.167274
v 11.2132845 26.72789 -12.485649
v 9.628795 24.063332 -12.615834
v 9.992976 -14.276857 -51.422222
v -2.191271 -14.276879 -16.380209
v 3.4630842 22.021227 3.3807278
v -7.6750016 -14.276879 -0.63067836
v 5.8065434 24.311981 3.5285695
v 6.6218586 28.385622 16.92999
v -0.7395584 21.564777 15.472671
v -2.3080935 19.664492 15.455981
v -2.3134549 19.15182 18.216684
v 4.741866 25.354685 22.084066
v -5.2186737 10.3757715 15.441391
v -2.9738905 16.095745 18.803295
v 3.9585335 17.76823 23.319101
v 15.189857 26.803095 25.105453
v -8.1587305 5.3705387 16.253017
v -12.041074 -14.276881 14.301938
v -13.334362 -14.276879 27.017591
v -4.6312037 9.832409 19.31621
v -7.396597 4.835451 21.428082
v 0.029637141 4.804684 25.884356
v 1.667396 10.2092495 23.971289
v 14.617835 18.04669 26.657494
v 14.032684 10.471743 29.406267
v 25.802038 18.710785 27.980244
v 24.635162 11.082838 31.524136
v 30.278791 10.919892 30.258541
v 32.487198 17.238405 28.30155
v 31.881384 21.22818 27.151058
v 26.42152 26.132294 25.936615
vt 1.8042963 1.0384552
vt 2.478184 2.3169682
vt 4.1129684 1.0973411
vt 0.66611934 2.4769826
vt 2.5489085 0.10214245
vt 4.8041353 0.11281967
vt 0.72623324 1.1846682
vt -0.76062655 2.4231076
vt 3.0333698 -0.72557354
vt 5.2888603 -0.67486167
vt 3.5145476 -1.6474956
vt 1.4977205 0.4477051
vt -0.31361413 1.2806702
vt -1.4455998 2.3251083
vt 2.3437998 -1.1033353
vt 2.766806 -2.0573912
vt 1.7989433 -1.2909182
vt 1.8541105 -2.362938
vt 2.0809395 -0.16887987
vt 0.59348273 0.55925137
vt 1.6029942 -0.5049889
vt 1.3144786 -1.3751291
vt 1.3767402 -2.3639922
vt 1.1416953 -0.010557771
vt 0.8826654 -1.3936039
vt 0.8610027 -2.3639922
vt 0.3514316 -1.4325908
vt 0.3245151 -2.3639922
vt -0.4029703 -2.3760815
vt -0.11544585 0.45468277
vt 0.5032246 -0.0047807693
vt -1.177273 1.1545327
vt -1.2781835 1.055496
vt -3.5044503 0.5458036
vt -2.7638366 -0.65141547
vt -0.945637 0.18393636
vt -2.3074384 -1.254666
vt -0.8574841 0.26778752
vt -0.06840706 -0.12822151
vt -0.50952005 -0.35046232
vt -0.57852316 -0.47829044
vt -0.47700453 -0.5610937
vt -0.0835495 -0.40493965
vt -0.8345289 -0.9422275
vt -0.4834025 -0.7520739
vt -0.12227154 -0.7799498
vt 0.43291163 -0.33334255
vt -1.0223289 -1.2508377
vt -1.6173964 -1.8759652
vt -0.9770868 -2.3639922
vt -0.54687524 -1.087608
vt -0.683573 -1.3708826
vt -0.24394894 -1.4570266
vt -0.17820334 -1.1536032
vt 0.4046352 -0.7661859
vt 0.37571073 -1.1406277
vt 0.9574888 -0.7333585
vt 0.89980817 -1.1104201
vt 1.1787817 -1.1184748
vt 1.2879474 -0.80614054
vt 1.2580006 -0.60891914
vt 0.99601626 -0.3823117
vn 0.41043854 0.91046405 0.050945252
vn 0.44396982 0.8959007 0.0158962
vn 0.8155525 0.5671689 0.11486327
vn 0.083124846 0.9927821 -0.08645216
vn 0.788486 0.5942865 0.15847196
vn 0.95182943 0.29059574 0.09785112
vn 0.04075618 0.99862325 -0.033023097
vn -0.43636614 0.8644353 -0.24967198
vn 0.9260507 0.3420704 0.15943007
vn 0.9728161 0.21840842 0.07698379
vn 0.9417538 0.2825056 0.18245633
vn 0.34608358 0.91455996 0.20929945
vn -0.43852347 0.88130265 -0.176076
vn -0.8677531 0.36376798 -0.33864063
vn 0.8106469 0.42577165 0.40195787
vn 0.78427774 0.4149743 0.46119925
vn 0.5891249 0.44076872 0.6772406
vn 0.5381796 0.46638173 0.7020334
vn 0.7309588 0.5735033 0.36985546
vn -0.059838977 0.9881942 0.14103736
vn 0.5960824 0.49919906 0.6288768
vn 0.25834173 0.4157722 0.8720051
vn 0.24507171 0.41180548 0.8776994
vn 0.18448325 0.86184174 0.472435
vn -0.09673367 0.33414388 0.9375449
vn -0.10677632 0.26969245 0.95700824
vn -0.30860248 0.32726482 0.8931194
vn -0.3035798 0.27486193 0.91229945
vn -0.39395732 0.33808008 0.85469264
vn -0.5088143 0.8606358 -0.020344684
vn -0.13880585 0.9212804 0.3632843
vn -0.78355646 0.55423796 -0.28081965
vn -0.8821801 0.3389898 -0.32687017
vn -0.87968856 0.33413735 -0.3383788
vn -0.88618916 0.32598785 -0.32924268
vn -0.8882167 0.33620125 -0.3131131
vn -0.89876944 0.30153343 -0.31826246
vn -0.7689847 0.61324066 -0.18055049
vn -0.5166739 0.8468363 0.12615994
vn -0.7318953 0.67871946 -0.060572393
vn -0.88903594 0.33115637 -0.31614965
vn -0.71298695 0.4230929 0.5591439
vn -0.46111572 0.531073 0.7108683
vn -0.90030086 0.30750898 -0.30805308
vn -0.7405038 0.2612377 0.6192003
vn -0.410823 0.23086923 0.88199997
vn -0.19304176 0.5127817 0.8365345
vn -0.9362928 0.27639225 -0.21670927
vn -0.944335 0.2594557 -0.2022724
vn -0.77542806 0.36444387 0.515647
vn -0.7039848 0.41312617 0.5776956
vn -0.79370946 0.3802306 0.47481585
vn -0.40250772 0.3652286 0.83940196
vn -0.43926165 0.3600745 0.8230405
vn -0.23116256 0.27107155 0.9343897
vn -0.2911782 0.41346282 0.86270726
vn -0.06415414 0.30480197 0.95025253
vn -0.067138515 0.47663558 0.8765335
vn 0.27785608 0.41693246 0.8654267
vn 0.34083498 0.33766618 0.8773899
vn 0.31907585 0.37637043 0.86979073
vn 0.0269381 0.5186478 0.8545635
g Rocks022_0
f 3/3/3 2/2/2 1/1/1
f 1/1/1 2/2/2 4/4/4
f 5/5/5 3/3/3 1/1/1
f 3/3/3 5/5/5 6/6/6
f 7/7/7 1/1/1 4/4/4
f 7/7/7 4/4/4 8/8/8
f 5/5/5 9/9/9 6/6/6
f 6/6/6 9/9/9 10/10/10
f 9/9/9 11/11/11 10/10/10
f 5/5/5 1/1/1 12/12/12
f 12/12/12 1/1/1 7/7/7
f 13/13/13 7/7/7 8/8/8
f 13/13/13 8/8/8 14/14/14
f 9/9/9 15/15/15 11/11/11
f 15/15/15 16/16/16 11/11/11
f 15/15/15 17/17/17 16/16/16
f 17/17/17 18/18/18 16/16/16
f 5/5/5 19/19/19 9/9/9
f 19/19/19 15/15/15 9/9/9
f 19/19/19 5/5/5 12/12/12
f 17/17/17 15/15/15 19/19/19
f 20/20/20 12/12/12 7/7/7
f 20/20/20 7/7/7 13/13/13
f 19/19/19 12/12/12 21/21/21
f 21/21/21 17/17/17 19/19/19
f 17/17/17 22/22/22 18/18/18
f 22/22/22 23/23/23 18/18/18
f 24/24/24 12/12/12 20/20/20
f 12/12/12 24/24/24 21/21/21
f 22/22/22 25/25/25 23/23/23
f 25/25/25 26/26/26 23/23/23
f 25/25/25 27/27/27 26/26/26
f 27/27/27 28/28/28 26/26/26
f 29/29/29 28/28/28 27/27/27
f 30/30/30 20/20/20 13/13/13
f 31/31/31 24/24/24 20/20/20
f 31/31/31 20/20/20 30/30/30
f 30/30/30 13/13/13 32/32/32
f 32/32/32 13/13/13 14/14/14
f 32/32/32 14/14/14 33/33/33
f 14/14/14 34/34/34 33/33/33
f 34/34/34 35/35/35 33/33/33
f 33/33/33 35/35/35 36/36/36
f 32/32/32 33/33/33 36/36/36
f 35/35/35 37/37/37 36/36/36
f 38/38/38 30/30/30 32/32/32
f 38/38/38 32/32/32 36/36/36
f 39/39/39 30/30/30 38/38/38
f 39/39/39 31/31/31 30/30/30
f 38/38/38 36/36/36 40/40/40
f 40/40/40 39/39/39 38/38/38
f 36/36/36 41/41/41 40/40/40
f 41/41/41 36/36/36 37/37/37
f 40/40/40 42/42/42 39/39/39
f 40/40/40 41/41/41 42/42/42
f 39/39/39 43/43/43 31/31/31
f 42/42/42 43/43/43 39/39/39
f 44/44/44 41/41/41 37/37/37
f 41/41/41 45/45/45 42/42/42
f 41/41/41 44/44/44 45/45/45
f 43/43/43 42/42/42 46/46/46
f 42/42/42 45/45/45 46/46/46
f 43/43/43 47/47/47 31/31/31
f 47/47/47 43/43/43 46/46/46
f 44/44/44 37/37/37 48/48/48
f 37/37/37 49/49/49 48/48/48
f 48/48/48 49/49/49 50/50/50
f 44/44/44 51/51/51 45/45/45
f 44/44/44 48/48/48 51/51/51
f 52/52/52 48/48/48 50/50/50
f 48/48/48 52/52/52 51/51/51
f 52/52/52 50/50/50 29/29/29
f 53/53/53 52/52/52 29/29/29
f 51/51/51 52/52/52 53/53/53
f 53/53/53 29/29/29 27/27/27
f 45/45/45 51/51/51 54/54/54
f 54/54/54 51/51/51 53/53/53
f 46/46/46 45/45/45 54/54/54
f 54/54/54 53/53/53 27/27/27
f 55/55/55 46/46/46 54/54/54
f 55/55/55 47/47/47 46/46/46
f 56/56/56 54/54/54 27/27/27
f 56/56/56 55/55/55 54/54/54
f 27/27/27 25/25/25 56/56/56
f 55/55/55 57/57/57 47/47/47
f 55/55/55 56/56/56 57/57/57
f 25/25/25 58/58/58 56/56/56
f 56/56/56 58/58/58 57/57/57
f 58/58/58 25/25/25 22/22/22
f 59/59/59 58/58/58 22/22/22
f 59/59/59 22/22/22 17/17/17
f 59/59/59 60/60/60 58/58/58
f 60/60/60 59/59/59 17/17/17
f 60/60/60 57/57/57 58/58/58
f 60/60/60 17/17/17 21/21/21
f 61/61/61 60/60/60 21/21/21
f 60/60/60 61/61/61 57/57/57
f 21/21/21 24/24/24 61/61/61
f 57/57/57 62/62/62 47/47/47
f 61/61/61 62/62/62 57/57/57
f 24/24/24 62/62/62 61/61/61
f 47/47/47 62/62/62 31/31/31
f 62/62/62 24/24/24 31/31/31
