g rock_15
v -0.02558254 0.0159343 -0.002138078
v 0.00275813 0.06048185 -0.004623622
v 0.01082949 0.01957443 0.04202461
v 0.06352857 0.0149294 0.05304122
v 0.1365397 0.05839717 0.02308095
v 0.1458832 -0.003089532 0.02787565
v 0.2216953 -0.02026391 -0.05163534
v 0.2210806 0.01777308 -0.05571912
v 0.2157246 0.04663223 -0.07386634
v 0.1902865 0.0578092 -0.04944912
v 0.1879506 0.09062386 -0.1072209
v 0.1360426 0.1228184 -0.1420026
v 0.121295 0.1286074 -0.1492187
v -0.002694055 0.08891872 -0.06754822
v -0.03098661 -0.002132729 -0.1092734
v 0.0902015 0.07325706 -0.2025859
vt 0.9091378 0.4638263
vt 0.9499998 0.5914155
vt 1.02672 0.4446462
vt 1.115115 0.5355431
vt 1.172656 0.6839803
vt 1.253546 0.6155992
vt 1.297743 0.6806446
vt 1.26939 0.72651
vt 1.200175 0.7948912
vt 1.179327 0.7682059
vt 1.123455 0.8332515
vt 0.9766852 0.8557672
vt 0.9441624 0.8616046
vt 0.8607707 0.6531254
vt 0.7506937 0.6239383
vt 0.8057322 0.8374211
vn -0.6637779 0.4163296 0.6213441
vn -0.6562794 0.4463234 0.6083525
vn -0.6487811 0.4388249 0.621704
vn 0.221037 0.926223 0.3053744
vn 0.221037 0.926223 0.3053744
vn 0.9258896 0.2888563 0.2434964
vn 0.9258896 0.2963548 0.2343124
vn 0.9258896 0.2813579 0.2521234
vn 0.6559461 0.753759 0.03977545
vn 0.6559461 0.753759 0.03977545
vn 0.6559461 0.753759 0.03977545
vn 0.221037 0.926223 0.3053744
vn -0.07890022 0.9862105 -0.1454775
vn -0.476317 0.8362418 0.2717014
vn -0.7762544 0.6112889 -0.1541265
vn -0.7687559 0.6112889 -0.18799
g rock_15_0
f 3/3/3 2/2/2 1/1/1
f 2/2/2 3/3/3 4/4/4
f 2/2/2 4/4/4 5/5/5
f 6/6/6 5/5/5 4/4/4
f 6/6/6 7/7/7 5/5/5
f 7/7/7 8/8/8 5/5/5
f 8/8/8 9/9/9 5/5/5
f 9/9/9 10/10/10 5/5/5
f 9/9/9 11/11/11 10/10/10
f 11/11/11 12/12/12 10/10/10
f 12/12/12 5/5/5 10/10/10
f 12/12/12 2/2/2 5/5/5
f 2/2/2 12/12/12 13/13/13
f 2/2/2 14/14/14 1/1/1
f 14/14/14 2/2/2 13/13/13
f 14/14/14 15/15/15 1/1/1
f 14/14/14 13/13/13 16/16/16
f 15/15/15 14/14/14 16/16/16
