g Rocks020
v -51.534172 -11.495385 -1.614136
v -63.723953 -12.908039 -8.337066
v -52.1387 10.546711 -6.9432087
v -75.42107 -11.495394 -16.829174
v -43.90087 1.3948315 -0.92328644
v -24.794855 -11.495385 7.1389885
v -22.484999 -3.487138 5.485805
v -15.659422 -11.495385 10.004736
v -13.960892 -4.300739 8.3148575
v -5.858551 -11.495384 12.814306
v -5.5220904 -4.64637 10.956992
v 1.5008196 -11.495385 10.959023
v -13.445607 2.2542768 7.2470303
v -21.863543 3.6100519 4.4662547
v -34.705574 7.9985256 0.81105435
v 1.6287904 -2.1745977 9.802431
v 5.668268 -11.495385 8.666772
v -56.352406 17.83809 -14.643486
v -35.98765 14.818034 -3.0786428
v -56.72988 19.693457 -20.281235
v -78.92239 -11.49539 -22.261353
v -20.742561 10.220808 2.6626265
v -21.863543 3.6100519 4.4662547
v -12.54481 9.223449 5.162934
v -5.2803483 1.6947882 10.073534
v 2.1744673 2.1095464 8.545165
v -4.3631134 7.268229 7.520629
v -8.935153 19.197727 -2.4512942
v -0.95554966 15.913881 -0.22138704
v -18.431135 23.093359 -4.4525146
v -57.20665 22.03685 -27.401909
v -82.62734 -11.495385 -29.122377
v 5.611108 -0.41665718 7.837348
v 2.033487 5.4917874 7.5570354
v 5.36547 3.4822967 6.654291
v 9.10311 0.56703603 4.942563
v 9.937433 -12.026202 5.743847
v 12.884186 -11.806898 3.0782125
v 5.0560136 6.069556 5.5212784
v 7.6485457 4.6232085 4.0871043
v 11.519551 1.4529394 2.6293552
v 15.325136 -11.713316 -0.9831497
v 9.159248 7.8581476 2.0492673
v 14.260357 1.5261822 -1.3963821
v 18.149658 -11.595119 -5.7711773
v 6.728903 7.56314 5.4977827
v 8.529983 9.414427 1.7715816
v 17.183964 1.6186907 -6.124722
v 21.483107 -11.495402 -10.908881
v 11.653199 10.904072 -1.846094
v 20.793058 1.6967351 -11.336689
v 27.961758 -11.495411 -22.668924
v 14.519306 13.911445 -6.73522
v 11.311385 12.630464 -2.3732717
v 0.070120834 17.821724 -5.0588675
v 27.204363 2.1193464 -23.249052
v 41.868305 -11.49544 -49.762775
v 41.348377 3.0971527 -50.291714
v 39.46449 18.853943 -50.617523
v 14.205261 15.729338 -7.2951713
v 18.15795 16.448616 -12.056274
v 25.313728 18.735844 -23.74917
v 17.867744 18.052467 -12.870302
v 25.041983 20.025066 -24.668032
v 39.695435 21.113298 -52.022076
v 1.6656086 20.231398 -10.849306
v 9.820158 24.225183 -32.15469
v 22.815887 28.91867 -60.349865
v 8.759068 32.396347 -65.36191
v 4.367549 22.26432 -18.528822
v 0.43417814 27.783125 -36.522415
v -3.7440524 25.104706 -21.89583
v -6.0925713 23.213747 -12.956894
v -10.66663 31.601738 -40.493694
v -4.2208533 33.772835 -70.9764
v -27.492548 36.051 -79.63475
v -14.005568 28.63209 -25.47313
v -32.347317 33.323605 -48.681168
v -44.986897 30.21543 -86.14364
v -15.853122 26.859013 -16.205229
v -7.5952353 20.972343 -7.08918
v -17.186079 25.309134 -10.214956
v -52.152542 26.746948 -56.531372
v -71.98359 -11.495381 -91.236885
v -83.54761 -11.495362 -60.689907
v -35.36429 30.737766 -32.226265
v -56.509914 24.013857 -38.69771
v -86.83664 -11.495381 -42.25102
v -36.32019 28.79388 -22.154932
v -36.560802 26.48975 -15.947588
v -36.60111 24.665468 -9.468028
vt -0.9390419 -2.781623
vt -1.5953758 -2.3483174
vt -1.0380521 -1.2176411
vt -2.1712523 -1.7660387
vt -0.7146598 -2.1075408
vt 0.36050203 -2.832914
vt 0.49048322 -2.3822644
vt 0.87458277 -2.832914
vt 0.97016454 -2.428048
vt 1.4261072 -2.832914
vt 1.4450414 -2.4474986
vt 1.8402417 -2.832914
vt 0.99915856 -2.0591772
vt 0.52545494 -1.9828836
vt -0.19720492 -1.7359304
vt 1.8474445 -2.3084042
vt 2.0747578 -2.832914
vt -1.1984076 -0.61217177
vt -0.26935056 -1.3521749
vt -1.2182875 -0.31529206
vt -2.5659792 -1.2975211
vt 0.58853614 -1.6838357
vt 0.52545494 -1.9828836
vt 1.0290055 -1.750384
vt 1.4586437 -2.0906613
vt 1.8608551 -1.940067
vt 1.5102592 -1.7770259
vt 1.2985425 -1.2542012
vt 1.7187402 -1.3716255
vt 0.79849416 -1.1488183
vt -1.2433913 0.059675828
vt -2.748705 -0.75095224
vt 2.0715408 -2.2094798
vt 1.8702149 -1.8142806
vt 2.0577178 -1.9459124
vt 2.264139 -2.0720356
vt 2.314998 -2.8627849
vt 2.480821 -2.850444
vt 2.0353029 -1.7509031
vt 2.174466 -1.8086025
vt 2.4001188 -1.9830943
vt 2.6181808 -2.845178
vt 2.275116 -1.5874722
vt 2.5387168 -1.9047029
vt 2.777125 -2.8385272
vt 2.1344438 -1.7232906
vt 2.2182395 -1.4765733
vt 2.6993296 -1.7939553
vt 3.038939 -2.7480793
vt 2.3880959 -1.3613429
vt 2.8711529 -1.6332059
vt 3.6507673 -2.3756301
vt 2.5493798 -1.1022034
vt 2.3647072 -1.25831
vt 1.7727506 -1.1168886
vt 3.3784747 -1.4071692
vt 5.386074 -2.0119288
vt 5.1843534 -1.1150601
vt 4.9719377 0.28227928
vt 2.5170972 -0.99912596
vt 2.7228684 -0.80307144
vt 3.3724024 -0.32988396
vt 2.7099576 -0.70554537
vt 3.3274937 -0.1794574
vt 4.9561887 0.48207113
vt 1.8567698 -0.8119692
vt 2.542634 0.4838711
vt 4.059937 1.7247291
vt 3.1056128 2.4921083
vt 1.9990511 -0.40757248
vt 1.9881513 0.7452674
vt 1.571902 -0.23026925
vt 1.44823 -0.70098424
vt 1.3685732 0.97681653
vt 1.8927884 2.62617
vt -0.2838024 2.8396063
vt 1.0315396 -0.04189175
vt 0.092632204 1.2986053
vt -2.2626305 2.5811868
vt 0.93424875 -0.52993023
vt 1.3691006 -1.009974
vt 0.864056 -0.8453736
vt -1.367964 1.5271903
vt -5.12261 2.4199035
vt -3.8718643 1.4678314
vt -0.09319273 0.31372288
vt -1.2067006 0.6545023
vt -2.8285913 0.51276016
vt -0.14352953 -0.21662487
vt -0.1561994 -0.543498
vt -0.15832147 -0.88470507
vn -0.40241414 0.19014165 0.8954937
vn -0.5622629 0.26925126 0.78189784
vn -0.49168175 0.34590942 0.79912186
vn -0.70845675 0.41231993 0.5727838
vn -0.3535211 0.21044168 0.9114479
vn -0.28021085 0.19353898 0.9402258
vn -0.27406377 0.17846528 0.94500756
vn -0.27788773 0.2748106 0.9204659
vn -0.28570426 0.2257156 0.93135685
vn -0.07374109 0.23501812 0.96918976
vn -0.08444324 0.20882747 0.97429997
vn 0.28971744 0.1393979 0.9469065
vn -0.26916537 0.24857049 0.93046373
vn -0.24055436 0.22390041 0.94445866
vn -0.26255864 0.27034408 0.92627054
vn 0.27565166 0.15281413 0.9490332
vn 0.53145176 0.08119812 0.8431879
vn -0.5951696 0.5373232 0.59754246
vn -0.26670018 0.47543713 0.83834994
vn -0.65023655 0.6822723 0.33421075
vn -0.77496773 0.53628266 0.33440375
vn -0.15530291 0.47053516 0.8686067
vn -0.24055436 0.22390041 0.94445866
vn -0.10436826 0.5150927 0.8507567
vn -0.11658049 0.26370084 0.9575337
vn 0.21592313 0.27522844 0.9368172
vn 0.01015127 0.54772186 0.8365989
vn 0.054988917 0.70280904 0.70925015
vn 0.14969276 0.72264093 0.67482007
vn -0.06562338 0.7043882 0.706775
vn -0.6599081 0.71987957 0.21516219
vn -0.77545315 0.59702796 0.20549916
vn 0.52692837 0.13038181 0.8398495
vn 0.23012128 0.5341774 0.81344867
vn 0.49329618 0.2861919 0.8214336
vn 0.620557 0.14121301 0.7713416
vn 0.6293292 0.08457814 0.77252257
vn 0.771242 0.09431974 0.62951535
vn 0.26095068 0.5739172 0.7762241
vn 0.59346527 0.2607166 0.76146287
vn 0.74916106 0.16696733 0.6409989
vn 0.84548324 0.08688508 0.5268863
vn 0.73033166 0.2612728 0.6311514
vn 0.8216511 0.1544421 0.54866856
vn 0.8397806 0.07409409 0.5378464
vn 0.29928306 0.56588507 0.7682472
vn 0.33217555 0.6790495 0.6546382
vn 0.81883687 0.13663858 0.55752677
vn 0.86155367 0.06631363 0.50331676
vn 0.7716215 0.25274935 0.58371043
vn 0.84812033 0.11327268 0.51755315
vn 0.88298625 0.06032333 0.4655065
vn 0.78308964 0.21353751 0.5840996
vn 0.3028755 0.7707796 0.5605044
vn 0.24519375 0.8386964 0.48628014
vn 0.8768652 0.09379563 0.47149742
vn 0.8859547 0.058209192 0.46010423
vn 0.8823703 0.08864882 0.46212992
vn 0.8753122 0.13946514 0.46300972
vn 0.23615889 0.85409826 0.46340606
vn 0.8280695 0.17664783 0.53206813
vn 0.8664066 0.14513397 0.47778195
vn 0.2252724 0.9239779 0.30905828
vn 0.29246122 0.9213764 0.25599214
vn 0.28609234 0.92787606 0.23915961
vn 0.20780201 0.8932146 0.3987304
vn 0.21881121 0.9490767 0.22666095
vn 0.2242789 0.9485225 0.22361593
vn 0.17170481 0.9673701 0.18631291
vn 0.19964825 0.9420141 0.26972204
vn 0.19362335 0.9592093 0.20597914
vn 0.24200179 0.9383009 0.24703576
vn 0.2477723 0.9170665 0.31240657
vn 0.09135588 0.98565984 0.14187612
vn 0.08401146 0.990642 0.107566245
vn -0.14800176 0.9871442 0.060346857
vn 0.10243037 0.97333217 0.20526186
vn -0.12952524 0.98780906 0.08635079
vn -0.670934 0.727737 -0.1422891
vn 0.09803377 0.9621026 0.25445622
vn 0.25470632 0.8839746 0.3920631
vn 0.07689651 0.9406228 0.330629
vn -0.6651756 0.7377946 -0.114892945
vn -0.77824867 0.59245896 -0.20813772
vn -0.7708649 0.6138042 -0.17032818
vn -0.16570267 0.9756429 0.14374821
vn -0.6616355 0.7496455 0.016432067
vn -0.76893026 0.63908064 -0.017946824
vn -0.17823407 0.9580616 0.22438948
vn -0.20676579 0.9296374 0.30499536
vn -0.24892114 0.7292431 0.6373718
g Rocks020_0
f 3/3/3 2/2/2 1/1/1
f 4/4/4 2/2/2 3/3/3
f 5/5/5 3/3/3 1/1/1
f 5/5/5 1/1/1 6/6/6
f 7/7/7 5/5/5 6/6/6
f 7/7/7 6/6/6 8/8/8
f 9/9/9 7/7/7 8/8/8
f 9/9/9 8/8/8 10/10/10
f 11/11/11 9/9/9 10/10/10
f 11/11/11 10/10/10 12/12/12
f 9/9/9 13/13/13 7/7/7
f 9/9/9 11/11/11 13/13/13
f 7/7/7 14/14/14 5/5/5
f 13/13/13 14/14/14 7/7/7
f 14/14/14 15/15/15 5/5/5
f 5/5/5 15/15/15 3/3/3
f 16/16/16 11/11/11 12/12/12
f 16/16/16 12/12/12 17/17/17
f 18/18/18 4/4/4 3/3/3
f 15/15/15 19/19/19 3/3/3
f 3/3/3 19/19/19 18/18/18
f 18/18/18 20/20/20 4/4/4
f 20/20/20 21/21/21 4/4/4
f 22/22/22 19/19/19 15/15/15
f 23/23/23 22/22/22 15/15/15
f 13/13/13 24/24/24 23/23/23
f 24/24/24 22/22/22 23/23/23
f 11/11/11 25/25/25 13/13/13
f 13/13/13 25/25/25 24/24/24
f 16/16/16 26/26/26 11/11/11
f 26/26/26 25/25/25 11/11/11
f 25/25/25 27/27/27 24/24/24
f 27/27/27 25/25/25 26/26/26
f 24/24/24 28/28/28 22/22/22
f 24/24/24 27/27/27 28/28/28
f 27/27/27 29/29/29 28/28/28
f 22/22/22 30/30/30 19/19/19
f 28/28/28 30/30/30 22/22/22
f 20/20/20 31/31/31 21/21/21
f 31/31/31 32/32/32 21/21/21
f 16/16/16 33/33/33 26/26/26
f 33/33/33 16/16/16 17/17/17
f 34/34/34 27/27/27 26/26/26
f 29/29/29 27/27/27 34/34/34
f 34/34/34 26/26/26 35/35/35
f 33/33/33 35/35/35 26/26/26
f 33/33/33 17/17/17 36/36/36
f 17/17/17 37/37/37 36/36/36
f 36/36/36 37/37/37 38/38/38
f 39/39/39 34/34/34 35/35/35
f 39/39/39 29/29/29 34/34/34
f 40/40/40 35/35/35 33/33/33
f 39/39/39 35/35/35 40/40/40
f 36/36/36 40/40/40 33/33/33
f 41/41/41 36/36/36 38/38/38
f 41/41/41 38/38/38 42/42/42
f 36/36/36 41/41/41 43/43/43
f 40/40/40 36/36/36 43/43/43
f 44/44/44 41/41/41 42/42/42
f 43/43/43 41/41/41 44/44/44
f 44/44/44 42/42/42 45/45/45
f 46/46/46 39/39/39 40/40/40
f 29/29/29 39/39/39 46/46/46
f 46/46/46 40/40/40 47/47/47
f 40/40/40 43/43/43 47/47/47
f 47/47/47 29/29/29 46/46/46
f 48/48/48 44/44/44 45/45/45
f 48/48/48 45/45/45 49/49/49
f 50/50/50 43/43/43 44/44/44
f 47/47/47 43/43/43 50/50/50
f 50/50/50 44/44/44 48/48/48
f 51/51/51 48/48/48 49/49/49
f 51/51/51 49/49/49 52/52/52
f 53/53/53 50/50/50 48/48/48
f 53/53/53 48/48/48 51/51/51
f 54/54/54 47/47/47 50/50/50
f 54/54/54 50/50/50 53/53/53
f 55/55/55 29/29/29 47/47/47
f 54/54/54 55/55/55 47/47/47
f 56/56/56 51/51/51 52/52/52
f 56/56/56 52/52/52 57/57/57
f 58/58/58 56/56/56 57/57/57
f 58/58/58 59/59/59 56/56/56
f 60/60/60 54/54/54 53/53/53
f 54/54/54 60/60/60 55/55/55
f 61/61/61 53/53/53 51/51/51
f 51/51/51 56/56/56 61/61/61
f 60/60/60 53/53/53 61/61/61
f 59/59/59 62/62/62 56/56/56
f 56/56/56 62/62/62 61/61/61
f 63/63/63 60/60/60 61/61/61
f 61/61/61 62/62/62 63/63/63
f 62/62/62 59/59/59 64/64/64
f 62/62/62 64/64/64 63/63/63
f 59/59/59 65/65/65 64/64/64
f 60/60/60 63/63/63 66/66/66
f 60/60/60 66/66/66 55/55/55
f 64/64/64 65/65/65 67/67/67
f 65/65/65 68/68/68 67/67/67
f 67/67/67 68/68/68 69/69/69
f 63/63/63 64/64/64 70/70/70
f 64/64/64 67/67/67 70/70/70
f 63/63/63 70/70/70 66/66/66
f 71/71/71 67/67/67 69/69/69
f 70/70/70 67/67/67 71/71/71
f 66/66/66 70/70/70 72/72/72
f 72/72/72 70/70/70 71/71/71
f 55/55/55 66/66/66 73/73/73
f 73/73/73 66/66/66 72/72/72
f 71/71/71 69/69/69 74/74/74
f 69/69/69 75/75/75 74/74/74
f 74/74/74 75/75/75 76/76/76
f 72/72/72 71/71/71 77/77/77
f 71/71/71 74/74/74 77/77/77
f 78/78/78 74/74/74 76/76/76
f 77/77/77 74/74/74 78/78/78
f 78/78/78 76/76/76 79/79/79
f 72/72/72 77/77/77 80/80/80
f 73/73/73 72/72/72 80/80/80
f 81/81/81 55/55/55 73/73/73
f 29/29/29 55/55/55 81/81/81
f 28/28/28 29/29/29 81/81/81
f 28/28/28 81/81/81 30/30/30
f 81/81/81 73/73/73 82/82/82
f 73/73/73 80/80/80 82/82/82
f 81/81/81 82/82/82 30/30/30
f 83/83/83 78/78/78 79/79/79
f 79/79/79 84/84/84 83/83/83
f 84/84/84 85/85/85 83/83/83
f 86/86/86 77/77/77 78/78/78
f 80/80/80 77/77/77 86/86/86
f 86/86/86 78/78/78 83/83/83
f 83/83/83 85/85/85 87/87/87
f 87/87/87 86/86/86 83/83/83
f 85/85/85 88/88/88 87/87/87
f 87/87/87 88/88/88 32/32/32
f 31/31/31 87/87/87 32/32/32
f 86/86/86 87/87/87 31/31/31
f 89/89/89 80/80/80 86/86/86
f 89/89/89 86/86/86 31/31/31
f 82/82/82 80/80/80 89/89/89
f 89/89/89 31/31/31 20/20/20
f 90/90/90 82/82/82 89/89/89
f 90/90/90 89/89/89 20/20/20
f 30/30/30 82/82/82 90/90/90
f 90/90/90 20/20/20 18/18/18
f 91/91/91 30/30/30 90/90/90
f 91/91/91 90/90/90 18/18/18
f 30/30/30 91/91/91 19/19/19
f 19/19/19 91/91/91 18/18/18
