g rock_02
v 0.356387 -0.04303822 -0.09720433
v 0.2785914 0.07753578 -0.1564082
v 0.300649 -0.0414291 -0.1493899
v 0.3289945 0.09396136 -0.02351815
v 0.3849678 -0.04680115 0.02507785
v 0.3990045 0.02205762 0.04828659
v 0.2666466 -0.0564931 0.1689225
v 0.2615345 0.02889028 0.1817461
v 0.04407799 -0.04186231 0.2542563
v 0.09809554 0.09460503 0.1742326
v 0.251496 0.1701726 -0.09919718
v -0.05009377 0.2827134 -0.04500633
v 0.1481026 0.2268762 -0.1127882
v 0.1296346 0.08684403 -0.2279035
v -0.09355289 0.1875761 -0.153846
v -0.2162435 0.2591828 0.003899097
v -0.1969215 0.1480408 -0.1048663
v -0.2800521 0.1352296 -0.06908152
v -0.1369873 0.2683425 0.05159152
v -0.1157714 0.1549477 0.1450825
v -0.1772652 0.101351 0.1665954
v -0.2795198 0.2165901 0.001856744
v -0.234761 0.06460077 0.1752353
v -0.2046701 -0.07384706 0.1890615
v -0.3605461 -0.07737479 0.104854
v -0.3940781 0.1209577 0.0005941987
v -0.4121871 -0.05338624 -0.03531435
v -0.3748551 0.05847368 0.07517156
vt 0.05625075 0.1761585
vt 0.1622964 0.04100235
vt 0.05694386 0.05555764
vt 0.2593316 0.2288348
vt 0.108927 0.4478571
vt 0.1858621 0.3563668
vt 0.3362666 0.5351888
vt 0.3667634 0.4707297
vt 0.657176 0.498454
vt 0.587172 0.3688427
vt 0.3404253 0.09367862
vt 0.727873 0.009812459
vt 0.466571 0.02367464
vt 0.4242914 -0.1946546
vt 0.7264868 -0.1835648
vt 0.9378849 0.05694386
vt 0.9455091 -0.1440577
vt 1.136114 -0.07197435
vt 0.8581774 0.0922924
vt 0.855405 0.2718075
vt 0.9364988 0.3328011
vt 1.00581 0.08951995
vt 0.9822439 0.3702289
vt 1.018979 0.5400406
vt 1.170769 0.4000326
vt 1.12641 0.1671481
vt 1.224139 0.2004173
vt 1.116707 0.2842835
vn 0.6404711 -0.2554864 -0.7242399
vn 0.1375073 0.1915926 -0.9717942
vn 0.6218429 -0.249277 -0.7424099
vn 0.8205446 0.2785246 -0.4991299
vn 0.4355599 -0.07541293 0.8969952
vn 0.4355599 -0.07541293 0.8969952
vn 0.06299406 0.1667548 0.9839841
vn 0.06299406 0.1791737 0.9817986
vn 0.05678463 0.1667548 0.9843619
vn 0.05678463 0.1853832 0.9810243
vn 0.5162825 0.7566508 -0.4011633
vn -0.1605454 0.7380224 -0.6553991
vn 0.5162825 0.7566508 -0.4011633
vn 0.1250884 0.2226397 -0.9668425
vn -0.09845114 0.5579489 -0.8240148
vn -0.4523886 0.6510904 0.6094472
vn -0.4027132 0.5827867 -0.7058199
vn -0.4399698 0.1605454 -0.883545
vn -0.4648075 0.6510904 0.6000294
vn 0.0008997917 0.5641584 0.8256661
vn 0.0505752 0.1915926 0.9801706
vn -0.4213415 0.5765773 -0.7000214
vn -0.4958546 -0.007109225 0.8683764
vn -0.4958546 -0.007109225 0.8683764
vn -0.5020641 -0.007109225 0.8648012
vn -0.7628602 0.5082735 -0.3996278
vn -0.4461793 0.154336 -0.8815353
vn -0.6759281 0.2164303 0.7044708
g rock_02_0
f 3/3/3 2/2/2 1/1/1
f 2/2/2 4/4/4 1/1/1
f 5/5/5 1/1/1 4/4/4
f 6/6/6 5/5/5 4/4/4
f 5/5/5 6/6/6 7/7/7
f 6/6/6 8/8/8 7/7/7
f 8/8/8 6/6/6 4/4/4
f 7/7/7 8/8/8 9/9/9
f 10/10/10 8/8/8 4/4/4
f 8/8/8 10/10/10 9/9/9
f 2/2/2 11/11/11 4/4/4
f 12/12/12 4/4/4 11/11/11
f 12/12/12 10/10/10 4/4/4
f 11/11/11 2/2/2 13/13/13
f 13/13/13 12/12/12 11/11/11
f 2/2/2 14/14/14 13/13/13
f 13/13/13 14/14/14 15/15/15
f 12/12/12 13/13/13 15/15/15
f 12/12/12 15/15/15 16/16/16
f 15/15/15 17/17/17 16/16/16
f 16/16/16 17/17/17 18/18/18
f 10/10/10 12/12/12 19/19/19
f 19/19/19 12/12/12 16/16/16
f 20/20/20 10/10/10 19/19/19
f 9/9/9 10/10/10 20/20/20
f 19/19/19 16/16/16 20/20/20
f 21/21/21 9/9/9 20/20/20
f 16/16/16 21/21/21 20/20/20
f 22/22/22 16/16/16 18/18/18
f 21/21/21 16/16/16 22/22/22
f 9/9/9 21/21/21 23/23/23
f 23/23/23 21/21/21 22/22/22
f 24/24/24 9/9/9 23/23/23
f 25/25/25 24/24/24 23/23/23
f 22/22/22 18/18/18 26/26/26
f 23/23/23 22/22/22 26/26/26
f 18/18/18 27/27/27 26/26/26
f 28/28/28 25/25/25 23/23/23
f 28/28/28 23/23/23 26/26/26
f 27/27/27 25/25/25 28/28/28
f 26/26/26 27/27/27 28/28/28
