g rock_16
v 0.6630584 0.7778035 -0.2576967
v 0.8476906 0.1299948 -0.5483502
v 1.093231 0.08790874 -0.1167628
v 0.9275849 0.7109067 -0.04249537
v 0.6144242 0.9483521 -0.04295599
v 0.248187 0.9676018 -0.3734908
v 0.7204783 0.6220951 0.5004438
v 0.6874413 0.1374643 0.6158102
v 0.4038296 0.1721137 0.8323606
v 0.4873435 0.7944536 0.4661564
v 0.2229157 1.063225 -0.1880031
v 0.2135705 0.7116636 0.5986664
v -0.1408864 0.2386155 0.682641
v -0.4637872 0.7767177 -0.4065936
v -0.3445709 0.2116331 -0.5507193
v -0.5661888 0.215121 -0.403336
v 0.1771443 1.022389 0.1751739
v 0.03097844 0.9555256 0.1306858
v -0.2933372 0.703174 0.2497375
v -0.07481241 0.9957359 -0.2038634
v -0.5604962 0.6319667 -0.09172177
v -0.6605945 0.2444068 -0.1897141
v -0.7046877 0.2384181 -0.0003106594
v -0.6089988 0.4276242 0.1635582
v -0.5450965 0.2879736 0.2772136
vt 0.9198848 0.4699473
vt 1.657496 -0.09604996
vt 0.8478289 -0.156005
vt 0.8208766 0.3175846
vt 0.7570713 0.6305607
vt 1.071697 0.9011832
vt 0.2856819 0.2812815
vt 0.006258577 0.1250685
vt -0.2500628 0.4209932
vt 0.2730308 0.466647
vt 0.7466204 0.8214266
vt 0.1014165 0.6894156
vt -0.2418121 0.9825901
vt 0.8027251 1.391274
vt 1.265864 1.751004
vt 1.070047 2.002375
vt 0.5040501 0.7675221
vt 0.4484955 0.8923825
vt 0.07336417 1.134403
vt 0.7048169 1.055196
vt 0.4534459 1.399525
vt 0.6960161 1.914368
vt 0.4699473 1.837911
vt 0.1866736 1.491383
vt 0.06786373 1.523285
vn 0.6786907 0.5113583 -0.5271544
vn 0.8190897 0.09016114 -0.5665359
vn 0.8257754 0.09016114 -0.5567459
vn 0.6653193 0.4779298 -0.573527
vn 0.6987477 0.7052426 0.1199353
vn 0.6853763 0.5447866 -0.4831841
vn 0.6452624 0.4712442 0.6013031
vn 0.1839513 0.2171888 0.9586402
vn 0.1572086 0.2038175 0.9663042
vn 0.1638942 0.2238744 0.9607387
vn -0.1770748 0.859013 -0.4803553
vn -0.5247296 0.5581579 0.642743
vn -0.4043875 0.3241595 0.8552142
vn -0.5782149 0.7252996 -0.3736416
vn -0.4445015 0.6517572 -0.6145168
vn -0.5915862 0.7252996 -0.3520884
vn -0.4979869 0.6183289 0.6080118
vn -0.4846156 0.6250145 0.6119678
vn -0.6116432 0.7119282 -0.3450374
vn -0.1770748 0.859013 -0.4803553
vn -0.8523273 0.5180439 0.0718933
vn -0.6116432 0.7119282 -0.3450374
vn -0.8790699 0.1369608 0.4565937
vn -0.8523273 0.5180439 0.0718933
vn -0.8790699 0.1369608 0.4565937
g rock_16_0
f 3/3/3 2/2/2 1/1/1
f 4/4/4 3/3/3 1/1/1
f 4/4/4 1/1/1 5/5/5
f 1/1/1 6/6/6 5/5/5
f 3/3/3 4/4/4 7/7/7
f 7/7/7 4/4/4 5/5/5
f 8/8/8 3/3/3 7/7/7
f 8/8/8 7/7/7 9/9/9
f 10/10/10 7/7/7 5/5/5
f 7/7/7 10/10/10 9/9/9
f 6/6/6 11/11/11 5/5/5
f 10/10/10 5/5/5 11/11/11
f 12/12/12 9/9/9 10/10/10
f 13/13/13 9/9/9 12/12/12
f 6/6/6 14/14/14 11/11/11
f 14/14/14 6/6/6 15/15/15
f 16/16/16 14/14/14 15/15/15
f 12/12/12 10/10/10 17/17/17
f 17/17/17 10/10/10 11/11/11
f 18/18/18 12/12/12 17/17/17
f 18/18/18 17/17/17 11/11/11
f 19/19/19 13/13/13 12/12/12
f 18/18/18 19/19/19 12/12/12
f 14/14/14 20/20/20 11/11/11
f 20/20/20 18/18/18 11/11/11
f 18/18/18 20/20/20 14/14/14
f 21/21/21 14/14/14 16/16/16
f 21/21/21 18/18/18 14/14/14
f 19/19/19 18/18/18 21/21/21
f 22/22/22 21/21/21 16/16/16
f 21/21/21 22/22/22 23/23/23
f 13/13/13 19/19/19 24/24/24
f 24/24/24 19/19/19 21/21/21
f 24/24/24 21/21/21 23/23/23
f 25/25/25 13/13/13 24/24/24
f 24/24/24 23/23/23 25/25/25
