g rockGenericGroup06Geo
v 0.04657439 0.03424032 0.07615899
v -0.0240375 0.01871343 0.1019163
v -0.003584564 0.04051019 0.06575912
v 0.07070807 0.01582085 0.1067123
v 0.0329864 0.004455477 0.1255731
v 0.008829072 0.004455477 0.1255731
v -0.01821688 0.01075293 0.115122
v 0.07070807 0.01582085 0.1067123
v 0.04657439 0.03424032 0.07615899
v 0.08628619 0.003931358 0.07578854
v 0.08628619 0.003931358 0.03786194
v 0.05479103 0.02796651 0.01584056
v 0.04657439 0.03424032 0.03096548
v 0.07080264 0.01574992 0.006307676
v 0.07688336 0.01111156 0.00800617
v -0.01936366 -0.02363873 0.001157001
v 0.03189084 0.001842707 -0.004537508
v -0.01507998 -0.0005060285 -0.004013374
v 0.05231225 -0.02363873 0.001157001
v 0.07688336 -0.02363873 0.00800617
v 0.07688336 0.01111156 0.00800617
v 0.07080264 0.01574992 0.006307676
v -0.01507998 -0.0005060285 -0.004013374
v 0.03189084 0.001842707 -0.004537508
v -0.02492812 0.01775974 0.007880077
v 0.05479103 0.02796651 0.01584056
v 0.07080264 0.01574992 0.006307676
v -0.01535189 0.02796651 0.01584056
v 0.04657439 0.03424032 0.07615899
v -0.003584564 0.04051019 0.06575912
v -0.003584564 0.04051019 0.04608646
v 0.04657439 0.03424032 0.03096548
v -0.01535189 0.02796651 0.01584056
v 0.05479103 0.02796651 0.01584056
v -0.01821688 -0.02363873 0.115122
v -0.03169453 -0.02363873 0.08452931
v -0.04329635 -0.00181438 0.05819665
v -0.01821688 0.01075293 0.115122
v -0.0240375 0.01871343 0.1019163
v 0.01153249 -0.01278961 0.1266174
v -0.002745166 -0.02363873 0.1211003
v -0.01821688 -0.02363873 0.115122
v -0.01821688 0.01075293 0.115122
v 0.008829072 0.004455477 0.1255731
v 0.0329864 0.004455477 0.1255731
v 0.03089775 -0.01278961 0.1266174
v 0.07270212 -0.02363873 0.1057152
v 0.04193209 -0.02363873 0.1211003
v 0.07070807 0.01582085 0.1067123
v -0.003584564 0.04051019 0.06575912
v -0.01535189 0.02796651 0.01584056
v -0.003584564 0.04051019 0.04608646
v -0.0240375 0.01871343 0.1019163
v -0.02492812 0.01775974 0.007880077
v -0.04329635 -0.00181438 0.05819665
v -0.04329635 -0.00181438 0.05819665
v -0.03169453 -0.02363873 0.08452931
v -0.03169453 -0.02363873 0.01604941
v -0.04329635 -0.00181438 0.03005908
v 0.08628619 0.003931358 0.03786194
v 0.07946067 -0.02363873 0.09082676
v 0.08628619 0.003931358 0.07578854
v 0.07688336 -0.02363873 0.00800617
v 0.07688336 0.01111156 0.00800617
v 0.07270212 -0.02363873 0.1057152
v 0.07070807 0.01582085 0.1067123
v 0.08628619 0.003931358 0.07578854
v 0.07946067 -0.02363873 0.09082676
v -0.03169453 -0.02363873 0.01604941
v -0.01936366 -0.02363873 0.001157001
v -0.01507998 -0.0005060285 -0.004013374
v -0.04329635 -0.00181438 0.03005908
v -0.04329635 -0.00181438 0.05819665
v -0.02492812 0.01775974 0.007880077
v 0.04193209 -0.02363873 0.1211003
v -0.002745166 -0.02363873 0.1211003
v 0.01153249 -0.01278961 0.1266174
v 0.03089775 -0.01278961 0.1266174
v -0.001101837 -0.01796393 -0.03116573
v -0.03342851 -0.01773142 -0.01468121
v -0.03342851 -0.0004075021 -0.01468121
v -0.001101837 0.009022906 -0.03116573
v -0.01435485 -0.0178654 -0.1316452
v -0.01895776 0.007793367 -0.1287369
v -0.05553265 -0.005447835 -0.1056239
v -0.05553265 -0.01756985 -0.1056239
v -0.07698655 -0.00184986 -0.07148442
v -0.08355199 -0.01736886 -0.06103332
v -0.02507393 0.02518034 -0.08936793
v -0.03451617 0.02735174 -0.07327749
v -0.05988728 0.01283763 -0.04534879
v -0.05988728 0.01283763 -0.06690122
v -0.01895776 0.007793367 -0.1287369
v -0.05553265 -0.005447835 -0.1056239
v -0.07698655 -0.00184986 -0.07148442
v -0.07056299 0.00366731 -0.0271579
v -0.07991853 -0.004368052 -0.0302948
v -0.08355199 -0.007485248 -0.06103332
v -0.08355199 -0.01736886 -0.06103332
v -0.001101837 0.009022906 -0.03116573
v -0.03342851 -0.0004075021 -0.01468121
v -0.07056299 0.00366731 -0.0271579
v -0.05988728 0.01283763 -0.04534879
v 0.001510948 0.01762575 -0.04901771
v -0.03451617 0.02735174 -0.07327749
v 0.005684286 0.01422088 -0.04140796
v -0.001101837 -0.01796393 -0.03116573
v 0.03460214 -0.009372905 -0.08506847
v 0.03327801 -0.01820826 -0.08307047
v -0.001101837 0.009022906 -0.03116573
v 0.005684286 0.01422088 -0.04140796
v 0.001510948 0.01762575 -0.04901771
v -0.01435485 -0.0178654 -0.1316452
v 0.01979642 -0.01811368 -0.1295723
v 0.01979642 0.002705753 -0.1295723
v -0.01895776 0.007793367 -0.1287369
v -0.03342851 -0.0004075021 -0.01468121
v -0.07991853 -0.004368052 -0.0302948
v -0.07056299 0.00366731 -0.0271579
v -0.03342851 -0.01773142 -0.01468121
v -0.07991853 -0.01739645 -0.0302948
v -0.08355199 -0.007485248 -0.06103332
v -0.07991853 -0.004368052 -0.0302948
v -0.07991853 -0.01739645 -0.0302948
v -0.08355199 -0.01736886 -0.06103332
v 0.03460214 -0.009372905 -0.1077598
v 0.01979642 0.002705753 -0.1295723
v 0.01979642 -0.01811368 -0.1295723
v 0.03327801 -0.01820826 -0.1097145
v 0.03460214 -0.009372905 -0.08506847
v 0.01979642 0.002705753 -0.1295723
v 0.03460214 -0.009372905 -0.1077598
v 0.001510948 0.01762575 -0.1046229
v 0.001510948 0.01762575 -0.04901771
v -0.02507393 0.02518034 -0.08936793
v -0.03451617 0.02735174 -0.07327749
v -0.01895776 0.007793367 -0.1287369
v 0.01979642 0.002705753 -0.1295723
v 0.03460214 -0.009372905 -0.08506847
v 0.03460214 -0.009372905 -0.1077598
v 0.03327801 -0.01820826 -0.1097145
v 0.03327801 -0.01820826 -0.08307047
vt 0.3411535 0.2453568
vt 0.1671554 0.2218964
vt 0.2375367 0.2893451
vt 0.3880743 0.1534702
vt 0.285435 0.1055719
vt 0.2228739 0.1231672
vt 0.1622678 0.1798632
vt 0.3880743 0.1534702
vt 0.3411535 0.2453568
vt 0.4692082 0.2140763
vt 0.4926686 0.3323558
vt 0.3782991 0.3900293
vt 0.3499511 0.3538612
vt 0.4261975 0.4144672
vt 0.4477028 0.4164223
vt 0.1358749 0.5679374
vt 0.3411535 0.5014663
vt 0.198436 0.4897361
vt 0.4692082 0.6041056
vt 0.5835777 0.4975562
vt 0.4477028 0.4164223
vt 0.4261975 0.4144672
vt 0.198436 0.4897361
vt 0.3411535 0.5014663
vt 0.1945259 0.42913
vt 0.3782991 0.3900293
vt 0.4261975 0.4144672
vt 0.2160313 0.398827
vt 0.3411535 0.2453568
vt 0.2375367 0.2893451
vt 0.2424242 0.3294233
vt 0.3499511 0.3538612
vt 0.2160313 0.398827
vt 0.3782991 0.3900293
vt 0.07233626 0.09286413
vt 0 0.230694
vt 0.08602151 0.3294233
vt 0.1622678 0.1798632
vt 0.1671554 0.2218964
vt 0.2072336 0.06549364
vt 0.1309873 0.03910068
vt 0.07233626 0.09286413
vt 0.1622678 0.1798632
vt 0.2228739 0.1231672
vt 0.285435 0.1055719
vt 0.2737048 0.05376344
vt 0.4985337 0
vt 0.3176931 0.0009775171
vt 0.3880743 0.1534702
vt 0.2375367 0.2893451
vt 0.2160313 0.398827
vt 0.2424242 0.3294233
vt 0.1671554 0.2218964
vt 0.1945259 0.42913
vt 0.08602151 0.3294233
vt 0.08602151 0.3294233
vt 0 0.230694
vt 0.05180841 0.5083089
vt 0.113392 0.4056696
vt 0.4926686 0.3323558
vt 0.5835777 0.07135875
vt 0.4692082 0.2140763
vt 0.5835777 0.4975562
vt 0.4477028 0.4164223
vt 0.4985337 0
vt 0.3880743 0.1534702
vt 0.4692082 0.2140763
vt 0.5835777 0.07135875
vt 0.05180841 0.5083089
vt 0.1358749 0.5679374
vt 0.198436 0.4897361
vt 0.113392 0.4056696
vt 0.08602151 0.3294233
vt 0.1945259 0.42913
vt 0.3176931 0.0009775171
vt 0.1309873 0.03910068
vt 0.2072336 0.06549364
vt 0.2737048 0.05376344
vt 1 0.1085044
vt 0.8729228 0
vt 0.8465298 0.06451613
vt 0.9051808 0.1612903
vt 0.6979472 0.4907136
vt 0.742913 0.3851417
vt 0.631476 0.2922776
vt 0.5835777 0.3059629
vt 0.6422287 0.1593353
vt 0.6001955 0.09970675
vt 0.7702835 0.2737048
vt 0.7693059 0.226784
vt 0.7380254 0.1300098
vt 0.7086999 0.1818182
vt 0.742913 0.3851417
vt 0.631476 0.2922776
vt 0.6422287 0.1593353
vt 0.7390029 0.07038123
vt 0.7077224 0.04692082
vt 0.6363636 0.115347
vt 0.6001955 0.09970675
vt 0.9051808 0.1612903
vt 0.8465298 0.06451613
vt 0.7390029 0.07038123
vt 0.7380254 0.1300098
vt 0.8729228 0.2111437
vt 0.7693059 0.226784
vt 0.8963832 0.200391
vt 1 0.1085044
vt 0.9667644 0.3460411
vt 1 0.3470186
vt 0.9051808 0.1612903
vt 0.8963832 0.200391
vt 0.8729228 0.2111437
vt 0.6979472 0.4907136
vt 0.8641251 0.5083089
vt 0.8406647 0.42913
vt 0.742913 0.3851417
vt 0.8465298 0.06451613
vt 0.7077224 0.04692082
vt 0.7390029 0.07038123
vt 0.8729228 0
vt 0.6832845 0.002932551
vt 0.6363636 0.115347
vt 0.7077224 0.04692082
vt 0.6832845 0.002932551
vt 0.6001955 0.09970675
vt 0.9266862 0.4105572
vt 0.8406647 0.42913
vt 0.8641251 0.5083089
vt 0.9491691 0.4398827
vt 0.9667644 0.3460411
vt 0.8406647 0.42913
vt 0.9266862 0.4105572
vt 0.8211144 0.3391984
vt 0.8729228 0.2111437
vt 0.7702835 0.2737048
vt 0.7693059 0.226784
vt 0.742913 0.3851417
vt 0.8406647 0.42913
vt 0.9667644 0.3460411
vt 0.9266862 0.4105572
vt 0.9491691 0.4398827
vt 1 0.3470186
vn 0.001725197 0.853193 0.5215925
vn 0.001725197 0.853193 0.5215925
vn 0.001725197 0.853193 0.5215925
vn 0.001725197 0.853193 0.5215925
vn 0.001725197 0.853193 0.5215925
vn 0.001725197 0.853193 0.5215925
vn 0.001725197 0.853193 0.5215925
vn 0.6056263 0.7957492 0
vn 0.6056263 0.7957492 0
vn 0.6056263 0.7957492 0
vn 0.6056263 0.7957492 0
vn 0.6056263 0.7957492 0
vn 0.6056263 0.7957492 0
vn 0.6056263 0.7957492 0
vn 0.6056263 0.7957492 0
vn 0.001725197 -0.2193407 -0.9756468
vn 0.094989 -0.1416209 -0.9853531
vn 0.001725197 -0.2193407 -0.9756468
vn 0.1960248 -0.06390107 -0.9785147
vn 0.2659726 -0.001725197 -0.9639791
vn 0.2659726 -0.001725197 -0.9639791
vn 0.2659726 -0.001725197 -0.9639791
vn -0.03713471 0.5345417 -0.8443259
vn -0.006046832 0.6044895 -0.7965902
vn -0.0138188 0.5811736 -0.8136623
vn 0.001725197 0.6122615 -0.7906535
vn 0.001725197 0.6122615 -0.7906535
vn 0.001725197 0.6122615 -0.7906535
vn 0.1259435 0.9920375 0
vn 0.1259435 0.9920375 0
vn 0.07167304 0.9775447 -0.1981647
vn 0.04835707 0.9697728 -0.2391702
vn 0.001725197 0.9231408 -0.3844581
vn 0.001725197 0.9231408 -0.3844581
vn -0.9153689 -0.001725197 0.4026125
vn -0.9153689 -0.001725197 0.4026125
vn -0.9153689 -0.001725197 0.4026125
vn -0.9153689 -0.001725197 0.4026125
vn -0.9153689 -0.001725197 0.4026125
vn -0.2003464 0.02936274 0.979285
vn -0.363558 -0.001725197 0.9315699
vn -0.363558 -0.001725197 0.9315699
vn -0.363558 -0.001725197 0.9315699
vn -0.2158903 0.02936274 0.975976
vn 0.2659726 0.02936274 0.9635333
vn 0.2582006 0.02936274 0.965645
vn 0.4447283 -0.001725197 0.8956639
vn 0.4447283 -0.001725197 0.8956639
vn 0.4447283 -0.001725197 0.8956639
vn -0.7288412 0.6822094 -0.05814392
vn -0.7288412 0.6822094 0.05814392
vn -0.7288412 0.6822094 -0.05814392
vn -0.7288412 0.6822094 0.05814392
vn -0.7288412 0.6822094 0.05814392
vn -0.7288412 0.6822094 0.05814392
vn -0.8838312 -0.4678061 0
vn -0.8838312 -0.4678061 0
vn -0.8838312 -0.4678061 0
vn -0.8838312 -0.4678061 0
vn 0.9732231 -0.2037967 -0.106319
vn 0.9576792 -0.2737446 -0.08896368
vn 0.9576792 -0.2737446 -0.08896368
vn 0.9732231 -0.1338489 -0.1868724
vn 0.9499072 -0.001725197 -0.3125274
vn 0.9032753 0.02936274 0.4280557
vn 0.9032753 0.02936274 0.4280557
vn 0.9032753 0.02936274 0.4280557
vn 0.9032753 0.02936274 0.4280557
vn -0.7677012 -0.001725197 -0.6408057
vn -0.7677012 -0.001725197 -0.6408057
vn -0.8221051 0.1614864 -0.5459536
vn -0.845421 0.2780662 -0.4560071
vn -0.845421 0.3713301 -0.3838975
vn -0.845421 0.3713301 -0.3838975
vn 0.001725197 -0.4525002 0.8917626
vn 0.001725197 -0.4525002 0.8917626
vn 0.001725197 -0.4525002 0.8917626
vn 0.001725197 -0.4525002 0.8917626
vn 0.4525002 -0.001725197 0.8917626
vn 0.4525002 -0.001725197 0.8917626
vn 0.4525002 -0.001725197 0.8917626
vn 0.4525002 -0.001725197 0.8917626
vn -0.5345417 -0.001725197 -0.8451404
vn -0.5345417 -0.001725197 -0.8451404
vn -0.6977534 -0.001725197 -0.716336
vn -0.7055253 -0.001725197 -0.7086826
vn -0.845421 -0.001725197 -0.5340977
vn -0.845421 -0.001725197 -0.5340977
vn -0.5267697 0.7677012 -0.3648953
vn -0.5189977 0.837649 -0.1702511
vn -0.6122615 0.7832451 -0.1079952
vn -0.5500856 0.7910171 -0.2677643
vn -0.5267697 0.7443853 -0.4103708
vn -0.5423136 0.7521573 -0.3743732
vn -0.6511214 0.7288412 -0.211734
vn -0.6506494 0.7593783 0
vn -0.6666654 0.7443853 -0.03804993
vn -0.7832451 0.6044895 -0.1453255
vn -0.7832451 0.6044895 -0.1453255
vn -0.04490668 0.8998249 0.4339338
vn -0.04490668 0.8998249 0.4339338
vn -0.04490668 0.8998249 0.4339338
vn -0.04490668 0.8998249 0.4339338
vn -0.04490668 0.8998249 0.4339338
vn -0.04490668 0.8998249 0.4339338
vn -0.04490668 0.8998249 0.4339338
vn 0.8333274 -0.001725197 0.5527771
vn 0.8488714 0.06045073 0.5251316
vn 0.8333274 -0.001725197 0.5527771
vn 0.8566434 0.1537145 0.4924774
vn 0.8410994 0.4257339 0.3336203
vn 0.8410994 0.4257339 0.3336203
vn 0.0250411 0.0682227 -0.9973558
vn 0.0250411 0.0682227 -0.9973558
vn 0.0250411 0.0682227 -0.9973558
vn 0.0250411 0.0682227 -0.9973558
vn -0.3169262 -0.001725197 0.9484487
vn -0.3169262 -0.001725197 0.9484487
vn -0.3169262 -0.001725197 0.9484487
vn -0.3169262 -0.001725197 0.9484487
vn -0.3169262 -0.001725197 0.9484487
vn -0.9930887 -0.001725197 0.117354
vn -0.9930887 -0.001725197 0.117354
vn -0.9930887 -0.001725197 0.117354
vn -0.9930887 -0.001725197 0.117354
vn 0.8255554 -0.001725197 -0.5643184
vn 0.8255554 -0.001725197 -0.5643184
vn 0.8255554 -0.001725197 -0.5643184
vn 0.8255554 -0.001725197 -0.5643184
vn 0.6312559 0.7754732 -0.01254417
vn 0.6312559 0.7754732 -0.01254417
vn 0.6312559 0.7754732 0.01254417
vn 0.3436925 0.9153689 -0.2097029
vn 0.4447283 0.8920529 0.08036344
vn 0.2193407 0.9697728 -0.1069132
vn 0.2659726 0.9620008 0.06175021
vn 0.07167304 0.8998249 -0.4303232
vn 0.07167304 0.8998249 -0.4303232
vn 0.9887671 -0.1493928 -0.00462822
vn 0.9887671 -0.1493928 -0.00462822
vn 0.9887671 -0.1493928 -0.00462822
vn 0.9887671 -0.1493928 -0.00462822
g rockGenericGroup06Geo_0
f 3/3/3 2/2/2 1/1/1
f 1/1/1 2/2/2 4/4/4
f 2/2/2 5/5/5 4/4/4
f 5/5/5 2/2/2 6/6/6
f 2/2/2 7/7/7 6/6/6
f 10/10/10 9/9/9 8/8/8
f 10/10/10 11/11/11 9/9/9
f 11/11/11 12/12/12 9/9/9
f 13/13/13 9/9/9 12/12/12
f 12/12/12 11/11/11 14/14/14
f 11/11/11 15/15/15 14/14/14
f 18/18/18 17/17/17 16/16/16
f 17/17/17 19/19/19 16/16/16
f 19/19/19 17/17/17 20/20/20
f 17/17/17 21/21/21 20/20/20
f 22/22/22 21/21/21 17/17/17
f 25/25/25 24/24/24 23/23/23
f 25/25/25 26/26/26 24/24/24
f 26/26/26 27/27/27 24/24/24
f 28/28/28 26/26/26 25/25/25
f 31/31/31 30/30/30 29/29/29
f 32/32/32 31/31/31 29/29/29
f 33/33/33 31/31/31 32/32/32
f 34/34/34 33/33/33 32/32/32
f 37/37/37 36/36/36 35/35/35
f 38/38/38 37/37/37 35/35/35
f 39/39/39 37/37/37 38/38/38
f 42/42/42 41/41/41 40/40/40
f 43/43/43 42/42/42 40/40/40
f 44/44/44 43/43/43 40/40/40
f 44/44/44 40/40/40 45/45/45
f 40/40/40 46/46/46 45/45/45
f 45/45/45 46/46/46 47/47/47
f 48/48/48 47/47/47 46/46/46
f 49/49/49 45/45/45 47/47/47
f 52/52/52 51/51/51 50/50/50
f 51/51/51 53/53/53 50/50/50
f 53/53/53 51/51/51 54/54/54
f 55/55/55 53/53/53 54/54/54
f 58/58/58 57/57/57 56/56/56
f 59/59/59 58/58/58 56/56/56
f 62/62/62 61/61/61 60/60/60
f 61/61/61 63/63/63 60/60/60
f 63/63/63 64/64/64 60/60/60
f 67/67/67 66/66/66 65/65/65
f 68/68/68 67/67/67 65/65/65
f 71/71/71 70/70/70 69/69/69
f 72/72/72 71/71/71 69/69/69
f 72/72/72 73/73/73 71/71/71
f 73/73/73 74/74/74 71/71/71
f 77/77/77 76/76/76 75/75/75
f 78/78/78 77/77/77 75/75/75
f 81/81/81 80/80/80 79/79/79
f 82/82/82 81/81/81 79/79/79
f 85/85/85 84/84/84 83/83/83
f 86/86/86 85/85/85 83/83/83
f 87/87/87 85/85/85 86/86/86
f 88/88/88 87/87/87 86/86/86
f 91/91/91 90/90/90 89/89/89
f 92/92/92 91/91/91 89/89/89
f 92/92/92 89/89/89 93/93/93
f 94/94/94 92/92/92 93/93/93
f 91/91/91 92/92/92 94/94/94
f 95/95/95 91/91/91 94/94/94
f 91/91/91 95/95/95 96/96/96
f 95/95/95 97/97/97 96/96/96
f 97/97/97 95/95/95 98/98/98
f 95/95/95 99/99/99 98/98/98
f 102/102/102 101/101/101 100/100/100
f 103/103/103 102/102/102 100/100/100
f 100/100/100 104/104/104 103/103/103
f 104/104/104 105/105/105 103/103/103
f 106/106/106 104/104/104 100/100/100
f 109/109/109 108/108/108 107/107/107
f 108/108/108 110/110/110 107/107/107
f 111/111/111 110/110/110 108/108/108
f 112/112/112 111/111/111 108/108/108
f 115/115/115 114/114/114 113/113/113
f 116/116/116 115/115/115 113/113/113
f 119/119/119 118/118/118 117/117/117
f 117/117/117 118/118/118 120/120/120
f 118/118/118 121/121/121 120/120/120
f 124/124/124 123/123/123 122/122/122
f 125/125/125 124/124/124 122/122/122
f 128/128/128 127/127/127 126/126/126
f 129/129/129 128/128/128 126/126/126
f 132/132/132 131/131/131 130/130/130
f 131/131/131 133/133/133 130/130/130
f 133/133/133 134/134/134 130/130/130
f 134/134/134 133/133/133 135/135/135
f 136/136/136 134/134/134 135/135/135
f 135/135/135 133/133/133 137/137/137
f 133/133/133 138/138/138 137/137/137
f 141/141/141 140/140/140 139/139/139
f 142/142/142 141/141/141 139/139/139
