g Rocks015
v 4.213597 3.467645 4.315142
v 6.012591 3.676802 2.4222882
v 5.609998 3.248866 3.9237456
v 4.3449554 5.060348 1.1187212
v 2.3645837 3.5835555 3.7773955
v 4.3730645 4.919053 -1.933288
v 6.181182 4.0929637 0.5018561
v 2.4609969 5.2358336 -2.8003924
v 2.4128041 5.339353 -0.05835389
v 0.5644215 4.354591 -0.71128845
v 0.7104945 3.4443686 1.9044513
v 0.3030464 5.083469 -3.2691326
v -1.1700675 3.249623 0.6193268
v -0.5458416 4.5520606 -3.1915104
v -1.7274235 3.6448147 -0.8523895
v 2.3645837 3.5835555 3.7773955
v 1.9689997 -1.1451236 3.8410943
v 0.24529676 -3.8680346 2.3992145
v 0.7104945 3.4443686 1.9044513
v 0.7104945 3.4443686 1.9044513
v 0.24529676 -3.8680346 2.3992145
v -1.0008245 -4.086082 0.4780841
v -1.1700675 3.249623 0.6193268
v 5.609998 3.248866 3.9237456
v 5.0555058 -0.62555844 4.9083695
v 3.8314874 -0.9032649 4.4713507
v 4.213597 3.467645 4.315142
v 6.012591 3.676802 2.4222882
v 6.239439 0.08054782 3.1645904
v 5.0555058 -0.62555844 4.9083695
v 5.609998 3.248866 3.9237456
v 6.181182 4.0929637 0.5018561
v 6.8153753 0.9626871 0.37408507
v 6.239439 0.08054782 3.1645904
v 6.012591 3.676802 2.4222882
v 3.8314874 -0.9032649 4.4713507
v 1.9689997 -1.1451236 3.8410943
v 2.3645837 3.5835555 3.7773955
v 4.213597 3.467645 4.315142
v -1.1700675 3.249623 0.6193268
v -1.0008245 -4.086082 0.4780841
v -1.2041978 -4.6794176 -1.8149236
v -1.7274235 3.6448147 -0.8523895
v -1.7274235 3.6448147 -0.8523895
v -1.2041978 -4.6794176 -1.8149236
v -0.01742114 -4.310786 -3.5264764
v -0.5458416 4.5520606 -3.1915104
v -0.5458416 4.5520606 -3.1915104
v -0.01742114 -4.310786 -3.5264764
v 1.0392305 0.9853427 -3.906076
v 0.3030464 5.083469 -3.2691326
v 2.7213573 1.6655996 -3.1022577
v 2.4609969 5.2358336 -2.8003924
v 4.3775797 1.3006903 -2.5820403
v 4.3730645 4.919053 -1.933288
v 4.3730645 4.919053 -1.933288
v 4.3775797 1.3006903 -2.5820403
v 6.860889 1.4392188 0.20593564
v 6.181182 4.0929637 0.5018561
vt 0.7525492 0.60902715
vt 0.89522165 0.76563615
vt 0.87856 0.6145892
vt 0.669143 0.82210773
vt 0.52989596 0.6025044
vt 0.5713219 0.99668616
vt 0.83191115 0.8947008
vt 0.36441562 1
vt 0.43350804 0.83725756
vt 0.23151375 0.80322367
vt 0.31581366 0.61842686
vt 0.14937727 0.9515489
vt 0.09002466 0.6039318
vt 0.07220697 0.90638196
vt 0 0.70258826
vt 0.52989596 0.6025044
vt 0.554329 0.13205412
vt 0.37515855 0
vt 0.31581366 0.61842686
vt 0.31581366 0.61842686
vt 0.37515855 0
vt 0.22575416 0.07601965
vt 0.09002466 0.6039318
vt 0.87856 0.6145892
vt 0.8968979 0.17854963
vt 0.75947756 0.1555948
vt 0.7525492 0.60902715
vt 0.89522165 0.76563615
vt 0.93770206 0.3672215
vt 0.8968979 0.17854963
vt 0.87856 0.6145892
vt 0.83191115 0.8947008
vt 0.88126475 0.59005046
vt 0.93770206 0.3672215
vt 0.89522165 0.76563615
vt 0.75947756 0.1555948
vt 0.554329 0.13205412
vt 0.52989596 0.6025044
vt 0.7525492 0.60902715
vt 0.09002466 0.6039318
vt 0.22575416 0.07601965
vt 0.17932667 0.1646625
vt 0 0.70258826
vt 0 0.70258826
vt 0.17932667 0.1646625
vt 0.2453093 0.2952797
vt 0.07220697 0.90638196
vt 0.07220697 0.90638196
vt 0.2453093 0.2952797
vt 0.26285616 0.67770785
vt 0.14937727 0.9515489
vt 0.41833732 0.72303593
vt 0.36441562 1
vt 0.57681364 0.7020319
vt 0.5713219 0.99668616
vt 0.5713219 0.99668616
vt 0.57681364 0.7020319
vt 0.8794331 0.63506556
vt 0.83191115 0.8947008
vn 0.061344035 0.9021285 0.42708436
vn 0.38894072 0.8752104 0.2876315
vn 0.32632715 0.8543147 0.40454546
vn 0.17215997 0.95215756 0.25250137
vn -0.22556853 0.88535815 0.40652162
vn 0.2524209 0.967528 -0.013161942
vn 0.48266542 0.8732104 0.06736238
vn -0.11349235 0.9917537 0.05953113
vn -0.18313767 0.96020144 0.2108883
vn -0.376216 0.8906932 0.2552004
vn -0.46053097 0.8205344 0.33857727
vn -0.33061016 0.9274308 0.1748399
vn -0.30809772 0.88961416 0.33713868
vn -0.36143756 0.902643 0.23366295
vn -0.33285436 0.89704955 0.2907061
vn -0.73319703 0.083713144 0.67484385
vn -0.733197 0.083713144 0.67484385
vn -0.73319703 0.083713144 0.67484385
vn -0.73319703 0.083713144 0.67484385
vn -0.71759486 0.031290058 0.6957575
vn -0.71759486 0.031290058 0.6957575
vn -0.71759486 0.031290058 0.6957575
vn -0.71759486 0.031290058 0.69575757
vn -0.020369506 0.13929686 0.9900412
vn -0.020369507 0.13929686 0.9900412
vn -0.020369507 0.13929686 0.9900412
vn -0.02036951 0.13929687 0.9900412
vn 0.886988 0.066727325 0.4569461
vn 0.886988 0.06672733 0.45694613
vn 0.886988 0.06672733 0.45694605
vn 0.886988 0.066727325 0.4569461
vn 0.97097415 0.14188378 0.19255717
vn 0.97097415 0.14188378 0.19255717
vn 0.97097415 0.14188378 0.19255717
vn 0.97097415 0.14188378 0.19255717
vn -0.30133137 0.048766542 0.9522716
vn -0.30133137 0.048766542 0.9522716
vn -0.3013314 0.048766546 0.9522716
vn -0.30133137 0.04876654 0.9522716
vn -0.9779829 -0.057387453 0.20063935
vn -0.9779829 -0.057387456 0.20063934
vn -0.96355623 -0.032053974 -0.26557848
vn -0.96370494 -0.03208985 -0.2650342
vn -0.96370494 -0.03208985 -0.2650342
vn -0.96355623 -0.032053974 -0.26557848
vn -0.86120814 -0.014341546 -0.50805014
vn -0.86120814 -0.014341544 -0.5080501
vn -0.3396666 0.037331942 -0.93980473
vn -0.3396666 0.03733194 -0.93980473
vn -0.15160081 0.07683997 -0.9854505
vn -0.00633589 0.10456979 -0.99449736
vn 0.32724118 0.1447178 -0.9337933
vn 0.32537496 0.14504124 -0.934395
vn 0.38134798 0.13498764 -0.9145228
vn 0.38134804 0.13498767 -0.9145228
vn 0.77181417 0.17621405 -0.61094314
vn 0.77181417 0.17621404 -0.6109431
vn 0.77181417 0.17621405 -0.6109431
vn 0.77181417 0.17621404 -0.61094314
g Rocks015_0
f 3/3/3 2/2/2 1/1/1
f 2/2/2 4/4/4 1/1/1
f 1/1/1 4/4/4 5/5/5
f 6/6/6 4/4/4 2/2/2
f 7/7/7 6/6/6 2/2/2
f 6/6/6 8/8/8 4/4/4
f 4/4/4 9/9/9 5/5/5
f 8/8/8 9/9/9 4/4/4
f 9/9/9 10/10/10 5/5/5
f 9/9/9 8/8/8 10/10/10
f 10/10/10 11/11/11 5/5/5
f 8/8/8 12/12/12 10/10/10
f 13/13/13 11/11/11 10/10/10
f 10/10/10 12/12/12 14/14/14
f 15/15/15 13/13/13 10/10/10
f 15/15/15 10/10/10 14/14/14
f 18/18/18 17/17/17 16/16/16
f 19/19/19 18/18/18 16/16/16
f 22/22/22 21/21/21 20/20/20
f 23/23/23 22/22/22 20/20/20
f 26/26/26 25/25/25 24/24/24
f 27/27/27 26/26/26 24/24/24
f 30/30/30 29/29/29 28/28/28
f 31/31/31 30/30/30 28/28/28
f 34/34/34 33/33/33 32/32/32
f 35/35/35 34/34/34 32/32/32
f 38/38/38 37/37/37 36/36/36
f 39/39/39 38/38/38 36/36/36
f 42/42/42 41/41/41 40/40/40
f 43/43/43 42/42/42 40/40/40
f 46/46/46 45/45/45 44/44/44
f 47/47/47 46/46/46 44/44/44
f 50/50/50 49/49/49 48/48/48
f 51/51/51 50/50/50 48/48/48
f 52/52/52 50/50/50 51/51/51
f 53/53/53 52/52/52 51/51/51
f 54/54/54 52/52/52 53/53/53
f 55/55/55 54/54/54 53/53/53
f 58/58/58 57/57/57 56/56/56
f 59/59/59 58/58/58 56/56/56
