g shadow_crystal_custom_mask
v 0.1323308 0.01347602 -4.96808E-07
v 0.1109013 0.03758514 -4.947693E-07
v 0.1356816 0.03524142 -4.948181E-07
v 0.1077545 0.01546528 -4.968492E-07
v 0.1292959 -0.007392128 -4.977931E-07
v 0.08611844 0.03992885 -4.947206E-07
v 0.1051516 -0.005709171 -4.979937E-07
v 0.1157026 -0.02811177 -4.953231E-07
v 0.08317455 0.01745453 -4.968893E-07
v 0.06133162 0.04226068 -4.946733E-07
v 0.09422723 -0.02675874 -4.954844E-07
v 0.09925856 -0.04429593 -4.933938E-07
v 0.05859111 0.01944379 -4.969284E-07
v 0.03654426 0.04460439 -4.946248E-07
v 0.08100722 -0.004026213 -4.981943E-07
v 0.08136878 -0.04324149 -4.935195E-07
v 0.04922368 -0.06361488 -4.910908E-07
v 0.0727519 -0.02540573 -4.956457E-07
v 0.03832027 -0.06285873 -4.911809E-07
v 0.003893509 -0.08065752 -4.890592E-07
v -0.0007756996 -0.08011433 -4.891239E-07
v 0.06347899 -0.04218705 -4.936452E-07
v 0.02741686 -0.06210259 -4.912711E-07
v -0.005444913 -0.07957113 -4.891887E-07
v 0.05686294 -0.002343256 -4.983949E-07
v 0.05127661 -0.02405271 -4.95807E-07
v 0.01651344 -0.06134645 -4.913612E-07
v -0.01011412 -0.07902794 -4.892534E-07
v 0.04558921 -0.04113261 -4.937709E-07
v 0.03271861 -0.0006602979 -4.985956E-07
v 0.005610027 -0.06059031 -4.914513E-07
v -0.01478333 -0.07848475 -4.893182E-07
v 0.02980129 -0.0226997 -4.959683E-07
v 0.02769942 -0.04007817 -4.938966E-07
v 0.03400421 0.02143305 -4.969664E-07
v 0.01175466 0.04694812 -4.945764E-07
v -0.005293388 -0.05983417 -4.915415E-07
v -0.01945254 -0.07794156 -4.89383E-07
v 0.009809637 -0.03902373 -4.940223E-07
v 0.008574304 0.001022658 -4.987962E-07
v 0.009414014 0.0234223 -4.970034E-07
v -0.01303709 0.04929183 -4.945281E-07
v -0.0161968 -0.05907805 -4.916316E-07
v -0.02412175 -0.07739837 -4.894477E-07
v -0.008080148 -0.03796929 -4.94148E-07
v 0.008325963 -0.02134668 -4.961296E-07
v -0.0151794 0.02541156 -4.970394E-07
v -0.03783094 0.05163554 -4.944799E-07
v -0.02710022 -0.0583219 -4.917218E-07
v -0.02879095 -0.07685517 -4.895124E-07
v -0.03346017 -0.07631198 -4.895772E-07
v -0.01314935 -0.01999366 -4.962909E-07
v -0.01557001 0.002705617 -4.989968E-07
v -0.02596993 -0.03691485 -4.942737E-07
v -0.03800364 -0.05756576 -4.918119E-07
v -0.03812938 -0.07576879 -4.896419E-07
v -0.03462467 -0.01864064 -4.964522E-07
v -0.03971432 0.004388573 -4.991974E-07
v -0.04385972 -0.03586041 -4.943994E-07
v -0.04890706 -0.05680962 -4.91902E-07
v -0.04279859 -0.0752256 -4.897067E-07
v -0.05609999 -0.01728763 -4.966134E-07
v -0.03977594 0.02740082 -4.970745E-07
v -0.06262681 0.05397926 -4.944317E-07
v -0.0617495 -0.03480597 -4.945251E-07
v -0.05981047 -0.05605349 -4.919922E-07
v -0.04746779 -0.07468241 -4.897714E-07
v -0.07071389 -0.05529734 -4.920823E-07
v -0.07963929 -0.03375153 -4.946508E-07
v -0.09752908 -0.03269709 -4.947765E-07
v -0.06385864 0.006071532 -4.993981E-07
v -0.0643755 0.02939008 -4.971087E-07
v -0.08742466 0.05632297 -4.943836E-07
v -0.07757531 -0.01593461 -4.967747E-07
v -0.09905063 -0.01458159 -4.96936E-07
v -0.1205259 -0.01322858 -4.970973E-07
v -0.08800295 0.007754488 -4.995987E-07
v -0.088978 0.03137933 -4.971419E-07
v -0.1122244 0.05866669 -4.943357E-07
v -0.1135834 0.03336859 -4.971743E-07
v -0.1121473 0.009437446 -4.997993E-07
v -0.1362916 0.0111204 -4.999999E-07
v -0.1381915 0.03535785 -4.972059E-07
vt 0.980751 0.6313722
vt 0.9103057 0.8547119
vt 1 0.8401831
vt 0.8915918 0.6437037
vt 0.9657754 0.4541758
vt 0.8206114 0.8692407
vt 0.8787979 0.4646086
vt 0.9168069 0.3257338
vt 0.8024326 0.6560352
vt 0.7309172 0.8837695
vt 0.8394442 0.3341212
vt 0.857569 0.2254073
vt 0.7132735 0.6683667
vt 0.641223 0.8982983
vt 0.7918204 0.4750413
vt 0.7931229 0.2319438
vt 0.6773233 0.1056482
vt 0.7620814 0.3425086
vt 0.638045 0.1103356
vt 0.514026 0
vt 0.4972056 0.003367305
vt 0.7286767 0.2384803
vt 0.5987664 0.1150229
vt 0.4803852 0.00673455
vt 0.704843 0.485474
vt 0.6847188 0.350896
vt 0.5594881 0.1197103
vt 0.4635649 0.0101018
vt 0.6642306 0.2450169
vt 0.6178655 0.4959068
vt 0.5202096 0.1243976
vt 0.4467445 0.0134691
vt 0.6073562 0.3592834
vt 0.5997844 0.2515534
vt 0.6241143 0.6806982
vt 0.5515286 0.9128271
vt 0.4809311 0.1290849
vt 0.4299242 0.01683635
vt 0.5353382 0.2580899
vt 0.5308881 0.5063395
vt 0.5349551 0.6930297
vt 0.4618344 0.9273559
vt 0.4416526 0.1337723
vt 0.4131038 0.02020365
vt 0.4708921 0.2646264
vt 0.5299934 0.3676708
vt 0.445796 0.7053612
vt 0.3721401 0.9418848
vt 0.4023741 0.1384596
vt 0.3962834 0.02357095
vt 0.3794631 0.0269382
vt 0.4526308 0.3760583
vt 0.4439106 0.5167723
vt 0.4064459 0.271163
vt 0.3630957 0.1431469
vt 0.3626427 0.03030545
vt 0.3752681 0.3844457
vt 0.3569331 0.527205
vt 0.3419998 0.2776995
vt 0.3238172 0.1478343
vt 0.3458224 0.03367275
vt 0.2979054 0.3928331
vt 0.3566367 0.7176927
vt 0.2824459 0.9564135
vt 0.2775536 0.284236
vt 0.2845387 0.1525216
vt 0.329002 0.03704
vt 0.2452603 0.157209
vt 0.2131074 0.2907726
vt 0.1486613 0.2973091
vt 0.2699557 0.5376377
vt 0.2674776 0.7300242
vt 0.1927516 0.9709424
vt 0.2205427 0.4012206
vt 0.14318 0.4096079
vt 0.06581736 0.4179954
vt 0.1829782 0.5480704
vt 0.1783184 0.7423557
vt 0.1030573 0.9854711
vt 0.08915919 0.7546872
vt 0.09600073 0.5585032
vt 0.009023279 0.5689359
vt 0 0.7670187
vn 0 0 1
vn 0 -1.141032E-07 1
vn 0 -1.142017E-07 1
vn 0 0 1
vn 0 1.192093E-07 1
vn 0 -1.139003E-07 1
vn 0 1.192093E-07 1
vn 0 1.192093E-07 1
vn 0 0 1
vn 0 -1.137014E-07 1
vn 0 1.192093E-07 1
vn 0 1.192093E-07 1
vn 0 0 1
vn 0 -1.135063E-07 1
vn 0 1.192093E-07 1
vn 0 1.192093E-07 1
vn 0 1.192093E-07 1
vn 0 1.192093E-07 1
vn 0 1.192093E-07 1
vn 0 1.192092E-07 1
vn 0 1.192092E-07 1
vn 0 1.192093E-07 1
vn 0 1.192093E-07 1
vn 0 1.192092E-07 1
vn 0 1.192093E-07 1
vn 0 1.192093E-07 1
vn 0 1.192093E-07 1
vn 0 1.192093E-07 1
vn 0 1.192093E-07 1
vn 0 1.192093E-07 1
vn 0 1.192093E-07 1
vn 0 1.192092E-07 1
vn 0 1.192093E-07 1
vn 0 1.192093E-07 1
vn 0 0 1
vn 0 -1.13315E-07 1
vn 0 1.192093E-07 1
vn 0 1.192093E-07 1
vn 0 1.192093E-07 1
vn 0 1.192093E-07 1
vn 0 0 1
vn 0 -1.131272E-07 1
vn 0 1.192093E-07 1
vn 0 1.192093E-07 1
vn 0 1.192093E-07 1
vn 0 1.192093E-07 1
vn 0 0 1
vn 0 -1.12943E-07 1
vn 0 1.192093E-07 1
vn 0 1.192093E-07 1
vn 0 1.192093E-07 1
vn 0 1.192093E-07 1
vn 0 1.192093E-07 1
vn 0 1.192093E-07 1
vn 0 1.192093E-07 1
vn 0 1.192093E-07 1
vn 0 1.192093E-07 1
vn 0 1.192093E-07 1
vn 0 1.192093E-07 1
vn 0 1.192093E-07 1
vn 0 1.192093E-07 1
vn 0 1.192093E-07 1
vn 0 -1.026858E-07 1
vn 0 -1.127622E-07 1
vn 0 1.192093E-07 1
vn 0 1.192093E-07 1
vn 0 1.192093E-07 1
vn 0 1.192093E-07 1
vn 0 1.192093E-07 1
vn 0 1.192093E-07 1
vn 0 1.192093E-07 1
vn 0 -1.056873E-07 1
vn 0 -1.125848E-07 1
vn 0 1.192093E-07 1
vn 0 1.192093E-07 1
vn 0 1.192093E-07 1
vn 0 1.192093E-07 1
vn 0 -1.086382E-07 1
vn 0 -1.124105E-07 1
vn 0 -1.115397E-07 1
vn 0 1.192093E-07 1
vn 0 1.192093E-07 1
vn 0 -1.128153E-07 1
g shadow_crystal_custom_mask_0
f 3/3/3 2/2/2 1/1/1
f 2/2/2 4/4/4 1/1/1
f 1/1/1 4/4/4 5/5/5
f 2/2/2 6/6/6 4/4/4
f 4/4/4 7/7/7 5/5/5
f 5/5/5 7/7/7 8/8/8
f 6/6/6 9/9/9 4/4/4
f 4/4/4 9/9/9 7/7/7
f 6/6/6 10/10/10 9/9/9
f 7/7/7 11/11/11 8/8/8
f 8/8/8 11/11/11 12/12/12
f 10/10/10 13/13/13 9/9/9
f 10/10/10 14/14/14 13/13/13
f 9/9/9 15/15/15 7/7/7
f 7/7/7 15/15/15 11/11/11
f 9/9/9 13/13/13 15/15/15
f 11/11/11 16/16/16 12/12/12
f 12/12/12 16/16/16 17/17/17
f 15/15/15 18/18/18 11/11/11
f 11/11/11 18/18/18 16/16/16
f 16/16/16 19/19/19 17/17/17
f 17/17/17 19/19/19 20/20/20
f 19/19/19 21/21/21 20/20/20
f 16/16/16 22/22/22 19/19/19
f 18/18/18 22/22/22 16/16/16
f 19/19/19 23/23/23 21/21/21
f 22/22/22 23/23/23 19/19/19
f 23/23/23 24/24/24 21/21/21
f 15/15/15 25/25/25 18/18/18
f 13/13/13 25/25/25 15/15/15
f 18/18/18 26/26/26 22/22/22
f 25/25/25 26/26/26 18/18/18
f 23/23/23 27/27/27 24/24/24
f 27/27/27 28/28/28 24/24/24
f 22/22/22 29/29/29 23/23/23
f 26/26/26 29/29/29 22/22/22
f 29/29/29 27/27/27 23/23/23
f 25/25/25 13/13/13 30/30/30
f 25/25/25 30/30/30 26/26/26
f 27/27/27 31/31/31 28/28/28
f 31/31/31 32/32/32 28/28/28
f 26/26/26 33/33/33 29/29/29
f 30/30/30 33/33/33 26/26/26
f 29/29/29 34/34/34 27/27/27
f 34/34/34 31/31/31 27/27/27
f 33/33/33 34/34/34 29/29/29
f 13/13/13 35/35/35 30/30/30
f 14/14/14 35/35/35 13/13/13
f 14/14/14 36/36/36 35/35/35
f 31/31/31 37/37/37 32/32/32
f 37/37/37 38/38/38 32/32/32
f 34/34/34 39/39/39 31/31/31
f 34/34/34 33/33/33 39/39/39
f 39/39/39 37/37/37 31/31/31
f 30/30/30 40/40/40 33/33/33
f 30/30/30 35/35/35 40/40/40
f 36/36/36 41/41/41 35/35/35
f 35/35/35 41/41/41 40/40/40
f 36/36/36 42/42/42 41/41/41
f 38/38/38 37/37/37 43/43/43
f 44/44/44 38/38/38 43/43/43
f 37/37/37 39/39/39 45/45/45
f 43/43/43 37/37/37 45/45/45
f 33/33/33 46/46/46 39/39/39
f 40/40/40 46/46/46 33/33/33
f 45/45/45 39/39/39 46/46/46
f 42/42/42 47/47/47 41/41/41
f 47/47/47 42/42/42 48/48/48
f 44/44/44 43/43/43 49/49/49
f 50/50/50 44/44/44 49/49/49
f 51/51/51 50/50/50 49/49/49
f 52/52/52 46/46/46 40/40/40
f 52/52/52 45/45/45 46/46/46
f 40/40/40 41/41/41 53/53/53
f 41/41/41 47/47/47 53/53/53
f 53/53/53 52/52/52 40/40/40
f 43/43/43 45/45/45 54/54/54
f 49/49/49 43/43/43 54/54/54
f 54/54/54 45/45/45 52/52/52
f 55/55/55 51/51/51 49/49/49
f 55/55/55 49/49/49 54/54/54
f 56/56/56 51/51/51 55/55/55
f 57/57/57 52/52/52 53/53/53
f 57/57/57 54/54/54 52/52/52
f 58/58/58 53/53/53 47/47/47
f 58/58/58 57/57/57 53/53/53
f 59/59/59 55/55/55 54/54/54
f 59/59/59 54/54/54 57/57/57
f 60/60/60 56/56/56 55/55/55
f 60/60/60 55/55/55 59/59/59
f 61/61/61 56/56/56 60/60/60
f 62/62/62 59/59/59 57/57/57
f 62/62/62 57/57/57 58/58/58
f 63/63/63 58/58/58 47/47/47
f 63/63/63 47/47/47 48/48/48
f 63/63/63 48/48/48 64/64/64
f 65/65/65 60/60/60 59/59/59
f 65/65/65 59/59/59 62/62/62
f 66/66/66 61/61/61 60/60/60
f 66/66/66 60/60/60 65/65/65
f 67/67/67 61/61/61 66/66/66
f 68/68/68 67/67/67 66/66/66
f 68/68/68 66/66/66 69/69/69
f 69/69/69 66/66/66 65/65/65
f 70/70/70 68/68/68 69/69/69
f 71/71/71 62/62/62 58/58/58
f 71/71/71 58/58/58 63/63/63
f 72/72/72 63/63/63 64/64/64
f 72/72/72 71/71/71 63/63/63
f 72/72/72 64/64/64 73/73/73
f 74/74/74 65/65/65 62/62/62
f 69/69/69 65/65/65 74/74/74
f 74/74/74 62/62/62 71/71/71
f 70/70/70 69/69/69 75/75/75
f 75/75/75 69/69/69 74/74/74
f 76/76/76 70/70/70 75/75/75
f 77/77/77 74/74/74 71/71/71
f 77/77/77 71/71/71 72/72/72
f 75/75/75 74/74/74 77/77/77
f 78/78/78 72/72/72 73/73/73
f 78/78/78 77/77/77 72/72/72
f 78/78/78 73/73/73 79/79/79
f 80/80/80 78/78/78 79/79/79
f 76/76/76 75/75/75 81/81/81
f 81/81/81 75/75/75 77/77/77
f 81/81/81 77/77/77 78/78/78
f 80/80/80 81/81/81 78/78/78
f 82/82/82 76/76/76 81/81/81
f 82/82/82 81/81/81 80/80/80
f 83/83/83 82/82/82 80/80/80
