g starTreeGlowGeo02
v -0.058890637 6.2636204 1.0644801
v -0.77260524 6.2636204 1.0644801
v -0.77260524 6.9773345 1.0644801
v -0.058890637 6.9773345 1.0644801
v 0.09071123 5.7578516 1.0644801
v -0.483158 5.7578516 1.0644801
v -0.483158 6.3317204 1.0644801
v 0.09071123 6.3317204 1.0644801
v 0.5761001 6.551769 1.0644801
v -0.030044198 6.551769 1.0644801
v -0.030044198 7.1579123 1.0644801
v 0.5761001 7.1579123 1.0644801
v 0.75121665 5.796069 1.0644801
v 0.14507219 5.796069 1.0644801
v 0.14507219 6.402214 1.0644801
v 0.75121665 6.402214 1.0644801
v -0.77545446 4.196189 1.2204901
v -1.4600451 4.3979917 1.2204902
v -1.2582427 5.0825815 1.2204902
v -0.57365227 4.8807793 1.2204901
v -0.37029955 4.541698 1.2204902
v -0.9207516 4.7039595 1.2204902
v -0.75849026 5.2544107 1.2204902
v -0.20803854 5.0921493 1.2204902
v 0.7833911 4.329848 1.8982154
v 0.069395244 4.5403185 1.8982157
v 0.27986574 5.2543135 1.8982157
v 0.99386173 5.0438433 1.8982154
v -0.1992276 3.8472176 1.4558593
v -0.91282445 3.834266 1.4558593
v -0.9257762 4.5478625 1.4558593
v -0.21217912 4.5608144 1.4558593
v 0.19358428 3.639167 1.6121289
v -0.3801905 3.628753 1.6121287
v -0.39060447 4.2025275 1.6121287
v 0.18317021 4.2129416 1.6121289
v 0.7851418 3.9776115 1.4288218
v 0.17909738 3.9666119 1.4288218
v 0.1680978 4.5726557 1.4288218
v 0.77414215 4.5836554 1.4288218
v 1.3997291 3.408536 1.2287627
v 0.65548 3.3950284 1.2287629
v 0.64197195 4.139276 1.2287629
v 1.3862209 4.152784 1.2287627
v -0.65011 2.8143718 1.6841788
v -1.3637071 2.8014202 1.6841792
v -1.3766589 3.515016 1.6841792
v -0.66306174 3.5279677 1.6841791
v -0.074763894 2.9718292 2.008264
v -0.6808083 2.960829 2.008264
v -0.691808 3.566873 2.008264
v -0.085763454 3.5778725 2.008264
v -0.72026676 3.4356978 1.7996315
v -1.4645153 3.42219 1.7996316
v -1.4780232 4.1664376 1.7996316
v -0.73377484 4.1799455 1.7996315
v 0.6058676 2.897055 2.0373015
v 0.0073877275 3.074264 2.0373018
v 0.18459684 3.6727428 2.0373018
v 0.7830763 3.495534 2.0373018
v 0.1682411 1.0002621 2.2280407
v -0.56031543 1.0788506 2.2280407
v -0.48172694 1.8074065 2.2280407
v 0.2468296 1.7288191 2.2280407
v 0.21714969 0.46734026 2.6372268
v -0.36865363 0.53053033 2.6372268
v -0.3054635 1.1163324 2.6372268
v 0.28033945 1.0531428 2.6372268
v 0.73520905 1.448847 2.018236
v 0.11645958 1.5155909 2.018236
v 0.1832031 2.1343396 2.018236
v 0.801953 2.0675964 2.018236
v 1.0222636 0.34033138 2.637227
v 0.40351436 0.40707505 2.637227
v 0.47025847 1.0258241 2.6372268
v 1.0890077 0.9590801 2.637227
v 1.4471121 0.89381766 2.018236
v 0.68726087 0.97578067 2.018236
v 0.76922476 1.735632 2.018236
v 1.5290743 1.6536679 2.018236
v -1.0813704 1.9046971 1.8974088
v -1.809927 1.9832848 1.897409
v -1.7313383 2.711841 1.8974088
v -1.002782 2.6332533 1.8974088
v -0.17239104 1.6670426 2.228041
v -0.79114044 1.7337867 2.228041
v -0.72439665 2.3525355 2.228041
v -0.10564717 2.2857916 2.228041
v 1.6996129 1.7792592 1.819511
v 1.080863 1.8460025 1.819511
v 1.1476067 2.4647515 1.819511
v 1.7663565 2.3980083 1.819511
v -0.9851217 0.4156948 1.9437431
v -1.6038711 0.48243815 1.9437432
v -1.5371275 1.1011872 1.9437432
v -0.9183776 1.0344437 1.9437432
v 1.1208634 5.0916843 1.1224957
v 0.34620494 5.175246 1.1224957
v 0.42976582 5.9499035 1.1224957
v 1.2044258 5.8663425 1.1224957
v 0.47392657 7.365259 0.4226997
v -0.067915216 7.4237075 0.4226998
v -0.009467572 7.965547 0.4226998
v 0.53237486 7.907101 0.4226998
v -0.08016785 7.1164474 0.6562427
v -0.7132139 7.184734 0.6562429
v -0.6449282 7.8177786 0.6562429
v -0.011881437 7.7494946 0.6562429
v 0.3852432 5.1212735 1.476865
v -0.23350616 5.1880174 1.4768652
v -0.16676265 5.806766 1.4768652
v 0.45198745 5.740023 1.4768652
v 0.69710195 2.1417587 2.0082638
v 0.09105748 2.1307588 2.0082638
v 0.08005821 2.7368026 2.0082638
v 0.68610233 2.747803 2.0082638
v 2.3783183 0.16506222 1.6126046
v 1.7335066 0.15335831 1.6126046
v 1.721804 0.79816884 1.6126046
v 2.3666153 0.8098725 1.6126046
v 1.6927098 0.06520665 2.3117328
v 1.0866653 0.054206666 2.3117328
v 1.0756658 0.660251 2.3117328
v 1.68171 0.6712507 2.3117328
v -1.5052383 0.050983608 2.0082636
v -2.1112826 0.03998363 2.0082636
v -2.122282 0.646027 2.0082636
v -1.5162377 0.6570276 2.0082636
v -0.74757093 5.0870633 1.2204902
v -1.4321612 5.288865 1.2204903
v -1.230359 5.973455 1.2204903
v -0.5457685 5.771653 1.2204902
v -1.4958683 0.8081418 1.5858516
v -2.2244253 0.88672996 1.5858517
v -2.1458364 1.6152861 1.5858517
v -1.41728 1.5366981 1.5858516
v 1.3463377 2.3203409 1.6572402
v 0.61778104 2.3989284 1.6572403
v 0.6963696 3.127485 1.6572403
v 1.4249262 3.048897 1.6572402
v 2.0713265 3.113588 0.99087685
v 1.3577294 3.1006365 0.9908769
v 1.344778 3.8142333 0.9908769
v 2.058375 3.827185 0.99087673
v 0.835467 3.4578774 1.6121289
v 0.22153121 3.4467342 1.6121287
v 0.2103884 4.0606694 1.6121287
v 0.824324 4.071813 1.6121289
v 0.2979227 4.0709352 1.6247227
v -0.41567433 4.0579834 1.6247227
v -0.4286259 4.7715793 1.6247227
v 0.28497112 4.7845316 1.6247227
v 2.287632 0.7357089 1.6126047
v 1.4952008 0.7213262 1.6126047
v 1.4808186 1.513756 1.6126046
v 2.2732496 1.5281388 1.6126046
v 1.6709391 4.2187214 0.57078505
v 0.9224381 4.4393625 0.57078516
v 1.1430805 5.187863 0.57078505
v 1.891581 4.9672213 0.57078505
v -0.13438675 5.195106 1.487348
v -0.7082559 5.195106 1.487348
v -0.7082559 5.7689757 1.487348
v -0.13438675 5.7689757 1.487348
v 0.31331646 7.8290677 0.4226997
v -0.17011385 7.8812146 0.4226998
v -0.117966935 8.364644 0.4226998
v 0.36546385 8.312498 0.4226998
v -1.6374348 1.4947925 1.343457
v -2.3659914 1.5733802 1.3434571
v -2.2874029 2.3019364 1.343457
v -1.5588464 2.2233481 1.343457
v -1.1597271 4.237702 1.2204902
v -1.7101791 4.3999634 1.2204902
v -1.5479177 4.9504147 1.2204902
v -0.997466 4.788153 1.2204902
v -1.3200554 2.9410753 1.4558592
v -2.0336523 2.9281237 1.4558593
v -2.0466042 3.6417205 1.4558593
v -1.3330069 3.6546721 1.4558592
v -1.8109465 0.43106985 1.5858516
v -2.5395033 0.509658 1.5858517
v -2.4609141 1.238214 1.5858517
v -1.7323581 1.159626 1.5858516
vt 4.3711392E-08 1
vt -1.5895768E-15 -3.6365275E-08
vt 0.9999997 -7.346102E-09
vt 0.9999997 0.99999994
vt 4.371139E-08 1
vt 0 0
vt 0.9999993 -4.3711356E-08
vt 0.9999993 0.99999994
vt 4.3711395E-08 1.0000001
vt 0 0
vt 1 -4.3711385E-08
vt 1 1.0000001
vt 4.3711392E-08 1
vt 1.4973377E-14 3.4255092E-07
vt 0.9999993 2.9883955E-07
vt 0.99999934 0.99999994
vt 0.9999994 6.643966E-08
vt 0.99999976 1
vt -4.3711392E-08 1
vt -9.934855E-16 2.2728297E-08
vt 0.99999946 4.3711367E-08
vt 0.9999995 1
vt -4.371139E-08 0.99999994
vt -1.1861624E-14 2.7136232E-07
vt 0.9999994 4.3711363E-08
vt 0.9999995 0.99999994
vt -4.371139E-08 0.99999994
vt 5.722388E-07 2.5013352E-14
vt 0.9999996 4.3711374E-08
vt 0.9999998 1
vt 1.7448026E-07 1
vt -3.6365275E-08 -1.5895768E-15
vt 2.2461961E-07 1
vt -7.90775E-15 -1.8090822E-07
vt 0.9999994 -4.3711363E-08
vt 0.999999 0.9999996
vt 4.3711392E-08 1
vt 0 0
vt 0.9999981 -4.3711307E-08
vt 0.99999875 0.9999996
vt 0.9999992 3.2265208E-07
vt 0.9999997 1
vt -8.843812E-09 1.0000002
vt 3.486758E-08 2.7894072E-07
vt 0.9999997 4.8257036E-08
vt 0.99999934 0.99999994
vt 3.9267192E-07 0.99999994
vt 1.454611E-07 6.8184955E-09
vt 0.9999993 2.1498688E-07
vt 0.9999992 1
vt -4.3711392E-08 1
vt 0 0
vt 0.99999934 -9.575901E-08
vt 0.9999999 0.99999994
vt 2.3522936E-07 0.99999994
vt 2.7894075E-07 1.2192888E-14
vt 0.9999997 -2.8895033E-07
vt 0.99999964 0.99999976
vt 2.057849E-07 0.9999997
vt -8.316541E-08 -3.326617E-07
vt 4.3711385E-08 0.9999999
vt -6.1928527E-15 -1.4167595E-07
vt 0.9999999 2.396405E-07
vt 0.99999994 0.9999998
vt 7.4851374E-07 1.0000001
vt 7.701972E-15 1.7620059E-07
vt 0.9999989 1.3248925E-07
vt 0.9999997 0.99999905
vt 0.99999964 3.773484E-07
vt 0.9999989 1
vt 6.235627E-07 1
vt 0 0
vt 4.371136E-08 0.99999934
vt 0 0
vt 0.9999986 -4.371133E-08
vt 0.9999987 0.99999994
vt 0 1.6300919E-06
vt 0.99999946 5.4336397E-07
vt 0.99999946 1.0000005
vt 1.0867279E-06 1
vt 0.9999997 0.9999993
vt 1.6584833E-08 0.99999994
vt 2.8335182E-07 5.6670353E-07
vt 0.9999995 -8.742274E-08
vt 0.99999875 3.7734853E-07
vt 0.9999987 0.99999994
vt -4.371139E-08 0.9999999
vt -3.336372E-07 -1.4583746E-14
vt 0 0
vt 1 0
vt 1 0.999999
vt 0 1
vt 4.371136E-08 0.9999993
vt 0 0
vt 0.999998 1.2310717E-07
vt 0.9999987 0.99999994
vt 0.99999917 4.3711353E-08
vt 0.9999993 0.9999997
vt 9.571997E-07 0.99999964
vt 1.4583739E-14 -3.3363705E-07
vt -7.182738E-07 1
vt -7.619851E-07 6.6673704E-07
vt 0.9999966 -4.3711243E-08
vt 0.9999989 0.99999994
vt 4.371139E-08 0.99999994
vt 6.522042E-07 6.522041E-07
vt 0.99999726 -1.252368E-07
vt 0.9999999 0.9999999
vt 0.99999917 4.3711353E-08
vt 0.9999993 0.9999997
vt 9.571997E-07 0.99999964
vt 1.4583739E-14 -3.3363705E-07
vt 4.3711363E-08 0.9999994
vt 3.743343E-15 8.563771E-08
vt 0.99999887 7.27028E-07
vt 0.99999875 1
vt 4.3711363E-08 0.9999994
vt 3.743343E-15 8.563771E-08
vt 0.99999887 7.27028E-07
vt 0.99999875 1
vt 4.3711363E-08 0.9999994
vt 3.743343E-15 8.563771E-08
vt 0.99999887 7.27028E-07
vt 0.99999875 1
vt 4.3711363E-08 0.9999994
vt 3.743343E-15 8.563771E-08
vt 0.99999887 7.27028E-07
vt 0.99999875 1
vt 0.9999994 6.643966E-08
vt 0.99999976 1
vt -4.3711392E-08 1
vt -9.934855E-16 2.2728297E-08
vt 0.9999997 0.9999993
vt 1.6584833E-08 0.99999994
vt 2.8335182E-07 5.6670353E-07
vt 0.9999995 -8.742274E-08
vt 0.9999997 0.9999993
vt 1.6584833E-08 0.99999994
vt 2.8335182E-07 5.6670353E-07
vt 0.9999995 -8.742274E-08
vt 0.9999996 4.3711374E-08
vt 0.9999998 1
vt 1.7448026E-07 1
vt -3.6365275E-08 -1.5895768E-15
vt 2.2461961E-07 1
vt -7.90775E-15 -1.8090822E-07
vt 0.9999994 -4.3711363E-08
vt 0.999999 0.9999996
vt 0.9999996 4.3711374E-08
vt 0.9999998 1
vt 1.7448026E-07 1
vt -3.6365275E-08 -1.5895768E-15
vt 4.3711363E-08 0.9999994
vt 3.743343E-15 8.563771E-08
vt 0.99999887 7.27028E-07
vt 0.99999875 1
vt 0.9999994 4.3711363E-08
vt 0.9999995 0.99999994
vt -4.371139E-08 0.99999994
vt 5.722388E-07 2.5013352E-14
vt 4.371139E-08 1
vt 0 0
vt 0.9999993 -4.3711356E-08
vt 0.9999993 0.99999994
vt -7.182738E-07 1
vt -7.619851E-07 6.6673704E-07
vt 0.9999966 -4.3711243E-08
vt 0.9999989 0.99999994
vt 0.9999997 0.9999993
vt 1.6584833E-08 0.99999994
vt 2.8335182E-07 5.6670353E-07
vt 0.9999995 -8.742274E-08
vt 0.99999946 4.3711367E-08
vt 0.9999995 1
vt -4.371139E-08 0.99999994
vt -1.1861624E-14 2.7136232E-07
vt 0.9999996 4.3711374E-08
vt 0.9999998 1
vt 1.7448026E-07 1
vt -3.6365275E-08 -1.5895768E-15
vt 0.9999997 0.9999993
vt 1.6584833E-08 0.99999994
vt 2.8335182E-07 5.6670353E-07
vt 0.9999995 -8.742274E-08
vn -0 0 1
vn -0 0 1
vn -0 0 1
vn -0 0 1
vn -0 0 1
vn -0 0 1
vn -0 0 1
vn -0 0 1
vn -0 0 1
vn -0 0 1
vn -0 0 1
vn -0 0 1
vn -0 0 1
vn -0 0 1
vn -0 0 1
vn -0 0 1
vn 1.602108E-07 0 1
vn 1.602108E-07 0 1
vn 1.602108E-07 0 1
vn 1.602108E-07 0 1
vn -0 2.2623746E-07 1
vn -0 2.2623746E-07 1
vn -0 2.2623746E-07 1
vn -0 2.2623746E-07 1
vn 1.5361262E-07 0 1
vn 1.5361262E-07 0 1
vn 1.5361262E-07 0 1
vn 1.5361262E-07 0 1
vn 1.6699906E-07 1.7917499E-07 1
vn 1.6699906E-07 1.7917499E-07 1
vn 1.6699906E-07 1.7917499E-07 1
vn 1.6699906E-07 1.7917499E-07 1
vn -2.0769477E-07 -1.3008652E-07 1
vn -2.0769477E-07 -1.3008652E-07 1
vn -2.0769477E-07 -1.3008652E-07 1
vn -2.0769477E-07 -1.3008652E-07 1
vn -0 0 1
vn -0 0 1
vn -0 0 1
vn -0 0 1
vn 1.6012115E-07 0 1
vn 1.6012115E-07 0 1
vn 1.6012115E-07 0 1
vn 1.6012115E-07 0 1
vn 2.5201408E-07 1.6454858E-07 1
vn 2.5201408E-07 1.6454858E-07 1
vn 2.5201408E-07 1.6454858E-07 1
vn 2.5201408E-07 1.6454858E-07 1
vn -0 -1.4702009E-07 1
vn -0 -1.4702009E-07 1
vn -0 -1.4702009E-07 1
vn -0 -1.4702009E-07 1
vn 1.6012126E-07 1.848904E-07 1
vn 1.6012126E-07 1.848904E-07 1
vn 1.6012126E-07 1.848904E-07 1
vn 1.6012126E-07 1.848904E-07 1
vn 1.2890624E-07 -6.119881E-07 1
vn 1.2890624E-07 -6.119881E-07 1
vn 1.2890624E-07 -6.119881E-07 1
vn 1.2890624E-07 -6.119881E-07 1
vn -0 0 1
vn -0 0 1
vn -0 0 1
vn -0 0 1
vn -0 1.2876993E-07 1
vn -0 1.2876993E-07 1
vn -0 1.2876993E-07 1
vn -0 1.2876993E-07 1
vn -0 1.154218E-07 1
vn -0 1.154218E-07 1
vn -0 1.154218E-07 1
vn -0 1.154218E-07 1
vn -3.3980507E-07 0 1
vn -3.3980507E-07 0 1
vn -3.3980507E-07 0 1
vn -3.3980507E-07 0 1
vn -0 -1.02046855E-07 1
vn -0 -1.02046855E-07 1
vn -0 -1.02046855E-07 1
vn -0 -1.02046855E-07 1
vn -0 0 1
vn -0 0 1
vn -0 0 1
vn -0 0 1
vn -0 2.693176E-07 1
vn -0 2.693176E-07 1
vn -0 2.693176E-07 1
vn -0 2.693176E-07 1
vn -0 1.5389567E-07 1
vn -0 1.5389567E-07 1
vn -0 1.5389567E-07 1
vn -0 1.5389567E-07 1
vn -0 -1.9236958E-07 1
vn -0 -1.9236958E-07 1
vn -0 -1.9236958E-07 1
vn -0 -1.9236958E-07 1
vn -0 -1.3500127E-07 1
vn -0 -1.3500127E-07 1
vn -0 -1.3500127E-07 1
vn -0 -1.3500127E-07 1
vn -0 -1.8814073E-07 1
vn -0 -1.8814073E-07 1
vn -0 -1.8814073E-07 1
vn -0 -1.8814073E-07 1
vn -0 -1.2864506E-07 1
vn -0 -1.2864506E-07 1
vn -0 -1.2864506E-07 1
vn -0 -1.2864506E-07 1
vn 1.9044568E-07 0 1
vn 1.9044568E-07 0 1
vn 1.9044568E-07 0 1
vn 1.9044568E-07 0 1
vn -0 -1.6729861E-07 1
vn -0 -1.6729861E-07 1
vn -0 -1.6729861E-07 1
vn -0 -1.6729861E-07 1
vn -0 0 1
vn -0 0 1
vn -0 0 1
vn -0 0 1
vn -0 1.875772E-07 1
vn -0 1.875772E-07 1
vn -0 1.875772E-07 1
vn -0 1.875772E-07 1
vn -0 1.5715952E-07 1
vn -0 1.5715952E-07 1
vn -0 1.5715952E-07 1
vn -0 1.5715952E-07 1
vn 1.6021085E-07 0 1
vn 1.6021085E-07 0 1
vn 1.6021085E-07 0 1
vn 1.6021085E-07 0 1
vn 1.6174198E-07 0 1
vn 1.6174198E-07 0 1
vn 1.6174198E-07 0 1
vn 1.6174198E-07 0 1
vn 1.6174194E-07 2.2200332E-07 1
vn 1.6174194E-07 2.2200332E-07 1
vn 1.6174194E-07 2.2200332E-07 1
vn 1.6174194E-07 2.2200332E-07 1
vn 1.2449152E-07 0 1
vn 1.2449152E-07 0 1
vn 1.2449152E-07 0 1
vn 1.2449152E-07 0 1
vn -1.9410838E-07 0 1
vn -1.9410838E-07 0 1
vn -1.9410838E-07 0 1
vn -1.9410838E-07 0 1
vn -0 0 1
vn -0 0 1
vn -0 0 1
vn -0 0 1
vn -0 1.7791643E-07 1
vn -0 1.7791643E-07 1
vn -0 1.7791643E-07 1
vn -0 1.7791643E-07 1
vn -0 0 1
vn -0 0 1
vn -0 0 1
vn -0 0 1
vn -0 0 1
vn -0 0 1
vn -0 0 1
vn -0 0 1
vn 1.0873034E-07 0 1
vn 1.0873034E-07 0 1
vn 1.0873034E-07 0 1
vn 1.0873034E-07 0 1
vn 2.5133647E-07 1.1100179E-07 1
vn 2.5133647E-07 1.1100179E-07 1
vn 2.5133647E-07 1.1100179E-07 1
vn 2.5133647E-07 1.1100179E-07 1
vn -0 0 1
vn -0 0 1
vn -0 0 1
vn -0 0 1
vn 1.6699906E-07 0 1
vn 1.6699906E-07 0 1
vn 1.6699906E-07 0 1
vn 1.6699906E-07 0 1
vn 1.6174195E-07 0 1
vn 1.6174195E-07 0 1
vn 1.6174195E-07 0 1
vn 1.6174195E-07 0 1
g starTreeGlowGeo02_0
f 3/3/3 2/2/2 1/1/1
f 4/4/4 3/3/3 1/1/1
f 7/7/7 6/6/6 5/5/5
f 8/8/8 7/7/7 5/5/5
f 11/11/11 10/10/10 9/9/9
f 12/12/12 11/11/11 9/9/9
f 15/15/15 14/14/14 13/13/13
f 16/16/16 15/15/15 13/13/13
f 19/19/19 18/18/18 17/17/17
f 20/20/20 19/19/19 17/17/17
f 23/23/23 22/22/22 21/21/21
f 24/24/24 23/23/23 21/21/21
f 27/27/27 26/26/26 25/25/25
f 28/28/28 27/27/27 25/25/25
f 31/31/31 30/30/30 29/29/29
f 32/32/32 31/31/31 29/29/29
f 35/35/35 34/34/34 33/33/33
f 36/36/36 35/35/35 33/33/33
f 39/39/39 38/38/38 37/37/37
f 40/40/40 39/39/39 37/37/37
f 43/43/43 42/42/42 41/41/41
f 44/44/44 43/43/43 41/41/41
f 47/47/47 46/46/46 45/45/45
f 48/48/48 47/47/47 45/45/45
f 51/51/51 50/50/50 49/49/49
f 52/52/52 51/51/51 49/49/49
f 55/55/55 54/54/54 53/53/53
f 56/56/56 55/55/55 53/53/53
f 59/59/59 58/58/58 57/57/57
f 60/60/60 59/59/59 57/57/57
f 63/63/63 62/62/62 61/61/61
f 64/64/64 63/63/63 61/61/61
f 67/67/67 66/66/66 65/65/65
f 68/68/68 67/67/67 65/65/65
f 71/71/71 70/70/70 69/69/69
f 72/72/72 71/71/71 69/69/69
f 75/75/75 74/74/74 73/73/73
f 76/76/76 75/75/75 73/73/73
f 79/79/79 78/78/78 77/77/77
f 80/80/80 79/79/79 77/77/77
f 83/83/83 82/82/82 81/81/81
f 84/84/84 83/83/83 81/81/81
f 87/87/87 86/86/86 85/85/85
f 88/88/88 87/87/87 85/85/85
f 91/91/91 90/90/90 89/89/89
f 92/92/92 91/91/91 89/89/89
f 95/95/95 94/94/94 93/93/93
f 96/96/96 95/95/95 93/93/93
f 99/99/99 98/98/98 97/97/97
f 100/100/100 99/99/99 97/97/97
f 103/103/103 102/102/102 101/101/101
f 104/104/104 103/103/103 101/101/101
f 107/107/107 106/106/106 105/105/105
f 108/108/108 107/107/107 105/105/105
f 111/111/111 110/110/110 109/109/109
f 112/112/112 111/111/111 109/109/109
f 115/115/115 114/114/114 113/113/113
f 116/116/116 115/115/115 113/113/113
f 119/119/119 118/118/118 117/117/117
f 120/120/120 119/119/119 117/117/117
f 123/123/123 122/122/122 121/121/121
f 124/124/124 123/123/123 121/121/121
f 127/127/127 126/126/126 125/125/125
f 128/128/128 127/127/127 125/125/125
f 131/131/131 130/130/130 129/129/129
f 132/132/132 131/131/131 129/129/129
f 135/135/135 134/134/134 133/133/133
f 136/136/136 135/135/135 133/133/133
f 139/139/139 138/138/138 137/137/137
f 140/140/140 139/139/139 137/137/137
f 143/143/143 142/142/142 141/141/141
f 144/144/144 143/143/143 141/141/141
f 147/147/147 146/146/146 145/145/145
f 148/148/148 147/147/147 145/145/145
f 151/151/151 150/150/150 149/149/149
f 152/152/152 151/151/151 149/149/149
f 155/155/155 154/154/154 153/153/153
f 156/156/156 155/155/155 153/153/153
f 159/159/159 158/158/158 157/157/157
f 160/160/160 159/159/159 157/157/157
f 163/163/163 162/162/162 161/161/161
f 164/164/164 163/163/163 161/161/161
f 167/167/167 166/166/166 165/165/165
f 168/168/168 167/167/167 165/165/165
f 171/171/171 170/170/170 169/169/169
f 172/172/172 171/171/171 169/169/169
f 175/175/175 174/174/174 173/173/173
f 176/176/176 175/175/175 173/173/173
f 179/179/179 178/178/178 177/177/177
f 180/180/180 179/179/179 177/177/177
f 183/183/183 182/182/182 181/181/181
f 184/184/184 183/183/183 181/181/181
