g starTreeGlowGeo01
v 1.025544 3.795159 1.934777
v 0.5246812 3.786069 1.934777
v 0.5155909 4.286932 1.934777
v 1.016454 4.296022 1.934777
v -0.5946712 2.598316 1.892812
v -1.068865 2.58971 1.892812
v -1.077472 3.063903 1.892812
v -0.6032779 3.07251 1.892812
v 0.13153 2.691199 2.008264
v -0.3693331 2.682108 2.008264
v -0.3784236 3.182971 2.008264
v 0.1224396 3.192061 2.008264
v 0.644467 2.686707 2.037302
v 0.24677 2.804464 2.037302
v 0.3645275 3.202161 2.037302
v 0.7622246 3.084403 2.037302
v 1.108713 2.774409 1.800182
v 0.6886489 2.898789 1.800182
v 0.8130293 3.318853 1.800182
v 1.233093 3.194473 1.800182
v -0.9559447 1.403081 1.921298
v -1.44008 1.455304 1.921298
v -1.387856 1.939438 1.921298
v -0.9037218 1.887215 1.921298
v -0.4262127 1.875597 2.228041
v -0.9375759 1.930758 2.228041
v -0.882416 2.44212 2.228041
v -0.3710526 2.38696 2.228041
v -0.3605191 5.707165 1.245382
v -0.8613822 5.698074 1.245382
v -0.8704727 6.198936 1.245382
v -0.3696095 6.208027 1.245382
v 0.7439397 6.366229 1.22133
v 0.2430767 6.357137 1.22133
v 0.2339863 6.858 1.22133
v 0.7348495 6.867092 1.22133
v 0.8629143 0.8128722 2.477812
v 0.3620512 0.803781 2.477812
v 0.3529608 1.304644 2.477812
v 0.853824 1.313735 2.477812
v 1.23647 2.020395 2.13807
v 0.7356073 2.011304 2.13807
v 0.7265167 2.512167 2.13807
v 1.22738 2.521258 2.13807
v -0.6330992 4.868729 1.639365
v -1.133962 4.859638 1.639365
v -1.143053 5.3605 1.639365
v -0.6421894 5.369592 1.639365
v -1.580575 0.51367 1.94674
v -2.081438 0.5045788 1.94674
v -2.090528 1.005441 1.94674
v -1.589665 1.014533 1.94674
v -0.3006517 6.713811 1.201424
v -0.8015149 6.70472 1.201424
v -0.8106053 7.205583 1.201424
v -0.309742 7.214674 1.201424
v 0.2811315 5.001708 1.639365
v -0.2197317 4.992617 1.639365
v -0.2288222 5.49348 1.639365
v 0.2720412 5.502571 1.639365
v 0.56513 4.347561 1.751854
v -0.04995126 4.336397 1.751854
v -0.06111473 4.951478 1.751854
v 0.553966 4.962642 1.751854
v 0.4818719 5.568678 1.381679
v -0.1332093 5.557514 1.381679
v -0.1443728 6.172595 1.381679
v 0.470708 6.183759 1.381679
v 0.440243 6.956311 0.8078216
v -0.1748383 6.945148 0.8078216
v -0.1860018 7.560228 0.8078216
v 0.4290791 7.571392 0.8078216
v 0.4442462 1.578737 2.425099
v -0.1708351 1.567574 2.425099
v -0.1819986 2.182654 2.425099
v 0.4330822 2.193818 2.425099
v -0.4894714 3.320713 2.043491
v -1.104553 3.309549 2.043491
v -1.115716 3.92463 2.043491
v -0.5006354 3.935794 2.043491
v -1.124312 3.124196 1.360011
v -1.739393 3.113032 1.360011
v -1.750557 3.728113 1.360011
v -1.135476 3.739277 1.360011
v -0.7531219 0.6980864 2.425099
v -1.368203 0.6869223 2.425099
v -1.379367 1.302004 2.425099
v -0.7642858 1.313167 2.425099
v -0.1841921 0.1985388 2.425099
v -0.7992734 0.1873746 2.425099
v -0.8104368 0.8024557 2.425099
v -0.195356 0.8136194 2.425099
v 1.564226 1.197634 2.010465
v 0.949145 1.18647 2.010466
v 0.9379815 1.801551 2.010466
v 1.553062 1.812715 2.010465
v 1.883382 0.3095493 2.010465
v 1.268301 0.2983851 2.010465
v 1.257137 0.9134662 2.010465
v 1.872218 0.9246299 2.010465
v 0.9918018 3.135978 2.157237
v 0.3767208 3.124814 2.157237
v 0.3655573 3.739895 2.157237
v 0.9806381 3.751058 2.157237
v -1.433062 1.863698 1.464588
v -2.048143 1.852534 1.464588
v -2.059307 2.467615 1.464588
v -1.444226 2.478779 1.464588
v 1.784275 2.273131 1.609878
v 0.9987581 2.258873 1.609878
v 0.9845016 3.04439 1.609878
v 1.770018 3.058647 1.609878
v 1.602512 3.560726 1.46094
v 0.9874306 3.549562 1.46094
v 0.9762673 4.164643 1.46094
v 1.591348 4.175807 1.46094
v 0.3265159 3.142633 2.206672
v -0.30146 3.210371 2.206673
v -0.2337211 3.838347 2.206672
v 0.3942542 3.770608 2.206672
v -2.131578 0.1834135 484.7352
v -2.697556 0.17314 484.7352
v -2.707828 0.7391179 484.7352
v -2.14185 0.7493908 484.7352
v 1.871467 1.152478 2.010465
v 1.35312 1.14307 2.010466
v 1.343712 1.661417 2.010466
v 1.862059 1.670825 2.010465
v 0.2101852 2.142217 2.425099
v -0.4048962 2.131053 2.425099
v -0.4160597 2.746134 2.425099
v 0.1990212 2.757298 2.425099
v 1.22026 5.449732 1.123182
v 0.767896 5.441521 1.123182
v 0.7596858 5.893885 1.123182
v 1.212049 5.902095 1.123182
v 1.273146 4.234279 1.751854
v 0.6580643 4.223115 1.751854
v 0.6469008 4.838196 1.751854
v 1.261982 4.84936 1.751854
v 0.6157712 0.1120768 2.477812
v -0.02526969 0.100441 2.477812
v -0.03690428 0.7414815 2.477812
v 0.6041368 0.753117 2.477812
v -0.8568874 2.062324 1.921298
v -1.341022 2.114547 1.921298
v -1.288799 2.598681 1.921298
v -0.8046646 2.546458 1.921298
vt 0.9999995 2.132019E-07
vt 0.9999995 1
vt -2.988396E-07 0.9999998
vt -3.42551E-07 4.281889E-08
vt 4.371139E-08 1
vt 0 0
vt 0.9999999 3.633321E-07
vt 0.9999999 0.9999999
vt 4.371136E-08 0.9999994
vt 3.743343E-15 8.563771E-08
vt 0.9999989 7.27028E-07
vt 0.9999987 1
vt 0.9999989 4.371134E-08
vt 0.9999991 1
vt -2.505749E-07 0.9999992
vt 2.068636E-07 9.042294E-15
vt 6.312579E-07 0.9999989
vt 0 0
vt 0.9999995 -4.354091E-07
vt 0.9999996 0.9999996
vt 4.371139E-08 1
vt 0 0
vt 0.9999984 3.388325E-10
vt 0.9999992 0.999999
vt 4.371138E-08 0.9999999
vt 1.822968E-15 4.170464E-08
vt 0.9999986 -4.371132E-08
vt 0.9999996 1
vt 4.371136E-08 0.9999994
vt 3.743343E-15 8.563771E-08
vt 0.9999989 7.27028E-07
vt 0.9999987 1
vt 4.371136E-08 0.9999994
vt 3.743343E-15 8.563771E-08
vt 0.9999989 7.27028E-07
vt 0.9999987 1
vt 4.371136E-08 0.9999994
vt 3.743343E-15 8.563771E-08
vt 0.9999989 7.27028E-07
vt 0.9999987 1
vt 4.371136E-08 0.9999994
vt 3.743343E-15 8.563771E-08
vt 0.9999989 7.27028E-07
vt 0.9999987 1
vt 4.371136E-08 0.9999994
vt 3.743343E-15 8.563771E-08
vt 0.9999989 7.27028E-07
vt 0.9999987 1
vt 4.371136E-08 0.9999994
vt 3.743343E-15 8.563771E-08
vt 0.9999989 7.27028E-07
vt 0.9999987 1
vt 4.371136E-08 0.9999994
vt 3.743343E-15 8.563771E-08
vt 0.9999989 7.27028E-07
vt 0.9999987 1
vt 4.371136E-08 0.9999994
vt 3.743343E-15 8.563771E-08
vt 0.9999989 7.27028E-07
vt 0.9999987 1
vt 0.9999992 3.226521E-07
vt 0.9999997 1
vt -8.843812E-09 1
vt 3.486758E-08 2.789407E-07
vt 0.9999992 3.226521E-07
vt 0.9999997 1
vt -8.843812E-09 1
vt 3.486758E-08 2.789407E-07
vt 0.9999992 3.226521E-07
vt 0.9999997 1
vt -8.843812E-09 1
vt 3.486758E-08 2.789407E-07
vt 0.9999992 3.226521E-07
vt 0.9999997 1
vt -8.843812E-09 1
vt 3.486758E-08 2.789407E-07
vt 0.9999992 3.226521E-07
vt 0.9999997 1
vt -8.843812E-09 1
vt 3.486758E-08 2.789407E-07
vt 0.9999992 3.226521E-07
vt 0.9999997 1
vt -8.843812E-09 1
vt 3.486758E-08 2.789407E-07
vt 0.9999992 3.226521E-07
vt 0.9999997 1
vt -8.843812E-09 1
vt 3.486758E-08 2.789407E-07
vt 0.9999992 3.226521E-07
vt 0.9999997 1
vt -8.843812E-09 1
vt 3.486758E-08 2.789407E-07
vt 0.9999992 3.226521E-07
vt 0.9999997 1
vt -8.843812E-09 1
vt 3.486758E-08 2.789407E-07
vt 0.9999992 3.226521E-07
vt 0.9999997 1
vt -8.843812E-09 1
vt 3.486758E-08 2.789407E-07
vt 0.9999992 3.226521E-07
vt 0.9999997 1
vt -8.843812E-09 1
vt 3.486758E-08 2.789407E-07
vt 0.9999992 3.226521E-07
vt 0.9999997 1
vt -8.843812E-09 1
vt 3.486758E-08 2.789407E-07
vt 0.9999992 3.226521E-07
vt 0.9999997 1
vt -8.843812E-09 1
vt 3.486758E-08 2.789407E-07
vt 0.9999992 3.226521E-07
vt 0.9999997 1
vt -8.843812E-09 1
vt 3.486758E-08 2.789407E-07
vt 0 1.086728E-06
vt 0.9999999 0
vt 0.9999999 0.9999998
vt 1.086728E-06 1
vt 4.371136E-08 0.9999994
vt 3.743343E-15 8.563771E-08
vt 0.9999989 7.27028E-07
vt 0.9999987 1
vt 0.9999992 3.226521E-07
vt 0.9999997 1
vt -8.843812E-09 1
vt 3.486758E-08 2.789407E-07
vt 0.9999992 3.226521E-07
vt 0.9999997 1
vt -8.843812E-09 1
vt 3.486758E-08 2.789407E-07
vt 0.9999992 3.226521E-07
vt 0.9999997 1
vt -8.843812E-09 1
vt 3.486758E-08 2.789407E-07
vt 0.9999992 3.226521E-07
vt 0.9999997 1
vt -8.843812E-09 1
vt 3.486758E-08 2.789407E-07
vt 4.371136E-08 0.9999994
vt 3.743343E-15 8.563771E-08
vt 0.9999989 7.27028E-07
vt 0.9999987 1
vt 4.371139E-08 1
vt 0 0
vt 0.9999984 3.388325E-10
vt 0.9999992 0.999999
vn 0 2.078295E-07 1
vn 0 2.078295E-07 1
vn 0 2.078295E-07 1
vn 0 2.078295E-07 1
vn -2.513107E-07 1.076511E-07 1
vn -2.513107E-07 1.076511E-07 1
vn -2.513107E-07 1.076511E-07 1
vn -2.513107E-07 1.076511E-07 1
vn 0 0 1
vn 0 0 1
vn 0 0 1
vn 0 0 1
vn 0 1.732395E-07 1
vn 0 1.732395E-07 1
vn 0 1.732395E-07 1
vn 0 1.732395E-07 1
vn 0 0 1
vn 0 0 1
vn 0 0 1
vn 0 0 1
vn 0 -2.513761E-07 1
vn 0 -2.513761E-07 1
vn 0 -2.513761E-07 1
vn 0 -2.513761E-07 1
vn 2.055821E-07 -8.731103E-07 1
vn 2.055821E-07 -8.731103E-07 1
vn 2.055821E-07 -8.731103E-07 1
vn 2.055821E-07 -8.731103E-07 1
vn 0 1.52161E-07 1
vn 0 1.52161E-07 1
vn 0 1.52161E-07 1
vn 0 1.52161E-07 1
vn 0 1.039148E-07 1
vn 0 1.039148E-07 1
vn 0 1.039148E-07 1
vn 0 1.039148E-07 1
vn 0 -4.601941E-07 1
vn 0 -4.601941E-07 1
vn 0 -4.601941E-07 1
vn 0 -4.601941E-07 1
vn 0 3.785466E-07 1
vn 0 3.785466E-07 1
vn 0 3.785466E-07 1
vn 0 3.785466E-07 1
vn 0 0 1
vn 0 0 1
vn 0 0 1
vn 0 0 1
vn 0 0 1
vn 0 0 1
vn 0 0 1
vn 0 0 1
vn 0 1.447385E-07 1
vn 0 1.447385E-07 1
vn 0 1.447385E-07 1
vn 0 1.447385E-07 1
vn 0 -1.298934E-07 1
vn 0 -1.298934E-07 1
vn 0 -1.298934E-07 1
vn 0 -1.298934E-07 1
vn 0 0 1
vn 0 0 1
vn 0 0 1
vn 0 0 1
vn 1.937469E-07 0 1
vn 1.937469E-07 0 1
vn 1.937469E-07 0 1
vn 1.937469E-07 0 1
vn 1.937469E-07 0 1
vn 1.937469E-07 0 1
vn 1.937469E-07 0 1
vn 1.937469E-07 0 1
vn 0 0 1
vn 0 0 1
vn 0 0 1
vn 0 0 1
vn 3.874938E-07 0 1
vn 3.874938E-07 0 1
vn 3.874938E-07 0 1
vn 3.874938E-07 0 1
vn 0 0 1
vn 0 0 1
vn 0 0 1
vn 0 0 1
vn 3.874937E-07 0 1
vn 3.874937E-07 0 1
vn 3.874937E-07 0 1
vn 3.874937E-07 0 1
vn 0 0 1
vn 0 0 1
vn 0 0 1
vn 0 0 1
vn 3.874937E-07 0 1
vn 3.874937E-07 0 1
vn 3.874937E-07 0 1
vn 3.874937E-07 0 1
vn 0 0 1
vn 0 0 1
vn 0 0 1
vn 0 0 1
vn 3.874938E-07 -1.279664E-07 1
vn 3.874938E-07 -1.279664E-07 1
vn 3.874938E-07 -1.279664E-07 1
vn 3.874938E-07 -1.279664E-07 1
vn 3.874938E-07 0 1
vn 3.874938E-07 0 1
vn 3.874938E-07 0 1
vn 3.874938E-07 0 1
vn 3.034182E-07 0 1
vn 3.034182E-07 0 1
vn 3.034182E-07 0 1
vn 3.034182E-07 0 1
vn 1.937469E-07 0 1
vn 1.937469E-07 0 1
vn 1.937469E-07 0 1
vn 1.937469E-07 0 1
vn 2.078887E-07 4.108691E-07 1
vn 2.078887E-07 4.108691E-07 1
vn 2.078887E-07 4.108691E-07 1
vn 2.078887E-07 4.108691E-07 1
vn 0 3.869023E-05 1
vn 0 3.869023E-05 1
vn 0 3.869023E-05 1
vn 0 3.869023E-05 1
vn 4.59808E-07 0 1
vn 4.59808E-07 0 1
vn 4.59808E-07 0 1
vn 4.59808E-07 0 1
vn 3.874936E-07 -3.592901E-07 1
vn 3.874936E-07 -3.592901E-07 1
vn 3.874936E-07 -3.592901E-07 1
vn 3.874936E-07 -3.592901E-07 1
vn 0 -1.956366E-07 1
vn 0 -1.956366E-07 1
vn 0 -1.956366E-07 1
vn 0 -1.956366E-07 1
vn 0 0 1
vn 0 0 1
vn 0 0 1
vn 0 0 1
vn 0 -1.495305E-07 1
vn 0 -1.495305E-07 1
vn 0 -1.495305E-07 1
vn 0 -1.495305E-07 1
vn 0 0 1
vn 0 0 1
vn 0 0 1
vn 0 0 1
g starTreeGlowGeo01_0
f 3/3/3 2/2/2 1/1/1
f 4/4/4 3/3/3 1/1/1
f 7/7/7 6/6/6 5/5/5
f 8/8/8 7/7/7 5/5/5
f 11/11/11 10/10/10 9/9/9
f 12/12/12 11/11/11 9/9/9
f 15/15/15 14/14/14 13/13/13
f 16/16/16 15/15/15 13/13/13
f 19/19/19 18/18/18 17/17/17
f 20/20/20 19/19/19 17/17/17
f 23/23/23 22/22/22 21/21/21
f 24/24/24 23/23/23 21/21/21
f 27/27/27 26/26/26 25/25/25
f 28/28/28 27/27/27 25/25/25
f 31/31/31 30/30/30 29/29/29
f 32/32/32 31/31/31 29/29/29
f 35/35/35 34/34/34 33/33/33
f 36/36/36 35/35/35 33/33/33
f 39/39/39 38/38/38 37/37/37
f 40/40/40 39/39/39 37/37/37
f 43/43/43 42/42/42 41/41/41
f 44/44/44 43/43/43 41/41/41
f 47/47/47 46/46/46 45/45/45
f 48/48/48 47/47/47 45/45/45
f 51/51/51 50/50/50 49/49/49
f 52/52/52 51/51/51 49/49/49
f 55/55/55 54/54/54 53/53/53
f 56/56/56 55/55/55 53/53/53
f 59/59/59 58/58/58 57/57/57
f 60/60/60 59/59/59 57/57/57
f 63/63/63 62/62/62 61/61/61
f 64/64/64 63/63/63 61/61/61
f 67/67/67 66/66/66 65/65/65
f 68/68/68 67/67/67 65/65/65
f 71/71/71 70/70/70 69/69/69
f 72/72/72 71/71/71 69/69/69
f 75/75/75 74/74/74 73/73/73
f 76/76/76 75/75/75 73/73/73
f 79/79/79 78/78/78 77/77/77
f 80/80/80 79/79/79 77/77/77
f 83/83/83 82/82/82 81/81/81
f 84/84/84 83/83/83 81/81/81
f 87/87/87 86/86/86 85/85/85
f 88/88/88 87/87/87 85/85/85
f 91/91/91 90/90/90 89/89/89
f 92/92/92 91/91/91 89/89/89
f 95/95/95 94/94/94 93/93/93
f 96/96/96 95/95/95 93/93/93
f 99/99/99 98/98/98 97/97/97
f 100/100/100 99/99/99 97/97/97
f 103/103/103 102/102/102 101/101/101
f 104/104/104 103/103/103 101/101/101
f 107/107/107 106/106/106 105/105/105
f 108/108/108 107/107/107 105/105/105
f 111/111/111 110/110/110 109/109/109
f 112/112/112 111/111/111 109/109/109
f 115/115/115 114/114/114 113/113/113
f 116/116/116 115/115/115 113/113/113
f 119/119/119 118/118/118 117/117/117
f 120/120/120 119/119/119 117/117/117
f 123/123/123 122/122/122 121/121/121
f 124/124/124 123/123/123 121/121/121
f 127/127/127 126/126/126 125/125/125
f 128/128/128 127/127/127 125/125/125
f 131/131/131 130/130/130 129/129/129
f 132/132/132 131/131/131 129/129/129
f 135/135/135 134/134/134 133/133/133
f 136/136/136 135/135/135 133/133/133
f 139/139/139 138/138/138 137/137/137
f 140/140/140 139/139/139 137/137/137
f 143/143/143 142/142/142 141/141/141
f 144/144/144 143/143/143 141/141/141
f 147/147/147 146/146/146 145/145/145
f 148/148/148 147/147/147 145/145/145
