g StoneWall_Mesh05
v 0.022059646 -0.026012585 0.09355935
v 0.023547338 0.027362429 0.10522103
v 0.13673404 0.021504352 0.08626046
v 0.14778163 -0.031307537 0.0878547
v -0.15583381 -0.0034714239 0.11406365
v 0.1431073 0.03350764 0.007394651
v 0.14915384 -0.018047953 0.009056181
v -0.14274317 0.042970914 0.1133619
v -0.17612962 0.0063958243 0.03624467
v 0.004052748 0.039362207 0.011023802
v 0.041506894 0.010018872 -0.092003316
v 0.06546027 -0.046755534 -0.09662425
v -0.16037366 0.046847906 0.035919964
v -0.16265832 -0.016655551 -0.06430353
v -0.042608473 0.013795384 -0.08309737
v -0.043776076 -0.03859277 -0.0814973
v -0.15454905 0.03827147 -0.065897696
vt 0.57712734 0.27110583
vt 0.5715498 0.28926685
vt 0.6910552 0.297263
vt 0.70565563 0.2870177
vt 0.425303 0.27374262
vt 0.68449765 0.386752
vt 0.6986843 0.39104682
vt 0.4343138 0.29453567
vt 0.40160042 0.34085333
vt 0.56165415 0.36390904
vt 0.6613046 0.44485953
vt 0.66661656 0.46023202
vt 0.4106238 0.34232622
vt 0.41423798 0.44201767
vt 0.55068004 0.4389216
vt 0.54901177 0.45243716
vt 0.42529982 0.43330333
vn 0.08217359 -0.10396756 0.99118024
vn 0.10057281 0.7835773 0.6131002
vn 0.35336486 0.7543562 0.5532449
vn 0.5935207 0.020270271 0.8045633
vn -0.29193187 0.01481732 0.9563243
vn 0.45306998 0.8582431 -0.24113558
vn 0.86784124 0.21130265 -0.4496697
vn -0.07179376 0.8026115 0.59216595
vn -0.9621719 0.27128008 0.025148705
vn 0.061486136 0.9954993 -0.07211419
vn 0.19891879 0.72097194 -0.66380024
vn 0.4814466 0.15993334 -0.8617602
vn -0.2080234 0.97754705 -0.033587284
vn -0.5988042 0.108677275 -0.79348785
vn -0.002478508 0.8143267 -0.58040154
vn -0.13734812 -0.007611399 -0.9904936
vn -0.22417173 0.84571177 -0.4842714
g StoneWall_Mesh05_0
f 3/3/3 2/2/2 1/1/1
f 4/4/4 3/3/3 1/1/1
f 1/1/1 2/2/2 5/5/5
f 6/6/6 3/3/3 4/4/4
f 3/3/3 6/6/6 2/2/2
f 7/7/7 6/6/6 4/4/4
f 2/2/2 8/8/8 5/5/5
f 5/5/5 8/8/8 9/9/9
f 6/6/6 10/10/10 2/2/2
f 2/2/2 10/10/10 8/8/8
f 11/11/11 6/6/6 7/7/7
f 6/6/6 11/11/11 10/10/10
f 12/12/12 11/11/11 7/7/7
f 8/8/8 13/13/13 9/9/9
f 10/10/10 13/13/13 8/8/8
f 9/9/9 13/13/13 14/14/14
f 11/11/11 15/15/15 10/10/10
f 15/15/15 11/11/11 12/12/12
f 10/10/10 15/15/15 13/13/13
f 16/16/16 15/15/15 12/12/12
f 13/13/13 17/17/17 14/14/14
f 15/15/15 17/17/17 13/13/13
f 17/17/17 15/15/15 16/16/16
f 14/14/14 17/17/17 16/16/16
