g StoneWall_Mesh07
v -0.01487542 0.03250232 0.1025216
v 0.05586702 -0.0162005 0.09698754
v -0.02470253 0.004170673 0.1119889
v -0.08528693 0.006191586 0.1108208
v -0.07363764 0.02367072 0.1033505
v -0.09602156 0.0001026422 0.02693269
v -0.08099379 0.02745116 0.02182687
v -0.1242756 -0.01639943 -0.05508837
v 0.01371377 0.03138686 0.01076784
v 0.06260373 0.02691245 0.08754792
v -0.1037507 0.02157534 -0.05636461
v -0.007096544 -0.03046739 -0.08234172
v 0.002847628 0.02292616 -0.08462264
v 0.1139083 -0.04774602 -0.08078764
v 0.0898343 0.008997067 -0.08512412
v 0.144402 -0.0200142 -0.0006961692
v 0.1307576 0.008674381 -0.0003564323
v 0.1294924 -0.009346897 0.0642724
v 0.1147303 0.01295623 0.06436807
vt 0.5741292 0.8306819
vt 0.6540099 0.8278502
vt 0.5776208 0.8262542
vt 0.4716623 0.8294015
vt 0.4768913 0.834973
vt 0.4717791 0.9104664
vt 0.4751464 0.9103135
vt 0.4820837 0.9967366
vt 0.5782513 0.9012394
vt 0.6507592 0.8315361
vt 0.4872255 0.9941349
vt 0.5738798 0.9982127
vt 0.5746149 0.9924321
vt 0.692117 0.9981365
vt 0.6886303 0.9935743
vt 0.7010863 0.9179479
vt 0.6960035 0.9167978
vt 0.7032229 0.8306223
vt 0.6974038 0.8355912
vn 0.0230239 0.9285371 0.370525
vn 0.2898297 0.1944566 0.9371155
vn 0.1268268 0.2628717 0.9564589
vn -0.6900789 0.568823 0.4474725
vn -0.2955748 0.9285256 0.2246682
vn -0.8507439 0.5015802 0.1570095
vn -0.261758 0.9651269 0.003579208
vn -0.6434338 0.2865475 -0.7098475
vn 0.064322 0.9962223 -0.05834173
vn 0.2681073 0.8860832 0.3781203
vn -0.3618003 0.7898449 -0.4952227
vn -0.1236556 -0.008833244 -0.9922858
vn 0.002747568 0.821774 -0.5698071
vn 0.5191993 0.1832826 -0.8347691
vn 0.295474 0.744089 -0.5991883
vn 0.873263 0.3967356 -0.282865
vn 0.472376 0.868256 -0.1516325
vn 0.75463 0.396116 0.5230923
vn 0.4007504 0.8825564 0.2459538
g StoneWall_Mesh07_0
f 3/3/3 2/2/2 1/1/1
f 3/3/3 1/1/1 4/4/4
f 1/1/1 5/5/5 4/4/4
f 4/4/4 5/5/5 6/6/6
f 5/5/5 7/7/7 6/6/6
f 6/6/6 7/7/7 8/8/8
f 1/1/1 9/9/9 5/5/5
f 9/9/9 7/7/7 5/5/5
f 2/2/2 10/10/10 1/1/1
f 1/1/1 10/10/10 9/9/9
f 7/7/7 11/11/11 8/8/8
f 8/8/8 11/11/11 12/12/12
f 13/13/13 11/11/11 7/7/7
f 11/11/11 13/13/13 12/12/12
f 9/9/9 13/13/13 7/7/7
f 12/12/12 13/13/13 14/14/14
f 13/13/13 15/15/15 14/14/14
f 15/15/15 13/13/13 9/9/9
f 14/14/14 15/15/15 16/16/16
f 17/17/17 15/15/15 9/9/9
f 15/15/15 17/17/17 16/16/16
f 17/17/17 9/9/9 10/10/10
f 16/16/16 17/17/17 18/18/18
f 19/19/19 10/10/10 2/2/2
f 18/18/18 19/19/19 2/2/2
f 19/19/19 17/17/17 10/10/10
f 17/17/17 19/19/19 18/18/18
