g StoneWall_Mesh04
v 0.5729374 0.3494469 0.3110205
v 0.5723633 0.3996804 0.3145593
v 0.5797868 0.3944399 0.300222
v 0.4025923 0.4002766 0.2263934
v 0.4008946 0.406394 0.2612122
v 0.4004262 0.352804 0.2564421
v 0.6061969 0.4179954 0.2372754
v 0.6069574 0.4309352 0.2090548
v 0.6098493 0.416344 0.2058697
v 0.5976827 0.4340345 0.2382789
v 0.5932875 0.4138627 0.2690431
v 0.5860511 0.4268388 0.2675992
v 0.6098493 0.416344 0.2058697
v 0.6069574 0.4309352 0.2090548
v 0.567583 0.4383162 0.1876175
v 0.5698423 0.4259003 0.1825862
v 0.4744219 0.4376778 0.1587673
v 0.4740844 0.4249533 0.1513582
v 0.4326639 0.442106 0.1660954
v 0.4300524 0.4248693 0.16513
v 0.5797868 0.3944399 0.300222
v 0.5723633 0.3996804 0.3145593
v 0.5860511 0.4268388 0.2675992
v 0.5932875 0.4138627 0.2690431
v 0.4300524 0.4248693 0.16513
v 0.4326639 0.442106 0.1660954
v 0.4167147 0.4418107 0.178273
v 0.4115684 0.4246219 0.1762733
v 0.4026116 0.4202414 0.2077727
v 0.4008946 0.406394 0.2612122
v 0.4025923 0.4002766 0.2263934
v 0.4107026 0.4364945 0.216412
v 0.4115684 0.4246219 0.1762733
v 0.4167147 0.4418107 0.178273
v 0.4008946 0.406394 0.2612122
v 0.4431936 0.3449161 0.2679429
v 0.4004262 0.352804 0.2564421
v 0.4420138 0.4074419 0.2821955
v 0.5366539 0.3997987 0.3046617
v 0.5373884 0.3496957 0.2955366
v 0.5729374 0.3494469 0.3110205
v 0.5723633 0.3996804 0.3145593
v 0.4107026 0.4364945 0.216412
v 0.5860511 0.4268388 0.2675992
v 0.4542507 0.4360851 0.2329601
v 0.5485333 0.4286815 0.2599885
v 0.5976827 0.4340345 0.2382789
v 0.5598196 0.4462059 0.2192662
v 0.6069574 0.4309352 0.2090548
v 0.567583 0.4383162 0.1876175
v 0.4744219 0.4376778 0.1587673
v 0.4643529 0.449222 0.189161
v 0.4167147 0.4418107 0.178273
v 0.4326639 0.442106 0.1660954
vt 1.028043 0.7271566
vt 1.030117 0.7635514
vt 1.030117 0.7635514
vt 0.8626947 0.7634694
vt 0.8626947 0.7634694
vt 0.8650019 0.7229669
vt 1.031897 0.8229328
vt 1.025174 0.8762266
vt 1.025174 0.8762266
vt 1.031897 0.8229328
vt 1.03042 0.7822172
vt 1.03042 0.7823324
vt 1.025174 0.8762266
vt 1.025174 0.8762266
vt 0.9893625 0.8803529
vt 0.9893625 0.8803529
vt 0.9041336 0.8775745
vt 0.9041336 0.8775745
vt 0.8645579 0.8407898
vt 0.8645579 0.8407898
vt 1.030117 0.7635514
vt 1.030117 0.7635514
vt 1.03042 0.7823324
vt 1.03042 0.7824475
vt 0.8645579 0.8407898
vt 0.8645579 0.8407898
vt 0.8620277 0.8339279
vt 0.8620277 0.8339279
vt 0.8624647 0.7911781
vt 0.8626947 0.7634694
vt 0.8626947 0.7634694
vt 0.8624647 0.7911781
vt 0.8620277 0.8339279
vt 0.8620277 0.8339279
vt 0.8626947 0.7634694
vt 0.9036469 0.7189668
vt 0.8650019 0.7229669
vt 0.9043097 0.7634856
vt 0.9928519 0.7635199
vt 0.9908888 0.7239179
vt 1.028043 0.7271566
vt 1.030117 0.7635514
vt 0.8624647 0.7911781
vt 1.03042 0.7823324
vt 0.9041533 0.7883937
vt 0.9928519 0.7824695
vt 1.031897 0.8229328
vt 0.9929163 0.8319771
vt 1.025174 0.8762266
vt 0.9893625 0.8803529
vt 0.9041336 0.8775745
vt 0.9045191 0.8335581
vt 0.8620277 0.8339279
vt 0.8645579 0.8407898
vn 0.8843789 -0.02273557 0.4662157
vn 0.8843789 -0.02273557 0.4662157
vn 0.8843789 -0.02273557 0.4662158
vn -0.9986093 0.01327016 -0.05102191
vn -0.9986093 0.01327017 -0.05102192
vn -0.9986093 0.01327016 -0.05102192
vn 0.8772562 0.3841707 0.2878096
vn 0.9304943 0.3228257 0.1731013
vn 0.9304943 0.3228256 0.1731013
vn 0.8644359 0.3956111 0.3102301
vn 0.8132421 0.372644 0.4469605
vn 0.8108917 0.3894338 0.4368019
vn 0.5156617 0.337893 -0.7873508
vn 0.5156617 0.3378929 -0.7873508
vn 0.3445499 0.4155707 -0.8417757
vn 0.356464 0.410849 -0.8391285
vn 0.112304 0.4026194 -0.9084522
vn 0.1061908 0.4007939 -0.9099934
vn -0.2155909 0.2824902 -0.9347299
vn -0.2155908 0.2824901 -0.9347299
vn 0.8183838 0.321433 0.4763704
vn 0.8183838 0.321433 0.4763704
vn 0.8108917 0.3894338 0.4368019
vn 0.8132421 0.372644 0.4469605
vn -0.5521825 0.1942644 -0.8107748
vn -0.5521826 0.1942644 -0.8107748
vn -0.8323728 0.3486171 -0.4308383
vn -0.8547018 0.3629939 -0.3711068
vn -0.9531509 0.2997633 -0.04055988
vn -0.9738513 0.2255571 0.02715767
vn -0.9738513 0.2255571 0.02715767
vn -0.9531991 0.2996273 -0.04043354
vn -0.8547018 0.3629939 -0.3711068
vn -0.8323728 0.3486171 -0.4308383
vn -0.3494476 0.4331715 0.8308122
vn -0.2902133 -0.1858644 0.9387389
vn -0.3676756 -0.1525393 0.9173584
vn -0.2440739 0.4080999 0.8797059
vn -0.2138956 0.4055033 0.8887158
vn -0.2731564 -0.1822651 0.9445449
vn -0.3335786 -0.1223293 0.9347517
vn -0.2508245 0.4694206 0.8465999
vn -0.1788503 0.9221762 0.342934
vn -0.02815753 0.9015144 0.4318322
vn -0.09781576 0.9072921 0.4089657
vn -0.05158453 0.8993731 0.4341277
vn 0.1588707 0.9737293 0.1631301
vn 0.05854107 0.99364 0.09618971
vn 0.2889812 0.9529853 -0.09115379
vn 0.1483484 0.9627316 -0.2261425
vn 0.07697085 0.9593493 -0.2715223
vn -0.0169573 0.9978637 0.06309179
vn -0.1099731 0.9896998 0.09165314
vn -0.02148428 0.9632727 -0.2676643
g StoneWall_Mesh04_0
f 3/3/3 2/2/2 1/1/1
f 6/6/6 5/5/5 4/4/4
f 9/9/9 8/8/8 7/7/7
f 8/8/8 10/10/10 7/7/7
f 7/7/7 10/10/10 11/11/11
f 10/10/10 12/12/12 11/11/11
f 15/15/15 14/14/14 13/13/13
f 16/16/16 15/15/15 13/13/13
f 17/17/17 15/15/15 16/16/16
f 18/18/18 17/17/17 16/16/16
f 19/19/19 17/17/17 18/18/18
f 20/20/20 19/19/19 18/18/18
f 23/23/23 22/22/22 21/21/21
f 24/24/24 23/23/23 21/21/21
f 27/27/27 26/26/26 25/25/25
f 28/28/28 27/27/27 25/25/25
f 31/31/31 30/30/30 29/29/29
f 30/30/30 32/32/32 29/29/29
f 29/29/29 32/32/32 33/33/33
f 32/32/32 34/34/34 33/33/33
f 37/37/37 36/36/36 35/35/35
f 36/36/36 38/38/38 35/35/35
f 39/39/39 38/38/38 36/36/36
f 40/40/40 39/39/39 36/36/36
f 40/40/40 41/41/41 39/39/39
f 41/41/41 42/42/42 39/39/39
f 35/35/35 38/38/38 43/43/43
f 42/42/42 44/44/44 39/39/39
f 38/38/38 45/45/45 43/43/43
f 38/38/38 39/39/39 45/45/45
f 44/44/44 46/46/46 39/39/39
f 39/39/39 46/46/46 45/45/45
f 44/44/44 47/47/47 46/46/46
f 47/47/47 48/48/48 46/46/46
f 45/45/45 46/46/46 48/48/48
f 47/47/47 49/49/49 48/48/48
f 49/49/49 50/50/50 48/48/48
f 48/48/48 50/50/50 51/51/51
f 43/43/43 45/45/45 52/52/52
f 52/52/52 45/45/45 48/48/48
f 52/52/52 48/48/48 51/51/51
f 53/53/53 43/43/43 52/52/52
f 52/52/52 51/51/51 54/54/54
f 53/53/53 52/52/52 54/54/54
