g tendril_right_thick_mesh
v 0.14860904 0.041200623 0.2674654
v 0.16566585 0.046579257 0.29196805
v 0.14554253 0.029718384 0.28010368
v 0.16229564 0.05375074 0.2822395
v 0.17079955 0.057728395 0.27618486
v 0.16114938 0.046618447 0.25475854
v 0.17850989 0.05445613 0.24824344
v 0.18258551 0.034871683 0.28858805
v 0.17669743 0.03212847 0.29381967
v 0.18065546 0.06252898 0.27346122
v 0.19863321 0.063704625 0.24883129
v 0.16884992 0.016531453 0.26969916
v 0.17209277 0.02156718 0.25433725
v 0.16334394 0.015473351 0.28337598
v 0.14554253 0.029718384 0.28010368
v 0.14860904 0.041200623 0.2674654
v 0.16114938 0.046618447 0.25475854
v 0.17850989 0.05445613 0.24824344
v 0.18724895 0.03603752 0.28489453
v 0.19432247 0.036968276 0.2827587
v 0.18953167 0.029424474 0.2473421
v 0.21057591 0.037820622 0.24887045
v 0.19863321 0.063704625 0.24883129
v 0.21837443 0.07435413 0.25813854
v 0.20269902 0.04242526 0.28496307
v 0.2294354 0.04812719 0.26647592
v 0.23259006 0.08514078 0.27847737
v 0.19157927 0.06810354 0.27571458
v 0.20217976 0.0730903 0.28303307
v 0.21837443 0.07435413 0.25813854
v 0.23259006 0.08514078 0.27847737
v 0.21116374 0.0484799 0.29032212
v 0.20815602 0.07777332 0.29533827
v 0.21718898 0.05382912 0.3023628
v 0.24290645 0.056092277 0.28825492
v 0.24561046 0.06636946 0.31927264
v 0.2362542 0.09550615 0.30780023
v 0.20883203 0.08277966 0.31026906
v 0.2362542 0.09550615 0.30780023
v 0.20234632 0.088373825 0.32475907
v 0.22855365 0.10243271 0.3432756
v 0.20167032 0.10355939 0.36691612
v 0.21802174 0.05844359 0.31924325
v 0.23118909 0.073178455 0.3510937
v 0.22855365 0.10243271 0.3432756
v 0.20167032 0.10355939 0.36691612
v 0.21002728 0.06259756 0.33676052
v 0.19232385 0.06402795 0.3487816
v 0.18653375 0.091342345 0.33655477
v 0.16303042 0.08958866 0.34667522
v 0.17017254 0.10199185 0.37954462
v 0.13602951 0.096985504 0.38377696
v 0.20454088 0.0748048 0.37324506
v 0.17588426 0.073844686 0.38728434
v 0.17017254 0.10199185 0.37954462
v 0.16981004 0.06162764 0.3578244
v 0.14355372 0.069798455 0.39610177
v 0.13602951 0.096985504 0.38377696
v 0.14590503 0.05426021 0.3644864
v 0.110596165 0.059452668 0.39644468
v 0.10304257 0.0877174 0.3826307
v 0.13764605 0.08339687 0.35017282
v 0.11213431 0.07419737 0.34892857
v 0.10304257 0.0877174 0.3826307
v 0.07180931 0.0778615 0.3695613
v 0.12013857 0.044580624 0.36456478
v 0.07690382 0.04855828 0.38352227
v 0.07180931 0.0778615 0.3695613
v 0.08726919 0.064410046 0.33770108
v 0.04560198 0.07089575 0.34628332
v 0.09270659 0.03302981 0.35396427
v 0.04309392 0.040554002 0.3639084
v 0.04560198 0.07089575 0.34628332
v 0.065039486 0.05476965 0.32185912
v 0.020756453 0.0662715 0.32424957
v 0.06326622 0.02141042 0.3402189
v 0.012017399 0.034499392 0.3396017
v 0.020756453 0.0662715 0.32424957
v 0.04405403 0.04957716 0.30123615
v -0.0021394491 0.06529178 0.29771894
v 0.03603998 0.014718965 0.3169409
v -0.015688881 0.030071065 0.30858397
v -0.0021394491 0.06529178 0.29771894
v 0.025233746 0.049586967 0.27712536
v -0.020871565 0.06584041 0.2665543
v 0.013104886 0.012446031 0.286609
v -0.036449 0.031393692 0.27105117
v -0.020871565 0.06584041 0.2665543
v -0.050752833 0.034479782 0.23281296
v -0.035087213 0.06822111 0.23173527
v -0.04215096 0.06988664 0.19524096
v -0.0047160834 0.015620306 0.2541511
v 0.008735374 0.051967666 0.25102586
v -0.035087213 0.06822111 0.23173527
v -0.017227039 0.019911453 0.21960641
v -0.0036776066 0.05475007 0.22076248
v -0.04215096 0.06988664 0.19524096
v -0.05666049 0.037399337 0.19318356
v -0.04462962 0.07223795 0.15598385
v -0.023056343 0.02373232 0.18436612
v -0.010349438 0.057316914 0.18765797
v -0.04462962 0.07223795 0.15598385
v -0.056170657 0.040632382 0.1516731
v -0.04043643 0.07477541 0.11368962
v -0.024663076 0.028199837 0.14688231
v -0.013523713 0.0607263 0.15258424
v -0.04043643 0.07477541 0.11368962
v -0.05158557 0.044345513 0.106851205
v -0.031952128 0.08215265 0.07271801
v -0.020244554 0.032765284 0.10767417
v -0.010751143 0.064625576 0.115815595
v -0.031952128 0.08215265 0.07271801
v -0.041220203 0.053074762 0.063665465
v -0.019000307 0.09011771 0.03350009
v -0.011828825 0.04195501 0.06933798
v -0.004030302 0.0726984 0.08003645
v -0.019000307 0.09011771 0.03350009
v -0.02664207 0.062391832 0.021625951
v -0.0017181784 0.100287125 0.0017475635
v 0.0005155653 0.05156599 0.033353105
v 0.005982369 0.08191751 0.04649107
v -0.0017181784 0.100287125 0.0017475635
v -0.0065089613 0.07453047 -0.014358923
v 0.0191987 0.11215146 -0.028809696
v 0.017523393 0.088569775 -0.041399017
v 0.038479462 0.07735203 -0.01912032
v 0.017043337 0.06324418 0.004608318
v 0.020100042 0.0908231 0.014738575
v 0.0191987 0.11215146 -0.028809696
v 0.03819534 0.104059026 -0.011752889
vt 7.4560995 -4.4363985
vt 5.81839 -4.817732
vt 7.4560995 -4.817732
vt 5.81839 -4.4363985
vt 5.81839 -4.0543165
vt 7.4560995 -4.0543165
vt 7.4560995 -3.6729834
vt 4.1806803 -4.4363985
vt 4.1806803 -4.817732
vt 5.81839 -3.6729834
vt 7.4560995 -3.2909012
vt 2.5437202 -4.4363985
vt 2.5437202 -4.0543165
vt 2.5437202 -4.817732
vt 0.9060106 -4.817732
vt 0.9060106 -4.4363985
vt 0.9060106 -4.0543165
vt 0.9060106 -3.6729834
vt 4.1806803 -4.0543165
vt 4.1806803 -3.6729834
vt 2.5437202 -3.6729834
vt 2.5437202 -3.2909012
vt 0.9060106 -3.2909012
vt 0.9060106 -2.9095678
vt 4.1806803 -3.2909012
vt 2.5437202 -2.9095678
vt 0.9060106 -2.528235
vt 5.81839 -3.2909012
vt 5.81839 -2.9095678
vt 7.4560995 -2.9095678
vt 7.4560995 -2.528235
vt 4.1806803 -2.9095678
vt 5.81839 -2.528235
vt 4.1806803 -2.528235
vt 2.5437202 -2.528235
vt 2.5437202 -2.1461525
vt 0.9060106 -2.1461525
vt 5.81839 -2.1461525
vt 7.4560995 -2.1461525
vt 5.81839 -1.7648194
vt 7.4560995 -1.7648194
vt 7.4560995 -1.3827372
vt 4.1806803 -2.1461525
vt 2.5437202 -1.7648194
vt 0.9060106 -1.7648194
vt 0.9060106 -1.3827372
vt 4.1806803 -1.7648194
vt 4.1806803 -1.3827372
vt 5.81839 -1.3827372
vt 5.81839 -1.001404
vt 7.4560995 -1.001404
vt 7.4560995 -0.62007093
vt 2.5437202 -1.3827372
vt 2.5437202 -1.001404
vt 0.9060106 -1.001404
vt 4.1806803 -1.001404
vt 2.5437202 -0.62007093
vt 0.9060106 -0.62007093
vt 4.1806803 -0.62007093
vt 2.5437202 -0.23798895
vt 0.9060106 -0.23798895
vt 5.81839 -0.62007093
vt 5.81839 -0.23798895
vt 7.4560995 -0.23798895
vt 7.4560995 0.1433444
vt 4.1806803 -0.23798895
vt 2.5437202 0.1433444
vt 0.9060106 0.1433444
vt 5.81839 0.1433444
vt 7.4560995 0.52542686
vt 4.1806803 0.1433444
vt 2.5437202 0.52542686
vt 0.9060106 0.52542686
vt 5.81839 0.52542686
vt 7.4560995 0.90675974
vt 4.1806803 0.52542686
vt 2.5437202 0.90675974
vt 0.9060106 0.90675974
vt 5.81839 0.90675974
vt 7.4560995 1.2880931
vt 4.1806803 0.90675974
vt 2.5437202 1.2880931
vt 0.9060106 1.2880931
vt 5.81839 1.2880931
vt 7.4560995 1.6701751
vt 4.1806803 1.2880931
vt 2.5437202 1.6701751
vt 0.9060106 1.6701751
vt 2.5437202 2.0515084
vt 0.9060106 2.0515084
vt 0.9060106 2.4335904
vt 4.1806803 1.6701751
vt 5.81839 1.6701751
vt 7.4560995 2.0515084
vt 4.1806803 2.0515084
vt 5.81839 2.0515084
vt 7.4560995 2.4335904
vt 2.5437202 2.4335904
vt 0.9060106 2.8149238
vt 4.1806803 2.4335904
vt 5.81839 2.4335904
vt 7.4560995 2.8149238
vt 2.5437202 2.8149238
vt 0.9060106 3.1970062
vt 4.1806803 2.8149238
vt 5.81839 2.8149238
vt 7.4560995 3.1970062
vt 2.5437202 3.1970062
vt 0.9060106 3.5783386
vt 4.1806803 3.1970062
vt 5.81839 3.1970062
vt 7.4560995 3.5783386
vt 2.5437202 3.5783386
vt 0.9060106 3.959672
vt 4.1806803 3.5783386
vt 5.81839 3.5783386
vt 7.4560995 3.959672
vt 2.5437202 3.959672
vt 0.9060106 4.341754
vt 4.1806803 3.959672
vt 5.81839 3.959672
vt 7.4560995 4.341754
vt 2.5437202 4.341754
vt 0.9060106 4.7230873
vt 2.5437202 4.7230873
vt 4.1806803 4.7230873
vt 4.1806803 4.341754
vt 5.81839 4.341754
vt 7.4560995 4.7230873
vt 5.81839 4.7230873
vn -0.9512263 0.07780045 -0.29852238
vn -0.22210556 0.7537561 0.6184827
vn -0.9360363 -0.2791649 -0.21424983
vn -0.48793083 0.8069212 0.33286887
vn -0.30565065 0.92844135 0.21112646
vn -0.655021 0.20691556 -0.72672784
vn -0.3132457 0.40438575 -0.85927254
vn 0.81841046 -0.22599989 0.52832603
vn 0.82600546 -0.30954492 0.47105938
vn -0.41957575 0.8676812 0.26661867
vn 0.058909714 0.5107159 -0.85772896
vn -0.10058552 -0.92474055 -0.36706597
vn -0.21451062 -0.73486537 -0.6433958
vn -0.085395396 -0.9627156 -0.2566832
vn -0.9360363 -0.2791649 -0.21424983
vn -0.9512263 0.07780045 -0.29852238
vn -0.655021 0.20691556 -0.72672784
vn -0.3132457 0.40438575 -0.85927254
vn 0.60575026 -0.5070151 0.6131903
vn 0.324735 -0.7576504 0.56613874
vn 0.16523981 -0.6589153 -0.7338436
vn 0.5146102 -0.5146102 -0.68582267
vn 0.058909714 0.5107159 -0.85772896
vn 0.385495 0.579071 -0.7183804
vn 0.119669735 -0.7728404 0.62321496
vn 0.76524544 -0.4538501 -0.4565299
vn 0.59815526 0.655021 -0.46169007
vn -0.53350085 0.81451625 0.2279038
vn -0.655021 0.7385661 0.15958564
vn 0.385495 0.579071 -0.7183804
vn 0.59815526 0.655021 -0.46169007
vn -0.09299046 -0.8487905 0.5204877
vn -0.7917312 0.609451 -0.041607894
vn -0.22970062 -0.90955055 0.3463458
vn 0.92474055 -0.33233 -0.18550387
vn 0.9551206 -0.22599989 0.19149058
vn 0.6437253 0.7537561 -0.13217233
vn -0.7841361 0.548691 -0.2899461
vn 0.6437253 0.7537561 -0.13217233
vn -0.5866659 0.594261 -0.5501609
vn 0.5753702 0.7841361 0.23255032
vn 0.2791649 0.8676812 0.41133472
vn -0.21451062 -0.9551206 0.20427875
vn 0.78043544 -0.2411899 0.5768431
vn 0.5753702 0.7841361 0.23255032
vn 0.2791649 0.8676812 0.41133472
vn -0.16894048 -0.98550063 0.015735237
vn -0.10058552 -0.9703106 -0.21995418
vn -0.3967908 0.5866659 -0.70596045
vn -0.2828657 0.5562859 -0.78136605
vn 0.036124647 0.9056563 0.42247096
vn -0.17653555 0.9056563 0.38551506
vn 0.5070151 -0.324735 0.7984252
vn 0.339925 -0.33233 0.87977713
vn 0.036124647 0.9056563 0.42247096
vn 0.06650472 -0.9551206 -0.28865495
vn 0.18042982 -0.2715699 0.94535434
vn -0.17653555 0.9056563 0.38551506
vn 0.2715699 -0.93993056 -0.2068341
vn -0.055015385 -0.339925 0.938842
vn -0.35122067 0.8524912 0.3871728
vn -0.16894048 0.48793083 -0.8563776
vn 0.06650472 0.47274083 -0.87868834
vn -0.35122067 0.8524912 0.3871728
vn -0.44236082 0.8373012 0.3213154
vn 0.370305 -0.91714555 -0.14737117
vn -0.2980557 -0.385495 0.87324476
vn -0.44236082 0.8373012 0.3213154
vn 0.33233 0.4271708 -0.8408816
vn -0.3816008 0.89806134 0.2187846
vn 0.385495 -0.91714555 -0.101181194
vn -0.4803359 -0.339925 0.8085348
vn -0.3816008 0.89806134 0.2187846
vn 0.5449902 0.2980557 -0.78367627
vn -0.35122067 0.9056563 0.23755147
vn 0.29435492 -0.9551206 -0.03316271
vn -0.63223606 -0.31713998 0.70689446
vn -0.35122067 0.9056563 0.23755147
vn 0.70448536 0.2676757 -0.6573052
vn -0.37400573 0.8904663 0.2592094
vn 0.2335949 -0.9703106 -0.062695675
vn -0.76135117 -0.36271 0.537388
vn -0.37400573 0.8904663 0.2592094
vn 0.78043544 0.32084066 -0.5366394
vn -0.40438575 0.8828712 0.2387689
vn 0.19561982 -0.9703106 -0.14223282
vn -0.86008626 -0.36271 0.3587382
vn -0.40438575 0.8828712 0.2387689
vn -0.91325134 -0.36271 0.18550864
vn -0.4271708 0.8828712 0.19509876
vn -0.44995588 0.8904663 0.06789348
vn 0.21840483 -0.9551206 -0.20010984
vn 0.83360046 0.3816008 -0.39936337
vn -0.4271708 0.8828712 0.19509876
vn 0.2639749 -0.9475256 -0.18031219
vn 0.87917054 0.4119808 -0.23943892
vn -0.44995588 0.8904663 0.06789348
vn -0.92844135 -0.370305 0.029510735
vn -0.48691303 0.87345046 -0
vn 0.31713998 -0.93993056 -0.12630425
vn 0.90955055 0.4119808 -0.054677416
vn -0.48691303 0.87345046 -0
vn -0.9208463 -0.3779 -0.096092366
vn -0.51831084 0.8524912 0.067916304
vn 0.34752 -0.93233556 -0.09990126
vn 0.90195554 0.4271708 0.06325563
vn -0.51831084 0.8524912 0.067916304
vn -0.8904663 -0.39309 -0.229238
vn -0.5481062 0.8364088 -0
vn 0.385495 -0.91714555 -0.101181194
vn 0.89436054 0.40438575 0.1912887
vn -0.5481062 0.8364088 -0
vn -0.86008626 -0.3779 -0.34269992
vn -0.5714759 0.81451625 -0.09989291
vn 0.42347008 -0.90195554 -0.08455341
vn 0.85638547 0.41957575 0.3009321
vn -0.5714759 0.81451625 -0.09989291
vn -0.7917312 -0.385495 -0.4738727
vn -0.5562859 0.82970625 -0.046189703
vn 0.4386601 -0.89436054 -0.08772975
vn 0.79562545 0.43476576 0.42185172
vn -0.5562859 0.82970625 -0.046189703
vn -0.6626161 -0.39309 -0.6375109
vn -0.594261 0.7993261 -0.08905947
vn -0.63223606 -0.33233 -0.6998816
vn 0.54373443 -0.83925724 -0
vn 0.4842301 -0.87157553 -0.07666366
vn 0.6892953 0.43476576 0.5795263
vn -0.594261 0.7993261 -0.08905947
vn 0.5298002 0.548691 0.6467225
g tendril_right_thick_mesh_0
f 3/3/3 2/2/2 1/1/1
f 2/2/2 4/4/4 1/1/1
f 1/1/1 4/4/4 5/5/5
f 6/6/6 1/1/1 5/5/5
f 6/6/6 5/5/5 7/7/7
f 4/4/4 2/2/2 8/8/8
f 4/4/4 8/8/8 5/5/5
f 2/2/2 9/9/9 8/8/8
f 5/5/5 10/10/10 7/7/7
f 7/7/7 10/10/10 11/11/11
f 8/8/8 9/9/9 12/12/12
f 8/8/8 12/12/12 13/13/13
f 9/9/9 14/14/14 12/12/12
f 14/14/14 15/15/15 12/12/12
f 15/15/15 16/16/16 12/12/12
f 12/12/12 16/16/16 13/13/13
f 16/16/16 17/17/17 13/13/13
f 17/17/17 18/18/18 13/13/13
f 8/8/8 19/19/19 5/5/5
f 19/19/19 8/8/8 13/13/13
f 19/19/19 20/20/20 5/5/5
f 20/20/20 19/19/19 13/13/13
f 20/20/20 10/10/10 5/5/5
f 18/18/18 21/21/21 13/13/13
f 21/21/21 20/20/20 13/13/13
f 21/21/21 18/18/18 22/22/22
f 20/20/20 21/21/21 22/22/22
f 18/18/18 23/23/23 22/22/22
f 23/23/23 24/24/24 22/22/22
f 10/10/10 20/20/20 25/25/25
f 25/25/25 20/20/20 22/22/22
f 24/24/24 26/26/26 22/22/22
f 24/24/24 27/27/27 26/26/26
f 28/28/28 10/10/10 25/25/25
f 10/10/10 28/28/28 11/11/11
f 28/28/28 29/29/29 11/11/11
f 29/29/29 28/28/28 25/25/25
f 29/29/29 30/30/30 11/11/11
f 30/30/30 29/29/29 31/31/31
f 32/32/32 25/25/25 22/22/22
f 32/32/32 29/29/29 25/25/25
f 26/26/26 32/32/32 22/22/22
f 29/29/29 33/33/33 31/31/31
f 33/33/33 29/29/29 32/32/32
f 34/34/34 32/32/32 26/26/26
f 34/34/34 33/33/33 32/32/32
f 27/27/27 35/35/35 26/26/26
f 35/35/35 34/34/34 26/26/26
f 36/36/36 35/35/35 27/27/27
f 35/35/35 36/36/36 34/34/34
f 37/37/37 36/36/36 27/27/27
f 33/33/33 38/38/38 31/31/31
f 38/38/38 39/39/39 31/31/31
f 39/39/39 38/38/38 40/40/40
f 41/41/41 39/39/39 40/40/40
f 41/41/41 40/40/40 42/42/42
f 34/34/34 43/43/43 33/33/33
f 43/43/43 38/38/38 33/33/33
f 36/36/36 43/43/43 34/34/34
f 38/38/38 43/43/43 40/40/40
f 36/36/36 37/37/37 44/44/44
f 37/37/37 45/45/45 44/44/44
f 44/44/44 45/45/45 46/46/46
f 43/43/43 36/36/36 47/47/47
f 43/43/43 47/47/47 40/40/40
f 36/36/36 44/44/44 47/47/47
f 47/47/47 48/48/48 40/40/40
f 47/47/47 44/44/44 48/48/48
f 40/40/40 49/49/49 42/42/42
f 48/48/48 49/49/49 40/40/40
f 49/49/49 50/50/50 42/42/42
f 49/49/49 48/48/48 50/50/50
f 50/50/50 51/51/51 42/42/42
f 52/52/52 51/51/51 50/50/50
f 53/53/53 44/44/44 46/46/46
f 44/44/44 53/53/53 48/48/48
f 54/54/54 53/53/53 46/46/46
f 55/55/55 54/54/54 46/46/46
f 48/48/48 53/53/53 56/56/56
f 53/53/53 54/54/54 56/56/56
f 48/48/48 56/56/56 50/50/50
f 57/57/57 54/54/54 55/55/55
f 54/54/54 57/57/57 56/56/56
f 58/58/58 57/57/57 55/55/55
f 56/56/56 59/59/59 50/50/50
f 57/57/57 59/59/59 56/56/56
f 60/60/60 57/57/57 58/58/58
f 57/57/57 60/60/60 59/59/59
f 61/61/61 60/60/60 58/58/58
f 62/62/62 52/52/52 50/50/50
f 59/59/59 62/62/62 50/50/50
f 52/52/52 62/62/62 63/63/63
f 62/62/62 59/59/59 63/63/63
f 64/64/64 52/52/52 63/63/63
f 65/65/65 64/64/64 63/63/63
f 60/60/60 66/66/66 59/59/59
f 59/59/59 66/66/66 63/63/63
f 67/67/67 60/60/60 61/61/61
f 60/60/60 67/67/67 66/66/66
f 68/68/68 67/67/67 61/61/61
f 69/69/69 65/65/65 63/63/63
f 70/70/70 65/65/65 69/69/69
f 66/66/66 71/71/71 63/63/63
f 67/67/67 71/71/71 66/66/66
f 71/71/71 69/69/69 63/63/63
f 72/72/72 67/67/67 68/68/68
f 67/67/67 72/72/72 71/71/71
f 73/73/73 72/72/72 68/68/68
f 74/74/74 70/70/70 69/69/69
f 75/75/75 70/70/70 74/74/74
f 71/71/71 76/76/76 69/69/69
f 72/72/72 76/76/76 71/71/71
f 76/76/76 74/74/74 69/69/69
f 77/77/77 72/72/72 73/73/73
f 72/72/72 77/77/77 76/76/76
f 78/78/78 77/77/77 73/73/73
f 79/79/79 75/75/75 74/74/74
f 80/80/80 75/75/75 79/79/79
f 76/76/76 81/81/81 74/74/74
f 77/77/77 81/81/81 76/76/76
f 81/81/81 79/79/79 74/74/74
f 82/82/82 77/77/77 78/78/78
f 77/77/77 82/82/82 81/81/81
f 83/83/83 82/82/82 78/78/78
f 84/84/84 80/80/80 79/79/79
f 85/85/85 80/80/80 84/84/84
f 81/81/81 86/86/86 79/79/79
f 82/82/82 86/86/86 81/81/81
f 86/86/86 84/84/84 79/79/79
f 87/87/87 82/82/82 83/83/83
f 88/88/88 87/87/87 83/83/83
f 87/87/87 88/88/88 89/89/89
f 88/88/88 90/90/90 89/89/89
f 90/90/90 91/91/91 89/89/89
f 86/86/86 82/82/82 92/92/92
f 82/82/82 87/87/87 92/92/92
f 86/86/86 92/92/92 84/84/84
f 92/92/92 87/87/87 89/89/89
f 93/93/93 85/85/85 84/84/84
f 92/92/92 93/93/93 84/84/84
f 94/94/94 85/85/85 93/93/93
f 92/92/92 95/95/95 93/93/93
f 95/95/95 92/92/92 89/89/89
f 96/96/96 94/94/94 93/93/93
f 95/95/95 96/96/96 93/93/93
f 97/97/97 94/94/94 96/96/96
f 91/91/91 98/98/98 89/89/89
f 91/91/91 99/99/99 98/98/98
f 100/100/100 95/95/95 89/89/89
f 95/95/95 100/100/100 96/96/96
f 98/98/98 100/100/100 89/89/89
f 101/101/101 97/97/97 96/96/96
f 100/100/100 101/101/101 96/96/96
f 97/97/97 101/101/101 102/102/102
f 99/99/99 103/103/103 98/98/98
f 99/99/99 104/104/104 103/103/103
f 105/105/105 100/100/100 98/98/98
f 100/100/100 105/105/105 101/101/101
f 103/103/103 105/105/105 98/98/98
f 101/101/101 106/106/106 102/102/102
f 105/105/105 106/106/106 101/101/101
f 102/102/102 106/106/106 107/107/107
f 104/104/104 108/108/108 103/103/103
f 104/104/104 109/109/109 108/108/108
f 110/110/110 105/105/105 103/103/103
f 105/105/105 110/110/110 106/106/106
f 108/108/108 110/110/110 103/103/103
f 106/106/106 111/111/111 107/107/107
f 110/110/110 111/111/111 106/106/106
f 107/107/107 111/111/111 112/112/112
f 109/109/109 113/113/113 108/108/108
f 109/109/109 114/114/114 113/113/113
f 115/115/115 110/110/110 108/108/108
f 110/110/110 115/115/115 111/111/111
f 113/113/113 115/115/115 108/108/108
f 111/111/111 116/116/116 112/112/112
f 115/115/115 116/116/116 111/111/111
f 112/112/112 116/116/116 117/117/117
f 114/114/114 118/118/118 113/113/113
f 114/114/114 119/119/119 118/118/118
f 120/120/120 115/115/115 113/113/113
f 115/115/115 120/120/120 116/116/116
f 118/118/118 120/120/120 113/113/113
f 116/116/116 121/121/121 117/117/117
f 120/120/120 121/121/121 116/116/116
f 117/117/117 121/121/121 122/122/122
f 119/119/119 123/123/123 118/118/118
f 119/119/119 124/124/124 123/123/123
f 124/124/124 125/125/125 123/123/123
f 125/125/125 126/126/126 123/123/123
f 127/127/127 120/120/120 118/118/118
f 123/123/123 127/127/127 118/118/118
f 120/120/120 127/127/127 121/121/121
f 126/126/126 127/127/127 123/123/123
f 121/121/121 128/128/128 122/122/122
f 127/127/127 128/128/128 121/121/121
f 127/127/127 126/126/126 128/128/128
f 122/122/122 128/128/128 129/129/129
f 126/126/126 130/130/130 128/128/128
f 128/128/128 130/130/130 129/129/129
