g treeGroundForestGeo_02
v 0.3563394 -0.1246326 -0.3990994
v 0.3615491 -0.1135462 -0.3998418
v 0.3517085 -0.1164783 -0.4035918
v -0.2667257 -0.01592058 -0.3673629
v -0.2620068 -0.02100447 -0.3673629
v -0.2602324 -0.01327795 -0.3693889
v -0.07485947 0.07524955 -0.3976648
v -0.07560191 0.07044253 -0.3983821
v -0.07176384 0.07246852 -0.3977655
v 0.09012765 0.02652481 -0.3222497
v 0.08820233 0.02807263 -0.3235207
v 0.08861759 0.0248889 -0.3241499
v -0.3615452 0.08712873 0.3728077
v -0.2747668 0.1192302 0.3502323
v -0.2484539 0.06243917 0.4002154
v -0.3249639 0.03311875 0.4210921
v -0.1808911 -0.03887355 0.1332738
v -0.05115145 -0.02515712 -0.07758152
v -0.180413 -0.01745582 0.09435189
v -0.03782514 -0.04313949 -0.0651235
v -0.218152 -0.01675111 0.2127158
v 0.3517085 -0.1164783 -0.4035918
v 0.3563394 -0.1246326 -0.3990994
v -0.02705336 -0.02251452 -0.05440205
v 0.3615491 -0.1135462 -0.3998418
v -0.2373675 -0.03719988 0.2116084
v -0.2129045 -0.01551789 0.1375774
v -0.2542425 -0.01305145 0.1925564
v -0.2880554 0.008768976 0.2440622
v -0.2673927 -0.02121839 0.2675185
v -0.3249639 0.03311875 0.4210921
v -0.3615452 0.08712873 0.3728077
v -0.2484539 0.06243917 0.4002154
v -0.2354548 0.008315951 0.2713188
v -0.2747668 0.1192302 0.3502323
v -0.2545194 0.04104659 0.2478122
v -0.3615452 0.08712873 0.3728077
v -0.2880554 0.008768976 0.2440622
v -0.2542425 -0.01305145 0.1925564
v -0.2297166 0.012972 0.1939029
v -0.192204 0.009498835 0.1422461
v -0.2542425 -0.01305145 0.1925564
v -0.2129045 -0.01551789 0.1375774
v -0.04037967 -0.004532158 -0.06686008
v -0.180413 -0.01745582 0.09435189
v -0.05115145 -0.02515712 -0.07758152
v 0.3517085 -0.1164783 -0.4035918
v -0.2555261 0.02930585 -0.1924597
v -0.2667257 -0.01592058 -0.3673629
v -0.2602324 -0.01327795 -0.3693889
v -0.2486176 0.04470852 -0.1932651
v -0.2483784 0.00810203 -0.03451952
v -0.2376821 0.02749377 -0.03151199
v -0.2345991 0.03639057 -0.1915788
v -0.2620068 -0.02100447 -0.3673629
v -0.241105 0.02052233 -0.1905973
v -0.2667257 -0.01592058 -0.3673629
v -0.2555261 0.02930585 -0.1924597
v -0.2197753 0.01455757 -0.03420493
v -0.2304339 -0.004859358 -0.0368098
v -0.2555261 0.02930585 -0.1924597
v -0.2483784 0.00810203 -0.03451952
v -0.2344355 -0.006583333 0.0590038
v -0.2109037 -0.02436435 0.05539221
v -0.196923 -0.007288039 0.05717912
v -0.1808911 -0.03887355 0.1332738
v -0.2129045 -0.01551789 0.1375774
v -0.180413 -0.01745582 0.09435189
v -0.192204 0.009498835 0.1422461
v -0.2194733 0.01571527 0.06201133
v -0.2483784 0.00810203 -0.03451952
v -0.2129045 -0.01551789 0.1375774
v -0.2344355 -0.006583333 0.0590038
v -0.04741403 0.03123119 -0.1720109
v -0.0439409 0.01235539 -0.2695107
v -0.03762379 0.02254832 -0.1840914
v -0.05234692 0.01821947 -0.2690577
v -0.05053484 0.02662548 -0.1361846
v -0.07176384 0.07246852 -0.3977655
v -0.07485947 0.07524955 -0.3976648
v -0.05667576 0.009272337 -0.2665157
v -0.07560191 0.07044253 -0.3983821
v -0.04547614 0.03636542 -0.1337056
v -0.03603822 0.02510285 -0.1626233
v -0.0340248 0.02837464 -0.1353037
v -0.03230083 0.02336627 -0.1096452
v -0.04638216 0.0333201 -0.1076696
v -0.05018249 -0.01276201 -0.04371834
v -0.03516993 -0.0229927 -0.04697755
v -0.06072778 -0.02334505 -0.05581143
v -0.05555582 0.01887384 -0.1113818
v -0.04732597 -0.03474605 -0.06051782
v -0.04177648 0.007711947 -0.1135588
v -0.03516993 -0.0229927 -0.04697755
v -0.03230083 0.02336627 -0.1096452
v -0.0340248 0.02837464 -0.1353037
v -0.04048032 0.01596695 -0.1385
v -0.04201555 0.01347536 -0.1639446
v -0.0340248 0.02837464 -0.1353037
v -0.03603822 0.02510285 -0.1626233
v -0.04826975 0.003395677 -0.2669688
v -0.03762379 0.02254832 -0.1840914
v -0.0439409 0.01235539 -0.2695107
v -0.07176384 0.07246852 -0.3977655
v 0.05222502 0.009146482 -0.2629167
v 0.09012765 0.02652481 -0.3222497
v 0.08861759 0.0248889 -0.3241499
v 0.05125609 0.002502203 -0.2637599
v 0.02119321 0.01791745 -0.2052323
v 0.01844993 0.009385586 -0.2053581
v 0.04565626 0.004452705 -0.2665661
v 0.08820233 0.02807263 -0.3235207
v 0.04641128 0.01124799 -0.2657607
v 0.09012765 0.02652481 -0.3222497
v 0.05222502 0.009146482 -0.2629167
v 0.01217058 0.01275808 -0.2107063
v 0.01480061 0.02128991 -0.2104546
v 0.05222502 0.009146482 -0.2629167
v 0.02119321 0.01791745 -0.2052323
v -0.011399 0.02303907 -0.1842298
v -0.01970437 0.02777061 -0.1913271
v -0.02344176 0.0198302 -0.1926736
v -0.04741403 0.03123119 -0.1720109
v -0.03603822 0.02510285 -0.1626233
v -0.03762379 0.02254832 -0.1840914
v -0.04201555 0.01347536 -0.1639446
v -0.01532519 0.01298457 -0.1850729
v 0.02119321 0.01791745 -0.2052323
v -0.03603822 0.02510285 -0.1626233
v -0.011399 0.02303907 -0.1842298
vt 2.825877 4.221827
vt 2.4535 4.229262
vt 2.083601 4.214392
vt -5.92034 -0.7417564
vt -5.170629 -0.738039
vt -5.545484 -0.7436152
vt 2.825877 4.221827
vt 2.4535 4.229262
vt 2.083601 4.214392
vt -5.92034 -0.7417564
vt -5.170629 -0.738039
vt -5.545484 -0.7436152
vt 3.491323 0.3344817
vt 3.506194 -0.4065552
vt 2.88412 -0.3644223
vt 2.861194 0.2929688
vt 2.833931 1.48693
vt 2.999983 2.343212
vt 3.002462 1.591642
vt 2.823399 2.343212
vt 2.643716 1.152349
vt 2.999983 4.214392
vt 2.825877 4.221827
vt 2.573082 2.328342
vt 2.4535 4.229262
vt 2.83765 1.149251
vt 2.996266 1.403285
vt 2.998744 1.162881
vt 3.080531 0.9286742
vt 2.841986 0.9144235
vt 2.861194 0.2929688
vt 3.491323 0.3344817
vt 2.57618 0.3660812
vt 2.584855 0.9026513
vt 2.451022 0.3945827
vt 2.350028 0.9026513
vt 0.4676948 -0.2882123
vt 1.814077 0.8227234
vt 2.289927 1.034006
vt 2.324005 1.162262
vt 2.324624 1.391512
vt 2.078025 1.158545
vt 2.079264 1.398328
vt 2.325243 2.319047
vt 2.077405 1.585446
vt 2.079884 2.334538
vt 2.083601 4.214392
vt -5.921579 -2.751106
vt -5.92034 -0.7417564
vt -5.545484 -0.7436152
vt -5.657631 -2.763498
vt -5.920959 -4.031192
vt -5.668784 -4.057215
vt -5.425282 -2.790141
vt -5.170629 -0.738039
vt -5.162574 -2.780227
vt -5.003957 -0.7374191
vt -4.994044 -2.394219
vt -5.41413 -4.072085
vt -5.161335 -4.050399
vt -5.008914 -2.92955
vt -4.995903 -4.026855
vt -5.000859 -4.767891
vt -5.182401 -4.826133
vt -5.337919 -4.849058
vt -5.219577 -5.497775
vt -5.006435 -5.381911
vt -5.272243 -5.180542
vt -5.599389 -5.496536
vt -5.64338 -4.821796
vt -5.850945 -4.415961
vt -5.855902 -5.401738
vt -5.896795 -4.779044
vt 2.833931 1.48693
vt 2.999983 2.343212
vt 3.002462 1.591642
vt 2.823399 2.343212
vt 2.643716 1.152349
vt 2.999983 4.214392
vt 2.825877 4.221827
vt 2.573082 2.328342
vt 2.4535 4.229262
vt 2.83765 1.149251
vt 2.996266 1.403285
vt 2.998744 1.162881
vt 3.080531 0.9286742
vt 2.841986 0.9144235
vt 2.861194 0.2929688
vt 3.491323 0.3344817
vt 2.57618 0.3660812
vt 2.584855 0.9026513
vt 2.451022 0.3945827
vt 2.350028 0.9026513
vt 0.4676948 -0.2882123
vt 1.814077 0.8227234
vt 2.289927 1.034006
vt 2.324005 1.162262
vt 2.324624 1.391512
vt 2.078025 1.158545
vt 2.079264 1.398328
vt 2.325243 2.319047
vt 2.077405 1.585446
vt 2.079884 2.334538
vt 2.083601 4.214392
vt -5.921579 -2.751106
vt -5.92034 -0.7417564
vt -5.545484 -0.7436152
vt -5.657631 -2.763498
vt -5.920959 -4.031192
vt -5.668784 -4.057215
vt -5.425282 -2.790141
vt -5.170629 -0.738039
vt -5.162574 -2.780227
vt -5.003957 -0.7374191
vt -4.994044 -2.394219
vt -5.41413 -4.072085
vt -5.161335 -4.050399
vt -5.008914 -2.92955
vt -4.995903 -4.026855
vt -5.000859 -4.767891
vt -5.182401 -4.826133
vt -5.337919 -4.849058
vt -5.219577 -5.497775
vt -5.006435 -5.381911
vt -5.272243 -5.180542
vt -5.599389 -5.496536
vt -5.64338 -4.821796
vt -5.850945 -4.415961
vt -5.855902 -5.401738
vt -5.896795 -4.779044
vn 0.4058864 -0.2496832 -0.8791556
vn 0.4058864 -0.2496832 -0.8791556
vn 0.4058864 -0.2496832 -0.8791556
vn -0.2189264 -0.2028222 -0.9544288
vn -0.2189264 -0.2028222 -0.9544288
vn -0.2189264 -0.2028222 -0.9544288
vn 0.08566982 0.1330147 -0.9874046
vn 0.08566982 0.1330147 -0.9874046
vn 0.08566982 0.1330147 -0.9874046
vn 0.6558114 0.2267365 -0.7200707
vn 0.6558114 0.2267365 -0.7200707
vn 0.6558114 0.2267365 -0.7200707
vn -0.03929269 0.6484852 0.7602125
vn -0.03929269 0.6484852 0.7602125
vn -0.03929269 0.6484852 0.7602125
vn -0.03929269 0.6484852 0.7602125
vn 0.3121644 -0.9057366 0.286696
vn -0.7031562 0.01586223 -0.7108585
vn -0.6250547 0.02367234 -0.7802219
vn -0.0002419353 -0.9916483 0.1289712
vn 0.8823061 0.0002419353 0.470676
vn -0.6172445 0.05491304 -0.7848527
vn 0.1012902 -0.9369772 0.3343861
vn 0.7495334 0.07834351 0.6573143
vn 0.7261029 0.2267365 0.6491265
vn -0.2188652 -0.9757551 0
vn -0.937461 -0.2731137 -0.2158141
vn -0.8203087 -0.1559613 -0.5502452
vn -0.88279 -0.03880888 -0.4681621
vn -0.2657874 -0.9447874 0.1916608
vn -0.3360788 -0.9213569 0.1953268
vn -0.8984102 -0.1169105 -0.4233097
vn 0.8588756 -0.4136965 0.3019733
vn 0.9213569 -0.2809238 0.2686695
vn 0.2184426 0.789068 -0.5741555
vn 0.195012 0.8124985 -0.5493783
vn -0.8984102 -0.1169105 -0.4233097
vn -0.88279 -0.03880888 -0.4681621
vn -0.8203087 -0.1559613 -0.5502452
vn 0.01537842 0.9296509 -0.3681205
vn 0.3902661 0.8671696 0.3093691
vn -0.8203087 -0.1559613 -0.5502452
vn -0.937461 -0.2731137 -0.2158141
vn 0.05442917 0.9921322 -0.1127438
vn -0.6250547 0.02367234 -0.7802219
vn -0.7031562 0.01586223 -0.7108585
vn -0.6172445 0.05491304 -0.7848527
vn -0.9921322 -0.1247206 0.01088396
vn -0.984322 -0.1637715 0.06549197
vn 0.8042045 0.4532312 -0.3844953
vn -0.2892178 0.9530814 -0.08938082
vn -0.9687017 -0.2262527 0.1021111
vn -0.2111162 0.9687017 0.1305639
vn 0.9447874 0.3048382 -0.1202102
vn 0.3746457 -0.9135467 0.1583443
vn 0.327774 -0.9447562 0
vn -0.984322 -0.1637715 0.06549197
vn -0.9921322 -0.1247206 0.01088396
vn 0.9525975 0.2735975 -0.1330505
vn 0.1559613 -0.9682178 -0.1955255
vn -0.9921322 -0.1247206 0.01088396
vn -0.9687017 -0.2262527 0.1021111
vn -0.9530814 -0.241873 0.1820256
vn -0.1095842 -0.9838381 -0.1416115
vn 0.929167 0.250167 -0.2721491
vn 0.3121644 -0.9057366 0.286696
vn -0.937461 -0.2731137 -0.2158141
vn -0.6250547 0.02367234 -0.7802219
vn 0.3902661 0.8671696 0.3093691
vn -0.1095842 0.984322 0.1382084
vn -0.9687017 -0.2262527 0.1021111
vn -0.937461 -0.2731137 -0.2158141
vn -0.9530814 -0.241873 0.1820256
vn -0.5781937 0.8124985 -0.07442006
vn 0.9604077 0.1330147 -0.2447942
vn 0.9369772 0.1095842 -0.3317605
vn -0.2500462 0.9682339 0
vn -0.9765118 -0.195012 -0.09162387
vn 0.9369772 0.07053339 -0.3421969
vn -0.4376109 0.8906001 0.1238072
vn -0.9530814 -0.2340629 0.1919647
vn -0.9062204 -0.3824559 0.1802554
vn -0.008052111 0.9999423 -0.007109482
vn 0.8354452 0.4766617 0.2735417
vn 0.9446064 0.3282057 0
vn 0.9682178 0.2345467 0.08684494
vn -0.05491304 0.984322 0.1676151
vn 0.00756824 0.9765118 0.2153308
vn 0.9447874 0.3126483 0.09812164
vn -0.9452713 0.2111162 -0.2487814
vn -0.9530814 0.06272316 -0.2961447
vn 0.2731137 -0.827635 -0.4903358
vn 0.288734 -0.8432553 -0.4533798
vn 0.9447874 0.3126483 0.09812164
vn 0.9682178 0.2345467 0.08684494
vn 0.9446064 0.3282057 0
vn 0.3590254 -0.9135467 -0.1911364
vn -0.3282686 -0.929167 0.1699657
vn 0.9446064 0.3282057 0
vn 0.8354452 0.4766617 0.2735417
vn 0.2106324 -0.976028 -0.05480237
vn 0.9369772 0.1095842 -0.3317605
vn 0.9604077 0.1330147 -0.2447942
vn 0.9369772 0.07053339 -0.3421969
vn 0.7651537 0.3516991 0.5393028
vn 0.7261029 0.3907499 0.5657642
vn -0.3751296 -0.632381 -0.67777
vn 0.4293168 -0.8666857 0.2540529
vn 0.7261029 0.445421 0.5238079
vn 0.2731137 -0.8901162 0.3648315
vn -0.6719157 -0.5152286 -0.5320421
vn -0.5625734 0.8046883 -0.1897045
vn -0.4141804 0.8437392 -0.3414072
vn 0.7261029 0.3907499 0.5657642
vn 0.7651537 0.3516991 0.5393028
vn -0.6797258 -0.4917981 -0.5441577
vn -0.2033061 0.8984102 -0.3892631
vn 0.7651537 0.3516991 0.5393028
vn 0.7261029 0.445421 0.5238079
vn 0.6480013 0.4610413 0.6062468
vn -0.008052111 0.9765118 -0.2153132
vn -0.5860039 -0.4605575 -0.666698
vn -0.5781937 0.8124985 -0.07442006
vn 0.8354452 0.4766617 0.2735417
vn 0.9369772 0.1095842 -0.3317605
vn -0.3282686 -0.929167 0.1699657
vn 0.195012 -0.929167 0.3140366
vn 0.7261029 0.445421 0.5238079
vn 0.8354452 0.4766617 0.2735417
vn 0.6480013 0.4610413 0.6062468
g treeGroundForestGeo_02_0
f 3/3/3 2/2/2 1/1/1
f 6/6/6 5/5/5 4/4/4
f 9/9/9 8/8/8 7/7/7
f 12/12/12 11/11/11 10/10/10
f 15/15/15 14/14/14 13/13/13
f 16/16/16 15/15/15 13/13/13
f 19/19/19 18/18/18 17/17/17
f 18/18/18 20/20/20 17/17/17
f 17/17/17 20/20/20 21/21/21
f 18/18/18 22/22/22 20/20/20
f 22/22/22 23/23/23 20/20/20
f 20/20/20 23/23/23 24/24/24
f 20/20/20 24/24/24 21/21/21
f 23/23/23 25/25/25 24/24/24
f 26/26/26 17/17/17 21/21/21
f 27/27/27 17/17/17 26/26/26
f 28/28/28 27/27/27 26/26/26
f 29/29/29 28/28/28 26/26/26
f 30/30/30 29/29/29 26/26/26
f 26/26/26 21/21/21 30/30/30
f 29/29/29 30/30/30 31/31/31
f 32/32/32 29/29/29 31/31/31
f 31/31/31 30/30/30 33/33/33
f 30/30/30 34/34/34 33/33/33
f 21/21/21 34/34/34 30/30/30
f 33/33/33 34/34/34 35/35/35
f 34/34/34 36/36/36 35/35/35
f 35/35/35 36/36/36 37/37/37
f 36/36/36 38/38/38 37/37/37
f 38/38/38 36/36/36 39/39/39
f 36/36/36 40/40/40 39/39/39
f 36/36/36 34/34/34 40/40/40
f 34/34/34 21/21/21 40/40/40
f 21/21/21 41/41/41 40/40/40
f 40/40/40 41/41/41 42/42/42
f 41/41/41 43/43/43 42/42/42
f 21/21/21 24/24/24 41/41/41
f 24/24/24 44/44/44 41/41/41
f 41/41/41 44/44/44 45/45/45
f 24/24/24 25/25/25 44/44/44
f 44/44/44 46/46/46 45/45/45
f 44/44/44 25/25/25 46/46/46
f 25/25/25 47/47/47 46/46/46
f 50/50/50 49/49/49 48/48/48
f 51/51/51 50/50/50 48/48/48
f 51/51/51 48/48/48 52/52/52
f 53/53/53 51/51/51 52/52/52
f 54/54/54 50/50/50 51/51/51
f 54/54/54 51/51/51 53/53/53
f 55/55/55 50/50/50 54/54/54
f 56/56/56 55/55/55 54/54/54
f 57/57/57 55/55/55 56/56/56
f 58/58/58 57/57/57 56/56/56
f 56/56/56 54/54/54 59/59/59
f 59/59/59 54/54/54 53/53/53
f 60/60/60 56/56/56 59/59/59
f 61/61/61 56/56/56 60/60/60
f 62/62/62 61/61/61 60/60/60
f 62/62/62 60/60/60 63/63/63
f 64/64/64 60/60/60 59/59/59
f 60/60/60 64/64/64 63/63/63
f 65/65/65 59/59/59 53/53/53
f 65/65/65 64/64/64 59/59/59
f 63/63/63 64/64/64 66/66/66
f 67/67/67 63/63/63 66/66/66
f 66/66/66 64/64/64 68/68/68
f 64/64/64 65/65/65 68/68/68
f 68/68/68 65/65/65 69/69/69
f 70/70/70 65/65/65 53/53/53
f 65/65/65 70/70/70 69/69/69
f 70/70/70 53/53/53 71/71/71
f 69/69/69 70/70/70 72/72/72
f 73/73/73 70/70/70 71/71/71
f 70/70/70 73/73/73 72/72/72
f 76/76/76 75/75/75 74/74/74
f 75/75/75 77/77/77 74/74/74
f 74/74/74 77/77/77 78/78/78
f 75/75/75 79/79/79 77/77/77
f 79/79/79 80/80/80 77/77/77
f 77/77/77 80/80/80 81/81/81
f 77/77/77 81/81/81 78/78/78
f 80/80/80 82/82/82 81/81/81
f 83/83/83 74/74/74 78/78/78
f 84/84/84 74/74/74 83/83/83
f 85/85/85 84/84/84 83/83/83
f 86/86/86 85/85/85 83/83/83
f 87/87/87 86/86/86 83/83/83
f 83/83/83 78/78/78 87/87/87
f 86/86/86 87/87/87 88/88/88
f 89/89/89 86/86/86 88/88/88
f 88/88/88 87/87/87 90/90/90
f 87/87/87 91/91/91 90/90/90
f 78/78/78 91/91/91 87/87/87
f 90/90/90 91/91/91 92/92/92
f 91/91/91 93/93/93 92/92/92
f 92/92/92 93/93/93 94/94/94
f 93/93/93 95/95/95 94/94/94
f 95/95/95 93/93/93 96/96/96
f 93/93/93 97/97/97 96/96/96
f 93/93/93 91/91/91 97/97/97
f 91/91/91 78/78/78 97/97/97
f 78/78/78 98/98/98 97/97/97
f 97/97/97 98/98/98 99/99/99
f 98/98/98 100/100/100 99/99/99
f 78/78/78 81/81/81 98/98/98
f 81/81/81 101/101/101 98/98/98
f 98/98/98 101/101/101 102/102/102
f 81/81/81 82/82/82 101/101/101
f 101/101/101 103/103/103 102/102/102
f 101/101/101 82/82/82 103/103/103
f 82/82/82 104/104/104 103/103/103
f 107/107/107 106/106/106 105/105/105
f 108/108/108 107/107/107 105/105/105
f 108/108/108 105/105/105 109/109/109
f 110/110/110 108/108/108 109/109/109
f 111/111/111 107/107/107 108/108/108
f 111/111/111 108/108/108 110/110/110
f 112/112/112 107/107/107 111/111/111
f 113/113/113 112/112/112 111/111/111
f 114/114/114 112/112/112 113/113/113
f 115/115/115 114/114/114 113/113/113
f 113/113/113 111/111/111 116/116/116
f 116/116/116 111/111/111 110/110/110
f 117/117/117 113/113/113 116/116/116
f 118/118/118 113/113/113 117/117/117
f 119/119/119 118/118/118 117/117/117
f 119/119/119 117/117/117 120/120/120
f 121/121/121 117/117/117 116/116/116
f 117/117/117 121/121/121 120/120/120
f 122/122/122 116/116/116 110/110/110
f 122/122/122 121/121/121 116/116/116
f 120/120/120 121/121/121 123/123/123
f 124/124/124 120/120/120 123/123/123
f 123/123/123 121/121/121 125/125/125
f 121/121/121 122/122/122 125/125/125
f 125/125/125 122/122/122 126/126/126
f 127/127/127 122/122/122 110/110/110
f 122/122/122 127/127/127 126/126/126
f 127/127/127 110/110/110 128/128/128
f 126/126/126 127/127/127 129/129/129
f 130/130/130 127/127/127 128/128/128
f 127/127/127 130/130/130 129/129/129
