g UnderGround4
v -0.009659258 1.7347234E-20 -0.0049118088
v -0.005 1.7347234E-20 0.0011602545
v -0.008660254 1.7347234E-20 -0.0024999992
v -0.0046650637 1.7347234E-20 -0.0019198726
v 3.3027256E-10 0.000431555 0.0025
v -0.004330128 1.0430813E-09 -0.009999999
v -0.008660255 1.7347234E-20 -0.012499998
v 9.5164175E-11 -0.00020646896 8.60598E-11
v 0.0050000013 -3.7252902E-11 0.0011602539
v -1.0969287E-09 -5.9604643E-10 -0.012499999
v -0.0050000013 3.5762786E-09 -0.016160253
v -1.8949808E-09 -2.980232E-09 -0.0175
v 0.004999998 3.5762786E-09 -0.016160253
v -6.101607E-10 -5.3318217E-10 -0.0075
v 0.0046650637 1.7347234E-20 -0.0019198738
v 0.008660254 1.7347234E-20 -0.0025000009
v 0.009659259 1.7347234E-20 -0.0049118106
v 0.008660253 1.7881393E-09 -0.012500001
v 0.004330126 4.4703483E-10 -0.010000001
vt 0.017037094 0.37059045
vt 0.25 0.066987276
vt 0.066987306 0.24999997
vt 0.26674682 0.22099364
vt 0.5 0
vt 0.28349364 0.625
vt 0.06698725 0.74999994
vt 0.5 0.125
vt 0.75000006 0.066987306
vt 0.49999997 0.75
vt 0.24999994 0.93301266
vt 0.4999999 1
vt 0.7499999 0.9330127
vt 0.49999997 0.5
vt 0.7332532 0.2209937
vt 0.9330127 0.25000006
vt 0.98296297 0.37059054
vt 0.93301266 0.7500001
vt 0.7165063 0.62500006
vn -1.3191075E-07 1 0
vn 0.010610368 0.99670595 -0.08040389
vn -0 1 0
vn 0.00923851 0.9999305 -0.0073235
vn -0 0.9936272 -0.11271712
vn 0.0032023655 0.9999913 0.002677364
vn -0 1 2.066309E-07
vn -0 0.9993568 -0.035859324
vn -0.010610365 0.99670595 -0.08040385
vn -0 1 0
vn -0 1 1.15831284E-07
vn -0 1 -4.7683716E-07
vn -1.8529235E-07 1 1.658419E-07
vn -0 0.99994576 0.010416127
vn -0.009238542 0.9999305 -0.0073234867
vn -0 1 0
vn -0 1 1.3582266E-07
vn -1.5212929E-07 1 2.9158272E-07
vn -0.0032024782 0.9999913 0.0026774153
g UnderGround4_0
f 3/3/3 2/2/2 1/1/1
f 2/2/2 4/4/4 1/1/1
f 2/2/2 5/5/5 4/4/4
f 1/1/1 4/4/4 6/6/6
f 7/7/7 1/1/1 6/6/6
f 5/5/5 8/8/8 4/4/4
f 4/4/4 8/8/8 6/6/6
f 5/5/5 9/9/9 8/8/8
f 7/7/7 6/6/6 10/10/10
f 11/11/11 7/7/7 10/10/10
f 12/12/12 11/11/11 10/10/10
f 13/13/13 12/12/12 10/10/10
f 8/8/8 14/14/14 6/6/6
f 6/6/6 14/14/14 10/10/10
f 9/9/9 15/15/15 8/8/8
f 8/8/8 15/15/15 14/14/14
f 9/9/9 16/16/16 15/15/15
f 16/16/16 17/17/17 15/15/15
f 17/17/17 18/18/18 15/15/15
f 13/13/13 10/10/10 19/19/19
f 14/14/14 19/19/19 10/10/10
f 15/15/15 19/19/19 14/14/14
f 18/18/18 19/19/19 15/15/15
f 18/18/18 13/13/13 19/19/19
