g WaterFall01
v -0.010615234 -10.482206 17.410732
v 6.3353586 -4.850488 12.789269
v 6.3353586 -10.482206 17.387875
v -0.00942627 -4.850488 12.81213
v -6.336577 -10.482206 17.433592
v 6.3353586 -3.308618 10.306689
v -6.335388 -4.850488 12.834988
v -0.0079223635 -3.308618 10.329542
v 6.3353586 -0.8772365 5.3651633
v -6.3338842 -3.308618 10.352399
v -0.0045947265 -0.8772365 5.3880234
v -6.3305564 -0.8772365 5.4108825
v 6.3353586 1.3240428 -0.53134274
v -0 1.3240428 -0.5084741
v -6.3259616 1.3240428 -0.48562256
v -6.31479 2.9750829 -7.440415
v 0.011171875 2.9750829 -7.463281
v 6.3353586 2.9750829 -7.486128
v -6.3044896 4.4427977 -22.692278
v 0.021472167 4.4427977 -22.715149
v -6.29657 4.6598144 -65.52861
v 6.3353586 4.4427977 -22.737976
v 0.02939453 4.6598144 -65.551476
v 6.3353586 4.6598144 -65.57432
vt 0.502133 -0.46724766
vt 0.9949708 -0.41889825
vt 0.9949708 -0.467002
vt 0.5022253 -0.41914412
vt 0.010849118 -0.46749347
vt 0.9949708 -0.39219993
vt 0.010941386 -0.41938996
vt 0.50234205 -0.39244574
vt 0.9949708 -0.33905733
vt 0.011058122 -0.3926915
vt 0.50260055 -0.33930314
vt 0.011316597 -0.33954895
vt 0.9949708 -0.19358335
vt 0.5029572 -0.19385235
vt 0.011673301 -0.19412114
vt 0.012541115 -0.041830584
vt 0.50382507 -0.041551873
vt 0.9949708 -0.04127334
vt 0.01334098 0.42446178
vt 0.5046248 0.42474073
vt 0.013955921 1.6157064
vt 0.9949708 0.42501903
vt 0.50524 1.6159854
vt 0.9949708 1.6162634
vn 0.0027946255 0.6324793 0.77457213
vn 0.0025632763 0.7026597 0.71152145
vn 0.002790343 0.6324795 0.7745721
vn 0.002567721 0.7025006 0.7116785
vn 0.0027989077 0.63247913 0.7745723
vn 0.0017001512 0.881712 0.4717849
vn 0.0025722606 0.7023203 0.7118565
vn 0.001702694 0.8816714 0.4718609
vn 0.0014169624 0.91955364 0.39296204
vn 0.0017052933 0.881623 0.47195107
vn 0.0014186772 0.91951525 0.3930517
vn 0.0014204708 0.91946846 0.39316118
vn 0.0010360208 0.9579165 0.28704512
vn 0.0010369389 0.95788306 0.287157
vn 0.0010380165 0.95783645 0.28731215
vn 0.00050329865 0.99025667 0.13925357
vn 0.00050261593 0.9902778 0.13910274
vn 0.0005020864 0.990293 0.13899423
vn 0.00010513703 0.999577 0.02908154
vn 0.0001048388 0.99957925 0.029003488
vn 1.8307113E-05 0.99998724 0.005066071
vn 0.0001045769 0.9995813 0.028935378
vn 1.8321713E-05 0.99998724 0.005066124
vn 1.833627E-05 0.99998724 0.005066175
g WaterFall01_0
f 3/3/3 2/2/2 1/1/1
f 2/2/2 4/4/4 1/1/1
f 1/1/1 4/4/4 5/5/5
f 2/2/2 6/6/6 4/4/4
f 4/4/4 7/7/7 5/5/5
f 6/6/6 8/8/8 4/4/4
f 4/4/4 8/8/8 7/7/7
f 6/6/6 9/9/9 8/8/8
f 8/8/8 10/10/10 7/7/7
f 9/9/9 11/11/11 8/8/8
f 8/8/8 11/11/11 10/10/10
f 11/11/11 12/12/12 10/10/10
f 9/9/9 13/13/13 11/11/11
f 11/11/11 14/14/14 12/12/12
f 13/13/13 14/14/14 11/11/11
f 14/14/14 15/15/15 12/12/12
f 16/16/16 15/15/15 14/14/14
f 17/17/17 14/14/14 13/13/13
f 17/17/17 16/16/16 14/14/14
f 18/18/18 17/17/17 13/13/13
f 19/19/19 16/16/16 17/17/17
f 20/20/20 17/17/17 18/18/18
f 20/20/20 19/19/19 17/17/17
f 21/21/21 19/19/19 20/20/20
f 22/22/22 20/20/20 18/18/18
f 23/23/23 21/21/21 20/20/20
f 23/23/23 20/20/20 22/22/22
f 24/24/24 23/23/23 22/22/22
