g WaveSplashes03
v 17.022402 0.0029894256 -5.285582
v 10.724348 0.0029894256 -0.28475174
v 14.549746 0.0029894256 -6.3589334
v 11.822475 0.0029894256 0.9131694
v 5.192278 0.0029894256 0.7530052
v 17.250715 -0.002987747 5.8992558
v 24.07919 0.0029894256 -0.35040602
v 6.5866795 -0.0012500762 10.332177
v 5.222986 0.0029894256 1.9050333
v -2.3770685 0.0029894256 0.29565108
v -4.9334345 -0.002987747 9.786175
v -2.6820517 0.0029894256 1.8567766
v -6.7938437 0.0029894256 -1.4183607
v -15.436733 -0.0029895783 5.8298674
v -8.020896 0.0029894256 -0.8547871
v -8.391937 0.0029894256 -3.0570843
v -20.497065 0.0029894256 2.7388763
v -10.109887 0.0029894256 -2.7201667
v -8.90775 0.0029894256 -5.6212993
v -24.03591 0.0029894256 -1.7773603
v -11.482858 0.0029894256 -5.557008
vt 0.3023742 0.9425965
vt 0.24740496 0.9992776
vt 0.30240864 0.9992776
vt 0.24515499 0.9425965
vt 0.19927672 0.9992776
vt 0.24740496 0.69699013
vt 0.30237415 0.6969902
vt 0.19927672 0.69699025
vt 0.19927672 0.9425965
vt 0.15020725 0.9993816
vt 0.15092984 0.69699013
vt 0.15207306 0.9425965
vt 0.11441962 0.9993816
vt 0.11441962 0.69699025
vt 0.11441962 0.9425965
vt 0.081384204 0.9993816
vt 0.081384204 0.6969902
vt 0.081384204 0.9425963
vt 0.051667113 0.9992776
vt 0.051667113 0.69699013
vt 0.051667113 0.9425963
vn 4.570789E-05 1 0.0003130768
vn -0 1 0
vn -0 1 0
vn 0.00027280615 0.99999976 0.00059443887
vn -0 1 0
vn 0.00033411488 0.99999976 0.00065757765
vn 7.346392E-05 0.9999999 0.00050331216
vn 6.9201196E-05 0.99999976 0.0007144935
vn 8.432543E-05 0.99999976 0.0006474957
vn -0 1 0
vn -0.000352156 0.99999976 0.00072870596
vn -0.0003379215 0.99999976 0.00067651196
vn -0 1 0
vn -0.00015765378 0.99999964 0.00082335406
vn -6.210648E-05 0.99999976 0.000780476
vn -0 1 0
vn 0.00020556181 0.9999999 0.0004609237
vn 0.00015295118 1 0.0003429632
vn -0 1 0
vn -0 1 0
vn -0 1 0
g WaveSplashes03_0
f 3/3/3 2/2/2 1/1/1
f 2/2/2 4/4/4 1/1/1
f 2/2/2 5/5/5 4/4/4
f 4/4/4 6/6/6 1/1/1
f 6/6/6 7/7/7 1/1/1
f 8/8/8 6/6/6 4/4/4
f 5/5/5 9/9/9 4/4/4
f 9/9/9 8/8/8 4/4/4
f 5/5/5 10/10/10 9/9/9
f 11/11/11 8/8/8 9/9/9
f 10/10/10 12/12/12 9/9/9
f 12/12/12 11/11/11 9/9/9
f 10/10/10 13/13/13 12/12/12
f 14/14/14 11/11/11 12/12/12
f 13/13/13 15/15/15 12/12/12
f 15/15/15 14/14/14 12/12/12
f 13/13/13 16/16/16 15/15/15
f 17/17/17 14/14/14 15/15/15
f 16/16/16 18/18/18 15/15/15
f 18/18/18 17/17/17 15/15/15
f 16/16/16 19/19/19 18/18/18
f 20/20/20 17/17/17 18/18/18
f 19/19/19 21/21/21 18/18/18
f 21/21/21 20/20/20 18/18/18
