g WCS_spotlightBeamCardGeo
v -1 -12.223259 8.064911E-06
v -1 0.31033647 8.064911E-06
v -8.064911E-06 0.31033647 8.064911E-06
v -8.064911E-06 -12.223259 8.064911E-06
v -8.064911E-06 -12.223259 8.064911E-06
v -8.064911E-06 0.31033647 8.064911E-06
v 0.9999838 0.31033647 8.064911E-06
v 0.9999838 -12.223259 8.064911E-06
vt 0.89220166 0.64524394
vt 0.89220166 0.9928474
vt 0.97234344 0.9928474
vt 0.97234344 0.64524394
vt 0.97234344 0.64524394
vt 0.97234344 0.9928474
vt 0.89220166 0.9928474
vt 0.89220166 0.64524394
vn -0 0 1
vn -0 0 1
vn -0 0 1
vn -0 0 1
vn -0 0 1
vn -0 0 1
vn -0 0 1
vn -0 0 1
g WCS_spotlightBeamCardGeo_0
f 3/3/3 2/2/2 1/1/1
f 4/4/4 3/3/3 1/1/1
f 7/7/7 6/6/6 5/5/5
f 8/8/8 7/7/7 5/5/5
